<?xml version="1.0" encoding="UTF-8" standalone="no"?>
<!DOCTYPE svg PUBLIC "-//W3C//DTD SVG 1.1//EN"
 "http://www.w3.org/Graphics/SVG/1.1/DTD/svg11.dtd">
<!-- Generated by graphviz version 2.38.0 (20140413.2041)
 -->
<!-- Title: FrameObject::getInfoList Pages: 1 -->
<svg width="508pt" height="230pt"
 viewBox="0.00 0.00 508.00 229.50" xmlns="http://www.w3.org/2000/svg" xmlns:xlink="http://www.w3.org/1999/xlink">
<g id="graph0" class="graph" transform="scale(1 1) rotate(0) translate(4 225.5)">
<title>FrameObject::getInfoList</title>
<polygon fill="white" stroke="none" points="-4,4 -4,-225.5 504,-225.5 504,4 -4,4"/>
<!-- Node1 -->
<g id="node1" class="node"><title>Node1</title>
<polygon fill="#bfbfbf" stroke="black" points="0,-107 0,-126 125,-126 125,-107 0,-107"/>
<text text-anchor="middle" x="62.5" y="-114" font-family="Helvetica,sans-Serif" font-size="10.00">FrameObject::getInfoList</text>
</g>
<!-- Node2 -->
<g id="node2" class="node"><title>Node2</title>
<g id="a_node2"><a xlink:href="classYUVSource.html#a7d527fbe40470a3af9dd643ec1e5a168" target="_top" xlink:title="YUVSource::getPath">
<polygon fill="white" stroke="black" points="181,-202 181,-221 289,-221 289,-202 181,-202"/>
<text text-anchor="middle" x="235" y="-209" font-family="Helvetica,sans-Serif" font-size="10.00">YUVSource::getPath</text>
</a>
</g>
</g>
<!-- Node1&#45;&gt;Node2 -->
<g id="edge1" class="edge"><title>Node1&#45;&gt;Node2</title>
<path fill="none" stroke="midnightblue" d="M73.0871,-126.217C89.574,-142.375 125.009,-174.741 161,-192.5 165.844,-194.89 171.023,-197.004 176.302,-198.867"/>
<polygon fill="midnightblue" stroke="midnightblue" points="175.272,-202.212 185.863,-201.958 177.425,-195.552 175.272,-202.212"/>
</g>
<!-- Node3 -->
<g id="node3" class="node"><title>Node3</title>
<g id="a_node3"><a xlink:href="classYUVSource.html#acfc1d98edcb9c1fc68ef965d6cf1f2b5" target="_top" xlink:title="YUVSource::getCreatedtime">
<polygon fill="white" stroke="black" points="164.5,-164 164.5,-183 305.5,-183 305.5,-164 164.5,-164"/>
<text text-anchor="middle" x="235" y="-171" font-family="Helvetica,sans-Serif" font-size="10.00">YUVSource::getCreatedtime</text>
</a>
</g>
</g>
<!-- Node1&#45;&gt;Node3 -->
<g id="edge2" class="edge"><title>Node1&#45;&gt;Node3</title>
<path fill="none" stroke="midnightblue" d="M85.6923,-126.007C105.282,-134.192 134.729,-145.994 161,-154.5 168.446,-156.911 176.394,-159.232 184.204,-161.373"/>
<polygon fill="midnightblue" stroke="midnightblue" points="183.41,-164.784 193.975,-163.983 185.217,-158.021 183.41,-164.784"/>
</g>
<!-- Node4 -->
<g id="node4" class="node"><title>Node4</title>
<g id="a_node4"><a xlink:href="classYUVSource.html#ae10284aa41be21a536da050cf84a453f" target="_top" xlink:title="YUVSource::getModifiedtime">
<polygon fill="white" stroke="black" points="163.5,-126 163.5,-145 306.5,-145 306.5,-126 163.5,-126"/>
<text text-anchor="middle" x="235" y="-133" font-family="Helvetica,sans-Serif" font-size="10.00">YUVSource::getModifiedtime</text>
</a>
</g>
</g>
<!-- Node1&#45;&gt;Node4 -->
<g id="edge3" class="edge"><title>Node1&#45;&gt;Node4</title>
<path fill="none" stroke="midnightblue" d="M125.054,-123.359C134.161,-124.374 143.659,-125.433 153.086,-126.483"/>
<polygon fill="midnightblue" stroke="midnightblue" points="152.94,-129.989 163.266,-127.618 153.716,-123.032 152.94,-129.989"/>
</g>
<!-- Node5 -->
<g id="node5" class="node"><title>Node5</title>
<g id="a_node5"><a xlink:href="classYUVSource.html#ac5de9a68114f9c5bf9ba3b11336bb8b3" target="_top" xlink:title="YUVSource::getNumberBytes">
<polygon fill="white" stroke="black" points="161,-88 161,-107 309,-107 309,-88 161,-88"/>
<text text-anchor="middle" x="235" y="-95" font-family="Helvetica,sans-Serif" font-size="10.00">YUVSource::getNumberBytes</text>
</a>
</g>
</g>
<!-- Node1&#45;&gt;Node5 -->
<g id="edge4" class="edge"><title>Node1&#45;&gt;Node5</title>
<path fill="none" stroke="midnightblue" d="M125.054,-109.641C133.419,-108.708 142.113,-107.74 150.78,-106.774"/>
<polygon fill="midnightblue" stroke="midnightblue" points="151.369,-110.23 160.92,-105.644 150.594,-103.273 151.369,-110.23"/>
</g>
<!-- Node6 -->
<g id="node6" class="node"><title>Node6</title>
<g id="a_node6"><a xlink:href="classFrameObject.html#a1069def130e7deac035f166084ae4ca8" target="_top" xlink:title="FrameObject::numFrames">
<polygon fill="white" stroke="black" points="169.5,-50 169.5,-69 300.5,-69 300.5,-50 169.5,-50"/>
<text text-anchor="middle" x="235" y="-57" font-family="Helvetica,sans-Serif" font-size="10.00">FrameObject::numFrames</text>
</a>
</g>
</g>
<!-- Node1&#45;&gt;Node6 -->
<g id="edge5" class="edge"><title>Node1&#45;&gt;Node6</title>
<path fill="none" stroke="midnightblue" d="M85.6923,-106.993C105.282,-98.8078 134.729,-87.0062 161,-78.5 168.446,-76.0891 176.394,-73.7683 184.204,-71.6269"/>
<polygon fill="midnightblue" stroke="midnightblue" points="185.217,-74.9793 193.975,-69.0173 183.41,-68.2164 185.217,-74.9793"/>
</g>
<!-- Node8 -->
<g id="node8" class="node"><title>Node8</title>
<g id="a_node8"><a xlink:href="classDisplayObject.html#ae44115df455b077d7f5524ffa4e32588" target="_top" xlink:title="DisplayObject::getStatus\lAndInfo">
<polygon fill="white" stroke="black" points="172,-0.5 172,-30.5 298,-30.5 298,-0.5 172,-0.5"/>
<text text-anchor="start" x="180" y="-18.5" font-family="Helvetica,sans-Serif" font-size="10.00">DisplayObject::getStatus</text>
<text text-anchor="middle" x="235" y="-7.5" font-family="Helvetica,sans-Serif" font-size="10.00">AndInfo</text>
</a>
</g>
</g>
<!-- Node1&#45;&gt;Node8 -->
<g id="edge7" class="edge"><title>Node1&#45;&gt;Node8</title>
<path fill="none" stroke="midnightblue" d="M73.5081,-106.822C90.3306,-91.01 125.892,-59.4991 161,-40.5 164.951,-38.3621 169.119,-36.3554 173.379,-34.4822"/>
<polygon fill="midnightblue" stroke="midnightblue" points="174.896,-37.6428 182.807,-30.5953 172.228,-31.1713 174.896,-37.6428"/>
</g>
<!-- Node7 -->
<g id="node7" class="node"><title>Node7</title>
<g id="a_node7"><a xlink:href="classYUVSource.html#afaf713d38c871df33f6e28e9d589c86c" target="_top" xlink:title="YUVSource::getNumberFrames">
<polygon fill="white" stroke="black" points="345,-50 345,-69 500,-69 500,-50 345,-50"/>
<text text-anchor="middle" x="422.5" y="-57" font-family="Helvetica,sans-Serif" font-size="10.00">YUVSource::getNumberFrames</text>
</a>
</g>
</g>
<!-- Node6&#45;&gt;Node7 -->
<g id="edge6" class="edge"><title>Node6&#45;&gt;Node7</title>
<path fill="none" stroke="midnightblue" d="M300.618,-59.5C311.617,-59.5 323.198,-59.5 334.659,-59.5"/>
<polygon fill="midnightblue" stroke="midnightblue" points="334.682,-63.0001 344.682,-59.5 334.682,-56.0001 334.682,-63.0001"/>
</g>
</g>
</svg>
