<?xml version="1.0" encoding="UTF-8" standalone="no"?>
<!DOCTYPE svg PUBLIC "-//W3C//DTD SVG 1.1//EN"
 "http://www.w3.org/Graphics/SVG/1.1/DTD/svg11.dtd">
<!-- Generated by graphviz version 2.38.0 (20140413.2041)
 -->
<!-- Title: PListSerializer::serializeMap Pages: 1 -->
<svg width="584pt" height="80pt"
 viewBox="0.00 0.00 584.00 80.03" xmlns="http://www.w3.org/2000/svg" xmlns:xlink="http://www.w3.org/1999/xlink">
<g id="graph0" class="graph" transform="scale(1 1) rotate(0) translate(4 76.0263)">
<title>PListSerializer::serializeMap</title>
<polygon fill="white" stroke="none" points="-4,4 -4,-76.0263 580,-76.0263 580,4 -4,4"/>
<!-- Node1 -->
<g id="node1" class="node"><title>Node1</title>
<polygon fill="#bfbfbf" stroke="black" points="0,-35.5 0,-54.5 140,-54.5 140,-35.5 0,-35.5"/>
<text text-anchor="middle" x="70" y="-42.5" font-family="Helvetica,sans-Serif" font-size="10.00">PListSerializer::serializeMap</text>
</g>
<!-- Node2 -->
<g id="node2" class="node"><title>Node2</title>
<g id="a_node2"><a xlink:href="plistserializer_8cpp.html#abdd9685c5a5fd4bdd06fd3915cad3bd6" target="_top" xlink:title="textElement">
<polygon fill="white" stroke="black" points="507,-39.5 507,-58.5 576,-58.5 576,-39.5 507,-39.5"/>
<text text-anchor="middle" x="541.5" y="-46.5" font-family="Helvetica,sans-Serif" font-size="10.00">textElement</text>
</a>
</g>
</g>
<!-- Node1&#45;&gt;Node2 -->
<g id="edge1" class="edge"><title>Node1&#45;&gt;Node2</title>
<path fill="none" stroke="midnightblue" d="M102.82,-54.6268C123.462,-60.3596 151.061,-67.072 176,-70 210.518,-74.0527 465.071,-67.8076 471,-67 480.523,-65.7028 490.615,-63.554 500.069,-61.1843"/>
<polygon fill="midnightblue" stroke="midnightblue" points="501.245,-64.4937 510.019,-58.556 499.457,-57.7258 501.245,-64.4937"/>
</g>
<!-- Node3 -->
<g id="node3" class="node"><title>Node3</title>
<g id="a_node3"><a xlink:href="classPListSerializer.html#a0167db85d915aea8d37b3e76b444fd31" target="_top" xlink:title="PListSerializer::serialize\lElement">
<polygon fill="white" stroke="black" points="176,-30 176,-60 298,-60 298,-30 176,-30"/>
<text text-anchor="start" x="184" y="-48" font-family="Helvetica,sans-Serif" font-size="10.00">PListSerializer::serialize</text>
<text text-anchor="middle" x="237" y="-37" font-family="Helvetica,sans-Serif" font-size="10.00">Element</text>
</a>
</g>
</g>
<!-- Node1&#45;&gt;Node3 -->
<g id="edge2" class="edge"><title>Node1&#45;&gt;Node3</title>
<path fill="none" stroke="midnightblue" d="M140.019,-38.3307C148.494,-38.2284 157.165,-38.2233 165.66,-38.3156"/>
<polygon fill="midnightblue" stroke="midnightblue" points="165.856,-41.819 175.91,-38.4764 165.966,-34.8199 165.856,-41.819"/>
</g>
<!-- Node3&#45;&gt;Node1 -->
<g id="edge3" class="edge"><title>Node3&#45;&gt;Node1</title>
<path fill="none" stroke="midnightblue" d="M175.91,-51.5236C167.528,-51.6969 158.813,-51.7707 150.146,-51.745"/>
<polygon fill="midnightblue" stroke="midnightblue" points="150.045,-48.2443 140.019,-51.6693 149.992,-55.2441 150.045,-48.2443"/>
</g>
<!-- Node4 -->
<g id="node4" class="node"><title>Node4</title>
<g id="a_node4"><a xlink:href="classPListSerializer.html#a3931479543c53e915f00161c3ddf1500" target="_top" xlink:title="PListSerializer::serializeList">
<polygon fill="white" stroke="black" points="334,-38.5 334,-57.5 471,-57.5 471,-38.5 334,-38.5"/>
<text text-anchor="middle" x="402.5" y="-45.5" font-family="Helvetica,sans-Serif" font-size="10.00">PListSerializer::serializeList</text>
</a>
</g>
</g>
<!-- Node3&#45;&gt;Node4 -->
<g id="edge4" class="edge"><title>Node3&#45;&gt;Node4</title>
<path fill="none" stroke="midnightblue" d="M298.417,-39.5671C306.72,-39.5537 315.34,-39.6449 323.898,-39.8338"/>
<polygon fill="midnightblue" stroke="midnightblue" points="323.805,-43.3325 333.895,-40.1002 323.991,-36.335 323.805,-43.3325"/>
</g>
<!-- Node5 -->
<g id="node5" class="node"><title>Node5</title>
<g id="a_node5"><a xlink:href="plistserializer_8cpp.html#a69e092811e46f43d9a1da598c7917123" target="_top" xlink:title="serializePrimitive">
<polygon fill="white" stroke="black" points="357,-0.5 357,-19.5 448,-19.5 448,-0.5 357,-0.5"/>
<text text-anchor="middle" x="402.5" y="-7.5" font-family="Helvetica,sans-Serif" font-size="10.00">serializePrimitive</text>
</a>
</g>
</g>
<!-- Node3&#45;&gt;Node5 -->
<g id="edge6" class="edge"><title>Node3&#45;&gt;Node5</title>
<path fill="none" stroke="midnightblue" d="M298.417,-32.0667C314.311,-28.6643 331.362,-25.0142 346.93,-21.6817"/>
<polygon fill="midnightblue" stroke="midnightblue" points="347.872,-25.0593 356.918,-19.5435 346.407,-18.2144 347.872,-25.0593"/>
</g>
<!-- Node4&#45;&gt;Node3 -->
<g id="edge5" class="edge"><title>Node4&#45;&gt;Node3</title>
<path fill="none" stroke="midnightblue" d="M333.895,-53.4189C325.533,-53.3736 316.968,-53.2278 308.564,-52.9883"/>
<polygon fill="midnightblue" stroke="midnightblue" points="308.528,-49.4852 298.417,-52.65 308.295,-56.4813 308.528,-49.4852"/>
</g>
<!-- Node5&#45;&gt;Node2 -->
<g id="edge7" class="edge"><title>Node5&#45;&gt;Node2</title>
<path fill="none" stroke="midnightblue" d="M437.504,-19.5298C448.225,-22.5456 460.111,-25.9006 471,-29 479.686,-31.4723 488.978,-34.1342 497.849,-36.6841"/>
<polygon fill="midnightblue" stroke="midnightblue" points="497.054,-40.0972 507.632,-39.4992 498.99,-33.3702 497.054,-40.0972"/>
</g>
</g>
</svg>
