<?xml version="1.0" encoding="UTF-8" standalone="no"?>
<!DOCTYPE svg PUBLIC "-//W3C//DTD SVG 1.1//EN"
 "http://www.w3.org/Graphics/SVG/1.1/DTD/svg11.dtd">
<!-- Generated by graphviz version 2.38.0 (20140413.2041)
 -->
<!-- Title: DisplayObject::getInfoTitle Pages: 1 -->
<!--zoomable 236 -->
<svg id="main" version="1.1" xmlns="http://www.w3.org/2000/svg" xmlns:xlink="http://www.w3.org/1999/xlink" xml:space="preserve" onload="init(evt)">
<style type="text/css"><![CDATA[
.edge:hover path { stroke: red; }
.edge:hover polygon { stroke: red; fill: red; }
]]></style>
<script type="text/javascript"><![CDATA[
var edges = document.getElementsByTagName('g');
if (edges && edges.length) {
  for (var i=0;i<edges.length;i++) {
    if (edges[i].id.substr(0,4)=='edge') {
      edges[i].setAttribute('class','edge');
    }
  }
}
]]></script>
        <defs>
                <circle id="rim" cx="0" cy="0" r="7"/>
                <circle id="rim2" cx="0" cy="0" r="3.5"/>
                <g id="zoomPlus">
                        <use xlink:href="#rim" fill="#404040">
                                <set attributeName="fill" to="#808080" begin="zoomplus.mouseover" end="zoomplus.mouseout"/>
                        </use>
                        <path d="M-4,0h8M0,-4v8" fill="none" stroke="white" stroke-width="1.5" pointer-events="none"/>
                </g>
                <g id="zoomMin">
                        <use xlink:href="#rim" fill="#404040">
                                <set attributeName="fill" to="#808080" begin="zoomminus.mouseover" end="zoomminus.mouseout"/>
                        </use>
                        <path d="M-4,0h8" fill="none" stroke="white" stroke-width="1.5" pointer-events="none"/>
                </g>
                <g id="dirArrow">
                        <path fill="none" stroke="white" stroke-width="1.5" d="M0,-3.0v7 M-2.5,-0.5L0,-3.0L2.5,-0.5"/>
                </g>
               <g id="resetDef">
                       <use xlink:href="#rim2" fill="#404040">
                               <set attributeName="fill" to="#808080" begin="reset.mouseover" end="reset.mouseout"/>
                       </use>
               </g>
        </defs>

<script type="text/javascript">
var viewWidth = 1421;
var viewHeight = 236;
var sectionId = 'dynsection-9';
</script>
<script xlink:href="svgpan.js"/>
<svg id="graph" class="graph">
<g id="viewport">
<title>DisplayObject::getInfoTitle</title>
<polygon fill="white" stroke="none" points="-4,4 -4,-232.031 1417,-232.031 1417,4 -4,4"/>
<!-- Node1 -->
<g id="node1" class="node"><title>Node1</title>
<polygon fill="#bfbfbf" stroke="black" points="0,-32.1366 0,-51.1366 133,-51.1366 133,-32.1366 0,-32.1366"/>
<text text-anchor="middle" x="66.5" y="-39.1366" font-family="Helvetica,sans-Serif" font-size="10.00">DisplayObject::getInfoTitle</text>
</g>
<!-- Node2 -->
<g id="node2" class="node"><title>Node2</title>
<g id="a_node2"><a xlink:href="classPlaylistItem.html#a6e67151b5a7da8967a9a931648f6c6a1" target="_top" xlink:title="PlaylistItem::getInfoTitel">
<polygon fill="white" stroke="black" points="169,-32.1366 169,-51.1366 292,-51.1366 292,-32.1366 169,-32.1366"/>
<text text-anchor="middle" x="230.5" y="-39.1366" font-family="Helvetica,sans-Serif" font-size="10.00">PlaylistItem::getInfoTitel</text>
</a>
</g>
</g>
<!-- Node1&#45;&gt;Node2 -->
<g id="edge1" class="edge"><title>Node1&#45;&gt;Node2</title>
<path fill="none" stroke="midnightblue" d="M143.656,-41.6366C152.12,-41.6366 160.655,-41.6366 168.889,-41.6366"/>
<polygon fill="midnightblue" stroke="midnightblue" points="143.392,-38.1367 133.392,-41.6366 143.392,-45.1367 143.392,-38.1367"/>
</g>
<!-- Node3 -->
<g id="node3" class="node"><title>Node3</title>
<g id="a_node3"><a xlink:href="classMainWindow.html#a29e6418f12a4331860a7db3616e91600" target="_top" xlink:title="updates the YUV information GUI elements from the current Renderobject ">
<polygon fill="white" stroke="black" points="328,-26.6366 328,-56.6366 477,-56.6366 477,-26.6366 328,-26.6366"/>
<text text-anchor="start" x="336" y="-44.6366" font-family="Helvetica,sans-Serif" font-size="10.00">MainWindow::updateSelection</text>
<text text-anchor="middle" x="402.5" y="-33.6366" font-family="Helvetica,sans-Serif" font-size="10.00">MetaInfo</text>
</a>
</g>
</g>
<!-- Node2&#45;&gt;Node3 -->
<g id="edge2" class="edge"><title>Node2&#45;&gt;Node3</title>
<path fill="none" stroke="midnightblue" d="M302.529,-41.6366C310.934,-41.6366 319.526,-41.6366 327.964,-41.6366"/>
<polygon fill="midnightblue" stroke="midnightblue" points="302.394,-38.1367 292.394,-41.6366 302.394,-45.1367 302.394,-38.1367"/>
</g>
<!-- Node4 -->
<g id="node4" class="node"><title>Node4</title>
<g id="a_node4"><a xlink:href="classMainWindow.html#a6f33e93f427ff2df80edffcb3ad944da" target="_top" xlink:title="MainWindow::updateSelected\lItems">
<polygon fill="white" stroke="black" points="698,-92.6366 698,-122.637 844,-122.637 844,-92.6366 698,-92.6366"/>
<text text-anchor="start" x="706" y="-110.637" font-family="Helvetica,sans-Serif" font-size="10.00">MainWindow::updateSelected</text>
<text text-anchor="middle" x="771" y="-99.6366" font-family="Helvetica,sans-Serif" font-size="10.00">Items</text>
</a>
</g>
</g>
<!-- Node3&#45;&gt;Node4 -->
<g id="edge3" class="edge"><title>Node3&#45;&gt;Node4</title>
<path fill="none" stroke="midnightblue" d="M439.102,-61.4485C459.976,-72.0617 487.233,-84.2379 513,-90.6366 574.082,-105.805 645.685,-109.433 697.776,-109.625"/>
<polygon fill="midnightblue" stroke="midnightblue" points="440.476,-58.2178 429.989,-56.7085 437.246,-64.4281 440.476,-58.2178"/>
</g>
<!-- Node12 -->
<g id="node12" class="node"><title>Node12</title>
<g id="a_node12"><a xlink:href="classMainWindow.html#a2cae0b3ed4283301ecc11dc881d31422" target="_top" xlink:title="A file option was changed by the user (width/height/start/end/rate/sampling/frameSize/pixelFormat). ">
<polygon fill="white" stroke="black" points="519.5,-2.63661 519.5,-32.6366 655.5,-32.6366 655.5,-2.63661 519.5,-2.63661"/>
<text text-anchor="start" x="527.5" y="-20.6366" font-family="Helvetica,sans-Serif" font-size="10.00">MainWindow::on_fileOption</text>
<text text-anchor="middle" x="587.5" y="-9.63661" font-family="Helvetica,sans-Serif" font-size="10.00">ValueChanged</text>
</a>
</g>
</g>
<!-- Node3&#45;&gt;Node12 -->
<g id="edge16" class="edge"><title>Node3&#45;&gt;Node12</title>
<path fill="none" stroke="midnightblue" d="M478.685,-25.1226C492.109,-23.2021 506.017,-21.4175 519.202,-19.927"/>
<polygon fill="midnightblue" stroke="midnightblue" points="477.919,-21.6975 468.534,-26.615 478.937,-28.6231 477.919,-21.6975"/>
</g>
<!-- Node13 -->
<g id="node13" class="node"><title>Node13</title>
<g id="a_node13"><a xlink:href="classMainWindow.html#a23cc43af3c6873f9a936b5af05c99f49" target="_top" xlink:title="The display objects information changed. Update. ">
<polygon fill="white" stroke="black" points="513,-51.6366 513,-81.6366 662,-81.6366 662,-51.6366 513,-51.6366"/>
<text text-anchor="start" x="521" y="-69.6366" font-family="Helvetica,sans-Serif" font-size="10.00">MainWindow::currentSelection</text>
<text text-anchor="middle" x="587.5" y="-58.6366" font-family="Helvetica,sans-Serif" font-size="10.00">InformationChanged</text>
</a>
</g>
</g>
<!-- Node3&#45;&gt;Node13 -->
<g id="edge19" class="edge"><title>Node3&#45;&gt;Node13</title>
<path fill="none" stroke="midnightblue" d="M487.109,-53.0586C495.651,-54.2255 504.285,-55.405 512.711,-56.5561"/>
<polygon fill="midnightblue" stroke="midnightblue" points="487.524,-49.5828 477.142,-51.697 486.576,-56.5184 487.524,-49.5828"/>
</g>
<!-- Node5 -->
<g id="node5" class="node"><title>Node5</title>
<g id="a_node5"><a xlink:href="classMainWindow.html#a8b244be8b7b7db1b08de2a2acb9409db" target="_top" xlink:title="MainWindow::MainWindow">
<polygon fill="white" stroke="black" points="1278,-112.137 1278,-131.137 1413,-131.137 1413,-112.137 1278,-112.137"/>
<text text-anchor="middle" x="1345.5" y="-119.137" font-family="Helvetica,sans-Serif" font-size="10.00">MainWindow::MainWindow</text>
</a>
</g>
</g>
<!-- Node4&#45;&gt;Node5 -->
<g id="edge4" class="edge"><title>Node4&#45;&gt;Node5</title>
<path fill="none" stroke="midnightblue" d="M800.905,-128.576C821.918,-142.892 851.551,-161.266 880,-172.637 956.099,-203.051 978.538,-203.694 1060,-212.637 1140.41,-221.463 1166.38,-241.36 1242,-212.637 1285.82,-195.99 1322.9,-151.075 1337.66,-131.257"/>
<polygon fill="midnightblue" stroke="midnightblue" points="802.668,-125.54 792.455,-122.721 798.681,-131.293 802.668,-125.54"/>
</g>
<!-- Node6 -->
<g id="node6" class="node"><title>Node6</title>
<g id="a_node6"><a xlink:href="classMainWindow.html#a6be7246a1a0ecf5d1442bb1775c3d9b3" target="_top" xlink:title="MainWindow::addDifference\lSequence">
<polygon fill="white" stroke="black" points="882,-133.637 882,-163.637 1022,-163.637 1022,-133.637 882,-133.637"/>
<text text-anchor="start" x="890" y="-151.637" font-family="Helvetica,sans-Serif" font-size="10.00">MainWindow::addDifference</text>
<text text-anchor="middle" x="952" y="-140.637" font-family="Helvetica,sans-Serif" font-size="10.00">Sequence</text>
</a>
</g>
</g>
<!-- Node4&#45;&gt;Node6 -->
<g id="edge5" class="edge"><title>Node4&#45;&gt;Node6</title>
<path fill="none" stroke="midnightblue" d="M847.606,-124.954C860.161,-127.83 873.09,-130.791 885.371,-133.604"/>
<polygon fill="midnightblue" stroke="midnightblue" points="848.166,-121.492 837.637,-122.671 846.603,-128.315 848.166,-121.492"/>
</g>
<!-- Node9 -->
<g id="node9" class="node"><title>Node9</title>
<g id="a_node9"><a xlink:href="classMainWindow.html#af5ecc7c65080215b49b9d931c56c65c9" target="_top" xlink:title="MainWindow::editTextFrame">
<polygon fill="white" stroke="black" points="881,-95.1366 881,-114.137 1023,-114.137 1023,-95.1366 881,-95.1366"/>
<text text-anchor="middle" x="952" y="-102.137" font-family="Helvetica,sans-Serif" font-size="10.00">MainWindow::editTextFrame</text>
</a>
</g>
</g>
<!-- Node4&#45;&gt;Node9 -->
<g id="edge10" class="edge"><title>Node4&#45;&gt;Node9</title>
<path fill="none" stroke="midnightblue" d="M854.075,-106.261C863.024,-106.111 872.073,-105.959 880.86,-105.812"/>
<polygon fill="midnightblue" stroke="midnightblue" points="853.972,-102.762 844.032,-106.429 854.09,-109.761 853.972,-102.762"/>
</g>
<!-- Node11 -->
<g id="node11" class="node"><title>Node11</title>
<g id="a_node11"><a xlink:href="classMainWindow.html#a156c29c6d7ab278e4246c88a0fcbe2f2" target="_top" xlink:title="MainWindow::updateSettings">
<polygon fill="white" stroke="black" points="880,-51.1366 880,-70.1366 1024,-70.1366 1024,-51.1366 880,-51.1366"/>
<text text-anchor="middle" x="952" y="-58.1366" font-family="Helvetica,sans-Serif" font-size="10.00">MainWindow::updateSettings</text>
</a>
</g>
</g>
<!-- Node4&#45;&gt;Node11 -->
<g id="edge14" class="edge"><title>Node4&#45;&gt;Node11</title>
<path fill="none" stroke="midnightblue" d="M838.825,-90.0903C864.517,-83.3444 892.877,-75.8979 914.654,-70.1801"/>
<polygon fill="midnightblue" stroke="midnightblue" points="837.912,-86.7114 829.129,-92.6363 839.69,-93.4819 837.912,-86.7114"/>
</g>
<!-- Node7 -->
<g id="node7" class="node"><title>Node7</title>
<g id="a_node7"><a xlink:href="classMainWindow.html#a9df7443ce5f907903438bb6a9abe9a33" target="_top" xlink:title="MainWindow::createMenusAnd\lActions">
<polygon fill="white" stroke="black" points="1075,-172.637 1075,-202.637 1227,-202.637 1227,-172.637 1075,-172.637"/>
<text text-anchor="start" x="1083" y="-190.637" font-family="Helvetica,sans-Serif" font-size="10.00">MainWindow::createMenusAnd</text>
<text text-anchor="middle" x="1151" y="-179.637" font-family="Helvetica,sans-Serif" font-size="10.00">Actions</text>
</a>
</g>
</g>
<!-- Node6&#45;&gt;Node7 -->
<g id="edge6" class="edge"><title>Node6&#45;&gt;Node7</title>
<path fill="none" stroke="midnightblue" d="M1032.31,-164.338C1046.39,-167.124 1061,-170.018 1074.96,-172.78"/>
<polygon fill="midnightblue" stroke="midnightblue" points="1032.67,-160.84 1022.18,-162.332 1031.31,-167.707 1032.67,-160.84"/>
</g>
<!-- Node8 -->
<g id="node8" class="node"><title>Node8</title>
<g id="a_node8"><a xlink:href="classMainWindow.html#aaba5c236313378986c42c4a634c4cfb9" target="_top" xlink:title="MainWindow::onCustomContextMenu">
<polygon fill="white" stroke="black" points="1060,-134.137 1060,-153.137 1242,-153.137 1242,-134.137 1060,-134.137"/>
<text text-anchor="middle" x="1151" y="-141.137" font-family="Helvetica,sans-Serif" font-size="10.00">MainWindow::onCustomContextMenu</text>
</a>
</g>
</g>
<!-- Node6&#45;&gt;Node8 -->
<g id="edge8" class="edge"><title>Node6&#45;&gt;Node8</title>
<path fill="none" stroke="midnightblue" d="M1032.31,-146.624C1041.39,-146.393 1050.69,-146.157 1059.9,-145.923"/>
<polygon fill="midnightblue" stroke="midnightblue" points="1032.09,-143.128 1022.18,-146.881 1032.26,-150.126 1032.09,-143.128"/>
</g>
<!-- Node7&#45;&gt;Node5 -->
<g id="edge7" class="edge"><title>Node7&#45;&gt;Node5</title>
<path fill="none" stroke="midnightblue" d="M1219.52,-169.748C1227.14,-167.473 1234.76,-165.081 1242,-162.637 1270.33,-153.069 1302.19,-139.937 1322.77,-131.138"/>
<polygon fill="midnightblue" stroke="midnightblue" points="1218.52,-166.395 1209.9,-172.563 1220.48,-173.114 1218.52,-166.395"/>
</g>
<!-- Node8&#45;&gt;Node5 -->
<g id="edge9" class="edge"><title>Node8&#45;&gt;Node5</title>
<path fill="none" stroke="midnightblue" d="M1245.36,-132.967C1256.34,-131.712 1267.36,-130.452 1277.87,-129.252"/>
<polygon fill="midnightblue" stroke="midnightblue" points="1244.85,-129.502 1235.31,-134.115 1245.65,-136.457 1244.85,-129.502"/>
</g>
<!-- Node9&#45;&gt;Node8 -->
<g id="edge11" class="edge"><title>Node9&#45;&gt;Node8</title>
<path fill="none" stroke="midnightblue" d="M1011.16,-116.151C1040.07,-121.874 1074.58,-128.706 1101.96,-134.127"/>
<polygon fill="midnightblue" stroke="midnightblue" points="1011.68,-112.686 1001.19,-114.177 1010.32,-119.553 1011.68,-112.686"/>
</g>
<!-- Node10 -->
<g id="node10" class="node"><title>Node10</title>
<g id="a_node10"><a xlink:href="classMainWindow.html#ab18c663524e2c130759c0ca960129ea4" target="_top" xlink:title="MainWindow::onItemDouble\lClicked">
<polygon fill="white" stroke="black" points="1081,-84.6366 1081,-114.637 1221,-114.637 1221,-84.6366 1081,-84.6366"/>
<text text-anchor="start" x="1089" y="-102.637" font-family="Helvetica,sans-Serif" font-size="10.00">MainWindow::onItemDouble</text>
<text text-anchor="middle" x="1151" y="-91.6366" font-family="Helvetica,sans-Serif" font-size="10.00">Clicked</text>
</a>
</g>
</g>
<!-- Node9&#45;&gt;Node10 -->
<g id="edge12" class="edge"><title>Node9&#45;&gt;Node10</title>
<path fill="none" stroke="midnightblue" d="M1033.27,-102.599C1049.06,-102.199 1065.5,-101.781 1080.88,-101.391"/>
<polygon fill="midnightblue" stroke="midnightblue" points="1032.92,-99.107 1023.01,-102.86 1033.1,-106.105 1032.92,-99.107"/>
</g>
<!-- Node10&#45;&gt;Node5 -->
<g id="edge13" class="edge"><title>Node10&#45;&gt;Node5</title>
<path fill="none" stroke="midnightblue" d="M1231.28,-108.697C1246.75,-110.465 1262.81,-112.301 1277.82,-114.016"/>
<polygon fill="midnightblue" stroke="midnightblue" points="1231.56,-105.206 1221.22,-107.548 1230.76,-112.161 1231.56,-105.206"/>
</g>
<!-- Node11&#45;&gt;Node5 -->
<g id="edge15" class="edge"><title>Node11&#45;&gt;Node5</title>
<path fill="none" stroke="midnightblue" d="M1034.45,-56.406C1093.01,-55.331 1173.4,-57.9102 1242,-74.6366 1274.33,-82.5205 1308.92,-100.66 1328.52,-111.957"/>
<polygon fill="midnightblue" stroke="midnightblue" points="1034.07,-52.9136 1024.15,-56.6369 1034.22,-59.9119 1034.07,-52.9136"/>
</g>
<!-- Node12&#45;&gt;Node3 -->
<g id="edge18" class="edge"><title>Node12&#45;&gt;Node3</title>
<path fill="none" stroke="midnightblue" d="M511.657,-34.1016C500.262,-35.7348 488.511,-37.2709 477.142,-38.613"/>
<polygon fill="midnightblue" stroke="midnightblue" points="512.177,-37.563 521.56,-32.6439 511.157,-30.6376 512.177,-37.563"/>
</g>
<!-- Node12&#45;&gt;Node5 -->
<g id="edge17" class="edge"><title>Node12&#45;&gt;Node5</title>
<path fill="none" stroke="midnightblue" d="M665.818,-8.78784C790.693,2.67298 1042.89,14.0106 1242,-52.6366 1280.04,-65.3694 1317.2,-96.3177 1334.47,-112.076"/>
<polygon fill="midnightblue" stroke="midnightblue" points="665.22,-5.32871 655.593,-9.75298 665.877,-12.2977 665.22,-5.32871"/>
</g>
<!-- Node13&#45;&gt;Node4 -->
<g id="edge20" class="edge"><title>Node13&#45;&gt;Node4</title>
<path fill="none" stroke="midnightblue" d="M665.162,-83.9541C677.892,-86.8298 691.001,-89.7912 703.455,-92.6043"/>
<polygon fill="midnightblue" stroke="midnightblue" points="665.579,-80.4602 655.053,-81.6707 664.036,-87.2882 665.579,-80.4602"/>
</g>
</g>
</svg>
        <g id="navigator" transform="translate(0 0)" fill="#404254">
                <rect fill="#f2f5e9" fill-opacity="0.5" stroke="#606060" stroke-width=".5" x="0" y="0" width="60" height="60"/>
                <use id="zoomplus" xlink:href="#zoomPlus" x="17" y="9" onmousedown="handleZoom(evt,'in')"/>
                <use id="zoomminus" xlink:href="#zoomMin" x="42" y="9" onmousedown="handleZoom(evt,'out')"/>
                <use id="reset" xlink:href="#resetDef" x="30" y="36" onmousedown="handleReset()"/>
                <g id="arrowUp" xlink:href="#dirArrow" transform="translate(30 24)" onmousedown="handlePan(0,-1)">
                  <use xlink:href="#rim" fill="#404040">
                        <set attributeName="fill" to="#808080" begin="arrowUp.mouseover" end="arrowUp.mouseout"/>
                  </use>
                  <path fill="none" stroke="white" stroke-width="1.5" d="M0,-3.0v7 M-2.5,-0.5L0,-3.0L2.5,-0.5"/>
                </g>
                <g id="arrowRight" xlink:href="#dirArrow" transform="rotate(90) translate(36 -43)" onmousedown="handlePan(1,0)">
                  <use xlink:href="#rim" fill="#404040">
                        <set attributeName="fill" to="#808080" begin="arrowRight.mouseover" end="arrowRight.mouseout"/>
                  </use>
                  <path fill="none" stroke="white" stroke-width="1.5" d="M0,-3.0v7 M-2.5,-0.5L0,-3.0L2.5,-0.5"/>
                </g>
                <g id="arrowDown" xlink:href="#dirArrow" transform="rotate(180) translate(-30 -48)" onmousedown="handlePan(0,1)">
                  <use xlink:href="#rim" fill="#404040">
                        <set attributeName="fill" to="#808080" begin="arrowDown.mouseover" end="arrowDown.mouseout"/>
                  </use>
                  <path fill="none" stroke="white" stroke-width="1.5" d="M0,-3.0v7 M-2.5,-0.5L0,-3.0L2.5,-0.5"/>
                </g>
                <g id="arrowLeft" xlink:href="#dirArrow" transform="rotate(270) translate(-36 17)" onmousedown="handlePan(-1,0)">
                  <use xlink:href="#rim" fill="#404040">
                        <set attributeName="fill" to="#808080" begin="arrowLeft.mouseover" end="arrowLeft.mouseout"/>
                  </use>
                  <path fill="none" stroke="white" stroke-width="1.5" d="M0,-3.0v7 M-2.5,-0.5L0,-3.0L2.5,-0.5"/>
                </g>
        </g>
        <svg viewBox="0 0 15 15" width="100%" height="30px" preserveAspectRatio="xMaxYMin meet">
         <g id="arrow_out" transform="scale(0.3 0.3)">
          <a xlink:href="classDisplayObject_a524b637b950f8121baeb357838ec00e3_icgraph_org.svg" target="_base">
           <rect id="button" ry="5" rx="5" y="6" x="6" height="38" width="38"
                fill="#f2f5e9" fill-opacity="0.5" stroke="#606060" stroke-width="1.0"/>
           <path id="arrow"
             d="M 11.500037,31.436501 C 11.940474,20.09759 22.043105,11.32322 32.158766,21.979434 L 37.068811,17.246167 C 37.068811,17.246167 37.088388,32 37.088388,32 L 22.160133,31.978069 C 22.160133,31.978069 26.997745,27.140456 26.997745,27.140456 C 18.528582,18.264221 13.291696,25.230495 11.500037,31.436501 z"
             style="fill:#404040;"/>
          </a>
         </g>
        </svg>
</svg>
