<?xml version="1.0" encoding="UTF-8" standalone="no"?>
<!DOCTYPE svg PUBLIC "-//W3C//DTD SVG 1.1//EN"
 "http://www.w3.org/Graphics/SVG/1.1/DTD/svg11.dtd">
<!-- Generated by graphviz version 2.38.0 (20140413.2041)
 -->
<!-- Title: MainWindow::nextFrame Pages: 1 -->
<svg width="530pt" height="192pt"
 viewBox="0.00 0.00 530.00 191.50" xmlns="http://www.w3.org/2000/svg" xmlns:xlink="http://www.w3.org/1999/xlink">
<g id="graph0" class="graph" transform="scale(1 1) rotate(0) translate(4 187.5)">
<title>MainWindow::nextFrame</title>
<polygon fill="white" stroke="none" points="-4,4 -4,-187.5 526,-187.5 526,4 -4,4"/>
<!-- Node1 -->
<g id="node1" class="node"><title>Node1</title>
<polygon fill="#bfbfbf" stroke="black" points="0,-106.5 0,-125.5 125,-125.5 125,-106.5 0,-106.5"/>
<text text-anchor="middle" x="62.5" y="-113.5" font-family="Helvetica,sans-Serif" font-size="10.00">MainWindow::nextFrame</text>
</g>
<!-- Node2 -->
<g id="node2" class="node"><title>Node2</title>
<g id="a_node2"><a xlink:href="classMainWindow.html#a904474dcf6f3da3e95bba2380192129a" target="_top" xlink:title="set current frame for playback ">
<polygon fill="white" stroke="black" points="161,-76.5 161,-95.5 313,-95.5 313,-76.5 161,-76.5"/>
<text text-anchor="middle" x="237" y="-83.5" font-family="Helvetica,sans-Serif" font-size="10.00">MainWindow::setCurrentFrame</text>
</a>
</g>
</g>
<!-- Node1&#45;&gt;Node2 -->
<g id="edge1" class="edge"><title>Node1&#45;&gt;Node2</title>
<path fill="none" stroke="midnightblue" d="M118.554,-106.425C135.286,-103.515 153.829,-100.291 171.143,-97.2795"/>
<polygon fill="midnightblue" stroke="midnightblue" points="171.92,-100.697 181.173,-95.5352 170.721,-93.8004 171.92,-100.697"/>
</g>
<!-- Node3 -->
<g id="node3" class="node"><title>Node3</title>
<g id="a_node3"><a xlink:href="classMainWindow.html#aea2b70d7ccb204793c3121600f612c84" target="_top" xlink:title="Return the primary and secondary playlist item that is currently selected. ">
<polygon fill="white" stroke="black" points="361,-153 361,-183 510,-183 510,-153 361,-153"/>
<text text-anchor="start" x="369" y="-171" font-family="Helvetica,sans-Serif" font-size="10.00">MainWindow::selectedPrimary</text>
<text text-anchor="middle" x="435.5" y="-160" font-family="Helvetica,sans-Serif" font-size="10.00">PlaylistItem</text>
</a>
</g>
</g>
<!-- Node1&#45;&gt;Node3 -->
<g id="edge8" class="edge"><title>Node1&#45;&gt;Node3</title>
<path fill="none" stroke="midnightblue" d="M125.18,-124.645C186.943,-133.302 282.411,-146.683 350.948,-156.289"/>
<polygon fill="midnightblue" stroke="midnightblue" points="350.468,-159.756 360.857,-157.678 351.44,-152.824 350.468,-159.756"/>
</g>
<!-- Node2&#45;&gt;Node3 -->
<g id="edge2" class="edge"><title>Node2&#45;&gt;Node3</title>
<path fill="none" stroke="midnightblue" d="M254.093,-95.5007C275.291,-107.723 313.987,-129.038 349,-143 354.939,-145.368 361.19,-147.624 367.497,-149.741"/>
<polygon fill="midnightblue" stroke="midnightblue" points="366.825,-153.202 377.417,-152.95 368.98,-146.542 366.825,-153.202"/>
</g>
<!-- Node4 -->
<g id="node4" class="node"><title>Node4</title>
<g id="a_node4"><a xlink:href="classPlaylistItem.html#a3d4d575a397a3725e62ab425dcf214a5" target="_top" xlink:title="PlaylistItem::displayObject">
<polygon fill="white" stroke="black" points="368.5,-114.5 368.5,-133.5 502.5,-133.5 502.5,-114.5 368.5,-114.5"/>
<text text-anchor="middle" x="435.5" y="-121.5" font-family="Helvetica,sans-Serif" font-size="10.00">PlaylistItem::displayObject</text>
</a>
</g>
</g>
<!-- Node2&#45;&gt;Node4 -->
<g id="edge3" class="edge"><title>Node2&#45;&gt;Node4</title>
<path fill="none" stroke="midnightblue" d="M287.332,-95.54C313.961,-100.69 347.027,-107.084 375.066,-112.506"/>
<polygon fill="midnightblue" stroke="midnightblue" points="374.665,-115.994 385.148,-114.456 375.995,-109.121 374.665,-115.994"/>
</g>
<!-- Node5 -->
<g id="node5" class="node"><title>Node5</title>
<g id="a_node5"><a xlink:href="classDisplayObject.html#aadedaec1d9a5ec4adbf8f33e0f802350" target="_top" xlink:title="DisplayObject::endFrame">
<polygon fill="white" stroke="black" points="371.5,-76.5 371.5,-95.5 499.5,-95.5 499.5,-76.5 371.5,-76.5"/>
<text text-anchor="middle" x="435.5" y="-83.5" font-family="Helvetica,sans-Serif" font-size="10.00">DisplayObject::endFrame</text>
</a>
</g>
</g>
<!-- Node2&#45;&gt;Node5 -->
<g id="edge4" class="edge"><title>Node2&#45;&gt;Node5</title>
<path fill="none" stroke="midnightblue" d="M313.129,-86C328.861,-86 345.43,-86 361.098,-86"/>
<polygon fill="midnightblue" stroke="midnightblue" points="361.245,-89.5001 371.245,-86 361.245,-82.5001 361.245,-89.5001"/>
</g>
<!-- Node6 -->
<g id="node6" class="node"><title>Node6</title>
<g id="a_node6"><a xlink:href="classDisplayObject.html#aaaa354081106c97409a4bc2bbc2059fe" target="_top" xlink:title="DisplayObject::startFrame">
<polygon fill="white" stroke="black" points="370,-38.5 370,-57.5 501,-57.5 501,-38.5 370,-38.5"/>
<text text-anchor="middle" x="435.5" y="-45.5" font-family="Helvetica,sans-Serif" font-size="10.00">DisplayObject::startFrame</text>
</a>
</g>
</g>
<!-- Node2&#45;&gt;Node6 -->
<g id="edge5" class="edge"><title>Node2&#45;&gt;Node6</title>
<path fill="none" stroke="midnightblue" d="M287.332,-76.46C313.961,-71.3104 347.027,-64.916 375.066,-59.4935"/>
<polygon fill="midnightblue" stroke="midnightblue" points="375.995,-62.879 385.148,-57.5439 374.665,-56.0063 375.995,-62.879"/>
</g>
<!-- Node7 -->
<g id="node7" class="node"><title>Node7</title>
<g id="a_node7"><a xlink:href="classMainWindow.html#a6ad58489b43d2fca734a3dfa7b69832e" target="_top" xlink:title="update the frames slider and frame selection box without toggeling any signals ">
<polygon fill="white" stroke="black" points="349,-0.5 349,-19.5 522,-19.5 522,-0.5 349,-0.5"/>
<text text-anchor="middle" x="435.5" y="-7.5" font-family="Helvetica,sans-Serif" font-size="10.00">MainWindow::updateFrameControls</text>
</a>
</g>
</g>
<!-- Node2&#45;&gt;Node7 -->
<g id="edge6" class="edge"><title>Node2&#45;&gt;Node7</title>
<path fill="none" stroke="midnightblue" d="M245.761,-76.4147C262.112,-62.3551 301.745,-38.5884 340.897,-23.0956"/>
<polygon fill="midnightblue" stroke="midnightblue" points="342.18,-26.3527 350.292,-19.5383 339.701,-19.8062 342.18,-26.3527"/>
</g>
<!-- Node7&#45;&gt;Node2 -->
<g id="edge7" class="edge"><title>Node7&#45;&gt;Node2</title>
<path fill="none" stroke="midnightblue" d="M416.439,-19.518C398.87,-24.5151 371.597,-29.8401 349,-38 323.556,-47.1879 296.523,-60.9749 275.506,-71.6434"/>
<polygon fill="midnightblue" stroke="midnightblue" points="273.645,-68.6624 266.3,-76.298 276.803,-74.9093 273.645,-68.6624"/>
</g>
</g>
</svg>
