<?xml version="1.0" encoding="UTF-8" standalone="no"?>
<!DOCTYPE svg PUBLIC "-//W3C//DTD SVG 1.1//EN"
 "http://www.w3.org/Graphics/SVG/1.1/DTD/svg11.dtd">
<!-- Generated by graphviz version 2.38.0 (20140413.2041)
 -->
<!-- Title: TextObject::setDuration Pages: 1 -->
<svg width="1036pt" height="280pt"
 viewBox="0.00 0.00 1036.00 279.50" xmlns="http://www.w3.org/2000/svg" xmlns:xlink="http://www.w3.org/1999/xlink">
<g id="graph0" class="graph" transform="scale(1 1) rotate(0) translate(4 275.5)">
<title>TextObject::setDuration</title>
<polygon fill="white" stroke="none" points="-4,4 -4,-275.5 1032,-275.5 1032,4 -4,4"/>
<!-- Node1 -->
<g id="node1" class="node"><title>Node1</title>
<polygon fill="#bfbfbf" stroke="black" points="0,-41.5 0,-60.5 121,-60.5 121,-41.5 0,-41.5"/>
<text text-anchor="middle" x="60.5" y="-48.5" font-family="Helvetica,sans-Serif" font-size="10.00">TextObject::setDuration</text>
</g>
<!-- Node2 -->
<g id="node2" class="node"><title>Node2</title>
<g id="a_node2"><a xlink:href="classMainWindow.html#a2d8cea1d443550a8f14ce8c80d2608c6" target="_top" xlink:title="MainWindow::loadPlaylistFile">
<polygon fill="white" stroke="black" points="157,-99.5 157,-118.5 302,-118.5 302,-99.5 157,-99.5"/>
<text text-anchor="middle" x="229.5" y="-106.5" font-family="Helvetica,sans-Serif" font-size="10.00">MainWindow::loadPlaylistFile</text>
</a>
</g>
</g>
<!-- Node1&#45;&gt;Node2 -->
<g id="edge1" class="edge"><title>Node1&#45;&gt;Node2</title>
<path fill="none" stroke="midnightblue" d="M98.649,-63.9021C129.585,-74.6464 172.947,-89.706 200.882,-99.4083"/>
<polygon fill="midnightblue" stroke="midnightblue" points="99.6715,-60.5521 89.0767,-60.5775 97.3748,-67.1647 99.6715,-60.5521"/>
</g>
<!-- Node13 -->
<g id="node13" class="node"><title>Node13</title>
<g id="a_node13"><a xlink:href="classMainWindow.html#af5ecc7c65080215b49b9d931c56c65c9" target="_top" xlink:title="MainWindow::editTextFrame">
<polygon fill="white" stroke="black" points="494.5,-0.5 494.5,-19.5 636.5,-19.5 636.5,-0.5 494.5,-0.5"/>
<text text-anchor="middle" x="565.5" y="-7.5" font-family="Helvetica,sans-Serif" font-size="10.00">MainWindow::editTextFrame</text>
</a>
</g>
</g>
<!-- Node1&#45;&gt;Node13 -->
<g id="edge14" class="edge"><title>Node1&#45;&gt;Node13</title>
<path fill="none" stroke="midnightblue" d="M131.276,-45.5761C179.285,-41.8224 244.514,-36.6796 302,-32 367.182,-26.6938 441.451,-20.4511 494.316,-15.9737"/>
<polygon fill="midnightblue" stroke="midnightblue" points="130.999,-42.087 121.302,-46.3553 131.544,-49.0657 130.999,-42.087"/>
</g>
<!-- Node15 -->
<g id="node15" class="node"><title>Node15</title>
<g id="a_node15"><a xlink:href="classTextObject.html#a4abe36f8a979d68e0cec492bc70e6cea" target="_top" xlink:title="TextObject::TextObject">
<polygon fill="white" stroke="black" points="170,-3.5 170,-22.5 289,-22.5 289,-3.5 170,-3.5"/>
<text text-anchor="middle" x="229.5" y="-10.5" font-family="Helvetica,sans-Serif" font-size="10.00">TextObject::TextObject</text>
</a>
</g>
</g>
<!-- Node1&#45;&gt;Node15 -->
<g id="edge18" class="edge"><title>Node1&#45;&gt;Node15</title>
<path fill="none" stroke="midnightblue" d="M113.465,-39.1757C137.009,-33.8184 164.474,-27.5689 186.662,-22.5201"/>
<polygon fill="midnightblue" stroke="midnightblue" points="112.615,-35.7794 103.641,-41.411 114.168,-42.6049 112.615,-35.7794"/>
</g>
<!-- Node3 -->
<g id="node3" class="node"><title>Node3</title>
<g id="a_node3"><a xlink:href="classMainWindow.html#a8ef1be3cb02e12d68d12375d1a7a0ced" target="_top" xlink:title="loads a list of yuv/csv files ">
<polygon fill="white" stroke="black" points="338,-120.5 338,-139.5 456,-139.5 456,-120.5 338,-120.5"/>
<text text-anchor="middle" x="397" y="-127.5" font-family="Helvetica,sans-Serif" font-size="10.00">MainWindow::loadFiles</text>
</a>
</g>
</g>
<!-- Node2&#45;&gt;Node3 -->
<g id="edge2" class="edge"><title>Node2&#45;&gt;Node3</title>
<path fill="none" stroke="midnightblue" d="M312.279,-119.377C320.95,-120.477 329.636,-121.579 337.955,-122.635"/>
<polygon fill="midnightblue" stroke="midnightblue" points="312.489,-115.875 302.128,-118.089 311.608,-122.82 312.489,-115.875"/>
</g>
<!-- Node4 -->
<g id="node4" class="node"><title>Node4</title>
<g id="a_node4"><a xlink:href="classDisplaySplitWidget.html#ac1d4ced58b2ac2b08153694a5de6232e" target="_top" xlink:title="DisplaySplitWidget\l::dropEvent">
<polygon fill="white" stroke="black" points="515.5,-241 515.5,-271 615.5,-271 615.5,-241 515.5,-241"/>
<text text-anchor="start" x="523.5" y="-259" font-family="Helvetica,sans-Serif" font-size="10.00">DisplaySplitWidget</text>
<text text-anchor="middle" x="565.5" y="-248" font-family="Helvetica,sans-Serif" font-size="10.00">::dropEvent</text>
</a>
</g>
</g>
<!-- Node3&#45;&gt;Node4 -->
<g id="edge3" class="edge"><title>Node3&#45;&gt;Node4</title>
<path fill="none" stroke="midnightblue" d="M410.24,-147.785C426.495,-170.16 457.232,-208.386 492,-231 499.143,-235.646 507.246,-239.531 515.382,-242.746"/>
<polygon fill="midnightblue" stroke="midnightblue" points="413.017,-145.649 404.374,-139.521 407.309,-149.702 413.017,-145.649"/>
</g>
<!-- Node5 -->
<g id="node5" class="node"><title>Node5</title>
<g id="a_node5"><a xlink:href="classMainWindow.html#a288b768c3c21a9171bdc56fe845ece8b" target="_top" xlink:title="Shows the file open dialog and loads all selected Files. ">
<polygon fill="white" stroke="black" points="507.5,-164.5 507.5,-183.5 623.5,-183.5 623.5,-164.5 507.5,-164.5"/>
<text text-anchor="middle" x="565.5" y="-171.5" font-family="Helvetica,sans-Serif" font-size="10.00">MainWindow::openFile</text>
</a>
</g>
</g>
<!-- Node3&#45;&gt;Node5 -->
<g id="edge4" class="edge"><title>Node3&#45;&gt;Node5</title>
<path fill="none" stroke="midnightblue" d="M443.994,-142.155C470.637,-149.195 503.694,-157.931 528.442,-164.471"/>
<polygon fill="midnightblue" stroke="midnightblue" points="444.69,-138.719 434.128,-139.547 442.902,-145.486 444.69,-138.719"/>
</g>
<!-- Node9 -->
<g id="node9" class="node"><title>Node9</title>
<g id="a_node9"><a xlink:href="classMainWindow.html#a935316315edb9b7af42657da20be0e54" target="_top" xlink:title="MainWindow::openRecentFile">
<polygon fill="white" stroke="black" points="492,-202.5 492,-221.5 639,-221.5 639,-202.5 492,-202.5"/>
<text text-anchor="middle" x="565.5" y="-209.5" font-family="Helvetica,sans-Serif" font-size="10.00">MainWindow::openRecentFile</text>
</a>
</g>
</g>
<!-- Node3&#45;&gt;Node9 -->
<g id="edge9" class="edge"><title>Node3&#45;&gt;Node9</title>
<path fill="none" stroke="midnightblue" d="M417.496,-145.925C435.75,-160.116 464.294,-180.515 492,-193 500.304,-196.742 509.488,-199.858 518.449,-202.411"/>
<polygon fill="midnightblue" stroke="midnightblue" points="419.422,-142.986 409.411,-139.519 415.075,-148.473 419.422,-142.986"/>
</g>
<!-- Node10 -->
<g id="node10" class="node"><title>Node10</title>
<g id="a_node10"><a xlink:href="classPlaylistTreeWidget.html#a295170eb269cc67050ea0b575cd0ab53" target="_top" xlink:title="PlaylistTreeWidget\l::dropEvent">
<polygon fill="white" stroke="black" points="516,-115 516,-145 615,-145 615,-115 516,-115"/>
<text text-anchor="start" x="524" y="-133" font-family="Helvetica,sans-Serif" font-size="10.00">PlaylistTreeWidget</text>
<text text-anchor="middle" x="565.5" y="-122" font-family="Helvetica,sans-Serif" font-size="10.00">::dropEvent</text>
</a>
</g>
</g>
<!-- Node3&#45;&gt;Node10 -->
<g id="edge11" class="edge"><title>Node3&#45;&gt;Node10</title>
<path fill="none" stroke="midnightblue" d="M466.446,-130C483.055,-130 500.476,-130 515.95,-130"/>
<polygon fill="midnightblue" stroke="midnightblue" points="466.234,-126.5 456.234,-130 466.234,-133.5 466.234,-126.5"/>
</g>
<!-- Node11 -->
<g id="node11" class="node"><title>Node11</title>
<g id="a_node11"><a xlink:href="classYUViewApp.html#ac0f5381cc5b703a9ea704b5eedab4b7f" target="_top" xlink:title="YUViewApp::YUViewApp">
<polygon fill="white" stroke="black" points="501,-76.5 501,-95.5 630,-95.5 630,-76.5 501,-76.5"/>
<text text-anchor="middle" x="565.5" y="-83.5" font-family="Helvetica,sans-Serif" font-size="10.00">YUViewApp::YUViewApp</text>
</a>
</g>
</g>
<!-- Node3&#45;&gt;Node11 -->
<g id="edge12" class="edge"><title>Node3&#45;&gt;Node11</title>
<path fill="none" stroke="midnightblue" d="M443.509,-117.861C458.904,-113.764 476.196,-109.173 492,-105 503.7,-101.911 516.467,-98.5589 527.982,-95.5425"/>
<polygon fill="midnightblue" stroke="midnightblue" points="442.464,-114.517 433.701,-120.472 444.265,-121.281 442.464,-114.517"/>
</g>
<!-- Node12 -->
<g id="node12" class="node"><title>Node12</title>
<g id="a_node12"><a xlink:href="classYUViewApp.html#a2f5f937d6677018ef73a5ffc248f9891" target="_top" xlink:title="YUViewApp::event">
<polygon fill="white" stroke="black" points="515.5,-38.5 515.5,-57.5 615.5,-57.5 615.5,-38.5 515.5,-38.5"/>
<text text-anchor="middle" x="565.5" y="-45.5" font-family="Helvetica,sans-Serif" font-size="10.00">YUViewApp::event</text>
</a>
</g>
</g>
<!-- Node3&#45;&gt;Node12 -->
<g id="edge13" class="edge"><title>Node3&#45;&gt;Node12</title>
<path fill="none" stroke="midnightblue" d="M417.496,-114.075C435.75,-99.8845 464.294,-79.4853 492,-67 500.304,-63.2579 509.488,-60.1417 518.449,-57.5888"/>
<polygon fill="midnightblue" stroke="midnightblue" points="415.075,-111.527 409.411,-120.481 419.422,-117.014 415.075,-111.527"/>
</g>
<!-- Node6 -->
<g id="node6" class="node"><title>Node6</title>
<g id="a_node6"><a xlink:href="classMainWindow.html#a9df7443ce5f907903438bb6a9abe9a33" target="_top" xlink:title="MainWindow::createMenusAnd\lActions">
<polygon fill="white" stroke="black" points="690,-159 690,-189 842,-189 842,-159 690,-159"/>
<text text-anchor="start" x="698" y="-177" font-family="Helvetica,sans-Serif" font-size="10.00">MainWindow::createMenusAnd</text>
<text text-anchor="middle" x="766" y="-166" font-family="Helvetica,sans-Serif" font-size="10.00">Actions</text>
</a>
</g>
</g>
<!-- Node5&#45;&gt;Node6 -->
<g id="edge5" class="edge"><title>Node5&#45;&gt;Node6</title>
<path fill="none" stroke="midnightblue" d="M633.763,-174C651.778,-174 671.367,-174 689.781,-174"/>
<polygon fill="midnightblue" stroke="midnightblue" points="633.648,-170.5 623.648,-174 633.648,-177.5 633.648,-170.5"/>
</g>
<!-- Node8 -->
<g id="node8" class="node"><title>Node8</title>
<g id="a_node8"><a xlink:href="classMainWindow.html#aaba5c236313378986c42c4a634c4cfb9" target="_top" xlink:title="MainWindow::onCustomContextMenu">
<polygon fill="white" stroke="black" points="675,-101.5 675,-120.5 857,-120.5 857,-101.5 675,-101.5"/>
<text text-anchor="middle" x="766" y="-108.5" font-family="Helvetica,sans-Serif" font-size="10.00">MainWindow::onCustomContextMenu</text>
</a>
</g>
</g>
<!-- Node5&#45;&gt;Node8 -->
<g id="edge7" class="edge"><title>Node5&#45;&gt;Node8</title>
<path fill="none" stroke="midnightblue" d="M612.529,-161.748C621.343,-159.276 630.478,-156.627 639,-154 673.678,-143.31 713.212,-129.559 738.602,-120.522"/>
<polygon fill="midnightblue" stroke="midnightblue" points="611.466,-158.41 602.763,-164.453 613.335,-165.156 611.466,-158.41"/>
</g>
<!-- Node7 -->
<g id="node7" class="node"><title>Node7</title>
<g id="a_node7"><a xlink:href="classMainWindow.html#a8b244be8b7b7db1b08de2a2acb9409db" target="_top" xlink:title="MainWindow::MainWindow">
<polygon fill="white" stroke="black" points="893,-101.5 893,-120.5 1028,-120.5 1028,-101.5 893,-101.5"/>
<text text-anchor="middle" x="960.5" y="-108.5" font-family="Helvetica,sans-Serif" font-size="10.00">MainWindow::MainWindow</text>
</a>
</g>
</g>
<!-- Node6&#45;&gt;Node7 -->
<g id="edge6" class="edge"><title>Node6&#45;&gt;Node7</title>
<path fill="none" stroke="midnightblue" d="M822.759,-155.752C857.873,-144.26 901.78,-129.89 930.22,-120.583"/>
<polygon fill="midnightblue" stroke="midnightblue" points="821.524,-152.473 813.109,-158.91 823.701,-159.126 821.524,-152.473"/>
</g>
<!-- Node8&#45;&gt;Node7 -->
<g id="edge8" class="edge"><title>Node8&#45;&gt;Node7</title>
<path fill="none" stroke="midnightblue" d="M867.219,-111C875.88,-111 884.497,-111 892.79,-111"/>
<polygon fill="midnightblue" stroke="midnightblue" points="867.05,-107.5 857.05,-111 867.05,-114.5 867.05,-107.5"/>
</g>
<!-- Node9&#45;&gt;Node6 -->
<g id="edge10" class="edge"><title>Node9&#45;&gt;Node6</title>
<path fill="none" stroke="midnightblue" d="M626.254,-200.561C646.298,-196.724 668.912,-192.395 689.974,-188.363"/>
<polygon fill="midnightblue" stroke="midnightblue" points="625.497,-197.142 616.334,-202.46 626.813,-204.017 625.497,-197.142"/>
</g>
<!-- Node13&#45;&gt;Node8 -->
<g id="edge15" class="edge"><title>Node13&#45;&gt;Node8</title>
<path fill="none" stroke="midnightblue" d="M622.242,-22.5756C627.995,-24.4731 633.677,-26.6092 639,-29 656.541,-36.8789 658.918,-42.458 675,-53 701.273,-70.2221 732.08,-89.9824 749.985,-101.424"/>
<polygon fill="midnightblue" stroke="midnightblue" points="623.131,-19.1875 612.544,-19.605 621.08,-25.8805 623.131,-19.1875"/>
</g>
<!-- Node14 -->
<g id="node14" class="node"><title>Node14</title>
<g id="a_node14"><a xlink:href="classMainWindow.html#ab18c663524e2c130759c0ca960129ea4" target="_top" xlink:title="MainWindow::onItemDouble\lClicked">
<polygon fill="white" stroke="black" points="696,-14 696,-44 836,-44 836,-14 696,-14"/>
<text text-anchor="start" x="704" y="-32" font-family="Helvetica,sans-Serif" font-size="10.00">MainWindow::onItemDouble</text>
<text text-anchor="middle" x="766" y="-21" font-family="Helvetica,sans-Serif" font-size="10.00">Clicked</text>
</a>
</g>
</g>
<!-- Node13&#45;&gt;Node14 -->
<g id="edge16" class="edge"><title>Node13&#45;&gt;Node14</title>
<path fill="none" stroke="midnightblue" d="M646.778,-17.684C663.036,-19.2402 679.999,-20.8639 695.833,-22.3795"/>
<polygon fill="midnightblue" stroke="midnightblue" points="647.051,-14.1943 636.763,-16.7254 646.384,-21.1624 647.051,-14.1943"/>
</g>
<!-- Node14&#45;&gt;Node7 -->
<g id="edge17" class="edge"><title>Node14&#45;&gt;Node7</title>
<path fill="none" stroke="midnightblue" d="M811.913,-48.1318C851.157,-64.8488 906.498,-88.4227 937.047,-101.436"/>
<polygon fill="midnightblue" stroke="midnightblue" points="812.879,-44.7391 802.307,-44.0401 810.136,-51.1791 812.879,-44.7391"/>
</g>
</g>
</svg>
