<?xml version="1.0" encoding="UTF-8" standalone="no"?>
<!DOCTYPE svg PUBLIC "-//W3C//DTD SVG 1.1//EN"
 "http://www.w3.org/Graphics/SVG/1.1/DTD/svg11.dtd">
<!-- Generated by graphviz version 2.38.0 (20140413.2041)
 -->
<!-- Title: DisplaySplitWidget::mouseReleaseEvent Pages: 1 -->
<!--zoomable 369 -->
<svg id="main" version="1.1" xmlns="http://www.w3.org/2000/svg" xmlns:xlink="http://www.w3.org/1999/xlink" xml:space="preserve" onload="init(evt)">
<style type="text/css"><![CDATA[
.edge:hover path { stroke: red; }
.edge:hover polygon { stroke: red; fill: red; }
]]></style>
<script type="text/javascript"><![CDATA[
var edges = document.getElementsByTagName('g');
if (edges && edges.length) {
  for (var i=0;i<edges.length;i++) {
    if (edges[i].id.substr(0,4)=='edge') {
      edges[i].setAttribute('class','edge');
    }
  }
}
]]></script>
        <defs>
                <circle id="rim" cx="0" cy="0" r="7"/>
                <circle id="rim2" cx="0" cy="0" r="3.5"/>
                <g id="zoomPlus">
                        <use xlink:href="#rim" fill="#404040">
                                <set attributeName="fill" to="#808080" begin="zoomplus.mouseover" end="zoomplus.mouseout"/>
                        </use>
                        <path d="M-4,0h8M0,-4v8" fill="none" stroke="white" stroke-width="1.5" pointer-events="none"/>
                </g>
                <g id="zoomMin">
                        <use xlink:href="#rim" fill="#404040">
                                <set attributeName="fill" to="#808080" begin="zoomminus.mouseover" end="zoomminus.mouseout"/>
                        </use>
                        <path d="M-4,0h8" fill="none" stroke="white" stroke-width="1.5" pointer-events="none"/>
                </g>
                <g id="dirArrow">
                        <path fill="none" stroke="white" stroke-width="1.5" d="M0,-3.0v7 M-2.5,-0.5L0,-3.0L2.5,-0.5"/>
                </g>
               <g id="resetDef">
                       <use xlink:href="#rim2" fill="#404040">
                               <set attributeName="fill" to="#808080" begin="reset.mouseover" end="reset.mouseout"/>
                       </use>
               </g>
        </defs>

<script type="text/javascript">
var viewWidth = 1405;
var viewHeight = 369;
var sectionId = 'dynsection-14';
</script>
<script xlink:href="svgpan.js"/>
<svg id="graph" class="graph">
<g id="viewport">
<title>DisplaySplitWidget::mouseReleaseEvent</title>
<polygon fill="white" stroke="none" points="-4,4 -4,-365.273 1401,-365.273 1401,4 -4,4"/>
<!-- Node1 -->
<g id="node1" class="node"><title>Node1</title>
<polygon fill="#bfbfbf" stroke="black" points="0,-242.5 0,-272.5 113,-272.5 113,-242.5 0,-242.5"/>
<text text-anchor="start" x="8" y="-260.5" font-family="Helvetica,sans-Serif" font-size="10.00">DisplaySplitWidget</text>
<text text-anchor="middle" x="56.5" y="-249.5" font-family="Helvetica,sans-Serif" font-size="10.00">::mouseReleaseEvent</text>
</g>
<!-- Node2 -->
<g id="node2" class="node"><title>Node2</title>
<g id="a_node2"><a xlink:href="classDisplayWidget.html#ad8be03e3b0a381a18ecea854d71b3048" target="_top" xlink:title="DisplayWidget::selectionRect">
<polygon fill="white" stroke="black" points="350,-332 350,-351 496,-351 496,-332 350,-332"/>
<text text-anchor="middle" x="423" y="-339" font-family="Helvetica,sans-Serif" font-size="10.00">DisplayWidget::selectionRect</text>
</a>
</g>
</g>
<!-- Node1&#45;&gt;Node2 -->
<g id="edge1" class="edge"><title>Node1&#45;&gt;Node2</title>
<path fill="none" stroke="midnightblue" d="M68.1015,-272.604C83.3074,-292.796 113.433,-327.65 149,-341.5 220.513,-369.348 310.779,-361.968 367.465,-352.783"/>
<polygon fill="midnightblue" stroke="midnightblue" points="368.374,-356.179 377.647,-351.055 367.202,-349.277 368.374,-356.179"/>
</g>
<!-- Node3 -->
<g id="node3" class="node"><title>Node3</title>
<g id="a_node3"><a xlink:href="classDisplayWidget.html#a59b9a00276458fae6c0c2db850a87616" target="_top" xlink:title="DisplayWidget::zoomFactor">
<polygon fill="white" stroke="black" points="536,-243 536,-262 674,-262 674,-243 536,-243"/>
<text text-anchor="middle" x="605" y="-250" font-family="Helvetica,sans-Serif" font-size="10.00">DisplayWidget::zoomFactor</text>
</a>
</g>
</g>
<!-- Node1&#45;&gt;Node3 -->
<g id="edge2" class="edge"><title>Node1&#45;&gt;Node3</title>
<path fill="none" stroke="midnightblue" d="M113.163,-256.991C210.912,-256.096 413.64,-254.242 525.552,-253.218"/>
<polygon fill="midnightblue" stroke="midnightblue" points="525.794,-256.716 535.762,-253.124 525.73,-249.716 525.794,-256.716"/>
</g>
<!-- Node5 -->
<g id="node5" class="node"><title>Node5</title>
<g id="a_node5"><a xlink:href="classDisplaySplitWidget.html#a07d514c8000eade67022e9f73a4214c0" target="_top" xlink:title="DisplaySplitWidget\l::zoomToPoint">
<polygon fill="white" stroke="black" points="179.5,-163.5 179.5,-193.5 279.5,-193.5 279.5,-163.5 179.5,-163.5"/>
<text text-anchor="start" x="187.5" y="-181.5" font-family="Helvetica,sans-Serif" font-size="10.00">DisplaySplitWidget</text>
<text text-anchor="middle" x="229.5" y="-170.5" font-family="Helvetica,sans-Serif" font-size="10.00">::zoomToPoint</text>
</a>
</g>
</g>
<!-- Node1&#45;&gt;Node5 -->
<g id="edge4" class="edge"><title>Node1&#45;&gt;Node5</title>
<path fill="none" stroke="midnightblue" d="M90.0663,-242.455C117.435,-229.811 156.733,-211.655 186.472,-197.916"/>
<polygon fill="midnightblue" stroke="midnightblue" points="188.154,-200.995 195.764,-193.624 185.218,-194.64 188.154,-200.995"/>
</g>
<!-- Node6 -->
<g id="node6" class="node"><title>Node6</title>
<g id="a_node6"><a xlink:href="classDisplayWidget.html#a477dcbaeee98a2c684374e4d5a36b0fd" target="_top" xlink:title="DisplayWidget::displayRect">
<polygon fill="white" stroke="black" points="536,-19 536,-38 674,-38 674,-19 536,-19"/>
<text text-anchor="middle" x="605" y="-26" font-family="Helvetica,sans-Serif" font-size="10.00">DisplayWidget::displayRect</text>
</a>
</g>
</g>
<!-- Node1&#45;&gt;Node6 -->
<g id="edge32" class="edge"><title>Node1&#45;&gt;Node6</title>
<path fill="none" stroke="midnightblue" d="M67.5933,-242.205C82.8538,-220.127 113.783,-179.267 149,-154.5 264.101,-73.5529 429.445,-44.5093 525.884,-34.1585"/>
<polygon fill="midnightblue" stroke="midnightblue" points="526.271,-37.6372 535.859,-33.1283 525.552,-30.6742 526.271,-37.6372"/>
</g>
<!-- Node10 -->
<g id="node10" class="node"><title>Node10</title>
<g id="a_node10"><a xlink:href="classDisplayWidget.html#a822a3c50c6c602fafff6ef2132ccdb42" target="_top" xlink:title="DisplayWidget::setDisplayRect">
<polygon fill="white" stroke="black" points="346,-161 346,-180 500,-180 500,-161 346,-161"/>
<text text-anchor="middle" x="423" y="-168" font-family="Helvetica,sans-Serif" font-size="10.00">DisplayWidget::setDisplayRect</text>
</a>
</g>
</g>
<!-- Node1&#45;&gt;Node10 -->
<g id="edge33" class="edge"><title>Node1&#45;&gt;Node10</title>
<path fill="none" stroke="midnightblue" d="M113.445,-246.802C164.8,-236.682 242.87,-220.542 310,-203.5 334.085,-197.386 360.785,-189.56 382.074,-183.064"/>
<polygon fill="midnightblue" stroke="midnightblue" points="383.219,-186.374 391.749,-180.09 381.162,-179.683 383.219,-186.374"/>
</g>
<!-- Node26 -->
<g id="node26" class="node"><title>Node26</title>
<g id="a_node26"><a xlink:href="classDisplayWidget.html#a880cbbb9d4d5ff01cddc51af58840a73" target="_top" xlink:title="DisplayWidget::setSelectionRect">
<polygon fill="white" stroke="black" points="149,-313 149,-332 310,-332 310,-313 149,-313"/>
<text text-anchor="middle" x="229.5" y="-320" font-family="Helvetica,sans-Serif" font-size="10.00">DisplayWidget::setSelectionRect</text>
</a>
</g>
</g>
<!-- Node1&#45;&gt;Node26 -->
<g id="edge34" class="edge"><title>Node1&#45;&gt;Node26</title>
<path fill="none" stroke="midnightblue" d="M88.4254,-272.547C105.965,-280.778 128.451,-290.831 149,-298.5 160.074,-302.633 172.208,-306.58 183.589,-310.037"/>
<polygon fill="midnightblue" stroke="midnightblue" points="182.767,-313.444 193.35,-312.941 184.763,-306.735 182.767,-313.444"/>
</g>
<!-- Node4 -->
<g id="node4" class="node"><title>Node4</title>
<g id="a_node4"><a xlink:href="classDisplayObject.html#afb3b221174f722f563e7bf55a1ddb29f" target="_top" xlink:title="DisplayObject::width">
<polygon fill="white" stroke="black" points="904.5,-243 904.5,-262 1011.5,-262 1011.5,-243 904.5,-243"/>
<text text-anchor="middle" x="958" y="-250" font-family="Helvetica,sans-Serif" font-size="10.00">DisplayObject::width</text>
</a>
</g>
</g>
<!-- Node3&#45;&gt;Node4 -->
<g id="edge3" class="edge"><title>Node3&#45;&gt;Node4</title>
<path fill="none" stroke="midnightblue" d="M674.093,-252.5C737.829,-252.5 832.274,-252.5 894.227,-252.5"/>
<polygon fill="midnightblue" stroke="midnightblue" points="894.261,-256 904.261,-252.5 894.261,-249 894.261,-256"/>
</g>
<!-- Node5&#45;&gt;Node3 -->
<g id="edge10" class="edge"><title>Node5&#45;&gt;Node3</title>
<path fill="none" stroke="midnightblue" d="M263.658,-193.656C286.374,-203.406 317.444,-215.516 346,-222.5 405.339,-237.013 474.123,-244.567 525.74,-248.463"/>
<polygon fill="midnightblue" stroke="midnightblue" points="525.599,-251.962 535.826,-249.194 526.106,-244.98 525.599,-251.962"/>
</g>
<!-- Node5&#45;&gt;Node6 -->
<g id="edge5" class="edge"><title>Node5&#45;&gt;Node6</title>
<path fill="none" stroke="midnightblue" d="M279.744,-166.886C356.898,-148.654 497.783,-115.2 500,-113.5 526.517,-93.171 509.851,-68.3004 536,-47.5 538.293,-45.6758 540.751,-44.0266 543.323,-42.5356"/>
<polygon fill="midnightblue" stroke="midnightblue" points="545.007,-45.6082 552.433,-38.0517 541.915,-39.3278 545.007,-45.6082"/>
</g>
<!-- Node7 -->
<g id="node7" class="node"><title>Node7</title>
<g id="a_node7"><a xlink:href="classDisplayWidget.html#a7c8417b26f905d8bda1601c879f7e600" target="_top" xlink:title="DisplayWidget::displayObject">
<polygon fill="white" stroke="black" points="350,-85 350,-104 496,-104 496,-85 350,-85"/>
<text text-anchor="middle" x="423" y="-92" font-family="Helvetica,sans-Serif" font-size="10.00">DisplayWidget::displayObject</text>
</a>
</g>
</g>
<!-- Node5&#45;&gt;Node7 -->
<g id="edge6" class="edge"><title>Node5&#45;&gt;Node7</title>
<path fill="none" stroke="midnightblue" d="M256.486,-163.343C279.497,-150.326 314.265,-131.637 346,-118.5 356.076,-114.329 367.151,-110.451 377.655,-107.082"/>
<polygon fill="midnightblue" stroke="midnightblue" points="378.994,-110.331 387.5,-104.014 376.911,-103.648 378.994,-110.331"/>
</g>
<!-- Node8 -->
<g id="node8" class="node"><title>Node8</title>
<g id="a_node8"><a xlink:href="classDisplayObject.html#a4b72bf3422adf483b502da939d38c9d6" target="_top" xlink:title="DisplayObject::size">
<polygon fill="white" stroke="black" points="727.5,-205 727.5,-224 829.5,-224 829.5,-205 727.5,-205"/>
<text text-anchor="middle" x="778.5" y="-212" font-family="Helvetica,sans-Serif" font-size="10.00">DisplayObject::size</text>
</a>
</g>
</g>
<!-- Node5&#45;&gt;Node8 -->
<g id="edge7" class="edge"><title>Node5&#45;&gt;Node8</title>
<path fill="none" stroke="midnightblue" d="M279.642,-183.586C300.142,-185.602 324.209,-187.832 346,-189.5 478.336,-199.632 633.787,-207.697 717.24,-211.715"/>
<polygon fill="midnightblue" stroke="midnightblue" points="717.144,-215.214 727.3,-212.197 717.479,-208.222 717.144,-215.214"/>
</g>
<!-- Node5&#45;&gt;Node10 -->
<g id="edge11" class="edge"><title>Node5&#45;&gt;Node10</title>
<path fill="none" stroke="midnightblue" d="M279.816,-176.44C296.819,-175.73 316.399,-174.912 335.485,-174.114"/>
<polygon fill="midnightblue" stroke="midnightblue" points="335.865,-177.601 345.71,-173.687 335.573,-170.608 335.865,-177.601"/>
</g>
<!-- Node8&#45;&gt;Node4 -->
<g id="edge8" class="edge"><title>Node8&#45;&gt;Node4</title>
<path fill="none" stroke="midnightblue" d="M824.291,-224.089C848.03,-229.171 877.384,-235.455 902.444,-240.82"/>
<polygon fill="midnightblue" stroke="midnightblue" points="902.02,-244.309 912.531,-242.98 903.486,-237.464 902.02,-244.309"/>
</g>
<!-- Node9 -->
<g id="node9" class="node"><title>Node9</title>
<g id="a_node9"><a xlink:href="classDisplayObject.html#a814782fb1bf9e7a2ed7adab74872c08a" target="_top" xlink:title="DisplayObject::height">
<polygon fill="white" stroke="black" points="903,-205 903,-224 1013,-224 1013,-205 903,-205"/>
<text text-anchor="middle" x="958" y="-212" font-family="Helvetica,sans-Serif" font-size="10.00">DisplayObject::height</text>
</a>
</g>
</g>
<!-- Node8&#45;&gt;Node9 -->
<g id="edge9" class="edge"><title>Node8&#45;&gt;Node9</title>
<path fill="none" stroke="midnightblue" d="M829.89,-214.5C849.355,-214.5 871.868,-214.5 892.49,-214.5"/>
<polygon fill="midnightblue" stroke="midnightblue" points="892.757,-218 902.757,-214.5 892.757,-211 892.757,-218"/>
</g>
<!-- Node10&#45;&gt;Node3 -->
<g id="edge14" class="edge"><title>Node10&#45;&gt;Node3</title>
<path fill="none" stroke="midnightblue" d="M445.001,-180.067C476.84,-194.571 537.471,-222.192 573.966,-238.818"/>
<polygon fill="midnightblue" stroke="midnightblue" points="572.582,-242.033 583.133,-242.994 575.484,-235.663 572.582,-242.033"/>
</g>
<!-- Node10&#45;&gt;Node6 -->
<g id="edge12" class="edge"><title>Node10&#45;&gt;Node6</title>
<path fill="none" stroke="midnightblue" d="M476.553,-160.903C485.16,-157.473 493.406,-152.817 500,-146.5 533.808,-114.112 501.655,-79.319 536,-47.5 537.68,-45.9432 539.478,-44.5125 541.366,-43.1977"/>
<polygon fill="midnightblue" stroke="midnightblue" points="543.226,-46.1655 550.148,-38.1441 539.735,-40.0984 543.226,-46.1655"/>
</g>
<!-- Node11 -->
<g id="node11" class="node"><title>Node11</title>
<g id="a_node11"><a xlink:href="classDisplayObject.html#a669d39709021238465e2d42ae2ffce2d" target="_top" xlink:title="DisplayObject::setInternal\lScaleFactor">
<polygon fill="white" stroke="black" points="540,-57.5 540,-87.5 670,-87.5 670,-57.5 540,-57.5"/>
<text text-anchor="start" x="548" y="-75.5" font-family="Helvetica,sans-Serif" font-size="10.00">DisplayObject::setInternal</text>
<text text-anchor="middle" x="605" y="-64.5" font-family="Helvetica,sans-Serif" font-size="10.00">ScaleFactor</text>
</a>
</g>
</g>
<!-- Node10&#45;&gt;Node11 -->
<g id="edge13" class="edge"><title>Node10&#45;&gt;Node11</title>
<path fill="none" stroke="midnightblue" d="M470.407,-160.941C480.743,-157.467 491.226,-152.784 500,-146.5 521.97,-130.765 514.401,-113.741 536,-97.5 538.483,-95.6326 541.121,-93.8928 543.859,-92.2734"/>
<polygon fill="midnightblue" stroke="midnightblue" points="545.68,-95.2701 552.884,-87.5022 542.408,-89.0817 545.68,-95.2701"/>
</g>
<!-- Node12 -->
<g id="node12" class="node"><title>Node12</title>
<g id="a_node12"><a xlink:href="classStatisticsObject.html#a685245dbc78feb8908c60b3becc9a0c0" target="_top" xlink:title="StatisticsObject::setInternal\lScaleFactor">
<polygon fill="white" stroke="black" points="536,-106.5 536,-136.5 674,-136.5 674,-106.5 536,-106.5"/>
<text text-anchor="start" x="544" y="-124.5" font-family="Helvetica,sans-Serif" font-size="10.00">StatisticsObject::setInternal</text>
<text text-anchor="middle" x="605" y="-113.5" font-family="Helvetica,sans-Serif" font-size="10.00">ScaleFactor</text>
</a>
</g>
</g>
<!-- Node10&#45;&gt;Node12 -->
<g id="edge15" class="edge"><title>Node10&#45;&gt;Node12</title>
<path fill="none" stroke="midnightblue" d="M459.133,-160.936C481.822,-154.76 512.034,-146.535 538.996,-139.196"/>
<polygon fill="midnightblue" stroke="midnightblue" points="540.033,-142.541 548.762,-136.537 538.194,-135.787 540.033,-142.541"/>
</g>
<!-- Node16 -->
<g id="node16" class="node"><title>Node16</title>
<g id="a_node16"><a xlink:href="classStatisticsObject.html#a09c2920b75ecda0e175a6c9384b446ab" target="_top" xlink:title="StatisticsObject::reload\lImage">
<polygon fill="white" stroke="black" points="545.5,-155.5 545.5,-185.5 664.5,-185.5 664.5,-155.5 545.5,-155.5"/>
<text text-anchor="start" x="553.5" y="-173.5" font-family="Helvetica,sans-Serif" font-size="10.00">StatisticsObject::reload</text>
<text text-anchor="middle" x="605" y="-162.5" font-family="Helvetica,sans-Serif" font-size="10.00">Image</text>
</a>
</g>
</g>
<!-- Node10&#45;&gt;Node16 -->
<g id="edge19" class="edge"><title>Node10&#45;&gt;Node16</title>
<path fill="none" stroke="midnightblue" d="M500.075,-170.5C511.801,-170.5 523.849,-170.5 535.398,-170.5"/>
<polygon fill="midnightblue" stroke="midnightblue" points="535.399,-174 545.399,-170.5 535.399,-167 535.399,-174"/>
</g>
<!-- Node13 -->
<g id="node13" class="node"><title>Node13</title>
<g id="a_node13"><a xlink:href="classstatisticSource.html#a8c153e3e3576668f5e68af94f441319e" target="_top" xlink:title="statisticSource::setInternal\lScaleFactor">
<polygon fill="white" stroke="black" points="711.5,-73.5 711.5,-103.5 845.5,-103.5 845.5,-73.5 711.5,-73.5"/>
<text text-anchor="start" x="719.5" y="-91.5" font-family="Helvetica,sans-Serif" font-size="10.00">statisticSource::setInternal</text>
<text text-anchor="middle" x="778.5" y="-80.5" font-family="Helvetica,sans-Serif" font-size="10.00">ScaleFactor</text>
</a>
</g>
</g>
<!-- Node12&#45;&gt;Node13 -->
<g id="edge16" class="edge"><title>Node12&#45;&gt;Node13</title>
<path fill="none" stroke="midnightblue" d="M674.274,-108.363C683.165,-106.652 692.317,-104.891 701.327,-103.157"/>
<polygon fill="midnightblue" stroke="midnightblue" points="702.258,-106.542 711.417,-101.216 700.936,-99.6684 702.258,-106.542"/>
</g>
<!-- Node14 -->
<g id="node14" class="node"><title>Node14</title>
<g id="a_node14"><a xlink:href="typedef_8h.html#a9aaa34d570ccff65aa586904187cfff5" target="_top" xlink:title="clip">
<polygon fill="white" stroke="black" points="942,-3 942,-22 974,-22 974,-3 942,-3"/>
<text text-anchor="middle" x="958" y="-10" font-family="Helvetica,sans-Serif" font-size="10.00">clip</text>
</a>
</g>
</g>
<!-- Node13&#45;&gt;Node14 -->
<g id="edge17" class="edge"><title>Node13&#45;&gt;Node14</title>
<path fill="none" stroke="midnightblue" d="M802.919,-73.3592C823.369,-60.6938 854.204,-42.9135 883,-31.5 898.876,-25.2075 917.5,-20.4386 932.093,-17.2523"/>
<polygon fill="midnightblue" stroke="midnightblue" points="932.83,-20.6739 941.909,-15.2127 931.406,-13.8203 932.83,-20.6739"/>
</g>
<!-- Node15 -->
<g id="node15" class="node"><title>Node15</title>
<g id="a_node15"><a xlink:href="classstatisticSource.html#ab919493c131a2f9b26c1c212c05ad223" target="_top" xlink:title="statisticSource::internal\lScaleFactor">
<polygon fill="white" stroke="black" points="1084.5,-104.5 1084.5,-134.5 1203.5,-134.5 1203.5,-104.5 1084.5,-104.5"/>
<text text-anchor="start" x="1092.5" y="-122.5" font-family="Helvetica,sans-Serif" font-size="10.00">statisticSource::internal</text>
<text text-anchor="middle" x="1144" y="-111.5" font-family="Helvetica,sans-Serif" font-size="10.00">ScaleFactor</text>
</a>
</g>
</g>
<!-- Node13&#45;&gt;Node15 -->
<g id="edge18" class="edge"><title>Node13&#45;&gt;Node15</title>
<path fill="none" stroke="midnightblue" d="M845.717,-93.343C896.885,-97.1776 969.461,-102.817 1033,-108.5 1046.25,-109.685 1060.4,-111.035 1073.97,-112.374"/>
<polygon fill="midnightblue" stroke="midnightblue" points="1073.92,-115.886 1084.22,-113.393 1074.62,-108.921 1073.92,-115.886"/>
</g>
<!-- Node17 -->
<g id="node17" class="node"><title>Node17</title>
<g id="a_node17"><a xlink:href="classStatisticsObject.html#a7ef3844aa2a91ec4fc67233f7a6f5552" target="_top" xlink:title="StatisticsObject::loadImage">
<polygon fill="white" stroke="black" points="710,-164 710,-183 847,-183 847,-164 710,-164"/>
<text text-anchor="middle" x="778.5" y="-171" font-family="Helvetica,sans-Serif" font-size="10.00">StatisticsObject::loadImage</text>
</a>
</g>
</g>
<!-- Node16&#45;&gt;Node17 -->
<g id="edge20" class="edge"><title>Node16&#45;&gt;Node17</title>
<path fill="none" stroke="midnightblue" d="M664.541,-171.524C675.799,-171.721 687.754,-171.93 699.514,-172.136"/>
<polygon fill="midnightblue" stroke="midnightblue" points="699.715,-175.64 709.774,-172.315 699.837,-168.641 699.715,-175.64"/>
</g>
<!-- Node17&#45;&gt;Node4 -->
<g id="edge25" class="edge"><title>Node17&#45;&gt;Node4</title>
<path fill="none" stroke="midnightblue" d="M819.88,-183.046C829.191,-186.21 838.77,-190.297 847,-195.5 866.665,-207.931 862.949,-221.701 883,-233.5 886.833,-235.756 890.932,-237.746 895.16,-239.503"/>
<polygon fill="midnightblue" stroke="midnightblue" points="893.98,-242.798 904.573,-242.986 896.409,-236.233 893.98,-242.798"/>
</g>
<!-- Node17&#45;&gt;Node9 -->
<g id="edge26" class="edge"><title>Node17&#45;&gt;Node9</title>
<path fill="none" stroke="midnightblue" d="M820.668,-183.009C846.005,-188.862 878.686,-196.411 905.7,-202.65"/>
<polygon fill="midnightblue" stroke="midnightblue" points="905.217,-206.131 915.748,-204.971 906.792,-199.31 905.217,-206.131"/>
</g>
<!-- Node18 -->
<g id="node18" class="node"><title>Node18</title>
<g id="a_node18"><a xlink:href="classStatisticsObject.html#a977403d59c77839b97f38c4c5d09483b" target="_top" xlink:title="StatisticsObject::numFrames">
<polygon fill="white" stroke="black" points="886,-167 886,-186 1030,-186 1030,-167 886,-167"/>
<text text-anchor="middle" x="958" y="-174" font-family="Helvetica,sans-Serif" font-size="10.00">StatisticsObject::numFrames</text>
</a>
</g>
</g>
<!-- Node17&#45;&gt;Node18 -->
<g id="edge21" class="edge"><title>Node17&#45;&gt;Node18</title>
<path fill="none" stroke="midnightblue" d="M847.111,-174.643C856.393,-174.8 866.002,-174.962 875.499,-175.123"/>
<polygon fill="midnightblue" stroke="midnightblue" points="875.682,-178.626 885.74,-175.296 875.801,-171.627 875.682,-178.626"/>
</g>
<!-- Node20 -->
<g id="node20" class="node"><title>Node20</title>
<g id="a_node20"><a xlink:href="classStatisticsObject.html#a9d90fa9d1b1373e6f93a9839c757739a" target="_top" xlink:title="StatisticsObject::internal\lScaleFactor">
<polygon fill="white" stroke="black" points="896,-117.5 896,-147.5 1020,-147.5 1020,-117.5 896,-117.5"/>
<text text-anchor="start" x="904" y="-135.5" font-family="Helvetica,sans-Serif" font-size="10.00">StatisticsObject::internal</text>
<text text-anchor="middle" x="958" y="-124.5" font-family="Helvetica,sans-Serif" font-size="10.00">ScaleFactor</text>
</a>
</g>
</g>
<!-- Node17&#45;&gt;Node20 -->
<g id="edge23" class="edge"><title>Node17&#45;&gt;Node20</title>
<path fill="none" stroke="midnightblue" d="M820.668,-163.991C840.029,-159.519 863.679,-154.056 885.811,-148.944"/>
<polygon fill="midnightblue" stroke="midnightblue" points="886.897,-152.285 895.852,-146.624 885.321,-145.465 886.897,-152.285"/>
</g>
<!-- Node21 -->
<g id="node21" class="node"><title>Node21</title>
<g id="a_node21"><a xlink:href="classstatisticSource.html#a97118da6546c479004129b4fcc6851bf" target="_top" xlink:title="statisticSource::drawStatistics">
<polygon fill="white" stroke="black" points="883,-41 883,-60 1033,-60 1033,-41 883,-41"/>
<text text-anchor="middle" x="958" y="-48" font-family="Helvetica,sans-Serif" font-size="10.00">statisticSource::drawStatistics</text>
</a>
</g>
</g>
<!-- Node17&#45;&gt;Node21 -->
<g id="edge27" class="edge"><title>Node17&#45;&gt;Node21</title>
<path fill="none" stroke="midnightblue" d="M793.428,-163.848C824.017,-142.652 897.294,-91.8734 934.502,-66.0901"/>
<polygon fill="midnightblue" stroke="midnightblue" points="936.911,-68.6793 943.137,-60.1068 932.924,-62.9257 936.911,-68.6793"/>
</g>
<!-- Node19 -->
<g id="node19" class="node"><title>Node19</title>
<g id="a_node19"><a xlink:href="classstatisticSource.html#a49d2c60f7ce52592509c07fdc9d8e268" target="_top" xlink:title="statisticSource::getNumber\lFrames">
<polygon fill="white" stroke="black" points="1076,-161.5 1076,-191.5 1212,-191.5 1212,-161.5 1076,-161.5"/>
<text text-anchor="start" x="1084" y="-179.5" font-family="Helvetica,sans-Serif" font-size="10.00">statisticSource::getNumber</text>
<text text-anchor="middle" x="1144" y="-168.5" font-family="Helvetica,sans-Serif" font-size="10.00">Frames</text>
</a>
</g>
</g>
<!-- Node18&#45;&gt;Node19 -->
<g id="edge22" class="edge"><title>Node18&#45;&gt;Node19</title>
<path fill="none" stroke="midnightblue" d="M1030.14,-176.5C1041.79,-176.5 1053.92,-176.5 1065.71,-176.5"/>
<polygon fill="midnightblue" stroke="midnightblue" points="1065.97,-180 1075.97,-176.5 1065.97,-173 1065.97,-180"/>
</g>
<!-- Node20&#45;&gt;Node15 -->
<g id="edge24" class="edge"><title>Node20&#45;&gt;Node15</title>
<path fill="none" stroke="midnightblue" d="M1020.01,-128.189C1037.33,-126.966 1056.3,-125.625 1074.05,-124.371"/>
<polygon fill="midnightblue" stroke="midnightblue" points="1074.61,-127.841 1084.34,-123.645 1074.12,-120.858 1074.61,-127.841"/>
</g>
<!-- Node22 -->
<g id="node22" class="node"><title>Node22</title>
<g id="a_node22"><a xlink:href="classstatisticSource.html#a666dee63c406a9b88484286b2a8e08f4" target="_top" xlink:title="statisticSource::getStatistics">
<polygon fill="white" stroke="black" points="1072.5,-50 1072.5,-69 1215.5,-69 1215.5,-50 1072.5,-50"/>
<text text-anchor="middle" x="1144" y="-57" font-family="Helvetica,sans-Serif" font-size="10.00">statisticSource::getStatistics</text>
</a>
</g>
</g>
<!-- Node21&#45;&gt;Node22 -->
<g id="edge28" class="edge"><title>Node21&#45;&gt;Node22</title>
<path fill="none" stroke="midnightblue" d="M1033.04,-54.1217C1042.68,-54.593 1052.59,-55.0777 1062.32,-55.5539"/>
<polygon fill="midnightblue" stroke="midnightblue" points="1062.23,-59.0534 1072.39,-56.0463 1062.57,-52.0618 1062.23,-59.0534"/>
</g>
<!-- Node24 -->
<g id="node24" class="node"><title>Node24</title>
<g id="a_node24"><a xlink:href="classstatisticSource.html#af005d063b46b611d6166d4d8439d6245" target="_top" xlink:title="statisticSource::drawStatistics\lImage">
<polygon fill="white" stroke="black" points="1069,-0.5 1069,-30.5 1219,-30.5 1219,-0.5 1069,-0.5"/>
<text text-anchor="start" x="1077" y="-18.5" font-family="Helvetica,sans-Serif" font-size="10.00">statisticSource::drawStatistics</text>
<text text-anchor="middle" x="1144" y="-7.5" font-family="Helvetica,sans-Serif" font-size="10.00">Image</text>
</a>
</g>
</g>
<!-- Node21&#45;&gt;Node24 -->
<g id="edge30" class="edge"><title>Node21&#45;&gt;Node24</title>
<path fill="none" stroke="midnightblue" d="M1009.28,-40.9361C1024.67,-38.0091 1042.03,-34.7062 1059.03,-31.4734"/>
<polygon fill="midnightblue" stroke="midnightblue" points="1059.8,-34.8885 1068.97,-29.5814 1058.49,-28.0118 1059.8,-34.8885"/>
</g>
<!-- Node23 -->
<g id="node23" class="node"><title>Node23</title>
<g id="a_node23"><a xlink:href="classstatisticSource.html#a769e0ef8bb1427d4d586425956ebfca2" target="_top" xlink:title="statisticSource::loadStatistic\lToCache">
<polygon fill="white" stroke="black" points="1255,-44.5 1255,-74.5 1397,-74.5 1397,-44.5 1255,-44.5"/>
<text text-anchor="start" x="1263" y="-62.5" font-family="Helvetica,sans-Serif" font-size="10.00">statisticSource::loadStatistic</text>
<text text-anchor="middle" x="1326" y="-51.5" font-family="Helvetica,sans-Serif" font-size="10.00">ToCache</text>
</a>
</g>
</g>
<!-- Node22&#45;&gt;Node23 -->
<g id="edge29" class="edge"><title>Node22&#45;&gt;Node23</title>
<path fill="none" stroke="midnightblue" d="M1215.62,-59.5C1225.2,-59.5 1235.08,-59.5 1244.81,-59.5"/>
<polygon fill="midnightblue" stroke="midnightblue" points="1244.87,-63.0001 1254.87,-59.5 1244.87,-56.0001 1244.87,-63.0001"/>
</g>
<!-- Node25 -->
<g id="node25" class="node"><title>Node25</title>
<g id="a_node25"><a xlink:href="statisticSource_8cpp.html#a00b2533858fa82f16ddb39544cfff2b4" target="_top" xlink:title="rotateVector">
<polygon fill="white" stroke="black" points="1291,-6 1291,-25 1361,-25 1361,-6 1291,-6"/>
<text text-anchor="middle" x="1326" y="-13" font-family="Helvetica,sans-Serif" font-size="10.00">rotateVector</text>
</a>
</g>
</g>
<!-- Node24&#45;&gt;Node25 -->
<g id="edge31" class="edge"><title>Node24&#45;&gt;Node25</title>
<path fill="none" stroke="midnightblue" d="M1219.25,-15.5C1240.07,-15.5 1262.05,-15.5 1280.55,-15.5"/>
<polygon fill="midnightblue" stroke="midnightblue" points="1280.72,-19.0001 1290.72,-15.5 1280.72,-12.0001 1280.72,-19.0001"/>
</g>
<!-- Node26&#45;&gt;Node2 -->
<g id="edge35" class="edge"><title>Node26&#45;&gt;Node2</title>
<path fill="none" stroke="midnightblue" d="M310.05,-330.393C319.812,-331.361 329.806,-332.353 339.609,-333.325"/>
<polygon fill="midnightblue" stroke="midnightblue" points="339.442,-336.826 349.739,-334.33 340.133,-329.86 339.442,-336.826"/>
</g>
</g>
</svg>
        <g id="navigator" transform="translate(0 0)" fill="#404254">
                <rect fill="#f2f5e9" fill-opacity="0.5" stroke="#606060" stroke-width=".5" x="0" y="0" width="60" height="60"/>
                <use id="zoomplus" xlink:href="#zoomPlus" x="17" y="9" onmousedown="handleZoom(evt,'in')"/>
                <use id="zoomminus" xlink:href="#zoomMin" x="42" y="9" onmousedown="handleZoom(evt,'out')"/>
                <use id="reset" xlink:href="#resetDef" x="30" y="36" onmousedown="handleReset()"/>
                <g id="arrowUp" xlink:href="#dirArrow" transform="translate(30 24)" onmousedown="handlePan(0,-1)">
                  <use xlink:href="#rim" fill="#404040">
                        <set attributeName="fill" to="#808080" begin="arrowUp.mouseover" end="arrowUp.mouseout"/>
                  </use>
                  <path fill="none" stroke="white" stroke-width="1.5" d="M0,-3.0v7 M-2.5,-0.5L0,-3.0L2.5,-0.5"/>
                </g>
                <g id="arrowRight" xlink:href="#dirArrow" transform="rotate(90) translate(36 -43)" onmousedown="handlePan(1,0)">
                  <use xlink:href="#rim" fill="#404040">
                        <set attributeName="fill" to="#808080" begin="arrowRight.mouseover" end="arrowRight.mouseout"/>
                  </use>
                  <path fill="none" stroke="white" stroke-width="1.5" d="M0,-3.0v7 M-2.5,-0.5L0,-3.0L2.5,-0.5"/>
                </g>
                <g id="arrowDown" xlink:href="#dirArrow" transform="rotate(180) translate(-30 -48)" onmousedown="handlePan(0,1)">
                  <use xlink:href="#rim" fill="#404040">
                        <set attributeName="fill" to="#808080" begin="arrowDown.mouseover" end="arrowDown.mouseout"/>
                  </use>
                  <path fill="none" stroke="white" stroke-width="1.5" d="M0,-3.0v7 M-2.5,-0.5L0,-3.0L2.5,-0.5"/>
                </g>
                <g id="arrowLeft" xlink:href="#dirArrow" transform="rotate(270) translate(-36 17)" onmousedown="handlePan(-1,0)">
                  <use xlink:href="#rim" fill="#404040">
                        <set attributeName="fill" to="#808080" begin="arrowLeft.mouseover" end="arrowLeft.mouseout"/>
                  </use>
                  <path fill="none" stroke="white" stroke-width="1.5" d="M0,-3.0v7 M-2.5,-0.5L0,-3.0L2.5,-0.5"/>
                </g>
        </g>
        <svg viewBox="0 0 15 15" width="100%" height="30px" preserveAspectRatio="xMaxYMin meet">
         <g id="arrow_out" transform="scale(0.3 0.3)">
          <a xlink:href="classDisplaySplitWidget_a0a3afd6247d51bc2ca6fabfc30ff9548_cgraph_org.svg" target="_base">
           <rect id="button" ry="5" rx="5" y="6" x="6" height="38" width="38"
                fill="#f2f5e9" fill-opacity="0.5" stroke="#606060" stroke-width="1.0"/>
           <path id="arrow"
             d="M 11.500037,31.436501 C 11.940474,20.09759 22.043105,11.32322 32.158766,21.979434 L 37.068811,17.246167 C 37.068811,17.246167 37.088388,32 37.088388,32 L 22.160133,31.978069 C 22.160133,31.978069 26.997745,27.140456 26.997745,27.140456 C 18.528582,18.264221 13.291696,25.230495 11.500037,31.436501 z"
             style="fill:#404040;"/>
          </a>
         </g>
        </svg>
</svg>
