<?xml version="1.0" encoding="UTF-8" standalone="no"?>
<!DOCTYPE svg PUBLIC "-//W3C//DTD SVG 1.1//EN"
 "http://www.w3.org/Graphics/SVG/1.1/DTD/svg11.dtd">
<!-- Generated by graphviz version 2.38.0 (20140413.2041)
 -->
<!-- Title: PlaylistItem::getFrameObject Pages: 1 -->
<!--zoomable 919 -->
<svg id="main" version="1.1" xmlns="http://www.w3.org/2000/svg" xmlns:xlink="http://www.w3.org/1999/xlink" xml:space="preserve" onload="init(evt)">
<style type="text/css"><![CDATA[
.edge:hover path { stroke: red; }
.edge:hover polygon { stroke: red; fill: red; }
]]></style>
<script type="text/javascript"><![CDATA[
var edges = document.getElementsByTagName('g');
if (edges && edges.length) {
  for (var i=0;i<edges.length;i++) {
    if (edges[i].id.substr(0,4)=='edge') {
      edges[i].setAttribute('class','edge');
    }
  }
}
]]></script>
        <defs>
                <circle id="rim" cx="0" cy="0" r="7"/>
                <circle id="rim2" cx="0" cy="0" r="3.5"/>
                <g id="zoomPlus">
                        <use xlink:href="#rim" fill="#404040">
                                <set attributeName="fill" to="#808080" begin="zoomplus.mouseover" end="zoomplus.mouseout"/>
                        </use>
                        <path d="M-4,0h8M0,-4v8" fill="none" stroke="white" stroke-width="1.5" pointer-events="none"/>
                </g>
                <g id="zoomMin">
                        <use xlink:href="#rim" fill="#404040">
                                <set attributeName="fill" to="#808080" begin="zoomminus.mouseover" end="zoomminus.mouseout"/>
                        </use>
                        <path d="M-4,0h8" fill="none" stroke="white" stroke-width="1.5" pointer-events="none"/>
                </g>
                <g id="dirArrow">
                        <path fill="none" stroke="white" stroke-width="1.5" d="M0,-3.0v7 M-2.5,-0.5L0,-3.0L2.5,-0.5"/>
                </g>
               <g id="resetDef">
                       <use xlink:href="#rim2" fill="#404040">
                               <set attributeName="fill" to="#808080" begin="reset.mouseover" end="reset.mouseout"/>
                       </use>
               </g>
        </defs>

<script type="text/javascript">
var viewWidth = 1316;
var viewHeight = 919;
var sectionId = 'dynsection-7';
</script>
<script xlink:href="svgpan.js"/>
<svg id="graph" class="graph">
<g id="viewport">
<title>PlaylistItem::getFrameObject</title>
<polygon fill="white" stroke="none" points="-4,4 -4,-915 1312,-915 1312,4 -4,4"/>
<!-- Node1 -->
<g id="node1" class="node"><title>Node1</title>
<polygon fill="#bfbfbf" stroke="black" points="0,-363 0,-382 144,-382 144,-363 0,-363"/>
<text text-anchor="middle" x="72" y="-370" font-family="Helvetica,sans-Serif" font-size="10.00">PlaylistItem::getFrameObject</text>
</g>
<!-- Node2 -->
<g id="node2" class="node"><title>Node2</title>
<g id="a_node2"><a xlink:href="classMainWindow.html#a2d8cea1d443550a8f14ce8c80d2608c6" target="_top" xlink:title="MainWindow::loadPlaylistFile">
<polygon fill="white" stroke="black" points="190,-674 190,-693 335,-693 335,-674 190,-674"/>
<text text-anchor="middle" x="262.5" y="-681" font-family="Helvetica,sans-Serif" font-size="10.00">MainWindow::loadPlaylistFile</text>
</a>
</g>
</g>
<!-- Node1&#45;&gt;Node2 -->
<g id="edge1" class="edge"><title>Node1&#45;&gt;Node2</title>
<path fill="none" stroke="midnightblue" d="M75.8951,-392.234C83.9326,-440.624 110.678,-566.733 180,-642.5 193.472,-657.224 213.425,-667.386 230.217,-673.91"/>
<polygon fill="midnightblue" stroke="midnightblue" points="79.322,-391.496 74.3105,-382.161 72.4071,-392.583 79.322,-391.496"/>
</g>
<!-- Node3 -->
<g id="node3" class="node"><title>Node3</title>
<g id="a_node3"><a xlink:href="classMainWindow.html#a8ef1be3cb02e12d68d12375d1a7a0ced" target="_top" xlink:title="loads a list of yuv/csv files ">
<polygon fill="white" stroke="black" points="408.5,-735 408.5,-754 526.5,-754 526.5,-735 408.5,-735"/>
<text text-anchor="middle" x="467.5" y="-742" font-family="Helvetica,sans-Serif" font-size="10.00">MainWindow::loadFiles</text>
</a>
</g>
</g>
<!-- Node1&#45;&gt;Node3 -->
<g id="edge17" class="edge"><title>Node1&#45;&gt;Node3</title>
<path fill="none" stroke="midnightblue" d="M72.7604,-392.341C73.2302,-450.35 83.1625,-620.702 180,-702.5 243.559,-756.188 344.678,-758.012 408.23,-752.593"/>
<polygon fill="midnightblue" stroke="midnightblue" points="76.2604,-392.3 72.7697,-382.296 69.2604,-392.293 76.2604,-392.3"/>
</g>
<!-- Node13 -->
<g id="node13" class="node"><title>Node13</title>
<g id="a_node13"><a xlink:href="classMainWindow.html#a88624964fbb9d67df9149b29fab6f225" target="_top" xlink:title="MainWindow::savePlaylist\lToFile">
<polygon fill="white" stroke="black" points="196.5,-602.5 196.5,-632.5 328.5,-632.5 328.5,-602.5 196.5,-602.5"/>
<text text-anchor="start" x="204.5" y="-620.5" font-family="Helvetica,sans-Serif" font-size="10.00">MainWindow::savePlaylist</text>
<text text-anchor="middle" x="262.5" y="-609.5" font-family="Helvetica,sans-Serif" font-size="10.00">ToFile</text>
</a>
</g>
</g>
<!-- Node1&#45;&gt;Node13 -->
<g id="edge14" class="edge"><title>Node1&#45;&gt;Node13</title>
<path fill="none" stroke="midnightblue" d="M77.9184,-392.362C89.1116,-433.658 120.262,-529.508 180,-584.5 188.086,-591.944 198.071,-597.811 208.246,-602.399"/>
<polygon fill="midnightblue" stroke="midnightblue" points="81.2447,-391.246 75.3363,-382.452 74.4709,-393.011 81.2447,-391.246"/>
</g>
<!-- Node15 -->
<g id="node15" class="node"><title>Node15</title>
<g id="a_node15"><a xlink:href="classMainWindow.html#a6f33e93f427ff2df80edffcb3ad944da" target="_top" xlink:title="MainWindow::updateSelected\lItems">
<polygon fill="white" stroke="black" points="590,-470.5 590,-500.5 736,-500.5 736,-470.5 590,-470.5"/>
<text text-anchor="start" x="598" y="-488.5" font-family="Helvetica,sans-Serif" font-size="10.00">MainWindow::updateSelected</text>
<text text-anchor="middle" x="663" y="-477.5" font-family="Helvetica,sans-Serif" font-size="10.00">Items</text>
</a>
</g>
</g>
<!-- Node1&#45;&gt;Node15 -->
<g id="edge18" class="edge"><title>Node1&#45;&gt;Node15</title>
<path fill="none" stroke="midnightblue" d="M81.0634,-391.798C95.5087,-423.501 129.126,-485.571 180,-510.5 254.632,-547.071 471.426,-519.932 554,-510.5 571.783,-508.469 590.899,-504.614 608.032,-500.529"/>
<polygon fill="midnightblue" stroke="midnightblue" points="84.1236,-390.062 76.9023,-382.309 77.7128,-392.873 84.1236,-390.062"/>
</g>
<!-- Node20 -->
<g id="node20" class="node"><title>Node20</title>
<g id="a_node20"><a xlink:href="classMainWindow.html#a29e6418f12a4331860a7db3616e91600" target="_top" xlink:title="updates the YUV information GUI elements from the current Renderobject ">
<polygon fill="white" stroke="black" points="188,-470.5 188,-500.5 337,-500.5 337,-470.5 188,-470.5"/>
<text text-anchor="start" x="196" y="-488.5" font-family="Helvetica,sans-Serif" font-size="10.00">MainWindow::updateSelection</text>
<text text-anchor="middle" x="262.5" y="-477.5" font-family="Helvetica,sans-Serif" font-size="10.00">MetaInfo</text>
</a>
</g>
</g>
<!-- Node1&#45;&gt;Node20 -->
<g id="edge29" class="edge"><title>Node1&#45;&gt;Node20</title>
<path fill="none" stroke="midnightblue" d="M90.6784,-389.009C110.963,-407.255 145.845,-436.564 180,-455.5 190.285,-461.202 201.869,-466.215 213.005,-470.429"/>
<polygon fill="midnightblue" stroke="midnightblue" points="92.9114,-386.308 83.1655,-382.152 88.1928,-391.479 92.9114,-386.308"/>
</g>
<!-- Node21 -->
<g id="node21" class="node"><title>Node21</title>
<g id="a_node21"><a xlink:href="classMainWindow.html#a2cae0b3ed4283301ecc11dc881d31422" target="_top" xlink:title="A file option was changed by the user (width/height/start/end/rate/sampling/frameSize/pixelFormat). ">
<polygon fill="white" stroke="black" points="399.5,-382.5 399.5,-412.5 535.5,-412.5 535.5,-382.5 399.5,-382.5"/>
<text text-anchor="start" x="407.5" y="-400.5" font-family="Helvetica,sans-Serif" font-size="10.00">MainWindow::on_fileOption</text>
<text text-anchor="middle" x="467.5" y="-389.5" font-family="Helvetica,sans-Serif" font-size="10.00">ValueChanged</text>
</a>
</g>
</g>
<!-- Node1&#45;&gt;Node21 -->
<g id="edge36" class="edge"><title>Node1&#45;&gt;Node21</title>
<path fill="none" stroke="midnightblue" d="M96.6658,-387.263C117.66,-399.434 149.623,-415.753 180,-422.5 258.351,-439.903 351.27,-425.593 409.568,-412.535"/>
<polygon fill="midnightblue" stroke="midnightblue" points="98.2208,-384.116 87.8369,-382.012 94.6426,-390.132 98.2208,-384.116"/>
</g>
<!-- Node23 -->
<g id="node23" class="node"><title>Node23</title>
<g id="a_node23"><a xlink:href="classMainWindow.html#a704745d0944b860342ac8bdb6867491c" target="_top" xlink:title="TODO: Should this also be in updateSelectionMetaInfo and the signal/slot? ">
<polygon fill="white" stroke="black" points="180.5,-382.5 180.5,-412.5 344.5,-412.5 344.5,-382.5 180.5,-382.5"/>
<text text-anchor="start" x="188.5" y="-400.5" font-family="Helvetica,sans-Serif" font-size="10.00">MainWindow::on_interpolation</text>
<text text-anchor="middle" x="262.5" y="-389.5" font-family="Helvetica,sans-Serif" font-size="10.00">ComboBox_currentIndexChanged</text>
</a>
</g>
</g>
<!-- Node1&#45;&gt;Node23 -->
<g id="edge37" class="edge"><title>Node1&#45;&gt;Node23</title>
<path fill="none" stroke="midnightblue" d="M154.307,-383.283C162.936,-384.428 171.712,-385.592 180.339,-386.736"/>
<polygon fill="midnightblue" stroke="midnightblue" points="154.637,-379.797 144.264,-381.951 153.717,-386.736 154.637,-379.797"/>
</g>
<!-- Node24 -->
<g id="node24" class="node"><title>Node24</title>
<g id="a_node24"><a xlink:href="classMainWindow.html#ab2f303a68beea6bf87324e4e96f7a598" target="_top" xlink:title="update selection of color format ComboBox ">
<polygon fill="white" stroke="black" points="387,-558.5 387,-588.5 548,-588.5 548,-558.5 387,-558.5"/>
<text text-anchor="start" x="395" y="-576.5" font-family="Helvetica,sans-Serif" font-size="10.00">MainWindow::updatePixelFormat</text>
<text text-anchor="middle" x="467.5" y="-565.5" font-family="Helvetica,sans-Serif" font-size="10.00">ComboBoxSelection</text>
</a>
</g>
</g>
<!-- Node1&#45;&gt;Node24 -->
<g id="edge38" class="edge"><title>Node1&#45;&gt;Node24</title>
<path fill="none" stroke="midnightblue" d="M78.8277,-391.951C90.953,-428.668 122.654,-507.706 180,-543.5 241.729,-582.029 325.838,-586.453 386.947,-583.093"/>
<polygon fill="midnightblue" stroke="midnightblue" points="82.0368,-390.491 75.6864,-382.01 75.3621,-392.6 82.0368,-390.491"/>
</g>
<!-- Node25 -->
<g id="node25" class="node"><title>Node25</title>
<g id="a_node25"><a xlink:href="classMainWindow.html#a3e50d275dfc7ac5871360412dd83f7eb" target="_top" xlink:title="MainWindow::on_LumaScale\lSpinBox_valueChanged">
<polygon fill="white" stroke="black" points="191,-147.5 191,-177.5 334,-177.5 334,-147.5 191,-147.5"/>
<text text-anchor="start" x="199" y="-165.5" font-family="Helvetica,sans-Serif" font-size="10.00">MainWindow::on_LumaScale</text>
<text text-anchor="middle" x="262.5" y="-154.5" font-family="Helvetica,sans-Serif" font-size="10.00">SpinBox_valueChanged</text>
</a>
</g>
</g>
<!-- Node1&#45;&gt;Node25 -->
<g id="edge40" class="edge"><title>Node1&#45;&gt;Node25</title>
<path fill="none" stroke="midnightblue" d="M79.4581,-353.285C92.6451,-316.846 126.06,-237.345 180,-192.5 187.304,-186.427 195.949,-181.527 204.833,-177.589"/>
<polygon fill="midnightblue" stroke="midnightblue" points="76.1481,-352.147 76.1439,-362.742 82.7542,-354.463 76.1481,-352.147"/>
</g>
<!-- Node26 -->
<g id="node26" class="node"><title>Node26</title>
<g id="a_node26"><a xlink:href="classMainWindow.html#a1836ff843ea4ed48e29ab90b08050bf7" target="_top" xlink:title="MainWindow::on_ColorComponents\lComboBox_currentIndexChanged">
<polygon fill="white" stroke="black" points="381,-235.5 381,-265.5 554,-265.5 554,-235.5 381,-235.5"/>
<text text-anchor="start" x="389" y="-253.5" font-family="Helvetica,sans-Serif" font-size="10.00">MainWindow::on_ColorComponents</text>
<text text-anchor="middle" x="467.5" y="-242.5" font-family="Helvetica,sans-Serif" font-size="10.00">ComboBox_currentIndexChanged</text>
</a>
</g>
</g>
<!-- Node1&#45;&gt;Node26 -->
<g id="edge50" class="edge"><title>Node1&#45;&gt;Node26</title>
<path fill="none" stroke="midnightblue" d="M80.1585,-353.51C93.7768,-320.484 126.886,-253.425 180,-226.5 261.027,-185.425 371.65,-214.884 428.834,-235.347"/>
<polygon fill="midnightblue" stroke="midnightblue" points="76.8508,-352.356 76.4212,-362.942 83.3586,-354.935 76.8508,-352.356"/>
</g>
<!-- Node27 -->
<g id="node27" class="node"><title>Node27</title>
<g id="a_node27"><a xlink:href="classMainWindow.html#aa8b7f37af858513162a091d7f81561b4" target="_top" xlink:title="MainWindow::on_ChromaScale\lSpinBox_valueChanged">
<polygon fill="white" stroke="black" points="185.5,-333.5 185.5,-363.5 339.5,-363.5 339.5,-333.5 185.5,-333.5"/>
<text text-anchor="start" x="193.5" y="-351.5" font-family="Helvetica,sans-Serif" font-size="10.00">MainWindow::on_ChromaScale</text>
<text text-anchor="middle" x="262.5" y="-340.5" font-family="Helvetica,sans-Serif" font-size="10.00">SpinBox_valueChanged</text>
</a>
</g>
</g>
<!-- Node1&#45;&gt;Node27 -->
<g id="edge42" class="edge"><title>Node1&#45;&gt;Node27</title>
<path fill="none" stroke="midnightblue" d="M154.457,-362.129C164.737,-360.82 175.225,-359.485 185.418,-358.187"/>
<polygon fill="midnightblue" stroke="midnightblue" points="153.742,-358.692 144.264,-363.427 154.626,-365.636 153.742,-358.692"/>
</g>
<!-- Node28 -->
<g id="node28" class="node"><title>Node28</title>
<g id="a_node28"><a xlink:href="classMainWindow.html#ab0e3857ccb336133d522cde81e73988e" target="_top" xlink:title="MainWindow::on_LumaOffset\lSpinBox_valueChanged">
<polygon fill="white" stroke="black" points="189.5,-284.5 189.5,-314.5 335.5,-314.5 335.5,-284.5 189.5,-284.5"/>
<text text-anchor="start" x="197.5" y="-302.5" font-family="Helvetica,sans-Serif" font-size="10.00">MainWindow::on_LumaOffset</text>
<text text-anchor="middle" x="262.5" y="-291.5" font-family="Helvetica,sans-Serif" font-size="10.00">SpinBox_valueChanged</text>
</a>
</g>
</g>
<!-- Node1&#45;&gt;Node28 -->
<g id="edge44" class="edge"><title>Node1&#45;&gt;Node28</title>
<path fill="none" stroke="midnightblue" d="M101.56,-358.522C122.885,-348.373 152.897,-334.691 180,-324.5 189.282,-321.01 199.287,-317.634 209.002,-314.552"/>
<polygon fill="midnightblue" stroke="midnightblue" points="99.9163,-355.429 92.4155,-362.911 102.945,-361.74 99.9163,-355.429"/>
</g>
<!-- Node29 -->
<g id="node29" class="node"><title>Node29</title>
<g id="a_node29"><a xlink:href="classMainWindow.html#adac0478ee9ee4dd30f05fc7f5d300825" target="_top" xlink:title="MainWindow::on_ChromaOffset\lSpinBox_valueChanged">
<polygon fill="white" stroke="black" points="184.5,-235.5 184.5,-265.5 340.5,-265.5 340.5,-235.5 184.5,-235.5"/>
<text text-anchor="start" x="192.5" y="-253.5" font-family="Helvetica,sans-Serif" font-size="10.00">MainWindow::on_ChromaOffset</text>
<text text-anchor="middle" x="262.5" y="-242.5" font-family="Helvetica,sans-Serif" font-size="10.00">SpinBox_valueChanged</text>
</a>
</g>
</g>
<!-- Node1&#45;&gt;Node29 -->
<g id="edge46" class="edge"><title>Node1&#45;&gt;Node29</title>
<path fill="none" stroke="midnightblue" d="M87.8419,-354.964C107.035,-333.34 142.478,-296.836 180,-275.5 186.69,-271.696 194.025,-268.406 201.467,-265.578"/>
<polygon fill="midnightblue" stroke="midnightblue" points="85.0173,-352.878 81.0909,-362.719 90.2969,-357.475 85.0173,-352.878"/>
</g>
<!-- Node30 -->
<g id="node30" class="node"><title>Node30</title>
<g id="a_node30"><a xlink:href="classMainWindow.html#a7f6cbe2be23224eb9eef6af3f55a6d4f" target="_top" xlink:title="MainWindow::on_LumaInvert\lCheckBox_toggled">
<polygon fill="white" stroke="black" points="191,-98.5 191,-128.5 334,-128.5 334,-98.5 191,-98.5"/>
<text text-anchor="start" x="199" y="-116.5" font-family="Helvetica,sans-Serif" font-size="10.00">MainWindow::on_LumaInvert</text>
<text text-anchor="middle" x="262.5" y="-105.5" font-family="Helvetica,sans-Serif" font-size="10.00">CheckBox_toggled</text>
</a>
</g>
</g>
<!-- Node1&#45;&gt;Node30 -->
<g id="edge48" class="edge"><title>Node1&#45;&gt;Node30</title>
<path fill="none" stroke="midnightblue" d="M76.3493,-352.914C85.0352,-308.153 112.494,-197.681 180,-138.5 184.452,-134.597 189.502,-131.304 194.855,-128.525"/>
<polygon fill="midnightblue" stroke="midnightblue" points="72.8964,-352.339 74.5325,-362.806 79.7813,-353.603 72.8964,-352.339"/>
</g>
<!-- Node31 -->
<g id="node31" class="node"><title>Node31</title>
<g id="a_node31"><a xlink:href="classMainWindow.html#aaa518172394694dea45234097327e979" target="_top" xlink:title="MainWindow::on_ChromaInvert\lCheckBox_toggled">
<polygon fill="white" stroke="black" points="185.5,-49.5 185.5,-79.5 339.5,-79.5 339.5,-49.5 185.5,-49.5"/>
<text text-anchor="start" x="193.5" y="-67.5" font-family="Helvetica,sans-Serif" font-size="10.00">MainWindow::on_ChromaInvert</text>
<text text-anchor="middle" x="262.5" y="-56.5" font-family="Helvetica,sans-Serif" font-size="10.00">CheckBox_toggled</text>
</a>
</g>
</g>
<!-- Node1&#45;&gt;Node31 -->
<g id="edge49" class="edge"><title>Node1&#45;&gt;Node31</title>
<path fill="none" stroke="midnightblue" d="M74.6253,-352.747C79.9042,-301.568 101.113,-163.505 180,-89.5 184.102,-85.6522 188.781,-82.3958 193.777,-79.6401"/>
<polygon fill="midnightblue" stroke="midnightblue" points="71.1314,-352.52 73.6829,-362.803 78.1008,-353.173 71.1314,-352.52"/>
</g>
<!-- Node32 -->
<g id="node32" class="node"><title>Node32</title>
<g id="a_node32"><a xlink:href="classMainWindow.html#aa8d01c48d2abb3c4bfaf0fbb387a79b4" target="_top" xlink:title="MainWindow::on_colorConversion\lComboBox_currentIndexChanged">
<polygon fill="white" stroke="black" points="180,-0.5 180,-30.5 345,-30.5 345,-0.5 180,-0.5"/>
<text text-anchor="start" x="188" y="-18.5" font-family="Helvetica,sans-Serif" font-size="10.00">MainWindow::on_colorConversion</text>
<text text-anchor="middle" x="262.5" y="-7.5" font-family="Helvetica,sans-Serif" font-size="10.00">ComboBox_currentIndexChanged</text>
</a>
</g>
</g>
<!-- Node1&#45;&gt;Node32 -->
<g id="edge51" class="edge"><title>Node1&#45;&gt;Node32</title>
<path fill="none" stroke="midnightblue" d="M73.2814,-352.76C75.1948,-295.633 88.7182,-128.571 180,-39.5 183.484,-36.1006 187.424,-33.1788 191.644,-30.668"/>
<polygon fill="midnightblue" stroke="midnightblue" points="69.778,-352.856 73.0296,-362.94 76.7759,-353.029 69.778,-352.856"/>
</g>
<!-- Node2&#45;&gt;Node3 -->
<g id="edge2" class="edge"><title>Node2&#45;&gt;Node3</title>
<path fill="none" stroke="midnightblue" d="M305.06,-695.988C343.467,-707.53 399.718,-724.433 434.67,-734.935"/>
<polygon fill="midnightblue" stroke="midnightblue" points="305.803,-692.557 295.219,-693.031 303.788,-699.261 305.803,-692.557"/>
</g>
<!-- Node4 -->
<g id="node4" class="node"><title>Node4</title>
<g id="a_node4"><a xlink:href="classDisplaySplitWidget.html#ac1d4ced58b2ac2b08153694a5de6232e" target="_top" xlink:title="DisplaySplitWidget\l::dropEvent">
<polygon fill="white" stroke="black" points="613,-880.5 613,-910.5 713,-910.5 713,-880.5 613,-880.5"/>
<text text-anchor="start" x="621" y="-898.5" font-family="Helvetica,sans-Serif" font-size="10.00">DisplaySplitWidget</text>
<text text-anchor="middle" x="663" y="-887.5" font-family="Helvetica,sans-Serif" font-size="10.00">::dropEvent</text>
</a>
</g>
</g>
<!-- Node3&#45;&gt;Node4 -->
<g id="edge3" class="edge"><title>Node3&#45;&gt;Node4</title>
<path fill="none" stroke="midnightblue" d="M482.556,-762.375C503.571,-788.108 545.495,-835.762 590,-865.5 598.557,-871.218 608.379,-876.185 617.961,-880.343"/>
<polygon fill="midnightblue" stroke="midnightblue" points="485.019,-759.852 476.025,-754.252 479.564,-764.238 485.019,-759.852"/>
</g>
<!-- Node5 -->
<g id="node5" class="node"><title>Node5</title>
<g id="a_node5"><a xlink:href="classMainWindow.html#a288b768c3c21a9171bdc56fe845ece8b" target="_top" xlink:title="Shows the file open dialog and loads all selected Files. ">
<polygon fill="white" stroke="black" points="787.5,-602 787.5,-621 903.5,-621 903.5,-602 787.5,-602"/>
<text text-anchor="middle" x="845.5" y="-609" font-family="Helvetica,sans-Serif" font-size="10.00">MainWindow::openFile</text>
</a>
</g>
</g>
<!-- Node3&#45;&gt;Node5 -->
<g id="edge4" class="edge"><title>Node3&#45;&gt;Node5</title>
<path fill="none" stroke="midnightblue" d="M505.087,-731.558C580.375,-704.927 751.131,-644.527 817.452,-621.068"/>
<polygon fill="midnightblue" stroke="midnightblue" points="503.801,-728.3 495.541,-734.935 506.136,-734.9 503.801,-728.3"/>
</g>
<!-- Node9 -->
<g id="node9" class="node"><title>Node9</title>
<g id="a_node9"><a xlink:href="classMainWindow.html#a935316315edb9b7af42657da20be0e54" target="_top" xlink:title="MainWindow::openRecentFile">
<polygon fill="white" stroke="black" points="772,-760 772,-779 919,-779 919,-760 772,-760"/>
<text text-anchor="middle" x="845.5" y="-767" font-family="Helvetica,sans-Serif" font-size="10.00">MainWindow::openRecentFile</text>
</a>
</g>
</g>
<!-- Node3&#45;&gt;Node9 -->
<g id="edge9" class="edge"><title>Node3&#45;&gt;Node9</title>
<path fill="none" stroke="midnightblue" d="M484.433,-761.295C505.989,-782.665 546.75,-818.483 590,-832.5 651.728,-852.506 673.343,-849.372 736,-832.5 774.7,-822.079 813.82,-794.092 832.764,-779.174"/>
<polygon fill="midnightblue" stroke="midnightblue" points="486.901,-758.813 477.391,-754.142 481.913,-763.724 486.901,-758.813"/>
</g>
<!-- Node10 -->
<g id="node10" class="node"><title>Node10</title>
<g id="a_node10"><a xlink:href="classPlaylistTreeWidget.html#a295170eb269cc67050ea0b575cd0ab53" target="_top" xlink:title="PlaylistTreeWidget\l::dropEvent">
<polygon fill="white" stroke="black" points="613.5,-792.5 613.5,-822.5 712.5,-822.5 712.5,-792.5 613.5,-792.5"/>
<text text-anchor="start" x="621.5" y="-810.5" font-family="Helvetica,sans-Serif" font-size="10.00">PlaylistTreeWidget</text>
<text text-anchor="middle" x="663" y="-799.5" font-family="Helvetica,sans-Serif" font-size="10.00">::dropEvent</text>
</a>
</g>
</g>
<!-- Node3&#45;&gt;Node10 -->
<g id="edge11" class="edge"><title>Node3&#45;&gt;Node10</title>
<path fill="none" stroke="midnightblue" d="M507.561,-757.218C538.813,-767.393 582.717,-781.687 615.729,-792.435"/>
<polygon fill="midnightblue" stroke="midnightblue" points="508.481,-753.836 497.888,-754.068 506.314,-760.492 508.481,-753.836"/>
</g>
<!-- Node11 -->
<g id="node11" class="node"><title>Node11</title>
<g id="a_node11"><a xlink:href="classYUViewApp.html#ac0f5381cc5b703a9ea704b5eedab4b7f" target="_top" xlink:title="YUViewApp::YUViewApp">
<polygon fill="white" stroke="black" points="598.5,-754 598.5,-773 727.5,-773 727.5,-754 598.5,-754"/>
<text text-anchor="middle" x="663" y="-761" font-family="Helvetica,sans-Serif" font-size="10.00">YUViewApp::YUViewApp</text>
</a>
</g>
</g>
<!-- Node3&#45;&gt;Node11 -->
<g id="edge12" class="edge"><title>Node3&#45;&gt;Node11</title>
<path fill="none" stroke="midnightblue" d="M536.547,-751.182C556.602,-753.151 578.466,-755.298 598.241,-757.239"/>
<polygon fill="midnightblue" stroke="midnightblue" points="536.851,-747.695 526.556,-750.201 536.166,-754.661 536.851,-747.695"/>
</g>
<!-- Node12 -->
<g id="node12" class="node"><title>Node12</title>
<g id="a_node12"><a xlink:href="classYUViewApp.html#a2f5f937d6677018ef73a5ffc248f9891" target="_top" xlink:title="YUViewApp::event">
<polygon fill="white" stroke="black" points="613,-716 613,-735 713,-735 713,-716 613,-716"/>
<text text-anchor="middle" x="663" y="-723" font-family="Helvetica,sans-Serif" font-size="10.00">YUViewApp::event</text>
</a>
</g>
</g>
<!-- Node3&#45;&gt;Node12 -->
<g id="edge13" class="edge"><title>Node3&#45;&gt;Node12</title>
<path fill="none" stroke="midnightblue" d="M536.745,-737.799C561.83,-735.336 589.722,-732.597 612.806,-730.33"/>
<polygon fill="midnightblue" stroke="midnightblue" points="536.166,-734.339 526.556,-738.799 536.851,-741.305 536.166,-734.339"/>
</g>
<!-- Node6 -->
<g id="node6" class="node"><title>Node6</title>
<g id="a_node6"><a xlink:href="classMainWindow.html#a9df7443ce5f907903438bb6a9abe9a33" target="_top" xlink:title="MainWindow::createMenusAnd\lActions">
<polygon fill="white" stroke="black" points="970,-596.5 970,-626.5 1122,-626.5 1122,-596.5 970,-596.5"/>
<text text-anchor="start" x="978" y="-614.5" font-family="Helvetica,sans-Serif" font-size="10.00">MainWindow::createMenusAnd</text>
<text text-anchor="middle" x="1046" y="-603.5" font-family="Helvetica,sans-Serif" font-size="10.00">Actions</text>
</a>
</g>
</g>
<!-- Node5&#45;&gt;Node6 -->
<g id="edge5" class="edge"><title>Node5&#45;&gt;Node6</title>
<path fill="none" stroke="midnightblue" d="M913.763,-611.5C931.778,-611.5 951.367,-611.5 969.781,-611.5"/>
<polygon fill="midnightblue" stroke="midnightblue" points="913.648,-608 903.648,-611.5 913.648,-615 913.648,-608"/>
</g>
<!-- Node8 -->
<g id="node8" class="node"><title>Node8</title>
<g id="a_node8"><a xlink:href="classMainWindow.html#aaba5c236313378986c42c4a634c4cfb9" target="_top" xlink:title="MainWindow::onCustomContextMenu">
<polygon fill="white" stroke="black" points="955,-558 955,-577 1137,-577 1137,-558 955,-558"/>
<text text-anchor="middle" x="1046" y="-565" font-family="Helvetica,sans-Serif" font-size="10.00">MainWindow::onCustomContextMenu</text>
</a>
</g>
</g>
<!-- Node5&#45;&gt;Node8 -->
<g id="edge7" class="edge"><title>Node5&#45;&gt;Node8</title>
<path fill="none" stroke="midnightblue" d="M899.662,-599.716C931.706,-592.613 971.988,-583.684 1002.01,-577.029"/>
<polygon fill="midnightblue" stroke="midnightblue" points="898.577,-596.371 889.572,-601.953 900.092,-603.206 898.577,-596.371"/>
</g>
<!-- Node7 -->
<g id="node7" class="node"><title>Node7</title>
<g id="a_node7"><a xlink:href="classMainWindow.html#a8b244be8b7b7db1b08de2a2acb9409db" target="_top" xlink:title="MainWindow::MainWindow">
<polygon fill="white" stroke="black" points="1173,-492 1173,-511 1308,-511 1308,-492 1173,-492"/>
<text text-anchor="middle" x="1240.5" y="-499" font-family="Helvetica,sans-Serif" font-size="10.00">MainWindow::MainWindow</text>
</a>
</g>
</g>
<!-- Node6&#45;&gt;Node7 -->
<g id="edge6" class="edge"><title>Node6&#45;&gt;Node7</title>
<path fill="none" stroke="midnightblue" d="M1123,-592.922C1127.83,-590.971 1132.53,-588.835 1137,-586.5 1176.13,-566.046 1213.93,-528.797 1230.6,-511.201"/>
<polygon fill="midnightblue" stroke="midnightblue" points="1121.74,-589.658 1113.61,-596.451 1124.2,-596.21 1121.74,-589.658"/>
</g>
<!-- Node8&#45;&gt;Node7 -->
<g id="edge8" class="edge"><title>Node8&#45;&gt;Node7</title>
<path fill="none" stroke="midnightblue" d="M1111.77,-555.635C1120.34,-553.541 1128.93,-551.164 1137,-548.5 1167.86,-538.308 1201.8,-521.572 1221.84,-511.064"/>
<polygon fill="midnightblue" stroke="midnightblue" points="1110.72,-552.287 1101.77,-557.964 1112.31,-559.105 1110.72,-552.287"/>
</g>
<!-- Node9&#45;&gt;Node6 -->
<g id="edge10" class="edge"><title>Node9&#45;&gt;Node6</title>
<path fill="none" stroke="midnightblue" d="M866.521,-753.564C904.942,-722.982 988.528,-656.45 1026.07,-626.565"/>
<polygon fill="midnightblue" stroke="midnightblue" points="864.263,-750.888 858.618,-759.854 868.622,-756.365 864.263,-750.888"/>
</g>
<!-- Node13&#45;&gt;Node6 -->
<g id="edge15" class="edge"><title>Node13&#45;&gt;Node6</title>
<path fill="none" stroke="midnightblue" d="M338.634,-631.484C352.666,-633.573 367.243,-635.395 381,-636.5 471.881,-643.8 845.229,-636.641 919,-630.5 935.535,-629.124 953.196,-626.923 969.904,-624.499"/>
<polygon fill="midnightblue" stroke="midnightblue" points="338.95,-627.991 328.532,-629.922 337.88,-634.909 338.95,-627.991"/>
</g>
<!-- Node14 -->
<g id="node14" class="node"><title>Node14</title>
<g id="a_node14"><a xlink:href="classMainWindow.html#a4e20a4a065fbb0e4d3532a45a0a91425" target="_top" xlink:title="MainWindow::closeEvent">
<polygon fill="white" stroke="black" points="403.5,-608 403.5,-627 531.5,-627 531.5,-608 403.5,-608"/>
<text text-anchor="middle" x="467.5" y="-615" font-family="Helvetica,sans-Serif" font-size="10.00">MainWindow::closeEvent</text>
</a>
</g>
</g>
<!-- Node13&#45;&gt;Node14 -->
<g id="edge16" class="edge"><title>Node13&#45;&gt;Node14</title>
<path fill="none" stroke="midnightblue" d="M338.813,-617.5C359.986,-617.5 382.79,-617.5 403.186,-617.5"/>
<polygon fill="midnightblue" stroke="midnightblue" points="338.568,-614 328.568,-617.5 338.568,-621 338.568,-614"/>
</g>
<!-- Node15&#45;&gt;Node7 -->
<g id="edge19" class="edge"><title>Node15&#45;&gt;Node7</title>
<path fill="none" stroke="midnightblue" d="M746.148,-487.784C860.889,-490.974 1066.93,-496.702 1172.76,-499.644"/>
<polygon fill="midnightblue" stroke="midnightblue" points="746.108,-484.281 736.014,-487.502 745.913,-491.279 746.108,-484.281"/>
</g>
<!-- Node16 -->
<g id="node16" class="node"><title>Node16</title>
<g id="a_node16"><a xlink:href="classMainWindow.html#a6be7246a1a0ecf5d1442bb1775c3d9b3" target="_top" xlink:title="MainWindow::addDifference\lSequence">
<polygon fill="white" stroke="black" points="775.5,-552.5 775.5,-582.5 915.5,-582.5 915.5,-552.5 775.5,-552.5"/>
<text text-anchor="start" x="783.5" y="-570.5" font-family="Helvetica,sans-Serif" font-size="10.00">MainWindow::addDifference</text>
<text text-anchor="middle" x="845.5" y="-559.5" font-family="Helvetica,sans-Serif" font-size="10.00">Sequence</text>
</a>
</g>
</g>
<!-- Node15&#45;&gt;Node16 -->
<g id="edge20" class="edge"><title>Node15&#45;&gt;Node16</title>
<path fill="none" stroke="midnightblue" d="M698.876,-505.66C719.71,-517.256 746.92,-531.634 772,-542.5 780.063,-545.993 788.788,-549.347 797.296,-552.401"/>
<polygon fill="midnightblue" stroke="midnightblue" points="700.507,-502.561 690.074,-500.714 697.078,-508.664 700.507,-502.561"/>
</g>
<!-- Node17 -->
<g id="node17" class="node"><title>Node17</title>
<g id="a_node17"><a xlink:href="classMainWindow.html#af5ecc7c65080215b49b9d931c56c65c9" target="_top" xlink:title="MainWindow::editTextFrame">
<polygon fill="white" stroke="black" points="774.5,-514 774.5,-533 916.5,-533 916.5,-514 774.5,-514"/>
<text text-anchor="middle" x="845.5" y="-521" font-family="Helvetica,sans-Serif" font-size="10.00">MainWindow::editTextFrame</text>
</a>
</g>
</g>
<!-- Node15&#45;&gt;Node17 -->
<g id="edge23" class="edge"><title>Node15&#45;&gt;Node17</title>
<path fill="none" stroke="midnightblue" d="M745.288,-502.613C763.868,-506.525 782.959,-510.544 799.371,-513.999"/>
<polygon fill="midnightblue" stroke="midnightblue" points="745.845,-499.154 735.338,-500.519 744.403,-506.004 745.845,-499.154"/>
</g>
<!-- Node19 -->
<g id="node19" class="node"><title>Node19</title>
<g id="a_node19"><a xlink:href="classMainWindow.html#a156c29c6d7ab278e4246c88a0fcbe2f2" target="_top" xlink:title="MainWindow::updateSettings">
<polygon fill="white" stroke="black" points="974,-432 974,-451 1118,-451 1118,-432 974,-432"/>
<text text-anchor="middle" x="1046" y="-439" font-family="Helvetica,sans-Serif" font-size="10.00">MainWindow::updateSettings</text>
</a>
</g>
</g>
<!-- Node15&#45;&gt;Node19 -->
<g id="edge27" class="edge"><title>Node15&#45;&gt;Node19</title>
<path fill="none" stroke="midnightblue" d="M746.302,-469.419C754.961,-467.979 763.648,-466.638 772,-465.5 840.24,-456.204 918.591,-449.747 973.802,-445.891"/>
<polygon fill="midnightblue" stroke="midnightblue" points="745.441,-466.016 736.173,-471.15 746.62,-472.916 745.441,-466.016"/>
</g>
<!-- Node16&#45;&gt;Node6 -->
<g id="edge21" class="edge"><title>Node16&#45;&gt;Node6</title>
<path fill="none" stroke="midnightblue" d="M924.404,-584.768C941.848,-588.635 960.216,-592.707 977.211,-596.474"/>
<polygon fill="midnightblue" stroke="midnightblue" points="924.778,-581.266 914.257,-582.519 923.263,-588.1 924.778,-581.266"/>
</g>
<!-- Node16&#45;&gt;Node8 -->
<g id="edge22" class="edge"><title>Node16&#45;&gt;Node8</title>
<path fill="none" stroke="midnightblue" d="M925.857,-567.5C935.375,-567.5 945.147,-567.5 954.803,-567.5"/>
<polygon fill="midnightblue" stroke="midnightblue" points="925.647,-564 915.647,-567.5 925.647,-571 925.647,-564"/>
</g>
<!-- Node17&#45;&gt;Node8 -->
<g id="edge24" class="edge"><title>Node17&#45;&gt;Node8</title>
<path fill="none" stroke="midnightblue" d="M897.017,-535.343C915.271,-539.569 936.047,-544.316 955,-548.5 969.346,-551.667 985.005,-555.011 999.18,-557.997"/>
<polygon fill="midnightblue" stroke="midnightblue" points="897.695,-531.908 887.163,-533.056 896.113,-538.726 897.695,-531.908"/>
</g>
<!-- Node18 -->
<g id="node18" class="node"><title>Node18</title>
<g id="a_node18"><a xlink:href="classMainWindow.html#ab18c663524e2c130759c0ca960129ea4" target="_top" xlink:title="MainWindow::onItemDouble\lClicked">
<polygon fill="white" stroke="black" points="976,-508.5 976,-538.5 1116,-538.5 1116,-508.5 976,-508.5"/>
<text text-anchor="start" x="984" y="-526.5" font-family="Helvetica,sans-Serif" font-size="10.00">MainWindow::onItemDouble</text>
<text text-anchor="middle" x="1046" y="-515.5" font-family="Helvetica,sans-Serif" font-size="10.00">Clicked</text>
</a>
</g>
</g>
<!-- Node17&#45;&gt;Node18 -->
<g id="edge25" class="edge"><title>Node17&#45;&gt;Node18</title>
<path fill="none" stroke="midnightblue" d="M926.778,-523.5C943.036,-523.5 959.999,-523.5 975.833,-523.5"/>
<polygon fill="midnightblue" stroke="midnightblue" points="926.763,-520 916.763,-523.5 926.763,-527 926.763,-520"/>
</g>
<!-- Node18&#45;&gt;Node7 -->
<g id="edge26" class="edge"><title>Node18&#45;&gt;Node7</title>
<path fill="none" stroke="midnightblue" d="M1126.28,-514.439C1141.75,-512.672 1157.81,-510.835 1172.82,-509.121"/>
<polygon fill="midnightblue" stroke="midnightblue" points="1125.76,-510.976 1116.22,-515.589 1126.56,-517.93 1125.76,-510.976"/>
</g>
<!-- Node19&#45;&gt;Node7 -->
<g id="edge28" class="edge"><title>Node19&#45;&gt;Node7</title>
<path fill="none" stroke="midnightblue" d="M1094.97,-453.559C1108.62,-457.186 1123.45,-461.32 1137,-465.5 1163.49,-473.672 1193.36,-484.329 1213.99,-491.923"/>
<polygon fill="midnightblue" stroke="midnightblue" points="1095.85,-450.169 1085.28,-451.013 1094.07,-456.94 1095.85,-450.169"/>
</g>
<!-- Node20&#45;&gt;Node15 -->
<g id="edge30" class="edge"><title>Node20&#45;&gt;Node15</title>
<path fill="none" stroke="midnightblue" d="M335.543,-468.404C350.485,-465.53 366.189,-462.997 381,-461.5 457.499,-453.767 477.57,-453.11 554,-461.5 570.802,-463.344 588.814,-466.757 605.219,-470.441"/>
<polygon fill="midnightblue" stroke="midnightblue" points="334.463,-465.05 325.341,-470.439 335.832,-471.915 334.463,-465.05"/>
</g>
<!-- Node20&#45;&gt;Node21 -->
<g id="edge31" class="edge"><title>Node20&#45;&gt;Node21</title>
<path fill="none" stroke="midnightblue" d="M299.423,-466.625C314.015,-460.987 330.756,-454.409 345,-446.5 362.721,-436.66 363.204,-428.205 381,-418.5 386.801,-415.337 392.999,-412.404 399.309,-409.751"/>
<polygon fill="midnightblue" stroke="midnightblue" points="297.783,-463.507 289.722,-470.382 300.311,-470.034 297.783,-463.507"/>
</g>
<!-- Node22 -->
<g id="node22" class="node"><title>Node22</title>
<g id="a_node22"><a xlink:href="classMainWindow.html#a23cc43af3c6873f9a936b5af05c99f49" target="_top" xlink:title="The display objects information changed. Update. ">
<polygon fill="white" stroke="black" points="393,-470.5 393,-500.5 542,-500.5 542,-470.5 393,-470.5"/>
<text text-anchor="start" x="401" y="-488.5" font-family="Helvetica,sans-Serif" font-size="10.00">MainWindow::currentSelection</text>
<text text-anchor="middle" x="467.5" y="-477.5" font-family="Helvetica,sans-Serif" font-size="10.00">InformationChanged</text>
</a>
</g>
</g>
<!-- Node20&#45;&gt;Node22 -->
<g id="edge34" class="edge"><title>Node20&#45;&gt;Node22</title>
<path fill="none" stroke="midnightblue" d="M347.406,-485.5C362.477,-485.5 378.081,-485.5 392.836,-485.5"/>
<polygon fill="midnightblue" stroke="midnightblue" points="347.075,-482 337.075,-485.5 347.075,-489 347.075,-482"/>
</g>
<!-- Node21&#45;&gt;Node7 -->
<g id="edge32" class="edge"><title>Node21&#45;&gt;Node7</title>
<path fill="none" stroke="midnightblue" d="M545.621,-385.597C673.11,-369.118 933.895,-349.049 1137,-422.5 1177.57,-437.17 1214.94,-474.273 1231.09,-491.907"/>
<polygon fill="midnightblue" stroke="midnightblue" points="545.016,-382.147 535.561,-386.926 545.933,-389.086 545.016,-382.147"/>
</g>
<!-- Node21&#45;&gt;Node20 -->
<g id="edge33" class="edge"><title>Node21&#45;&gt;Node20</title>
<path fill="none" stroke="midnightblue" d="M428.887,-416.112C413.555,-421.721 395.955,-428.345 381,-436.5 363.204,-446.205 362.721,-454.66 345,-464.5 341.309,-466.549 337.451,-468.509 333.505,-470.363"/>
<polygon fill="midnightblue" stroke="midnightblue" points="430.395,-419.287 438.585,-412.566 427.991,-412.713 430.395,-419.287"/>
</g>
<!-- Node22&#45;&gt;Node15 -->
<g id="edge35" class="edge"><title>Node22&#45;&gt;Node15</title>
<path fill="none" stroke="midnightblue" d="M552.542,-485.5C564.949,-485.5 577.639,-485.5 589.778,-485.5"/>
<polygon fill="midnightblue" stroke="midnightblue" points="552.206,-482 542.206,-485.5 552.206,-489 552.206,-482"/>
</g>
<!-- Node24&#45;&gt;Node5 -->
<g id="edge39" class="edge"><title>Node24&#45;&gt;Node5</title>
<path fill="none" stroke="midnightblue" d="M558.522,-582.598C629.535,-589.775 726.432,-599.568 787.221,-605.711"/>
<polygon fill="midnightblue" stroke="midnightblue" points="558.541,-579.082 548.24,-581.559 557.837,-586.047 558.541,-579.082"/>
</g>
<!-- Node25&#45;&gt;Node26 -->
<g id="edge41" class="edge"><title>Node25&#45;&gt;Node26</title>
<path fill="none" stroke="midnightblue" d="M316.389,-181.157C325.972,-184.767 335.831,-188.634 345,-192.5 376.876,-205.941 412.504,-223.226 436.892,-235.418"/>
<polygon fill="midnightblue" stroke="midnightblue" points="317.527,-177.846 306.934,-177.642 315.088,-184.407 317.527,-177.846"/>
</g>
<!-- Node27&#45;&gt;Node26 -->
<g id="edge43" class="edge"><title>Node27&#45;&gt;Node26</title>
<path fill="none" stroke="midnightblue" d="M331.302,-330.024C335.988,-328.292 340.595,-326.45 345,-324.5 382.264,-308.005 421.966,-282.032 445.483,-265.651"/>
<polygon fill="midnightblue" stroke="midnightblue" points="329.891,-326.81 321.611,-333.42 332.206,-333.416 329.891,-326.81"/>
</g>
<!-- Node28&#45;&gt;Node26 -->
<g id="edge45" class="edge"><title>Node28&#45;&gt;Node26</title>
<path fill="none" stroke="midnightblue" d="M335.602,-282.096C358.058,-276.676 382.616,-270.748 404.332,-265.506"/>
<polygon fill="midnightblue" stroke="midnightblue" points="334.686,-278.717 325.786,-284.465 336.328,-285.521 334.686,-278.717"/>
</g>
<!-- Node29&#45;&gt;Node26 -->
<g id="edge47" class="edge"><title>Node29&#45;&gt;Node26</title>
<path fill="none" stroke="midnightblue" d="M350.784,-250.5C360.699,-250.5 370.799,-250.5 380.694,-250.5"/>
<polygon fill="midnightblue" stroke="midnightblue" points="350.535,-247 340.535,-250.5 350.535,-254 350.535,-247"/>
</g>
</g>
</svg>
        <g id="navigator" transform="translate(0 0)" fill="#404254">
                <rect fill="#f2f5e9" fill-opacity="0.5" stroke="#606060" stroke-width=".5" x="0" y="0" width="60" height="60"/>
                <use id="zoomplus" xlink:href="#zoomPlus" x="17" y="9" onmousedown="handleZoom(evt,'in')"/>
                <use id="zoomminus" xlink:href="#zoomMin" x="42" y="9" onmousedown="handleZoom(evt,'out')"/>
                <use id="reset" xlink:href="#resetDef" x="30" y="36" onmousedown="handleReset()"/>
                <g id="arrowUp" xlink:href="#dirArrow" transform="translate(30 24)" onmousedown="handlePan(0,-1)">
                  <use xlink:href="#rim" fill="#404040">
                        <set attributeName="fill" to="#808080" begin="arrowUp.mouseover" end="arrowUp.mouseout"/>
                  </use>
                  <path fill="none" stroke="white" stroke-width="1.5" d="M0,-3.0v7 M-2.5,-0.5L0,-3.0L2.5,-0.5"/>
                </g>
                <g id="arrowRight" xlink:href="#dirArrow" transform="rotate(90) translate(36 -43)" onmousedown="handlePan(1,0)">
                  <use xlink:href="#rim" fill="#404040">
                        <set attributeName="fill" to="#808080" begin="arrowRight.mouseover" end="arrowRight.mouseout"/>
                  </use>
                  <path fill="none" stroke="white" stroke-width="1.5" d="M0,-3.0v7 M-2.5,-0.5L0,-3.0L2.5,-0.5"/>
                </g>
                <g id="arrowDown" xlink:href="#dirArrow" transform="rotate(180) translate(-30 -48)" onmousedown="handlePan(0,1)">
                  <use xlink:href="#rim" fill="#404040">
                        <set attributeName="fill" to="#808080" begin="arrowDown.mouseover" end="arrowDown.mouseout"/>
                  </use>
                  <path fill="none" stroke="white" stroke-width="1.5" d="M0,-3.0v7 M-2.5,-0.5L0,-3.0L2.5,-0.5"/>
                </g>
                <g id="arrowLeft" xlink:href="#dirArrow" transform="rotate(270) translate(-36 17)" onmousedown="handlePan(-1,0)">
                  <use xlink:href="#rim" fill="#404040">
                        <set attributeName="fill" to="#808080" begin="arrowLeft.mouseover" end="arrowLeft.mouseout"/>
                  </use>
                  <path fill="none" stroke="white" stroke-width="1.5" d="M0,-3.0v7 M-2.5,-0.5L0,-3.0L2.5,-0.5"/>
                </g>
        </g>
        <svg viewBox="0 0 15 15" width="100%" height="30px" preserveAspectRatio="xMaxYMin meet">
         <g id="arrow_out" transform="scale(0.3 0.3)">
          <a xlink:href="classPlaylistItem_a7a65abc1410966c8e7fb7e47d384b7bf_icgraph_org.svg" target="_base">
           <rect id="button" ry="5" rx="5" y="6" x="6" height="38" width="38"
                fill="#f2f5e9" fill-opacity="0.5" stroke="#606060" stroke-width="1.0"/>
           <path id="arrow"
             d="M 11.500037,31.436501 C 11.940474,20.09759 22.043105,11.32322 32.158766,21.979434 L 37.068811,17.246167 C 37.068811,17.246167 37.088388,32 37.088388,32 L 22.160133,31.978069 C 22.160133,31.978069 26.997745,27.140456 26.997745,27.140456 C 18.528582,18.264221 13.291696,25.230495 11.500037,31.436501 z"
             style="fill:#404040;"/>
          </a>
         </g>
        </svg>
</svg>
