<?xml version="1.0" encoding="UTF-8" standalone="no"?>
<!DOCTYPE svg PUBLIC "-//W3C//DTD SVG 1.1//EN"
 "http://www.w3.org/Graphics/SVG/1.1/DTD/svg11.dtd">
<!-- Generated by graphviz version 2.38.0 (20140413.2041)
 -->
<!-- Title: DisplayObject::refreshDisplayImage Pages: 1 -->
<!--zoomable 478 -->
<svg id="main" version="1.1" xmlns="http://www.w3.org/2000/svg" xmlns:xlink="http://www.w3.org/1999/xlink" xml:space="preserve" onload="init(evt)">
<style type="text/css"><![CDATA[
.edge:hover path { stroke: red; }
.edge:hover polygon { stroke: red; fill: red; }
]]></style>
<script type="text/javascript"><![CDATA[
var edges = document.getElementsByTagName('g');
if (edges && edges.length) {
  for (var i=0;i<edges.length;i++) {
    if (edges[i].id.substr(0,4)=='edge') {
      edges[i].setAttribute('class','edge');
    }
  }
}
]]></script>
        <defs>
                <circle id="rim" cx="0" cy="0" r="7"/>
                <circle id="rim2" cx="0" cy="0" r="3.5"/>
                <g id="zoomPlus">
                        <use xlink:href="#rim" fill="#404040">
                                <set attributeName="fill" to="#808080" begin="zoomplus.mouseover" end="zoomplus.mouseout"/>
                        </use>
                        <path d="M-4,0h8M0,-4v8" fill="none" stroke="white" stroke-width="1.5" pointer-events="none"/>
                </g>
                <g id="zoomMin">
                        <use xlink:href="#rim" fill="#404040">
                                <set attributeName="fill" to="#808080" begin="zoomminus.mouseover" end="zoomminus.mouseout"/>
                        </use>
                        <path d="M-4,0h8" fill="none" stroke="white" stroke-width="1.5" pointer-events="none"/>
                </g>
                <g id="dirArrow">
                        <path fill="none" stroke="white" stroke-width="1.5" d="M0,-3.0v7 M-2.5,-0.5L0,-3.0L2.5,-0.5"/>
                </g>
               <g id="resetDef">
                       <use xlink:href="#rim2" fill="#404040">
                               <set attributeName="fill" to="#808080" begin="reset.mouseover" end="reset.mouseout"/>
                       </use>
               </g>
        </defs>

<script type="text/javascript">
var viewWidth = 1608;
var viewHeight = 478;
var sectionId = 'dynsection-18';
</script>
<script xlink:href="svgpan.js"/>
<svg id="graph" class="graph">
<g id="viewport">
<title>DisplayObject::refreshDisplayImage</title>
<polygon fill="white" stroke="none" points="-4,4 -4,-474.377 1604,-474.377 1604,4 -4,4"/>
<!-- Node1 -->
<g id="node1" class="node"><title>Node1</title>
<polygon fill="#bfbfbf" stroke="black" points="0,-213.877 0,-243.877 147,-243.877 147,-213.877 0,-213.877"/>
<text text-anchor="start" x="8" y="-231.877" font-family="Helvetica,sans-Serif" font-size="10.00">DisplayObject::refreshDisplay</text>
<text text-anchor="middle" x="73.5" y="-220.877" font-family="Helvetica,sans-Serif" font-size="10.00">Image</text>
</g>
<!-- Node2 -->
<g id="node2" class="node"><title>Node2</title>
<g id="a_node2"><a xlink:href="classDisplayObject.html#af14049278f3dfdf62f4e88d5c24e03c7" target="_top" xlink:title="DisplayObject::setSize">
<polygon fill="white" stroke="black" points="183,-219.377 183,-238.377 300,-238.377 300,-219.377 183,-219.377"/>
<text text-anchor="middle" x="241.5" y="-226.377" font-family="Helvetica,sans-Serif" font-size="10.00">DisplayObject::setSize</text>
</a>
</g>
</g>
<!-- Node1&#45;&gt;Node2 -->
<g id="edge1" class="edge"><title>Node1&#45;&gt;Node2</title>
<path fill="none" stroke="midnightblue" d="M157.425,-228.877C166.061,-228.877 174.698,-228.877 182.963,-228.877"/>
<polygon fill="midnightblue" stroke="midnightblue" points="157.31,-225.377 147.31,-228.877 157.31,-232.377 157.31,-225.377"/>
</g>
<!-- Node3 -->
<g id="node3" class="node"><title>Node3</title>
<g id="a_node3"><a xlink:href="classFrameObject.html#af3743977db6e996acf666952baaa9d41" target="_top" xlink:title="FrameObject::setSize">
<polygon fill="white" stroke="black" points="350,-276.377 350,-295.377 462,-295.377 462,-276.377 350,-276.377"/>
<text text-anchor="middle" x="406" y="-283.377" font-family="Helvetica,sans-Serif" font-size="10.00">FrameObject::setSize</text>
</a>
</g>
</g>
<!-- Node2&#45;&gt;Node3 -->
<g id="edge2" class="edge"><title>Node2&#45;&gt;Node3</title>
<path fill="none" stroke="midnightblue" d="M279.184,-241.868C296.422,-247.961 317.259,-255.311 336,-261.877 349.645,-266.658 364.821,-271.94 377.458,-276.329"/>
<polygon fill="midnightblue" stroke="midnightblue" points="280.088,-238.475 269.493,-238.441 277.754,-245.075 280.088,-238.475"/>
</g>
<!-- Node4 -->
<g id="node4" class="node"><title>Node4</title>
<g id="a_node4"><a xlink:href="classMainWindow.html#a2d8cea1d443550a8f14ce8c80d2608c6" target="_top" xlink:title="MainWindow::loadPlaylistFile">
<polygon fill="white" stroke="black" points="699,-257.377 699,-276.377 844,-276.377 844,-257.377 699,-257.377"/>
<text text-anchor="middle" x="771.5" y="-264.377" font-family="Helvetica,sans-Serif" font-size="10.00">MainWindow::loadPlaylistFile</text>
</a>
</g>
</g>
<!-- Node2&#45;&gt;Node4 -->
<g id="edge16" class="edge"><title>Node2&#45;&gt;Node4</title>
<path fill="none" stroke="midnightblue" d="M309.995,-233.735C409.945,-240.928 596.49,-254.354 698.804,-261.717"/>
<polygon fill="midnightblue" stroke="midnightblue" points="310.236,-230.243 300.01,-233.016 309.733,-237.225 310.236,-230.243"/>
</g>
<!-- Node15 -->
<g id="node15" class="node"><title>Node15</title>
<g id="a_node15"><a xlink:href="classMainWindow.html#a2cae0b3ed4283301ecc11dc881d31422" target="_top" xlink:title="A file option was changed by the user (width/height/start/end/rate/sampling/frameSize/pixelFormat). ">
<polygon fill="white" stroke="black" points="338,-55.8772 338,-85.8772 474,-85.8772 474,-55.8772 338,-55.8772"/>
<text text-anchor="start" x="346" y="-73.8772" font-family="Helvetica,sans-Serif" font-size="10.00">MainWindow::on_fileOption</text>
<text text-anchor="middle" x="406" y="-62.8772" font-family="Helvetica,sans-Serif" font-size="10.00">ValueChanged</text>
</a>
</g>
</g>
<!-- Node2&#45;&gt;Node15 -->
<g id="edge17" class="edge"><title>Node2&#45;&gt;Node15</title>
<path fill="none" stroke="midnightblue" d="M259.96,-211.901C291.805,-180.937 358.843,-115.756 389.322,-86.121"/>
<polygon fill="midnightblue" stroke="midnightblue" points="257.395,-209.513 252.665,-218.994 262.275,-214.532 257.395,-209.513"/>
</g>
<!-- Node23 -->
<g id="node23" class="node"><title>Node23</title>
<g id="a_node23"><a xlink:href="classTextObject.html#a8f1e5a14cf1a2f89b0794ea47b793ae3" target="_top" xlink:title="TextObject::refreshTextSize">
<polygon fill="white" stroke="black" points="336,-181.377 336,-200.377 476,-200.377 476,-181.377 336,-181.377"/>
<text text-anchor="middle" x="406" y="-188.377" font-family="Helvetica,sans-Serif" font-size="10.00">TextObject::refreshTextSize</text>
</a>
</g>
</g>
<!-- Node2&#45;&gt;Node23 -->
<g id="edge34" class="edge"><title>Node2&#45;&gt;Node23</title>
<path fill="none" stroke="midnightblue" d="M293.371,-216.981C316.212,-211.64 342.795,-205.424 364.289,-200.397"/>
<polygon fill="midnightblue" stroke="midnightblue" points="292.446,-213.603 283.506,-219.288 294.04,-220.419 292.446,-213.603"/>
</g>
<!-- Node3&#45;&gt;Node4 -->
<g id="edge3" class="edge"><title>Node3&#45;&gt;Node4</title>
<path fill="none" stroke="midnightblue" d="M472.543,-282.451C536.323,-279.118 632.985,-274.065 698.788,-270.626"/>
<polygon fill="midnightblue" stroke="midnightblue" points="472.011,-278.974 462.208,-282.991 472.377,-285.965 472.011,-278.974"/>
</g>
<!-- Node5 -->
<g id="node5" class="node"><title>Node5</title>
<g id="a_node5"><a xlink:href="classMainWindow.html#a8ef1be3cb02e12d68d12375d1a7a0ced" target="_top" xlink:title="loads a list of yuv/csv files ">
<polygon fill="white" stroke="black" points="896,-314.377 896,-333.377 1014,-333.377 1014,-314.377 896,-314.377"/>
<text text-anchor="middle" x="955" y="-321.377" font-family="Helvetica,sans-Serif" font-size="10.00">MainWindow::loadFiles</text>
</a>
</g>
</g>
<!-- Node4&#45;&gt;Node5 -->
<g id="edge4" class="edge"><title>Node4&#45;&gt;Node5</title>
<path fill="none" stroke="midnightblue" d="M812.799,-279.533C846.256,-290.04 893.123,-304.759 923.522,-314.306"/>
<polygon fill="midnightblue" stroke="midnightblue" points="813.468,-276.075 802.879,-276.418 811.371,-282.753 813.468,-276.075"/>
</g>
<!-- Node6 -->
<g id="node6" class="node"><title>Node6</title>
<g id="a_node6"><a xlink:href="classDisplaySplitWidget.html#ac1d4ced58b2ac2b08153694a5de6232e" target="_top" xlink:title="DisplaySplitWidget\l::dropEvent">
<polygon fill="white" stroke="black" points="1087.5,-439.877 1087.5,-469.877 1187.5,-469.877 1187.5,-439.877 1087.5,-439.877"/>
<text text-anchor="start" x="1095.5" y="-457.877" font-family="Helvetica,sans-Serif" font-size="10.00">DisplaySplitWidget</text>
<text text-anchor="middle" x="1137.5" y="-446.877" font-family="Helvetica,sans-Serif" font-size="10.00">::dropEvent</text>
</a>
</g>
</g>
<!-- Node5&#45;&gt;Node6 -->
<g id="edge5" class="edge"><title>Node5&#45;&gt;Node6</title>
<path fill="none" stroke="midnightblue" d="M969.586,-341.751C988.381,-365.325 1024.5,-406.647 1064,-430.877 1071.12,-435.245 1079.13,-438.916 1087.15,-441.969"/>
<polygon fill="midnightblue" stroke="midnightblue" points="972.175,-339.381 963.259,-333.658 966.66,-343.692 972.175,-339.381"/>
</g>
<!-- Node7 -->
<g id="node7" class="node"><title>Node7</title>
<g id="a_node7"><a xlink:href="classMainWindow.html#a288b768c3c21a9171bdc56fe845ece8b" target="_top" xlink:title="Shows the file open dialog and loads all selected Files. ">
<polygon fill="white" stroke="black" points="1079.5,-238.377 1079.5,-257.377 1195.5,-257.377 1195.5,-238.377 1079.5,-238.377"/>
<text text-anchor="middle" x="1137.5" y="-245.377" font-family="Helvetica,sans-Serif" font-size="10.00">MainWindow::openFile</text>
</a>
</g>
</g>
<!-- Node5&#45;&gt;Node7 -->
<g id="edge6" class="edge"><title>Node5&#45;&gt;Node7</title>
<path fill="none" stroke="midnightblue" d="M980.302,-308.976C1001.71,-296.363 1034.05,-278.526 1064,-266.877 1073.34,-263.245 1083.62,-260.079 1093.43,-257.427"/>
<polygon fill="midnightblue" stroke="midnightblue" points="978.353,-306.063 971.561,-314.195 981.942,-312.073 978.353,-306.063"/>
</g>
<!-- Node11 -->
<g id="node11" class="node"><title>Node11</title>
<g id="a_node11"><a xlink:href="classMainWindow.html#a935316315edb9b7af42657da20be0e54" target="_top" xlink:title="MainWindow::openRecentFile">
<polygon fill="white" stroke="black" points="1064,-276.377 1064,-295.377 1211,-295.377 1211,-276.377 1064,-276.377"/>
<text text-anchor="middle" x="1137.5" y="-283.377" font-family="Helvetica,sans-Serif" font-size="10.00">MainWindow::openRecentFile</text>
</a>
</g>
</g>
<!-- Node5&#45;&gt;Node11 -->
<g id="edge11" class="edge"><title>Node5&#45;&gt;Node11</title>
<path fill="none" stroke="midnightblue" d="M1011.48,-312.196C1037.08,-306.807 1067.08,-300.491 1091.28,-295.397"/>
<polygon fill="midnightblue" stroke="midnightblue" points="1010.61,-308.803 1001.55,-314.288 1012.05,-315.653 1010.61,-308.803"/>
</g>
<!-- Node12 -->
<g id="node12" class="node"><title>Node12</title>
<g id="a_node12"><a xlink:href="classPlaylistTreeWidget.html#a295170eb269cc67050ea0b575cd0ab53" target="_top" xlink:title="PlaylistTreeWidget\l::dropEvent">
<polygon fill="white" stroke="black" points="1088,-390.877 1088,-420.877 1187,-420.877 1187,-390.877 1088,-390.877"/>
<text text-anchor="start" x="1096" y="-408.877" font-family="Helvetica,sans-Serif" font-size="10.00">PlaylistTreeWidget</text>
<text text-anchor="middle" x="1137.5" y="-397.877" font-family="Helvetica,sans-Serif" font-size="10.00">::dropEvent</text>
</a>
</g>
</g>
<!-- Node5&#45;&gt;Node12 -->
<g id="edge13" class="edge"><title>Node5&#45;&gt;Node12</title>
<path fill="none" stroke="midnightblue" d="M981.28,-338.641C1002.83,-350.878 1034.85,-368.249 1064,-380.877 1072.06,-384.371 1080.79,-387.724 1089.3,-390.778"/>
<polygon fill="midnightblue" stroke="midnightblue" points="982.862,-335.514 972.445,-333.578 979.381,-341.587 982.862,-335.514"/>
</g>
<!-- Node13 -->
<g id="node13" class="node"><title>Node13</title>
<g id="a_node13"><a xlink:href="classYUViewApp.html#ac0f5381cc5b703a9ea704b5eedab4b7f" target="_top" xlink:title="YUViewApp::YUViewApp">
<polygon fill="white" stroke="black" points="1073,-352.377 1073,-371.377 1202,-371.377 1202,-352.377 1073,-352.377"/>
<text text-anchor="middle" x="1137.5" y="-359.377" font-family="Helvetica,sans-Serif" font-size="10.00">YUViewApp::YUViewApp</text>
</a>
</g>
</g>
<!-- Node5&#45;&gt;Node13 -->
<g id="edge14" class="edge"><title>Node5&#45;&gt;Node13</title>
<path fill="none" stroke="midnightblue" d="M1011.48,-335.558C1037.08,-340.947 1067.08,-347.263 1091.28,-352.357"/>
<polygon fill="midnightblue" stroke="midnightblue" points="1012.05,-332.101 1001.55,-333.466 1010.61,-338.951 1012.05,-332.101"/>
</g>
<!-- Node14 -->
<g id="node14" class="node"><title>Node14</title>
<g id="a_node14"><a xlink:href="classYUViewApp.html#a2f5f937d6677018ef73a5ffc248f9891" target="_top" xlink:title="YUViewApp::event">
<polygon fill="white" stroke="black" points="1087.5,-314.377 1087.5,-333.377 1187.5,-333.377 1187.5,-314.377 1087.5,-314.377"/>
<text text-anchor="middle" x="1137.5" y="-321.377" font-family="Helvetica,sans-Serif" font-size="10.00">YUViewApp::event</text>
</a>
</g>
</g>
<!-- Node5&#45;&gt;Node14 -->
<g id="edge15" class="edge"><title>Node5&#45;&gt;Node14</title>
<path fill="none" stroke="midnightblue" d="M1024.24,-323.877C1045.21,-323.877 1067.86,-323.877 1087.29,-323.877"/>
<polygon fill="midnightblue" stroke="midnightblue" points="1024.1,-320.377 1014.1,-323.877 1024.1,-327.377 1024.1,-320.377"/>
</g>
<!-- Node8 -->
<g id="node8" class="node"><title>Node8</title>
<g id="a_node8"><a xlink:href="classMainWindow.html#a9df7443ce5f907903438bb6a9abe9a33" target="_top" xlink:title="MainWindow::createMenusAnd\lActions">
<polygon fill="white" stroke="black" points="1262,-200.877 1262,-230.877 1414,-230.877 1414,-200.877 1262,-200.877"/>
<text text-anchor="start" x="1270" y="-218.877" font-family="Helvetica,sans-Serif" font-size="10.00">MainWindow::createMenusAnd</text>
<text text-anchor="middle" x="1338" y="-207.877" font-family="Helvetica,sans-Serif" font-size="10.00">Actions</text>
</a>
</g>
</g>
<!-- Node7&#45;&gt;Node8 -->
<g id="edge7" class="edge"><title>Node7&#45;&gt;Node8</title>
<path fill="none" stroke="midnightblue" d="M1205.76,-237.034C1223.78,-234.13 1243.37,-230.972 1261.78,-228.003"/>
<polygon fill="midnightblue" stroke="midnightblue" points="1204.96,-233.617 1195.65,-238.664 1206.08,-240.528 1204.96,-233.617"/>
</g>
<!-- Node10 -->
<g id="node10" class="node"><title>Node10</title>
<g id="a_node10"><a xlink:href="classMainWindow.html#aaba5c236313378986c42c4a634c4cfb9" target="_top" xlink:title="MainWindow::onCustomContextMenu">
<polygon fill="white" stroke="black" points="1247,-162.377 1247,-181.377 1429,-181.377 1429,-162.377 1247,-162.377"/>
<text text-anchor="middle" x="1338" y="-169.377" font-family="Helvetica,sans-Serif" font-size="10.00">MainWindow::onCustomContextMenu</text>
</a>
</g>
</g>
<!-- Node7&#45;&gt;Node10 -->
<g id="edge9" class="edge"><title>Node7&#45;&gt;Node10</title>
<path fill="none" stroke="midnightblue" d="M1199.42,-234.662C1203.45,-232.959 1207.35,-231.039 1211,-228.877 1231.02,-217.029 1226.7,-202.239 1247,-190.877 1253.97,-186.978 1261.65,-183.876 1269.49,-181.411"/>
<polygon fill="midnightblue" stroke="midnightblue" points="1197.99,-231.461 1189.87,-238.259 1200.46,-238.013 1197.99,-231.461"/>
</g>
<!-- Node9 -->
<g id="node9" class="node"><title>Node9</title>
<g id="a_node9"><a xlink:href="classMainWindow.html#a8b244be8b7b7db1b08de2a2acb9409db" target="_top" xlink:title="MainWindow::MainWindow">
<polygon fill="white" stroke="black" points="1465,-96.3772 1465,-115.377 1600,-115.377 1600,-96.3772 1465,-96.3772"/>
<text text-anchor="middle" x="1532.5" y="-103.377" font-family="Helvetica,sans-Serif" font-size="10.00">MainWindow::MainWindow</text>
</a>
</g>
</g>
<!-- Node8&#45;&gt;Node9 -->
<g id="edge8" class="edge"><title>Node8&#45;&gt;Node9</title>
<path fill="none" stroke="midnightblue" d="M1415,-197.3C1419.83,-195.348 1424.53,-193.212 1429,-190.877 1468.13,-170.423 1505.93,-133.175 1522.6,-115.578"/>
<polygon fill="midnightblue" stroke="midnightblue" points="1413.74,-194.035 1405.61,-200.829 1416.2,-200.588 1413.74,-194.035"/>
</g>
<!-- Node10&#45;&gt;Node9 -->
<g id="edge10" class="edge"><title>Node10&#45;&gt;Node9</title>
<path fill="none" stroke="midnightblue" d="M1400.4,-159.989C1410.06,-157.616 1419.87,-154.906 1429,-151.877 1459.36,-141.807 1492.89,-125.761 1513.06,-115.528"/>
<polygon fill="midnightblue" stroke="midnightblue" points="1399.35,-156.64 1390.42,-162.339 1400.96,-163.453 1399.35,-156.64"/>
</g>
<!-- Node11&#45;&gt;Node8 -->
<g id="edge12" class="edge"><title>Node11&#45;&gt;Node8</title>
<path fill="none" stroke="midnightblue" d="M1188.51,-273.671C1196.09,-271.562 1203.79,-269.271 1211,-266.877 1242.8,-256.321 1278.09,-241.784 1303.22,-230.931"/>
<polygon fill="midnightblue" stroke="midnightblue" points="1187.4,-270.346 1178.66,-276.334 1189.22,-277.104 1187.4,-270.346"/>
</g>
<!-- Node15&#45;&gt;Node9 -->
<g id="edge18" class="edge"><title>Node15&#45;&gt;Node9</title>
<path fill="none" stroke="midnightblue" d="M469.601,-53.2946C541.587,-34.6549 663.603,-7.87719 770.5,-7.87719 770.5,-7.87719 770.5,-7.87719 1138.5,-7.87719 1267.89,-7.87719 1307.95,18.8205 1429,-26.8772 1469.15,-42.0333 1506.44,-78.5494 1522.8,-96.1157"/>
<polygon fill="midnightblue" stroke="midnightblue" points="468.569,-49.9469 459.782,-55.8672 470.343,-56.7183 468.569,-49.9469"/>
</g>
<!-- Node16 -->
<g id="node16" class="node"><title>Node16</title>
<g id="a_node16"><a xlink:href="classMainWindow.html#a29e6418f12a4331860a7db3616e91600" target="_top" xlink:title="updates the YUV information GUI elements from the current Renderobject ">
<polygon fill="white" stroke="black" points="512,-55.8772 512,-85.8772 661,-85.8772 661,-55.8772 512,-55.8772"/>
<text text-anchor="start" x="520" y="-73.8772" font-family="Helvetica,sans-Serif" font-size="10.00">MainWindow::updateSelection</text>
<text text-anchor="middle" x="586.5" y="-62.8772" font-family="Helvetica,sans-Serif" font-size="10.00">MetaInfo</text>
</a>
</g>
</g>
<!-- Node15&#45;&gt;Node16 -->
<g id="edge19" class="edge"><title>Node15&#45;&gt;Node16</title>
<path fill="none" stroke="midnightblue" d="M484.393,-64.1804C493.477,-64.0984 502.728,-64.1112 511.76,-64.2186"/>
<polygon fill="midnightblue" stroke="midnightblue" points="484.182,-60.6828 474.229,-64.3132 484.274,-67.6822 484.182,-60.6828"/>
</g>
<!-- Node16&#45;&gt;Node15 -->
<g id="edge31" class="edge"><title>Node16&#45;&gt;Node15</title>
<path fill="none" stroke="midnightblue" d="M501.49,-77.6168C492.348,-77.653 483.133,-77.5944 474.229,-77.4412"/>
<polygon fill="midnightblue" stroke="midnightblue" points="501.788,-81.1147 511.76,-77.5358 501.733,-74.1149 501.788,-81.1147"/>
</g>
<!-- Node17 -->
<g id="node17" class="node"><title>Node17</title>
<g id="a_node17"><a xlink:href="classMainWindow.html#a6f33e93f427ff2df80edffcb3ad944da" target="_top" xlink:title="MainWindow::updateSelected\lItems">
<polygon fill="white" stroke="black" points="882,-69.8772 882,-99.8772 1028,-99.8772 1028,-69.8772 882,-69.8772"/>
<text text-anchor="start" x="890" y="-87.8772" font-family="Helvetica,sans-Serif" font-size="10.00">MainWindow::updateSelected</text>
<text text-anchor="middle" x="955" y="-76.8772" font-family="Helvetica,sans-Serif" font-size="10.00">Items</text>
</a>
</g>
</g>
<!-- Node16&#45;&gt;Node17 -->
<g id="edge20" class="edge"><title>Node16&#45;&gt;Node17</title>
<path fill="none" stroke="midnightblue" d="M671.288,-74.7945C679.97,-75.1731 688.663,-75.5409 697,-75.8772 759.453,-78.3965 830.459,-80.852 881.986,-82.56"/>
<polygon fill="midnightblue" stroke="midnightblue" points="671.266,-71.2903 661.122,-74.3464 670.958,-78.2835 671.266,-71.2903"/>
</g>
<!-- Node22 -->
<g id="node22" class="node"><title>Node22</title>
<g id="a_node22"><a xlink:href="classMainWindow.html#a23cc43af3c6873f9a936b5af05c99f49" target="_top" xlink:title="The display objects information changed. Update. ">
<polygon fill="white" stroke="black" points="697,-36.8772 697,-66.8772 846,-66.8772 846,-36.8772 697,-36.8772"/>
<text text-anchor="start" x="705" y="-54.8772" font-family="Helvetica,sans-Serif" font-size="10.00">MainWindow::currentSelection</text>
<text text-anchor="middle" x="771.5" y="-43.8772" font-family="Helvetica,sans-Serif" font-size="10.00">InformationChanged</text>
</a>
</g>
</g>
<!-- Node16&#45;&gt;Node22 -->
<g id="edge32" class="edge"><title>Node16&#45;&gt;Node22</title>
<path fill="none" stroke="midnightblue" d="M671.109,-62.1965C679.651,-61.3096 688.285,-60.4132 696.711,-59.5384"/>
<polygon fill="midnightblue" stroke="midnightblue" points="670.727,-58.7172 661.142,-63.2313 671.45,-65.6798 670.727,-58.7172"/>
</g>
<!-- Node17&#45;&gt;Node9 -->
<g id="edge21" class="edge"><title>Node17&#45;&gt;Node9</title>
<path fill="none" stroke="midnightblue" d="M1038.15,-87.8748C1152.89,-92.0617 1358.93,-99.5801 1464.76,-103.442"/>
<polygon fill="midnightblue" stroke="midnightblue" points="1038.14,-84.3721 1028.01,-87.505 1037.88,-91.3674 1038.14,-84.3721"/>
</g>
<!-- Node18 -->
<g id="node18" class="node"><title>Node18</title>
<g id="a_node18"><a xlink:href="classMainWindow.html#a6be7246a1a0ecf5d1442bb1775c3d9b3" target="_top" xlink:title="MainWindow::addDifference\lSequence">
<polygon fill="white" stroke="black" points="1067.5,-150.877 1067.5,-180.877 1207.5,-180.877 1207.5,-150.877 1067.5,-150.877"/>
<text text-anchor="start" x="1075.5" y="-168.877" font-family="Helvetica,sans-Serif" font-size="10.00">MainWindow::addDifference</text>
<text text-anchor="middle" x="1137.5" y="-157.877" font-family="Helvetica,sans-Serif" font-size="10.00">Sequence</text>
</a>
</g>
</g>
<!-- Node17&#45;&gt;Node18 -->
<g id="edge22" class="edge"><title>Node17&#45;&gt;Node18</title>
<path fill="none" stroke="midnightblue" d="M991.341,-104.871C1012.13,-116.209 1039.14,-130.216 1064,-140.877 1072.2,-144.394 1081.07,-147.782 1089.7,-150.868"/>
<polygon fill="midnightblue" stroke="midnightblue" points="992.995,-101.786 982.547,-100.032 989.621,-107.919 992.995,-101.786"/>
</g>
<!-- Node19 -->
<g id="node19" class="node"><title>Node19</title>
<g id="a_node19"><a xlink:href="classMainWindow.html#af5ecc7c65080215b49b9d931c56c65c9" target="_top" xlink:title="MainWindow::editTextFrame">
<polygon fill="white" stroke="black" points="1066.5,-112.377 1066.5,-131.377 1208.5,-131.377 1208.5,-112.377 1066.5,-112.377"/>
<text text-anchor="middle" x="1137.5" y="-119.377" font-family="Helvetica,sans-Serif" font-size="10.00">MainWindow::editTextFrame</text>
</a>
</g>
</g>
<!-- Node17&#45;&gt;Node19 -->
<g id="edge25" class="edge"><title>Node17&#45;&gt;Node19</title>
<path fill="none" stroke="midnightblue" d="M1037.96,-101.677C1055.78,-105.33 1074.04,-109.073 1089.92,-112.328"/>
<polygon fill="midnightblue" stroke="midnightblue" points="1038.62,-98.2396 1028.12,-99.6601 1037.21,-105.097 1038.62,-98.2396"/>
</g>
<!-- Node21 -->
<g id="node21" class="node"><title>Node21</title>
<g id="a_node21"><a xlink:href="classMainWindow.html#a156c29c6d7ab278e4246c88a0fcbe2f2" target="_top" xlink:title="MainWindow::updateSettings">
<polygon fill="white" stroke="black" points="1266,-36.3772 1266,-55.3772 1410,-55.3772 1410,-36.3772 1266,-36.3772"/>
<text text-anchor="middle" x="1338" y="-43.3772" font-family="Helvetica,sans-Serif" font-size="10.00">MainWindow::updateSettings</text>
</a>
</g>
</g>
<!-- Node17&#45;&gt;Node21 -->
<g id="edge29" class="edge"><title>Node17&#45;&gt;Node21</title>
<path fill="none" stroke="midnightblue" d="M1038.38,-72.9993C1047.02,-71.8835 1055.69,-70.8194 1064,-69.8772 1132.43,-62.1219 1210.76,-55.4637 1265.91,-51.1414"/>
<polygon fill="midnightblue" stroke="midnightblue" points="1037.72,-69.5554 1028.26,-74.3286 1038.63,-76.4957 1037.72,-69.5554"/>
</g>
<!-- Node18&#45;&gt;Node8 -->
<g id="edge23" class="edge"><title>Node18&#45;&gt;Node8</title>
<path fill="none" stroke="midnightblue" d="M1207.91,-183.361C1230.49,-189.047 1255.33,-195.305 1277.14,-200.8"/>
<polygon fill="midnightblue" stroke="midnightblue" points="1208.61,-179.928 1198.06,-180.879 1206.9,-186.715 1208.61,-179.928"/>
</g>
<!-- Node18&#45;&gt;Node10 -->
<g id="edge24" class="edge"><title>Node18&#45;&gt;Node10</title>
<path fill="none" stroke="midnightblue" d="M1217.86,-168.276C1227.37,-168.564 1237.15,-168.859 1246.8,-169.151"/>
<polygon fill="midnightblue" stroke="midnightblue" points="1217.75,-164.771 1207.65,-167.967 1217.54,-171.768 1217.75,-164.771"/>
</g>
<!-- Node19&#45;&gt;Node10 -->
<g id="edge26" class="edge"><title>Node19&#45;&gt;Node10</title>
<path fill="none" stroke="midnightblue" d="M1185.89,-134.002C1194.27,-136.231 1202.9,-138.58 1211,-140.877 1227.1,-145.443 1230.82,-147.615 1247,-151.877 1261.08,-155.588 1276.53,-159.188 1290.59,-162.287"/>
<polygon fill="midnightblue" stroke="midnightblue" points="1186.77,-130.616 1176.21,-131.452 1184.99,-137.384 1186.77,-130.616"/>
</g>
<!-- Node20 -->
<g id="node20" class="node"><title>Node20</title>
<g id="a_node20"><a xlink:href="classMainWindow.html#ab18c663524e2c130759c0ca960129ea4" target="_top" xlink:title="MainWindow::onItemDouble\lClicked">
<polygon fill="white" stroke="black" points="1268,-112.877 1268,-142.877 1408,-142.877 1408,-112.877 1268,-112.877"/>
<text text-anchor="start" x="1276" y="-130.877" font-family="Helvetica,sans-Serif" font-size="10.00">MainWindow::onItemDouble</text>
<text text-anchor="middle" x="1338" y="-119.877" font-family="Helvetica,sans-Serif" font-size="10.00">Clicked</text>
</a>
</g>
</g>
<!-- Node19&#45;&gt;Node20 -->
<g id="edge27" class="edge"><title>Node19&#45;&gt;Node20</title>
<path fill="none" stroke="midnightblue" d="M1218.78,-124.304C1235.04,-124.795 1252,-125.308 1267.83,-125.787"/>
<polygon fill="midnightblue" stroke="midnightblue" points="1218.86,-120.805 1208.76,-124.001 1218.65,-127.802 1218.86,-120.805"/>
</g>
<!-- Node20&#45;&gt;Node9 -->
<g id="edge28" class="edge"><title>Node20&#45;&gt;Node9</title>
<path fill="none" stroke="midnightblue" d="M1418.28,-118.816C1433.75,-117.049 1449.81,-115.213 1464.82,-113.498"/>
<polygon fill="midnightblue" stroke="midnightblue" points="1417.76,-115.353 1408.22,-119.966 1418.56,-122.308 1417.76,-115.353"/>
</g>
<!-- Node21&#45;&gt;Node9 -->
<g id="edge30" class="edge"><title>Node21&#45;&gt;Node9</title>
<path fill="none" stroke="midnightblue" d="M1386.97,-57.936C1400.62,-61.5635 1415.45,-65.6967 1429,-69.8772 1455.49,-78.0489 1485.36,-88.7061 1505.99,-96.2999"/>
<polygon fill="midnightblue" stroke="midnightblue" points="1387.85,-54.5466 1377.28,-55.3905 1386.07,-61.3168 1387.85,-54.5466"/>
</g>
<!-- Node22&#45;&gt;Node17 -->
<g id="edge33" class="edge"><title>Node22&#45;&gt;Node17</title>
<path fill="none" stroke="midnightblue" d="M856.087,-67.0749C864.678,-68.6368 873.354,-70.2143 881.806,-71.751"/>
<polygon fill="midnightblue" stroke="midnightblue" points="856.526,-63.5974 846.061,-65.252 855.274,-70.4845 856.526,-63.5974"/>
</g>
<!-- Node24 -->
<g id="node24" class="node"><title>Node24</title>
<g id="a_node24"><a xlink:href="classTextObject.html#a4abe36f8a979d68e0cec492bc70e6cea" target="_top" xlink:title="TextObject::TextObject">
<polygon fill="white" stroke="black" points="527,-162.377 527,-181.377 646,-181.377 646,-162.377 527,-162.377"/>
<text text-anchor="middle" x="586.5" y="-169.377" font-family="Helvetica,sans-Serif" font-size="10.00">TextObject::TextObject</text>
</a>
</g>
</g>
<!-- Node23&#45;&gt;Node24 -->
<g id="edge35" class="edge"><title>Node23&#45;&gt;Node24</title>
<path fill="none" stroke="midnightblue" d="M486.339,-182.432C499.95,-180.983 513.872,-179.501 526.818,-178.123"/>
<polygon fill="midnightblue" stroke="midnightblue" points="485.586,-178.992 476.013,-183.531 486.327,-185.953 485.586,-178.992"/>
</g>
<!-- Node25 -->
<g id="node25" class="node"><title>Node25</title>
<g id="a_node25"><a xlink:href="classTextObject.html#af88f6dc06fc9e630679371584da13e21" target="_top" xlink:title="TextObject::setText">
<polygon fill="white" stroke="black" points="719.5,-124.377 719.5,-143.377 823.5,-143.377 823.5,-124.377 719.5,-124.377"/>
<text text-anchor="middle" x="771.5" y="-131.377" font-family="Helvetica,sans-Serif" font-size="10.00">TextObject::setText</text>
</a>
</g>
</g>
<!-- Node23&#45;&gt;Node25 -->
<g id="edge36" class="edge"><title>Node23&#45;&gt;Node25</title>
<path fill="none" stroke="midnightblue" d="M437.687,-177.243C458.284,-168.728 486.257,-158.372 512,-152.877 582.853,-137.753 666.829,-134.137 719.398,-133.536"/>
<polygon fill="midnightblue" stroke="midnightblue" points="436.061,-174.13 428.211,-181.246 438.785,-180.579 436.061,-174.13"/>
</g>
<!-- Node26 -->
<g id="node26" class="node"><title>Node26</title>
<g id="a_node26"><a xlink:href="classTextObject.html#adaa0f36f9e82dc8298d0835101569eb4" target="_top" xlink:title="TextObject::setFont">
<polygon fill="white" stroke="black" points="534.5,-200.377 534.5,-219.377 638.5,-219.377 638.5,-200.377 534.5,-200.377"/>
<text text-anchor="middle" x="586.5" y="-207.377" font-family="Helvetica,sans-Serif" font-size="10.00">TextObject::setFont</text>
</a>
</g>
</g>
<!-- Node23&#45;&gt;Node26 -->
<g id="edge38" class="edge"><title>Node23&#45;&gt;Node26</title>
<path fill="none" stroke="midnightblue" d="M486.128,-199.3C502.502,-201.043 519.336,-202.835 534.388,-204.437"/>
<polygon fill="midnightblue" stroke="midnightblue" points="486.327,-195.801 476.013,-198.223 485.586,-202.762 486.327,-195.801"/>
</g>
<!-- Node25&#45;&gt;Node19 -->
<g id="edge37" class="edge"><title>Node25&#45;&gt;Node19</title>
<path fill="none" stroke="midnightblue" d="M834.271,-131.841C898.573,-129.721 999.108,-126.407 1066.36,-124.19"/>
<polygon fill="midnightblue" stroke="midnightblue" points="833.76,-128.356 823.88,-132.183 833.99,-135.352 833.76,-128.356"/>
</g>
<!-- Node26&#45;&gt;Node4 -->
<g id="edge39" class="edge"><title>Node26&#45;&gt;Node4</title>
<path fill="none" stroke="midnightblue" d="M627.696,-222.397C661.458,-232.913 708.988,-247.718 739.77,-257.306"/>
<polygon fill="midnightblue" stroke="midnightblue" points="628.719,-219.05 618.13,-219.418 626.637,-225.733 628.719,-219.05"/>
</g>
<!-- Node26&#45;&gt;Node19 -->
<g id="edge43" class="edge"><title>Node26&#45;&gt;Node19</title>
<path fill="none" stroke="midnightblue" d="M648.8,-200.99C733.98,-188.51 892.916,-164.749 1028,-141.877 1047.17,-138.632 1068.19,-134.816 1086.59,-131.392"/>
<polygon fill="midnightblue" stroke="midnightblue" points="648.172,-197.545 638.784,-202.456 649.185,-204.471 648.172,-197.545"/>
</g>
<!-- Node27 -->
<g id="node27" class="node"><title>Node27</title>
<g id="a_node27"><a xlink:href="classMainWindow.html#ab547038b4acd1eab08a2693d47d8a8c4" target="_top" xlink:title="Adds a new text frame. ">
<polygon fill="white" stroke="black" points="1066.5,-200.377 1066.5,-219.377 1208.5,-219.377 1208.5,-200.377 1066.5,-200.377"/>
<text text-anchor="middle" x="1137.5" y="-207.377" font-family="Helvetica,sans-Serif" font-size="10.00">MainWindow::addTextFrame</text>
</a>
</g>
</g>
<!-- Node26&#45;&gt;Node27 -->
<g id="edge40" class="edge"><title>Node26&#45;&gt;Node27</title>
<path fill="none" stroke="midnightblue" d="M648.876,-209.877C751.709,-209.877 958.167,-209.877 1066.5,-209.877"/>
<polygon fill="midnightblue" stroke="midnightblue" points="648.656,-206.377 638.656,-209.877 648.656,-213.377 648.656,-206.377"/>
</g>
<!-- Node27&#45;&gt;Node8 -->
<g id="edge41" class="edge"><title>Node27&#45;&gt;Node8</title>
<path fill="none" stroke="midnightblue" d="M1218.95,-212.309C1233.1,-212.737 1247.78,-213.18 1261.78,-213.604"/>
<polygon fill="midnightblue" stroke="midnightblue" points="1218.86,-208.805 1208.76,-212.001 1218.65,-215.802 1218.86,-208.805"/>
</g>
<!-- Node27&#45;&gt;Node10 -->
<g id="edge42" class="edge"><title>Node27&#45;&gt;Node10</title>
<path fill="none" stroke="midnightblue" d="M1198.52,-198.388C1226.84,-192.966 1260.24,-186.571 1287.15,-181.421"/>
<polygon fill="midnightblue" stroke="midnightblue" points="1197.5,-195.019 1188.33,-200.337 1198.81,-201.895 1197.5,-195.019"/>
</g>
</g>
</svg>
        <g id="navigator" transform="translate(0 0)" fill="#404254">
                <rect fill="#f2f5e9" fill-opacity="0.5" stroke="#606060" stroke-width=".5" x="0" y="0" width="60" height="60"/>
                <use id="zoomplus" xlink:href="#zoomPlus" x="17" y="9" onmousedown="handleZoom(evt,'in')"/>
                <use id="zoomminus" xlink:href="#zoomMin" x="42" y="9" onmousedown="handleZoom(evt,'out')"/>
                <use id="reset" xlink:href="#resetDef" x="30" y="36" onmousedown="handleReset()"/>
                <g id="arrowUp" xlink:href="#dirArrow" transform="translate(30 24)" onmousedown="handlePan(0,-1)">
                  <use xlink:href="#rim" fill="#404040">
                        <set attributeName="fill" to="#808080" begin="arrowUp.mouseover" end="arrowUp.mouseout"/>
                  </use>
                  <path fill="none" stroke="white" stroke-width="1.5" d="M0,-3.0v7 M-2.5,-0.5L0,-3.0L2.5,-0.5"/>
                </g>
                <g id="arrowRight" xlink:href="#dirArrow" transform="rotate(90) translate(36 -43)" onmousedown="handlePan(1,0)">
                  <use xlink:href="#rim" fill="#404040">
                        <set attributeName="fill" to="#808080" begin="arrowRight.mouseover" end="arrowRight.mouseout"/>
                  </use>
                  <path fill="none" stroke="white" stroke-width="1.5" d="M0,-3.0v7 M-2.5,-0.5L0,-3.0L2.5,-0.5"/>
                </g>
                <g id="arrowDown" xlink:href="#dirArrow" transform="rotate(180) translate(-30 -48)" onmousedown="handlePan(0,1)">
                  <use xlink:href="#rim" fill="#404040">
                        <set attributeName="fill" to="#808080" begin="arrowDown.mouseover" end="arrowDown.mouseout"/>
                  </use>
                  <path fill="none" stroke="white" stroke-width="1.5" d="M0,-3.0v7 M-2.5,-0.5L0,-3.0L2.5,-0.5"/>
                </g>
                <g id="arrowLeft" xlink:href="#dirArrow" transform="rotate(270) translate(-36 17)" onmousedown="handlePan(-1,0)">
                  <use xlink:href="#rim" fill="#404040">
                        <set attributeName="fill" to="#808080" begin="arrowLeft.mouseover" end="arrowLeft.mouseout"/>
                  </use>
                  <path fill="none" stroke="white" stroke-width="1.5" d="M0,-3.0v7 M-2.5,-0.5L0,-3.0L2.5,-0.5"/>
                </g>
        </g>
        <svg viewBox="0 0 15 15" width="100%" height="30px" preserveAspectRatio="xMaxYMin meet">
         <g id="arrow_out" transform="scale(0.3 0.3)">
          <a xlink:href="classDisplayObject_a64d01b5326cf6dae89928a7ad91b1283_icgraph_org.svg" target="_base">
           <rect id="button" ry="5" rx="5" y="6" x="6" height="38" width="38"
                fill="#f2f5e9" fill-opacity="0.5" stroke="#606060" stroke-width="1.0"/>
           <path id="arrow"
             d="M 11.500037,31.436501 C 11.940474,20.09759 22.043105,11.32322 32.158766,21.979434 L 37.068811,17.246167 C 37.068811,17.246167 37.088388,32 37.088388,32 L 22.160133,31.978069 C 22.160133,31.978069 26.997745,27.140456 26.997745,27.140456 C 18.528582,18.264221 13.291696,25.230495 11.500037,31.436501 z"
             style="fill:#404040;"/>
          </a>
         </g>
        </svg>
</svg>
