<?xml version="1.0" encoding="UTF-8" standalone="no"?>
<!DOCTYPE svg PUBLIC "-//W3C//DTD SVG 1.1//EN"
 "http://www.w3.org/Graphics/SVG/1.1/DTD/svg11.dtd">
<!-- Generated by graphviz version 2.38.0 (20140413.2041)
 -->
<!-- Title: MainWindow::updateFrameSizeComboBoxSelection Pages: 1 -->
<!--zoomable 256 -->
<svg id="main" version="1.1" xmlns="http://www.w3.org/2000/svg" xmlns:xlink="http://www.w3.org/1999/xlink" xml:space="preserve" onload="init(evt)">
<style type="text/css"><![CDATA[
.edge:hover path { stroke: red; }
.edge:hover polygon { stroke: red; fill: red; }
]]></style>
<script type="text/javascript"><![CDATA[
var edges = document.getElementsByTagName('g');
if (edges && edges.length) {
  for (var i=0;i<edges.length;i++) {
    if (edges[i].id.substr(0,4)=='edge') {
      edges[i].setAttribute('class','edge');
    }
  }
}
]]></script>
        <defs>
                <circle id="rim" cx="0" cy="0" r="7"/>
                <circle id="rim2" cx="0" cy="0" r="3.5"/>
                <g id="zoomPlus">
                        <use xlink:href="#rim" fill="#404040">
                                <set attributeName="fill" to="#808080" begin="zoomplus.mouseover" end="zoomplus.mouseout"/>
                        </use>
                        <path d="M-4,0h8M0,-4v8" fill="none" stroke="white" stroke-width="1.5" pointer-events="none"/>
                </g>
                <g id="zoomMin">
                        <use xlink:href="#rim" fill="#404040">
                                <set attributeName="fill" to="#808080" begin="zoomminus.mouseover" end="zoomminus.mouseout"/>
                        </use>
                        <path d="M-4,0h8" fill="none" stroke="white" stroke-width="1.5" pointer-events="none"/>
                </g>
                <g id="dirArrow">
                        <path fill="none" stroke="white" stroke-width="1.5" d="M0,-3.0v7 M-2.5,-0.5L0,-3.0L2.5,-0.5"/>
                </g>
               <g id="resetDef">
                       <use xlink:href="#rim2" fill="#404040">
                               <set attributeName="fill" to="#808080" begin="reset.mouseover" end="reset.mouseout"/>
                       </use>
               </g>
        </defs>

<script type="text/javascript">
var viewWidth = 1282;
var viewHeight = 256;
var sectionId = 'dynsection-98';
</script>
<script xlink:href="svgpan.js"/>
<svg id="graph" class="graph">
<g id="viewport">
<title>MainWindow::updateFrameSizeComboBoxSelection</title>
<polygon fill="white" stroke="none" points="-4,4 -4,-252.332 1278,-252.332 1278,4 -4,4"/>
<!-- Node1 -->
<g id="node1" class="node"><title>Node1</title>
<polygon fill="#bfbfbf" stroke="black" points="0,-128.832 0,-158.832 155,-158.832 155,-128.832 0,-128.832"/>
<text text-anchor="start" x="8" y="-146.832" font-family="Helvetica,sans-Serif" font-size="10.00">MainWindow::updateFrameSize</text>
<text text-anchor="middle" x="77.5" y="-135.832" font-family="Helvetica,sans-Serif" font-size="10.00">ComboBoxSelection</text>
</g>
<!-- Node2 -->
<g id="node2" class="node"><title>Node2</title>
<g id="a_node2"><a xlink:href="classMainWindow.html#a288b768c3c21a9171bdc56fe845ece8b" target="_top" xlink:title="Shows the file open dialog and loads all selected Files. ">
<polygon fill="white" stroke="black" points="756,-223.332 756,-242.332 872,-242.332 872,-223.332 756,-223.332"/>
<text text-anchor="middle" x="814" y="-230.332" font-family="Helvetica,sans-Serif" font-size="10.00">MainWindow::openFile</text>
</a>
</g>
</g>
<!-- Node1&#45;&gt;Node2 -->
<g id="edge1" class="edge"><title>Node1&#45;&gt;Node2</title>
<path fill="none" stroke="midnightblue" d="M165.25,-154.343C317.284,-172.765 627.856,-210.398 755.88,-225.91"/>
<polygon fill="midnightblue" stroke="midnightblue" points="165.374,-150.833 155.026,-153.104 164.532,-157.782 165.374,-150.833"/>
</g>
<!-- Node6 -->
<g id="node6" class="node"><title>Node6</title>
<g id="a_node6"><a xlink:href="classMainWindow.html#a29e6418f12a4331860a7db3616e91600" target="_top" xlink:title="updates the YUV information GUI elements from the current Renderobject ">
<polygon fill="white" stroke="black" points="191,-71.8317 191,-101.832 340,-101.832 340,-71.8317 191,-71.8317"/>
<text text-anchor="start" x="199" y="-89.8317" font-family="Helvetica,sans-Serif" font-size="10.00">MainWindow::updateSelection</text>
<text text-anchor="middle" x="265.5" y="-78.8317" font-family="Helvetica,sans-Serif" font-size="10.00">MetaInfo</text>
</a>
</g>
</g>
<!-- Node1&#45;&gt;Node6 -->
<g id="edge6" class="edge"><title>Node1&#45;&gt;Node6</title>
<path fill="none" stroke="midnightblue" d="M137.595,-125.722C162.603,-118.058 191.401,-109.233 215.236,-101.929"/>
<polygon fill="midnightblue" stroke="midnightblue" points="136.392,-122.43 127.856,-128.706 138.443,-129.123 136.392,-122.43"/>
</g>
<!-- Node3 -->
<g id="node3" class="node"><title>Node3</title>
<g id="a_node3"><a xlink:href="classMainWindow.html#a9df7443ce5f907903438bb6a9abe9a33" target="_top" xlink:title="MainWindow::createMenusAnd\lActions">
<polygon fill="white" stroke="black" points="936,-217.832 936,-247.832 1088,-247.832 1088,-217.832 936,-217.832"/>
<text text-anchor="start" x="944" y="-235.832" font-family="Helvetica,sans-Serif" font-size="10.00">MainWindow::createMenusAnd</text>
<text text-anchor="middle" x="1012" y="-224.832" font-family="Helvetica,sans-Serif" font-size="10.00">Actions</text>
</a>
</g>
</g>
<!-- Node2&#45;&gt;Node3 -->
<g id="edge2" class="edge"><title>Node2&#45;&gt;Node3</title>
<path fill="none" stroke="midnightblue" d="M882.692,-232.832C899.834,-232.832 918.348,-232.832 935.834,-232.832"/>
<polygon fill="midnightblue" stroke="midnightblue" points="882.218,-229.332 872.218,-232.832 882.218,-236.332 882.218,-229.332"/>
</g>
<!-- Node5 -->
<g id="node5" class="node"><title>Node5</title>
<g id="a_node5"><a xlink:href="classMainWindow.html#aaba5c236313378986c42c4a634c4cfb9" target="_top" xlink:title="MainWindow::onCustomContextMenu">
<polygon fill="white" stroke="black" points="921,-179.332 921,-198.332 1103,-198.332 1103,-179.332 921,-179.332"/>
<text text-anchor="middle" x="1012" y="-186.332" font-family="Helvetica,sans-Serif" font-size="10.00">MainWindow::onCustomContextMenu</text>
</a>
</g>
</g>
<!-- Node2&#45;&gt;Node5 -->
<g id="edge4" class="edge"><title>Node2&#45;&gt;Node5</title>
<path fill="none" stroke="midnightblue" d="M864.613,-220.875C882.379,-216.662 902.567,-211.951 921,-207.832 935.182,-204.663 950.654,-201.346 964.707,-198.387"/>
<polygon fill="midnightblue" stroke="midnightblue" points="863.382,-217.571 854.464,-223.291 865.003,-224.38 863.382,-217.571"/>
</g>
<!-- Node4 -->
<g id="node4" class="node"><title>Node4</title>
<g id="a_node4"><a xlink:href="classMainWindow.html#a8b244be8b7b7db1b08de2a2acb9409db" target="_top" xlink:title="MainWindow::MainWindow">
<polygon fill="white" stroke="black" points="1139,-113.332 1139,-132.332 1274,-132.332 1274,-113.332 1139,-113.332"/>
<text text-anchor="middle" x="1206.5" y="-120.332" font-family="Helvetica,sans-Serif" font-size="10.00">MainWindow::MainWindow</text>
</a>
</g>
</g>
<!-- Node3&#45;&gt;Node4 -->
<g id="edge3" class="edge"><title>Node3&#45;&gt;Node4</title>
<path fill="none" stroke="midnightblue" d="M1089,-214.254C1093.83,-212.302 1098.53,-210.166 1103,-207.832 1142.13,-187.378 1179.93,-150.129 1196.6,-132.532"/>
<polygon fill="midnightblue" stroke="midnightblue" points="1087.74,-210.989 1079.61,-217.783 1090.2,-217.542 1087.74,-210.989"/>
</g>
<!-- Node5&#45;&gt;Node4 -->
<g id="edge5" class="edge"><title>Node5&#45;&gt;Node4</title>
<path fill="none" stroke="midnightblue" d="M1074.4,-176.943C1084.06,-174.57 1093.87,-171.861 1103,-168.832 1133.36,-158.762 1166.89,-142.715 1187.06,-132.483"/>
<polygon fill="midnightblue" stroke="midnightblue" points="1073.35,-173.594 1064.42,-179.293 1074.96,-180.408 1073.35,-173.594"/>
</g>
<!-- Node7 -->
<g id="node7" class="node"><title>Node7</title>
<g id="a_node7"><a xlink:href="classMainWindow.html#a6f33e93f427ff2df80edffcb3ad944da" target="_top" xlink:title="MainWindow::updateSelected\lItems">
<polygon fill="white" stroke="black" points="561,-100.832 561,-130.832 707,-130.832 707,-100.832 561,-100.832"/>
<text text-anchor="start" x="569" y="-118.832" font-family="Helvetica,sans-Serif" font-size="10.00">MainWindow::updateSelected</text>
<text text-anchor="middle" x="634" y="-107.832" font-family="Helvetica,sans-Serif" font-size="10.00">Items</text>
</a>
</g>
</g>
<!-- Node6&#45;&gt;Node7 -->
<g id="edge7" class="edge"><title>Node6&#45;&gt;Node7</title>
<path fill="none" stroke="midnightblue" d="M335.117,-104.027C348.591,-106.791 362.678,-109.258 376,-110.832 438.046,-118.163 509.09,-118.971 560.735,-118.198"/>
<polygon fill="midnightblue" stroke="midnightblue" points="335.466,-100.523 324.956,-101.865 334.009,-107.37 335.466,-100.523"/>
</g>
<!-- Node12 -->
<g id="node12" class="node"><title>Node12</title>
<g id="a_node12"><a xlink:href="classMainWindow.html#a2cae0b3ed4283301ecc11dc881d31422" target="_top" xlink:title="A file option was changed by the user (width/height/start/end/rate/sampling/frameSize/pixelFormat). ">
<polygon fill="white" stroke="black" points="382.5,-22.8317 382.5,-52.8317 518.5,-52.8317 518.5,-22.8317 382.5,-22.8317"/>
<text text-anchor="start" x="390.5" y="-40.8317" font-family="Helvetica,sans-Serif" font-size="10.00">MainWindow::on_fileOption</text>
<text text-anchor="middle" x="450.5" y="-29.8317" font-family="Helvetica,sans-Serif" font-size="10.00">ValueChanged</text>
</a>
</g>
</g>
<!-- Node6&#45;&gt;Node12 -->
<g id="edge18" class="edge"><title>Node6&#45;&gt;Node12</title>
<path fill="none" stroke="midnightblue" d="M311.953,-68.7369C333.209,-62.2123 358.948,-55.1176 382.386,-49.2699"/>
<polygon fill="midnightblue" stroke="midnightblue" points="310.715,-65.457 302.219,-71.7867 312.808,-72.1368 310.715,-65.457"/>
</g>
<!-- Node13 -->
<g id="node13" class="node"><title>Node13</title>
<g id="a_node13"><a xlink:href="classMainWindow.html#a23cc43af3c6873f9a936b5af05c99f49" target="_top" xlink:title="The display objects information changed. Update. ">
<polygon fill="white" stroke="black" points="376,-71.8317 376,-101.832 525,-101.832 525,-71.8317 376,-71.8317"/>
<text text-anchor="start" x="384" y="-89.8317" font-family="Helvetica,sans-Serif" font-size="10.00">MainWindow::currentSelection</text>
<text text-anchor="middle" x="450.5" y="-78.8317" font-family="Helvetica,sans-Serif" font-size="10.00">InformationChanged</text>
</a>
</g>
</g>
<!-- Node6&#45;&gt;Node13 -->
<g id="edge21" class="edge"><title>Node6&#45;&gt;Node13</title>
<path fill="none" stroke="midnightblue" d="M350.387,-86.8317C358.838,-86.8317 367.376,-86.8317 375.711,-86.8317"/>
<polygon fill="midnightblue" stroke="midnightblue" points="350.142,-83.3318 340.142,-86.8317 350.142,-90.3318 350.142,-83.3318"/>
</g>
<!-- Node7&#45;&gt;Node4 -->
<g id="edge8" class="edge"><title>Node7&#45;&gt;Node4</title>
<path fill="none" stroke="midnightblue" d="M717.404,-116.02C810.895,-116.354 967.927,-117.278 1103,-119.832 1114.57,-120.05 1126.87,-120.351 1138.79,-120.679"/>
<polygon fill="midnightblue" stroke="midnightblue" points="717.174,-112.52 707.162,-115.985 717.15,-119.52 717.174,-112.52"/>
</g>
<!-- Node8 -->
<g id="node8" class="node"><title>Node8</title>
<g id="a_node8"><a xlink:href="classMainWindow.html#a6be7246a1a0ecf5d1442bb1775c3d9b3" target="_top" xlink:title="MainWindow::addDifference\lSequence">
<polygon fill="white" stroke="black" points="744,-173.832 744,-203.832 884,-203.832 884,-173.832 744,-173.832"/>
<text text-anchor="start" x="752" y="-191.832" font-family="Helvetica,sans-Serif" font-size="10.00">MainWindow::addDifference</text>
<text text-anchor="middle" x="814" y="-180.832" font-family="Helvetica,sans-Serif" font-size="10.00">Sequence</text>
</a>
</g>
</g>
<!-- Node7&#45;&gt;Node8 -->
<g id="edge9" class="edge"><title>Node7&#45;&gt;Node8</title>
<path fill="none" stroke="midnightblue" d="M676.465,-135.137C696.428,-144.205 720.799,-154.948 743,-163.832 751.387,-167.188 760.421,-170.577 769.121,-173.732"/>
<polygon fill="midnightblue" stroke="midnightblue" points="677.889,-131.939 667.339,-130.968 674.981,-138.306 677.889,-131.939"/>
</g>
<!-- Node9 -->
<g id="node9" class="node"><title>Node9</title>
<g id="a_node9"><a xlink:href="classMainWindow.html#af5ecc7c65080215b49b9d931c56c65c9" target="_top" xlink:title="MainWindow::editTextFrame">
<polygon fill="white" stroke="black" points="743,-135.332 743,-154.332 885,-154.332 885,-135.332 743,-135.332"/>
<text text-anchor="middle" x="814" y="-142.332" font-family="Helvetica,sans-Serif" font-size="10.00">MainWindow::editTextFrame</text>
</a>
</g>
</g>
<!-- Node7&#45;&gt;Node9 -->
<g id="edge12" class="edge"><title>Node7&#45;&gt;Node9</title>
<path fill="none" stroke="midnightblue" d="M717.223,-129.228C729.865,-131.287 742.691,-133.377 754.672,-135.329"/>
<polygon fill="midnightblue" stroke="midnightblue" points="717.576,-125.739 707.143,-127.585 716.45,-132.648 717.576,-125.739"/>
</g>
<!-- Node11 -->
<g id="node11" class="node"><title>Node11</title>
<g id="a_node11"><a xlink:href="classMainWindow.html#a156c29c6d7ab278e4246c88a0fcbe2f2" target="_top" xlink:title="MainWindow::updateSettings">
<polygon fill="white" stroke="black" points="940,-53.3317 940,-72.3317 1084,-72.3317 1084,-53.3317 940,-53.3317"/>
<text text-anchor="middle" x="1012" y="-60.3317" font-family="Helvetica,sans-Serif" font-size="10.00">MainWindow::updateSettings</text>
</a>
</g>
</g>
<!-- Node7&#45;&gt;Node11 -->
<g id="edge16" class="edge"><title>Node7&#45;&gt;Node11</title>
<path fill="none" stroke="midnightblue" d="M693.505,-98.1459C709.436,-93.8735 726.775,-89.7142 743,-86.8317 809.116,-75.0857 885.483,-68.9636 939.742,-65.8531"/>
<polygon fill="midnightblue" stroke="midnightblue" points="692.509,-94.7899 683.791,-100.81 694.36,-101.541 692.509,-94.7899"/>
</g>
<!-- Node8&#45;&gt;Node3 -->
<g id="edge10" class="edge"><title>Node8&#45;&gt;Node3</title>
<path fill="none" stroke="midnightblue" d="M891.923,-206.1C909.148,-209.967 927.284,-214.038 944.065,-217.805"/>
<polygon fill="midnightblue" stroke="midnightblue" points="892.428,-202.626 881.904,-203.851 890.894,-209.456 892.428,-202.626"/>
</g>
<!-- Node8&#45;&gt;Node5 -->
<g id="edge11" class="edge"><title>Node8&#45;&gt;Node5</title>
<path fill="none" stroke="midnightblue" d="M894.276,-188.832C903.039,-188.832 912.009,-188.832 920.892,-188.832"/>
<polygon fill="midnightblue" stroke="midnightblue" points="894.102,-185.332 884.102,-188.832 894.102,-192.332 894.102,-185.332"/>
</g>
<!-- Node9&#45;&gt;Node5 -->
<g id="edge13" class="edge"><title>Node9&#45;&gt;Node5</title>
<path fill="none" stroke="midnightblue" d="M866.902,-156.627C884.115,-160.527 903.378,-164.879 921,-168.832 936.306,-172.265 953.082,-176.001 967.96,-179.304"/>
<polygon fill="midnightblue" stroke="midnightblue" points="867.559,-153.187 857.032,-154.389 866.011,-160.013 867.559,-153.187"/>
</g>
<!-- Node10 -->
<g id="node10" class="node"><title>Node10</title>
<g id="a_node10"><a xlink:href="classMainWindow.html#ab18c663524e2c130759c0ca960129ea4" target="_top" xlink:title="MainWindow::onItemDouble\lClicked">
<polygon fill="white" stroke="black" points="942,-129.832 942,-159.832 1082,-159.832 1082,-129.832 942,-129.832"/>
<text text-anchor="start" x="950" y="-147.832" font-family="Helvetica,sans-Serif" font-size="10.00">MainWindow::onItemDouble</text>
<text text-anchor="middle" x="1012" y="-136.832" font-family="Helvetica,sans-Serif" font-size="10.00">Clicked</text>
</a>
</g>
</g>
<!-- Node9&#45;&gt;Node10 -->
<g id="edge14" class="edge"><title>Node9&#45;&gt;Node10</title>
<path fill="none" stroke="midnightblue" d="M895.276,-144.832C910.759,-144.832 926.853,-144.832 941.941,-144.832"/>
<polygon fill="midnightblue" stroke="midnightblue" points="895.207,-141.332 885.207,-144.832 895.207,-148.332 895.207,-141.332"/>
</g>
<!-- Node10&#45;&gt;Node4 -->
<g id="edge15" class="edge"><title>Node10&#45;&gt;Node4</title>
<path fill="none" stroke="midnightblue" d="M1092.28,-135.771C1107.75,-134.003 1123.81,-132.167 1138.82,-130.452"/>
<polygon fill="midnightblue" stroke="midnightblue" points="1091.76,-132.307 1082.22,-136.92 1092.56,-139.262 1091.76,-132.307"/>
</g>
<!-- Node11&#45;&gt;Node4 -->
<g id="edge17" class="edge"><title>Node11&#45;&gt;Node4</title>
<path fill="none" stroke="midnightblue" d="M1060.97,-74.8904C1074.62,-78.518 1089.45,-82.6512 1103,-86.8317 1129.49,-95.0034 1159.36,-105.661 1179.99,-113.254"/>
<polygon fill="midnightblue" stroke="midnightblue" points="1061.85,-71.5011 1051.28,-72.3449 1060.07,-78.2713 1061.85,-71.5011"/>
</g>
<!-- Node12&#45;&gt;Node4 -->
<g id="edge19" class="edge"><title>Node12&#45;&gt;Node4</title>
<path fill="none" stroke="midnightblue" d="M528.801,-23.1146C653.599,-2.70724 905.441,24.4832 1103,-43.8317 1143.77,-57.9292 1181.04,-95.3179 1197.13,-113.131"/>
<polygon fill="midnightblue" stroke="midnightblue" points="527.87,-19.7214 518.581,-24.8174 529.02,-26.6262 527.87,-19.7214"/>
</g>
<!-- Node12&#45;&gt;Node6 -->
<g id="edge20" class="edge"><title>Node12&#45;&gt;Node6</title>
<path fill="none" stroke="midnightblue" d="M404.153,-55.8939C384.833,-61.8268 361.793,-68.2339 340.142,-73.7477"/>
<polygon fill="midnightblue" stroke="midnightblue" points="405.395,-59.1726 413.89,-52.8418 403.301,-52.4931 405.395,-59.1726"/>
</g>
<!-- Node13&#45;&gt;Node7 -->
<g id="edge22" class="edge"><title>Node13&#45;&gt;Node7</title>
<path fill="none" stroke="midnightblue" d="M535.087,-100.187C543.678,-101.56 552.354,-102.946 560.806,-104.297"/>
<polygon fill="midnightblue" stroke="midnightblue" points="535.488,-96.707 525.061,-98.5853 534.384,-103.619 535.488,-96.707"/>
</g>
</g>
</svg>
        <g id="navigator" transform="translate(0 0)" fill="#404254">
                <rect fill="#f2f5e9" fill-opacity="0.5" stroke="#606060" stroke-width=".5" x="0" y="0" width="60" height="60"/>
                <use id="zoomplus" xlink:href="#zoomPlus" x="17" y="9" onmousedown="handleZoom(evt,'in')"/>
                <use id="zoomminus" xlink:href="#zoomMin" x="42" y="9" onmousedown="handleZoom(evt,'out')"/>
                <use id="reset" xlink:href="#resetDef" x="30" y="36" onmousedown="handleReset()"/>
                <g id="arrowUp" xlink:href="#dirArrow" transform="translate(30 24)" onmousedown="handlePan(0,-1)">
                  <use xlink:href="#rim" fill="#404040">
                        <set attributeName="fill" to="#808080" begin="arrowUp.mouseover" end="arrowUp.mouseout"/>
                  </use>
                  <path fill="none" stroke="white" stroke-width="1.5" d="M0,-3.0v7 M-2.5,-0.5L0,-3.0L2.5,-0.5"/>
                </g>
                <g id="arrowRight" xlink:href="#dirArrow" transform="rotate(90) translate(36 -43)" onmousedown="handlePan(1,0)">
                  <use xlink:href="#rim" fill="#404040">
                        <set attributeName="fill" to="#808080" begin="arrowRight.mouseover" end="arrowRight.mouseout"/>
                  </use>
                  <path fill="none" stroke="white" stroke-width="1.5" d="M0,-3.0v7 M-2.5,-0.5L0,-3.0L2.5,-0.5"/>
                </g>
                <g id="arrowDown" xlink:href="#dirArrow" transform="rotate(180) translate(-30 -48)" onmousedown="handlePan(0,1)">
                  <use xlink:href="#rim" fill="#404040">
                        <set attributeName="fill" to="#808080" begin="arrowDown.mouseover" end="arrowDown.mouseout"/>
                  </use>
                  <path fill="none" stroke="white" stroke-width="1.5" d="M0,-3.0v7 M-2.5,-0.5L0,-3.0L2.5,-0.5"/>
                </g>
                <g id="arrowLeft" xlink:href="#dirArrow" transform="rotate(270) translate(-36 17)" onmousedown="handlePan(-1,0)">
                  <use xlink:href="#rim" fill="#404040">
                        <set attributeName="fill" to="#808080" begin="arrowLeft.mouseover" end="arrowLeft.mouseout"/>
                  </use>
                  <path fill="none" stroke="white" stroke-width="1.5" d="M0,-3.0v7 M-2.5,-0.5L0,-3.0L2.5,-0.5"/>
                </g>
        </g>
        <svg viewBox="0 0 15 15" width="100%" height="30px" preserveAspectRatio="xMaxYMin meet">
         <g id="arrow_out" transform="scale(0.3 0.3)">
          <a xlink:href="classMainWindow_aa2effe07ce5e9b737bc8269e85fc3801_icgraph_org.svg" target="_base">
           <rect id="button" ry="5" rx="5" y="6" x="6" height="38" width="38"
                fill="#f2f5e9" fill-opacity="0.5" stroke="#606060" stroke-width="1.0"/>
           <path id="arrow"
             d="M 11.500037,31.436501 C 11.940474,20.09759 22.043105,11.32322 32.158766,21.979434 L 37.068811,17.246167 C 37.068811,17.246167 37.088388,32 37.088388,32 L 22.160133,31.978069 C 22.160133,31.978069 26.997745,27.140456 26.997745,27.140456 C 18.528582,18.264221 13.291696,25.230495 11.500037,31.436501 z"
             style="fill:#404040;"/>
          </a>
         </g>
        </svg>
</svg>
