<?xml version="1.0" encoding="UTF-8" standalone="no"?>
<!DOCTYPE svg PUBLIC "-//W3C//DTD SVG 1.1//EN"
 "http://www.w3.org/Graphics/SVG/1.1/DTD/svg11.dtd">
<!-- Generated by graphviz version 2.38.0 (20140413.2041)
 -->
<!-- Title: statisticSource::getStatus Pages: 1 -->
<svg width="479pt" height="39pt"
 viewBox="0.00 0.00 479.00 39.00" xmlns="http://www.w3.org/2000/svg" xmlns:xlink="http://www.w3.org/1999/xlink">
<g id="graph0" class="graph" transform="scale(1 1) rotate(0) translate(4 35)">
<title>statisticSource::getStatus</title>
<polygon fill="white" stroke="none" points="-4,4 -4,-35 475,-35 475,4 -4,4"/>
<!-- Node1 -->
<g id="node1" class="node"><title>Node1</title>
<polygon fill="#bfbfbf" stroke="black" points="0,-6 0,-25 130,-25 130,-6 0,-6"/>
<text text-anchor="middle" x="65" y="-13" font-family="Helvetica,sans-Serif" font-size="10.00">statisticSource::getStatus</text>
</g>
<!-- Node2 -->
<g id="node2" class="node"><title>Node2</title>
<g id="a_node2"><a xlink:href="classStatisticsObject.html#a78938588464aca9d9aa880e2f3f7de5b" target="_top" xlink:title="StatisticsObject::statistic\lSourceInformationChanced">
<polygon fill="white" stroke="black" points="166,-0.5 166,-30.5 301,-30.5 301,-0.5 166,-0.5"/>
<text text-anchor="start" x="174" y="-18.5" font-family="Helvetica,sans-Serif" font-size="10.00">StatisticsObject::statistic</text>
<text text-anchor="middle" x="233.5" y="-7.5" font-family="Helvetica,sans-Serif" font-size="10.00">SourceInformationChanced</text>
</a>
</g>
</g>
<!-- Node1&#45;&gt;Node2 -->
<g id="edge1" class="edge"><title>Node1&#45;&gt;Node2</title>
<path fill="none" stroke="midnightblue" d="M140.558,-15.5C148.975,-15.5 157.513,-15.5 165.821,-15.5"/>
<polygon fill="midnightblue" stroke="midnightblue" points="140.373,-12.0001 130.373,-15.5 140.373,-19.0001 140.373,-12.0001"/>
</g>
<!-- Node3 -->
<g id="node3" class="node"><title>Node3</title>
<g id="a_node3"><a xlink:href="classStatisticsObject.html#a9d029a8acb66b9c375275762ec794774" target="_top" xlink:title="StatisticsObject::Statistics\lObject">
<polygon fill="white" stroke="black" points="337,-0.5 337,-30.5 471,-30.5 471,-0.5 337,-0.5"/>
<text text-anchor="start" x="345" y="-18.5" font-family="Helvetica,sans-Serif" font-size="10.00">StatisticsObject::Statistics</text>
<text text-anchor="middle" x="404" y="-7.5" font-family="Helvetica,sans-Serif" font-size="10.00">Object</text>
</a>
</g>
</g>
<!-- Node2&#45;&gt;Node3 -->
<g id="edge2" class="edge"><title>Node2&#45;&gt;Node3</title>
<path fill="none" stroke="midnightblue" d="M311.123,-15.5C319.725,-15.5 328.435,-15.5 336.888,-15.5"/>
<polygon fill="midnightblue" stroke="midnightblue" points="311.096,-12.0001 301.096,-15.5 311.096,-19.0001 311.096,-12.0001"/>
</g>
</g>
</svg>
