<?xml version="1.0" encoding="UTF-8" standalone="no"?>
<!DOCTYPE svg PUBLIC "-//W3C//DTD SVG 1.1//EN"
 "http://www.w3.org/Graphics/SVG/1.1/DTD/svg11.dtd">
<!-- Generated by graphviz version 2.38.0 (20140413.2041)
 -->
<!-- Title: DisplayWidget::zoomFactor Pages: 1 -->
<!--zoomable 532 -->
<svg id="main" version="1.1" xmlns="http://www.w3.org/2000/svg" xmlns:xlink="http://www.w3.org/1999/xlink" xml:space="preserve" onload="init(evt)">
<style type="text/css"><![CDATA[
.edge:hover path { stroke: red; }
.edge:hover polygon { stroke: red; fill: red; }
]]></style>
<script type="text/javascript"><![CDATA[
var edges = document.getElementsByTagName('g');
if (edges && edges.length) {
  for (var i=0;i<edges.length;i++) {
    if (edges[i].id.substr(0,4)=='edge') {
      edges[i].setAttribute('class','edge');
    }
  }
}
]]></script>
        <defs>
                <circle id="rim" cx="0" cy="0" r="7"/>
                <circle id="rim2" cx="0" cy="0" r="3.5"/>
                <g id="zoomPlus">
                        <use xlink:href="#rim" fill="#404040">
                                <set attributeName="fill" to="#808080" begin="zoomplus.mouseover" end="zoomplus.mouseout"/>
                        </use>
                        <path d="M-4,0h8M0,-4v8" fill="none" stroke="white" stroke-width="1.5" pointer-events="none"/>
                </g>
                <g id="zoomMin">
                        <use xlink:href="#rim" fill="#404040">
                                <set attributeName="fill" to="#808080" begin="zoomminus.mouseover" end="zoomminus.mouseout"/>
                        </use>
                        <path d="M-4,0h8" fill="none" stroke="white" stroke-width="1.5" pointer-events="none"/>
                </g>
                <g id="dirArrow">
                        <path fill="none" stroke="white" stroke-width="1.5" d="M0,-3.0v7 M-2.5,-0.5L0,-3.0L2.5,-0.5"/>
                </g>
               <g id="resetDef">
                       <use xlink:href="#rim2" fill="#404040">
                               <set attributeName="fill" to="#808080" begin="reset.mouseover" end="reset.mouseout"/>
                       </use>
               </g>
        </defs>

<script type="text/javascript">
var viewWidth = 963;
var viewHeight = 532;
var sectionId = 'dynsection-36';
</script>
<script xlink:href="svgpan.js"/>
<svg id="graph" class="graph">
<g id="viewport">
<title>DisplayWidget::zoomFactor</title>
<polygon fill="white" stroke="none" points="-4,4 -4,-527.991 959,-527.991 959,4 -4,4"/>
<!-- Node1 -->
<g id="node1" class="node"><title>Node1</title>
<polygon fill="#bfbfbf" stroke="black" points="0,-201 0,-220 138,-220 138,-201 0,-201"/>
<text text-anchor="middle" x="69" y="-208" font-family="Helvetica,sans-Serif" font-size="10.00">DisplayWidget::zoomFactor</text>
</g>
<!-- Node2 -->
<g id="node2" class="node"><title>Node2</title>
<g id="a_node2"><a xlink:href="classDisplaySplitWidget.html#a07d514c8000eade67022e9f73a4214c0" target="_top" xlink:title="DisplaySplitWidget\l::zoomToPoint">
<polygon fill="white" stroke="black" points="386.5,-437.5 386.5,-467.5 486.5,-467.5 486.5,-437.5 386.5,-437.5"/>
<text text-anchor="start" x="394.5" y="-455.5" font-family="Helvetica,sans-Serif" font-size="10.00">DisplaySplitWidget</text>
<text text-anchor="middle" x="436.5" y="-444.5" font-family="Helvetica,sans-Serif" font-size="10.00">::zoomToPoint</text>
</a>
</g>
</g>
<!-- Node1&#45;&gt;Node2 -->
<g id="edge1" class="edge"><title>Node1&#45;&gt;Node2</title>
<path fill="none" stroke="midnightblue" d="M79.2196,-229.105C94.8467,-258.878 129.249,-317.344 174,-351.5 238.703,-400.886 330.478,-428.852 386.334,-442.306"/>
<polygon fill="midnightblue" stroke="midnightblue" points="82.325,-227.49 74.6519,-220.184 76.0943,-230.681 82.325,-227.49"/>
</g>
<!-- Node3 -->
<g id="node3" class="node"><title>Node3</title>
<g id="a_node3"><a xlink:href="classDisplaySplitWidget.html#ad714b0427a31a3ac29bf0f0a2c1f3611" target="_top" xlink:title="DisplaySplitWidget\l::zoomIn">
<polygon fill="white" stroke="black" points="545.5,-481.5 545.5,-511.5 645.5,-511.5 645.5,-481.5 545.5,-481.5"/>
<text text-anchor="start" x="553.5" y="-499.5" font-family="Helvetica,sans-Serif" font-size="10.00">DisplaySplitWidget</text>
<text text-anchor="middle" x="595.5" y="-488.5" font-family="Helvetica,sans-Serif" font-size="10.00">::zoomIn</text>
</a>
</g>
</g>
<!-- Node1&#45;&gt;Node3 -->
<g id="edge12" class="edge"><title>Node1&#45;&gt;Node3</title>
<path fill="none" stroke="midnightblue" d="M72.0226,-230.207C78.0151,-277.777 100.163,-399.383 174,-459.5 281.411,-546.952 459.42,-525.443 545.24,-508.194"/>
<polygon fill="midnightblue" stroke="midnightblue" points="75.4713,-229.561 70.8498,-220.027 68.5173,-230.362 75.4713,-229.561"/>
</g>
<!-- Node7 -->
<g id="node7" class="node"><title>Node7</title>
<g id="a_node7"><a xlink:href="classDisplaySplitWidget.html#aeea14bc10ca6579ab6f68f8150f9ac5f" target="_top" xlink:title="DisplaySplitWidget\l::zoomOut">
<polygon fill="white" stroke="black" points="545.5,-432.5 545.5,-462.5 645.5,-462.5 645.5,-432.5 545.5,-432.5"/>
<text text-anchor="start" x="553.5" y="-450.5" font-family="Helvetica,sans-Serif" font-size="10.00">DisplaySplitWidget</text>
<text text-anchor="middle" x="595.5" y="-439.5" font-family="Helvetica,sans-Serif" font-size="10.00">::zoomOut</text>
</a>
</g>
</g>
<!-- Node1&#45;&gt;Node7 -->
<g id="edge13" class="edge"><title>Node1&#45;&gt;Node7</title>
<path fill="none" stroke="midnightblue" d="M75.4079,-229.983C87.0571,-268.488 118.096,-354.81 174,-403.5 286.945,-501.871 354.982,-499.395 503,-476.5 520.786,-473.749 539.85,-468.158 555.948,-462.612"/>
<polygon fill="midnightblue" stroke="midnightblue" points="78.6749,-228.684 72.5196,-220.06 71.9539,-230.64 78.6749,-228.684"/>
</g>
<!-- Node9 -->
<g id="node9" class="node"><title>Node9</title>
<g id="a_node9"><a xlink:href="classDisplaySplitWidget.html#a0a3afd6247d51bc2ca6fabfc30ff9548" target="_top" xlink:title="DisplaySplitWidget\l::mouseReleaseEvent">
<polygon fill="white" stroke="black" points="539,-284.5 539,-314.5 652,-314.5 652,-284.5 539,-284.5"/>
<text text-anchor="start" x="547" y="-302.5" font-family="Helvetica,sans-Serif" font-size="10.00">DisplaySplitWidget</text>
<text text-anchor="middle" x="595.5" y="-291.5" font-family="Helvetica,sans-Serif" font-size="10.00">::mouseReleaseEvent</text>
</a>
</g>
</g>
<!-- Node1&#45;&gt;Node9 -->
<g id="edge14" class="edge"><title>Node1&#45;&gt;Node9</title>
<path fill="none" stroke="midnightblue" d="M148.278,-205.195C256.051,-199.239 443.56,-194.108 503,-225.5 526.896,-238.12 517.991,-257.504 539,-274.5 543.601,-278.222 548.845,-281.512 554.23,-284.381"/>
<polygon fill="midnightblue" stroke="midnightblue" points="147.89,-201.712 138.104,-205.773 148.287,-208.701 147.89,-201.712"/>
</g>
<!-- Node10 -->
<g id="node10" class="node"><title>Node10</title>
<g id="a_node10"><a xlink:href="classDisplayWidget.html#a822a3c50c6c602fafff6ef2132ccdb42" target="_top" xlink:title="DisplayWidget::setDisplayRect">
<polygon fill="white" stroke="black" points="177,-323 177,-342 331,-342 331,-323 177,-323"/>
<text text-anchor="middle" x="254" y="-330" font-family="Helvetica,sans-Serif" font-size="10.00">DisplayWidget::setDisplayRect</text>
</a>
</g>
</g>
<!-- Node1&#45;&gt;Node10 -->
<g id="edge15" class="edge"><title>Node1&#45;&gt;Node10</title>
<path fill="none" stroke="midnightblue" d="M92.79,-225.693C131.048,-251.199 207.099,-301.9 238.707,-322.971"/>
<polygon fill="midnightblue" stroke="midnightblue" points="94.6217,-222.708 84.3597,-220.073 90.7388,-228.532 94.6217,-222.708"/>
</g>
<!-- Node22 -->
<g id="node22" class="node"><title>Node22</title>
<g id="a_node22"><a xlink:href="classDisplayWidget.html#a871f1e96b7032b27fe067d6f2feaa384" target="_top" xlink:title="DisplayWidget::drawRegularGrid">
<polygon fill="white" stroke="black" points="174.5,-49 174.5,-68 333.5,-68 333.5,-49 174.5,-49"/>
<text text-anchor="middle" x="254" y="-56" font-family="Helvetica,sans-Serif" font-size="10.00">DisplayWidget::drawRegularGrid</text>
</a>
</g>
</g>
<!-- Node1&#45;&gt;Node22 -->
<g id="edge35" class="edge"><title>Node1&#45;&gt;Node22</title>
<path fill="none" stroke="midnightblue" d="M80.0748,-192.106C96.2474,-164.279 130.633,-111.644 174,-82.5 183.28,-76.2636 194.239,-71.5995 204.992,-68.1285"/>
<polygon fill="midnightblue" stroke="midnightblue" points="77.0135,-190.409 75.129,-200.835 83.1039,-193.859 77.0135,-190.409"/>
</g>
<!-- Node23 -->
<g id="node23" class="node"><title>Node23</title>
<g id="a_node23"><a xlink:href="classDisplayWidget.html#a753fc8e8eda233123a20940439599c51" target="_top" xlink:title="DisplayWidget::paintEvent">
<polygon fill="white" stroke="black" points="370,-89 370,-108 503,-108 503,-89 370,-89"/>
<text text-anchor="middle" x="436.5" y="-96" font-family="Helvetica,sans-Serif" font-size="10.00">DisplayWidget::paintEvent</text>
</a>
</g>
</g>
<!-- Node1&#45;&gt;Node23 -->
<g id="edge39" class="edge"><title>Node1&#45;&gt;Node23</title>
<path fill="none" stroke="midnightblue" d="M83.1516,-192.601C100.908,-170.03 134.87,-132.162 174,-115.5 236.578,-88.8533 315.248,-87.5315 369.874,-91.0434"/>
<polygon fill="midnightblue" stroke="midnightblue" points="80.2562,-190.625 76.9629,-200.695 85.8172,-194.877 80.2562,-190.625"/>
</g>
<!-- Node24 -->
<g id="node24" class="node"><title>Node24</title>
<g id="a_node24"><a xlink:href="classDisplayWidget.html#af5262746328c86b17bad250fdcb86f6e" target="_top" xlink:title="DisplayWidget::drawZoomFactor">
<polygon fill="white" stroke="black" points="174,-163 174,-182 334,-182 334,-163 174,-163"/>
<text text-anchor="middle" x="254" y="-170" font-family="Helvetica,sans-Serif" font-size="10.00">DisplayWidget::drawZoomFactor</text>
</a>
</g>
</g>
<!-- Node1&#45;&gt;Node24 -->
<g id="edge37" class="edge"><title>Node1&#45;&gt;Node24</title>
<path fill="none" stroke="midnightblue" d="M126.253,-198.819C152.205,-193.43 182.622,-187.114 207.153,-182.02"/>
<polygon fill="midnightblue" stroke="midnightblue" points="125.258,-195.451 116.179,-200.911 126.681,-202.305 125.258,-195.451"/>
</g>
<!-- Node25 -->
<g id="node25" class="node"><title>Node25</title>
<g id="a_node25"><a xlink:href="classDisplayWidget.html#a8d78d2571b0b962ffda77608e24bd10c" target="_top" xlink:title="DisplayWidget::drawZoomBox">
<polygon fill="white" stroke="black" points="179.5,-125 179.5,-144 328.5,-144 328.5,-125 179.5,-125"/>
<text text-anchor="middle" x="254" y="-132" font-family="Helvetica,sans-Serif" font-size="10.00">DisplayWidget::drawZoomBox</text>
</a>
</g>
</g>
<!-- Node1&#45;&gt;Node25 -->
<g id="edge40" class="edge"><title>Node1&#45;&gt;Node25</title>
<path fill="none" stroke="midnightblue" d="M93.1906,-195.445C113.716,-182.702 144.854,-164.761 174,-153.5 183.606,-149.789 194.157,-146.649 204.333,-144.057"/>
<polygon fill="midnightblue" stroke="midnightblue" points="91.1443,-192.598 84.5521,-200.892 94.8778,-198.519 91.1443,-192.598"/>
</g>
<!-- Node2&#45;&gt;Node3 -->
<g id="edge2" class="edge"><title>Node2&#45;&gt;Node3</title>
<path fill="none" stroke="midnightblue" d="M496.593,-469.061C512.692,-473.573 529.953,-478.41 545.43,-482.748"/>
<polygon fill="midnightblue" stroke="midnightblue" points="497.319,-465.63 486.745,-466.301 495.43,-472.37 497.319,-465.63"/>
</g>
<!-- Node2&#45;&gt;Node7 -->
<g id="edge6" class="edge"><title>Node2&#45;&gt;Node7</title>
<path fill="none" stroke="midnightblue" d="M497.049,-450.604C513.017,-450.095 530.099,-449.551 545.43,-449.063"/>
<polygon fill="midnightblue" stroke="midnightblue" points="496.629,-447.115 486.745,-450.932 496.851,-454.112 496.629,-447.115"/>
</g>
<!-- Node8 -->
<g id="node8" class="node"><title>Node8</title>
<g id="a_node8"><a xlink:href="classDisplaySplitWidget.html#a43d312016afd6d843f1c624905f4afee" target="_top" xlink:title="DisplaySplitWidget\l::zoomToFit">
<polygon fill="white" stroke="black" points="545.5,-383.5 545.5,-413.5 645.5,-413.5 645.5,-383.5 545.5,-383.5"/>
<text text-anchor="start" x="553.5" y="-401.5" font-family="Helvetica,sans-Serif" font-size="10.00">DisplaySplitWidget</text>
<text text-anchor="middle" x="595.5" y="-390.5" font-family="Helvetica,sans-Serif" font-size="10.00">::zoomToFit</text>
</a>
</g>
</g>
<!-- Node2&#45;&gt;Node8 -->
<g id="edge9" class="edge"><title>Node2&#45;&gt;Node8</title>
<path fill="none" stroke="midnightblue" d="M490.887,-434.138C510.376,-427.434 532.174,-419.937 550.729,-413.555"/>
<polygon fill="midnightblue" stroke="midnightblue" points="489.551,-430.896 481.233,-437.458 491.828,-437.515 489.551,-430.896"/>
</g>
<!-- Node2&#45;&gt;Node9 -->
<g id="edge10" class="edge"><title>Node2&#45;&gt;Node9</title>
<path fill="none" stroke="midnightblue" d="M451.232,-428.515C468.524,-400.135 500.659,-353.021 539,-323.5 543.325,-320.17 548.183,-317.202 553.179,-314.587"/>
<polygon fill="midnightblue" stroke="midnightblue" points="448.067,-426.988 445.949,-437.369 454.078,-430.575 448.067,-426.988"/>
</g>
<!-- Node4 -->
<g id="node4" class="node"><title>Node4</title>
<g id="a_node4"><a xlink:href="classDisplaySplitWidget.html#a95fb887b76609440c606ddccadee2318" target="_top" xlink:title="DisplaySplitWidget\l::gestureEvent">
<polygon fill="white" stroke="black" points="703.5,-481.5 703.5,-511.5 803.5,-511.5 803.5,-481.5 703.5,-481.5"/>
<text text-anchor="start" x="711.5" y="-499.5" font-family="Helvetica,sans-Serif" font-size="10.00">DisplaySplitWidget</text>
<text text-anchor="middle" x="753.5" y="-488.5" font-family="Helvetica,sans-Serif" font-size="10.00">::gestureEvent</text>
</a>
</g>
</g>
<!-- Node3&#45;&gt;Node4 -->
<g id="edge3" class="edge"><title>Node3&#45;&gt;Node4</title>
<path fill="none" stroke="midnightblue" d="M655.982,-496.5C671.662,-496.5 688.401,-496.5 703.462,-496.5"/>
<polygon fill="midnightblue" stroke="midnightblue" points="655.859,-493 645.859,-496.5 655.859,-500 655.859,-493"/>
</g>
<!-- Node6 -->
<g id="node6" class="node"><title>Node6</title>
<g id="a_node6"><a xlink:href="classDisplaySplitWidget.html#a3560f335caf77049205e63785c8073ba" target="_top" xlink:title="DisplaySplitWidget\l::wheelEvent">
<polygon fill="white" stroke="black" points="703.5,-432.5 703.5,-462.5 803.5,-462.5 803.5,-432.5 703.5,-432.5"/>
<text text-anchor="start" x="711.5" y="-450.5" font-family="Helvetica,sans-Serif" font-size="10.00">DisplaySplitWidget</text>
<text text-anchor="middle" x="753.5" y="-439.5" font-family="Helvetica,sans-Serif" font-size="10.00">::wheelEvent</text>
</a>
</g>
</g>
<!-- Node3&#45;&gt;Node6 -->
<g id="edge5" class="edge"><title>Node3&#45;&gt;Node6</title>
<path fill="none" stroke="midnightblue" d="M654.166,-478.387C670.75,-473.178 688.654,-467.554 704.581,-462.552"/>
<polygon fill="midnightblue" stroke="midnightblue" points="653.07,-475.063 644.578,-481.399 655.167,-481.741 653.07,-475.063"/>
</g>
<!-- Node5 -->
<g id="node5" class="node"><title>Node5</title>
<g id="a_node5"><a xlink:href="classDisplaySplitWidget.html#a152c9ea9cbd3aa079800b6c1d0fbb284" target="_top" xlink:title="DisplaySplitWidget\l::event">
<polygon fill="white" stroke="black" points="855,-353.5 855,-383.5 955,-383.5 955,-353.5 855,-353.5"/>
<text text-anchor="start" x="863" y="-371.5" font-family="Helvetica,sans-Serif" font-size="10.00">DisplaySplitWidget</text>
<text text-anchor="middle" x="905" y="-360.5" font-family="Helvetica,sans-Serif" font-size="10.00">::event</text>
</a>
</g>
</g>
<!-- Node4&#45;&gt;Node5 -->
<g id="edge4" class="edge"><title>Node4&#45;&gt;Node5</title>
<path fill="none" stroke="midnightblue" d="M810.688,-476.832C813.579,-475.174 816.371,-473.398 819,-471.5 853.024,-446.936 881.427,-405.618 895.149,-383.517"/>
<polygon fill="midnightblue" stroke="midnightblue" points="809.041,-473.743 801.78,-481.458 812.267,-479.955 809.041,-473.743"/>
</g>
<!-- Node7&#45;&gt;Node4 -->
<g id="edge7" class="edge"><title>Node7&#45;&gt;Node4</title>
<path fill="none" stroke="midnightblue" d="M654.166,-465.613C670.75,-470.822 688.654,-476.446 704.581,-481.448"/>
<polygon fill="midnightblue" stroke="midnightblue" points="655.167,-462.259 644.578,-462.601 653.07,-468.937 655.167,-462.259"/>
</g>
<!-- Node7&#45;&gt;Node6 -->
<g id="edge8" class="edge"><title>Node7&#45;&gt;Node6</title>
<path fill="none" stroke="midnightblue" d="M655.982,-447.5C671.662,-447.5 688.401,-447.5 703.462,-447.5"/>
<polygon fill="midnightblue" stroke="midnightblue" points="655.859,-444 645.859,-447.5 655.859,-451 655.859,-444"/>
</g>
<!-- Node9&#45;&gt;Node5 -->
<g id="edge11" class="edge"><title>Node9&#45;&gt;Node5</title>
<path fill="none" stroke="midnightblue" d="M662.366,-299.071C707.398,-300.445 767.94,-305.603 819,-321.5 842.024,-328.668 865.848,-342.493 882.394,-353.302"/>
<polygon fill="midnightblue" stroke="midnightblue" points="662.222,-295.566 652.138,-298.815 662.047,-302.564 662.222,-295.566"/>
</g>
<!-- Node10&#45;&gt;Node2 -->
<g id="edge16" class="edge"><title>Node10&#45;&gt;Node2</title>
<path fill="none" stroke="midnightblue" d="M274.492,-348.661C301.879,-371.209 350.57,-410.674 370,-422.5 378.975,-427.963 389.112,-433.07 398.682,-437.468"/>
<polygon fill="midnightblue" stroke="midnightblue" points="276.673,-345.923 266.733,-342.256 272.217,-351.322 276.673,-345.923"/>
</g>
<!-- Node10&#45;&gt;Node3 -->
<g id="edge17" class="edge"><title>Node10&#45;&gt;Node3</title>
<path fill="none" stroke="midnightblue" d="M263.665,-351.257C279.596,-383.316 316.844,-447.951 370,-476.5 424.639,-505.846 497.678,-506.52 545.388,-502.777"/>
<polygon fill="midnightblue" stroke="midnightblue" points="266.739,-349.573 259.249,-342.08 260.431,-352.608 266.739,-349.573"/>
</g>
<!-- Node10&#45;&gt;Node7 -->
<g id="edge18" class="edge"><title>Node10&#45;&gt;Node7</title>
<path fill="none" stroke="midnightblue" d="M284.244,-346.456C307.24,-357.125 340.252,-371.776 370,-382.5 429.358,-403.897 499.437,-423.282 545.312,-435.205"/>
<polygon fill="midnightblue" stroke="midnightblue" points="285.582,-343.218 275.041,-342.15 282.615,-349.558 285.582,-343.218"/>
</g>
<!-- Node10&#45;&gt;Node8 -->
<g id="edge19" class="edge"><title>Node10&#45;&gt;Node8</title>
<path fill="none" stroke="midnightblue" d="M312.261,-344.048C330.689,-347.739 351.202,-351.82 370,-355.5 430.365,-367.317 499.931,-380.588 545.428,-389.22"/>
<polygon fill="midnightblue" stroke="midnightblue" points="312.755,-340.577 302.262,-342.043 311.378,-347.44 312.755,-340.577"/>
</g>
<!-- Node10&#45;&gt;Node9 -->
<g id="edge24" class="edge"><title>Node10&#45;&gt;Node9</title>
<path fill="none" stroke="midnightblue" d="M341.366,-324.105C403.442,-318.071 485.313,-310.113 538.901,-304.904"/>
<polygon fill="midnightblue" stroke="midnightblue" points="340.805,-320.643 331.19,-325.094 341.482,-327.61 340.805,-320.643"/>
</g>
<!-- Node11 -->
<g id="node11" class="node"><title>Node11</title>
<g id="a_node11"><a xlink:href="classDisplaySplitWidget.html#a9421eba026630943587a9ae226c7f8d6" target="_top" xlink:title="DisplaySplitWidget\l::panDisplay">
<polygon fill="white" stroke="black" points="545.5,-333.5 545.5,-363.5 645.5,-363.5 645.5,-333.5 545.5,-333.5"/>
<text text-anchor="start" x="553.5" y="-351.5" font-family="Helvetica,sans-Serif" font-size="10.00">DisplaySplitWidget</text>
<text text-anchor="middle" x="595.5" y="-340.5" font-family="Helvetica,sans-Serif" font-size="10.00">::panDisplay</text>
</a>
</g>
</g>
<!-- Node10&#45;&gt;Node11 -->
<g id="edge20" class="edge"><title>Node10&#45;&gt;Node11</title>
<path fill="none" stroke="midnightblue" d="M341.369,-336.57C405.985,-339.616 492.047,-343.672 545.334,-346.183"/>
<polygon fill="midnightblue" stroke="midnightblue" points="341.344,-333.065 331.19,-336.091 341.015,-340.058 341.344,-333.065"/>
</g>
<!-- Node13 -->
<g id="node13" class="node"><title>Node13</title>
<g id="a_node13"><a xlink:href="classDisplaySplitWidget.html#a337e94b12c4e1837457997cf9d074046" target="_top" xlink:title="DisplaySplitWidget\l::splitterMovedTo">
<polygon fill="white" stroke="black" points="386.5,-235.5 386.5,-265.5 486.5,-265.5 486.5,-235.5 386.5,-235.5"/>
<text text-anchor="start" x="394.5" y="-253.5" font-family="Helvetica,sans-Serif" font-size="10.00">DisplaySplitWidget</text>
<text text-anchor="middle" x="436.5" y="-242.5" font-family="Helvetica,sans-Serif" font-size="10.00">::splitterMovedTo</text>
</a>
</g>
</g>
<!-- Node10&#45;&gt;Node13 -->
<g id="edge25" class="edge"><title>Node10&#45;&gt;Node13</title>
<path fill="none" stroke="midnightblue" d="M285.475,-318.655C317.878,-303.935 368.96,-280.729 402.349,-265.56"/>
<polygon fill="midnightblue" stroke="midnightblue" points="283.716,-315.61 276.059,-322.933 286.611,-321.983 283.716,-315.61"/>
</g>
<!-- Node15 -->
<g id="node15" class="node"><title>Node15</title>
<g id="a_node15"><a xlink:href="classDisplaySplitWidget.html#ac88b455e49d13fb34439e45838e468d9" target="_top" xlink:title="DisplaySplitWidget\l::updateView">
<polygon fill="white" stroke="black" points="386.5,-135.5 386.5,-165.5 486.5,-165.5 486.5,-135.5 386.5,-135.5"/>
<text text-anchor="start" x="394.5" y="-153.5" font-family="Helvetica,sans-Serif" font-size="10.00">DisplaySplitWidget</text>
<text text-anchor="middle" x="436.5" y="-142.5" font-family="Helvetica,sans-Serif" font-size="10.00">::updateView</text>
</a>
</g>
</g>
<!-- Node10&#45;&gt;Node15 -->
<g id="edge27" class="edge"><title>Node10&#45;&gt;Node15</title>
<path fill="none" stroke="midnightblue" d="M271.829,-315.531C306.82,-280.249 386.941,-199.463 420.392,-165.733"/>
<polygon fill="midnightblue" stroke="midnightblue" points="269.261,-313.15 264.704,-322.715 274.231,-318.079 269.261,-313.15"/>
</g>
<!-- Node11&#45;&gt;Node5 -->
<g id="edge21" class="edge"><title>Node11&#45;&gt;Node5</title>
<path fill="none" stroke="midnightblue" d="M655.272,-364.787C666.077,-367.164 677.317,-369.234 688,-370.5 744.979,-377.254 811.004,-375.22 854.909,-372.491"/>
<polygon fill="midnightblue" stroke="midnightblue" points="656.031,-361.37 645.5,-362.532 654.457,-368.191 656.031,-361.37"/>
</g>
<!-- Node12 -->
<g id="node12" class="node"><title>Node12</title>
<g id="a_node12"><a xlink:href="classDisplaySplitWidget.html#a66c16edce3aae0df82f888348cd7590d" target="_top" xlink:title="DisplaySplitWidget\l::mouseMoveEvent">
<polygon fill="white" stroke="black" points="703,-331.5 703,-361.5 804,-361.5 804,-331.5 703,-331.5"/>
<text text-anchor="start" x="711" y="-349.5" font-family="Helvetica,sans-Serif" font-size="10.00">DisplaySplitWidget</text>
<text text-anchor="middle" x="753.5" y="-338.5" font-family="Helvetica,sans-Serif" font-size="10.00">::mouseMoveEvent</text>
</a>
</g>
</g>
<!-- Node11&#45;&gt;Node12 -->
<g id="edge22" class="edge"><title>Node11&#45;&gt;Node12</title>
<path fill="none" stroke="midnightblue" d="M655.882,-347.739C671.405,-347.54 687.973,-347.327 702.926,-347.136"/>
<polygon fill="midnightblue" stroke="midnightblue" points="655.814,-344.239 645.859,-347.867 655.903,-351.239 655.814,-344.239"/>
</g>
<!-- Node12&#45;&gt;Node5 -->
<g id="edge23" class="edge"><title>Node12&#45;&gt;Node5</title>
<path fill="none" stroke="midnightblue" d="M814.411,-355.316C827.867,-357.296 841.992,-359.375 854.945,-361.281"/>
<polygon fill="midnightblue" stroke="midnightblue" points="814.684,-351.819 804.281,-353.826 813.665,-358.744 814.684,-351.819"/>
</g>
<!-- Node14 -->
<g id="node14" class="node"><title>Node14</title>
<g id="a_node14"><a xlink:href="classDisplaySplitWidget.html#ae32ceae7f4472266eabd00877651441b" target="_top" xlink:title="DisplaySplitWidget\l::DisplaySplitWidget">
<polygon fill="white" stroke="black" points="542.5,-235.5 542.5,-265.5 648.5,-265.5 648.5,-235.5 542.5,-235.5"/>
<text text-anchor="start" x="550.5" y="-253.5" font-family="Helvetica,sans-Serif" font-size="10.00">DisplaySplitWidget</text>
<text text-anchor="middle" x="595.5" y="-242.5" font-family="Helvetica,sans-Serif" font-size="10.00">::DisplaySplitWidget</text>
</a>
</g>
</g>
<!-- Node13&#45;&gt;Node14 -->
<g id="edge26" class="edge"><title>Node13&#45;&gt;Node14</title>
<path fill="none" stroke="midnightblue" d="M496.926,-250.5C511.901,-250.5 527.861,-250.5 542.444,-250.5"/>
<polygon fill="midnightblue" stroke="midnightblue" points="496.745,-247 486.745,-250.5 496.745,-254 496.745,-247"/>
</g>
<!-- Node16 -->
<g id="node16" class="node"><title>Node16</title>
<g id="a_node16"><a xlink:href="classDisplaySplitWidget.html#af09b165924f8be5a31873f3b11c8b3f9" target="_top" xlink:title="DisplaySplitWidget\l::resetViews">
<polygon fill="white" stroke="black" points="545.5,-88.5 545.5,-118.5 645.5,-118.5 645.5,-88.5 545.5,-88.5"/>
<text text-anchor="start" x="553.5" y="-106.5" font-family="Helvetica,sans-Serif" font-size="10.00">DisplaySplitWidget</text>
<text text-anchor="middle" x="595.5" y="-95.5" font-family="Helvetica,sans-Serif" font-size="10.00">::resetViews</text>
</a>
</g>
</g>
<!-- Node15&#45;&gt;Node16 -->
<g id="edge28" class="edge"><title>Node15&#45;&gt;Node16</title>
<path fill="none" stroke="midnightblue" d="M496.593,-132.81C512.692,-127.99 529.953,-122.823 545.43,-118.19"/>
<polygon fill="midnightblue" stroke="midnightblue" points="495.321,-129.537 486.745,-135.758 497.329,-136.243 495.321,-129.537"/>
</g>
<!-- Node18 -->
<g id="node18" class="node"><title>Node18</title>
<g id="a_node18"><a xlink:href="classDisplaySplitWidget.html#a0c0ae7b4fb7ddc344fec1a59034b771b" target="_top" xlink:title="DisplaySplitWidget\l::zoomToStandard">
<polygon fill="white" stroke="black" points="703.5,-44.5 703.5,-74.5 803.5,-74.5 803.5,-44.5 703.5,-44.5"/>
<text text-anchor="start" x="711.5" y="-62.5" font-family="Helvetica,sans-Serif" font-size="10.00">DisplaySplitWidget</text>
<text text-anchor="middle" x="753.5" y="-51.5" font-family="Helvetica,sans-Serif" font-size="10.00">::zoomToStandard</text>
</a>
</g>
</g>
<!-- Node15&#45;&gt;Node18 -->
<g id="edge31" class="edge"><title>Node15&#45;&gt;Node18</title>
<path fill="none" stroke="midnightblue" d="M482.276,-130.667C489.472,-126.721 496.638,-122.297 503,-117.5 521.835,-103.299 517.832,-88.9103 539,-78.5 590.759,-53.045 658.108,-51.4492 703.195,-54.1521"/>
<polygon fill="midnightblue" stroke="midnightblue" points="480.448,-127.673 473.202,-135.402 483.687,-133.878 480.448,-127.673"/>
</g>
<!-- Node19 -->
<g id="node19" class="node"><title>Node19</title>
<g id="a_node19"><a xlink:href="classDisplaySplitWidget.html#a85aefaa2dbd64ebf686448a2c006f96d" target="_top" xlink:title="DisplaySplitWidget\l::setSplitEnabled">
<polygon fill="white" stroke="black" points="545.5,-0.5 545.5,-30.5 645.5,-30.5 645.5,-0.5 545.5,-0.5"/>
<text text-anchor="start" x="553.5" y="-18.5" font-family="Helvetica,sans-Serif" font-size="10.00">DisplaySplitWidget</text>
<text text-anchor="middle" x="595.5" y="-7.5" font-family="Helvetica,sans-Serif" font-size="10.00">::setSplitEnabled</text>
</a>
</g>
</g>
<!-- Node15&#45;&gt;Node19 -->
<g id="edge32" class="edge"><title>Node15&#45;&gt;Node19</title>
<path fill="none" stroke="midnightblue" d="M486.502,-130.329C492.477,-126.613 498.168,-122.347 503,-117.5 528.26,-92.1632 514.109,-71.1985 539,-45.5 544.639,-39.6781 551.656,-34.7152 558.782,-30.6013"/>
<polygon fill="midnightblue" stroke="midnightblue" points="484.575,-127.399 477.61,-135.383 488.034,-133.484 484.575,-127.399"/>
</g>
<!-- Node20 -->
<g id="node20" class="node"><title>Node20</title>
<g id="a_node20"><a xlink:href="classDisplaySplitWidget.html#a2c0dcc84e9609d30e1eadd8340493e0b" target="_top" xlink:title="DisplaySplitWidget\l::resizeEvent">
<polygon fill="white" stroke="black" points="545.5,-186.5 545.5,-216.5 645.5,-216.5 645.5,-186.5 545.5,-186.5"/>
<text text-anchor="start" x="553.5" y="-204.5" font-family="Helvetica,sans-Serif" font-size="10.00">DisplaySplitWidget</text>
<text text-anchor="middle" x="595.5" y="-193.5" font-family="Helvetica,sans-Serif" font-size="10.00">::resizeEvent</text>
</a>
</g>
</g>
<!-- Node15&#45;&gt;Node20 -->
<g id="edge33" class="edge"><title>Node15&#45;&gt;Node20</title>
<path fill="none" stroke="midnightblue" d="M493.525,-168.699C511.475,-174.53 531.138,-180.917 548.304,-186.494"/>
<polygon fill="midnightblue" stroke="midnightblue" points="494.348,-165.287 483.756,-165.526 492.185,-171.944 494.348,-165.287"/>
</g>
<!-- Node21 -->
<g id="node21" class="node"><title>Node21</title>
<g id="a_node21"><a xlink:href="classDisplaySplitWidget.html#abe7686903d7727bd0f882dc68459f22d" target="_top" xlink:title="DisplaySplitWidget\l::setViewMode">
<polygon fill="white" stroke="black" points="545.5,-137.5 545.5,-167.5 645.5,-167.5 645.5,-137.5 545.5,-137.5"/>
<text text-anchor="start" x="553.5" y="-155.5" font-family="Helvetica,sans-Serif" font-size="10.00">DisplaySplitWidget</text>
<text text-anchor="middle" x="595.5" y="-144.5" font-family="Helvetica,sans-Serif" font-size="10.00">::setViewMode</text>
</a>
</g>
</g>
<!-- Node15&#45;&gt;Node21 -->
<g id="edge34" class="edge"><title>Node15&#45;&gt;Node21</title>
<path fill="none" stroke="midnightblue" d="M497.049,-151.259C513.017,-151.462 530.099,-151.68 545.43,-151.875"/>
<polygon fill="midnightblue" stroke="midnightblue" points="496.789,-147.755 486.745,-151.127 496.7,-154.755 496.789,-147.755"/>
</g>
<!-- Node17 -->
<g id="node17" class="node"><title>Node17</title>
<g id="a_node17"><a xlink:href="classDisplaySplitWidget.html#a6ac792979681575417245e357cdadb69" target="_top" xlink:title="DisplaySplitWidget\l::setActiveDisplayObjects">
<polygon fill="white" stroke="black" points="688,-93.5 688,-123.5 819,-123.5 819,-93.5 688,-93.5"/>
<text text-anchor="start" x="696" y="-111.5" font-family="Helvetica,sans-Serif" font-size="10.00">DisplaySplitWidget</text>
<text text-anchor="middle" x="753.5" y="-100.5" font-family="Helvetica,sans-Serif" font-size="10.00">::setActiveDisplayObjects</text>
</a>
</g>
</g>
<!-- Node16&#45;&gt;Node17 -->
<g id="edge29" class="edge"><title>Node16&#45;&gt;Node17</title>
<path fill="none" stroke="midnightblue" d="M656.047,-105.409C666.418,-105.741 677.251,-106.088 687.754,-106.425"/>
<polygon fill="midnightblue" stroke="midnightblue" points="655.966,-101.904 645.859,-105.082 655.742,-108.901 655.966,-101.904"/>
</g>
<!-- Node16&#45;&gt;Node18 -->
<g id="edge30" class="edge"><title>Node16&#45;&gt;Node18</title>
<path fill="none" stroke="midnightblue" d="M655.534,-86.8493C671.343,-82.3905 688.258,-77.6196 703.462,-73.3313"/>
<polygon fill="midnightblue" stroke="midnightblue" points="654.534,-83.4949 645.859,-89.5781 656.434,-90.232 654.534,-83.4949"/>
</g>
<!-- Node22&#45;&gt;Node23 -->
<g id="edge36" class="edge"><title>Node22&#45;&gt;Node23</title>
<path fill="none" stroke="midnightblue" d="M308.256,-70.302C335.15,-76.2617 367.343,-83.3959 392.619,-88.9972"/>
<polygon fill="midnightblue" stroke="midnightblue" points="308.755,-66.8275 298.234,-68.081 307.24,-73.6618 308.755,-66.8275"/>
</g>
<!-- Node24&#45;&gt;Node23 -->
<g id="edge38" class="edge"><title>Node24&#45;&gt;Node23</title>
<path fill="none" stroke="midnightblue" d="M318.217,-159.884C323.661,-158.026 328.995,-155.909 334,-153.5 352.265,-144.71 352.47,-135.677 370,-125.5 381.807,-118.645 395.689,-112.659 407.628,-108.076"/>
<polygon fill="midnightblue" stroke="midnightblue" points="316.855,-156.643 308.347,-162.957 318.935,-163.326 316.855,-156.643"/>
</g>
<!-- Node25&#45;&gt;Node23 -->
<g id="edge41" class="edge"><title>Node25&#45;&gt;Node23</title>
<path fill="none" stroke="midnightblue" d="M312.992,-122.934C337.11,-118.123 364.767,-112.607 387.693,-108.035"/>
<polygon fill="midnightblue" stroke="midnightblue" points="312.019,-119.559 302.897,-124.947 313.388,-126.424 312.019,-119.559"/>
</g>
</g>
</svg>
        <g id="navigator" transform="translate(0 0)" fill="#404254">
                <rect fill="#f2f5e9" fill-opacity="0.5" stroke="#606060" stroke-width=".5" x="0" y="0" width="60" height="60"/>
                <use id="zoomplus" xlink:href="#zoomPlus" x="17" y="9" onmousedown="handleZoom(evt,'in')"/>
                <use id="zoomminus" xlink:href="#zoomMin" x="42" y="9" onmousedown="handleZoom(evt,'out')"/>
                <use id="reset" xlink:href="#resetDef" x="30" y="36" onmousedown="handleReset()"/>
                <g id="arrowUp" xlink:href="#dirArrow" transform="translate(30 24)" onmousedown="handlePan(0,-1)">
                  <use xlink:href="#rim" fill="#404040">
                        <set attributeName="fill" to="#808080" begin="arrowUp.mouseover" end="arrowUp.mouseout"/>
                  </use>
                  <path fill="none" stroke="white" stroke-width="1.5" d="M0,-3.0v7 M-2.5,-0.5L0,-3.0L2.5,-0.5"/>
                </g>
                <g id="arrowRight" xlink:href="#dirArrow" transform="rotate(90) translate(36 -43)" onmousedown="handlePan(1,0)">
                  <use xlink:href="#rim" fill="#404040">
                        <set attributeName="fill" to="#808080" begin="arrowRight.mouseover" end="arrowRight.mouseout"/>
                  </use>
                  <path fill="none" stroke="white" stroke-width="1.5" d="M0,-3.0v7 M-2.5,-0.5L0,-3.0L2.5,-0.5"/>
                </g>
                <g id="arrowDown" xlink:href="#dirArrow" transform="rotate(180) translate(-30 -48)" onmousedown="handlePan(0,1)">
                  <use xlink:href="#rim" fill="#404040">
                        <set attributeName="fill" to="#808080" begin="arrowDown.mouseover" end="arrowDown.mouseout"/>
                  </use>
                  <path fill="none" stroke="white" stroke-width="1.5" d="M0,-3.0v7 M-2.5,-0.5L0,-3.0L2.5,-0.5"/>
                </g>
                <g id="arrowLeft" xlink:href="#dirArrow" transform="rotate(270) translate(-36 17)" onmousedown="handlePan(-1,0)">
                  <use xlink:href="#rim" fill="#404040">
                        <set attributeName="fill" to="#808080" begin="arrowLeft.mouseover" end="arrowLeft.mouseout"/>
                  </use>
                  <path fill="none" stroke="white" stroke-width="1.5" d="M0,-3.0v7 M-2.5,-0.5L0,-3.0L2.5,-0.5"/>
                </g>
        </g>
        <svg viewBox="0 0 15 15" width="100%" height="30px" preserveAspectRatio="xMaxYMin meet">
         <g id="arrow_out" transform="scale(0.3 0.3)">
          <a xlink:href="classDisplayWidget_a59b9a00276458fae6c0c2db850a87616_icgraph_org.svg" target="_base">
           <rect id="button" ry="5" rx="5" y="6" x="6" height="38" width="38"
                fill="#f2f5e9" fill-opacity="0.5" stroke="#606060" stroke-width="1.0"/>
           <path id="arrow"
             d="M 11.500037,31.436501 C 11.940474,20.09759 22.043105,11.32322 32.158766,21.979434 L 37.068811,17.246167 C 37.068811,17.246167 37.088388,32 37.088388,32 L 22.160133,31.978069 C 22.160133,31.978069 26.997745,27.140456 26.997745,27.140456 C 18.528582,18.264221 13.291696,25.230495 11.500037,31.436501 z"
             style="fill:#404040;"/>
          </a>
         </g>
        </svg>
</svg>
