<?xml version="1.0" encoding="UTF-8" standalone="no"?>
<!DOCTYPE svg PUBLIC "-//W3C//DTD SVG 1.1//EN"
 "http://www.w3.org/Graphics/SVG/1.1/DTD/svg11.dtd">
<!-- Generated by graphviz version 2.38.0 (20140413.2041)
 -->
<!-- Title: EditTextDialog::getFont Pages: 1 -->
<svg width="695pt" height="127pt"
 viewBox="0.00 0.00 695.00 127.00" xmlns="http://www.w3.org/2000/svg" xmlns:xlink="http://www.w3.org/1999/xlink">
<g id="graph0" class="graph" transform="scale(1 1) rotate(0) translate(4 123)">
<title>EditTextDialog::getFont</title>
<polygon fill="white" stroke="none" points="-4,4 -4,-123 691,-123 691,4 -4,4"/>
<!-- Node1 -->
<g id="node1" class="node"><title>Node1</title>
<polygon fill="#bfbfbf" stroke="black" points="0,-50 0,-69 120,-69 120,-50 0,-50"/>
<text text-anchor="middle" x="60" y="-57" font-family="Helvetica,sans-Serif" font-size="10.00">EditTextDialog::getFont</text>
</g>
<!-- Node2 -->
<g id="node2" class="node"><title>Node2</title>
<g id="a_node2"><a xlink:href="classMainWindow.html#ab547038b4acd1eab08a2693d47d8a8c4" target="_top" xlink:title="Adds a new text frame. ">
<polygon fill="white" stroke="black" points="156,-69 156,-88 298,-88 298,-69 156,-69"/>
<text text-anchor="middle" x="227" y="-76" font-family="Helvetica,sans-Serif" font-size="10.00">MainWindow::addTextFrame</text>
</a>
</g>
</g>
<!-- Node1&#45;&gt;Node2 -->
<g id="edge1" class="edge"><title>Node1&#45;&gt;Node2</title>
<path fill="none" stroke="midnightblue" d="M130.269,-67.4765C138.701,-68.4474 147.322,-69.4402 155.768,-70.4127"/>
<polygon fill="midnightblue" stroke="midnightblue" points="130.438,-63.9728 120.103,-66.3058 129.637,-70.9268 130.438,-63.9728"/>
</g>
<!-- Node6 -->
<g id="node6" class="node"><title>Node6</title>
<g id="a_node6"><a xlink:href="classMainWindow.html#af5ecc7c65080215b49b9d931c56c65c9" target="_top" xlink:title="MainWindow::editTextFrame">
<polygon fill="white" stroke="black" points="156,-31 156,-50 298,-50 298,-31 156,-31"/>
<text text-anchor="middle" x="227" y="-38" font-family="Helvetica,sans-Serif" font-size="10.00">MainWindow::editTextFrame</text>
</a>
</g>
</g>
<!-- Node1&#45;&gt;Node6 -->
<g id="edge6" class="edge"><title>Node1&#45;&gt;Node6</title>
<path fill="none" stroke="midnightblue" d="M130.269,-51.5235C138.701,-50.5526 147.322,-49.5598 155.768,-48.5873"/>
<polygon fill="midnightblue" stroke="midnightblue" points="129.637,-48.0732 120.103,-52.6942 130.438,-55.0272 129.637,-48.0732"/>
</g>
<!-- Node3 -->
<g id="node3" class="node"><title>Node3</title>
<g id="a_node3"><a xlink:href="classMainWindow.html#a9df7443ce5f907903438bb6a9abe9a33" target="_top" xlink:title="MainWindow::createMenusAnd\lActions">
<polygon fill="white" stroke="black" points="349,-88.5 349,-118.5 501,-118.5 501,-88.5 349,-88.5"/>
<text text-anchor="start" x="357" y="-106.5" font-family="Helvetica,sans-Serif" font-size="10.00">MainWindow::createMenusAnd</text>
<text text-anchor="middle" x="425" y="-95.5" font-family="Helvetica,sans-Serif" font-size="10.00">Actions</text>
</a>
</g>
</g>
<!-- Node2&#45;&gt;Node3 -->
<g id="edge2" class="edge"><title>Node2&#45;&gt;Node3</title>
<path fill="none" stroke="midnightblue" d="M308.371,-88.7514C321.802,-90.4646 335.69,-92.236 348.981,-93.9312"/>
<polygon fill="midnightblue" stroke="midnightblue" points="308.569,-85.2484 298.207,-87.455 307.684,-92.1922 308.569,-85.2484"/>
</g>
<!-- Node5 -->
<g id="node5" class="node"><title>Node5</title>
<g id="a_node5"><a xlink:href="classMainWindow.html#aaba5c236313378986c42c4a634c4cfb9" target="_top" xlink:title="MainWindow::onCustomContextMenu">
<polygon fill="white" stroke="black" points="334,-50 334,-69 516,-69 516,-50 334,-50"/>
<text text-anchor="middle" x="425" y="-57" font-family="Helvetica,sans-Serif" font-size="10.00">MainWindow::onCustomContextMenu</text>
</a>
</g>
</g>
<!-- Node2&#45;&gt;Node5 -->
<g id="edge4" class="edge"><title>Node2&#45;&gt;Node5</title>
<path fill="none" stroke="midnightblue" d="M308.332,-70.7127C316.719,-69.8997 325.285,-69.0693 333.773,-68.2465"/>
<polygon fill="midnightblue" stroke="midnightblue" points="307.822,-67.2456 298.207,-71.6942 308.498,-74.2129 307.822,-67.2456"/>
</g>
<!-- Node4 -->
<g id="node4" class="node"><title>Node4</title>
<g id="a_node4"><a xlink:href="classMainWindow.html#a8b244be8b7b7db1b08de2a2acb9409db" target="_top" xlink:title="MainWindow::MainWindow">
<polygon fill="white" stroke="black" points="552,-50 552,-69 687,-69 687,-50 552,-50"/>
<text text-anchor="middle" x="619.5" y="-57" font-family="Helvetica,sans-Serif" font-size="10.00">MainWindow::MainWindow</text>
</a>
</g>
</g>
<!-- Node3&#45;&gt;Node4 -->
<g id="edge3" class="edge"><title>Node3&#45;&gt;Node4</title>
<path fill="none" stroke="midnightblue" d="M501.77,-86.1813C527.346,-80.3352 554.945,-74.0268 576.883,-69.0124"/>
<polygon fill="midnightblue" stroke="midnightblue" points="500.678,-82.8404 491.709,-88.4808 502.238,-89.6644 500.678,-82.8404"/>
</g>
<!-- Node5&#45;&gt;Node4 -->
<g id="edge5" class="edge"><title>Node5&#45;&gt;Node4</title>
<path fill="none" stroke="midnightblue" d="M526.219,-59.5C534.88,-59.5 543.497,-59.5 551.79,-59.5"/>
<polygon fill="midnightblue" stroke="midnightblue" points="526.05,-56.0001 516.05,-59.5 526.05,-63.0001 526.05,-56.0001"/>
</g>
<!-- Node6&#45;&gt;Node5 -->
<g id="edge7" class="edge"><title>Node6&#45;&gt;Node5</title>
<path fill="none" stroke="midnightblue" d="M308.332,-48.2873C316.719,-49.1003 325.285,-49.9307 333.773,-50.7535"/>
<polygon fill="midnightblue" stroke="midnightblue" points="308.498,-44.7871 298.207,-47.3058 307.822,-51.7544 308.498,-44.7871"/>
</g>
<!-- Node7 -->
<g id="node7" class="node"><title>Node7</title>
<g id="a_node7"><a xlink:href="classMainWindow.html#ab18c663524e2c130759c0ca960129ea4" target="_top" xlink:title="MainWindow::onItemDouble\lClicked">
<polygon fill="white" stroke="black" points="355,-0.5 355,-30.5 495,-30.5 495,-0.5 355,-0.5"/>
<text text-anchor="start" x="363" y="-18.5" font-family="Helvetica,sans-Serif" font-size="10.00">MainWindow::onItemDouble</text>
<text text-anchor="middle" x="425" y="-7.5" font-family="Helvetica,sans-Serif" font-size="10.00">Clicked</text>
</a>
</g>
</g>
<!-- Node6&#45;&gt;Node7 -->
<g id="edge8" class="edge"><title>Node6&#45;&gt;Node7</title>
<path fill="none" stroke="midnightblue" d="M308.276,-30.2607C323.759,-28.2858 339.853,-26.2331 354.941,-24.3086"/>
<polygon fill="midnightblue" stroke="midnightblue" points="307.684,-26.8078 298.207,-31.545 308.569,-33.7516 307.684,-26.8078"/>
</g>
<!-- Node7&#45;&gt;Node4 -->
<g id="edge9" class="edge"><title>Node7&#45;&gt;Node4</title>
<path fill="none" stroke="midnightblue" d="M501.77,-32.8187C527.346,-38.6648 554.945,-44.9732 576.883,-49.9876"/>
<polygon fill="midnightblue" stroke="midnightblue" points="502.238,-29.3356 491.709,-30.5192 500.678,-36.1596 502.238,-29.3356"/>
</g>
</g>
</svg>
