<?xml version="1.0" encoding="UTF-8" standalone="no"?>
<!DOCTYPE svg PUBLIC "-//W3C//DTD SVG 1.1//EN"
 "http://www.w3.org/Graphics/SVG/1.1/DTD/svg11.dtd">
<!-- Generated by graphviz version 2.38.0 (20140413.2041)
 -->
<!-- Title: PlaylistTreeWidget::dropEvent Pages: 1 -->
<svg width="1370pt" height="957pt"
 viewBox="0.00 0.00 1370.00 956.50" xmlns="http://www.w3.org/2000/svg" xmlns:xlink="http://www.w3.org/1999/xlink">
<g id="graph0" class="graph" transform="scale(1 1) rotate(0) translate(4 952.5)">
<title>PlaylistTreeWidget::dropEvent</title>
<polygon fill="white" stroke="none" points="-4,4 -4,-952.5 1366,-952.5 1366,4 -4,4"/>
<!-- Node1 -->
<g id="node1" class="node"><title>Node1</title>
<polygon fill="#bfbfbf" stroke="black" points="0,-814 0,-844 99,-844 99,-814 0,-814"/>
<text text-anchor="start" x="8" y="-832" font-family="Helvetica,sans-Serif" font-size="10.00">PlaylistTreeWidget</text>
<text text-anchor="middle" x="49.5" y="-821" font-family="Helvetica,sans-Serif" font-size="10.00">::dropEvent</text>
</g>
<!-- Node2 -->
<g id="node2" class="node"><title>Node2</title>
<g id="a_node2"><a xlink:href="classMainWindow.html#a8ef1be3cb02e12d68d12375d1a7a0ced" target="_top" xlink:title="loads a list of yuv/csv files ">
<polygon fill="white" stroke="black" points="135,-819.5 135,-838.5 253,-838.5 253,-819.5 135,-819.5"/>
<text text-anchor="middle" x="194" y="-826.5" font-family="Helvetica,sans-Serif" font-size="10.00">MainWindow::loadFiles</text>
</a>
</g>
</g>
<!-- Node1&#45;&gt;Node2 -->
<g id="edge1" class="edge"><title>Node1&#45;&gt;Node2</title>
<path fill="none" stroke="midnightblue" d="M99.1419,-829C107.371,-829 116.049,-829 124.67,-829"/>
<polygon fill="midnightblue" stroke="midnightblue" points="124.733,-832.5 134.733,-829 124.733,-825.5 124.733,-832.5"/>
</g>
<!-- Node3 -->
<g id="node3" class="node"><title>Node3</title>
<g id="a_node3"><a xlink:href="classPlaylistTreeWidget.html#a3d898eca74f2de619866263e7ffbe5f2" target="_top" xlink:title="PlaylistTreeWidget\l::setIsSaved">
<polygon fill="white" stroke="black" points="494,-874 494,-904 593,-904 593,-874 494,-874"/>
<text text-anchor="start" x="502" y="-892" font-family="Helvetica,sans-Serif" font-size="10.00">PlaylistTreeWidget</text>
<text text-anchor="middle" x="543.5" y="-881" font-family="Helvetica,sans-Serif" font-size="10.00">::setIsSaved</text>
</a>
</g>
</g>
<!-- Node2&#45;&gt;Node3 -->
<g id="edge2" class="edge"><title>Node2&#45;&gt;Node3</title>
<path fill="none" stroke="midnightblue" d="M212.051,-838.536C230.426,-848.304 260.832,-863.016 289,-870 354.259,-886.181 431.621,-889.832 483.571,-890.136"/>
<polygon fill="midnightblue" stroke="midnightblue" points="483.604,-893.636 493.611,-890.155 483.617,-886.636 483.604,-893.636"/>
</g>
<!-- Node4 -->
<g id="node4" class="node"><title>Node4</title>
<g id="a_node4"><a xlink:href="classPlaylistItem.html#a7a65abc1410966c8e7fb7e47d384b7bf" target="_top" xlink:title="PlaylistItem::getFrameObject">
<polygon fill="white" stroke="black" points="471.5,-835.5 471.5,-854.5 615.5,-854.5 615.5,-835.5 471.5,-835.5"/>
<text text-anchor="middle" x="543.5" y="-842.5" font-family="Helvetica,sans-Serif" font-size="10.00">PlaylistItem::getFrameObject</text>
</a>
</g>
</g>
<!-- Node2&#45;&gt;Node4 -->
<g id="edge3" class="edge"><title>Node2&#45;&gt;Node4</title>
<path fill="none" stroke="midnightblue" d="M208.855,-819.469C226.523,-807.948 258.457,-789.21 289,-782 351.72,-767.194 375.764,-754.403 434,-782 456.833,-792.82 448.737,-812.351 470,-826 473.294,-828.114 476.814,-829.994 480.462,-831.665"/>
<polygon fill="midnightblue" stroke="midnightblue" points="479.156,-834.912 489.739,-835.404 481.773,-828.419 479.156,-834.912"/>
</g>
<!-- Node5 -->
<g id="node5" class="node"><title>Node5</title>
<g id="a_node5"><a xlink:href="classFrameObject.html#a14aa70f40889c11f1b7e73c03144fc82" target="_top" xlink:title="FrameObject::getSource">
<polygon fill="white" stroke="black" points="300,-841.5 300,-860.5 423,-860.5 423,-841.5 300,-841.5"/>
<text text-anchor="middle" x="361.5" y="-848.5" font-family="Helvetica,sans-Serif" font-size="10.00">FrameObject::getSource</text>
</a>
</g>
</g>
<!-- Node2&#45;&gt;Node5 -->
<g id="edge4" class="edge"><title>Node2&#45;&gt;Node5</title>
<path fill="none" stroke="midnightblue" d="M253.349,-836.756C265.127,-838.322 277.63,-839.984 289.779,-841.599"/>
<polygon fill="midnightblue" stroke="midnightblue" points="289.504,-845.093 299.878,-842.941 290.426,-838.154 289.504,-845.093"/>
</g>
<!-- Node6 -->
<g id="node6" class="node"><title>Node6</title>
<g id="a_node6"><a xlink:href="classde265File.html#abc835a56ab7b007650cc1611239ee4da" target="_top" xlink:title="de265File::getStatistics\lEnabled">
<polygon fill="white" stroke="black" points="302,-792 302,-822 421,-822 421,-792 302,-792"/>
<text text-anchor="start" x="310" y="-810" font-family="Helvetica,sans-Serif" font-size="10.00">de265File::getStatistics</text>
<text text-anchor="middle" x="361.5" y="-799" font-family="Helvetica,sans-Serif" font-size="10.00">Enabled</text>
</a>
</g>
</g>
<!-- Node2&#45;&gt;Node6 -->
<g id="edge5" class="edge"><title>Node2&#45;&gt;Node6</title>
<path fill="none" stroke="midnightblue" d="M253.349,-821.244C265.759,-819.594 278.974,-817.837 291.731,-816.141"/>
<polygon fill="midnightblue" stroke="midnightblue" points="292.389,-819.585 301.841,-814.798 291.467,-812.646 292.389,-819.585"/>
</g>
<!-- Node7 -->
<g id="node7" class="node"><title>Node7</title>
<g id="a_node7"><a xlink:href="classMainWindow.html#affa76730fa370a3466b62a4caee721e3" target="_top" xlink:title="MainWindow::updateRecent\lFileActions">
<polygon fill="white" stroke="black" points="291.5,-918 291.5,-948 431.5,-948 431.5,-918 291.5,-918"/>
<text text-anchor="start" x="299.5" y="-936" font-family="Helvetica,sans-Serif" font-size="10.00">MainWindow::updateRecent</text>
<text text-anchor="middle" x="361.5" y="-925" font-family="Helvetica,sans-Serif" font-size="10.00">FileActions</text>
</a>
</g>
</g>
<!-- Node2&#45;&gt;Node7 -->
<g id="edge6" class="edge"><title>Node2&#45;&gt;Node7</title>
<path fill="none" stroke="midnightblue" d="M205.309,-838.667C221.915,-853.866 256.067,-883.612 289,-903 295.46,-906.803 302.493,-910.371 309.544,-913.627"/>
<polygon fill="midnightblue" stroke="midnightblue" points="308.556,-917.017 319.117,-917.865 311.39,-910.616 308.556,-917.017"/>
</g>
<!-- Node9 -->
<g id="node9" class="node"><title>Node9</title>
<g id="a_node9"><a xlink:href="classMainWindow.html#a2d8cea1d443550a8f14ce8c80d2608c6" target="_top" xlink:title="MainWindow::loadPlaylistFile">
<polygon fill="white" stroke="black" points="289,-584.5 289,-603.5 434,-603.5 434,-584.5 289,-584.5"/>
<text text-anchor="middle" x="361.5" y="-591.5" font-family="Helvetica,sans-Serif" font-size="10.00">MainWindow::loadPlaylistFile</text>
</a>
</g>
</g>
<!-- Node2&#45;&gt;Node9 -->
<g id="edge8" class="edge"><title>Node2&#45;&gt;Node9</title>
<path fill="none" stroke="midnightblue" d="M201.693,-819.497C226.695,-783.995 314.869,-658.794 347.89,-611.905"/>
<polygon fill="midnightblue" stroke="midnightblue" points="350.828,-613.813 353.724,-603.622 345.104,-609.782 350.828,-613.813"/>
</g>
<!-- Node8 -->
<g id="node8" class="node"><title>Node8</title>
<g id="a_node8"><a xlink:href="classMainWindow.html#a37bcca7fc7bf0b871d99913c447c237f" target="_top" xlink:title="MainWindow::strippedName">
<polygon fill="white" stroke="black" points="473.5,-923.5 473.5,-942.5 613.5,-942.5 613.5,-923.5 473.5,-923.5"/>
<text text-anchor="middle" x="543.5" y="-930.5" font-family="Helvetica,sans-Serif" font-size="10.00">MainWindow::strippedName</text>
</a>
</g>
</g>
<!-- Node7&#45;&gt;Node8 -->
<g id="edge7" class="edge"><title>Node7&#45;&gt;Node8</title>
<path fill="none" stroke="midnightblue" d="M431.578,-933C441.946,-933 452.706,-933 463.266,-933"/>
<polygon fill="midnightblue" stroke="midnightblue" points="463.31,-936.5 473.31,-933 463.309,-929.5 463.31,-936.5"/>
</g>
<!-- Node9&#45;&gt;Node3 -->
<g id="edge65" class="edge"><title>Node9&#45;&gt;Node3</title>
<path fill="none" stroke="midnightblue" d="M366.042,-603.537C383.466,-650.368 459.665,-854.139 470,-864 474.32,-868.122 479.35,-871.567 484.711,-874.445"/>
<polygon fill="midnightblue" stroke="midnightblue" points="483.434,-877.712 493.976,-878.775 486.398,-871.37 483.434,-877.712"/>
</g>
<!-- Node9&#45;&gt;Node4 -->
<g id="edge32" class="edge"><title>Node9&#45;&gt;Node4</title>
<path fill="none" stroke="midnightblue" d="M366.955,-603.651C387.181,-647.458 469.403,-825.5 470,-826 472.009,-827.68 474.149,-829.214 476.389,-830.613"/>
<polygon fill="midnightblue" stroke="midnightblue" points="474.969,-833.82 485.449,-835.373 478.224,-827.623 474.969,-833.82"/>
</g>
<!-- Node10 -->
<g id="node10" class="node"><title>Node10</title>
<g id="a_node10"><a xlink:href="classPListParser.html#aeeaf99f020c07a200499b71e5bf4828a" target="_top" xlink:title="PListParser::parsePList">
<polygon fill="white" stroke="black" points="483.5,-660.5 483.5,-679.5 603.5,-679.5 603.5,-660.5 483.5,-660.5"/>
<text text-anchor="middle" x="543.5" y="-667.5" font-family="Helvetica,sans-Serif" font-size="10.00">PListParser::parsePList</text>
</a>
</g>
</g>
<!-- Node9&#45;&gt;Node10 -->
<g id="edge9" class="edge"><title>Node9&#45;&gt;Node10</title>
<path fill="none" stroke="midnightblue" d="M377.983,-603.687C398.4,-616.11 435.756,-637.642 470,-651 476.271,-653.446 482.969,-655.68 489.664,-657.687"/>
<polygon fill="midnightblue" stroke="midnightblue" points="488.846,-661.093 499.422,-660.463 490.762,-654.36 488.846,-661.093"/>
</g>
<!-- Node14 -->
<g id="node14" class="node"><title>Node14</title>
<g id="a_node14"><a xlink:href="classPlaylistItem.html#ad49967db988d94174603ff085d8e2088" target="_top" xlink:title="PlaylistItem::getTextObject">
<polygon fill="white" stroke="black" points="475.5,-622.5 475.5,-641.5 611.5,-641.5 611.5,-622.5 475.5,-622.5"/>
<text text-anchor="middle" x="543.5" y="-629.5" font-family="Helvetica,sans-Serif" font-size="10.00">PlaylistItem::getTextObject</text>
</a>
</g>
</g>
<!-- Node9&#45;&gt;Node14 -->
<g id="edge15" class="edge"><title>Node9&#45;&gt;Node14</title>
<path fill="none" stroke="midnightblue" d="M407.922,-603.589C432.103,-608.694 462.027,-615.011 487.514,-620.392"/>
<polygon fill="midnightblue" stroke="midnightblue" points="486.898,-623.839 497.405,-622.48 488.344,-616.99 486.898,-623.839"/>
</g>
<!-- Node15 -->
<g id="node15" class="node"><title>Node15</title>
<g id="a_node15"><a xlink:href="classTextObject.html#adaa0f36f9e82dc8298d0835101569eb4" target="_top" xlink:title="TextObject::setFont">
<polygon fill="white" stroke="black" points="491.5,-584.5 491.5,-603.5 595.5,-603.5 595.5,-584.5 491.5,-584.5"/>
<text text-anchor="middle" x="543.5" y="-591.5" font-family="Helvetica,sans-Serif" font-size="10.00">TextObject::setFont</text>
</a>
</g>
</g>
<!-- Node9&#45;&gt;Node15 -->
<g id="edge16" class="edge"><title>Node9&#45;&gt;Node15</title>
<path fill="none" stroke="midnightblue" d="M434.158,-594C449.691,-594 465.985,-594 481.083,-594"/>
<polygon fill="midnightblue" stroke="midnightblue" points="481.319,-597.5 491.319,-594 481.319,-590.5 481.319,-597.5"/>
</g>
<!-- Node20 -->
<g id="node20" class="node"><title>Node20</title>
<g id="a_node20"><a xlink:href="classDisplayObject.html#af14049278f3dfdf62f4e88d5c24e03c7" target="_top" xlink:title="DisplayObject::setSize">
<polygon fill="white" stroke="black" points="861.5,-538.5 861.5,-557.5 978.5,-557.5 978.5,-538.5 861.5,-538.5"/>
<text text-anchor="middle" x="920" y="-545.5" font-family="Helvetica,sans-Serif" font-size="10.00">DisplayObject::setSize</text>
</a>
</g>
</g>
<!-- Node9&#45;&gt;Node20 -->
<g id="edge61" class="edge"><title>Node9&#45;&gt;Node20</title>
<path fill="none" stroke="midnightblue" d="M409.688,-584.451C428.395,-580.983 450.143,-577.344 470,-575 604.653,-559.105 763.191,-552.351 851.276,-549.65"/>
<polygon fill="midnightblue" stroke="midnightblue" points="851.511,-553.145 861.402,-549.348 851.302,-546.148 851.511,-553.145"/>
</g>
<!-- Node23 -->
<g id="node23" class="node"><title>Node23</title>
<g id="a_node23"><a xlink:href="classTextObject.html#a5458ec334fdbae6aec57d43ce4e14105" target="_top" xlink:title="TextObject::setDuration">
<polygon fill="white" stroke="black" points="483,-470.5 483,-489.5 604,-489.5 604,-470.5 483,-470.5"/>
<text text-anchor="middle" x="543.5" y="-477.5" font-family="Helvetica,sans-Serif" font-size="10.00">TextObject::setDuration</text>
</a>
</g>
</g>
<!-- Node9&#45;&gt;Node23 -->
<g id="edge26" class="edge"><title>Node9&#45;&gt;Node23</title>
<path fill="none" stroke="midnightblue" d="M371.371,-584.485C388.702,-566.408 428.963,-526.865 470,-504 477.742,-499.686 486.384,-495.989 494.928,-492.88"/>
<polygon fill="midnightblue" stroke="midnightblue" points="496.147,-496.163 504.479,-489.619 493.885,-489.538 496.147,-496.163"/>
</g>
<!-- Node24 -->
<g id="node24" class="node"><title>Node24</title>
<g id="a_node24"><a xlink:href="classDisplayObject.html#a98296771a38de4e1bf73983a0b23aea1" target="_top" xlink:title="DisplayObject::setFrameRate">
<polygon fill="white" stroke="black" points="654.5,-508.5 654.5,-527.5 800.5,-527.5 800.5,-508.5 654.5,-508.5"/>
<text text-anchor="middle" x="727.5" y="-515.5" font-family="Helvetica,sans-Serif" font-size="10.00">DisplayObject::setFrameRate</text>
</a>
</g>
</g>
<!-- Node9&#45;&gt;Node24 -->
<g id="edge56" class="edge"><title>Node9&#45;&gt;Node24</title>
<path fill="none" stroke="midnightblue" d="M377.827,-584.394C398.077,-572.229 435.252,-551.689 470,-542 526.831,-526.154 593.199,-520.266 644.185,-518.281"/>
<polygon fill="midnightblue" stroke="midnightblue" points="644.623,-521.768 654.496,-517.924 644.381,-514.772 644.623,-521.768"/>
</g>
<!-- Node25 -->
<g id="node25" class="node"><title>Node25</title>
<g id="a_node25"><a xlink:href="classDisplayObject.html#aed9e23b654a67915a5b76e5d124d7bb6" target="_top" xlink:title="DisplayObject::setStartFrame">
<polygon fill="white" stroke="black" points="654.5,-432.5 654.5,-451.5 800.5,-451.5 800.5,-432.5 654.5,-432.5"/>
<text text-anchor="middle" x="727.5" y="-439.5" font-family="Helvetica,sans-Serif" font-size="10.00">DisplayObject::setStartFrame</text>
</a>
</g>
</g>
<!-- Node9&#45;&gt;Node25 -->
<g id="edge58" class="edge"><title>Node9&#45;&gt;Node25</title>
<path fill="none" stroke="midnightblue" d="M366.824,-584.381C378.873,-558.875 415.558,-489.515 470,-461 523.326,-433.069 591.62,-429.287 644.329,-431.965"/>
<polygon fill="midnightblue" stroke="midnightblue" points="644.127,-435.459 654.317,-432.558 644.543,-428.471 644.127,-435.459"/>
</g>
<!-- Node26 -->
<g id="node26" class="node"><title>Node26</title>
<g id="a_node26"><a xlink:href="classDisplayObject.html#a1ebfa41c2a5b6c2ed4d8490503d197c8" target="_top" xlink:title="DisplayObject::setEndFrame">
<polygon fill="white" stroke="black" points="848.5,-356.5 848.5,-375.5 991.5,-375.5 991.5,-356.5 848.5,-356.5"/>
<text text-anchor="middle" x="920" y="-363.5" font-family="Helvetica,sans-Serif" font-size="10.00">DisplayObject::setEndFrame</text>
</a>
</g>
</g>
<!-- Node9&#45;&gt;Node26 -->
<g id="edge59" class="edge"><title>Node9&#45;&gt;Node26</title>
<path fill="none" stroke="midnightblue" d="M364.031,-584.248C370.032,-549.707 395.409,-432.707 470,-385 596.794,-303.906 787.455,-334.239 873.731,-354.117"/>
<polygon fill="midnightblue" stroke="midnightblue" points="873.187,-357.584 883.724,-356.481 874.798,-350.772 873.187,-357.584"/>
</g>
<!-- Node27 -->
<g id="node27" class="node"><title>Node27</title>
<g id="a_node27"><a xlink:href="classTextObject.html#aaead839e07db08ee01be58062a6cc89e" target="_top" xlink:title="TextObject::setColor">
<polygon fill="white" stroke="black" points="490,-394.5 490,-413.5 597,-413.5 597,-394.5 490,-394.5"/>
<text text-anchor="middle" x="543.5" y="-401.5" font-family="Helvetica,sans-Serif" font-size="10.00">TextObject::setColor</text>
</a>
</g>
</g>
<!-- Node9&#45;&gt;Node27 -->
<g id="edge30" class="edge"><title>Node9&#45;&gt;Node27</title>
<path fill="none" stroke="midnightblue" d="M366.139,-584.117C377.158,-555.548 412.946,-472.088 470,-428 475.498,-423.751 481.783,-420.237 488.303,-417.333"/>
<polygon fill="midnightblue" stroke="midnightblue" points="489.954,-420.443 497.959,-413.502 487.373,-413.937 489.954,-420.443"/>
</g>
<!-- Node29 -->
<g id="node29" class="node"><title>Node29</title>
<g id="a_node29"><a xlink:href="classFrameObject.html#af3743977db6e996acf666952baaa9d41" target="_top" xlink:title="FrameObject::setSize">
<polygon fill="white" stroke="black" points="487.5,-280.5 487.5,-299.5 599.5,-299.5 599.5,-280.5 487.5,-280.5"/>
<text text-anchor="middle" x="543.5" y="-287.5" font-family="Helvetica,sans-Serif" font-size="10.00">FrameObject::setSize</text>
</a>
</g>
</g>
<!-- Node9&#45;&gt;Node29 -->
<g id="edge33" class="edge"><title>Node9&#45;&gt;Node29</title>
<path fill="none" stroke="midnightblue" d="M365.073,-584.43C374.59,-550.25 410.37,-431.978 470,-352 483.654,-333.686 503.641,-317.109 519.173,-305.713"/>
<polygon fill="midnightblue" stroke="midnightblue" points="521.605,-308.279 527.722,-299.628 517.545,-302.576 521.605,-308.279"/>
</g>
<!-- Node34 -->
<g id="node34" class="node"><title>Node34</title>
<g id="a_node34"><a xlink:href="classFrameObject.html#a72a06fd2f07099819623216975625bed" target="_top" xlink:title="FrameObject::setSrcPixel\lFormat">
<polygon fill="white" stroke="black" points="479,-169 479,-199 608,-199 608,-169 479,-169"/>
<text text-anchor="start" x="487" y="-187" font-family="Helvetica,sans-Serif" font-size="10.00">FrameObject::setSrcPixel</text>
<text text-anchor="middle" x="543.5" y="-176" font-family="Helvetica,sans-Serif" font-size="10.00">Format</text>
</a>
</g>
</g>
<!-- Node9&#45;&gt;Node34 -->
<g id="edge40" class="edge"><title>Node9&#45;&gt;Node34</title>
<path fill="none" stroke="midnightblue" d="M364.308,-584.487C372.206,-544.35 406.177,-385.634 470,-271 483.397,-246.937 503.84,-223.159 519.607,-206.559"/>
<polygon fill="midnightblue" stroke="midnightblue" points="522.471,-208.633 526.92,-199.017 517.446,-203.76 522.471,-208.633"/>
</g>
<!-- Node46 -->
<g id="node46" class="node"><title>Node46</title>
<g id="a_node46"><a xlink:href="classDisplayObject.html#adcb40f95c3964c1193a93519d5dd25b1" target="_top" xlink:title="DisplayObject::setSampling">
<polygon fill="white" stroke="black" points="474.5,-797.5 474.5,-816.5 612.5,-816.5 612.5,-797.5 474.5,-797.5"/>
<text text-anchor="middle" x="543.5" y="-804.5" font-family="Helvetica,sans-Serif" font-size="10.00">DisplayObject::setSampling</text>
</a>
</g>
</g>
<!-- Node9&#45;&gt;Node46 -->
<g id="edge57" class="edge"><title>Node9&#45;&gt;Node46</title>
<path fill="none" stroke="midnightblue" d="M366.73,-603.788C382.286,-639.377 437.125,-761.174 470,-787 472.946,-789.314 476.141,-791.36 479.494,-793.17"/>
<polygon fill="midnightblue" stroke="midnightblue" points="478.129,-796.395 488.673,-797.43 481.076,-790.046 478.129,-796.395"/>
</g>
<!-- Node47 -->
<g id="node47" class="node"><title>Node47</title>
<g id="a_node47"><a xlink:href="classPlaylistItem.html#a5d94b9e2dab116ab2f4a3afd3639b18f" target="_top" xlink:title="PlaylistItem::getStatistics\lObject">
<polygon fill="white" stroke="black" points="479,-748 479,-778 608,-778 608,-748 479,-748"/>
<text text-anchor="start" x="487" y="-766" font-family="Helvetica,sans-Serif" font-size="10.00">PlaylistItem::getStatistics</text>
<text text-anchor="middle" x="543.5" y="-755" font-family="Helvetica,sans-Serif" font-size="10.00">Object</text>
</a>
</g>
</g>
<!-- Node9&#45;&gt;Node47 -->
<g id="edge60" class="edge"><title>Node9&#45;&gt;Node47</title>
<path fill="none" stroke="midnightblue" d="M367.076,-603.621C379.749,-629.269 417.848,-699.912 470,-738 472.634,-739.924 475.428,-741.708 478.327,-743.363"/>
<polygon fill="midnightblue" stroke="midnightblue" points="476.789,-746.507 487.286,-747.944 479.976,-740.275 476.789,-746.507"/>
</g>
<!-- Node48 -->
<g id="node48" class="node"><title>Node48</title>
<g id="a_node48"><a xlink:href="classStatisticsObject.html#a5403f2edc7dc5c51d105056d001632e8" target="_top" xlink:title="StatisticsObject::setStatistics\lTypeList">
<polygon fill="white" stroke="black" points="470,-699 470,-729 617,-729 617,-699 470,-699"/>
<text text-anchor="start" x="478" y="-717" font-family="Helvetica,sans-Serif" font-size="10.00">StatisticsObject::setStatistics</text>
<text text-anchor="middle" x="543.5" y="-706" font-family="Helvetica,sans-Serif" font-size="10.00">TypeList</text>
</a>
</g>
</g>
<!-- Node9&#45;&gt;Node48 -->
<g id="edge62" class="edge"><title>Node9&#45;&gt;Node48</title>
<path fill="none" stroke="midnightblue" d="M371.017,-603.735C388.047,-622.654 428.259,-664.661 470,-689 473.623,-691.113 477.452,-693.084 481.382,-694.916"/>
<polygon fill="midnightblue" stroke="midnightblue" points="480.116,-698.182 490.684,-698.942 482.897,-691.758 480.116,-698.182"/>
</g>
<!-- Node11 -->
<g id="node11" class="node"><title>Node11</title>
<g id="a_node11"><a xlink:href="classPListParser.html#a23710a0d61733745542a2296393df556" target="_top" xlink:title="PListParser::parseElement">
<polygon fill="white" stroke="black" points="660.5,-660.5 660.5,-679.5 794.5,-679.5 794.5,-660.5 660.5,-660.5"/>
<text text-anchor="middle" x="727.5" y="-667.5" font-family="Helvetica,sans-Serif" font-size="10.00">PListParser::parseElement</text>
</a>
</g>
</g>
<!-- Node10&#45;&gt;Node11 -->
<g id="edge10" class="edge"><title>Node10&#45;&gt;Node11</title>
<path fill="none" stroke="midnightblue" d="M603.59,-670C618.49,-670 634.697,-670 650.307,-670"/>
<polygon fill="midnightblue" stroke="midnightblue" points="650.459,-673.5 660.459,-670 650.459,-666.5 650.459,-673.5"/>
</g>
<!-- Node12 -->
<g id="node12" class="node"><title>Node12</title>
<g id="a_node12"><a xlink:href="classPListParser.html#a601716c73380ba67d8e6b0973aa0ee63" target="_top" xlink:title="PListParser::parseDictElement">
<polygon fill="white" stroke="black" points="844,-690.5 844,-709.5 996,-709.5 996,-690.5 844,-690.5"/>
<text text-anchor="middle" x="920" y="-697.5" font-family="Helvetica,sans-Serif" font-size="10.00">PListParser::parseDictElement</text>
</a>
</g>
</g>
<!-- Node11&#45;&gt;Node12 -->
<g id="edge11" class="edge"><title>Node11&#45;&gt;Node12</title>
<path fill="none" stroke="midnightblue" d="M794.593,-673.948C823.178,-677.865 855.641,-683.278 880.236,-688.336"/>
<polygon fill="midnightblue" stroke="midnightblue" points="879.751,-691.812 890.261,-690.477 881.213,-684.966 879.751,-691.812"/>
</g>
<!-- Node13 -->
<g id="node13" class="node"><title>Node13</title>
<g id="a_node13"><a xlink:href="classPListParser.html#ad3c04e6d8bd25a3bfe3cc24bad88284c" target="_top" xlink:title="PListParser::parseArrayElement">
<polygon fill="white" stroke="black" points="841.5,-652.5 841.5,-671.5 998.5,-671.5 998.5,-652.5 841.5,-652.5"/>
<text text-anchor="middle" x="920" y="-659.5" font-family="Helvetica,sans-Serif" font-size="10.00">PListParser::parseArrayElement</text>
</a>
</g>
</g>
<!-- Node11&#45;&gt;Node13 -->
<g id="edge13" class="edge"><title>Node11&#45;&gt;Node13</title>
<path fill="none" stroke="midnightblue" d="M794.593,-660.764C806.347,-660.03 818.756,-659.418 831.004,-658.963"/>
<polygon fill="midnightblue" stroke="midnightblue" points="831.361,-662.453 841.237,-658.618 831.125,-655.457 831.361,-662.453"/>
</g>
<!-- Node12&#45;&gt;Node11 -->
<g id="edge12" class="edge"><title>Node12&#45;&gt;Node11</title>
<path fill="none" stroke="midnightblue" d="M843.632,-694.749C817.518,-690.989 789.317,-686.196 767.361,-681.683"/>
<polygon fill="midnightblue" stroke="midnightblue" points="767.943,-678.229 757.433,-679.566 766.483,-685.075 767.943,-678.229"/>
</g>
<!-- Node13&#45;&gt;Node11 -->
<g id="edge14" class="edge"><title>Node13&#45;&gt;Node11</title>
<path fill="none" stroke="midnightblue" d="M848.481,-671.505C834.293,-672.343 819.318,-673.001 804.938,-673.422"/>
<polygon fill="midnightblue" stroke="midnightblue" points="804.501,-669.932 794.593,-673.685 804.679,-676.929 804.501,-669.932"/>
</g>
<!-- Node16 -->
<g id="node16" class="node"><title>Node16</title>
<g id="a_node16"><a xlink:href="classTextObject.html#a40a3c04abf6f17df174696a8902b84f1" target="_top" xlink:title="TextObject::font">
<polygon fill="white" stroke="black" points="684,-622.5 684,-641.5 771,-641.5 771,-622.5 684,-622.5"/>
<text text-anchor="middle" x="727.5" y="-629.5" font-family="Helvetica,sans-Serif" font-size="10.00">TextObject::font</text>
</a>
</g>
</g>
<!-- Node15&#45;&gt;Node16 -->
<g id="edge17" class="edge"><title>Node15&#45;&gt;Node16</title>
<path fill="none" stroke="midnightblue" d="M590.426,-603.589C615.824,-608.892 647.49,-615.503 673.881,-621.014"/>
<polygon fill="midnightblue" stroke="midnightblue" points="673.21,-624.449 683.714,-623.067 674.641,-617.597 673.21,-624.449"/>
</g>
<!-- Node17 -->
<g id="node17" class="node"><title>Node17</title>
<g id="a_node17"><a xlink:href="classTextObject.html#a8f1e5a14cf1a2f89b0794ea47b793ae3" target="_top" xlink:title="TextObject::refreshTextSize">
<polygon fill="white" stroke="black" points="657.5,-584.5 657.5,-603.5 797.5,-603.5 797.5,-584.5 657.5,-584.5"/>
<text text-anchor="middle" x="727.5" y="-591.5" font-family="Helvetica,sans-Serif" font-size="10.00">TextObject::refreshTextSize</text>
</a>
</g>
</g>
<!-- Node15&#45;&gt;Node17 -->
<g id="edge18" class="edge"><title>Node15&#45;&gt;Node17</title>
<path fill="none" stroke="midnightblue" d="M595.681,-594C611.677,-594 629.718,-594 647.176,-594"/>
<polygon fill="midnightblue" stroke="midnightblue" points="647.367,-597.5 657.367,-594 647.367,-590.5 647.367,-597.5"/>
</g>
<!-- Node18 -->
<g id="node18" class="node"><title>Node18</title>
<g id="a_node18"><a xlink:href="classDisplayObject.html#afb3b221174f722f563e7bf55a1ddb29f" target="_top" xlink:title="DisplayObject::width">
<polygon fill="white" stroke="black" points="1064,-614.5 1064,-633.5 1171,-633.5 1171,-614.5 1064,-614.5"/>
<text text-anchor="middle" x="1117.5" y="-621.5" font-family="Helvetica,sans-Serif" font-size="10.00">DisplayObject::width</text>
</a>
</g>
</g>
<!-- Node17&#45;&gt;Node18 -->
<g id="edge19" class="edge"><title>Node17&#45;&gt;Node18</title>
<path fill="none" stroke="midnightblue" d="M797.701,-600.525C811.069,-601.727 824.967,-602.937 838,-604 912.025,-610.038 997.2,-616.012 1053.66,-619.836"/>
<polygon fill="midnightblue" stroke="midnightblue" points="1053.65,-623.343 1063.86,-620.525 1054.12,-616.359 1053.65,-623.343"/>
</g>
<!-- Node19 -->
<g id="node19" class="node"><title>Node19</title>
<g id="a_node19"><a xlink:href="classDisplayObject.html#a814782fb1bf9e7a2ed7adab74872c08a" target="_top" xlink:title="DisplayObject::height">
<polygon fill="white" stroke="black" points="1062.5,-576.5 1062.5,-595.5 1172.5,-595.5 1172.5,-576.5 1062.5,-576.5"/>
<text text-anchor="middle" x="1117.5" y="-583.5" font-family="Helvetica,sans-Serif" font-size="10.00">DisplayObject::height</text>
</a>
</g>
</g>
<!-- Node17&#45;&gt;Node19 -->
<g id="edge20" class="edge"><title>Node17&#45;&gt;Node19</title>
<path fill="none" stroke="midnightblue" d="M797.867,-592.57C870.062,-591.081 982.192,-588.769 1052.38,-587.322"/>
<polygon fill="midnightblue" stroke="midnightblue" points="1052.49,-590.821 1062.42,-587.115 1052.35,-583.822 1052.49,-590.821"/>
</g>
<!-- Node17&#45;&gt;Node20 -->
<g id="edge21" class="edge"><title>Node17&#45;&gt;Node20</title>
<path fill="none" stroke="midnightblue" d="M767.972,-584.469C797.473,-577.345 837.998,-567.56 869.642,-559.918"/>
<polygon fill="midnightblue" stroke="midnightblue" points="870.68,-563.269 879.579,-557.519 869.037,-556.464 870.68,-563.269"/>
</g>
<!-- Node20&#45;&gt;Node18 -->
<g id="edge22" class="edge"><title>Node20&#45;&gt;Node18</title>
<path fill="none" stroke="midnightblue" d="M937.936,-557.701C960.25,-570.14 1001.01,-591.689 1038,-605 1045.06,-607.542 1052.61,-609.851 1060.12,-611.915"/>
<polygon fill="midnightblue" stroke="midnightblue" points="1059.37,-615.338 1069.93,-614.484 1061.15,-608.566 1059.37,-615.338"/>
</g>
<!-- Node20&#45;&gt;Node19 -->
<g id="edge23" class="edge"><title>Node20&#45;&gt;Node19</title>
<path fill="none" stroke="midnightblue" d="M970.081,-557.54C996.574,-562.69 1029.47,-569.084 1057.37,-574.506"/>
<polygon fill="midnightblue" stroke="midnightblue" points="1056.92,-577.984 1067.4,-576.456 1058.25,-571.112 1056.92,-577.984"/>
</g>
<!-- Node21 -->
<g id="node21" class="node"><title>Node21</title>
<g id="a_node21"><a xlink:href="classDisplayObject.html#a64d01b5326cf6dae89928a7ad91b1283" target="_top" xlink:title="DisplayObject::refreshDisplay\lImage">
<polygon fill="white" stroke="black" points="1044,-527 1044,-557 1191,-557 1191,-527 1044,-527"/>
<text text-anchor="start" x="1052" y="-545" font-family="Helvetica,sans-Serif" font-size="10.00">DisplayObject::refreshDisplay</text>
<text text-anchor="middle" x="1117.5" y="-534" font-family="Helvetica,sans-Serif" font-size="10.00">Image</text>
</a>
</g>
</g>
<!-- Node20&#45;&gt;Node21 -->
<g id="edge24" class="edge"><title>Node20&#45;&gt;Node21</title>
<path fill="none" stroke="midnightblue" d="M978.599,-546.232C995.8,-545.704 1015.01,-545.115 1033.5,-544.547"/>
<polygon fill="midnightblue" stroke="midnightblue" points="1033.79,-548.04 1043.68,-544.235 1033.57,-541.043 1033.79,-548.04"/>
</g>
<!-- Node22 -->
<g id="node22" class="node"><title>Node22</title>
<g id="a_node22"><a xlink:href="classDisplayObject.html#aacc96a69c37767806090e1fa388be045" target="_top" xlink:title="DisplayObject::loadImage">
<polygon fill="white" stroke="black" points="1233,-532.5 1233,-551.5 1362,-551.5 1362,-532.5 1233,-532.5"/>
<text text-anchor="middle" x="1297.5" y="-539.5" font-family="Helvetica,sans-Serif" font-size="10.00">DisplayObject::loadImage</text>
</a>
</g>
</g>
<!-- Node21&#45;&gt;Node22 -->
<g id="edge25" class="edge"><title>Node21&#45;&gt;Node22</title>
<path fill="none" stroke="midnightblue" d="M1191.16,-542C1201.54,-542 1212.23,-542 1222.63,-542"/>
<polygon fill="midnightblue" stroke="midnightblue" points="1222.92,-545.5 1232.92,-542 1222.92,-538.5 1222.92,-545.5"/>
</g>
<!-- Node23&#45;&gt;Node24 -->
<g id="edge27" class="edge"><title>Node23&#45;&gt;Node24</title>
<path fill="none" stroke="midnightblue" d="M590.426,-489.589C614.876,-494.694 645.133,-501.011 670.903,-506.392"/>
<polygon fill="midnightblue" stroke="midnightblue" points="670.4,-509.862 680.904,-508.48 671.83,-503.01 670.4,-509.862"/>
</g>
<!-- Node23&#45;&gt;Node25 -->
<g id="edge28" class="edge"><title>Node23&#45;&gt;Node25</title>
<path fill="none" stroke="midnightblue" d="M590.426,-470.411C614.876,-465.306 645.133,-458.989 670.903,-453.608"/>
<polygon fill="midnightblue" stroke="midnightblue" points="671.83,-456.99 680.904,-451.52 670.4,-450.138 671.83,-456.99"/>
</g>
<!-- Node23&#45;&gt;Node26 -->
<g id="edge29" class="edge"><title>Node23&#45;&gt;Node26</title>
<path fill="none" stroke="midnightblue" d="M604.003,-485.483C657.686,-488.169 737.836,-486.466 802,-461 844.67,-444.065 883.809,-405.719 904.213,-383.266"/>
<polygon fill="midnightblue" stroke="midnightblue" points="906.835,-385.585 910.855,-375.782 901.6,-380.938 906.835,-385.585"/>
</g>
<!-- Node28 -->
<g id="node28" class="node"><title>Node28</title>
<g id="a_node28"><a xlink:href="classTextObject.html#a08fdf4f44f51b8bed47924be88de9515" target="_top" xlink:title="TextObject::color">
<polygon fill="white" stroke="black" points="681.5,-394.5 681.5,-413.5 773.5,-413.5 773.5,-394.5 681.5,-394.5"/>
<text text-anchor="middle" x="727.5" y="-401.5" font-family="Helvetica,sans-Serif" font-size="10.00">TextObject::color</text>
</a>
</g>
</g>
<!-- Node27&#45;&gt;Node28 -->
<g id="edge31" class="edge"><title>Node27&#45;&gt;Node28</title>
<path fill="none" stroke="midnightblue" d="M597.142,-404C620.37,-404 647.68,-404 671.206,-404"/>
<polygon fill="midnightblue" stroke="midnightblue" points="671.376,-407.5 681.376,-404 671.376,-400.5 671.376,-407.5"/>
</g>
<!-- Node29&#45;&gt;Node20 -->
<g id="edge39" class="edge"><title>Node29&#45;&gt;Node20</title>
<path fill="none" stroke="midnightblue" d="M595.772,-299.533C651.098,-311.826 739.639,-337.511 802,-385 854.742,-425.164 893.727,-495.694 910.261,-529.245"/>
<polygon fill="midnightblue" stroke="midnightblue" points="907.173,-530.901 914.662,-538.396 913.482,-527.867 907.173,-530.901"/>
</g>
<!-- Node30 -->
<g id="node30" class="node"><title>Node30</title>
<g id="a_node30"><a xlink:href="classYUVSource.html#a332084d14672d88f6f6bd95c1885ea0d" target="_top" xlink:title="YUVSource::setSize">
<polygon fill="white" stroke="black" points="674,-280.5 674,-299.5 781,-299.5 781,-280.5 674,-280.5"/>
<text text-anchor="middle" x="727.5" y="-287.5" font-family="Helvetica,sans-Serif" font-size="10.00">YUVSource::setSize</text>
</a>
</g>
</g>
<!-- Node29&#45;&gt;Node30 -->
<g id="edge34" class="edge"><title>Node29&#45;&gt;Node30</title>
<path fill="none" stroke="midnightblue" d="M599.6,-290C619.83,-290 642.879,-290 663.732,-290"/>
<polygon fill="midnightblue" stroke="midnightblue" points="663.771,-293.5 673.771,-290 663.771,-286.5 663.771,-293.5"/>
</g>
<!-- Node31 -->
<g id="node31" class="node"><title>Node31</title>
<g id="a_node31"><a xlink:href="classDisplayObject.html#a6de8d51bc677aa3956bd2d98228808b8" target="_top" xlink:title="DisplayObject::refreshNumber\lOfFrames">
<polygon fill="white" stroke="black" points="653,-193 653,-223 802,-223 802,-193 653,-193"/>
<text text-anchor="start" x="661" y="-211" font-family="Helvetica,sans-Serif" font-size="10.00">DisplayObject::refreshNumber</text>
<text text-anchor="middle" x="727.5" y="-200" font-family="Helvetica,sans-Serif" font-size="10.00">OfFrames</text>
</a>
</g>
</g>
<!-- Node29&#45;&gt;Node31 -->
<g id="edge35" class="edge"><title>Node29&#45;&gt;Node31</title>
<path fill="none" stroke="midnightblue" d="M560.654,-280.492C581.519,-268.453 619.178,-247.531 653,-233 658.108,-230.805 663.479,-228.669 668.894,-226.629"/>
<polygon fill="midnightblue" stroke="midnightblue" points="670.451,-229.786 678.644,-223.069 668.05,-223.211 670.451,-229.786"/>
</g>
<!-- Node33 -->
<g id="node33" class="node"><title>Node33</title>
<g id="a_node33"><a xlink:href="classYUVSource.html#af9f4f917c1c5219829f708ad0b0bd67a" target="_top" xlink:title="YUVSource::getSize">
<polygon fill="white" stroke="black" points="674,-242.5 674,-261.5 781,-261.5 781,-242.5 674,-242.5"/>
<text text-anchor="middle" x="727.5" y="-249.5" font-family="Helvetica,sans-Serif" font-size="10.00">YUVSource::getSize</text>
</a>
</g>
</g>
<!-- Node29&#45;&gt;Node33 -->
<g id="edge38" class="edge"><title>Node29&#45;&gt;Node33</title>
<path fill="none" stroke="midnightblue" d="M590.426,-280.411C614.876,-275.306 645.133,-268.989 670.903,-263.608"/>
<polygon fill="midnightblue" stroke="midnightblue" points="671.83,-266.99 680.904,-261.52 670.4,-260.138 671.83,-266.99"/>
</g>
<!-- Node31&#45;&gt;Node26 -->
<g id="edge36" class="edge"><title>Node31&#45;&gt;Node26</title>
<path fill="none" stroke="midnightblue" d="M783.412,-223.077C789.926,-225.896 796.283,-229.184 802,-233 849.11,-264.446 888.994,-319.487 907.664,-347.895"/>
<polygon fill="midnightblue" stroke="midnightblue" points="904.807,-349.921 913.163,-356.435 910.692,-346.132 904.807,-349.921"/>
</g>
<!-- Node32 -->
<g id="node32" class="node"><title>Node32</title>
<g id="a_node32"><a xlink:href="classDisplayObject.html#a587ff96ee994001247bdb74df1001309" target="_top" xlink:title="DisplayObject::numFrames">
<polygon fill="white" stroke="black" points="852,-218.5 852,-237.5 988,-237.5 988,-218.5 852,-218.5"/>
<text text-anchor="middle" x="920" y="-225.5" font-family="Helvetica,sans-Serif" font-size="10.00">DisplayObject::numFrames</text>
</a>
</g>
</g>
<!-- Node31&#45;&gt;Node32 -->
<g id="edge37" class="edge"><title>Node31&#45;&gt;Node32</title>
<path fill="none" stroke="midnightblue" d="M802.152,-215.733C815.04,-217.086 828.485,-218.497 841.474,-219.861"/>
<polygon fill="midnightblue" stroke="midnightblue" points="841.463,-223.379 851.774,-220.942 842.194,-216.417 841.463,-223.379"/>
</g>
<!-- Node34&#45;&gt;Node31 -->
<g id="edge43" class="edge"><title>Node34&#45;&gt;Node31</title>
<path fill="none" stroke="midnightblue" d="M608.155,-192.394C619.334,-193.868 631.119,-195.422 642.746,-196.956"/>
<polygon fill="midnightblue" stroke="midnightblue" points="642.532,-200.458 652.904,-198.295 643.447,-193.518 642.532,-200.458"/>
</g>
<!-- Node35 -->
<g id="node35" class="node"><title>Node35</title>
<g id="a_node35"><a xlink:href="classYUVSource.html#a3b9129ee597809af82176876e40a215a" target="_top" xlink:title="YUVSource::setPixelFormat">
<polygon fill="white" stroke="black" points="850,-17.5 850,-36.5 990,-36.5 990,-17.5 850,-17.5"/>
<text text-anchor="middle" x="920" y="-24.5" font-family="Helvetica,sans-Serif" font-size="10.00">YUVSource::setPixelFormat</text>
</a>
</g>
</g>
<!-- Node34&#45;&gt;Node35 -->
<g id="edge41" class="edge"><title>Node34&#45;&gt;Node35</title>
<path fill="none" stroke="midnightblue" d="M576.124,-168.926C597.669,-158.78 626.908,-145.252 653,-134 735.274,-98.5208 833.357,-60.0351 884.342,-40.3111"/>
<polygon fill="midnightblue" stroke="midnightblue" points="885.825,-43.4905 893.892,-36.6229 883.303,-36.9605 885.825,-43.4905"/>
</g>
<!-- Node37 -->
<g id="node37" class="node"><title>Node37</title>
<g id="a_node37"><a xlink:href="classFrameObject.html#ac42be5ded1448dde312e661e66c8730e" target="_top" xlink:title="FrameObject::refreshDisplay\lImage">
<polygon fill="white" stroke="black" points="656.5,-144 656.5,-174 798.5,-174 798.5,-144 656.5,-144"/>
<text text-anchor="start" x="664.5" y="-162" font-family="Helvetica,sans-Serif" font-size="10.00">FrameObject::refreshDisplay</text>
<text text-anchor="middle" x="727.5" y="-151" font-family="Helvetica,sans-Serif" font-size="10.00">Image</text>
</a>
</g>
</g>
<!-- Node34&#45;&gt;Node37 -->
<g id="edge44" class="edge"><title>Node34&#45;&gt;Node37</title>
<path fill="none" stroke="midnightblue" d="M608.155,-175.256C620.449,-173.567 633.478,-171.778 646.222,-170.027"/>
<polygon fill="midnightblue" stroke="midnightblue" points="646.931,-173.463 656.362,-168.634 645.979,-166.528 646.931,-173.463"/>
</g>
<!-- Node36 -->
<g id="node36" class="node"><title>Node36</title>
<g id="a_node36"><a xlink:href="classYUVSource.html#a592ce352c789f4f5789b11e052b58a33" target="_top" xlink:title="YUVSource::pixelFormat">
<polygon fill="white" stroke="black" points="1055,-0.5 1055,-19.5 1180,-19.5 1180,-0.5 1055,-0.5"/>
<text text-anchor="middle" x="1117.5" y="-7.5" font-family="Helvetica,sans-Serif" font-size="10.00">YUVSource::pixelFormat</text>
</a>
</g>
</g>
<!-- Node35&#45;&gt;Node36 -->
<g id="edge42" class="edge"><title>Node35&#45;&gt;Node36</title>
<path fill="none" stroke="midnightblue" d="M990.201,-20.9825C1007.83,-19.4495 1026.82,-17.7984 1044.58,-16.2539"/>
<polygon fill="midnightblue" stroke="midnightblue" points="1045.22,-19.7117 1054.88,-15.3585 1044.61,-12.738 1045.22,-19.7117"/>
</g>
<!-- Node38 -->
<g id="node38" class="node"><title>Node38</title>
<g id="a_node38"><a xlink:href="classFrameObject.html#adfa8fc2528a422aba57c301f3c2a311c" target="_top" xlink:title="FrameObject::clearCurrent\lCache">
<polygon fill="white" stroke="black" points="854,-169 854,-199 986,-199 986,-169 854,-169"/>
<text text-anchor="start" x="862" y="-187" font-family="Helvetica,sans-Serif" font-size="10.00">FrameObject::clearCurrent</text>
<text text-anchor="middle" x="920" y="-176" font-family="Helvetica,sans-Serif" font-size="10.00">Cache</text>
</a>
</g>
</g>
<!-- Node37&#45;&gt;Node38 -->
<g id="edge45" class="edge"><title>Node37&#45;&gt;Node38</title>
<path fill="none" stroke="midnightblue" d="M798.624,-168.203C813.277,-170.126 828.785,-172.161 843.62,-174.108"/>
<polygon fill="midnightblue" stroke="midnightblue" points="843.394,-177.608 853.764,-175.439 844.305,-170.667 843.394,-177.608"/>
</g>
<!-- Node41 -->
<g id="node41" class="node"><title>Node41</title>
<g id="a_node41"><a xlink:href="classFrameObject.html#ad33aa12aedba2856ec54989d6eda2d49" target="_top" xlink:title="FrameObject::loadImage">
<polygon fill="white" stroke="red" points="858,-122.5 858,-141.5 982,-141.5 982,-122.5 858,-122.5"/>
<text text-anchor="middle" x="920" y="-129.5" font-family="Helvetica,sans-Serif" font-size="10.00">FrameObject::loadImage</text>
</a>
</g>
</g>
<!-- Node37&#45;&gt;Node41 -->
<g id="edge48" class="edge"><title>Node37&#45;&gt;Node41</title>
<path fill="none" stroke="midnightblue" d="M798.624,-149.061C814.549,-146.804 831.485,-144.404 847.468,-142.138"/>
<polygon fill="midnightblue" stroke="midnightblue" points="848.404,-145.541 857.814,-140.672 847.422,-138.61 848.404,-145.541"/>
</g>
<!-- Node39 -->
<g id="node39" class="node"><title>Node39</title>
<g id="a_node39"><a xlink:href="classYUVSource.html#a12174732ce70dfe8f1e5b842a532b8c9" target="_top" xlink:title="YUVSource::getName">
<polygon fill="white" stroke="black" points="1060.5,-228.5 1060.5,-247.5 1174.5,-247.5 1174.5,-228.5 1060.5,-228.5"/>
<text text-anchor="middle" x="1117.5" y="-235.5" font-family="Helvetica,sans-Serif" font-size="10.00">YUVSource::getName</text>
</a>
</g>
</g>
<!-- Node38&#45;&gt;Node39 -->
<g id="edge46" class="edge"><title>Node38&#45;&gt;Node39</title>
<path fill="none" stroke="midnightblue" d="M969.221,-199.054C990.268,-205.461 1015.28,-212.857 1038,-219 1046.85,-221.392 1056.29,-223.801 1065.46,-226.063"/>
<polygon fill="midnightblue" stroke="midnightblue" points="1064.7,-229.481 1075.25,-228.451 1066.36,-222.681 1064.7,-229.481"/>
</g>
<!-- Node40 -->
<g id="node40" class="node"><title>Node40</title>
<g id="a_node40"><a xlink:href="classFrameObject.html#a1069def130e7deac035f166084ae4ca8" target="_top" xlink:title="FrameObject::numFrames">
<polygon fill="white" stroke="red" points="1052,-190.5 1052,-209.5 1183,-209.5 1183,-190.5 1052,-190.5"/>
<text text-anchor="middle" x="1117.5" y="-197.5" font-family="Helvetica,sans-Serif" font-size="10.00">FrameObject::numFrames</text>
</a>
</g>
</g>
<!-- Node38&#45;&gt;Node40 -->
<g id="edge47" class="edge"><title>Node38&#45;&gt;Node40</title>
<path fill="none" stroke="midnightblue" d="M986.099,-189.328C1003.91,-190.785 1023.35,-192.376 1041.65,-193.874"/>
<polygon fill="midnightblue" stroke="midnightblue" points="1041.43,-197.368 1051.69,-194.695 1042,-190.391 1041.43,-197.368"/>
</g>
<!-- Node41&#45;&gt;Node36 -->
<g id="edge51" class="edge"><title>Node41&#45;&gt;Node36</title>
<path fill="none" stroke="midnightblue" d="M928.975,-122.342C946.47,-101.82 990.464,-53.7274 1038,-29 1042.55,-26.6341 1047.4,-24.5564 1052.37,-22.733"/>
<polygon fill="midnightblue" stroke="midnightblue" points="1053.65,-25.9973 1062.04,-19.5306 1051.45,-19.3523 1053.65,-25.9973"/>
</g>
<!-- Node41&#45;&gt;Node39 -->
<g id="edge50" class="edge"><title>Node41&#45;&gt;Node39</title>
<path fill="none" stroke="midnightblue" d="M968.407,-141.636C980.228,-145.624 992.287,-151.209 1002,-159 1026.26,-178.459 1012.94,-200.58 1038,-219 1041.96,-221.909 1046.3,-224.378 1050.85,-226.473"/>
<polygon fill="midnightblue" stroke="midnightblue" points="1049.84,-229.837 1060.43,-230.268 1052.42,-223.33 1049.84,-229.837"/>
</g>
<!-- Node41&#45;&gt;Node40 -->
<g id="edge49" class="edge"><title>Node41&#45;&gt;Node40</title>
<path fill="none" stroke="midnightblue" d="M955.559,-141.622C970.18,-146.175 987.214,-152.126 1002,-159 1019,-166.904 1020.68,-173.819 1038,-181 1043.95,-183.467 1050.29,-185.66 1056.7,-187.599"/>
<polygon fill="midnightblue" stroke="midnightblue" points="1056.18,-191.091 1066.76,-190.438 1058.08,-184.354 1056.18,-191.091"/>
</g>
<!-- Node42 -->
<g id="node42" class="node"><title>Node42</title>
<g id="a_node42"><a xlink:href="classYUVSource.html#aff9d7390aa2cdb93376c69ede52b1e30" target="_top" xlink:title="YUVSource::getOneFrame">
<polygon fill="white" stroke="black" points="1050.5,-76.5 1050.5,-95.5 1184.5,-95.5 1184.5,-76.5 1050.5,-76.5"/>
<text text-anchor="middle" x="1117.5" y="-83.5" font-family="Helvetica,sans-Serif" font-size="10.00">YUVSource::getOneFrame</text>
</a>
</g>
</g>
<!-- Node41&#45;&gt;Node42 -->
<g id="edge52" class="edge"><title>Node41&#45;&gt;Node42</title>
<path fill="none" stroke="midnightblue" d="M961.508,-122.469C991.915,-115.314 1033.73,-105.475 1066.27,-97.8194"/>
<polygon fill="midnightblue" stroke="midnightblue" points="1067.11,-101.216 1076.04,-95.519 1065.51,-94.4025 1067.11,-101.216"/>
</g>
<!-- Node43 -->
<g id="node43" class="node"><title>Node43</title>
<g id="a_node43"><a xlink:href="classFrameObject.html#a3157b2afa82e71a5ebd93ac6dd25de6b" target="_top" xlink:title="FrameObject::doApplyYUVMath">
<polygon fill="white" stroke="black" points="1039,-38.5 1039,-57.5 1196,-57.5 1196,-38.5 1039,-38.5"/>
<text text-anchor="middle" x="1117.5" y="-45.5" font-family="Helvetica,sans-Serif" font-size="10.00">FrameObject::doApplyYUVMath</text>
</a>
</g>
</g>
<!-- Node41&#45;&gt;Node43 -->
<g id="edge53" class="edge"><title>Node41&#45;&gt;Node43</title>
<path fill="none" stroke="midnightblue" d="M935.155,-122.471C956.557,-108.457 998.823,-82.2985 1038,-67 1044.41,-64.4984 1051.24,-62.2579 1058.1,-60.2704"/>
<polygon fill="midnightblue" stroke="midnightblue" points="1059.4,-63.5444 1068.13,-57.5384 1057.56,-56.7907 1059.4,-63.5444"/>
</g>
<!-- Node44 -->
<g id="node44" class="node"><title>Node44</title>
<g id="a_node44"><a xlink:href="classFrameObject.html#a38084be9c862db6fea97d202231144ec" target="_top" xlink:title="FrameObject::applyYUVMath">
<polygon fill="white" stroke="red" points="1045,-152.5 1045,-171.5 1190,-171.5 1190,-152.5 1045,-152.5"/>
<text text-anchor="middle" x="1117.5" y="-159.5" font-family="Helvetica,sans-Serif" font-size="10.00">FrameObject::applyYUVMath</text>
</a>
</g>
</g>
<!-- Node41&#45;&gt;Node44 -->
<g id="edge54" class="edge"><title>Node41&#45;&gt;Node44</title>
<path fill="none" stroke="midnightblue" d="M982.053,-141.369C1001.89,-144.412 1024.08,-147.818 1044.63,-150.971"/>
<polygon fill="midnightblue" stroke="midnightblue" points="1044.15,-154.438 1054.56,-152.496 1045.21,-147.519 1044.15,-154.438"/>
</g>
<!-- Node45 -->
<g id="node45" class="node"><title>Node45</title>
<g id="a_node45"><a xlink:href="classFrameObject.html#acd2367ffa54180853cd3ee901aa85304" target="_top" xlink:title="FrameObject::convertYUV2RGB">
<polygon fill="white" stroke="red" points="1038,-114.5 1038,-133.5 1197,-133.5 1197,-114.5 1038,-114.5"/>
<text text-anchor="middle" x="1117.5" y="-121.5" font-family="Helvetica,sans-Serif" font-size="10.00">FrameObject::convertYUV2RGB</text>
</a>
</g>
</g>
<!-- Node41&#45;&gt;Node45 -->
<g id="edge55" class="edge"><title>Node41&#45;&gt;Node45</title>
<path fill="none" stroke="midnightblue" d="M982.053,-129.502C996.574,-128.907 1012.36,-128.262 1027.84,-127.628"/>
<polygon fill="midnightblue" stroke="midnightblue" points="1028.1,-131.12 1037.95,-127.214 1027.81,-124.126 1028.1,-131.12"/>
</g>
<!-- Node49 -->
<g id="node49" class="node"><title>Node49</title>
<g id="a_node49"><a xlink:href="classstatisticSource.html#a88843dfe28a48a46a3f344ea41043181" target="_top" xlink:title="statisticSource::setStatistics\lTypeList">
<polygon fill="white" stroke="black" points="656,-715 656,-745 799,-745 799,-715 656,-715"/>
<text text-anchor="start" x="664" y="-733" font-family="Helvetica,sans-Serif" font-size="10.00">statisticSource::setStatistics</text>
<text text-anchor="middle" x="727.5" y="-722" font-family="Helvetica,sans-Serif" font-size="10.00">TypeList</text>
</a>
</g>
</g>
<!-- Node48&#45;&gt;Node49 -->
<g id="edge63" class="edge"><title>Node48&#45;&gt;Node49</title>
<path fill="none" stroke="midnightblue" d="M617.216,-720.393C626.596,-721.217 636.246,-722.066 645.745,-722.901"/>
<polygon fill="midnightblue" stroke="midnightblue" points="645.706,-726.411 655.974,-723.8 646.319,-719.438 645.706,-726.411"/>
</g>
<!-- Node50 -->
<g id="node50" class="node"><title>Node50</title>
<g id="a_node50"><a xlink:href="classstatisticSource.html#accae8cdfc95b05e3ef9a945b1f579c46" target="_top" xlink:title="statisticSource::getStatisticsType">
<polygon fill="white" stroke="black" points="838,-728.5 838,-747.5 1002,-747.5 1002,-728.5 838,-728.5"/>
<text text-anchor="middle" x="920" y="-735.5" font-family="Helvetica,sans-Serif" font-size="10.00">statisticSource::getStatisticsType</text>
</a>
</g>
</g>
<!-- Node49&#45;&gt;Node50 -->
<g id="edge64" class="edge"><title>Node49&#45;&gt;Node50</title>
<path fill="none" stroke="midnightblue" d="M799.164,-732.968C808.516,-733.36 818.208,-733.767 827.843,-734.172"/>
<polygon fill="midnightblue" stroke="midnightblue" points="827.71,-737.669 837.848,-734.592 828.003,-730.675 827.71,-737.669"/>
</g>
</g>
</svg>
