<?xml version="1.0" encoding="UTF-8" standalone="no"?>
<!DOCTYPE svg PUBLIC "-//W3C//DTD SVG 1.1//EN"
 "http://www.w3.org/Graphics/SVG/1.1/DTD/svg11.dtd">
<!-- Generated by graphviz version 2.38.0 (20140413.2041)
 -->
<!-- Title: statisticSourceFile::readHeaderFromFile Pages: 1 -->
<svg width="302pt" height="127pt"
 viewBox="0.00 0.00 302.00 127.00" xmlns="http://www.w3.org/2000/svg" xmlns:xlink="http://www.w3.org/1999/xlink">
<g id="graph0" class="graph" transform="scale(1 1) rotate(0) translate(4 123)">
<title>statisticSourceFile::readHeaderFromFile</title>
<polygon fill="white" stroke="none" points="-4,4 -4,-123 298,-123 298,4 -4,4"/>
<!-- Node1 -->
<g id="node1" class="node"><title>Node1</title>
<polygon fill="#bfbfbf" stroke="black" points="0,-44.5 0,-74.5 111,-74.5 111,-44.5 0,-44.5"/>
<text text-anchor="start" x="8" y="-62.5" font-family="Helvetica,sans-Serif" font-size="10.00">statisticSourceFile</text>
<text text-anchor="middle" x="55.5" y="-51.5" font-family="Helvetica,sans-Serif" font-size="10.00">::readHeaderFromFile</text>
</g>
<!-- Node2 -->
<g id="node2" class="node"><title>Node2</title>
<g id="a_node2"><a xlink:href="classstatisticSourceFile.html#aa23abfcfc67bf87bc3fb3f8948f1fa44" target="_top" xlink:title="statisticSourceFile\l::parseCSVLine">
<polygon fill="white" stroke="black" points="171.5,-88.5 171.5,-118.5 269.5,-118.5 269.5,-88.5 171.5,-88.5"/>
<text text-anchor="start" x="179.5" y="-106.5" font-family="Helvetica,sans-Serif" font-size="10.00">statisticSourceFile</text>
<text text-anchor="middle" x="220.5" y="-95.5" font-family="Helvetica,sans-Serif" font-size="10.00">::parseCSVLine</text>
</a>
</g>
</g>
<!-- Node1&#45;&gt;Node2 -->
<g id="edge1" class="edge"><title>Node1&#45;&gt;Node2</title>
<path fill="none" stroke="midnightblue" d="M111.23,-74.2738C127.391,-78.6361 145.131,-83.4249 161.491,-87.841"/>
<polygon fill="midnightblue" stroke="midnightblue" points="160.905,-91.3082 171.472,-90.5354 162.73,-84.5501 160.905,-91.3082"/>
</g>
<!-- Node3 -->
<g id="node3" class="node"><title>Node3</title>
<g id="a_node3"><a xlink:href="classStatisticsType.html#a64aa33f040ec97cb088cb4c6edb355f2" target="_top" xlink:title="StatisticsType::readFromRow">
<polygon fill="white" stroke="black" points="147,-50 147,-69 294,-69 294,-50 147,-50"/>
<text text-anchor="middle" x="220.5" y="-57" font-family="Helvetica,sans-Serif" font-size="10.00">StatisticsType::readFromRow</text>
</a>
</g>
</g>
<!-- Node1&#45;&gt;Node3 -->
<g id="edge2" class="edge"><title>Node1&#45;&gt;Node3</title>
<path fill="none" stroke="midnightblue" d="M111.23,-59.5C119.473,-59.5 128.127,-59.5 136.799,-59.5"/>
<polygon fill="midnightblue" stroke="midnightblue" points="136.964,-63.0001 146.964,-59.5 136.964,-56.0001 136.964,-63.0001"/>
</g>
<!-- Node4 -->
<g id="node4" class="node"><title>Node4</title>
<g id="a_node4"><a xlink:href="classstatisticSourceFile.html#a0043c75ff2dd4df7c926e6feaa02da12" target="_top" xlink:title="Error while parsing. Set the error message that will be returned by status(). Also set p_numberFrames...">
<polygon fill="white" stroke="black" points="171.5,-0.5 171.5,-30.5 269.5,-30.5 269.5,-0.5 171.5,-0.5"/>
<text text-anchor="start" x="179.5" y="-18.5" font-family="Helvetica,sans-Serif" font-size="10.00">statisticSourceFile</text>
<text text-anchor="middle" x="220.5" y="-7.5" font-family="Helvetica,sans-Serif" font-size="10.00">::setErrorState</text>
</a>
</g>
</g>
<!-- Node1&#45;&gt;Node4 -->
<g id="edge3" class="edge"><title>Node1&#45;&gt;Node4</title>
<path fill="none" stroke="midnightblue" d="M111.23,-44.7262C127.391,-40.3639 145.131,-35.5751 161.491,-31.159"/>
<polygon fill="midnightblue" stroke="midnightblue" points="162.73,-34.4499 171.472,-28.4646 160.905,-27.6918 162.73,-34.4499"/>
</g>
</g>
</svg>
