<?xml version="1.0" encoding="UTF-8" standalone="no"?>
<!DOCTYPE svg PUBLIC "-//W3C//DTD SVG 1.1//EN"
 "http://www.w3.org/Graphics/SVG/1.1/DTD/svg11.dtd">
<!-- Generated by graphviz version 2.38.0 (20140413.2041)
 -->
<!-- Title: DisplayObject::setEndFrame Pages: 1 -->
<svg width="1806pt" height="454pt"
 viewBox="0.00 0.00 1806.00 454.00" xmlns="http://www.w3.org/2000/svg" xmlns:xlink="http://www.w3.org/1999/xlink">
<g id="graph0" class="graph" transform="scale(1 1) rotate(0) translate(4 450)">
<title>DisplayObject::setEndFrame</title>
<polygon fill="white" stroke="none" points="-4,4 -4,-450 1802,-450 1802,4 -4,4"/>
<!-- Node1 -->
<g id="node1" class="node"><title>Node1</title>
<polygon fill="#bfbfbf" stroke="black" points="0,-98.5 0,-117.5 143,-117.5 143,-98.5 0,-98.5"/>
<text text-anchor="middle" x="71.5" y="-105.5" font-family="Helvetica,sans-Serif" font-size="10.00">DisplayObject::setEndFrame</text>
</g>
<!-- Node2 -->
<g id="node2" class="node"><title>Node2</title>
<g id="a_node2"><a xlink:href="classDisplayObject.html#a6de8d51bc677aa3956bd2d98228808b8" target="_top" xlink:title="DisplayObject::refreshNumber\lOfFrames">
<polygon fill="white" stroke="black" points="179,-115 179,-145 328,-145 328,-115 179,-115"/>
<text text-anchor="start" x="187" y="-133" font-family="Helvetica,sans-Serif" font-size="10.00">DisplayObject::refreshNumber</text>
<text text-anchor="middle" x="253.5" y="-122" font-family="Helvetica,sans-Serif" font-size="10.00">OfFrames</text>
</a>
</g>
</g>
<!-- Node1&#45;&gt;Node2 -->
<g id="edge1" class="edge"><title>Node1&#45;&gt;Node2</title>
<path fill="none" stroke="midnightblue" d="M153.104,-117.852C161.666,-118.898 170.343,-119.959 178.82,-120.995"/>
<polygon fill="midnightblue" stroke="midnightblue" points="153.475,-114.371 143.124,-116.632 152.626,-121.319 153.475,-114.371"/>
</g>
<!-- Node4 -->
<g id="node4" class="node"><title>Node4</title>
<g id="a_node4"><a xlink:href="classMainWindow.html#a2d8cea1d443550a8f14ce8c80d2608c6" target="_top" xlink:title="MainWindow::loadPlaylistFile">
<polygon fill="white" stroke="black" points="529,-164.5 529,-183.5 674,-183.5 674,-164.5 529,-164.5"/>
<text text-anchor="middle" x="601.5" y="-171.5" font-family="Helvetica,sans-Serif" font-size="10.00">MainWindow::loadPlaylistFile</text>
</a>
</g>
</g>
<!-- Node1&#45;&gt;Node4 -->
<g id="edge35" class="edge"><title>Node1&#45;&gt;Node4</title>
<path fill="none" stroke="midnightblue" d="M100.736,-122.041C121.866,-132.091 151.702,-145.324 179,-154 313.021,-196.598 352.91,-205.285 493,-193 514.146,-191.146 537.365,-187.277 556.796,-183.512"/>
<polygon fill="midnightblue" stroke="midnightblue" points="102.209,-118.866 91.681,-117.676 99.169,-125.172 102.209,-118.866"/>
</g>
<!-- Node16 -->
<g id="node16" class="node"><title>Node16</title>
<g id="a_node16"><a xlink:href="classMainWindow.html#a2cae0b3ed4283301ecc11dc881d31422" target="_top" xlink:title="A file option was changed by the user (width/height/start/end/rate/sampling/frameSize/pixelFormat). ">
<polygon fill="white" stroke="black" points="533.5,-115 533.5,-145 669.5,-145 669.5,-115 533.5,-115"/>
<text text-anchor="start" x="541.5" y="-133" font-family="Helvetica,sans-Serif" font-size="10.00">MainWindow::on_fileOption</text>
<text text-anchor="middle" x="601.5" y="-122" font-family="Helvetica,sans-Serif" font-size="10.00">ValueChanged</text>
</a>
</g>
</g>
<!-- Node1&#45;&gt;Node16 -->
<g id="edge36" class="edge"><title>Node1&#45;&gt;Node16</title>
<path fill="none" stroke="midnightblue" d="M153.175,-101.646C238.055,-96.3094 375.388,-91.5042 493,-105 510.704,-107.031 529.732,-110.886 546.785,-114.972"/>
<polygon fill="midnightblue" stroke="midnightblue" points="152.842,-98.1599 143.088,-102.298 153.293,-105.145 152.842,-98.1599"/>
</g>
<!-- Node24 -->
<g id="node24" class="node"><title>Node24</title>
<g id="a_node24"><a xlink:href="classTextObject.html#a5458ec334fdbae6aec57d43ce4e14105" target="_top" xlink:title="TextObject::setDuration">
<polygon fill="white" stroke="black" points="368,-38.5 368,-57.5 489,-57.5 489,-38.5 368,-38.5"/>
<text text-anchor="middle" x="428.5" y="-45.5" font-family="Helvetica,sans-Serif" font-size="10.00">TextObject::setDuration</text>
</a>
</g>
</g>
<!-- Node1&#45;&gt;Node24 -->
<g id="edge37" class="edge"><title>Node1&#45;&gt;Node24</title>
<path fill="none" stroke="midnightblue" d="M105.362,-94.7048C126.138,-86.8505 153.744,-77.4129 179,-72 242.677,-58.3528 317.208,-52.4578 367.918,-49.9163"/>
<polygon fill="midnightblue" stroke="midnightblue" points="103.824,-91.5465 95.7516,-98.4087 106.341,-98.0782 103.824,-91.5465"/>
</g>
<!-- Node3 -->
<g id="node3" class="node"><title>Node3</title>
<g id="a_node3"><a xlink:href="classFrameObject.html#af3743977db6e996acf666952baaa9d41" target="_top" xlink:title="FrameObject::setSize">
<polygon fill="white" stroke="black" points="372.5,-164.5 372.5,-183.5 484.5,-183.5 484.5,-164.5 372.5,-164.5"/>
<text text-anchor="middle" x="428.5" y="-171.5" font-family="Helvetica,sans-Serif" font-size="10.00">FrameObject::setSize</text>
</a>
</g>
</g>
<!-- Node2&#45;&gt;Node3 -->
<g id="edge2" class="edge"><title>Node2&#45;&gt;Node3</title>
<path fill="none" stroke="midnightblue" d="M323.51,-147.552C346.237,-153.332 370.645,-159.54 390.099,-164.488"/>
<polygon fill="midnightblue" stroke="midnightblue" points="324.107,-144.092 313.553,-145.019 322.382,-150.876 324.107,-144.092"/>
</g>
<!-- Node15 -->
<g id="node15" class="node"><title>Node15</title>
<g id="a_node15"><a xlink:href="classFrameObject.html#a72a06fd2f07099819623216975625bed" target="_top" xlink:title="FrameObject::setSrcPixel\lFormat">
<polygon fill="white" stroke="black" points="364,-115 364,-145 493,-145 493,-115 364,-115"/>
<text text-anchor="start" x="372" y="-133" font-family="Helvetica,sans-Serif" font-size="10.00">FrameObject::setSrcPixel</text>
<text text-anchor="middle" x="428.5" y="-122" font-family="Helvetica,sans-Serif" font-size="10.00">Format</text>
</a>
</g>
</g>
<!-- Node2&#45;&gt;Node15 -->
<g id="edge16" class="edge"><title>Node2&#45;&gt;Node15</title>
<path fill="none" stroke="midnightblue" d="M338.186,-130C346.795,-130 355.44,-130 363.781,-130"/>
<polygon fill="midnightblue" stroke="midnightblue" points="338.118,-126.5 328.118,-130 338.118,-133.5 338.118,-126.5"/>
</g>
<!-- Node3&#45;&gt;Node4 -->
<g id="edge3" class="edge"><title>Node3&#45;&gt;Node4</title>
<path fill="none" stroke="midnightblue" d="M494.617,-174C505.758,-174 517.389,-174 528.693,-174"/>
<polygon fill="midnightblue" stroke="midnightblue" points="494.547,-170.5 484.547,-174 494.547,-177.5 494.547,-170.5"/>
</g>
<!-- Node5 -->
<g id="node5" class="node"><title>Node5</title>
<g id="a_node5"><a xlink:href="classMainWindow.html#a8ef1be3cb02e12d68d12375d1a7a0ced" target="_top" xlink:title="loads a list of yuv/csv files ">
<polygon fill="white" stroke="black" points="1094,-300.5 1094,-319.5 1212,-319.5 1212,-300.5 1094,-300.5"/>
<text text-anchor="middle" x="1153" y="-307.5" font-family="Helvetica,sans-Serif" font-size="10.00">MainWindow::loadFiles</text>
</a>
</g>
</g>
<!-- Node4&#45;&gt;Node5 -->
<g id="edge4" class="edge"><title>Node4&#45;&gt;Node5</title>
<path fill="none" stroke="midnightblue" d="M651.085,-186.025C758.775,-212.678 1015.71,-276.268 1113.4,-300.447"/>
<polygon fill="midnightblue" stroke="midnightblue" points="651.688,-182.568 641.14,-183.563 650.006,-189.363 651.688,-182.568"/>
</g>
<!-- Node6 -->
<g id="node6" class="node"><title>Node6</title>
<g id="a_node6"><a xlink:href="classDisplaySplitWidget.html#ac1d4ced58b2ac2b08153694a5de6232e" target="_top" xlink:title="DisplaySplitWidget\l::dropEvent">
<polygon fill="white" stroke="black" points="1285.5,-339 1285.5,-369 1385.5,-369 1385.5,-339 1285.5,-339"/>
<text text-anchor="start" x="1293.5" y="-357" font-family="Helvetica,sans-Serif" font-size="10.00">DisplaySplitWidget</text>
<text text-anchor="middle" x="1335.5" y="-346" font-family="Helvetica,sans-Serif" font-size="10.00">::dropEvent</text>
</a>
</g>
</g>
<!-- Node5&#45;&gt;Node6 -->
<g id="edge5" class="edge"><title>Node5&#45;&gt;Node6</title>
<path fill="none" stroke="midnightblue" d="M1203.03,-321.952C1228.61,-328.188 1259.82,-335.796 1285.41,-342.034"/>
<polygon fill="midnightblue" stroke="midnightblue" points="1203.71,-318.515 1193.17,-319.547 1202.05,-325.316 1203.71,-318.515"/>
</g>
<!-- Node7 -->
<g id="node7" class="node"><title>Node7</title>
<g id="a_node7"><a xlink:href="classMainWindow.html#a288b768c3c21a9171bdc56fe845ece8b" target="_top" xlink:title="Shows the file open dialog and loads all selected Files. ">
<polygon fill="white" stroke="black" points="1277.5,-212.5 1277.5,-231.5 1393.5,-231.5 1393.5,-212.5 1277.5,-212.5"/>
<text text-anchor="middle" x="1335.5" y="-219.5" font-family="Helvetica,sans-Serif" font-size="10.00">MainWindow::openFile</text>
</a>
</g>
</g>
<!-- Node5&#45;&gt;Node7 -->
<g id="edge6" class="edge"><title>Node5&#45;&gt;Node7</title>
<path fill="none" stroke="midnightblue" d="M1174.78,-294.307C1195.81,-279.081 1229.72,-256.244 1262,-242 1271.32,-237.889 1281.69,-234.426 1291.6,-231.598"/>
<polygon fill="midnightblue" stroke="midnightblue" points="1172.59,-291.576 1166.61,-300.32 1176.74,-297.216 1172.59,-291.576"/>
</g>
<!-- Node11 -->
<g id="node11" class="node"><title>Node11</title>
<g id="a_node11"><a xlink:href="classMainWindow.html#a935316315edb9b7af42657da20be0e54" target="_top" xlink:title="MainWindow::openRecentFile">
<polygon fill="white" stroke="black" points="1262,-300.5 1262,-319.5 1409,-319.5 1409,-300.5 1262,-300.5"/>
<text text-anchor="middle" x="1335.5" y="-307.5" font-family="Helvetica,sans-Serif" font-size="10.00">MainWindow::openRecentFile</text>
</a>
</g>
</g>
<!-- Node5&#45;&gt;Node11 -->
<g id="edge11" class="edge"><title>Node5&#45;&gt;Node11</title>
<path fill="none" stroke="midnightblue" d="M1222.33,-310C1235.28,-310 1248.87,-310 1261.94,-310"/>
<polygon fill="midnightblue" stroke="midnightblue" points="1222.1,-306.5 1212.1,-310 1222.1,-313.5 1222.1,-306.5"/>
</g>
<!-- Node12 -->
<g id="node12" class="node"><title>Node12</title>
<g id="a_node12"><a xlink:href="classPlaylistTreeWidget.html#a295170eb269cc67050ea0b575cd0ab53" target="_top" xlink:title="PlaylistTreeWidget\l::dropEvent">
<polygon fill="white" stroke="black" points="1286,-251 1286,-281 1385,-281 1385,-251 1286,-251"/>
<text text-anchor="start" x="1294" y="-269" font-family="Helvetica,sans-Serif" font-size="10.00">PlaylistTreeWidget</text>
<text text-anchor="middle" x="1335.5" y="-258" font-family="Helvetica,sans-Serif" font-size="10.00">::dropEvent</text>
</a>
</g>
</g>
<!-- Node5&#45;&gt;Node12 -->
<g id="edge13" class="edge"><title>Node5&#45;&gt;Node12</title>
<path fill="none" stroke="midnightblue" d="M1203.07,-298.039C1228.76,-291.777 1260.11,-284.135 1285.75,-277.884"/>
<polygon fill="midnightblue" stroke="midnightblue" points="1202.05,-294.684 1193.17,-300.453 1203.71,-301.485 1202.05,-294.684"/>
</g>
<!-- Node13 -->
<g id="node13" class="node"><title>Node13</title>
<g id="a_node13"><a xlink:href="classYUViewApp.html#ac0f5381cc5b703a9ea704b5eedab4b7f" target="_top" xlink:title="YUViewApp::YUViewApp">
<polygon fill="white" stroke="black" points="1271,-426.5 1271,-445.5 1400,-445.5 1400,-426.5 1271,-426.5"/>
<text text-anchor="middle" x="1335.5" y="-433.5" font-family="Helvetica,sans-Serif" font-size="10.00">YUViewApp::YUViewApp</text>
</a>
</g>
</g>
<!-- Node5&#45;&gt;Node13 -->
<g id="edge14" class="edge"><title>Node5&#45;&gt;Node13</title>
<path fill="none" stroke="midnightblue" d="M1167.08,-327.886C1185.55,-351.819 1221.55,-393.918 1262,-417 1268.78,-420.869 1276.37,-423.968 1284.01,-426.446"/>
<polygon fill="midnightblue" stroke="midnightblue" points="1169.71,-325.555 1160.89,-319.68 1164.12,-329.771 1169.71,-325.555"/>
</g>
<!-- Node14 -->
<g id="node14" class="node"><title>Node14</title>
<g id="a_node14"><a xlink:href="classYUViewApp.html#a2f5f937d6677018ef73a5ffc248f9891" target="_top" xlink:title="YUViewApp::event">
<polygon fill="white" stroke="black" points="1285.5,-388.5 1285.5,-407.5 1385.5,-407.5 1385.5,-388.5 1285.5,-388.5"/>
<text text-anchor="middle" x="1335.5" y="-395.5" font-family="Helvetica,sans-Serif" font-size="10.00">YUViewApp::event</text>
</a>
</g>
</g>
<!-- Node5&#45;&gt;Node14 -->
<g id="edge15" class="edge"><title>Node5&#45;&gt;Node14</title>
<path fill="none" stroke="midnightblue" d="M1174.36,-325.776C1195.3,-341.308 1229.36,-364.72 1262,-379 1270.58,-382.755 1280.07,-385.901 1289.28,-388.483"/>
<polygon fill="midnightblue" stroke="midnightblue" points="1176.33,-322.875 1166.24,-319.651 1172.12,-328.465 1176.33,-322.875"/>
</g>
<!-- Node8 -->
<g id="node8" class="node"><title>Node8</title>
<g id="a_node8"><a xlink:href="classMainWindow.html#a9df7443ce5f907903438bb6a9abe9a33" target="_top" xlink:title="MainWindow::createMenusAnd\lActions">
<polygon fill="white" stroke="black" points="1460,-205 1460,-235 1612,-235 1612,-205 1460,-205"/>
<text text-anchor="start" x="1468" y="-223" font-family="Helvetica,sans-Serif" font-size="10.00">MainWindow::createMenusAnd</text>
<text text-anchor="middle" x="1536" y="-212" font-family="Helvetica,sans-Serif" font-size="10.00">Actions</text>
</a>
</g>
</g>
<!-- Node7&#45;&gt;Node8 -->
<g id="edge7" class="edge"><title>Node7&#45;&gt;Node8</title>
<path fill="none" stroke="midnightblue" d="M1403.76,-221.322C1421.78,-221.141 1441.37,-220.943 1459.78,-220.758"/>
<polygon fill="midnightblue" stroke="midnightblue" points="1403.61,-217.824 1393.65,-221.424 1403.68,-224.823 1403.61,-217.824"/>
</g>
<!-- Node10 -->
<g id="node10" class="node"><title>Node10</title>
<g id="a_node10"><a xlink:href="classMainWindow.html#aaba5c236313378986c42c4a634c4cfb9" target="_top" xlink:title="MainWindow::onCustomContextMenu">
<polygon fill="white" stroke="black" points="1445,-165.5 1445,-184.5 1627,-184.5 1627,-165.5 1445,-165.5"/>
<text text-anchor="middle" x="1536" y="-172.5" font-family="Helvetica,sans-Serif" font-size="10.00">MainWindow::onCustomContextMenu</text>
</a>
</g>
</g>
<!-- Node7&#45;&gt;Node10 -->
<g id="edge9" class="edge"><title>Node7&#45;&gt;Node10</title>
<path fill="none" stroke="midnightblue" d="M1385.64,-210.159C1404.23,-205.696 1425.59,-200.591 1445,-196 1460.93,-192.234 1478.45,-188.135 1493.77,-184.566"/>
<polygon fill="midnightblue" stroke="midnightblue" points="1384.82,-206.757 1375.91,-212.496 1386.45,-213.563 1384.82,-206.757"/>
</g>
<!-- Node9 -->
<g id="node9" class="node"><title>Node9</title>
<g id="a_node9"><a xlink:href="classMainWindow.html#a8b244be8b7b7db1b08de2a2acb9409db" target="_top" xlink:title="MainWindow::MainWindow">
<polygon fill="white" stroke="black" points="1663,-107.5 1663,-126.5 1798,-126.5 1798,-107.5 1663,-107.5"/>
<text text-anchor="middle" x="1730.5" y="-114.5" font-family="Helvetica,sans-Serif" font-size="10.00">MainWindow::MainWindow</text>
</a>
</g>
</g>
<!-- Node8&#45;&gt;Node9 -->
<g id="edge8" class="edge"><title>Node8&#45;&gt;Node9</title>
<path fill="none" stroke="midnightblue" d="M1609.58,-201.562C1615.58,-199.28 1621.46,-196.764 1627,-194 1664.24,-175.42 1701.77,-142.898 1719.29,-126.717"/>
<polygon fill="midnightblue" stroke="midnightblue" points="1608.32,-198.294 1600.09,-204.956 1610.68,-204.885 1608.32,-198.294"/>
</g>
<!-- Node10&#45;&gt;Node9 -->
<g id="edge10" class="edge"><title>Node10&#45;&gt;Node9</title>
<path fill="none" stroke="midnightblue" d="M1582.23,-162.823C1596.58,-158.856 1612.49,-154.35 1627,-150 1652.07,-142.486 1680.38,-133.321 1700.88,-126.558"/>
<polygon fill="midnightblue" stroke="midnightblue" points="1581.29,-159.45 1572.57,-165.475 1583.14,-166.2 1581.29,-159.45"/>
</g>
<!-- Node11&#45;&gt;Node8 -->
<g id="edge12" class="edge"><title>Node11&#45;&gt;Node8</title>
<path fill="none" stroke="midnightblue" d="M1390.37,-297.541C1396.73,-295.585 1403.06,-293.404 1409,-291 1446.94,-275.64 1487.64,-251.056 1512.22,-235.221"/>
<polygon fill="midnightblue" stroke="midnightblue" points="1389.04,-294.283 1380.41,-300.429 1390.99,-301.006 1389.04,-294.283"/>
</g>
<!-- Node15&#45;&gt;Node4 -->
<g id="edge17" class="edge"><title>Node15&#45;&gt;Node4</title>
<path fill="none" stroke="midnightblue" d="M497.713,-147.552C520.177,-153.332 544.302,-159.54 563.531,-164.488"/>
<polygon fill="midnightblue" stroke="midnightblue" points="498.427,-144.122 487.87,-145.019 496.683,-150.901 498.427,-144.122"/>
</g>
<!-- Node15&#45;&gt;Node16 -->
<g id="edge18" class="edge"><title>Node15&#45;&gt;Node16</title>
<path fill="none" stroke="midnightblue" d="M503.432,-130C513.372,-130 523.524,-130 533.338,-130"/>
<polygon fill="midnightblue" stroke="midnightblue" points="503.174,-126.5 493.174,-130 503.174,-133.5 503.174,-126.5"/>
</g>
<!-- Node16&#45;&gt;Node9 -->
<g id="edge19" class="edge"><title>Node16&#45;&gt;Node9</title>
<path fill="none" stroke="midnightblue" d="M672.196,-112.68C684.734,-109.882 697.72,-107.189 710,-105 1033.31,-47.3604 1116.65,-35.2776 1445,-29 1525.87,-27.4538 1551.15,-0.90545 1627,-29 1670.11,-44.9662 1707.29,-88.0681 1722.35,-107.395"/>
<polygon fill="midnightblue" stroke="midnightblue" points="671.233,-109.309 662.258,-114.939 672.785,-116.135 671.233,-109.309"/>
</g>
<!-- Node17 -->
<g id="node17" class="node"><title>Node17</title>
<g id="a_node17"><a xlink:href="classMainWindow.html#a29e6418f12a4331860a7db3616e91600" target="_top" xlink:title="updates the YUV information GUI elements from the current Renderobject ">
<polygon fill="white" stroke="black" points="710,-115 710,-145 859,-145 859,-115 710,-115"/>
<text text-anchor="start" x="718" y="-133" font-family="Helvetica,sans-Serif" font-size="10.00">MainWindow::updateSelection</text>
<text text-anchor="middle" x="784.5" y="-122" font-family="Helvetica,sans-Serif" font-size="10.00">MetaInfo</text>
</a>
</g>
</g>
<!-- Node16&#45;&gt;Node17 -->
<g id="edge20" class="edge"><title>Node16&#45;&gt;Node17</title>
<path fill="none" stroke="midnightblue" d="M679.875,-123.313C689.79,-123.217 699.92,-123.231 709.775,-123.354"/>
<polygon fill="midnightblue" stroke="midnightblue" points="679.591,-119.817 669.641,-123.454 679.688,-126.816 679.591,-119.817"/>
</g>
<!-- Node17&#45;&gt;Node16 -->
<g id="edge32" class="edge"><title>Node17&#45;&gt;Node16</title>
<path fill="none" stroke="midnightblue" d="M699.742,-136.733C689.652,-136.783 679.45,-136.721 669.641,-136.546"/>
<polygon fill="midnightblue" stroke="midnightblue" points="699.806,-140.233 709.775,-136.646 699.745,-133.233 699.806,-140.233"/>
</g>
<!-- Node18 -->
<g id="node18" class="node"><title>Node18</title>
<g id="a_node18"><a xlink:href="classMainWindow.html#a6f33e93f427ff2df80edffcb3ad944da" target="_top" xlink:title="MainWindow::updateSelected\lItems">
<polygon fill="white" stroke="black" points="1080,-119 1080,-149 1226,-149 1226,-119 1080,-119"/>
<text text-anchor="start" x="1088" y="-137" font-family="Helvetica,sans-Serif" font-size="10.00">MainWindow::updateSelected</text>
<text text-anchor="middle" x="1153" y="-126" font-family="Helvetica,sans-Serif" font-size="10.00">Items</text>
</a>
</g>
</g>
<!-- Node17&#45;&gt;Node18 -->
<g id="edge21" class="edge"><title>Node17&#45;&gt;Node18</title>
<path fill="none" stroke="midnightblue" d="M852.991,-147.177C866.799,-150.017 881.299,-152.516 895,-154 960.837,-161.13 978.055,-160.055 1044,-154 1056.06,-152.893 1068.78,-151.105 1081.09,-149.041"/>
<polygon fill="midnightblue" stroke="midnightblue" points="853.591,-143.727 843.08,-145.059 852.128,-150.572 853.591,-143.727"/>
</g>
<!-- Node23 -->
<g id="node23" class="node"><title>Node23</title>
<g id="a_node23"><a xlink:href="classMainWindow.html#a23cc43af3c6873f9a936b5af05c99f49" target="_top" xlink:title="The display objects information changed. Update. ">
<polygon fill="white" stroke="black" points="895,-115 895,-145 1044,-145 1044,-115 895,-115"/>
<text text-anchor="start" x="903" y="-133" font-family="Helvetica,sans-Serif" font-size="10.00">MainWindow::currentSelection</text>
<text text-anchor="middle" x="969.5" y="-122" font-family="Helvetica,sans-Serif" font-size="10.00">InformationChanged</text>
</a>
</g>
</g>
<!-- Node17&#45;&gt;Node23 -->
<g id="edge33" class="edge"><title>Node17&#45;&gt;Node23</title>
<path fill="none" stroke="midnightblue" d="M869.387,-130C877.838,-130 886.376,-130 894.711,-130"/>
<polygon fill="midnightblue" stroke="midnightblue" points="869.142,-126.5 859.142,-130 869.142,-133.5 869.142,-126.5"/>
</g>
<!-- Node18&#45;&gt;Node9 -->
<g id="edge22" class="edge"><title>Node18&#45;&gt;Node9</title>
<path fill="none" stroke="midnightblue" d="M1236.15,-131.573C1350.89,-128.184 1556.93,-122.098 1662.76,-118.972"/>
<polygon fill="midnightblue" stroke="midnightblue" points="1235.91,-128.079 1226.01,-131.873 1236.11,-135.076 1235.91,-128.079"/>
</g>
<!-- Node19 -->
<g id="node19" class="node"><title>Node19</title>
<g id="a_node19"><a xlink:href="classMainWindow.html#a6be7246a1a0ecf5d1442bb1775c3d9b3" target="_top" xlink:title="MainWindow::addDifference\lSequence">
<polygon fill="white" stroke="black" points="1265.5,-163 1265.5,-193 1405.5,-193 1405.5,-163 1265.5,-163"/>
<text text-anchor="start" x="1273.5" y="-181" font-family="Helvetica,sans-Serif" font-size="10.00">MainWindow::addDifference</text>
<text text-anchor="middle" x="1335.5" y="-170" font-family="Helvetica,sans-Serif" font-size="10.00">Sequence</text>
</a>
</g>
</g>
<!-- Node18&#45;&gt;Node19 -->
<g id="edge23" class="edge"><title>Node18&#45;&gt;Node19</title>
<path fill="none" stroke="midnightblue" d="M1225.73,-151.485C1241.33,-155.287 1257.69,-159.277 1272.86,-162.974"/>
<polygon fill="midnightblue" stroke="midnightblue" points="1226.16,-147.987 1215.61,-149.019 1224.5,-154.788 1226.16,-147.987"/>
</g>
<!-- Node20 -->
<g id="node20" class="node"><title>Node20</title>
<g id="a_node20"><a xlink:href="classMainWindow.html#af5ecc7c65080215b49b9d931c56c65c9" target="_top" xlink:title="MainWindow::editTextFrame">
<polygon fill="white" stroke="black" points="1264.5,-45.5 1264.5,-64.5 1406.5,-64.5 1406.5,-45.5 1264.5,-45.5"/>
<text text-anchor="middle" x="1335.5" y="-52.5" font-family="Helvetica,sans-Serif" font-size="10.00">MainWindow::editTextFrame</text>
</a>
</g>
</g>
<!-- Node18&#45;&gt;Node20 -->
<g id="edge26" class="edge"><title>Node18&#45;&gt;Node20</title>
<path fill="none" stroke="midnightblue" d="M1192.46,-114.418C1212.9,-104.279 1238.59,-91.9701 1262,-82 1276.71,-75.7374 1293.4,-69.4629 1307.07,-64.5408"/>
<polygon fill="midnightblue" stroke="midnightblue" points="1190.84,-111.311 1183.46,-118.908 1193.97,-117.575 1190.84,-111.311"/>
</g>
<!-- Node22 -->
<g id="node22" class="node"><title>Node22</title>
<g id="a_node22"><a xlink:href="classMainWindow.html#a156c29c6d7ab278e4246c88a0fcbe2f2" target="_top" xlink:title="MainWindow::updateSettings">
<polygon fill="white" stroke="black" points="1464,-88.5 1464,-107.5 1608,-107.5 1608,-88.5 1464,-88.5"/>
<text text-anchor="middle" x="1536" y="-95.5" font-family="Helvetica,sans-Serif" font-size="10.00">MainWindow::updateSettings</text>
</a>
</g>
</g>
<!-- Node18&#45;&gt;Node22 -->
<g id="edge30" class="edge"><title>Node18&#45;&gt;Node22</title>
<path fill="none" stroke="midnightblue" d="M1236.38,-122.901C1245.03,-121.862 1253.69,-120.873 1262,-120 1330.45,-112.81 1408.77,-106.717 1463.92,-102.779"/>
<polygon fill="midnightblue" stroke="midnightblue" points="1235.77,-119.45 1226.27,-124.139 1236.62,-126.398 1235.77,-119.45"/>
</g>
<!-- Node19&#45;&gt;Node8 -->
<g id="edge24" class="edge"><title>Node19&#45;&gt;Node8</title>
<path fill="none" stroke="midnightblue" d="M1415.52,-194.72C1431.57,-198.115 1448.34,-201.664 1464.08,-204.995"/>
<polygon fill="midnightblue" stroke="midnightblue" points="1416.15,-191.277 1405.65,-192.631 1414.71,-198.125 1416.15,-191.277"/>
</g>
<!-- Node19&#45;&gt;Node10 -->
<g id="edge25" class="edge"><title>Node19&#45;&gt;Node10</title>
<path fill="none" stroke="midnightblue" d="M1415.86,-176.801C1425.37,-176.657 1435.15,-176.509 1444.8,-176.363"/>
<polygon fill="midnightblue" stroke="midnightblue" points="1415.59,-173.304 1405.65,-176.955 1415.7,-180.303 1415.59,-173.304"/>
</g>
<!-- Node20&#45;&gt;Node10 -->
<g id="edge27" class="edge"><title>Node20&#45;&gt;Node10</title>
<path fill="none" stroke="midnightblue" d="M1361.03,-69.8271C1402.27,-94.76 1484.39,-144.406 1519.02,-165.337"/>
<polygon fill="midnightblue" stroke="midnightblue" points="1362.78,-66.7955 1352.41,-64.6173 1359.16,-72.786 1362.78,-66.7955"/>
</g>
<!-- Node21 -->
<g id="node21" class="node"><title>Node21</title>
<g id="a_node21"><a xlink:href="classMainWindow.html#ab18c663524e2c130759c0ca960129ea4" target="_top" xlink:title="MainWindow::onItemDouble\lClicked">
<polygon fill="white" stroke="black" points="1466,-39 1466,-69 1606,-69 1606,-39 1466,-39"/>
<text text-anchor="start" x="1474" y="-57" font-family="Helvetica,sans-Serif" font-size="10.00">MainWindow::onItemDouble</text>
<text text-anchor="middle" x="1536" y="-46" font-family="Helvetica,sans-Serif" font-size="10.00">Clicked</text>
</a>
</g>
</g>
<!-- Node20&#45;&gt;Node21 -->
<g id="edge28" class="edge"><title>Node20&#45;&gt;Node21</title>
<path fill="none" stroke="midnightblue" d="M1416.78,-54.5956C1433.04,-54.5137 1450,-54.4282 1465.83,-54.3484"/>
<polygon fill="midnightblue" stroke="midnightblue" points="1416.75,-51.0956 1406.76,-54.646 1416.78,-58.0955 1416.75,-51.0956"/>
</g>
<!-- Node21&#45;&gt;Node9 -->
<g id="edge29" class="edge"><title>Node21&#45;&gt;Node9</title>
<path fill="none" stroke="midnightblue" d="M1603.51,-71.7961C1611.46,-74.122 1619.43,-76.5507 1627,-79 1654.09,-87.7653 1684.62,-99.305 1705.26,-107.359"/>
<polygon fill="midnightblue" stroke="midnightblue" points="1604.45,-68.4223 1593.87,-69.0155 1602.51,-75.1484 1604.45,-68.4223"/>
</g>
<!-- Node22&#45;&gt;Node9 -->
<g id="edge31" class="edge"><title>Node22&#45;&gt;Node9</title>
<path fill="none" stroke="midnightblue" d="M1618.31,-106.025C1633.14,-107.489 1648.46,-109.001 1662.81,-110.418"/>
<polygon fill="midnightblue" stroke="midnightblue" points="1618.43,-102.52 1608.13,-105.021 1617.74,-109.486 1618.43,-102.52"/>
</g>
<!-- Node23&#45;&gt;Node18 -->
<g id="edge34" class="edge"><title>Node23&#45;&gt;Node18</title>
<path fill="none" stroke="midnightblue" d="M1054.09,-131.842C1062.68,-132.031 1071.35,-132.223 1079.81,-132.409"/>
<polygon fill="midnightblue" stroke="midnightblue" points="1054.14,-128.342 1044.06,-131.621 1053.98,-135.341 1054.14,-128.342"/>
</g>
<!-- Node24&#45;&gt;Node4 -->
<g id="edge38" class="edge"><title>Node24&#45;&gt;Node4</title>
<path fill="none" stroke="midnightblue" d="M449.781,-64.348C462.76,-75.247 479.614,-90.235 493,-105 511.151,-125.02 506.772,-138.631 529,-154 535.255,-158.325 542.425,-161.719 549.755,-164.381"/>
<polygon fill="midnightblue" stroke="midnightblue" points="451.823,-61.4951 441.886,-57.8197 447.362,-66.8897 451.823,-61.4951"/>
</g>
<!-- Node24&#45;&gt;Node20 -->
<g id="edge39" class="edge"><title>Node24&#45;&gt;Node20</title>
<path fill="none" stroke="midnightblue" d="M499.219,-48C570.614,-48 684.797,-48 783.5,-48 783.5,-48 783.5,-48 970.5,-48 1072.74,-48 1191.09,-50.7945 1264.39,-52.8522"/>
<polygon fill="midnightblue" stroke="midnightblue" points="499.003,-44.5001 489.003,-48 499.003,-51.5001 499.003,-44.5001"/>
</g>
<!-- Node25 -->
<g id="node25" class="node"><title>Node25</title>
<g id="a_node25"><a xlink:href="classTextObject.html#a4abe36f8a979d68e0cec492bc70e6cea" target="_top" xlink:title="TextObject::TextObject">
<polygon fill="white" stroke="black" points="542,-0.5 542,-19.5 661,-19.5 661,-0.5 542,-0.5"/>
<text text-anchor="middle" x="601.5" y="-7.5" font-family="Helvetica,sans-Serif" font-size="10.00">TextObject::TextObject</text>
</a>
</g>
</g>
<!-- Node24&#45;&gt;Node25 -->
<g id="edge40" class="edge"><title>Node24&#45;&gt;Node25</title>
<path fill="none" stroke="midnightblue" d="M482.709,-36.1757C506.817,-30.8184 534.94,-24.5689 557.66,-19.5201"/>
<polygon fill="midnightblue" stroke="midnightblue" points="481.653,-32.825 472.651,-38.411 483.172,-39.6583 481.653,-32.825"/>
</g>
</g>
</svg>
