<?xml version="1.0" encoding="UTF-8" standalone="no"?>
<!DOCTYPE svg PUBLIC "-//W3C//DTD SVG 1.1//EN"
 "http://www.w3.org/Graphics/SVG/1.1/DTD/svg11.dtd">
<!-- Generated by graphviz version 2.38.0 (20140413.2041)
 -->
<!-- Title: statisticSource::getPath Pages: 1 -->
<!--zoomable 88 -->
<svg id="main" version="1.1" xmlns="http://www.w3.org/2000/svg" xmlns:xlink="http://www.w3.org/1999/xlink" xml:space="preserve" onload="init(evt)">
<style type="text/css"><![CDATA[
.edge:hover path { stroke: red; }
.edge:hover polygon { stroke: red; fill: red; }
]]></style>
<script type="text/javascript"><![CDATA[
var edges = document.getElementsByTagName('g');
if (edges && edges.length) {
  for (var i=0;i<edges.length;i++) {
    if (edges[i].id.substr(0,4)=='edge') {
      edges[i].setAttribute('class','edge');
    }
  }
}
]]></script>
        <defs>
                <circle id="rim" cx="0" cy="0" r="7"/>
                <circle id="rim2" cx="0" cy="0" r="3.5"/>
                <g id="zoomPlus">
                        <use xlink:href="#rim" fill="#404040">
                                <set attributeName="fill" to="#808080" begin="zoomplus.mouseover" end="zoomplus.mouseout"/>
                        </use>
                        <path d="M-4,0h8M0,-4v8" fill="none" stroke="white" stroke-width="1.5" pointer-events="none"/>
                </g>
                <g id="zoomMin">
                        <use xlink:href="#rim" fill="#404040">
                                <set attributeName="fill" to="#808080" begin="zoomminus.mouseover" end="zoomminus.mouseout"/>
                        </use>
                        <path d="M-4,0h8" fill="none" stroke="white" stroke-width="1.5" pointer-events="none"/>
                </g>
                <g id="dirArrow">
                        <path fill="none" stroke="white" stroke-width="1.5" d="M0,-3.0v7 M-2.5,-0.5L0,-3.0L2.5,-0.5"/>
                </g>
               <g id="resetDef">
                       <use xlink:href="#rim2" fill="#404040">
                               <set attributeName="fill" to="#808080" begin="reset.mouseover" end="reset.mouseout"/>
                       </use>
               </g>
        </defs>

<script type="text/javascript">
var viewWidth = 831;
var viewHeight = 88;
var sectionId = 'dynsection-14';
</script>
<script xlink:href="svgpan.js"/>
<svg id="graph" class="graph">
<g id="viewport">
<title>statisticSource::getPath</title>
<polygon fill="white" stroke="none" points="-4,4 -4,-84 827,-84 827,4 -4,4"/>
<!-- Node1 -->
<g id="node1" class="node"><title>Node1</title>
<polygon fill="#bfbfbf" stroke="black" points="0,-41.5 0,-60.5 122,-60.5 122,-41.5 0,-41.5"/>
<text text-anchor="middle" x="61" y="-48.5" font-family="Helvetica,sans-Serif" font-size="10.00">statisticSource::getPath</text>
</g>
<!-- Node2 -->
<g id="node2" class="node"><title>Node2</title>
<g id="a_node2"><a xlink:href="classStatisticsObject.html#a7d03d62ba7c859483b80c70892b06100" target="_top" xlink:title="StatisticsObject::getInfoList">
<polygon fill="white" stroke="black" points="158,-60.5 158,-79.5 296,-79.5 296,-60.5 158,-60.5"/>
<text text-anchor="middle" x="227" y="-67.5" font-family="Helvetica,sans-Serif" font-size="10.00">StatisticsObject::getInfoList</text>
</a>
</g>
</g>
<!-- Node1&#45;&gt;Node2 -->
<g id="edge1" class="edge"><title>Node1&#45;&gt;Node2</title>
<path fill="none" stroke="midnightblue" d="M132.338,-59.1489C140.79,-60.1281 149.411,-61.1269 157.831,-62.1024"/>
<polygon fill="midnightblue" stroke="midnightblue" points="132.473,-55.6412 122.136,-57.967 131.667,-62.5947 132.473,-55.6412"/>
</g>
<!-- Node3 -->
<g id="node3" class="node"><title>Node3</title>
<g id="a_node3"><a xlink:href="classStatisticsObject.html#a014344f9921915768459d5cd3c5c6efa" target="_top" xlink:title="StatisticsObject::path">
<polygon fill="white" stroke="black" points="171.5,-22.5 171.5,-41.5 282.5,-41.5 282.5,-22.5 171.5,-22.5"/>
<text text-anchor="middle" x="227" y="-29.5" font-family="Helvetica,sans-Serif" font-size="10.00">StatisticsObject::path</text>
</a>
</g>
</g>
<!-- Node1&#45;&gt;Node3 -->
<g id="edge2" class="edge"><title>Node1&#45;&gt;Node3</title>
<path fill="none" stroke="midnightblue" d="M132.454,-42.8377C145.457,-41.3312 158.855,-39.779 171.305,-38.3366"/>
<polygon fill="midnightblue" stroke="midnightblue" points="131.667,-39.4053 122.136,-44.033 132.473,-46.3588 131.667,-39.4053"/>
</g>
<!-- Node4 -->
<g id="node4" class="node"><title>Node4</title>
<g id="a_node4"><a xlink:href="classMainWindow.html#a88624964fbb9d67df9149b29fab6f225" target="_top" xlink:title="MainWindow::savePlaylist\lToFile">
<polygon fill="white" stroke="black" points="332,-17 332,-47 464,-47 464,-17 332,-17"/>
<text text-anchor="start" x="340" y="-35" font-family="Helvetica,sans-Serif" font-size="10.00">MainWindow::savePlaylist</text>
<text text-anchor="middle" x="398" y="-24" font-family="Helvetica,sans-Serif" font-size="10.00">ToFile</text>
</a>
</g>
</g>
<!-- Node3&#45;&gt;Node4 -->
<g id="edge3" class="edge"><title>Node3&#45;&gt;Node4</title>
<path fill="none" stroke="midnightblue" d="M292.932,-32C305.678,-32 319.052,-32 331.806,-32"/>
<polygon fill="midnightblue" stroke="midnightblue" points="292.869,-28.5001 282.869,-32 292.869,-35.5001 292.869,-28.5001"/>
</g>
<!-- Node5 -->
<g id="node5" class="node"><title>Node5</title>
<g id="a_node5"><a xlink:href="classMainWindow.html#a9df7443ce5f907903438bb6a9abe9a33" target="_top" xlink:title="MainWindow::createMenusAnd\lActions">
<polygon fill="white" stroke="black" points="500,-39 500,-69 652,-69 652,-39 500,-39"/>
<text text-anchor="start" x="508" y="-57" font-family="Helvetica,sans-Serif" font-size="10.00">MainWindow::createMenusAnd</text>
<text text-anchor="middle" x="576" y="-46" font-family="Helvetica,sans-Serif" font-size="10.00">Actions</text>
</a>
</g>
</g>
<!-- Node4&#45;&gt;Node5 -->
<g id="edge4" class="edge"><title>Node4&#45;&gt;Node5</title>
<path fill="none" stroke="midnightblue" d="M473.985,-41.3731C482.543,-42.4428 491.268,-43.5336 499.829,-44.6036"/>
<polygon fill="midnightblue" stroke="midnightblue" points="474.393,-37.8969 464.036,-40.1295 473.524,-44.8429 474.393,-37.8969"/>
</g>
<!-- Node7 -->
<g id="node7" class="node"><title>Node7</title>
<g id="a_node7"><a xlink:href="classMainWindow.html#a4e20a4a065fbb0e4d3532a45a0a91425" target="_top" xlink:title="MainWindow::closeEvent">
<polygon fill="white" stroke="black" points="512,-0.5 512,-19.5 640,-19.5 640,-0.5 512,-0.5"/>
<text text-anchor="middle" x="576" y="-7.5" font-family="Helvetica,sans-Serif" font-size="10.00">MainWindow::closeEvent</text>
</a>
</g>
</g>
<!-- Node4&#45;&gt;Node7 -->
<g id="edge6" class="edge"><title>Node4&#45;&gt;Node7</title>
<path fill="none" stroke="midnightblue" d="M474.069,-22.6163C486.703,-21.0371 499.7,-19.4125 511.988,-17.8765"/>
<polygon fill="midnightblue" stroke="midnightblue" points="473.524,-19.1571 464.036,-23.8705 474.393,-26.1031 473.524,-19.1571"/>
</g>
<!-- Node6 -->
<g id="node6" class="node"><title>Node6</title>
<g id="a_node6"><a xlink:href="classMainWindow.html#a8b244be8b7b7db1b08de2a2acb9409db" target="_top" xlink:title="MainWindow::MainWindow">
<polygon fill="white" stroke="black" points="688,-44.5 688,-63.5 823,-63.5 823,-44.5 688,-44.5"/>
<text text-anchor="middle" x="755.5" y="-51.5" font-family="Helvetica,sans-Serif" font-size="10.00">MainWindow::MainWindow</text>
</a>
</g>
</g>
<!-- Node5&#45;&gt;Node6 -->
<g id="edge5" class="edge"><title>Node5&#45;&gt;Node6</title>
<path fill="none" stroke="midnightblue" d="M662.138,-54C670.793,-54 679.494,-54 687.911,-54"/>
<polygon fill="midnightblue" stroke="midnightblue" points="662.019,-50.5001 652.019,-54 662.019,-57.5001 662.019,-50.5001"/>
</g>
</g>
</svg>
        <g id="navigator" transform="translate(0 0)" fill="#404254">
                <rect fill="#f2f5e9" fill-opacity="0.5" stroke="#606060" stroke-width=".5" x="0" y="0" width="60" height="60"/>
                <use id="zoomplus" xlink:href="#zoomPlus" x="17" y="9" onmousedown="handleZoom(evt,'in')"/>
                <use id="zoomminus" xlink:href="#zoomMin" x="42" y="9" onmousedown="handleZoom(evt,'out')"/>
                <use id="reset" xlink:href="#resetDef" x="30" y="36" onmousedown="handleReset()"/>
                <g id="arrowUp" xlink:href="#dirArrow" transform="translate(30 24)" onmousedown="handlePan(0,-1)">
                  <use xlink:href="#rim" fill="#404040">
                        <set attributeName="fill" to="#808080" begin="arrowUp.mouseover" end="arrowUp.mouseout"/>
                  </use>
                  <path fill="none" stroke="white" stroke-width="1.5" d="M0,-3.0v7 M-2.5,-0.5L0,-3.0L2.5,-0.5"/>
                </g>
                <g id="arrowRight" xlink:href="#dirArrow" transform="rotate(90) translate(36 -43)" onmousedown="handlePan(1,0)">
                  <use xlink:href="#rim" fill="#404040">
                        <set attributeName="fill" to="#808080" begin="arrowRight.mouseover" end="arrowRight.mouseout"/>
                  </use>
                  <path fill="none" stroke="white" stroke-width="1.5" d="M0,-3.0v7 M-2.5,-0.5L0,-3.0L2.5,-0.5"/>
                </g>
                <g id="arrowDown" xlink:href="#dirArrow" transform="rotate(180) translate(-30 -48)" onmousedown="handlePan(0,1)">
                  <use xlink:href="#rim" fill="#404040">
                        <set attributeName="fill" to="#808080" begin="arrowDown.mouseover" end="arrowDown.mouseout"/>
                  </use>
                  <path fill="none" stroke="white" stroke-width="1.5" d="M0,-3.0v7 M-2.5,-0.5L0,-3.0L2.5,-0.5"/>
                </g>
                <g id="arrowLeft" xlink:href="#dirArrow" transform="rotate(270) translate(-36 17)" onmousedown="handlePan(-1,0)">
                  <use xlink:href="#rim" fill="#404040">
                        <set attributeName="fill" to="#808080" begin="arrowLeft.mouseover" end="arrowLeft.mouseout"/>
                  </use>
                  <path fill="none" stroke="white" stroke-width="1.5" d="M0,-3.0v7 M-2.5,-0.5L0,-3.0L2.5,-0.5"/>
                </g>
        </g>
        <svg viewBox="0 0 15 15" width="100%" height="30px" preserveAspectRatio="xMaxYMin meet">
         <g id="arrow_out" transform="scale(0.3 0.3)">
          <a xlink:href="classstatisticSource_a0bcd5970599d13cd51bd9be237943de9_icgraph_org.svg" target="_base">
           <rect id="button" ry="5" rx="5" y="6" x="6" height="38" width="38"
                fill="#f2f5e9" fill-opacity="0.5" stroke="#606060" stroke-width="1.0"/>
           <path id="arrow"
             d="M 11.500037,31.436501 C 11.940474,20.09759 22.043105,11.32322 32.158766,21.979434 L 37.068811,17.246167 C 37.068811,17.246167 37.088388,32 37.088388,32 L 22.160133,31.978069 C 22.160133,31.978069 26.997745,27.140456 26.997745,27.140456 C 18.528582,18.264221 13.291696,25.230495 11.500037,31.436501 z"
             style="fill:#404040;"/>
          </a>
         </g>
        </svg>
</svg>
