<?xml version="1.0" encoding="UTF-8" standalone="no"?>
<!DOCTYPE svg PUBLIC "-//W3C//DTD SVG 1.1//EN"
 "http://www.w3.org/Graphics/SVG/1.1/DTD/svg11.dtd">
<!-- Generated by graphviz version 2.38.0 (20140413.2041)
 -->
<!-- Title: DisplayWidget::drawZoomFactor Pages: 1 -->
<svg width="485pt" height="28pt"
 viewBox="0.00 0.00 485.00 28.00" xmlns="http://www.w3.org/2000/svg" xmlns:xlink="http://www.w3.org/1999/xlink">
<g id="graph0" class="graph" transform="scale(1 1) rotate(0) translate(4 24)">
<title>DisplayWidget::drawZoomFactor</title>
<polygon fill="white" stroke="none" points="-4,4 -4,-24 481,-24 481,4 -4,4"/>
<!-- Node1 -->
<g id="node1" class="node"><title>Node1</title>
<polygon fill="#bfbfbf" stroke="black" points="0,-0.5 0,-19.5 160,-19.5 160,-0.5 0,-0.5"/>
<text text-anchor="middle" x="80" y="-7.5" font-family="Helvetica,sans-Serif" font-size="10.00">DisplayWidget::drawZoomFactor</text>
</g>
<!-- Node2 -->
<g id="node2" class="node"><title>Node2</title>
<g id="a_node2"><a xlink:href="classDisplayWidget.html#a59b9a00276458fae6c0c2db850a87616" target="_top" xlink:title="DisplayWidget::zoomFactor">
<polygon fill="white" stroke="black" points="196,-0.5 196,-19.5 334,-19.5 334,-0.5 196,-0.5"/>
<text text-anchor="middle" x="265" y="-7.5" font-family="Helvetica,sans-Serif" font-size="10.00">DisplayWidget::zoomFactor</text>
</a>
</g>
</g>
<!-- Node1&#45;&gt;Node2 -->
<g id="edge1" class="edge"><title>Node1&#45;&gt;Node2</title>
<path fill="none" stroke="midnightblue" d="M160.202,-10C168.649,-10 177.239,-10 185.675,-10"/>
<polygon fill="midnightblue" stroke="midnightblue" points="185.871,-13.5001 195.871,-10 185.871,-6.5001 185.871,-13.5001"/>
</g>
<!-- Node3 -->
<g id="node3" class="node"><title>Node3</title>
<g id="a_node3"><a xlink:href="classDisplayObject.html#afb3b221174f722f563e7bf55a1ddb29f" target="_top" xlink:title="DisplayObject::width">
<polygon fill="white" stroke="black" points="370,-0.5 370,-19.5 477,-19.5 477,-0.5 370,-0.5"/>
<text text-anchor="middle" x="423.5" y="-7.5" font-family="Helvetica,sans-Serif" font-size="10.00">DisplayObject::width</text>
</a>
</g>
</g>
<!-- Node2&#45;&gt;Node3 -->
<g id="edge2" class="edge"><title>Node2&#45;&gt;Node3</title>
<path fill="none" stroke="midnightblue" d="M334.188,-10C342.621,-10 351.212,-10 359.561,-10"/>
<polygon fill="midnightblue" stroke="midnightblue" points="359.598,-13.5001 369.598,-10 359.598,-6.5001 359.598,-13.5001"/>
</g>
</g>
</svg>
