<?xml version="1.0" encoding="UTF-8" standalone="no"?>
<!DOCTYPE svg PUBLIC "-//W3C//DTD SVG 1.1//EN"
 "http://www.w3.org/Graphics/SVG/1.1/DTD/svg11.dtd">
<!-- Generated by graphviz version 2.38.0 (20140413.2041)
 -->
<!-- Title: SettingsWindow::loadSettings Pages: 1 -->
<svg width="322pt" height="88pt"
 viewBox="0.00 0.00 322.00 88.00" xmlns="http://www.w3.org/2000/svg" xmlns:xlink="http://www.w3.org/1999/xlink">
<g id="graph0" class="graph" transform="scale(1 1) rotate(0) translate(4 84)">
<title>SettingsWindow::loadSettings</title>
<polygon fill="white" stroke="none" points="-4,4 -4,-84 318,-84 318,4 -4,4"/>
<!-- Node1 -->
<g id="node1" class="node"><title>Node1</title>
<polygon fill="#bfbfbf" stroke="black" points="0,-30 0,-49 148,-49 148,-30 0,-30"/>
<text text-anchor="middle" x="74" y="-37" font-family="Helvetica,sans-Serif" font-size="10.00">SettingsWindow::loadSettings</text>
</g>
<!-- Node2 -->
<g id="node2" class="node"><title>Node2</title>
<g id="a_node2"><a xlink:href="classSettingsWindow.html#aab660e714bf67167a3a9de8d8d1936e4" target="_top" xlink:title="SettingsWindow::Settings\lWindow">
<polygon fill="white" stroke="black" points="184,-49.5 184,-79.5 314,-79.5 314,-49.5 184,-49.5"/>
<text text-anchor="start" x="192" y="-67.5" font-family="Helvetica,sans-Serif" font-size="10.00">SettingsWindow::Settings</text>
<text text-anchor="middle" x="249" y="-56.5" font-family="Helvetica,sans-Serif" font-size="10.00">Window</text>
</a>
</g>
</g>
<!-- Node1&#45;&gt;Node2 -->
<g id="edge1" class="edge"><title>Node1&#45;&gt;Node2</title>
<path fill="none" stroke="midnightblue" d="M150.941,-50.4742C161.972,-52.0683 173.236,-53.6959 184,-55.2514"/>
<polygon fill="midnightblue" stroke="midnightblue" points="151.295,-46.989 140.897,-49.0227 150.294,-53.9171 151.295,-46.989"/>
</g>
<!-- Node3 -->
<g id="node3" class="node"><title>Node3</title>
<g id="a_node3"><a xlink:href="classSettingsWindow.html#af55cb9ace10d9d224e5a32673a78e7f3" target="_top" xlink:title="SettingsWindow::on\l_cancelButton_clicked">
<polygon fill="white" stroke="black" points="191.5,-0.5 191.5,-30.5 306.5,-30.5 306.5,-0.5 191.5,-0.5"/>
<text text-anchor="start" x="199.5" y="-18.5" font-family="Helvetica,sans-Serif" font-size="10.00">SettingsWindow::on</text>
<text text-anchor="middle" x="249" y="-7.5" font-family="Helvetica,sans-Serif" font-size="10.00">_cancelButton_clicked</text>
</a>
</g>
</g>
<!-- Node1&#45;&gt;Node3 -->
<g id="edge2" class="edge"><title>Node1&#45;&gt;Node3</title>
<path fill="none" stroke="midnightblue" d="M153.917,-28.552C166.527,-26.8027 179.353,-25.0233 191.313,-23.3641"/>
<polygon fill="midnightblue" stroke="midnightblue" points="153.295,-25.1046 143.871,-29.9456 154.257,-32.0382 153.295,-25.1046"/>
</g>
</g>
</svg>
