<?xml version="1.0" encoding="UTF-8" standalone="no"?>
<!DOCTYPE svg PUBLIC "-//W3C//DTD SVG 1.1//EN"
 "http://www.w3.org/Graphics/SVG/1.1/DTD/svg11.dtd">
<!-- Generated by graphviz version 2.38.0 (20140413.2041)
 -->
<!-- Title: DifferenceObject::refreshDisplayImage Pages: 1 -->
<svg width="871pt" height="496pt"
 viewBox="0.00 0.00 871.00 495.50" xmlns="http://www.w3.org/2000/svg" xmlns:xlink="http://www.w3.org/1999/xlink">
<g id="graph0" class="graph" transform="scale(1 1) rotate(0) translate(4 491.5)">
<title>DifferenceObject::refreshDisplayImage</title>
<polygon fill="white" stroke="none" points="-4,4 -4,-491.5 867,-491.5 867,4 -4,4"/>
<!-- Node1 -->
<g id="node1" class="node"><title>Node1</title>
<polygon fill="#bfbfbf" stroke="black" points="0,-329.5 0,-359.5 126,-359.5 126,-329.5 0,-329.5"/>
<text text-anchor="start" x="8" y="-347.5" font-family="Helvetica,sans-Serif" font-size="10.00">DifferenceObject::refresh</text>
<text text-anchor="middle" x="63" y="-336.5" font-family="Helvetica,sans-Serif" font-size="10.00">DisplayImage</text>
</g>
<!-- Node2 -->
<g id="node2" class="node"><title>Node2</title>
<g id="a_node2"><a xlink:href="classFrameObject.html#adfa8fc2528a422aba57c301f3c2a311c" target="_top" xlink:title="FrameObject::clearCurrent\lCache">
<polygon fill="white" stroke="black" points="166.5,-424.5 166.5,-454.5 298.5,-454.5 298.5,-424.5 166.5,-424.5"/>
<text text-anchor="start" x="174.5" y="-442.5" font-family="Helvetica,sans-Serif" font-size="10.00">FrameObject::clearCurrent</text>
<text text-anchor="middle" x="232.5" y="-431.5" font-family="Helvetica,sans-Serif" font-size="10.00">Cache</text>
</a>
</g>
</g>
<!-- Node1&#45;&gt;Node2 -->
<g id="edge1" class="edge"><title>Node1&#45;&gt;Node2</title>
<path fill="none" stroke="midnightblue" d="M90.5409,-359.553C119.003,-375.696 164.351,-401.416 195.897,-419.308"/>
<polygon fill="midnightblue" stroke="midnightblue" points="194.381,-422.471 204.807,-424.36 197.835,-416.383 194.381,-422.471"/>
</g>
<!-- Node6 -->
<g id="node6" class="node"><title>Node6</title>
<g id="a_node6"><a xlink:href="classDifferenceObject.html#acb2a437aedc3f3a4400c394d0330afc0" target="_top" xlink:title="DifferenceObject::loadImage">
<polygon fill="white" stroke="black" points="162,-221 162,-240 303,-240 303,-221 162,-221"/>
<text text-anchor="middle" x="232.5" y="-228" font-family="Helvetica,sans-Serif" font-size="10.00">DifferenceObject::loadImage</text>
</a>
</g>
</g>
<!-- Node1&#45;&gt;Node6 -->
<g id="edge5" class="edge"><title>Node1&#45;&gt;Node6</title>
<path fill="none" stroke="midnightblue" d="M86.2427,-329.362C118.292,-307.549 177.123,-267.509 209.203,-245.675"/>
<polygon fill="midnightblue" stroke="midnightblue" points="211.199,-248.55 217.497,-240.03 207.261,-242.763 211.199,-248.55"/>
</g>
<!-- Node3 -->
<g id="node3" class="node"><title>Node3</title>
<g id="a_node3"><a xlink:href="classYUVSource.html#a12174732ce70dfe8f1e5b842a532b8c9" target="_top" xlink:title="YUVSource::getName">
<polygon fill="white" stroke="black" points="361.5,-468 361.5,-487 475.5,-487 475.5,-468 361.5,-468"/>
<text text-anchor="middle" x="418.5" y="-475" font-family="Helvetica,sans-Serif" font-size="10.00">YUVSource::getName</text>
</a>
</g>
</g>
<!-- Node2&#45;&gt;Node3 -->
<g id="edge2" class="edge"><title>Node2&#45;&gt;Node3</title>
<path fill="none" stroke="midnightblue" d="M298.63,-452.951C319.148,-457.188 341.621,-461.829 361.449,-465.924"/>
<polygon fill="midnightblue" stroke="midnightblue" points="360.75,-469.354 371.251,-467.949 362.165,-462.498 360.75,-469.354"/>
</g>
<!-- Node4 -->
<g id="node4" class="node"><title>Node4</title>
<g id="a_node4"><a xlink:href="classFrameObject.html#a1069def130e7deac035f166084ae4ca8" target="_top" xlink:title="FrameObject::numFrames">
<polygon fill="white" stroke="black" points="537.5,-411 537.5,-430 668.5,-430 668.5,-411 537.5,-411"/>
<text text-anchor="middle" x="603" y="-418" font-family="Helvetica,sans-Serif" font-size="10.00">FrameObject::numFrames</text>
</a>
</g>
</g>
<!-- Node2&#45;&gt;Node4 -->
<g id="edge3" class="edge"><title>Node2&#45;&gt;Node4</title>
<path fill="none" stroke="midnightblue" d="M298.532,-436.147C362.503,-432.849 460.074,-427.818 527.218,-424.356"/>
<polygon fill="midnightblue" stroke="midnightblue" points="527.502,-427.846 537.309,-423.835 527.142,-420.855 527.502,-427.846"/>
</g>
<!-- Node5 -->
<g id="node5" class="node"><title>Node5</title>
<g id="a_node5"><a xlink:href="classYUVSource.html#afaf713d38c871df33f6e28e9d589c86c" target="_top" xlink:title="YUVSource::getNumberFrames">
<polygon fill="white" stroke="black" points="708,-411 708,-430 863,-430 863,-411 708,-411"/>
<text text-anchor="middle" x="785.5" y="-418" font-family="Helvetica,sans-Serif" font-size="10.00">YUVSource::getNumberFrames</text>
</a>
</g>
</g>
<!-- Node4&#45;&gt;Node5 -->
<g id="edge4" class="edge"><title>Node4&#45;&gt;Node5</title>
<path fill="none" stroke="midnightblue" d="M668.655,-420.5C678.115,-420.5 687.983,-420.5 697.796,-420.5"/>
<polygon fill="midnightblue" stroke="midnightblue" points="697.982,-424 707.982,-420.5 697.982,-417 697.982,-424"/>
</g>
<!-- Node7 -->
<g id="node7" class="node"><title>Node7</title>
<g id="a_node7"><a xlink:href="classDifferenceObject.html#a86467ed4a11dec1100ef08cfd6587d45" target="_top" xlink:title="DifferenceObject::numFrames">
<polygon fill="white" stroke="black" points="344.5,-392 344.5,-411 492.5,-411 492.5,-392 344.5,-392"/>
<text text-anchor="middle" x="418.5" y="-399" font-family="Helvetica,sans-Serif" font-size="10.00">DifferenceObject::numFrames</text>
</a>
</g>
</g>
<!-- Node6&#45;&gt;Node7 -->
<g id="edge6" class="edge"><title>Node6&#45;&gt;Node7</title>
<path fill="none" stroke="midnightblue" d="M237.637,-240.048C249.447,-266.17 285.917,-339.403 339,-377.5 345.049,-381.842 351.9,-385.411 358.972,-388.342"/>
<polygon fill="midnightblue" stroke="midnightblue" points="358.106,-391.754 368.698,-391.956 360.544,-385.192 358.106,-391.754"/>
</g>
<!-- Node8 -->
<g id="node8" class="node"><title>Node8</title>
<g id="a_node8"><a xlink:href="classFrameObject.html#a14aa70f40889c11f1b7e73c03144fc82" target="_top" xlink:title="FrameObject::getSource">
<polygon fill="white" stroke="black" points="357,-278 357,-297 480,-297 480,-278 357,-278"/>
<text text-anchor="middle" x="418.5" y="-285" font-family="Helvetica,sans-Serif" font-size="10.00">FrameObject::getSource</text>
</a>
</g>
</g>
<!-- Node6&#45;&gt;Node8 -->
<g id="edge8" class="edge"><title>Node6&#45;&gt;Node8</title>
<path fill="none" stroke="midnightblue" d="M257.555,-240.007C278.779,-248.192 310.658,-259.993 339,-268.5 347.205,-270.963 355.964,-273.332 364.547,-275.512"/>
<polygon fill="midnightblue" stroke="midnightblue" points="363.948,-278.97 374.496,-277.979 365.632,-272.176 363.948,-278.97"/>
</g>
<!-- Node9 -->
<g id="node9" class="node"><title>Node9</title>
<g id="a_node9"><a xlink:href="classYUVSource.html#a11ea64b650d6086177fa0f7a1f3f323d" target="_top" xlink:title="YUVSource::bitsPerSample">
<polygon fill="white" stroke="black" points="534,-183 534,-202 672,-202 672,-183 534,-183"/>
<text text-anchor="middle" x="603" y="-190" font-family="Helvetica,sans-Serif" font-size="10.00">YUVSource::bitsPerSample</text>
</a>
</g>
</g>
<!-- Node6&#45;&gt;Node9 -->
<g id="edge9" class="edge"><title>Node6&#45;&gt;Node9</title>
<path fill="none" stroke="midnightblue" d="M303.245,-223.308C366.03,-216.833 458.205,-207.328 523.54,-200.591"/>
<polygon fill="midnightblue" stroke="midnightblue" points="524.198,-204.042 533.786,-199.534 523.48,-197.079 524.198,-204.042"/>
</g>
<!-- Node11 -->
<g id="node11" class="node"><title>Node11</title>
<g id="a_node11"><a xlink:href="classYUVSource.html#a592ce352c789f4f5789b11e052b58a33" target="_top" xlink:title="YUVSource::pixelFormat">
<polygon fill="white" stroke="black" points="723,-316 723,-335 848,-335 848,-316 723,-316"/>
<text text-anchor="middle" x="785.5" y="-323" font-family="Helvetica,sans-Serif" font-size="10.00">YUVSource::pixelFormat</text>
</a>
</g>
</g>
<!-- Node6&#45;&gt;Node11 -->
<g id="edge15" class="edge"><title>Node6&#45;&gt;Node11</title>
<path fill="none" stroke="midnightblue" d="M242.84,-240.251C259.989,-257.398 298.473,-292.462 339,-306.5 464.727,-350.05 622.446,-343.686 712.526,-334.801"/>
<polygon fill="midnightblue" stroke="midnightblue" points="713.042,-338.267 722.633,-333.766 712.329,-331.303 713.042,-338.267"/>
</g>
<!-- Node12 -->
<g id="node12" class="node"><title>Node12</title>
<g id="a_node12"><a xlink:href="classFrameObject.html#a34dc2eed371951b4ab0c1101afe2fc39" target="_top" xlink:title="FrameObject::pixelFormat">
<polygon fill="white" stroke="black" points="538,-354 538,-373 668,-373 668,-354 538,-354"/>
<text text-anchor="middle" x="603" y="-361" font-family="Helvetica,sans-Serif" font-size="10.00">FrameObject::pixelFormat</text>
</a>
</g>
</g>
<!-- Node6&#45;&gt;Node12 -->
<g id="edge12" class="edge"><title>Node6&#45;&gt;Node12</title>
<path fill="none" stroke="midnightblue" d="M239.405,-240.267C253.445,-262.486 291.251,-316.649 339,-339.5 397.96,-367.717 472.813,-371.949 527.574,-370.16"/>
<polygon fill="midnightblue" stroke="midnightblue" points="528.051,-373.644 537.902,-369.744 527.769,-366.65 528.051,-373.644"/>
</g>
<!-- Node13 -->
<g id="node13" class="node"><title>Node13</title>
<g id="a_node13"><a xlink:href="classYUVSource.html#aff9d7390aa2cdb93376c69ede52b1e30" target="_top" xlink:title="YUVSource::getOneFrame">
<polygon fill="white" stroke="black" points="351.5,-126 351.5,-145 485.5,-145 485.5,-126 351.5,-126"/>
<text text-anchor="middle" x="418.5" y="-133" font-family="Helvetica,sans-Serif" font-size="10.00">YUVSource::getOneFrame</text>
</a>
</g>
</g>
<!-- Node6&#45;&gt;Node13 -->
<g id="edge14" class="edge"><title>Node6&#45;&gt;Node13</title>
<path fill="none" stroke="midnightblue" d="M244.002,-220.755C262.031,-204.556 300.645,-172.131 339,-154.5 344.305,-152.061 349.961,-149.913 355.714,-148.026"/>
<polygon fill="midnightblue" stroke="midnightblue" points="356.879,-151.33 365.442,-145.09 354.857,-144.629 356.879,-151.33"/>
</g>
<!-- Node14 -->
<g id="node14" class="node"><title>Node14</title>
<g id="a_node14"><a xlink:href="classDifferenceObject.html#aefdd72d579780077e6add94fac69d171" target="_top" xlink:title="DifferenceObject::subtract\lYUV444">
<polygon fill="white" stroke="black" points="353,-0.5 353,-30.5 484,-30.5 484,-0.5 353,-0.5"/>
<text text-anchor="start" x="361" y="-18.5" font-family="Helvetica,sans-Serif" font-size="10.00">DifferenceObject::subtract</text>
<text text-anchor="middle" x="418.5" y="-7.5" font-family="Helvetica,sans-Serif" font-size="10.00">YUV444</text>
</a>
</g>
</g>
<!-- Node6&#45;&gt;Node14 -->
<g id="edge16" class="edge"><title>Node6&#45;&gt;Node14</title>
<path fill="none" stroke="midnightblue" d="M236.043,-220.966C244.779,-190.055 276.529,-91.6534 339,-40.5 341.082,-38.7953 343.282,-37.2062 345.571,-35.7248"/>
<polygon fill="midnightblue" stroke="midnightblue" points="347.792,-38.4901 354.783,-30.5287 344.353,-32.3931 347.792,-38.4901"/>
</g>
<!-- Node16 -->
<g id="node16" class="node"><title>Node16</title>
<g id="a_node16"><a xlink:href="classFrameObject.html#a3157b2afa82e71a5ebd93ac6dd25de6b" target="_top" xlink:title="FrameObject::doApplyYUVMath">
<polygon fill="white" stroke="black" points="340,-50 340,-69 497,-69 497,-50 340,-50"/>
<text text-anchor="middle" x="418.5" y="-57" font-family="Helvetica,sans-Serif" font-size="10.00">FrameObject::doApplyYUVMath</text>
</a>
</g>
</g>
<!-- Node6&#45;&gt;Node16 -->
<g id="edge19" class="edge"><title>Node6&#45;&gt;Node16</title>
<path fill="none" stroke="midnightblue" d="M237.262,-220.849C248.347,-193.746 283.619,-116.45 339,-78.5 341.922,-76.4974 345.033,-74.705 348.265,-73.1008"/>
<polygon fill="midnightblue" stroke="midnightblue" points="349.845,-76.2313 357.644,-69.0601 347.075,-69.8025 349.845,-76.2313"/>
</g>
<!-- Node17 -->
<g id="node17" class="node"><title>Node17</title>
<g id="a_node17"><a xlink:href="classFrameObject.html#a38084be9c862db6fea97d202231144ec" target="_top" xlink:title="FrameObject::applyYUVMath">
<polygon fill="white" stroke="black" points="346,-164 346,-183 491,-183 491,-164 346,-164"/>
<text text-anchor="middle" x="418.5" y="-171" font-family="Helvetica,sans-Serif" font-size="10.00">FrameObject::applyYUVMath</text>
</a>
</g>
</g>
<!-- Node6&#45;&gt;Node17 -->
<g id="edge20" class="edge"><title>Node6&#45;&gt;Node17</title>
<path fill="none" stroke="midnightblue" d="M263.954,-220.917C285.018,-214.303 313.699,-205.325 339,-197.5 351.126,-193.75 364.316,-189.704 376.362,-186.023"/>
<polygon fill="midnightblue" stroke="midnightblue" points="377.621,-189.298 386.163,-183.03 375.576,-182.603 377.621,-189.298"/>
</g>
<!-- Node18 -->
<g id="node18" class="node"><title>Node18</title>
<g id="a_node18"><a xlink:href="classFrameObject.html#acd2367ffa54180853cd3ee901aa85304" target="_top" xlink:title="FrameObject::convertYUV2RGB">
<polygon fill="white" stroke="black" points="339,-88 339,-107 498,-107 498,-88 339,-88"/>
<text text-anchor="middle" x="418.5" y="-95" font-family="Helvetica,sans-Serif" font-size="10.00">FrameObject::convertYUV2RGB</text>
</a>
</g>
</g>
<!-- Node6&#45;&gt;Node18 -->
<g id="edge22" class="edge"><title>Node6&#45;&gt;Node18</title>
<path fill="none" stroke="midnightblue" d="M239.544,-220.774C253.877,-198.567 292.255,-143.938 339,-116.5 342.845,-114.243 346.946,-112.254 351.18,-110.5"/>
<polygon fill="midnightblue" stroke="midnightblue" points="352.439,-113.766 360.614,-107.026 350.02,-107.197 352.439,-113.766"/>
</g>
<!-- Node19 -->
<g id="node19" class="node"><title>Node19</title>
<g id="a_node19"><a xlink:href="classDifferenceObject.html#a439e11946f44d8d3ea73d0738c522859" target="_top" xlink:title="DifferenceObject::mark">
<polygon fill="white" stroke="black" points="359.5,-240 359.5,-259 477.5,-259 477.5,-240 359.5,-240"/>
<text text-anchor="middle" x="418.5" y="-247" font-family="Helvetica,sans-Serif" font-size="10.00">DifferenceObject::mark</text>
</a>
</g>
</g>
<!-- Node6&#45;&gt;Node19 -->
<g id="edge24" class="edge"><title>Node6&#45;&gt;Node19</title>
<path fill="none" stroke="midnightblue" d="M303.063,-237.683C318.112,-239.237 334.014,-240.879 349.021,-242.429"/>
<polygon fill="midnightblue" stroke="midnightblue" points="348.939,-245.939 359.246,-243.485 349.658,-238.976 348.939,-245.939"/>
</g>
<!-- Node7&#45;&gt;Node4 -->
<g id="edge7" class="edge"><title>Node7&#45;&gt;Node4</title>
<path fill="none" stroke="midnightblue" d="M492.678,-409.119C504.106,-410.308 515.928,-411.539 527.388,-412.732"/>
<polygon fill="midnightblue" stroke="midnightblue" points="527.038,-416.215 537.346,-413.769 527.763,-409.252 527.038,-416.215"/>
</g>
<!-- Node10 -->
<g id="node10" class="node"><title>Node10</title>
<g id="a_node10"><a xlink:href="classYUVSource.html#a7e554f2c626688704099e00cc4ece029" target="_top" xlink:title="YUVSource::pixelFormatList">
<polygon fill="white" stroke="black" points="715,-183 715,-202 856,-202 856,-183 715,-183"/>
<text text-anchor="middle" x="785.5" y="-190" font-family="Helvetica,sans-Serif" font-size="10.00">YUVSource::pixelFormatList</text>
</a>
</g>
</g>
<!-- Node9&#45;&gt;Node10 -->
<g id="edge10" class="edge"><title>Node9&#45;&gt;Node10</title>
<path fill="none" stroke="midnightblue" d="M672.239,-192.5C682.831,-192.5 693.853,-192.5 704.673,-192.5"/>
<polygon fill="midnightblue" stroke="midnightblue" points="704.964,-196 714.964,-192.5 704.964,-189 704.964,-196"/>
</g>
<!-- Node9&#45;&gt;Node11 -->
<g id="edge11" class="edge"><title>Node9&#45;&gt;Node11</title>
<path fill="none" stroke="midnightblue" d="M616.981,-202.065C647.663,-224.673 724.921,-281.6 762.834,-309.536"/>
<polygon fill="midnightblue" stroke="midnightblue" points="761.023,-312.548 771.15,-315.663 765.175,-306.913 761.023,-312.548"/>
</g>
<!-- Node12&#45;&gt;Node11 -->
<g id="edge13" class="edge"><title>Node12&#45;&gt;Node11</title>
<path fill="none" stroke="midnightblue" d="M649.548,-353.911C673.796,-348.806 703.804,-342.489 729.361,-337.108"/>
<polygon fill="midnightblue" stroke="midnightblue" points="730.215,-340.505 739.28,-335.02 728.773,-333.655 730.215,-340.505"/>
</g>
<!-- Node14&#45;&gt;Node9 -->
<g id="edge17" class="edge"><title>Node14&#45;&gt;Node9</title>
<path fill="none" stroke="midnightblue" d="M481.051,-30.6255C487.061,-33.3954 492.836,-36.6587 498,-40.5 546.152,-76.3165 579.6,-141.317 594.022,-173.457"/>
<polygon fill="midnightblue" stroke="midnightblue" points="590.828,-174.889 598.031,-182.659 597.246,-172.093 590.828,-174.889"/>
</g>
<!-- Node15 -->
<g id="node15" class="node"><title>Node15</title>
<g id="a_node15"><a xlink:href="typedef_8h.html#a9aaa34d570ccff65aa586904187cfff5" target="_top" xlink:title="clip">
<polygon fill="white" stroke="black" points="587,-6 587,-25 619,-25 619,-6 587,-6"/>
<text text-anchor="middle" x="603" y="-13" font-family="Helvetica,sans-Serif" font-size="10.00">clip</text>
</a>
</g>
</g>
<!-- Node14&#45;&gt;Node15 -->
<g id="edge18" class="edge"><title>Node14&#45;&gt;Node15</title>
<path fill="none" stroke="midnightblue" d="M484.1,-15.5C515.966,-15.5 552.587,-15.5 576.449,-15.5"/>
<polygon fill="midnightblue" stroke="midnightblue" points="576.757,-19.0001 586.756,-15.5 576.756,-12.0001 576.757,-19.0001"/>
</g>
<!-- Node17&#45;&gt;Node9 -->
<g id="edge21" class="edge"><title>Node17&#45;&gt;Node9</title>
<path fill="none" stroke="midnightblue" d="M491.105,-180.955C501.775,-182.066 512.822,-183.216 523.623,-184.34"/>
<polygon fill="midnightblue" stroke="midnightblue" points="523.574,-187.854 533.883,-185.408 524.299,-180.892 523.574,-187.854"/>
</g>
<!-- Node18&#45;&gt;Node9 -->
<g id="edge23" class="edge"><title>Node18&#45;&gt;Node9</title>
<path fill="none" stroke="midnightblue" d="M471.58,-107.043C480.601,-109.553 489.732,-112.665 498,-116.5 531.195,-131.896 564.443,-158.659 584.115,-175.969"/>
<polygon fill="midnightblue" stroke="midnightblue" points="581.893,-178.677 591.675,-182.747 586.566,-173.466 581.893,-178.677"/>
</g>
<!-- Node19&#45;&gt;Node9 -->
<g id="edge25" class="edge"><title>Node19&#45;&gt;Node9</title>
<path fill="none" stroke="midnightblue" d="M450.846,-239.999C465.225,-235.62 482.489,-230.332 498,-225.5 519.253,-218.879 542.909,-211.383 562.284,-205.21"/>
<polygon fill="midnightblue" stroke="midnightblue" points="563.526,-208.488 571.989,-202.115 561.399,-201.819 563.526,-208.488"/>
</g>
</g>
</svg>
