<?xml version="1.0" encoding="UTF-8" standalone="no"?>
<!DOCTYPE svg PUBLIC "-//W3C//DTD SVG 1.1//EN"
 "http://www.w3.org/Graphics/SVG/1.1/DTD/svg11.dtd">
<!-- Generated by graphviz version 2.38.0 (20140413.2041)
 -->
<!-- Title: DisplaySplitWidget::zoomToPoint Pages: 1 -->
<svg width="1195pt" height="268pt"
 viewBox="0.00 0.00 1195.00 268.00" xmlns="http://www.w3.org/2000/svg" xmlns:xlink="http://www.w3.org/1999/xlink">
<g id="graph0" class="graph" transform="scale(1 1) rotate(0) translate(4 264)">
<title>DisplaySplitWidget::zoomToPoint</title>
<polygon fill="white" stroke="none" points="-4,4 -4,-264 1191,-264 1191,4 -4,4"/>
<!-- Node1 -->
<g id="node1" class="node"><title>Node1</title>
<polygon fill="#bfbfbf" stroke="black" points="0,-159 0,-189 100,-189 100,-159 0,-159"/>
<text text-anchor="start" x="8" y="-177" font-family="Helvetica,sans-Serif" font-size="10.00">DisplaySplitWidget</text>
<text text-anchor="middle" x="50" y="-166" font-family="Helvetica,sans-Serif" font-size="10.00">::zoomToPoint</text>
</g>
<!-- Node2 -->
<g id="node2" class="node"><title>Node2</title>
<g id="a_node2"><a xlink:href="classDisplayWidget.html#a477dcbaeee98a2c684374e4d5a36b0fd" target="_top" xlink:title="DisplayWidget::displayRect">
<polygon fill="white" stroke="black" points="326,-164.5 326,-183.5 464,-183.5 464,-164.5 326,-164.5"/>
<text text-anchor="middle" x="395" y="-171.5" font-family="Helvetica,sans-Serif" font-size="10.00">DisplayWidget::displayRect</text>
</a>
</g>
</g>
<!-- Node1&#45;&gt;Node2 -->
<g id="edge1" class="edge"><title>Node1&#45;&gt;Node2</title>
<path fill="none" stroke="midnightblue" d="M100.144,-174C156.322,-174 249.05,-174 315.318,-174"/>
<polygon fill="midnightblue" stroke="midnightblue" points="315.717,-177.5 325.717,-174 315.717,-170.5 315.717,-177.5"/>
</g>
<!-- Node3 -->
<g id="node3" class="node"><title>Node3</title>
<g id="a_node3"><a xlink:href="classDisplayWidget.html#a7c8417b26f905d8bda1601c879f7e600" target="_top" xlink:title="DisplayWidget::displayObject">
<polygon fill="white" stroke="black" points="140,-88.5 140,-107.5 286,-107.5 286,-88.5 140,-88.5"/>
<text text-anchor="middle" x="213" y="-95.5" font-family="Helvetica,sans-Serif" font-size="10.00">DisplayWidget::displayObject</text>
</a>
</g>
</g>
<!-- Node1&#45;&gt;Node3 -->
<g id="edge2" class="edge"><title>Node1&#45;&gt;Node3</title>
<path fill="none" stroke="midnightblue" d="M69.4657,-158.848C85.9788,-145.999 111.316,-127.959 136,-117 141.495,-114.56 147.358,-112.397 153.298,-110.487"/>
<polygon fill="midnightblue" stroke="midnightblue" points="154.729,-113.713 163.317,-107.507 152.734,-107.003 154.729,-113.713"/>
</g>
<!-- Node4 -->
<g id="node4" class="node"><title>Node4</title>
<g id="a_node4"><a xlink:href="classDisplayObject.html#a4b72bf3422adf483b502da939d38c9d6" target="_top" xlink:title="DisplayObject::size">
<polygon fill="white" stroke="black" points="517.5,-240.5 517.5,-259.5 619.5,-259.5 619.5,-240.5 517.5,-240.5"/>
<text text-anchor="middle" x="568.5" y="-247.5" font-family="Helvetica,sans-Serif" font-size="10.00">DisplayObject::size</text>
</a>
</g>
</g>
<!-- Node1&#45;&gt;Node4 -->
<g id="edge3" class="edge"><title>Node1&#45;&gt;Node4</title>
<path fill="none" stroke="midnightblue" d="M80.5451,-189.023C96.56,-196.516 116.927,-205.021 136,-210 265.278,-243.748 422.85,-249.923 507.244,-250.539"/>
<polygon fill="midnightblue" stroke="midnightblue" points="507.398,-254.04 517.415,-250.589 507.432,-247.04 507.398,-254.04"/>
</g>
<!-- Node7 -->
<g id="node7" class="node"><title>Node7</title>
<g id="a_node7"><a xlink:href="classDisplayWidget.html#a59b9a00276458fae6c0c2db850a87616" target="_top" xlink:title="DisplayWidget::zoomFactor">
<polygon fill="white" stroke="black" points="326,-202.5 326,-221.5 464,-221.5 464,-202.5 326,-202.5"/>
<text text-anchor="middle" x="395" y="-209.5" font-family="Helvetica,sans-Serif" font-size="10.00">DisplayWidget::zoomFactor</text>
</a>
</g>
</g>
<!-- Node1&#45;&gt;Node7 -->
<g id="edge6" class="edge"><title>Node1&#45;&gt;Node7</title>
<path fill="none" stroke="midnightblue" d="M100.355,-182.733C112.019,-184.63 124.43,-186.511 136,-188 196.233,-195.752 264.687,-202.002 315.94,-206.179"/>
<polygon fill="midnightblue" stroke="midnightblue" points="315.705,-209.671 325.954,-206.986 316.268,-202.694 315.705,-209.671"/>
</g>
<!-- Node8 -->
<g id="node8" class="node"><title>Node8</title>
<g id="a_node8"><a xlink:href="classDisplayWidget.html#a822a3c50c6c602fafff6ef2132ccdb42" target="_top" xlink:title="DisplayWidget::setDisplayRect">
<polygon fill="white" stroke="black" points="136,-126.5 136,-145.5 290,-145.5 290,-126.5 136,-126.5"/>
<text text-anchor="middle" x="213" y="-133.5" font-family="Helvetica,sans-Serif" font-size="10.00">DisplayWidget::setDisplayRect</text>
</a>
</g>
</g>
<!-- Node1&#45;&gt;Node8 -->
<g id="edge8" class="edge"><title>Node1&#45;&gt;Node8</title>
<path fill="none" stroke="midnightblue" d="M100.18,-162.392C119.631,-157.801 141.972,-152.528 161.546,-147.908"/>
<polygon fill="midnightblue" stroke="midnightblue" points="162.571,-151.263 171.5,-145.559 160.963,-144.45 162.571,-151.263"/>
</g>
<!-- Node5 -->
<g id="node5" class="node"><title>Node5</title>
<g id="a_node5"><a xlink:href="classDisplayObject.html#afb3b221174f722f563e7bf55a1ddb29f" target="_top" xlink:title="DisplayObject::width">
<polygon fill="white" stroke="black" points="694.5,-240.5 694.5,-259.5 801.5,-259.5 801.5,-240.5 694.5,-240.5"/>
<text text-anchor="middle" x="748" y="-247.5" font-family="Helvetica,sans-Serif" font-size="10.00">DisplayObject::width</text>
</a>
</g>
</g>
<!-- Node4&#45;&gt;Node5 -->
<g id="edge4" class="edge"><title>Node4&#45;&gt;Node5</title>
<path fill="none" stroke="midnightblue" d="M619.89,-250C639.884,-250 663.095,-250 684.168,-250"/>
<polygon fill="midnightblue" stroke="midnightblue" points="684.318,-253.5 694.318,-250 684.318,-246.5 684.318,-253.5"/>
</g>
<!-- Node6 -->
<g id="node6" class="node"><title>Node6</title>
<g id="a_node6"><a xlink:href="classDisplayObject.html#a814782fb1bf9e7a2ed7adab74872c08a" target="_top" xlink:title="DisplayObject::height">
<polygon fill="white" stroke="black" points="693,-202.5 693,-221.5 803,-221.5 803,-202.5 693,-202.5"/>
<text text-anchor="middle" x="748" y="-209.5" font-family="Helvetica,sans-Serif" font-size="10.00">DisplayObject::height</text>
</a>
</g>
</g>
<!-- Node4&#45;&gt;Node6 -->
<g id="edge5" class="edge"><title>Node4&#45;&gt;Node6</title>
<path fill="none" stroke="midnightblue" d="M614.291,-240.411C638.03,-235.329 667.384,-229.045 692.444,-223.68"/>
<polygon fill="midnightblue" stroke="midnightblue" points="693.486,-227.036 702.531,-221.52 692.02,-220.191 693.486,-227.036"/>
</g>
<!-- Node7&#45;&gt;Node5 -->
<g id="edge7" class="edge"><title>Node7&#45;&gt;Node5</title>
<path fill="none" stroke="midnightblue" d="M464.212,-215.693C512.564,-218.722 578.907,-223.709 637,-231 653.481,-233.069 671.257,-235.882 687.613,-238.709"/>
<polygon fill="midnightblue" stroke="midnightblue" points="687.134,-242.179 697.589,-240.465 688.347,-235.285 687.134,-242.179"/>
</g>
<!-- Node8&#45;&gt;Node2 -->
<g id="edge9" class="edge"><title>Node8&#45;&gt;Node2</title>
<path fill="none" stroke="midnightblue" d="M259.422,-145.589C283.603,-150.694 313.527,-157.011 339.014,-162.392"/>
<polygon fill="midnightblue" stroke="midnightblue" points="338.398,-165.839 348.905,-164.48 339.844,-158.99 338.398,-165.839"/>
</g>
<!-- Node8&#45;&gt;Node7 -->
<g id="edge11" class="edge"><title>Node8&#45;&gt;Node7</title>
<path fill="none" stroke="midnightblue" d="M230.225,-145.555C251.599,-157.836 290.628,-179.215 326,-193 331.996,-195.337 338.393,-197.514 344.773,-199.499"/>
<polygon fill="midnightblue" stroke="midnightblue" points="344.145,-202.964 354.727,-202.456 346.138,-196.253 344.145,-202.964"/>
</g>
<!-- Node9 -->
<g id="node9" class="node"><title>Node9</title>
<g id="a_node9"><a xlink:href="classDisplayObject.html#a669d39709021238465e2d42ae2ffce2d" target="_top" xlink:title="DisplayObject::setInternal\lScaleFactor">
<polygon fill="white" stroke="black" points="330,-17 330,-47 460,-47 460,-17 330,-17"/>
<text text-anchor="start" x="338" y="-35" font-family="Helvetica,sans-Serif" font-size="10.00">DisplayObject::setInternal</text>
<text text-anchor="middle" x="395" y="-24" font-family="Helvetica,sans-Serif" font-size="10.00">ScaleFactor</text>
</a>
</g>
</g>
<!-- Node8&#45;&gt;Node9 -->
<g id="edge10" class="edge"><title>Node8&#45;&gt;Node9</title>
<path fill="none" stroke="midnightblue" d="M272.626,-126.488C278.827,-124.014 284.769,-120.905 290,-117 315.226,-98.167 301.69,-76.0012 326,-56 327.559,-54.7174 329.191,-53.5011 330.882,-52.348"/>
<polygon fill="midnightblue" stroke="midnightblue" points="332.928,-55.2036 339.745,-47.0927 329.358,-49.1824 332.928,-55.2036"/>
</g>
<!-- Node10 -->
<g id="node10" class="node"><title>Node10</title>
<g id="a_node10"><a xlink:href="classStatisticsObject.html#a685245dbc78feb8908c60b3becc9a0c0" target="_top" xlink:title="StatisticsObject::setInternal\lScaleFactor">
<polygon fill="white" stroke="black" points="326,-66 326,-96 464,-96 464,-66 326,-66"/>
<text text-anchor="start" x="334" y="-84" font-family="Helvetica,sans-Serif" font-size="10.00">StatisticsObject::setInternal</text>
<text text-anchor="middle" x="395" y="-73" font-family="Helvetica,sans-Serif" font-size="10.00">ScaleFactor</text>
</a>
</g>
</g>
<!-- Node8&#45;&gt;Node10 -->
<g id="edge12" class="edge"><title>Node8&#45;&gt;Node10</title>
<path fill="none" stroke="midnightblue" d="M255.2,-126.404C266.533,-123.573 278.789,-120.335 290,-117 295.473,-115.372 318.508,-107.416 341.512,-99.396"/>
<polygon fill="midnightblue" stroke="midnightblue" points="342.685,-102.694 350.973,-96.0938 340.378,-96.0849 342.685,-102.694"/>
</g>
<!-- Node14 -->
<g id="node14" class="node"><title>Node14</title>
<g id="a_node14"><a xlink:href="classStatisticsObject.html#a09c2920b75ecda0e175a6c9384b446ab" target="_top" xlink:title="StatisticsObject::reload\lImage">
<polygon fill="white" stroke="black" points="335.5,-115 335.5,-145 454.5,-145 454.5,-115 335.5,-115"/>
<text text-anchor="start" x="343.5" y="-133" font-family="Helvetica,sans-Serif" font-size="10.00">StatisticsObject::reload</text>
<text text-anchor="middle" x="395" y="-122" font-family="Helvetica,sans-Serif" font-size="10.00">Image</text>
</a>
</g>
</g>
<!-- Node8&#45;&gt;Node14 -->
<g id="edge16" class="edge"><title>Node8&#45;&gt;Node14</title>
<path fill="none" stroke="midnightblue" d="M290.075,-133.464C301.801,-133.073 313.849,-132.672 325.398,-132.287"/>
<polygon fill="midnightblue" stroke="midnightblue" points="325.521,-135.785 335.399,-131.953 325.288,-128.789 325.521,-135.785"/>
</g>
<!-- Node11 -->
<g id="node11" class="node"><title>Node11</title>
<g id="a_node11"><a xlink:href="classstatisticSource.html#a8c153e3e3576668f5e68af94f441319e" target="_top" xlink:title="statisticSource::setInternal\lScaleFactor">
<polygon fill="white" stroke="black" points="501.5,-33 501.5,-63 635.5,-63 635.5,-33 501.5,-33"/>
<text text-anchor="start" x="509.5" y="-51" font-family="Helvetica,sans-Serif" font-size="10.00">statisticSource::setInternal</text>
<text text-anchor="middle" x="568.5" y="-40" font-family="Helvetica,sans-Serif" font-size="10.00">ScaleFactor</text>
</a>
</g>
</g>
<!-- Node10&#45;&gt;Node11 -->
<g id="edge13" class="edge"><title>Node10&#45;&gt;Node11</title>
<path fill="none" stroke="midnightblue" d="M464.274,-67.8627C473.165,-66.152 482.317,-64.3908 491.327,-62.6572"/>
<polygon fill="midnightblue" stroke="midnightblue" points="492.258,-66.0423 501.417,-60.7157 490.936,-59.1684 492.258,-66.0423"/>
</g>
<!-- Node12 -->
<g id="node12" class="node"><title>Node12</title>
<g id="a_node12"><a xlink:href="typedef_8h.html#a9aaa34d570ccff65aa586904187cfff5" target="_top" xlink:title="clip">
<polygon fill="white" stroke="black" points="732,-0.5 732,-19.5 764,-19.5 764,-0.5 732,-0.5"/>
<text text-anchor="middle" x="748" y="-7.5" font-family="Helvetica,sans-Serif" font-size="10.00">clip</text>
</a>
</g>
</g>
<!-- Node11&#45;&gt;Node12 -->
<g id="edge14" class="edge"><title>Node11&#45;&gt;Node12</title>
<path fill="none" stroke="midnightblue" d="M635.594,-33.8502C665.58,-27.4307 699.263,-20.2196 721.664,-15.424"/>
<polygon fill="midnightblue" stroke="midnightblue" points="722.643,-18.7938 731.689,-13.2779 721.178,-11.9489 722.643,-18.7938"/>
</g>
<!-- Node13 -->
<g id="node13" class="node"><title>Node13</title>
<g id="a_node13"><a xlink:href="classstatisticSource.html#ab919493c131a2f9b26c1c212c05ad223" target="_top" xlink:title="statisticSource::internal\lScaleFactor">
<polygon fill="white" stroke="black" points="874.5,-47 874.5,-77 993.5,-77 993.5,-47 874.5,-47"/>
<text text-anchor="start" x="882.5" y="-65" font-family="Helvetica,sans-Serif" font-size="10.00">statisticSource::internal</text>
<text text-anchor="middle" x="934" y="-54" font-family="Helvetica,sans-Serif" font-size="10.00">ScaleFactor</text>
</a>
</g>
</g>
<!-- Node11&#45;&gt;Node13 -->
<g id="edge15" class="edge"><title>Node11&#45;&gt;Node13</title>
<path fill="none" stroke="midnightblue" d="M635.749,-50.5515C700.477,-53.0445 798.577,-56.8228 864.173,-59.3492"/>
<polygon fill="midnightblue" stroke="midnightblue" points="864.285,-62.856 874.412,-59.7435 864.554,-55.8612 864.285,-62.856"/>
</g>
<!-- Node15 -->
<g id="node15" class="node"><title>Node15</title>
<g id="a_node15"><a xlink:href="classStatisticsObject.html#a7ef3844aa2a91ec4fc67233f7a6f5552" target="_top" xlink:title="StatisticsObject::loadImage">
<polygon fill="white" stroke="black" points="500,-145.5 500,-164.5 637,-164.5 637,-145.5 500,-145.5"/>
<text text-anchor="middle" x="568.5" y="-152.5" font-family="Helvetica,sans-Serif" font-size="10.00">StatisticsObject::loadImage</text>
</a>
</g>
</g>
<!-- Node14&#45;&gt;Node15 -->
<g id="edge17" class="edge"><title>Node14&#45;&gt;Node15</title>
<path fill="none" stroke="midnightblue" d="M454.541,-138.534C466.639,-140.297 479.542,-142.178 492.142,-144.015"/>
<polygon fill="midnightblue" stroke="midnightblue" points="491.76,-147.496 502.161,-145.475 492.77,-140.569 491.76,-147.496"/>
</g>
<!-- Node15&#45;&gt;Node5 -->
<g id="edge22" class="edge"><title>Node15&#45;&gt;Node5</title>
<path fill="none" stroke="midnightblue" d="M586.411,-164.651C600.404,-172.897 620.576,-185.396 637,-198 654.219,-211.215 653.917,-220.658 673,-231 677.224,-233.289 681.733,-235.311 686.364,-237.095"/>
<polygon fill="midnightblue" stroke="midnightblue" points="685.39,-240.461 695.985,-240.433 687.684,-233.848 685.39,-240.461"/>
</g>
<!-- Node15&#45;&gt;Node6 -->
<g id="edge23" class="edge"><title>Node15&#45;&gt;Node6</title>
<path fill="none" stroke="midnightblue" d="M593.523,-164.601C614.351,-172.736 645.401,-184.414 673,-193 680.744,-195.409 689.009,-197.751 697.106,-199.921"/>
<polygon fill="midnightblue" stroke="midnightblue" points="696.292,-203.325 706.852,-202.475 698.066,-196.554 696.292,-203.325"/>
</g>
<!-- Node16 -->
<g id="node16" class="node"><title>Node16</title>
<g id="a_node16"><a xlink:href="classStatisticsObject.html#a977403d59c77839b97f38c4c5d09483b" target="_top" xlink:title="StatisticsObject::numFrames">
<polygon fill="white" stroke="black" points="676,-126.5 676,-145.5 820,-145.5 820,-126.5 676,-126.5"/>
<text text-anchor="middle" x="748" y="-133.5" font-family="Helvetica,sans-Serif" font-size="10.00">StatisticsObject::numFrames</text>
</a>
</g>
</g>
<!-- Node15&#45;&gt;Node16 -->
<g id="edge18" class="edge"><title>Node15&#45;&gt;Node16</title>
<path fill="none" stroke="midnightblue" d="M637.111,-147.763C646.393,-146.769 656.002,-145.741 665.499,-144.724"/>
<polygon fill="midnightblue" stroke="midnightblue" points="666.169,-148.172 675.74,-143.628 665.424,-141.212 666.169,-148.172"/>
</g>
<!-- Node18 -->
<g id="node18" class="node"><title>Node18</title>
<g id="a_node18"><a xlink:href="classStatisticsObject.html#a9d90fa9d1b1373e6f93a9839c757739a" target="_top" xlink:title="StatisticsObject::internal\lScaleFactor">
<polygon fill="white" stroke="black" points="686,-77 686,-107 810,-107 810,-77 686,-77"/>
<text text-anchor="start" x="694" y="-95" font-family="Helvetica,sans-Serif" font-size="10.00">StatisticsObject::internal</text>
<text text-anchor="middle" x="748" y="-84" font-family="Helvetica,sans-Serif" font-size="10.00">ScaleFactor</text>
</a>
</g>
</g>
<!-- Node15&#45;&gt;Node18 -->
<g id="edge20" class="edge"><title>Node15&#45;&gt;Node18</title>
<path fill="none" stroke="midnightblue" d="M594.954,-145.445C615.863,-137.646 646.281,-126.416 673,-117 679.273,-114.789 685.858,-112.508 692.407,-110.264"/>
<polygon fill="midnightblue" stroke="midnightblue" points="693.597,-113.556 701.933,-107.017 691.338,-106.931 693.597,-113.556"/>
</g>
<!-- Node19 -->
<g id="node19" class="node"><title>Node19</title>
<g id="a_node19"><a xlink:href="classstatisticSource.html#a97118da6546c479004129b4fcc6851bf" target="_top" xlink:title="statisticSource::drawStatistics">
<polygon fill="white" stroke="black" points="673,-164.5 673,-183.5 823,-183.5 823,-164.5 673,-164.5"/>
<text text-anchor="middle" x="748" y="-171.5" font-family="Helvetica,sans-Serif" font-size="10.00">statisticSource::drawStatistics</text>
</a>
</g>
</g>
<!-- Node15&#45;&gt;Node19 -->
<g id="edge24" class="edge"><title>Node15&#45;&gt;Node19</title>
<path fill="none" stroke="midnightblue" d="M637.111,-162.237C645.491,-163.134 654.138,-164.06 662.728,-164.979"/>
<polygon fill="midnightblue" stroke="midnightblue" points="662.452,-168.47 672.768,-166.054 663.197,-161.509 662.452,-168.47"/>
</g>
<!-- Node17 -->
<g id="node17" class="node"><title>Node17</title>
<g id="a_node17"><a xlink:href="classstatisticSource.html#a49d2c60f7ce52592509c07fdc9d8e268" target="_top" xlink:title="statisticSource::getNumber\lFrames">
<polygon fill="white" stroke="black" points="866,-110 866,-140 1002,-140 1002,-110 866,-110"/>
<text text-anchor="start" x="874" y="-128" font-family="Helvetica,sans-Serif" font-size="10.00">statisticSource::getNumber</text>
<text text-anchor="middle" x="934" y="-117" font-family="Helvetica,sans-Serif" font-size="10.00">Frames</text>
</a>
</g>
</g>
<!-- Node16&#45;&gt;Node17 -->
<g id="edge19" class="edge"><title>Node16&#45;&gt;Node17</title>
<path fill="none" stroke="midnightblue" d="M820.139,-131.747C831.793,-131.05 843.919,-130.325 855.714,-129.62"/>
<polygon fill="midnightblue" stroke="midnightblue" points="856.2,-133.098 865.973,-129.007 855.782,-126.11 856.2,-133.098"/>
</g>
<!-- Node18&#45;&gt;Node13 -->
<g id="edge21" class="edge"><title>Node18&#45;&gt;Node13</title>
<path fill="none" stroke="midnightblue" d="M810.014,-82.0521C827.328,-79.2291 846.301,-76.1357 864.05,-73.2418"/>
<polygon fill="midnightblue" stroke="midnightblue" points="865.031,-76.6282 874.338,-71.5645 863.905,-69.7194 865.031,-76.6282"/>
</g>
<!-- Node20 -->
<g id="node20" class="node"><title>Node20</title>
<g id="a_node20"><a xlink:href="classstatisticSource.html#a666dee63c406a9b88484286b2a8e08f4" target="_top" xlink:title="statisticSource::getStatistics">
<polygon fill="white" stroke="black" points="862.5,-208.5 862.5,-227.5 1005.5,-227.5 1005.5,-208.5 862.5,-208.5"/>
<text text-anchor="middle" x="934" y="-215.5" font-family="Helvetica,sans-Serif" font-size="10.00">statisticSource::getStatistics</text>
</a>
</g>
</g>
<!-- Node19&#45;&gt;Node20 -->
<g id="edge25" class="edge"><title>Node19&#45;&gt;Node20</title>
<path fill="none" stroke="midnightblue" d="M788.925,-183.547C816.654,-190.178 853.792,-199.059 883.418,-206.143"/>
<polygon fill="midnightblue" stroke="midnightblue" points="882.613,-209.55 893.153,-208.471 884.241,-202.741 882.613,-209.55"/>
</g>
<!-- Node22 -->
<g id="node22" class="node"><title>Node22</title>
<g id="a_node22"><a xlink:href="classstatisticSource.html#af005d063b46b611d6166d4d8439d6245" target="_top" xlink:title="statisticSource::drawStatistics\lImage">
<polygon fill="white" stroke="black" points="859,-159 859,-189 1009,-189 1009,-159 859,-159"/>
<text text-anchor="start" x="867" y="-177" font-family="Helvetica,sans-Serif" font-size="10.00">statisticSource::drawStatistics</text>
<text text-anchor="middle" x="934" y="-166" font-family="Helvetica,sans-Serif" font-size="10.00">Image</text>
</a>
</g>
</g>
<!-- Node19&#45;&gt;Node22 -->
<g id="edge27" class="edge"><title>Node19&#45;&gt;Node22</title>
<path fill="none" stroke="midnightblue" d="M823.044,-174C831.514,-174 840.195,-174 848.784,-174"/>
<polygon fill="midnightblue" stroke="midnightblue" points="848.808,-177.5 858.808,-174 848.807,-170.5 848.808,-177.5"/>
</g>
<!-- Node21 -->
<g id="node21" class="node"><title>Node21</title>
<g id="a_node21"><a xlink:href="classstatisticSource.html#a769e0ef8bb1427d4d586425956ebfca2" target="_top" xlink:title="statisticSource::loadStatistic\lToCache">
<polygon fill="white" stroke="black" points="1045,-203 1045,-233 1187,-233 1187,-203 1045,-203"/>
<text text-anchor="start" x="1053" y="-221" font-family="Helvetica,sans-Serif" font-size="10.00">statisticSource::loadStatistic</text>
<text text-anchor="middle" x="1116" y="-210" font-family="Helvetica,sans-Serif" font-size="10.00">ToCache</text>
</a>
</g>
</g>
<!-- Node20&#45;&gt;Node21 -->
<g id="edge26" class="edge"><title>Node20&#45;&gt;Node21</title>
<path fill="none" stroke="midnightblue" d="M1005.62,-218C1015.2,-218 1025.08,-218 1034.81,-218"/>
<polygon fill="midnightblue" stroke="midnightblue" points="1034.87,-221.5 1044.87,-218 1034.87,-214.5 1034.87,-221.5"/>
</g>
<!-- Node23 -->
<g id="node23" class="node"><title>Node23</title>
<g id="a_node23"><a xlink:href="statisticSource_8cpp.html#a00b2533858fa82f16ddb39544cfff2b4" target="_top" xlink:title="rotateVector">
<polygon fill="white" stroke="black" points="1081,-164.5 1081,-183.5 1151,-183.5 1151,-164.5 1081,-164.5"/>
<text text-anchor="middle" x="1116" y="-171.5" font-family="Helvetica,sans-Serif" font-size="10.00">rotateVector</text>
</a>
</g>
</g>
<!-- Node22&#45;&gt;Node23 -->
<g id="edge28" class="edge"><title>Node22&#45;&gt;Node23</title>
<path fill="none" stroke="midnightblue" d="M1009.25,-174C1030.07,-174 1052.05,-174 1070.55,-174"/>
<polygon fill="midnightblue" stroke="midnightblue" points="1070.72,-177.5 1080.72,-174 1070.72,-170.5 1070.72,-177.5"/>
</g>
</g>
</svg>
