<?xml version="1.0" encoding="UTF-8" standalone="no"?>
<!DOCTYPE svg PUBLIC "-//W3C//DTD SVG 1.1//EN"
 "http://www.w3.org/Graphics/SVG/1.1/DTD/svg11.dtd">
<!-- Generated by graphviz version 2.38.0 (20140413.2041)
 -->
<!-- Title: StatisticsObject::reloadImage Pages: 1 -->
<!--zoomable 524 -->
<svg id="main" version="1.1" xmlns="http://www.w3.org/2000/svg" xmlns:xlink="http://www.w3.org/1999/xlink" xml:space="preserve" onload="init(evt)">
<style type="text/css"><![CDATA[
.edge:hover path { stroke: red; }
.edge:hover polygon { stroke: red; fill: red; }
]]></style>
<script type="text/javascript"><![CDATA[
var edges = document.getElementsByTagName('g');
if (edges && edges.length) {
  for (var i=0;i<edges.length;i++) {
    if (edges[i].id.substr(0,4)=='edge') {
      edges[i].setAttribute('class','edge');
    }
  }
}
]]></script>
        <defs>
                <circle id="rim" cx="0" cy="0" r="7"/>
                <circle id="rim2" cx="0" cy="0" r="3.5"/>
                <g id="zoomPlus">
                        <use xlink:href="#rim" fill="#404040">
                                <set attributeName="fill" to="#808080" begin="zoomplus.mouseover" end="zoomplus.mouseout"/>
                        </use>
                        <path d="M-4,0h8M0,-4v8" fill="none" stroke="white" stroke-width="1.5" pointer-events="none"/>
                </g>
                <g id="zoomMin">
                        <use xlink:href="#rim" fill="#404040">
                                <set attributeName="fill" to="#808080" begin="zoomminus.mouseover" end="zoomminus.mouseout"/>
                        </use>
                        <path d="M-4,0h8" fill="none" stroke="white" stroke-width="1.5" pointer-events="none"/>
                </g>
                <g id="dirArrow">
                        <path fill="none" stroke="white" stroke-width="1.5" d="M0,-3.0v7 M-2.5,-0.5L0,-3.0L2.5,-0.5"/>
                </g>
               <g id="resetDef">
                       <use xlink:href="#rim2" fill="#404040">
                               <set attributeName="fill" to="#808080" begin="reset.mouseover" end="reset.mouseout"/>
                       </use>
               </g>
        </defs>

<script type="text/javascript">
var viewWidth = 905;
var viewHeight = 524;
var sectionId = 'dynsection-22';
</script>
<script xlink:href="svgpan.js"/>
<svg id="graph" class="graph">
<g id="viewport">
<title>StatisticsObject::reloadImage</title>
<polygon fill="white" stroke="none" points="-4,4 -4,-520 901,-520 901,4 -4,4"/>
<!-- Node1 -->
<g id="node1" class="node"><title>Node1</title>
<polygon fill="#bfbfbf" stroke="black" points="0,-341.5 0,-371.5 119,-371.5 119,-341.5 0,-341.5"/>
<text text-anchor="start" x="8" y="-359.5" font-family="Helvetica,sans-Serif" font-size="10.00">StatisticsObject::reload</text>
<text text-anchor="middle" x="59.5" y="-348.5" font-family="Helvetica,sans-Serif" font-size="10.00">Image</text>
</g>
<!-- Node2 -->
<g id="node2" class="node"><title>Node2</title>
<g id="a_node2"><a xlink:href="classDisplayWidget.html#a822a3c50c6c602fafff6ef2132ccdb42" target="_top" xlink:title="DisplayWidget::setDisplayRect">
<polygon fill="white" stroke="black" points="155,-347 155,-366 309,-366 309,-347 155,-347"/>
<text text-anchor="middle" x="232" y="-354" font-family="Helvetica,sans-Serif" font-size="10.00">DisplayWidget::setDisplayRect</text>
</a>
</g>
</g>
<!-- Node1&#45;&gt;Node2 -->
<g id="edge1" class="edge"><title>Node1&#45;&gt;Node2</title>
<path fill="none" stroke="midnightblue" d="M129.273,-356.5C137.658,-356.5 146.265,-356.5 154.752,-356.5"/>
<polygon fill="midnightblue" stroke="midnightblue" points="129.176,-353 119.176,-356.5 129.176,-360 129.176,-353"/>
</g>
<!-- Node3 -->
<g id="node3" class="node"><title>Node3</title>
<g id="a_node3"><a xlink:href="classDisplaySplitWidget.html#a07d514c8000eade67022e9f73a4214c0" target="_top" xlink:title="DisplaySplitWidget\l::zoomToPoint">
<polygon fill="white" stroke="black" points="345,-404.5 345,-434.5 445,-434.5 445,-404.5 345,-404.5"/>
<text text-anchor="start" x="353" y="-422.5" font-family="Helvetica,sans-Serif" font-size="10.00">DisplaySplitWidget</text>
<text text-anchor="middle" x="395" y="-411.5" font-family="Helvetica,sans-Serif" font-size="10.00">::zoomToPoint</text>
</a>
</g>
</g>
<!-- Node2&#45;&gt;Node3 -->
<g id="edge2" class="edge"><title>Node2&#45;&gt;Node3</title>
<path fill="none" stroke="midnightblue" d="M266.861,-369.75C292.766,-379.887 328.509,-393.873 355.5,-404.435"/>
<polygon fill="midnightblue" stroke="midnightblue" points="268.04,-366.453 257.452,-366.068 265.489,-372.972 268.04,-366.453"/>
</g>
<!-- Node4 -->
<g id="node4" class="node"><title>Node4</title>
<g id="a_node4"><a xlink:href="classDisplaySplitWidget.html#ad714b0427a31a3ac29bf0f0a2c1f3611" target="_top" xlink:title="DisplaySplitWidget\l::zoomIn">
<polygon fill="white" stroke="black" points="487.5,-338.5 487.5,-368.5 587.5,-368.5 587.5,-338.5 487.5,-338.5"/>
<text text-anchor="start" x="495.5" y="-356.5" font-family="Helvetica,sans-Serif" font-size="10.00">DisplaySplitWidget</text>
<text text-anchor="middle" x="537.5" y="-345.5" font-family="Helvetica,sans-Serif" font-size="10.00">::zoomIn</text>
</a>
</g>
</g>
<!-- Node2&#45;&gt;Node4 -->
<g id="edge13" class="edge"><title>Node2&#45;&gt;Node4</title>
<path fill="none" stroke="midnightblue" d="M319.528,-355.645C373.917,-355.107 442.111,-354.433 487.378,-353.986"/>
<polygon fill="midnightblue" stroke="midnightblue" points="319.159,-352.148 309.194,-355.747 319.228,-359.148 319.159,-352.148"/>
</g>
<!-- Node8 -->
<g id="node8" class="node"><title>Node8</title>
<g id="a_node8"><a xlink:href="classDisplaySplitWidget.html#aeea14bc10ca6579ab6f68f8150f9ac5f" target="_top" xlink:title="DisplaySplitWidget\l::zoomOut">
<polygon fill="white" stroke="black" points="487.5,-436.5 487.5,-466.5 587.5,-466.5 587.5,-436.5 487.5,-436.5"/>
<text text-anchor="start" x="495.5" y="-454.5" font-family="Helvetica,sans-Serif" font-size="10.00">DisplaySplitWidget</text>
<text text-anchor="middle" x="537.5" y="-443.5" font-family="Helvetica,sans-Serif" font-size="10.00">::zoomOut</text>
</a>
</g>
</g>
<!-- Node2&#45;&gt;Node8 -->
<g id="edge14" class="edge"><title>Node2&#45;&gt;Node8</title>
<path fill="none" stroke="midnightblue" d="M248.312,-373.924C268.17,-395.112 305.03,-429.853 345,-444.5 391.075,-461.384 447.629,-461.136 487.291,-457.892"/>
<polygon fill="midnightblue" stroke="midnightblue" points="250.662,-371.308 241.335,-366.282 245.492,-376.027 250.662,-371.308"/>
</g>
<!-- Node9 -->
<g id="node9" class="node"><title>Node9</title>
<g id="a_node9"><a xlink:href="classDisplaySplitWidget.html#a43d312016afd6d843f1c624905f4afee" target="_top" xlink:title="DisplaySplitWidget\l::zoomToFit">
<polygon fill="white" stroke="black" points="487.5,-387.5 487.5,-417.5 587.5,-417.5 587.5,-387.5 487.5,-387.5"/>
<text text-anchor="start" x="495.5" y="-405.5" font-family="Helvetica,sans-Serif" font-size="10.00">DisplaySplitWidget</text>
<text text-anchor="middle" x="537.5" y="-394.5" font-family="Helvetica,sans-Serif" font-size="10.00">::zoomToFit</text>
</a>
</g>
</g>
<!-- Node2&#45;&gt;Node9 -->
<g id="edge15" class="edge"><title>Node2&#45;&gt;Node9</title>
<path fill="none" stroke="midnightblue" d="M306.118,-367.582C362.214,-376.084 438.117,-387.589 487.197,-395.027"/>
<polygon fill="midnightblue" stroke="midnightblue" points="306.297,-364.069 295.885,-366.031 305.248,-370.99 306.297,-364.069"/>
</g>
<!-- Node10 -->
<g id="node10" class="node"><title>Node10</title>
<g id="a_node10"><a xlink:href="classDisplaySplitWidget.html#a0a3afd6247d51bc2ca6fabfc30ff9548" target="_top" xlink:title="DisplaySplitWidget\l::mouseReleaseEvent">
<polygon fill="white" stroke="black" points="481,-485.5 481,-515.5 594,-515.5 594,-485.5 481,-485.5"/>
<text text-anchor="start" x="489" y="-503.5" font-family="Helvetica,sans-Serif" font-size="10.00">DisplaySplitWidget</text>
<text text-anchor="middle" x="537.5" y="-492.5" font-family="Helvetica,sans-Serif" font-size="10.00">::mouseReleaseEvent</text>
</a>
</g>
</g>
<!-- Node2&#45;&gt;Node10 -->
<g id="edge20" class="edge"><title>Node2&#45;&gt;Node10</title>
<path fill="none" stroke="midnightblue" d="M245.863,-374.471C264.645,-399.247 302.049,-443.341 345,-465.5 387.35,-487.349 441.142,-495.748 480.925,-498.884"/>
<polygon fill="midnightblue" stroke="midnightblue" points="248.573,-372.249 239.81,-366.294 242.947,-376.414 248.573,-372.249"/>
</g>
<!-- Node11 -->
<g id="node11" class="node"><title>Node11</title>
<g id="a_node11"><a xlink:href="classDisplaySplitWidget.html#a9421eba026630943587a9ae226c7f8d6" target="_top" xlink:title="DisplaySplitWidget\l::panDisplay">
<polygon fill="white" stroke="black" points="487.5,-289.5 487.5,-319.5 587.5,-319.5 587.5,-289.5 487.5,-289.5"/>
<text text-anchor="start" x="495.5" y="-307.5" font-family="Helvetica,sans-Serif" font-size="10.00">DisplaySplitWidget</text>
<text text-anchor="middle" x="537.5" y="-296.5" font-family="Helvetica,sans-Serif" font-size="10.00">::panDisplay</text>
</a>
</g>
</g>
<!-- Node2&#45;&gt;Node11 -->
<g id="edge16" class="edge"><title>Node2&#45;&gt;Node11</title>
<path fill="none" stroke="midnightblue" d="M298.603,-345.26C355.27,-335.551 435.902,-321.736 487.21,-312.945"/>
<polygon fill="midnightblue" stroke="midnightblue" points="297.932,-341.824 288.667,-346.962 299.114,-348.723 297.932,-341.824"/>
</g>
<!-- Node13 -->
<g id="node13" class="node"><title>Node13</title>
<g id="a_node13"><a xlink:href="classDisplaySplitWidget.html#a337e94b12c4e1837457997cf9d074046" target="_top" xlink:title="DisplaySplitWidget\l::splitterMovedTo">
<polygon fill="white" stroke="black" points="345,-240.5 345,-270.5 445,-270.5 445,-240.5 345,-240.5"/>
<text text-anchor="start" x="353" y="-258.5" font-family="Helvetica,sans-Serif" font-size="10.00">DisplaySplitWidget</text>
<text text-anchor="middle" x="395" y="-247.5" font-family="Helvetica,sans-Serif" font-size="10.00">::splitterMovedTo</text>
</a>
</g>
</g>
<!-- Node2&#45;&gt;Node13 -->
<g id="edge21" class="edge"><title>Node2&#45;&gt;Node13</title>
<path fill="none" stroke="midnightblue" d="M256.771,-341.28C279.396,-326.829 314.43,-304.546 345,-285.5 352.873,-280.595 361.493,-275.294 369.277,-270.533"/>
<polygon fill="midnightblue" stroke="midnightblue" points="254.71,-338.443 248.17,-346.778 258.48,-344.341 254.71,-338.443"/>
</g>
<!-- Node15 -->
<g id="node15" class="node"><title>Node15</title>
<g id="a_node15"><a xlink:href="classDisplaySplitWidget.html#ac88b455e49d13fb34439e45838e468d9" target="_top" xlink:title="DisplaySplitWidget\l::updateView">
<polygon fill="white" stroke="black" points="345,-118.5 345,-148.5 445,-148.5 445,-118.5 345,-118.5"/>
<text text-anchor="start" x="353" y="-136.5" font-family="Helvetica,sans-Serif" font-size="10.00">DisplaySplitWidget</text>
<text text-anchor="middle" x="395" y="-125.5" font-family="Helvetica,sans-Serif" font-size="10.00">::updateView</text>
</a>
</g>
</g>
<!-- Node2&#45;&gt;Node15 -->
<g id="edge23" class="edge"><title>Node2&#45;&gt;Node15</title>
<path fill="none" stroke="midnightblue" d="M245.92,-338.605C276.786,-295.852 354.377,-188.381 383.092,-148.609"/>
<polygon fill="midnightblue" stroke="midnightblue" points="242.934,-336.761 239.918,-346.918 248.609,-340.859 242.934,-336.761"/>
</g>
<!-- Node3&#45;&gt;Node4 -->
<g id="edge3" class="edge"><title>Node3&#45;&gt;Node4</title>
<path fill="none" stroke="midnightblue" d="M435.999,-399.941C450.174,-393.08 466.261,-385.373 481,-378.5 487.992,-375.24 495.509,-371.806 502.683,-368.563"/>
<polygon fill="midnightblue" stroke="midnightblue" points="434.462,-396.796 426.993,-404.31 437.518,-403.093 434.462,-396.796"/>
</g>
<!-- Node3&#45;&gt;Node8 -->
<g id="edge7" class="edge"><title>Node3&#45;&gt;Node8</title>
<path fill="none" stroke="midnightblue" d="M455.201,-432.984C465.841,-435.407 476.827,-437.909 487.15,-440.26"/>
<polygon fill="midnightblue" stroke="midnightblue" points="455.668,-429.5 445.14,-430.692 454.113,-436.325 455.668,-429.5"/>
</g>
<!-- Node3&#45;&gt;Node9 -->
<g id="edge10" class="edge"><title>Node3&#45;&gt;Node9</title>
<path fill="none" stroke="midnightblue" d="M455.201,-412.337C465.841,-411.05 476.827,-409.72 487.15,-408.471"/>
<polygon fill="midnightblue" stroke="midnightblue" points="454.647,-408.878 445.14,-413.554 455.488,-415.828 454.647,-408.878"/>
</g>
<!-- Node3&#45;&gt;Node10 -->
<g id="edge11" class="edge"><title>Node3&#45;&gt;Node10</title>
<path fill="none" stroke="midnightblue" d="M424.726,-440.68C440.822,-452.052 461.523,-465.874 481,-476.5 486.714,-479.617 492.915,-482.632 499.033,-485.412"/>
<polygon fill="midnightblue" stroke="midnightblue" points="426.465,-437.62 416.295,-434.65 422.393,-443.314 426.465,-437.62"/>
</g>
<!-- Node5 -->
<g id="node5" class="node"><title>Node5</title>
<g id="a_node5"><a xlink:href="classDisplaySplitWidget.html#a95fb887b76609440c606ddccadee2318" target="_top" xlink:title="DisplaySplitWidget\l::gestureEvent">
<polygon fill="white" stroke="black" points="645.5,-377.5 645.5,-407.5 745.5,-407.5 745.5,-377.5 645.5,-377.5"/>
<text text-anchor="start" x="653.5" y="-395.5" font-family="Helvetica,sans-Serif" font-size="10.00">DisplaySplitWidget</text>
<text text-anchor="middle" x="695.5" y="-384.5" font-family="Helvetica,sans-Serif" font-size="10.00">::gestureEvent</text>
</a>
</g>
</g>
<!-- Node4&#45;&gt;Node5 -->
<g id="edge4" class="edge"><title>Node4&#45;&gt;Node5</title>
<path fill="none" stroke="midnightblue" d="M597.982,-368.37C613.662,-372.29 630.401,-376.475 645.462,-380.24"/>
<polygon fill="midnightblue" stroke="midnightblue" points="598.41,-364.87 587.859,-365.84 596.712,-371.661 598.41,-364.87"/>
</g>
<!-- Node7 -->
<g id="node7" class="node"><title>Node7</title>
<g id="a_node7"><a xlink:href="classDisplaySplitWidget.html#a3560f335caf77049205e63785c8073ba" target="_top" xlink:title="DisplaySplitWidget\l::wheelEvent">
<polygon fill="white" stroke="black" points="645.5,-431.5 645.5,-461.5 745.5,-461.5 745.5,-431.5 645.5,-431.5"/>
<text text-anchor="start" x="653.5" y="-449.5" font-family="Helvetica,sans-Serif" font-size="10.00">DisplaySplitWidget</text>
<text text-anchor="middle" x="695.5" y="-438.5" font-family="Helvetica,sans-Serif" font-size="10.00">::wheelEvent</text>
</a>
</g>
</g>
<!-- Node4&#45;&gt;Node7 -->
<g id="edge6" class="edge"><title>Node4&#45;&gt;Node7</title>
<path fill="none" stroke="midnightblue" d="M586.142,-373.374C588.867,-374.995 591.508,-376.705 594,-378.5 613.139,-392.289 610.856,-403.718 630,-417.5 637.374,-422.808 645.874,-427.471 654.233,-431.417"/>
<polygon fill="midnightblue" stroke="midnightblue" points="587.689,-370.231 577.236,-368.506 584.332,-376.374 587.689,-370.231"/>
</g>
<!-- Node6 -->
<g id="node6" class="node"><title>Node6</title>
<g id="a_node6"><a xlink:href="classDisplaySplitWidget.html#a152c9ea9cbd3aa079800b6c1d0fbb284" target="_top" xlink:title="DisplaySplitWidget\l::event">
<polygon fill="white" stroke="black" points="797,-355.5 797,-385.5 897,-385.5 897,-355.5 797,-355.5"/>
<text text-anchor="start" x="805" y="-373.5" font-family="Helvetica,sans-Serif" font-size="10.00">DisplaySplitWidget</text>
<text text-anchor="middle" x="847" y="-362.5" font-family="Helvetica,sans-Serif" font-size="10.00">::event</text>
</a>
</g>
</g>
<!-- Node5&#45;&gt;Node6 -->
<g id="edge5" class="edge"><title>Node5&#45;&gt;Node6</title>
<path fill="none" stroke="midnightblue" d="M756.067,-383.734C769.625,-381.739 783.879,-379.642 796.941,-377.719"/>
<polygon fill="midnightblue" stroke="midnightblue" points="755.25,-380.317 745.866,-385.235 756.269,-387.242 755.25,-380.317"/>
</g>
<!-- Node8&#45;&gt;Node5 -->
<g id="edge8" class="edge"><title>Node8&#45;&gt;Node5</title>
<path fill="none" stroke="midnightblue" d="M587.625,-432.921C609.27,-424.734 634.37,-415.242 654.804,-407.513"/>
<polygon fill="midnightblue" stroke="midnightblue" points="586.384,-429.648 578.269,-436.459 588.861,-436.195 586.384,-429.648"/>
</g>
<!-- Node8&#45;&gt;Node7 -->
<g id="edge9" class="edge"><title>Node8&#45;&gt;Node7</title>
<path fill="none" stroke="midnightblue" d="M597.982,-449.594C613.662,-449.091 630.401,-448.554 645.462,-448.072"/>
<polygon fill="midnightblue" stroke="midnightblue" points="597.742,-446.099 587.859,-449.918 597.966,-453.096 597.742,-446.099"/>
</g>
<!-- Node10&#45;&gt;Node6 -->
<g id="edge12" class="edge"><title>Node10&#45;&gt;Node6</title>
<path fill="none" stroke="midnightblue" d="M604.297,-504.153C650.753,-503.92 713.019,-497.738 761,-471.5 797.798,-451.378 825.421,-408.413 838.183,-385.546"/>
<polygon fill="midnightblue" stroke="midnightblue" points="604.055,-500.652 594.041,-504.109 604.026,-507.652 604.055,-500.652"/>
</g>
<!-- Node11&#45;&gt;Node6 -->
<g id="edge17" class="edge"><title>Node11&#45;&gt;Node6</title>
<path fill="none" stroke="midnightblue" d="M597.468,-321.347C608.253,-324.219 619.436,-327.058 630,-329.5 686.899,-342.652 752.94,-354.728 796.871,-362.316"/>
<polygon fill="midnightblue" stroke="midnightblue" points="598.272,-317.939 587.705,-318.712 596.447,-324.697 598.272,-317.939"/>
</g>
<!-- Node12 -->
<g id="node12" class="node"><title>Node12</title>
<g id="a_node12"><a xlink:href="classDisplaySplitWidget.html#a66c16edce3aae0df82f888348cd7590d" target="_top" xlink:title="DisplaySplitWidget\l::mouseMoveEvent">
<polygon fill="white" stroke="black" points="645,-289.5 645,-319.5 746,-319.5 746,-289.5 645,-289.5"/>
<text text-anchor="start" x="653" y="-307.5" font-family="Helvetica,sans-Serif" font-size="10.00">DisplaySplitWidget</text>
<text text-anchor="middle" x="695.5" y="-296.5" font-family="Helvetica,sans-Serif" font-size="10.00">::mouseMoveEvent</text>
</a>
</g>
</g>
<!-- Node11&#45;&gt;Node12 -->
<g id="edge18" class="edge"><title>Node11&#45;&gt;Node12</title>
<path fill="none" stroke="midnightblue" d="M597.882,-304.5C613.405,-304.5 629.973,-304.5 644.926,-304.5"/>
<polygon fill="midnightblue" stroke="midnightblue" points="597.859,-301 587.859,-304.5 597.859,-308 597.859,-301"/>
</g>
<!-- Node12&#45;&gt;Node6 -->
<g id="edge19" class="edge"><title>Node12&#45;&gt;Node6</title>
<path fill="none" stroke="midnightblue" d="M739.96,-323.686C762.854,-333.793 790.526,-346.01 811.861,-355.429"/>
<polygon fill="midnightblue" stroke="midnightblue" points="741.36,-320.479 730.798,-319.642 738.533,-326.882 741.36,-320.479"/>
</g>
<!-- Node14 -->
<g id="node14" class="node"><title>Node14</title>
<g id="a_node14"><a xlink:href="classDisplaySplitWidget.html#ae32ceae7f4472266eabd00877651441b" target="_top" xlink:title="DisplaySplitWidget\l::DisplaySplitWidget">
<polygon fill="white" stroke="black" points="484.5,-240.5 484.5,-270.5 590.5,-270.5 590.5,-240.5 484.5,-240.5"/>
<text text-anchor="start" x="492.5" y="-258.5" font-family="Helvetica,sans-Serif" font-size="10.00">DisplaySplitWidget</text>
<text text-anchor="middle" x="537.5" y="-247.5" font-family="Helvetica,sans-Serif" font-size="10.00">::DisplaySplitWidget</text>
</a>
</g>
</g>
<!-- Node13&#45;&gt;Node14 -->
<g id="edge22" class="edge"><title>Node13&#45;&gt;Node14</title>
<path fill="none" stroke="midnightblue" d="M455.408,-255.5C465.003,-255.5 474.874,-255.5 484.283,-255.5"/>
<polygon fill="midnightblue" stroke="midnightblue" points="455.14,-252 445.14,-255.5 455.14,-259 455.14,-252"/>
</g>
<!-- Node16 -->
<g id="node16" class="node"><title>Node16</title>
<g id="a_node16"><a xlink:href="classDisplaySplitWidget.html#af09b165924f8be5a31873f3b11c8b3f9" target="_top" xlink:title="DisplaySplitWidget\l::resetViews">
<polygon fill="white" stroke="black" points="487.5,-44.5 487.5,-74.5 587.5,-74.5 587.5,-44.5 487.5,-44.5"/>
<text text-anchor="start" x="495.5" y="-62.5" font-family="Helvetica,sans-Serif" font-size="10.00">DisplaySplitWidget</text>
<text text-anchor="middle" x="537.5" y="-51.5" font-family="Helvetica,sans-Serif" font-size="10.00">::resetViews</text>
</a>
</g>
</g>
<!-- Node15&#45;&gt;Node16 -->
<g id="edge24" class="edge"><title>Node15&#45;&gt;Node16</title>
<path fill="none" stroke="midnightblue" d="M428.493,-113.111C444.116,-103.64 463.263,-92.5084 481,-83.5 486.99,-80.4576 493.454,-77.4365 499.78,-74.616"/>
<polygon fill="midnightblue" stroke="midnightblue" points="426.442,-110.263 419.739,-118.468 430.096,-116.234 426.442,-110.263"/>
</g>
<!-- Node18 -->
<g id="node18" class="node"><title>Node18</title>
<g id="a_node18"><a xlink:href="classDisplaySplitWidget.html#a0c0ae7b4fb7ddc344fec1a59034b771b" target="_top" xlink:title="DisplaySplitWidget\l::zoomToStandard">
<polygon fill="white" stroke="black" points="645.5,-0.5 645.5,-30.5 745.5,-30.5 745.5,-0.5 645.5,-0.5"/>
<text text-anchor="start" x="653.5" y="-18.5" font-family="Helvetica,sans-Serif" font-size="10.00">DisplaySplitWidget</text>
<text text-anchor="middle" x="695.5" y="-7.5" font-family="Helvetica,sans-Serif" font-size="10.00">::zoomToStandard</text>
</a>
</g>
</g>
<!-- Node15&#45;&gt;Node18 -->
<g id="edge27" class="edge"><title>Node15&#45;&gt;Node18</title>
<path fill="none" stroke="midnightblue" d="M409.117,-109.466C423.412,-85.8957 448.633,-51.1476 481,-34.5 532.458,-8.03342 600.176,-6.70933 645.414,-9.74868"/>
<polygon fill="midnightblue" stroke="midnightblue" points="406.04,-107.794 404.01,-118.193 412.082,-111.329 406.04,-107.794"/>
</g>
<!-- Node19 -->
<g id="node19" class="node"><title>Node19</title>
<g id="a_node19"><a xlink:href="classDisplaySplitWidget.html#a85aefaa2dbd64ebf686448a2c006f96d" target="_top" xlink:title="DisplaySplitWidget\l::setSplitEnabled">
<polygon fill="white" stroke="black" points="487.5,-191.5 487.5,-221.5 587.5,-221.5 587.5,-191.5 487.5,-191.5"/>
<text text-anchor="start" x="495.5" y="-209.5" font-family="Helvetica,sans-Serif" font-size="10.00">DisplaySplitWidget</text>
<text text-anchor="middle" x="537.5" y="-198.5" font-family="Helvetica,sans-Serif" font-size="10.00">::setSplitEnabled</text>
</a>
</g>
</g>
<!-- Node15&#45;&gt;Node19 -->
<g id="edge28" class="edge"><title>Node15&#45;&gt;Node19</title>
<path fill="none" stroke="midnightblue" d="M430.004,-153.637C445.399,-162.511 463.937,-172.861 481,-181.5 487.6,-184.841 494.74,-188.225 501.632,-191.377"/>
<polygon fill="midnightblue" stroke="midnightblue" points="431.742,-150.6 421.337,-148.607 428.229,-156.654 431.742,-150.6"/>
</g>
<!-- Node20 -->
<g id="node20" class="node"><title>Node20</title>
<g id="a_node20"><a xlink:href="classDisplaySplitWidget.html#a2c0dcc84e9609d30e1eadd8340493e0b" target="_top" xlink:title="DisplaySplitWidget\l::resizeEvent">
<polygon fill="white" stroke="black" points="487.5,-142.5 487.5,-172.5 587.5,-172.5 587.5,-142.5 487.5,-142.5"/>
<text text-anchor="start" x="495.5" y="-160.5" font-family="Helvetica,sans-Serif" font-size="10.00">DisplaySplitWidget</text>
<text text-anchor="middle" x="537.5" y="-149.5" font-family="Helvetica,sans-Serif" font-size="10.00">::resizeEvent</text>
</a>
</g>
</g>
<!-- Node15&#45;&gt;Node20 -->
<g id="edge29" class="edge"><title>Node15&#45;&gt;Node20</title>
<path fill="none" stroke="midnightblue" d="M455.201,-143.613C465.841,-145.43 476.827,-147.307 487.15,-149.07"/>
<polygon fill="midnightblue" stroke="midnightblue" points="455.587,-140.128 445.14,-141.894 454.408,-147.028 455.587,-140.128"/>
</g>
<!-- Node21 -->
<g id="node21" class="node"><title>Node21</title>
<g id="a_node21"><a xlink:href="classDisplaySplitWidget.html#abe7686903d7727bd0f882dc68459f22d" target="_top" xlink:title="DisplaySplitWidget\l::setViewMode">
<polygon fill="white" stroke="black" points="487.5,-93.5 487.5,-123.5 587.5,-123.5 587.5,-93.5 487.5,-93.5"/>
<text text-anchor="start" x="495.5" y="-111.5" font-family="Helvetica,sans-Serif" font-size="10.00">DisplaySplitWidget</text>
<text text-anchor="middle" x="537.5" y="-100.5" font-family="Helvetica,sans-Serif" font-size="10.00">::setViewMode</text>
</a>
</g>
</g>
<!-- Node15&#45;&gt;Node21 -->
<g id="edge30" class="edge"><title>Node15&#45;&gt;Node21</title>
<path fill="none" stroke="midnightblue" d="M455.201,-122.966C465.841,-121.073 476.827,-119.118 487.15,-117.281"/>
<polygon fill="midnightblue" stroke="midnightblue" points="454.372,-119.558 445.14,-124.756 455.599,-126.45 454.372,-119.558"/>
</g>
<!-- Node17 -->
<g id="node17" class="node"><title>Node17</title>
<g id="a_node17"><a xlink:href="classDisplaySplitWidget.html#a6ac792979681575417245e357cdadb69" target="_top" xlink:title="DisplaySplitWidget\l::setActiveDisplayObjects">
<polygon fill="white" stroke="black" points="630,-49.5 630,-79.5 761,-79.5 761,-49.5 630,-49.5"/>
<text text-anchor="start" x="638" y="-67.5" font-family="Helvetica,sans-Serif" font-size="10.00">DisplaySplitWidget</text>
<text text-anchor="middle" x="695.5" y="-56.5" font-family="Helvetica,sans-Serif" font-size="10.00">::setActiveDisplayObjects</text>
</a>
</g>
</g>
<!-- Node16&#45;&gt;Node17 -->
<g id="edge25" class="edge"><title>Node16&#45;&gt;Node17</title>
<path fill="none" stroke="midnightblue" d="M598.047,-61.4086C608.418,-61.741 619.251,-62.0882 629.754,-62.4248"/>
<polygon fill="midnightblue" stroke="midnightblue" points="597.966,-57.9043 587.859,-61.082 597.742,-64.9007 597.966,-57.9043"/>
</g>
<!-- Node16&#45;&gt;Node18 -->
<g id="edge26" class="edge"><title>Node16&#45;&gt;Node18</title>
<path fill="none" stroke="midnightblue" d="M597.534,-42.8493C613.343,-38.3905 630.258,-33.6196 645.462,-29.3313"/>
<polygon fill="midnightblue" stroke="midnightblue" points="596.534,-39.4949 587.859,-45.5781 598.434,-46.232 596.534,-39.4949"/>
</g>
</g>
</svg>
        <g id="navigator" transform="translate(0 0)" fill="#404254">
                <rect fill="#f2f5e9" fill-opacity="0.5" stroke="#606060" stroke-width=".5" x="0" y="0" width="60" height="60"/>
                <use id="zoomplus" xlink:href="#zoomPlus" x="17" y="9" onmousedown="handleZoom(evt,'in')"/>
                <use id="zoomminus" xlink:href="#zoomMin" x="42" y="9" onmousedown="handleZoom(evt,'out')"/>
                <use id="reset" xlink:href="#resetDef" x="30" y="36" onmousedown="handleReset()"/>
                <g id="arrowUp" xlink:href="#dirArrow" transform="translate(30 24)" onmousedown="handlePan(0,-1)">
                  <use xlink:href="#rim" fill="#404040">
                        <set attributeName="fill" to="#808080" begin="arrowUp.mouseover" end="arrowUp.mouseout"/>
                  </use>
                  <path fill="none" stroke="white" stroke-width="1.5" d="M0,-3.0v7 M-2.5,-0.5L0,-3.0L2.5,-0.5"/>
                </g>
                <g id="arrowRight" xlink:href="#dirArrow" transform="rotate(90) translate(36 -43)" onmousedown="handlePan(1,0)">
                  <use xlink:href="#rim" fill="#404040">
                        <set attributeName="fill" to="#808080" begin="arrowRight.mouseover" end="arrowRight.mouseout"/>
                  </use>
                  <path fill="none" stroke="white" stroke-width="1.5" d="M0,-3.0v7 M-2.5,-0.5L0,-3.0L2.5,-0.5"/>
                </g>
                <g id="arrowDown" xlink:href="#dirArrow" transform="rotate(180) translate(-30 -48)" onmousedown="handlePan(0,1)">
                  <use xlink:href="#rim" fill="#404040">
                        <set attributeName="fill" to="#808080" begin="arrowDown.mouseover" end="arrowDown.mouseout"/>
                  </use>
                  <path fill="none" stroke="white" stroke-width="1.5" d="M0,-3.0v7 M-2.5,-0.5L0,-3.0L2.5,-0.5"/>
                </g>
                <g id="arrowLeft" xlink:href="#dirArrow" transform="rotate(270) translate(-36 17)" onmousedown="handlePan(-1,0)">
                  <use xlink:href="#rim" fill="#404040">
                        <set attributeName="fill" to="#808080" begin="arrowLeft.mouseover" end="arrowLeft.mouseout"/>
                  </use>
                  <path fill="none" stroke="white" stroke-width="1.5" d="M0,-3.0v7 M-2.5,-0.5L0,-3.0L2.5,-0.5"/>
                </g>
        </g>
        <svg viewBox="0 0 15 15" width="100%" height="30px" preserveAspectRatio="xMaxYMin meet">
         <g id="arrow_out" transform="scale(0.3 0.3)">
          <a xlink:href="classStatisticsObject_a09c2920b75ecda0e175a6c9384b446ab_icgraph_org.svg" target="_base">
           <rect id="button" ry="5" rx="5" y="6" x="6" height="38" width="38"
                fill="#f2f5e9" fill-opacity="0.5" stroke="#606060" stroke-width="1.0"/>
           <path id="arrow"
             d="M 11.500037,31.436501 C 11.940474,20.09759 22.043105,11.32322 32.158766,21.979434 L 37.068811,17.246167 C 37.068811,17.246167 37.088388,32 37.088388,32 L 22.160133,31.978069 C 22.160133,31.978069 26.997745,27.140456 26.997745,27.140456 C 18.528582,18.264221 13.291696,25.230495 11.500037,31.436501 z"
             style="fill:#404040;"/>
          </a>
         </g>
        </svg>
</svg>
