<?xml version="1.0" encoding="UTF-8" standalone="no"?>
<!DOCTYPE svg PUBLIC "-//W3C//DTD SVG 1.1//EN"
 "http://www.w3.org/Graphics/SVG/1.1/DTD/svg11.dtd">
<!-- Generated by graphviz version 2.38.0 (20140413.2041)
 -->
<!-- Title: MainWindow::togglePlayback Pages: 1 -->
<!--zoomable 294 -->
<svg id="main" version="1.1" xmlns="http://www.w3.org/2000/svg" xmlns:xlink="http://www.w3.org/1999/xlink" xml:space="preserve" onload="init(evt)">
<style type="text/css"><![CDATA[
.edge:hover path { stroke: red; }
.edge:hover polygon { stroke: red; fill: red; }
]]></style>
<script type="text/javascript"><![CDATA[
var edges = document.getElementsByTagName('g');
if (edges && edges.length) {
  for (var i=0;i<edges.length;i++) {
    if (edges[i].id.substr(0,4)=='edge') {
      edges[i].setAttribute('class','edge');
    }
  }
}
]]></script>
        <defs>
                <circle id="rim" cx="0" cy="0" r="7"/>
                <circle id="rim2" cx="0" cy="0" r="3.5"/>
                <g id="zoomPlus">
                        <use xlink:href="#rim" fill="#404040">
                                <set attributeName="fill" to="#808080" begin="zoomplus.mouseover" end="zoomplus.mouseout"/>
                        </use>
                        <path d="M-4,0h8M0,-4v8" fill="none" stroke="white" stroke-width="1.5" pointer-events="none"/>
                </g>
                <g id="zoomMin">
                        <use xlink:href="#rim" fill="#404040">
                                <set attributeName="fill" to="#808080" begin="zoomminus.mouseover" end="zoomminus.mouseout"/>
                        </use>
                        <path d="M-4,0h8" fill="none" stroke="white" stroke-width="1.5" pointer-events="none"/>
                </g>
                <g id="dirArrow">
                        <path fill="none" stroke="white" stroke-width="1.5" d="M0,-3.0v7 M-2.5,-0.5L0,-3.0L2.5,-0.5"/>
                </g>
               <g id="resetDef">
                       <use xlink:href="#rim2" fill="#404040">
                               <set attributeName="fill" to="#808080" begin="reset.mouseover" end="reset.mouseout"/>
                       </use>
               </g>
        </defs>

<script type="text/javascript">
var viewWidth = 551;
var viewHeight = 294;
var sectionId = 'dynsection-93';
</script>
<script xlink:href="svgpan.js"/>
<svg id="graph" class="graph">
<g id="viewport">
<title>MainWindow::togglePlayback</title>
<polygon fill="white" stroke="none" points="-4,4 -4,-290 547,-290 547,4 -4,4"/>
<!-- Node1 -->
<g id="node1" class="node"><title>Node1</title>
<polygon fill="#bfbfbf" stroke="black" points="0,-171.5 0,-190.5 146,-190.5 146,-171.5 0,-171.5"/>
<text text-anchor="middle" x="73" y="-178.5" font-family="Helvetica,sans-Serif" font-size="10.00">MainWindow::togglePlayback</text>
</g>
<!-- Node2 -->
<g id="node2" class="node"><title>Node2</title>
<g id="a_node2"><a xlink:href="classMainWindow.html#a17cb661f62805c510b99d9162ac8201a" target="_top" xlink:title="Pauses playback of selected video file. ">
<polygon fill="white" stroke="black" points="205.5,-266.5 205.5,-285.5 310.5,-285.5 310.5,-266.5 205.5,-266.5"/>
<text text-anchor="middle" x="258" y="-273.5" font-family="Helvetica,sans-Serif" font-size="10.00">MainWindow::pause</text>
</a>
</g>
</g>
<!-- Node1&#45;&gt;Node2 -->
<g id="edge1" class="edge"><title>Node1&#45;&gt;Node2</title>
<path fill="none" stroke="midnightblue" d="M86.2986,-190.71C105.68,-205.625 144.947,-234.301 182,-252 191.067,-256.331 201.11,-260.154 210.821,-263.403"/>
<polygon fill="midnightblue" stroke="midnightblue" points="209.782,-266.745 220.373,-266.458 211.915,-260.078 209.782,-266.745"/>
</g>
<!-- Node3 -->
<g id="node3" class="node"><title>Node3</title>
<g id="a_node3"><a xlink:href="classMainWindow.html#aea2b70d7ccb204793c3121600f612c84" target="_top" xlink:title="Return the primary and secondary playlist item that is currently selected. ">
<polygon fill="white" stroke="black" points="382,-229 382,-259 531,-259 531,-229 382,-229"/>
<text text-anchor="start" x="390" y="-247" font-family="Helvetica,sans-Serif" font-size="10.00">MainWindow::selectedPrimary</text>
<text text-anchor="middle" x="456.5" y="-236" font-family="Helvetica,sans-Serif" font-size="10.00">PlaylistItem</text>
</a>
</g>
</g>
<!-- Node1&#45;&gt;Node3 -->
<g id="edge2" class="edge"><title>Node1&#45;&gt;Node3</title>
<path fill="none" stroke="midnightblue" d="M95.8735,-190.5C117.368,-199.401 151.316,-212.308 182,-219 244.693,-232.673 317.054,-238.88 371.592,-241.691"/>
<polygon fill="midnightblue" stroke="midnightblue" points="371.749,-245.203 381.908,-242.193 372.09,-238.211 371.749,-245.203"/>
</g>
<!-- Node4 -->
<g id="node4" class="node"><title>Node4</title>
<g id="a_node4"><a xlink:href="classPlaylistItem.html#a3d4d575a397a3725e62ab425dcf214a5" target="_top" xlink:title="PlaylistItem::displayObject">
<polygon fill="white" stroke="black" points="389.5,-152.5 389.5,-171.5 523.5,-171.5 523.5,-152.5 389.5,-152.5"/>
<text text-anchor="middle" x="456.5" y="-159.5" font-family="Helvetica,sans-Serif" font-size="10.00">PlaylistItem::displayObject</text>
</a>
</g>
</g>
<!-- Node1&#45;&gt;Node4 -->
<g id="edge3" class="edge"><title>Node1&#45;&gt;Node4</title>
<path fill="none" stroke="midnightblue" d="M146.206,-177.404C212.778,-174.088 311.266,-169.183 379.13,-165.804"/>
<polygon fill="midnightblue" stroke="midnightblue" points="379.517,-169.289 389.33,-165.295 379.169,-162.297 379.517,-169.289"/>
</g>
<!-- Node5 -->
<g id="node5" class="node"><title>Node5</title>
<g id="a_node5"><a xlink:href="classDisplayObject.html#a800ba7adac185f51b23d5f0f1c5ff4ab" target="_top" xlink:title="DisplayObject::frameIndex\lLimits">
<polygon fill="white" stroke="black" points="191.5,-30 191.5,-60 324.5,-60 324.5,-30 191.5,-30"/>
<text text-anchor="start" x="199.5" y="-48" font-family="Helvetica,sans-Serif" font-size="10.00">DisplayObject::frameIndex</text>
<text text-anchor="middle" x="258" y="-37" font-family="Helvetica,sans-Serif" font-size="10.00">Limits</text>
</a>
</g>
</g>
<!-- Node1&#45;&gt;Node5 -->
<g id="edge4" class="edge"><title>Node1&#45;&gt;Node5</title>
<path fill="none" stroke="midnightblue" d="M86.8682,-171.437C116.111,-149.705 188.142,-96.1734 228.473,-66.2004"/>
<polygon fill="midnightblue" stroke="midnightblue" points="230.633,-68.9561 236.571,-60.182 226.457,-63.3377 230.633,-68.9561"/>
</g>
<!-- Node7 -->
<g id="node7" class="node"><title>Node7</title>
<g id="a_node7"><a xlink:href="classMainWindow.html#a904474dcf6f3da3e95bba2380192129a" target="_top" xlink:title="set current frame for playback ">
<polygon fill="white" stroke="black" points="182,-114.5 182,-133.5 334,-133.5 334,-114.5 182,-114.5"/>
<text text-anchor="middle" x="258" y="-121.5" font-family="Helvetica,sans-Serif" font-size="10.00">MainWindow::setCurrentFrame</text>
</a>
</g>
</g>
<!-- Node1&#45;&gt;Node7 -->
<g id="edge6" class="edge"><title>Node1&#45;&gt;Node7</title>
<path fill="none" stroke="midnightblue" d="M104.63,-171.459C135.376,-161.883 182.903,-147.079 216.694,-136.554"/>
<polygon fill="midnightblue" stroke="midnightblue" points="217.763,-139.887 226.27,-133.572 215.682,-133.204 217.763,-139.887"/>
</g>
<!-- Node11 -->
<g id="node11" class="node"><title>Node11</title>
<g id="a_node11"><a xlink:href="classMainWindow.html#a4f035b25b6181829a9275155e3ca9bbd" target="_top" xlink:title="Starts playback of selected video file. ">
<polygon fill="white" stroke="black" points="209.5,-190.5 209.5,-209.5 306.5,-209.5 306.5,-190.5 209.5,-190.5"/>
<text text-anchor="middle" x="258" y="-197.5" font-family="Helvetica,sans-Serif" font-size="10.00">MainWindow::play</text>
</a>
</g>
</g>
<!-- Node1&#45;&gt;Node11 -->
<g id="edge13" class="edge"><title>Node1&#45;&gt;Node11</title>
<path fill="none" stroke="midnightblue" d="M146.064,-188.482C163.706,-190.314 182.36,-192.25 199.233,-194.002"/>
<polygon fill="midnightblue" stroke="midnightblue" points="199.177,-197.515 209.485,-195.067 199.9,-190.553 199.177,-197.515"/>
</g>
<!-- Node6 -->
<g id="node6" class="node"><title>Node6</title>
<g id="a_node6"><a xlink:href="classDisplayObject.html#a587ff96ee994001247bdb74df1001309" target="_top" xlink:title="DisplayObject::numFrames">
<polygon fill="white" stroke="black" points="388.5,-0.5 388.5,-19.5 524.5,-19.5 524.5,-0.5 388.5,-0.5"/>
<text text-anchor="middle" x="456.5" y="-7.5" font-family="Helvetica,sans-Serif" font-size="10.00">DisplayObject::numFrames</text>
</a>
</g>
</g>
<!-- Node5&#45;&gt;Node6 -->
<g id="edge5" class="edge"><title>Node5&#45;&gt;Node6</title>
<path fill="none" stroke="midnightblue" d="M324.705,-33.2968C346.376,-29.4368 370.429,-25.1526 391.937,-21.3216"/>
<polygon fill="midnightblue" stroke="midnightblue" points="392.714,-24.7385 401.945,-19.5391 391.486,-17.8469 392.714,-24.7385"/>
</g>
<!-- Node7&#45;&gt;Node3 -->
<g id="edge7" class="edge"><title>Node7&#45;&gt;Node3</title>
<path fill="none" stroke="midnightblue" d="M273.078,-133.656C288.562,-144.511 313.912,-162.982 334,-181 351.318,-196.534 350.148,-206.871 370,-219 373.563,-221.177 377.326,-223.173 381.206,-225.002"/>
<polygon fill="midnightblue" stroke="midnightblue" points="379.867,-228.235 390.436,-228.972 382.633,-221.805 379.867,-228.235"/>
</g>
<!-- Node7&#45;&gt;Node4 -->
<g id="edge8" class="edge"><title>Node7&#45;&gt;Node4</title>
<path fill="none" stroke="midnightblue" d="M308.332,-133.54C334.961,-138.69 368.027,-145.084 396.066,-150.506"/>
<polygon fill="midnightblue" stroke="midnightblue" points="395.665,-153.994 406.148,-152.456 396.995,-147.121 395.665,-153.994"/>
</g>
<!-- Node8 -->
<g id="node8" class="node"><title>Node8</title>
<g id="a_node8"><a xlink:href="classDisplayObject.html#aadedaec1d9a5ec4adbf8f33e0f802350" target="_top" xlink:title="DisplayObject::endFrame">
<polygon fill="white" stroke="black" points="392.5,-114.5 392.5,-133.5 520.5,-133.5 520.5,-114.5 392.5,-114.5"/>
<text text-anchor="middle" x="456.5" y="-121.5" font-family="Helvetica,sans-Serif" font-size="10.00">DisplayObject::endFrame</text>
</a>
</g>
</g>
<!-- Node7&#45;&gt;Node8 -->
<g id="edge9" class="edge"><title>Node7&#45;&gt;Node8</title>
<path fill="none" stroke="midnightblue" d="M334.129,-124C349.861,-124 366.43,-124 382.098,-124"/>
<polygon fill="midnightblue" stroke="midnightblue" points="382.245,-127.5 392.245,-124 382.245,-120.5 382.245,-127.5"/>
</g>
<!-- Node9 -->
<g id="node9" class="node"><title>Node9</title>
<g id="a_node9"><a xlink:href="classDisplayObject.html#aaaa354081106c97409a4bc2bbc2059fe" target="_top" xlink:title="DisplayObject::startFrame">
<polygon fill="white" stroke="black" points="391,-76.5 391,-95.5 522,-95.5 522,-76.5 391,-76.5"/>
<text text-anchor="middle" x="456.5" y="-83.5" font-family="Helvetica,sans-Serif" font-size="10.00">DisplayObject::startFrame</text>
</a>
</g>
</g>
<!-- Node7&#45;&gt;Node9 -->
<g id="edge10" class="edge"><title>Node7&#45;&gt;Node9</title>
<path fill="none" stroke="midnightblue" d="M308.332,-114.46C334.961,-109.31 368.027,-102.916 396.066,-97.4935"/>
<polygon fill="midnightblue" stroke="midnightblue" points="396.995,-100.879 406.148,-95.5439 395.665,-94.0063 396.995,-100.879"/>
</g>
<!-- Node10 -->
<g id="node10" class="node"><title>Node10</title>
<g id="a_node10"><a xlink:href="classMainWindow.html#a6ad58489b43d2fca734a3dfa7b69832e" target="_top" xlink:title="update the frames slider and frame selection box without toggeling any signals ">
<polygon fill="white" stroke="black" points="370,-38.5 370,-57.5 543,-57.5 543,-38.5 370,-38.5"/>
<text text-anchor="middle" x="456.5" y="-45.5" font-family="Helvetica,sans-Serif" font-size="10.00">MainWindow::updateFrameControls</text>
</a>
</g>
</g>
<!-- Node7&#45;&gt;Node10 -->
<g id="edge11" class="edge"><title>Node7&#45;&gt;Node10</title>
<path fill="none" stroke="midnightblue" d="M266.761,-114.415C283.112,-100.355 322.745,-76.5884 361.897,-61.0956"/>
<polygon fill="midnightblue" stroke="midnightblue" points="363.18,-64.3527 371.292,-57.5383 360.701,-57.8062 363.18,-64.3527"/>
</g>
<!-- Node10&#45;&gt;Node7 -->
<g id="edge12" class="edge"><title>Node10&#45;&gt;Node7</title>
<path fill="none" stroke="midnightblue" d="M437.439,-57.518C419.87,-62.5151 392.597,-67.8401 370,-76 344.556,-85.1879 317.523,-98.9749 296.506,-109.643"/>
<polygon fill="midnightblue" stroke="midnightblue" points="294.645,-106.662 287.3,-114.298 297.803,-112.909 294.645,-106.662"/>
</g>
<!-- Node11&#45;&gt;Node3 -->
<g id="edge14" class="edge"><title>Node11&#45;&gt;Node3</title>
<path fill="none" stroke="midnightblue" d="M301.638,-209.547C324.057,-214.568 352.238,-220.878 378.336,-226.721"/>
<polygon fill="midnightblue" stroke="midnightblue" points="377.696,-230.165 388.219,-228.935 379.226,-223.334 377.696,-230.165"/>
</g>
<!-- Node11&#45;&gt;Node4 -->
<g id="edge15" class="edge"><title>Node11&#45;&gt;Node4</title>
<path fill="none" stroke="midnightblue" d="M306.567,-190.801C333.594,-185.575 367.666,-178.986 396.399,-173.429"/>
<polygon fill="midnightblue" stroke="midnightblue" points="397.165,-176.846 406.319,-171.511 395.836,-169.973 397.165,-176.846"/>
</g>
<!-- Node12 -->
<g id="node12" class="node"><title>Node12</title>
<g id="a_node12"><a xlink:href="classDisplayObject.html#a8f8f637b874a3e17128915cf414d6b60" target="_top" xlink:title="DisplayObject::frameRate">
<polygon fill="white" stroke="black" points="391.5,-190.5 391.5,-209.5 521.5,-209.5 521.5,-190.5 391.5,-190.5"/>
<text text-anchor="middle" x="456.5" y="-197.5" font-family="Helvetica,sans-Serif" font-size="10.00">DisplayObject::frameRate</text>
</a>
</g>
</g>
<!-- Node11&#45;&gt;Node12 -->
<g id="edge16" class="edge"><title>Node11&#45;&gt;Node12</title>
<path fill="none" stroke="midnightblue" d="M306.567,-200C328.929,-200 356.114,-200 381.107,-200"/>
<polygon fill="midnightblue" stroke="midnightblue" points="381.295,-203.5 391.295,-200 381.294,-196.5 381.295,-203.5"/>
</g>
</g>
</svg>
        <g id="navigator" transform="translate(0 0)" fill="#404254">
                <rect fill="#f2f5e9" fill-opacity="0.5" stroke="#606060" stroke-width=".5" x="0" y="0" width="60" height="60"/>
                <use id="zoomplus" xlink:href="#zoomPlus" x="17" y="9" onmousedown="handleZoom(evt,'in')"/>
                <use id="zoomminus" xlink:href="#zoomMin" x="42" y="9" onmousedown="handleZoom(evt,'out')"/>
                <use id="reset" xlink:href="#resetDef" x="30" y="36" onmousedown="handleReset()"/>
                <g id="arrowUp" xlink:href="#dirArrow" transform="translate(30 24)" onmousedown="handlePan(0,-1)">
                  <use xlink:href="#rim" fill="#404040">
                        <set attributeName="fill" to="#808080" begin="arrowUp.mouseover" end="arrowUp.mouseout"/>
                  </use>
                  <path fill="none" stroke="white" stroke-width="1.5" d="M0,-3.0v7 M-2.5,-0.5L0,-3.0L2.5,-0.5"/>
                </g>
                <g id="arrowRight" xlink:href="#dirArrow" transform="rotate(90) translate(36 -43)" onmousedown="handlePan(1,0)">
                  <use xlink:href="#rim" fill="#404040">
                        <set attributeName="fill" to="#808080" begin="arrowRight.mouseover" end="arrowRight.mouseout"/>
                  </use>
                  <path fill="none" stroke="white" stroke-width="1.5" d="M0,-3.0v7 M-2.5,-0.5L0,-3.0L2.5,-0.5"/>
                </g>
                <g id="arrowDown" xlink:href="#dirArrow" transform="rotate(180) translate(-30 -48)" onmousedown="handlePan(0,1)">
                  <use xlink:href="#rim" fill="#404040">
                        <set attributeName="fill" to="#808080" begin="arrowDown.mouseover" end="arrowDown.mouseout"/>
                  </use>
                  <path fill="none" stroke="white" stroke-width="1.5" d="M0,-3.0v7 M-2.5,-0.5L0,-3.0L2.5,-0.5"/>
                </g>
                <g id="arrowLeft" xlink:href="#dirArrow" transform="rotate(270) translate(-36 17)" onmousedown="handlePan(-1,0)">
                  <use xlink:href="#rim" fill="#404040">
                        <set attributeName="fill" to="#808080" begin="arrowLeft.mouseover" end="arrowLeft.mouseout"/>
                  </use>
                  <path fill="none" stroke="white" stroke-width="1.5" d="M0,-3.0v7 M-2.5,-0.5L0,-3.0L2.5,-0.5"/>
                </g>
        </g>
        <svg viewBox="0 0 15 15" width="100%" height="30px" preserveAspectRatio="xMaxYMin meet">
         <g id="arrow_out" transform="scale(0.3 0.3)">
          <a xlink:href="classMainWindow_a153ba12113986ad0acac82272d0ad6eb_cgraph_org.svg" target="_base">
           <rect id="button" ry="5" rx="5" y="6" x="6" height="38" width="38"
                fill="#f2f5e9" fill-opacity="0.5" stroke="#606060" stroke-width="1.0"/>
           <path id="arrow"
             d="M 11.500037,31.436501 C 11.940474,20.09759 22.043105,11.32322 32.158766,21.979434 L 37.068811,17.246167 C 37.068811,17.246167 37.088388,32 37.088388,32 L 22.160133,31.978069 C 22.160133,31.978069 26.997745,27.140456 26.997745,27.140456 C 18.528582,18.264221 13.291696,25.230495 11.500037,31.436501 z"
             style="fill:#404040;"/>
          </a>
         </g>
        </svg>
</svg>
