<?xml version="1.0" encoding="UTF-8" standalone="no"?>
<!DOCTYPE svg PUBLIC "-//W3C//DTD SVG 1.1//EN"
 "http://www.w3.org/Graphics/SVG/1.1/DTD/svg11.dtd">
<!-- Generated by graphviz version 2.38.0 (20140413.2041)
 -->
<!-- Title: DisplaySplitWidget::zoomIn Pages: 1 -->
<svg width="1331pt" height="337pt"
 viewBox="0.00 0.00 1331.00 336.50" xmlns="http://www.w3.org/2000/svg" xmlns:xlink="http://www.w3.org/1999/xlink">
<g id="graph0" class="graph" transform="scale(1 1) rotate(0) translate(4 332.5)">
<title>DisplaySplitWidget::zoomIn</title>
<polygon fill="white" stroke="none" points="-4,4 -4,-332.5 1327,-332.5 1327,4 -4,4"/>
<!-- Node1 -->
<g id="node1" class="node"><title>Node1</title>
<polygon fill="#bfbfbf" stroke="black" points="0,-151 0,-181 100,-181 100,-151 0,-151"/>
<text text-anchor="start" x="8" y="-169" font-family="Helvetica,sans-Serif" font-size="10.00">DisplaySplitWidget</text>
<text text-anchor="middle" x="50" y="-158" font-family="Helvetica,sans-Serif" font-size="10.00">::zoomIn</text>
</g>
<!-- Node2 -->
<g id="node2" class="node"><title>Node2</title>
<g id="a_node2"><a xlink:href="classDisplaySplitWidget.html#abc159d530782440f1704750ed7c7b32b" target="_top" xlink:title="DisplaySplitWidget\l::setZoomPoints">
<polygon fill="white" stroke="black" points="136,-298 136,-328 236,-328 236,-298 136,-298"/>
<text text-anchor="start" x="144" y="-316" font-family="Helvetica,sans-Serif" font-size="10.00">DisplaySplitWidget</text>
<text text-anchor="middle" x="186" y="-305" font-family="Helvetica,sans-Serif" font-size="10.00">::setZoomPoints</text>
</a>
</g>
</g>
<!-- Node1&#45;&gt;Node2 -->
<g id="edge1" class="edge"><title>Node1&#45;&gt;Node2</title>
<path fill="none" stroke="midnightblue" d="M59.3373,-181.119C73.0036,-204.922 102.071,-251.648 136,-283 139.567,-286.296 143.549,-289.423 147.66,-292.327"/>
<polygon fill="midnightblue" stroke="midnightblue" points="145.913,-295.367 156.187,-297.955 149.769,-289.525 145.913,-295.367"/>
</g>
<!-- Node3 -->
<g id="node3" class="node"><title>Node3</title>
<g id="a_node3"><a xlink:href="classDisplayWidget.html#a59b9a00276458fae6c0c2db850a87616" target="_top" xlink:title="DisplayWidget::zoomFactor">
<polygon fill="white" stroke="black" points="462,-224.5 462,-243.5 600,-243.5 600,-224.5 462,-224.5"/>
<text text-anchor="middle" x="531" y="-231.5" font-family="Helvetica,sans-Serif" font-size="10.00">DisplayWidget::zoomFactor</text>
</a>
</g>
</g>
<!-- Node1&#45;&gt;Node3 -->
<g id="edge2" class="edge"><title>Node1&#45;&gt;Node3</title>
<path fill="none" stroke="midnightblue" d="M87.34,-181.094C130.486,-198.128 205.046,-224.791 272,-235 339.662,-245.317 357.556,-235.329 426,-235 434.306,-234.96 442.985,-234.902 451.634,-234.834"/>
<polygon fill="midnightblue" stroke="midnightblue" points="451.78,-238.333 461.751,-234.75 451.722,-231.333 451.78,-238.333"/>
</g>
<!-- Node5 -->
<g id="node5" class="node"><title>Node5</title>
<g id="a_node5"><a xlink:href="classDisplaySplitWidget.html#a07d514c8000eade67022e9f73a4214c0" target="_top" xlink:title="DisplaySplitWidget\l::zoomToPoint">
<polygon fill="white" stroke="black" points="136,-129 136,-159 236,-159 236,-129 136,-129"/>
<text text-anchor="start" x="144" y="-147" font-family="Helvetica,sans-Serif" font-size="10.00">DisplaySplitWidget</text>
<text text-anchor="middle" x="186" y="-136" font-family="Helvetica,sans-Serif" font-size="10.00">::zoomToPoint</text>
</a>
</g>
</g>
<!-- Node1&#45;&gt;Node5 -->
<g id="edge4" class="edge"><title>Node1&#45;&gt;Node5</title>
<path fill="none" stroke="midnightblue" d="M100.136,-157.933C108.511,-156.558 117.288,-155.117 125.889,-153.705"/>
<polygon fill="midnightblue" stroke="midnightblue" points="126.569,-157.14 135.87,-152.066 125.435,-150.233 126.569,-157.14"/>
</g>
<!-- Node6 -->
<g id="node6" class="node"><title>Node6</title>
<g id="a_node6"><a xlink:href="classDisplayWidget.html#a477dcbaeee98a2c684374e4d5a36b0fd" target="_top" xlink:title="DisplayWidget::displayRect">
<polygon fill="white" stroke="black" points="462,-0.5 462,-19.5 600,-19.5 600,-0.5 462,-0.5"/>
<text text-anchor="middle" x="531" y="-7.5" font-family="Helvetica,sans-Serif" font-size="10.00">DisplayWidget::displayRect</text>
</a>
</g>
</g>
<!-- Node1&#45;&gt;Node6 -->
<g id="edge33" class="edge"><title>Node1&#45;&gt;Node6</title>
<path fill="none" stroke="midnightblue" d="M63.456,-150.786C78.7071,-133.191 106.208,-104.646 136,-89 236.648,-36.1435 368.804,-18.5681 451.576,-12.7747"/>
<polygon fill="midnightblue" stroke="midnightblue" points="451.921,-16.2596 461.669,-12.1095 451.461,-9.27475 451.921,-16.2596"/>
</g>
<!-- Node7 -->
<g id="node7" class="node"><title>Node7</title>
<g id="a_node7"><a xlink:href="classDisplayWidget.html#a7c8417b26f905d8bda1601c879f7e600" target="_top" xlink:title="DisplayWidget::displayObject">
<polygon fill="white" stroke="black" points="276,-66.5 276,-85.5 422,-85.5 422,-66.5 276,-66.5"/>
<text text-anchor="middle" x="349" y="-73.5" font-family="Helvetica,sans-Serif" font-size="10.00">DisplayWidget::displayObject</text>
</a>
</g>
</g>
<!-- Node1&#45;&gt;Node7 -->
<g id="edge32" class="edge"><title>Node1&#45;&gt;Node7</title>
<path fill="none" stroke="midnightblue" d="M73.8941,-150.817C90.5007,-140.445 113.845,-127.153 136,-119 177.588,-103.696 225.88,-93.3645 265.859,-86.6729"/>
<polygon fill="midnightblue" stroke="midnightblue" points="266.527,-90.1104 275.835,-85.0493 265.402,-83.2013 266.527,-90.1104"/>
</g>
<!-- Node10 -->
<g id="node10" class="node"><title>Node10</title>
<g id="a_node10"><a xlink:href="classDisplayWidget.html#a822a3c50c6c602fafff6ef2132ccdb42" target="_top" xlink:title="DisplayWidget::setDisplayRect">
<polygon fill="white" stroke="black" points="272,-142.5 272,-161.5 426,-161.5 426,-142.5 272,-142.5"/>
<text text-anchor="middle" x="349" y="-149.5" font-family="Helvetica,sans-Serif" font-size="10.00">DisplayWidget::setDisplayRect</text>
</a>
</g>
</g>
<!-- Node1&#45;&gt;Node10 -->
<g id="edge34" class="edge"><title>Node1&#45;&gt;Node10</title>
<path fill="none" stroke="midnightblue" d="M100.438,-167.36C112.099,-167.626 124.487,-167.865 136,-168 180.441,-168.523 191.667,-171.151 236,-168 250.964,-166.937 266.968,-165.084 282.059,-163.007"/>
<polygon fill="midnightblue" stroke="midnightblue" points="282.932,-166.418 292.337,-161.54 281.943,-159.488 282.932,-166.418"/>
</g>
<!-- Node4 -->
<g id="node4" class="node"><title>Node4</title>
<g id="a_node4"><a xlink:href="classDisplayObject.html#afb3b221174f722f563e7bf55a1ddb29f" target="_top" xlink:title="DisplayObject::width">
<polygon fill="white" stroke="black" points="830.5,-224.5 830.5,-243.5 937.5,-243.5 937.5,-224.5 830.5,-224.5"/>
<text text-anchor="middle" x="884" y="-231.5" font-family="Helvetica,sans-Serif" font-size="10.00">DisplayObject::width</text>
</a>
</g>
</g>
<!-- Node3&#45;&gt;Node4 -->
<g id="edge3" class="edge"><title>Node3&#45;&gt;Node4</title>
<path fill="none" stroke="midnightblue" d="M600.093,-234C663.829,-234 758.274,-234 820.227,-234"/>
<polygon fill="midnightblue" stroke="midnightblue" points="820.261,-237.5 830.261,-234 820.261,-230.5 820.261,-237.5"/>
</g>
<!-- Node5&#45;&gt;Node3 -->
<g id="edge10" class="edge"><title>Node5&#45;&gt;Node3</title>
<path fill="none" stroke="midnightblue" d="M202.042,-159.158C217.925,-174.124 244.439,-196.277 272,-207 329.448,-229.352 399.22,-235.52 451.714,-236.421"/>
<polygon fill="midnightblue" stroke="midnightblue" points="451.935,-239.924 461.973,-236.535 452.012,-232.924 451.935,-239.924"/>
</g>
<!-- Node5&#45;&gt;Node6 -->
<g id="edge5" class="edge"><title>Node5&#45;&gt;Node6</title>
<path fill="none" stroke="midnightblue" d="M236.097,-136.202C301.527,-125.465 410.867,-106.193 426,-95 452.864,-75.1307 435.851,-49.8004 462,-29 464.293,-27.1758 466.751,-25.5266 469.323,-24.0356"/>
<polygon fill="midnightblue" stroke="midnightblue" points="471.007,-27.1082 478.433,-19.5517 467.915,-20.8278 471.007,-27.1082"/>
</g>
<!-- Node5&#45;&gt;Node7 -->
<g id="edge6" class="edge"><title>Node5&#45;&gt;Node7</title>
<path fill="none" stroke="midnightblue" d="M213.24,-128.926C229.762,-119.812 251.728,-108.375 272,-100 282.079,-95.8362 293.155,-91.9614 303.659,-88.5924"/>
<polygon fill="midnightblue" stroke="midnightblue" points="304.998,-91.8412 313.504,-85.5243 302.915,-85.1582 304.998,-91.8412"/>
</g>
<!-- Node8 -->
<g id="node8" class="node"><title>Node8</title>
<g id="a_node8"><a xlink:href="classDisplayObject.html#a4b72bf3422adf483b502da939d38c9d6" target="_top" xlink:title="DisplayObject::size">
<polygon fill="white" stroke="black" points="653.5,-186.5 653.5,-205.5 755.5,-205.5 755.5,-186.5 653.5,-186.5"/>
<text text-anchor="middle" x="704.5" y="-193.5" font-family="Helvetica,sans-Serif" font-size="10.00">DisplayObject::size</text>
</a>
</g>
</g>
<!-- Node5&#45;&gt;Node8 -->
<g id="edge7" class="edge"><title>Node5&#45;&gt;Node8</title>
<path fill="none" stroke="midnightblue" d="M227.116,-159.008C241.125,-163.64 257.079,-168.243 272,-171 402.691,-195.149 559.084,-197.85 643.06,-197.221"/>
<polygon fill="midnightblue" stroke="midnightblue" points="643.216,-200.72 653.182,-197.126 643.15,-193.72 643.216,-200.72"/>
</g>
<!-- Node5&#45;&gt;Node10 -->
<g id="edge11" class="edge"><title>Node5&#45;&gt;Node10</title>
<path fill="none" stroke="midnightblue" d="M236.18,-146.444C244.289,-146.847 252.9,-147.275 261.604,-147.707"/>
<polygon fill="midnightblue" stroke="midnightblue" points="261.678,-151.215 271.839,-148.216 262.025,-144.224 261.678,-151.215"/>
</g>
<!-- Node8&#45;&gt;Node4 -->
<g id="edge8" class="edge"><title>Node8&#45;&gt;Node4</title>
<path fill="none" stroke="midnightblue" d="M750.291,-205.589C774.03,-210.671 803.384,-216.955 828.444,-222.32"/>
<polygon fill="midnightblue" stroke="midnightblue" points="828.02,-225.809 838.531,-224.48 829.486,-218.964 828.02,-225.809"/>
</g>
<!-- Node9 -->
<g id="node9" class="node"><title>Node9</title>
<g id="a_node9"><a xlink:href="classDisplayObject.html#a814782fb1bf9e7a2ed7adab74872c08a" target="_top" xlink:title="DisplayObject::height">
<polygon fill="white" stroke="black" points="829,-186.5 829,-205.5 939,-205.5 939,-186.5 829,-186.5"/>
<text text-anchor="middle" x="884" y="-193.5" font-family="Helvetica,sans-Serif" font-size="10.00">DisplayObject::height</text>
</a>
</g>
</g>
<!-- Node8&#45;&gt;Node9 -->
<g id="edge9" class="edge"><title>Node8&#45;&gt;Node9</title>
<path fill="none" stroke="midnightblue" d="M755.89,-196C775.355,-196 797.868,-196 818.49,-196"/>
<polygon fill="midnightblue" stroke="midnightblue" points="818.757,-199.5 828.757,-196 818.757,-192.5 818.757,-199.5"/>
</g>
<!-- Node10&#45;&gt;Node3 -->
<g id="edge14" class="edge"><title>Node10&#45;&gt;Node3</title>
<path fill="none" stroke="midnightblue" d="M371.001,-161.567C402.84,-176.071 463.471,-203.692 499.966,-220.318"/>
<polygon fill="midnightblue" stroke="midnightblue" points="498.582,-223.533 509.133,-224.494 501.484,-217.163 498.582,-223.533"/>
</g>
<!-- Node10&#45;&gt;Node6 -->
<g id="edge12" class="edge"><title>Node10&#45;&gt;Node6</title>
<path fill="none" stroke="midnightblue" d="M402.553,-142.403C411.16,-138.973 419.406,-134.317 426,-128 459.808,-95.6117 427.655,-60.819 462,-29 463.68,-27.4432 465.478,-26.0125 467.366,-24.6977"/>
<polygon fill="midnightblue" stroke="midnightblue" points="469.226,-27.6655 476.148,-19.6441 465.735,-21.5984 469.226,-27.6655"/>
</g>
<!-- Node11 -->
<g id="node11" class="node"><title>Node11</title>
<g id="a_node11"><a xlink:href="classDisplayObject.html#a669d39709021238465e2d42ae2ffce2d" target="_top" xlink:title="DisplayObject::setInternal\lScaleFactor">
<polygon fill="white" stroke="black" points="466,-39 466,-69 596,-69 596,-39 466,-39"/>
<text text-anchor="start" x="474" y="-57" font-family="Helvetica,sans-Serif" font-size="10.00">DisplayObject::setInternal</text>
<text text-anchor="middle" x="531" y="-46" font-family="Helvetica,sans-Serif" font-size="10.00">ScaleFactor</text>
</a>
</g>
</g>
<!-- Node10&#45;&gt;Node11 -->
<g id="edge13" class="edge"><title>Node10&#45;&gt;Node11</title>
<path fill="none" stroke="midnightblue" d="M396.848,-142.368C407.053,-138.905 417.368,-134.245 426,-128 448.185,-111.949 440.086,-94.4195 462,-78 463.832,-76.6276 465.748,-75.3289 467.729,-74.1003"/>
<polygon fill="midnightblue" stroke="midnightblue" points="469.668,-77.0286 476.753,-69.1514 466.302,-70.891 469.668,-77.0286"/>
</g>
<!-- Node12 -->
<g id="node12" class="node"><title>Node12</title>
<g id="a_node12"><a xlink:href="classStatisticsObject.html#a685245dbc78feb8908c60b3becc9a0c0" target="_top" xlink:title="StatisticsObject::setInternal\lScaleFactor">
<polygon fill="white" stroke="black" points="462,-88 462,-118 600,-118 600,-88 462,-88"/>
<text text-anchor="start" x="470" y="-106" font-family="Helvetica,sans-Serif" font-size="10.00">StatisticsObject::setInternal</text>
<text text-anchor="middle" x="531" y="-95" font-family="Helvetica,sans-Serif" font-size="10.00">ScaleFactor</text>
</a>
</g>
</g>
<!-- Node10&#45;&gt;Node12 -->
<g id="edge15" class="edge"><title>Node10&#45;&gt;Node12</title>
<path fill="none" stroke="midnightblue" d="M385.133,-142.436C407.822,-136.26 438.034,-128.035 464.996,-120.696"/>
<polygon fill="midnightblue" stroke="midnightblue" points="466.033,-124.041 474.762,-118.037 464.194,-117.287 466.033,-124.041"/>
</g>
<!-- Node16 -->
<g id="node16" class="node"><title>Node16</title>
<g id="a_node16"><a xlink:href="classStatisticsObject.html#a09c2920b75ecda0e175a6c9384b446ab" target="_top" xlink:title="StatisticsObject::reload\lImage">
<polygon fill="white" stroke="black" points="471.5,-137 471.5,-167 590.5,-167 590.5,-137 471.5,-137"/>
<text text-anchor="start" x="479.5" y="-155" font-family="Helvetica,sans-Serif" font-size="10.00">StatisticsObject::reload</text>
<text text-anchor="middle" x="531" y="-144" font-family="Helvetica,sans-Serif" font-size="10.00">Image</text>
</a>
</g>
</g>
<!-- Node10&#45;&gt;Node16 -->
<g id="edge19" class="edge"><title>Node10&#45;&gt;Node16</title>
<path fill="none" stroke="midnightblue" d="M426.075,-152C437.801,-152 449.849,-152 461.398,-152"/>
<polygon fill="midnightblue" stroke="midnightblue" points="461.399,-155.5 471.399,-152 461.399,-148.5 461.399,-155.5"/>
</g>
<!-- Node13 -->
<g id="node13" class="node"><title>Node13</title>
<g id="a_node13"><a xlink:href="classstatisticSource.html#a8c153e3e3576668f5e68af94f441319e" target="_top" xlink:title="statisticSource::setInternal\lScaleFactor">
<polygon fill="white" stroke="black" points="637.5,-17 637.5,-47 771.5,-47 771.5,-17 637.5,-17"/>
<text text-anchor="start" x="645.5" y="-35" font-family="Helvetica,sans-Serif" font-size="10.00">statisticSource::setInternal</text>
<text text-anchor="middle" x="704.5" y="-24" font-family="Helvetica,sans-Serif" font-size="10.00">ScaleFactor</text>
</a>
</g>
</g>
<!-- Node12&#45;&gt;Node13 -->
<g id="edge16" class="edge"><title>Node12&#45;&gt;Node13</title>
<path fill="none" stroke="midnightblue" d="M574.244,-87.9603C582.808,-84.7736 591.724,-81.3561 600,-78 620.577,-69.6554 643.139,-59.7222 661.931,-51.2255"/>
<polygon fill="midnightblue" stroke="midnightblue" points="663.449,-54.3801 671.105,-47.0565 660.553,-48.0073 663.449,-54.3801"/>
</g>
<!-- Node14 -->
<g id="node14" class="node"><title>Node14</title>
<g id="a_node14"><a xlink:href="typedef_8h.html#a9aaa34d570ccff65aa586904187cfff5" target="_top" xlink:title="clip">
<polygon fill="white" stroke="black" points="868,-22.5 868,-41.5 900,-41.5 900,-22.5 868,-22.5"/>
<text text-anchor="middle" x="884" y="-29.5" font-family="Helvetica,sans-Serif" font-size="10.00">clip</text>
</a>
</g>
</g>
<!-- Node13&#45;&gt;Node14 -->
<g id="edge17" class="edge"><title>Node13&#45;&gt;Node14</title>
<path fill="none" stroke="midnightblue" d="M771.594,-32C801.58,-32 835.263,-32 857.664,-32"/>
<polygon fill="midnightblue" stroke="midnightblue" points="857.689,-35.5001 867.689,-32 857.689,-28.5001 857.689,-35.5001"/>
</g>
<!-- Node15 -->
<g id="node15" class="node"><title>Node15</title>
<g id="a_node15"><a xlink:href="classstatisticSource.html#ab919493c131a2f9b26c1c212c05ad223" target="_top" xlink:title="statisticSource::internal\lScaleFactor">
<polygon fill="white" stroke="black" points="1010.5,-12 1010.5,-42 1129.5,-42 1129.5,-12 1010.5,-12"/>
<text text-anchor="start" x="1018.5" y="-30" font-family="Helvetica,sans-Serif" font-size="10.00">statisticSource::internal</text>
<text text-anchor="middle" x="1070" y="-19" font-family="Helvetica,sans-Serif" font-size="10.00">ScaleFactor</text>
</a>
</g>
</g>
<!-- Node13&#45;&gt;Node15 -->
<g id="edge18" class="edge"><title>Node13&#45;&gt;Node15</title>
<path fill="none" stroke="midnightblue" d="M771.51,-18.0375C783.912,-15.9398 796.81,-14.1096 809,-13 875.392,-6.95653 892.467,-8.78308 959,-13 972.32,-13.8442 986.493,-15.2579 1000.08,-16.8708"/>
<polygon fill="midnightblue" stroke="midnightblue" points="999.978,-20.3848 1010.33,-18.1368 1000.84,-13.4375 999.978,-20.3848"/>
</g>
<!-- Node17 -->
<g id="node17" class="node"><title>Node17</title>
<g id="a_node17"><a xlink:href="classStatisticsObject.html#a7ef3844aa2a91ec4fc67233f7a6f5552" target="_top" xlink:title="StatisticsObject::loadImage">
<polygon fill="white" stroke="black" points="636,-145.5 636,-164.5 773,-164.5 773,-145.5 636,-145.5"/>
<text text-anchor="middle" x="704.5" y="-152.5" font-family="Helvetica,sans-Serif" font-size="10.00">StatisticsObject::loadImage</text>
</a>
</g>
</g>
<!-- Node16&#45;&gt;Node17 -->
<g id="edge20" class="edge"><title>Node16&#45;&gt;Node17</title>
<path fill="none" stroke="midnightblue" d="M590.541,-153.024C601.799,-153.221 613.754,-153.43 625.514,-153.636"/>
<polygon fill="midnightblue" stroke="midnightblue" points="625.715,-157.14 635.774,-153.815 625.837,-150.141 625.715,-157.14"/>
</g>
<!-- Node17&#45;&gt;Node4 -->
<g id="edge25" class="edge"><title>Node17&#45;&gt;Node4</title>
<path fill="none" stroke="midnightblue" d="M745.88,-164.546C755.191,-167.71 764.77,-171.797 773,-177 792.665,-189.431 788.949,-203.201 809,-215 812.833,-217.256 816.932,-219.246 821.16,-221.003"/>
<polygon fill="midnightblue" stroke="midnightblue" points="819.98,-224.298 830.573,-224.486 822.409,-217.733 819.98,-224.298"/>
</g>
<!-- Node17&#45;&gt;Node9 -->
<g id="edge26" class="edge"><title>Node17&#45;&gt;Node9</title>
<path fill="none" stroke="midnightblue" d="M746.668,-164.509C772.005,-170.362 804.686,-177.911 831.7,-184.15"/>
<polygon fill="midnightblue" stroke="midnightblue" points="831.217,-187.631 841.748,-186.471 832.792,-180.81 831.217,-187.631"/>
</g>
<!-- Node18 -->
<g id="node18" class="node"><title>Node18</title>
<g id="a_node18"><a xlink:href="classStatisticsObject.html#a977403d59c77839b97f38c4c5d09483b" target="_top" xlink:title="StatisticsObject::numFrames">
<polygon fill="white" stroke="black" points="812,-110.5 812,-129.5 956,-129.5 956,-110.5 812,-110.5"/>
<text text-anchor="middle" x="884" y="-117.5" font-family="Helvetica,sans-Serif" font-size="10.00">StatisticsObject::numFrames</text>
</a>
</g>
</g>
<!-- Node17&#45;&gt;Node18 -->
<g id="edge21" class="edge"><title>Node17&#45;&gt;Node18</title>
<path fill="none" stroke="midnightblue" d="M754.003,-145.436C775.82,-141.134 801.753,-136.02 824.626,-131.51"/>
<polygon fill="midnightblue" stroke="midnightblue" points="825.422,-134.921 834.556,-129.552 824.068,-128.053 825.422,-134.921"/>
</g>
<!-- Node20 -->
<g id="node20" class="node"><title>Node20</title>
<g id="a_node20"><a xlink:href="classStatisticsObject.html#a9d90fa9d1b1373e6f93a9839c757739a" target="_top" xlink:title="StatisticsObject::internal\lScaleFactor">
<polygon fill="white" stroke="black" points="822,-61 822,-91 946,-91 946,-61 822,-61"/>
<text text-anchor="start" x="830" y="-79" font-family="Helvetica,sans-Serif" font-size="10.00">StatisticsObject::internal</text>
<text text-anchor="middle" x="884" y="-68" font-family="Helvetica,sans-Serif" font-size="10.00">ScaleFactor</text>
</a>
</g>
</g>
<!-- Node17&#45;&gt;Node20 -->
<g id="edge23" class="edge"><title>Node17&#45;&gt;Node20</title>
<path fill="none" stroke="midnightblue" d="M721.964,-145.391C742.067,-133.899 777.31,-114.523 809,-101 814.273,-98.7496 819.824,-96.5606 825.415,-94.4741"/>
<polygon fill="midnightblue" stroke="midnightblue" points="826.612,-97.763 834.823,-91.0667 824.229,-91.1814 826.612,-97.763"/>
</g>
<!-- Node21 -->
<g id="node21" class="node"><title>Node21</title>
<g id="a_node21"><a xlink:href="classstatisticSource.html#a97118da6546c479004129b4fcc6851bf" target="_top" xlink:title="statisticSource::drawStatistics">
<polygon fill="white" stroke="black" points="809,-148.5 809,-167.5 959,-167.5 959,-148.5 809,-148.5"/>
<text text-anchor="middle" x="884" y="-155.5" font-family="Helvetica,sans-Serif" font-size="10.00">statisticSource::drawStatistics</text>
</a>
</g>
</g>
<!-- Node17&#45;&gt;Node21 -->
<g id="edge27" class="edge"><title>Node17&#45;&gt;Node21</title>
<path fill="none" stroke="midnightblue" d="M773.111,-156.143C781.491,-156.284 790.138,-156.43 798.728,-156.576"/>
<polygon fill="midnightblue" stroke="midnightblue" points="798.71,-160.076 808.768,-156.745 798.828,-153.077 798.71,-160.076"/>
</g>
<!-- Node19 -->
<g id="node19" class="node"><title>Node19</title>
<g id="a_node19"><a xlink:href="classstatisticSource.html#a49d2c60f7ce52592509c07fdc9d8e268" target="_top" xlink:title="statisticSource::getNumber\lFrames">
<polygon fill="white" stroke="black" points="1002,-94 1002,-124 1138,-124 1138,-94 1002,-94"/>
<text text-anchor="start" x="1010" y="-112" font-family="Helvetica,sans-Serif" font-size="10.00">statisticSource::getNumber</text>
<text text-anchor="middle" x="1070" y="-101" font-family="Helvetica,sans-Serif" font-size="10.00">Frames</text>
</a>
</g>
</g>
<!-- Node18&#45;&gt;Node19 -->
<g id="edge22" class="edge"><title>Node18&#45;&gt;Node19</title>
<path fill="none" stroke="midnightblue" d="M956.139,-115.747C967.793,-115.05 979.919,-114.325 991.714,-113.62"/>
<polygon fill="midnightblue" stroke="midnightblue" points="992.2,-117.098 1001.97,-113.007 991.782,-110.11 992.2,-117.098"/>
</g>
<!-- Node20&#45;&gt;Node15 -->
<g id="edge24" class="edge"><title>Node20&#45;&gt;Node15</title>
<path fill="none" stroke="midnightblue" d="M941.457,-60.9654C960.884,-55.7917 982.811,-49.9525 1002.93,-44.5934"/>
<polygon fill="midnightblue" stroke="midnightblue" points="1003.89,-47.9617 1012.65,-42.0062 1002.09,-41.1975 1003.89,-47.9617"/>
</g>
<!-- Node22 -->
<g id="node22" class="node"><title>Node22</title>
<g id="a_node22"><a xlink:href="classstatisticSource.html#a666dee63c406a9b88484286b2a8e08f4" target="_top" xlink:title="statisticSource::getStatistics">
<polygon fill="white" stroke="black" points="998.5,-192.5 998.5,-211.5 1141.5,-211.5 1141.5,-192.5 998.5,-192.5"/>
<text text-anchor="middle" x="1070" y="-199.5" font-family="Helvetica,sans-Serif" font-size="10.00">statisticSource::getStatistics</text>
</a>
</g>
</g>
<!-- Node21&#45;&gt;Node22 -->
<g id="edge28" class="edge"><title>Node21&#45;&gt;Node22</title>
<path fill="none" stroke="midnightblue" d="M924.925,-167.547C952.654,-174.178 989.792,-183.059 1019.42,-190.143"/>
<polygon fill="midnightblue" stroke="midnightblue" points="1018.61,-193.55 1029.15,-192.471 1020.24,-186.741 1018.61,-193.55"/>
</g>
<!-- Node24 -->
<g id="node24" class="node"><title>Node24</title>
<g id="a_node24"><a xlink:href="classstatisticSource.html#af005d063b46b611d6166d4d8439d6245" target="_top" xlink:title="statisticSource::drawStatistics\lImage">
<polygon fill="white" stroke="black" points="995,-143 995,-173 1145,-173 1145,-143 995,-143"/>
<text text-anchor="start" x="1003" y="-161" font-family="Helvetica,sans-Serif" font-size="10.00">statisticSource::drawStatistics</text>
<text text-anchor="middle" x="1070" y="-150" font-family="Helvetica,sans-Serif" font-size="10.00">Image</text>
</a>
</g>
</g>
<!-- Node21&#45;&gt;Node24 -->
<g id="edge30" class="edge"><title>Node21&#45;&gt;Node24</title>
<path fill="none" stroke="midnightblue" d="M959.044,-158C967.514,-158 976.195,-158 984.784,-158"/>
<polygon fill="midnightblue" stroke="midnightblue" points="984.808,-161.5 994.808,-158 984.807,-154.5 984.808,-161.5"/>
</g>
<!-- Node23 -->
<g id="node23" class="node"><title>Node23</title>
<g id="a_node23"><a xlink:href="classstatisticSource.html#a769e0ef8bb1427d4d586425956ebfca2" target="_top" xlink:title="statisticSource::loadStatistic\lToCache">
<polygon fill="white" stroke="black" points="1181,-187 1181,-217 1323,-217 1323,-187 1181,-187"/>
<text text-anchor="start" x="1189" y="-205" font-family="Helvetica,sans-Serif" font-size="10.00">statisticSource::loadStatistic</text>
<text text-anchor="middle" x="1252" y="-194" font-family="Helvetica,sans-Serif" font-size="10.00">ToCache</text>
</a>
</g>
</g>
<!-- Node22&#45;&gt;Node23 -->
<g id="edge29" class="edge"><title>Node22&#45;&gt;Node23</title>
<path fill="none" stroke="midnightblue" d="M1141.62,-202C1151.2,-202 1161.08,-202 1170.81,-202"/>
<polygon fill="midnightblue" stroke="midnightblue" points="1170.87,-205.5 1180.87,-202 1170.87,-198.5 1170.87,-205.5"/>
</g>
<!-- Node25 -->
<g id="node25" class="node"><title>Node25</title>
<g id="a_node25"><a xlink:href="statisticSource_8cpp.html#a00b2533858fa82f16ddb39544cfff2b4" target="_top" xlink:title="rotateVector">
<polygon fill="white" stroke="black" points="1217,-148.5 1217,-167.5 1287,-167.5 1287,-148.5 1217,-148.5"/>
<text text-anchor="middle" x="1252" y="-155.5" font-family="Helvetica,sans-Serif" font-size="10.00">rotateVector</text>
</a>
</g>
</g>
<!-- Node24&#45;&gt;Node25 -->
<g id="edge31" class="edge"><title>Node24&#45;&gt;Node25</title>
<path fill="none" stroke="midnightblue" d="M1145.25,-158C1166.07,-158 1188.05,-158 1206.55,-158"/>
<polygon fill="midnightblue" stroke="midnightblue" points="1206.72,-161.5 1216.72,-158 1206.72,-154.5 1206.72,-161.5"/>
</g>
</g>
</svg>
