<?xml version="1.0" encoding="UTF-8" standalone="no"?>
<!DOCTYPE svg PUBLIC "-//W3C//DTD SVG 1.1//EN"
 "http://www.w3.org/Graphics/SVG/1.1/DTD/svg11.dtd">
<!-- Generated by graphviz version 2.38.0 (20140413.2041)
 -->
<!-- Title: DifferenceObject Pages: 1 -->
<!--zoomable 670 -->
<svg id="main" version="1.1" xmlns="http://www.w3.org/2000/svg" xmlns:xlink="http://www.w3.org/1999/xlink" xml:space="preserve" onload="init(evt)">
<style type="text/css"><![CDATA[
.edge:hover path { stroke: red; }
.edge:hover polygon { stroke: red; fill: red; }
]]></style>
<script type="text/javascript"><![CDATA[
var edges = document.getElementsByTagName('g');
if (edges && edges.length) {
  for (var i=0;i<edges.length;i++) {
    if (edges[i].id.substr(0,4)=='edge') {
      edges[i].setAttribute('class','edge');
    }
  }
}
]]></script>
        <defs>
                <circle id="rim" cx="0" cy="0" r="7"/>
                <circle id="rim2" cx="0" cy="0" r="3.5"/>
                <g id="zoomPlus">
                        <use xlink:href="#rim" fill="#404040">
                                <set attributeName="fill" to="#808080" begin="zoomplus.mouseover" end="zoomplus.mouseout"/>
                        </use>
                        <path d="M-4,0h8M0,-4v8" fill="none" stroke="white" stroke-width="1.5" pointer-events="none"/>
                </g>
                <g id="zoomMin">
                        <use xlink:href="#rim" fill="#404040">
                                <set attributeName="fill" to="#808080" begin="zoomminus.mouseover" end="zoomminus.mouseout"/>
                        </use>
                        <path d="M-4,0h8" fill="none" stroke="white" stroke-width="1.5" pointer-events="none"/>
                </g>
                <g id="dirArrow">
                        <path fill="none" stroke="white" stroke-width="1.5" d="M0,-3.0v7 M-2.5,-0.5L0,-3.0L2.5,-0.5"/>
                </g>
               <g id="resetDef">
                       <use xlink:href="#rim2" fill="#404040">
                               <set attributeName="fill" to="#808080" begin="reset.mouseover" end="reset.mouseout"/>
                       </use>
               </g>
        </defs>

<script type="text/javascript">
var viewWidth = 920;
var viewHeight = 670;
var sectionId = 'dynsection-1';
</script>
<script xlink:href="svgpan.js"/>
<svg id="graph" class="graph">
<g id="viewport">
<title>DifferenceObject</title>
<polygon fill="white" stroke="none" points="-4,4 -4,-666 916,-666 916,4 -4,4"/>
<!-- Node1 -->
<g id="node1" class="node"><title>Node1</title>
<polygon fill="#bfbfbf" stroke="black" points="822,-150.5 822,-169.5 912,-169.5 912,-150.5 822,-150.5"/>
<text text-anchor="middle" x="867" y="-157.5" font-family="Helvetica,sans-Serif" font-size="10.00">DifferenceObject</text>
</g>
<!-- Node2 -->
<g id="node2" class="node"><title>Node2</title>
<g id="a_node2"><a xlink:href="classFrameObject.html" target="_top" xlink:title="FrameObject">
<polygon fill="white" stroke="black" points="639.5,-176.5 639.5,-195.5 712.5,-195.5 712.5,-176.5 639.5,-176.5"/>
<text text-anchor="middle" x="676" y="-183.5" font-family="Helvetica,sans-Serif" font-size="10.00">FrameObject</text>
</a>
</g>
</g>
<!-- Node2&#45;&gt;Node1 -->
<g id="edge1" class="edge"><title>Node2&#45;&gt;Node1</title>
<path fill="none" stroke="midnightblue" d="M722.672,-181.873C746.899,-179.455 777.134,-176.074 804,-172 809.745,-171.129 815.769,-170.104 821.709,-169.027"/>
<polygon fill="midnightblue" stroke="midnightblue" points="722.296,-178.393 712.684,-182.849 722.977,-185.359 722.296,-178.393"/>
</g>
<!-- Node2&#45;&gt;Node1 -->
<g id="edge25" class="edge"><title>Node2&#45;&gt;Node1</title>
<path fill="none" stroke="#9a32cd" stroke-dasharray="5,2" d="M700.309,-171.383C709.509,-166.421 720.4,-161.502 731,-159 760.769,-151.973 795.268,-152.37 821.94,-154.448"/>
<polygon fill="#9a32cd" stroke="#9a32cd" points="698.359,-168.466 691.417,-176.47 701.835,-174.542 698.359,-168.466"/>
<text text-anchor="middle" x="767.5" y="-162" font-family="Helvetica,sans-Serif" font-size="10.00"> p_frameObjects</text>
</g>
<!-- Node3 -->
<g id="node3" class="node"><title>Node3</title>
<g id="a_node3"><a xlink:href="classDisplayObject.html" target="_top" xlink:title="DisplayObject">
<polygon fill="white" stroke="black" points="385,-309.5 385,-328.5 463,-328.5 463,-309.5 385,-309.5"/>
<text text-anchor="middle" x="424" y="-316.5" font-family="Helvetica,sans-Serif" font-size="10.00">DisplayObject</text>
</a>
</g>
</g>
<!-- Node3&#45;&gt;Node2 -->
<g id="edge2" class="edge"><title>Node3&#45;&gt;Node2</title>
<path fill="none" stroke="midnightblue" d="M451.817,-304.734C502.991,-277.509 613.351,-218.797 656.848,-195.657"/>
<polygon fill="midnightblue" stroke="midnightblue" points="450.164,-301.648 442.979,-309.435 453.452,-307.828 450.164,-301.648"/>
</g>
<!-- Node4 -->
<g id="node4" class="node"><title>Node4</title>
<g id="a_node4"><a xlink:href="classQObject.html" target="_top" xlink:title="QObject">
<polygon fill="white" stroke="black" points="141,-259.5 141,-278.5 194,-278.5 194,-259.5 141,-259.5"/>
<text text-anchor="middle" x="167.5" y="-266.5" font-family="Helvetica,sans-Serif" font-size="10.00">QObject</text>
</a>
</g>
</g>
<!-- Node4&#45;&gt;Node3 -->
<g id="edge3" class="edge"><title>Node4&#45;&gt;Node3</title>
<path fill="none" stroke="midnightblue" d="M204.174,-276.009C251.816,-285.368 335.871,-301.882 384.774,-311.49"/>
<polygon fill="midnightblue" stroke="midnightblue" points="204.791,-272.563 194.303,-274.069 203.441,-279.432 204.791,-272.563"/>
</g>
<!-- Node12 -->
<g id="node12" class="node"><title>Node12</title>
<g id="a_node12"><a xlink:href="classYUVSource.html" target="_top" xlink:title="YUVSource">
<polygon fill="white" stroke="black" points="390,-157.5 390,-176.5 458,-176.5 458,-157.5 390,-157.5"/>
<text text-anchor="middle" x="424" y="-164.5" font-family="Helvetica,sans-Serif" font-size="10.00">YUVSource</text>
</a>
</g>
</g>
<!-- Node4&#45;&gt;Node12 -->
<g id="edge12" class="edge"><title>Node4&#45;&gt;Node12</title>
<path fill="none" stroke="midnightblue" d="M204.424,-274.703C241.748,-278.487 299.677,-278.046 336,-247 357.487,-228.634 333.831,-205.805 354,-186 363.486,-176.685 377.097,-171.838 389.727,-169.351"/>
<polygon fill="midnightblue" stroke="midnightblue" points="204.353,-271.171 194.013,-273.484 203.539,-278.123 204.353,-271.171"/>
</g>
<!-- Node5 -->
<g id="node5" class="node"><title>Node5</title>
<polygon fill="white" stroke="#bfbfbf" points="122,-305.5 122,-324.5 213,-324.5 213,-305.5 122,-305.5"/>
<text text-anchor="middle" x="167.5" y="-312.5" font-family="Helvetica,sans-Serif" font-size="10.00">QList&lt; QString &gt;</text>
</g>
<!-- Node5&#45;&gt;Node3 -->
<g id="edge4" class="edge"><title>Node5&#45;&gt;Node3</title>
<path fill="none" stroke="#9a32cd" stroke-dasharray="5,2" d="M223.164,-315.859C271.818,-316.624 341.744,-317.723 384.672,-318.398"/>
<polygon fill="#9a32cd" stroke="#9a32cd" points="223.176,-312.359 213.122,-315.701 223.065,-319.358 223.176,-312.359"/>
<text text-anchor="middle" x="290.5" y="-321" font-family="Helvetica,sans-Serif" font-size="10.00"> p_info_permanent</text>
</g>
<!-- Node6 -->
<g id="node6" class="node"><title>Node6</title>
<polygon fill="white" stroke="#bfbfbf" points="145,-214.5 145,-233.5 190,-233.5 190,-214.5 145,-214.5"/>
<text text-anchor="middle" x="167.5" y="-221.5" font-family="Helvetica,sans-Serif" font-size="10.00">double</text>
</g>
<!-- Node6&#45;&gt;Node3 -->
<g id="edge5" class="edge"><title>Node6&#45;&gt;Node3</title>
<path fill="none" stroke="#9a32cd" stroke-dasharray="5,2" d="M200.071,-230.567C234.293,-238.208 290.157,-252.217 336,-271 362.498,-281.857 391.212,-298.816 408.127,-309.399"/>
<polygon fill="#9a32cd" stroke="#9a32cd" points="200.698,-227.121 190.181,-228.402 199.201,-233.959 200.698,-227.121"/>
<text text-anchor="middle" x="290.5" y="-274" font-family="Helvetica,sans-Serif" font-size="10.00"> p_frameRate</text>
</g>
<!-- Node6&#45;&gt;Node12 -->
<g id="edge16" class="edge"><title>Node6&#45;&gt;Node12</title>
<path fill="none" stroke="#9a32cd" stroke-dasharray="5,2" d="M200.062,-214.263C213.796,-210.198 230.121,-205.595 245,-202 295.053,-189.906 353.778,-178.983 389.681,-172.669"/>
<polygon fill="#9a32cd" stroke="#9a32cd" points="198.704,-211.016 190.131,-217.242 200.715,-217.721 198.704,-211.016"/>
<text text-anchor="middle" x="290.5" y="-205" font-family="Helvetica,sans-Serif" font-size="10.00"> p_frameRate</text>
</g>
<!-- Node7 -->
<g id="node7" class="node"><title>Node7</title>
<polygon fill="white" stroke="#bfbfbf" points="142.5,-381.5 142.5,-400.5 192.5,-400.5 192.5,-381.5 142.5,-381.5"/>
<text text-anchor="middle" x="167.5" y="-388.5" font-family="Helvetica,sans-Serif" font-size="10.00">QString</text>
</g>
<!-- Node7&#45;&gt;Node3 -->
<g id="edge6" class="edge"><title>Node7&#45;&gt;Node3</title>
<path fill="none" stroke="#9a32cd" stroke-dasharray="5,2" d="M202.463,-386.619C236.709,-381.666 290.822,-372.371 336,-358 360.607,-350.173 387.53,-337.403 404.81,-328.621"/>
<polygon fill="#9a32cd" stroke="#9a32cd" points="201.921,-383.16 192.505,-388.017 202.895,-390.092 201.921,-383.16"/>
<text text-anchor="middle" x="290.5" y="-405" font-family="Helvetica,sans-Serif" font-size="10.00"> p_status</text>
<text text-anchor="middle" x="290.5" y="-394" font-family="Helvetica,sans-Serif" font-size="10.00">p_name</text>
<text text-anchor="middle" x="290.5" y="-383" font-family="Helvetica,sans-Serif" font-size="10.00">p_info</text>
</g>
<!-- Node8 -->
<g id="node8" class="node"><title>Node8</title>
<polygon fill="white" stroke="#bfbfbf" points="139,-343.5 139,-362.5 196,-362.5 196,-343.5 139,-343.5"/>
<text text-anchor="middle" x="167.5" y="-350.5" font-family="Helvetica,sans-Serif" font-size="10.00">QPixmap</text>
</g>
<!-- Node8&#45;&gt;Node3 -->
<g id="edge7" class="edge"><title>Node8&#45;&gt;Node3</title>
<path fill="none" stroke="#9a32cd" stroke-dasharray="5,2" d="M206.023,-348.142C239.976,-343.73 291.35,-337.012 336,-331 352.017,-328.843 369.686,-326.415 384.893,-324.31"/>
<polygon fill="#9a32cd" stroke="#9a32cd" points="205.538,-344.676 196.072,-349.434 206.439,-351.617 205.538,-344.676"/>
<text text-anchor="middle" x="290.5" y="-346" font-family="Helvetica,sans-Serif" font-size="10.00"> p_displayImage</text>
</g>
<!-- Node9 -->
<g id="node9" class="node"><title>Node9</title>
<polygon fill="white" stroke="#bfbfbf" points="153,-518.5 153,-537.5 182,-537.5 182,-518.5 153,-518.5"/>
<text text-anchor="middle" x="167.5" y="-525.5" font-family="Helvetica,sans-Serif" font-size="10.00">int</text>
</g>
<!-- Node9&#45;&gt;Node1 -->
<g id="edge26" class="edge"><title>Node9&#45;&gt;Node1</title>
<path fill="none" stroke="#9a32cd" stroke-dasharray="5,2" d="M188.836,-543.875C221.449,-568.171 288.46,-613.401 354,-629 469.947,-656.596 524.728,-674.263 621,-604 783.852,-485.145 851.397,-223.646 863.834,-169.809"/>
<polygon fill="#9a32cd" stroke="#9a32cd" points="190.663,-540.869 180.579,-537.62 186.436,-546.448 190.663,-540.869"/>
<text text-anchor="middle" x="566.5" y="-654" font-family="Helvetica,sans-Serif" font-size="10.00"> p_markDifferences</text>
</g>
<!-- Node9&#45;&gt;Node2 -->
<g id="edge22" class="edge"><title>Node9&#45;&gt;Node2</title>
<path fill="none" stroke="#9a32cd" stroke-dasharray="5,2" d="M191.192,-540.325C224.998,-556.861 289.575,-581.285 336,-555 349.531,-547.339 344.431,-537.256 354,-525 457.278,-392.723 511.044,-384.78 621,-258 639.428,-236.753 658.638,-209.789 668.42,-195.652"/>
<polygon fill="#9a32cd" stroke="#9a32cd" points="192.628,-537.129 182.128,-535.715 189.455,-543.368 192.628,-537.129"/>
<text text-anchor="middle" x="424" y="-572" font-family="Helvetica,sans-Serif" font-size="10.00"> p_lumaOffset</text>
<text text-anchor="middle" x="424" y="-561" font-family="Helvetica,sans-Serif" font-size="10.00">p_chromaUScale</text>
<text text-anchor="middle" x="424" y="-550" font-family="Helvetica,sans-Serif" font-size="10.00">p_chromaVScale</text>
<text text-anchor="middle" x="424" y="-539" font-family="Helvetica,sans-Serif" font-size="10.00">p_chromaOffset</text>
<text text-anchor="middle" x="424" y="-528" font-family="Helvetica,sans-Serif" font-size="10.00">p_lumaScale</text>
</g>
<!-- Node9&#45;&gt;Node3 -->
<g id="edge8" class="edge"><title>Node9&#45;&gt;Node3</title>
<path fill="none" stroke="#9a32cd" stroke-dasharray="5,2" d="M191.145,-514.757C206.058,-506.466 226.227,-496.056 245,-489 284.049,-474.324 302.589,-490.979 336,-466 385.403,-429.065 411.96,-355.106 420.182,-328.67"/>
<polygon fill="#9a32cd" stroke="#9a32cd" points="189.146,-511.867 182.172,-519.842 192.598,-517.957 189.146,-511.867"/>
<text text-anchor="middle" x="290.5" y="-547" font-family="Helvetica,sans-Serif" font-size="10.00"> p_startFrame</text>
<text text-anchor="middle" x="290.5" y="-536" font-family="Helvetica,sans-Serif" font-size="10.00">p_endFrame</text>
<text text-anchor="middle" x="290.5" y="-525" font-family="Helvetica,sans-Serif" font-size="10.00">p_width</text>
<text text-anchor="middle" x="290.5" y="-514" font-family="Helvetica,sans-Serif" font-size="10.00">p_sampling</text>
<text text-anchor="middle" x="290.5" y="-503" font-family="Helvetica,sans-Serif" font-size="10.00">p_height</text>
<text text-anchor="middle" x="290.5" y="-492" font-family="Helvetica,sans-Serif" font-size="10.00">p_lastIdx</text>
</g>
<!-- Node9&#45;&gt;Node12 -->
<g id="edge19" class="edge"><title>Node9&#45;&gt;Node12</title>
<path fill="none" stroke="#9a32cd" stroke-dasharray="5,2" d="M179.459,-509.769C192.533,-489.614 216.27,-457.669 245,-440 280.534,-418.146 309.11,-448.893 336,-417 369.19,-377.636 321.228,-225.713 354,-186 362.699,-175.458 376.662,-170.468 389.759,-168.204"/>
<polygon fill="#9a32cd" stroke="#9a32cd" points="176.423,-508.022 174.072,-518.353 182.352,-511.743 176.423,-508.022"/>
<text text-anchor="middle" x="290.5" y="-454" font-family="Helvetica,sans-Serif" font-size="10.00"> p_width</text>
<text text-anchor="middle" x="290.5" y="-443" font-family="Helvetica,sans-Serif" font-size="10.00">p_height</text>
</g>
<!-- Node10 -->
<g id="node10" class="node"><title>Node10</title>
<polygon fill="white" stroke="#bfbfbf" points="354,-195.5 354,-214.5 494,-214.5 494,-195.5 354,-195.5"/>
<text text-anchor="middle" x="424" y="-202.5" font-family="Helvetica,sans-Serif" font-size="10.00">YUVCColorConversionType</text>
</g>
<!-- Node10&#45;&gt;Node2 -->
<g id="edge9" class="edge"><title>Node10&#45;&gt;Node2</title>
<path fill="none" stroke="#9a32cd" stroke-dasharray="5,2" d="M504.428,-198.963C549.793,-195.516 604.436,-191.363 639.437,-188.703"/>
<polygon fill="#9a32cd" stroke="#9a32cd" points="504.013,-195.485 494.307,-199.733 504.543,-202.465 504.013,-195.485"/>
<text text-anchor="middle" x="566.5" y="-202" font-family="Helvetica,sans-Serif" font-size="10.00"> p_colorConversionMode</text>
</g>
<!-- Node11 -->
<g id="node11" class="node"><title>Node11</title>
<polygon fill="white" stroke="#bfbfbf" points="133.5,-35.5 133.5,-54.5 201.5,-54.5 201.5,-35.5 133.5,-35.5"/>
<text text-anchor="middle" x="167.5" y="-42.5" font-family="Helvetica,sans-Serif" font-size="10.00">QByteArray</text>
</g>
<!-- Node11&#45;&gt;Node2 -->
<g id="edge10" class="edge"><title>Node11&#45;&gt;Node2</title>
<path fill="none" stroke="#9a32cd" stroke-dasharray="5,2" d="M211.771,-34.2662C247.609,-27.8783 298.546,-24.7942 336,-47 350.036,-55.3219 341.363,-68.6761 354,-79 360.034,-83.9298 613.657,-162.392 621,-165 631.048,-168.568 642.033,-172.782 651.456,-176.495"/>
<polygon fill="#9a32cd" stroke="#9a32cd" points="210.778,-30.8936 201.627,-36.2334 212.111,-37.7655 210.778,-30.8936"/>
<text text-anchor="middle" x="424" y="-139" font-family="Helvetica,sans-Serif" font-size="10.00"> p_PixmapConversionBuffer</text>
<text text-anchor="middle" x="424" y="-128" font-family="Helvetica,sans-Serif" font-size="10.00">p_tmpBufferYUV444</text>
</g>
<!-- Node11&#45;&gt;Node12 -->
<g id="edge17" class="edge"><title>Node11&#45;&gt;Node12</title>
<path fill="none" stroke="#9a32cd" stroke-dasharray="5,2" d="M211.802,-45.5743C249.105,-48.3389 302.14,-58.0169 336,-89 353.425,-104.944 337.636,-121.969 354,-139 363.584,-148.975 377.211,-155.503 389.826,-159.723"/>
<polygon fill="#9a32cd" stroke="#9a32cd" points="211.919,-42.0751 201.726,-44.9659 211.497,-49.0624 211.919,-42.0751"/>
<text text-anchor="middle" x="290.5" y="-92" font-family="Helvetica,sans-Serif" font-size="10.00"> p_tmpBufferYUV</text>
</g>
<!-- Node12&#45;&gt;Node2 -->
<g id="edge11" class="edge"><title>Node12&#45;&gt;Node2</title>
<path fill="none" stroke="#9a32cd" stroke-dasharray="5,2" d="M468.207,-167.285C508.012,-167.949 568.656,-169.98 621,-176 626.967,-176.686 633.268,-177.64 639.376,-178.689"/>
<polygon fill="#9a32cd" stroke="#9a32cd" points="468.106,-163.783 458.056,-167.137 468.004,-170.782 468.106,-163.783"/>
<text text-anchor="middle" x="566.5" y="-179" font-family="Helvetica,sans-Serif" font-size="10.00"> p_source</text>
</g>
<!-- Node13 -->
<g id="node13" class="node"><title>Node13</title>
<g id="a_node13"><a xlink:title="STL class. ">
<polygon fill="white" stroke="#bfbfbf" points="121.5,-123.5 121.5,-142.5 213.5,-142.5 213.5,-123.5 121.5,-123.5"/>
<text text-anchor="middle" x="167.5" y="-130.5" font-family="Helvetica,sans-Serif" font-size="10.00">std::map&lt; K, T &gt;</text>
</a>
</g>
</g>
<!-- Node13&#45;&gt;Node12 -->
<g id="edge13" class="edge"><title>Node13&#45;&gt;Node12</title>
<path fill="none" stroke="#9a32cd" stroke-dasharray="5,2" d="M223.991,-138.481C256.658,-141.911 298.746,-146.68 336,-152 353.753,-154.535 373.45,-157.886 389.608,-160.778"/>
<polygon fill="#9a32cd" stroke="#9a32cd" points="224.042,-134.968 213.734,-137.416 223.318,-141.93 224.042,-134.968"/>
<text text-anchor="middle" x="290.5" y="-155" font-family="Helvetica,sans-Serif" font-size="10.00"> g_pixelFormatList</text>
</g>
<!-- Node14 -->
<g id="node14" class="node"><title>Node14</title>
<polygon fill="white" stroke="#bfbfbf" points="0,-142.5 0,-161.5 29,-161.5 29,-142.5 0,-142.5"/>
<text text-anchor="middle" x="14.5" y="-149.5" font-family="Helvetica,sans-Serif" font-size="10.00">K</text>
</g>
<!-- Node14&#45;&gt;Node13 -->
<g id="edge14" class="edge"><title>Node14&#45;&gt;Node13</title>
<path fill="none" stroke="#9a32cd" stroke-dasharray="5,2" d="M39.2368,-149.013C61.1699,-146.253 94.3417,-142.08 121.32,-138.685"/>
<polygon fill="#9a32cd" stroke="#9a32cd" points="38.6513,-145.559 29.1666,-150.28 39.5253,-152.504 38.6513,-145.559"/>
<text text-anchor="middle" x="68.5" y="-151" font-family="Helvetica,sans-Serif" font-size="10.00"> keys</text>
</g>
<!-- Node15 -->
<g id="node15" class="node"><title>Node15</title>
<polygon fill="white" stroke="#bfbfbf" points="0,-104.5 0,-123.5 29,-123.5 29,-104.5 0,-104.5"/>
<text text-anchor="middle" x="14.5" y="-111.5" font-family="Helvetica,sans-Serif" font-size="10.00">T</text>
</g>
<!-- Node15&#45;&gt;Node13 -->
<g id="edge15" class="edge"><title>Node15&#45;&gt;Node13</title>
<path fill="none" stroke="#9a32cd" stroke-dasharray="5,2" d="M39.2368,-116.987C61.1699,-119.747 94.3417,-123.92 121.32,-127.315"/>
<polygon fill="#9a32cd" stroke="#9a32cd" points="39.5253,-113.496 29.1666,-115.72 38.6513,-120.441 39.5253,-113.496"/>
<text text-anchor="middle" x="68.5" y="-126" font-family="Helvetica,sans-Serif" font-size="10.00"> elements</text>
</g>
<!-- Node16 -->
<g id="node16" class="node"><title>Node16</title>
<polygon fill="white" stroke="#bfbfbf" points="120.5,-85.5 120.5,-104.5 214.5,-104.5 214.5,-85.5 120.5,-85.5"/>
<text text-anchor="middle" x="167.5" y="-92.5" font-family="Helvetica,sans-Serif" font-size="10.00">InterpolationMode</text>
</g>
<!-- Node16&#45;&gt;Node12 -->
<g id="edge18" class="edge"><title>Node16&#45;&gt;Node12</title>
<path fill="none" stroke="#9a32cd" stroke-dasharray="5,2" d="M224.713,-100.074C258.008,-104.451 300.49,-112.47 336,-127 344.899,-130.641 345.502,-134.503 354,-139 367.369,-146.075 382.93,-152.532 395.888,-157.457"/>
<polygon fill="#9a32cd" stroke="#9a32cd" points="225.048,-96.5885 214.692,-98.8291 224.185,-103.535 225.048,-96.5885"/>
<text text-anchor="middle" x="290.5" y="-130" font-family="Helvetica,sans-Serif" font-size="10.00"> p_interpolationMode</text>
</g>
<!-- Node17 -->
<g id="node17" class="node"><title>Node17</title>
<polygon fill="white" stroke="#bfbfbf" points="108,-161.5 108,-180.5 227,-180.5 227,-161.5 108,-161.5"/>
<text text-anchor="middle" x="167.5" y="-168.5" font-family="Helvetica,sans-Serif" font-size="10.00">YUVCPixelFormatType</text>
</g>
<!-- Node17&#45;&gt;Node12 -->
<g id="edge20" class="edge"><title>Node17&#45;&gt;Node12</title>
<path fill="none" stroke="#9a32cd" stroke-dasharray="5,2" d="M237.384,-168.19C239.955,-168.12 242.5,-168.056 245,-168 295.514,-166.868 354.111,-166.774 389.861,-166.854"/>
<polygon fill="#9a32cd" stroke="#9a32cd" points="237.273,-164.692 227.383,-168.491 237.484,-171.689 237.273,-164.692"/>
<text text-anchor="middle" x="290.5" y="-171" font-family="Helvetica,sans-Serif" font-size="10.00"> p_srcPixelFormat</text>
</g>
<!-- Node18 -->
<g id="node18" class="node"><title>Node18</title>
<polygon fill="white" stroke="#bfbfbf" points="357,-589 357,-619 491,-619 491,-589 357,-589"/>
<text text-anchor="start" x="365" y="-607" font-family="Helvetica,sans-Serif" font-size="10.00">static QCache&lt; CacheIdx,</text>
<text text-anchor="middle" x="424" y="-596" font-family="Helvetica,sans-Serif" font-size="10.00"> QPixmap &gt;</text>
</g>
<!-- Node18&#45;&gt;Node2 -->
<g id="edge21" class="edge"><title>Node18&#45;&gt;Node2</title>
<path fill="none" stroke="#9a32cd" stroke-dasharray="5,2" d="M501.223,-593.625C542.834,-583.92 591.705,-565.172 621,-529 664.156,-475.713 673.255,-246.255 674.746,-195.826"/>
<polygon fill="#9a32cd" stroke="#9a32cd" points="500.386,-590.226 491.369,-595.79 501.887,-597.063 500.386,-590.226"/>
<text text-anchor="middle" x="566.5" y="-592" font-family="Helvetica,sans-Serif" font-size="10.00"> frameCache</text>
</g>
<!-- Node19 -->
<g id="node19" class="node"><title>Node19</title>
<polygon fill="white" stroke="#bfbfbf" points="406.5,-50.5 406.5,-69.5 441.5,-69.5 441.5,-50.5 406.5,-50.5"/>
<text text-anchor="middle" x="424" y="-57.5" font-family="Helvetica,sans-Serif" font-size="10.00">bool</text>
</g>
<!-- Node19&#45;&gt;Node1 -->
<g id="edge27" class="edge"><title>Node19&#45;&gt;Node1</title>
<path fill="none" stroke="#9a32cd" stroke-dasharray="5,2" d="M451.991,-58.8375C490.084,-57.7685 561.6,-57.8657 621,-70 708.018,-87.7763 805.404,-131.089 846.274,-150.415"/>
<polygon fill="#9a32cd" stroke="#9a32cd" points="451.61,-55.3481 441.731,-59.1777 451.842,-62.3443 451.61,-55.3481"/>
<text text-anchor="middle" x="676" y="-99" font-family="Helvetica,sans-Serif" font-size="10.00"> differenceExists</text>
</g>
<!-- Node19&#45;&gt;Node2 -->
<g id="edge23" class="edge"><title>Node19&#45;&gt;Node2</title>
<path fill="none" stroke="#9a32cd" stroke-dasharray="5,2" d="M451.675,-62.7737C502.028,-68.1989 607.285,-80.5129 621,-90 651.982,-111.43 667.258,-156.727 672.654,-176.468"/>
<polygon fill="#9a32cd" stroke="#9a32cd" points="451.849,-59.2726 441.535,-61.6945 451.109,-66.2333 451.849,-59.2726"/>
<text text-anchor="middle" x="566.5" y="-104" font-family="Helvetica,sans-Serif" font-size="10.00"> p_chromaInvert</text>
<text text-anchor="middle" x="566.5" y="-93" font-family="Helvetica,sans-Serif" font-size="10.00">p_lumaInvert</text>
</g>
<!-- Node20 -->
<g id="node20" class="node"><title>Node20</title>
<polygon fill="white" stroke="#bfbfbf" points="652.5,-0.5 652.5,-19.5 699.5,-19.5 699.5,-0.5 652.5,-0.5"/>
<text text-anchor="middle" x="676" y="-7.5" font-family="Helvetica,sans-Serif" font-size="10.00">QColor</text>
</g>
<!-- Node20&#45;&gt;Node1 -->
<g id="edge24" class="edge"><title>Node20&#45;&gt;Node1</title>
<path fill="none" stroke="#9a32cd" stroke-dasharray="5,2" d="M709.597,-7.48948C737.338,-7.05836 776.888,-10.6732 804,-31 844.757,-61.556 859.996,-125.896 864.451,-150.319"/>
<polygon fill="#9a32cd" stroke="#9a32cd" points="709.47,-3.99168 699.593,-7.82641 709.705,-10.9877 709.47,-3.99168"/>
<text text-anchor="middle" x="767.5" y="-34" font-family="Helvetica,sans-Serif" font-size="10.00"> diffColor</text>
</g>
</g>
</svg>
        <g id="navigator" transform="translate(0 0)" fill="#404254">
                <rect fill="#f2f5e9" fill-opacity="0.5" stroke="#606060" stroke-width=".5" x="0" y="0" width="60" height="60"/>
                <use id="zoomplus" xlink:href="#zoomPlus" x="17" y="9" onmousedown="handleZoom(evt,'in')"/>
                <use id="zoomminus" xlink:href="#zoomMin" x="42" y="9" onmousedown="handleZoom(evt,'out')"/>
                <use id="reset" xlink:href="#resetDef" x="30" y="36" onmousedown="handleReset()"/>
                <g id="arrowUp" xlink:href="#dirArrow" transform="translate(30 24)" onmousedown="handlePan(0,-1)">
                  <use xlink:href="#rim" fill="#404040">
                        <set attributeName="fill" to="#808080" begin="arrowUp.mouseover" end="arrowUp.mouseout"/>
                  </use>
                  <path fill="none" stroke="white" stroke-width="1.5" d="M0,-3.0v7 M-2.5,-0.5L0,-3.0L2.5,-0.5"/>
                </g>
                <g id="arrowRight" xlink:href="#dirArrow" transform="rotate(90) translate(36 -43)" onmousedown="handlePan(1,0)">
                  <use xlink:href="#rim" fill="#404040">
                        <set attributeName="fill" to="#808080" begin="arrowRight.mouseover" end="arrowRight.mouseout"/>
                  </use>
                  <path fill="none" stroke="white" stroke-width="1.5" d="M0,-3.0v7 M-2.5,-0.5L0,-3.0L2.5,-0.5"/>
                </g>
                <g id="arrowDown" xlink:href="#dirArrow" transform="rotate(180) translate(-30 -48)" onmousedown="handlePan(0,1)">
                  <use xlink:href="#rim" fill="#404040">
                        <set attributeName="fill" to="#808080" begin="arrowDown.mouseover" end="arrowDown.mouseout"/>
                  </use>
                  <path fill="none" stroke="white" stroke-width="1.5" d="M0,-3.0v7 M-2.5,-0.5L0,-3.0L2.5,-0.5"/>
                </g>
                <g id="arrowLeft" xlink:href="#dirArrow" transform="rotate(270) translate(-36 17)" onmousedown="handlePan(-1,0)">
                  <use xlink:href="#rim" fill="#404040">
                        <set attributeName="fill" to="#808080" begin="arrowLeft.mouseover" end="arrowLeft.mouseout"/>
                  </use>
                  <path fill="none" stroke="white" stroke-width="1.5" d="M0,-3.0v7 M-2.5,-0.5L0,-3.0L2.5,-0.5"/>
                </g>
        </g>
        <svg viewBox="0 0 15 15" width="100%" height="30px" preserveAspectRatio="xMaxYMin meet">
         <g id="arrow_out" transform="scale(0.3 0.3)">
          <a xlink:href="classDifferenceObject__coll__graph_org.svg" target="_base">
           <rect id="button" ry="5" rx="5" y="6" x="6" height="38" width="38"
                fill="#f2f5e9" fill-opacity="0.5" stroke="#606060" stroke-width="1.0"/>
           <path id="arrow"
             d="M 11.500037,31.436501 C 11.940474,20.09759 22.043105,11.32322 32.158766,21.979434 L 37.068811,17.246167 C 37.068811,17.246167 37.088388,32 37.088388,32 L 22.160133,31.978069 C 22.160133,31.978069 26.997745,27.140456 26.997745,27.140456 C 18.528582,18.264221 13.291696,25.230495 11.500037,31.436501 z"
             style="fill:#404040;"/>
          </a>
         </g>
        </svg>
</svg>
