<?xml version="1.0" encoding="UTF-8" standalone="no"?>
<!DOCTYPE svg PUBLIC "-//W3C//DTD SVG 1.1//EN"
 "http://www.w3.org/Graphics/SVG/1.1/DTD/svg11.dtd">
<!-- Generated by graphviz version 2.38.0 (20140413.2041)
 -->
<!-- Title: statisticSource::getStatisticsTypeList Pages: 1 -->
<!--zoomable 197 -->
<svg id="main" version="1.1" xmlns="http://www.w3.org/2000/svg" xmlns:xlink="http://www.w3.org/1999/xlink" xml:space="preserve" onload="init(evt)">
<style type="text/css"><![CDATA[
.edge:hover path { stroke: red; }
.edge:hover polygon { stroke: red; fill: red; }
]]></style>
<script type="text/javascript"><![CDATA[
var edges = document.getElementsByTagName('g');
if (edges && edges.length) {
  for (var i=0;i<edges.length;i++) {
    if (edges[i].id.substr(0,4)=='edge') {
      edges[i].setAttribute('class','edge');
    }
  }
}
]]></script>
        <defs>
                <circle id="rim" cx="0" cy="0" r="7"/>
                <circle id="rim2" cx="0" cy="0" r="3.5"/>
                <g id="zoomPlus">
                        <use xlink:href="#rim" fill="#404040">
                                <set attributeName="fill" to="#808080" begin="zoomplus.mouseover" end="zoomplus.mouseout"/>
                        </use>
                        <path d="M-4,0h8M0,-4v8" fill="none" stroke="white" stroke-width="1.5" pointer-events="none"/>
                </g>
                <g id="zoomMin">
                        <use xlink:href="#rim" fill="#404040">
                                <set attributeName="fill" to="#808080" begin="zoomminus.mouseover" end="zoomminus.mouseout"/>
                        </use>
                        <path d="M-4,0h8" fill="none" stroke="white" stroke-width="1.5" pointer-events="none"/>
                </g>
                <g id="dirArrow">
                        <path fill="none" stroke="white" stroke-width="1.5" d="M0,-3.0v7 M-2.5,-0.5L0,-3.0L2.5,-0.5"/>
                </g>
               <g id="resetDef">
                       <use xlink:href="#rim2" fill="#404040">
                               <set attributeName="fill" to="#808080" begin="reset.mouseover" end="reset.mouseout"/>
                       </use>
               </g>
        </defs>

<script type="text/javascript">
var viewWidth = 1083;
var viewHeight = 197;
var sectionId = 'dynsection-19';
</script>
<script xlink:href="svgpan.js"/>
<svg id="graph" class="graph">
<g id="viewport">
<title>statisticSource::getStatisticsTypeList</title>
<polygon fill="white" stroke="none" points="-4,4 -4,-193.442 1079,-193.442 1079,4 -4,4"/>
<!-- Node1 -->
<g id="node1" class="node"><title>Node1</title>
<polygon fill="#bfbfbf" stroke="black" points="0,-107.518 0,-137.518 143,-137.518 143,-107.518 0,-107.518"/>
<text text-anchor="start" x="8" y="-125.518" font-family="Helvetica,sans-Serif" font-size="10.00">statisticSource::getStatistics</text>
<text text-anchor="middle" x="71.5" y="-114.518" font-family="Helvetica,sans-Serif" font-size="10.00">TypeList</text>
</g>
<!-- Node2 -->
<g id="node2" class="node"><title>Node2</title>
<g id="a_node2"><a xlink:href="classStatisticsObject.html#a35ebb80803c01da4504cc879d964321b" target="_top" xlink:title="StatisticsObject::getStatistics\lTypeList">
<polygon fill="white" stroke="black" points="179,-107.518 179,-137.518 326,-137.518 326,-107.518 179,-107.518"/>
<text text-anchor="start" x="187" y="-125.518" font-family="Helvetica,sans-Serif" font-size="10.00">StatisticsObject::getStatistics</text>
<text text-anchor="middle" x="252.5" y="-114.518" font-family="Helvetica,sans-Serif" font-size="10.00">TypeList</text>
</a>
</g>
</g>
<!-- Node1&#45;&gt;Node2 -->
<g id="edge1" class="edge"><title>Node1&#45;&gt;Node2</title>
<path fill="none" stroke="midnightblue" d="M153.507,-122.518C161.978,-122.518 170.551,-122.518 178.92,-122.518"/>
<polygon fill="midnightblue" stroke="midnightblue" points="153.246,-119.018 143.246,-122.518 153.246,-126.018 153.246,-119.018"/>
</g>
<!-- Node3 -->
<g id="node3" class="node"><title>Node3</title>
<g id="a_node3"><a xlink:href="classMainWindow.html#a88624964fbb9d67df9149b29fab6f225" target="_top" xlink:title="MainWindow::savePlaylist\lToFile">
<polygon fill="white" stroke="black" points="369,-151.518 369,-181.518 501,-181.518 501,-151.518 369,-151.518"/>
<text text-anchor="start" x="377" y="-169.518" font-family="Helvetica,sans-Serif" font-size="10.00">MainWindow::savePlaylist</text>
<text text-anchor="middle" x="435" y="-158.518" font-family="Helvetica,sans-Serif" font-size="10.00">ToFile</text>
</a>
</g>
</g>
<!-- Node2&#45;&gt;Node3 -->
<g id="edge2" class="edge"><title>Node2&#45;&gt;Node3</title>
<path fill="none" stroke="midnightblue" d="M325.23,-140.004C340.826,-143.805 357.193,-147.795 372.358,-151.492"/>
<polygon fill="midnightblue" stroke="midnightblue" points="325.657,-136.505 315.113,-137.537 324,-143.306 325.657,-136.505"/>
</g>
<!-- Node7 -->
<g id="node7" class="node"><title>Node7</title>
<g id="a_node7"><a xlink:href="classMainWindow.html#a6f33e93f427ff2df80edffcb3ad944da" target="_top" xlink:title="MainWindow::updateSelected\lItems">
<polygon fill="white" stroke="black" points="362,-63.5182 362,-93.5182 508,-93.5182 508,-63.5182 362,-63.5182"/>
<text text-anchor="start" x="370" y="-81.5182" font-family="Helvetica,sans-Serif" font-size="10.00">MainWindow::updateSelected</text>
<text text-anchor="middle" x="435" y="-70.5182" font-family="Helvetica,sans-Serif" font-size="10.00">Items</text>
</a>
</g>
</g>
<!-- Node2&#45;&gt;Node7 -->
<g id="edge6" class="edge"><title>Node2&#45;&gt;Node7</title>
<path fill="none" stroke="midnightblue" d="M325.23,-105.033C340.826,-101.231 357.193,-97.2412 372.358,-93.5444"/>
<polygon fill="midnightblue" stroke="midnightblue" points="324,-101.73 315.113,-107.499 325.657,-108.531 324,-101.73"/>
</g>
<!-- Node4 -->
<g id="node4" class="node"><title>Node4</title>
<g id="a_node4"><a xlink:href="classMainWindow.html#a9df7443ce5f907903438bb6a9abe9a33" target="_top" xlink:title="MainWindow::createMenusAnd\lActions">
<polygon fill="white" stroke="black" points="737,-151.518 737,-181.518 889,-181.518 889,-151.518 737,-151.518"/>
<text text-anchor="start" x="745" y="-169.518" font-family="Helvetica,sans-Serif" font-size="10.00">MainWindow::createMenusAnd</text>
<text text-anchor="middle" x="813" y="-158.518" font-family="Helvetica,sans-Serif" font-size="10.00">Actions</text>
</a>
</g>
</g>
<!-- Node3&#45;&gt;Node4 -->
<g id="edge3" class="edge"><title>Node3&#45;&gt;Node4</title>
<path fill="none" stroke="midnightblue" d="M511.15,-181.466C522.128,-183.146 533.327,-184.587 544,-185.518 606.872,-191.006 623.066,-190.237 686,-185.518 702.545,-184.278 720.211,-182.133 736.92,-179.721"/>
<polygon fill="midnightblue" stroke="midnightblue" points="511.579,-177.991 501.151,-179.864 510.471,-184.902 511.579,-177.991"/>
</g>
<!-- Node6 -->
<g id="node6" class="node"><title>Node6</title>
<g id="a_node6"><a xlink:href="classMainWindow.html#a4e20a4a065fbb0e4d3532a45a0a91425" target="_top" xlink:title="MainWindow::closeEvent">
<polygon fill="white" stroke="black" points="551,-157.018 551,-176.018 679,-176.018 679,-157.018 551,-157.018"/>
<text text-anchor="middle" x="615" y="-164.018" font-family="Helvetica,sans-Serif" font-size="10.00">MainWindow::closeEvent</text>
</a>
</g>
</g>
<!-- Node3&#45;&gt;Node6 -->
<g id="edge5" class="edge"><title>Node3&#45;&gt;Node6</title>
<path fill="none" stroke="midnightblue" d="M511.066,-166.518C524.34,-166.518 538.039,-166.518 550.94,-166.518"/>
<polygon fill="midnightblue" stroke="midnightblue" points="511.018,-163.018 501.018,-166.518 511.018,-170.018 511.018,-163.018"/>
</g>
<!-- Node5 -->
<g id="node5" class="node"><title>Node5</title>
<g id="a_node5"><a xlink:href="classMainWindow.html#a8b244be8b7b7db1b08de2a2acb9409db" target="_top" xlink:title="MainWindow::MainWindow">
<polygon fill="white" stroke="black" points="940,-69.0182 940,-88.0182 1075,-88.0182 1075,-69.0182 940,-69.0182"/>
<text text-anchor="middle" x="1007.5" y="-76.0182" font-family="Helvetica,sans-Serif" font-size="10.00">MainWindow::MainWindow</text>
</a>
</g>
</g>
<!-- Node4&#45;&gt;Node5 -->
<g id="edge4" class="edge"><title>Node4&#45;&gt;Node5</title>
<path fill="none" stroke="midnightblue" d="M887.058,-148.117C892.861,-146.084 898.572,-143.884 904,-141.518 938.275,-126.579 974.731,-101.73 993.562,-88.1337"/>
<polygon fill="midnightblue" stroke="midnightblue" points="885.626,-144.904 877.241,-151.38 887.834,-151.547 885.626,-144.904"/>
</g>
<!-- Node7&#45;&gt;Node5 -->
<g id="edge7" class="edge"><title>Node7&#45;&gt;Node5</title>
<path fill="none" stroke="midnightblue" d="M482.515,-59.9856C567.646,-28.7488 753.594,27.0087 904,-15.5182 940.983,-25.9752 977.755,-53.9462 995.513,-68.8527"/>
<polygon fill="midnightblue" stroke="midnightblue" points="481.279,-56.711 473.129,-63.4809 483.722,-63.2709 481.279,-56.711"/>
</g>
<!-- Node8 -->
<g id="node8" class="node"><title>Node8</title>
<g id="a_node8"><a xlink:href="classMainWindow.html#a6be7246a1a0ecf5d1442bb1775c3d9b3" target="_top" xlink:title="MainWindow::addDifference\lSequence">
<polygon fill="white" stroke="black" points="545,-107.518 545,-137.518 685,-137.518 685,-107.518 545,-107.518"/>
<text text-anchor="start" x="553" y="-125.518" font-family="Helvetica,sans-Serif" font-size="10.00">MainWindow::addDifference</text>
<text text-anchor="middle" x="615" y="-114.518" font-family="Helvetica,sans-Serif" font-size="10.00">Sequence</text>
</a>
</g>
</g>
<!-- Node7&#45;&gt;Node8 -->
<g id="edge8" class="edge"><title>Node7&#45;&gt;Node8</title>
<path fill="none" stroke="midnightblue" d="M506.737,-96.0037C522.117,-99.8055 538.257,-103.795 553.212,-107.492"/>
<polygon fill="midnightblue" stroke="midnightblue" points="507.307,-92.5395 496.76,-93.5374 505.628,-99.3349 507.307,-92.5395"/>
</g>
<!-- Node10 -->
<g id="node10" class="node"><title>Node10</title>
<g id="a_node10"><a xlink:href="classMainWindow.html#af5ecc7c65080215b49b9d931c56c65c9" target="_top" xlink:title="MainWindow::editTextFrame">
<polygon fill="white" stroke="black" points="544,-69.0182 544,-88.0182 686,-88.0182 686,-69.0182 544,-69.0182"/>
<text text-anchor="middle" x="615" y="-76.0182" font-family="Helvetica,sans-Serif" font-size="10.00">MainWindow::editTextFrame</text>
</a>
</g>
</g>
<!-- Node7&#45;&gt;Node10 -->
<g id="edge12" class="edge"><title>Node7&#45;&gt;Node10</title>
<path fill="none" stroke="midnightblue" d="M518.42,-78.5182C526.894,-78.5182 535.449,-78.5182 543.774,-78.5182"/>
<polygon fill="midnightblue" stroke="midnightblue" points="518.143,-75.0183 508.143,-78.5182 518.143,-82.0183 518.143,-75.0183"/>
</g>
<!-- Node12 -->
<g id="node12" class="node"><title>Node12</title>
<g id="a_node12"><a xlink:href="classMainWindow.html#a156c29c6d7ab278e4246c88a0fcbe2f2" target="_top" xlink:title="MainWindow::updateSettings">
<polygon fill="white" stroke="black" points="741,-25.0182 741,-44.0182 885,-44.0182 885,-25.0182 741,-25.0182"/>
<text text-anchor="middle" x="813" y="-32.0182" font-family="Helvetica,sans-Serif" font-size="10.00">MainWindow::updateSettings</text>
</a>
</g>
</g>
<!-- Node7&#45;&gt;Node12 -->
<g id="edge16" class="edge"><title>Node7&#45;&gt;Node12</title>
<path fill="none" stroke="midnightblue" d="M518.326,-63.3234C526.979,-61.9392 535.66,-60.639 544,-59.5182 610.46,-50.5874 686.621,-43.8135 740.725,-39.5846"/>
<polygon fill="midnightblue" stroke="midnightblue" points="517.504,-59.9113 508.201,-64.9813 518.635,-66.8193 517.504,-59.9113"/>
</g>
<!-- Node8&#45;&gt;Node4 -->
<g id="edge9" class="edge"><title>Node8&#45;&gt;Node4</title>
<path fill="none" stroke="midnightblue" d="M692.923,-139.787C710.148,-143.653 728.284,-147.725 745.065,-151.492"/>
<polygon fill="midnightblue" stroke="midnightblue" points="693.428,-136.313 682.904,-137.537 691.894,-143.143 693.428,-136.313"/>
</g>
<!-- Node9 -->
<g id="node9" class="node"><title>Node9</title>
<g id="a_node9"><a xlink:href="classMainWindow.html#aaba5c236313378986c42c4a634c4cfb9" target="_top" xlink:title="MainWindow::onCustomContextMenu">
<polygon fill="white" stroke="black" points="722,-113.018 722,-132.018 904,-132.018 904,-113.018 722,-113.018"/>
<text text-anchor="middle" x="813" y="-120.018" font-family="Helvetica,sans-Serif" font-size="10.00">MainWindow::onCustomContextMenu</text>
</a>
</g>
</g>
<!-- Node8&#45;&gt;Node9 -->
<g id="edge10" class="edge"><title>Node8&#45;&gt;Node9</title>
<path fill="none" stroke="midnightblue" d="M695.276,-122.518C704.039,-122.518 713.009,-122.518 721.892,-122.518"/>
<polygon fill="midnightblue" stroke="midnightblue" points="695.102,-119.018 685.102,-122.518 695.102,-126.018 695.102,-119.018"/>
</g>
<!-- Node9&#45;&gt;Node5 -->
<g id="edge11" class="edge"><title>Node9&#45;&gt;Node5</title>
<path fill="none" stroke="midnightblue" d="M867.428,-110.75C879.463,-108.07 892.174,-105.217 904,-102.518 924.491,-97.8426 947.257,-92.5246 966.118,-88.0848"/>
<polygon fill="midnightblue" stroke="midnightblue" points="866.513,-107.368 857.51,-112.954 868.032,-114.201 866.513,-107.368"/>
</g>
<!-- Node10&#45;&gt;Node9 -->
<g id="edge13" class="edge"><title>Node10&#45;&gt;Node9</title>
<path fill="none" stroke="midnightblue" d="M667.902,-90.3131C685.115,-94.2132 704.378,-98.5652 722,-102.518 737.306,-105.952 754.082,-109.687 768.96,-112.99"/>
<polygon fill="midnightblue" stroke="midnightblue" points="668.559,-86.8732 658.032,-88.0755 667.011,-93.6999 668.559,-86.8732"/>
</g>
<!-- Node11 -->
<g id="node11" class="node"><title>Node11</title>
<g id="a_node11"><a xlink:href="classMainWindow.html#ab18c663524e2c130759c0ca960129ea4" target="_top" xlink:title="MainWindow::onItemDouble\lClicked">
<polygon fill="white" stroke="black" points="743,-63.5182 743,-93.5182 883,-93.5182 883,-63.5182 743,-63.5182"/>
<text text-anchor="start" x="751" y="-81.5182" font-family="Helvetica,sans-Serif" font-size="10.00">MainWindow::onItemDouble</text>
<text text-anchor="middle" x="813" y="-70.5182" font-family="Helvetica,sans-Serif" font-size="10.00">Clicked</text>
</a>
</g>
</g>
<!-- Node10&#45;&gt;Node11 -->
<g id="edge14" class="edge"><title>Node10&#45;&gt;Node11</title>
<path fill="none" stroke="midnightblue" d="M696.276,-78.5182C711.759,-78.5182 727.853,-78.5182 742.941,-78.5182"/>
<polygon fill="midnightblue" stroke="midnightblue" points="696.207,-75.0183 686.207,-78.5182 696.207,-82.0183 696.207,-75.0183"/>
</g>
<!-- Node11&#45;&gt;Node5 -->
<g id="edge15" class="edge"><title>Node11&#45;&gt;Node5</title>
<path fill="none" stroke="midnightblue" d="M893.283,-78.5182C908.747,-78.5182 924.815,-78.5182 939.82,-78.5182"/>
<polygon fill="midnightblue" stroke="midnightblue" points="893.225,-75.0183 883.225,-78.5182 893.225,-82.0183 893.225,-75.0183"/>
</g>
<!-- Node12&#45;&gt;Node5 -->
<g id="edge17" class="edge"><title>Node12&#45;&gt;Node5</title>
<path fill="none" stroke="midnightblue" d="M870.756,-46.219C881.796,-48.5745 893.27,-51.0777 904,-53.5182 925.433,-58.393 949.294,-64.1909 968.598,-68.9753"/>
<polygon fill="midnightblue" stroke="midnightblue" points="871.281,-42.7526 860.772,-44.1035 869.829,-49.6006 871.281,-42.7526"/>
</g>
</g>
</svg>
        <g id="navigator" transform="translate(0 0)" fill="#404254">
                <rect fill="#f2f5e9" fill-opacity="0.5" stroke="#606060" stroke-width=".5" x="0" y="0" width="60" height="60"/>
                <use id="zoomplus" xlink:href="#zoomPlus" x="17" y="9" onmousedown="handleZoom(evt,'in')"/>
                <use id="zoomminus" xlink:href="#zoomMin" x="42" y="9" onmousedown="handleZoom(evt,'out')"/>
                <use id="reset" xlink:href="#resetDef" x="30" y="36" onmousedown="handleReset()"/>
                <g id="arrowUp" xlink:href="#dirArrow" transform="translate(30 24)" onmousedown="handlePan(0,-1)">
                  <use xlink:href="#rim" fill="#404040">
                        <set attributeName="fill" to="#808080" begin="arrowUp.mouseover" end="arrowUp.mouseout"/>
                  </use>
                  <path fill="none" stroke="white" stroke-width="1.5" d="M0,-3.0v7 M-2.5,-0.5L0,-3.0L2.5,-0.5"/>
                </g>
                <g id="arrowRight" xlink:href="#dirArrow" transform="rotate(90) translate(36 -43)" onmousedown="handlePan(1,0)">
                  <use xlink:href="#rim" fill="#404040">
                        <set attributeName="fill" to="#808080" begin="arrowRight.mouseover" end="arrowRight.mouseout"/>
                  </use>
                  <path fill="none" stroke="white" stroke-width="1.5" d="M0,-3.0v7 M-2.5,-0.5L0,-3.0L2.5,-0.5"/>
                </g>
                <g id="arrowDown" xlink:href="#dirArrow" transform="rotate(180) translate(-30 -48)" onmousedown="handlePan(0,1)">
                  <use xlink:href="#rim" fill="#404040">
                        <set attributeName="fill" to="#808080" begin="arrowDown.mouseover" end="arrowDown.mouseout"/>
                  </use>
                  <path fill="none" stroke="white" stroke-width="1.5" d="M0,-3.0v7 M-2.5,-0.5L0,-3.0L2.5,-0.5"/>
                </g>
                <g id="arrowLeft" xlink:href="#dirArrow" transform="rotate(270) translate(-36 17)" onmousedown="handlePan(-1,0)">
                  <use xlink:href="#rim" fill="#404040">
                        <set attributeName="fill" to="#808080" begin="arrowLeft.mouseover" end="arrowLeft.mouseout"/>
                  </use>
                  <path fill="none" stroke="white" stroke-width="1.5" d="M0,-3.0v7 M-2.5,-0.5L0,-3.0L2.5,-0.5"/>
                </g>
        </g>
        <svg viewBox="0 0 15 15" width="100%" height="30px" preserveAspectRatio="xMaxYMin meet">
         <g id="arrow_out" transform="scale(0.3 0.3)">
          <a xlink:href="classstatisticSource_a74f687960651340a1bce1f8b2653a335_icgraph_org.svg" target="_base">
           <rect id="button" ry="5" rx="5" y="6" x="6" height="38" width="38"
                fill="#f2f5e9" fill-opacity="0.5" stroke="#606060" stroke-width="1.0"/>
           <path id="arrow"
             d="M 11.500037,31.436501 C 11.940474,20.09759 22.043105,11.32322 32.158766,21.979434 L 37.068811,17.246167 C 37.068811,17.246167 37.088388,32 37.088388,32 L 22.160133,31.978069 C 22.160133,31.978069 26.997745,27.140456 26.997745,27.140456 C 18.528582,18.264221 13.291696,25.230495 11.500037,31.436501 z"
             style="fill:#404040;"/>
          </a>
         </g>
        </svg>
</svg>
