<?xml version="1.0" encoding="UTF-8" standalone="no"?>
<!DOCTYPE svg PUBLIC "-//W3C//DTD SVG 1.1//EN"
 "http://www.w3.org/Graphics/SVG/1.1/DTD/svg11.dtd">
<!-- Generated by graphviz version 2.38.0 (20140413.2041)
 -->
<!-- Title: TextObject::font Pages: 1 -->
<svg width="1192pt" height="421pt"
 viewBox="0.00 0.00 1192.00 420.55" xmlns="http://www.w3.org/2000/svg" xmlns:xlink="http://www.w3.org/1999/xlink">
<g id="graph0" class="graph" transform="scale(1 1) rotate(0) translate(4 416.55)">
<title>TextObject::font</title>
<polygon fill="white" stroke="none" points="-4,4 -4,-416.55 1188,-416.55 1188,4 -4,4"/>
<!-- Node1 -->
<g id="node1" class="node"><title>Node1</title>
<polygon fill="#bfbfbf" stroke="black" points="0,-272.55 0,-291.55 87,-291.55 87,-272.55 0,-272.55"/>
<text text-anchor="middle" x="43.5" y="-279.55" font-family="Helvetica,sans-Serif" font-size="10.00">TextObject::font</text>
</g>
<!-- Node2 -->
<g id="node2" class="node"><title>Node2</title>
<g id="a_node2"><a xlink:href="classEditTextDialog.html#aa296e5b756a1005e13e0f50b7d375a16" target="_top" xlink:title="EditTextDialog::loadItem\lStettings">
<polygon fill="white" stroke="black" points="126.5,-338.05 126.5,-368.05 251.5,-368.05 251.5,-338.05 126.5,-338.05"/>
<text text-anchor="start" x="134.5" y="-356.05" font-family="Helvetica,sans-Serif" font-size="10.00">EditTextDialog::loadItem</text>
<text text-anchor="middle" x="189" y="-345.05" font-family="Helvetica,sans-Serif" font-size="10.00">Stettings</text>
</a>
</g>
</g>
<!-- Node1&#45;&gt;Node2 -->
<g id="edge1" class="edge"><title>Node1&#45;&gt;Node2</title>
<path fill="none" stroke="midnightblue" d="M67.9441,-297.145C83.2658,-306.668 103.906,-318.859 123,-328.05 130.299,-331.563 138.23,-334.95 145.962,-338.036"/>
<polygon fill="midnightblue" stroke="midnightblue" points="69.4804,-293.977 59.1529,-291.612 65.7515,-299.901 69.4804,-293.977"/>
</g>
<!-- Node7 -->
<g id="node7" class="node"><title>Node7</title>
<g id="a_node7"><a xlink:href="classFrameObjectDialog.html#a1bcbe6cf2b2c5abd047b454ee97e782d" target="_top" xlink:title="FrameObjectDialog::\lloadItemStettings">
<polygon fill="white" stroke="black" points="135.5,-289.05 135.5,-319.05 242.5,-319.05 242.5,-289.05 135.5,-289.05"/>
<text text-anchor="start" x="143.5" y="-307.05" font-family="Helvetica,sans-Serif" font-size="10.00">FrameObjectDialog::</text>
<text text-anchor="middle" x="189" y="-296.05" font-family="Helvetica,sans-Serif" font-size="10.00">loadItemStettings</text>
</a>
</g>
</g>
<!-- Node1&#45;&gt;Node7 -->
<g id="edge7" class="edge"><title>Node1&#45;&gt;Node7</title>
<path fill="none" stroke="midnightblue" d="M97.35,-290.152C109.743,-292.052 122.946,-294.076 135.331,-295.975"/>
<polygon fill="midnightblue" stroke="midnightblue" points="97.5811,-286.647 87.1662,-288.591 96.5203,-293.566 97.5811,-286.647"/>
</g>
<!-- Node8 -->
<g id="node8" class="node"><title>Node8</title>
<g id="a_node8"><a xlink:href="classMainWindow.html#a88624964fbb9d67df9149b29fab6f225" target="_top" xlink:title="MainWindow::savePlaylist\lToFile">
<polygon fill="white" stroke="black" points="123,-125.05 123,-155.05 255,-155.05 255,-125.05 123,-125.05"/>
<text text-anchor="start" x="131" y="-143.05" font-family="Helvetica,sans-Serif" font-size="10.00">MainWindow::savePlaylist</text>
<text text-anchor="middle" x="189" y="-132.05" font-family="Helvetica,sans-Serif" font-size="10.00">ToFile</text>
</a>
</g>
</g>
<!-- Node1&#45;&gt;Node8 -->
<g id="edge8" class="edge"><title>Node1&#45;&gt;Node8</title>
<path fill="none" stroke="midnightblue" d="M61.5259,-265.202C89.6907,-237.331 145.552,-182.054 172.605,-155.284"/>
<polygon fill="midnightblue" stroke="midnightblue" points="59.0096,-262.768 54.3633,-272.289 63.9333,-267.743 59.0096,-262.768"/>
</g>
<!-- Node11 -->
<g id="node11" class="node"><title>Node11</title>
<g id="a_node11"><a xlink:href="classTextObject.html#adaa0f36f9e82dc8298d0835101569eb4" target="_top" xlink:title="TextObject::setFont">
<polygon fill="white" stroke="black" points="137,-250.55 137,-269.55 241,-269.55 241,-250.55 137,-250.55"/>
<text text-anchor="middle" x="189" y="-257.55" font-family="Helvetica,sans-Serif" font-size="10.00">TextObject::setFont</text>
</a>
</g>
</g>
<!-- Node1&#45;&gt;Node11 -->
<g id="edge12" class="edge"><title>Node1&#45;&gt;Node11</title>
<path fill="none" stroke="midnightblue" d="M97.3073,-273.954C110.233,-271.972 124.041,-269.855 136.886,-267.886"/>
<polygon fill="midnightblue" stroke="midnightblue" points="96.5203,-270.533 87.1662,-275.508 97.5811,-277.453 96.5203,-270.533"/>
</g>
<!-- Node3 -->
<g id="node3" class="node"><title>Node3</title>
<g id="a_node3"><a xlink:href="classMainWindow.html#af5ecc7c65080215b49b9d931c56c65c9" target="_top" xlink:title="MainWindow::editTextFrame">
<polygon fill="white" stroke="black" points="292.5,-343.55 292.5,-362.55 434.5,-362.55 434.5,-343.55 292.5,-343.55"/>
<text text-anchor="middle" x="363.5" y="-350.55" font-family="Helvetica,sans-Serif" font-size="10.00">MainWindow::editTextFrame</text>
</a>
</g>
</g>
<!-- Node2&#45;&gt;Node3 -->
<g id="edge2" class="edge"><title>Node2&#45;&gt;Node3</title>
<path fill="none" stroke="midnightblue" d="M262.1,-353.05C272.106,-353.05 282.375,-353.05 292.345,-353.05"/>
<polygon fill="midnightblue" stroke="midnightblue" points="261.789,-349.55 251.789,-353.05 261.789,-356.55 261.789,-349.55"/>
</g>
<!-- Node4 -->
<g id="node4" class="node"><title>Node4</title>
<g id="a_node4"><a xlink:href="classMainWindow.html#aaba5c236313378986c42c4a634c4cfb9" target="_top" xlink:title="MainWindow::onCustomContextMenu">
<polygon fill="white" stroke="black" points="831,-308.55 831,-327.55 1013,-327.55 1013,-308.55 831,-308.55"/>
<text text-anchor="middle" x="922" y="-315.55" font-family="Helvetica,sans-Serif" font-size="10.00">MainWindow::onCustomContextMenu</text>
</a>
</g>
</g>
<!-- Node3&#45;&gt;Node4 -->
<g id="edge3" class="edge"><title>Node3&#45;&gt;Node4</title>
<path fill="none" stroke="midnightblue" d="M444.723,-351.479C531.281,-349.324 673.107,-344.461 795,-334.05 814.224,-332.408 835.027,-330.019 854.083,-327.586"/>
<polygon fill="midnightblue" stroke="midnightblue" points="444.618,-347.98 434.706,-351.722 444.788,-354.978 444.618,-347.98"/>
</g>
<!-- Node6 -->
<g id="node6" class="node"><title>Node6</title>
<g id="a_node6"><a xlink:href="classMainWindow.html#ab18c663524e2c130759c0ca960129ea4" target="_top" xlink:title="MainWindow::onItemDouble\lClicked">
<polygon fill="white" stroke="black" points="472,-382.05 472,-412.05 612,-412.05 612,-382.05 472,-382.05"/>
<text text-anchor="start" x="480" y="-400.05" font-family="Helvetica,sans-Serif" font-size="10.00">MainWindow::onItemDouble</text>
<text text-anchor="middle" x="542" y="-389.05" font-family="Helvetica,sans-Serif" font-size="10.00">Clicked</text>
</a>
</g>
</g>
<!-- Node3&#45;&gt;Node6 -->
<g id="edge5" class="edge"><title>Node3&#45;&gt;Node6</title>
<path fill="none" stroke="midnightblue" d="M412.741,-365.076C433.677,-370.295 458.424,-376.464 480.567,-381.984"/>
<polygon fill="midnightblue" stroke="midnightblue" points="413.348,-361.62 402.798,-362.597 411.654,-368.412 413.348,-361.62"/>
</g>
<!-- Node5 -->
<g id="node5" class="node"><title>Node5</title>
<g id="a_node5"><a xlink:href="classMainWindow.html#a8b244be8b7b7db1b08de2a2acb9409db" target="_top" xlink:title="MainWindow::MainWindow">
<polygon fill="white" stroke="black" points="1049,-308.55 1049,-327.55 1184,-327.55 1184,-308.55 1049,-308.55"/>
<text text-anchor="middle" x="1116.5" y="-315.55" font-family="Helvetica,sans-Serif" font-size="10.00">MainWindow::MainWindow</text>
</a>
</g>
</g>
<!-- Node4&#45;&gt;Node5 -->
<g id="edge4" class="edge"><title>Node4&#45;&gt;Node5</title>
<path fill="none" stroke="midnightblue" d="M1023.22,-318.05C1031.88,-318.05 1040.5,-318.05 1048.79,-318.05"/>
<polygon fill="midnightblue" stroke="midnightblue" points="1023.05,-314.55 1013.05,-318.05 1023.05,-321.55 1023.05,-314.55"/>
</g>
<!-- Node6&#45;&gt;Node5 -->
<g id="edge6" class="edge"><title>Node6&#45;&gt;Node5</title>
<path fill="none" stroke="midnightblue" d="M622.016,-388.339C715.566,-377.708 875.971,-358.479 1013,-337.05 1030.79,-334.267 1050.24,-330.777 1067.36,-327.551"/>
<polygon fill="midnightblue" stroke="midnightblue" points="621.604,-384.863 612.061,-389.466 622.392,-391.818 621.604,-384.863"/>
</g>
<!-- Node9 -->
<g id="node9" class="node"><title>Node9</title>
<g id="a_node9"><a xlink:href="classMainWindow.html#a9df7443ce5f907903438bb6a9abe9a33" target="_top" xlink:title="MainWindow::createMenusAnd\lActions">
<polygon fill="white" stroke="black" points="846,-259.05 846,-289.05 998,-289.05 998,-259.05 846,-259.05"/>
<text text-anchor="start" x="854" y="-277.05" font-family="Helvetica,sans-Serif" font-size="10.00">MainWindow::createMenusAnd</text>
<text text-anchor="middle" x="922" y="-266.05" font-family="Helvetica,sans-Serif" font-size="10.00">Actions</text>
</a>
</g>
</g>
<!-- Node8&#45;&gt;Node9 -->
<g id="edge9" class="edge"><title>Node8&#45;&gt;Node9</title>
<path fill="none" stroke="midnightblue" d="M224.341,-120.081C321.517,-66.4484 603.76,69.2405 795,-44.0496 877.066,-92.6653 909.197,-215.745 918.162,-258.853"/>
<polygon fill="midnightblue" stroke="midnightblue" points="222.549,-117.073 215.524,-125.004 225.962,-123.185 222.549,-117.073"/>
</g>
<!-- Node10 -->
<g id="node10" class="node"><title>Node10</title>
<g id="a_node10"><a xlink:href="classMainWindow.html#a4e20a4a065fbb0e4d3532a45a0a91425" target="_top" xlink:title="MainWindow::closeEvent">
<polygon fill="white" stroke="black" points="299.5,-130.55 299.5,-149.55 427.5,-149.55 427.5,-130.55 299.5,-130.55"/>
<text text-anchor="middle" x="363.5" y="-137.55" font-family="Helvetica,sans-Serif" font-size="10.00">MainWindow::closeEvent</text>
</a>
</g>
</g>
<!-- Node8&#45;&gt;Node10 -->
<g id="edge11" class="edge"><title>Node8&#45;&gt;Node10</title>
<path fill="none" stroke="midnightblue" d="M265.528,-140.05C276.859,-140.05 288.442,-140.05 299.476,-140.05"/>
<polygon fill="midnightblue" stroke="midnightblue" points="265.215,-136.55 255.215,-140.05 265.215,-143.55 265.215,-136.55"/>
</g>
<!-- Node9&#45;&gt;Node5 -->
<g id="edge10" class="edge"><title>Node9&#45;&gt;Node5</title>
<path fill="none" stroke="midnightblue" d="M998.77,-291.368C1024.35,-297.214 1051.95,-303.523 1073.88,-308.537"/>
<polygon fill="midnightblue" stroke="midnightblue" points="999.238,-287.885 988.709,-289.069 997.678,-294.709 999.238,-287.885"/>
</g>
<!-- Node11&#45;&gt;Node3 -->
<g id="edge27" class="edge"><title>Node11&#45;&gt;Node3</title>
<path fill="none" stroke="midnightblue" d="M244.5,-273.339C248.165,-275.027 251.705,-276.922 255,-279.05 275.655,-292.384 271.302,-306.338 291,-321.05 303.748,-330.571 319.779,-338.073 333.428,-343.413"/>
<polygon fill="midnightblue" stroke="midnightblue" points="245.781,-270.082 235.199,-269.556 243.144,-276.566 245.781,-270.082"/>
</g>
<!-- Node12 -->
<g id="node12" class="node"><title>Node12</title>
<g id="a_node12"><a xlink:href="classMainWindow.html#a2d8cea1d443550a8f14ce8c80d2608c6" target="_top" xlink:title="MainWindow::loadPlaylistFile">
<polygon fill="white" stroke="black" points="291,-215.55 291,-234.55 436,-234.55 436,-215.55 291,-215.55"/>
<text text-anchor="middle" x="363.5" y="-222.55" font-family="Helvetica,sans-Serif" font-size="10.00">MainWindow::loadPlaylistFile</text>
</a>
</g>
</g>
<!-- Node11&#45;&gt;Node12 -->
<g id="edge13" class="edge"><title>Node11&#45;&gt;Node12</title>
<path fill="none" stroke="midnightblue" d="M247.089,-248.466C269.249,-243.97 294.32,-238.883 315.421,-234.602"/>
<polygon fill="midnightblue" stroke="midnightblue" points="246.241,-245.067 237.136,-250.486 247.633,-251.927 246.241,-245.067"/>
</g>
<!-- Node20 -->
<g id="node20" class="node"><title>Node20</title>
<g id="a_node20"><a xlink:href="classMainWindow.html#ab547038b4acd1eab08a2693d47d8a8c4" target="_top" xlink:title="Adds a new text frame. ">
<polygon fill="white" stroke="black" points="650.5,-305.55 650.5,-324.55 792.5,-324.55 792.5,-305.55 650.5,-305.55"/>
<text text-anchor="middle" x="721.5" y="-312.55" font-family="Helvetica,sans-Serif" font-size="10.00">MainWindow::addTextFrame</text>
</a>
</g>
</g>
<!-- Node11&#45;&gt;Node20 -->
<g id="edge24" class="edge"><title>Node11&#45;&gt;Node20</title>
<path fill="none" stroke="midnightblue" d="M251.523,-266.428C350.826,-276.723 545.846,-296.942 650.381,-307.78"/>
<polygon fill="midnightblue" stroke="midnightblue" points="251.656,-262.923 241.349,-265.373 250.934,-269.886 251.656,-262.923"/>
</g>
<!-- Node13 -->
<g id="node13" class="node"><title>Node13</title>
<g id="a_node13"><a xlink:href="classMainWindow.html#a8ef1be3cb02e12d68d12375d1a7a0ced" target="_top" xlink:title="loads a list of yuv/csv files ">
<polygon fill="white" stroke="black" points="483,-179.55 483,-198.55 601,-198.55 601,-179.55 483,-179.55"/>
<text text-anchor="middle" x="542" y="-186.55" font-family="Helvetica,sans-Serif" font-size="10.00">MainWindow::loadFiles</text>
</a>
</g>
</g>
<!-- Node12&#45;&gt;Node13 -->
<g id="edge14" class="edge"><title>Node12&#45;&gt;Node13</title>
<path fill="none" stroke="midnightblue" d="M421.207,-213.483C444.791,-208.673 471.835,-203.157 494.252,-198.585"/>
<polygon fill="midnightblue" stroke="midnightblue" points="420.434,-210.069 411.335,-215.497 421.833,-216.928 420.434,-210.069"/>
</g>
<!-- Node14 -->
<g id="node14" class="node"><title>Node14</title>
<g id="a_node14"><a xlink:href="classDisplaySplitWidget.html#ac1d4ced58b2ac2b08153694a5de6232e" target="_top" xlink:title="DisplaySplitWidget\l::dropEvent">
<polygon fill="white" stroke="black" points="671.5,-54.0496 671.5,-84.0496 771.5,-84.0496 771.5,-54.0496 671.5,-54.0496"/>
<text text-anchor="start" x="679.5" y="-72.0496" font-family="Helvetica,sans-Serif" font-size="10.00">DisplaySplitWidget</text>
<text text-anchor="middle" x="721.5" y="-61.0496" font-family="Helvetica,sans-Serif" font-size="10.00">::dropEvent</text>
</a>
</g>
</g>
<!-- Node13&#45;&gt;Node14 -->
<g id="edge15" class="edge"><title>Node13&#45;&gt;Node14</title>
<path fill="none" stroke="midnightblue" d="M557.982,-171.756C577.011,-150.749 611.754,-115.47 648,-94.0496 655.221,-89.7821 663.279,-86.101 671.324,-82.9761"/>
<polygon fill="midnightblue" stroke="midnightblue" points="555.301,-169.504 551.268,-179.302 560.531,-174.157 555.301,-169.504"/>
</g>
<!-- Node15 -->
<g id="node15" class="node"><title>Node15</title>
<g id="a_node15"><a xlink:href="classMainWindow.html#a288b768c3c21a9171bdc56fe845ece8b" target="_top" xlink:title="Shows the file open dialog and loads all selected Files. ">
<polygon fill="white" stroke="black" points="663.5,-267.55 663.5,-286.55 779.5,-286.55 779.5,-267.55 663.5,-267.55"/>
<text text-anchor="middle" x="721.5" y="-274.55" font-family="Helvetica,sans-Serif" font-size="10.00">MainWindow::openFile</text>
</a>
</g>
</g>
<!-- Node13&#45;&gt;Node15 -->
<g id="edge16" class="edge"><title>Node13&#45;&gt;Node15</title>
<path fill="none" stroke="midnightblue" d="M563.41,-204.981C583.813,-220.234 616.588,-242.949 648,-257.05 657.291,-261.22 667.651,-264.706 677.566,-267.537"/>
<polygon fill="midnightblue" stroke="midnightblue" points="565.289,-202.014 555.209,-198.753 561.055,-207.589 565.289,-202.014"/>
</g>
<!-- Node16 -->
<g id="node16" class="node"><title>Node16</title>
<g id="a_node16"><a xlink:href="classMainWindow.html#a935316315edb9b7af42657da20be0e54" target="_top" xlink:title="MainWindow::openRecentFile">
<polygon fill="white" stroke="black" points="648,-179.55 648,-198.55 795,-198.55 795,-179.55 648,-179.55"/>
<text text-anchor="middle" x="721.5" y="-186.55" font-family="Helvetica,sans-Serif" font-size="10.00">MainWindow::openRecentFile</text>
</a>
</g>
</g>
<!-- Node13&#45;&gt;Node16 -->
<g id="edge19" class="edge"><title>Node13&#45;&gt;Node16</title>
<path fill="none" stroke="midnightblue" d="M611.471,-189.05C623.429,-189.05 635.905,-189.05 647.968,-189.05"/>
<polygon fill="midnightblue" stroke="midnightblue" points="611.12,-185.55 601.12,-189.05 611.12,-192.55 611.12,-185.55"/>
</g>
<!-- Node17 -->
<g id="node17" class="node"><title>Node17</title>
<g id="a_node17"><a xlink:href="classPlaylistTreeWidget.html#a295170eb269cc67050ea0b575cd0ab53" target="_top" xlink:title="PlaylistTreeWidget\l::dropEvent">
<polygon fill="white" stroke="black" points="672,-218.05 672,-248.05 771,-248.05 771,-218.05 672,-218.05"/>
<text text-anchor="start" x="680" y="-236.05" font-family="Helvetica,sans-Serif" font-size="10.00">PlaylistTreeWidget</text>
<text text-anchor="middle" x="721.5" y="-225.05" font-family="Helvetica,sans-Serif" font-size="10.00">::dropEvent</text>
</a>
</g>
</g>
<!-- Node13&#45;&gt;Node17 -->
<g id="edge21" class="edge"><title>Node13&#45;&gt;Node17</title>
<path fill="none" stroke="midnightblue" d="M591.509,-201.074C616.502,-207.27 646.896,-214.804 671.902,-221.003"/>
<polygon fill="midnightblue" stroke="midnightblue" points="592.063,-197.606 581.515,-198.597 590.379,-204.4 592.063,-197.606"/>
</g>
<!-- Node18 -->
<g id="node18" class="node"><title>Node18</title>
<g id="a_node18"><a xlink:href="classYUViewApp.html#ac0f5381cc5b703a9ea704b5eedab4b7f" target="_top" xlink:title="YUViewApp::YUViewApp">
<polygon fill="white" stroke="black" points="657,-141.55 657,-160.55 786,-160.55 786,-141.55 657,-141.55"/>
<text text-anchor="middle" x="721.5" y="-148.55" font-family="Helvetica,sans-Serif" font-size="10.00">YUViewApp::YUViewApp</text>
</a>
</g>
</g>
<!-- Node13&#45;&gt;Node18 -->
<g id="edge22" class="edge"><title>Node13&#45;&gt;Node18</title>
<path fill="none" stroke="midnightblue" d="M597.897,-177.297C622.995,-171.924 652.343,-165.641 676.031,-160.57"/>
<polygon fill="midnightblue" stroke="midnightblue" points="596.836,-173.945 587.791,-179.461 598.302,-180.79 596.836,-173.945"/>
</g>
<!-- Node19 -->
<g id="node19" class="node"><title>Node19</title>
<g id="a_node19"><a xlink:href="classYUViewApp.html#a2f5f937d6677018ef73a5ffc248f9891" target="_top" xlink:title="YUViewApp::event">
<polygon fill="white" stroke="black" points="671.5,-103.55 671.5,-122.55 771.5,-122.55 771.5,-103.55 671.5,-103.55"/>
<text text-anchor="middle" x="721.5" y="-110.55" font-family="Helvetica,sans-Serif" font-size="10.00">YUViewApp::event</text>
</a>
</g>
</g>
<!-- Node13&#45;&gt;Node19 -->
<g id="edge23" class="edge"><title>Node13&#45;&gt;Node19</title>
<path fill="none" stroke="midnightblue" d="M566.849,-173.938C587.624,-161.309 618.898,-143.566 648,-132.05 657.195,-128.411 667.32,-125.258 677.013,-122.623"/>
<polygon fill="midnightblue" stroke="midnightblue" points="564.763,-171.112 558.088,-179.339 568.437,-177.07 564.763,-171.112"/>
</g>
<!-- Node15&#45;&gt;Node4 -->
<g id="edge18" class="edge"><title>Node15&#45;&gt;Node4</title>
<path fill="none" stroke="midnightblue" d="M778.576,-288.632C808.998,-294.916 846.141,-302.587 874.867,-308.521"/>
<polygon fill="midnightblue" stroke="midnightblue" points="779.04,-285.154 768.539,-286.559 777.624,-292.009 779.04,-285.154"/>
</g>
<!-- Node15&#45;&gt;Node9 -->
<g id="edge17" class="edge"><title>Node15&#45;&gt;Node9</title>
<path fill="none" stroke="midnightblue" d="M789.763,-276.033C807.778,-275.761 827.367,-275.465 845.781,-275.186"/>
<polygon fill="midnightblue" stroke="midnightblue" points="789.594,-272.535 779.648,-276.186 789.7,-279.534 789.594,-272.535"/>
</g>
<!-- Node16&#45;&gt;Node9 -->
<g id="edge20" class="edge"><title>Node16&#45;&gt;Node9</title>
<path fill="none" stroke="midnightblue" d="M775.324,-201.393C782.021,-203.395 788.723,-205.619 795,-208.05 831.615,-222.226 871.353,-244.253 896.21,-258.91"/>
<polygon fill="midnightblue" stroke="midnightblue" points="776.14,-197.987 765.565,-198.621 774.228,-204.72 776.14,-197.987"/>
</g>
<!-- Node20&#45;&gt;Node4 -->
<g id="edge26" class="edge"><title>Node20&#45;&gt;Node4</title>
<path fill="none" stroke="midnightblue" d="M802.955,-316.266C812.08,-316.403 821.425,-316.545 830.666,-316.684"/>
<polygon fill="midnightblue" stroke="midnightblue" points="802.815,-312.763 792.763,-316.112 802.709,-319.762 802.815,-312.763"/>
</g>
<!-- Node20&#45;&gt;Node9 -->
<g id="edge25" class="edge"><title>Node20&#45;&gt;Node9</title>
<path fill="none" stroke="midnightblue" d="M778.514,-303.48C800.09,-299.023 825.055,-293.867 848.002,-289.127"/>
<polygon fill="midnightblue" stroke="midnightblue" points="777.624,-300.09 768.539,-305.54 779.04,-306.945 777.624,-300.09"/>
</g>
</g>
</svg>
