<?xml version="1.0" encoding="UTF-8" standalone="no"?>
<!DOCTYPE svg PUBLIC "-//W3C//DTD SVG 1.1//EN"
 "http://www.w3.org/Graphics/SVG/1.1/DTD/svg11.dtd">
<!-- Generated by graphviz version 2.38.0 (20140413.2041)
 -->
<!-- Title: StatisticsObject::loadImage Pages: 1 -->
<svg width="695pt" height="228pt"
 viewBox="0.00 0.00 695.00 228.00" xmlns="http://www.w3.org/2000/svg" xmlns:xlink="http://www.w3.org/1999/xlink">
<g id="graph0" class="graph" transform="scale(1 1) rotate(0) translate(4 224)">
<title>StatisticsObject::loadImage</title>
<polygon fill="white" stroke="none" points="-4,4 -4,-224 691,-224 691,4 -4,4"/>
<!-- Node1 -->
<g id="node1" class="node"><title>Node1</title>
<polygon fill="#bfbfbf" stroke="black" points="0,-104 0,-123 137,-123 137,-104 0,-104"/>
<text text-anchor="middle" x="68.5" y="-111" font-family="Helvetica,sans-Serif" font-size="10.00">StatisticsObject::loadImage</text>
</g>
<!-- Node2 -->
<g id="node2" class="node"><title>Node2</title>
<g id="a_node2"><a xlink:href="classStatisticsObject.html#a977403d59c77839b97f38c4c5d09483b" target="_top" xlink:title="StatisticsObject::numFrames">
<polygon fill="white" stroke="black" points="176,-193 176,-212 320,-212 320,-193 176,-193"/>
<text text-anchor="middle" x="248" y="-200" font-family="Helvetica,sans-Serif" font-size="10.00">StatisticsObject::numFrames</text>
</a>
</g>
</g>
<!-- Node1&#45;&gt;Node2 -->
<g id="edge1" class="edge"><title>Node1&#45;&gt;Node2</title>
<path fill="none" stroke="midnightblue" d="M81.1692,-123.149C99.5867,-137.927 137.012,-166.17 173,-182.5 179.188,-185.308 185.852,-187.792 192.555,-189.968"/>
<polygon fill="midnightblue" stroke="midnightblue" points="191.768,-193.387 202.354,-192.94 193.8,-186.688 191.768,-193.387"/>
</g>
<!-- Node4 -->
<g id="node4" class="node"><title>Node4</title>
<g id="a_node4"><a xlink:href="classStatisticsObject.html#a9d90fa9d1b1373e6f93a9839c757739a" target="_top" xlink:title="StatisticsObject::internal\lScaleFactor">
<polygon fill="white" stroke="black" points="186,-142.5 186,-172.5 310,-172.5 310,-142.5 186,-142.5"/>
<text text-anchor="start" x="194" y="-160.5" font-family="Helvetica,sans-Serif" font-size="10.00">StatisticsObject::internal</text>
<text text-anchor="middle" x="248" y="-149.5" font-family="Helvetica,sans-Serif" font-size="10.00">ScaleFactor</text>
</a>
</g>
</g>
<!-- Node1&#45;&gt;Node4 -->
<g id="edge3" class="edge"><title>Node1&#45;&gt;Node4</title>
<path fill="none" stroke="midnightblue" d="M108.015,-123.047C127.999,-128.001 153.051,-134.211 176.361,-139.99"/>
<polygon fill="midnightblue" stroke="midnightblue" points="175.677,-143.426 186.225,-142.435 177.361,-136.631 175.677,-143.426"/>
</g>
<!-- Node6 -->
<g id="node6" class="node"><title>Node6</title>
<g id="a_node6"><a xlink:href="classDisplayObject.html#afb3b221174f722f563e7bf55a1ddb29f" target="_top" xlink:title="DisplayObject::width">
<polygon fill="white" stroke="black" points="194.5,-104 194.5,-123 301.5,-123 301.5,-104 194.5,-104"/>
<text text-anchor="middle" x="248" y="-111" font-family="Helvetica,sans-Serif" font-size="10.00">DisplayObject::width</text>
</a>
</g>
</g>
<!-- Node1&#45;&gt;Node6 -->
<g id="edge5" class="edge"><title>Node1&#45;&gt;Node6</title>
<path fill="none" stroke="midnightblue" d="M137.111,-113.5C152.554,-113.5 168.904,-113.5 184.138,-113.5"/>
<polygon fill="midnightblue" stroke="midnightblue" points="184.481,-117 194.481,-113.5 184.481,-110 184.481,-117"/>
</g>
<!-- Node7 -->
<g id="node7" class="node"><title>Node7</title>
<g id="a_node7"><a xlink:href="classDisplayObject.html#a814782fb1bf9e7a2ed7adab74872c08a" target="_top" xlink:title="DisplayObject::height">
<polygon fill="white" stroke="black" points="193,-66 193,-85 303,-85 303,-66 193,-66"/>
<text text-anchor="middle" x="248" y="-73" font-family="Helvetica,sans-Serif" font-size="10.00">DisplayObject::height</text>
</a>
</g>
</g>
<!-- Node1&#45;&gt;Node7 -->
<g id="edge6" class="edge"><title>Node1&#45;&gt;Node7</title>
<path fill="none" stroke="midnightblue" d="M114.291,-103.911C138.03,-98.8287 167.384,-92.5446 192.444,-87.1797"/>
<polygon fill="midnightblue" stroke="midnightblue" points="193.486,-90.536 202.531,-85.0201 192.02,-83.6911 193.486,-90.536"/>
</g>
<!-- Node8 -->
<g id="node8" class="node"><title>Node8</title>
<g id="a_node8"><a xlink:href="classstatisticSource.html#a97118da6546c479004129b4fcc6851bf" target="_top" xlink:title="statisticSource::drawStatistics">
<polygon fill="white" stroke="black" points="173,-28 173,-47 323,-47 323,-28 173,-28"/>
<text text-anchor="middle" x="248" y="-35" font-family="Helvetica,sans-Serif" font-size="10.00">statisticSource::drawStatistics</text>
</a>
</g>
</g>
<!-- Node1&#45;&gt;Node8 -->
<g id="edge7" class="edge"><title>Node1&#45;&gt;Node8</title>
<path fill="none" stroke="midnightblue" d="M84.0049,-103.965C103.516,-91.5067 139.627,-69.7276 173,-56.5 179.214,-54.0372 185.848,-51.8078 192.497,-49.8153"/>
<polygon fill="midnightblue" stroke="midnightblue" points="193.535,-53.1593 202.202,-47.0661 191.627,-46.4243 193.535,-53.1593"/>
</g>
<!-- Node3 -->
<g id="node3" class="node"><title>Node3</title>
<g id="a_node3"><a xlink:href="classstatisticSource.html#a49d2c60f7ce52592509c07fdc9d8e268" target="_top" xlink:title="statisticSource::getNumber\lFrames">
<polygon fill="white" stroke="black" points="366,-189.5 366,-219.5 502,-219.5 502,-189.5 366,-189.5"/>
<text text-anchor="start" x="374" y="-207.5" font-family="Helvetica,sans-Serif" font-size="10.00">statisticSource::getNumber</text>
<text text-anchor="middle" x="434" y="-196.5" font-family="Helvetica,sans-Serif" font-size="10.00">Frames</text>
</a>
</g>
</g>
<!-- Node2&#45;&gt;Node3 -->
<g id="edge2" class="edge"><title>Node2&#45;&gt;Node3</title>
<path fill="none" stroke="midnightblue" d="M320.139,-203.273C331.793,-203.4 343.919,-203.532 355.714,-203.66"/>
<polygon fill="midnightblue" stroke="midnightblue" points="355.935,-207.162 365.973,-203.771 356.012,-200.163 355.935,-207.162"/>
</g>
<!-- Node5 -->
<g id="node5" class="node"><title>Node5</title>
<g id="a_node5"><a xlink:href="classstatisticSource.html#ab919493c131a2f9b26c1c212c05ad223" target="_top" xlink:title="statisticSource::internal\lScaleFactor">
<polygon fill="white" stroke="black" points="374.5,-140.5 374.5,-170.5 493.5,-170.5 493.5,-140.5 374.5,-140.5"/>
<text text-anchor="start" x="382.5" y="-158.5" font-family="Helvetica,sans-Serif" font-size="10.00">statisticSource::internal</text>
<text text-anchor="middle" x="434" y="-147.5" font-family="Helvetica,sans-Serif" font-size="10.00">ScaleFactor</text>
</a>
</g>
</g>
<!-- Node4&#45;&gt;Node5 -->
<g id="edge4" class="edge"><title>Node4&#45;&gt;Node5</title>
<path fill="none" stroke="midnightblue" d="M310.014,-156.837C327.328,-156.649 346.301,-156.442 364.05,-156.249"/>
<polygon fill="midnightblue" stroke="midnightblue" points="364.376,-159.746 374.338,-156.138 364.3,-152.747 364.376,-159.746"/>
</g>
<!-- Node9 -->
<g id="node9" class="node"><title>Node9</title>
<g id="a_node9"><a xlink:href="classstatisticSource.html#a666dee63c406a9b88484286b2a8e08f4" target="_top" xlink:title="statisticSource::getStatistics">
<polygon fill="white" stroke="black" points="362.5,-50 362.5,-69 505.5,-69 505.5,-50 362.5,-50"/>
<text text-anchor="middle" x="434" y="-57" font-family="Helvetica,sans-Serif" font-size="10.00">statisticSource::getStatistics</text>
</a>
</g>
</g>
<!-- Node8&#45;&gt;Node9 -->
<g id="edge8" class="edge"><title>Node8&#45;&gt;Node9</title>
<path fill="none" stroke="midnightblue" d="M323.044,-46.3531C332.679,-47.5052 342.588,-48.6899 352.324,-49.854"/>
<polygon fill="midnightblue" stroke="midnightblue" points="352.045,-53.3455 362.39,-51.0575 352.876,-46.395 352.045,-53.3455"/>
</g>
<!-- Node11 -->
<g id="node11" class="node"><title>Node11</title>
<g id="a_node11"><a xlink:href="classstatisticSource.html#af005d063b46b611d6166d4d8439d6245" target="_top" xlink:title="statisticSource::drawStatistics\lImage">
<polygon fill="white" stroke="black" points="359,-0.5 359,-30.5 509,-30.5 509,-0.5 359,-0.5"/>
<text text-anchor="start" x="367" y="-18.5" font-family="Helvetica,sans-Serif" font-size="10.00">statisticSource::drawStatistics</text>
<text text-anchor="middle" x="434" y="-7.5" font-family="Helvetica,sans-Serif" font-size="10.00">Image</text>
</a>
</g>
</g>
<!-- Node8&#45;&gt;Node11 -->
<g id="edge10" class="edge"><title>Node8&#45;&gt;Node11</title>
<path fill="none" stroke="midnightblue" d="M323.044,-28.6469C331.514,-27.6342 340.195,-26.5963 348.784,-25.5693"/>
<polygon fill="midnightblue" stroke="midnightblue" points="349.294,-29.0334 358.808,-24.3708 348.463,-22.0829 349.294,-29.0334"/>
</g>
<!-- Node10 -->
<g id="node10" class="node"><title>Node10</title>
<g id="a_node10"><a xlink:href="classstatisticSource.html#a769e0ef8bb1427d4d586425956ebfca2" target="_top" xlink:title="statisticSource::loadStatistic\lToCache">
<polygon fill="white" stroke="black" points="545,-44.5 545,-74.5 687,-74.5 687,-44.5 545,-44.5"/>
<text text-anchor="start" x="553" y="-62.5" font-family="Helvetica,sans-Serif" font-size="10.00">statisticSource::loadStatistic</text>
<text text-anchor="middle" x="616" y="-51.5" font-family="Helvetica,sans-Serif" font-size="10.00">ToCache</text>
</a>
</g>
</g>
<!-- Node9&#45;&gt;Node10 -->
<g id="edge9" class="edge"><title>Node9&#45;&gt;Node10</title>
<path fill="none" stroke="midnightblue" d="M505.624,-59.5C515.2,-59.5 525.083,-59.5 534.812,-59.5"/>
<polygon fill="midnightblue" stroke="midnightblue" points="534.875,-63.0001 544.875,-59.5 534.875,-56.0001 534.875,-63.0001"/>
</g>
<!-- Node12 -->
<g id="node12" class="node"><title>Node12</title>
<g id="a_node12"><a xlink:href="statisticSource_8cpp.html#a00b2533858fa82f16ddb39544cfff2b4" target="_top" xlink:title="rotateVector">
<polygon fill="white" stroke="black" points="581,-6 581,-25 651,-25 651,-6 581,-6"/>
<text text-anchor="middle" x="616" y="-13" font-family="Helvetica,sans-Serif" font-size="10.00">rotateVector</text>
</a>
</g>
</g>
<!-- Node11&#45;&gt;Node12 -->
<g id="edge11" class="edge"><title>Node11&#45;&gt;Node12</title>
<path fill="none" stroke="midnightblue" d="M509.252,-15.5C530.073,-15.5 552.055,-15.5 570.551,-15.5"/>
<polygon fill="midnightblue" stroke="midnightblue" points="570.72,-19.0001 580.72,-15.5 570.72,-12.0001 570.72,-19.0001"/>
</g>
</g>
</svg>
