<?xml version="1.0" encoding="UTF-8" standalone="no"?>
<!DOCTYPE svg PUBLIC "-//W3C//DTD SVG 1.1//EN"
 "http://www.w3.org/Graphics/SVG/1.1/DTD/svg11.dtd">
<!-- Generated by graphviz version 2.38.0 (20140413.2041)
 -->
<!-- Title: DisplayObject::setStartFrame Pages: 1 -->
<!--zoomable 448 -->
<svg id="main" version="1.1" xmlns="http://www.w3.org/2000/svg" xmlns:xlink="http://www.w3.org/1999/xlink" xml:space="preserve" onload="init(evt)">
<style type="text/css"><![CDATA[
.edge:hover path { stroke: red; }
.edge:hover polygon { stroke: red; fill: red; }
]]></style>
<script type="text/javascript"><![CDATA[
var edges = document.getElementsByTagName('g');
if (edges && edges.length) {
  for (var i=0;i<edges.length;i++) {
    if (edges[i].id.substr(0,4)=='edge') {
      edges[i].setAttribute('class','edge');
    }
  }
}
]]></script>
        <defs>
                <circle id="rim" cx="0" cy="0" r="7"/>
                <circle id="rim2" cx="0" cy="0" r="3.5"/>
                <g id="zoomPlus">
                        <use xlink:href="#rim" fill="#404040">
                                <set attributeName="fill" to="#808080" begin="zoomplus.mouseover" end="zoomplus.mouseout"/>
                        </use>
                        <path d="M-4,0h8M0,-4v8" fill="none" stroke="white" stroke-width="1.5" pointer-events="none"/>
                </g>
                <g id="zoomMin">
                        <use xlink:href="#rim" fill="#404040">
                                <set attributeName="fill" to="#808080" begin="zoomminus.mouseover" end="zoomminus.mouseout"/>
                        </use>
                        <path d="M-4,0h8" fill="none" stroke="white" stroke-width="1.5" pointer-events="none"/>
                </g>
                <g id="dirArrow">
                        <path fill="none" stroke="white" stroke-width="1.5" d="M0,-3.0v7 M-2.5,-0.5L0,-3.0L2.5,-0.5"/>
                </g>
               <g id="resetDef">
                       <use xlink:href="#rim2" fill="#404040">
                               <set attributeName="fill" to="#808080" begin="reset.mouseover" end="reset.mouseout"/>
                       </use>
               </g>
        </defs>

<script type="text/javascript">
var viewWidth = 1450;
var viewHeight = 448;
var sectionId = 'dynsection-29';
</script>
<script xlink:href="svgpan.js"/>
<svg id="graph" class="graph">
<g id="viewport">
<title>DisplayObject::setStartFrame</title>
<polygon fill="white" stroke="none" points="-4,4 -4,-443.877 1446,-443.877 1446,4 -4,4"/>
<!-- Node1 -->
<g id="node1" class="node"><title>Node1</title>
<polygon fill="#bfbfbf" stroke="black" points="0,-162.377 0,-181.377 146,-181.377 146,-162.377 0,-162.377"/>
<text text-anchor="middle" x="73" y="-169.377" font-family="Helvetica,sans-Serif" font-size="10.00">DisplayObject::setStartFrame</text>
</g>
<!-- Node2 -->
<g id="node2" class="node"><title>Node2</title>
<g id="a_node2"><a xlink:href="classMainWindow.html#a2d8cea1d443550a8f14ce8c80d2608c6" target="_top" xlink:title="MainWindow::loadPlaylistFile">
<polygon fill="white" stroke="black" points="541,-200.377 541,-219.377 686,-219.377 686,-200.377 541,-200.377"/>
<text text-anchor="middle" x="613.5" y="-207.377" font-family="Helvetica,sans-Serif" font-size="10.00">MainWindow::loadPlaylistFile</text>
</a>
</g>
</g>
<!-- Node1&#45;&gt;Node2 -->
<g id="edge1" class="edge"><title>Node1&#45;&gt;Node2</title>
<path fill="none" stroke="midnightblue" d="M151.5,-182.618C161.744,-183.834 172.116,-184.962 182,-185.877 307.968,-197.537 455.233,-204.262 540.779,-207.486"/>
<polygon fill="midnightblue" stroke="midnightblue" points="151.671,-179.113 141.321,-181.378 150.824,-186.062 151.671,-179.113"/>
</g>
<!-- Node13 -->
<g id="node13" class="node"><title>Node13</title>
<g id="a_node13"><a xlink:href="classMainWindow.html#a2cae0b3ed4283301ecc11dc881d31422" target="_top" xlink:title="A file option was changed by the user (width/height/start/end/rate/sampling/frameSize/pixelFormat). ">
<polygon fill="white" stroke="black" points="182,-58.8772 182,-88.8772 318,-88.8772 318,-58.8772 182,-58.8772"/>
<text text-anchor="start" x="190" y="-76.8772" font-family="Helvetica,sans-Serif" font-size="10.00">MainWindow::on_fileOption</text>
<text text-anchor="middle" x="250" y="-65.8772" font-family="Helvetica,sans-Serif" font-size="10.00">ValueChanged</text>
</a>
</g>
</g>
<!-- Node1&#45;&gt;Node13 -->
<g id="edge14" class="edge"><title>Node1&#45;&gt;Node13</title>
<path fill="none" stroke="midnightblue" d="M100.096,-157.263C132.925,-138.879 189.008,-107.473 222.176,-88.8984"/>
<polygon fill="midnightblue" stroke="midnightblue" points="98.1133,-154.362 91.0984,-162.302 101.534,-160.47 98.1133,-154.362"/>
</g>
<!-- Node21 -->
<g id="node21" class="node"><title>Node21</title>
<g id="a_node21"><a xlink:href="classTextObject.html#a5458ec334fdbae6aec57d43ce4e14105" target="_top" xlink:title="TextObject::setDuration">
<polygon fill="white" stroke="black" points="368,-162.377 368,-181.377 489,-181.377 489,-162.377 368,-162.377"/>
<text text-anchor="middle" x="428.5" y="-169.377" font-family="Helvetica,sans-Serif" font-size="10.00">TextObject::setDuration</text>
</a>
</g>
</g>
<!-- Node1&#45;&gt;Node21 -->
<g id="edge31" class="edge"><title>Node1&#45;&gt;Node21</title>
<path fill="none" stroke="midnightblue" d="M156.565,-171.877C221.295,-171.877 309.831,-171.877 367.819,-171.877"/>
<polygon fill="midnightblue" stroke="midnightblue" points="156.389,-168.377 146.389,-171.877 156.389,-175.377 156.389,-168.377"/>
</g>
<!-- Node3 -->
<g id="node3" class="node"><title>Node3</title>
<g id="a_node3"><a xlink:href="classMainWindow.html#a8ef1be3cb02e12d68d12375d1a7a0ced" target="_top" xlink:title="loads a list of yuv/csv files ">
<polygon fill="white" stroke="black" points="738,-294.377 738,-313.377 856,-313.377 856,-294.377 738,-294.377"/>
<text text-anchor="middle" x="797" y="-301.377" font-family="Helvetica,sans-Serif" font-size="10.00">MainWindow::loadFiles</text>
</a>
</g>
</g>
<!-- Node2&#45;&gt;Node3 -->
<g id="edge2" class="edge"><title>Node2&#45;&gt;Node3</title>
<path fill="none" stroke="midnightblue" d="M642.231,-224.239C679.729,-243.66 745.581,-277.765 777.549,-294.321"/>
<polygon fill="midnightblue" stroke="midnightblue" points="643.391,-220.899 632.902,-219.408 640.172,-227.115 643.391,-220.899"/>
</g>
<!-- Node4 -->
<g id="node4" class="node"><title>Node4</title>
<g id="a_node4"><a xlink:href="classDisplaySplitWidget.html#ac1d4ced58b2ac2b08153694a5de6232e" target="_top" xlink:title="DisplaySplitWidget\l::dropEvent">
<polygon fill="white" stroke="black" points="929.5,-332.877 929.5,-362.877 1029.5,-362.877 1029.5,-332.877 929.5,-332.877"/>
<text text-anchor="start" x="937.5" y="-350.877" font-family="Helvetica,sans-Serif" font-size="10.00">DisplaySplitWidget</text>
<text text-anchor="middle" x="979.5" y="-339.877" font-family="Helvetica,sans-Serif" font-size="10.00">::dropEvent</text>
</a>
</g>
</g>
<!-- Node3&#45;&gt;Node4 -->
<g id="edge3" class="edge"><title>Node3&#45;&gt;Node4</title>
<path fill="none" stroke="midnightblue" d="M847.03,-315.829C872.613,-322.065 903.823,-329.673 929.414,-335.912"/>
<polygon fill="midnightblue" stroke="midnightblue" points="847.71,-312.393 837.166,-313.425 846.052,-319.193 847.71,-312.393"/>
</g>
<!-- Node5 -->
<g id="node5" class="node"><title>Node5</title>
<g id="a_node5"><a xlink:href="classMainWindow.html#a288b768c3c21a9171bdc56fe845ece8b" target="_top" xlink:title="Shows the file open dialog and loads all selected Files. ">
<polygon fill="white" stroke="black" points="921.5,-206.377 921.5,-225.377 1037.5,-225.377 1037.5,-206.377 921.5,-206.377"/>
<text text-anchor="middle" x="979.5" y="-213.377" font-family="Helvetica,sans-Serif" font-size="10.00">MainWindow::openFile</text>
</a>
</g>
</g>
<!-- Node3&#45;&gt;Node5 -->
<g id="edge4" class="edge"><title>Node3&#45;&gt;Node5</title>
<path fill="none" stroke="midnightblue" d="M818.785,-288.184C839.806,-272.958 873.718,-250.121 906,-235.877 915.318,-231.766 925.688,-228.303 935.604,-225.476"/>
<polygon fill="midnightblue" stroke="midnightblue" points="816.591,-285.454 810.607,-294.197 820.737,-291.093 816.591,-285.454"/>
</g>
<!-- Node9 -->
<g id="node9" class="node"><title>Node9</title>
<g id="a_node9"><a xlink:href="classMainWindow.html#a935316315edb9b7af42657da20be0e54" target="_top" xlink:title="MainWindow::openRecentFile">
<polygon fill="white" stroke="black" points="906,-294.377 906,-313.377 1053,-313.377 1053,-294.377 906,-294.377"/>
<text text-anchor="middle" x="979.5" y="-301.377" font-family="Helvetica,sans-Serif" font-size="10.00">MainWindow::openRecentFile</text>
</a>
</g>
</g>
<!-- Node3&#45;&gt;Node9 -->
<g id="edge9" class="edge"><title>Node3&#45;&gt;Node9</title>
<path fill="none" stroke="midnightblue" d="M866.33,-303.877C879.278,-303.877 892.867,-303.877 905.941,-303.877"/>
<polygon fill="midnightblue" stroke="midnightblue" points="866.105,-300.377 856.105,-303.877 866.105,-307.377 866.105,-300.377"/>
</g>
<!-- Node10 -->
<g id="node10" class="node"><title>Node10</title>
<g id="a_node10"><a xlink:href="classPlaylistTreeWidget.html#a295170eb269cc67050ea0b575cd0ab53" target="_top" xlink:title="PlaylistTreeWidget\l::dropEvent">
<polygon fill="white" stroke="black" points="930,-244.877 930,-274.877 1029,-274.877 1029,-244.877 930,-244.877"/>
<text text-anchor="start" x="938" y="-262.877" font-family="Helvetica,sans-Serif" font-size="10.00">PlaylistTreeWidget</text>
<text text-anchor="middle" x="979.5" y="-251.877" font-family="Helvetica,sans-Serif" font-size="10.00">::dropEvent</text>
</a>
</g>
</g>
<!-- Node3&#45;&gt;Node10 -->
<g id="edge11" class="edge"><title>Node3&#45;&gt;Node10</title>
<path fill="none" stroke="midnightblue" d="M847.069,-291.916C872.755,-285.654 904.107,-278.012 929.747,-271.762"/>
<polygon fill="midnightblue" stroke="midnightblue" points="846.052,-288.561 837.166,-294.33 847.71,-295.362 846.052,-288.561"/>
</g>
<!-- Node11 -->
<g id="node11" class="node"><title>Node11</title>
<g id="a_node11"><a xlink:href="classYUViewApp.html#ac0f5381cc5b703a9ea704b5eedab4b7f" target="_top" xlink:title="YUViewApp::YUViewApp">
<polygon fill="white" stroke="black" points="915,-420.377 915,-439.377 1044,-439.377 1044,-420.377 915,-420.377"/>
<text text-anchor="middle" x="979.5" y="-427.377" font-family="Helvetica,sans-Serif" font-size="10.00">YUViewApp::YUViewApp</text>
</a>
</g>
</g>
<!-- Node3&#45;&gt;Node11 -->
<g id="edge12" class="edge"><title>Node3&#45;&gt;Node11</title>
<path fill="none" stroke="midnightblue" d="M811.085,-321.763C829.55,-345.696 865.548,-387.795 906,-410.877 912.781,-414.746 920.366,-417.846 928.005,-420.323"/>
<polygon fill="midnightblue" stroke="midnightblue" points="813.71,-319.432 804.893,-313.557 808.122,-323.648 813.71,-319.432"/>
</g>
<!-- Node12 -->
<g id="node12" class="node"><title>Node12</title>
<g id="a_node12"><a xlink:href="classYUViewApp.html#a2f5f937d6677018ef73a5ffc248f9891" target="_top" xlink:title="YUViewApp::event">
<polygon fill="white" stroke="black" points="929.5,-382.377 929.5,-401.377 1029.5,-401.377 1029.5,-382.377 929.5,-382.377"/>
<text text-anchor="middle" x="979.5" y="-389.377" font-family="Helvetica,sans-Serif" font-size="10.00">YUViewApp::event</text>
</a>
</g>
</g>
<!-- Node3&#45;&gt;Node12 -->
<g id="edge13" class="edge"><title>Node3&#45;&gt;Node12</title>
<path fill="none" stroke="midnightblue" d="M818.363,-319.653C839.298,-335.186 873.359,-358.597 906,-372.877 914.583,-376.632 924.073,-379.778 933.281,-382.36"/>
<polygon fill="midnightblue" stroke="midnightblue" points="820.33,-316.752 810.237,-313.528 816.116,-322.342 820.33,-316.752"/>
</g>
<!-- Node6 -->
<g id="node6" class="node"><title>Node6</title>
<g id="a_node6"><a xlink:href="classMainWindow.html#a9df7443ce5f907903438bb6a9abe9a33" target="_top" xlink:title="MainWindow::createMenusAnd\lActions">
<polygon fill="white" stroke="black" points="1104,-200.877 1104,-230.877 1256,-230.877 1256,-200.877 1104,-200.877"/>
<text text-anchor="start" x="1112" y="-218.877" font-family="Helvetica,sans-Serif" font-size="10.00">MainWindow::createMenusAnd</text>
<text text-anchor="middle" x="1180" y="-207.877" font-family="Helvetica,sans-Serif" font-size="10.00">Actions</text>
</a>
</g>
</g>
<!-- Node5&#45;&gt;Node6 -->
<g id="edge5" class="edge"><title>Node5&#45;&gt;Node6</title>
<path fill="none" stroke="midnightblue" d="M1047.76,-215.877C1065.78,-215.877 1085.37,-215.877 1103.78,-215.877"/>
<polygon fill="midnightblue" stroke="midnightblue" points="1047.65,-212.377 1037.65,-215.877 1047.65,-219.377 1047.65,-212.377"/>
</g>
<!-- Node8 -->
<g id="node8" class="node"><title>Node8</title>
<g id="a_node8"><a xlink:href="classMainWindow.html#aaba5c236313378986c42c4a634c4cfb9" target="_top" xlink:title="MainWindow::onCustomContextMenu">
<polygon fill="white" stroke="black" points="1089,-162.377 1089,-181.377 1271,-181.377 1271,-162.377 1089,-162.377"/>
<text text-anchor="middle" x="1180" y="-169.377" font-family="Helvetica,sans-Serif" font-size="10.00">MainWindow::onCustomContextMenu</text>
</a>
</g>
</g>
<!-- Node5&#45;&gt;Node8 -->
<g id="edge7" class="edge"><title>Node5&#45;&gt;Node8</title>
<path fill="none" stroke="midnightblue" d="M1031.02,-204.034C1049.27,-199.809 1070.05,-195.061 1089,-190.877 1103.35,-187.71 1119,-184.366 1133.18,-181.38"/>
<polygon fill="midnightblue" stroke="midnightblue" points="1030.11,-200.651 1021.16,-206.321 1031.7,-207.47 1030.11,-200.651"/>
</g>
<!-- Node7 -->
<g id="node7" class="node"><title>Node7</title>
<g id="a_node7"><a xlink:href="classMainWindow.html#a8b244be8b7b7db1b08de2a2acb9409db" target="_top" xlink:title="MainWindow::MainWindow">
<polygon fill="white" stroke="black" points="1307,-96.3772 1307,-115.377 1442,-115.377 1442,-96.3772 1307,-96.3772"/>
<text text-anchor="middle" x="1374.5" y="-103.377" font-family="Helvetica,sans-Serif" font-size="10.00">MainWindow::MainWindow</text>
</a>
</g>
</g>
<!-- Node6&#45;&gt;Node7 -->
<g id="edge6" class="edge"><title>Node6&#45;&gt;Node7</title>
<path fill="none" stroke="midnightblue" d="M1257,-197.3C1261.83,-195.348 1266.53,-193.212 1271,-190.877 1310.13,-170.423 1347.93,-133.175 1364.6,-115.578"/>
<polygon fill="midnightblue" stroke="midnightblue" points="1255.74,-194.035 1247.61,-200.829 1258.2,-200.588 1255.74,-194.035"/>
</g>
<!-- Node8&#45;&gt;Node7 -->
<g id="edge8" class="edge"><title>Node8&#45;&gt;Node7</title>
<path fill="none" stroke="midnightblue" d="M1242.4,-159.989C1252.06,-157.616 1261.87,-154.906 1271,-151.877 1301.36,-141.807 1334.89,-125.761 1355.06,-115.528"/>
<polygon fill="midnightblue" stroke="midnightblue" points="1241.35,-156.64 1232.42,-162.339 1242.96,-163.453 1241.35,-156.64"/>
</g>
<!-- Node9&#45;&gt;Node6 -->
<g id="edge10" class="edge"><title>Node9&#45;&gt;Node6</title>
<path fill="none" stroke="midnightblue" d="M1033.63,-291.566C1040.23,-289.566 1046.83,-287.333 1053,-284.877 1090.54,-269.941 1131.03,-246.277 1155.7,-230.913"/>
<polygon fill="midnightblue" stroke="midnightblue" points="1032.64,-288.207 1024,-294.329 1034.57,-294.935 1032.64,-288.207"/>
</g>
<!-- Node13&#45;&gt;Node7 -->
<g id="edge15" class="edge"><title>Node13&#45;&gt;Node7</title>
<path fill="none" stroke="midnightblue" d="M310.758,-56.1244C381.95,-36.5758 504.803,-7.87719 612.5,-7.87719 612.5,-7.87719 612.5,-7.87719 980.5,-7.87719 1109.89,-7.87719 1149.95,18.8205 1271,-26.8772 1311.15,-42.0333 1348.44,-78.5494 1364.8,-96.1157"/>
<polygon fill="midnightblue" stroke="midnightblue" points="309.761,-52.7689 301.063,-58.8182 311.635,-59.5135 309.761,-52.7689"/>
</g>
<!-- Node14 -->
<g id="node14" class="node"><title>Node14</title>
<g id="a_node14"><a xlink:href="classMainWindow.html#a29e6418f12a4331860a7db3616e91600" target="_top" xlink:title="updates the YUV information GUI elements from the current Renderobject ">
<polygon fill="white" stroke="black" points="354,-58.8772 354,-88.8772 503,-88.8772 503,-58.8772 354,-58.8772"/>
<text text-anchor="start" x="362" y="-76.8772" font-family="Helvetica,sans-Serif" font-size="10.00">MainWindow::updateSelection</text>
<text text-anchor="middle" x="428.5" y="-65.8772" font-family="Helvetica,sans-Serif" font-size="10.00">MetaInfo</text>
</a>
</g>
</g>
<!-- Node13&#45;&gt;Node14 -->
<g id="edge16" class="edge"><title>Node13&#45;&gt;Node14</title>
<path fill="none" stroke="midnightblue" d="M328.478,-67.1721C336.951,-67.1011 345.559,-67.1143 353.982,-67.2115"/>
<polygon fill="midnightblue" stroke="midnightblue" points="328.186,-63.6754 318.231,-67.3003 328.274,-70.6748 328.186,-63.6754"/>
</g>
<!-- Node14&#45;&gt;Node13 -->
<g id="edge28" class="edge"><title>Node14&#45;&gt;Node13</title>
<path fill="none" stroke="midnightblue" d="M343.918,-80.6188C335.305,-80.6498 326.633,-80.5949 318.231,-80.4541"/>
<polygon fill="midnightblue" stroke="midnightblue" points="344.009,-84.1183 353.982,-80.5429 343.956,-77.1185 344.009,-84.1183"/>
</g>
<!-- Node15 -->
<g id="node15" class="node"><title>Node15</title>
<g id="a_node15"><a xlink:href="classMainWindow.html#a6f33e93f427ff2df80edffcb3ad944da" target="_top" xlink:title="MainWindow::updateSelected\lItems">
<polygon fill="white" stroke="black" points="724,-74.8772 724,-104.877 870,-104.877 870,-74.8772 724,-74.8772"/>
<text text-anchor="start" x="732" y="-92.8772" font-family="Helvetica,sans-Serif" font-size="10.00">MainWindow::updateSelected</text>
<text text-anchor="middle" x="797" y="-81.8772" font-family="Helvetica,sans-Serif" font-size="10.00">Items</text>
</a>
</g>
</g>
<!-- Node14&#45;&gt;Node15 -->
<g id="edge17" class="edge"><title>Node14&#45;&gt;Node15</title>
<path fill="none" stroke="midnightblue" d="M513.23,-77.5325C576.841,-80.3095 663.416,-84.0891 723.953,-86.7319"/>
<polygon fill="midnightblue" stroke="midnightblue" points="513.369,-74.0354 503.226,-77.0958 513.064,-81.0287 513.369,-74.0354"/>
</g>
<!-- Node20 -->
<g id="node20" class="node"><title>Node20</title>
<g id="a_node20"><a xlink:href="classMainWindow.html#a23cc43af3c6873f9a936b5af05c99f49" target="_top" xlink:title="The display objects information changed. Update. ">
<polygon fill="white" stroke="black" points="539,-36.8772 539,-66.8772 688,-66.8772 688,-36.8772 539,-36.8772"/>
<text text-anchor="start" x="547" y="-54.8772" font-family="Helvetica,sans-Serif" font-size="10.00">MainWindow::currentSelection</text>
<text text-anchor="middle" x="613.5" y="-43.8772" font-family="Helvetica,sans-Serif" font-size="10.00">InformationChanged</text>
</a>
</g>
</g>
<!-- Node14&#45;&gt;Node20 -->
<g id="edge29" class="edge"><title>Node14&#45;&gt;Node20</title>
<path fill="none" stroke="midnightblue" d="M513.109,-63.8258C521.651,-62.799 530.285,-61.761 538.711,-60.748"/>
<polygon fill="midnightblue" stroke="midnightblue" points="512.653,-60.3554 503.142,-65.024 513.488,-67.3053 512.653,-60.3554"/>
</g>
<!-- Node15&#45;&gt;Node7 -->
<g id="edge18" class="edge"><title>Node15&#45;&gt;Node7</title>
<path fill="none" stroke="midnightblue" d="M880.172,-92.0912C974.52,-94.6436 1133.93,-98.9878 1271,-102.877 1282.57,-103.205 1294.87,-103.56 1306.79,-103.907"/>
<polygon fill="midnightblue" stroke="midnightblue" points="880.213,-88.5911 870.122,-91.8194 880.024,-95.5886 880.213,-88.5911"/>
</g>
<!-- Node16 -->
<g id="node16" class="node"><title>Node16</title>
<g id="a_node16"><a xlink:href="classMainWindow.html#a6be7246a1a0ecf5d1442bb1775c3d9b3" target="_top" xlink:title="MainWindow::addDifference\lSequence">
<polygon fill="white" stroke="black" points="909.5,-156.877 909.5,-186.877 1049.5,-186.877 1049.5,-156.877 909.5,-156.877"/>
<text text-anchor="start" x="917.5" y="-174.877" font-family="Helvetica,sans-Serif" font-size="10.00">MainWindow::addDifference</text>
<text text-anchor="middle" x="979.5" y="-163.877" font-family="Helvetica,sans-Serif" font-size="10.00">Sequence</text>
</a>
</g>
</g>
<!-- Node15&#45;&gt;Node16 -->
<g id="edge19" class="edge"><title>Node15&#45;&gt;Node16</title>
<path fill="none" stroke="midnightblue" d="M832.876,-110.037C853.71,-121.633 880.92,-136.011 906,-146.877 914.063,-150.371 922.788,-153.724 931.296,-156.778"/>
<polygon fill="midnightblue" stroke="midnightblue" points="834.507,-106.938 824.074,-105.092 831.078,-113.041 834.507,-106.938"/>
</g>
<!-- Node17 -->
<g id="node17" class="node"><title>Node17</title>
<g id="a_node17"><a xlink:href="classMainWindow.html#af5ecc7c65080215b49b9d931c56c65c9" target="_top" xlink:title="MainWindow::editTextFrame">
<polygon fill="white" stroke="black" points="908.5,-118.377 908.5,-137.377 1050.5,-137.377 1050.5,-118.377 908.5,-118.377"/>
<text text-anchor="middle" x="979.5" y="-125.377" font-family="Helvetica,sans-Serif" font-size="10.00">MainWindow::editTextFrame</text>
</a>
</g>
</g>
<!-- Node15&#45;&gt;Node17 -->
<g id="edge22" class="edge"><title>Node15&#45;&gt;Node17</title>
<path fill="none" stroke="midnightblue" d="M879.288,-106.99C897.868,-110.902 916.959,-114.921 933.371,-118.376"/>
<polygon fill="midnightblue" stroke="midnightblue" points="879.845,-103.531 869.338,-104.896 878.403,-110.381 879.845,-103.531"/>
</g>
<!-- Node19 -->
<g id="node19" class="node"><title>Node19</title>
<g id="a_node19"><a xlink:href="classMainWindow.html#a156c29c6d7ab278e4246c88a0fcbe2f2" target="_top" xlink:title="MainWindow::updateSettings">
<polygon fill="white" stroke="black" points="1108,-36.3772 1108,-55.3772 1252,-55.3772 1252,-36.3772 1108,-36.3772"/>
<text text-anchor="middle" x="1180" y="-43.3772" font-family="Helvetica,sans-Serif" font-size="10.00">MainWindow::updateSettings</text>
</a>
</g>
</g>
<!-- Node15&#45;&gt;Node19 -->
<g id="edge26" class="edge"><title>Node15&#45;&gt;Node19</title>
<path fill="none" stroke="midnightblue" d="M880.302,-73.7965C888.961,-72.3561 897.648,-71.015 906,-69.8772 974.24,-60.5807 1052.59,-54.1242 1107.8,-50.2682"/>
<polygon fill="midnightblue" stroke="midnightblue" points="879.441,-70.3928 870.173,-75.5267 880.62,-77.2929 879.441,-70.3928"/>
</g>
<!-- Node16&#45;&gt;Node6 -->
<g id="edge20" class="edge"><title>Node16&#45;&gt;Node6</title>
<path fill="none" stroke="midnightblue" d="M1058.4,-189.146C1075.85,-193.012 1094.22,-197.084 1111.21,-200.851"/>
<polygon fill="midnightblue" stroke="midnightblue" points="1058.78,-185.644 1048.26,-186.896 1057.26,-192.478 1058.78,-185.644"/>
</g>
<!-- Node16&#45;&gt;Node8 -->
<g id="edge21" class="edge"><title>Node16&#45;&gt;Node8</title>
<path fill="none" stroke="midnightblue" d="M1059.86,-171.877C1069.37,-171.877 1079.15,-171.877 1088.8,-171.877"/>
<polygon fill="midnightblue" stroke="midnightblue" points="1059.65,-168.377 1049.65,-171.877 1059.65,-175.377 1059.65,-168.377"/>
</g>
<!-- Node17&#45;&gt;Node8 -->
<g id="edge23" class="edge"><title>Node17&#45;&gt;Node8</title>
<path fill="none" stroke="midnightblue" d="M1033.66,-139.661C1065.71,-146.764 1105.99,-155.693 1136.01,-162.348"/>
<polygon fill="midnightblue" stroke="midnightblue" points="1034.09,-136.172 1023.57,-137.425 1032.58,-143.006 1034.09,-136.172"/>
</g>
<!-- Node18 -->
<g id="node18" class="node"><title>Node18</title>
<g id="a_node18"><a xlink:href="classMainWindow.html#ab18c663524e2c130759c0ca960129ea4" target="_top" xlink:title="MainWindow::onItemDouble\lClicked">
<polygon fill="white" stroke="black" points="1110,-112.877 1110,-142.877 1250,-142.877 1250,-112.877 1110,-112.877"/>
<text text-anchor="start" x="1118" y="-130.877" font-family="Helvetica,sans-Serif" font-size="10.00">MainWindow::onItemDouble</text>
<text text-anchor="middle" x="1180" y="-119.877" font-family="Helvetica,sans-Serif" font-size="10.00">Clicked</text>
</a>
</g>
</g>
<!-- Node17&#45;&gt;Node18 -->
<g id="edge24" class="edge"><title>Node17&#45;&gt;Node18</title>
<path fill="none" stroke="midnightblue" d="M1060.78,-127.877C1077.04,-127.877 1094,-127.877 1109.83,-127.877"/>
<polygon fill="midnightblue" stroke="midnightblue" points="1060.76,-124.377 1050.76,-127.877 1060.76,-131.377 1060.76,-124.377"/>
</g>
<!-- Node18&#45;&gt;Node7 -->
<g id="edge25" class="edge"><title>Node18&#45;&gt;Node7</title>
<path fill="none" stroke="midnightblue" d="M1260.28,-118.816C1275.75,-117.049 1291.81,-115.213 1306.82,-113.498"/>
<polygon fill="midnightblue" stroke="midnightblue" points="1259.76,-115.353 1250.22,-119.966 1260.56,-122.308 1259.76,-115.353"/>
</g>
<!-- Node19&#45;&gt;Node7 -->
<g id="edge27" class="edge"><title>Node19&#45;&gt;Node7</title>
<path fill="none" stroke="midnightblue" d="M1228.97,-57.936C1242.62,-61.5635 1257.45,-65.6967 1271,-69.8772 1297.49,-78.0489 1327.36,-88.7061 1347.99,-96.2999"/>
<polygon fill="midnightblue" stroke="midnightblue" points="1229.85,-54.5466 1219.28,-55.3905 1228.07,-61.3168 1229.85,-54.5466"/>
</g>
<!-- Node20&#45;&gt;Node15 -->
<g id="edge30" class="edge"><title>Node20&#45;&gt;Node15</title>
<path fill="none" stroke="midnightblue" d="M696.27,-68.9971C705.583,-70.9469 715.023,-72.9233 724.193,-74.8432"/>
<polygon fill="midnightblue" stroke="midnightblue" points="696.739,-65.5194 686.234,-66.8958 695.304,-72.3708 696.739,-65.5194"/>
</g>
<!-- Node21&#45;&gt;Node2 -->
<g id="edge32" class="edge"><title>Node21&#45;&gt;Node2</title>
<path fill="none" stroke="midnightblue" d="M485.753,-183.558C511.705,-188.947 542.122,-195.263 566.653,-200.357"/>
<polygon fill="midnightblue" stroke="midnightblue" points="486.181,-180.073 475.679,-181.466 484.758,-186.926 486.181,-180.073"/>
</g>
<!-- Node21&#45;&gt;Node17 -->
<g id="edge33" class="edge"><title>Node21&#45;&gt;Node17</title>
<path fill="none" stroke="midnightblue" d="M499.187,-166.992C551.224,-163.286 624.079,-157.977 688,-152.877 763.312,-146.869 849.549,-139.369 908.375,-134.159"/>
<polygon fill="midnightblue" stroke="midnightblue" points="498.793,-163.511 489.066,-167.711 499.289,-170.493 498.793,-163.511"/>
</g>
<!-- Node22 -->
<g id="node22" class="node"><title>Node22</title>
<g id="a_node22"><a xlink:href="classTextObject.html#a4abe36f8a979d68e0cec492bc70e6cea" target="_top" xlink:title="TextObject::TextObject">
<polygon fill="white" stroke="black" points="554,-124.377 554,-143.377 673,-143.377 673,-124.377 554,-124.377"/>
<text text-anchor="middle" x="613.5" y="-131.377" font-family="Helvetica,sans-Serif" font-size="10.00">TextObject::TextObject</text>
</a>
</g>
</g>
<!-- Node21&#45;&gt;Node22 -->
<g id="edge34" class="edge"><title>Node21&#45;&gt;Node22</title>
<path fill="none" stroke="midnightblue" d="M485.753,-160.196C511.705,-154.807 542.122,-148.491 566.653,-143.397"/>
<polygon fill="midnightblue" stroke="midnightblue" points="484.758,-156.828 475.679,-162.288 486.181,-163.682 484.758,-156.828"/>
</g>
</g>
</svg>
        <g id="navigator" transform="translate(0 0)" fill="#404254">
                <rect fill="#f2f5e9" fill-opacity="0.5" stroke="#606060" stroke-width=".5" x="0" y="0" width="60" height="60"/>
                <use id="zoomplus" xlink:href="#zoomPlus" x="17" y="9" onmousedown="handleZoom(evt,'in')"/>
                <use id="zoomminus" xlink:href="#zoomMin" x="42" y="9" onmousedown="handleZoom(evt,'out')"/>
                <use id="reset" xlink:href="#resetDef" x="30" y="36" onmousedown="handleReset()"/>
                <g id="arrowUp" xlink:href="#dirArrow" transform="translate(30 24)" onmousedown="handlePan(0,-1)">
                  <use xlink:href="#rim" fill="#404040">
                        <set attributeName="fill" to="#808080" begin="arrowUp.mouseover" end="arrowUp.mouseout"/>
                  </use>
                  <path fill="none" stroke="white" stroke-width="1.5" d="M0,-3.0v7 M-2.5,-0.5L0,-3.0L2.5,-0.5"/>
                </g>
                <g id="arrowRight" xlink:href="#dirArrow" transform="rotate(90) translate(36 -43)" onmousedown="handlePan(1,0)">
                  <use xlink:href="#rim" fill="#404040">
                        <set attributeName="fill" to="#808080" begin="arrowRight.mouseover" end="arrowRight.mouseout"/>
                  </use>
                  <path fill="none" stroke="white" stroke-width="1.5" d="M0,-3.0v7 M-2.5,-0.5L0,-3.0L2.5,-0.5"/>
                </g>
                <g id="arrowDown" xlink:href="#dirArrow" transform="rotate(180) translate(-30 -48)" onmousedown="handlePan(0,1)">
                  <use xlink:href="#rim" fill="#404040">
                        <set attributeName="fill" to="#808080" begin="arrowDown.mouseover" end="arrowDown.mouseout"/>
                  </use>
                  <path fill="none" stroke="white" stroke-width="1.5" d="M0,-3.0v7 M-2.5,-0.5L0,-3.0L2.5,-0.5"/>
                </g>
                <g id="arrowLeft" xlink:href="#dirArrow" transform="rotate(270) translate(-36 17)" onmousedown="handlePan(-1,0)">
                  <use xlink:href="#rim" fill="#404040">
                        <set attributeName="fill" to="#808080" begin="arrowLeft.mouseover" end="arrowLeft.mouseout"/>
                  </use>
                  <path fill="none" stroke="white" stroke-width="1.5" d="M0,-3.0v7 M-2.5,-0.5L0,-3.0L2.5,-0.5"/>
                </g>
        </g>
        <svg viewBox="0 0 15 15" width="100%" height="30px" preserveAspectRatio="xMaxYMin meet">
         <g id="arrow_out" transform="scale(0.3 0.3)">
          <a xlink:href="classDisplayObject_aed9e23b654a67915a5b76e5d124d7bb6_icgraph_org.svg" target="_base">
           <rect id="button" ry="5" rx="5" y="6" x="6" height="38" width="38"
                fill="#f2f5e9" fill-opacity="0.5" stroke="#606060" stroke-width="1.0"/>
           <path id="arrow"
             d="M 11.500037,31.436501 C 11.940474,20.09759 22.043105,11.32322 32.158766,21.979434 L 37.068811,17.246167 C 37.068811,17.246167 37.088388,32 37.088388,32 L 22.160133,31.978069 C 22.160133,31.978069 26.997745,27.140456 26.997745,27.140456 C 18.528582,18.264221 13.291696,25.230495 11.500037,31.436501 z"
             style="fill:#404040;"/>
          </a>
         </g>
        </svg>
</svg>
