<?xml version="1.0" encoding="UTF-8" standalone="no"?>
<!DOCTYPE svg PUBLIC "-//W3C//DTD SVG 1.1//EN"
 "http://www.w3.org/Graphics/SVG/1.1/DTD/svg11.dtd">
<!-- Generated by graphviz version 2.38.0 (20140413.2041)
 -->
<!-- Title: TextObject Pages: 1 -->
<svg width="667pt" height="217pt"
 viewBox="0.00 0.00 666.50 217.00" xmlns="http://www.w3.org/2000/svg" xmlns:xlink="http://www.w3.org/1999/xlink">
<g id="graph0" class="graph" transform="scale(1 1) rotate(0) translate(4 213)">
<title>TextObject</title>
<polygon fill="white" stroke="none" points="-4,4 -4,-213 662.5,-213 662.5,4 -4,4"/>
<!-- Node1 -->
<g id="node1" class="node"><title>Node1</title>
<polygon fill="#bfbfbf" stroke="black" points="464,-0.5 464,-19.5 529,-19.5 529,-0.5 464,-0.5"/>
<text text-anchor="middle" x="496.5" y="-7.5" font-family="Helvetica,sans-Serif" font-size="10.00">TextObject</text>
</g>
<!-- Node2 -->
<g id="node2" class="node"><title>Node2</title>
<g id="a_node2"><a xlink:href="classDisplayObject.html" target="_top" xlink:title="DisplayObject">
<polygon fill="white" stroke="black" points="264.5,-67.5 264.5,-86.5 342.5,-86.5 342.5,-67.5 264.5,-67.5"/>
<text text-anchor="middle" x="303.5" y="-74.5" font-family="Helvetica,sans-Serif" font-size="10.00">DisplayObject</text>
</a>
</g>
</g>
<!-- Node2&#45;&gt;Node1 -->
<g id="edge1" class="edge"><title>Node2&#45;&gt;Node1</title>
<path fill="none" stroke="midnightblue" d="M338.83,-64.1013C377.096,-51.2138 437.196,-30.9728 471.072,-19.5637"/>
<polygon fill="midnightblue" stroke="midnightblue" points="337.489,-60.8598 329.129,-67.3685 339.723,-67.4937 337.489,-60.8598"/>
</g>
<!-- Node3 -->
<g id="node3" class="node"><title>Node3</title>
<g id="a_node3"><a xlink:href="classQObject.html" target="_top" xlink:title="QObject">
<polygon fill="white" stroke="black" points="0,-189.5 0,-208.5 53,-208.5 53,-189.5 0,-189.5"/>
<text text-anchor="middle" x="26.5" y="-196.5" font-family="Helvetica,sans-Serif" font-size="10.00">QObject</text>
</a>
</g>
</g>
<!-- Node3&#45;&gt;Node2 -->
<g id="edge2" class="edge"><title>Node3&#45;&gt;Node2</title>
<path fill="none" stroke="midnightblue" d="M36.6946,-180.703C50.4692,-159.052 77.1803,-122.67 110.5,-105 136.43,-91.2492 215.862,-83.7354 264.366,-80.3207"/>
<polygon fill="midnightblue" stroke="midnightblue" points="33.703,-178.886 31.4498,-189.238 39.6671,-182.551 33.703,-178.886"/>
</g>
<!-- Node4 -->
<g id="node4" class="node"><title>Node4</title>
<polygon fill="white" stroke="#bfbfbf" points="71,-189.5 71,-208.5 162,-208.5 162,-189.5 71,-189.5"/>
<text text-anchor="middle" x="116.5" y="-196.5" font-family="Helvetica,sans-Serif" font-size="10.00">QList&lt; QString &gt;</text>
</g>
<!-- Node4&#45;&gt;Node2 -->
<g id="edge3" class="edge"><title>Node4&#45;&gt;Node2</title>
<path fill="none" stroke="#9a32cd" stroke-dasharray="5,2" d="M114.149,-179.356C112.621,-158.233 113.795,-124.251 133.5,-105 151.562,-87.3534 219.864,-81.2391 264.201,-79.1213"/>
<polygon fill="#9a32cd" stroke="#9a32cd" points="110.669,-179.735 115.143,-189.339 117.635,-179.042 110.669,-179.735"/>
<text text-anchor="middle" x="174" y="-135.5" font-family="Helvetica,sans-Serif" font-size="10.00"> p_info_permanent</text>
</g>
<!-- Node5 -->
<g id="node5" class="node"><title>Node5</title>
<polygon fill="white" stroke="#bfbfbf" points="198,-189.5 198,-208.5 243,-208.5 243,-189.5 198,-189.5"/>
<text text-anchor="middle" x="220.5" y="-196.5" font-family="Helvetica,sans-Serif" font-size="10.00">double</text>
</g>
<!-- Node5&#45;&gt;Node2 -->
<g id="edge4" class="edge"><title>Node5&#45;&gt;Node2</title>
<path fill="none" stroke="#9a32cd" stroke-dasharray="5,2" d="M218.7,-179.242C217.774,-158.766 219.476,-126.093 236.5,-105 243.589,-96.2169 253.974,-90.2723 264.462,-86.256"/>
<polygon fill="#9a32cd" stroke="#9a32cd" points="215.226,-179.734 219.428,-189.46 222.208,-179.236 215.226,-179.734"/>
<text text-anchor="middle" x="266.5" y="-135.5" font-family="Helvetica,sans-Serif" font-size="10.00"> p_frameRate</text>
</g>
<!-- Node6 -->
<g id="node6" class="node"><title>Node6</title>
<polygon fill="white" stroke="#bfbfbf" points="274.5,-189.5 274.5,-208.5 324.5,-208.5 324.5,-189.5 274.5,-189.5"/>
<text text-anchor="middle" x="299.5" y="-196.5" font-family="Helvetica,sans-Serif" font-size="10.00">QString</text>
</g>
<!-- Node6&#45;&gt;Node1 -->
<g id="edge9" class="edge"><title>Node6&#45;&gt;Node1</title>
<path fill="none" stroke="#9a32cd" stroke-dasharray="5,2" d="M334.825,-189.179C383.789,-181.765 407.727,-202.143 440.5,-171 474.816,-138.39 446.158,-111.048 463.5,-67 470.528,-49.1497 482.774,-30.312 490.209,-19.6699"/>
<polygon fill="#9a32cd" stroke="#9a32cd" points="333.884,-185.794 324.689,-191.056 335.159,-192.677 333.884,-185.794"/>
<text text-anchor="middle" x="493" y="-74.5" font-family="Helvetica,sans-Serif" font-size="10.00"> p_TextString</text>
</g>
<!-- Node6&#45;&gt;Node2 -->
<g id="edge5" class="edge"><title>Node6&#45;&gt;Node2</title>
<path fill="none" stroke="#9a32cd" stroke-dasharray="5,2" d="M300.128,-179.145C301.009,-152.723 302.575,-105.764 303.215,-86.5519"/>
<polygon fill="#9a32cd" stroke="#9a32cd" points="296.623,-179.259 299.788,-189.37 303.619,-179.492 296.623,-179.259"/>
<text text-anchor="middle" x="324" y="-146.5" font-family="Helvetica,sans-Serif" font-size="10.00"> p_status</text>
<text text-anchor="middle" x="324" y="-135.5" font-family="Helvetica,sans-Serif" font-size="10.00">p_name</text>
<text text-anchor="middle" x="324" y="-124.5" font-family="Helvetica,sans-Serif" font-size="10.00">p_info</text>
</g>
<!-- Node7 -->
<g id="node7" class="node"><title>Node7</title>
<polygon fill="white" stroke="#bfbfbf" points="343,-189.5 343,-208.5 400,-208.5 400,-189.5 343,-189.5"/>
<text text-anchor="middle" x="371.5" y="-196.5" font-family="Helvetica,sans-Serif" font-size="10.00">QPixmap</text>
</g>
<!-- Node7&#45;&gt;Node2 -->
<g id="edge6" class="edge"><title>Node7&#45;&gt;Node2</title>
<path fill="none" stroke="#9a32cd" stroke-dasharray="5,2" d="M370.193,-179.393C367.954,-159.302 361.893,-127.2 345.5,-105 339.733,-97.1898 330.973,-91.0456 322.943,-86.6045"/>
<polygon fill="#9a32cd" stroke="#9a32cd" points="366.713,-179.782 371.101,-189.425 373.685,-179.15 366.713,-179.782"/>
<text text-anchor="middle" x="405.5" y="-135.5" font-family="Helvetica,sans-Serif" font-size="10.00"> p_displayImage</text>
</g>
<!-- Node8 -->
<g id="node8" class="node"><title>Node8</title>
<polygon fill="white" stroke="#bfbfbf" points="473,-189.5 473,-208.5 502,-208.5 502,-189.5 473,-189.5"/>
<text text-anchor="middle" x="487.5" y="-196.5" font-family="Helvetica,sans-Serif" font-size="10.00">int</text>
</g>
<!-- Node8&#45;&gt;Node2 -->
<g id="edge7" class="edge"><title>Node8&#45;&gt;Node2</title>
<path fill="none" stroke="#9a32cd" stroke-dasharray="5,2" d="M484.368,-179.377C479.749,-157.994 468.975,-123.493 445.5,-105 429.878,-92.6931 379.167,-85.2756 342.805,-81.4107"/>
<polygon fill="#9a32cd" stroke="#9a32cd" points="480.981,-180.303 486.299,-189.466 487.856,-178.986 480.981,-180.303"/>
<text text-anchor="middle" x="513" y="-163" font-family="Helvetica,sans-Serif" font-size="10.00"> p_startFrame</text>
<text text-anchor="middle" x="513" y="-152" font-family="Helvetica,sans-Serif" font-size="10.00">p_endFrame</text>
<text text-anchor="middle" x="513" y="-141" font-family="Helvetica,sans-Serif" font-size="10.00">p_width</text>
<text text-anchor="middle" x="513" y="-130" font-family="Helvetica,sans-Serif" font-size="10.00">p_sampling</text>
<text text-anchor="middle" x="513" y="-119" font-family="Helvetica,sans-Serif" font-size="10.00">p_height</text>
<text text-anchor="middle" x="513" y="-108" font-family="Helvetica,sans-Serif" font-size="10.00">p_lastIdx</text>
</g>
<!-- Node9 -->
<g id="node9" class="node"><title>Node9</title>
<polygon fill="white" stroke="#bfbfbf" points="532,-67.5 532,-86.5 579,-86.5 579,-67.5 532,-67.5"/>
<text text-anchor="middle" x="555.5" y="-74.5" font-family="Helvetica,sans-Serif" font-size="10.00">QColor</text>
</g>
<!-- Node9&#45;&gt;Node1 -->
<g id="edge8" class="edge"><title>Node9&#45;&gt;Node1</title>
<path fill="none" stroke="#9a32cd" stroke-dasharray="5,2" d="M540.645,-59.6348C529.107,-46.9228 513.563,-29.7978 504.331,-19.6273"/>
<polygon fill="#9a32cd" stroke="#9a32cd" points="538.23,-62.1816 547.543,-67.2338 543.414,-57.4769 538.23,-62.1816"/>
<text text-anchor="middle" x="559" y="-41" font-family="Helvetica,sans-Serif" font-size="10.00"> p_TextColor</text>
</g>
<!-- Node10 -->
<g id="node10" class="node"><title>Node10</title>
<polygon fill="white" stroke="#bfbfbf" points="605.5,-67.5 605.5,-86.5 649.5,-86.5 649.5,-67.5 605.5,-67.5"/>
<text text-anchor="middle" x="627.5" y="-74.5" font-family="Helvetica,sans-Serif" font-size="10.00">QFont</text>
</g>
<!-- Node10&#45;&gt;Node1 -->
<g id="edge10" class="edge"><title>Node10&#45;&gt;Node1</title>
<path fill="none" stroke="#9a32cd" stroke-dasharray="5,2" d="M615.137,-59.3209C608.815,-51.839 600.55,-43.4826 591.5,-38 572.435,-26.4508 548.235,-19.6687 529.032,-15.7903"/>
<polygon fill="#9a32cd" stroke="#9a32cd" points="612.644,-61.8108 621.596,-67.4776 618.132,-57.4651 612.644,-61.8108"/>
<text text-anchor="middle" x="632" y="-41" font-family="Helvetica,sans-Serif" font-size="10.00"> p_TextFont</text>
</g>
</g>
</svg>
