<?xml version="1.0" encoding="UTF-8" standalone="no"?>
<!DOCTYPE svg PUBLIC "-//W3C//DTD SVG 1.1//EN"
 "http://www.w3.org/Graphics/SVG/1.1/DTD/svg11.dtd">
<!-- Generated by graphviz version 2.38.0 (20140413.2041)
 -->
<!-- Title: MainWindow::convertFrameSizeComboBoxIndexToSize Pages: 1 -->
<svg width="1441pt" height="224pt"
 viewBox="0.00 0.00 1441.00 223.76" xmlns="http://www.w3.org/2000/svg" xmlns:xlink="http://www.w3.org/1999/xlink">
<g id="graph0" class="graph" transform="scale(1 1) rotate(0) translate(4 219.755)">
<title>MainWindow::convertFrameSizeComboBoxIndexToSize</title>
<polygon fill="white" stroke="none" points="-4,4 -4,-219.755 1437,-219.755 1437,4 -4,4"/>
<!-- Node1 -->
<g id="node1" class="node"><title>Node1</title>
<polygon fill="#bfbfbf" stroke="black" points="0,-155.338 0,-185.338 140,-185.338 140,-155.338 0,-155.338"/>
<text text-anchor="start" x="8" y="-173.338" font-family="Helvetica,sans-Serif" font-size="10.00">MainWindow::convertFrame</text>
<text text-anchor="middle" x="70" y="-162.338" font-family="Helvetica,sans-Serif" font-size="10.00">SizeComboBoxIndexToSize</text>
</g>
<!-- Node2 -->
<g id="node2" class="node"><title>Node2</title>
<g id="a_node2"><a xlink:href="classMainWindow.html#a2cae0b3ed4283301ecc11dc881d31422" target="_top" xlink:title="A file option was changed by the user (width/height/start/end/rate/sampling/frameSize/pixelFormat). ">
<polygon fill="white" stroke="black" points="176,-155.338 176,-185.338 312,-185.338 312,-155.338 176,-155.338"/>
<text text-anchor="start" x="184" y="-173.338" font-family="Helvetica,sans-Serif" font-size="10.00">MainWindow::on_fileOption</text>
<text text-anchor="middle" x="244" y="-162.338" font-family="Helvetica,sans-Serif" font-size="10.00">ValueChanged</text>
</a>
</g>
</g>
<!-- Node1&#45;&gt;Node2 -->
<g id="edge1" class="edge"><title>Node1&#45;&gt;Node2</title>
<path fill="none" stroke="midnightblue" d="M150.654,-170.338C159.059,-170.338 167.545,-170.338 175.789,-170.338"/>
<polygon fill="midnightblue" stroke="midnightblue" points="150.463,-166.838 140.463,-170.338 150.463,-173.838 150.463,-166.838"/>
</g>
<!-- Node3 -->
<g id="node3" class="node"><title>Node3</title>
<g id="a_node3"><a xlink:href="classMainWindow.html#a8b244be8b7b7db1b08de2a2acb9409db" target="_top" xlink:title="MainWindow::MainWindow">
<polygon fill="white" stroke="black" points="1298,-100.838 1298,-119.838 1433,-119.838 1433,-100.838 1298,-100.838"/>
<text text-anchor="middle" x="1365.5" y="-107.838" font-family="Helvetica,sans-Serif" font-size="10.00">MainWindow::MainWindow</text>
</a>
</g>
</g>
<!-- Node2&#45;&gt;Node3 -->
<g id="edge2" class="edge"><title>Node2&#45;&gt;Node3</title>
<path fill="none" stroke="midnightblue" d="M312.274,-187.557C324.118,-190.146 336.375,-192.545 348,-194.338 461.885,-211.908 491.268,-214.338 606.5,-214.338 606.5,-214.338 606.5,-214.338 973,-214.338 1102.33,-214.338 1140.88,-225.673 1262,-180.338 1299.54,-166.288 1336.64,-135.702 1354.12,-120.026"/>
<polygon fill="midnightblue" stroke="midnightblue" points="312.968,-184.126 302.444,-185.347 311.433,-190.955 312.968,-184.126"/>
</g>
<!-- Node4 -->
<g id="node4" class="node"><title>Node4</title>
<g id="a_node4"><a xlink:href="classMainWindow.html#a29e6418f12a4331860a7db3616e91600" target="_top" xlink:title="updates the YUV information GUI elements from the current Renderobject ">
<polygon fill="white" stroke="black" points="348,-155.338 348,-185.338 497,-185.338 497,-155.338 348,-155.338"/>
<text text-anchor="start" x="356" y="-173.338" font-family="Helvetica,sans-Serif" font-size="10.00">MainWindow::updateSelection</text>
<text text-anchor="middle" x="422.5" y="-162.338" font-family="Helvetica,sans-Serif" font-size="10.00">MetaInfo</text>
</a>
</g>
</g>
<!-- Node2&#45;&gt;Node4 -->
<g id="edge3" class="edge"><title>Node2&#45;&gt;Node4</title>
<path fill="none" stroke="midnightblue" d="M322.478,-163.633C330.951,-163.562 339.559,-163.575 347.982,-163.672"/>
<polygon fill="midnightblue" stroke="midnightblue" points="322.186,-160.136 312.231,-163.761 322.274,-167.136 322.186,-160.136"/>
</g>
<!-- Node4&#45;&gt;Node2 -->
<g id="edge17" class="edge"><title>Node4&#45;&gt;Node2</title>
<path fill="none" stroke="midnightblue" d="M337.918,-177.08C329.305,-177.111 320.633,-177.056 312.231,-176.915"/>
<polygon fill="midnightblue" stroke="midnightblue" points="338.009,-180.579 347.982,-177.004 337.956,-173.579 338.009,-180.579"/>
</g>
<!-- Node5 -->
<g id="node5" class="node"><title>Node5</title>
<g id="a_node5"><a xlink:href="classMainWindow.html#a6f33e93f427ff2df80edffcb3ad944da" target="_top" xlink:title="MainWindow::updateSelected\lItems">
<polygon fill="white" stroke="black" points="718,-115.338 718,-145.338 864,-145.338 864,-115.338 718,-115.338"/>
<text text-anchor="start" x="726" y="-133.338" font-family="Helvetica,sans-Serif" font-size="10.00">MainWindow::updateSelected</text>
<text text-anchor="middle" x="791" y="-122.338" font-family="Helvetica,sans-Serif" font-size="10.00">Items</text>
</a>
</g>
</g>
<!-- Node4&#45;&gt;Node5 -->
<g id="edge4" class="edge"><title>Node4&#45;&gt;Node5</title>
<path fill="none" stroke="midnightblue" d="M507.311,-167.886C558.052,-165.643 623.963,-161.383 682,-153.338 696.621,-151.311 712.218,-148.423 726.88,-145.374"/>
<polygon fill="midnightblue" stroke="midnightblue" points="506.889,-164.401 497.047,-168.322 507.186,-171.394 506.889,-164.401"/>
</g>
<!-- Node12 -->
<g id="node12" class="node"><title>Node12</title>
<g id="a_node12"><a xlink:href="classMainWindow.html#a23cc43af3c6873f9a936b5af05c99f49" target="_top" xlink:title="The display objects information changed. Update. ">
<polygon fill="white" stroke="black" points="533,-114.338 533,-144.338 682,-144.338 682,-114.338 533,-114.338"/>
<text text-anchor="start" x="541" y="-132.338" font-family="Helvetica,sans-Serif" font-size="10.00">MainWindow::currentSelection</text>
<text text-anchor="middle" x="607.5" y="-121.338" font-family="Helvetica,sans-Serif" font-size="10.00">InformationChanged</text>
</a>
</g>
</g>
<!-- Node4&#45;&gt;Node12 -->
<g id="edge18" class="edge"><title>Node4&#45;&gt;Node12</title>
<path fill="none" stroke="midnightblue" d="M500.414,-153.106C513.369,-150.203 526.724,-147.211 539.405,-144.37"/>
<polygon fill="midnightblue" stroke="midnightblue" points="499.596,-149.702 490.603,-155.304 501.127,-156.533 499.596,-149.702"/>
</g>
<!-- Node5&#45;&gt;Node3 -->
<g id="edge5" class="edge"><title>Node5&#45;&gt;Node3</title>
<path fill="none" stroke="midnightblue" d="M856.033,-147.622C870.394,-150.808 885.634,-153.657 900,-155.338 1059.8,-174.042 1104.68,-190.022 1262,-156.338 1294.61,-149.355 1329.39,-131.177 1348.89,-119.875"/>
<polygon fill="midnightblue" stroke="midnightblue" points="856.782,-144.203 846.252,-145.372 855.213,-151.025 856.782,-144.203"/>
</g>
<!-- Node6 -->
<g id="node6" class="node"><title>Node6</title>
<g id="a_node6"><a xlink:href="classMainWindow.html#a6be7246a1a0ecf5d1442bb1775c3d9b3" target="_top" xlink:title="MainWindow::addDifference\lSequence">
<polygon fill="white" stroke="black" points="902,-116.338 902,-146.338 1042,-146.338 1042,-116.338 902,-116.338"/>
<text text-anchor="start" x="910" y="-134.338" font-family="Helvetica,sans-Serif" font-size="10.00">MainWindow::addDifference</text>
<text text-anchor="middle" x="972" y="-123.338" font-family="Helvetica,sans-Serif" font-size="10.00">Sequence</text>
</a>
</g>
</g>
<!-- Node5&#45;&gt;Node6 -->
<g id="edge6" class="edge"><title>Node5&#45;&gt;Node6</title>
<path fill="none" stroke="midnightblue" d="M874.317,-130.798C883.483,-130.849 892.75,-130.901 901.73,-130.951"/>
<polygon fill="midnightblue" stroke="midnightblue" points="874.052,-127.296 864.032,-130.74 874.013,-134.296 874.052,-127.296"/>
</g>
<!-- Node9 -->
<g id="node9" class="node"><title>Node9</title>
<g id="a_node9"><a xlink:href="classMainWindow.html#af5ecc7c65080215b49b9d931c56c65c9" target="_top" xlink:title="MainWindow::editTextFrame">
<polygon fill="white" stroke="black" points="901,-77.8381 901,-96.8381 1043,-96.8381 1043,-77.8381 901,-77.8381"/>
<text text-anchor="middle" x="972" y="-84.8381" font-family="Helvetica,sans-Serif" font-size="10.00">MainWindow::editTextFrame</text>
</a>
</g>
</g>
<!-- Node5&#45;&gt;Node9 -->
<g id="edge11" class="edge"><title>Node5&#45;&gt;Node9</title>
<path fill="none" stroke="midnightblue" d="M864.609,-112.896C887.414,-107.417 911.736,-101.575 931.361,-96.8603"/>
<polygon fill="midnightblue" stroke="midnightblue" points="863.511,-109.56 854.606,-115.299 865.146,-116.366 863.511,-109.56"/>
</g>
<!-- Node11 -->
<g id="node11" class="node"><title>Node11</title>
<g id="a_node11"><a xlink:href="classMainWindow.html#a156c29c6d7ab278e4246c88a0fcbe2f2" target="_top" xlink:title="MainWindow::updateSettings">
<polygon fill="white" stroke="black" points="900,-14.8381 900,-33.8381 1044,-33.8381 1044,-14.8381 900,-14.8381"/>
<text text-anchor="middle" x="972" y="-21.8381" font-family="Helvetica,sans-Serif" font-size="10.00">MainWindow::updateSettings</text>
</a>
</g>
</g>
<!-- Node5&#45;&gt;Node11 -->
<g id="edge15" class="edge"><title>Node5&#45;&gt;Node11</title>
<path fill="none" stroke="midnightblue" d="M826.438,-109.945C864.883,-87.1782 925.499,-51.283 954.488,-34.1158"/>
<polygon fill="midnightblue" stroke="midnightblue" points="824.467,-107.044 817.646,-115.151 828.034,-113.067 824.467,-107.044"/>
</g>
<!-- Node7 -->
<g id="node7" class="node"><title>Node7</title>
<g id="a_node7"><a xlink:href="classMainWindow.html#a9df7443ce5f907903438bb6a9abe9a33" target="_top" xlink:title="MainWindow::createMenusAnd\lActions">
<polygon fill="white" stroke="black" points="1095,-117.338 1095,-147.338 1247,-147.338 1247,-117.338 1095,-117.338"/>
<text text-anchor="start" x="1103" y="-135.338" font-family="Helvetica,sans-Serif" font-size="10.00">MainWindow::createMenusAnd</text>
<text text-anchor="middle" x="1171" y="-124.338" font-family="Helvetica,sans-Serif" font-size="10.00">Actions</text>
</a>
</g>
</g>
<!-- Node6&#45;&gt;Node7 -->
<g id="edge7" class="edge"><title>Node6&#45;&gt;Node7</title>
<path fill="none" stroke="midnightblue" d="M1052.31,-131.741C1066.39,-131.812 1081,-131.886 1094.96,-131.957"/>
<polygon fill="midnightblue" stroke="midnightblue" points="1052.2,-128.24 1042.18,-131.689 1052.16,-135.24 1052.2,-128.24"/>
</g>
<!-- Node8 -->
<g id="node8" class="node"><title>Node8</title>
<g id="a_node8"><a xlink:href="classMainWindow.html#aaba5c236313378986c42c4a634c4cfb9" target="_top" xlink:title="MainWindow::onCustomContextMenu">
<polygon fill="white" stroke="black" points="1080,-78.8381 1080,-97.8381 1262,-97.8381 1262,-78.8381 1080,-78.8381"/>
<text text-anchor="middle" x="1171" y="-85.8381" font-family="Helvetica,sans-Serif" font-size="10.00">MainWindow::onCustomContextMenu</text>
</a>
</g>
</g>
<!-- Node6&#45;&gt;Node8 -->
<g id="edge9" class="edge"><title>Node6&#45;&gt;Node8</title>
<path fill="none" stroke="midnightblue" d="M1049.3,-114.102C1059.61,-111.807 1070.06,-109.502 1080,-107.338 1094.36,-104.213 1110.02,-100.88 1124.19,-97.8925"/>
<polygon fill="midnightblue" stroke="midnightblue" points="1048.47,-110.701 1039.47,-116.293 1049.99,-117.533 1048.47,-110.701"/>
</g>
<!-- Node7&#45;&gt;Node3 -->
<g id="edge8" class="edge"><title>Node7&#45;&gt;Node3</title>
<path fill="none" stroke="midnightblue" d="M1257.5,-122.567C1270.99,-121.025 1284.77,-119.45 1297.75,-117.966"/>
<polygon fill="midnightblue" stroke="midnightblue" points="1256.79,-119.125 1247.25,-123.738 1257.59,-126.08 1256.79,-119.125"/>
</g>
<!-- Node8&#45;&gt;Node3 -->
<g id="edge10" class="edge"><title>Node8&#45;&gt;Node3</title>
<path fill="none" stroke="midnightblue" d="M1265.36,-99.0081C1276.34,-100.262 1287.36,-101.523 1297.87,-102.723"/>
<polygon fill="midnightblue" stroke="midnightblue" points="1265.65,-95.5178 1255.31,-97.8596 1264.85,-102.473 1265.65,-95.5178"/>
</g>
<!-- Node9&#45;&gt;Node8 -->
<g id="edge12" class="edge"><title>Node9&#45;&gt;Node8</title>
<path fill="none" stroke="midnightblue" d="M1053.21,-87.7452C1062,-87.7898 1070.99,-87.8355 1079.89,-87.8806"/>
<polygon fill="midnightblue" stroke="midnightblue" points="1053.03,-84.2443 1043.01,-87.6934 1052.99,-91.2442 1053.03,-84.2443"/>
</g>
<!-- Node10 -->
<g id="node10" class="node"><title>Node10</title>
<g id="a_node10"><a xlink:href="classMainWindow.html#ab18c663524e2c130759c0ca960129ea4" target="_top" xlink:title="MainWindow::onItemDouble\lClicked">
<polygon fill="white" stroke="black" points="1101,-29.3381 1101,-59.3381 1241,-59.3381 1241,-29.3381 1101,-29.3381"/>
<text text-anchor="start" x="1109" y="-47.3381" font-family="Helvetica,sans-Serif" font-size="10.00">MainWindow::onItemDouble</text>
<text text-anchor="middle" x="1171" y="-36.3381" font-family="Helvetica,sans-Serif" font-size="10.00">Clicked</text>
</a>
</g>
</g>
<!-- Node9&#45;&gt;Node10 -->
<g id="edge13" class="edge"><title>Node9&#45;&gt;Node10</title>
<path fill="none" stroke="midnightblue" d="M1026.64,-75.6303C1049.64,-70.6092 1076.8,-64.6821 1101.25,-59.3443"/>
<polygon fill="midnightblue" stroke="midnightblue" points="1025.74,-72.2429 1016.72,-77.795 1027.24,-79.0818 1025.74,-72.2429"/>
</g>
<!-- Node10&#45;&gt;Node3 -->
<g id="edge14" class="edge"><title>Node10&#45;&gt;Node3</title>
<path fill="none" stroke="midnightblue" d="M1239.52,-62.2268C1247.14,-64.5019 1254.76,-66.8934 1262,-69.3381 1290.33,-78.9056 1322.19,-92.0376 1342.77,-100.837"/>
<polygon fill="midnightblue" stroke="midnightblue" points="1240.48,-58.8609 1229.9,-59.4119 1238.52,-65.5793 1240.48,-58.8609"/>
</g>
<!-- Node11&#45;&gt;Node3 -->
<g id="edge16" class="edge"><title>Node11&#45;&gt;Node3</title>
<path fill="none" stroke="midnightblue" d="M1021.77,-12.8004C1080.79,-1.21246 1182.18,10.9824 1262,-19.3381 1305.82,-35.9845 1342.9,-80.8993 1357.66,-100.718"/>
<polygon fill="midnightblue" stroke="midnightblue" points="1021.06,-9.37201 1011.96,-14.797 1022.46,-16.2313 1021.06,-9.37201"/>
</g>
<!-- Node12&#45;&gt;Node5 -->
<g id="edge19" class="edge"><title>Node12&#45;&gt;Node5</title>
<path fill="none" stroke="midnightblue" d="M692.087,-129.799C700.678,-129.846 709.354,-129.894 717.806,-129.94"/>
<polygon fill="midnightblue" stroke="midnightblue" points="692.081,-126.299 682.061,-129.743 692.042,-133.298 692.081,-126.299"/>
</g>
</g>
</svg>
