<?xml version="1.0" encoding="UTF-8" standalone="no"?>
<!DOCTYPE svg PUBLIC "-//W3C//DTD SVG 1.1//EN"
 "http://www.w3.org/Graphics/SVG/1.1/DTD/svg11.dtd">
<!-- Generated by graphviz version 2.38.0 (20140413.2041)
 -->
<!-- Title: statisticSourceFile::loadStatisticToCache Pages: 1 -->
<svg width="324pt" height="165pt"
 viewBox="0.00 0.00 324.00 165.00" xmlns="http://www.w3.org/2000/svg" xmlns:xlink="http://www.w3.org/1999/xlink">
<g id="graph0" class="graph" transform="scale(1 1) rotate(0) translate(4 161)">
<title>statisticSourceFile::loadStatisticToCache</title>
<polygon fill="white" stroke="none" points="-4,4 -4,-161 320,-161 320,4 -4,4"/>
<!-- Node1 -->
<g id="node1" class="node"><title>Node1</title>
<polygon fill="#bfbfbf" stroke="black" points="0,-63.5 0,-93.5 116,-93.5 116,-63.5 0,-63.5"/>
<text text-anchor="start" x="8" y="-81.5" font-family="Helvetica,sans-Serif" font-size="10.00">statisticSourceFile</text>
<text text-anchor="middle" x="58" y="-70.5" font-family="Helvetica,sans-Serif" font-size="10.00">::loadStatisticToCache</text>
</g>
<!-- Node2 -->
<g id="node2" class="node"><title>Node2</title>
<g id="a_node2"><a xlink:href="classstatisticSourceFile.html#aa23abfcfc67bf87bc3fb3f8948f1fa44" target="_top" xlink:title="statisticSourceFile\l::parseCSVLine">
<polygon fill="white" stroke="black" points="185,-126.5 185,-156.5 283,-156.5 283,-126.5 185,-126.5"/>
<text text-anchor="start" x="193" y="-144.5" font-family="Helvetica,sans-Serif" font-size="10.00">statisticSourceFile</text>
<text text-anchor="middle" x="234" y="-133.5" font-family="Helvetica,sans-Serif" font-size="10.00">::parseCSVLine</text>
</a>
</g>
</g>
<!-- Node1&#45;&gt;Node2 -->
<g id="edge1" class="edge"><title>Node1&#45;&gt;Node2</title>
<path fill="none" stroke="midnightblue" d="M94.0451,-93.6772C111.349,-100.951 132.622,-109.566 152,-116.5 159.405,-119.15 167.247,-121.782 175.023,-124.29"/>
<polygon fill="midnightblue" stroke="midnightblue" points="174.207,-127.703 184.797,-127.391 176.324,-121.031 174.207,-127.703"/>
</g>
<!-- Node3 -->
<g id="node3" class="node"><title>Node3</title>
<g id="a_node3"><a xlink:href="classstatisticSource.html#accae8cdfc95b05e3ef9a945b1f579c46" target="_top" xlink:title="statisticSource::getStatisticsType">
<polygon fill="white" stroke="black" points="152,-88 152,-107 316,-107 316,-88 152,-88"/>
<text text-anchor="middle" x="234" y="-95" font-family="Helvetica,sans-Serif" font-size="10.00">statisticSource::getStatisticsType</text>
</a>
</g>
</g>
<!-- Node1&#45;&gt;Node3 -->
<g id="edge2" class="edge"><title>Node1&#45;&gt;Node3</title>
<path fill="none" stroke="midnightblue" d="M116.456,-84.774C124.638,-85.6674 133.216,-86.6041 141.848,-87.5467"/>
<polygon fill="midnightblue" stroke="midnightblue" points="141.666,-91.0474 151.987,-88.6537 142.426,-84.0888 141.666,-91.0474"/>
</g>
<!-- Node4 -->
<g id="node4" class="node"><title>Node4</title>
<g id="a_node4"><a xlink:href="classColorRange.html#ab14e6c6fd346fdf7a003cbae112daa99" target="_top" xlink:title="ColorRange::getColor">
<polygon fill="white" stroke="black" points="178.5,-50 178.5,-69 289.5,-69 289.5,-50 178.5,-50"/>
<text text-anchor="middle" x="234" y="-57" font-family="Helvetica,sans-Serif" font-size="10.00">ColorRange::getColor</text>
</a>
</g>
</g>
<!-- Node1&#45;&gt;Node4 -->
<g id="edge3" class="edge"><title>Node1&#45;&gt;Node4</title>
<path fill="none" stroke="midnightblue" d="M116.456,-72.226C132.933,-70.4268 151.015,-68.4524 167.916,-66.6069"/>
<polygon fill="midnightblue" stroke="midnightblue" points="168.701,-70.0421 178.262,-65.4772 167.941,-63.0835 168.701,-70.0421"/>
</g>
<!-- Node5 -->
<g id="node5" class="node"><title>Node5</title>
<g id="a_node5"><a xlink:href="classstatisticSourceFile.html#a0043c75ff2dd4df7c926e6feaa02da12" target="_top" xlink:title="Error while parsing. Set the error message that will be returned by status(). Also set p_numberFrames...">
<polygon fill="white" stroke="black" points="185,-0.5 185,-30.5 283,-30.5 283,-0.5 185,-0.5"/>
<text text-anchor="start" x="193" y="-18.5" font-family="Helvetica,sans-Serif" font-size="10.00">statisticSourceFile</text>
<text text-anchor="middle" x="234" y="-7.5" font-family="Helvetica,sans-Serif" font-size="10.00">::setErrorState</text>
</a>
</g>
</g>
<!-- Node1&#45;&gt;Node5 -->
<g id="edge4" class="edge"><title>Node1&#45;&gt;Node5</title>
<path fill="none" stroke="midnightblue" d="M94.0451,-63.3228C111.349,-56.0493 132.622,-47.434 152,-40.5 159.405,-37.8504 167.247,-35.2176 175.023,-32.7101"/>
<polygon fill="midnightblue" stroke="midnightblue" points="176.324,-35.9693 184.797,-29.6091 174.207,-29.2971 176.324,-35.9693"/>
</g>
</g>
</svg>
