<?xml version="1.0" encoding="UTF-8" standalone="no"?>
<!DOCTYPE svg PUBLIC "-//W3C//DTD SVG 1.1//EN"
 "http://www.w3.org/Graphics/SVG/1.1/DTD/svg11.dtd">
<!-- Generated by graphviz version 2.38.0 (20140413.2041)
 -->
<!-- Title: MainWindow::updateFrameControls Pages: 1 -->
<svg width="554pt" height="154pt"
 viewBox="0.00 0.00 554.00 153.50" xmlns="http://www.w3.org/2000/svg" xmlns:xlink="http://www.w3.org/1999/xlink">
<g id="graph0" class="graph" transform="scale(1 1) rotate(0) translate(4 149.5)">
<title>MainWindow::updateFrameControls</title>
<polygon fill="white" stroke="none" points="-4,4 -4,-149.5 550,-149.5 550,4 -4,4"/>
<!-- Node1 -->
<g id="node1" class="node"><title>Node1</title>
<polygon fill="#bfbfbf" stroke="black" points="0,-57.5 0,-76.5 173,-76.5 173,-57.5 0,-57.5"/>
<text text-anchor="middle" x="86.5" y="-64.5" font-family="Helvetica,sans-Serif" font-size="10.00">MainWindow::updateFrameControls</text>
</g>
<!-- Node2 -->
<g id="node2" class="node"><title>Node2</title>
<g id="a_node2"><a xlink:href="classMainWindow.html#a904474dcf6f3da3e95bba2380192129a" target="_top" xlink:title="set current frame for playback ">
<polygon fill="white" stroke="black" points="209,-57.5 209,-76.5 361,-76.5 361,-57.5 209,-57.5"/>
<text text-anchor="middle" x="285" y="-64.5" font-family="Helvetica,sans-Serif" font-size="10.00">MainWindow::setCurrentFrame</text>
</a>
</g>
</g>
<!-- Node1&#45;&gt;Node2 -->
<g id="edge1" class="edge"><title>Node1&#45;&gt;Node2</title>
<path fill="none" stroke="midnightblue" d="M173.116,-60.2999C181.572,-60.2328 190.154,-60.2334 198.608,-60.3016"/>
<polygon fill="midnightblue" stroke="midnightblue" points="198.798,-63.804 208.838,-60.4185 198.878,-56.8044 198.798,-63.804"/>
</g>
<!-- Node2&#45;&gt;Node1 -->
<g id="edge6" class="edge"><title>Node2&#45;&gt;Node1</title>
<path fill="none" stroke="midnightblue" d="M208.838,-73.5815C200.441,-73.7062 191.805,-73.7616 183.195,-73.748"/>
<polygon fill="midnightblue" stroke="midnightblue" points="183.133,-70.2477 173.116,-73.7001 183.099,-77.2477 183.133,-70.2477"/>
</g>
<!-- Node3 -->
<g id="node3" class="node"><title>Node3</title>
<g id="a_node3"><a xlink:href="classMainWindow.html#aea2b70d7ccb204793c3121600f612c84" target="_top" xlink:title="Return the primary and secondary playlist item that is currently selected. ">
<polygon fill="white" stroke="black" points="397,-115 397,-145 546,-145 546,-115 397,-115"/>
<text text-anchor="start" x="405" y="-133" font-family="Helvetica,sans-Serif" font-size="10.00">MainWindow::selectedPrimary</text>
<text text-anchor="middle" x="471.5" y="-122" font-family="Helvetica,sans-Serif" font-size="10.00">PlaylistItem</text>
</a>
</g>
</g>
<!-- Node2&#45;&gt;Node3 -->
<g id="edge2" class="edge"><title>Node2&#45;&gt;Node3</title>
<path fill="none" stroke="midnightblue" d="M313.821,-76.5414C336.269,-84.2358 368.662,-95.3301 397,-105 403.342,-107.164 409.993,-109.431 416.594,-111.678"/>
<polygon fill="midnightblue" stroke="midnightblue" points="415.593,-115.034 426.187,-114.943 417.848,-108.408 415.593,-115.034"/>
</g>
<!-- Node4 -->
<g id="node4" class="node"><title>Node4</title>
<g id="a_node4"><a xlink:href="classPlaylistItem.html#a3d4d575a397a3725e62ab425dcf214a5" target="_top" xlink:title="PlaylistItem::displayObject">
<polygon fill="white" stroke="black" points="404.5,-76.5 404.5,-95.5 538.5,-95.5 538.5,-76.5 404.5,-76.5"/>
<text text-anchor="middle" x="471.5" y="-83.5" font-family="Helvetica,sans-Serif" font-size="10.00">PlaylistItem::displayObject</text>
</a>
</g>
</g>
<!-- Node2&#45;&gt;Node4 -->
<g id="edge3" class="edge"><title>Node2&#45;&gt;Node4</title>
<path fill="none" stroke="midnightblue" d="M361.043,-74.728C372.042,-75.8607 383.38,-77.0283 394.4,-78.1631"/>
<polygon fill="midnightblue" stroke="midnightblue" points="394.106,-81.6513 404.412,-79.1942 394.824,-74.6882 394.106,-81.6513"/>
</g>
<!-- Node5 -->
<g id="node5" class="node"><title>Node5</title>
<g id="a_node5"><a xlink:href="classDisplayObject.html#aadedaec1d9a5ec4adbf8f33e0f802350" target="_top" xlink:title="DisplayObject::endFrame">
<polygon fill="white" stroke="black" points="407.5,-38.5 407.5,-57.5 535.5,-57.5 535.5,-38.5 407.5,-38.5"/>
<text text-anchor="middle" x="471.5" y="-45.5" font-family="Helvetica,sans-Serif" font-size="10.00">DisplayObject::endFrame</text>
</a>
</g>
</g>
<!-- Node2&#45;&gt;Node5 -->
<g id="edge4" class="edge"><title>Node2&#45;&gt;Node5</title>
<path fill="none" stroke="midnightblue" d="M361.043,-59.272C372.926,-58.0483 385.204,-56.7839 397.05,-55.564"/>
<polygon fill="midnightblue" stroke="midnightblue" points="397.739,-59.0116 407.328,-54.5055 397.022,-52.0484 397.739,-59.0116"/>
</g>
<!-- Node6 -->
<g id="node6" class="node"><title>Node6</title>
<g id="a_node6"><a xlink:href="classDisplayObject.html#aaaa354081106c97409a4bc2bbc2059fe" target="_top" xlink:title="DisplayObject::startFrame">
<polygon fill="white" stroke="black" points="406,-0.5 406,-19.5 537,-19.5 537,-0.5 406,-0.5"/>
<text text-anchor="middle" x="471.5" y="-7.5" font-family="Helvetica,sans-Serif" font-size="10.00">DisplayObject::startFrame</text>
</a>
</g>
</g>
<!-- Node2&#45;&gt;Node6 -->
<g id="edge5" class="edge"><title>Node2&#45;&gt;Node6</title>
<path fill="none" stroke="midnightblue" d="M312.28,-57.365C334.656,-49.3154 367.735,-37.7778 397,-29 404.898,-26.6311 413.325,-24.2852 421.552,-22.0927"/>
<polygon fill="midnightblue" stroke="midnightblue" points="422.651,-25.423 431.437,-19.5031 420.877,-18.6515 422.651,-25.423"/>
</g>
</g>
</svg>
