<?xml version="1.0" encoding="UTF-8" standalone="no"?>
<!DOCTYPE svg PUBLIC "-//W3C//DTD SVG 1.1//EN"
 "http://www.w3.org/Graphics/SVG/1.1/DTD/svg11.dtd">
<!-- Generated by graphviz version 2.38.0 (20140413.2041)
 -->
<!-- Title: FrameObject::setSrcPixelFormat Pages: 1 -->
<svg width="1442pt" height="445pt"
 viewBox="0.00 0.00 1442.00 444.88" xmlns="http://www.w3.org/2000/svg" xmlns:xlink="http://www.w3.org/1999/xlink">
<g id="graph0" class="graph" transform="scale(1 1) rotate(0) translate(4 440.877)">
<title>FrameObject::setSrcPixelFormat</title>
<polygon fill="white" stroke="none" points="-4,4 -4,-440.877 1438,-440.877 1438,4 -4,4"/>
<!-- Node1 -->
<g id="node1" class="node"><title>Node1</title>
<polygon fill="#bfbfbf" stroke="black" points="0,-103.877 0,-133.877 129,-133.877 129,-103.877 0,-103.877"/>
<text text-anchor="start" x="8" y="-121.877" font-family="Helvetica,sans-Serif" font-size="10.00">FrameObject::setSrcPixel</text>
<text text-anchor="middle" x="64.5" y="-110.877" font-family="Helvetica,sans-Serif" font-size="10.00">Format</text>
</g>
<!-- Node2 -->
<g id="node2" class="node"><title>Node2</title>
<g id="a_node2"><a xlink:href="classMainWindow.html#a2d8cea1d443550a8f14ce8c80d2608c6" target="_top" xlink:title="MainWindow::loadPlaylistFile">
<polygon fill="white" stroke="black" points="165,-157.377 165,-176.377 310,-176.377 310,-157.377 165,-157.377"/>
<text text-anchor="middle" x="237.5" y="-164.377" font-family="Helvetica,sans-Serif" font-size="10.00">MainWindow::loadPlaylistFile</text>
</a>
</g>
</g>
<!-- Node1&#45;&gt;Node2 -->
<g id="edge1" class="edge"><title>Node1&#45;&gt;Node2</title>
<path fill="none" stroke="midnightblue" d="M128.895,-136.672C153.81,-143.666 181.415,-151.415 202.427,-157.313"/>
<polygon fill="midnightblue" stroke="midnightblue" points="129.71,-133.266 119.136,-133.933 127.818,-140.005 129.71,-133.266"/>
</g>
<!-- Node13 -->
<g id="node13" class="node"><title>Node13</title>
<g id="a_node13"><a xlink:href="classMainWindow.html#a2cae0b3ed4283301ecc11dc881d31422" target="_top" xlink:title="A file option was changed by the user (width/height/start/end/rate/sampling/frameSize/pixelFormat). ">
<polygon fill="white" stroke="black" points="169.5,-56.8772 169.5,-86.8772 305.5,-86.8772 305.5,-56.8772 169.5,-56.8772"/>
<text text-anchor="start" x="177.5" y="-74.8772" font-family="Helvetica,sans-Serif" font-size="10.00">MainWindow::on_fileOption</text>
<text text-anchor="middle" x="237.5" y="-63.8772" font-family="Helvetica,sans-Serif" font-size="10.00">ValueChanged</text>
</a>
</g>
</g>
<!-- Node1&#45;&gt;Node13 -->
<g id="edge14" class="edge"><title>Node1&#45;&gt;Node13</title>
<path fill="none" stroke="midnightblue" d="M129.976,-101.156C147.064,-96.4589 165.347,-91.434 181.856,-86.8962"/>
<polygon fill="midnightblue" stroke="midnightblue" points="128.79,-97.8517 120.076,-103.877 130.646,-104.601 128.79,-97.8517"/>
</g>
<!-- Node3 -->
<g id="node3" class="node"><title>Node3</title>
<g id="a_node3"><a xlink:href="classMainWindow.html#a8ef1be3cb02e12d68d12375d1a7a0ced" target="_top" xlink:title="loads a list of yuv/csv files ">
<polygon fill="white" stroke="black" points="730,-291.377 730,-310.377 848,-310.377 848,-291.377 730,-291.377"/>
<text text-anchor="middle" x="789" y="-298.377" font-family="Helvetica,sans-Serif" font-size="10.00">MainWindow::loadFiles</text>
</a>
</g>
</g>
<!-- Node2&#45;&gt;Node3 -->
<g id="edge2" class="edge"><title>Node2&#45;&gt;Node3</title>
<path fill="none" stroke="midnightblue" d="M287.53,-178.834C395.243,-205.1 650.711,-267.398 748.753,-291.307"/>
<polygon fill="midnightblue" stroke="midnightblue" points="288.123,-175.376 277.578,-176.407 286.464,-182.176 288.123,-175.376"/>
</g>
<!-- Node4 -->
<g id="node4" class="node"><title>Node4</title>
<g id="a_node4"><a xlink:href="classDisplaySplitWidget.html#ac1d4ced58b2ac2b08153694a5de6232e" target="_top" xlink:title="DisplaySplitWidget\l::dropEvent">
<polygon fill="white" stroke="black" points="921.5,-329.877 921.5,-359.877 1021.5,-359.877 1021.5,-329.877 921.5,-329.877"/>
<text text-anchor="start" x="929.5" y="-347.877" font-family="Helvetica,sans-Serif" font-size="10.00">DisplaySplitWidget</text>
<text text-anchor="middle" x="971.5" y="-336.877" font-family="Helvetica,sans-Serif" font-size="10.00">::dropEvent</text>
</a>
</g>
</g>
<!-- Node3&#45;&gt;Node4 -->
<g id="edge3" class="edge"><title>Node3&#45;&gt;Node4</title>
<path fill="none" stroke="midnightblue" d="M839.03,-312.829C864.613,-319.065 895.823,-326.673 921.414,-332.912"/>
<polygon fill="midnightblue" stroke="midnightblue" points="839.71,-309.393 829.166,-310.425 838.052,-316.193 839.71,-309.393"/>
</g>
<!-- Node5 -->
<g id="node5" class="node"><title>Node5</title>
<g id="a_node5"><a xlink:href="classMainWindow.html#a288b768c3c21a9171bdc56fe845ece8b" target="_top" xlink:title="Shows the file open dialog and loads all selected Files. ">
<polygon fill="white" stroke="black" points="913.5,-203.377 913.5,-222.377 1029.5,-222.377 1029.5,-203.377 913.5,-203.377"/>
<text text-anchor="middle" x="971.5" y="-210.377" font-family="Helvetica,sans-Serif" font-size="10.00">MainWindow::openFile</text>
</a>
</g>
</g>
<!-- Node3&#45;&gt;Node5 -->
<g id="edge4" class="edge"><title>Node3&#45;&gt;Node5</title>
<path fill="none" stroke="midnightblue" d="M810.785,-285.184C831.806,-269.958 865.718,-247.121 898,-232.877 907.318,-228.766 917.688,-225.303 927.604,-222.476"/>
<polygon fill="midnightblue" stroke="midnightblue" points="808.591,-282.454 802.607,-291.197 812.737,-288.093 808.591,-282.454"/>
</g>
<!-- Node9 -->
<g id="node9" class="node"><title>Node9</title>
<g id="a_node9"><a xlink:href="classMainWindow.html#a935316315edb9b7af42657da20be0e54" target="_top" xlink:title="MainWindow::openRecentFile">
<polygon fill="white" stroke="black" points="898,-291.377 898,-310.377 1045,-310.377 1045,-291.377 898,-291.377"/>
<text text-anchor="middle" x="971.5" y="-298.377" font-family="Helvetica,sans-Serif" font-size="10.00">MainWindow::openRecentFile</text>
</a>
</g>
</g>
<!-- Node3&#45;&gt;Node9 -->
<g id="edge9" class="edge"><title>Node3&#45;&gt;Node9</title>
<path fill="none" stroke="midnightblue" d="M858.33,-300.877C871.278,-300.877 884.867,-300.877 897.941,-300.877"/>
<polygon fill="midnightblue" stroke="midnightblue" points="858.105,-297.377 848.105,-300.877 858.105,-304.377 858.105,-297.377"/>
</g>
<!-- Node10 -->
<g id="node10" class="node"><title>Node10</title>
<g id="a_node10"><a xlink:href="classPlaylistTreeWidget.html#a295170eb269cc67050ea0b575cd0ab53" target="_top" xlink:title="PlaylistTreeWidget\l::dropEvent">
<polygon fill="white" stroke="black" points="922,-241.877 922,-271.877 1021,-271.877 1021,-241.877 922,-241.877"/>
<text text-anchor="start" x="930" y="-259.877" font-family="Helvetica,sans-Serif" font-size="10.00">PlaylistTreeWidget</text>
<text text-anchor="middle" x="971.5" y="-248.877" font-family="Helvetica,sans-Serif" font-size="10.00">::dropEvent</text>
</a>
</g>
</g>
<!-- Node3&#45;&gt;Node10 -->
<g id="edge11" class="edge"><title>Node3&#45;&gt;Node10</title>
<path fill="none" stroke="midnightblue" d="M839.069,-288.916C864.755,-282.654 896.107,-275.012 921.747,-268.762"/>
<polygon fill="midnightblue" stroke="midnightblue" points="838.052,-285.561 829.166,-291.33 839.71,-292.362 838.052,-285.561"/>
</g>
<!-- Node11 -->
<g id="node11" class="node"><title>Node11</title>
<g id="a_node11"><a xlink:href="classYUViewApp.html#ac0f5381cc5b703a9ea704b5eedab4b7f" target="_top" xlink:title="YUViewApp::YUViewApp">
<polygon fill="white" stroke="black" points="907,-417.377 907,-436.377 1036,-436.377 1036,-417.377 907,-417.377"/>
<text text-anchor="middle" x="971.5" y="-424.377" font-family="Helvetica,sans-Serif" font-size="10.00">YUViewApp::YUViewApp</text>
</a>
</g>
</g>
<!-- Node3&#45;&gt;Node11 -->
<g id="edge12" class="edge"><title>Node3&#45;&gt;Node11</title>
<path fill="none" stroke="midnightblue" d="M803.085,-318.763C821.55,-342.696 857.548,-384.795 898,-407.877 904.781,-411.746 912.366,-414.846 920.005,-417.323"/>
<polygon fill="midnightblue" stroke="midnightblue" points="805.71,-316.432 796.893,-310.557 800.122,-320.648 805.71,-316.432"/>
</g>
<!-- Node12 -->
<g id="node12" class="node"><title>Node12</title>
<g id="a_node12"><a xlink:href="classYUViewApp.html#a2f5f937d6677018ef73a5ffc248f9891" target="_top" xlink:title="YUViewApp::event">
<polygon fill="white" stroke="black" points="921.5,-379.377 921.5,-398.377 1021.5,-398.377 1021.5,-379.377 921.5,-379.377"/>
<text text-anchor="middle" x="971.5" y="-386.377" font-family="Helvetica,sans-Serif" font-size="10.00">YUViewApp::event</text>
</a>
</g>
</g>
<!-- Node3&#45;&gt;Node12 -->
<g id="edge13" class="edge"><title>Node3&#45;&gt;Node12</title>
<path fill="none" stroke="midnightblue" d="M810.363,-316.653C831.298,-332.186 865.359,-355.597 898,-369.877 906.583,-373.632 916.073,-376.778 925.281,-379.36"/>
<polygon fill="midnightblue" stroke="midnightblue" points="812.33,-313.752 802.237,-310.528 808.116,-319.342 812.33,-313.752"/>
</g>
<!-- Node6 -->
<g id="node6" class="node"><title>Node6</title>
<g id="a_node6"><a xlink:href="classMainWindow.html#a9df7443ce5f907903438bb6a9abe9a33" target="_top" xlink:title="MainWindow::createMenusAnd\lActions">
<polygon fill="white" stroke="black" points="1096,-200.877 1096,-230.877 1248,-230.877 1248,-200.877 1096,-200.877"/>
<text text-anchor="start" x="1104" y="-218.877" font-family="Helvetica,sans-Serif" font-size="10.00">MainWindow::createMenusAnd</text>
<text text-anchor="middle" x="1172" y="-207.877" font-family="Helvetica,sans-Serif" font-size="10.00">Actions</text>
</a>
</g>
</g>
<!-- Node5&#45;&gt;Node6 -->
<g id="edge5" class="edge"><title>Node5&#45;&gt;Node6</title>
<path fill="none" stroke="midnightblue" d="M1039.76,-213.894C1057.78,-214.166 1077.37,-214.462 1095.78,-214.74"/>
<polygon fill="midnightblue" stroke="midnightblue" points="1039.7,-210.393 1029.65,-213.741 1039.59,-217.392 1039.7,-210.393"/>
</g>
<!-- Node8 -->
<g id="node8" class="node"><title>Node8</title>
<g id="a_node8"><a xlink:href="classMainWindow.html#aaba5c236313378986c42c4a634c4cfb9" target="_top" xlink:title="MainWindow::onCustomContextMenu">
<polygon fill="white" stroke="black" points="1081,-162.377 1081,-181.377 1263,-181.377 1263,-162.377 1081,-162.377"/>
<text text-anchor="middle" x="1172" y="-169.377" font-family="Helvetica,sans-Serif" font-size="10.00">MainWindow::onCustomContextMenu</text>
</a>
</g>
</g>
<!-- Node5&#45;&gt;Node8 -->
<g id="edge7" class="edge"><title>Node5&#45;&gt;Node8</title>
<path fill="none" stroke="midnightblue" d="M1028.58,-201.295C1059,-195.011 1096.14,-187.339 1124.87,-181.406"/>
<polygon fill="midnightblue" stroke="midnightblue" points="1027.62,-197.917 1018.54,-203.368 1029.04,-204.773 1027.62,-197.917"/>
</g>
<!-- Node7 -->
<g id="node7" class="node"><title>Node7</title>
<g id="a_node7"><a xlink:href="classMainWindow.html#a8b244be8b7b7db1b08de2a2acb9409db" target="_top" xlink:title="MainWindow::MainWindow">
<polygon fill="white" stroke="black" points="1299,-96.3772 1299,-115.377 1434,-115.377 1434,-96.3772 1299,-96.3772"/>
<text text-anchor="middle" x="1366.5" y="-103.377" font-family="Helvetica,sans-Serif" font-size="10.00">MainWindow::MainWindow</text>
</a>
</g>
</g>
<!-- Node6&#45;&gt;Node7 -->
<g id="edge6" class="edge"><title>Node6&#45;&gt;Node7</title>
<path fill="none" stroke="midnightblue" d="M1249,-197.3C1253.83,-195.348 1258.53,-193.212 1263,-190.877 1302.13,-170.423 1339.93,-133.175 1356.6,-115.578"/>
<polygon fill="midnightblue" stroke="midnightblue" points="1247.74,-194.035 1239.61,-200.829 1250.2,-200.588 1247.74,-194.035"/>
</g>
<!-- Node8&#45;&gt;Node7 -->
<g id="edge8" class="edge"><title>Node8&#45;&gt;Node7</title>
<path fill="none" stroke="midnightblue" d="M1234.4,-159.989C1244.06,-157.616 1253.87,-154.906 1263,-151.877 1293.36,-141.807 1326.89,-125.761 1347.06,-115.528"/>
<polygon fill="midnightblue" stroke="midnightblue" points="1233.35,-156.64 1224.42,-162.339 1234.96,-163.453 1233.35,-156.64"/>
</g>
<!-- Node9&#45;&gt;Node6 -->
<g id="edge10" class="edge"><title>Node9&#45;&gt;Node6</title>
<path fill="none" stroke="midnightblue" d="M1025.32,-288.534C1032.02,-286.532 1038.72,-284.308 1045,-281.877 1081.62,-267.7 1121.35,-245.674 1146.21,-231.017"/>
<polygon fill="midnightblue" stroke="midnightblue" points="1024.23,-285.207 1015.56,-291.306 1026.14,-291.94 1024.23,-285.207"/>
</g>
<!-- Node13&#45;&gt;Node7 -->
<g id="edge15" class="edge"><title>Node13&#45;&gt;Node7</title>
<path fill="none" stroke="midnightblue" d="M300.591,-54.2589C372.938,-35.3139 496.378,-7.87719 604.5,-7.87719 604.5,-7.87719 604.5,-7.87719 972.5,-7.87719 1101.89,-7.87719 1141.95,18.8205 1263,-26.8772 1303.15,-42.0333 1340.44,-78.5494 1356.8,-96.1157"/>
<polygon fill="midnightblue" stroke="midnightblue" points="299.499,-50.9275 290.729,-56.872 301.291,-57.694 299.499,-50.9275"/>
</g>
<!-- Node14 -->
<g id="node14" class="node"><title>Node14</title>
<g id="a_node14"><a xlink:href="classMainWindow.html#a29e6418f12a4331860a7db3616e91600" target="_top" xlink:title="updates the YUV information GUI elements from the current Renderobject ">
<polygon fill="white" stroke="black" points="346,-56.8772 346,-86.8772 495,-86.8772 495,-56.8772 346,-56.8772"/>
<text text-anchor="start" x="354" y="-74.8772" font-family="Helvetica,sans-Serif" font-size="10.00">MainWindow::updateSelection</text>
<text text-anchor="middle" x="420.5" y="-63.8772" font-family="Helvetica,sans-Serif" font-size="10.00">MetaInfo</text>
</a>
</g>
</g>
<!-- Node13&#45;&gt;Node14 -->
<g id="edge16" class="edge"><title>Node13&#45;&gt;Node14</title>
<path fill="none" stroke="midnightblue" d="M315.875,-65.1907C325.79,-65.0941 335.92,-65.1077 345.775,-65.2313"/>
<polygon fill="midnightblue" stroke="midnightblue" points="315.591,-61.6942 305.641,-65.3312 315.688,-68.6935 315.591,-61.6942"/>
</g>
<!-- Node14&#45;&gt;Node13 -->
<g id="edge28" class="edge"><title>Node14&#45;&gt;Node13</title>
<path fill="none" stroke="midnightblue" d="M335.742,-78.6105C325.652,-78.6605 315.45,-78.5981 305.641,-78.4232"/>
<polygon fill="midnightblue" stroke="midnightblue" points="335.806,-82.1102 345.775,-78.523 335.745,-75.1105 335.806,-82.1102"/>
</g>
<!-- Node15 -->
<g id="node15" class="node"><title>Node15</title>
<g id="a_node15"><a xlink:href="classMainWindow.html#a6f33e93f427ff2df80edffcb3ad944da" target="_top" xlink:title="MainWindow::updateSelected\lItems">
<polygon fill="white" stroke="black" points="716,-71.8772 716,-101.877 862,-101.877 862,-71.8772 716,-71.8772"/>
<text text-anchor="start" x="724" y="-89.8772" font-family="Helvetica,sans-Serif" font-size="10.00">MainWindow::updateSelected</text>
<text text-anchor="middle" x="789" y="-78.8772" font-family="Helvetica,sans-Serif" font-size="10.00">Items</text>
</a>
</g>
</g>
<!-- Node14&#45;&gt;Node15 -->
<g id="edge17" class="edge"><title>Node14&#45;&gt;Node15</title>
<path fill="none" stroke="midnightblue" d="M505.429,-66.2386C556.078,-63.9145 621.854,-62.8014 680,-67.8772 691.664,-68.8954 703.957,-70.5209 715.903,-72.4032"/>
<polygon fill="midnightblue" stroke="midnightblue" points="505.002,-62.7551 495.183,-66.7346 505.341,-69.7469 505.002,-62.7551"/>
</g>
<!-- Node20 -->
<g id="node20" class="node"><title>Node20</title>
<g id="a_node20"><a xlink:href="classMainWindow.html#a23cc43af3c6873f9a936b5af05c99f49" target="_top" xlink:title="The display objects information changed. Update. ">
<polygon fill="white" stroke="black" points="531,-77.8772 531,-107.877 680,-107.877 680,-77.8772 531,-77.8772"/>
<text text-anchor="start" x="539" y="-95.8772" font-family="Helvetica,sans-Serif" font-size="10.00">MainWindow::currentSelection</text>
<text text-anchor="middle" x="605.5" y="-84.8772" font-family="Helvetica,sans-Serif" font-size="10.00">InformationChanged</text>
</a>
</g>
</g>
<!-- Node14&#45;&gt;Node20 -->
<g id="edge29" class="edge"><title>Node14&#45;&gt;Node20</title>
<path fill="none" stroke="midnightblue" d="M505.109,-81.4717C513.651,-82.4519 522.285,-83.4427 530.711,-84.4096"/>
<polygon fill="midnightblue" stroke="midnightblue" points="505.476,-77.9909 495.142,-80.3279 504.678,-84.9452 505.476,-77.9909"/>
</g>
<!-- Node15&#45;&gt;Node7 -->
<g id="edge18" class="edge"><title>Node15&#45;&gt;Node7</title>
<path fill="none" stroke="midnightblue" d="M872.148,-89.5893C986.889,-93.3774 1192.93,-100.18 1298.76,-103.674"/>
<polygon fill="midnightblue" stroke="midnightblue" points="872.124,-86.0867 862.014,-89.2547 871.893,-93.0829 872.124,-86.0867"/>
</g>
<!-- Node16 -->
<g id="node16" class="node"><title>Node16</title>
<g id="a_node16"><a xlink:href="classMainWindow.html#a6be7246a1a0ecf5d1442bb1775c3d9b3" target="_top" xlink:title="MainWindow::addDifference\lSequence">
<polygon fill="white" stroke="black" points="901.5,-153.877 901.5,-183.877 1041.5,-183.877 1041.5,-153.877 901.5,-153.877"/>
<text text-anchor="start" x="909.5" y="-171.877" font-family="Helvetica,sans-Serif" font-size="10.00">MainWindow::addDifference</text>
<text text-anchor="middle" x="971.5" y="-160.877" font-family="Helvetica,sans-Serif" font-size="10.00">Sequence</text>
</a>
</g>
</g>
<!-- Node15&#45;&gt;Node16 -->
<g id="edge19" class="edge"><title>Node15&#45;&gt;Node16</title>
<path fill="none" stroke="midnightblue" d="M824.876,-107.037C845.71,-118.633 872.92,-133.011 898,-143.877 906.063,-147.371 914.788,-150.724 923.296,-153.778"/>
<polygon fill="midnightblue" stroke="midnightblue" points="826.507,-103.938 816.074,-102.092 823.078,-110.041 826.507,-103.938"/>
</g>
<!-- Node17 -->
<g id="node17" class="node"><title>Node17</title>
<g id="a_node17"><a xlink:href="classMainWindow.html#af5ecc7c65080215b49b9d931c56c65c9" target="_top" xlink:title="MainWindow::editTextFrame">
<polygon fill="white" stroke="black" points="900.5,-115.377 900.5,-134.377 1042.5,-134.377 1042.5,-115.377 900.5,-115.377"/>
<text text-anchor="middle" x="971.5" y="-122.377" font-family="Helvetica,sans-Serif" font-size="10.00">MainWindow::editTextFrame</text>
</a>
</g>
</g>
<!-- Node15&#45;&gt;Node17 -->
<g id="edge22" class="edge"><title>Node15&#45;&gt;Node17</title>
<path fill="none" stroke="midnightblue" d="M871.288,-103.99C889.868,-107.902 908.959,-111.921 925.371,-115.376"/>
<polygon fill="midnightblue" stroke="midnightblue" points="871.845,-100.531 861.338,-101.896 870.403,-107.381 871.845,-100.531"/>
</g>
<!-- Node19 -->
<g id="node19" class="node"><title>Node19</title>
<g id="a_node19"><a xlink:href="classMainWindow.html#a156c29c6d7ab278e4246c88a0fcbe2f2" target="_top" xlink:title="MainWindow::updateSettings">
<polygon fill="white" stroke="black" points="1100,-36.3772 1100,-55.3772 1244,-55.3772 1244,-36.3772 1100,-36.3772"/>
<text text-anchor="middle" x="1172" y="-43.3772" font-family="Helvetica,sans-Serif" font-size="10.00">MainWindow::updateSettings</text>
</a>
</g>
</g>
<!-- Node15&#45;&gt;Node19 -->
<g id="edge26" class="edge"><title>Node15&#45;&gt;Node19</title>
<path fill="none" stroke="midnightblue" d="M872.351,-73.3178C881,-72.0723 889.672,-70.8975 898,-69.8772 966.359,-61.5023 1044.69,-54.9251 1099.87,-50.7903"/>
<polygon fill="midnightblue" stroke="midnightblue" points="871.615,-69.8884 862.231,-74.8074 872.634,-76.8138 871.615,-69.8884"/>
</g>
<!-- Node16&#45;&gt;Node6 -->
<g id="edge20" class="edge"><title>Node16&#45;&gt;Node6</title>
<path fill="none" stroke="midnightblue" d="M1045.68,-186.204C1065.99,-191.013 1087.87,-196.193 1107.57,-200.858"/>
<polygon fill="midnightblue" stroke="midnightblue" points="1046.39,-182.776 1035.85,-183.878 1044.78,-189.587 1046.39,-182.776"/>
</g>
<!-- Node16&#45;&gt;Node8 -->
<g id="edge21" class="edge"><title>Node16&#45;&gt;Node8</title>
<path fill="none" stroke="midnightblue" d="M1051.86,-170.077C1061.37,-170.22 1071.15,-170.368 1080.8,-170.514"/>
<polygon fill="midnightblue" stroke="midnightblue" points="1051.7,-166.574 1041.65,-169.922 1051.59,-173.573 1051.7,-166.574"/>
</g>
<!-- Node17&#45;&gt;Node8 -->
<g id="edge23" class="edge"><title>Node17&#45;&gt;Node8</title>
<path fill="none" stroke="midnightblue" d="M1019.99,-136.971C1038.95,-141.725 1060.98,-147.163 1081,-151.877 1095.96,-155.399 1112.35,-159.093 1127,-162.333"/>
<polygon fill="midnightblue" stroke="midnightblue" points="1020.66,-133.529 1010.1,-134.482 1018.95,-140.317 1020.66,-133.529"/>
</g>
<!-- Node18 -->
<g id="node18" class="node"><title>Node18</title>
<g id="a_node18"><a xlink:href="classMainWindow.html#ab18c663524e2c130759c0ca960129ea4" target="_top" xlink:title="MainWindow::onItemDouble\lClicked">
<polygon fill="white" stroke="black" points="1102,-112.877 1102,-142.877 1242,-142.877 1242,-112.877 1102,-112.877"/>
<text text-anchor="start" x="1110" y="-130.877" font-family="Helvetica,sans-Serif" font-size="10.00">MainWindow::onItemDouble</text>
<text text-anchor="middle" x="1172" y="-119.877" font-family="Helvetica,sans-Serif" font-size="10.00">Clicked</text>
</a>
</g>
</g>
<!-- Node17&#45;&gt;Node18 -->
<g id="edge24" class="edge"><title>Node17&#45;&gt;Node18</title>
<path fill="none" stroke="midnightblue" d="M1052.78,-126.09C1069.04,-126.336 1086,-126.593 1101.83,-126.832"/>
<polygon fill="midnightblue" stroke="midnightblue" points="1052.81,-122.591 1042.76,-125.939 1052.71,-129.59 1052.81,-122.591"/>
</g>
<!-- Node18&#45;&gt;Node7 -->
<g id="edge25" class="edge"><title>Node18&#45;&gt;Node7</title>
<path fill="none" stroke="midnightblue" d="M1252.28,-118.816C1267.75,-117.049 1283.81,-115.213 1298.82,-113.498"/>
<polygon fill="midnightblue" stroke="midnightblue" points="1251.76,-115.353 1242.22,-119.966 1252.56,-122.308 1251.76,-115.353"/>
</g>
<!-- Node19&#45;&gt;Node7 -->
<g id="edge27" class="edge"><title>Node19&#45;&gt;Node7</title>
<path fill="none" stroke="midnightblue" d="M1220.97,-57.936C1234.62,-61.5635 1249.45,-65.6967 1263,-69.8772 1289.49,-78.0489 1319.36,-88.7061 1339.99,-96.2999"/>
<polygon fill="midnightblue" stroke="midnightblue" points="1221.85,-54.5466 1211.28,-55.3905 1220.07,-61.3168 1221.85,-54.5466"/>
</g>
<!-- Node20&#45;&gt;Node15 -->
<g id="edge30" class="edge"><title>Node20&#45;&gt;Node15</title>
<path fill="none" stroke="midnightblue" d="M690.087,-90.114C698.678,-89.83 707.354,-89.5432 715.806,-89.2638"/>
<polygon fill="midnightblue" stroke="midnightblue" points="689.94,-86.6168 680.061,-90.4454 690.172,-93.613 689.94,-86.6168"/>
</g>
</g>
</svg>
