<?xml version="1.0" encoding="UTF-8" standalone="no"?>
<!DOCTYPE svg PUBLIC "-//W3C//DTD SVG 1.1//EN"
 "http://www.w3.org/Graphics/SVG/1.1/DTD/svg11.dtd">
<!-- Generated by graphviz version 2.38.0 (20140413.2041)
 -->
<!-- Title: PListSerializer::serializeMap Pages: 1 -->
<!--zoomable 80 -->
<svg id="main" version="1.1" xmlns="http://www.w3.org/2000/svg" xmlns:xlink="http://www.w3.org/1999/xlink" xml:space="preserve" onload="init(evt)">
<style type="text/css"><![CDATA[
.edge:hover path { stroke: red; }
.edge:hover polygon { stroke: red; fill: red; }
]]></style>
<script type="text/javascript"><![CDATA[
var edges = document.getElementsByTagName('g');
if (edges && edges.length) {
  for (var i=0;i<edges.length;i++) {
    if (edges[i].id.substr(0,4)=='edge') {
      edges[i].setAttribute('class','edge');
    }
  }
}
]]></script>
        <defs>
                <circle id="rim" cx="0" cy="0" r="7"/>
                <circle id="rim2" cx="0" cy="0" r="3.5"/>
                <g id="zoomPlus">
                        <use xlink:href="#rim" fill="#404040">
                                <set attributeName="fill" to="#808080" begin="zoomplus.mouseover" end="zoomplus.mouseout"/>
                        </use>
                        <path d="M-4,0h8M0,-4v8" fill="none" stroke="white" stroke-width="1.5" pointer-events="none"/>
                </g>
                <g id="zoomMin">
                        <use xlink:href="#rim" fill="#404040">
                                <set attributeName="fill" to="#808080" begin="zoomminus.mouseover" end="zoomminus.mouseout"/>
                        </use>
                        <path d="M-4,0h8" fill="none" stroke="white" stroke-width="1.5" pointer-events="none"/>
                </g>
                <g id="dirArrow">
                        <path fill="none" stroke="white" stroke-width="1.5" d="M0,-3.0v7 M-2.5,-0.5L0,-3.0L2.5,-0.5"/>
                </g>
               <g id="resetDef">
                       <use xlink:href="#rim2" fill="#404040">
                               <set attributeName="fill" to="#808080" begin="reset.mouseover" end="reset.mouseout"/>
                       </use>
               </g>
        </defs>

<script type="text/javascript">
var viewWidth = 584;
var viewHeight = 80;
var sectionId = 'dynsection-4';
</script>
<script xlink:href="svgpan.js"/>
<svg id="graph" class="graph">
<g id="viewport">
<title>PListSerializer::serializeMap</title>
<polygon fill="white" stroke="none" points="-4,4 -4,-76.0263 580,-76.0263 580,4 -4,4"/>
<!-- Node1 -->
<g id="node1" class="node"><title>Node1</title>
<polygon fill="#bfbfbf" stroke="black" points="0,-35.5 0,-54.5 140,-54.5 140,-35.5 0,-35.5"/>
<text text-anchor="middle" x="70" y="-42.5" font-family="Helvetica,sans-Serif" font-size="10.00">PListSerializer::serializeMap</text>
</g>
<!-- Node2 -->
<g id="node2" class="node"><title>Node2</title>
<g id="a_node2"><a xlink:href="plistserializer_8cpp.html#abdd9685c5a5fd4bdd06fd3915cad3bd6" target="_top" xlink:title="textElement">
<polygon fill="white" stroke="black" points="507,-39.5 507,-58.5 576,-58.5 576,-39.5 507,-39.5"/>
<text text-anchor="middle" x="541.5" y="-46.5" font-family="Helvetica,sans-Serif" font-size="10.00">textElement</text>
</a>
</g>
</g>
<!-- Node1&#45;&gt;Node2 -->
<g id="edge1" class="edge"><title>Node1&#45;&gt;Node2</title>
<path fill="none" stroke="midnightblue" d="M102.82,-54.6268C123.462,-60.3596 151.061,-67.072 176,-70 210.518,-74.0527 465.071,-67.8076 471,-67 480.523,-65.7028 490.615,-63.554 500.069,-61.1843"/>
<polygon fill="midnightblue" stroke="midnightblue" points="501.245,-64.4937 510.019,-58.556 499.457,-57.7258 501.245,-64.4937"/>
</g>
<!-- Node3 -->
<g id="node3" class="node"><title>Node3</title>
<g id="a_node3"><a xlink:href="classPListSerializer.html#a0167db85d915aea8d37b3e76b444fd31" target="_top" xlink:title="PListSerializer::serialize\lElement">
<polygon fill="white" stroke="black" points="176,-30 176,-60 298,-60 298,-30 176,-30"/>
<text text-anchor="start" x="184" y="-48" font-family="Helvetica,sans-Serif" font-size="10.00">PListSerializer::serialize</text>
<text text-anchor="middle" x="237" y="-37" font-family="Helvetica,sans-Serif" font-size="10.00">Element</text>
</a>
</g>
</g>
<!-- Node1&#45;&gt;Node3 -->
<g id="edge2" class="edge"><title>Node1&#45;&gt;Node3</title>
<path fill="none" stroke="midnightblue" d="M140.019,-38.3307C148.494,-38.2284 157.165,-38.2233 165.66,-38.3156"/>
<polygon fill="midnightblue" stroke="midnightblue" points="165.856,-41.819 175.91,-38.4764 165.966,-34.8199 165.856,-41.819"/>
</g>
<!-- Node3&#45;&gt;Node1 -->
<g id="edge3" class="edge"><title>Node3&#45;&gt;Node1</title>
<path fill="none" stroke="midnightblue" d="M175.91,-51.5236C167.528,-51.6969 158.813,-51.7707 150.146,-51.745"/>
<polygon fill="midnightblue" stroke="midnightblue" points="150.045,-48.2443 140.019,-51.6693 149.992,-55.2441 150.045,-48.2443"/>
</g>
<!-- Node4 -->
<g id="node4" class="node"><title>Node4</title>
<g id="a_node4"><a xlink:href="classPListSerializer.html#a3931479543c53e915f00161c3ddf1500" target="_top" xlink:title="PListSerializer::serializeList">
<polygon fill="white" stroke="black" points="334,-38.5 334,-57.5 471,-57.5 471,-38.5 334,-38.5"/>
<text text-anchor="middle" x="402.5" y="-45.5" font-family="Helvetica,sans-Serif" font-size="10.00">PListSerializer::serializeList</text>
</a>
</g>
</g>
<!-- Node3&#45;&gt;Node4 -->
<g id="edge4" class="edge"><title>Node3&#45;&gt;Node4</title>
<path fill="none" stroke="midnightblue" d="M298.417,-39.5671C306.72,-39.5537 315.34,-39.6449 323.898,-39.8338"/>
<polygon fill="midnightblue" stroke="midnightblue" points="323.805,-43.3325 333.895,-40.1002 323.991,-36.335 323.805,-43.3325"/>
</g>
<!-- Node5 -->
<g id="node5" class="node"><title>Node5</title>
<g id="a_node5"><a xlink:href="plistserializer_8cpp.html#a69e092811e46f43d9a1da598c7917123" target="_top" xlink:title="serializePrimitive">
<polygon fill="white" stroke="black" points="357,-0.5 357,-19.5 448,-19.5 448,-0.5 357,-0.5"/>
<text text-anchor="middle" x="402.5" y="-7.5" font-family="Helvetica,sans-Serif" font-size="10.00">serializePrimitive</text>
</a>
</g>
</g>
<!-- Node3&#45;&gt;Node5 -->
<g id="edge6" class="edge"><title>Node3&#45;&gt;Node5</title>
<path fill="none" stroke="midnightblue" d="M298.417,-32.0667C314.311,-28.6643 331.362,-25.0142 346.93,-21.6817"/>
<polygon fill="midnightblue" stroke="midnightblue" points="347.872,-25.0593 356.918,-19.5435 346.407,-18.2144 347.872,-25.0593"/>
</g>
<!-- Node4&#45;&gt;Node3 -->
<g id="edge5" class="edge"><title>Node4&#45;&gt;Node3</title>
<path fill="none" stroke="midnightblue" d="M333.895,-53.4189C325.533,-53.3736 316.968,-53.2278 308.564,-52.9883"/>
<polygon fill="midnightblue" stroke="midnightblue" points="308.528,-49.4852 298.417,-52.65 308.295,-56.4813 308.528,-49.4852"/>
</g>
<!-- Node5&#45;&gt;Node2 -->
<g id="edge7" class="edge"><title>Node5&#45;&gt;Node2</title>
<path fill="none" stroke="midnightblue" d="M437.504,-19.5298C448.225,-22.5456 460.111,-25.9006 471,-29 479.686,-31.4723 488.978,-34.1342 497.849,-36.6841"/>
<polygon fill="midnightblue" stroke="midnightblue" points="497.054,-40.0972 507.632,-39.4992 498.99,-33.3702 497.054,-40.0972"/>
</g>
</g>
</svg>
        <g id="navigator" transform="translate(0 0)" fill="#404254">
                <rect fill="#f2f5e9" fill-opacity="0.5" stroke="#606060" stroke-width=".5" x="0" y="0" width="60" height="60"/>
                <use id="zoomplus" xlink:href="#zoomPlus" x="17" y="9" onmousedown="handleZoom(evt,'in')"/>
                <use id="zoomminus" xlink:href="#zoomMin" x="42" y="9" onmousedown="handleZoom(evt,'out')"/>
                <use id="reset" xlink:href="#resetDef" x="30" y="36" onmousedown="handleReset()"/>
                <g id="arrowUp" xlink:href="#dirArrow" transform="translate(30 24)" onmousedown="handlePan(0,-1)">
                  <use xlink:href="#rim" fill="#404040">
                        <set attributeName="fill" to="#808080" begin="arrowUp.mouseover" end="arrowUp.mouseout"/>
                  </use>
                  <path fill="none" stroke="white" stroke-width="1.5" d="M0,-3.0v7 M-2.5,-0.5L0,-3.0L2.5,-0.5"/>
                </g>
                <g id="arrowRight" xlink:href="#dirArrow" transform="rotate(90) translate(36 -43)" onmousedown="handlePan(1,0)">
                  <use xlink:href="#rim" fill="#404040">
                        <set attributeName="fill" to="#808080" begin="arrowRight.mouseover" end="arrowRight.mouseout"/>
                  </use>
                  <path fill="none" stroke="white" stroke-width="1.5" d="M0,-3.0v7 M-2.5,-0.5L0,-3.0L2.5,-0.5"/>
                </g>
                <g id="arrowDown" xlink:href="#dirArrow" transform="rotate(180) translate(-30 -48)" onmousedown="handlePan(0,1)">
                  <use xlink:href="#rim" fill="#404040">
                        <set attributeName="fill" to="#808080" begin="arrowDown.mouseover" end="arrowDown.mouseout"/>
                  </use>
                  <path fill="none" stroke="white" stroke-width="1.5" d="M0,-3.0v7 M-2.5,-0.5L0,-3.0L2.5,-0.5"/>
                </g>
                <g id="arrowLeft" xlink:href="#dirArrow" transform="rotate(270) translate(-36 17)" onmousedown="handlePan(-1,0)">
                  <use xlink:href="#rim" fill="#404040">
                        <set attributeName="fill" to="#808080" begin="arrowLeft.mouseover" end="arrowLeft.mouseout"/>
                  </use>
                  <path fill="none" stroke="white" stroke-width="1.5" d="M0,-3.0v7 M-2.5,-0.5L0,-3.0L2.5,-0.5"/>
                </g>
        </g>
        <svg viewBox="0 0 15 15" width="100%" height="30px" preserveAspectRatio="xMaxYMin meet">
         <g id="arrow_out" transform="scale(0.3 0.3)">
          <a xlink:href="classPListSerializer_a7f93d3cb22cfbbee86b0e0e15b88bb70_cgraph_org.svg" target="_base">
           <rect id="button" ry="5" rx="5" y="6" x="6" height="38" width="38"
                fill="#f2f5e9" fill-opacity="0.5" stroke="#606060" stroke-width="1.0"/>
           <path id="arrow"
             d="M 11.500037,31.436501 C 11.940474,20.09759 22.043105,11.32322 32.158766,21.979434 L 37.068811,17.246167 C 37.068811,17.246167 37.088388,32 37.088388,32 L 22.160133,31.978069 C 22.160133,31.978069 26.997745,27.140456 26.997745,27.140456 C 18.528582,18.264221 13.291696,25.230495 11.500037,31.436501 z"
             style="fill:#404040;"/>
          </a>
         </g>
        </svg>
</svg>
