<?xml version="1.0" encoding="UTF-8" standalone="no"?>
<!DOCTYPE svg PUBLIC "-//W3C//DTD SVG 1.1//EN"
 "http://www.w3.org/Graphics/SVG/1.1/DTD/svg11.dtd">
<!-- Generated by graphviz version 2.38.0 (20140413.2041)
 -->
<!-- Title: de265File::copyImgTo444Buffer Pages: 1 -->
<svg width="847pt" height="72pt"
 viewBox="0.00 0.00 847.00 71.50" xmlns="http://www.w3.org/2000/svg" xmlns:xlink="http://www.w3.org/1999/xlink">
<g id="graph0" class="graph" transform="scale(1 1) rotate(0) translate(4 67.5)">
<title>de265File::copyImgTo444Buffer</title>
<polygon fill="white" stroke="none" points="-4,4 -4,-67.5 843,-67.5 843,4 -4,4"/>
<!-- Node1 -->
<g id="node1" class="node"><title>Node1</title>
<polygon fill="#bfbfbf" stroke="black" points="0,-25 0,-44 155,-44 155,-25 0,-25"/>
<text text-anchor="middle" x="77.5" y="-32" font-family="Helvetica,sans-Serif" font-size="10.00">de265File::copyImgTo444Buffer</text>
</g>
<!-- Node2 -->
<g id="node2" class="node"><title>Node2</title>
<g id="a_node2"><a xlink:href="classde265File.html#af2a66d6d47d74d992f61da5048d90538" target="_top" xlink:title="de265File::decodeOnePicture">
<polygon fill="white" stroke="black" points="191,-25 191,-44 336,-44 336,-25 191,-25"/>
<text text-anchor="middle" x="263.5" y="-32" font-family="Helvetica,sans-Serif" font-size="10.00">de265File::decodeOnePicture</text>
</a>
</g>
</g>
<!-- Node1&#45;&gt;Node2 -->
<g id="edge1" class="edge"><title>Node1&#45;&gt;Node2</title>
<path fill="none" stroke="midnightblue" d="M165.249,-34.5C173.848,-34.5 182.508,-34.5 190.929,-34.5"/>
<polygon fill="midnightblue" stroke="midnightblue" points="165.2,-31.0001 155.2,-34.5 165.2,-38.0001 165.2,-31.0001"/>
</g>
<!-- Node3 -->
<g id="node3" class="node"><title>Node3</title>
<g id="a_node3"><a xlink:href="classde265File.html#afc2f00a9676e0b5c3fdd821619bda482" target="_top" xlink:title="de265File::de265File">
<polygon fill="white" stroke="black" points="568.5,-44 568.5,-63 675.5,-63 675.5,-44 568.5,-44"/>
<text text-anchor="middle" x="622" y="-51" font-family="Helvetica,sans-Serif" font-size="10.00">de265File::de265File</text>
</a>
</g>
</g>
<!-- Node2&#45;&gt;Node3 -->
<g id="edge2" class="edge"><title>Node2&#45;&gt;Node3</title>
<path fill="none" stroke="midnightblue" d="M346.511,-38.8709C414.813,-42.5111 510.038,-47.5862 568.495,-50.7017"/>
<polygon fill="midnightblue" stroke="midnightblue" points="346.386,-35.3593 336.214,-38.3221 346.014,-42.3494 346.386,-35.3593"/>
</g>
<!-- Node4 -->
<g id="node4" class="node"><title>Node4</title>
<g id="a_node4"><a xlink:href="classde265File.html#a948bfcc1b2c4ad6f0a3aa54b99f9553f" target="_top" xlink:title="de265File::backgroundDecoder">
<polygon fill="white" stroke="black" points="372,-6 372,-25 524,-25 524,-6 372,-6"/>
<text text-anchor="middle" x="448" y="-13" font-family="Helvetica,sans-Serif" font-size="10.00">de265File::backgroundDecoder</text>
</a>
</g>
</g>
<!-- Node2&#45;&gt;Node4 -->
<g id="edge3" class="edge"><title>Node2&#45;&gt;Node4</title>
<path fill="none" stroke="midnightblue" d="M346.138,-26.0007C354.745,-25.1046 363.468,-24.1965 371.995,-23.3088"/>
<polygon fill="midnightblue" stroke="midnightblue" points="345.689,-22.5285 336.105,-27.0452 346.414,-29.4908 345.689,-22.5285"/>
</g>
<!-- Node4&#45;&gt;Node3 -->
<g id="edge4" class="edge"><title>Node4&#45;&gt;Node3</title>
<path fill="none" stroke="midnightblue" d="M502.196,-27.2526C526.517,-32.6258 554.955,-38.9086 577.909,-43.9799"/>
<polygon fill="midnightblue" stroke="midnightblue" points="502.922,-23.8288 492.403,-25.089 501.412,-30.664 502.922,-23.8288"/>
</g>
<!-- Node5 -->
<g id="node5" class="node"><title>Node5</title>
<g id="a_node5"><a xlink:href="classde265File.html#a4778a7853c318063a9efd5f0990e79bf" target="_top" xlink:title="de265File::getOneFrame">
<polygon fill="white" stroke="black" points="560,-6 560,-25 684,-25 684,-6 560,-6"/>
<text text-anchor="middle" x="622" y="-13" font-family="Helvetica,sans-Serif" font-size="10.00">de265File::getOneFrame</text>
</a>
</g>
</g>
<!-- Node4&#45;&gt;Node5 -->
<g id="edge5" class="edge"><title>Node4&#45;&gt;Node5</title>
<path fill="none" stroke="midnightblue" d="M534.305,-15.5C542.942,-15.5 551.589,-15.5 559.896,-15.5"/>
<polygon fill="midnightblue" stroke="midnightblue" points="534.192,-12.0001 524.191,-15.5 534.191,-19.0001 534.192,-12.0001"/>
</g>
<!-- Node6 -->
<g id="node6" class="node"><title>Node6</title>
<g id="a_node6"><a xlink:href="classde265File.html#af878636f68cd2ee3a4dfc6b3b0169676" target="_top" xlink:title="de265File::loadStatistic\lToCache">
<polygon fill="white" stroke="black" points="720,-0.5 720,-30.5 839,-30.5 839,-0.5 720,-0.5"/>
<text text-anchor="start" x="728" y="-18.5" font-family="Helvetica,sans-Serif" font-size="10.00">de265File::loadStatistic</text>
<text text-anchor="middle" x="779.5" y="-7.5" font-family="Helvetica,sans-Serif" font-size="10.00">ToCache</text>
</a>
</g>
</g>
<!-- Node5&#45;&gt;Node6 -->
<g id="edge6" class="edge"><title>Node5&#45;&gt;Node6</title>
<path fill="none" stroke="midnightblue" d="M694.093,-15.5C702.747,-15.5 711.511,-15.5 719.954,-15.5"/>
<polygon fill="midnightblue" stroke="midnightblue" points="694.011,-12.0001 684.011,-15.5 694.011,-19.0001 694.011,-12.0001"/>
</g>
</g>
</svg>
