<?xml version="1.0" encoding="UTF-8" standalone="no"?>
<!DOCTYPE svg PUBLIC "-//W3C//DTD SVG 1.1//EN"
 "http://www.w3.org/Graphics/SVG/1.1/DTD/svg11.dtd">
<!-- Generated by graphviz version 2.38.0 (20140413.2041)
 -->
<!-- Title: DisplayWidget::clear Pages: 1 -->
<svg width="464pt" height="28pt"
 viewBox="0.00 0.00 464.00 28.00" xmlns="http://www.w3.org/2000/svg" xmlns:xlink="http://www.w3.org/1999/xlink">
<g id="graph0" class="graph" transform="scale(1 1) rotate(0) translate(4 24)">
<title>DisplayWidget::clear</title>
<polygon fill="white" stroke="none" points="-4,4 -4,-24 460,-24 460,4 -4,4"/>
<!-- Node1 -->
<g id="node1" class="node"><title>Node1</title>
<polygon fill="#bfbfbf" stroke="black" points="0,-0.5 0,-19.5 107,-19.5 107,-0.5 0,-0.5"/>
<text text-anchor="middle" x="53.5" y="-7.5" font-family="Helvetica,sans-Serif" font-size="10.00">DisplayWidget::clear</text>
</g>
<!-- Node2 -->
<g id="node2" class="node"><title>Node2</title>
<g id="a_node2"><a xlink:href="classDisplayWidget.html#acffa55d9477c7ada0ac15834d4c6460e" target="_top" xlink:title="DisplayWidget::drawFrame">
<polygon fill="white" stroke="black" points="143,-0.5 143,-19.5 278,-19.5 278,-0.5 143,-0.5"/>
<text text-anchor="middle" x="210.5" y="-7.5" font-family="Helvetica,sans-Serif" font-size="10.00">DisplayWidget::drawFrame</text>
</a>
</g>
</g>
<!-- Node1&#45;&gt;Node2 -->
<g id="edge1" class="edge"><title>Node1&#45;&gt;Node2</title>
<path fill="none" stroke="midnightblue" d="M107.409,-10C115.603,-10 124.207,-10 132.797,-10"/>
<polygon fill="midnightblue" stroke="midnightblue" points="132.851,-13.5001 142.851,-10 132.851,-6.5001 132.851,-13.5001"/>
</g>
<!-- Node3 -->
<g id="node3" class="node"><title>Node3</title>
<g id="a_node3"><a xlink:href="classDisplayObject.html#a5ded2ebad23787f7821d0d9b750bdde3" target="_top" xlink:title="DisplayObject::displayImage">
<polygon fill="white" stroke="black" points="314,-0.5 314,-19.5 456,-19.5 456,-0.5 314,-0.5"/>
<text text-anchor="middle" x="385" y="-7.5" font-family="Helvetica,sans-Serif" font-size="10.00">DisplayObject::displayImage</text>
</a>
</g>
</g>
<!-- Node2&#45;&gt;Node3 -->
<g id="edge2" class="edge"><title>Node2&#45;&gt;Node3</title>
<path fill="none" stroke="midnightblue" d="M278.193,-10C286.483,-10 295.028,-10 303.499,-10"/>
<polygon fill="midnightblue" stroke="midnightblue" points="303.773,-13.5001 313.773,-10 303.773,-6.5001 303.773,-13.5001"/>
</g>
</g>
</svg>
