<?xml version="1.0" encoding="UTF-8" standalone="no"?>
<!DOCTYPE svg PUBLIC "-//W3C//DTD SVG 1.1//EN"
 "http://www.w3.org/Graphics/SVG/1.1/DTD/svg11.dtd">
<!-- Generated by graphviz version 2.38.0 (20140413.2041)
 -->
<!-- Title: YUVSource::setPixelFormat Pages: 1 -->
<!--zoomable 445 -->
<svg id="main" version="1.1" xmlns="http://www.w3.org/2000/svg" xmlns:xlink="http://www.w3.org/1999/xlink" xml:space="preserve" onload="init(evt)">
<style type="text/css"><![CDATA[
.edge:hover path { stroke: red; }
.edge:hover polygon { stroke: red; fill: red; }
]]></style>
<script type="text/javascript"><![CDATA[
var edges = document.getElementsByTagName('g');
if (edges && edges.length) {
  for (var i=0;i<edges.length;i++) {
    if (edges[i].id.substr(0,4)=='edge') {
      edges[i].setAttribute('class','edge');
    }
  }
}
]]></script>
        <defs>
                <circle id="rim" cx="0" cy="0" r="7"/>
                <circle id="rim2" cx="0" cy="0" r="3.5"/>
                <g id="zoomPlus">
                        <use xlink:href="#rim" fill="#404040">
                                <set attributeName="fill" to="#808080" begin="zoomplus.mouseover" end="zoomplus.mouseout"/>
                        </use>
                        <path d="M-4,0h8M0,-4v8" fill="none" stroke="white" stroke-width="1.5" pointer-events="none"/>
                </g>
                <g id="zoomMin">
                        <use xlink:href="#rim" fill="#404040">
                                <set attributeName="fill" to="#808080" begin="zoomminus.mouseover" end="zoomminus.mouseout"/>
                        </use>
                        <path d="M-4,0h8" fill="none" stroke="white" stroke-width="1.5" pointer-events="none"/>
                </g>
                <g id="dirArrow">
                        <path fill="none" stroke="white" stroke-width="1.5" d="M0,-3.0v7 M-2.5,-0.5L0,-3.0L2.5,-0.5"/>
                </g>
               <g id="resetDef">
                       <use xlink:href="#rim2" fill="#404040">
                               <set attributeName="fill" to="#808080" begin="reset.mouseover" end="reset.mouseout"/>
                       </use>
               </g>
        </defs>

<script type="text/javascript">
var viewWidth = 1637;
var viewHeight = 445;
var sectionId = 'dynsection-33';
</script>
<script xlink:href="svgpan.js"/>
<svg id="graph" class="graph">
<g id="viewport">
<title>YUVSource::setPixelFormat</title>
<polygon fill="white" stroke="none" points="-4,4 -4,-440.877 1633,-440.877 1633,4 -4,4"/>
<!-- Node1 -->
<g id="node1" class="node"><title>Node1</title>
<polygon fill="#bfbfbf" stroke="black" points="0,-253.5 0,-272.5 140,-272.5 140,-253.5 0,-253.5"/>
<text text-anchor="middle" x="70" y="-260.5" font-family="Helvetica,sans-Serif" font-size="10.00">YUVSource::setPixelFormat</text>
</g>
<!-- Node2 -->
<g id="node2" class="node"><title>Node2</title>
<g id="a_node2"><a xlink:href="classFrameObject.html#a72a06fd2f07099819623216975625bed" target="_top" xlink:title="FrameObject::setSrcPixel\lFormat">
<polygon fill="white" stroke="black" points="190,-292 190,-322 319,-322 319,-292 190,-292"/>
<text text-anchor="start" x="198" y="-310" font-family="Helvetica,sans-Serif" font-size="10.00">FrameObject::setSrcPixel</text>
<text text-anchor="middle" x="254.5" y="-299" font-family="Helvetica,sans-Serif" font-size="10.00">Format</text>
</a>
</g>
</g>
<!-- Node1&#45;&gt;Node2 -->
<g id="edge1" class="edge"><title>Node1&#45;&gt;Node2</title>
<path fill="none" stroke="midnightblue" d="M120.586,-274.955C142.296,-280.189 168.012,-286.389 191.013,-291.935"/>
<polygon fill="midnightblue" stroke="midnightblue" points="121.142,-271.489 110.6,-272.547 119.501,-278.294 121.142,-271.489"/>
</g>
<!-- Node22 -->
<g id="node22" class="node"><title>Node22</title>
<g id="a_node22"><a xlink:href="classYUVFile.html#a27f672eb848a0a43afa29afee6c3f02b" target="_top" xlink:title="YUVFile::formatFromFile">
<polygon fill="white" stroke="black" points="192,-215.5 192,-234.5 317,-234.5 317,-215.5 192,-215.5"/>
<text text-anchor="middle" x="254.5" y="-222.5" font-family="Helvetica,sans-Serif" font-size="10.00">YUVFile::formatFromFile</text>
</a>
</g>
</g>
<!-- Node1&#45;&gt;Node22 -->
<g id="edge32" class="edge"><title>Node1&#45;&gt;Node22</title>
<path fill="none" stroke="midnightblue" d="M127.099,-251.319C152.98,-245.93 183.315,-239.614 207.779,-234.52"/>
<polygon fill="midnightblue" stroke="midnightblue" points="126.129,-247.946 117.052,-253.411 127.556,-254.799 126.129,-247.946"/>
</g>
<!-- Node24 -->
<g id="node24" class="node"><title>Node24</title>
<g id="a_node24"><a xlink:href="classYUVFile.html#a6a2f0d64ea5ad721c96de27fdc2e2d60" target="_top" xlink:title="YUVFile::formatFromCorrelation">
<polygon fill="white" stroke="black" points="176,-253.5 176,-272.5 333,-272.5 333,-253.5 176,-253.5"/>
<text text-anchor="middle" x="254.5" y="-260.5" font-family="Helvetica,sans-Serif" font-size="10.00">YUVFile::formatFromCorrelation</text>
</a>
</g>
</g>
<!-- Node1&#45;&gt;Node24 -->
<g id="edge34" class="edge"><title>Node1&#45;&gt;Node24</title>
<path fill="none" stroke="midnightblue" d="M150.418,-263C158.821,-263 167.361,-263 175.744,-263"/>
<polygon fill="midnightblue" stroke="midnightblue" points="150.256,-259.5 140.256,-263 150.256,-266.5 150.256,-259.5"/>
</g>
<!-- Node3 -->
<g id="node3" class="node"><title>Node3</title>
<g id="a_node3"><a xlink:href="classMainWindow.html#a2d8cea1d443550a8f14ce8c80d2608c6" target="_top" xlink:title="MainWindow::loadPlaylistFile">
<polygon fill="white" stroke="black" points="543,-253.5 543,-272.5 688,-272.5 688,-253.5 543,-253.5"/>
<text text-anchor="middle" x="615.5" y="-260.5" font-family="Helvetica,sans-Serif" font-size="10.00">MainWindow::loadPlaylistFile</text>
</a>
</g>
</g>
<!-- Node2&#45;&gt;Node3 -->
<g id="edge2" class="edge"><title>Node2&#45;&gt;Node3</title>
<path fill="none" stroke="midnightblue" d="M329.446,-297.937C391.916,-290.28 480.841,-279.382 542.696,-271.8"/>
<polygon fill="midnightblue" stroke="midnightblue" points="328.768,-294.494 319.268,-299.184 329.62,-301.442 328.768,-294.494"/>
</g>
<!-- Node14 -->
<g id="node14" class="node"><title>Node14</title>
<g id="a_node14"><a xlink:href="classMainWindow.html#a2cae0b3ed4283301ecc11dc881d31422" target="_top" xlink:title="A file option was changed by the user (width/height/start/end/rate/sampling/frameSize/pixelFormat). ">
<polygon fill="white" stroke="black" points="369,-311 369,-341 505,-341 505,-311 369,-311"/>
<text text-anchor="start" x="377" y="-329" font-family="Helvetica,sans-Serif" font-size="10.00">MainWindow::on_fileOption</text>
<text text-anchor="middle" x="437" y="-318" font-family="Helvetica,sans-Serif" font-size="10.00">ValueChanged</text>
</a>
</g>
</g>
<!-- Node2&#45;&gt;Node14 -->
<g id="edge15" class="edge"><title>Node2&#45;&gt;Node14</title>
<path fill="none" stroke="midnightblue" d="M329.107,-314.748C342.294,-316.136 355.972,-317.576 368.962,-318.943"/>
<polygon fill="midnightblue" stroke="midnightblue" points="329.449,-311.265 319.138,-313.699 328.716,-318.226 329.449,-311.265"/>
</g>
<!-- Node4 -->
<g id="node4" class="node"><title>Node4</title>
<g id="a_node4"><a xlink:href="classMainWindow.html#a8ef1be3cb02e12d68d12375d1a7a0ced" target="_top" xlink:title="loads a list of yuv/csv files ">
<polygon fill="white" stroke="black" points="925,-126.5 925,-145.5 1043,-145.5 1043,-126.5 925,-126.5"/>
<text text-anchor="middle" x="984" y="-133.5" font-family="Helvetica,sans-Serif" font-size="10.00">MainWindow::loadFiles</text>
</a>
</g>
</g>
<!-- Node3&#45;&gt;Node4 -->
<g id="edge3" class="edge"><title>Node3&#45;&gt;Node4</title>
<path fill="none" stroke="midnightblue" d="M653.829,-250.065C727.467,-224.548 889.944,-168.246 955.133,-145.656"/>
<polygon fill="midnightblue" stroke="midnightblue" points="652.35,-246.873 644.047,-253.454 654.642,-253.487 652.35,-246.873"/>
</g>
<!-- Node5 -->
<g id="node5" class="node"><title>Node5</title>
<g id="a_node5"><a xlink:href="classDisplaySplitWidget.html#ac1d4ced58b2ac2b08153694a5de6232e" target="_top" xlink:title="DisplaySplitWidget\l::dropEvent">
<polygon fill="white" stroke="black" points="1116.5,-165 1116.5,-195 1216.5,-195 1216.5,-165 1116.5,-165"/>
<text text-anchor="start" x="1124.5" y="-183" font-family="Helvetica,sans-Serif" font-size="10.00">DisplaySplitWidget</text>
<text text-anchor="middle" x="1166.5" y="-172" font-family="Helvetica,sans-Serif" font-size="10.00">::dropEvent</text>
</a>
</g>
</g>
<!-- Node4&#45;&gt;Node5 -->
<g id="edge4" class="edge"><title>Node4&#45;&gt;Node5</title>
<path fill="none" stroke="midnightblue" d="M1034.03,-147.952C1059.61,-154.188 1090.82,-161.796 1116.41,-168.034"/>
<polygon fill="midnightblue" stroke="midnightblue" points="1034.71,-144.515 1024.17,-145.547 1033.05,-151.316 1034.71,-144.515"/>
</g>
<!-- Node6 -->
<g id="node6" class="node"><title>Node6</title>
<g id="a_node6"><a xlink:href="classMainWindow.html#a288b768c3c21a9171bdc56fe845ece8b" target="_top" xlink:title="Shows the file open dialog and loads all selected Files. ">
<polygon fill="white" stroke="black" points="1108.5,-214.5 1108.5,-233.5 1224.5,-233.5 1224.5,-214.5 1108.5,-214.5"/>
<text text-anchor="middle" x="1166.5" y="-221.5" font-family="Helvetica,sans-Serif" font-size="10.00">MainWindow::openFile</text>
</a>
</g>
</g>
<!-- Node4&#45;&gt;Node6 -->
<g id="edge5" class="edge"><title>Node4&#45;&gt;Node6</title>
<path fill="none" stroke="midnightblue" d="M1005.78,-151.693C1026.81,-166.919 1060.72,-189.756 1093,-204 1102.32,-208.111 1112.69,-211.574 1122.6,-214.402"/>
<polygon fill="midnightblue" stroke="midnightblue" points="1007.74,-148.784 997.607,-145.68 1003.59,-154.424 1007.74,-148.784"/>
</g>
<!-- Node10 -->
<g id="node10" class="node"><title>Node10</title>
<g id="a_node10"><a xlink:href="classMainWindow.html#a935316315edb9b7af42657da20be0e54" target="_top" xlink:title="MainWindow::openRecentFile">
<polygon fill="white" stroke="black" points="1093,-126.5 1093,-145.5 1240,-145.5 1240,-126.5 1093,-126.5"/>
<text text-anchor="middle" x="1166.5" y="-133.5" font-family="Helvetica,sans-Serif" font-size="10.00">MainWindow::openRecentFile</text>
</a>
</g>
</g>
<!-- Node4&#45;&gt;Node10 -->
<g id="edge10" class="edge"><title>Node4&#45;&gt;Node10</title>
<path fill="none" stroke="midnightblue" d="M1053.33,-136C1066.28,-136 1079.87,-136 1092.94,-136"/>
<polygon fill="midnightblue" stroke="midnightblue" points="1053.1,-132.5 1043.1,-136 1053.1,-139.5 1053.1,-132.5"/>
</g>
<!-- Node11 -->
<g id="node11" class="node"><title>Node11</title>
<g id="a_node11"><a xlink:href="classPlaylistTreeWidget.html#a295170eb269cc67050ea0b575cd0ab53" target="_top" xlink:title="PlaylistTreeWidget\l::dropEvent">
<polygon fill="white" stroke="black" points="1117,-77 1117,-107 1216,-107 1216,-77 1117,-77"/>
<text text-anchor="start" x="1125" y="-95" font-family="Helvetica,sans-Serif" font-size="10.00">PlaylistTreeWidget</text>
<text text-anchor="middle" x="1166.5" y="-84" font-family="Helvetica,sans-Serif" font-size="10.00">::dropEvent</text>
</a>
</g>
</g>
<!-- Node4&#45;&gt;Node11 -->
<g id="edge12" class="edge"><title>Node4&#45;&gt;Node11</title>
<path fill="none" stroke="midnightblue" d="M1034.07,-124.039C1059.76,-117.777 1091.11,-110.135 1116.75,-103.884"/>
<polygon fill="midnightblue" stroke="midnightblue" points="1033.05,-120.684 1024.17,-126.453 1034.71,-127.485 1033.05,-120.684"/>
</g>
<!-- Node12 -->
<g id="node12" class="node"><title>Node12</title>
<g id="a_node12"><a xlink:href="classYUViewApp.html#ac0f5381cc5b703a9ea704b5eedab4b7f" target="_top" xlink:title="YUViewApp::YUViewApp">
<polygon fill="white" stroke="black" points="1102,-38.5 1102,-57.5 1231,-57.5 1231,-38.5 1102,-38.5"/>
<text text-anchor="middle" x="1166.5" y="-45.5" font-family="Helvetica,sans-Serif" font-size="10.00">YUViewApp::YUViewApp</text>
</a>
</g>
</g>
<!-- Node4&#45;&gt;Node12 -->
<g id="edge13" class="edge"><title>Node4&#45;&gt;Node12</title>
<path fill="none" stroke="midnightblue" d="M1005.36,-120.224C1026.3,-104.692 1060.36,-81.2804 1093,-67 1101.58,-63.2449 1111.07,-60.0991 1120.28,-57.5169"/>
<polygon fill="midnightblue" stroke="midnightblue" points="1003.12,-117.535 997.237,-126.349 1007.33,-123.125 1003.12,-117.535"/>
</g>
<!-- Node13 -->
<g id="node13" class="node"><title>Node13</title>
<g id="a_node13"><a xlink:href="classYUViewApp.html#a2f5f937d6677018ef73a5ffc248f9891" target="_top" xlink:title="YUViewApp::event">
<polygon fill="white" stroke="black" points="1116.5,-0.5 1116.5,-19.5 1216.5,-19.5 1216.5,-0.5 1116.5,-0.5"/>
<text text-anchor="middle" x="1166.5" y="-7.5" font-family="Helvetica,sans-Serif" font-size="10.00">YUViewApp::event</text>
</a>
</g>
</g>
<!-- Node4&#45;&gt;Node13 -->
<g id="edge14" class="edge"><title>Node4&#45;&gt;Node13</title>
<path fill="none" stroke="midnightblue" d="M998.085,-118.114C1016.55,-94.1811 1052.55,-52.0822 1093,-29 1100.12,-24.9373 1108.13,-21.7236 1116.15,-19.187"/>
<polygon fill="midnightblue" stroke="midnightblue" points="995.122,-116.229 991.893,-126.32 1000.71,-120.445 995.122,-116.229"/>
</g>
<!-- Node7 -->
<g id="node7" class="node"><title>Node7</title>
<g id="a_node7"><a xlink:href="classMainWindow.html#a9df7443ce5f907903438bb6a9abe9a33" target="_top" xlink:title="MainWindow::createMenusAnd\lActions">
<polygon fill="white" stroke="black" points="1291,-206 1291,-236 1443,-236 1443,-206 1291,-206"/>
<text text-anchor="start" x="1299" y="-224" font-family="Helvetica,sans-Serif" font-size="10.00">MainWindow::createMenusAnd</text>
<text text-anchor="middle" x="1367" y="-213" font-family="Helvetica,sans-Serif" font-size="10.00">Actions</text>
</a>
</g>
</g>
<!-- Node6&#45;&gt;Node7 -->
<g id="edge6" class="edge"><title>Node6&#45;&gt;Node7</title>
<path fill="none" stroke="midnightblue" d="M1234.76,-222.983C1252.78,-222.711 1272.37,-222.415 1290.78,-222.137"/>
<polygon fill="midnightblue" stroke="midnightblue" points="1234.59,-219.485 1224.65,-223.136 1234.7,-226.485 1234.59,-219.485"/>
</g>
<!-- Node9 -->
<g id="node9" class="node"><title>Node9</title>
<g id="a_node9"><a xlink:href="classMainWindow.html#aaba5c236313378986c42c4a634c4cfb9" target="_top" xlink:title="MainWindow::onCustomContextMenu">
<polygon fill="white" stroke="black" points="1276,-255.5 1276,-274.5 1458,-274.5 1458,-255.5 1276,-255.5"/>
<text text-anchor="middle" x="1367" y="-262.5" font-family="Helvetica,sans-Serif" font-size="10.00">MainWindow::onCustomContextMenu</text>
</a>
</g>
</g>
<!-- Node6&#45;&gt;Node9 -->
<g id="edge8" class="edge"><title>Node6&#45;&gt;Node9</title>
<path fill="none" stroke="midnightblue" d="M1223.58,-235.582C1254,-241.866 1291.14,-249.538 1319.87,-255.471"/>
<polygon fill="midnightblue" stroke="midnightblue" points="1224.04,-232.105 1213.54,-233.509 1222.62,-238.96 1224.04,-232.105"/>
</g>
<!-- Node8 -->
<g id="node8" class="node"><title>Node8</title>
<g id="a_node8"><a xlink:href="classMainWindow.html#a8b244be8b7b7db1b08de2a2acb9409db" target="_top" xlink:title="MainWindow::MainWindow">
<polygon fill="white" stroke="black" points="1494,-321.5 1494,-340.5 1629,-340.5 1629,-321.5 1494,-321.5"/>
<text text-anchor="middle" x="1561.5" y="-328.5" font-family="Helvetica,sans-Serif" font-size="10.00">MainWindow::MainWindow</text>
</a>
</g>
</g>
<!-- Node7&#45;&gt;Node8 -->
<g id="edge7" class="edge"><title>Node7&#45;&gt;Node8</title>
<path fill="none" stroke="midnightblue" d="M1444,-239.578C1448.83,-241.529 1453.53,-243.665 1458,-246 1497.13,-266.454 1534.93,-303.703 1551.6,-321.299"/>
<polygon fill="midnightblue" stroke="midnightblue" points="1445.2,-236.29 1434.61,-236.049 1442.74,-242.842 1445.2,-236.29"/>
</g>
<!-- Node9&#45;&gt;Node8 -->
<g id="edge9" class="edge"><title>Node9&#45;&gt;Node8</title>
<path fill="none" stroke="midnightblue" d="M1432.77,-276.865C1441.34,-278.959 1449.93,-281.336 1458,-284 1488.86,-294.192 1522.8,-310.928 1542.84,-321.436"/>
<polygon fill="midnightblue" stroke="midnightblue" points="1433.31,-273.395 1422.77,-274.536 1431.72,-280.213 1433.31,-273.395"/>
</g>
<!-- Node10&#45;&gt;Node7 -->
<g id="edge11" class="edge"><title>Node10&#45;&gt;Node7</title>
<path fill="none" stroke="midnightblue" d="M1220.32,-148.343C1227.02,-150.345 1233.72,-152.569 1240,-155 1276.62,-169.177 1316.35,-191.203 1341.21,-205.86"/>
<polygon fill="midnightblue" stroke="midnightblue" points="1221.14,-144.937 1210.56,-145.571 1219.23,-151.671 1221.14,-144.937"/>
</g>
<!-- Node14&#45;&gt;Node8 -->
<g id="edge16" class="edge"><title>Node14&#45;&gt;Node8</title>
<path fill="none" stroke="midnightblue" d="M478.236,-345.419C543.884,-375.265 678.833,-429 799.5,-429 799.5,-429 799.5,-429 1167.5,-429 1296.89,-429 1336.95,-455.698 1458,-410 1498.15,-394.844 1535.44,-358.328 1551.8,-340.761"/>
<polygon fill="midnightblue" stroke="midnightblue" points="479.611,-342.199 469.063,-341.198 476.685,-348.558 479.611,-342.199"/>
</g>
<!-- Node15 -->
<g id="node15" class="node"><title>Node15</title>
<g id="a_node15"><a xlink:href="classMainWindow.html#a29e6418f12a4331860a7db3616e91600" target="_top" xlink:title="updates the YUV information GUI elements from the current Renderobject ">
<polygon fill="white" stroke="black" points="541,-311 541,-341 690,-341 690,-311 541,-311"/>
<text text-anchor="start" x="549" y="-329" font-family="Helvetica,sans-Serif" font-size="10.00">MainWindow::updateSelection</text>
<text text-anchor="middle" x="615.5" y="-318" font-family="Helvetica,sans-Serif" font-size="10.00">MetaInfo</text>
</a>
</g>
</g>
<!-- Node14&#45;&gt;Node15 -->
<g id="edge17" class="edge"><title>Node14&#45;&gt;Node15</title>
<path fill="none" stroke="midnightblue" d="M515.478,-319.295C523.951,-319.224 532.559,-319.237 540.982,-319.334"/>
<polygon fill="midnightblue" stroke="midnightblue" points="515.186,-315.798 505.231,-319.423 515.274,-322.798 515.186,-315.798"/>
</g>
<!-- Node15&#45;&gt;Node14 -->
<g id="edge29" class="edge"><title>Node15&#45;&gt;Node14</title>
<path fill="none" stroke="midnightblue" d="M530.918,-332.742C522.305,-332.773 513.633,-332.718 505.231,-332.577"/>
<polygon fill="midnightblue" stroke="midnightblue" points="531.009,-336.241 540.982,-332.666 530.956,-329.241 531.009,-336.241"/>
</g>
<!-- Node16 -->
<g id="node16" class="node"><title>Node16</title>
<g id="a_node16"><a xlink:href="classMainWindow.html#a6f33e93f427ff2df80edffcb3ad944da" target="_top" xlink:title="MainWindow::updateSelected\lItems">
<polygon fill="white" stroke="black" points="911,-316 911,-346 1057,-346 1057,-316 911,-316"/>
<text text-anchor="start" x="919" y="-334" font-family="Helvetica,sans-Serif" font-size="10.00">MainWindow::updateSelected</text>
<text text-anchor="middle" x="984" y="-323" font-family="Helvetica,sans-Serif" font-size="10.00">Items</text>
</a>
</g>
</g>
<!-- Node15&#45;&gt;Node16 -->
<g id="edge18" class="edge"><title>Node15&#45;&gt;Node16</title>
<path fill="none" stroke="midnightblue" d="M700.279,-326.224C750.875,-326.464 816.647,-326.964 875,-328 886.628,-328.206 898.958,-328.489 910.968,-328.798"/>
<polygon fill="midnightblue" stroke="midnightblue" points="700.061,-322.723 690.045,-326.177 700.029,-329.723 700.061,-322.723"/>
</g>
<!-- Node21 -->
<g id="node21" class="node"><title>Node21</title>
<g id="a_node21"><a xlink:href="classMainWindow.html#a23cc43af3c6873f9a936b5af05c99f49" target="_top" xlink:title="The display objects information changed. Update. ">
<polygon fill="white" stroke="black" points="726,-338 726,-368 875,-368 875,-338 726,-338"/>
<text text-anchor="start" x="734" y="-356" font-family="Helvetica,sans-Serif" font-size="10.00">MainWindow::currentSelection</text>
<text text-anchor="middle" x="800.5" y="-345" font-family="Helvetica,sans-Serif" font-size="10.00">InformationChanged</text>
</a>
</g>
</g>
<!-- Node15&#45;&gt;Node21 -->
<g id="edge30" class="edge"><title>Node15&#45;&gt;Node21</title>
<path fill="none" stroke="midnightblue" d="M700.109,-338.336C708.651,-339.596 717.285,-340.87 725.711,-342.113"/>
<polygon fill="midnightblue" stroke="midnightblue" points="700.546,-334.862 690.142,-336.865 699.524,-341.787 700.546,-334.862"/>
</g>
<!-- Node16&#45;&gt;Node8 -->
<g id="edge19" class="edge"><title>Node16&#45;&gt;Node8</title>
<path fill="none" stroke="midnightblue" d="M1067.17,-332.044C1161.52,-333.08 1320.94,-334.337 1458,-333 1469.57,-332.887 1481.87,-332.703 1493.79,-332.49"/>
<polygon fill="midnightblue" stroke="midnightblue" points="1067.16,-328.543 1057.12,-331.931 1067.08,-335.543 1067.16,-328.543"/>
</g>
<!-- Node17 -->
<g id="node17" class="node"><title>Node17</title>
<g id="a_node17"><a xlink:href="classMainWindow.html#a6be7246a1a0ecf5d1442bb1775c3d9b3" target="_top" xlink:title="MainWindow::addDifference\lSequence">
<polygon fill="white" stroke="black" points="1096.5,-253 1096.5,-283 1236.5,-283 1236.5,-253 1096.5,-253"/>
<text text-anchor="start" x="1104.5" y="-271" font-family="Helvetica,sans-Serif" font-size="10.00">MainWindow::addDifference</text>
<text text-anchor="middle" x="1166.5" y="-260" font-family="Helvetica,sans-Serif" font-size="10.00">Sequence</text>
</a>
</g>
</g>
<!-- Node16&#45;&gt;Node17 -->
<g id="edge20" class="edge"><title>Node16&#45;&gt;Node17</title>
<path fill="none" stroke="midnightblue" d="M1037.15,-312.578C1054.86,-306.339 1074.79,-299.344 1093,-293 1102.3,-289.759 1112.29,-286.303 1121.78,-283.027"/>
<polygon fill="midnightblue" stroke="midnightblue" points="1035.82,-309.334 1027.55,-315.959 1038.15,-315.936 1035.82,-309.334"/>
</g>
<!-- Node18 -->
<g id="node18" class="node"><title>Node18</title>
<g id="a_node18"><a xlink:href="classMainWindow.html#af5ecc7c65080215b49b9d931c56c65c9" target="_top" xlink:title="MainWindow::editTextFrame">
<polygon fill="white" stroke="black" points="1095.5,-302.5 1095.5,-321.5 1237.5,-321.5 1237.5,-302.5 1095.5,-302.5"/>
<text text-anchor="middle" x="1166.5" y="-309.5" font-family="Helvetica,sans-Serif" font-size="10.00">MainWindow::editTextFrame</text>
</a>
</g>
</g>
<!-- Node16&#45;&gt;Node18 -->
<g id="edge23" class="edge"><title>Node16&#45;&gt;Node18</title>
<path fill="none" stroke="midnightblue" d="M1067.22,-322.346C1076.58,-321.359 1086.07,-320.361 1095.26,-319.393"/>
<polygon fill="midnightblue" stroke="midnightblue" points="1066.7,-318.881 1057.12,-323.409 1067.43,-325.843 1066.7,-318.881"/>
</g>
<!-- Node20 -->
<g id="node20" class="node"><title>Node20</title>
<g id="a_node20"><a xlink:href="classMainWindow.html#a156c29c6d7ab278e4246c88a0fcbe2f2" target="_top" xlink:title="MainWindow::updateSettings">
<polygon fill="white" stroke="black" points="1295,-381.5 1295,-400.5 1439,-400.5 1439,-381.5 1295,-381.5"/>
<text text-anchor="middle" x="1367" y="-388.5" font-family="Helvetica,sans-Serif" font-size="10.00">MainWindow::updateSettings</text>
</a>
</g>
</g>
<!-- Node16&#45;&gt;Node20 -->
<g id="edge27" class="edge"><title>Node16&#45;&gt;Node20</title>
<path fill="none" stroke="midnightblue" d="M1032.33,-349.444C1050.97,-356 1072.73,-362.792 1093,-367 1160.66,-381.049 1239.43,-386.882 1294.92,-389.299"/>
<polygon fill="midnightblue" stroke="midnightblue" points="1033.48,-346.141 1022.89,-346.052 1031.12,-352.728 1033.48,-346.141"/>
</g>
<!-- Node17&#45;&gt;Node7 -->
<g id="edge21" class="edge"><title>Node17&#45;&gt;Node7</title>
<path fill="none" stroke="midnightblue" d="M1240.68,-250.673C1260.99,-245.864 1282.87,-240.684 1302.57,-236.019"/>
<polygon fill="midnightblue" stroke="midnightblue" points="1239.78,-247.29 1230.85,-253 1241.39,-254.101 1239.78,-247.29"/>
</g>
<!-- Node17&#45;&gt;Node9 -->
<g id="edge22" class="edge"><title>Node17&#45;&gt;Node9</title>
<path fill="none" stroke="midnightblue" d="M1246.86,-266.801C1256.37,-266.657 1266.15,-266.509 1275.8,-266.363"/>
<polygon fill="midnightblue" stroke="midnightblue" points="1246.59,-263.304 1236.65,-266.955 1246.7,-270.303 1246.59,-263.304"/>
</g>
<!-- Node18&#45;&gt;Node9 -->
<g id="edge24" class="edge"><title>Node18&#45;&gt;Node9</title>
<path fill="none" stroke="midnightblue" d="M1212.87,-299.812C1232.27,-294.726 1255.19,-288.878 1276,-284 1289.84,-280.756 1304.93,-277.471 1318.74,-274.565"/>
<polygon fill="midnightblue" stroke="midnightblue" points="1211.85,-296.46 1203.07,-302.394 1213.64,-303.229 1211.85,-296.46"/>
</g>
<!-- Node19 -->
<g id="node19" class="node"><title>Node19</title>
<g id="a_node19"><a xlink:href="classMainWindow.html#ab18c663524e2c130759c0ca960129ea4" target="_top" xlink:title="MainWindow::onItemDouble\lClicked">
<polygon fill="white" stroke="black" points="1297,-294 1297,-324 1437,-324 1437,-294 1297,-294"/>
<text text-anchor="start" x="1305" y="-312" font-family="Helvetica,sans-Serif" font-size="10.00">MainWindow::onItemDouble</text>
<text text-anchor="middle" x="1367" y="-301" font-family="Helvetica,sans-Serif" font-size="10.00">Clicked</text>
</a>
</g>
</g>
<!-- Node18&#45;&gt;Node19 -->
<g id="edge25" class="edge"><title>Node18&#45;&gt;Node19</title>
<path fill="none" stroke="midnightblue" d="M1247.78,-310.787C1264.04,-310.541 1281,-310.285 1296.83,-310.045"/>
<polygon fill="midnightblue" stroke="midnightblue" points="1247.71,-307.287 1237.76,-310.938 1247.81,-314.286 1247.71,-307.287"/>
</g>
<!-- Node19&#45;&gt;Node8 -->
<g id="edge26" class="edge"><title>Node19&#45;&gt;Node8</title>
<path fill="none" stroke="midnightblue" d="M1447.28,-318.061C1462.75,-319.828 1478.81,-321.665 1493.82,-323.379"/>
<polygon fill="midnightblue" stroke="midnightblue" points="1447.56,-314.57 1437.22,-316.911 1446.76,-321.524 1447.56,-314.57"/>
</g>
<!-- Node20&#45;&gt;Node8 -->
<g id="edge28" class="edge"><title>Node20&#45;&gt;Node8</title>
<path fill="none" stroke="midnightblue" d="M1415.97,-378.941C1429.62,-375.314 1444.45,-371.18 1458,-367 1484.49,-358.828 1514.36,-348.171 1534.99,-340.577"/>
<polygon fill="midnightblue" stroke="midnightblue" points="1415.07,-375.56 1406.28,-381.487 1416.85,-382.331 1415.07,-375.56"/>
</g>
<!-- Node21&#45;&gt;Node16 -->
<g id="edge31" class="edge"><title>Node21&#45;&gt;Node16</title>
<path fill="none" stroke="midnightblue" d="M885.087,-342.868C893.678,-341.827 902.354,-340.775 910.806,-339.751"/>
<polygon fill="midnightblue" stroke="midnightblue" points="884.567,-339.406 875.061,-344.083 885.41,-346.355 884.567,-339.406"/>
</g>
<!-- Node23 -->
<g id="node23" class="node"><title>Node23</title>
<g id="a_node23"><a xlink:href="classYUVFile.html#a75df71aea1c05d5eda21e4003855c11f" target="_top" xlink:title="Get the format of the YUV if known. ">
<polygon fill="white" stroke="black" points="385,-234.5 385,-253.5 489,-253.5 489,-234.5 385,-234.5"/>
<text text-anchor="middle" x="437" y="-241.5" font-family="Helvetica,sans-Serif" font-size="10.00">YUVFile::getFormat</text>
</a>
</g>
</g>
<!-- Node22&#45;&gt;Node23 -->
<g id="edge33" class="edge"><title>Node22&#45;&gt;Node23</title>
<path fill="none" stroke="midnightblue" d="M327.085,-232.535C346.4,-234.568 366.908,-236.727 384.857,-238.616"/>
<polygon fill="midnightblue" stroke="midnightblue" points="327.425,-229.052 317.113,-231.486 326.692,-236.013 327.425,-229.052"/>
</g>
<!-- Node24&#45;&gt;Node23 -->
<g id="edge35" class="edge"><title>Node24&#45;&gt;Node23</title>
<path fill="none" stroke="midnightblue" d="M343.395,-253.748C357.586,-252.254 371.855,-250.752 384.796,-249.39"/>
<polygon fill="midnightblue" stroke="midnightblue" points="342.674,-250.304 333.096,-254.832 343.407,-257.266 342.674,-250.304"/>
</g>
</g>
</svg>
        <g id="navigator" transform="translate(0 0)" fill="#404254">
                <rect fill="#f2f5e9" fill-opacity="0.5" stroke="#606060" stroke-width=".5" x="0" y="0" width="60" height="60"/>
                <use id="zoomplus" xlink:href="#zoomPlus" x="17" y="9" onmousedown="handleZoom(evt,'in')"/>
                <use id="zoomminus" xlink:href="#zoomMin" x="42" y="9" onmousedown="handleZoom(evt,'out')"/>
                <use id="reset" xlink:href="#resetDef" x="30" y="36" onmousedown="handleReset()"/>
                <g id="arrowUp" xlink:href="#dirArrow" transform="translate(30 24)" onmousedown="handlePan(0,-1)">
                  <use xlink:href="#rim" fill="#404040">
                        <set attributeName="fill" to="#808080" begin="arrowUp.mouseover" end="arrowUp.mouseout"/>
                  </use>
                  <path fill="none" stroke="white" stroke-width="1.5" d="M0,-3.0v7 M-2.5,-0.5L0,-3.0L2.5,-0.5"/>
                </g>
                <g id="arrowRight" xlink:href="#dirArrow" transform="rotate(90) translate(36 -43)" onmousedown="handlePan(1,0)">
                  <use xlink:href="#rim" fill="#404040">
                        <set attributeName="fill" to="#808080" begin="arrowRight.mouseover" end="arrowRight.mouseout"/>
                  </use>
                  <path fill="none" stroke="white" stroke-width="1.5" d="M0,-3.0v7 M-2.5,-0.5L0,-3.0L2.5,-0.5"/>
                </g>
                <g id="arrowDown" xlink:href="#dirArrow" transform="rotate(180) translate(-30 -48)" onmousedown="handlePan(0,1)">
                  <use xlink:href="#rim" fill="#404040">
                        <set attributeName="fill" to="#808080" begin="arrowDown.mouseover" end="arrowDown.mouseout"/>
                  </use>
                  <path fill="none" stroke="white" stroke-width="1.5" d="M0,-3.0v7 M-2.5,-0.5L0,-3.0L2.5,-0.5"/>
                </g>
                <g id="arrowLeft" xlink:href="#dirArrow" transform="rotate(270) translate(-36 17)" onmousedown="handlePan(-1,0)">
                  <use xlink:href="#rim" fill="#404040">
                        <set attributeName="fill" to="#808080" begin="arrowLeft.mouseover" end="arrowLeft.mouseout"/>
                  </use>
                  <path fill="none" stroke="white" stroke-width="1.5" d="M0,-3.0v7 M-2.5,-0.5L0,-3.0L2.5,-0.5"/>
                </g>
        </g>
        <svg viewBox="0 0 15 15" width="100%" height="30px" preserveAspectRatio="xMaxYMin meet">
         <g id="arrow_out" transform="scale(0.3 0.3)">
          <a xlink:href="classYUVSource_a3b9129ee597809af82176876e40a215a_icgraph_org.svg" target="_base">
           <rect id="button" ry="5" rx="5" y="6" x="6" height="38" width="38"
                fill="#f2f5e9" fill-opacity="0.5" stroke="#606060" stroke-width="1.0"/>
           <path id="arrow"
             d="M 11.500037,31.436501 C 11.940474,20.09759 22.043105,11.32322 32.158766,21.979434 L 37.068811,17.246167 C 37.068811,17.246167 37.088388,32 37.088388,32 L 22.160133,31.978069 C 22.160133,31.978069 26.997745,27.140456 26.997745,27.140456 C 18.528582,18.264221 13.291696,25.230495 11.500037,31.436501 z"
             style="fill:#404040;"/>
          </a>
         </g>
        </svg>
</svg>
