<?xml version="1.0" encoding="UTF-8" standalone="no"?>
<!DOCTYPE svg PUBLIC "-//W3C//DTD SVG 1.1//EN"
 "http://www.w3.org/Graphics/SVG/1.1/DTD/svg11.dtd">
<!-- Generated by graphviz version 2.38.0 (20140413.2041)
 -->
<!-- Title: DisplaySplitWidget::setZoomPoints Pages: 1 -->
<svg width="517pt" height="137pt"
 viewBox="0.00 0.00 517.00 137.00" xmlns="http://www.w3.org/2000/svg" xmlns:xlink="http://www.w3.org/1999/xlink">
<g id="graph0" class="graph" transform="scale(1 1) rotate(0) translate(4 133)">
<title>DisplaySplitWidget::setZoomPoints</title>
<polygon fill="white" stroke="none" points="-4,4 -4,-133 513,-133 513,4 -4,4"/>
<!-- Node1 -->
<g id="node1" class="node"><title>Node1</title>
<polygon fill="#bfbfbf" stroke="black" points="0,-49.5 0,-79.5 100,-79.5 100,-49.5 0,-49.5"/>
<text text-anchor="start" x="8" y="-67.5" font-family="Helvetica,sans-Serif" font-size="10.00">DisplaySplitWidget</text>
<text text-anchor="middle" x="50" y="-56.5" font-family="Helvetica,sans-Serif" font-size="10.00">::setZoomPoints</text>
</g>
<!-- Node2 -->
<g id="node2" class="node"><title>Node2</title>
<g id="a_node2"><a xlink:href="classDisplaySplitWidget.html#ad714b0427a31a3ac29bf0f0a2c1f3611" target="_top" xlink:title="DisplaySplitWidget\l::zoomIn">
<polygon fill="white" stroke="black" points="136,-49.5 136,-79.5 236,-79.5 236,-49.5 136,-49.5"/>
<text text-anchor="start" x="144" y="-67.5" font-family="Helvetica,sans-Serif" font-size="10.00">DisplaySplitWidget</text>
<text text-anchor="middle" x="186" y="-56.5" font-family="Helvetica,sans-Serif" font-size="10.00">::zoomIn</text>
</a>
</g>
</g>
<!-- Node1&#45;&gt;Node2 -->
<g id="edge1" class="edge"><title>Node1&#45;&gt;Node2</title>
<path fill="none" stroke="midnightblue" d="M110.398,-64.5C118.909,-64.5 127.586,-64.5 135.87,-64.5"/>
<polygon fill="midnightblue" stroke="midnightblue" points="110.136,-61.0001 100.136,-64.5 110.136,-68.0001 110.136,-61.0001"/>
</g>
<!-- Node6 -->
<g id="node6" class="node"><title>Node6</title>
<g id="a_node6"><a xlink:href="classDisplaySplitWidget.html#aeea14bc10ca6579ab6f68f8150f9ac5f" target="_top" xlink:title="DisplaySplitWidget\l::zoomOut">
<polygon fill="white" stroke="black" points="136,-0.5 136,-30.5 236,-30.5 236,-0.5 136,-0.5"/>
<text text-anchor="start" x="144" y="-18.5" font-family="Helvetica,sans-Serif" font-size="10.00">DisplaySplitWidget</text>
<text text-anchor="middle" x="186" y="-7.5" font-family="Helvetica,sans-Serif" font-size="10.00">::zoomOut</text>
</a>
</g>
</g>
<!-- Node1&#45;&gt;Node6 -->
<g id="edge5" class="edge"><title>Node1&#45;&gt;Node6</title>
<path fill="none" stroke="midnightblue" d="M102.088,-45.8184C115.812,-40.7999 130.482,-35.4357 143.608,-30.6359"/>
<polygon fill="midnightblue" stroke="midnightblue" points="100.488,-42.6771 92.2978,-49.3986 102.892,-49.2513 100.488,-42.6771"/>
</g>
<!-- Node7 -->
<g id="node7" class="node"><title>Node7</title>
<g id="a_node7"><a xlink:href="classDisplaySplitWidget.html#a66c16edce3aae0df82f888348cd7590d" target="_top" xlink:title="DisplaySplitWidget\l::mouseMoveEvent">
<polygon fill="white" stroke="black" points="272,-98.5 272,-128.5 373,-128.5 373,-98.5 272,-98.5"/>
<text text-anchor="start" x="280" y="-116.5" font-family="Helvetica,sans-Serif" font-size="10.00">DisplaySplitWidget</text>
<text text-anchor="middle" x="322.5" y="-105.5" font-family="Helvetica,sans-Serif" font-size="10.00">::mouseMoveEvent</text>
</a>
</g>
</g>
<!-- Node1&#45;&gt;Node7 -->
<g id="edge8" class="edge"><title>Node1&#45;&gt;Node7</title>
<path fill="none" stroke="midnightblue" d="M109.537,-82.1931C118.356,-84.5192 127.382,-86.712 136,-88.5 181.659,-97.9734 234.417,-104.682 271.968,-108.748"/>
<polygon fill="midnightblue" stroke="midnightblue" points="110.269,-78.7653 99.7017,-79.5247 108.436,-85.5211 110.269,-78.7653"/>
</g>
<!-- Node3 -->
<g id="node3" class="node"><title>Node3</title>
<g id="a_node3"><a xlink:href="classDisplaySplitWidget.html#a95fb887b76609440c606ddccadee2318" target="_top" xlink:title="DisplaySplitWidget\l::gestureEvent">
<polygon fill="white" stroke="black" points="272.5,-49.5 272.5,-79.5 372.5,-79.5 372.5,-49.5 272.5,-49.5"/>
<text text-anchor="start" x="280.5" y="-67.5" font-family="Helvetica,sans-Serif" font-size="10.00">DisplaySplitWidget</text>
<text text-anchor="middle" x="322.5" y="-56.5" font-family="Helvetica,sans-Serif" font-size="10.00">::gestureEvent</text>
</a>
</g>
</g>
<!-- Node2&#45;&gt;Node3 -->
<g id="edge2" class="edge"><title>Node2&#45;&gt;Node3</title>
<path fill="none" stroke="midnightblue" d="M246.338,-64.5C254.971,-64.5 263.781,-64.5 272.187,-64.5"/>
<polygon fill="midnightblue" stroke="midnightblue" points="246.319,-61.0001 236.319,-64.5 246.319,-68.0001 246.319,-61.0001"/>
</g>
<!-- Node5 -->
<g id="node5" class="node"><title>Node5</title>
<g id="a_node5"><a xlink:href="classDisplaySplitWidget.html#a3560f335caf77049205e63785c8073ba" target="_top" xlink:title="DisplaySplitWidget\l::wheelEvent">
<polygon fill="white" stroke="black" points="272.5,-0.5 272.5,-30.5 372.5,-30.5 372.5,-0.5 272.5,-0.5"/>
<text text-anchor="start" x="280.5" y="-18.5" font-family="Helvetica,sans-Serif" font-size="10.00">DisplaySplitWidget</text>
<text text-anchor="middle" x="322.5" y="-7.5" font-family="Helvetica,sans-Serif" font-size="10.00">::wheelEvent</text>
</a>
</g>
</g>
<!-- Node2&#45;&gt;Node5 -->
<g id="edge4" class="edge"><title>Node2&#45;&gt;Node5</title>
<path fill="none" stroke="midnightblue" d="M237.878,-45.9645C251.768,-40.9041 266.651,-35.4823 279.953,-30.6359"/>
<polygon fill="midnightblue" stroke="midnightblue" points="236.65,-42.6869 228.452,-49.3986 239.046,-49.264 236.65,-42.6869"/>
</g>
<!-- Node4 -->
<g id="node4" class="node"><title>Node4</title>
<g id="a_node4"><a xlink:href="classDisplaySplitWidget.html#a152c9ea9cbd3aa079800b6c1d0fbb284" target="_top" xlink:title="DisplaySplitWidget\l::event">
<polygon fill="white" stroke="black" points="409,-73.5 409,-103.5 509,-103.5 509,-73.5 409,-73.5"/>
<text text-anchor="start" x="417" y="-91.5" font-family="Helvetica,sans-Serif" font-size="10.00">DisplaySplitWidget</text>
<text text-anchor="middle" x="459" y="-80.5" font-family="Helvetica,sans-Serif" font-size="10.00">::event</text>
</a>
</g>
</g>
<!-- Node3&#45;&gt;Node4 -->
<g id="edge3" class="edge"><title>Node3&#45;&gt;Node4</title>
<path fill="none" stroke="midnightblue" d="M382.838,-75.0882C391.471,-76.6287 400.281,-78.2006 408.687,-79.7006"/>
<polygon fill="midnightblue" stroke="midnightblue" points="383.278,-71.6116 372.819,-73.3004 382.049,-78.5027 383.278,-71.6116"/>
</g>
<!-- Node6&#45;&gt;Node3 -->
<g id="edge6" class="edge"><title>Node6&#45;&gt;Node3</title>
<path fill="none" stroke="midnightblue" d="M237.878,-34.0355C251.768,-39.0959 266.651,-44.5177 279.953,-49.3641"/>
<polygon fill="midnightblue" stroke="midnightblue" points="239.046,-30.736 228.452,-30.6014 236.65,-37.3131 239.046,-30.736"/>
</g>
<!-- Node6&#45;&gt;Node5 -->
<g id="edge7" class="edge"><title>Node6&#45;&gt;Node5</title>
<path fill="none" stroke="midnightblue" d="M246.338,-15.5C254.971,-15.5 263.781,-15.5 272.187,-15.5"/>
<polygon fill="midnightblue" stroke="midnightblue" points="246.319,-12.0001 236.319,-15.5 246.319,-19.0001 246.319,-12.0001"/>
</g>
<!-- Node7&#45;&gt;Node4 -->
<g id="edge9" class="edge"><title>Node7&#45;&gt;Node4</title>
<path fill="none" stroke="midnightblue" d="M383.196,-102.404C391.805,-100.804 400.582,-99.1725 408.952,-97.6168"/>
<polygon fill="midnightblue" stroke="midnightblue" points="382.393,-98.9934 373.201,-104.262 383.672,-105.875 382.393,-98.9934"/>
</g>
</g>
</svg>
