<?xml version="1.0" encoding="UTF-8" standalone="no"?>
<!DOCTYPE svg PUBLIC "-//W3C//DTD SVG 1.1//EN"
 "http://www.w3.org/Graphics/SVG/1.1/DTD/svg11.dtd">
<!-- Generated by graphviz version 2.38.0 (20140413.2041)
 -->
<!-- Title: statisticSource::drawStatisticsImage Pages: 1 -->
<svg width="1466pt" height="524pt"
 viewBox="0.00 0.00 1466.00 524.00" xmlns="http://www.w3.org/2000/svg" xmlns:xlink="http://www.w3.org/1999/xlink">
<g id="graph0" class="graph" transform="scale(1 1) rotate(0) translate(4 520)">
<title>statisticSource::drawStatisticsImage</title>
<polygon fill="white" stroke="none" points="-4,4 -4,-520 1462,-520 1462,4 -4,4"/>
<!-- Node1 -->
<g id="node1" class="node"><title>Node1</title>
<polygon fill="#bfbfbf" stroke="black" points="0,-363.5 0,-393.5 150,-393.5 150,-363.5 0,-363.5"/>
<text text-anchor="start" x="8" y="-381.5" font-family="Helvetica,sans-Serif" font-size="10.00">statisticSource::drawStatistics</text>
<text text-anchor="middle" x="75" y="-370.5" font-family="Helvetica,sans-Serif" font-size="10.00">Image</text>
</g>
<!-- Node2 -->
<g id="node2" class="node"><title>Node2</title>
<g id="a_node2"><a xlink:href="classstatisticSource.html#a97118da6546c479004129b4fcc6851bf" target="_top" xlink:title="statisticSource::drawStatistics">
<polygon fill="white" stroke="black" points="186,-369 186,-388 336,-388 336,-369 186,-369"/>
<text text-anchor="middle" x="261" y="-376" font-family="Helvetica,sans-Serif" font-size="10.00">statisticSource::drawStatistics</text>
</a>
</g>
</g>
<!-- Node1&#45;&gt;Node2 -->
<g id="edge1" class="edge"><title>Node1&#45;&gt;Node2</title>
<path fill="none" stroke="midnightblue" d="M160.066,-378.5C168.654,-378.5 177.336,-378.5 185.808,-378.5"/>
<polygon fill="midnightblue" stroke="midnightblue" points="160.045,-375 150.044,-378.5 160.044,-382 160.045,-375"/>
</g>
<!-- Node3 -->
<g id="node3" class="node"><title>Node3</title>
<g id="a_node3"><a xlink:href="classStatisticsObject.html#a7ef3844aa2a91ec4fc67233f7a6f5552" target="_top" xlink:title="StatisticsObject::loadImage">
<polygon fill="white" stroke="black" points="372,-369 372,-388 509,-388 509,-369 372,-369"/>
<text text-anchor="middle" x="440.5" y="-376" font-family="Helvetica,sans-Serif" font-size="10.00">StatisticsObject::loadImage</text>
</a>
</g>
</g>
<!-- Node2&#45;&gt;Node3 -->
<g id="edge2" class="edge"><title>Node2&#45;&gt;Node3</title>
<path fill="none" stroke="midnightblue" d="M346.251,-378.5C354.81,-378.5 363.426,-378.5 371.778,-378.5"/>
<polygon fill="midnightblue" stroke="midnightblue" points="346.248,-375 336.248,-378.5 346.247,-382 346.248,-375"/>
</g>
<!-- Node4 -->
<g id="node4" class="node"><title>Node4</title>
<g id="a_node4"><a xlink:href="classDisplayWidget.html#a4a0937fa643aabd3dc4894a5c71179bf" target="_top" xlink:title="DisplayWidget::drawFrame">
<polygon fill="white" stroke="black" points="545,-391 545,-410 680,-410 680,-391 545,-391"/>
<text text-anchor="middle" x="612.5" y="-398" font-family="Helvetica,sans-Serif" font-size="10.00">DisplayWidget::drawFrame</text>
</a>
</g>
</g>
<!-- Node3&#45;&gt;Node4 -->
<g id="edge3" class="edge"><title>Node3&#45;&gt;Node4</title>
<path fill="none" stroke="midnightblue" d="M519.187,-388.554C527.772,-389.665 536.457,-390.789 544.888,-391.88"/>
<polygon fill="midnightblue" stroke="midnightblue" points="519.543,-385.071 509.177,-387.258 518.645,-392.013 519.543,-385.071"/>
</g>
<!-- Node6 -->
<g id="node6" class="node"><title>Node6</title>
<g id="a_node6"><a xlink:href="classStatisticsObject.html#a09c2920b75ecda0e175a6c9384b446ab" target="_top" xlink:title="StatisticsObject::reload\lImage">
<polygon fill="white" stroke="black" points="553,-341.5 553,-371.5 672,-371.5 672,-341.5 553,-341.5"/>
<text text-anchor="start" x="561" y="-359.5" font-family="Helvetica,sans-Serif" font-size="10.00">StatisticsObject::reload</text>
<text text-anchor="middle" x="612.5" y="-348.5" font-family="Helvetica,sans-Serif" font-size="10.00">Image</text>
</a>
</g>
</g>
<!-- Node3&#45;&gt;Node6 -->
<g id="edge5" class="edge"><title>Node3&#45;&gt;Node6</title>
<path fill="none" stroke="midnightblue" d="M519.425,-368.416C530.66,-366.962 542.061,-365.486 552.836,-364.092"/>
<polygon fill="midnightblue" stroke="midnightblue" points="518.645,-364.987 509.177,-369.742 519.543,-371.929 518.645,-364.987"/>
</g>
<!-- Node5 -->
<g id="node5" class="node"><title>Node5</title>
<g id="a_node5"><a xlink:href="classDisplaySplitWidget.html#a95e926ec447ef50cee841ff4d7d4f59a" target="_top" xlink:title="DisplaySplitWidget\l::drawFrame">
<polygon fill="white" stroke="black" points="743,-385.5 743,-415.5 843,-415.5 843,-385.5 743,-385.5"/>
<text text-anchor="start" x="751" y="-403.5" font-family="Helvetica,sans-Serif" font-size="10.00">DisplaySplitWidget</text>
<text text-anchor="middle" x="793" y="-392.5" font-family="Helvetica,sans-Serif" font-size="10.00">::drawFrame</text>
</a>
</g>
</g>
<!-- Node4&#45;&gt;Node5 -->
<g id="edge4" class="edge"><title>Node4&#45;&gt;Node5</title>
<path fill="none" stroke="midnightblue" d="M690.575,-400.5C708.326,-400.5 726.732,-400.5 742.913,-400.5"/>
<polygon fill="midnightblue" stroke="midnightblue" points="690.221,-397 680.221,-400.5 690.221,-404 690.221,-397"/>
</g>
<!-- Node7 -->
<g id="node7" class="node"><title>Node7</title>
<g id="a_node7"><a xlink:href="classDisplayWidget.html#a822a3c50c6c602fafff6ef2132ccdb42" target="_top" xlink:title="DisplayWidget::setDisplayRect">
<polygon fill="white" stroke="black" points="716,-347 716,-366 870,-366 870,-347 716,-347"/>
<text text-anchor="middle" x="793" y="-354" font-family="Helvetica,sans-Serif" font-size="10.00">DisplayWidget::setDisplayRect</text>
</a>
</g>
</g>
<!-- Node6&#45;&gt;Node7 -->
<g id="edge6" class="edge"><title>Node6&#45;&gt;Node7</title>
<path fill="none" stroke="midnightblue" d="M682.724,-356.5C693.605,-356.5 704.905,-356.5 715.931,-356.5"/>
<polygon fill="midnightblue" stroke="midnightblue" points="682.442,-353 672.442,-356.5 682.442,-360 682.442,-353"/>
</g>
<!-- Node8 -->
<g id="node8" class="node"><title>Node8</title>
<g id="a_node8"><a xlink:href="classDisplaySplitWidget.html#a07d514c8000eade67022e9f73a4214c0" target="_top" xlink:title="DisplaySplitWidget\l::zoomToPoint">
<polygon fill="white" stroke="black" points="906,-404.5 906,-434.5 1006,-434.5 1006,-404.5 906,-404.5"/>
<text text-anchor="start" x="914" y="-422.5" font-family="Helvetica,sans-Serif" font-size="10.00">DisplaySplitWidget</text>
<text text-anchor="middle" x="956" y="-411.5" font-family="Helvetica,sans-Serif" font-size="10.00">::zoomToPoint</text>
</a>
</g>
</g>
<!-- Node7&#45;&gt;Node8 -->
<g id="edge7" class="edge"><title>Node7&#45;&gt;Node8</title>
<path fill="none" stroke="midnightblue" d="M846.377,-368.726C854.379,-371.04 862.473,-373.643 870,-376.5 890.409,-384.248 912.37,-395.438 928.856,-404.461"/>
<polygon fill="midnightblue" stroke="midnightblue" points="847.28,-365.344 836.709,-366.05 845.413,-372.091 847.28,-365.344"/>
</g>
<!-- Node9 -->
<g id="node9" class="node"><title>Node9</title>
<g id="a_node9"><a xlink:href="classDisplaySplitWidget.html#ad714b0427a31a3ac29bf0f0a2c1f3611" target="_top" xlink:title="DisplaySplitWidget\l::zoomIn">
<polygon fill="white" stroke="black" points="1048.5,-338.5 1048.5,-368.5 1148.5,-368.5 1148.5,-338.5 1048.5,-338.5"/>
<text text-anchor="start" x="1056.5" y="-356.5" font-family="Helvetica,sans-Serif" font-size="10.00">DisplaySplitWidget</text>
<text text-anchor="middle" x="1098.5" y="-345.5" font-family="Helvetica,sans-Serif" font-size="10.00">::zoomIn</text>
</a>
</g>
</g>
<!-- Node7&#45;&gt;Node9 -->
<g id="edge18" class="edge"><title>Node7&#45;&gt;Node9</title>
<path fill="none" stroke="midnightblue" d="M880.528,-355.645C934.917,-355.107 1003.11,-354.433 1048.38,-353.986"/>
<polygon fill="midnightblue" stroke="midnightblue" points="880.159,-352.148 870.194,-355.747 880.228,-359.148 880.159,-352.148"/>
</g>
<!-- Node13 -->
<g id="node13" class="node"><title>Node13</title>
<g id="a_node13"><a xlink:href="classDisplaySplitWidget.html#aeea14bc10ca6579ab6f68f8150f9ac5f" target="_top" xlink:title="DisplaySplitWidget\l::zoomOut">
<polygon fill="white" stroke="black" points="1048.5,-436.5 1048.5,-466.5 1148.5,-466.5 1148.5,-436.5 1048.5,-436.5"/>
<text text-anchor="start" x="1056.5" y="-454.5" font-family="Helvetica,sans-Serif" font-size="10.00">DisplaySplitWidget</text>
<text text-anchor="middle" x="1098.5" y="-443.5" font-family="Helvetica,sans-Serif" font-size="10.00">::zoomOut</text>
</a>
</g>
</g>
<!-- Node7&#45;&gt;Node13 -->
<g id="edge19" class="edge"><title>Node7&#45;&gt;Node13</title>
<path fill="none" stroke="midnightblue" d="M860.97,-370.525C864.154,-372.288 867.189,-374.27 870,-376.5 896.791,-397.752 877.031,-426.329 906,-444.5 948.416,-471.105 1007.15,-468.848 1048.35,-462.469"/>
<polygon fill="midnightblue" stroke="midnightblue" points="862.201,-367.235 851.666,-366.116 859.204,-373.561 862.201,-367.235"/>
</g>
<!-- Node14 -->
<g id="node14" class="node"><title>Node14</title>
<g id="a_node14"><a xlink:href="classDisplaySplitWidget.html#a43d312016afd6d843f1c624905f4afee" target="_top" xlink:title="DisplaySplitWidget\l::zoomToFit">
<polygon fill="white" stroke="black" points="1048.5,-387.5 1048.5,-417.5 1148.5,-417.5 1148.5,-387.5 1048.5,-387.5"/>
<text text-anchor="start" x="1056.5" y="-405.5" font-family="Helvetica,sans-Serif" font-size="10.00">DisplaySplitWidget</text>
<text text-anchor="middle" x="1098.5" y="-394.5" font-family="Helvetica,sans-Serif" font-size="10.00">::zoomToFit</text>
</a>
</g>
</g>
<!-- Node7&#45;&gt;Node14 -->
<g id="edge20" class="edge"><title>Node7&#45;&gt;Node14</title>
<path fill="none" stroke="midnightblue" d="M867.118,-367.582C923.214,-376.084 999.117,-387.589 1048.2,-395.027"/>
<polygon fill="midnightblue" stroke="midnightblue" points="867.297,-364.069 856.885,-366.031 866.248,-370.99 867.297,-364.069"/>
</g>
<!-- Node15 -->
<g id="node15" class="node"><title>Node15</title>
<g id="a_node15"><a xlink:href="classDisplaySplitWidget.html#a0a3afd6247d51bc2ca6fabfc30ff9548" target="_top" xlink:title="DisplaySplitWidget\l::mouseReleaseEvent">
<polygon fill="white" stroke="black" points="1042,-485.5 1042,-515.5 1155,-515.5 1155,-485.5 1042,-485.5"/>
<text text-anchor="start" x="1050" y="-503.5" font-family="Helvetica,sans-Serif" font-size="10.00">DisplaySplitWidget</text>
<text text-anchor="middle" x="1098.5" y="-492.5" font-family="Helvetica,sans-Serif" font-size="10.00">::mouseReleaseEvent</text>
</a>
</g>
</g>
<!-- Node7&#45;&gt;Node15 -->
<g id="edge25" class="edge"><title>Node7&#45;&gt;Node15</title>
<path fill="none" stroke="midnightblue" d="M862.368,-370.793C865.073,-372.491 867.635,-374.386 870,-376.5 903.046,-406.037 871.564,-441.597 906,-469.5 943.812,-500.138 999.951,-506.066 1041.68,-505.417"/>
<polygon fill="midnightblue" stroke="midnightblue" points="863.793,-367.587 853.316,-366.011 860.523,-373.777 863.793,-367.587"/>
</g>
<!-- Node16 -->
<g id="node16" class="node"><title>Node16</title>
<g id="a_node16"><a xlink:href="classDisplaySplitWidget.html#a9421eba026630943587a9ae226c7f8d6" target="_top" xlink:title="DisplaySplitWidget\l::panDisplay">
<polygon fill="white" stroke="black" points="1048.5,-289.5 1048.5,-319.5 1148.5,-319.5 1148.5,-289.5 1048.5,-289.5"/>
<text text-anchor="start" x="1056.5" y="-307.5" font-family="Helvetica,sans-Serif" font-size="10.00">DisplaySplitWidget</text>
<text text-anchor="middle" x="1098.5" y="-296.5" font-family="Helvetica,sans-Serif" font-size="10.00">::panDisplay</text>
</a>
</g>
</g>
<!-- Node7&#45;&gt;Node16 -->
<g id="edge21" class="edge"><title>Node7&#45;&gt;Node16</title>
<path fill="none" stroke="midnightblue" d="M859.603,-345.26C916.27,-335.551 996.902,-321.736 1048.21,-312.945"/>
<polygon fill="midnightblue" stroke="midnightblue" points="858.932,-341.824 849.667,-346.962 860.114,-348.723 858.932,-341.824"/>
</g>
<!-- Node18 -->
<g id="node18" class="node"><title>Node18</title>
<g id="a_node18"><a xlink:href="classDisplaySplitWidget.html#a337e94b12c4e1837457997cf9d074046" target="_top" xlink:title="DisplaySplitWidget\l::splitterMovedTo">
<polygon fill="white" stroke="black" points="906,-240.5 906,-270.5 1006,-270.5 1006,-240.5 906,-240.5"/>
<text text-anchor="start" x="914" y="-258.5" font-family="Helvetica,sans-Serif" font-size="10.00">DisplaySplitWidget</text>
<text text-anchor="middle" x="956" y="-247.5" font-family="Helvetica,sans-Serif" font-size="10.00">::splitterMovedTo</text>
</a>
</g>
</g>
<!-- Node7&#45;&gt;Node18 -->
<g id="edge26" class="edge"><title>Node7&#45;&gt;Node18</title>
<path fill="none" stroke="midnightblue" d="M817.771,-341.28C840.396,-326.829 875.43,-304.546 906,-285.5 913.873,-280.595 922.493,-275.294 930.277,-270.533"/>
<polygon fill="midnightblue" stroke="midnightblue" points="815.71,-338.443 809.17,-346.778 819.48,-344.341 815.71,-338.443"/>
</g>
<!-- Node20 -->
<g id="node20" class="node"><title>Node20</title>
<g id="a_node20"><a xlink:href="classDisplaySplitWidget.html#ac88b455e49d13fb34439e45838e468d9" target="_top" xlink:title="DisplaySplitWidget\l::updateView">
<polygon fill="white" stroke="black" points="906,-118.5 906,-148.5 1006,-148.5 1006,-118.5 906,-118.5"/>
<text text-anchor="start" x="914" y="-136.5" font-family="Helvetica,sans-Serif" font-size="10.00">DisplaySplitWidget</text>
<text text-anchor="middle" x="956" y="-125.5" font-family="Helvetica,sans-Serif" font-size="10.00">::updateView</text>
</a>
</g>
</g>
<!-- Node7&#45;&gt;Node20 -->
<g id="edge28" class="edge"><title>Node7&#45;&gt;Node20</title>
<path fill="none" stroke="midnightblue" d="M806.92,-338.605C837.786,-295.852 915.377,-188.381 944.092,-148.609"/>
<polygon fill="midnightblue" stroke="midnightblue" points="803.934,-336.761 800.918,-346.918 809.609,-340.859 803.934,-336.761"/>
</g>
<!-- Node8&#45;&gt;Node9 -->
<g id="edge8" class="edge"><title>Node8&#45;&gt;Node9</title>
<path fill="none" stroke="midnightblue" d="M996.999,-399.941C1011.17,-393.08 1027.26,-385.373 1042,-378.5 1048.99,-375.24 1056.51,-371.806 1063.68,-368.563"/>
<polygon fill="midnightblue" stroke="midnightblue" points="995.462,-396.796 987.993,-404.31 998.518,-403.093 995.462,-396.796"/>
</g>
<!-- Node8&#45;&gt;Node13 -->
<g id="edge12" class="edge"><title>Node8&#45;&gt;Node13</title>
<path fill="none" stroke="midnightblue" d="M1016.2,-432.984C1026.84,-435.407 1037.83,-437.909 1048.15,-440.26"/>
<polygon fill="midnightblue" stroke="midnightblue" points="1016.67,-429.5 1006.14,-430.692 1015.11,-436.325 1016.67,-429.5"/>
</g>
<!-- Node8&#45;&gt;Node14 -->
<g id="edge15" class="edge"><title>Node8&#45;&gt;Node14</title>
<path fill="none" stroke="midnightblue" d="M1016.2,-412.337C1026.84,-411.05 1037.83,-409.72 1048.15,-408.471"/>
<polygon fill="midnightblue" stroke="midnightblue" points="1015.65,-408.878 1006.14,-413.554 1016.49,-415.828 1015.65,-408.878"/>
</g>
<!-- Node8&#45;&gt;Node15 -->
<g id="edge16" class="edge"><title>Node8&#45;&gt;Node15</title>
<path fill="none" stroke="midnightblue" d="M985.726,-440.68C1001.82,-452.052 1022.52,-465.874 1042,-476.5 1047.71,-479.617 1053.92,-482.632 1060.03,-485.412"/>
<polygon fill="midnightblue" stroke="midnightblue" points="987.465,-437.62 977.295,-434.65 983.393,-443.314 987.465,-437.62"/>
</g>
<!-- Node10 -->
<g id="node10" class="node"><title>Node10</title>
<g id="a_node10"><a xlink:href="classDisplaySplitWidget.html#a95fb887b76609440c606ddccadee2318" target="_top" xlink:title="DisplaySplitWidget\l::gestureEvent">
<polygon fill="white" stroke="black" points="1206.5,-377.5 1206.5,-407.5 1306.5,-407.5 1306.5,-377.5 1206.5,-377.5"/>
<text text-anchor="start" x="1214.5" y="-395.5" font-family="Helvetica,sans-Serif" font-size="10.00">DisplaySplitWidget</text>
<text text-anchor="middle" x="1256.5" y="-384.5" font-family="Helvetica,sans-Serif" font-size="10.00">::gestureEvent</text>
</a>
</g>
</g>
<!-- Node9&#45;&gt;Node10 -->
<g id="edge9" class="edge"><title>Node9&#45;&gt;Node10</title>
<path fill="none" stroke="midnightblue" d="M1158.98,-368.37C1174.66,-372.29 1191.4,-376.475 1206.46,-380.24"/>
<polygon fill="midnightblue" stroke="midnightblue" points="1159.41,-364.87 1148.86,-365.84 1157.71,-371.661 1159.41,-364.87"/>
</g>
<!-- Node12 -->
<g id="node12" class="node"><title>Node12</title>
<g id="a_node12"><a xlink:href="classDisplaySplitWidget.html#a3560f335caf77049205e63785c8073ba" target="_top" xlink:title="DisplaySplitWidget\l::wheelEvent">
<polygon fill="white" stroke="black" points="1206.5,-431.5 1206.5,-461.5 1306.5,-461.5 1306.5,-431.5 1206.5,-431.5"/>
<text text-anchor="start" x="1214.5" y="-449.5" font-family="Helvetica,sans-Serif" font-size="10.00">DisplaySplitWidget</text>
<text text-anchor="middle" x="1256.5" y="-438.5" font-family="Helvetica,sans-Serif" font-size="10.00">::wheelEvent</text>
</a>
</g>
</g>
<!-- Node9&#45;&gt;Node12 -->
<g id="edge11" class="edge"><title>Node9&#45;&gt;Node12</title>
<path fill="none" stroke="midnightblue" d="M1147.14,-373.374C1149.87,-374.995 1152.51,-376.705 1155,-378.5 1174.14,-392.289 1171.86,-403.718 1191,-417.5 1198.37,-422.808 1206.87,-427.471 1215.23,-431.417"/>
<polygon fill="midnightblue" stroke="midnightblue" points="1148.69,-370.231 1138.24,-368.506 1145.33,-376.374 1148.69,-370.231"/>
</g>
<!-- Node11 -->
<g id="node11" class="node"><title>Node11</title>
<g id="a_node11"><a xlink:href="classDisplaySplitWidget.html#a152c9ea9cbd3aa079800b6c1d0fbb284" target="_top" xlink:title="DisplaySplitWidget\l::event">
<polygon fill="white" stroke="black" points="1358,-355.5 1358,-385.5 1458,-385.5 1458,-355.5 1358,-355.5"/>
<text text-anchor="start" x="1366" y="-373.5" font-family="Helvetica,sans-Serif" font-size="10.00">DisplaySplitWidget</text>
<text text-anchor="middle" x="1408" y="-362.5" font-family="Helvetica,sans-Serif" font-size="10.00">::event</text>
</a>
</g>
</g>
<!-- Node10&#45;&gt;Node11 -->
<g id="edge10" class="edge"><title>Node10&#45;&gt;Node11</title>
<path fill="none" stroke="midnightblue" d="M1317.07,-383.734C1330.62,-381.739 1344.88,-379.642 1357.94,-377.719"/>
<polygon fill="midnightblue" stroke="midnightblue" points="1316.25,-380.317 1306.87,-385.235 1317.27,-387.242 1316.25,-380.317"/>
</g>
<!-- Node13&#45;&gt;Node10 -->
<g id="edge13" class="edge"><title>Node13&#45;&gt;Node10</title>
<path fill="none" stroke="midnightblue" d="M1148.63,-432.921C1170.27,-424.734 1195.37,-415.242 1215.8,-407.513"/>
<polygon fill="midnightblue" stroke="midnightblue" points="1147.38,-429.648 1139.27,-436.459 1149.86,-436.195 1147.38,-429.648"/>
</g>
<!-- Node13&#45;&gt;Node12 -->
<g id="edge14" class="edge"><title>Node13&#45;&gt;Node12</title>
<path fill="none" stroke="midnightblue" d="M1158.98,-449.594C1174.66,-449.091 1191.4,-448.554 1206.46,-448.072"/>
<polygon fill="midnightblue" stroke="midnightblue" points="1158.74,-446.099 1148.86,-449.918 1158.97,-453.096 1158.74,-446.099"/>
</g>
<!-- Node15&#45;&gt;Node11 -->
<g id="edge17" class="edge"><title>Node15&#45;&gt;Node11</title>
<path fill="none" stroke="midnightblue" d="M1165.3,-504.153C1211.75,-503.92 1274.02,-497.738 1322,-471.5 1358.8,-451.378 1386.42,-408.413 1399.18,-385.546"/>
<polygon fill="midnightblue" stroke="midnightblue" points="1165.06,-500.652 1155.04,-504.109 1165.03,-507.652 1165.06,-500.652"/>
</g>
<!-- Node16&#45;&gt;Node11 -->
<g id="edge22" class="edge"><title>Node16&#45;&gt;Node11</title>
<path fill="none" stroke="midnightblue" d="M1158.47,-321.347C1169.25,-324.219 1180.44,-327.058 1191,-329.5 1247.9,-342.652 1313.94,-354.728 1357.87,-362.316"/>
<polygon fill="midnightblue" stroke="midnightblue" points="1159.27,-317.939 1148.71,-318.712 1157.45,-324.697 1159.27,-317.939"/>
</g>
<!-- Node17 -->
<g id="node17" class="node"><title>Node17</title>
<g id="a_node17"><a xlink:href="classDisplaySplitWidget.html#a66c16edce3aae0df82f888348cd7590d" target="_top" xlink:title="DisplaySplitWidget\l::mouseMoveEvent">
<polygon fill="white" stroke="black" points="1206,-289.5 1206,-319.5 1307,-319.5 1307,-289.5 1206,-289.5"/>
<text text-anchor="start" x="1214" y="-307.5" font-family="Helvetica,sans-Serif" font-size="10.00">DisplaySplitWidget</text>
<text text-anchor="middle" x="1256.5" y="-296.5" font-family="Helvetica,sans-Serif" font-size="10.00">::mouseMoveEvent</text>
</a>
</g>
</g>
<!-- Node16&#45;&gt;Node17 -->
<g id="edge23" class="edge"><title>Node16&#45;&gt;Node17</title>
<path fill="none" stroke="midnightblue" d="M1158.88,-304.5C1174.41,-304.5 1190.97,-304.5 1205.93,-304.5"/>
<polygon fill="midnightblue" stroke="midnightblue" points="1158.86,-301 1148.86,-304.5 1158.86,-308 1158.86,-301"/>
</g>
<!-- Node17&#45;&gt;Node11 -->
<g id="edge24" class="edge"><title>Node17&#45;&gt;Node11</title>
<path fill="none" stroke="midnightblue" d="M1300.96,-323.686C1323.85,-333.793 1351.53,-346.01 1372.86,-355.429"/>
<polygon fill="midnightblue" stroke="midnightblue" points="1302.36,-320.479 1291.8,-319.642 1299.53,-326.882 1302.36,-320.479"/>
</g>
<!-- Node19 -->
<g id="node19" class="node"><title>Node19</title>
<g id="a_node19"><a xlink:href="classDisplaySplitWidget.html#ae32ceae7f4472266eabd00877651441b" target="_top" xlink:title="DisplaySplitWidget\l::DisplaySplitWidget">
<polygon fill="white" stroke="black" points="1045.5,-240.5 1045.5,-270.5 1151.5,-270.5 1151.5,-240.5 1045.5,-240.5"/>
<text text-anchor="start" x="1053.5" y="-258.5" font-family="Helvetica,sans-Serif" font-size="10.00">DisplaySplitWidget</text>
<text text-anchor="middle" x="1098.5" y="-247.5" font-family="Helvetica,sans-Serif" font-size="10.00">::DisplaySplitWidget</text>
</a>
</g>
</g>
<!-- Node18&#45;&gt;Node19 -->
<g id="edge27" class="edge"><title>Node18&#45;&gt;Node19</title>
<path fill="none" stroke="midnightblue" d="M1016.41,-255.5C1026,-255.5 1035.87,-255.5 1045.28,-255.5"/>
<polygon fill="midnightblue" stroke="midnightblue" points="1016.14,-252 1006.14,-255.5 1016.14,-259 1016.14,-252"/>
</g>
<!-- Node21 -->
<g id="node21" class="node"><title>Node21</title>
<g id="a_node21"><a xlink:href="classDisplaySplitWidget.html#af09b165924f8be5a31873f3b11c8b3f9" target="_top" xlink:title="DisplaySplitWidget\l::resetViews">
<polygon fill="white" stroke="black" points="1048.5,-44.5 1048.5,-74.5 1148.5,-74.5 1148.5,-44.5 1048.5,-44.5"/>
<text text-anchor="start" x="1056.5" y="-62.5" font-family="Helvetica,sans-Serif" font-size="10.00">DisplaySplitWidget</text>
<text text-anchor="middle" x="1098.5" y="-51.5" font-family="Helvetica,sans-Serif" font-size="10.00">::resetViews</text>
</a>
</g>
</g>
<!-- Node20&#45;&gt;Node21 -->
<g id="edge29" class="edge"><title>Node20&#45;&gt;Node21</title>
<path fill="none" stroke="midnightblue" d="M989.493,-113.111C1005.12,-103.64 1024.26,-92.5084 1042,-83.5 1047.99,-80.4576 1054.45,-77.4365 1060.78,-74.616"/>
<polygon fill="midnightblue" stroke="midnightblue" points="987.442,-110.263 980.739,-118.468 991.096,-116.234 987.442,-110.263"/>
</g>
<!-- Node23 -->
<g id="node23" class="node"><title>Node23</title>
<g id="a_node23"><a xlink:href="classDisplaySplitWidget.html#a0c0ae7b4fb7ddc344fec1a59034b771b" target="_top" xlink:title="DisplaySplitWidget\l::zoomToStandard">
<polygon fill="white" stroke="black" points="1206.5,-0.5 1206.5,-30.5 1306.5,-30.5 1306.5,-0.5 1206.5,-0.5"/>
<text text-anchor="start" x="1214.5" y="-18.5" font-family="Helvetica,sans-Serif" font-size="10.00">DisplaySplitWidget</text>
<text text-anchor="middle" x="1256.5" y="-7.5" font-family="Helvetica,sans-Serif" font-size="10.00">::zoomToStandard</text>
</a>
</g>
</g>
<!-- Node20&#45;&gt;Node23 -->
<g id="edge32" class="edge"><title>Node20&#45;&gt;Node23</title>
<path fill="none" stroke="midnightblue" d="M970.117,-109.466C984.412,-85.8957 1009.63,-51.1476 1042,-34.5 1093.46,-8.03342 1161.18,-6.70933 1206.41,-9.74868"/>
<polygon fill="midnightblue" stroke="midnightblue" points="967.04,-107.794 965.01,-118.193 973.082,-111.329 967.04,-107.794"/>
</g>
<!-- Node24 -->
<g id="node24" class="node"><title>Node24</title>
<g id="a_node24"><a xlink:href="classDisplaySplitWidget.html#a85aefaa2dbd64ebf686448a2c006f96d" target="_top" xlink:title="DisplaySplitWidget\l::setSplitEnabled">
<polygon fill="white" stroke="black" points="1048.5,-191.5 1048.5,-221.5 1148.5,-221.5 1148.5,-191.5 1048.5,-191.5"/>
<text text-anchor="start" x="1056.5" y="-209.5" font-family="Helvetica,sans-Serif" font-size="10.00">DisplaySplitWidget</text>
<text text-anchor="middle" x="1098.5" y="-198.5" font-family="Helvetica,sans-Serif" font-size="10.00">::setSplitEnabled</text>
</a>
</g>
</g>
<!-- Node20&#45;&gt;Node24 -->
<g id="edge33" class="edge"><title>Node20&#45;&gt;Node24</title>
<path fill="none" stroke="midnightblue" d="M991.004,-153.637C1006.4,-162.511 1024.94,-172.861 1042,-181.5 1048.6,-184.841 1055.74,-188.225 1062.63,-191.377"/>
<polygon fill="midnightblue" stroke="midnightblue" points="992.742,-150.6 982.337,-148.607 989.229,-156.654 992.742,-150.6"/>
</g>
<!-- Node25 -->
<g id="node25" class="node"><title>Node25</title>
<g id="a_node25"><a xlink:href="classDisplaySplitWidget.html#a2c0dcc84e9609d30e1eadd8340493e0b" target="_top" xlink:title="DisplaySplitWidget\l::resizeEvent">
<polygon fill="white" stroke="black" points="1048.5,-142.5 1048.5,-172.5 1148.5,-172.5 1148.5,-142.5 1048.5,-142.5"/>
<text text-anchor="start" x="1056.5" y="-160.5" font-family="Helvetica,sans-Serif" font-size="10.00">DisplaySplitWidget</text>
<text text-anchor="middle" x="1098.5" y="-149.5" font-family="Helvetica,sans-Serif" font-size="10.00">::resizeEvent</text>
</a>
</g>
</g>
<!-- Node20&#45;&gt;Node25 -->
<g id="edge34" class="edge"><title>Node20&#45;&gt;Node25</title>
<path fill="none" stroke="midnightblue" d="M1016.2,-143.613C1026.84,-145.43 1037.83,-147.307 1048.15,-149.07"/>
<polygon fill="midnightblue" stroke="midnightblue" points="1016.59,-140.128 1006.14,-141.894 1015.41,-147.028 1016.59,-140.128"/>
</g>
<!-- Node26 -->
<g id="node26" class="node"><title>Node26</title>
<g id="a_node26"><a xlink:href="classDisplaySplitWidget.html#abe7686903d7727bd0f882dc68459f22d" target="_top" xlink:title="DisplaySplitWidget\l::setViewMode">
<polygon fill="white" stroke="black" points="1048.5,-93.5 1048.5,-123.5 1148.5,-123.5 1148.5,-93.5 1048.5,-93.5"/>
<text text-anchor="start" x="1056.5" y="-111.5" font-family="Helvetica,sans-Serif" font-size="10.00">DisplaySplitWidget</text>
<text text-anchor="middle" x="1098.5" y="-100.5" font-family="Helvetica,sans-Serif" font-size="10.00">::setViewMode</text>
</a>
</g>
</g>
<!-- Node20&#45;&gt;Node26 -->
<g id="edge35" class="edge"><title>Node20&#45;&gt;Node26</title>
<path fill="none" stroke="midnightblue" d="M1016.2,-122.966C1026.84,-121.073 1037.83,-119.118 1048.15,-117.281"/>
<polygon fill="midnightblue" stroke="midnightblue" points="1015.37,-119.558 1006.14,-124.756 1016.6,-126.45 1015.37,-119.558"/>
</g>
<!-- Node22 -->
<g id="node22" class="node"><title>Node22</title>
<g id="a_node22"><a xlink:href="classDisplaySplitWidget.html#a6ac792979681575417245e357cdadb69" target="_top" xlink:title="DisplaySplitWidget\l::setActiveDisplayObjects">
<polygon fill="white" stroke="black" points="1191,-49.5 1191,-79.5 1322,-79.5 1322,-49.5 1191,-49.5"/>
<text text-anchor="start" x="1199" y="-67.5" font-family="Helvetica,sans-Serif" font-size="10.00">DisplaySplitWidget</text>
<text text-anchor="middle" x="1256.5" y="-56.5" font-family="Helvetica,sans-Serif" font-size="10.00">::setActiveDisplayObjects</text>
</a>
</g>
</g>
<!-- Node21&#45;&gt;Node22 -->
<g id="edge30" class="edge"><title>Node21&#45;&gt;Node22</title>
<path fill="none" stroke="midnightblue" d="M1159.05,-61.4086C1169.42,-61.741 1180.25,-62.0882 1190.75,-62.4248"/>
<polygon fill="midnightblue" stroke="midnightblue" points="1158.97,-57.9043 1148.86,-61.082 1158.74,-64.9007 1158.97,-57.9043"/>
</g>
<!-- Node21&#45;&gt;Node23 -->
<g id="edge31" class="edge"><title>Node21&#45;&gt;Node23</title>
<path fill="none" stroke="midnightblue" d="M1158.53,-42.8493C1174.34,-38.3905 1191.26,-33.6196 1206.46,-29.3313"/>
<polygon fill="midnightblue" stroke="midnightblue" points="1157.53,-39.4949 1148.86,-45.5781 1159.43,-46.232 1157.53,-39.4949"/>
</g>
</g>
</svg>
