<?xml version="1.0" encoding="UTF-8" standalone="no"?>
<!DOCTYPE svg PUBLIC "-//W3C//DTD SVG 1.1//EN"
 "http://www.w3.org/Graphics/SVG/1.1/DTD/svg11.dtd">
<!-- Generated by graphviz version 2.38.0 (20140413.2041)
 -->
<!-- Title: de265File::decodeOnePicture Pages: 1 -->
<svg width="656pt" height="72pt"
 viewBox="0.00 0.00 656.00 71.50" xmlns="http://www.w3.org/2000/svg" xmlns:xlink="http://www.w3.org/1999/xlink">
<g id="graph0" class="graph" transform="scale(1 1) rotate(0) translate(4 67.5)">
<title>de265File::decodeOnePicture</title>
<polygon fill="white" stroke="none" points="-4,4 -4,-67.5 652,-67.5 652,4 -4,4"/>
<!-- Node1 -->
<g id="node1" class="node"><title>Node1</title>
<polygon fill="#bfbfbf" stroke="black" points="0,-25 0,-44 145,-44 145,-25 0,-25"/>
<text text-anchor="middle" x="72.5" y="-32" font-family="Helvetica,sans-Serif" font-size="10.00">de265File::decodeOnePicture</text>
</g>
<!-- Node2 -->
<g id="node2" class="node"><title>Node2</title>
<g id="a_node2"><a xlink:href="classde265File.html#afc2f00a9676e0b5c3fdd821619bda482" target="_top" xlink:title="de265File::de265File">
<polygon fill="white" stroke="black" points="377.5,-44 377.5,-63 484.5,-63 484.5,-44 377.5,-44"/>
<text text-anchor="middle" x="431" y="-51" font-family="Helvetica,sans-Serif" font-size="10.00">de265File::de265File</text>
</a>
</g>
</g>
<!-- Node1&#45;&gt;Node2 -->
<g id="edge1" class="edge"><title>Node1&#45;&gt;Node2</title>
<path fill="none" stroke="midnightblue" d="M155.511,-38.8709C223.813,-42.5111 319.038,-47.5862 377.495,-50.7017"/>
<polygon fill="midnightblue" stroke="midnightblue" points="155.386,-35.3593 145.214,-38.3221 155.014,-42.3494 155.386,-35.3593"/>
</g>
<!-- Node3 -->
<g id="node3" class="node"><title>Node3</title>
<g id="a_node3"><a xlink:href="classde265File.html#a948bfcc1b2c4ad6f0a3aa54b99f9553f" target="_top" xlink:title="de265File::backgroundDecoder">
<polygon fill="white" stroke="black" points="181,-6 181,-25 333,-25 333,-6 181,-6"/>
<text text-anchor="middle" x="257" y="-13" font-family="Helvetica,sans-Serif" font-size="10.00">de265File::backgroundDecoder</text>
</a>
</g>
</g>
<!-- Node1&#45;&gt;Node3 -->
<g id="edge2" class="edge"><title>Node1&#45;&gt;Node3</title>
<path fill="none" stroke="midnightblue" d="M155.138,-26.0007C163.745,-25.1046 172.468,-24.1965 180.995,-23.3088"/>
<polygon fill="midnightblue" stroke="midnightblue" points="154.689,-22.5285 145.105,-27.0452 155.414,-29.4908 154.689,-22.5285"/>
</g>
<!-- Node3&#45;&gt;Node2 -->
<g id="edge3" class="edge"><title>Node3&#45;&gt;Node2</title>
<path fill="none" stroke="midnightblue" d="M311.196,-27.2526C335.517,-32.6258 363.955,-38.9086 386.909,-43.9799"/>
<polygon fill="midnightblue" stroke="midnightblue" points="311.922,-23.8288 301.403,-25.089 310.412,-30.664 311.922,-23.8288"/>
</g>
<!-- Node4 -->
<g id="node4" class="node"><title>Node4</title>
<g id="a_node4"><a xlink:href="classde265File.html#a4778a7853c318063a9efd5f0990e79bf" target="_top" xlink:title="de265File::getOneFrame">
<polygon fill="white" stroke="black" points="369,-6 369,-25 493,-25 493,-6 369,-6"/>
<text text-anchor="middle" x="431" y="-13" font-family="Helvetica,sans-Serif" font-size="10.00">de265File::getOneFrame</text>
</a>
</g>
</g>
<!-- Node3&#45;&gt;Node4 -->
<g id="edge4" class="edge"><title>Node3&#45;&gt;Node4</title>
<path fill="none" stroke="midnightblue" d="M343.305,-15.5C351.942,-15.5 360.589,-15.5 368.896,-15.5"/>
<polygon fill="midnightblue" stroke="midnightblue" points="343.192,-12.0001 333.191,-15.5 343.191,-19.0001 343.192,-12.0001"/>
</g>
<!-- Node5 -->
<g id="node5" class="node"><title>Node5</title>
<g id="a_node5"><a xlink:href="classde265File.html#af878636f68cd2ee3a4dfc6b3b0169676" target="_top" xlink:title="de265File::loadStatistic\lToCache">
<polygon fill="white" stroke="black" points="529,-0.5 529,-30.5 648,-30.5 648,-0.5 529,-0.5"/>
<text text-anchor="start" x="537" y="-18.5" font-family="Helvetica,sans-Serif" font-size="10.00">de265File::loadStatistic</text>
<text text-anchor="middle" x="588.5" y="-7.5" font-family="Helvetica,sans-Serif" font-size="10.00">ToCache</text>
</a>
</g>
</g>
<!-- Node4&#45;&gt;Node5 -->
<g id="edge5" class="edge"><title>Node4&#45;&gt;Node5</title>
<path fill="none" stroke="midnightblue" d="M503.093,-15.5C511.747,-15.5 520.511,-15.5 528.954,-15.5"/>
<polygon fill="midnightblue" stroke="midnightblue" points="503.011,-12.0001 493.011,-15.5 503.011,-19.0001 503.011,-12.0001"/>
</g>
</g>
</svg>
