<?xml version="1.0" encoding="UTF-8" standalone="no"?>
<!DOCTYPE svg PUBLIC "-//W3C//DTD SVG 1.1//EN"
 "http://www.w3.org/Graphics/SVG/1.1/DTD/svg11.dtd">
<!-- Generated by graphviz version 2.38.0 (20140413.2041)
 -->
<!-- Title: de265File::getNumberFrames Pages: 1 -->
<svg width="838pt" height="72pt"
 viewBox="0.00 0.00 838.00 71.50" xmlns="http://www.w3.org/2000/svg" xmlns:xlink="http://www.w3.org/1999/xlink">
<g id="graph0" class="graph" transform="scale(1 1) rotate(0) translate(4 67.5)">
<title>de265File::getNumberFrames</title>
<polygon fill="white" stroke="none" points="-4,4 -4,-67.5 834,-67.5 834,4 -4,4"/>
<!-- Node1 -->
<g id="node1" class="node"><title>Node1</title>
<polygon fill="#bfbfbf" stroke="black" points="0,-25 0,-44 146,-44 146,-25 0,-25"/>
<text text-anchor="middle" x="73" y="-32" font-family="Helvetica,sans-Serif" font-size="10.00">de265File::getNumberFrames</text>
</g>
<!-- Node2 -->
<g id="node2" class="node"><title>Node2</title>
<g id="a_node2"><a xlink:href="classde265File.html#af2a66d6d47d74d992f61da5048d90538" target="_top" xlink:title="de265File::decodeOnePicture">
<polygon fill="white" stroke="black" points="182,-25 182,-44 327,-44 327,-25 182,-25"/>
<text text-anchor="middle" x="254.5" y="-32" font-family="Helvetica,sans-Serif" font-size="10.00">de265File::decodeOnePicture</text>
</a>
</g>
</g>
<!-- Node1&#45;&gt;Node2 -->
<g id="edge1" class="edge"><title>Node1&#45;&gt;Node2</title>
<path fill="none" stroke="midnightblue" d="M156.26,-34.5C164.853,-34.5 173.539,-34.5 181.998,-34.5"/>
<polygon fill="midnightblue" stroke="midnightblue" points="156.234,-31.0001 146.234,-34.5 156.234,-38.0001 156.234,-31.0001"/>
</g>
<!-- Node3 -->
<g id="node3" class="node"><title>Node3</title>
<g id="a_node3"><a xlink:href="classde265File.html#afc2f00a9676e0b5c3fdd821619bda482" target="_top" xlink:title="de265File::de265File">
<polygon fill="white" stroke="black" points="559.5,-44 559.5,-63 666.5,-63 666.5,-44 559.5,-44"/>
<text text-anchor="middle" x="613" y="-51" font-family="Helvetica,sans-Serif" font-size="10.00">de265File::de265File</text>
</a>
</g>
</g>
<!-- Node2&#45;&gt;Node3 -->
<g id="edge2" class="edge"><title>Node2&#45;&gt;Node3</title>
<path fill="none" stroke="midnightblue" d="M337.511,-38.8709C405.813,-42.5111 501.038,-47.5862 559.495,-50.7017"/>
<polygon fill="midnightblue" stroke="midnightblue" points="337.386,-35.3593 327.214,-38.3221 337.014,-42.3494 337.386,-35.3593"/>
</g>
<!-- Node4 -->
<g id="node4" class="node"><title>Node4</title>
<g id="a_node4"><a xlink:href="classde265File.html#a948bfcc1b2c4ad6f0a3aa54b99f9553f" target="_top" xlink:title="de265File::backgroundDecoder">
<polygon fill="white" stroke="black" points="363,-6 363,-25 515,-25 515,-6 363,-6"/>
<text text-anchor="middle" x="439" y="-13" font-family="Helvetica,sans-Serif" font-size="10.00">de265File::backgroundDecoder</text>
</a>
</g>
</g>
<!-- Node2&#45;&gt;Node4 -->
<g id="edge3" class="edge"><title>Node2&#45;&gt;Node4</title>
<path fill="none" stroke="midnightblue" d="M337.138,-26.0007C345.745,-25.1046 354.468,-24.1965 362.995,-23.3088"/>
<polygon fill="midnightblue" stroke="midnightblue" points="336.689,-22.5285 327.105,-27.0452 337.414,-29.4908 336.689,-22.5285"/>
</g>
<!-- Node4&#45;&gt;Node3 -->
<g id="edge4" class="edge"><title>Node4&#45;&gt;Node3</title>
<path fill="none" stroke="midnightblue" d="M493.196,-27.2526C517.517,-32.6258 545.955,-38.9086 568.909,-43.9799"/>
<polygon fill="midnightblue" stroke="midnightblue" points="493.922,-23.8288 483.403,-25.089 492.412,-30.664 493.922,-23.8288"/>
</g>
<!-- Node5 -->
<g id="node5" class="node"><title>Node5</title>
<g id="a_node5"><a xlink:href="classde265File.html#a4778a7853c318063a9efd5f0990e79bf" target="_top" xlink:title="de265File::getOneFrame">
<polygon fill="white" stroke="black" points="551,-6 551,-25 675,-25 675,-6 551,-6"/>
<text text-anchor="middle" x="613" y="-13" font-family="Helvetica,sans-Serif" font-size="10.00">de265File::getOneFrame</text>
</a>
</g>
</g>
<!-- Node4&#45;&gt;Node5 -->
<g id="edge5" class="edge"><title>Node4&#45;&gt;Node5</title>
<path fill="none" stroke="midnightblue" d="M525.305,-15.5C533.942,-15.5 542.589,-15.5 550.896,-15.5"/>
<polygon fill="midnightblue" stroke="midnightblue" points="525.192,-12.0001 515.191,-15.5 525.191,-19.0001 525.192,-12.0001"/>
</g>
<!-- Node6 -->
<g id="node6" class="node"><title>Node6</title>
<g id="a_node6"><a xlink:href="classde265File.html#af878636f68cd2ee3a4dfc6b3b0169676" target="_top" xlink:title="de265File::loadStatistic\lToCache">
<polygon fill="white" stroke="black" points="711,-0.5 711,-30.5 830,-30.5 830,-0.5 711,-0.5"/>
<text text-anchor="start" x="719" y="-18.5" font-family="Helvetica,sans-Serif" font-size="10.00">de265File::loadStatistic</text>
<text text-anchor="middle" x="770.5" y="-7.5" font-family="Helvetica,sans-Serif" font-size="10.00">ToCache</text>
</a>
</g>
</g>
<!-- Node5&#45;&gt;Node6 -->
<g id="edge6" class="edge"><title>Node5&#45;&gt;Node6</title>
<path fill="none" stroke="midnightblue" d="M685.093,-15.5C693.747,-15.5 702.511,-15.5 710.954,-15.5"/>
<polygon fill="midnightblue" stroke="midnightblue" points="685.011,-12.0001 675.011,-15.5 685.011,-19.0001 685.011,-12.0001"/>
</g>
</g>
</svg>
