<?xml version="1.0" encoding="UTF-8" standalone="no"?>
<!DOCTYPE svg PUBLIC "-//W3C//DTD SVG 1.1//EN"
 "http://www.w3.org/Graphics/SVG/1.1/DTD/svg11.dtd">
<!-- Generated by graphviz version 2.38.0 (20140413.2041)
 -->
<!-- Title: YUVSource::setFormat Pages: 1 -->
<svg width="428pt" height="28pt"
 viewBox="0.00 0.00 428.00 28.00" xmlns="http://www.w3.org/2000/svg" xmlns:xlink="http://www.w3.org/1999/xlink">
<g id="graph0" class="graph" transform="scale(1 1) rotate(0) translate(4 24)">
<title>YUVSource::setFormat</title>
<polygon fill="white" stroke="none" points="-4,4 -4,-24 424,-24 424,4 -4,4"/>
<!-- Node1 -->
<g id="node1" class="node"><title>Node1</title>
<polygon fill="#bfbfbf" stroke="black" points="0,-0.5 0,-19.5 119,-19.5 119,-0.5 0,-0.5"/>
<text text-anchor="middle" x="59.5" y="-7.5" font-family="Helvetica,sans-Serif" font-size="10.00">YUVSource::setFormat</text>
</g>
<!-- Node2 -->
<g id="node2" class="node"><title>Node2</title>
<g id="a_node2"><a xlink:href="classYUVFile.html#a27f672eb848a0a43afa29afee6c3f02b" target="_top" xlink:title="YUVFile::formatFromFile">
<polygon fill="white" stroke="black" points="155,-0.5 155,-19.5 280,-19.5 280,-0.5 155,-0.5"/>
<text text-anchor="middle" x="217.5" y="-7.5" font-family="Helvetica,sans-Serif" font-size="10.00">YUVFile::formatFromFile</text>
</a>
</g>
</g>
<!-- Node1&#45;&gt;Node2 -->
<g id="edge1" class="edge"><title>Node1&#45;&gt;Node2</title>
<path fill="none" stroke="midnightblue" d="M129.282,-10C137.768,-10 146.401,-10 154.772,-10"/>
<polygon fill="midnightblue" stroke="midnightblue" points="129.033,-6.5001 119.032,-10 129.032,-13.5001 129.033,-6.5001"/>
</g>
<!-- Node3 -->
<g id="node3" class="node"><title>Node3</title>
<g id="a_node3"><a xlink:href="classYUVFile.html#a75df71aea1c05d5eda21e4003855c11f" target="_top" xlink:title="Get the format of the YUV if known. ">
<polygon fill="white" stroke="black" points="316,-0.5 316,-19.5 420,-19.5 420,-0.5 316,-0.5"/>
<text text-anchor="middle" x="368" y="-7.5" font-family="Helvetica,sans-Serif" font-size="10.00">YUVFile::getFormat</text>
</a>
</g>
</g>
<!-- Node2&#45;&gt;Node3 -->
<g id="edge2" class="edge"><title>Node2&#45;&gt;Node3</title>
<path fill="none" stroke="midnightblue" d="M290.214,-10C298.797,-10 307.424,-10 315.638,-10"/>
<polygon fill="midnightblue" stroke="midnightblue" points="290.187,-6.5001 280.187,-10 290.187,-13.5001 290.187,-6.5001"/>
</g>
</g>
</svg>
