<?xml version="1.0" encoding="UTF-8" standalone="no"?>
<!DOCTYPE svg PUBLIC "-//W3C//DTD SVG 1.1//EN"
 "http://www.w3.org/Graphics/SVG/1.1/DTD/svg11.dtd">
<!-- Generated by graphviz version 2.38.0 (20140413.2041)
 -->
<!-- Title: MainWindow::closeEvent Pages: 1 -->
<svg width="947pt" height="786pt"
 viewBox="0.00 0.00 947.00 785.50" xmlns="http://www.w3.org/2000/svg" xmlns:xlink="http://www.w3.org/1999/xlink">
<g id="graph0" class="graph" transform="scale(1 1) rotate(0) translate(4 781.5)">
<title>MainWindow::closeEvent</title>
<polygon fill="white" stroke="none" points="-4,4 -4,-781.5 943,-781.5 943,4 -4,4"/>
<!-- Node1 -->
<g id="node1" class="node"><title>Node1</title>
<polygon fill="#bfbfbf" stroke="black" points="0,-418 0,-437 128,-437 128,-418 0,-418"/>
<text text-anchor="middle" x="64" y="-425" font-family="Helvetica,sans-Serif" font-size="10.00">MainWindow::closeEvent</text>
</g>
<!-- Node2 -->
<g id="node2" class="node"><title>Node2</title>
<g id="a_node2"><a xlink:href="classPlaylistTreeWidget.html#a76d8aad6e02cc2d73cbfcf0e7ffafceb" target="_top" xlink:title="PlaylistTreeWidget\l::getIsSaved">
<polygon fill="white" stroke="black" points="180.5,-437.5 180.5,-467.5 279.5,-467.5 279.5,-437.5 180.5,-437.5"/>
<text text-anchor="start" x="188.5" y="-455.5" font-family="Helvetica,sans-Serif" font-size="10.00">PlaylistTreeWidget</text>
<text text-anchor="middle" x="230" y="-444.5" font-family="Helvetica,sans-Serif" font-size="10.00">::getIsSaved</text>
</a>
</g>
</g>
<!-- Node1&#45;&gt;Node2 -->
<g id="edge1" class="edge"><title>Node1&#45;&gt;Node2</title>
<path fill="none" stroke="midnightblue" d="M127.469,-437.023C141.6,-439.177 156.553,-441.456 170.513,-443.584"/>
<polygon fill="midnightblue" stroke="midnightblue" points="170.063,-447.056 180.476,-445.103 171.117,-440.136 170.063,-447.056"/>
</g>
<!-- Node3 -->
<g id="node3" class="node"><title>Node3</title>
<g id="a_node3"><a xlink:href="classMainWindow.html#a88624964fbb9d67df9149b29fab6f225" target="_top" xlink:title="MainWindow::savePlaylist\lToFile">
<polygon fill="white" stroke="black" points="164,-388.5 164,-418.5 296,-418.5 296,-388.5 164,-388.5"/>
<text text-anchor="start" x="172" y="-406.5" font-family="Helvetica,sans-Serif" font-size="10.00">MainWindow::savePlaylist</text>
<text text-anchor="middle" x="230" y="-395.5" font-family="Helvetica,sans-Serif" font-size="10.00">ToFile</text>
</a>
</g>
</g>
<!-- Node1&#45;&gt;Node3 -->
<g id="edge2" class="edge"><title>Node1&#45;&gt;Node3</title>
<path fill="none" stroke="midnightblue" d="M128.407,-418.221C136.764,-416.998 145.393,-415.735 153.922,-414.487"/>
<polygon fill="midnightblue" stroke="midnightblue" points="154.478,-417.943 163.865,-413.032 153.464,-411.017 154.478,-417.943"/>
</g>
<!-- Node4 -->
<g id="node4" class="node"><title>Node4</title>
<g id="a_node4"><a xlink:href="classPlaylistItem.html#a53ef7e25dfa0d08e284653a19c96fc3e" target="_top" xlink:title="PlaylistItem::itemType">
<polygon fill="white" stroke="black" points="348,-758 348,-777 463,-777 463,-758 348,-758"/>
<text text-anchor="middle" x="405.5" y="-765" font-family="Helvetica,sans-Serif" font-size="10.00">PlaylistItem::itemType</text>
</a>
</g>
</g>
<!-- Node3&#45;&gt;Node4 -->
<g id="edge3" class="edge"><title>Node3&#45;&gt;Node4</title>
<path fill="none" stroke="midnightblue" d="M285.42,-418.686C289.423,-421.432 293.043,-424.673 296,-428.5 383.503,-541.754 238.357,-640.268 332,-748.5 334.035,-750.852 336.323,-752.931 338.797,-754.767"/>
<polygon fill="midnightblue" stroke="midnightblue" points="337.45,-758.036 347.839,-760.116 341.014,-752.012 337.45,-758.036"/>
</g>
<!-- Node5 -->
<g id="node5" class="node"><title>Node5</title>
<g id="a_node5"><a xlink:href="classPlaylistItem.html#a7a65abc1410966c8e7fb7e47d384b7bf" target="_top" xlink:title="PlaylistItem::getFrameObject">
<polygon fill="white" stroke="black" points="333.5,-720 333.5,-739 477.5,-739 477.5,-720 333.5,-720"/>
<text text-anchor="middle" x="405.5" y="-727" font-family="Helvetica,sans-Serif" font-size="10.00">PlaylistItem::getFrameObject</text>
</a>
</g>
</g>
<!-- Node3&#45;&gt;Node5 -->
<g id="edge4" class="edge"><title>Node3&#45;&gt;Node5</title>
<path fill="none" stroke="midnightblue" d="M285.057,-418.529C289.193,-421.308 292.94,-424.6 296,-428.5 373.995,-527.904 248.617,-615.57 332,-710.5 333.047,-711.691 334.158,-712.813 335.325,-713.867"/>
<polygon fill="midnightblue" stroke="midnightblue" points="333.587,-716.927 343.754,-719.907 337.664,-711.237 333.587,-716.927"/>
</g>
<!-- Node6 -->
<g id="node6" class="node"><title>Node6</title>
<g id="a_node6"><a xlink:href="classFrameObject.html#a7822bdd934cc5a230899558718436788" target="_top" xlink:title="FrameObject::path">
<polygon fill="white" stroke="black" points="356.5,-682 356.5,-701 454.5,-701 454.5,-682 356.5,-682"/>
<text text-anchor="middle" x="405.5" y="-689" font-family="Helvetica,sans-Serif" font-size="10.00">FrameObject::path</text>
</a>
</g>
</g>
<!-- Node3&#45;&gt;Node6 -->
<g id="edge5" class="edge"><title>Node3&#45;&gt;Node6</title>
<path fill="none" stroke="midnightblue" d="M284.977,-418.593C289.129,-421.358 292.902,-424.63 296,-428.5 364.505,-514.076 258.859,-590.851 332,-672.5 336.116,-677.095 341.193,-680.639 346.735,-683.365"/>
<polygon fill="midnightblue" stroke="midnightblue" points="345.828,-686.771 356.413,-687.22 348.418,-680.268 345.828,-686.771"/>
</g>
<!-- Node8 -->
<g id="node8" class="node"><title>Node8</title>
<g id="a_node8"><a xlink:href="classDisplayObject.html#aadedaec1d9a5ec4adbf8f33e0f802350" target="_top" xlink:title="DisplayObject::endFrame">
<polygon fill="white" stroke="black" points="341.5,-644 341.5,-663 469.5,-663 469.5,-644 341.5,-644"/>
<text text-anchor="middle" x="405.5" y="-651" font-family="Helvetica,sans-Serif" font-size="10.00">DisplayObject::endFrame</text>
</a>
</g>
</g>
<!-- Node3&#45;&gt;Node8 -->
<g id="edge7" class="edge"><title>Node3&#45;&gt;Node8</title>
<path fill="none" stroke="midnightblue" d="M284.869,-418.681C289.043,-421.428 292.851,-424.672 296,-428.5 355.041,-500.282 269.073,-566.1 332,-634.5 333.211,-635.817 334.502,-637.047 335.859,-638.196"/>
<polygon fill="midnightblue" stroke="midnightblue" points="334.046,-641.196 344.283,-643.927 337.984,-635.408 334.046,-641.196"/>
</g>
<!-- Node9 -->
<g id="node9" class="node"><title>Node9</title>
<g id="a_node9"><a xlink:href="classDisplayObject.html#aaaa354081106c97409a4bc2bbc2059fe" target="_top" xlink:title="DisplayObject::startFrame">
<polygon fill="white" stroke="black" points="340,-606 340,-625 471,-625 471,-606 340,-606"/>
<text text-anchor="middle" x="405.5" y="-613" font-family="Helvetica,sans-Serif" font-size="10.00">DisplayObject::startFrame</text>
</a>
</g>
</g>
<!-- Node3&#45;&gt;Node9 -->
<g id="edge8" class="edge"><title>Node3&#45;&gt;Node9</title>
<path fill="none" stroke="midnightblue" d="M284.408,-418.611C288.733,-421.374 292.7,-424.64 296,-428.5 345.622,-486.541 279.238,-541.297 332,-596.5 333.267,-597.826 334.614,-599.063 336.029,-600.218"/>
<polygon fill="midnightblue" stroke="midnightblue" points="334.503,-603.403 344.783,-605.967 338.346,-597.552 334.503,-603.403"/>
</g>
<!-- Node10 -->
<g id="node10" class="node"><title>Node10</title>
<g id="a_node10"><a xlink:href="classDisplayObject.html#afc8d4c3602e2851bcdcbdce6ae2999ac" target="_top" xlink:title="DisplayObject::sampling">
<polygon fill="white" stroke="black" points="344,-568 344,-587 467,-587 467,-568 344,-568"/>
<text text-anchor="middle" x="405.5" y="-575" font-family="Helvetica,sans-Serif" font-size="10.00">DisplayObject::sampling</text>
</a>
</g>
</g>
<!-- Node3&#45;&gt;Node10 -->
<g id="edge9" class="edge"><title>Node3&#45;&gt;Node10</title>
<path fill="none" stroke="midnightblue" d="M283.859,-418.625C288.352,-421.388 292.506,-424.65 296,-428.5 336.287,-472.898 289.315,-516.402 332,-558.5 333.459,-559.939 335.013,-561.273 336.645,-562.509"/>
<polygon fill="midnightblue" stroke="midnightblue" points="335.026,-565.623 345.371,-567.911 338.711,-559.672 335.026,-565.623"/>
</g>
<!-- Node11 -->
<g id="node11" class="node"><title>Node11</title>
<g id="a_node11"><a xlink:href="classDisplayObject.html#a8f8f637b874a3e17128915cf414d6b60" target="_top" xlink:title="DisplayObject::frameRate">
<polygon fill="white" stroke="black" points="340.5,-530 340.5,-549 470.5,-549 470.5,-530 340.5,-530"/>
<text text-anchor="middle" x="405.5" y="-537" font-family="Helvetica,sans-Serif" font-size="10.00">DisplayObject::frameRate</text>
</a>
</g>
</g>
<!-- Node3&#45;&gt;Node11 -->
<g id="edge10" class="edge"><title>Node3&#45;&gt;Node11</title>
<path fill="none" stroke="midnightblue" d="M282.817,-418.636C287.631,-421.404 292.142,-424.664 296,-428.5 327.138,-459.457 299.195,-491.316 332,-520.5 333.777,-522.081 335.67,-523.533 337.654,-524.867"/>
<polygon fill="midnightblue" stroke="midnightblue" points="336.409,-528.18 346.849,-529.987 339.814,-522.064 336.409,-528.18"/>
</g>
<!-- Node12 -->
<g id="node12" class="node"><title>Node12</title>
<g id="a_node12"><a xlink:href="classFrameObject.html#a34dc2eed371951b4ab0c1101afe2fc39" target="_top" xlink:title="FrameObject::pixelFormat">
<polygon fill="white" stroke="black" points="340.5,-492 340.5,-511 470.5,-511 470.5,-492 340.5,-492"/>
<text text-anchor="middle" x="405.5" y="-499" font-family="Helvetica,sans-Serif" font-size="10.00">FrameObject::pixelFormat</text>
</a>
</g>
</g>
<!-- Node3&#45;&gt;Node12 -->
<g id="edge11" class="edge"><title>Node3&#45;&gt;Node12</title>
<path fill="none" stroke="midnightblue" d="M280.028,-418.506C285.71,-421.337 291.186,-424.647 296,-428.5 318.519,-446.524 308.517,-465.751 332,-482.5 334.701,-484.427 337.584,-486.158 340.585,-487.714"/>
<polygon fill="midnightblue" stroke="midnightblue" points="339.322,-490.983 349.879,-491.875 342.182,-484.594 339.322,-490.983"/>
</g>
<!-- Node14 -->
<g id="node14" class="node"><title>Node14</title>
<g id="a_node14"><a xlink:href="classDisplayObject.html#a814782fb1bf9e7a2ed7adab74872c08a" target="_top" xlink:title="DisplayObject::height">
<polygon fill="white" stroke="black" points="350.5,-454 350.5,-473 460.5,-473 460.5,-454 350.5,-454"/>
<text text-anchor="middle" x="405.5" y="-461" font-family="Helvetica,sans-Serif" font-size="10.00">DisplayObject::height</text>
</a>
</g>
</g>
<!-- Node3&#45;&gt;Node14 -->
<g id="edge13" class="edge"><title>Node3&#45;&gt;Node14</title>
<path fill="none" stroke="midnightblue" d="M271.003,-418.517C279.297,-421.734 287.957,-425.169 296,-428.5 312.176,-435.2 315.477,-438.706 332,-444.5 338.922,-446.927 346.311,-449.207 353.626,-451.286"/>
<polygon fill="midnightblue" stroke="midnightblue" points="352.935,-454.726 363.505,-453.993 354.785,-447.975 352.935,-454.726"/>
</g>
<!-- Node15 -->
<g id="node15" class="node"><title>Node15</title>
<g id="a_node15"><a xlink:href="classDisplayObject.html#afb3b221174f722f563e7bf55a1ddb29f" target="_top" xlink:title="DisplayObject::width">
<polygon fill="white" stroke="black" points="352,-416 352,-435 459,-435 459,-416 352,-416"/>
<text text-anchor="middle" x="405.5" y="-423" font-family="Helvetica,sans-Serif" font-size="10.00">DisplayObject::width</text>
</a>
</g>
</g>
<!-- Node3&#45;&gt;Node15 -->
<g id="edge14" class="edge"><title>Node3&#45;&gt;Node15</title>
<path fill="none" stroke="midnightblue" d="M296.099,-411.755C311.021,-413.647 326.856,-415.655 341.68,-417.534"/>
<polygon fill="midnightblue" stroke="midnightblue" points="341.396,-421.026 351.757,-418.812 342.277,-414.082 341.396,-421.026"/>
</g>
<!-- Node16 -->
<g id="node16" class="node"><title>Node16</title>
<g id="a_node16"><a xlink:href="classPlaylistItem.html#a5d94b9e2dab116ab2f4a3afd3639b18f" target="_top" xlink:title="PlaylistItem::getStatistics\lObject">
<polygon fill="white" stroke="black" points="341,-366.5 341,-396.5 470,-396.5 470,-366.5 341,-366.5"/>
<text text-anchor="start" x="349" y="-384.5" font-family="Helvetica,sans-Serif" font-size="10.00">PlaylistItem::getStatistics</text>
<text text-anchor="middle" x="405.5" y="-373.5" font-family="Helvetica,sans-Serif" font-size="10.00">Object</text>
</a>
</g>
</g>
<!-- Node3&#45;&gt;Node16 -->
<g id="edge15" class="edge"><title>Node3&#45;&gt;Node16</title>
<path fill="none" stroke="midnightblue" d="M296.099,-395.245C307.403,-393.812 319.231,-392.312 330.747,-390.852"/>
<polygon fill="midnightblue" stroke="midnightblue" points="331.285,-394.312 340.765,-389.582 330.404,-387.368 331.285,-394.312"/>
</g>
<!-- Node17 -->
<g id="node17" class="node"><title>Node17</title>
<g id="a_node17"><a xlink:href="classStatisticsObject.html#a014344f9921915768459d5cd3c5c6efa" target="_top" xlink:title="StatisticsObject::path">
<polygon fill="white" stroke="black" points="350,-328 350,-347 461,-347 461,-328 350,-328"/>
<text text-anchor="middle" x="405.5" y="-335" font-family="Helvetica,sans-Serif" font-size="10.00">StatisticsObject::path</text>
</a>
</g>
</g>
<!-- Node3&#45;&gt;Node17 -->
<g id="edge16" class="edge"><title>Node3&#45;&gt;Node17</title>
<path fill="none" stroke="midnightblue" d="M260.975,-388.334C280.8,-378.684 307.55,-366.377 332,-357.5 339.591,-354.744 347.746,-352.152 355.75,-349.806"/>
<polygon fill="midnightblue" stroke="midnightblue" points="356.723,-353.168 365.389,-347.072 354.813,-346.434 356.723,-353.168"/>
</g>
<!-- Node19 -->
<g id="node19" class="node"><title>Node19</title>
<g id="a_node19"><a xlink:href="classStatisticsObject.html#a35ebb80803c01da4504cc879d964321b" target="_top" xlink:title="StatisticsObject::getStatistics\lTypeList">
<polygon fill="white" stroke="black" points="332,-278.5 332,-308.5 479,-308.5 479,-278.5 332,-278.5"/>
<text text-anchor="start" x="340" y="-296.5" font-family="Helvetica,sans-Serif" font-size="10.00">StatisticsObject::getStatistics</text>
<text text-anchor="middle" x="405.5" y="-285.5" font-family="Helvetica,sans-Serif" font-size="10.00">TypeList</text>
</a>
</g>
</g>
<!-- Node3&#45;&gt;Node19 -->
<g id="edge18" class="edge"><title>Node3&#45;&gt;Node19</title>
<path fill="none" stroke="midnightblue" d="M245.411,-388.331C263.904,-369.63 297.71,-337.943 332,-318.5 335.713,-316.394 339.634,-314.424 343.651,-312.588"/>
<polygon fill="midnightblue" stroke="midnightblue" points="345.317,-315.683 353.15,-308.548 342.577,-309.242 345.317,-315.683"/>
</g>
<!-- Node21 -->
<g id="node21" class="node"><title>Node21</title>
<g id="a_node21"><a xlink:href="classPlaylistItem.html#ad49967db988d94174603ff085d8e2088" target="_top" xlink:title="PlaylistItem::getTextObject">
<polygon fill="white" stroke="black" points="337.5,-240 337.5,-259 473.5,-259 473.5,-240 337.5,-240"/>
<text text-anchor="middle" x="405.5" y="-247" font-family="Helvetica,sans-Serif" font-size="10.00">PlaylistItem::getTextObject</text>
</a>
</g>
</g>
<!-- Node3&#45;&gt;Node21 -->
<g id="edge20" class="edge"><title>Node3&#45;&gt;Node21</title>
<path fill="none" stroke="midnightblue" d="M238.108,-388.459C252.059,-360.598 285.743,-300.946 332,-269.5 335.683,-266.996 339.672,-264.805 343.819,-262.886"/>
<polygon fill="midnightblue" stroke="midnightblue" points="345.154,-266.122 353.096,-259.109 342.514,-259.639 345.154,-266.122"/>
</g>
<!-- Node22 -->
<g id="node22" class="node"><title>Node22</title>
<g id="a_node22"><a xlink:href="classTextObject.html#a2c8318c487b65fb1c973cd3a130efe06" target="_top" xlink:title="TextObject::duration">
<polygon fill="white" stroke="black" points="353,-202 353,-221 458,-221 458,-202 353,-202"/>
<text text-anchor="middle" x="405.5" y="-209" font-family="Helvetica,sans-Serif" font-size="10.00">TextObject::duration</text>
</a>
</g>
</g>
<!-- Node3&#45;&gt;Node22 -->
<g id="edge21" class="edge"><title>Node3&#45;&gt;Node22</title>
<path fill="none" stroke="midnightblue" d="M235.431,-388.324C246.116,-354.491 276.599,-272.558 332,-230.5 335.439,-227.889 339.206,-225.635 343.156,-223.691"/>
<polygon fill="midnightblue" stroke="midnightblue" points="344.786,-226.802 352.641,-219.691 342.066,-220.352 344.786,-226.802"/>
</g>
<!-- Node23 -->
<g id="node23" class="node"><title>Node23</title>
<g id="a_node23"><a xlink:href="classTextObject.html#a40a3c04abf6f17df174696a8902b84f1" target="_top" xlink:title="TextObject::font">
<polygon fill="white" stroke="black" points="362,-164 362,-183 449,-183 449,-164 362,-164"/>
<text text-anchor="middle" x="405.5" y="-171" font-family="Helvetica,sans-Serif" font-size="10.00">TextObject::font</text>
</a>
</g>
</g>
<!-- Node3&#45;&gt;Node23 -->
<g id="edge22" class="edge"><title>Node3&#45;&gt;Node23</title>
<path fill="none" stroke="midnightblue" d="M233.728,-388.311C241.53,-349.432 267.651,-245.646 332,-192.5 337.794,-187.715 344.663,-184.122 351.828,-181.426"/>
<polygon fill="midnightblue" stroke="midnightblue" points="353.241,-184.65 361.708,-178.28 351.117,-177.98 353.241,-184.65"/>
</g>
<!-- Node24 -->
<g id="node24" class="node"><title>Node24</title>
<g id="a_node24"><a xlink:href="classTextObject.html#a08fdf4f44f51b8bed47924be88de9515" target="_top" xlink:title="TextObject::color">
<polygon fill="white" stroke="black" points="359.5,-126 359.5,-145 451.5,-145 451.5,-126 359.5,-126"/>
<text text-anchor="middle" x="405.5" y="-133" font-family="Helvetica,sans-Serif" font-size="10.00">TextObject::color</text>
</a>
</g>
</g>
<!-- Node3&#45;&gt;Node24 -->
<g id="edge23" class="edge"><title>Node3&#45;&gt;Node24</title>
<path fill="none" stroke="midnightblue" d="M232.519,-388.223C237.687,-344.693 258.581,-219.007 332,-154.5 337.123,-149.999 343.186,-146.545 349.591,-143.897"/>
<polygon fill="midnightblue" stroke="midnightblue" points="350.857,-147.163 359.148,-140.567 348.554,-140.552 350.857,-147.163"/>
</g>
<!-- Node25 -->
<g id="node25" class="node"><title>Node25</title>
<g id="a_node25"><a xlink:href="classTextObject.html#a20869fc1605e26ea2b69c3daf6eb1cc9" target="_top" xlink:title="TextObject::text">
<polygon fill="white" stroke="black" points="362,-88 362,-107 449,-107 449,-88 362,-88"/>
<text text-anchor="middle" x="405.5" y="-95" font-family="Helvetica,sans-Serif" font-size="10.00">TextObject::text</text>
</a>
</g>
</g>
<!-- Node3&#45;&gt;Node25 -->
<g id="edge24" class="edge"><title>Node3&#45;&gt;Node25</title>
<path fill="none" stroke="midnightblue" d="M231.587,-388.38C234.28,-340.79 249.246,-192.726 332,-116.5 337.787,-111.169 344.885,-107.297 352.352,-104.491"/>
<polygon fill="midnightblue" stroke="midnightblue" points="353.447,-107.816 361.937,-101.478 351.348,-101.138 353.447,-107.816"/>
</g>
<!-- Node26 -->
<g id="node26" class="node"><title>Node26</title>
<g id="a_node26"><a xlink:href="classPListSerializer.html#abfd3f0538d84ac3c6f18b9aa3846a04c" target="_top" xlink:title="PListSerializer::toPList">
<polygon fill="white" stroke="black" points="347.5,-50 347.5,-69 463.5,-69 463.5,-50 347.5,-50"/>
<text text-anchor="middle" x="405.5" y="-57" font-family="Helvetica,sans-Serif" font-size="10.00">PListSerializer::toPList</text>
</a>
</g>
</g>
<!-- Node3&#45;&gt;Node26 -->
<g id="edge25" class="edge"><title>Node3&#45;&gt;Node26</title>
<path fill="none" stroke="midnightblue" d="M230.873,-388.278C231.308,-336.642 239.962,-166.487 332,-78.5 333.934,-76.6511 336.025,-74.9767 338.235,-73.4606"/>
<polygon fill="midnightblue" stroke="midnightblue" points="340.282,-76.3247 347.273,-68.3638 336.843,-70.2275 340.282,-76.3247"/>
</g>
<!-- Node32 -->
<g id="node32" class="node"><title>Node32</title>
<g id="a_node32"><a xlink:href="classPlaylistTreeWidget.html#a3d898eca74f2de619866263e7ffbe5f2" target="_top" xlink:title="PlaylistTreeWidget\l::setIsSaved">
<polygon fill="white" stroke="black" points="356,-0.5 356,-30.5 455,-30.5 455,-0.5 356,-0.5"/>
<text text-anchor="start" x="364" y="-18.5" font-family="Helvetica,sans-Serif" font-size="10.00">PlaylistTreeWidget</text>
<text text-anchor="middle" x="405.5" y="-7.5" font-family="Helvetica,sans-Serif" font-size="10.00">::setIsSaved</text>
</a>
</g>
</g>
<!-- Node3&#45;&gt;Node32 -->
<g id="edge34" class="edge"><title>Node3&#45;&gt;Node32</title>
<path fill="none" stroke="midnightblue" d="M230.55,-388.369C229.766,-333.691 234.493,-144.111 332,-40.5 336.15,-36.0899 341.114,-32.4578 346.472,-29.4663"/>
<polygon fill="midnightblue" stroke="midnightblue" points="348.275,-32.484 355.786,-25.0125 345.255,-26.1689 348.275,-32.484"/>
</g>
<!-- Node7 -->
<g id="node7" class="node"><title>Node7</title>
<g id="a_node7"><a xlink:href="classYUVSource.html#a7d527fbe40470a3af9dd643ec1e5a168" target="_top" xlink:title="YUVSource::getPath">
<polygon fill="white" stroke="black" points="532.5,-682 532.5,-701 640.5,-701 640.5,-682 532.5,-682"/>
<text text-anchor="middle" x="586.5" y="-689" font-family="Helvetica,sans-Serif" font-size="10.00">YUVSource::getPath</text>
</a>
</g>
</g>
<!-- Node6&#45;&gt;Node7 -->
<g id="edge6" class="edge"><title>Node6&#45;&gt;Node7</title>
<path fill="none" stroke="midnightblue" d="M454.94,-691.5C475.587,-691.5 499.957,-691.5 522.017,-691.5"/>
<polygon fill="midnightblue" stroke="midnightblue" points="522.301,-695 532.3,-691.5 522.3,-688 522.301,-695"/>
</g>
<!-- Node13 -->
<g id="node13" class="node"><title>Node13</title>
<g id="a_node13"><a xlink:href="classYUVSource.html#a592ce352c789f4f5789b11e052b58a33" target="_top" xlink:title="YUVSource::pixelFormat">
<polygon fill="white" stroke="black" points="524,-492 524,-511 649,-511 649,-492 524,-492"/>
<text text-anchor="middle" x="586.5" y="-499" font-family="Helvetica,sans-Serif" font-size="10.00">YUVSource::pixelFormat</text>
</a>
</g>
</g>
<!-- Node12&#45;&gt;Node13 -->
<g id="edge12" class="edge"><title>Node12&#45;&gt;Node13</title>
<path fill="none" stroke="midnightblue" d="M470.618,-501.5C484.583,-501.5 499.447,-501.5 513.688,-501.5"/>
<polygon fill="midnightblue" stroke="midnightblue" points="513.927,-505 523.927,-501.5 513.927,-498 513.927,-505"/>
</g>
<!-- Node18 -->
<g id="node18" class="node"><title>Node18</title>
<g id="a_node18"><a xlink:href="classstatisticSource.html#a0bcd5970599d13cd51bd9be237943de9" target="_top" xlink:title="statisticSource::getPath">
<polygon fill="white" stroke="black" points="525.5,-328 525.5,-347 647.5,-347 647.5,-328 525.5,-328"/>
<text text-anchor="middle" x="586.5" y="-335" font-family="Helvetica,sans-Serif" font-size="10.00">statisticSource::getPath</text>
</a>
</g>
</g>
<!-- Node17&#45;&gt;Node18 -->
<g id="edge17" class="edge"><title>Node17&#45;&gt;Node18</title>
<path fill="none" stroke="midnightblue" d="M461.179,-337.5C478.189,-337.5 497.188,-337.5 515.113,-337.5"/>
<polygon fill="midnightblue" stroke="midnightblue" points="515.23,-341 525.23,-337.5 515.23,-334 515.23,-341"/>
</g>
<!-- Node20 -->
<g id="node20" class="node"><title>Node20</title>
<g id="a_node20"><a xlink:href="classstatisticSource.html#a74f687960651340a1bce1f8b2653a335" target="_top" xlink:title="statisticSource::getStatistics\lTypeList">
<polygon fill="white" stroke="black" points="515,-278.5 515,-308.5 658,-308.5 658,-278.5 515,-278.5"/>
<text text-anchor="start" x="523" y="-296.5" font-family="Helvetica,sans-Serif" font-size="10.00">statisticSource::getStatistics</text>
<text text-anchor="middle" x="586.5" y="-285.5" font-family="Helvetica,sans-Serif" font-size="10.00">TypeList</text>
</a>
</g>
</g>
<!-- Node19&#45;&gt;Node20 -->
<g id="edge19" class="edge"><title>Node19&#45;&gt;Node20</title>
<path fill="none" stroke="midnightblue" d="M479.048,-293.5C487.546,-293.5 496.255,-293.5 504.855,-293.5"/>
<polygon fill="midnightblue" stroke="midnightblue" points="504.88,-297 514.88,-293.5 504.88,-290 504.88,-297"/>
</g>
<!-- Node27 -->
<g id="node27" class="node"><title>Node27</title>
<g id="a_node27"><a xlink:href="classPListSerializer.html#a0167db85d915aea8d37b3e76b444fd31" target="_top" xlink:title="PListSerializer::serialize\lElement">
<polygon fill="white" stroke="black" points="525.5,-44.5 525.5,-74.5 647.5,-74.5 647.5,-44.5 525.5,-44.5"/>
<text text-anchor="start" x="533.5" y="-62.5" font-family="Helvetica,sans-Serif" font-size="10.00">PListSerializer::serialize</text>
<text text-anchor="middle" x="586.5" y="-51.5" font-family="Helvetica,sans-Serif" font-size="10.00">Element</text>
</a>
</g>
</g>
<!-- Node26&#45;&gt;Node27 -->
<g id="edge26" class="edge"><title>Node26&#45;&gt;Node27</title>
<path fill="none" stroke="midnightblue" d="M463.629,-59.5C479.897,-59.5 497.814,-59.5 514.788,-59.5"/>
<polygon fill="midnightblue" stroke="midnightblue" points="515.211,-63.0001 525.211,-59.5 515.211,-56.0001 515.211,-63.0001"/>
</g>
<!-- Node28 -->
<g id="node28" class="node"><title>Node28</title>
<g id="a_node28"><a xlink:href="classPListSerializer.html#a7f93d3cb22cfbbee86b0e0e15b88bb70" target="_top" xlink:title="PListSerializer::serializeMap">
<polygon fill="white" stroke="black" points="694,-88 694,-107 834,-107 834,-88 694,-88"/>
<text text-anchor="middle" x="764" y="-95" font-family="Helvetica,sans-Serif" font-size="10.00">PListSerializer::serializeMap</text>
</a>
</g>
</g>
<!-- Node27&#45;&gt;Node28 -->
<g id="edge27" class="edge"><title>Node27&#45;&gt;Node28</title>
<path fill="none" stroke="midnightblue" d="M647.897,-66.1278C675.709,-71.5199 707.593,-78.7842 730.741,-85.147"/>
<polygon fill="midnightblue" stroke="midnightblue" points="729.825,-88.5253 740.402,-87.9035 731.746,-81.794 729.825,-88.5253"/>
</g>
<!-- Node30 -->
<g id="node30" class="node"><title>Node30</title>
<g id="a_node30"><a xlink:href="classPListSerializer.html#a3931479543c53e915f00161c3ddf1500" target="_top" xlink:title="PListSerializer::serializeList">
<polygon fill="white" stroke="black" points="695.5,-50 695.5,-69 832.5,-69 832.5,-50 695.5,-50"/>
<text text-anchor="middle" x="764" y="-57" font-family="Helvetica,sans-Serif" font-size="10.00">PListSerializer::serializeList</text>
</a>
</g>
</g>
<!-- Node27&#45;&gt;Node30 -->
<g id="edge30" class="edge"><title>Node27&#45;&gt;Node30</title>
<path fill="none" stroke="midnightblue" d="M647.897,-53.0503C659.826,-52.7802 672.505,-52.6923 684.922,-52.7866"/>
<polygon fill="midnightblue" stroke="midnightblue" points="685.228,-56.2903 695.269,-52.9086 685.311,-49.2908 685.228,-56.2903"/>
</g>
<!-- Node31 -->
<g id="node31" class="node"><title>Node31</title>
<g id="a_node31"><a xlink:href="plistserializer_8cpp.html#a69e092811e46f43d9a1da598c7917123" target="_top" xlink:title="serializePrimitive">
<polygon fill="white" stroke="black" points="718.5,-12 718.5,-31 809.5,-31 809.5,-12 718.5,-12"/>
<text text-anchor="middle" x="764" y="-19" font-family="Helvetica,sans-Serif" font-size="10.00">serializePrimitive</text>
</a>
</g>
</g>
<!-- Node27&#45;&gt;Node31 -->
<g id="edge32" class="edge"><title>Node27&#45;&gt;Node31</title>
<path fill="none" stroke="midnightblue" d="M647.897,-46.4226C667.824,-42.108 689.841,-37.3407 709.238,-33.1408"/>
<polygon fill="midnightblue" stroke="midnightblue" points="710.084,-36.5387 719.117,-31.0017 708.603,-29.6972 710.084,-36.5387"/>
</g>
<!-- Node28&#45;&gt;Node27 -->
<g id="edge29" class="edge"><title>Node28&#45;&gt;Node27</title>
<path fill="none" stroke="midnightblue" d="M693.87,-89.1448C675.839,-85.5094 656.708,-81.2401 639.717,-77.038"/>
<polygon fill="midnightblue" stroke="midnightblue" points="640.537,-73.6353 629.984,-74.577 638.82,-80.4217 640.537,-73.6353"/>
</g>
<!-- Node29 -->
<g id="node29" class="node"><title>Node29</title>
<g id="a_node29"><a xlink:href="plistserializer_8cpp.html#abdd9685c5a5fd4bdd06fd3915cad3bd6" target="_top" xlink:title="textElement">
<polygon fill="white" stroke="black" points="870,-50 870,-69 939,-69 939,-50 870,-50"/>
<text text-anchor="middle" x="904.5" y="-57" font-family="Helvetica,sans-Serif" font-size="10.00">textElement</text>
</a>
</g>
</g>
<!-- Node28&#45;&gt;Node29 -->
<g id="edge28" class="edge"><title>Node28&#45;&gt;Node29</title>
<path fill="none" stroke="midnightblue" d="M799.949,-87.911C818.238,-82.8932 840.796,-76.7039 860.185,-71.3844"/>
<polygon fill="midnightblue" stroke="midnightblue" points="861.278,-74.7139 869.995,-68.6927 859.425,-67.9634 861.278,-74.7139"/>
</g>
<!-- Node30&#45;&gt;Node27 -->
<g id="edge31" class="edge"><title>Node30&#45;&gt;Node27</title>
<path fill="none" stroke="midnightblue" d="M695.269,-66.0914C683.077,-66.2877 670.341,-66.3018 658.072,-66.1337"/>
<polygon fill="midnightblue" stroke="midnightblue" points="657.959,-62.6312 647.897,-65.9497 657.832,-69.63 657.959,-62.6312"/>
</g>
<!-- Node31&#45;&gt;Node29 -->
<g id="edge33" class="edge"><title>Node31&#45;&gt;Node29</title>
<path fill="none" stroke="midnightblue" d="M799.949,-31.089C818.238,-36.1068 840.796,-42.2961 860.185,-47.6156"/>
<polygon fill="midnightblue" stroke="midnightblue" points="859.425,-51.0366 869.995,-50.3073 861.278,-44.2861 859.425,-51.0366"/>
</g>
</g>
</svg>
