<?xml version="1.0" encoding="UTF-8" standalone="no"?>
<!DOCTYPE svg PUBLIC "-//W3C//DTD SVG 1.1//EN"
 "http://www.w3.org/Graphics/SVG/1.1/DTD/svg11.dtd">
<!-- Generated by graphviz version 2.38.0 (20140413.2041)
 -->
<!-- Title: StatisticsType Pages: 1 -->
<svg width="442pt" height="370pt"
 viewBox="0.00 0.00 442.00 370.00" xmlns="http://www.w3.org/2000/svg" xmlns:xlink="http://www.w3.org/1999/xlink">
<g id="graph0" class="graph" transform="scale(1 1) rotate(0) translate(4 366)">
<title>StatisticsType</title>
<polygon fill="white" stroke="none" points="-4,4 -4,-366 438,-366 438,4 -4,4"/>
<!-- Node1 -->
<g id="node1" class="node"><title>Node1</title>
<polygon fill="#bfbfbf" stroke="black" points="354,-161.5 354,-180.5 434,-180.5 434,-161.5 354,-161.5"/>
<text text-anchor="middle" x="394" y="-168.5" font-family="Helvetica,sans-Serif" font-size="10.00">StatisticsType</text>
</g>
<!-- Node2 -->
<g id="node2" class="node"><title>Node2</title>
<polygon fill="white" stroke="#bfbfbf" points="129,-341.5 129,-360.5 239,-360.5 239,-341.5 129,-341.5"/>
<text text-anchor="middle" x="184" y="-348.5" font-family="Helvetica,sans-Serif" font-size="10.00">QMap&lt; int, QString &gt;</text>
</g>
<!-- Node2&#45;&gt;Node1 -->
<g id="edge1" class="edge"><title>Node2&#45;&gt;Node1</title>
<path fill="none" stroke="#9a32cd" stroke-dasharray="5,2" d="M249.276,-352.409C278.666,-349.867 312.162,-342.07 336,-322 380.8,-284.281 390.441,-207.506 392.472,-180.586"/>
<polygon fill="#9a32cd" stroke="#9a32cd" points="248.815,-348.933 239.075,-353.101 249.289,-355.917 248.815,-348.933"/>
<text text-anchor="middle" x="296.5" y="-354" font-family="Helvetica,sans-Serif" font-size="10.00"> valMap</text>
</g>
<!-- Node3 -->
<g id="node3" class="node"><title>Node3</title>
<polygon fill="white" stroke="#bfbfbf" points="133.5,-303.5 133.5,-322.5 234.5,-322.5 234.5,-303.5 133.5,-303.5"/>
<text text-anchor="middle" x="184" y="-310.5" font-family="Helvetica,sans-Serif" font-size="10.00">visualizationType_t</text>
</g>
<!-- Node3&#45;&gt;Node1 -->
<g id="edge2" class="edge"><title>Node3&#45;&gt;Node1</title>
<path fill="none" stroke="#9a32cd" stroke-dasharray="5,2" d="M244.578,-310.187C274.577,-306.124 309.996,-297.005 336,-277 368.957,-251.647 385.119,-201.658 390.682,-180.654"/>
<polygon fill="#9a32cd" stroke="#9a32cd" points="244.146,-306.714 234.633,-311.38 244.979,-313.664 244.146,-306.714"/>
<text text-anchor="middle" x="296.5" y="-310" font-family="Helvetica,sans-Serif" font-size="10.00"> visualizationType</text>
</g>
<!-- Node4 -->
<g id="node4" class="node"><title>Node4</title>
<polygon fill="white" stroke="#bfbfbf" points="0,-234.5 0,-253.5 47,-253.5 47,-234.5 0,-234.5"/>
<text text-anchor="middle" x="23.5" y="-241.5" font-family="Helvetica,sans-Serif" font-size="10.00">QColor</text>
</g>
<!-- Node4&#45;&gt;Node1 -->
<g id="edge3" class="edge"><title>Node4&#45;&gt;Node1</title>
<path fill="none" stroke="#9a32cd" stroke-dasharray="5,2" d="M57.21,-248.387C59.842,-248.634 62.4632,-248.844 65,-249 85.4059,-250.255 90.6231,-250.66 111,-249 212.156,-240.757 242.198,-248.751 336,-210 353.51,-202.766 371.118,-189.606 382.034,-180.59"/>
<polygon fill="#9a32cd" stroke="#9a32cd" points="57.4793,-244.896 47.1599,-247.295 56.7235,-251.855 57.4793,-244.896"/>
<text text-anchor="middle" x="184" y="-261" font-family="Helvetica,sans-Serif" font-size="10.00"> vectorColor</text>
<text text-anchor="middle" x="184" y="-250" font-family="Helvetica,sans-Serif" font-size="10.00">gridColor</text>
</g>
<!-- Node6 -->
<g id="node6" class="node"><title>Node6</title>
<g id="a_node6"><a xlink:href="classColorRange.html" target="_top" xlink:title="ColorRange">
<polygon fill="white" stroke="black" points="150,-199.5 150,-218.5 218,-218.5 218,-199.5 150,-199.5"/>
<text text-anchor="middle" x="184" y="-206.5" font-family="Helvetica,sans-Serif" font-size="10.00">ColorRange</text>
</a>
</g>
</g>
<!-- Node4&#45;&gt;Node6 -->
<g id="edge6" class="edge"><title>Node4&#45;&gt;Node6</title>
<path fill="none" stroke="#9a32cd" stroke-dasharray="5,2" d="M54.0896,-230.606C57.7185,-229.254 61.4124,-228.01 65,-227 93.1264,-219.082 126.066,-214.426 149.985,-211.84"/>
<polygon fill="#9a32cd" stroke="#9a32cd" points="52.7325,-227.379 44.7533,-234.349 55.3376,-233.876 52.7325,-227.379"/>
<text text-anchor="middle" x="88" y="-241" font-family="Helvetica,sans-Serif" font-size="10.00"> maxColor</text>
<text text-anchor="middle" x="88" y="-230" font-family="Helvetica,sans-Serif" font-size="10.00">minColor</text>
</g>
<!-- Node5 -->
<g id="node5" class="node"><title>Node5</title>
<polygon fill="white" stroke="#bfbfbf" points="159,-92.5 159,-111.5 209,-111.5 209,-92.5 159,-92.5"/>
<text text-anchor="middle" x="184" y="-99.5" font-family="Helvetica,sans-Serif" font-size="10.00">QString</text>
</g>
<!-- Node5&#45;&gt;Node1 -->
<g id="edge4" class="edge"><title>Node5&#45;&gt;Node1</title>
<path fill="none" stroke="#9a32cd" stroke-dasharray="5,2" d="M219.203,-101.427C250.811,-102.107 298.421,-106.261 336,-123 356.09,-131.949 374.634,-150.179 384.826,-161.418"/>
<polygon fill="#9a32cd" stroke="#9a32cd" points="219.173,-97.9261 209.135,-101.316 219.096,-104.926 219.173,-97.9261"/>
<text text-anchor="middle" x="296.5" y="-126" font-family="Helvetica,sans-Serif" font-size="10.00"> typeName</text>
</g>
<!-- Node6&#45;&gt;Node1 -->
<g id="edge5" class="edge"><title>Node6&#45;&gt;Node1</title>
<path fill="none" stroke="#9a32cd" stroke-dasharray="5,2" d="M228.424,-201.067C265.475,-194.298 318.273,-184.652 353.995,-178.126"/>
<polygon fill="#9a32cd" stroke="#9a32cd" points="227.627,-197.654 218.419,-202.895 228.885,-204.54 227.627,-197.654"/>
<text text-anchor="middle" x="296.5" y="-198" font-family="Helvetica,sans-Serif" font-size="10.00"> colorRange</text>
</g>
<!-- Node7 -->
<g id="node7" class="node"><title>Node7</title>
<polygon fill="white" stroke="#bfbfbf" points="9,-155.5 9,-174.5 38,-174.5 38,-155.5 9,-155.5"/>
<text text-anchor="middle" x="23.5" y="-162.5" font-family="Helvetica,sans-Serif" font-size="10.00">int</text>
</g>
<!-- Node7&#45;&gt;Node1 -->
<g id="edge9" class="edge"><title>Node7&#45;&gt;Node1</title>
<path fill="none" stroke="#9a32cd" stroke-dasharray="5,2" d="M48.0105,-162.684C69.1707,-160.723 101.13,-158.065 129,-157 177.853,-155.133 190.161,-154.785 239,-157 278.155,-158.776 322.739,-163.08 353.823,-166.451"/>
<polygon fill="#9a32cd" stroke="#9a32cd" points="47.6326,-159.204 38.0084,-163.634 48.2945,-166.173 47.6326,-159.204"/>
<text text-anchor="middle" x="184" y="-182" font-family="Helvetica,sans-Serif" font-size="10.00"> typeID</text>
<text text-anchor="middle" x="184" y="-171" font-family="Helvetica,sans-Serif" font-size="10.00">alphaFactor</text>
<text text-anchor="middle" x="184" y="-160" font-family="Helvetica,sans-Serif" font-size="10.00">vectorSampling</text>
</g>
<!-- Node7&#45;&gt;Node6 -->
<g id="edge7" class="edge"><title>Node7&#45;&gt;Node6</title>
<path fill="none" stroke="#9a32cd" stroke-dasharray="5,2" d="M47.7275,-171.448C74.6492,-178.922 119.223,-191.295 149.797,-199.783"/>
<polygon fill="#9a32cd" stroke="#9a32cd" points="48.5855,-168.054 38.0136,-168.751 46.713,-174.799 48.5855,-168.054"/>
<text text-anchor="middle" x="88" y="-202" font-family="Helvetica,sans-Serif" font-size="10.00"> rangeMin</text>
<text text-anchor="middle" x="88" y="-191" font-family="Helvetica,sans-Serif" font-size="10.00">rangeMax</text>
</g>
<!-- Node8 -->
<g id="node8" class="node"><title>Node8</title>
<polygon fill="white" stroke="#bfbfbf" points="130,-54.5 130,-73.5 238,-73.5 238,-54.5 130,-54.5"/>
<text text-anchor="middle" x="184" y="-61.5" font-family="Helvetica,sans-Serif" font-size="10.00">QMap&lt; int, QColor &gt;</text>
</g>
<!-- Node8&#45;&gt;Node1 -->
<g id="edge8" class="edge"><title>Node8&#45;&gt;Node1</title>
<path fill="none" stroke="#9a32cd" stroke-dasharray="5,2" d="M248.516,-64.0973C277.113,-66.7509 310.172,-73.6611 336,-90 363.756,-107.558 381.824,-144.006 389.21,-161.382"/>
<polygon fill="#9a32cd" stroke="#9a32cd" points="248.443,-60.5814 238.204,-63.3027 247.905,-67.5607 248.443,-60.5814"/>
<text text-anchor="middle" x="296.5" y="-93" font-family="Helvetica,sans-Serif" font-size="10.00"> colorMap</text>
</g>
<!-- Node9 -->
<g id="node9" class="node"><title>Node9</title>
<polygon fill="white" stroke="#bfbfbf" points="166.5,-0.5 166.5,-19.5 201.5,-19.5 201.5,-0.5 166.5,-0.5"/>
<text text-anchor="middle" x="184" y="-7.5" font-family="Helvetica,sans-Serif" font-size="10.00">bool</text>
</g>
<!-- Node9&#45;&gt;Node1 -->
<g id="edge10" class="edge"><title>Node9&#45;&gt;Node1</title>
<path fill="none" stroke="#9a32cd" stroke-dasharray="5,2" d="M211.71,-5.80288C244.481,-2.20114 300.101,-1.3041 336,-29 379.748,-62.7519 390.034,-135.399 392.354,-161.455"/>
<polygon fill="#9a32cd" stroke="#9a32cd" points="211.014,-2.36284 201.533,-7.09063 211.893,-9.30746 211.014,-2.36284"/>
<text text-anchor="middle" x="296.5" y="-54" font-family="Helvetica,sans-Serif" font-size="10.00"> renderGrid</text>
<text text-anchor="middle" x="296.5" y="-43" font-family="Helvetica,sans-Serif" font-size="10.00">render</text>
<text text-anchor="middle" x="296.5" y="-32" font-family="Helvetica,sans-Serif" font-size="10.00">scaleToBlockSize</text>
</g>
</g>
</svg>
