<?xml version="1.0" encoding="UTF-8" standalone="no"?>
<!DOCTYPE svg PUBLIC "-//W3C//DTD SVG 1.1//EN"
 "http://www.w3.org/Graphics/SVG/1.1/DTD/svg11.dtd">
<!-- Generated by graphviz version 2.38.0 (20140413.2041)
 -->
<!-- Title: de265File Pages: 1 -->
<!--zoomable 1474 -->
<svg id="main" version="1.1" xmlns="http://www.w3.org/2000/svg" xmlns:xlink="http://www.w3.org/1999/xlink" xml:space="preserve" onload="init(evt)">
<style type="text/css"><![CDATA[
.edge:hover path { stroke: red; }
.edge:hover polygon { stroke: red; fill: red; }
]]></style>
<script type="text/javascript"><![CDATA[
var edges = document.getElementsByTagName('g');
if (edges && edges.length) {
  for (var i=0;i<edges.length;i++) {
    if (edges[i].id.substr(0,4)=='edge') {
      edges[i].setAttribute('class','edge');
    }
  }
}
]]></script>
        <defs>
                <circle id="rim" cx="0" cy="0" r="7"/>
                <circle id="rim2" cx="0" cy="0" r="3.5"/>
                <g id="zoomPlus">
                        <use xlink:href="#rim" fill="#404040">
                                <set attributeName="fill" to="#808080" begin="zoomplus.mouseover" end="zoomplus.mouseout"/>
                        </use>
                        <path d="M-4,0h8M0,-4v8" fill="none" stroke="white" stroke-width="1.5" pointer-events="none"/>
                </g>
                <g id="zoomMin">
                        <use xlink:href="#rim" fill="#404040">
                                <set attributeName="fill" to="#808080" begin="zoomminus.mouseover" end="zoomminus.mouseout"/>
                        </use>
                        <path d="M-4,0h8" fill="none" stroke="white" stroke-width="1.5" pointer-events="none"/>
                </g>
                <g id="dirArrow">
                        <path fill="none" stroke="white" stroke-width="1.5" d="M0,-3.0v7 M-2.5,-0.5L0,-3.0L2.5,-0.5"/>
                </g>
               <g id="resetDef">
                       <use xlink:href="#rim2" fill="#404040">
                               <set attributeName="fill" to="#808080" begin="reset.mouseover" end="reset.mouseout"/>
                       </use>
               </g>
        </defs>

<script type="text/javascript">
var viewWidth = 755;
var viewHeight = 1474;
var sectionId = 'dynsection-1';
</script>
<script xlink:href="svgpan.js"/>
<svg id="graph" class="graph">
<g id="viewport">
<title>de265File</title>
<polygon fill="white" stroke="none" points="-4,4 -4,-1470.22 751,-1470.22 751,4 -4,4"/>
<!-- Node1 -->
<g id="node1" class="node"><title>Node1</title>
<polygon fill="#bfbfbf" stroke="black" points="688,-570.721 688,-589.721 747,-589.721 747,-570.721 688,-570.721"/>
<text text-anchor="middle" x="717.5" y="-577.721" font-family="Helvetica,sans-Serif" font-size="10.00">de265File</text>
</g>
<!-- Node2 -->
<g id="node2" class="node"><title>Node2</title>
<g id="a_node2"><a xlink:href="classYUVSource.html" target="_top" xlink:title="YUVSource">
<polygon fill="white" stroke="black" points="413.5,-1303.72 413.5,-1322.72 481.5,-1322.72 481.5,-1303.72 413.5,-1303.72"/>
<text text-anchor="middle" x="447.5" y="-1310.72" font-family="Helvetica,sans-Serif" font-size="10.00">YUVSource</text>
</a>
</g>
</g>
<!-- Node2&#45;&gt;Node1 -->
<g id="edge1" class="edge"><title>Node2&#45;&gt;Node1</title>
<path fill="none" stroke="midnightblue" d="M491.859,-1319.71C542.719,-1324.6 625.701,-1323.55 670,-1274.22 717.905,-1220.87 716.946,-669.192 716.557,-589.735"/>
<polygon fill="midnightblue" stroke="midnightblue" points="492.145,-1316.22 481.828,-1318.63 491.395,-1323.18 492.145,-1316.22"/>
</g>
<!-- Node3 -->
<g id="node3" class="node"><title>Node3</title>
<g id="a_node3"><a xlink:href="classQObject.html" target="_top" xlink:title="QObject">
<polygon fill="white" stroke="black" points="148.5,-1082.72 148.5,-1101.72 201.5,-1101.72 201.5,-1082.72 148.5,-1082.72"/>
<text text-anchor="middle" x="175" y="-1089.72" font-family="Helvetica,sans-Serif" font-size="10.00">QObject</text>
</a>
</g>
</g>
<!-- Node3&#45;&gt;Node2 -->
<g id="edge2" class="edge"><title>Node3&#45;&gt;Node2</title>
<path fill="none" stroke="midnightblue" d="M211.901,-1091.07C259.038,-1090.39 338.143,-1092.37 358,-1112.22 383.776,-1137.98 355.628,-1245.01 376,-1275.22 385.094,-1288.71 400.602,-1297.81 414.761,-1303.71"/>
<polygon fill="midnightblue" stroke="midnightblue" points="211.726,-1087.58 201.795,-1091.27 211.86,-1094.58 211.726,-1087.58"/>
</g>
<!-- Node12 -->
<g id="node12" class="node"><title>Node12</title>
<g id="a_node12"><a xlink:href="classstatisticSource.html" target="_top" xlink:title="statisticSource">
<polygon fill="white" stroke="black" points="406.5,-1003.72 406.5,-1022.72 488.5,-1022.72 488.5,-1003.72 406.5,-1003.72"/>
<text text-anchor="middle" x="447.5" y="-1010.72" font-family="Helvetica,sans-Serif" font-size="10.00">statisticSource</text>
</a>
</g>
</g>
<!-- Node3&#45;&gt;Node12 -->
<g id="edge12" class="edge"><title>Node3&#45;&gt;Node12</title>
<path fill="none" stroke="midnightblue" d="M211.709,-1090.5C249.869,-1087.39 311.187,-1078.67 358,-1054.22 367.754,-1049.13 366.576,-1042.9 376,-1037.22 385.966,-1031.21 397.638,-1026.46 408.585,-1022.83"/>
<polygon fill="midnightblue" stroke="midnightblue" points="211.311,-1087.02 201.591,-1091.24 211.819,-1094 211.311,-1087.02"/>
</g>
<!-- Node4 -->
<g id="node4" class="node"><title>Node4</title>
<g id="a_node4"><a xlink:title="STL class. ">
<polygon fill="white" stroke="#bfbfbf" points="129,-1427.72 129,-1446.72 221,-1446.72 221,-1427.72 129,-1427.72"/>
<text text-anchor="middle" x="175" y="-1434.72" font-family="Helvetica,sans-Serif" font-size="10.00">std::map&lt; K, T &gt;</text>
</a>
</g>
</g>
<!-- Node4&#45;&gt;Node2 -->
<g id="edge3" class="edge"><title>Node4&#45;&gt;Node2</title>
<path fill="none" stroke="#9a32cd" stroke-dasharray="5,2" d="M231.407,-1435.93C269.037,-1433.02 318.879,-1425.06 358,-1404.22 395.93,-1384.02 427.425,-1341.8 440.281,-1322.82"/>
<polygon fill="#9a32cd" stroke="#9a32cd" points="230.878,-1432.46 221.137,-1436.62 231.35,-1439.44 230.878,-1432.46"/>
<text text-anchor="middle" x="309" y="-1435.22" font-family="Helvetica,sans-Serif" font-size="10.00"> g_pixelFormatList</text>
</g>
<!-- Node5 -->
<g id="node5" class="node"><title>Node5</title>
<polygon fill="white" stroke="#bfbfbf" points="0,-1446.72 0,-1465.72 29,-1465.72 29,-1446.72 0,-1446.72"/>
<text text-anchor="middle" x="14.5" y="-1453.72" font-family="Helvetica,sans-Serif" font-size="10.00">K</text>
</g>
<!-- Node5&#45;&gt;Node4 -->
<g id="edge4" class="edge"><title>Node5&#45;&gt;Node4</title>
<path fill="none" stroke="#9a32cd" stroke-dasharray="5,2" d="M39.1429,-1453.39C62.7364,-1450.56 99.5849,-1446.14 128.806,-1442.64"/>
<polygon fill="#9a32cd" stroke="#9a32cd" points="38.5259,-1449.94 29.0136,-1454.6 39.3591,-1456.89 38.5259,-1449.94"/>
<text text-anchor="middle" x="68.5" y="-1454.22" font-family="Helvetica,sans-Serif" font-size="10.00"> keys</text>
</g>
<!-- Node6 -->
<g id="node6" class="node"><title>Node6</title>
<polygon fill="white" stroke="#bfbfbf" points="0,-1408.72 0,-1427.72 29,-1427.72 29,-1408.72 0,-1408.72"/>
<text text-anchor="middle" x="14.5" y="-1415.72" font-family="Helvetica,sans-Serif" font-size="10.00">T</text>
</g>
<!-- Node6&#45;&gt;Node4 -->
<g id="edge5" class="edge"><title>Node6&#45;&gt;Node4</title>
<path fill="none" stroke="#9a32cd" stroke-dasharray="5,2" d="M39.1429,-1421.06C62.7364,-1423.88 99.5849,-1428.3 128.806,-1431.8"/>
<polygon fill="#9a32cd" stroke="#9a32cd" points="39.3591,-1417.56 29.0136,-1419.84 38.5259,-1424.51 39.3591,-1417.56"/>
<text text-anchor="middle" x="68.5" y="-1429.22" font-family="Helvetica,sans-Serif" font-size="10.00"> elements</text>
</g>
<!-- Node7 -->
<g id="node7" class="node"><title>Node7</title>
<polygon fill="white" stroke="#bfbfbf" points="152.5,-1389.72 152.5,-1408.72 197.5,-1408.72 197.5,-1389.72 152.5,-1389.72"/>
<text text-anchor="middle" x="175" y="-1396.72" font-family="Helvetica,sans-Serif" font-size="10.00">double</text>
</g>
<!-- Node7&#45;&gt;Node2 -->
<g id="edge6" class="edge"><title>Node7&#45;&gt;Node2</title>
<path fill="none" stroke="#9a32cd" stroke-dasharray="5,2" d="M207.853,-1396.63C244.903,-1392.86 307.444,-1384.13 358,-1365.22 386.708,-1354.48 416.79,-1334.7 433.44,-1322.87"/>
<polygon fill="#9a32cd" stroke="#9a32cd" points="207.283,-1393.17 197.662,-1397.61 207.95,-1400.14 207.283,-1393.17"/>
<text text-anchor="middle" x="309" y="-1392.22" font-family="Helvetica,sans-Serif" font-size="10.00"> p_frameRate</text>
</g>
<!-- Node8 -->
<g id="node8" class="node"><title>Node8</title>
<polygon fill="white" stroke="#bfbfbf" points="141,-1262.72 141,-1281.72 209,-1281.72 209,-1262.72 141,-1262.72"/>
<text text-anchor="middle" x="175" y="-1269.72" font-family="Helvetica,sans-Serif" font-size="10.00">QByteArray</text>
</g>
<!-- Node8&#45;&gt;Node1 -->
<g id="edge21" class="edge"><title>Node8&#45;&gt;Node1</title>
<path fill="none" stroke="#9a32cd" stroke-dasharray="5,2" d="M219.48,-1272.25C300.059,-1271.61 468.948,-1266.78 519,-1238.22 617.596,-1181.96 629.212,-1138.16 670,-1032.22 702.738,-947.192 714.256,-647.585 716.193,-589.879"/>
<polygon fill="#9a32cd" stroke="#9a32cd" points="219.157,-1268.76 209.179,-1272.32 219.2,-1275.76 219.157,-1268.76"/>
<text text-anchor="middle" x="447.5" y="-1269.22" font-family="Helvetica,sans-Serif" font-size="10.00"> p_Buf_CurrentOutputBuffer</text>
</g>
<!-- Node8&#45;&gt;Node2 -->
<g id="edge7" class="edge"><title>Node8&#45;&gt;Node2</title>
<path fill="none" stroke="#9a32cd" stroke-dasharray="5,2" d="M219.133,-1278.76C273.194,-1286.95 364.667,-1300.82 413.484,-1308.22"/>
<polygon fill="#9a32cd" stroke="#9a32cd" points="219.58,-1275.29 209.169,-1277.25 218.531,-1282.21 219.58,-1275.29"/>
<text text-anchor="middle" x="309" y="-1302.22" font-family="Helvetica,sans-Serif" font-size="10.00"> p_tmpBufferYUV</text>
</g>
<!-- Node9 -->
<g id="node9" class="node"><title>Node9</title>
<polygon fill="white" stroke="#bfbfbf" points="128,-1351.72 128,-1370.72 222,-1370.72 222,-1351.72 128,-1351.72"/>
<text text-anchor="middle" x="175" y="-1358.72" font-family="Helvetica,sans-Serif" font-size="10.00">InterpolationMode</text>
</g>
<!-- Node9&#45;&gt;Node2 -->
<g id="edge8" class="edge"><title>Node9&#45;&gt;Node2</title>
<path fill="none" stroke="#9a32cd" stroke-dasharray="5,2" d="M232.541,-1354.65C268.597,-1350.09 316.23,-1343.37 358,-1335.22 376.491,-1331.61 396.915,-1326.6 413.478,-1322.28"/>
<polygon fill="#9a32cd" stroke="#9a32cd" points="231.709,-1351.23 222.219,-1355.94 232.575,-1358.17 231.709,-1351.23"/>
<text text-anchor="middle" x="309" y="-1353.22" font-family="Helvetica,sans-Serif" font-size="10.00"> p_interpolationMode</text>
</g>
<!-- Node10 -->
<g id="node10" class="node"><title>Node10</title>
<polygon fill="white" stroke="#bfbfbf" points="160.5,-1158.72 160.5,-1177.72 189.5,-1177.72 189.5,-1158.72 160.5,-1158.72"/>
<text text-anchor="middle" x="175" y="-1165.72" font-family="Helvetica,sans-Serif" font-size="10.00">int</text>
</g>
<!-- Node10&#45;&gt;Node1 -->
<g id="edge26" class="edge"><title>Node10&#45;&gt;Node1</title>
<path fill="none" stroke="#9a32cd" stroke-dasharray="5,2" d="M199.668,-1174.38C237.934,-1182.78 313.577,-1192.75 358,-1154.22 385.86,-1130.06 350.416,-1099.78 376,-1073.22 469.705,-975.937 581.649,-1098.39 670,-996.221 697.51,-964.407 713.291,-649.947 716.06,-590.049"/>
<polygon fill="#9a32cd" stroke="#9a32cd" points="200.459,-1170.97 189.923,-1172.09 198.859,-1177.78 200.459,-1170.97"/>
<text text-anchor="start" x="394.5" y="-1230.22" font-family="Helvetica,sans-Serif" font-size="10.00"> de265_internals_get</text>
<text text-anchor="middle" x="447.5" y="-1219.22" font-family="Helvetica,sans-Serif" font-size="10.00">_CB_Info_Layout</text>
<text text-anchor="middle" x="447.5" y="-1208.22" font-family="Helvetica,sans-Serif" font-size="10.00">de265_get_image_plane</text>
<text text-anchor="start" x="394.5" y="-1197.22" font-family="Helvetica,sans-Serif" font-size="10.00">de265_set_parameter</text>
<text text-anchor="middle" x="447.5" y="-1186.22" font-family="Helvetica,sans-Serif" font-size="10.00">_bool</text>
<text text-anchor="middle" x="447.5" y="-1175.22" font-family="Helvetica,sans-Serif" font-size="10.00">de265_push_data</text>
<text text-anchor="middle" x="447.5" y="-1164.22" font-family="Helvetica,sans-Serif" font-size="10.00">de265_set_limit_TID</text>
<text text-anchor="start" x="394.5" y="-1153.22" font-family="Helvetica,sans-Serif" font-size="10.00">de265_internals_get</text>
<text text-anchor="middle" x="447.5" y="-1142.22" font-family="Helvetica,sans-Serif" font-size="10.00">_CTB_Info_Layout</text>
<text text-anchor="middle" x="447.5" y="-1131.22" font-family="Helvetica,sans-Serif" font-size="10.00">p_vectorTable</text>
<text text-anchor="middle" x="447.5" y="-1120.22" font-family="Helvetica,sans-Serif" font-size="10.00">p_lastFrameDecoded</text>
<text text-anchor="middle" x="447.5" y="-1109.22" font-family="Helvetica,sans-Serif" font-size="10.00">de265_get_image_width</text>
<text text-anchor="start" x="394.5" y="-1098.22" font-family="Helvetica,sans-Serif" font-size="10.00">de265_internals_get</text>
<text text-anchor="middle" x="447.5" y="-1087.22" font-family="Helvetica,sans-Serif" font-size="10.00">_TUInfo_Info_layout</text>
<text text-anchor="middle" x="447.5" y="-1076.22" font-family="Helvetica,sans-Serif" font-size="10.00">...</text>
</g>
<!-- Node10&#45;&gt;Node2 -->
<g id="edge9" class="edge"><title>Node10&#45;&gt;Node2</title>
<path fill="none" stroke="#9a32cd" stroke-dasharray="5,2" d="M199.313,-1177.96C234.856,-1193.25 304.141,-1224.83 358,-1260.22 366.703,-1265.94 367.373,-1269.39 376,-1275.22 392.126,-1286.13 411.699,-1296.47 426.125,-1303.6"/>
<polygon fill="#9a32cd" stroke="#9a32cd" points="200.394,-1174.62 189.822,-1173.92 197.652,-1181.06 200.394,-1174.62"/>
<text text-anchor="middle" x="309" y="-1274.22" font-family="Helvetica,sans-Serif" font-size="10.00"> p_width</text>
<text text-anchor="middle" x="309" y="-1263.22" font-family="Helvetica,sans-Serif" font-size="10.00">p_height</text>
</g>
<!-- Node10&#45;&gt;Node12 -->
<g id="edge16" class="edge"><title>Node10&#45;&gt;Node12</title>
<path fill="none" stroke="#9a32cd" stroke-dasharray="5,2" d="M198.94,-1158.05C246.534,-1136.88 352.097,-1089.51 358,-1083.22 373.02,-1067.21 360.132,-1052.39 376,-1037.22 384.317,-1029.27 395.372,-1023.95 406.256,-1020.38"/>
<polygon fill="#9a32cd" stroke="#9a32cd" points="197.439,-1154.89 189.721,-1162.15 200.281,-1161.29 197.439,-1154.89"/>
<text text-anchor="middle" x="309" y="-1143.22" font-family="Helvetica,sans-Serif" font-size="10.00"> p_internalScaleFactor</text>
<text text-anchor="middle" x="309" y="-1132.22" font-family="Helvetica,sans-Serif" font-size="10.00">p_lastFrameIdx</text>
</g>
<!-- Node11 -->
<g id="node11" class="node"><title>Node11</title>
<polygon fill="white" stroke="#bfbfbf" points="115.5,-1313.72 115.5,-1332.72 234.5,-1332.72 234.5,-1313.72 115.5,-1313.72"/>
<text text-anchor="middle" x="175" y="-1320.72" font-family="Helvetica,sans-Serif" font-size="10.00">YUVCPixelFormatType</text>
</g>
<!-- Node11&#45;&gt;Node2 -->
<g id="edge10" class="edge"><title>Node11&#45;&gt;Node2</title>
<path fill="none" stroke="#9a32cd" stroke-dasharray="5,2" d="M244.89,-1320.67C298.9,-1318.68 371.679,-1315.99 413.399,-1314.45"/>
<polygon fill="#9a32cd" stroke="#9a32cd" points="244.558,-1317.18 234.694,-1321.05 244.817,-1324.18 244.558,-1317.18"/>
<text text-anchor="middle" x="309" y="-1323.22" font-family="Helvetica,sans-Serif" font-size="10.00"> p_srcPixelFormat</text>
</g>
<!-- Node12&#45;&gt;Node1 -->
<g id="edge11" class="edge"><title>Node12&#45;&gt;Node1</title>
<path fill="none" stroke="midnightblue" d="M498.761,-1014.36C549.95,-1012.58 627.641,-1001.18 670,-952.221 718.758,-895.862 717.494,-642.664 716.684,-589.882"/>
<polygon fill="midnightblue" stroke="midnightblue" points="498.493,-1010.87 488.578,-1014.61 498.658,-1017.87 498.493,-1010.87"/>
</g>
<!-- Node13 -->
<g id="node13" class="node"><title>Node13</title>
<polygon fill="white" stroke="#bfbfbf" points="109.5,-991.221 109.5,-1021.22 240.5,-1021.22 240.5,-991.221 109.5,-991.221"/>
<text text-anchor="start" x="117.5" y="-1009.22" font-family="Helvetica,sans-Serif" font-size="10.00">QHash&lt; int, QHash&lt;</text>
<text text-anchor="middle" x="175" y="-998.221" font-family="Helvetica,sans-Serif" font-size="10.00"> int, StatisticsItemList &gt; &gt;</text>
</g>
<!-- Node13&#45;&gt;Node12 -->
<g id="edge13" class="edge"><title>Node13&#45;&gt;Node12</title>
<path fill="none" stroke="#9a32cd" stroke-dasharray="5,2" d="M250.957,-1008.16C301.162,-1009.46 365.303,-1011.12 406.155,-1012.18"/>
<polygon fill="#9a32cd" stroke="#9a32cd" points="250.879,-1004.66 240.791,-1007.9 250.698,-1011.66 250.879,-1004.66"/>
<text text-anchor="middle" x="309" y="-1014.22" font-family="Helvetica,sans-Serif" font-size="10.00"> p_statsCache</text>
</g>
<!-- Node14 -->
<g id="node14" class="node"><title>Node14</title>
<polygon fill="white" stroke="#bfbfbf" points="150,-940.721 150,-959.721 200,-959.721 200,-940.721 150,-940.721"/>
<text text-anchor="middle" x="175" y="-947.721" font-family="Helvetica,sans-Serif" font-size="10.00">QString</text>
</g>
<!-- Node14&#45;&gt;Node1 -->
<g id="edge20" class="edge"><title>Node14&#45;&gt;Node1</title>
<path fill="none" stroke="#9a32cd" stroke-dasharray="5,2" d="M210.351,-949.534C319.638,-947.192 653.125,-938.795 670,-923.221 720.343,-876.76 717.897,-640.986 716.76,-589.966"/>
<polygon fill="#9a32cd" stroke="#9a32cd" points="210.123,-946.038 200.199,-949.748 210.27,-953.036 210.123,-946.038"/>
<text text-anchor="middle" x="447.5" y="-981.221" font-family="Helvetica,sans-Serif" font-size="10.00"> p_StatusText</text>
<text text-anchor="middle" x="447.5" y="-970.221" font-family="Helvetica,sans-Serif" font-size="10.00">p_path</text>
<text text-anchor="middle" x="447.5" y="-959.221" font-family="Helvetica,sans-Serif" font-size="10.00">p_modifiedtime</text>
<text text-anchor="middle" x="447.5" y="-948.221" font-family="Helvetica,sans-Serif" font-size="10.00">p_createdtime</text>
</g>
<!-- Node14&#45;&gt;Node12 -->
<g id="edge14" class="edge"><title>Node14&#45;&gt;Node12</title>
<path fill="none" stroke="#9a32cd" stroke-dasharray="5,2" d="M210.29,-954.896C247.122,-960.275 307.208,-970.084 358,-983.221 379.832,-988.868 404.047,-997.227 421.621,-1003.69"/>
<polygon fill="#9a32cd" stroke="#9a32cd" points="210.489,-951.389 200.094,-953.434 209.495,-958.318 210.489,-951.389"/>
<text text-anchor="middle" x="309" y="-997.221" font-family="Helvetica,sans-Serif" font-size="10.00"> p_status</text>
<text text-anchor="middle" x="309" y="-986.221" font-family="Helvetica,sans-Serif" font-size="10.00">p_info</text>
</g>
<!-- Node15 -->
<g id="node15" class="node"><title>Node15</title>
<polygon fill="white" stroke="#bfbfbf" points="108,-1040.72 108,-1059.72 242,-1059.72 242,-1040.72 108,-1040.72"/>
<text text-anchor="middle" x="175" y="-1047.72" font-family="Helvetica,sans-Serif" font-size="10.00">QVector&lt; StatisticsType &gt;</text>
</g>
<!-- Node15&#45;&gt;Node12 -->
<g id="edge15" class="edge"><title>Node15&#45;&gt;Node12</title>
<path fill="none" stroke="#9a32cd" stroke-dasharray="5,2" d="M252.306,-1039.78C302.315,-1032.94 365.691,-1024.27 406.177,-1018.74"/>
<polygon fill="#9a32cd" stroke="#9a32cd" points="251.605,-1036.35 242.172,-1041.17 252.554,-1043.28 251.605,-1036.35"/>
<text text-anchor="middle" x="309" y="-1042.22" font-family="Helvetica,sans-Serif" font-size="10.00"> p_statsTypeList</text>
</g>
<!-- Node16 -->
<g id="node16" class="node"><title>Node16</title>
<polygon fill="white" stroke="#bfbfbf" points="424,-882.721 424,-901.721 471,-901.721 471,-882.721 424,-882.721"/>
<text text-anchor="middle" x="447.5" y="-889.721" font-family="Helvetica,sans-Serif" font-size="10.00">QFile *</text>
</g>
<!-- Node16&#45;&gt;Node1 -->
<g id="edge17" class="edge"><title>Node16&#45;&gt;Node1</title>
<path fill="none" stroke="#9a32cd" stroke-dasharray="5,2" d="M481.121,-899.979C529.235,-909.297 619.022,-918.229 670,-870.221 711.854,-830.806 716.053,-635.815 716.459,-589.911"/>
<polygon fill="#9a32cd" stroke="#9a32cd" points="481.735,-896.532 471.234,-897.944 480.323,-903.388 481.735,-896.532"/>
<text text-anchor="middle" x="603.5" y="-911.221" font-family="Helvetica,sans-Serif" font-size="10.00"> p_srcFile</text>
</g>
<!-- Node17 -->
<g id="node17" class="node"><title>Node17</title>
<polygon fill="white" stroke="#bfbfbf" points="403.5,-844.721 403.5,-863.721 491.5,-863.721 491.5,-844.721 403.5,-844.721"/>
<text text-anchor="middle" x="447.5" y="-851.721" font-family="Helvetica,sans-Serif" font-size="10.00">QFuture&lt; void &gt;</text>
</g>
<!-- Node17&#45;&gt;Node1 -->
<g id="edge18" class="edge"><title>Node17&#45;&gt;Node1</title>
<path fill="none" stroke="#9a32cd" stroke-dasharray="5,2" d="M501.615,-856.014C559.254,-856.772 646.255,-854.063 670,-832.221 706.591,-798.564 714.733,-631.599 716.211,-589.747"/>
<polygon fill="#9a32cd" stroke="#9a32cd" points="501.629,-852.514 491.571,-855.844 501.51,-859.513 501.629,-852.514"/>
<text text-anchor="middle" x="603.5" y="-859.221" font-family="Helvetica,sans-Serif" font-size="10.00"> p_backgroundDecodingFuture</text>
</g>
<!-- Node18 -->
<g id="node18" class="node"><title>Node18</title>
<polygon fill="white" stroke="#bfbfbf" points="389.5,-806.721 389.5,-825.721 505.5,-825.721 505.5,-806.721 389.5,-806.721"/>
<text text-anchor="middle" x="447.5" y="-813.721" font-family="Helvetica,sans-Serif" font-size="10.00">QQueue&lt; queueItem &gt;</text>
</g>
<!-- Node18&#45;&gt;Node1 -->
<g id="edge19" class="edge"><title>Node18&#45;&gt;Node1</title>
<path fill="none" stroke="#9a32cd" stroke-dasharray="5,2" d="M516,-817.955C572.682,-817.93 647.865,-813.948 670,-794.221 701.294,-766.334 713.177,-627.723 715.871,-589.817"/>
<polygon fill="#9a32cd" stroke="#9a32cd" points="515.661,-814.454 505.648,-817.917 515.635,-821.454 515.661,-814.454"/>
<text text-anchor="middle" x="603.5" y="-821.221" font-family="Helvetica,sans-Serif" font-size="10.00"> p_Buf_DecodedPictures</text>
</g>
<!-- Node19 -->
<g id="node19" class="node"><title>Node19</title>
<polygon fill="white" stroke="#bfbfbf" points="393.5,-757.221 393.5,-787.221 501.5,-787.221 501.5,-757.221 393.5,-757.221"/>
<text text-anchor="start" x="401.5" y="-775.221" font-family="Helvetica,sans-Serif" font-size="10.00">const char *(*)(de265</text>
<text text-anchor="middle" x="447.5" y="-764.221" font-family="Helvetica,sans-Serif" font-size="10.00">_error)</text>
</g>
<!-- Node19&#45;&gt;Node1 -->
<g id="edge22" class="edge"><title>Node19&#45;&gt;Node1</title>
<path fill="none" stroke="#9a32cd" stroke-dasharray="5,2" d="M511.743,-780.509C560.628,-783.259 627,-778.507 670,-741.221 716.16,-701.196 717.879,-618.498 717.007,-590.071"/>
<polygon fill="#9a32cd" stroke="#9a32cd" points="511.807,-777.005 501.592,-779.817 511.331,-783.989 511.807,-777.005"/>
<text text-anchor="middle" x="603.5" y="-784.221" font-family="Helvetica,sans-Serif" font-size="10.00"> de265_get_error_text</text>
</g>
<!-- Node20 -->
<g id="node20" class="node"><title>Node20</title>
<polygon fill="white" stroke="#bfbfbf" points="397,-697.721 397,-738.721 498,-738.721 498,-697.721 397,-697.721"/>
<text text-anchor="start" x="405" y="-726.721" font-family="Helvetica,sans-Serif" font-size="10.00">void(*)(const de265</text>
<text text-anchor="start" x="405" y="-715.721" font-family="Helvetica,sans-Serif" font-size="10.00">_image *, uint8_t *,</text>
<text text-anchor="middle" x="447.5" y="-704.721" font-family="Helvetica,sans-Serif" font-size="10.00"> uint8_t *)</text>
</g>
<!-- Node20&#45;&gt;Node1 -->
<g id="edge23" class="edge"><title>Node20&#45;&gt;Node1</title>
<path fill="none" stroke="#9a32cd" stroke-dasharray="5,2" d="M508.64,-717.977C556.76,-714.876 623.63,-703.718 670,-668.221 696.481,-647.95 709.463,-608.227 714.249,-589.904"/>
<polygon fill="#9a32cd" stroke="#9a32cd" points="508.161,-714.498 498.366,-718.536 508.541,-721.488 508.161,-714.498"/>
<text text-anchor="start" x="558" y="-729.221" font-family="Helvetica,sans-Serif" font-size="10.00"> de265_internals_get</text>
<text text-anchor="middle" x="603.5" y="-718.221" font-family="Helvetica,sans-Serif" font-size="10.00">_intraDir_info</text>
</g>
<!-- Node21 -->
<g id="node21" class="node"><title>Node21</title>
<polygon fill="white" stroke="#bfbfbf" points="397,-615.721 397,-678.721 498,-678.721 498,-615.721 397,-615.721"/>
<text text-anchor="start" x="405" y="-666.721" font-family="Helvetica,sans-Serif" font-size="10.00">void(*)(const de265</text>
<text text-anchor="start" x="405" y="-655.721" font-family="Helvetica,sans-Serif" font-size="10.00">_image *, int16_t *,</text>
<text text-anchor="start" x="405" y="-644.721" font-family="Helvetica,sans-Serif" font-size="10.00"> int16_t *, int16_t *,</text>
<text text-anchor="start" x="405" y="-633.721" font-family="Helvetica,sans-Serif" font-size="10.00"> int16_t *, int16_t *,</text>
<text text-anchor="middle" x="447.5" y="-622.721" font-family="Helvetica,sans-Serif" font-size="10.00"> int16_t *)</text>
</g>
<!-- Node21&#45;&gt;Node1 -->
<g id="edge24" class="edge"><title>Node21&#45;&gt;Node1</title>
<path fill="none" stroke="#9a32cd" stroke-dasharray="5,2" d="M508.156,-644.959C553.856,-641.545 617.727,-633.084 670,-612.221 683.288,-606.918 696.544,-597.256 705.482,-589.931"/>
<polygon fill="#9a32cd" stroke="#9a32cd" points="507.848,-641.471 498.112,-645.65 508.328,-648.455 507.848,-641.471"/>
<text text-anchor="start" x="558" y="-656.221" font-family="Helvetica,sans-Serif" font-size="10.00"> de265_internals_get</text>
<text text-anchor="middle" x="603.5" y="-645.221" font-family="Helvetica,sans-Serif" font-size="10.00">_PB_info</text>
</g>
<!-- Node22 -->
<g id="node22" class="node"><title>Node22</title>
<polygon fill="white" stroke="#bfbfbf" points="422.5,-577.721 422.5,-596.721 472.5,-596.721 472.5,-577.721 422.5,-577.721"/>
<text text-anchor="middle" x="447.5" y="-584.721" font-family="Helvetica,sans-Serif" font-size="10.00">void(*)()</text>
</g>
<!-- Node22&#45;&gt;Node1 -->
<g id="edge25" class="edge"><title>Node22&#45;&gt;Node1</title>
<path fill="none" stroke="#9a32cd" stroke-dasharray="5,2" d="M482.62,-591.118C526.259,-595.387 604.079,-600.59 670,-592.221 675.79,-591.486 681.89,-590.256 687.698,-588.856"/>
<polygon fill="#9a32cd" stroke="#9a32cd" points="482.852,-587.624 472.548,-590.09 482.141,-594.588 482.852,-587.624"/>
<text text-anchor="middle" x="603.5" y="-600.221" font-family="Helvetica,sans-Serif" font-size="10.00"> de265_disable_logging</text>
</g>
<!-- Node23 -->
<g id="node23" class="node"><title>Node23</title>
<polygon fill="white" stroke="#bfbfbf" points="387.5,-528.221 387.5,-558.221 507.5,-558.221 507.5,-528.221 387.5,-528.221"/>
<text text-anchor="start" x="395.5" y="-546.221" font-family="Helvetica,sans-Serif" font-size="10.00">de265_decoder_context</text>
<text text-anchor="middle" x="447.5" y="-535.221" font-family="Helvetica,sans-Serif" font-size="10.00"> *(*)()</text>
</g>
<!-- Node23&#45;&gt;Node1 -->
<g id="edge27" class="edge"><title>Node23&#45;&gt;Node1</title>
<path fill="none" stroke="#9a32cd" stroke-dasharray="5,2" d="M518.005,-555.312C524.421,-556.335 530.827,-557.32 537,-558.221 590.125,-565.975 652.368,-573.186 687.845,-577.12"/>
<polygon fill="#9a32cd" stroke="#9a32cd" points="518.378,-551.827 507.947,-553.683 517.258,-558.737 518.378,-551.827"/>
<text text-anchor="middle" x="603.5" y="-578.221" font-family="Helvetica,sans-Serif" font-size="10.00"> de265_new_decoder</text>
</g>
<!-- Node24 -->
<g id="node24" class="node"><title>Node24</title>
<polygon fill="white" stroke="#bfbfbf" points="430,-489.721 430,-508.721 465,-508.721 465,-489.721 430,-489.721"/>
<text text-anchor="middle" x="447.5" y="-496.721" font-family="Helvetica,sans-Serif" font-size="10.00">bool</text>
</g>
<!-- Node24&#45;&gt;Node1 -->
<g id="edge28" class="edge"><title>Node24&#45;&gt;Node1</title>
<path fill="none" stroke="#9a32cd" stroke-dasharray="5,2" d="M475.321,-497.604C526.858,-494.969 637.503,-491.743 670,-510.221 693.717,-523.707 707.596,-554.842 713.356,-570.646"/>
<polygon fill="#9a32cd" stroke="#9a32cd" points="475.066,-494.112 465.27,-498.149 475.445,-501.102 475.066,-494.112"/>
<text text-anchor="middle" x="603.5" y="-546.221" font-family="Helvetica,sans-Serif" font-size="10.00"> p_RetrieveStatistics</text>
<text text-anchor="middle" x="603.5" y="-535.221" font-family="Helvetica,sans-Serif" font-size="10.00">p_internalsSupported</text>
<text text-anchor="middle" x="603.5" y="-524.221" font-family="Helvetica,sans-Serif" font-size="10.00">p_cancelBackgroundDecoder</text>
<text text-anchor="middle" x="603.5" y="-513.221" font-family="Helvetica,sans-Serif" font-size="10.00">p_internalError</text>
</g>
<!-- Node25 -->
<g id="node25" class="node"><title>Node25</title>
<polygon fill="white" stroke="#bfbfbf" points="395,-440.221 395,-470.221 500,-470.221 500,-440.221 395,-440.221"/>
<text text-anchor="start" x="403" y="-458.221" font-family="Helvetica,sans-Serif" font-size="10.00">void(*)(const de265</text>
<text text-anchor="middle" x="447.5" y="-447.221" font-family="Helvetica,sans-Serif" font-size="10.00">_image *, uint16_t *)</text>
</g>
<!-- Node25&#45;&gt;Node1 -->
<g id="edge29" class="edge"><title>Node25&#45;&gt;Node1</title>
<path fill="none" stroke="#9a32cd" stroke-dasharray="5,2" d="M499.547,-437.395C547.972,-423.946 620.499,-413.177 670,-448.221 710.851,-477.142 716.067,-544.991 716.546,-570.392"/>
<polygon fill="#9a32cd" stroke="#9a32cd" points="498.523,-434.048 489.897,-440.199 500.476,-440.77 498.523,-434.048"/>
<text text-anchor="start" x="558" y="-484.221" font-family="Helvetica,sans-Serif" font-size="10.00"> de265_internals_get</text>
<text text-anchor="middle" x="603.5" y="-473.221" font-family="Helvetica,sans-Serif" font-size="10.00">_CB_info</text>
<text text-anchor="start" x="558" y="-462.221" font-family="Helvetica,sans-Serif" font-size="10.00">de265_internals_get</text>
<text text-anchor="middle" x="603.5" y="-451.221" font-family="Helvetica,sans-Serif" font-size="10.00">_CTB_sliceIdx</text>
</g>
<!-- Node26 -->
<g id="node26" class="node"><title>Node26</title>
<polygon fill="white" stroke="#bfbfbf" points="394,-391.221 394,-421.221 501,-421.221 501,-391.221 394,-391.221"/>
<text text-anchor="start" x="402" y="-409.221" font-family="Helvetica,sans-Serif" font-size="10.00">de265_error(*)(de265</text>
<text text-anchor="middle" x="447.5" y="-398.221" font-family="Helvetica,sans-Serif" font-size="10.00">_decoder_context *)</text>
</g>
<!-- Node26&#45;&gt;Node1 -->
<g id="edge30" class="edge"><title>Node26&#45;&gt;Node1</title>
<path fill="none" stroke="#9a32cd" stroke-dasharray="5,2" d="M511.219,-395.633C567.929,-387.565 646.088,-380.676 670,-399.221 697.816,-420.795 711.887,-535.847 715.528,-570.401"/>
<polygon fill="#9a32cd" stroke="#9a32cd" points="510.639,-392.181 501.252,-397.094 511.654,-399.107 510.639,-392.181"/>
<text text-anchor="middle" x="603.5" y="-413.221" font-family="Helvetica,sans-Serif" font-size="10.00"> de265_flush_data</text>
<text text-anchor="middle" x="603.5" y="-402.221" font-family="Helvetica,sans-Serif" font-size="10.00">de265_free_decoder</text>
</g>
<!-- Node27 -->
<g id="node27" class="node"><title>Node27</title>
<polygon fill="white" stroke="#bfbfbf" points="397,-342.221 397,-372.221 498,-372.221 498,-342.221 397,-342.221"/>
<text text-anchor="start" x="405" y="-360.221" font-family="Helvetica,sans-Serif" font-size="10.00">void(*)(const de265</text>
<text text-anchor="middle" x="447.5" y="-349.221" font-family="Helvetica,sans-Serif" font-size="10.00">_image *, uint8_t *)</text>
</g>
<!-- Node27&#45;&gt;Node1 -->
<g id="edge31" class="edge"><title>Node27&#45;&gt;Node1</title>
<path fill="none" stroke="#9a32cd" stroke-dasharray="5,2" d="M507.969,-340.188C557.011,-330.041 625.514,-325.386 670,-362.221 702.936,-389.494 713.66,-532.144 715.977,-570.64"/>
<polygon fill="#9a32cd" stroke="#9a32cd" points="507.14,-336.787 498.124,-342.352 508.643,-343.623 507.14,-336.787"/>
<text text-anchor="start" x="558" y="-376.221" font-family="Helvetica,sans-Serif" font-size="10.00"> de265_internals_get</text>
<text text-anchor="middle" x="603.5" y="-365.221" font-family="Helvetica,sans-Serif" font-size="10.00">_TUInfo_info</text>
</g>
<!-- Node28 -->
<g id="node28" class="node"><title>Node28</title>
<polygon fill="white" stroke="#bfbfbf" points="421,-303.721 421,-322.721 474,-322.721 474,-303.721 421,-303.721"/>
<text text-anchor="middle" x="447.5" y="-310.721" font-family="Helvetica,sans-Serif" font-size="10.00">QLibrary</text>
</g>
<!-- Node28&#45;&gt;Node1 -->
<g id="edge32" class="edge"><title>Node28&#45;&gt;Node1</title>
<path fill="none" stroke="#9a32cd" stroke-dasharray="5,2" d="M484.288,-308.778C539.789,-302.73 643.049,-295.11 670,-318.221 709.277,-351.903 715.421,-527.236 716.343,-570.542"/>
<polygon fill="#9a32cd" stroke="#9a32cd" points="483.729,-305.319 474.185,-309.919 484.515,-312.275 483.729,-305.319"/>
<text text-anchor="middle" x="603.5" y="-321.221" font-family="Helvetica,sans-Serif" font-size="10.00"> p_decLib</text>
</g>
<!-- Node29 -->
<g id="node29" class="node"><title>Node29</title>
<polygon fill="white" stroke="#bfbfbf" points="426,-265.721 426,-284.721 469,-284.721 469,-265.721 426,-265.721"/>
<text text-anchor="middle" x="447.5" y="-272.721" font-family="Helvetica,sans-Serif" font-size="10.00">qint64</text>
</g>
<!-- Node29&#45;&gt;Node1 -->
<g id="edge33" class="edge"><title>Node29&#45;&gt;Node1</title>
<path fill="none" stroke="#9a32cd" stroke-dasharray="5,2" d="M479.037,-266.366C526.401,-254.689 617.566,-240.752 670,-288.221 712.907,-327.066 716.304,-524.044 716.504,-570.429"/>
<polygon fill="#9a32cd" stroke="#9a32cd" points="477.879,-263.05 469.078,-268.949 479.637,-269.826 477.879,-263.05"/>
<text text-anchor="middle" x="603.5" y="-291.221" font-family="Helvetica,sans-Serif" font-size="10.00"> p_fileSize</text>
</g>
<!-- Node30 -->
<g id="node30" class="node"><title>Node30</title>
<polygon fill="white" stroke="#bfbfbf" points="422,-227.721 422,-246.721 473,-246.721 473,-227.721 422,-227.721"/>
<text text-anchor="middle" x="447.5" y="-234.721" font-family="Helvetica,sans-Serif" font-size="10.00">QMutex</text>
</g>
<!-- Node30&#45;&gt;Node1 -->
<g id="edge34" class="edge"><title>Node30&#45;&gt;Node1</title>
<path fill="none" stroke="#9a32cd" stroke-dasharray="5,2" d="M483.107,-232.458C538.408,-225.68 643.209,-216.523 670,-240.221 720.872,-285.22 718.013,-519.757 716.779,-570.524"/>
<polygon fill="#9a32cd" stroke="#9a32cd" points="482.547,-229.001 473.066,-233.729 483.426,-235.945 482.547,-229.001"/>
<text text-anchor="middle" x="603.5" y="-243.221" font-family="Helvetica,sans-Serif" font-size="10.00"> p_mutex</text>
</g>
<!-- Node31 -->
<g id="node31" class="node"><title>Node31</title>
<polygon fill="white" stroke="#bfbfbf" points="413.5,-189.721 413.5,-208.721 481.5,-208.721 481.5,-189.721 413.5,-189.721"/>
<text text-anchor="middle" x="447.5" y="-196.721" font-family="Helvetica,sans-Serif" font-size="10.00">de265_error</text>
</g>
<!-- Node31&#45;&gt;Node1 -->
<g id="edge35" class="edge"><title>Node31&#45;&gt;Node1</title>
<path fill="none" stroke="#9a32cd" stroke-dasharray="5,2" d="M489.397,-187.29C538.914,-175.609 621.665,-165.4 670,-210.221 697.356,-235.589 713.147,-515.235 716.022,-570.694"/>
<polygon fill="#9a32cd" stroke="#9a32cd" points="488.52,-183.901 479.658,-189.708 490.207,-190.695 488.52,-183.901"/>
<text text-anchor="middle" x="603.5" y="-213.221" font-family="Helvetica,sans-Serif" font-size="10.00"> p_decError</text>
</g>
<!-- Node32 -->
<g id="node32" class="node"><title>Node32</title>
<polygon fill="white" stroke="#bfbfbf" points="389.5,-151.721 389.5,-170.721 505.5,-170.721 505.5,-151.721 389.5,-151.721"/>
<text text-anchor="middle" x="447.5" y="-158.721" font-family="Helvetica,sans-Serif" font-size="10.00">QList&lt; QByteArray * &gt;</text>
</g>
<!-- Node32&#45;&gt;Node1 -->
<g id="edge36" class="edge"><title>Node32&#45;&gt;Node1</title>
<path fill="none" stroke="#9a32cd" stroke-dasharray="5,2" d="M515.76,-152.444C572.558,-146.675 648.054,-143.408 670,-163.221 701.36,-191.534 714.07,-511.008 716.177,-570.66"/>
<polygon fill="#9a32cd" stroke="#9a32cd" points="515.322,-148.971 505.747,-153.506 516.06,-155.932 515.322,-148.971"/>
<text text-anchor="middle" x="603.5" y="-166.221" font-family="Helvetica,sans-Serif" font-size="10.00"> p_Buf_EmptyBuffers</text>
</g>
<!-- Node33 -->
<g id="node33" class="node"><title>Node33</title>
<polygon fill="white" stroke="#bfbfbf" points="389,-102.221 389,-132.221 506,-132.221 506,-102.221 389,-102.221"/>
<text text-anchor="start" x="397" y="-120.221" font-family="Helvetica,sans-Serif" font-size="10.00">de265_chroma(*)(const</text>
<text text-anchor="middle" x="447.5" y="-109.221" font-family="Helvetica,sans-Serif" font-size="10.00"> de265_image *)</text>
</g>
<!-- Node33&#45;&gt;Node1 -->
<g id="edge37" class="edge"><title>Node33&#45;&gt;Node1</title>
<path fill="none" stroke="#9a32cd" stroke-dasharray="5,2" d="M516.102,-101.486C565.383,-94.3557 630.237,-94.693 670,-133.221 702.57,-164.78 714.334,-507.716 716.22,-570.411"/>
<polygon fill="#9a32cd" stroke="#9a32cd" points="515.484,-98.0402 506.151,-103.056 516.575,-104.955 515.484,-98.0402"/>
<text text-anchor="middle" x="603.5" y="-136.221" font-family="Helvetica,sans-Serif" font-size="10.00"> de265_get_chroma_format</text>
</g>
<!-- Node34 -->
<g id="node34" class="node"><title>Node34</title>
<polygon fill="white" stroke="#bfbfbf" points="376,-53.2214 376,-83.2214 519,-83.2214 519,-53.2214 376,-53.2214"/>
<text text-anchor="start" x="384" y="-71.2214" font-family="Helvetica,sans-Serif" font-size="10.00">const de265_image *</text>
<text text-anchor="middle" x="447.5" y="-60.2214" font-family="Helvetica,sans-Serif" font-size="10.00">(*)(de265_decoder_context *)</text>
</g>
<!-- Node34&#45;&gt;Node1 -->
<g id="edge38" class="edge"><title>Node34&#45;&gt;Node1</title>
<path fill="none" stroke="#9a32cd" stroke-dasharray="5,2" d="M518.597,-51.6593C567.6,-44.5893 631.008,-45.2178 670,-83.2214 706.305,-118.607 715.091,-504.552 716.333,-570.625"/>
<polygon fill="#9a32cd" stroke="#9a32cd" points="518.02,-48.2069 508.686,-53.2205 519.109,-55.1216 518.02,-48.2069"/>
<text text-anchor="middle" x="603.5" y="-86.2214" font-family="Helvetica,sans-Serif" font-size="10.00"> de265_get_next_picture</text>
</g>
<!-- Node35 -->
<g id="node35" class="node"><title>Node35</title>
<polygon fill="white" stroke="#bfbfbf" points="384,-14.7214 384,-33.7214 511,-33.7214 511,-14.7214 384,-14.7214"/>
<text text-anchor="middle" x="447.5" y="-21.7214" font-family="Helvetica,sans-Serif" font-size="10.00">de265_decoder_context *</text>
</g>
<!-- Node35&#45;&gt;Node1 -->
<g id="edge39" class="edge"><title>Node35&#45;&gt;Node1</title>
<path fill="none" stroke="#9a32cd" stroke-dasharray="5,2" d="M487.615,-12.0503C537.119,0.658934 621.739,12.952 670,-33.2214 710.458,-71.9302 715.822,-500.511 716.429,-570.564"/>
<polygon fill="#9a32cd" stroke="#9a32cd" points="486.653,-8.68461 477.907,-14.664 488.473,-15.4439 486.653,-8.68461"/>
<text text-anchor="middle" x="603.5" y="-36.2214" font-family="Helvetica,sans-Serif" font-size="10.00"> p_decoder</text>
</g>
</g>
</svg>
        <g id="navigator" transform="translate(0 0)" fill="#404254">
                <rect fill="#f2f5e9" fill-opacity="0.5" stroke="#606060" stroke-width=".5" x="0" y="0" width="60" height="60"/>
                <use id="zoomplus" xlink:href="#zoomPlus" x="17" y="9" onmousedown="handleZoom(evt,'in')"/>
                <use id="zoomminus" xlink:href="#zoomMin" x="42" y="9" onmousedown="handleZoom(evt,'out')"/>
                <use id="reset" xlink:href="#resetDef" x="30" y="36" onmousedown="handleReset()"/>
                <g id="arrowUp" xlink:href="#dirArrow" transform="translate(30 24)" onmousedown="handlePan(0,-1)">
                  <use xlink:href="#rim" fill="#404040">
                        <set attributeName="fill" to="#808080" begin="arrowUp.mouseover" end="arrowUp.mouseout"/>
                  </use>
                  <path fill="none" stroke="white" stroke-width="1.5" d="M0,-3.0v7 M-2.5,-0.5L0,-3.0L2.5,-0.5"/>
                </g>
                <g id="arrowRight" xlink:href="#dirArrow" transform="rotate(90) translate(36 -43)" onmousedown="handlePan(1,0)">
                  <use xlink:href="#rim" fill="#404040">
                        <set attributeName="fill" to="#808080" begin="arrowRight.mouseover" end="arrowRight.mouseout"/>
                  </use>
                  <path fill="none" stroke="white" stroke-width="1.5" d="M0,-3.0v7 M-2.5,-0.5L0,-3.0L2.5,-0.5"/>
                </g>
                <g id="arrowDown" xlink:href="#dirArrow" transform="rotate(180) translate(-30 -48)" onmousedown="handlePan(0,1)">
                  <use xlink:href="#rim" fill="#404040">
                        <set attributeName="fill" to="#808080" begin="arrowDown.mouseover" end="arrowDown.mouseout"/>
                  </use>
                  <path fill="none" stroke="white" stroke-width="1.5" d="M0,-3.0v7 M-2.5,-0.5L0,-3.0L2.5,-0.5"/>
                </g>
                <g id="arrowLeft" xlink:href="#dirArrow" transform="rotate(270) translate(-36 17)" onmousedown="handlePan(-1,0)">
                  <use xlink:href="#rim" fill="#404040">
                        <set attributeName="fill" to="#808080" begin="arrowLeft.mouseover" end="arrowLeft.mouseout"/>
                  </use>
                  <path fill="none" stroke="white" stroke-width="1.5" d="M0,-3.0v7 M-2.5,-0.5L0,-3.0L2.5,-0.5"/>
                </g>
        </g>
        <svg viewBox="0 0 15 15" width="100%" height="30px" preserveAspectRatio="xMaxYMin meet">
         <g id="arrow_out" transform="scale(0.3 0.3)">
          <a xlink:href="classde265File__coll__graph_org.svg" target="_base">
           <rect id="button" ry="5" rx="5" y="6" x="6" height="38" width="38"
                fill="#f2f5e9" fill-opacity="0.5" stroke="#606060" stroke-width="1.0"/>
           <path id="arrow"
             d="M 11.500037,31.436501 C 11.940474,20.09759 22.043105,11.32322 32.158766,21.979434 L 37.068811,17.246167 C 37.068811,17.246167 37.088388,32 37.088388,32 L 22.160133,31.978069 C 22.160133,31.978069 26.997745,27.140456 26.997745,27.140456 C 18.528582,18.264221 13.291696,25.230495 11.500037,31.436501 z"
             style="fill:#404040;"/>
          </a>
         </g>
        </svg>
</svg>
