<?xml version="1.0" encoding="UTF-8" standalone="no"?>
<!DOCTYPE svg PUBLIC "-//W3C//DTD SVG 1.1//EN"
 "http://www.w3.org/Graphics/SVG/1.1/DTD/svg11.dtd">
<!-- Generated by graphviz version 2.38.0 (20140413.2041)
 -->
<!-- Title: statisticSource Pages: 1 -->
<svg width="184pt" height="140pt"
 viewBox="0.00 0.00 183.50 140.00" xmlns="http://www.w3.org/2000/svg" xmlns:xlink="http://www.w3.org/1999/xlink">
<g id="graph0" class="graph" transform="scale(1 1) rotate(0) translate(4 136)">
<title>statisticSource</title>
<polygon fill="white" stroke="none" points="-4,4 -4,-136 179.5,-136 179.5,4 -4,4"/>
<!-- Node1 -->
<g id="node1" class="node"><title>Node1</title>
<polygon fill="#bfbfbf" stroke="black" points="36.5,-56.5 36.5,-75.5 118.5,-75.5 118.5,-56.5 36.5,-56.5"/>
<text text-anchor="middle" x="77.5" y="-63.5" font-family="Helvetica,sans-Serif" font-size="10.00">statisticSource</text>
</g>
<!-- Node3 -->
<g id="node3" class="node"><title>Node3</title>
<g id="a_node3"><a xlink:href="classde265File.html" target="_top" xlink:title="de265File">
<polygon fill="white" stroke="black" points="0,-0.5 0,-19.5 59,-19.5 59,-0.5 0,-0.5"/>
<text text-anchor="middle" x="29.5" y="-7.5" font-family="Helvetica,sans-Serif" font-size="10.00">de265File</text>
</a>
</g>
</g>
<!-- Node1&#45;&gt;Node3 -->
<g id="edge2" class="edge"><title>Node1&#45;&gt;Node3</title>
<path fill="none" stroke="midnightblue" d="M62.7723,-48.4314C54.3599,-38.9673 44.1513,-27.4827 37.2787,-19.7511"/>
<polygon fill="midnightblue" stroke="midnightblue" points="60.3142,-50.9342 69.5738,-56.083 65.546,-46.2836 60.3142,-50.9342"/>
</g>
<!-- Node4 -->
<g id="node4" class="node"><title>Node4</title>
<g id="a_node4"><a xlink:href="classstatisticSourceFile.html" target="_top" xlink:title="statisticSourceFile">
<polygon fill="white" stroke="black" points="77.5,-0.5 77.5,-19.5 175.5,-19.5 175.5,-0.5 77.5,-0.5"/>
<text text-anchor="middle" x="126.5" y="-7.5" font-family="Helvetica,sans-Serif" font-size="10.00">statisticSourceFile</text>
</a>
</g>
</g>
<!-- Node1&#45;&gt;Node4 -->
<g id="edge3" class="edge"><title>Node1&#45;&gt;Node4</title>
<path fill="none" stroke="midnightblue" d="M92.5345,-48.4314C101.122,-38.9673 111.543,-27.4827 118.559,-19.7511"/>
<polygon fill="midnightblue" stroke="midnightblue" points="89.7193,-46.3254 85.5914,-56.083 94.9033,-51.0293 89.7193,-46.3254"/>
</g>
<!-- Node2 -->
<g id="node2" class="node"><title>Node2</title>
<g id="a_node2"><a xlink:href="classQObject.html" target="_top" xlink:title="QObject">
<polygon fill="white" stroke="black" points="51,-112.5 51,-131.5 104,-131.5 104,-112.5 51,-112.5"/>
<text text-anchor="middle" x="77.5" y="-119.5" font-family="Helvetica,sans-Serif" font-size="10.00">QObject</text>
</a>
</g>
</g>
<!-- Node2&#45;&gt;Node1 -->
<g id="edge1" class="edge"><title>Node2&#45;&gt;Node1</title>
<path fill="none" stroke="midnightblue" d="M77.5,-101.805C77.5,-92.9102 77.5,-82.7798 77.5,-75.7511"/>
<polygon fill="midnightblue" stroke="midnightblue" points="74.0001,-102.083 77.5,-112.083 81.0001,-102.083 74.0001,-102.083"/>
</g>
</g>
</svg>
