<?xml version="1.0" encoding="UTF-8" standalone="no"?>
<!DOCTYPE svg PUBLIC "-//W3C//DTD SVG 1.1//EN"
 "http://www.w3.org/Graphics/SVG/1.1/DTD/svg11.dtd">
<!-- Generated by graphviz version 2.38.0 (20140413.2041)
 -->
<!-- Title: DifferenceObject::setFrameObjects Pages: 1 -->
<svg width="354pt" height="142pt"
 viewBox="0.00 0.00 354.00 142.00" xmlns="http://www.w3.org/2000/svg" xmlns:xlink="http://www.w3.org/1999/xlink">
<g id="graph0" class="graph" transform="scale(1 1) rotate(0) translate(4 138)">
<title>DifferenceObject::setFrameObjects</title>
<polygon fill="white" stroke="none" points="-4,4 -4,-138 350,-138 350,4 -4,4"/>
<!-- Node1 -->
<g id="node1" class="node"><title>Node1</title>
<polygon fill="#bfbfbf" stroke="black" points="0,-52 0,-82 137,-82 137,-52 0,-52"/>
<text text-anchor="start" x="8" y="-70" font-family="Helvetica,sans-Serif" font-size="10.00">DifferenceObject::setFrame</text>
<text text-anchor="middle" x="68.5" y="-59" font-family="Helvetica,sans-Serif" font-size="10.00">Objects</text>
</g>
<!-- Node2 -->
<g id="node2" class="node"><title>Node2</title>
<g id="a_node2"><a xlink:href="classDisplayObject.html#afb3b221174f722f563e7bf55a1ddb29f" target="_top" xlink:title="DisplayObject::width">
<polygon fill="white" stroke="black" points="206,-114.5 206,-133.5 313,-133.5 313,-114.5 206,-114.5"/>
<text text-anchor="middle" x="259.5" y="-121.5" font-family="Helvetica,sans-Serif" font-size="10.00">DisplayObject::width</text>
</a>
</g>
</g>
<!-- Node1&#45;&gt;Node2 -->
<g id="edge1" class="edge"><title>Node1&#45;&gt;Node2</title>
<path fill="none" stroke="midnightblue" d="M106.949,-82.1193C126.437,-89.6362 150.775,-98.482 173,-105 181.787,-107.577 191.171,-109.993 200.385,-112.181"/>
<polygon fill="midnightblue" stroke="midnightblue" points="199.749,-115.626 210.28,-114.462 201.322,-108.805 199.749,-115.626"/>
</g>
<!-- Node3 -->
<g id="node3" class="node"><title>Node3</title>
<g id="a_node3"><a xlink:href="classDisplayObject.html#a814782fb1bf9e7a2ed7adab74872c08a" target="_top" xlink:title="DisplayObject::height">
<polygon fill="white" stroke="black" points="204.5,-76.5 204.5,-95.5 314.5,-95.5 314.5,-76.5 204.5,-76.5"/>
<text text-anchor="middle" x="259.5" y="-83.5" font-family="Helvetica,sans-Serif" font-size="10.00">DisplayObject::height</text>
</a>
</g>
</g>
<!-- Node1&#45;&gt;Node3 -->
<g id="edge2" class="edge"><title>Node1&#45;&gt;Node3</title>
<path fill="none" stroke="midnightblue" d="M137.2,-73.8058C155.789,-75.6745 175.886,-77.6949 194.274,-79.5434"/>
<polygon fill="midnightblue" stroke="midnightblue" points="193.993,-83.0327 204.293,-80.5506 194.693,-76.0678 193.993,-83.0327"/>
</g>
<!-- Node4 -->
<g id="node4" class="node"><title>Node4</title>
<g id="a_node4"><a xlink:href="classDisplayObject.html#a8f8f637b874a3e17128915cf414d6b60" target="_top" xlink:title="DisplayObject::frameRate">
<polygon fill="white" stroke="black" points="194.5,-38.5 194.5,-57.5 324.5,-57.5 324.5,-38.5 194.5,-38.5"/>
<text text-anchor="middle" x="259.5" y="-45.5" font-family="Helvetica,sans-Serif" font-size="10.00">DisplayObject::frameRate</text>
</a>
</g>
</g>
<!-- Node1&#45;&gt;Node4 -->
<g id="edge3" class="edge"><title>Node1&#45;&gt;Node4</title>
<path fill="none" stroke="midnightblue" d="M137.2,-60.1942C152.492,-58.6569 168.805,-57.017 184.347,-55.4545"/>
<polygon fill="midnightblue" stroke="midnightblue" points="184.831,-58.9236 194.431,-54.4408 184.131,-51.9587 184.831,-58.9236"/>
</g>
<!-- Node5 -->
<g id="node5" class="node"><title>Node5</title>
<g id="a_node5"><a xlink:href="classFrameObject.html#a22166051b93f088f86fe602938231609" target="_top" xlink:title="FrameObject::colorConversionMode">
<polygon fill="white" stroke="black" points="173,-0.5 173,-19.5 346,-19.5 346,-0.5 173,-0.5"/>
<text text-anchor="middle" x="259.5" y="-7.5" font-family="Helvetica,sans-Serif" font-size="10.00">FrameObject::colorConversionMode</text>
</a>
</g>
</g>
<!-- Node1&#45;&gt;Node5 -->
<g id="edge4" class="edge"><title>Node1&#45;&gt;Node5</title>
<path fill="none" stroke="midnightblue" d="M106.949,-51.8807C126.437,-44.3638 150.775,-35.518 173,-29 181.787,-26.4231 191.171,-24.0073 200.385,-21.8192"/>
<polygon fill="midnightblue" stroke="midnightblue" points="201.322,-25.195 210.28,-19.5375 199.749,-18.374 201.322,-25.195"/>
</g>
</g>
</svg>
