<?xml version="1.0" encoding="UTF-8" standalone="no"?>
<!DOCTYPE svg PUBLIC "-//W3C//DTD SVG 1.1//EN"
 "http://www.w3.org/Graphics/SVG/1.1/DTD/svg11.dtd">
<!-- Generated by graphviz version 2.38.0 (20140413.2041)
 -->
<!-- Title: DifferenceObject::markDifferences Pages: 1 -->
<svg width="681pt" height="66pt"
 viewBox="0.00 0.00 681.00 66.00" xmlns="http://www.w3.org/2000/svg" xmlns:xlink="http://www.w3.org/1999/xlink">
<g id="graph0" class="graph" transform="scale(1 1) rotate(0) translate(4 62)">
<title>DifferenceObject::markDifferences</title>
<polygon fill="white" stroke="none" points="-4,4 -4,-62 677,-62 677,4 -4,4"/>
<!-- Node1 -->
<g id="node1" class="node"><title>Node1</title>
<polygon fill="#bfbfbf" stroke="black" points="0,-19.5 0,-38.5 168,-38.5 168,-19.5 0,-19.5"/>
<text text-anchor="middle" x="84" y="-26.5" font-family="Helvetica,sans-Serif" font-size="10.00">DifferenceObject::markDifferences</text>
</g>
<!-- Node2 -->
<g id="node2" class="node"><title>Node2</title>
<g id="a_node2"><a xlink:href="classDifferenceObject.html#a439e11946f44d8d3ea73d0738c522859" target="_top" xlink:title="DifferenceObject::mark">
<polygon fill="white" stroke="black" points="204,-19.5 204,-38.5 322,-38.5 322,-19.5 204,-19.5"/>
<text text-anchor="middle" x="263" y="-26.5" font-family="Helvetica,sans-Serif" font-size="10.00">DifferenceObject::mark</text>
</a>
</g>
</g>
<!-- Node1&#45;&gt;Node2 -->
<g id="edge1" class="edge"><title>Node1&#45;&gt;Node2</title>
<path fill="none" stroke="midnightblue" d="M168.058,-29C176.679,-29 185.368,-29 193.798,-29"/>
<polygon fill="midnightblue" stroke="midnightblue" points="193.93,-32.5001 203.93,-29 193.93,-25.5001 193.93,-32.5001"/>
</g>
<!-- Node3 -->
<g id="node3" class="node"><title>Node3</title>
<g id="a_node3"><a xlink:href="classYUVSource.html#a11ea64b650d6086177fa0f7a1f3f323d" target="_top" xlink:title="YUVSource::bitsPerSample">
<polygon fill="white" stroke="black" points="358,-19.5 358,-38.5 496,-38.5 496,-19.5 358,-19.5"/>
<text text-anchor="middle" x="427" y="-26.5" font-family="Helvetica,sans-Serif" font-size="10.00">YUVSource::bitsPerSample</text>
</a>
</g>
</g>
<!-- Node2&#45;&gt;Node3 -->
<g id="edge2" class="edge"><title>Node2&#45;&gt;Node3</title>
<path fill="none" stroke="midnightblue" d="M322.028,-29C330.381,-29 339.089,-29 347.754,-29"/>
<polygon fill="midnightblue" stroke="midnightblue" points="347.884,-32.5001 357.884,-29 347.884,-25.5001 347.884,-32.5001"/>
</g>
<!-- Node4 -->
<g id="node4" class="node"><title>Node4</title>
<g id="a_node4"><a xlink:href="classYUVSource.html#a7e554f2c626688704099e00cc4ece029" target="_top" xlink:title="YUVSource::pixelFormatList">
<polygon fill="white" stroke="black" points="532,-38.5 532,-57.5 673,-57.5 673,-38.5 532,-38.5"/>
<text text-anchor="middle" x="602.5" y="-45.5" font-family="Helvetica,sans-Serif" font-size="10.00">YUVSource::pixelFormatList</text>
</a>
</g>
</g>
<!-- Node3&#45;&gt;Node4 -->
<g id="edge3" class="edge"><title>Node3&#45;&gt;Node4</title>
<path fill="none" stroke="midnightblue" d="M496.074,-36.4548C504.535,-37.3814 513.245,-38.3352 521.861,-39.2787"/>
<polygon fill="midnightblue" stroke="midnightblue" points="521.589,-42.7698 531.911,-40.3793 522.352,-35.8114 521.589,-42.7698"/>
</g>
<!-- Node5 -->
<g id="node5" class="node"><title>Node5</title>
<g id="a_node5"><a xlink:href="classYUVSource.html#a592ce352c789f4f5789b11e052b58a33" target="_top" xlink:title="YUVSource::pixelFormat">
<polygon fill="white" stroke="black" points="540,-0.5 540,-19.5 665,-19.5 665,-0.5 540,-0.5"/>
<text text-anchor="middle" x="602.5" y="-7.5" font-family="Helvetica,sans-Serif" font-size="10.00">YUVSource::pixelFormat</text>
</a>
</g>
</g>
<!-- Node3&#45;&gt;Node5 -->
<g id="edge4" class="edge"><title>Node3&#45;&gt;Node5</title>
<path fill="none" stroke="midnightblue" d="M496.074,-21.5452C507.122,-20.3353 518.594,-19.079 529.727,-17.8598"/>
<polygon fill="midnightblue" stroke="midnightblue" points="530.275,-21.3209 539.834,-16.753 529.513,-14.3625 530.275,-21.3209"/>
</g>
</g>
</svg>
