<?xml version="1.0" encoding="UTF-8" standalone="no"?>
<!DOCTYPE svg PUBLIC "-//W3C//DTD SVG 1.1//EN"
 "http://www.w3.org/Graphics/SVG/1.1/DTD/svg11.dtd">
<!-- Generated by graphviz version 2.38.0 (20140413.2041)
 -->
<!-- Title: DisplaySplitWidget::updateView Pages: 1 -->
<svg width="1196pt" height="274pt"
 viewBox="0.00 0.00 1196.00 273.50" xmlns="http://www.w3.org/2000/svg" xmlns:xlink="http://www.w3.org/1999/xlink">
<g id="graph0" class="graph" transform="scale(1 1) rotate(0) translate(4 269.5)">
<title>DisplaySplitWidget::updateView</title>
<polygon fill="white" stroke="none" points="-4,4 -4,-269.5 1192,-269.5 1192,4 -4,4"/>
<!-- Node1 -->
<g id="node1" class="node"><title>Node1</title>
<polygon fill="#bfbfbf" stroke="black" points="0,-137 0,-167 100,-167 100,-137 0,-137"/>
<text text-anchor="start" x="8" y="-155" font-family="Helvetica,sans-Serif" font-size="10.00">DisplaySplitWidget</text>
<text text-anchor="middle" x="50" y="-144" font-family="Helvetica,sans-Serif" font-size="10.00">::updateView</text>
</g>
<!-- Node2 -->
<g id="node2" class="node"><title>Node2</title>
<g id="a_node2"><a xlink:href="classDisplayWidget.html#a477dcbaeee98a2c684374e4d5a36b0fd" target="_top" xlink:title="DisplayWidget::displayRect">
<polygon fill="white" stroke="black" points="326,-210.5 326,-229.5 464,-229.5 464,-210.5 326,-210.5"/>
<text text-anchor="middle" x="395" y="-217.5" font-family="Helvetica,sans-Serif" font-size="10.00">DisplayWidget::displayRect</text>
</a>
</g>
</g>
<!-- Node1&#45;&gt;Node2 -->
<g id="edge1" class="edge"><title>Node1&#45;&gt;Node2</title>
<path fill="none" stroke="midnightblue" d="M100.383,-163.321C112.047,-165.917 124.45,-168.613 136,-171 202.345,-184.712 278.595,-199.014 330.899,-208.602"/>
<polygon fill="midnightblue" stroke="midnightblue" points="330.564,-212.099 341.03,-210.456 331.823,-205.213 330.564,-212.099"/>
</g>
<!-- Node3 -->
<g id="node3" class="node"><title>Node3</title>
<g id="a_node3"><a xlink:href="classDisplayWidget.html#a822a3c50c6c602fafff6ef2132ccdb42" target="_top" xlink:title="DisplayWidget::setDisplayRect">
<polygon fill="white" stroke="black" points="136,-142.5 136,-161.5 290,-161.5 290,-142.5 136,-142.5"/>
<text text-anchor="middle" x="213" y="-149.5" font-family="Helvetica,sans-Serif" font-size="10.00">DisplayWidget::setDisplayRect</text>
</a>
</g>
</g>
<!-- Node1&#45;&gt;Node3 -->
<g id="edge2" class="edge"><title>Node1&#45;&gt;Node3</title>
<path fill="none" stroke="midnightblue" d="M100.18,-152C108.289,-152 116.9,-152 125.604,-152"/>
<polygon fill="midnightblue" stroke="midnightblue" points="125.839,-155.5 135.839,-152 125.839,-148.5 125.839,-155.5"/>
</g>
<!-- Node22 -->
<g id="node22" class="node"><title>Node22</title>
<g id="a_node22"><a xlink:href="classDisplayWidget.html#ad463e9effed6170427696da40d945c58" target="_top" xlink:title="DisplayWidget::DisplayWidget\lWidth">
<polygon fill="white" stroke="black" points="138,-93 138,-123 288,-123 288,-93 138,-93"/>
<text text-anchor="start" x="146" y="-111" font-family="Helvetica,sans-Serif" font-size="10.00">DisplayWidget::DisplayWidget</text>
<text text-anchor="middle" x="213" y="-100" font-family="Helvetica,sans-Serif" font-size="10.00">Width</text>
</a>
</g>
</g>
<!-- Node1&#45;&gt;Node22 -->
<g id="edge24" class="edge"><title>Node1&#45;&gt;Node22</title>
<path fill="none" stroke="midnightblue" d="M100.18,-138.559C115.037,-134.499 131.58,-129.978 147.288,-125.685"/>
<polygon fill="midnightblue" stroke="midnightblue" points="148.214,-129.061 156.938,-123.048 146.369,-122.308 148.214,-129.061"/>
</g>
<!-- Node3&#45;&gt;Node2 -->
<g id="edge3" class="edge"><title>Node3&#45;&gt;Node2</title>
<path fill="none" stroke="midnightblue" d="M244.846,-161.501C258.867,-166.188 275.522,-172.277 290,-179 306.8,-186.801 308.99,-192.666 326,-200 332.302,-202.717 339.084,-205.199 345.84,-207.42"/>
<polygon fill="midnightblue" stroke="midnightblue" points="345.07,-210.846 355.659,-210.484 347.155,-204.164 345.07,-210.846"/>
</g>
<!-- Node4 -->
<g id="node4" class="node"><title>Node4</title>
<g id="a_node4"><a xlink:href="classDisplayObject.html#a669d39709021238465e2d42ae2ffce2d" target="_top" xlink:title="DisplayObject::setInternal\lScaleFactor">
<polygon fill="white" stroke="black" points="330,-112 330,-142 460,-142 460,-112 330,-112"/>
<text text-anchor="start" x="338" y="-130" font-family="Helvetica,sans-Serif" font-size="10.00">DisplayObject::setInternal</text>
<text text-anchor="middle" x="395" y="-119" font-family="Helvetica,sans-Serif" font-size="10.00">ScaleFactor</text>
</a>
</g>
</g>
<!-- Node3&#45;&gt;Node4 -->
<g id="edge4" class="edge"><title>Node3&#45;&gt;Node4</title>
<path fill="none" stroke="midnightblue" d="M282.564,-142.477C294.672,-140.796 307.33,-139.037 319.59,-137.335"/>
<polygon fill="midnightblue" stroke="midnightblue" points="320.351,-140.763 329.774,-135.92 319.388,-133.829 320.351,-140.763"/>
</g>
<!-- Node5 -->
<g id="node5" class="node"><title>Node5</title>
<g id="a_node5"><a xlink:href="classDisplayWidget.html#a59b9a00276458fae6c0c2db850a87616" target="_top" xlink:title="DisplayWidget::zoomFactor">
<polygon fill="white" stroke="black" points="500,-75.5 500,-94.5 638,-94.5 638,-75.5 500,-75.5"/>
<text text-anchor="middle" x="569" y="-82.5" font-family="Helvetica,sans-Serif" font-size="10.00">DisplayWidget::zoomFactor</text>
</a>
</g>
</g>
<!-- Node3&#45;&gt;Node5 -->
<g id="edge5" class="edge"><title>Node3&#45;&gt;Node5</title>
<path fill="none" stroke="midnightblue" d="M263.018,-142.481C272.254,-139.756 281.633,-136.314 290,-132 308.512,-122.456 306.677,-109.772 326,-102 377.802,-81.1634 440.849,-77.3484 489.604,-78.5135"/>
<polygon fill="midnightblue" stroke="midnightblue" points="489.677,-82.0174 499.782,-78.8334 489.897,-75.0209 489.677,-82.0174"/>
</g>
<!-- Node7 -->
<g id="node7" class="node"><title>Node7</title>
<g id="a_node7"><a xlink:href="classStatisticsObject.html#a685245dbc78feb8908c60b3becc9a0c0" target="_top" xlink:title="StatisticsObject::setInternal\lScaleFactor">
<polygon fill="white" stroke="black" points="326,-24 326,-54 464,-54 464,-24 326,-24"/>
<text text-anchor="start" x="334" y="-42" font-family="Helvetica,sans-Serif" font-size="10.00">StatisticsObject::setInternal</text>
<text text-anchor="middle" x="395" y="-31" font-family="Helvetica,sans-Serif" font-size="10.00">ScaleFactor</text>
</a>
</g>
</g>
<!-- Node3&#45;&gt;Node7 -->
<g id="edge7" class="edge"><title>Node3&#45;&gt;Node7</title>
<path fill="none" stroke="midnightblue" d="M271.144,-142.368C277.894,-139.708 284.371,-136.319 290,-132 315.585,-112.368 302.046,-90.5916 326,-69 330.133,-65.2744 334.804,-61.9526 339.713,-59.0044"/>
<polygon fill="midnightblue" stroke="midnightblue" points="341.63,-61.9462 348.743,-54.0945 338.286,-55.7964 341.63,-61.9462"/>
</g>
<!-- Node11 -->
<g id="node11" class="node"><title>Node11</title>
<g id="a_node11"><a xlink:href="classStatisticsObject.html#a09c2920b75ecda0e175a6c9384b446ab" target="_top" xlink:title="StatisticsObject::reload\lImage">
<polygon fill="white" stroke="black" points="335.5,-161 335.5,-191 454.5,-191 454.5,-161 335.5,-161"/>
<text text-anchor="start" x="343.5" y="-179" font-family="Helvetica,sans-Serif" font-size="10.00">StatisticsObject::reload</text>
<text text-anchor="middle" x="395" y="-168" font-family="Helvetica,sans-Serif" font-size="10.00">Image</text>
</a>
</g>
</g>
<!-- Node3&#45;&gt;Node11 -->
<g id="edge11" class="edge"><title>Node3&#45;&gt;Node11</title>
<path fill="none" stroke="midnightblue" d="M285.399,-161.52C298.488,-163.265 312.126,-165.083 325.139,-166.819"/>
<polygon fill="midnightblue" stroke="midnightblue" points="325.044,-170.337 335.419,-168.189 325.969,-163.398 325.044,-170.337"/>
</g>
<!-- Node6 -->
<g id="node6" class="node"><title>Node6</title>
<g id="a_node6"><a xlink:href="classDisplayObject.html#afb3b221174f722f563e7bf55a1ddb29f" target="_top" xlink:title="DisplayObject::width">
<polygon fill="white" stroke="black" points="695.5,-76.5 695.5,-95.5 802.5,-95.5 802.5,-76.5 695.5,-76.5"/>
<text text-anchor="middle" x="749" y="-83.5" font-family="Helvetica,sans-Serif" font-size="10.00">DisplayObject::width</text>
</a>
</g>
</g>
<!-- Node5&#45;&gt;Node6 -->
<g id="edge6" class="edge"><title>Node5&#45;&gt;Node6</title>
<path fill="none" stroke="midnightblue" d="M638.056,-85.3823C653.526,-85.4692 669.891,-85.5612 685.134,-85.6468"/>
<polygon fill="midnightblue" stroke="midnightblue" points="685.463,-89.1486 695.483,-85.705 685.503,-82.1487 685.463,-89.1486"/>
</g>
<!-- Node8 -->
<g id="node8" class="node"><title>Node8</title>
<g id="a_node8"><a xlink:href="classstatisticSource.html#a8c153e3e3576668f5e68af94f441319e" target="_top" xlink:title="statisticSource::setInternal\lScaleFactor">
<polygon fill="white" stroke="black" points="502,-24 502,-54 636,-54 636,-24 502,-24"/>
<text text-anchor="start" x="510" y="-42" font-family="Helvetica,sans-Serif" font-size="10.00">statisticSource::setInternal</text>
<text text-anchor="middle" x="569" y="-31" font-family="Helvetica,sans-Serif" font-size="10.00">ScaleFactor</text>
</a>
</g>
</g>
<!-- Node7&#45;&gt;Node8 -->
<g id="edge8" class="edge"><title>Node7&#45;&gt;Node8</title>
<path fill="none" stroke="midnightblue" d="M464.473,-39C473.39,-39 482.569,-39 491.605,-39"/>
<polygon fill="midnightblue" stroke="midnightblue" points="491.724,-42.5001 501.724,-39 491.724,-35.5001 491.724,-42.5001"/>
</g>
<!-- Node9 -->
<g id="node9" class="node"><title>Node9</title>
<g id="a_node9"><a xlink:href="typedef_8h.html#a9aaa34d570ccff65aa586904187cfff5" target="_top" xlink:title="clip">
<polygon fill="white" stroke="black" points="733,-0.5 733,-19.5 765,-19.5 765,-0.5 733,-0.5"/>
<text text-anchor="middle" x="749" y="-7.5" font-family="Helvetica,sans-Serif" font-size="10.00">clip</text>
</a>
</g>
</g>
<!-- Node8&#45;&gt;Node9 -->
<g id="edge9" class="edge"><title>Node8&#45;&gt;Node9</title>
<path fill="none" stroke="midnightblue" d="M636.028,-28.2427C666.297,-23.3112 700.372,-17.7597 722.897,-14.0899"/>
<polygon fill="midnightblue" stroke="midnightblue" points="723.652,-17.513 732.959,-12.4505 722.527,-10.6041 723.652,-17.513"/>
</g>
<!-- Node10 -->
<g id="node10" class="node"><title>Node10</title>
<g id="a_node10"><a xlink:href="classstatisticSource.html#ab919493c131a2f9b26c1c212c05ad223" target="_top" xlink:title="statisticSource::internal\lScaleFactor">
<polygon fill="white" stroke="black" points="875.5,-66 875.5,-96 994.5,-96 994.5,-66 875.5,-66"/>
<text text-anchor="start" x="883.5" y="-84" font-family="Helvetica,sans-Serif" font-size="10.00">statisticSource::internal</text>
<text text-anchor="middle" x="935" y="-73" font-family="Helvetica,sans-Serif" font-size="10.00">ScaleFactor</text>
</a>
</g>
</g>
<!-- Node8&#45;&gt;Node10 -->
<g id="edge10" class="edge"><title>Node8&#45;&gt;Node10</title>
<path fill="none" stroke="midnightblue" d="M636.085,-45.9775C687.369,-51.4667 760.231,-59.4276 824,-67 837.253,-68.5738 851.396,-70.3219 864.974,-72.0346"/>
<polygon fill="midnightblue" stroke="midnightblue" points="864.862,-75.5483 875.223,-73.3338 865.742,-68.6039 864.862,-75.5483"/>
</g>
<!-- Node12 -->
<g id="node12" class="node"><title>Node12</title>
<g id="a_node12"><a xlink:href="classStatisticsObject.html#a7ef3844aa2a91ec4fc67233f7a6f5552" target="_top" xlink:title="StatisticsObject::loadImage">
<polygon fill="white" stroke="black" points="500.5,-165.5 500.5,-184.5 637.5,-184.5 637.5,-165.5 500.5,-165.5"/>
<text text-anchor="middle" x="569" y="-172.5" font-family="Helvetica,sans-Serif" font-size="10.00">StatisticsObject::loadImage</text>
</a>
</g>
</g>
<!-- Node11&#45;&gt;Node12 -->
<g id="edge12" class="edge"><title>Node11&#45;&gt;Node12</title>
<path fill="none" stroke="midnightblue" d="M454.712,-175.659C466.077,-175.593 478.152,-175.522 490.022,-175.453"/>
<polygon fill="midnightblue" stroke="midnightblue" points="490.397,-178.951 500.377,-175.393 490.357,-171.951 490.397,-178.951"/>
</g>
<!-- Node12&#45;&gt;Node6 -->
<g id="edge17" class="edge"><title>Node12&#45;&gt;Node6</title>
<path fill="none" stroke="midnightblue" d="M581.382,-165.395C599.722,-150.386 637.465,-121.398 674,-105 679.349,-102.599 685.057,-100.461 690.841,-98.5664"/>
<polygon fill="midnightblue" stroke="midnightblue" points="692.044,-101.859 700.595,-95.6043 690.01,-95.1609 692.044,-101.859"/>
</g>
<!-- Node13 -->
<g id="node13" class="node"><title>Node13</title>
<g id="a_node13"><a xlink:href="classStatisticsObject.html#a977403d59c77839b97f38c4c5d09483b" target="_top" xlink:title="StatisticsObject::numFrames">
<polygon fill="white" stroke="black" points="677,-240.5 677,-259.5 821,-259.5 821,-240.5 677,-240.5"/>
<text text-anchor="middle" x="749" y="-247.5" font-family="Helvetica,sans-Serif" font-size="10.00">StatisticsObject::numFrames</text>
</a>
</g>
</g>
<!-- Node12&#45;&gt;Node13 -->
<g id="edge13" class="edge"><title>Node12&#45;&gt;Node13</title>
<path fill="none" stroke="midnightblue" d="M584.946,-184.558C604.665,-196.807 640.767,-218.009 674,-231 680.308,-233.466 687.044,-235.704 693.786,-237.707"/>
<polygon fill="midnightblue" stroke="midnightblue" points="693.044,-241.134 703.618,-240.473 694.94,-234.396 693.044,-241.134"/>
</g>
<!-- Node15 -->
<g id="node15" class="node"><title>Node15</title>
<g id="a_node15"><a xlink:href="classStatisticsObject.html#a9d90fa9d1b1373e6f93a9839c757739a" target="_top" xlink:title="StatisticsObject::internal\lScaleFactor">
<polygon fill="white" stroke="black" points="687,-115 687,-145 811,-145 811,-115 687,-115"/>
<text text-anchor="start" x="695" y="-133" font-family="Helvetica,sans-Serif" font-size="10.00">StatisticsObject::internal</text>
<text text-anchor="middle" x="749" y="-122" font-family="Helvetica,sans-Serif" font-size="10.00">ScaleFactor</text>
</a>
</g>
</g>
<!-- Node12&#45;&gt;Node15 -->
<g id="edge15" class="edge"><title>Node12&#45;&gt;Node15</title>
<path fill="none" stroke="midnightblue" d="M607.749,-165.457C628.379,-160.241 654.581,-153.617 678.74,-147.51"/>
<polygon fill="midnightblue" stroke="midnightblue" points="679.752,-150.864 688.589,-145.02 678.037,-144.077 679.752,-150.864"/>
</g>
<!-- Node16 -->
<g id="node16" class="node"><title>Node16</title>
<g id="a_node16"><a xlink:href="classDisplayObject.html#a814782fb1bf9e7a2ed7adab74872c08a" target="_top" xlink:title="DisplayObject::height">
<polygon fill="white" stroke="black" points="694,-202.5 694,-221.5 804,-221.5 804,-202.5 694,-202.5"/>
<text text-anchor="middle" x="749" y="-209.5" font-family="Helvetica,sans-Serif" font-size="10.00">DisplayObject::height</text>
</a>
</g>
</g>
<!-- Node12&#45;&gt;Node16 -->
<g id="edge18" class="edge"><title>Node12&#45;&gt;Node16</title>
<path fill="none" stroke="midnightblue" d="M615.839,-184.528C639.107,-189.365 667.567,-195.281 692.11,-200.382"/>
<polygon fill="midnightblue" stroke="midnightblue" points="691.504,-203.831 702.007,-202.44 692.929,-196.978 691.504,-203.831"/>
</g>
<!-- Node17 -->
<g id="node17" class="node"><title>Node17</title>
<g id="a_node17"><a xlink:href="classstatisticSource.html#a97118da6546c479004129b4fcc6851bf" target="_top" xlink:title="statisticSource::drawStatistics">
<polygon fill="white" stroke="black" points="674,-164.5 674,-183.5 824,-183.5 824,-164.5 674,-164.5"/>
<text text-anchor="middle" x="749" y="-171.5" font-family="Helvetica,sans-Serif" font-size="10.00">statisticSource::drawStatistics</text>
</a>
</g>
</g>
<!-- Node12&#45;&gt;Node17 -->
<g id="edge19" class="edge"><title>Node12&#45;&gt;Node17</title>
<path fill="none" stroke="midnightblue" d="M637.548,-174.621C646.101,-174.572 654.936,-174.523 663.709,-174.474"/>
<polygon fill="midnightblue" stroke="midnightblue" points="663.979,-177.972 673.959,-174.416 663.94,-170.972 663.979,-177.972"/>
</g>
<!-- Node14 -->
<g id="node14" class="node"><title>Node14</title>
<g id="a_node14"><a xlink:href="classstatisticSource.html#a49d2c60f7ce52592509c07fdc9d8e268" target="_top" xlink:title="statisticSource::getNumber\lFrames">
<polygon fill="white" stroke="black" points="867,-235 867,-265 1003,-265 1003,-235 867,-235"/>
<text text-anchor="start" x="875" y="-253" font-family="Helvetica,sans-Serif" font-size="10.00">statisticSource::getNumber</text>
<text text-anchor="middle" x="935" y="-242" font-family="Helvetica,sans-Serif" font-size="10.00">Frames</text>
</a>
</g>
</g>
<!-- Node13&#45;&gt;Node14 -->
<g id="edge14" class="edge"><title>Node13&#45;&gt;Node14</title>
<path fill="none" stroke="midnightblue" d="M821.139,-250C832.793,-250 844.919,-250 856.714,-250"/>
<polygon fill="midnightblue" stroke="midnightblue" points="856.973,-253.5 866.973,-250 856.973,-246.5 856.973,-253.5"/>
</g>
<!-- Node15&#45;&gt;Node10 -->
<g id="edge16" class="edge"><title>Node15&#45;&gt;Node10</title>
<path fill="none" stroke="midnightblue" d="M806.457,-114.965C825.884,-109.792 847.811,-103.952 867.935,-98.5934"/>
<polygon fill="midnightblue" stroke="midnightblue" points="868.888,-101.962 877.65,-96.0062 867.086,-95.1975 868.888,-101.962"/>
</g>
<!-- Node18 -->
<g id="node18" class="node"><title>Node18</title>
<g id="a_node18"><a xlink:href="classstatisticSource.html#a666dee63c406a9b88484286b2a8e08f4" target="_top" xlink:title="statisticSource::getStatistics">
<polygon fill="white" stroke="black" points="863.5,-180.5 863.5,-199.5 1006.5,-199.5 1006.5,-180.5 863.5,-180.5"/>
<text text-anchor="middle" x="935" y="-187.5" font-family="Helvetica,sans-Serif" font-size="10.00">statisticSource::getStatistics</text>
</a>
</g>
</g>
<!-- Node17&#45;&gt;Node18 -->
<g id="edge20" class="edge"><title>Node17&#45;&gt;Node18</title>
<path fill="none" stroke="midnightblue" d="M824.044,-180.439C833.679,-181.276 843.588,-182.138 853.324,-182.985"/>
<polygon fill="midnightblue" stroke="midnightblue" points="853.124,-186.48 863.39,-183.86 853.731,-179.507 853.124,-186.48"/>
</g>
<!-- Node20 -->
<g id="node20" class="node"><title>Node20</title>
<g id="a_node20"><a xlink:href="classstatisticSource.html#af005d063b46b611d6166d4d8439d6245" target="_top" xlink:title="statisticSource::drawStatistics\lImage">
<polygon fill="white" stroke="black" points="860,-131 860,-161 1010,-161 1010,-131 860,-131"/>
<text text-anchor="start" x="868" y="-149" font-family="Helvetica,sans-Serif" font-size="10.00">statisticSource::drawStatistics</text>
<text text-anchor="middle" x="935" y="-138" font-family="Helvetica,sans-Serif" font-size="10.00">Image</text>
</a>
</g>
</g>
<!-- Node17&#45;&gt;Node20 -->
<g id="edge22" class="edge"><title>Node17&#45;&gt;Node20</title>
<path fill="none" stroke="midnightblue" d="M812.551,-164.481C824.553,-162.655 837.303,-160.715 849.856,-158.805"/>
<polygon fill="midnightblue" stroke="midnightblue" points="850.504,-162.246 859.863,-157.282 849.451,-155.326 850.504,-162.246"/>
</g>
<!-- Node19 -->
<g id="node19" class="node"><title>Node19</title>
<g id="a_node19"><a xlink:href="classstatisticSource.html#a769e0ef8bb1427d4d586425956ebfca2" target="_top" xlink:title="statisticSource::loadStatistic\lToCache">
<polygon fill="white" stroke="black" points="1046,-175 1046,-205 1188,-205 1188,-175 1046,-175"/>
<text text-anchor="start" x="1054" y="-193" font-family="Helvetica,sans-Serif" font-size="10.00">statisticSource::loadStatistic</text>
<text text-anchor="middle" x="1117" y="-182" font-family="Helvetica,sans-Serif" font-size="10.00">ToCache</text>
</a>
</g>
</g>
<!-- Node18&#45;&gt;Node19 -->
<g id="edge21" class="edge"><title>Node18&#45;&gt;Node19</title>
<path fill="none" stroke="midnightblue" d="M1006.62,-190C1016.2,-190 1026.08,-190 1035.81,-190"/>
<polygon fill="midnightblue" stroke="midnightblue" points="1035.87,-193.5 1045.87,-190 1035.87,-186.5 1035.87,-193.5"/>
</g>
<!-- Node21 -->
<g id="node21" class="node"><title>Node21</title>
<g id="a_node21"><a xlink:href="statisticSource_8cpp.html#a00b2533858fa82f16ddb39544cfff2b4" target="_top" xlink:title="rotateVector">
<polygon fill="white" stroke="black" points="1082,-136.5 1082,-155.5 1152,-155.5 1152,-136.5 1082,-136.5"/>
<text text-anchor="middle" x="1117" y="-143.5" font-family="Helvetica,sans-Serif" font-size="10.00">rotateVector</text>
</a>
</g>
</g>
<!-- Node20&#45;&gt;Node21 -->
<g id="edge23" class="edge"><title>Node20&#45;&gt;Node21</title>
<path fill="none" stroke="midnightblue" d="M1010.25,-146C1031.07,-146 1053.05,-146 1071.55,-146"/>
<polygon fill="midnightblue" stroke="midnightblue" points="1071.72,-149.5 1081.72,-146 1071.72,-142.5 1071.72,-149.5"/>
</g>
</g>
</svg>
