<?xml version="1.0" encoding="UTF-8" standalone="no"?>
<!DOCTYPE svg PUBLIC "-//W3C//DTD SVG 1.1//EN"
 "http://www.w3.org/Graphics/SVG/1.1/DTD/svg11.dtd">
<!-- Generated by graphviz version 2.38.0 (20140413.2041)
 -->
<!-- Title: FrameObject::setChromaOffset Pages: 1 -->
<svg width="1071pt" height="333pt"
 viewBox="0.00 0.00 1071.00 332.93" xmlns="http://www.w3.org/2000/svg" xmlns:xlink="http://www.w3.org/1999/xlink">
<g id="graph0" class="graph" transform="scale(1 1) rotate(0) translate(4 328.934)">
<title>FrameObject::setChromaOffset</title>
<polygon fill="white" stroke="none" points="-4,4 -4,-328.934 1067,-328.934 1067,4 -4,4"/>
<!-- Node1 -->
<g id="node1" class="node"><title>Node1</title>
<polygon fill="#bfbfbf" stroke="black" points="0,-229.434 0,-248.434 154,-248.434 154,-229.434 0,-229.434"/>
<text text-anchor="middle" x="77" y="-236.434" font-family="Helvetica,sans-Serif" font-size="10.00">FrameObject::setChromaOffset</text>
</g>
<!-- Node2 -->
<g id="node2" class="node"><title>Node2</title>
<g id="a_node2"><a xlink:href="classFrameObject.html#ac42be5ded1448dde312e661e66c8730e" target="_top" xlink:title="FrameObject::refreshDisplay\lImage">
<polygon fill="white" stroke="black" points="190,-223.934 190,-253.934 332,-253.934 332,-223.934 190,-223.934"/>
<text text-anchor="start" x="198" y="-241.934" font-family="Helvetica,sans-Serif" font-size="10.00">FrameObject::refreshDisplay</text>
<text text-anchor="middle" x="261" y="-230.934" font-family="Helvetica,sans-Serif" font-size="10.00">Image</text>
</a>
</g>
</g>
<!-- Node1&#45;&gt;Node2 -->
<g id="edge1" class="edge"><title>Node1&#45;&gt;Node2</title>
<path fill="none" stroke="midnightblue" d="M154.13,-238.934C162.671,-238.934 171.392,-238.934 179.981,-238.934"/>
<polygon fill="midnightblue" stroke="midnightblue" points="179.984,-242.434 189.984,-238.934 179.984,-235.434 179.984,-242.434"/>
</g>
<!-- Node3 -->
<g id="node3" class="node"><title>Node3</title>
<g id="a_node3"><a xlink:href="classFrameObject.html#adfa8fc2528a422aba57c301f3c2a311c" target="_top" xlink:title="FrameObject::clearCurrent\lCache">
<polygon fill="white" stroke="black" points="368,-261.934 368,-291.934 500,-291.934 500,-261.934 368,-261.934"/>
<text text-anchor="start" x="376" y="-279.934" font-family="Helvetica,sans-Serif" font-size="10.00">FrameObject::clearCurrent</text>
<text text-anchor="middle" x="434" y="-268.934" font-family="Helvetica,sans-Serif" font-size="10.00">Cache</text>
</a>
</g>
</g>
<!-- Node2&#45;&gt;Node3 -->
<g id="edge2" class="edge"><title>Node2&#45;&gt;Node3</title>
<path fill="none" stroke="midnightblue" d="M329.584,-253.953C338.937,-256.032 348.591,-258.177 358.068,-260.283"/>
<polygon fill="midnightblue" stroke="midnightblue" points="357.339,-263.706 367.861,-262.459 358.858,-256.873 357.339,-263.706"/>
</g>
<!-- Node7 -->
<g id="node7" class="node"><title>Node7</title>
<g id="a_node7"><a xlink:href="classFrameObject.html#ad33aa12aedba2856ec54989d6eda2d49" target="_top" xlink:title="FrameObject::loadImage">
<polygon fill="white" stroke="black" points="372,-172.434 372,-191.434 496,-191.434 496,-172.434 372,-172.434"/>
<text text-anchor="middle" x="434" y="-179.434" font-family="Helvetica,sans-Serif" font-size="10.00">FrameObject::loadImage</text>
</a>
</g>
</g>
<!-- Node2&#45;&gt;Node7 -->
<g id="edge6" class="edge"><title>Node2&#45;&gt;Node7</title>
<path fill="none" stroke="midnightblue" d="M307.376,-223.809C334.542,-214.754 368.696,-203.369 394.533,-194.757"/>
<polygon fill="midnightblue" stroke="midnightblue" points="395.966,-197.968 404.346,-191.486 393.752,-191.328 395.966,-197.968"/>
</g>
<!-- Node4 -->
<g id="node4" class="node"><title>Node4</title>
<g id="a_node4"><a xlink:href="classYUVSource.html#a12174732ce70dfe8f1e5b842a532b8c9" target="_top" xlink:title="YUVSource::getName">
<polygon fill="white" stroke="black" points="558.5,-267.434 558.5,-286.434 672.5,-286.434 672.5,-267.434 558.5,-267.434"/>
<text text-anchor="middle" x="615.5" y="-274.434" font-family="Helvetica,sans-Serif" font-size="10.00">YUVSource::getName</text>
</a>
</g>
</g>
<!-- Node3&#45;&gt;Node4 -->
<g id="edge3" class="edge"><title>Node3&#45;&gt;Node4</title>
<path fill="none" stroke="midnightblue" d="M500.057,-276.934C515.695,-276.934 532.417,-276.934 548.114,-276.934"/>
<polygon fill="midnightblue" stroke="midnightblue" points="548.26,-280.434 558.26,-276.934 548.26,-273.434 548.26,-280.434"/>
</g>
<!-- Node5 -->
<g id="node5" class="node"><title>Node5</title>
<g id="a_node5"><a xlink:href="classFrameObject.html#a1069def130e7deac035f166084ae4ca8" target="_top" xlink:title="FrameObject::numFrames">
<polygon fill="white" stroke="black" points="550,-305.434 550,-324.434 681,-324.434 681,-305.434 550,-305.434"/>
<text text-anchor="middle" x="615.5" y="-312.434" font-family="Helvetica,sans-Serif" font-size="10.00">FrameObject::numFrames</text>
</a>
</g>
</g>
<!-- Node3&#45;&gt;Node5 -->
<g id="edge4" class="edge"><title>Node3&#45;&gt;Node5</title>
<path fill="none" stroke="midnightblue" d="M500.057,-290.707C519.618,-294.848 540.876,-299.348 559.702,-303.334"/>
<polygon fill="midnightblue" stroke="midnightblue" points="559.085,-306.78 569.593,-305.427 560.534,-299.932 559.085,-306.78"/>
</g>
<!-- Node6 -->
<g id="node6" class="node"><title>Node6</title>
<g id="a_node6"><a xlink:href="classYUVSource.html#afaf713d38c871df33f6e28e9d589c86c" target="_top" xlink:title="YUVSource::getNumberFrames">
<polygon fill="white" stroke="black" points="731,-305.434 731,-324.434 886,-324.434 886,-305.434 731,-305.434"/>
<text text-anchor="middle" x="808.5" y="-312.434" font-family="Helvetica,sans-Serif" font-size="10.00">YUVSource::getNumberFrames</text>
</a>
</g>
</g>
<!-- Node5&#45;&gt;Node6 -->
<g id="edge5" class="edge"><title>Node5&#45;&gt;Node6</title>
<path fill="none" stroke="midnightblue" d="M681.164,-314.934C693.841,-314.934 707.331,-314.934 720.597,-314.934"/>
<polygon fill="midnightblue" stroke="midnightblue" points="720.682,-318.434 730.682,-314.934 720.682,-311.434 720.682,-318.434"/>
</g>
<!-- Node7&#45;&gt;Node4 -->
<g id="edge8" class="edge"><title>Node7&#45;&gt;Node4</title>
<path fill="none" stroke="midnightblue" d="M446.066,-191.513C463.893,-206.512 500.569,-235.613 536,-252.934 545.026,-257.347 555.034,-261.149 564.799,-264.343"/>
<polygon fill="midnightblue" stroke="midnightblue" points="563.849,-267.713 574.437,-267.334 565.924,-261.027 563.849,-267.713"/>
</g>
<!-- Node7&#45;&gt;Node5 -->
<g id="edge7" class="edge"><title>Node7&#45;&gt;Node5</title>
<path fill="none" stroke="midnightblue" d="M443.968,-191.459C456.634,-204.971 480.404,-230.554 500,-252.934 516.419,-271.686 514.825,-282.787 536,-295.934 539.388,-298.038 542.991,-299.908 546.721,-301.572"/>
<polygon fill="midnightblue" stroke="midnightblue" points="545.614,-304.897 556.202,-305.294 548.173,-298.381 545.614,-304.897"/>
</g>
<!-- Node8 -->
<g id="node8" class="node"><title>Node8</title>
<g id="a_node8"><a xlink:href="classYUVSource.html#a592ce352c789f4f5789b11e052b58a33" target="_top" xlink:title="YUVSource::pixelFormat">
<polygon fill="white" stroke="black" points="930,-200.434 930,-219.434 1055,-219.434 1055,-200.434 930,-200.434"/>
<text text-anchor="middle" x="992.5" y="-207.434" font-family="Helvetica,sans-Serif" font-size="10.00">YUVSource::pixelFormat</text>
</a>
</g>
</g>
<!-- Node7&#45;&gt;Node8 -->
<g id="edge9" class="edge"><title>Node7&#45;&gt;Node8</title>
<path fill="none" stroke="midnightblue" d="M454.143,-191.519C474.027,-200.898 506.324,-214.536 536,-219.934 669.757,-244.264 829.231,-231.417 919.597,-220.346"/>
<polygon fill="midnightblue" stroke="midnightblue" points="920.244,-223.792 929.732,-219.076 919.374,-216.847 920.244,-223.792"/>
</g>
<!-- Node9 -->
<g id="node9" class="node"><title>Node9</title>
<g id="a_node9"><a xlink:href="classYUVSource.html#aff9d7390aa2cdb93376c69ede52b1e30" target="_top" xlink:title="YUVSource::getOneFrame">
<polygon fill="white" stroke="black" points="548.5,-115.434 548.5,-134.434 682.5,-134.434 682.5,-115.434 548.5,-115.434"/>
<text text-anchor="middle" x="615.5" y="-122.434" font-family="Helvetica,sans-Serif" font-size="10.00">YUVSource::getOneFrame</text>
</a>
</g>
</g>
<!-- Node7&#45;&gt;Node9 -->
<g id="edge10" class="edge"><title>Node7&#45;&gt;Node9</title>
<path fill="none" stroke="midnightblue" d="M457.988,-172.364C478.28,-164.139 508.784,-152.313 536,-143.934 544.091,-141.443 552.732,-139.071 561.213,-136.899"/>
<polygon fill="midnightblue" stroke="midnightblue" points="562.197,-140.261 571.054,-134.446 560.504,-133.468 562.197,-140.261"/>
</g>
<!-- Node10 -->
<g id="node10" class="node"><title>Node10</title>
<g id="a_node10"><a xlink:href="classFrameObject.html#a3157b2afa82e71a5ebd93ac6dd25de6b" target="_top" xlink:title="FrameObject::doApplyYUVMath">
<polygon fill="white" stroke="black" points="537,-77.4343 537,-96.4343 694,-96.4343 694,-77.4343 537,-77.4343"/>
<text text-anchor="middle" x="615.5" y="-84.4343" font-family="Helvetica,sans-Serif" font-size="10.00">FrameObject::doApplyYUVMath</text>
</a>
</g>
</g>
<!-- Node7&#45;&gt;Node10 -->
<g id="edge11" class="edge"><title>Node7&#45;&gt;Node10</title>
<path fill="none" stroke="midnightblue" d="M444.697,-172.426C461.712,-156.282 498.696,-123.554 536,-105.934 541.198,-103.479 546.745,-101.323 552.395,-99.4328"/>
<polygon fill="midnightblue" stroke="midnightblue" points="553.426,-102.778 561.959,-96.4978 551.372,-96.0858 553.426,-102.778"/>
</g>
<!-- Node11 -->
<g id="node11" class="node"><title>Node11</title>
<g id="a_node11"><a xlink:href="classFrameObject.html#a38084be9c862db6fea97d202231144ec" target="_top" xlink:title="FrameObject::applyYUVMath">
<polygon fill="white" stroke="black" points="543,-191.434 543,-210.434 688,-210.434 688,-191.434 543,-191.434"/>
<text text-anchor="middle" x="615.5" y="-198.434" font-family="Helvetica,sans-Serif" font-size="10.00">FrameObject::applyYUVMath</text>
</a>
</g>
</g>
<!-- Node7&#45;&gt;Node11 -->
<g id="edge12" class="edge"><title>Node7&#45;&gt;Node11</title>
<path fill="none" stroke="midnightblue" d="M496.021,-188.393C507.773,-189.637 520.259,-190.959 532.548,-192.26"/>
<polygon fill="midnightblue" stroke="midnightblue" points="532.492,-195.773 542.805,-193.345 533.229,-188.812 532.492,-195.773"/>
</g>
<!-- Node13 -->
<g id="node13" class="node"><title>Node13</title>
<g id="a_node13"><a xlink:href="classYUVSource.html#a7e554f2c626688704099e00cc4ece029" target="_top" xlink:title="YUVSource::pixelFormatList">
<polygon fill="white" stroke="black" points="922,-96.4343 922,-115.434 1063,-115.434 1063,-96.4343 922,-96.4343"/>
<text text-anchor="middle" x="992.5" y="-103.434" font-family="Helvetica,sans-Serif" font-size="10.00">YUVSource::pixelFormatList</text>
</a>
</g>
</g>
<!-- Node7&#45;&gt;Node13 -->
<g id="edge18" class="edge"><title>Node7&#45;&gt;Node13</title>
<path fill="none" stroke="midnightblue" d="M437.804,-172.424C446.674,-144.299 477.082,-61.5238 536,-29.9343 684.092,49.4667 895.01,-52.087 966.618,-91.5178"/>
<polygon fill="midnightblue" stroke="midnightblue" points="964.966,-94.6042 975.403,-96.4312 968.384,-88.4949 964.966,-94.6042"/>
</g>
<!-- Node14 -->
<g id="node14" class="node"><title>Node14</title>
<g id="a_node14"><a xlink:href="classFrameObject.html#acd2367ffa54180853cd3ee901aa85304" target="_top" xlink:title="FrameObject::convertYUV2RGB">
<polygon fill="white" stroke="black" points="536,-153.434 536,-172.434 695,-172.434 695,-153.434 536,-153.434"/>
<text text-anchor="middle" x="615.5" y="-160.434" font-family="Helvetica,sans-Serif" font-size="10.00">FrameObject::convertYUV2RGB</text>
</a>
</g>
</g>
<!-- Node7&#45;&gt;Node14 -->
<g id="edge16" class="edge"><title>Node7&#45;&gt;Node14</title>
<path fill="none" stroke="midnightblue" d="M496.021,-175.475C505.626,-174.459 515.721,-173.39 525.798,-172.323"/>
<polygon fill="midnightblue" stroke="midnightblue" points="526.275,-175.793 535.851,-171.259 525.538,-168.831 526.275,-175.793"/>
</g>
<!-- Node15 -->
<g id="node15" class="node"><title>Node15</title>
<g id="a_node15"><a xlink:href="classDisplayObject.html#a790f4bdf4ecb24617ea7db5837c3048c" target="_top" xlink:title="DisplayObject::setInfo">
<polygon fill="white" stroke="black" points="558.5,-39.4343 558.5,-58.4343 672.5,-58.4343 672.5,-39.4343 558.5,-39.4343"/>
<text text-anchor="middle" x="615.5" y="-46.4343" font-family="Helvetica,sans-Serif" font-size="10.00">DisplayObject::setInfo</text>
</a>
</g>
</g>
<!-- Node7&#45;&gt;Node15 -->
<g id="edge19" class="edge"><title>Node7&#45;&gt;Node15</title>
<path fill="none" stroke="midnightblue" d="M440.676,-172.204C454.168,-149.985 490.459,-95.3341 536,-67.9343 540.066,-65.4878 544.429,-63.3561 548.94,-61.4988"/>
<polygon fill="midnightblue" stroke="midnightblue" points="550.165,-64.7774 558.357,-58.0585 547.763,-58.2024 550.165,-64.7774"/>
</g>
<!-- Node12 -->
<g id="node12" class="node"><title>Node12</title>
<g id="a_node12"><a xlink:href="classYUVSource.html#a11ea64b650d6086177fa0f7a1f3f323d" target="_top" xlink:title="YUVSource::bitsPerSample">
<polygon fill="white" stroke="black" points="739.5,-172.434 739.5,-191.434 877.5,-191.434 877.5,-172.434 739.5,-172.434"/>
<text text-anchor="middle" x="808.5" y="-179.434" font-family="Helvetica,sans-Serif" font-size="10.00">YUVSource::bitsPerSample</text>
</a>
</g>
</g>
<!-- Node11&#45;&gt;Node12 -->
<g id="edge13" class="edge"><title>Node11&#45;&gt;Node12</title>
<path fill="none" stroke="midnightblue" d="M688.165,-193.805C701.492,-192.48 715.482,-191.088 729.001,-189.743"/>
<polygon fill="midnightblue" stroke="midnightblue" points="729.625,-193.198 739.229,-188.726 728.932,-186.233 729.625,-193.198"/>
</g>
<!-- Node12&#45;&gt;Node8 -->
<g id="edge15" class="edge"><title>Node12&#45;&gt;Node8</title>
<path fill="none" stroke="midnightblue" d="M871.371,-191.453C886.841,-193.833 903.566,-196.406 919.48,-198.854"/>
<polygon fill="midnightblue" stroke="midnightblue" points="919.384,-202.381 929.8,-200.442 920.449,-195.462 919.384,-202.381"/>
</g>
<!-- Node12&#45;&gt;Node13 -->
<g id="edge14" class="edge"><title>Node12&#45;&gt;Node13</title>
<path fill="none" stroke="midnightblue" d="M832.55,-172.309C864.55,-158.946 922.595,-134.708 958.986,-119.511"/>
<polygon fill="midnightblue" stroke="midnightblue" points="960.758,-122.565 968.637,-115.482 958.06,-116.105 960.758,-122.565"/>
</g>
<!-- Node14&#45;&gt;Node12 -->
<g id="edge17" class="edge"><title>Node14&#45;&gt;Node12</title>
<path fill="none" stroke="midnightblue" d="M695.014,-170.745C706.279,-171.865 717.87,-173.018 729.132,-174.139"/>
<polygon fill="midnightblue" stroke="midnightblue" points="729.066,-177.649 739.364,-175.156 729.759,-170.684 729.066,-177.649"/>
</g>
</g>
</svg>
