<?xml version="1.0" encoding="UTF-8" standalone="no"?>
<!DOCTYPE svg PUBLIC "-//W3C//DTD SVG 1.1//EN"
 "http://www.w3.org/Graphics/SVG/1.1/DTD/svg11.dtd">
<!-- Generated by graphviz version 2.38.0 (20140413.2041)
 -->
<!-- Title: PListParser::parseElement Pages: 1 -->
<!--zoomable 242 -->
<svg id="main" version="1.1" xmlns="http://www.w3.org/2000/svg" xmlns:xlink="http://www.w3.org/1999/xlink" xml:space="preserve" onload="init(evt)">
<style type="text/css"><![CDATA[
.edge:hover path { stroke: red; }
.edge:hover polygon { stroke: red; fill: red; }
]]></style>
<script type="text/javascript"><![CDATA[
var edges = document.getElementsByTagName('g');
if (edges && edges.length) {
  for (var i=0;i<edges.length;i++) {
    if (edges[i].id.substr(0,4)=='edge') {
      edges[i].setAttribute('class','edge');
    }
  }
}
]]></script>
        <defs>
                <circle id="rim" cx="0" cy="0" r="7"/>
                <circle id="rim2" cx="0" cy="0" r="3.5"/>
                <g id="zoomPlus">
                        <use xlink:href="#rim" fill="#404040">
                                <set attributeName="fill" to="#808080" begin="zoomplus.mouseover" end="zoomplus.mouseout"/>
                        </use>
                        <path d="M-4,0h8M0,-4v8" fill="none" stroke="white" stroke-width="1.5" pointer-events="none"/>
                </g>
                <g id="zoomMin">
                        <use xlink:href="#rim" fill="#404040">
                                <set attributeName="fill" to="#808080" begin="zoomminus.mouseover" end="zoomminus.mouseout"/>
                        </use>
                        <path d="M-4,0h8" fill="none" stroke="white" stroke-width="1.5" pointer-events="none"/>
                </g>
                <g id="dirArrow">
                        <path fill="none" stroke="white" stroke-width="1.5" d="M0,-3.0v7 M-2.5,-0.5L0,-3.0L2.5,-0.5"/>
                </g>
               <g id="resetDef">
                       <use xlink:href="#rim2" fill="#404040">
                               <set attributeName="fill" to="#808080" begin="reset.mouseover" end="reset.mouseout"/>
                       </use>
               </g>
        </defs>

<script type="text/javascript">
var viewWidth = 1242;
var viewHeight = 242;
var sectionId = 'dynsection-5';
</script>
<script xlink:href="svgpan.js"/>
<svg id="graph" class="graph">
<g id="viewport">
<title>PListParser::parseElement</title>
<polygon fill="white" stroke="none" points="-4,4 -4,-237.5 1238,-237.5 1238,4 -4,4"/>
<!-- Node1 -->
<g id="node1" class="node"><title>Node1</title>
<polygon fill="#bfbfbf" stroke="black" points="0,-66.5 0,-85.5 134,-85.5 134,-66.5 0,-66.5"/>
<text text-anchor="middle" x="67" y="-73.5" font-family="Helvetica,sans-Serif" font-size="10.00">PListParser::parseElement</text>
</g>
<!-- Node2 -->
<g id="node2" class="node"><title>Node2</title>
<g id="a_node2"><a xlink:href="classPListParser.html#aeeaf99f020c07a200499b71e5bf4828a" target="_top" xlink:title="PListParser::parsePList">
<polygon fill="white" stroke="black" points="188.5,-104.5 188.5,-123.5 308.5,-123.5 308.5,-104.5 188.5,-104.5"/>
<text text-anchor="middle" x="248.5" y="-111.5" font-family="Helvetica,sans-Serif" font-size="10.00">PListParser::parsePList</text>
</a>
</g>
</g>
<!-- Node1&#45;&gt;Node2 -->
<g id="edge1" class="edge"><title>Node1&#45;&gt;Node2</title>
<path fill="none" stroke="midnightblue" d="M123.177,-87.681C148.633,-93.0699 178.468,-99.3861 202.53,-104.48"/>
<polygon fill="midnightblue" stroke="midnightblue" points="123.804,-84.2361 113.295,-85.589 122.354,-91.0843 123.804,-84.2361"/>
</g>
<!-- Node14 -->
<g id="node14" class="node"><title>Node14</title>
<g id="a_node14"><a xlink:href="classPListParser.html#ad3c04e6d8bd25a3bfe3cc24bad88284c" target="_top" xlink:title="PListParser::parseArrayElement">
<polygon fill="white" stroke="black" points="170,-66.5 170,-85.5 327,-85.5 327,-66.5 170,-66.5"/>
<text text-anchor="middle" x="248.5" y="-73.5" font-family="Helvetica,sans-Serif" font-size="10.00">PListParser::parseArrayElement</text>
</a>
</g>
</g>
<!-- Node1&#45;&gt;Node14 -->
<g id="edge15" class="edge"><title>Node1&#45;&gt;Node14</title>
<path fill="none" stroke="midnightblue" d="M144.252,-69.3183C152.679,-69.2324 161.268,-69.2275 169.713,-69.3036"/>
<polygon fill="midnightblue" stroke="midnightblue" points="144.024,-65.8211 134.074,-69.4632 144.123,-72.8204 144.024,-65.8211"/>
</g>
<!-- Node15 -->
<g id="node15" class="node"><title>Node15</title>
<g id="a_node15"><a xlink:href="classPListParser.html#a601716c73380ba67d8e6b0973aa0ee63" target="_top" xlink:title="PListParser::parseDictElement">
<polygon fill="white" stroke="black" points="172.5,-28.5 172.5,-47.5 324.5,-47.5 324.5,-28.5 172.5,-28.5"/>
<text text-anchor="middle" x="248.5" y="-35.5" font-family="Helvetica,sans-Serif" font-size="10.00">PListParser::parseDictElement</text>
</a>
</g>
</g>
<!-- Node1&#45;&gt;Node15 -->
<g id="edge17" class="edge"><title>Node1&#45;&gt;Node15</title>
<path fill="none" stroke="midnightblue" d="M100.961,-63.6559C121.021,-58.2636 147.504,-52.2228 172.434,-47.2223"/>
<polygon fill="midnightblue" stroke="midnightblue" points="99.7904,-60.3488 91.099,-66.4076 101.672,-67.0913 99.7904,-60.3488"/>
</g>
<!-- Node3 -->
<g id="node3" class="node"><title>Node3</title>
<g id="a_node3"><a xlink:href="classMainWindow.html#a2d8cea1d443550a8f14ce8c80d2608c6" target="_top" xlink:title="MainWindow::loadPlaylistFile">
<polygon fill="white" stroke="black" points="363,-104.5 363,-123.5 508,-123.5 508,-104.5 363,-104.5"/>
<text text-anchor="middle" x="435.5" y="-111.5" font-family="Helvetica,sans-Serif" font-size="10.00">MainWindow::loadPlaylistFile</text>
</a>
</g>
</g>
<!-- Node2&#45;&gt;Node3 -->
<g id="edge2" class="edge"><title>Node2&#45;&gt;Node3</title>
<path fill="none" stroke="midnightblue" d="M318.827,-114C333.171,-114 348.31,-114 362.739,-114"/>
<polygon fill="midnightblue" stroke="midnightblue" points="318.544,-110.5 308.544,-114 318.544,-117.5 318.544,-110.5"/>
</g>
<!-- Node4 -->
<g id="node4" class="node"><title>Node4</title>
<g id="a_node4"><a xlink:href="classMainWindow.html#a8ef1be3cb02e12d68d12375d1a7a0ced" target="_top" xlink:title="loads a list of yuv/csv files ">
<polygon fill="white" stroke="black" points="544,-104.5 544,-123.5 662,-123.5 662,-104.5 544,-104.5"/>
<text text-anchor="middle" x="603" y="-111.5" font-family="Helvetica,sans-Serif" font-size="10.00">MainWindow::loadFiles</text>
</a>
</g>
</g>
<!-- Node3&#45;&gt;Node4 -->
<g id="edge3" class="edge"><title>Node3&#45;&gt;Node4</title>
<path fill="none" stroke="midnightblue" d="M518.279,-114C526.95,-114 535.636,-114 543.955,-114"/>
<polygon fill="midnightblue" stroke="midnightblue" points="518.128,-110.5 508.128,-114 518.128,-117.5 518.128,-110.5"/>
</g>
<!-- Node5 -->
<g id="node5" class="node"><title>Node5</title>
<g id="a_node5"><a xlink:href="classDisplaySplitWidget.html#ac1d4ced58b2ac2b08153694a5de6232e" target="_top" xlink:title="DisplaySplitWidget\l::dropEvent">
<polygon fill="white" stroke="black" points="721.5,-203 721.5,-233 821.5,-233 821.5,-203 721.5,-203"/>
<text text-anchor="start" x="729.5" y="-221" font-family="Helvetica,sans-Serif" font-size="10.00">DisplaySplitWidget</text>
<text text-anchor="middle" x="771.5" y="-210" font-family="Helvetica,sans-Serif" font-size="10.00">::dropEvent</text>
</a>
</g>
</g>
<!-- Node4&#45;&gt;Node5 -->
<g id="edge4" class="edge"><title>Node4&#45;&gt;Node5</title>
<path fill="none" stroke="midnightblue" d="M620.223,-130.911C637.914,-148.517 667.762,-175.868 698,-193 705.298,-197.135 713.395,-200.749 721.455,-203.847"/>
<polygon fill="midnightblue" stroke="midnightblue" points="622.507,-128.241 612.993,-123.579 617.523,-133.157 622.507,-128.241"/>
</g>
<!-- Node6 -->
<g id="node6" class="node"><title>Node6</title>
<g id="a_node6"><a xlink:href="classMainWindow.html#a288b768c3c21a9171bdc56fe845ece8b" target="_top" xlink:title="Shows the file open dialog and loads all selected Files. ">
<polygon fill="white" stroke="black" points="713.5,-126.5 713.5,-145.5 829.5,-145.5 829.5,-126.5 713.5,-126.5"/>
<text text-anchor="middle" x="771.5" y="-133.5" font-family="Helvetica,sans-Serif" font-size="10.00">MainWindow::openFile</text>
</a>
</g>
</g>
<!-- Node4&#45;&gt;Node6 -->
<g id="edge5" class="edge"><title>Node4&#45;&gt;Node6</title>
<path fill="none" stroke="midnightblue" d="M672.504,-123.052C686.106,-124.849 700.251,-126.718 713.422,-128.458"/>
<polygon fill="midnightblue" stroke="midnightblue" points="672.606,-119.535 662.234,-121.695 671.689,-126.474 672.606,-119.535"/>
</g>
<!-- Node10 -->
<g id="node10" class="node"><title>Node10</title>
<g id="a_node10"><a xlink:href="classMainWindow.html#a935316315edb9b7af42657da20be0e54" target="_top" xlink:title="MainWindow::openRecentFile">
<polygon fill="white" stroke="black" points="698,-164.5 698,-183.5 845,-183.5 845,-164.5 698,-164.5"/>
<text text-anchor="middle" x="771.5" y="-171.5" font-family="Helvetica,sans-Serif" font-size="10.00">MainWindow::openRecentFile</text>
</a>
</g>
</g>
<!-- Node4&#45;&gt;Node10 -->
<g id="edge10" class="edge"><title>Node4&#45;&gt;Node10</title>
<path fill="none" stroke="midnightblue" d="M632.719,-127.911C651.099,-136.465 675.614,-147.237 698,-155 708.081,-158.496 719.142,-161.701 729.521,-164.444"/>
<polygon fill="midnightblue" stroke="midnightblue" points="633.99,-124.64 623.452,-123.544 631.006,-130.972 633.99,-124.64"/>
</g>
<!-- Node11 -->
<g id="node11" class="node"><title>Node11</title>
<g id="a_node11"><a xlink:href="classPlaylistTreeWidget.html#a295170eb269cc67050ea0b575cd0ab53" target="_top" xlink:title="PlaylistTreeWidget\l::dropEvent">
<polygon fill="white" stroke="black" points="722,-77 722,-107 821,-107 821,-77 722,-77"/>
<text text-anchor="start" x="730" y="-95" font-family="Helvetica,sans-Serif" font-size="10.00">PlaylistTreeWidget</text>
<text text-anchor="middle" x="771.5" y="-84" font-family="Helvetica,sans-Serif" font-size="10.00">::dropEvent</text>
</a>
</g>
</g>
<!-- Node4&#45;&gt;Node11 -->
<g id="edge12" class="edge"><title>Node4&#45;&gt;Node11</title>
<path fill="none" stroke="midnightblue" d="M672.446,-104.956C689.055,-102.762 706.476,-100.46 721.95,-98.4151"/>
<polygon fill="midnightblue" stroke="midnightblue" points="671.689,-101.526 662.234,-106.305 672.606,-108.465 671.689,-101.526"/>
</g>
<!-- Node12 -->
<g id="node12" class="node"><title>Node12</title>
<g id="a_node12"><a xlink:href="classYUViewApp.html#ac0f5381cc5b703a9ea704b5eedab4b7f" target="_top" xlink:title="YUViewApp::YUViewApp">
<polygon fill="white" stroke="black" points="707,-38.5 707,-57.5 836,-57.5 836,-38.5 707,-38.5"/>
<text text-anchor="middle" x="771.5" y="-45.5" font-family="Helvetica,sans-Serif" font-size="10.00">YUViewApp::YUViewApp</text>
</a>
</g>
</g>
<!-- Node4&#45;&gt;Node12 -->
<g id="edge13" class="edge"><title>Node4&#45;&gt;Node12</title>
<path fill="none" stroke="midnightblue" d="M630.236,-99.5226C648.773,-89.7036 674.417,-76.9344 698,-68 708.379,-64.0682 719.858,-60.5424 730.563,-57.5865"/>
<polygon fill="midnightblue" stroke="midnightblue" points="628.394,-96.5388 621.238,-104.352 631.705,-102.706 628.394,-96.5388"/>
</g>
<!-- Node13 -->
<g id="node13" class="node"><title>Node13</title>
<g id="a_node13"><a xlink:href="classYUViewApp.html#a2f5f937d6677018ef73a5ffc248f9891" target="_top" xlink:title="YUViewApp::event">
<polygon fill="white" stroke="black" points="721.5,-0.5 721.5,-19.5 821.5,-19.5 821.5,-0.5 721.5,-0.5"/>
<text text-anchor="middle" x="771.5" y="-7.5" font-family="Helvetica,sans-Serif" font-size="10.00">YUViewApp::event</text>
</a>
</g>
</g>
<!-- Node4&#45;&gt;Node13 -->
<g id="edge14" class="edge"><title>Node4&#45;&gt;Node13</title>
<path fill="none" stroke="midnightblue" d="M618.389,-96.747C635.435,-77.417 665.631,-46.5042 698,-29 705.211,-25.1007 713.263,-21.9698 721.306,-19.4654"/>
<polygon fill="midnightblue" stroke="midnightblue" points="615.596,-94.626 611.72,-104.486 620.899,-99.1951 615.596,-94.626"/>
</g>
<!-- Node7 -->
<g id="node7" class="node"><title>Node7</title>
<g id="a_node7"><a xlink:href="classMainWindow.html#a9df7443ce5f907903438bb6a9abe9a33" target="_top" xlink:title="MainWindow::createMenusAnd\lActions">
<polygon fill="white" stroke="black" points="896,-159 896,-189 1048,-189 1048,-159 896,-159"/>
<text text-anchor="start" x="904" y="-177" font-family="Helvetica,sans-Serif" font-size="10.00">MainWindow::createMenusAnd</text>
<text text-anchor="middle" x="972" y="-166" font-family="Helvetica,sans-Serif" font-size="10.00">Actions</text>
</a>
</g>
</g>
<!-- Node6&#45;&gt;Node7 -->
<g id="edge6" class="edge"><title>Node6&#45;&gt;Node7</title>
<path fill="none" stroke="midnightblue" d="M832.254,-147.439C852.298,-151.276 874.912,-155.605 895.974,-159.637"/>
<polygon fill="midnightblue" stroke="midnightblue" points="832.813,-143.983 822.334,-145.54 831.497,-150.858 832.813,-143.983"/>
</g>
<!-- Node9 -->
<g id="node9" class="node"><title>Node9</title>
<g id="a_node9"><a xlink:href="classMainWindow.html#aaba5c236313378986c42c4a634c4cfb9" target="_top" xlink:title="MainWindow::onCustomContextMenu">
<polygon fill="white" stroke="black" points="881,-120.5 881,-139.5 1063,-139.5 1063,-120.5 881,-120.5"/>
<text text-anchor="middle" x="972" y="-127.5" font-family="Helvetica,sans-Serif" font-size="10.00">MainWindow::onCustomContextMenu</text>
</a>
</g>
</g>
<!-- Node6&#45;&gt;Node9 -->
<g id="edge8" class="edge"><title>Node6&#45;&gt;Node9</title>
<path fill="none" stroke="midnightblue" d="M840.015,-133.959C853.189,-133.561 867.198,-133.138 880.968,-132.721"/>
<polygon fill="midnightblue" stroke="midnightblue" points="839.538,-130.472 829.648,-134.273 839.749,-137.469 839.538,-130.472"/>
</g>
<!-- Node8 -->
<g id="node8" class="node"><title>Node8</title>
<g id="a_node8"><a xlink:href="classMainWindow.html#a8b244be8b7b7db1b08de2a2acb9409db" target="_top" xlink:title="MainWindow::MainWindow">
<polygon fill="white" stroke="black" points="1099,-142.5 1099,-161.5 1234,-161.5 1234,-142.5 1099,-142.5"/>
<text text-anchor="middle" x="1166.5" y="-149.5" font-family="Helvetica,sans-Serif" font-size="10.00">MainWindow::MainWindow</text>
</a>
</g>
</g>
<!-- Node7&#45;&gt;Node8 -->
<g id="edge7" class="edge"><title>Node7&#45;&gt;Node8</title>
<path fill="none" stroke="midnightblue" d="M1058.5,-164.229C1071.99,-162.687 1085.77,-161.112 1098.75,-159.628"/>
<polygon fill="midnightblue" stroke="midnightblue" points="1057.79,-160.787 1048.25,-165.4 1058.59,-167.742 1057.79,-160.787"/>
</g>
<!-- Node9&#45;&gt;Node8 -->
<g id="edge9" class="edge"><title>Node9&#45;&gt;Node8</title>
<path fill="none" stroke="midnightblue" d="M1066.36,-140.67C1077.34,-141.924 1088.36,-143.185 1098.87,-144.385"/>
<polygon fill="midnightblue" stroke="midnightblue" points="1066.65,-137.18 1056.31,-139.522 1065.85,-144.134 1066.65,-137.18"/>
</g>
<!-- Node10&#45;&gt;Node7 -->
<g id="edge11" class="edge"><title>Node10&#45;&gt;Node7</title>
<path fill="none" stroke="midnightblue" d="M855.176,-174C868.605,-174 882.45,-174 895.691,-174"/>
<polygon fill="midnightblue" stroke="midnightblue" points="855.006,-170.5 845.006,-174 855.006,-177.5 855.006,-170.5"/>
</g>
<!-- Node14&#45;&gt;Node1 -->
<g id="edge16" class="edge"><title>Node14&#45;&gt;Node1</title>
<path fill="none" stroke="midnightblue" d="M159.641,-82.7487C151.037,-82.7608 142.409,-82.6902 134.074,-82.5368"/>
<polygon fill="midnightblue" stroke="midnightblue" points="159.731,-86.2483 169.713,-82.6964 159.695,-79.2484 159.731,-86.2483"/>
</g>
<!-- Node15&#45;&gt;Node1 -->
<g id="edge18" class="edge"><title>Node15&#45;&gt;Node1</title>
<path fill="none" stroke="midnightblue" d="M214.948,-50.234C192.417,-56.3072 161.641,-63.2204 134.074,-68.5489"/>
<polygon fill="midnightblue" stroke="midnightblue" points="215.992,-53.5765 224.679,-47.5114 214.105,-46.8354 215.992,-53.5765"/>
</g>
</g>
</svg>
        <g id="navigator" transform="translate(0 0)" fill="#404254">
                <rect fill="#f2f5e9" fill-opacity="0.5" stroke="#606060" stroke-width=".5" x="0" y="0" width="60" height="60"/>
                <use id="zoomplus" xlink:href="#zoomPlus" x="17" y="9" onmousedown="handleZoom(evt,'in')"/>
                <use id="zoomminus" xlink:href="#zoomMin" x="42" y="9" onmousedown="handleZoom(evt,'out')"/>
                <use id="reset" xlink:href="#resetDef" x="30" y="36" onmousedown="handleReset()"/>
                <g id="arrowUp" xlink:href="#dirArrow" transform="translate(30 24)" onmousedown="handlePan(0,-1)">
                  <use xlink:href="#rim" fill="#404040">
                        <set attributeName="fill" to="#808080" begin="arrowUp.mouseover" end="arrowUp.mouseout"/>
                  </use>
                  <path fill="none" stroke="white" stroke-width="1.5" d="M0,-3.0v7 M-2.5,-0.5L0,-3.0L2.5,-0.5"/>
                </g>
                <g id="arrowRight" xlink:href="#dirArrow" transform="rotate(90) translate(36 -43)" onmousedown="handlePan(1,0)">
                  <use xlink:href="#rim" fill="#404040">
                        <set attributeName="fill" to="#808080" begin="arrowRight.mouseover" end="arrowRight.mouseout"/>
                  </use>
                  <path fill="none" stroke="white" stroke-width="1.5" d="M0,-3.0v7 M-2.5,-0.5L0,-3.0L2.5,-0.5"/>
                </g>
                <g id="arrowDown" xlink:href="#dirArrow" transform="rotate(180) translate(-30 -48)" onmousedown="handlePan(0,1)">
                  <use xlink:href="#rim" fill="#404040">
                        <set attributeName="fill" to="#808080" begin="arrowDown.mouseover" end="arrowDown.mouseout"/>
                  </use>
                  <path fill="none" stroke="white" stroke-width="1.5" d="M0,-3.0v7 M-2.5,-0.5L0,-3.0L2.5,-0.5"/>
                </g>
                <g id="arrowLeft" xlink:href="#dirArrow" transform="rotate(270) translate(-36 17)" onmousedown="handlePan(-1,0)">
                  <use xlink:href="#rim" fill="#404040">
                        <set attributeName="fill" to="#808080" begin="arrowLeft.mouseover" end="arrowLeft.mouseout"/>
                  </use>
                  <path fill="none" stroke="white" stroke-width="1.5" d="M0,-3.0v7 M-2.5,-0.5L0,-3.0L2.5,-0.5"/>
                </g>
        </g>
        <svg viewBox="0 0 15 15" width="100%" height="30px" preserveAspectRatio="xMaxYMin meet">
         <g id="arrow_out" transform="scale(0.3 0.3)">
          <a xlink:href="classPListParser_a23710a0d61733745542a2296393df556_icgraph_org.svg" target="_base">
           <rect id="button" ry="5" rx="5" y="6" x="6" height="38" width="38"
                fill="#f2f5e9" fill-opacity="0.5" stroke="#606060" stroke-width="1.0"/>
           <path id="arrow"
             d="M 11.500037,31.436501 C 11.940474,20.09759 22.043105,11.32322 32.158766,21.979434 L 37.068811,17.246167 C 37.068811,17.246167 37.088388,32 37.088388,32 L 22.160133,31.978069 C 22.160133,31.978069 26.997745,27.140456 26.997745,27.140456 C 18.528582,18.264221 13.291696,25.230495 11.500037,31.436501 z"
             style="fill:#404040;"/>
          </a>
         </g>
        </svg>
</svg>
