<?xml version="1.0" encoding="UTF-8" standalone="no"?>
<!DOCTYPE svg PUBLIC "-//W3C//DTD SVG 1.1//EN"
 "http://www.w3.org/Graphics/SVG/1.1/DTD/svg11.dtd">
<!-- Generated by graphviz version 2.38.0 (20140413.2041)
 -->
<!-- Title: YUVFile::getStatus Pages: 1 -->
<svg width="632pt" height="104pt"
 viewBox="0.00 0.00 632.00 104.00" xmlns="http://www.w3.org/2000/svg" xmlns:xlink="http://www.w3.org/1999/xlink">
<g id="graph0" class="graph" transform="scale(1 1) rotate(0) translate(4 100)">
<title>YUVFile::getStatus</title>
<polygon fill="white" stroke="none" points="-4,4 -4,-100 628,-100 628,4 -4,4"/>
<!-- Node1 -->
<g id="node1" class="node"><title>Node1</title>
<polygon fill="#bfbfbf" stroke="black" points="0,-57.5 0,-76.5 101,-76.5 101,-57.5 0,-57.5"/>
<text text-anchor="middle" x="50.5" y="-64.5" font-family="Helvetica,sans-Serif" font-size="10.00">YUVFile::getStatus</text>
</g>
<!-- Node2 -->
<g id="node2" class="node"><title>Node2</title>
<g id="a_node2"><a xlink:href="classYUVFile.html#a1163bf311baeb46ba404b03b4b68d309" target="_top" xlink:title="YUVFile::isFormatValid">
<polygon fill="white" stroke="black" points="137,-57.5 137,-76.5 256,-76.5 256,-57.5 137,-57.5"/>
<text text-anchor="middle" x="196.5" y="-64.5" font-family="Helvetica,sans-Serif" font-size="10.00">YUVFile::isFormatValid</text>
</a>
</g>
</g>
<!-- Node1&#45;&gt;Node2 -->
<g id="edge1" class="edge"><title>Node1&#45;&gt;Node2</title>
<path fill="none" stroke="midnightblue" d="M101.057,-67C109.36,-67 118.106,-67 126.788,-67"/>
<polygon fill="midnightblue" stroke="midnightblue" points="126.92,-70.5001 136.92,-67 126.92,-63.5001 126.92,-70.5001"/>
</g>
<!-- Node3 -->
<g id="node3" class="node"><title>Node3</title>
<g id="a_node3"><a xlink:href="classYUVSource.html#a78500be60fb04caee953447fa2a497e7" target="_top" xlink:title="YUVSource::isFormatValid">
<polygon fill="white" stroke="black" points="295.5,-76.5 295.5,-95.5 429.5,-95.5 429.5,-76.5 295.5,-76.5"/>
<text text-anchor="middle" x="362.5" y="-83.5" font-family="Helvetica,sans-Serif" font-size="10.00">YUVSource::isFormatValid</text>
</a>
</g>
</g>
<!-- Node2&#45;&gt;Node3 -->
<g id="edge2" class="edge"><title>Node2&#45;&gt;Node3</title>
<path fill="none" stroke="midnightblue" d="M256.245,-73.8058C265.658,-74.8964 275.518,-76.0386 285.268,-77.1682"/>
<polygon fill="midnightblue" stroke="midnightblue" points="285.029,-80.6639 295.365,-78.3381 285.835,-73.7104 285.029,-80.6639"/>
</g>
<!-- Node5 -->
<g id="node5" class="node"><title>Node5</title>
<g id="a_node5"><a xlink:href="classYUVSource.html#a1fc5a320feef3ca2e3d90c2606276f17" target="_top" xlink:title="YUVSource::bytesPerFrame">
<polygon fill="white" stroke="black" points="292,-38.5 292,-57.5 433,-57.5 433,-38.5 292,-38.5"/>
<text text-anchor="middle" x="362.5" y="-45.5" font-family="Helvetica,sans-Serif" font-size="10.00">YUVSource::bytesPerFrame</text>
</a>
</g>
</g>
<!-- Node2&#45;&gt;Node5 -->
<g id="edge4" class="edge"><title>Node2&#45;&gt;Node5</title>
<path fill="none" stroke="midnightblue" d="M256.245,-60.1942C264.568,-59.2299 273.24,-58.2252 281.877,-57.2246"/>
<polygon fill="midnightblue" stroke="midnightblue" points="282.446,-60.6822 291.977,-56.0545 281.641,-53.7287 282.446,-60.6822"/>
</g>
<!-- Node4 -->
<g id="node4" class="node"><title>Node4</title>
<g id="a_node4"><a xlink:href="classYUVSource.html#afaf713d38c871df33f6e28e9d589c86c" target="_top" xlink:title="YUVSource::getNumberFrames">
<polygon fill="white" stroke="black" points="469,-76.5 469,-95.5 624,-95.5 624,-76.5 469,-76.5"/>
<text text-anchor="middle" x="546.5" y="-83.5" font-family="Helvetica,sans-Serif" font-size="10.00">YUVSource::getNumberFrames</text>
</a>
</g>
</g>
<!-- Node3&#45;&gt;Node4 -->
<g id="edge3" class="edge"><title>Node3&#45;&gt;Node4</title>
<path fill="none" stroke="midnightblue" d="M429.721,-86C439.15,-86 448.964,-86 458.713,-86"/>
<polygon fill="midnightblue" stroke="midnightblue" points="458.83,-89.5001 468.83,-86 458.83,-82.5001 458.83,-89.5001"/>
</g>
<!-- Node6 -->
<g id="node6" class="node"><title>Node6</title>
<g id="a_node6"><a xlink:href="classYUVSource.html#a7e554f2c626688704099e00cc4ece029" target="_top" xlink:title="YUVSource::pixelFormatList">
<polygon fill="white" stroke="black" points="476,-38.5 476,-57.5 617,-57.5 617,-38.5 476,-38.5"/>
<text text-anchor="middle" x="546.5" y="-45.5" font-family="Helvetica,sans-Serif" font-size="10.00">YUVSource::pixelFormatList</text>
</a>
</g>
</g>
<!-- Node5&#45;&gt;Node6 -->
<g id="edge5" class="edge"><title>Node5&#45;&gt;Node6</title>
<path fill="none" stroke="midnightblue" d="M433.085,-48C443.732,-48 454.793,-48 465.64,-48"/>
<polygon fill="midnightblue" stroke="midnightblue" points="465.953,-51.5001 475.953,-48 465.953,-44.5001 465.953,-51.5001"/>
</g>
<!-- Node7 -->
<g id="node7" class="node"><title>Node7</title>
<g id="a_node7"><a xlink:href="classYUVSource.html#a592ce352c789f4f5789b11e052b58a33" target="_top" xlink:title="YUVSource::pixelFormat">
<polygon fill="white" stroke="black" points="484,-0.5 484,-19.5 609,-19.5 609,-0.5 484,-0.5"/>
<text text-anchor="middle" x="546.5" y="-7.5" font-family="Helvetica,sans-Serif" font-size="10.00">YUVSource::pixelFormat</text>
</a>
</g>
</g>
<!-- Node5&#45;&gt;Node7 -->
<g id="edge6" class="edge"><title>Node5&#45;&gt;Node7</title>
<path fill="none" stroke="midnightblue" d="M409.426,-38.411C433.876,-33.3061 464.133,-26.9887 489.903,-21.6082"/>
<polygon fill="midnightblue" stroke="midnightblue" points="490.83,-24.9901 499.904,-19.5201 489.4,-18.1378 490.83,-24.9901"/>
</g>
</g>
</svg>
