<?xml version="1.0" encoding="UTF-8" standalone="no"?>
<!DOCTYPE svg PUBLIC "-//W3C//DTD SVG 1.1//EN"
 "http://www.w3.org/Graphics/SVG/1.1/DTD/svg11.dtd">
<!-- Generated by graphviz version 2.38.0 (20140413.2041)
 -->
<!-- Title: MainWindow::editTextFrame Pages: 1 -->
<svg width="539pt" height="78pt"
 viewBox="0.00 0.00 539.00 77.50" xmlns="http://www.w3.org/2000/svg" xmlns:xlink="http://www.w3.org/1999/xlink">
<g id="graph0" class="graph" transform="scale(1 1) rotate(0) translate(4 73.5)">
<title>MainWindow::editTextFrame</title>
<polygon fill="white" stroke="none" points="-4,4 -4,-73.5 535,-73.5 535,4 -4,4"/>
<!-- Node1 -->
<g id="node1" class="node"><title>Node1</title>
<polygon fill="#bfbfbf" stroke="black" points="0,-28 0,-47 142,-47 142,-28 0,-28"/>
<text text-anchor="middle" x="71" y="-35" font-family="Helvetica,sans-Serif" font-size="10.00">MainWindow::editTextFrame</text>
</g>
<!-- Node2 -->
<g id="node2" class="node"><title>Node2</title>
<g id="a_node2"><a xlink:href="classMainWindow.html#aaba5c236313378986c42c4a634c4cfb9" target="_top" xlink:title="MainWindow::onCustomContextMenu">
<polygon fill="white" stroke="black" points="178,-50 178,-69 360,-69 360,-50 178,-50"/>
<text text-anchor="middle" x="269" y="-57" font-family="Helvetica,sans-Serif" font-size="10.00">MainWindow::onCustomContextMenu</text>
</a>
</g>
</g>
<!-- Node1&#45;&gt;Node2 -->
<g id="edge1" class="edge"><title>Node1&#45;&gt;Node2</title>
<path fill="none" stroke="midnightblue" d="M152.298,-46.513C162.493,-47.6574 172.954,-48.8315 183.217,-49.9836"/>
<polygon fill="midnightblue" stroke="midnightblue" points="152.535,-43.0177 142.207,-45.3804 151.754,-49.9741 152.535,-43.0177"/>
</g>
<!-- Node4 -->
<g id="node4" class="node"><title>Node4</title>
<g id="a_node4"><a xlink:href="classMainWindow.html#ab18c663524e2c130759c0ca960129ea4" target="_top" xlink:title="MainWindow::onItemDouble\lClicked">
<polygon fill="white" stroke="black" points="199,-0.5 199,-30.5 339,-30.5 339,-0.5 199,-0.5"/>
<text text-anchor="start" x="207" y="-18.5" font-family="Helvetica,sans-Serif" font-size="10.00">MainWindow::onItemDouble</text>
<text text-anchor="middle" x="269" y="-7.5" font-family="Helvetica,sans-Serif" font-size="10.00">Clicked</text>
</a>
</g>
</g>
<!-- Node1&#45;&gt;Node4 -->
<g id="edge3" class="edge"><title>Node1&#45;&gt;Node4</title>
<path fill="none" stroke="midnightblue" d="M152.276,-28.4894C167.759,-26.7515 183.853,-24.9451 198.941,-23.2515"/>
<polygon fill="midnightblue" stroke="midnightblue" points="151.754,-25.0259 142.207,-29.6196 152.535,-31.9823 151.754,-25.0259"/>
</g>
<!-- Node3 -->
<g id="node3" class="node"><title>Node3</title>
<g id="a_node3"><a xlink:href="classMainWindow.html#a8b244be8b7b7db1b08de2a2acb9409db" target="_top" xlink:title="MainWindow::MainWindow">
<polygon fill="white" stroke="black" points="396,-28 396,-47 531,-47 531,-28 396,-28"/>
<text text-anchor="middle" x="463.5" y="-35" font-family="Helvetica,sans-Serif" font-size="10.00">MainWindow::MainWindow</text>
</a>
</g>
</g>
<!-- Node2&#45;&gt;Node3 -->
<g id="edge2" class="edge"><title>Node2&#45;&gt;Node3</title>
<path fill="none" stroke="midnightblue" d="M363.363,-48.8299C374.339,-47.5756 385.365,-46.3155 395.869,-45.115"/>
<polygon fill="midnightblue" stroke="midnightblue" points="362.852,-45.3655 353.314,-49.9784 363.646,-52.3202 362.852,-45.3655"/>
</g>
<!-- Node4&#45;&gt;Node3 -->
<g id="edge4" class="edge"><title>Node4&#45;&gt;Node3</title>
<path fill="none" stroke="midnightblue" d="M349.283,-24.5609C364.747,-26.3282 380.815,-28.1645 395.82,-29.8794"/>
<polygon fill="midnightblue" stroke="midnightblue" points="349.558,-21.0696 339.225,-23.4114 348.763,-28.0243 349.558,-21.0696"/>
</g>
</g>
</svg>
