<?xml version="1.0" encoding="UTF-8" standalone="no"?>
<!DOCTYPE svg PUBLIC "-//W3C//DTD SVG 1.1//EN"
 "http://www.w3.org/Graphics/SVG/1.1/DTD/svg11.dtd">
<!-- Generated by graphviz version 2.38.0 (20140413.2041)
 -->
<!-- Title: MainWindow::updateSelectedItems Pages: 1 -->
<svg width="723pt" height="186pt"
 viewBox="0.00 0.00 723.00 186.05" xmlns="http://www.w3.org/2000/svg" xmlns:xlink="http://www.w3.org/1999/xlink">
<g id="graph0" class="graph" transform="scale(1 1) rotate(0) translate(4 182.052)">
<title>MainWindow::updateSelectedItems</title>
<polygon fill="white" stroke="none" points="-4,4 -4,-182.052 719,-182.052 719,4 -4,4"/>
<!-- Node1 -->
<g id="node1" class="node"><title>Node1</title>
<polygon fill="#bfbfbf" stroke="black" points="0,-69.4435 0,-99.4435 146,-99.4435 146,-69.4435 0,-69.4435"/>
<text text-anchor="start" x="8" y="-87.4435" font-family="Helvetica,sans-Serif" font-size="10.00">MainWindow::updateSelected</text>
<text text-anchor="middle" x="73" y="-76.4435" font-family="Helvetica,sans-Serif" font-size="10.00">Items</text>
</g>
<!-- Node2 -->
<g id="node2" class="node"><title>Node2</title>
<g id="a_node2"><a xlink:href="classMainWindow.html#a8b244be8b7b7db1b08de2a2acb9409db" target="_top" xlink:title="MainWindow::MainWindow">
<polygon fill="white" stroke="black" points="580,-74.9435 580,-93.9435 715,-93.9435 715,-74.9435 580,-74.9435"/>
<text text-anchor="middle" x="647.5" y="-81.9435" font-family="Helvetica,sans-Serif" font-size="10.00">MainWindow::MainWindow</text>
</a>
</g>
</g>
<!-- Node1&#45;&gt;Node2 -->
<g id="edge1" class="edge"><title>Node1&#45;&gt;Node2</title>
<path fill="none" stroke="midnightblue" d="M112.64,-103.975C132.83,-113.383 158.228,-123.995 182,-130.443 337.591,-172.647 389.809,-200.507 544,-153.443 582.572,-141.67 619.77,-109.977 636.81,-93.9703"/>
<polygon fill="midnightblue" stroke="midnightblue" points="114.001,-100.747 103.467,-99.6178 110.998,-107.07 114.001,-100.747"/>
</g>
<!-- Node3 -->
<g id="node3" class="node"><title>Node3</title>
<g id="a_node3"><a xlink:href="classMainWindow.html#a6be7246a1a0ecf5d1442bb1775c3d9b3" target="_top" xlink:title="MainWindow::addDifference\lSequence">
<polygon fill="white" stroke="black" points="184,-91.4435 184,-121.443 324,-121.443 324,-91.4435 184,-91.4435"/>
<text text-anchor="start" x="192" y="-109.443" font-family="Helvetica,sans-Serif" font-size="10.00">MainWindow::addDifference</text>
<text text-anchor="middle" x="254" y="-98.4435" font-family="Helvetica,sans-Serif" font-size="10.00">Sequence</text>
</a>
</g>
</g>
<!-- Node1&#45;&gt;Node3 -->
<g id="edge2" class="edge"><title>Node1&#45;&gt;Node3</title>
<path fill="none" stroke="midnightblue" d="M156.022,-94.5243C165.284,-95.6627 174.653,-96.8143 183.73,-97.9298"/>
<polygon fill="midnightblue" stroke="midnightblue" points="156.385,-91.0427 146.032,-93.2966 155.531,-97.9904 156.385,-91.0427"/>
</g>
<!-- Node6 -->
<g id="node6" class="node"><title>Node6</title>
<g id="a_node6"><a xlink:href="classMainWindow.html#af5ecc7c65080215b49b9d931c56c65c9" target="_top" xlink:title="MainWindow::editTextFrame">
<polygon fill="white" stroke="black" points="183,-52.9435 183,-71.9435 325,-71.9435 325,-52.9435 183,-52.9435"/>
<text text-anchor="middle" x="254" y="-59.9435" font-family="Helvetica,sans-Serif" font-size="10.00">MainWindow::editTextFrame</text>
</a>
</g>
</g>
<!-- Node1&#45;&gt;Node6 -->
<g id="edge7" class="edge"><title>Node1&#45;&gt;Node6</title>
<path fill="none" stroke="midnightblue" d="M156.075,-74.3561C165.024,-73.2562 174.073,-72.1441 182.86,-71.064"/>
<polygon fill="midnightblue" stroke="midnightblue" points="155.531,-70.8965 146.032,-75.5903 156.385,-77.8442 155.531,-70.8965"/>
</g>
<!-- Node8 -->
<g id="node8" class="node"><title>Node8</title>
<g id="a_node8"><a xlink:href="classMainWindow.html#a156c29c6d7ab278e4246c88a0fcbe2f2" target="_top" xlink:title="MainWindow::updateSettings">
<polygon fill="white" stroke="black" points="182,-11.9435 182,-30.9435 326,-30.9435 326,-11.9435 182,-11.9435"/>
<text text-anchor="middle" x="254" y="-18.9435" font-family="Helvetica,sans-Serif" font-size="10.00">MainWindow::updateSettings</text>
</a>
</g>
</g>
<!-- Node1&#45;&gt;Node8 -->
<g id="edge11" class="edge"><title>Node1&#45;&gt;Node8</title>
<path fill="none" stroke="midnightblue" d="M121.299,-65.7564C140.097,-58.5216 161.977,-50.339 182,-43.4435 194.567,-39.1157 208.515,-34.709 220.699,-30.9875"/>
<polygon fill="midnightblue" stroke="midnightblue" points="119.839,-62.5684 111.776,-69.4414 122.365,-69.0967 119.839,-62.5684"/>
</g>
<!-- Node4 -->
<g id="node4" class="node"><title>Node4</title>
<g id="a_node4"><a xlink:href="classMainWindow.html#a9df7443ce5f907903438bb6a9abe9a33" target="_top" xlink:title="MainWindow::createMenusAnd\lActions">
<polygon fill="white" stroke="black" points="377,-113.443 377,-143.443 529,-143.443 529,-113.443 377,-113.443"/>
<text text-anchor="start" x="385" y="-131.443" font-family="Helvetica,sans-Serif" font-size="10.00">MainWindow::createMenusAnd</text>
<text text-anchor="middle" x="453" y="-120.443" font-family="Helvetica,sans-Serif" font-size="10.00">Actions</text>
</a>
</g>
</g>
<!-- Node3&#45;&gt;Node4 -->
<g id="edge3" class="edge"><title>Node3&#45;&gt;Node4</title>
<path fill="none" stroke="midnightblue" d="M334.312,-115.301C348.386,-116.872 363.004,-118.505 376.955,-120.063"/>
<polygon fill="midnightblue" stroke="midnightblue" points="334.505,-111.8 324.178,-114.169 333.728,-118.757 334.505,-111.8"/>
</g>
<!-- Node5 -->
<g id="node5" class="node"><title>Node5</title>
<g id="a_node5"><a xlink:href="classMainWindow.html#aaba5c236313378986c42c4a634c4cfb9" target="_top" xlink:title="MainWindow::onCustomContextMenu">
<polygon fill="white" stroke="black" points="362,-74.9435 362,-93.9435 544,-93.9435 544,-74.9435 362,-74.9435"/>
<text text-anchor="middle" x="453" y="-81.9435" font-family="Helvetica,sans-Serif" font-size="10.00">MainWindow::onCustomContextMenu</text>
</a>
</g>
</g>
<!-- Node3&#45;&gt;Node5 -->
<g id="edge5" class="edge"><title>Node3&#45;&gt;Node5</title>
<path fill="none" stroke="midnightblue" d="M334.297,-97.588C344.968,-96.3963 355.953,-95.1695 366.723,-93.9668"/>
<polygon fill="midnightblue" stroke="midnightblue" points="333.728,-94.1297 324.178,-98.718 334.505,-101.086 333.728,-94.1297"/>
</g>
<!-- Node4&#45;&gt;Node2 -->
<g id="edge4" class="edge"><title>Node4&#45;&gt;Node2</title>
<path fill="none" stroke="midnightblue" d="M529.77,-111.125C555.346,-105.279 582.945,-98.9703 604.883,-93.9559"/>
<polygon fill="midnightblue" stroke="midnightblue" points="528.678,-107.784 519.709,-113.424 530.238,-114.608 528.678,-107.784"/>
</g>
<!-- Node5&#45;&gt;Node2 -->
<g id="edge6" class="edge"><title>Node5&#45;&gt;Node2</title>
<path fill="none" stroke="midnightblue" d="M554.219,-84.4435C562.88,-84.4435 571.497,-84.4435 579.79,-84.4435"/>
<polygon fill="midnightblue" stroke="midnightblue" points="554.05,-80.9436 544.05,-84.4435 554.05,-87.9436 554.05,-80.9436"/>
</g>
<!-- Node6&#45;&gt;Node5 -->
<g id="edge8" class="edge"><title>Node6&#45;&gt;Node5</title>
<path fill="none" stroke="midnightblue" d="M335.257,-71.4062C345.616,-72.563 356.253,-73.751 366.689,-74.9164"/>
<polygon fill="midnightblue" stroke="midnightblue" points="335.336,-67.8934 325.01,-70.2618 334.559,-74.8501 335.336,-67.8934"/>
</g>
<!-- Node7 -->
<g id="node7" class="node"><title>Node7</title>
<g id="a_node7"><a xlink:href="classMainWindow.html#ab18c663524e2c130759c0ca960129ea4" target="_top" xlink:title="MainWindow::onItemDouble\lClicked">
<polygon fill="white" stroke="black" points="383,-25.4435 383,-55.4435 523,-55.4435 523,-25.4435 383,-25.4435"/>
<text text-anchor="start" x="391" y="-43.4435" font-family="Helvetica,sans-Serif" font-size="10.00">MainWindow::onItemDouble</text>
<text text-anchor="middle" x="453" y="-32.4435" font-family="Helvetica,sans-Serif" font-size="10.00">Clicked</text>
</a>
</g>
</g>
<!-- Node6&#45;&gt;Node7 -->
<g id="edge9" class="edge"><title>Node6&#45;&gt;Node7</title>
<path fill="none" stroke="midnightblue" d="M335.273,-53.479C351.061,-51.7159 367.496,-49.8805 382.878,-48.1626"/>
<polygon fill="midnightblue" stroke="midnightblue" points="334.559,-50.0368 325.01,-54.6252 335.336,-56.9936 334.559,-50.0368"/>
</g>
<!-- Node7&#45;&gt;Node2 -->
<g id="edge10" class="edge"><title>Node7&#45;&gt;Node2</title>
<path fill="none" stroke="midnightblue" d="M529.77,-57.7622C555.346,-63.6083 582.945,-69.9167 604.883,-74.9311"/>
<polygon fill="midnightblue" stroke="midnightblue" points="530.238,-54.279 519.709,-55.4627 528.678,-61.1031 530.238,-54.279"/>
</g>
<!-- Node8&#45;&gt;Node2 -->
<g id="edge12" class="edge"><title>Node8&#45;&gt;Node2</title>
<path fill="none" stroke="midnightblue" d="M310.404,-10.2425C369.636,-0.558898 465.617,8.48106 544,-15.4435 582.572,-27.2168 619.77,-58.9102 636.81,-74.9166"/>
<polygon fill="midnightblue" stroke="midnightblue" points="309.777,-6.79884 300.504,-11.9233 310.948,-13.7001 309.777,-6.79884"/>
</g>
</g>
</svg>
