<?xml version="1.0" encoding="UTF-8" standalone="no"?>
<!DOCTYPE svg PUBLIC "-//W3C//DTD SVG 1.1//EN"
 "http://www.w3.org/Graphics/SVG/1.1/DTD/svg11.dtd">
<!-- Generated by graphviz version 2.38.0 (20140413.2041)
 -->
<!-- Title: MainWindow::openRecentFile Pages: 1 -->
<svg width="1418pt" height="957pt"
 viewBox="0.00 0.00 1418.00 956.50" xmlns="http://www.w3.org/2000/svg" xmlns:xlink="http://www.w3.org/1999/xlink">
<g id="graph0" class="graph" transform="scale(1 1) rotate(0) translate(4 952.5)">
<title>MainWindow::openRecentFile</title>
<polygon fill="white" stroke="none" points="-4,4 -4,-952.5 1414,-952.5 1414,4 -4,4"/>
<!-- Node1 -->
<g id="node1" class="node"><title>Node1</title>
<polygon fill="#bfbfbf" stroke="black" points="0,-819.5 0,-838.5 147,-838.5 147,-819.5 0,-819.5"/>
<text text-anchor="middle" x="73.5" y="-826.5" font-family="Helvetica,sans-Serif" font-size="10.00">MainWindow::openRecentFile</text>
</g>
<!-- Node2 -->
<g id="node2" class="node"><title>Node2</title>
<g id="a_node2"><a xlink:href="classMainWindow.html#a8ef1be3cb02e12d68d12375d1a7a0ced" target="_top" xlink:title="loads a list of yuv/csv files ">
<polygon fill="white" stroke="black" points="183,-819.5 183,-838.5 301,-838.5 301,-819.5 183,-819.5"/>
<text text-anchor="middle" x="242" y="-826.5" font-family="Helvetica,sans-Serif" font-size="10.00">MainWindow::loadFiles</text>
</a>
</g>
</g>
<!-- Node1&#45;&gt;Node2 -->
<g id="edge1" class="edge"><title>Node1&#45;&gt;Node2</title>
<path fill="none" stroke="midnightblue" d="M147.045,-829C155.58,-829 164.268,-829 172.742,-829"/>
<polygon fill="midnightblue" stroke="midnightblue" points="172.947,-832.5 182.947,-829 172.947,-825.5 172.947,-832.5"/>
</g>
<!-- Node3 -->
<g id="node3" class="node"><title>Node3</title>
<g id="a_node3"><a xlink:href="classPlaylistTreeWidget.html#a3d898eca74f2de619866263e7ffbe5f2" target="_top" xlink:title="PlaylistTreeWidget\l::setIsSaved">
<polygon fill="white" stroke="black" points="542,-874 542,-904 641,-904 641,-874 542,-874"/>
<text text-anchor="start" x="550" y="-892" font-family="Helvetica,sans-Serif" font-size="10.00">PlaylistTreeWidget</text>
<text text-anchor="middle" x="591.5" y="-881" font-family="Helvetica,sans-Serif" font-size="10.00">::setIsSaved</text>
</a>
</g>
</g>
<!-- Node2&#45;&gt;Node3 -->
<g id="edge2" class="edge"><title>Node2&#45;&gt;Node3</title>
<path fill="none" stroke="midnightblue" d="M260.051,-838.536C278.426,-848.304 308.832,-863.016 337,-870 402.259,-886.181 479.621,-889.832 531.571,-890.136"/>
<polygon fill="midnightblue" stroke="midnightblue" points="531.604,-893.636 541.611,-890.155 531.617,-886.636 531.604,-893.636"/>
</g>
<!-- Node4 -->
<g id="node4" class="node"><title>Node4</title>
<g id="a_node4"><a xlink:href="classPlaylistItem.html#a7a65abc1410966c8e7fb7e47d384b7bf" target="_top" xlink:title="PlaylistItem::getFrameObject">
<polygon fill="white" stroke="black" points="519.5,-835.5 519.5,-854.5 663.5,-854.5 663.5,-835.5 519.5,-835.5"/>
<text text-anchor="middle" x="591.5" y="-842.5" font-family="Helvetica,sans-Serif" font-size="10.00">PlaylistItem::getFrameObject</text>
</a>
</g>
</g>
<!-- Node2&#45;&gt;Node4 -->
<g id="edge3" class="edge"><title>Node2&#45;&gt;Node4</title>
<path fill="none" stroke="midnightblue" d="M256.855,-819.469C274.523,-807.948 306.457,-789.21 337,-782 399.72,-767.194 423.764,-754.403 482,-782 504.833,-792.82 496.737,-812.351 518,-826 521.294,-828.114 524.814,-829.994 528.462,-831.665"/>
<polygon fill="midnightblue" stroke="midnightblue" points="527.156,-834.912 537.739,-835.404 529.773,-828.419 527.156,-834.912"/>
</g>
<!-- Node5 -->
<g id="node5" class="node"><title>Node5</title>
<g id="a_node5"><a xlink:href="classFrameObject.html#a14aa70f40889c11f1b7e73c03144fc82" target="_top" xlink:title="FrameObject::getSource">
<polygon fill="white" stroke="black" points="348,-841.5 348,-860.5 471,-860.5 471,-841.5 348,-841.5"/>
<text text-anchor="middle" x="409.5" y="-848.5" font-family="Helvetica,sans-Serif" font-size="10.00">FrameObject::getSource</text>
</a>
</g>
</g>
<!-- Node2&#45;&gt;Node5 -->
<g id="edge4" class="edge"><title>Node2&#45;&gt;Node5</title>
<path fill="none" stroke="midnightblue" d="M301.349,-836.756C313.127,-838.322 325.63,-839.984 337.779,-841.599"/>
<polygon fill="midnightblue" stroke="midnightblue" points="337.504,-845.093 347.878,-842.941 338.426,-838.154 337.504,-845.093"/>
</g>
<!-- Node6 -->
<g id="node6" class="node"><title>Node6</title>
<g id="a_node6"><a xlink:href="classde265File.html#abc835a56ab7b007650cc1611239ee4da" target="_top" xlink:title="de265File::getStatistics\lEnabled">
<polygon fill="white" stroke="black" points="350,-792 350,-822 469,-822 469,-792 350,-792"/>
<text text-anchor="start" x="358" y="-810" font-family="Helvetica,sans-Serif" font-size="10.00">de265File::getStatistics</text>
<text text-anchor="middle" x="409.5" y="-799" font-family="Helvetica,sans-Serif" font-size="10.00">Enabled</text>
</a>
</g>
</g>
<!-- Node2&#45;&gt;Node6 -->
<g id="edge5" class="edge"><title>Node2&#45;&gt;Node6</title>
<path fill="none" stroke="midnightblue" d="M301.349,-821.244C313.759,-819.594 326.974,-817.837 339.731,-816.141"/>
<polygon fill="midnightblue" stroke="midnightblue" points="340.389,-819.585 349.841,-814.798 339.467,-812.646 340.389,-819.585"/>
</g>
<!-- Node7 -->
<g id="node7" class="node"><title>Node7</title>
<g id="a_node7"><a xlink:href="classMainWindow.html#affa76730fa370a3466b62a4caee721e3" target="_top" xlink:title="MainWindow::updateRecent\lFileActions">
<polygon fill="white" stroke="black" points="339.5,-918 339.5,-948 479.5,-948 479.5,-918 339.5,-918"/>
<text text-anchor="start" x="347.5" y="-936" font-family="Helvetica,sans-Serif" font-size="10.00">MainWindow::updateRecent</text>
<text text-anchor="middle" x="409.5" y="-925" font-family="Helvetica,sans-Serif" font-size="10.00">FileActions</text>
</a>
</g>
</g>
<!-- Node2&#45;&gt;Node7 -->
<g id="edge6" class="edge"><title>Node2&#45;&gt;Node7</title>
<path fill="none" stroke="midnightblue" d="M253.309,-838.667C269.915,-853.866 304.067,-883.612 337,-903 343.46,-906.803 350.493,-910.371 357.544,-913.627"/>
<polygon fill="midnightblue" stroke="midnightblue" points="356.556,-917.017 367.117,-917.865 359.39,-910.616 356.556,-917.017"/>
</g>
<!-- Node9 -->
<g id="node9" class="node"><title>Node9</title>
<g id="a_node9"><a xlink:href="classMainWindow.html#a2d8cea1d443550a8f14ce8c80d2608c6" target="_top" xlink:title="MainWindow::loadPlaylistFile">
<polygon fill="white" stroke="black" points="337,-584.5 337,-603.5 482,-603.5 482,-584.5 337,-584.5"/>
<text text-anchor="middle" x="409.5" y="-591.5" font-family="Helvetica,sans-Serif" font-size="10.00">MainWindow::loadPlaylistFile</text>
</a>
</g>
</g>
<!-- Node2&#45;&gt;Node9 -->
<g id="edge8" class="edge"><title>Node2&#45;&gt;Node9</title>
<path fill="none" stroke="midnightblue" d="M249.693,-819.497C274.695,-783.995 362.869,-658.794 395.89,-611.905"/>
<polygon fill="midnightblue" stroke="midnightblue" points="398.828,-613.813 401.724,-603.622 393.104,-609.782 398.828,-613.813"/>
</g>
<!-- Node8 -->
<g id="node8" class="node"><title>Node8</title>
<g id="a_node8"><a xlink:href="classMainWindow.html#a37bcca7fc7bf0b871d99913c447c237f" target="_top" xlink:title="MainWindow::strippedName">
<polygon fill="white" stroke="black" points="521.5,-923.5 521.5,-942.5 661.5,-942.5 661.5,-923.5 521.5,-923.5"/>
<text text-anchor="middle" x="591.5" y="-930.5" font-family="Helvetica,sans-Serif" font-size="10.00">MainWindow::strippedName</text>
</a>
</g>
</g>
<!-- Node7&#45;&gt;Node8 -->
<g id="edge7" class="edge"><title>Node7&#45;&gt;Node8</title>
<path fill="none" stroke="midnightblue" d="M479.578,-933C489.946,-933 500.706,-933 511.266,-933"/>
<polygon fill="midnightblue" stroke="midnightblue" points="511.31,-936.5 521.31,-933 511.309,-929.5 511.31,-936.5"/>
</g>
<!-- Node9&#45;&gt;Node3 -->
<g id="edge65" class="edge"><title>Node9&#45;&gt;Node3</title>
<path fill="none" stroke="midnightblue" d="M414.042,-603.537C431.466,-650.368 507.665,-854.139 518,-864 522.32,-868.122 527.35,-871.567 532.711,-874.445"/>
<polygon fill="midnightblue" stroke="midnightblue" points="531.434,-877.712 541.976,-878.775 534.398,-871.37 531.434,-877.712"/>
</g>
<!-- Node9&#45;&gt;Node4 -->
<g id="edge32" class="edge"><title>Node9&#45;&gt;Node4</title>
<path fill="none" stroke="midnightblue" d="M414.955,-603.651C435.181,-647.458 517.403,-825.5 518,-826 520.009,-827.68 522.149,-829.214 524.389,-830.613"/>
<polygon fill="midnightblue" stroke="midnightblue" points="522.969,-833.82 533.449,-835.373 526.224,-827.623 522.969,-833.82"/>
</g>
<!-- Node10 -->
<g id="node10" class="node"><title>Node10</title>
<g id="a_node10"><a xlink:href="classPListParser.html#aeeaf99f020c07a200499b71e5bf4828a" target="_top" xlink:title="PListParser::parsePList">
<polygon fill="white" stroke="black" points="531.5,-660.5 531.5,-679.5 651.5,-679.5 651.5,-660.5 531.5,-660.5"/>
<text text-anchor="middle" x="591.5" y="-667.5" font-family="Helvetica,sans-Serif" font-size="10.00">PListParser::parsePList</text>
</a>
</g>
</g>
<!-- Node9&#45;&gt;Node10 -->
<g id="edge9" class="edge"><title>Node9&#45;&gt;Node10</title>
<path fill="none" stroke="midnightblue" d="M425.983,-603.687C446.4,-616.11 483.756,-637.642 518,-651 524.271,-653.446 530.969,-655.68 537.664,-657.687"/>
<polygon fill="midnightblue" stroke="midnightblue" points="536.846,-661.093 547.422,-660.463 538.762,-654.36 536.846,-661.093"/>
</g>
<!-- Node14 -->
<g id="node14" class="node"><title>Node14</title>
<g id="a_node14"><a xlink:href="classPlaylistItem.html#ad49967db988d94174603ff085d8e2088" target="_top" xlink:title="PlaylistItem::getTextObject">
<polygon fill="white" stroke="black" points="523.5,-622.5 523.5,-641.5 659.5,-641.5 659.5,-622.5 523.5,-622.5"/>
<text text-anchor="middle" x="591.5" y="-629.5" font-family="Helvetica,sans-Serif" font-size="10.00">PlaylistItem::getTextObject</text>
</a>
</g>
</g>
<!-- Node9&#45;&gt;Node14 -->
<g id="edge15" class="edge"><title>Node9&#45;&gt;Node14</title>
<path fill="none" stroke="midnightblue" d="M455.922,-603.589C480.103,-608.694 510.027,-615.011 535.514,-620.392"/>
<polygon fill="midnightblue" stroke="midnightblue" points="534.898,-623.839 545.405,-622.48 536.344,-616.99 534.898,-623.839"/>
</g>
<!-- Node15 -->
<g id="node15" class="node"><title>Node15</title>
<g id="a_node15"><a xlink:href="classTextObject.html#adaa0f36f9e82dc8298d0835101569eb4" target="_top" xlink:title="TextObject::setFont">
<polygon fill="white" stroke="black" points="539.5,-584.5 539.5,-603.5 643.5,-603.5 643.5,-584.5 539.5,-584.5"/>
<text text-anchor="middle" x="591.5" y="-591.5" font-family="Helvetica,sans-Serif" font-size="10.00">TextObject::setFont</text>
</a>
</g>
</g>
<!-- Node9&#45;&gt;Node15 -->
<g id="edge16" class="edge"><title>Node9&#45;&gt;Node15</title>
<path fill="none" stroke="midnightblue" d="M482.158,-594C497.691,-594 513.985,-594 529.083,-594"/>
<polygon fill="midnightblue" stroke="midnightblue" points="529.319,-597.5 539.319,-594 529.319,-590.5 529.319,-597.5"/>
</g>
<!-- Node20 -->
<g id="node20" class="node"><title>Node20</title>
<g id="a_node20"><a xlink:href="classDisplayObject.html#af14049278f3dfdf62f4e88d5c24e03c7" target="_top" xlink:title="DisplayObject::setSize">
<polygon fill="white" stroke="black" points="909.5,-538.5 909.5,-557.5 1026.5,-557.5 1026.5,-538.5 909.5,-538.5"/>
<text text-anchor="middle" x="968" y="-545.5" font-family="Helvetica,sans-Serif" font-size="10.00">DisplayObject::setSize</text>
</a>
</g>
</g>
<!-- Node9&#45;&gt;Node20 -->
<g id="edge61" class="edge"><title>Node9&#45;&gt;Node20</title>
<path fill="none" stroke="midnightblue" d="M457.688,-584.451C476.395,-580.983 498.143,-577.344 518,-575 652.653,-559.105 811.191,-552.351 899.276,-549.65"/>
<polygon fill="midnightblue" stroke="midnightblue" points="899.511,-553.145 909.402,-549.348 899.302,-546.148 899.511,-553.145"/>
</g>
<!-- Node23 -->
<g id="node23" class="node"><title>Node23</title>
<g id="a_node23"><a xlink:href="classTextObject.html#a5458ec334fdbae6aec57d43ce4e14105" target="_top" xlink:title="TextObject::setDuration">
<polygon fill="white" stroke="black" points="531,-470.5 531,-489.5 652,-489.5 652,-470.5 531,-470.5"/>
<text text-anchor="middle" x="591.5" y="-477.5" font-family="Helvetica,sans-Serif" font-size="10.00">TextObject::setDuration</text>
</a>
</g>
</g>
<!-- Node9&#45;&gt;Node23 -->
<g id="edge26" class="edge"><title>Node9&#45;&gt;Node23</title>
<path fill="none" stroke="midnightblue" d="M419.371,-584.485C436.702,-566.408 476.963,-526.865 518,-504 525.742,-499.686 534.384,-495.989 542.928,-492.88"/>
<polygon fill="midnightblue" stroke="midnightblue" points="544.147,-496.163 552.479,-489.619 541.885,-489.538 544.147,-496.163"/>
</g>
<!-- Node24 -->
<g id="node24" class="node"><title>Node24</title>
<g id="a_node24"><a xlink:href="classDisplayObject.html#a98296771a38de4e1bf73983a0b23aea1" target="_top" xlink:title="DisplayObject::setFrameRate">
<polygon fill="white" stroke="black" points="702.5,-508.5 702.5,-527.5 848.5,-527.5 848.5,-508.5 702.5,-508.5"/>
<text text-anchor="middle" x="775.5" y="-515.5" font-family="Helvetica,sans-Serif" font-size="10.00">DisplayObject::setFrameRate</text>
</a>
</g>
</g>
<!-- Node9&#45;&gt;Node24 -->
<g id="edge56" class="edge"><title>Node9&#45;&gt;Node24</title>
<path fill="none" stroke="midnightblue" d="M425.827,-584.394C446.077,-572.229 483.252,-551.689 518,-542 574.831,-526.154 641.199,-520.266 692.185,-518.281"/>
<polygon fill="midnightblue" stroke="midnightblue" points="692.623,-521.768 702.496,-517.924 692.381,-514.772 692.623,-521.768"/>
</g>
<!-- Node25 -->
<g id="node25" class="node"><title>Node25</title>
<g id="a_node25"><a xlink:href="classDisplayObject.html#aed9e23b654a67915a5b76e5d124d7bb6" target="_top" xlink:title="DisplayObject::setStartFrame">
<polygon fill="white" stroke="black" points="702.5,-432.5 702.5,-451.5 848.5,-451.5 848.5,-432.5 702.5,-432.5"/>
<text text-anchor="middle" x="775.5" y="-439.5" font-family="Helvetica,sans-Serif" font-size="10.00">DisplayObject::setStartFrame</text>
</a>
</g>
</g>
<!-- Node9&#45;&gt;Node25 -->
<g id="edge58" class="edge"><title>Node9&#45;&gt;Node25</title>
<path fill="none" stroke="midnightblue" d="M414.824,-584.381C426.873,-558.875 463.558,-489.515 518,-461 571.326,-433.069 639.62,-429.287 692.329,-431.965"/>
<polygon fill="midnightblue" stroke="midnightblue" points="692.127,-435.459 702.317,-432.558 692.543,-428.471 692.127,-435.459"/>
</g>
<!-- Node26 -->
<g id="node26" class="node"><title>Node26</title>
<g id="a_node26"><a xlink:href="classDisplayObject.html#a1ebfa41c2a5b6c2ed4d8490503d197c8" target="_top" xlink:title="DisplayObject::setEndFrame">
<polygon fill="white" stroke="black" points="896.5,-356.5 896.5,-375.5 1039.5,-375.5 1039.5,-356.5 896.5,-356.5"/>
<text text-anchor="middle" x="968" y="-363.5" font-family="Helvetica,sans-Serif" font-size="10.00">DisplayObject::setEndFrame</text>
</a>
</g>
</g>
<!-- Node9&#45;&gt;Node26 -->
<g id="edge59" class="edge"><title>Node9&#45;&gt;Node26</title>
<path fill="none" stroke="midnightblue" d="M412.031,-584.248C418.032,-549.707 443.409,-432.707 518,-385 644.794,-303.906 835.455,-334.239 921.731,-354.117"/>
<polygon fill="midnightblue" stroke="midnightblue" points="921.187,-357.584 931.724,-356.481 922.798,-350.772 921.187,-357.584"/>
</g>
<!-- Node27 -->
<g id="node27" class="node"><title>Node27</title>
<g id="a_node27"><a xlink:href="classTextObject.html#aaead839e07db08ee01be58062a6cc89e" target="_top" xlink:title="TextObject::setColor">
<polygon fill="white" stroke="black" points="538,-394.5 538,-413.5 645,-413.5 645,-394.5 538,-394.5"/>
<text text-anchor="middle" x="591.5" y="-401.5" font-family="Helvetica,sans-Serif" font-size="10.00">TextObject::setColor</text>
</a>
</g>
</g>
<!-- Node9&#45;&gt;Node27 -->
<g id="edge30" class="edge"><title>Node9&#45;&gt;Node27</title>
<path fill="none" stroke="midnightblue" d="M414.139,-584.117C425.158,-555.548 460.946,-472.088 518,-428 523.498,-423.751 529.783,-420.237 536.303,-417.333"/>
<polygon fill="midnightblue" stroke="midnightblue" points="537.954,-420.443 545.959,-413.502 535.373,-413.937 537.954,-420.443"/>
</g>
<!-- Node29 -->
<g id="node29" class="node"><title>Node29</title>
<g id="a_node29"><a xlink:href="classFrameObject.html#af3743977db6e996acf666952baaa9d41" target="_top" xlink:title="FrameObject::setSize">
<polygon fill="white" stroke="black" points="535.5,-280.5 535.5,-299.5 647.5,-299.5 647.5,-280.5 535.5,-280.5"/>
<text text-anchor="middle" x="591.5" y="-287.5" font-family="Helvetica,sans-Serif" font-size="10.00">FrameObject::setSize</text>
</a>
</g>
</g>
<!-- Node9&#45;&gt;Node29 -->
<g id="edge33" class="edge"><title>Node9&#45;&gt;Node29</title>
<path fill="none" stroke="midnightblue" d="M413.073,-584.43C422.59,-550.25 458.37,-431.978 518,-352 531.654,-333.686 551.641,-317.109 567.173,-305.713"/>
<polygon fill="midnightblue" stroke="midnightblue" points="569.605,-308.279 575.722,-299.628 565.545,-302.576 569.605,-308.279"/>
</g>
<!-- Node34 -->
<g id="node34" class="node"><title>Node34</title>
<g id="a_node34"><a xlink:href="classFrameObject.html#a72a06fd2f07099819623216975625bed" target="_top" xlink:title="FrameObject::setSrcPixel\lFormat">
<polygon fill="white" stroke="black" points="527,-169 527,-199 656,-199 656,-169 527,-169"/>
<text text-anchor="start" x="535" y="-187" font-family="Helvetica,sans-Serif" font-size="10.00">FrameObject::setSrcPixel</text>
<text text-anchor="middle" x="591.5" y="-176" font-family="Helvetica,sans-Serif" font-size="10.00">Format</text>
</a>
</g>
</g>
<!-- Node9&#45;&gt;Node34 -->
<g id="edge40" class="edge"><title>Node9&#45;&gt;Node34</title>
<path fill="none" stroke="midnightblue" d="M412.308,-584.487C420.206,-544.35 454.177,-385.634 518,-271 531.397,-246.937 551.84,-223.159 567.607,-206.559"/>
<polygon fill="midnightblue" stroke="midnightblue" points="570.471,-208.633 574.92,-199.017 565.446,-203.76 570.471,-208.633"/>
</g>
<!-- Node46 -->
<g id="node46" class="node"><title>Node46</title>
<g id="a_node46"><a xlink:href="classDisplayObject.html#adcb40f95c3964c1193a93519d5dd25b1" target="_top" xlink:title="DisplayObject::setSampling">
<polygon fill="white" stroke="black" points="522.5,-797.5 522.5,-816.5 660.5,-816.5 660.5,-797.5 522.5,-797.5"/>
<text text-anchor="middle" x="591.5" y="-804.5" font-family="Helvetica,sans-Serif" font-size="10.00">DisplayObject::setSampling</text>
</a>
</g>
</g>
<!-- Node9&#45;&gt;Node46 -->
<g id="edge57" class="edge"><title>Node9&#45;&gt;Node46</title>
<path fill="none" stroke="midnightblue" d="M414.73,-603.788C430.286,-639.377 485.125,-761.174 518,-787 520.946,-789.314 524.141,-791.36 527.494,-793.17"/>
<polygon fill="midnightblue" stroke="midnightblue" points="526.129,-796.395 536.673,-797.43 529.076,-790.046 526.129,-796.395"/>
</g>
<!-- Node47 -->
<g id="node47" class="node"><title>Node47</title>
<g id="a_node47"><a xlink:href="classPlaylistItem.html#a5d94b9e2dab116ab2f4a3afd3639b18f" target="_top" xlink:title="PlaylistItem::getStatistics\lObject">
<polygon fill="white" stroke="black" points="527,-748 527,-778 656,-778 656,-748 527,-748"/>
<text text-anchor="start" x="535" y="-766" font-family="Helvetica,sans-Serif" font-size="10.00">PlaylistItem::getStatistics</text>
<text text-anchor="middle" x="591.5" y="-755" font-family="Helvetica,sans-Serif" font-size="10.00">Object</text>
</a>
</g>
</g>
<!-- Node9&#45;&gt;Node47 -->
<g id="edge60" class="edge"><title>Node9&#45;&gt;Node47</title>
<path fill="none" stroke="midnightblue" d="M415.076,-603.621C427.749,-629.269 465.848,-699.912 518,-738 520.634,-739.924 523.428,-741.708 526.327,-743.363"/>
<polygon fill="midnightblue" stroke="midnightblue" points="524.789,-746.507 535.286,-747.944 527.976,-740.275 524.789,-746.507"/>
</g>
<!-- Node48 -->
<g id="node48" class="node"><title>Node48</title>
<g id="a_node48"><a xlink:href="classStatisticsObject.html#a5403f2edc7dc5c51d105056d001632e8" target="_top" xlink:title="StatisticsObject::setStatistics\lTypeList">
<polygon fill="white" stroke="black" points="518,-699 518,-729 665,-729 665,-699 518,-699"/>
<text text-anchor="start" x="526" y="-717" font-family="Helvetica,sans-Serif" font-size="10.00">StatisticsObject::setStatistics</text>
<text text-anchor="middle" x="591.5" y="-706" font-family="Helvetica,sans-Serif" font-size="10.00">TypeList</text>
</a>
</g>
</g>
<!-- Node9&#45;&gt;Node48 -->
<g id="edge62" class="edge"><title>Node9&#45;&gt;Node48</title>
<path fill="none" stroke="midnightblue" d="M419.017,-603.735C436.047,-622.654 476.259,-664.661 518,-689 521.623,-691.113 525.452,-693.084 529.382,-694.916"/>
<polygon fill="midnightblue" stroke="midnightblue" points="528.116,-698.182 538.684,-698.942 530.897,-691.758 528.116,-698.182"/>
</g>
<!-- Node11 -->
<g id="node11" class="node"><title>Node11</title>
<g id="a_node11"><a xlink:href="classPListParser.html#a23710a0d61733745542a2296393df556" target="_top" xlink:title="PListParser::parseElement">
<polygon fill="white" stroke="black" points="708.5,-660.5 708.5,-679.5 842.5,-679.5 842.5,-660.5 708.5,-660.5"/>
<text text-anchor="middle" x="775.5" y="-667.5" font-family="Helvetica,sans-Serif" font-size="10.00">PListParser::parseElement</text>
</a>
</g>
</g>
<!-- Node10&#45;&gt;Node11 -->
<g id="edge10" class="edge"><title>Node10&#45;&gt;Node11</title>
<path fill="none" stroke="midnightblue" d="M651.59,-670C666.49,-670 682.697,-670 698.307,-670"/>
<polygon fill="midnightblue" stroke="midnightblue" points="698.459,-673.5 708.459,-670 698.459,-666.5 698.459,-673.5"/>
</g>
<!-- Node12 -->
<g id="node12" class="node"><title>Node12</title>
<g id="a_node12"><a xlink:href="classPListParser.html#a601716c73380ba67d8e6b0973aa0ee63" target="_top" xlink:title="PListParser::parseDictElement">
<polygon fill="white" stroke="black" points="892,-690.5 892,-709.5 1044,-709.5 1044,-690.5 892,-690.5"/>
<text text-anchor="middle" x="968" y="-697.5" font-family="Helvetica,sans-Serif" font-size="10.00">PListParser::parseDictElement</text>
</a>
</g>
</g>
<!-- Node11&#45;&gt;Node12 -->
<g id="edge11" class="edge"><title>Node11&#45;&gt;Node12</title>
<path fill="none" stroke="midnightblue" d="M842.593,-673.948C871.178,-677.865 903.641,-683.278 928.236,-688.336"/>
<polygon fill="midnightblue" stroke="midnightblue" points="927.751,-691.812 938.261,-690.477 929.213,-684.966 927.751,-691.812"/>
</g>
<!-- Node13 -->
<g id="node13" class="node"><title>Node13</title>
<g id="a_node13"><a xlink:href="classPListParser.html#ad3c04e6d8bd25a3bfe3cc24bad88284c" target="_top" xlink:title="PListParser::parseArrayElement">
<polygon fill="white" stroke="black" points="889.5,-652.5 889.5,-671.5 1046.5,-671.5 1046.5,-652.5 889.5,-652.5"/>
<text text-anchor="middle" x="968" y="-659.5" font-family="Helvetica,sans-Serif" font-size="10.00">PListParser::parseArrayElement</text>
</a>
</g>
</g>
<!-- Node11&#45;&gt;Node13 -->
<g id="edge13" class="edge"><title>Node11&#45;&gt;Node13</title>
<path fill="none" stroke="midnightblue" d="M842.593,-660.764C854.347,-660.03 866.756,-659.418 879.004,-658.963"/>
<polygon fill="midnightblue" stroke="midnightblue" points="879.361,-662.453 889.237,-658.618 879.125,-655.457 879.361,-662.453"/>
</g>
<!-- Node12&#45;&gt;Node11 -->
<g id="edge12" class="edge"><title>Node12&#45;&gt;Node11</title>
<path fill="none" stroke="midnightblue" d="M891.632,-694.749C865.518,-690.989 837.317,-686.196 815.361,-681.683"/>
<polygon fill="midnightblue" stroke="midnightblue" points="815.943,-678.229 805.433,-679.566 814.483,-685.075 815.943,-678.229"/>
</g>
<!-- Node13&#45;&gt;Node11 -->
<g id="edge14" class="edge"><title>Node13&#45;&gt;Node11</title>
<path fill="none" stroke="midnightblue" d="M896.481,-671.505C882.293,-672.343 867.318,-673.001 852.938,-673.422"/>
<polygon fill="midnightblue" stroke="midnightblue" points="852.501,-669.932 842.593,-673.685 852.679,-676.929 852.501,-669.932"/>
</g>
<!-- Node16 -->
<g id="node16" class="node"><title>Node16</title>
<g id="a_node16"><a xlink:href="classTextObject.html#a40a3c04abf6f17df174696a8902b84f1" target="_top" xlink:title="TextObject::font">
<polygon fill="white" stroke="black" points="732,-622.5 732,-641.5 819,-641.5 819,-622.5 732,-622.5"/>
<text text-anchor="middle" x="775.5" y="-629.5" font-family="Helvetica,sans-Serif" font-size="10.00">TextObject::font</text>
</a>
</g>
</g>
<!-- Node15&#45;&gt;Node16 -->
<g id="edge17" class="edge"><title>Node15&#45;&gt;Node16</title>
<path fill="none" stroke="midnightblue" d="M638.426,-603.589C663.824,-608.892 695.49,-615.503 721.881,-621.014"/>
<polygon fill="midnightblue" stroke="midnightblue" points="721.21,-624.449 731.714,-623.067 722.641,-617.597 721.21,-624.449"/>
</g>
<!-- Node17 -->
<g id="node17" class="node"><title>Node17</title>
<g id="a_node17"><a xlink:href="classTextObject.html#a8f1e5a14cf1a2f89b0794ea47b793ae3" target="_top" xlink:title="TextObject::refreshTextSize">
<polygon fill="white" stroke="black" points="705.5,-584.5 705.5,-603.5 845.5,-603.5 845.5,-584.5 705.5,-584.5"/>
<text text-anchor="middle" x="775.5" y="-591.5" font-family="Helvetica,sans-Serif" font-size="10.00">TextObject::refreshTextSize</text>
</a>
</g>
</g>
<!-- Node15&#45;&gt;Node17 -->
<g id="edge18" class="edge"><title>Node15&#45;&gt;Node17</title>
<path fill="none" stroke="midnightblue" d="M643.681,-594C659.677,-594 677.718,-594 695.176,-594"/>
<polygon fill="midnightblue" stroke="midnightblue" points="695.367,-597.5 705.367,-594 695.367,-590.5 695.367,-597.5"/>
</g>
<!-- Node18 -->
<g id="node18" class="node"><title>Node18</title>
<g id="a_node18"><a xlink:href="classDisplayObject.html#afb3b221174f722f563e7bf55a1ddb29f" target="_top" xlink:title="DisplayObject::width">
<polygon fill="white" stroke="black" points="1112,-614.5 1112,-633.5 1219,-633.5 1219,-614.5 1112,-614.5"/>
<text text-anchor="middle" x="1165.5" y="-621.5" font-family="Helvetica,sans-Serif" font-size="10.00">DisplayObject::width</text>
</a>
</g>
</g>
<!-- Node17&#45;&gt;Node18 -->
<g id="edge19" class="edge"><title>Node17&#45;&gt;Node18</title>
<path fill="none" stroke="midnightblue" d="M845.701,-600.525C859.069,-601.727 872.967,-602.937 886,-604 960.025,-610.038 1045.2,-616.012 1101.66,-619.836"/>
<polygon fill="midnightblue" stroke="midnightblue" points="1101.65,-623.343 1111.86,-620.525 1102.12,-616.359 1101.65,-623.343"/>
</g>
<!-- Node19 -->
<g id="node19" class="node"><title>Node19</title>
<g id="a_node19"><a xlink:href="classDisplayObject.html#a814782fb1bf9e7a2ed7adab74872c08a" target="_top" xlink:title="DisplayObject::height">
<polygon fill="white" stroke="black" points="1110.5,-576.5 1110.5,-595.5 1220.5,-595.5 1220.5,-576.5 1110.5,-576.5"/>
<text text-anchor="middle" x="1165.5" y="-583.5" font-family="Helvetica,sans-Serif" font-size="10.00">DisplayObject::height</text>
</a>
</g>
</g>
<!-- Node17&#45;&gt;Node19 -->
<g id="edge20" class="edge"><title>Node17&#45;&gt;Node19</title>
<path fill="none" stroke="midnightblue" d="M845.867,-592.57C918.062,-591.081 1030.19,-588.769 1100.38,-587.322"/>
<polygon fill="midnightblue" stroke="midnightblue" points="1100.49,-590.821 1110.42,-587.115 1100.35,-583.822 1100.49,-590.821"/>
</g>
<!-- Node17&#45;&gt;Node20 -->
<g id="edge21" class="edge"><title>Node17&#45;&gt;Node20</title>
<path fill="none" stroke="midnightblue" d="M815.972,-584.469C845.473,-577.345 885.998,-567.56 917.642,-559.918"/>
<polygon fill="midnightblue" stroke="midnightblue" points="918.68,-563.269 927.579,-557.519 917.037,-556.464 918.68,-563.269"/>
</g>
<!-- Node20&#45;&gt;Node18 -->
<g id="edge22" class="edge"><title>Node20&#45;&gt;Node18</title>
<path fill="none" stroke="midnightblue" d="M985.936,-557.701C1008.25,-570.14 1049.01,-591.689 1086,-605 1093.06,-607.542 1100.61,-609.851 1108.12,-611.915"/>
<polygon fill="midnightblue" stroke="midnightblue" points="1107.37,-615.338 1117.93,-614.484 1109.15,-608.566 1107.37,-615.338"/>
</g>
<!-- Node20&#45;&gt;Node19 -->
<g id="edge23" class="edge"><title>Node20&#45;&gt;Node19</title>
<path fill="none" stroke="midnightblue" d="M1018.08,-557.54C1044.57,-562.69 1077.47,-569.084 1105.37,-574.506"/>
<polygon fill="midnightblue" stroke="midnightblue" points="1104.92,-577.984 1115.4,-576.456 1106.25,-571.112 1104.92,-577.984"/>
</g>
<!-- Node21 -->
<g id="node21" class="node"><title>Node21</title>
<g id="a_node21"><a xlink:href="classDisplayObject.html#a64d01b5326cf6dae89928a7ad91b1283" target="_top" xlink:title="DisplayObject::refreshDisplay\lImage">
<polygon fill="white" stroke="black" points="1092,-527 1092,-557 1239,-557 1239,-527 1092,-527"/>
<text text-anchor="start" x="1100" y="-545" font-family="Helvetica,sans-Serif" font-size="10.00">DisplayObject::refreshDisplay</text>
<text text-anchor="middle" x="1165.5" y="-534" font-family="Helvetica,sans-Serif" font-size="10.00">Image</text>
</a>
</g>
</g>
<!-- Node20&#45;&gt;Node21 -->
<g id="edge24" class="edge"><title>Node20&#45;&gt;Node21</title>
<path fill="none" stroke="midnightblue" d="M1026.6,-546.232C1043.8,-545.704 1063.01,-545.115 1081.5,-544.547"/>
<polygon fill="midnightblue" stroke="midnightblue" points="1081.79,-548.04 1091.68,-544.235 1081.57,-541.043 1081.79,-548.04"/>
</g>
<!-- Node22 -->
<g id="node22" class="node"><title>Node22</title>
<g id="a_node22"><a xlink:href="classDisplayObject.html#aacc96a69c37767806090e1fa388be045" target="_top" xlink:title="DisplayObject::loadImage">
<polygon fill="white" stroke="black" points="1281,-532.5 1281,-551.5 1410,-551.5 1410,-532.5 1281,-532.5"/>
<text text-anchor="middle" x="1345.5" y="-539.5" font-family="Helvetica,sans-Serif" font-size="10.00">DisplayObject::loadImage</text>
</a>
</g>
</g>
<!-- Node21&#45;&gt;Node22 -->
<g id="edge25" class="edge"><title>Node21&#45;&gt;Node22</title>
<path fill="none" stroke="midnightblue" d="M1239.16,-542C1249.54,-542 1260.23,-542 1270.63,-542"/>
<polygon fill="midnightblue" stroke="midnightblue" points="1270.92,-545.5 1280.92,-542 1270.92,-538.5 1270.92,-545.5"/>
</g>
<!-- Node23&#45;&gt;Node24 -->
<g id="edge27" class="edge"><title>Node23&#45;&gt;Node24</title>
<path fill="none" stroke="midnightblue" d="M638.426,-489.589C662.876,-494.694 693.133,-501.011 718.903,-506.392"/>
<polygon fill="midnightblue" stroke="midnightblue" points="718.4,-509.862 728.904,-508.48 719.83,-503.01 718.4,-509.862"/>
</g>
<!-- Node23&#45;&gt;Node25 -->
<g id="edge28" class="edge"><title>Node23&#45;&gt;Node25</title>
<path fill="none" stroke="midnightblue" d="M638.426,-470.411C662.876,-465.306 693.133,-458.989 718.903,-453.608"/>
<polygon fill="midnightblue" stroke="midnightblue" points="719.83,-456.99 728.904,-451.52 718.4,-450.138 719.83,-456.99"/>
</g>
<!-- Node23&#45;&gt;Node26 -->
<g id="edge29" class="edge"><title>Node23&#45;&gt;Node26</title>
<path fill="none" stroke="midnightblue" d="M652.003,-485.483C705.686,-488.169 785.836,-486.466 850,-461 892.67,-444.065 931.809,-405.719 952.213,-383.266"/>
<polygon fill="midnightblue" stroke="midnightblue" points="954.835,-385.585 958.855,-375.782 949.6,-380.938 954.835,-385.585"/>
</g>
<!-- Node28 -->
<g id="node28" class="node"><title>Node28</title>
<g id="a_node28"><a xlink:href="classTextObject.html#a08fdf4f44f51b8bed47924be88de9515" target="_top" xlink:title="TextObject::color">
<polygon fill="white" stroke="black" points="729.5,-394.5 729.5,-413.5 821.5,-413.5 821.5,-394.5 729.5,-394.5"/>
<text text-anchor="middle" x="775.5" y="-401.5" font-family="Helvetica,sans-Serif" font-size="10.00">TextObject::color</text>
</a>
</g>
</g>
<!-- Node27&#45;&gt;Node28 -->
<g id="edge31" class="edge"><title>Node27&#45;&gt;Node28</title>
<path fill="none" stroke="midnightblue" d="M645.142,-404C668.37,-404 695.68,-404 719.206,-404"/>
<polygon fill="midnightblue" stroke="midnightblue" points="719.376,-407.5 729.376,-404 719.376,-400.5 719.376,-407.5"/>
</g>
<!-- Node29&#45;&gt;Node20 -->
<g id="edge39" class="edge"><title>Node29&#45;&gt;Node20</title>
<path fill="none" stroke="midnightblue" d="M643.772,-299.533C699.098,-311.826 787.639,-337.511 850,-385 902.742,-425.164 941.727,-495.694 958.261,-529.245"/>
<polygon fill="midnightblue" stroke="midnightblue" points="955.173,-530.901 962.662,-538.396 961.482,-527.867 955.173,-530.901"/>
</g>
<!-- Node30 -->
<g id="node30" class="node"><title>Node30</title>
<g id="a_node30"><a xlink:href="classYUVSource.html#a332084d14672d88f6f6bd95c1885ea0d" target="_top" xlink:title="YUVSource::setSize">
<polygon fill="white" stroke="black" points="722,-280.5 722,-299.5 829,-299.5 829,-280.5 722,-280.5"/>
<text text-anchor="middle" x="775.5" y="-287.5" font-family="Helvetica,sans-Serif" font-size="10.00">YUVSource::setSize</text>
</a>
</g>
</g>
<!-- Node29&#45;&gt;Node30 -->
<g id="edge34" class="edge"><title>Node29&#45;&gt;Node30</title>
<path fill="none" stroke="midnightblue" d="M647.6,-290C667.83,-290 690.879,-290 711.732,-290"/>
<polygon fill="midnightblue" stroke="midnightblue" points="711.771,-293.5 721.771,-290 711.771,-286.5 711.771,-293.5"/>
</g>
<!-- Node31 -->
<g id="node31" class="node"><title>Node31</title>
<g id="a_node31"><a xlink:href="classDisplayObject.html#a6de8d51bc677aa3956bd2d98228808b8" target="_top" xlink:title="DisplayObject::refreshNumber\lOfFrames">
<polygon fill="white" stroke="black" points="701,-193 701,-223 850,-223 850,-193 701,-193"/>
<text text-anchor="start" x="709" y="-211" font-family="Helvetica,sans-Serif" font-size="10.00">DisplayObject::refreshNumber</text>
<text text-anchor="middle" x="775.5" y="-200" font-family="Helvetica,sans-Serif" font-size="10.00">OfFrames</text>
</a>
</g>
</g>
<!-- Node29&#45;&gt;Node31 -->
<g id="edge35" class="edge"><title>Node29&#45;&gt;Node31</title>
<path fill="none" stroke="midnightblue" d="M608.654,-280.492C629.519,-268.453 667.178,-247.531 701,-233 706.108,-230.805 711.479,-228.669 716.894,-226.629"/>
<polygon fill="midnightblue" stroke="midnightblue" points="718.451,-229.786 726.644,-223.069 716.05,-223.211 718.451,-229.786"/>
</g>
<!-- Node33 -->
<g id="node33" class="node"><title>Node33</title>
<g id="a_node33"><a xlink:href="classYUVSource.html#af9f4f917c1c5219829f708ad0b0bd67a" target="_top" xlink:title="YUVSource::getSize">
<polygon fill="white" stroke="black" points="722,-242.5 722,-261.5 829,-261.5 829,-242.5 722,-242.5"/>
<text text-anchor="middle" x="775.5" y="-249.5" font-family="Helvetica,sans-Serif" font-size="10.00">YUVSource::getSize</text>
</a>
</g>
</g>
<!-- Node29&#45;&gt;Node33 -->
<g id="edge38" class="edge"><title>Node29&#45;&gt;Node33</title>
<path fill="none" stroke="midnightblue" d="M638.426,-280.411C662.876,-275.306 693.133,-268.989 718.903,-263.608"/>
<polygon fill="midnightblue" stroke="midnightblue" points="719.83,-266.99 728.904,-261.52 718.4,-260.138 719.83,-266.99"/>
</g>
<!-- Node31&#45;&gt;Node26 -->
<g id="edge36" class="edge"><title>Node31&#45;&gt;Node26</title>
<path fill="none" stroke="midnightblue" d="M831.412,-223.077C837.926,-225.896 844.283,-229.184 850,-233 897.11,-264.446 936.994,-319.487 955.664,-347.895"/>
<polygon fill="midnightblue" stroke="midnightblue" points="952.807,-349.921 961.163,-356.435 958.692,-346.132 952.807,-349.921"/>
</g>
<!-- Node32 -->
<g id="node32" class="node"><title>Node32</title>
<g id="a_node32"><a xlink:href="classDisplayObject.html#a587ff96ee994001247bdb74df1001309" target="_top" xlink:title="DisplayObject::numFrames">
<polygon fill="white" stroke="black" points="900,-218.5 900,-237.5 1036,-237.5 1036,-218.5 900,-218.5"/>
<text text-anchor="middle" x="968" y="-225.5" font-family="Helvetica,sans-Serif" font-size="10.00">DisplayObject::numFrames</text>
</a>
</g>
</g>
<!-- Node31&#45;&gt;Node32 -->
<g id="edge37" class="edge"><title>Node31&#45;&gt;Node32</title>
<path fill="none" stroke="midnightblue" d="M850.152,-215.733C863.04,-217.086 876.485,-218.497 889.474,-219.861"/>
<polygon fill="midnightblue" stroke="midnightblue" points="889.463,-223.379 899.774,-220.942 890.194,-216.417 889.463,-223.379"/>
</g>
<!-- Node34&#45;&gt;Node31 -->
<g id="edge43" class="edge"><title>Node34&#45;&gt;Node31</title>
<path fill="none" stroke="midnightblue" d="M656.155,-192.394C667.334,-193.868 679.119,-195.422 690.746,-196.956"/>
<polygon fill="midnightblue" stroke="midnightblue" points="690.532,-200.458 700.904,-198.295 691.447,-193.518 690.532,-200.458"/>
</g>
<!-- Node35 -->
<g id="node35" class="node"><title>Node35</title>
<g id="a_node35"><a xlink:href="classYUVSource.html#a3b9129ee597809af82176876e40a215a" target="_top" xlink:title="YUVSource::setPixelFormat">
<polygon fill="white" stroke="black" points="898,-17.5 898,-36.5 1038,-36.5 1038,-17.5 898,-17.5"/>
<text text-anchor="middle" x="968" y="-24.5" font-family="Helvetica,sans-Serif" font-size="10.00">YUVSource::setPixelFormat</text>
</a>
</g>
</g>
<!-- Node34&#45;&gt;Node35 -->
<g id="edge41" class="edge"><title>Node34&#45;&gt;Node35</title>
<path fill="none" stroke="midnightblue" d="M624.124,-168.926C645.669,-158.78 674.908,-145.252 701,-134 783.274,-98.5208 881.357,-60.0351 932.342,-40.3111"/>
<polygon fill="midnightblue" stroke="midnightblue" points="933.825,-43.4905 941.892,-36.6229 931.303,-36.9605 933.825,-43.4905"/>
</g>
<!-- Node37 -->
<g id="node37" class="node"><title>Node37</title>
<g id="a_node37"><a xlink:href="classFrameObject.html#ac42be5ded1448dde312e661e66c8730e" target="_top" xlink:title="FrameObject::refreshDisplay\lImage">
<polygon fill="white" stroke="black" points="704.5,-144 704.5,-174 846.5,-174 846.5,-144 704.5,-144"/>
<text text-anchor="start" x="712.5" y="-162" font-family="Helvetica,sans-Serif" font-size="10.00">FrameObject::refreshDisplay</text>
<text text-anchor="middle" x="775.5" y="-151" font-family="Helvetica,sans-Serif" font-size="10.00">Image</text>
</a>
</g>
</g>
<!-- Node34&#45;&gt;Node37 -->
<g id="edge44" class="edge"><title>Node34&#45;&gt;Node37</title>
<path fill="none" stroke="midnightblue" d="M656.155,-175.256C668.449,-173.567 681.478,-171.778 694.222,-170.027"/>
<polygon fill="midnightblue" stroke="midnightblue" points="694.931,-173.463 704.362,-168.634 693.979,-166.528 694.931,-173.463"/>
</g>
<!-- Node36 -->
<g id="node36" class="node"><title>Node36</title>
<g id="a_node36"><a xlink:href="classYUVSource.html#a592ce352c789f4f5789b11e052b58a33" target="_top" xlink:title="YUVSource::pixelFormat">
<polygon fill="white" stroke="black" points="1103,-0.5 1103,-19.5 1228,-19.5 1228,-0.5 1103,-0.5"/>
<text text-anchor="middle" x="1165.5" y="-7.5" font-family="Helvetica,sans-Serif" font-size="10.00">YUVSource::pixelFormat</text>
</a>
</g>
</g>
<!-- Node35&#45;&gt;Node36 -->
<g id="edge42" class="edge"><title>Node35&#45;&gt;Node36</title>
<path fill="none" stroke="midnightblue" d="M1038.2,-20.9825C1055.83,-19.4495 1074.82,-17.7984 1092.58,-16.2539"/>
<polygon fill="midnightblue" stroke="midnightblue" points="1093.22,-19.7117 1102.88,-15.3585 1092.61,-12.738 1093.22,-19.7117"/>
</g>
<!-- Node38 -->
<g id="node38" class="node"><title>Node38</title>
<g id="a_node38"><a xlink:href="classFrameObject.html#adfa8fc2528a422aba57c301f3c2a311c" target="_top" xlink:title="FrameObject::clearCurrent\lCache">
<polygon fill="white" stroke="black" points="902,-169 902,-199 1034,-199 1034,-169 902,-169"/>
<text text-anchor="start" x="910" y="-187" font-family="Helvetica,sans-Serif" font-size="10.00">FrameObject::clearCurrent</text>
<text text-anchor="middle" x="968" y="-176" font-family="Helvetica,sans-Serif" font-size="10.00">Cache</text>
</a>
</g>
</g>
<!-- Node37&#45;&gt;Node38 -->
<g id="edge45" class="edge"><title>Node37&#45;&gt;Node38</title>
<path fill="none" stroke="midnightblue" d="M846.624,-168.203C861.277,-170.126 876.785,-172.161 891.62,-174.108"/>
<polygon fill="midnightblue" stroke="midnightblue" points="891.394,-177.608 901.764,-175.439 892.305,-170.667 891.394,-177.608"/>
</g>
<!-- Node41 -->
<g id="node41" class="node"><title>Node41</title>
<g id="a_node41"><a xlink:href="classFrameObject.html#ad33aa12aedba2856ec54989d6eda2d49" target="_top" xlink:title="FrameObject::loadImage">
<polygon fill="white" stroke="red" points="906,-122.5 906,-141.5 1030,-141.5 1030,-122.5 906,-122.5"/>
<text text-anchor="middle" x="968" y="-129.5" font-family="Helvetica,sans-Serif" font-size="10.00">FrameObject::loadImage</text>
</a>
</g>
</g>
<!-- Node37&#45;&gt;Node41 -->
<g id="edge48" class="edge"><title>Node37&#45;&gt;Node41</title>
<path fill="none" stroke="midnightblue" d="M846.624,-149.061C862.549,-146.804 879.485,-144.404 895.468,-142.138"/>
<polygon fill="midnightblue" stroke="midnightblue" points="896.404,-145.541 905.814,-140.672 895.422,-138.61 896.404,-145.541"/>
</g>
<!-- Node39 -->
<g id="node39" class="node"><title>Node39</title>
<g id="a_node39"><a xlink:href="classYUVSource.html#a12174732ce70dfe8f1e5b842a532b8c9" target="_top" xlink:title="YUVSource::getName">
<polygon fill="white" stroke="black" points="1108.5,-228.5 1108.5,-247.5 1222.5,-247.5 1222.5,-228.5 1108.5,-228.5"/>
<text text-anchor="middle" x="1165.5" y="-235.5" font-family="Helvetica,sans-Serif" font-size="10.00">YUVSource::getName</text>
</a>
</g>
</g>
<!-- Node38&#45;&gt;Node39 -->
<g id="edge46" class="edge"><title>Node38&#45;&gt;Node39</title>
<path fill="none" stroke="midnightblue" d="M1017.22,-199.054C1038.27,-205.461 1063.28,-212.857 1086,-219 1094.85,-221.392 1104.29,-223.801 1113.46,-226.063"/>
<polygon fill="midnightblue" stroke="midnightblue" points="1112.7,-229.481 1123.25,-228.451 1114.36,-222.681 1112.7,-229.481"/>
</g>
<!-- Node40 -->
<g id="node40" class="node"><title>Node40</title>
<g id="a_node40"><a xlink:href="classFrameObject.html#a1069def130e7deac035f166084ae4ca8" target="_top" xlink:title="FrameObject::numFrames">
<polygon fill="white" stroke="red" points="1100,-190.5 1100,-209.5 1231,-209.5 1231,-190.5 1100,-190.5"/>
<text text-anchor="middle" x="1165.5" y="-197.5" font-family="Helvetica,sans-Serif" font-size="10.00">FrameObject::numFrames</text>
</a>
</g>
</g>
<!-- Node38&#45;&gt;Node40 -->
<g id="edge47" class="edge"><title>Node38&#45;&gt;Node40</title>
<path fill="none" stroke="midnightblue" d="M1034.1,-189.328C1051.91,-190.785 1071.35,-192.376 1089.65,-193.874"/>
<polygon fill="midnightblue" stroke="midnightblue" points="1089.43,-197.368 1099.69,-194.695 1090,-190.391 1089.43,-197.368"/>
</g>
<!-- Node41&#45;&gt;Node36 -->
<g id="edge51" class="edge"><title>Node41&#45;&gt;Node36</title>
<path fill="none" stroke="midnightblue" d="M976.975,-122.342C994.47,-101.82 1038.46,-53.7274 1086,-29 1090.55,-26.6341 1095.4,-24.5564 1100.37,-22.733"/>
<polygon fill="midnightblue" stroke="midnightblue" points="1101.65,-25.9973 1110.04,-19.5306 1099.45,-19.3523 1101.65,-25.9973"/>
</g>
<!-- Node41&#45;&gt;Node39 -->
<g id="edge50" class="edge"><title>Node41&#45;&gt;Node39</title>
<path fill="none" stroke="midnightblue" d="M1016.41,-141.636C1028.23,-145.624 1040.29,-151.209 1050,-159 1074.26,-178.459 1060.94,-200.58 1086,-219 1089.96,-221.909 1094.3,-224.378 1098.85,-226.473"/>
<polygon fill="midnightblue" stroke="midnightblue" points="1097.84,-229.837 1108.43,-230.268 1100.42,-223.33 1097.84,-229.837"/>
</g>
<!-- Node41&#45;&gt;Node40 -->
<g id="edge49" class="edge"><title>Node41&#45;&gt;Node40</title>
<path fill="none" stroke="midnightblue" d="M1003.56,-141.622C1018.18,-146.175 1035.21,-152.126 1050,-159 1067,-166.904 1068.68,-173.819 1086,-181 1091.95,-183.467 1098.29,-185.66 1104.7,-187.599"/>
<polygon fill="midnightblue" stroke="midnightblue" points="1104.18,-191.091 1114.76,-190.438 1106.08,-184.354 1104.18,-191.091"/>
</g>
<!-- Node42 -->
<g id="node42" class="node"><title>Node42</title>
<g id="a_node42"><a xlink:href="classYUVSource.html#aff9d7390aa2cdb93376c69ede52b1e30" target="_top" xlink:title="YUVSource::getOneFrame">
<polygon fill="white" stroke="black" points="1098.5,-76.5 1098.5,-95.5 1232.5,-95.5 1232.5,-76.5 1098.5,-76.5"/>
<text text-anchor="middle" x="1165.5" y="-83.5" font-family="Helvetica,sans-Serif" font-size="10.00">YUVSource::getOneFrame</text>
</a>
</g>
</g>
<!-- Node41&#45;&gt;Node42 -->
<g id="edge52" class="edge"><title>Node41&#45;&gt;Node42</title>
<path fill="none" stroke="midnightblue" d="M1009.51,-122.469C1039.91,-115.314 1081.73,-105.475 1114.27,-97.8194"/>
<polygon fill="midnightblue" stroke="midnightblue" points="1115.11,-101.216 1124.04,-95.519 1113.51,-94.4025 1115.11,-101.216"/>
</g>
<!-- Node43 -->
<g id="node43" class="node"><title>Node43</title>
<g id="a_node43"><a xlink:href="classFrameObject.html#a3157b2afa82e71a5ebd93ac6dd25de6b" target="_top" xlink:title="FrameObject::doApplyYUVMath">
<polygon fill="white" stroke="black" points="1087,-38.5 1087,-57.5 1244,-57.5 1244,-38.5 1087,-38.5"/>
<text text-anchor="middle" x="1165.5" y="-45.5" font-family="Helvetica,sans-Serif" font-size="10.00">FrameObject::doApplyYUVMath</text>
</a>
</g>
</g>
<!-- Node41&#45;&gt;Node43 -->
<g id="edge53" class="edge"><title>Node41&#45;&gt;Node43</title>
<path fill="none" stroke="midnightblue" d="M983.155,-122.471C1004.56,-108.457 1046.82,-82.2985 1086,-67 1092.41,-64.4984 1099.24,-62.2579 1106.1,-60.2704"/>
<polygon fill="midnightblue" stroke="midnightblue" points="1107.4,-63.5444 1116.13,-57.5384 1105.56,-56.7907 1107.4,-63.5444"/>
</g>
<!-- Node44 -->
<g id="node44" class="node"><title>Node44</title>
<g id="a_node44"><a xlink:href="classFrameObject.html#a38084be9c862db6fea97d202231144ec" target="_top" xlink:title="FrameObject::applyYUVMath">
<polygon fill="white" stroke="red" points="1093,-152.5 1093,-171.5 1238,-171.5 1238,-152.5 1093,-152.5"/>
<text text-anchor="middle" x="1165.5" y="-159.5" font-family="Helvetica,sans-Serif" font-size="10.00">FrameObject::applyYUVMath</text>
</a>
</g>
</g>
<!-- Node41&#45;&gt;Node44 -->
<g id="edge54" class="edge"><title>Node41&#45;&gt;Node44</title>
<path fill="none" stroke="midnightblue" d="M1030.05,-141.369C1049.89,-144.412 1072.08,-147.818 1092.63,-150.971"/>
<polygon fill="midnightblue" stroke="midnightblue" points="1092.15,-154.438 1102.56,-152.496 1093.21,-147.519 1092.15,-154.438"/>
</g>
<!-- Node45 -->
<g id="node45" class="node"><title>Node45</title>
<g id="a_node45"><a xlink:href="classFrameObject.html#acd2367ffa54180853cd3ee901aa85304" target="_top" xlink:title="FrameObject::convertYUV2RGB">
<polygon fill="white" stroke="red" points="1086,-114.5 1086,-133.5 1245,-133.5 1245,-114.5 1086,-114.5"/>
<text text-anchor="middle" x="1165.5" y="-121.5" font-family="Helvetica,sans-Serif" font-size="10.00">FrameObject::convertYUV2RGB</text>
</a>
</g>
</g>
<!-- Node41&#45;&gt;Node45 -->
<g id="edge55" class="edge"><title>Node41&#45;&gt;Node45</title>
<path fill="none" stroke="midnightblue" d="M1030.05,-129.502C1044.57,-128.907 1060.36,-128.262 1075.84,-127.628"/>
<polygon fill="midnightblue" stroke="midnightblue" points="1076.1,-131.12 1085.95,-127.214 1075.81,-124.126 1076.1,-131.12"/>
</g>
<!-- Node49 -->
<g id="node49" class="node"><title>Node49</title>
<g id="a_node49"><a xlink:href="classstatisticSource.html#a88843dfe28a48a46a3f344ea41043181" target="_top" xlink:title="statisticSource::setStatistics\lTypeList">
<polygon fill="white" stroke="black" points="704,-715 704,-745 847,-745 847,-715 704,-715"/>
<text text-anchor="start" x="712" y="-733" font-family="Helvetica,sans-Serif" font-size="10.00">statisticSource::setStatistics</text>
<text text-anchor="middle" x="775.5" y="-722" font-family="Helvetica,sans-Serif" font-size="10.00">TypeList</text>
</a>
</g>
</g>
<!-- Node48&#45;&gt;Node49 -->
<g id="edge63" class="edge"><title>Node48&#45;&gt;Node49</title>
<path fill="none" stroke="midnightblue" d="M665.216,-720.393C674.596,-721.217 684.246,-722.066 693.745,-722.901"/>
<polygon fill="midnightblue" stroke="midnightblue" points="693.706,-726.411 703.974,-723.8 694.319,-719.438 693.706,-726.411"/>
</g>
<!-- Node50 -->
<g id="node50" class="node"><title>Node50</title>
<g id="a_node50"><a xlink:href="classstatisticSource.html#accae8cdfc95b05e3ef9a945b1f579c46" target="_top" xlink:title="statisticSource::getStatisticsType">
<polygon fill="white" stroke="black" points="886,-728.5 886,-747.5 1050,-747.5 1050,-728.5 886,-728.5"/>
<text text-anchor="middle" x="968" y="-735.5" font-family="Helvetica,sans-Serif" font-size="10.00">statisticSource::getStatisticsType</text>
</a>
</g>
</g>
<!-- Node49&#45;&gt;Node50 -->
<g id="edge64" class="edge"><title>Node49&#45;&gt;Node50</title>
<path fill="none" stroke="midnightblue" d="M847.164,-732.968C856.516,-733.36 866.208,-733.767 875.843,-734.172"/>
<polygon fill="midnightblue" stroke="midnightblue" points="875.71,-737.669 885.848,-734.592 876.003,-730.675 875.71,-737.669"/>
</g>
</g>
</svg>
