<?xml version="1.0" encoding="UTF-8" standalone="no"?>
<!DOCTYPE svg PUBLIC "-//W3C//DTD SVG 1.1//EN"
 "http://www.w3.org/Graphics/SVG/1.1/DTD/svg11.dtd">
<!-- Generated by graphviz version 2.38.0 (20140413.2041)
 -->
<!-- Title: PixelFormat Pages: 1 -->
<svg width="285pt" height="150pt"
 viewBox="0.00 0.00 285.00 150.00" xmlns="http://www.w3.org/2000/svg" xmlns:xlink="http://www.w3.org/1999/xlink">
<g id="graph0" class="graph" transform="scale(1 1) rotate(0) translate(4 146)">
<title>PixelFormat</title>
<polygon fill="white" stroke="none" points="-4,4 -4,-146 281,-146 281,4 -4,4"/>
<!-- Node1 -->
<g id="node1" class="node"><title>Node1</title>
<polygon fill="#bfbfbf" stroke="black" points="51.5,-0.5 51.5,-19.5 120.5,-19.5 120.5,-0.5 51.5,-0.5"/>
<text text-anchor="middle" x="86" y="-7.5" font-family="Helvetica,sans-Serif" font-size="10.00">PixelFormat</text>
</g>
<!-- Node2 -->
<g id="node2" class="node"><title>Node2</title>
<polygon fill="white" stroke="#bfbfbf" points="0,-122.5 0,-141.5 50,-141.5 50,-122.5 0,-122.5"/>
<text text-anchor="middle" x="25" y="-129.5" font-family="Helvetica,sans-Serif" font-size="10.00">QString</text>
</g>
<!-- Node2&#45;&gt;Node1 -->
<g id="edge1" class="edge"><title>Node2&#45;&gt;Node1</title>
<path fill="none" stroke="#9a32cd" stroke-dasharray="5,2" d="M24.6826,-112.182C25.233,-92.1332 28.7435,-60.2768 44,-38 49.3879,-30.1329 57.9001,-24.0415 65.8568,-19.6524"/>
<polygon fill="#9a32cd" stroke="#9a32cd" points="21.1814,-112.444 24.6342,-122.46 28.1814,-112.477 21.1814,-112.444"/>
<text text-anchor="middle" x="63" y="-68.5" font-family="Helvetica,sans-Serif" font-size="10.00"> p_name</text>
</g>
<!-- Node3 -->
<g id="node3" class="node"><title>Node3</title>
<polygon fill="white" stroke="#bfbfbf" points="71.5,-122.5 71.5,-141.5 100.5,-141.5 100.5,-122.5 71.5,-122.5"/>
<text text-anchor="middle" x="86" y="-129.5" font-family="Helvetica,sans-Serif" font-size="10.00">int</text>
</g>
<!-- Node3&#45;&gt;Node1 -->
<g id="edge2" class="edge"><title>Node3&#45;&gt;Node1</title>
<path fill="none" stroke="#9a32cd" stroke-dasharray="5,2" d="M86,-112.145C86,-85.7231 86,-38.7637 86,-19.5519"/>
<polygon fill="#9a32cd" stroke="#9a32cd" points="82.5001,-112.37 86,-122.37 89.5001,-112.37 82.5001,-112.37"/>
<text text-anchor="middle" x="150" y="-96" font-family="Helvetica,sans-Serif" font-size="10.00"> p_subsamplingVertical</text>
<text text-anchor="middle" x="150" y="-85" font-family="Helvetica,sans-Serif" font-size="10.00">p_bytePerComponentSample</text>
<text text-anchor="middle" x="150" y="-74" font-family="Helvetica,sans-Serif" font-size="10.00">p_bitsPerSample</text>
<text text-anchor="middle" x="150" y="-63" font-family="Helvetica,sans-Serif" font-size="10.00">p_subsamplingHorizontal</text>
<text text-anchor="middle" x="150" y="-52" font-family="Helvetica,sans-Serif" font-size="10.00">p_bitsPerPixelDenominator</text>
<text text-anchor="middle" x="150" y="-41" font-family="Helvetica,sans-Serif" font-size="10.00">p_bitsPerPixelNominator</text>
</g>
<!-- Node4 -->
<g id="node4" class="node"><title>Node4</title>
<polygon fill="white" stroke="#bfbfbf" points="219.5,-122.5 219.5,-141.5 254.5,-141.5 254.5,-122.5 219.5,-122.5"/>
<text text-anchor="middle" x="237" y="-129.5" font-family="Helvetica,sans-Serif" font-size="10.00">bool</text>
</g>
<!-- Node4&#45;&gt;Node1 -->
<g id="edge3" class="edge"><title>Node4&#45;&gt;Node1</title>
<path fill="none" stroke="#9a32cd" stroke-dasharray="5,2" d="M238.067,-112.129C238.163,-91.0464 234.852,-57.3435 215,-38 201.808,-25.1458 154.186,-17.7806 120.659,-14.0845"/>
<polygon fill="#9a32cd" stroke="#9a32cd" points="234.561,-112.268 237.747,-122.372 241.558,-112.487 234.561,-112.268"/>
<text text-anchor="middle" x="257" y="-68.5" font-family="Helvetica,sans-Serif" font-size="10.00"> p_planar</text>
</g>
</g>
</svg>
