<?xml version="1.0" encoding="UTF-8" standalone="no"?>
<!DOCTYPE svg PUBLIC "-//W3C//DTD SVG 1.1//EN"
 "http://www.w3.org/Graphics/SVG/1.1/DTD/svg11.dtd">
<!-- Generated by graphviz version 2.38.0 (20140413.2041)
 -->
<!-- Title: de265File::getOneFrame Pages: 1 -->
<!--zoomable 385 -->
<svg id="main" version="1.1" xmlns="http://www.w3.org/2000/svg" xmlns:xlink="http://www.w3.org/1999/xlink" xml:space="preserve" onload="init(evt)">
<style type="text/css"><![CDATA[
.edge:hover path { stroke: red; }
.edge:hover polygon { stroke: red; fill: red; }
]]></style>
<script type="text/javascript"><![CDATA[
var edges = document.getElementsByTagName('g');
if (edges && edges.length) {
  for (var i=0;i<edges.length;i++) {
    if (edges[i].id.substr(0,4)=='edge') {
      edges[i].setAttribute('class','edge');
    }
  }
}
]]></script>
        <defs>
                <circle id="rim" cx="0" cy="0" r="7"/>
                <circle id="rim2" cx="0" cy="0" r="3.5"/>
                <g id="zoomPlus">
                        <use xlink:href="#rim" fill="#404040">
                                <set attributeName="fill" to="#808080" begin="zoomplus.mouseover" end="zoomplus.mouseout"/>
                        </use>
                        <path d="M-4,0h8M0,-4v8" fill="none" stroke="white" stroke-width="1.5" pointer-events="none"/>
                </g>
                <g id="zoomMin">
                        <use xlink:href="#rim" fill="#404040">
                                <set attributeName="fill" to="#808080" begin="zoomminus.mouseover" end="zoomminus.mouseout"/>
                        </use>
                        <path d="M-4,0h8" fill="none" stroke="white" stroke-width="1.5" pointer-events="none"/>
                </g>
                <g id="dirArrow">
                        <path fill="none" stroke="white" stroke-width="1.5" d="M0,-3.0v7 M-2.5,-0.5L0,-3.0L2.5,-0.5"/>
                </g>
               <g id="resetDef">
                       <use xlink:href="#rim2" fill="#404040">
                               <set attributeName="fill" to="#808080" begin="reset.mouseover" end="reset.mouseout"/>
                       </use>
               </g>
        </defs>

<script type="text/javascript">
var viewWidth = 1280;
var viewHeight = 385;
var sectionId = 'dynsection-20';
</script>
<script xlink:href="svgpan.js"/>
<svg id="graph" class="graph">
<g id="viewport">
<title>de265File::getOneFrame</title>
<polygon fill="white" stroke="none" points="-4,4 -4,-381 1276,-381 1276,4 -4,4"/>
<!-- Node1 -->
<g id="node1" class="node"><title>Node1</title>
<polygon fill="#bfbfbf" stroke="black" points="0,-139.5 0,-158.5 124,-158.5 124,-139.5 0,-139.5"/>
<text text-anchor="middle" x="62" y="-146.5" font-family="Helvetica,sans-Serif" font-size="10.00">de265File::getOneFrame</text>
</g>
<!-- Node2 -->
<g id="node2" class="node"><title>Node2</title>
<g id="a_node2"><a xlink:href="classde265File.html#a11e810b8338cce1574a5a66a7de4121f" target="_top" xlink:title="de265File::allocateNewDecoder">
<polygon fill="white" stroke="black" points="539,-256.5 539,-275.5 694,-275.5 694,-256.5 539,-256.5"/>
<text text-anchor="middle" x="616.5" y="-263.5" font-family="Helvetica,sans-Serif" font-size="10.00">de265File::allocateNewDecoder</text>
</a>
</g>
</g>
<!-- Node1&#45;&gt;Node2 -->
<g id="edge1" class="edge"><title>Node1&#45;&gt;Node2</title>
<path fill="none" stroke="midnightblue" d="M85.9453,-158.55C105.487,-166.547 134.387,-178.057 160,-187 245.608,-216.892 265.882,-230.262 355,-247 412.345,-257.77 477.854,-262.514 528.834,-264.568"/>
<polygon fill="midnightblue" stroke="midnightblue" points="528.705,-268.065 538.829,-264.944 528.968,-261.07 528.705,-268.065"/>
</g>
<!-- Node3 -->
<g id="node3" class="node"><title>Node3</title>
<g id="a_node3"><a xlink:href="classde265File.html#a948bfcc1b2c4ad6f0a3aa54b99f9553f" target="_top" xlink:title="de265File::backgroundDecoder">
<polygon fill="white" stroke="black" points="163.5,-158.5 163.5,-177.5 315.5,-177.5 315.5,-158.5 163.5,-158.5"/>
<text text-anchor="middle" x="239.5" y="-165.5" font-family="Helvetica,sans-Serif" font-size="10.00">de265File::backgroundDecoder</text>
</a>
</g>
</g>
<!-- Node1&#45;&gt;Node3 -->
<g id="edge2" class="edge"><title>Node1&#45;&gt;Node3</title>
<path fill="none" stroke="midnightblue" d="M124.381,-155.645C133.698,-156.654 143.453,-157.71 153.167,-158.762"/>
<polygon fill="midnightblue" stroke="midnightblue" points="152.938,-162.257 163.257,-159.854 153.692,-155.298 152.938,-162.257"/>
</g>
<!-- Node28 -->
<g id="node28" class="node"><title>Node28</title>
<g id="a_node28"><a xlink:href="classde265File.html#a55079c881a5b49af1ff6802a013d6b05" target="_top" xlink:title="de265File::addEmptyBuffer">
<polygon fill="white" stroke="black" points="361.5,-92.5 361.5,-111.5 496.5,-111.5 496.5,-92.5 361.5,-92.5"/>
<text text-anchor="middle" x="429" y="-99.5" font-family="Helvetica,sans-Serif" font-size="10.00">de265File::addEmptyBuffer</text>
</a>
</g>
</g>
<!-- Node1&#45;&gt;Node28 -->
<g id="edge43" class="edge"><title>Node1&#45;&gt;Node28</title>
<path fill="none" stroke="midnightblue" d="M124.093,-141.133C186.539,-133.092 283.693,-120.582 351.282,-111.879"/>
<polygon fill="midnightblue" stroke="midnightblue" points="351.978,-115.318 361.449,-110.57 351.084,-108.375 351.978,-115.318"/>
</g>
<!-- Node29 -->
<g id="node29" class="node"><title>Node29</title>
<g id="a_node29"><a xlink:href="classde265File.html#a103231047037b251147ecbf2a71bc561" target="_top" xlink:title="de265File::popImageFromOutput\lBuffer">
<polygon fill="white" stroke="black" points="160,-71 160,-101 319,-101 319,-71 160,-71"/>
<text text-anchor="start" x="168" y="-89" font-family="Helvetica,sans-Serif" font-size="10.00">de265File::popImageFromOutput</text>
<text text-anchor="middle" x="239.5" y="-78" font-family="Helvetica,sans-Serif" font-size="10.00">Buffer</text>
</a>
</g>
</g>
<!-- Node1&#45;&gt;Node29 -->
<g id="edge42" class="edge"><title>Node1&#45;&gt;Node29</title>
<path fill="none" stroke="midnightblue" d="M89.6547,-139.432C115.377,-130.198 155.004,-115.973 186.905,-104.521"/>
<polygon fill="midnightblue" stroke="midnightblue" points="188.304,-107.738 196.533,-101.065 185.939,-101.15 188.304,-107.738"/>
</g>
<!-- Node4 -->
<g id="node4" class="node"><title>Node4</title>
<g id="a_node4"><a xlink:href="classde265File.html#ac9886a2f36ab86cd737480327a8e1169" target="_top" xlink:title="de265File::getEmptyBuffer">
<polygon fill="white" stroke="black" points="362.5,-180.5 362.5,-199.5 495.5,-199.5 495.5,-180.5 362.5,-180.5"/>
<text text-anchor="middle" x="429" y="-187.5" font-family="Helvetica,sans-Serif" font-size="10.00">de265File::getEmptyBuffer</text>
</a>
</g>
</g>
<!-- Node3&#45;&gt;Node4 -->
<g id="edge3" class="edge"><title>Node3&#45;&gt;Node4</title>
<path fill="none" stroke="midnightblue" d="M315.683,-176.821C327.782,-178.241 340.31,-179.711 352.418,-181.132"/>
<polygon fill="midnightblue" stroke="midnightblue" points="352.131,-184.622 362.471,-182.311 352.947,-177.67 352.131,-184.622"/>
</g>
<!-- Node5 -->
<g id="node5" class="node"><title>Node5</title>
<g id="a_node5"><a xlink:href="classde265File.html#af2a66d6d47d74d992f61da5048d90538" target="_top" xlink:title="de265File::decodeOnePicture">
<polygon fill="white" stroke="black" points="356.5,-218.5 356.5,-237.5 501.5,-237.5 501.5,-218.5 356.5,-218.5"/>
<text text-anchor="middle" x="429" y="-225.5" font-family="Helvetica,sans-Serif" font-size="10.00">de265File::decodeOnePicture</text>
</a>
</g>
</g>
<!-- Node3&#45;&gt;Node5 -->
<g id="edge4" class="edge"><title>Node3&#45;&gt;Node5</title>
<path fill="none" stroke="midnightblue" d="M265.301,-177.605C288.349,-186.357 323.727,-199.352 355,-209 362.74,-211.388 371.001,-213.731 379.08,-215.912"/>
<polygon fill="midnightblue" stroke="midnightblue" points="378.234,-219.308 388.797,-218.483 380.025,-212.541 378.234,-219.308"/>
</g>
<!-- Node27 -->
<g id="node27" class="node"><title>Node27</title>
<g id="a_node27"><a xlink:href="classde265File.html#ab871a9b271079bdd6e431661d07bdb7b" target="_top" xlink:title="de265File::addImageToOutput\lBuffer">
<polygon fill="white" stroke="black" points="355,-131 355,-161 503,-161 503,-131 355,-131"/>
<text text-anchor="start" x="363" y="-149" font-family="Helvetica,sans-Serif" font-size="10.00">de265File::addImageToOutput</text>
<text text-anchor="middle" x="429" y="-138" font-family="Helvetica,sans-Serif" font-size="10.00">Buffer</text>
</a>
</g>
</g>
<!-- Node3&#45;&gt;Node27 -->
<g id="edge40" class="edge"><title>Node3&#45;&gt;Node27</title>
<path fill="none" stroke="midnightblue" d="M315.683,-159.179C325.286,-158.052 335.16,-156.893 344.88,-155.753"/>
<polygon fill="midnightblue" stroke="midnightblue" points="345.411,-159.215 354.935,-154.573 344.595,-152.262 345.411,-159.215"/>
</g>
<!-- Node3&#45;&gt;Node28 -->
<g id="edge41" class="edge"><title>Node3&#45;&gt;Node28</title>
<path fill="none" stroke="midnightblue" d="M279.206,-158.433C292.14,-154.645 306.45,-149.796 319,-144 336.237,-136.04 337.599,-128.596 355,-121 360.459,-118.617 366.283,-116.481 372.169,-114.58"/>
<polygon fill="midnightblue" stroke="midnightblue" points="373.513,-117.83 382.081,-111.599 371.497,-111.127 373.513,-117.83"/>
</g>
<!-- Node5&#45;&gt;Node2 -->
<g id="edge39" class="edge"><title>Node5&#45;&gt;Node2</title>
<path fill="none" stroke="midnightblue" d="M476.809,-237.589C501.84,-242.716 532.841,-249.067 559.182,-254.463"/>
<polygon fill="midnightblue" stroke="midnightblue" points="558.528,-257.902 569.027,-256.48 559.933,-251.044 558.528,-257.902"/>
</g>
<!-- Node6 -->
<g id="node6" class="node"><title>Node6</title>
<g id="a_node6"><a xlink:href="classde265File.html#a98ca47c8bd383ae4aab828fff7e964bd" target="_top" xlink:title="de265File::getNumberFrames">
<polygon fill="white" stroke="black" points="543.5,-218.5 543.5,-237.5 689.5,-237.5 689.5,-218.5 543.5,-218.5"/>
<text text-anchor="middle" x="616.5" y="-225.5" font-family="Helvetica,sans-Serif" font-size="10.00">de265File::getNumberFrames</text>
</a>
</g>
</g>
<!-- Node5&#45;&gt;Node6 -->
<g id="edge5" class="edge"><title>Node5&#45;&gt;Node6</title>
<path fill="none" stroke="midnightblue" d="M501.719,-228C512.072,-228 522.794,-228 533.331,-228"/>
<polygon fill="midnightblue" stroke="midnightblue" points="533.36,-231.5 543.36,-228 533.36,-224.5 533.36,-231.5"/>
</g>
<!-- Node7 -->
<g id="node7" class="node"><title>Node7</title>
<g id="a_node7"><a xlink:href="classde265File.html#a3c517644cd5710d54289b2cdba99babc" target="_top" xlink:title="de265File::copyImgTo444Buffer">
<polygon fill="white" stroke="black" points="539,-180.5 539,-199.5 694,-199.5 694,-180.5 539,-180.5"/>
<text text-anchor="middle" x="616.5" y="-187.5" font-family="Helvetica,sans-Serif" font-size="10.00">de265File::copyImgTo444Buffer</text>
</a>
</g>
</g>
<!-- Node5&#45;&gt;Node7 -->
<g id="edge6" class="edge"><title>Node5&#45;&gt;Node7</title>
<path fill="none" stroke="midnightblue" d="M476.809,-218.411C501.84,-213.284 532.841,-206.933 559.182,-201.537"/>
<polygon fill="midnightblue" stroke="midnightblue" points="559.933,-204.956 569.027,-199.52 558.528,-198.098 559.933,-204.956"/>
</g>
<!-- Node22 -->
<g id="node22" class="node"><title>Node22</title>
<g id="a_node22"><a xlink:href="classde265File.html#a5d29707bcf85c62b6979f2b1d28ea5b9" target="_top" xlink:title="de265File::cacheStatistics">
<polygon fill="white" stroke="black" points="550.5,-85.5 550.5,-104.5 682.5,-104.5 682.5,-85.5 550.5,-85.5"/>
<text text-anchor="middle" x="616.5" y="-92.5" font-family="Helvetica,sans-Serif" font-size="10.00">de265File::cacheStatistics</text>
</a>
</g>
</g>
<!-- Node5&#45;&gt;Node22 -->
<g id="edge32" class="edge"><title>Node5&#45;&gt;Node22</title>
<path fill="none" stroke="midnightblue" d="M481.72,-218.416C489.136,-215.951 496.46,-212.863 503,-209 523.031,-197.168 522.746,-187.645 539,-171 559.049,-150.469 582.515,-127.278 598.118,-111.972"/>
<polygon fill="midnightblue" stroke="midnightblue" points="600.805,-114.24 605.501,-104.743 595.908,-109.238 600.805,-114.24"/>
</g>
<!-- Node8 -->
<g id="node8" class="node"><title>Node8</title>
<g id="a_node8"><a xlink:href="classde265File.html#ae0d8c743227dab80ea92b12273d1ed9d" target="_top" xlink:title="de265File::setDe265ChromaMode">
<polygon fill="white" stroke="black" points="730,-161.5 730,-180.5 895,-180.5 895,-161.5 730,-161.5"/>
<text text-anchor="middle" x="812.5" y="-168.5" font-family="Helvetica,sans-Serif" font-size="10.00">de265File::setDe265ChromaMode</text>
</a>
</g>
</g>
<!-- Node7&#45;&gt;Node8 -->
<g id="edge7" class="edge"><title>Node7&#45;&gt;Node8</title>
<path fill="none" stroke="midnightblue" d="M694.174,-182.491C702.624,-181.663 711.289,-180.815 719.897,-179.971"/>
<polygon fill="midnightblue" stroke="midnightblue" points="720.349,-183.444 729.96,-178.986 719.666,-176.477 720.349,-183.444"/>
</g>
<!-- Node9 -->
<g id="node9" class="node"><title>Node9</title>
<g id="a_node9"><a xlink:href="classde265File.html#a66bbaa69a4db7a5dcff623932b776993" target="_top" xlink:title="de265File::copyImgToByte\lArray">
<polygon fill="white" stroke="black" points="745.5,-238 745.5,-268 879.5,-268 879.5,-238 745.5,-238"/>
<text text-anchor="start" x="753.5" y="-256" font-family="Helvetica,sans-Serif" font-size="10.00">de265File::copyImgToByte</text>
<text text-anchor="middle" x="812.5" y="-245" font-family="Helvetica,sans-Serif" font-size="10.00">Array</text>
</a>
</g>
</g>
<!-- Node7&#45;&gt;Node9 -->
<g id="edge8" class="edge"><title>Node7&#45;&gt;Node9</title>
<path fill="none" stroke="midnightblue" d="M663.768,-199.576C673.874,-202.195 684.411,-205.341 694,-209 710.903,-215.45 713.278,-221.095 730,-228 735.521,-230.28 741.327,-232.462 747.19,-234.521"/>
<polygon fill="midnightblue" stroke="midnightblue" points="746.479,-237.975 757.073,-237.865 748.722,-231.345 746.479,-237.975"/>
</g>
<!-- Node10 -->
<g id="node10" class="node"><title>Node10</title>
<g id="a_node10"><a xlink:href="classYUVSource.html#aaec9232f1fe9e0b8beaad1cd4cb5279c" target="_top" xlink:title="YUVSource::convert2YUV444">
<polygon fill="white" stroke="black" points="738,-199.5 738,-218.5 887,-218.5 887,-199.5 738,-199.5"/>
<text text-anchor="middle" x="812.5" y="-206.5" font-family="Helvetica,sans-Serif" font-size="10.00">YUVSource::convert2YUV444</text>
</a>
</g>
</g>
<!-- Node7&#45;&gt;Node10 -->
<g id="edge9" class="edge"><title>Node7&#45;&gt;Node10</title>
<path fill="none" stroke="midnightblue" d="M694.174,-197.509C705.202,-198.589 716.597,-199.705 727.753,-200.798"/>
<polygon fill="midnightblue" stroke="midnightblue" points="727.621,-204.302 737.915,-201.793 728.304,-197.335 727.621,-204.302"/>
</g>
<!-- Node11 -->
<g id="node11" class="node"><title>Node11</title>
<g id="a_node11"><a xlink:href="classYUVSource.html#a49b60ef481a8c0da626c12c510c5f789" target="_top" xlink:title="YUVSource::horizontalSub\lSampling">
<polygon fill="white" stroke="black" points="946,-194 946,-224 1080,-224 1080,-194 946,-194"/>
<text text-anchor="start" x="954" y="-212" font-family="Helvetica,sans-Serif" font-size="10.00">YUVSource::horizontalSub</text>
<text text-anchor="middle" x="1013" y="-201" font-family="Helvetica,sans-Serif" font-size="10.00">Sampling</text>
</a>
</g>
</g>
<!-- Node10&#45;&gt;Node11 -->
<g id="edge10" class="edge"><title>Node10&#45;&gt;Node11</title>
<path fill="none" stroke="midnightblue" d="M887.132,-209C902.88,-209 919.553,-209 935.41,-209"/>
<polygon fill="midnightblue" stroke="midnightblue" points="935.694,-212.5 945.694,-209 935.694,-205.5 935.694,-212.5"/>
</g>
<!-- Node14 -->
<g id="node14" class="node"><title>Node14</title>
<g id="a_node14"><a xlink:href="classYUVSource.html#a76715cca6b2a80ab811ef55cefb77ba8" target="_top" xlink:title="YUVSource::verticalSubSampling">
<polygon fill="white" stroke="black" points="931,-155.5 931,-174.5 1095,-174.5 1095,-155.5 931,-155.5"/>
<text text-anchor="middle" x="1013" y="-162.5" font-family="Helvetica,sans-Serif" font-size="10.00">YUVSource::verticalSubSampling</text>
</a>
</g>
</g>
<!-- Node10&#45;&gt;Node14 -->
<g id="edge13" class="edge"><title>Node10&#45;&gt;Node14</title>
<path fill="none" stroke="midnightblue" d="M856.572,-199.453C886.615,-192.793 926.899,-183.864 958.927,-176.764"/>
<polygon fill="midnightblue" stroke="midnightblue" points="960.007,-180.11 969.013,-174.529 958.492,-173.276 960.007,-180.11"/>
</g>
<!-- Node15 -->
<g id="node15" class="node"><title>Node15</title>
<g id="a_node15"><a xlink:href="classYUVSource.html#ae9481604c7bc675f22e5c99b4d484799" target="_top" xlink:title="YUVSource::bytePerComponent">
<polygon fill="white" stroke="black" points="934,-117.5 934,-136.5 1092,-136.5 1092,-117.5 934,-117.5"/>
<text text-anchor="middle" x="1013" y="-124.5" font-family="Helvetica,sans-Serif" font-size="10.00">YUVSource::bytePerComponent</text>
</a>
</g>
</g>
<!-- Node10&#45;&gt;Node15 -->
<g id="edge16" class="edge"><title>Node10&#45;&gt;Node15</title>
<path fill="none" stroke="midnightblue" d="M874.486,-199.498C881.692,-197.028 888.711,-193.917 895,-190 916.447,-176.642 909.562,-159.373 931,-146 934.418,-143.868 938.053,-141.975 941.816,-140.294"/>
<polygon fill="midnightblue" stroke="midnightblue" points="943.357,-143.449 951.387,-136.538 940.8,-136.933 943.357,-143.449"/>
</g>
<!-- Node16 -->
<g id="node16" class="node"><title>Node16</title>
<g id="a_node16"><a xlink:href="yuvsource_8cpp.html#a27981d91849b459bede94a48e2ba017c" target="_top" xlink:title="SwapInt32BigToHost">
<polygon fill="white" stroke="black" points="958,-357.5 958,-376.5 1068,-376.5 1068,-357.5 958,-357.5"/>
<text text-anchor="middle" x="1013" y="-364.5" font-family="Helvetica,sans-Serif" font-size="10.00">SwapInt32BigToHost</text>
</a>
</g>
</g>
<!-- Node10&#45;&gt;Node16 -->
<g id="edge19" class="edge"><title>Node10&#45;&gt;Node16</title>
<path fill="none" stroke="midnightblue" d="M881.392,-218.645C886.351,-221.143 890.976,-224.22 895,-228 935.582,-266.125 890.444,-309.847 931,-348 936.019,-352.721 941.979,-356.343 948.357,-359.11"/>
<polygon fill="midnightblue" stroke="midnightblue" points="947.344,-362.466 957.938,-362.583 949.729,-355.885 947.344,-362.466"/>
</g>
<!-- Node18 -->
<g id="node18" class="node"><title>Node18</title>
<g id="a_node18"><a xlink:href="yuvsource_8cpp.html#a0c98dc4b871eaabafce15094c29a8f4b" target="_top" xlink:title="SwapInt32LittleToHost">
<polygon fill="white" stroke="black" points="955,-319.5 955,-338.5 1071,-338.5 1071,-319.5 955,-319.5"/>
<text text-anchor="middle" x="1013" y="-326.5" font-family="Helvetica,sans-Serif" font-size="10.00">SwapInt32LittleToHost</text>
</a>
</g>
</g>
<!-- Node10&#45;&gt;Node18 -->
<g id="edge21" class="edge"><title>Node10&#45;&gt;Node18</title>
<path fill="none" stroke="midnightblue" d="M879.702,-218.641C885.212,-221.12 890.418,-224.194 895,-228 925.619,-253.43 900.398,-284.549 931,-310 935.303,-313.579 940.16,-316.51 945.303,-318.907"/>
<polygon fill="midnightblue" stroke="midnightblue" points="944.228,-322.245 954.814,-322.669 946.803,-315.736 944.228,-322.245"/>
</g>
<!-- Node19 -->
<g id="node19" class="node"><title>Node19</title>
<g id="a_node19"><a xlink:href="classYUVSource.html#a41ae3831a69c7797cc486e8150dee813" target="_top" xlink:title="YUVSource::isPlanar">
<polygon fill="white" stroke="black" points="958,-79.5 958,-98.5 1068,-98.5 1068,-79.5 958,-79.5"/>
<text text-anchor="middle" x="1013" y="-86.5" font-family="Helvetica,sans-Serif" font-size="10.00">YUVSource::isPlanar</text>
</a>
</g>
</g>
<!-- Node10&#45;&gt;Node19 -->
<g id="edge23" class="edge"><title>Node10&#45;&gt;Node19</title>
<path fill="none" stroke="midnightblue" d="M879.702,-199.359C885.212,-196.88 890.418,-193.806 895,-190 925.619,-164.57 900.398,-133.451 931,-108 936.029,-103.818 941.813,-100.521 947.927,-97.9263"/>
<polygon fill="midnightblue" stroke="midnightblue" points="949.518,-101.074 957.747,-94.4018 947.153,-94.4857 949.518,-101.074"/>
</g>
<!-- Node20 -->
<g id="node20" class="node"><title>Node20</title>
<g id="a_node20"><a xlink:href="classYUVSource.html#a11ea64b650d6086177fa0f7a1f3f323d" target="_top" xlink:title="YUVSource::bitsPerSample">
<polygon fill="white" stroke="black" points="944,-281.5 944,-300.5 1082,-300.5 1082,-281.5 944,-281.5"/>
<text text-anchor="middle" x="1013" y="-288.5" font-family="Helvetica,sans-Serif" font-size="10.00">YUVSource::bitsPerSample</text>
</a>
</g>
</g>
<!-- Node10&#45;&gt;Node20 -->
<g id="edge26" class="edge"><title>Node10&#45;&gt;Node20</title>
<path fill="none" stroke="midnightblue" d="M874.486,-218.502C881.692,-220.972 888.711,-224.083 895,-228 916.447,-241.358 909.562,-258.627 931,-272 934.418,-274.132 938.053,-276.025 941.816,-277.706"/>
<polygon fill="midnightblue" stroke="midnightblue" points="940.8,-281.067 951.387,-281.462 943.357,-274.551 940.8,-281.067"/>
</g>
<!-- Node21 -->
<g id="node21" class="node"><title>Node21</title>
<g id="a_node21"><a xlink:href="classYUVSource.html#a1fc5a320feef3ca2e3d90c2606276f17" target="_top" xlink:title="YUVSource::bytesPerFrame">
<polygon fill="white" stroke="black" points="942.5,-243.5 942.5,-262.5 1083.5,-262.5 1083.5,-243.5 942.5,-243.5"/>
<text text-anchor="middle" x="1013" y="-250.5" font-family="Helvetica,sans-Serif" font-size="10.00">YUVSource::bytesPerFrame</text>
</a>
</g>
</g>
<!-- Node10&#45;&gt;Node21 -->
<g id="edge29" class="edge"><title>Node10&#45;&gt;Node21</title>
<path fill="none" stroke="midnightblue" d="M856.572,-218.547C886.615,-225.207 926.899,-234.136 958.927,-241.236"/>
<polygon fill="midnightblue" stroke="midnightblue" points="958.492,-244.724 969.013,-243.471 960.007,-237.89 958.492,-244.724"/>
</g>
<!-- Node12 -->
<g id="node12" class="node"><title>Node12</title>
<g id="a_node12"><a xlink:href="classYUVSource.html#a7e554f2c626688704099e00cc4ece029" target="_top" xlink:title="YUVSource::pixelFormatList">
<polygon fill="white" stroke="black" points="1131,-197.5 1131,-216.5 1272,-216.5 1272,-197.5 1131,-197.5"/>
<text text-anchor="middle" x="1201.5" y="-204.5" font-family="Helvetica,sans-Serif" font-size="10.00">YUVSource::pixelFormatList</text>
</a>
</g>
</g>
<!-- Node11&#45;&gt;Node12 -->
<g id="edge11" class="edge"><title>Node11&#45;&gt;Node12</title>
<path fill="none" stroke="midnightblue" d="M1080.02,-208.292C1093.13,-208.151 1107.02,-208.002 1120.54,-207.857"/>
<polygon fill="midnightblue" stroke="midnightblue" points="1120.82,-211.355 1130.78,-207.748 1120.74,-204.355 1120.82,-211.355"/>
</g>
<!-- Node13 -->
<g id="node13" class="node"><title>Node13</title>
<g id="a_node13"><a xlink:href="classYUVSource.html#a592ce352c789f4f5789b11e052b58a33" target="_top" xlink:title="YUVSource::pixelFormat">
<polygon fill="white" stroke="black" points="1139,-156.5 1139,-175.5 1264,-175.5 1264,-156.5 1139,-156.5"/>
<text text-anchor="middle" x="1201.5" y="-163.5" font-family="Helvetica,sans-Serif" font-size="10.00">YUVSource::pixelFormat</text>
</a>
</g>
</g>
<!-- Node11&#45;&gt;Node13 -->
<g id="edge12" class="edge"><title>Node11&#45;&gt;Node13</title>
<path fill="none" stroke="midnightblue" d="M1079.23,-193.961C1102.17,-188.671 1127.61,-182.806 1149.24,-177.82"/>
<polygon fill="midnightblue" stroke="midnightblue" points="1150.24,-181.18 1159.2,-175.522 1148.67,-174.358 1150.24,-181.18"/>
</g>
<!-- Node14&#45;&gt;Node12 -->
<g id="edge14" class="edge"><title>Node14&#45;&gt;Node12</title>
<path fill="none" stroke="midnightblue" d="M1056.32,-174.53C1083.53,-180.657 1119.08,-188.663 1148.07,-195.192"/>
<polygon fill="midnightblue" stroke="midnightblue" points="1147.5,-198.652 1158.03,-197.435 1149.04,-191.823 1147.5,-198.652"/>
</g>
<!-- Node14&#45;&gt;Node13 -->
<g id="edge15" class="edge"><title>Node14&#45;&gt;Node13</title>
<path fill="none" stroke="midnightblue" d="M1095.26,-165.436C1106.34,-165.495 1117.66,-165.556 1128.56,-165.614"/>
<polygon fill="midnightblue" stroke="midnightblue" points="1128.85,-169.116 1138.87,-165.67 1128.88,-162.116 1128.85,-169.116"/>
</g>
<!-- Node15&#45;&gt;Node12 -->
<g id="edge17" class="edge"><title>Node15&#45;&gt;Node12</title>
<path fill="none" stroke="midnightblue" d="M1073.55,-136.62C1081.04,-139.07 1088.39,-142.144 1095,-146 1115.38,-157.882 1111.09,-172.351 1131,-185 1136.4,-188.429 1142.37,-191.362 1148.49,-193.861"/>
<polygon fill="midnightblue" stroke="midnightblue" points="1147.55,-197.247 1158.15,-197.438 1149.98,-190.683 1147.55,-197.247"/>
</g>
<!-- Node15&#45;&gt;Node13 -->
<g id="edge18" class="edge"><title>Node15&#45;&gt;Node13</title>
<path fill="none" stroke="midnightblue" d="M1059.62,-136.54C1085.46,-141.943 1117.96,-148.74 1145.24,-154.443"/>
<polygon fill="midnightblue" stroke="midnightblue" points="1144.52,-157.869 1155.03,-156.491 1145.95,-151.018 1144.52,-157.869"/>
</g>
<!-- Node17 -->
<g id="node17" class="node"><title>Node17</title>
<g id="a_node17"><a xlink:href="yuvsource_8cpp.html#aba4cbfdcf035da2dd089dbf5dd97ff19" target="_top" xlink:title="SwapInt32">
<polygon fill="white" stroke="black" points="1170,-338.5 1170,-357.5 1233,-357.5 1233,-338.5 1170,-338.5"/>
<text text-anchor="middle" x="1201.5" y="-345.5" font-family="Helvetica,sans-Serif" font-size="10.00">SwapInt32</text>
</a>
</g>
</g>
<!-- Node16&#45;&gt;Node17 -->
<g id="edge20" class="edge"><title>Node16&#45;&gt;Node17</title>
<path fill="none" stroke="midnightblue" d="M1068.19,-361.479C1097.34,-358.509 1132.7,-354.907 1159.53,-352.173"/>
<polygon fill="midnightblue" stroke="midnightblue" points="1160.14,-355.63 1169.73,-351.134 1159.43,-348.666 1160.14,-355.63"/>
</g>
<!-- Node18&#45;&gt;Node17 -->
<g id="edge22" class="edge"><title>Node18&#45;&gt;Node17</title>
<path fill="none" stroke="midnightblue" d="M1071.22,-334.83C1099.83,-337.744 1133.79,-341.204 1159.72,-343.845"/>
<polygon fill="midnightblue" stroke="midnightblue" points="1159.64,-347.356 1169.94,-344.887 1160.35,-340.392 1159.64,-347.356"/>
</g>
<!-- Node19&#45;&gt;Node12 -->
<g id="edge24" class="edge"><title>Node19&#45;&gt;Node12</title>
<path fill="none" stroke="midnightblue" d="M1068.13,-94.5475C1077.81,-97.4424 1087.26,-101.718 1095,-108 1124.33,-131.811 1102.6,-160.09 1131,-185 1134.62,-188.171 1138.69,-190.886 1143.01,-193.209"/>
<polygon fill="midnightblue" stroke="midnightblue" points="1141.59,-196.412 1152.14,-197.45 1144.54,-190.063 1141.59,-196.412"/>
</g>
<!-- Node19&#45;&gt;Node13 -->
<g id="edge25" class="edge"><title>Node19&#45;&gt;Node13</title>
<path fill="none" stroke="midnightblue" d="M1064.34,-98.5604C1074.64,-101.139 1085.29,-104.273 1095,-108 1124.92,-119.484 1156.84,-138.015 1177.63,-151.034"/>
<polygon fill="midnightblue" stroke="midnightblue" points="1175.78,-154 1186.09,-156.41 1179.53,-148.092 1175.78,-154"/>
</g>
<!-- Node20&#45;&gt;Node12 -->
<g id="edge27" class="edge"><title>Node20&#45;&gt;Node12</title>
<path fill="none" stroke="midnightblue" d="M1065.77,-281.481C1075.66,-278.933 1085.79,-275.801 1095,-272 1126.36,-259.064 1159.11,-237.406 1179.64,-222.677"/>
<polygon fill="midnightblue" stroke="midnightblue" points="1181.89,-225.366 1187.91,-216.644 1177.77,-219.711 1181.89,-225.366"/>
</g>
<!-- Node20&#45;&gt;Node13 -->
<g id="edge28" class="edge"><title>Node20&#45;&gt;Node13</title>
<path fill="none" stroke="midnightblue" d="M1079.83,-281.361C1085.3,-278.882 1090.46,-275.807 1095,-272 1126.11,-245.891 1100.9,-215.275 1131,-188 1134.42,-184.905 1138.27,-182.245 1142.36,-179.959"/>
<polygon fill="midnightblue" stroke="midnightblue" points="1144.12,-182.999 1151.63,-175.529 1141.1,-176.683 1144.12,-182.999"/>
</g>
<!-- Node21&#45;&gt;Node12 -->
<g id="edge30" class="edge"><title>Node21&#45;&gt;Node12</title>
<path fill="none" stroke="midnightblue" d="M1052.64,-243.469C1081.53,-236.345 1121.2,-226.56 1152.18,-218.918"/>
<polygon fill="midnightblue" stroke="midnightblue" points="1153.04,-222.312 1161.91,-216.519 1151.36,-215.516 1153.04,-222.312"/>
</g>
<!-- Node21&#45;&gt;Node13 -->
<g id="edge31" class="edge"><title>Node21&#45;&gt;Node13</title>
<path fill="none" stroke="midnightblue" d="M1072.56,-243.456C1080.45,-240.786 1088.17,-237.371 1095,-233 1116.58,-219.199 1109.88,-202.49 1131,-188 1135.95,-184.606 1141.45,-181.714 1147.12,-179.256"/>
<polygon fill="midnightblue" stroke="midnightblue" points="1148.72,-182.392 1156.77,-175.514 1146.19,-175.865 1148.72,-182.392"/>
</g>
<!-- Node23 -->
<g id="node23" class="node"><title>Node23</title>
<g id="a_node23"><a xlink:href="classstatisticSource.html#accae8cdfc95b05e3ef9a945b1f579c46" target="_top" xlink:title="statisticSource::getStatisticsType">
<polygon fill="white" stroke="black" points="931,-41.5 931,-60.5 1095,-60.5 1095,-41.5 931,-41.5"/>
<text text-anchor="middle" x="1013" y="-48.5" font-family="Helvetica,sans-Serif" font-size="10.00">statisticSource::getStatisticsType</text>
</a>
</g>
</g>
<!-- Node22&#45;&gt;Node23 -->
<g id="edge33" class="edge"><title>Node22&#45;&gt;Node23</title>
<path fill="none" stroke="midnightblue" d="M642.765,-104.591C693.437,-122.193 809.906,-154.324 895,-114 917.833,-103.18 909.562,-83.3729 931,-70 934.418,-67.8678 938.053,-65.9747 941.816,-64.2939"/>
<polygon fill="midnightblue" stroke="midnightblue" points="943.357,-67.4492 951.387,-60.5378 940.8,-60.933 943.357,-67.4492"/>
</g>
<!-- Node24 -->
<g id="node24" class="node"><title>Node24</title>
<g id="a_node24"><a xlink:href="classColorRange.html#ab14e6c6fd346fdf7a003cbae112daa99" target="_top" xlink:title="ColorRange::getColor">
<polygon fill="white" stroke="black" points="957.5,-0.5 957.5,-19.5 1068.5,-19.5 1068.5,-0.5 957.5,-0.5"/>
<text text-anchor="middle" x="1013" y="-7.5" font-family="Helvetica,sans-Serif" font-size="10.00">ColorRange::getColor</text>
</a>
</g>
</g>
<!-- Node22&#45;&gt;Node24 -->
<g id="edge34" class="edge"><title>Node22&#45;&gt;Node24</title>
<path fill="none" stroke="midnightblue" d="M628.701,-85.4542C647.93,-69.7183 689.111,-38.8018 730,-26 801.848,-3.50509 888.947,-2.23719 947.161,-4.82618"/>
<polygon fill="midnightblue" stroke="midnightblue" points="947.164,-8.33053 957.325,-5.33048 947.511,-1.33913 947.164,-8.33053"/>
</g>
<!-- Node25 -->
<g id="node25" class="node"><title>Node25</title>
<g id="a_node25"><a xlink:href="classde265File.html#a697bfc618014f0498d9afcf6f4385b97" target="_top" xlink:title="de265File::getPBSubPosition">
<polygon fill="white" stroke="black" points="740.5,-85.5 740.5,-104.5 884.5,-104.5 884.5,-85.5 740.5,-85.5"/>
<text text-anchor="middle" x="812.5" y="-92.5" font-family="Helvetica,sans-Serif" font-size="10.00">de265File::getPBSubPosition</text>
</a>
</g>
</g>
<!-- Node22&#45;&gt;Node25 -->
<g id="edge35" class="edge"><title>Node22&#45;&gt;Node25</title>
<path fill="none" stroke="midnightblue" d="M682.639,-95C697.809,-95 714.148,-95 729.929,-95"/>
<polygon fill="midnightblue" stroke="midnightblue" points="730.2,-98.5001 740.2,-95 730.2,-91.5001 730.2,-98.5001"/>
</g>
<!-- Node26 -->
<g id="node26" class="node"><title>Node26</title>
<g id="a_node26"><a xlink:href="classde265File.html#a520be66d0220a4771f0955ce29c71fa5" target="_top" xlink:title="de265File::cacheStatistics\l_TUTree_recursive">
<polygon fill="white" stroke="black" points="746.5,-36 746.5,-66 878.5,-66 878.5,-36 746.5,-36"/>
<text text-anchor="start" x="754.5" y="-54" font-family="Helvetica,sans-Serif" font-size="10.00">de265File::cacheStatistics</text>
<text text-anchor="middle" x="812.5" y="-43" font-family="Helvetica,sans-Serif" font-size="10.00">_TUTree_recursive</text>
</a>
</g>
</g>
<!-- Node22&#45;&gt;Node26 -->
<g id="edge36" class="edge"><title>Node22&#45;&gt;Node26</title>
<path fill="none" stroke="midnightblue" d="M659.595,-85.4527C682.026,-80.3652 710.298,-73.953 736.351,-68.044"/>
<polygon fill="midnightblue" stroke="midnightblue" points="737.233,-71.433 746.211,-65.8078 735.685,-64.6064 737.233,-71.433"/>
</g>
<!-- Node26&#45;&gt;Node23 -->
<g id="edge37" class="edge"><title>Node26&#45;&gt;Node23</title>
<path fill="none" stroke="midnightblue" d="M878.771,-51C892.138,-51 906.439,-51 920.53,-51"/>
<polygon fill="midnightblue" stroke="midnightblue" points="920.737,-54.5001 930.737,-51 920.737,-47.5001 920.737,-54.5001"/>
</g>
<!-- Node26&#45;&gt;Node24 -->
<g id="edge38" class="edge"><title>Node26&#45;&gt;Node24</title>
<path fill="none" stroke="midnightblue" d="M878.771,-37.5183C903.687,-32.3719 931.853,-26.5544 955.847,-21.5983"/>
<polygon fill="midnightblue" stroke="midnightblue" points="956.768,-24.982 965.854,-19.5315 955.352,-18.1267 956.768,-24.982"/>
</g>
</g>
</svg>
        <g id="navigator" transform="translate(0 0)" fill="#404254">
                <rect fill="#f2f5e9" fill-opacity="0.5" stroke="#606060" stroke-width=".5" x="0" y="0" width="60" height="60"/>
                <use id="zoomplus" xlink:href="#zoomPlus" x="17" y="9" onmousedown="handleZoom(evt,'in')"/>
                <use id="zoomminus" xlink:href="#zoomMin" x="42" y="9" onmousedown="handleZoom(evt,'out')"/>
                <use id="reset" xlink:href="#resetDef" x="30" y="36" onmousedown="handleReset()"/>
                <g id="arrowUp" xlink:href="#dirArrow" transform="translate(30 24)" onmousedown="handlePan(0,-1)">
                  <use xlink:href="#rim" fill="#404040">
                        <set attributeName="fill" to="#808080" begin="arrowUp.mouseover" end="arrowUp.mouseout"/>
                  </use>
                  <path fill="none" stroke="white" stroke-width="1.5" d="M0,-3.0v7 M-2.5,-0.5L0,-3.0L2.5,-0.5"/>
                </g>
                <g id="arrowRight" xlink:href="#dirArrow" transform="rotate(90) translate(36 -43)" onmousedown="handlePan(1,0)">
                  <use xlink:href="#rim" fill="#404040">
                        <set attributeName="fill" to="#808080" begin="arrowRight.mouseover" end="arrowRight.mouseout"/>
                  </use>
                  <path fill="none" stroke="white" stroke-width="1.5" d="M0,-3.0v7 M-2.5,-0.5L0,-3.0L2.5,-0.5"/>
                </g>
                <g id="arrowDown" xlink:href="#dirArrow" transform="rotate(180) translate(-30 -48)" onmousedown="handlePan(0,1)">
                  <use xlink:href="#rim" fill="#404040">
                        <set attributeName="fill" to="#808080" begin="arrowDown.mouseover" end="arrowDown.mouseout"/>
                  </use>
                  <path fill="none" stroke="white" stroke-width="1.5" d="M0,-3.0v7 M-2.5,-0.5L0,-3.0L2.5,-0.5"/>
                </g>
                <g id="arrowLeft" xlink:href="#dirArrow" transform="rotate(270) translate(-36 17)" onmousedown="handlePan(-1,0)">
                  <use xlink:href="#rim" fill="#404040">
                        <set attributeName="fill" to="#808080" begin="arrowLeft.mouseover" end="arrowLeft.mouseout"/>
                  </use>
                  <path fill="none" stroke="white" stroke-width="1.5" d="M0,-3.0v7 M-2.5,-0.5L0,-3.0L2.5,-0.5"/>
                </g>
        </g>
        <svg viewBox="0 0 15 15" width="100%" height="30px" preserveAspectRatio="xMaxYMin meet">
         <g id="arrow_out" transform="scale(0.3 0.3)">
          <a xlink:href="classde265File_a4778a7853c318063a9efd5f0990e79bf_cgraph_org.svg" target="_base">
           <rect id="button" ry="5" rx="5" y="6" x="6" height="38" width="38"
                fill="#f2f5e9" fill-opacity="0.5" stroke="#606060" stroke-width="1.0"/>
           <path id="arrow"
             d="M 11.500037,31.436501 C 11.940474,20.09759 22.043105,11.32322 32.158766,21.979434 L 37.068811,17.246167 C 37.068811,17.246167 37.088388,32 37.088388,32 L 22.160133,31.978069 C 22.160133,31.978069 26.997745,27.140456 26.997745,27.140456 C 18.528582,18.264221 13.291696,25.230495 11.500037,31.436501 z"
             style="fill:#404040;"/>
          </a>
         </g>
        </svg>
</svg>
