<?xml version="1.0" encoding="UTF-8" standalone="no"?>
<!DOCTYPE svg PUBLIC "-//W3C//DTD SVG 1.1//EN"
 "http://www.w3.org/Graphics/SVG/1.1/DTD/svg11.dtd">
<!-- Generated by graphviz version 2.38.0 (20140413.2041)
 -->
<!-- Title: DisplayWidget::selectionRect Pages: 1 -->
<svg width="636pt" height="137pt"
 viewBox="0.00 0.00 636.00 137.00" xmlns="http://www.w3.org/2000/svg" xmlns:xlink="http://www.w3.org/1999/xlink">
<g id="graph0" class="graph" transform="scale(1 1) rotate(0) translate(4 133)">
<title>DisplayWidget::selectionRect</title>
<polygon fill="white" stroke="none" points="-4,4 -4,-133 632,-133 632,4 -4,4"/>
<!-- Node1 -->
<g id="node1" class="node"><title>Node1</title>
<polygon fill="#bfbfbf" stroke="black" points="0,-79 0,-98 146,-98 146,-79 0,-79"/>
<text text-anchor="middle" x="73" y="-86" font-family="Helvetica,sans-Serif" font-size="10.00">DisplayWidget::selectionRect</text>
</g>
<!-- Node2 -->
<g id="node2" class="node"><title>Node2</title>
<g id="a_node2"><a xlink:href="classDisplaySplitWidget.html#a0a3afd6247d51bc2ca6fabfc30ff9548" target="_top" xlink:title="DisplaySplitWidget\l::mouseReleaseEvent">
<polygon fill="white" stroke="black" points="379,-98.5 379,-128.5 492,-128.5 492,-98.5 379,-98.5"/>
<text text-anchor="start" x="387" y="-116.5" font-family="Helvetica,sans-Serif" font-size="10.00">DisplaySplitWidget</text>
<text text-anchor="middle" x="435.5" y="-105.5" font-family="Helvetica,sans-Serif" font-size="10.00">::mouseReleaseEvent</text>
</a>
</g>
</g>
<!-- Node1&#45;&gt;Node2 -->
<g id="edge1" class="edge"><title>Node1&#45;&gt;Node2</title>
<path fill="none" stroke="midnightblue" d="M156.352,-94.211C224.443,-98.9329 319.288,-105.51 378.764,-109.635"/>
<polygon fill="midnightblue" stroke="midnightblue" points="156.304,-90.6993 146.086,-93.499 155.82,-97.6826 156.304,-90.6993"/>
</g>
<!-- Node4 -->
<g id="node4" class="node"><title>Node4</title>
<g id="a_node4"><a xlink:href="classDisplayWidget.html#a880cbbb9d4d5ff01cddc51af58840a73" target="_top" xlink:title="DisplayWidget::setSelectionRect">
<polygon fill="white" stroke="black" points="182,-58 182,-77 343,-77 343,-58 182,-58"/>
<text text-anchor="middle" x="262.5" y="-65" font-family="Helvetica,sans-Serif" font-size="10.00">DisplayWidget::setSelectionRect</text>
</a>
</g>
</g>
<!-- Node1&#45;&gt;Node4 -->
<g id="edge3" class="edge"><title>Node1&#45;&gt;Node4</title>
<path fill="none" stroke="midnightblue" d="M156.432,-79.2676C164.867,-78.3229 173.426,-77.3643 181.83,-76.4231"/>
<polygon fill="midnightblue" stroke="midnightblue" points="155.772,-75.8195 146.224,-80.4109 156.552,-82.776 155.772,-75.8195"/>
</g>
<!-- Node3 -->
<g id="node3" class="node"><title>Node3</title>
<g id="a_node3"><a xlink:href="classDisplaySplitWidget.html#a152c9ea9cbd3aa079800b6c1d0fbb284" target="_top" xlink:title="DisplaySplitWidget\l::event">
<polygon fill="white" stroke="black" points="528,-49.5 528,-79.5 628,-79.5 628,-49.5 528,-49.5"/>
<text text-anchor="start" x="536" y="-67.5" font-family="Helvetica,sans-Serif" font-size="10.00">DisplaySplitWidget</text>
<text text-anchor="middle" x="578" y="-56.5" font-family="Helvetica,sans-Serif" font-size="10.00">::event</text>
</a>
</g>
</g>
<!-- Node2&#45;&gt;Node3 -->
<g id="edge2" class="edge"><title>Node2&#45;&gt;Node3</title>
<path fill="none" stroke="midnightblue" d="M489.648,-94.9645C504.158,-89.9041 519.704,-84.4823 533.6,-79.6359"/>
<polygon fill="midnightblue" stroke="midnightblue" points="488.091,-91.8007 479.801,-98.3986 490.396,-98.4103 488.091,-91.8007"/>
</g>
<!-- Node4&#45;&gt;Node2 -->
<g id="edge8" class="edge"><title>Node4&#45;&gt;Node2</title>
<path fill="none" stroke="midnightblue" d="M308.792,-79.6838C330.307,-85.4714 356.22,-92.4421 378.915,-98.5472"/>
<polygon fill="midnightblue" stroke="midnightblue" points="309.497,-76.2492 298.931,-77.0312 307.679,-83.0089 309.497,-76.2492"/>
</g>
<!-- Node5 -->
<g id="node5" class="node"><title>Node5</title>
<g id="a_node5"><a xlink:href="classDisplaySplitWidget.html#acce4a8f95517d4856b8765ee4e5b63d1" target="_top" xlink:title="DisplaySplitWidget\l::mousePressEvent">
<polygon fill="white" stroke="black" points="384,-49.5 384,-79.5 487,-79.5 487,-49.5 384,-49.5"/>
<text text-anchor="start" x="392" y="-67.5" font-family="Helvetica,sans-Serif" font-size="10.00">DisplaySplitWidget</text>
<text text-anchor="middle" x="435.5" y="-56.5" font-family="Helvetica,sans-Serif" font-size="10.00">::mousePressEvent</text>
</a>
</g>
</g>
<!-- Node4&#45;&gt;Node5 -->
<g id="edge4" class="edge"><title>Node4&#45;&gt;Node5</title>
<path fill="none" stroke="midnightblue" d="M353.253,-65.9254C363.688,-65.7423 374.038,-65.5607 383.68,-65.3916"/>
<polygon fill="midnightblue" stroke="midnightblue" points="353.18,-62.426 343.243,-66.101 353.303,-69.425 353.18,-62.426"/>
</g>
<!-- Node6 -->
<g id="node6" class="node"><title>Node6</title>
<g id="a_node6"><a xlink:href="classDisplaySplitWidget.html#a66c16edce3aae0df82f888348cd7590d" target="_top" xlink:title="DisplaySplitWidget\l::mouseMoveEvent">
<polygon fill="white" stroke="black" points="385,-0.5 385,-30.5 486,-30.5 486,-0.5 385,-0.5"/>
<text text-anchor="start" x="393" y="-18.5" font-family="Helvetica,sans-Serif" font-size="10.00">DisplaySplitWidget</text>
<text text-anchor="middle" x="435.5" y="-7.5" font-family="Helvetica,sans-Serif" font-size="10.00">::mouseMoveEvent</text>
</a>
</g>
</g>
<!-- Node4&#45;&gt;Node6 -->
<g id="edge6" class="edge"><title>Node4&#45;&gt;Node6</title>
<path fill="none" stroke="midnightblue" d="M304.443,-55.0496C328.599,-47.7037 359.341,-38.3553 384.871,-30.5918"/>
<polygon fill="midnightblue" stroke="midnightblue" points="303.413,-51.7043 294.864,-57.9624 305.45,-58.4015 303.413,-51.7043"/>
</g>
<!-- Node5&#45;&gt;Node3 -->
<g id="edge5" class="edge"><title>Node5&#45;&gt;Node3</title>
<path fill="none" stroke="midnightblue" d="M497.283,-64.5C507.464,-64.5 517.916,-64.5 527.761,-64.5"/>
<polygon fill="midnightblue" stroke="midnightblue" points="497.224,-61.0001 487.224,-64.5 497.224,-68.0001 497.224,-61.0001"/>
</g>
<!-- Node6&#45;&gt;Node3 -->
<g id="edge7" class="edge"><title>Node6&#45;&gt;Node3</title>
<path fill="none" stroke="midnightblue" d="M489.648,-34.0355C504.158,-39.0959 519.704,-44.5177 533.6,-49.3641"/>
<polygon fill="midnightblue" stroke="midnightblue" points="490.396,-30.5897 479.801,-30.6014 488.091,-37.1993 490.396,-30.5897"/>
</g>
</g>
</svg>
