<?xml version="1.0" encoding="UTF-8" standalone="no"?>
<!DOCTYPE svg PUBLIC "-//W3C//DTD SVG 1.1//EN"
 "http://www.w3.org/Graphics/SVG/1.1/DTD/svg11.dtd">
<!-- Generated by graphviz version 2.38.0 (20140413.2041)
 -->
<!-- Title: MainWindow::on_interpolationComboBox_currentIndexChanged Pages: 1 -->
<!--zoomable 355 -->
<svg id="main" version="1.1" xmlns="http://www.w3.org/2000/svg" xmlns:xlink="http://www.w3.org/1999/xlink" xml:space="preserve" onload="init(evt)">
<style type="text/css"><![CDATA[
.edge:hover path { stroke: red; }
.edge:hover polygon { stroke: red; fill: red; }
]]></style>
<script type="text/javascript"><![CDATA[
var edges = document.getElementsByTagName('g');
if (edges && edges.length) {
  for (var i=0;i<edges.length;i++) {
    if (edges[i].id.substr(0,4)=='edge') {
      edges[i].setAttribute('class','edge');
    }
  }
}
]]></script>
        <defs>
                <circle id="rim" cx="0" cy="0" r="7"/>
                <circle id="rim2" cx="0" cy="0" r="3.5"/>
                <g id="zoomPlus">
                        <use xlink:href="#rim" fill="#404040">
                                <set attributeName="fill" to="#808080" begin="zoomplus.mouseover" end="zoomplus.mouseout"/>
                        </use>
                        <path d="M-4,0h8M0,-4v8" fill="none" stroke="white" stroke-width="1.5" pointer-events="none"/>
                </g>
                <g id="zoomMin">
                        <use xlink:href="#rim" fill="#404040">
                                <set attributeName="fill" to="#808080" begin="zoomminus.mouseover" end="zoomminus.mouseout"/>
                        </use>
                        <path d="M-4,0h8" fill="none" stroke="white" stroke-width="1.5" pointer-events="none"/>
                </g>
                <g id="dirArrow">
                        <path fill="none" stroke="white" stroke-width="1.5" d="M0,-3.0v7 M-2.5,-0.5L0,-3.0L2.5,-0.5"/>
                </g>
               <g id="resetDef">
                       <use xlink:href="#rim2" fill="#404040">
                               <set attributeName="fill" to="#808080" begin="reset.mouseover" end="reset.mouseout"/>
                       </use>
               </g>
        </defs>

<script type="text/javascript">
var viewWidth = 1310;
var viewHeight = 355;
var sectionId = 'dynsection-44';
</script>
<script xlink:href="svgpan.js"/>
<svg id="graph" class="graph">
<g id="viewport">
<title>MainWindow::on_interpolationComboBox_currentIndexChanged</title>
<polygon fill="white" stroke="none" points="-4,4 -4,-350.934 1306,-350.934 1306,4 -4,4"/>
<!-- Node1 -->
<g id="node1" class="node"><title>Node1</title>
<polygon fill="#bfbfbf" stroke="black" points="0,-283.934 0,-313.934 164,-313.934 164,-283.934 0,-283.934"/>
<text text-anchor="start" x="8" y="-301.934" font-family="Helvetica,sans-Serif" font-size="10.00">MainWindow::on_interpolation</text>
<text text-anchor="middle" x="82" y="-290.934" font-family="Helvetica,sans-Serif" font-size="10.00">ComboBox_currentIndexChanged</text>
</g>
<!-- Node2 -->
<g id="node2" class="node"><title>Node2</title>
<g id="a_node2"><a xlink:href="classPlaylistItem.html#a53ef7e25dfa0d08e284653a19c96fc3e" target="_top" xlink:title="PlaylistItem::itemType">
<polygon fill="white" stroke="black" points="227.5,-327.434 227.5,-346.434 342.5,-346.434 342.5,-327.434 227.5,-327.434"/>
<text text-anchor="middle" x="285" y="-334.434" font-family="Helvetica,sans-Serif" font-size="10.00">PlaylistItem::itemType</text>
</a>
</g>
</g>
<!-- Node1&#45;&gt;Node2 -->
<g id="edge1" class="edge"><title>Node1&#45;&gt;Node2</title>
<path fill="none" stroke="midnightblue" d="M162.441,-313.953C182.905,-317.822 204.589,-321.921 223.889,-325.57"/>
<polygon fill="midnightblue" stroke="midnightblue" points="223.269,-329.015 233.745,-327.433 224.569,-322.137 223.269,-329.015"/>
</g>
<!-- Node3 -->
<g id="node3" class="node"><title>Node3</title>
<g id="a_node3"><a xlink:href="classPlaylistItem.html#a7a65abc1410966c8e7fb7e47d384b7bf" target="_top" xlink:title="PlaylistItem::getFrameObject">
<polygon fill="white" stroke="black" points="213,-289.434 213,-308.434 357,-308.434 357,-289.434 213,-289.434"/>
<text text-anchor="middle" x="285" y="-296.434" font-family="Helvetica,sans-Serif" font-size="10.00">PlaylistItem::getFrameObject</text>
</a>
</g>
</g>
<!-- Node1&#45;&gt;Node3 -->
<g id="edge2" class="edge"><title>Node1&#45;&gt;Node3</title>
<path fill="none" stroke="midnightblue" d="M164.175,-298.934C176.899,-298.934 190.052,-298.934 202.777,-298.934"/>
<polygon fill="midnightblue" stroke="midnightblue" points="202.874,-302.434 212.874,-298.934 202.874,-295.434 202.874,-302.434"/>
</g>
<!-- Node4 -->
<g id="node4" class="node"><title>Node4</title>
<g id="a_node4"><a xlink:href="classFrameObject.html#a75047fbb8bc09a65e318550143c2fdd1" target="_top" xlink:title="FrameObject::setInterpolationMode">
<polygon fill="white" stroke="black" points="200,-251.434 200,-270.434 370,-270.434 370,-251.434 200,-251.434"/>
<text text-anchor="middle" x="285" y="-258.434" font-family="Helvetica,sans-Serif" font-size="10.00">FrameObject::setInterpolationMode</text>
</a>
</g>
</g>
<!-- Node1&#45;&gt;Node4 -->
<g id="edge3" class="edge"><title>Node1&#45;&gt;Node4</title>
<path fill="none" stroke="midnightblue" d="M162.441,-283.916C182.905,-280.047 204.589,-275.947 223.889,-272.299"/>
<polygon fill="midnightblue" stroke="midnightblue" points="224.569,-275.732 233.745,-270.435 223.269,-268.854 224.569,-275.732"/>
</g>
<!-- Node5 -->
<g id="node5" class="node"><title>Node5</title>
<g id="a_node5"><a xlink:href="classYUVSource.html#a8d291e3a64a7403301608bd161fe7fd2" target="_top" xlink:title="YUVSource::setInterpolationMode">
<polygon fill="white" stroke="black" points="406,-273.434 406,-292.434 571,-292.434 571,-273.434 406,-273.434"/>
<text text-anchor="middle" x="488.5" y="-280.434" font-family="Helvetica,sans-Serif" font-size="10.00">YUVSource::setInterpolationMode</text>
</a>
</g>
</g>
<!-- Node4&#45;&gt;Node5 -->
<g id="edge4" class="edge"><title>Node4&#45;&gt;Node5</title>
<path fill="none" stroke="midnightblue" d="M370.287,-270.137C378.736,-271.059 387.343,-271.999 395.863,-272.929"/>
<polygon fill="midnightblue" stroke="midnightblue" points="395.489,-276.409 405.81,-274.015 396.249,-269.451 395.489,-276.409"/>
</g>
<!-- Node6 -->
<g id="node6" class="node"><title>Node6</title>
<g id="a_node6"><a xlink:href="classFrameObject.html#ac42be5ded1448dde312e661e66c8730e" target="_top" xlink:title="FrameObject::refreshDisplay\lImage">
<polygon fill="white" stroke="black" points="417.5,-223.934 417.5,-253.934 559.5,-253.934 559.5,-223.934 417.5,-223.934"/>
<text text-anchor="start" x="425.5" y="-241.934" font-family="Helvetica,sans-Serif" font-size="10.00">FrameObject::refreshDisplay</text>
<text text-anchor="middle" x="488.5" y="-230.934" font-family="Helvetica,sans-Serif" font-size="10.00">Image</text>
</a>
</g>
</g>
<!-- Node4&#45;&gt;Node6 -->
<g id="edge5" class="edge"><title>Node4&#45;&gt;Node6</title>
<path fill="none" stroke="midnightblue" d="M370.287,-251.732C382.503,-250.398 395.052,-249.028 407.188,-247.703"/>
<polygon fill="midnightblue" stroke="midnightblue" points="407.707,-251.167 417.268,-246.602 406.947,-244.208 407.707,-251.167"/>
</g>
<!-- Node7 -->
<g id="node7" class="node"><title>Node7</title>
<g id="a_node7"><a xlink:href="classFrameObject.html#adfa8fc2528a422aba57c301f3c2a311c" target="_top" xlink:title="FrameObject::clearCurrent\lCache">
<polygon fill="white" stroke="black" points="607,-261.934 607,-291.934 739,-291.934 739,-261.934 607,-261.934"/>
<text text-anchor="start" x="615" y="-279.934" font-family="Helvetica,sans-Serif" font-size="10.00">FrameObject::clearCurrent</text>
<text text-anchor="middle" x="673" y="-268.934" font-family="Helvetica,sans-Serif" font-size="10.00">Cache</text>
</a>
</g>
</g>
<!-- Node6&#45;&gt;Node7 -->
<g id="edge6" class="edge"><title>Node6&#45;&gt;Node7</title>
<path fill="none" stroke="midnightblue" d="M559.537,-253.517C571.831,-256.077 584.669,-258.75 597.09,-261.337"/>
<polygon fill="midnightblue" stroke="midnightblue" points="596.439,-264.776 606.943,-263.388 597.866,-257.923 596.439,-264.776"/>
</g>
<!-- Node11 -->
<g id="node11" class="node"><title>Node11</title>
<g id="a_node11"><a xlink:href="classFrameObject.html#ad33aa12aedba2856ec54989d6eda2d49" target="_top" xlink:title="FrameObject::loadImage">
<polygon fill="white" stroke="black" points="611,-172.434 611,-191.434 735,-191.434 735,-172.434 611,-172.434"/>
<text text-anchor="middle" x="673" y="-179.434" font-family="Helvetica,sans-Serif" font-size="10.00">FrameObject::loadImage</text>
</a>
</g>
</g>
<!-- Node6&#45;&gt;Node11 -->
<g id="edge10" class="edge"><title>Node6&#45;&gt;Node11</title>
<path fill="none" stroke="midnightblue" d="M537.928,-223.809C567.177,-214.674 604.017,-203.167 631.676,-194.529"/>
<polygon fill="midnightblue" stroke="midnightblue" points="632.917,-197.808 641.419,-191.486 630.83,-191.126 632.917,-197.808"/>
</g>
<!-- Node8 -->
<g id="node8" class="node"><title>Node8</title>
<g id="a_node8"><a xlink:href="classYUVSource.html#a12174732ce70dfe8f1e5b842a532b8c9" target="_top" xlink:title="YUVSource::getName">
<polygon fill="white" stroke="black" points="797.5,-267.434 797.5,-286.434 911.5,-286.434 911.5,-267.434 797.5,-267.434"/>
<text text-anchor="middle" x="854.5" y="-274.434" font-family="Helvetica,sans-Serif" font-size="10.00">YUVSource::getName</text>
</a>
</g>
</g>
<!-- Node7&#45;&gt;Node8 -->
<g id="edge7" class="edge"><title>Node7&#45;&gt;Node8</title>
<path fill="none" stroke="midnightblue" d="M739.057,-276.934C754.695,-276.934 771.417,-276.934 787.114,-276.934"/>
<polygon fill="midnightblue" stroke="midnightblue" points="787.26,-280.434 797.26,-276.934 787.26,-273.434 787.26,-280.434"/>
</g>
<!-- Node9 -->
<g id="node9" class="node"><title>Node9</title>
<g id="a_node9"><a xlink:href="classFrameObject.html#a1069def130e7deac035f166084ae4ca8" target="_top" xlink:title="FrameObject::numFrames">
<polygon fill="white" stroke="black" points="789,-305.434 789,-324.434 920,-324.434 920,-305.434 789,-305.434"/>
<text text-anchor="middle" x="854.5" y="-312.434" font-family="Helvetica,sans-Serif" font-size="10.00">FrameObject::numFrames</text>
</a>
</g>
</g>
<!-- Node7&#45;&gt;Node9 -->
<g id="edge8" class="edge"><title>Node7&#45;&gt;Node9</title>
<path fill="none" stroke="midnightblue" d="M739.057,-290.707C758.618,-294.848 779.876,-299.348 798.702,-303.334"/>
<polygon fill="midnightblue" stroke="midnightblue" points="798.085,-306.78 808.593,-305.427 799.534,-299.932 798.085,-306.78"/>
</g>
<!-- Node10 -->
<g id="node10" class="node"><title>Node10</title>
<g id="a_node10"><a xlink:href="classYUVSource.html#afaf713d38c871df33f6e28e9d589c86c" target="_top" xlink:title="YUVSource::getNumberFrames">
<polygon fill="white" stroke="black" points="970,-305.434 970,-324.434 1125,-324.434 1125,-305.434 970,-305.434"/>
<text text-anchor="middle" x="1047.5" y="-312.434" font-family="Helvetica,sans-Serif" font-size="10.00">YUVSource::getNumberFrames</text>
</a>
</g>
</g>
<!-- Node9&#45;&gt;Node10 -->
<g id="edge9" class="edge"><title>Node9&#45;&gt;Node10</title>
<path fill="none" stroke="midnightblue" d="M920.164,-314.934C932.841,-314.934 946.331,-314.934 959.597,-314.934"/>
<polygon fill="midnightblue" stroke="midnightblue" points="959.682,-318.434 969.682,-314.934 959.682,-311.434 959.682,-318.434"/>
</g>
<!-- Node11&#45;&gt;Node8 -->
<g id="edge12" class="edge"><title>Node11&#45;&gt;Node8</title>
<path fill="none" stroke="midnightblue" d="M685.066,-191.513C702.893,-206.512 739.569,-235.613 775,-252.934 784.026,-257.347 794.034,-261.149 803.799,-264.343"/>
<polygon fill="midnightblue" stroke="midnightblue" points="802.849,-267.713 813.437,-267.334 804.924,-261.027 802.849,-267.713"/>
</g>
<!-- Node11&#45;&gt;Node9 -->
<g id="edge11" class="edge"><title>Node11&#45;&gt;Node9</title>
<path fill="none" stroke="midnightblue" d="M682.968,-191.459C695.634,-204.971 719.404,-230.554 739,-252.934 755.419,-271.686 753.825,-282.787 775,-295.934 778.388,-298.038 781.991,-299.908 785.721,-301.572"/>
<polygon fill="midnightblue" stroke="midnightblue" points="784.614,-304.897 795.202,-305.294 787.173,-298.381 784.614,-304.897"/>
</g>
<!-- Node12 -->
<g id="node12" class="node"><title>Node12</title>
<g id="a_node12"><a xlink:href="classYUVSource.html#a592ce352c789f4f5789b11e052b58a33" target="_top" xlink:title="YUVSource::pixelFormat">
<polygon fill="white" stroke="black" points="1169,-200.434 1169,-219.434 1294,-219.434 1294,-200.434 1169,-200.434"/>
<text text-anchor="middle" x="1231.5" y="-207.434" font-family="Helvetica,sans-Serif" font-size="10.00">YUVSource::pixelFormat</text>
</a>
</g>
</g>
<!-- Node11&#45;&gt;Node12 -->
<g id="edge13" class="edge"><title>Node11&#45;&gt;Node12</title>
<path fill="none" stroke="midnightblue" d="M693.143,-191.519C713.027,-200.898 745.324,-214.536 775,-219.934 908.757,-244.264 1068.23,-231.417 1158.6,-220.346"/>
<polygon fill="midnightblue" stroke="midnightblue" points="1159.24,-223.792 1168.73,-219.076 1158.37,-216.847 1159.24,-223.792"/>
</g>
<!-- Node13 -->
<g id="node13" class="node"><title>Node13</title>
<g id="a_node13"><a xlink:href="classYUVSource.html#aff9d7390aa2cdb93376c69ede52b1e30" target="_top" xlink:title="YUVSource::getOneFrame">
<polygon fill="white" stroke="black" points="787.5,-115.434 787.5,-134.434 921.5,-134.434 921.5,-115.434 787.5,-115.434"/>
<text text-anchor="middle" x="854.5" y="-122.434" font-family="Helvetica,sans-Serif" font-size="10.00">YUVSource::getOneFrame</text>
</a>
</g>
</g>
<!-- Node11&#45;&gt;Node13 -->
<g id="edge14" class="edge"><title>Node11&#45;&gt;Node13</title>
<path fill="none" stroke="midnightblue" d="M696.988,-172.364C717.28,-164.139 747.784,-152.313 775,-143.934 783.091,-141.443 791.732,-139.071 800.213,-136.899"/>
<polygon fill="midnightblue" stroke="midnightblue" points="801.197,-140.261 810.054,-134.446 799.504,-133.468 801.197,-140.261"/>
</g>
<!-- Node14 -->
<g id="node14" class="node"><title>Node14</title>
<g id="a_node14"><a xlink:href="classFrameObject.html#a3157b2afa82e71a5ebd93ac6dd25de6b" target="_top" xlink:title="FrameObject::doApplyYUVMath">
<polygon fill="white" stroke="black" points="776,-77.4343 776,-96.4343 933,-96.4343 933,-77.4343 776,-77.4343"/>
<text text-anchor="middle" x="854.5" y="-84.4343" font-family="Helvetica,sans-Serif" font-size="10.00">FrameObject::doApplyYUVMath</text>
</a>
</g>
</g>
<!-- Node11&#45;&gt;Node14 -->
<g id="edge15" class="edge"><title>Node11&#45;&gt;Node14</title>
<path fill="none" stroke="midnightblue" d="M683.697,-172.426C700.712,-156.282 737.696,-123.554 775,-105.934 780.198,-103.479 785.745,-101.323 791.395,-99.4328"/>
<polygon fill="midnightblue" stroke="midnightblue" points="792.426,-102.778 800.959,-96.4978 790.372,-96.0858 792.426,-102.778"/>
</g>
<!-- Node15 -->
<g id="node15" class="node"><title>Node15</title>
<g id="a_node15"><a xlink:href="classFrameObject.html#a38084be9c862db6fea97d202231144ec" target="_top" xlink:title="FrameObject::applyYUVMath">
<polygon fill="white" stroke="black" points="782,-191.434 782,-210.434 927,-210.434 927,-191.434 782,-191.434"/>
<text text-anchor="middle" x="854.5" y="-198.434" font-family="Helvetica,sans-Serif" font-size="10.00">FrameObject::applyYUVMath</text>
</a>
</g>
</g>
<!-- Node11&#45;&gt;Node15 -->
<g id="edge16" class="edge"><title>Node11&#45;&gt;Node15</title>
<path fill="none" stroke="midnightblue" d="M735.021,-188.393C746.773,-189.637 759.259,-190.959 771.548,-192.26"/>
<polygon fill="midnightblue" stroke="midnightblue" points="771.492,-195.773 781.805,-193.345 772.229,-188.812 771.492,-195.773"/>
</g>
<!-- Node17 -->
<g id="node17" class="node"><title>Node17</title>
<g id="a_node17"><a xlink:href="classYUVSource.html#a7e554f2c626688704099e00cc4ece029" target="_top" xlink:title="YUVSource::pixelFormatList">
<polygon fill="white" stroke="black" points="1161,-96.4343 1161,-115.434 1302,-115.434 1302,-96.4343 1161,-96.4343"/>
<text text-anchor="middle" x="1231.5" y="-103.434" font-family="Helvetica,sans-Serif" font-size="10.00">YUVSource::pixelFormatList</text>
</a>
</g>
</g>
<!-- Node11&#45;&gt;Node17 -->
<g id="edge22" class="edge"><title>Node11&#45;&gt;Node17</title>
<path fill="none" stroke="midnightblue" d="M676.804,-172.424C685.674,-144.299 716.082,-61.5238 775,-29.9343 923.092,49.4667 1134.01,-52.087 1205.62,-91.5178"/>
<polygon fill="midnightblue" stroke="midnightblue" points="1203.97,-94.6042 1214.4,-96.4312 1207.38,-88.4949 1203.97,-94.6042"/>
</g>
<!-- Node18 -->
<g id="node18" class="node"><title>Node18</title>
<g id="a_node18"><a xlink:href="classFrameObject.html#acd2367ffa54180853cd3ee901aa85304" target="_top" xlink:title="FrameObject::convertYUV2RGB">
<polygon fill="white" stroke="black" points="775,-153.434 775,-172.434 934,-172.434 934,-153.434 775,-153.434"/>
<text text-anchor="middle" x="854.5" y="-160.434" font-family="Helvetica,sans-Serif" font-size="10.00">FrameObject::convertYUV2RGB</text>
</a>
</g>
</g>
<!-- Node11&#45;&gt;Node18 -->
<g id="edge20" class="edge"><title>Node11&#45;&gt;Node18</title>
<path fill="none" stroke="midnightblue" d="M735.021,-175.475C744.626,-174.459 754.721,-173.39 764.798,-172.323"/>
<polygon fill="midnightblue" stroke="midnightblue" points="765.275,-175.793 774.851,-171.259 764.538,-168.831 765.275,-175.793"/>
</g>
<!-- Node19 -->
<g id="node19" class="node"><title>Node19</title>
<g id="a_node19"><a xlink:href="classDisplayObject.html#a790f4bdf4ecb24617ea7db5837c3048c" target="_top" xlink:title="DisplayObject::setInfo">
<polygon fill="white" stroke="black" points="797.5,-39.4343 797.5,-58.4343 911.5,-58.4343 911.5,-39.4343 797.5,-39.4343"/>
<text text-anchor="middle" x="854.5" y="-46.4343" font-family="Helvetica,sans-Serif" font-size="10.00">DisplayObject::setInfo</text>
</a>
</g>
</g>
<!-- Node11&#45;&gt;Node19 -->
<g id="edge23" class="edge"><title>Node11&#45;&gt;Node19</title>
<path fill="none" stroke="midnightblue" d="M679.676,-172.204C693.168,-149.985 729.459,-95.3341 775,-67.9343 779.066,-65.4878 783.429,-63.3561 787.94,-61.4988"/>
<polygon fill="midnightblue" stroke="midnightblue" points="789.165,-64.7774 797.357,-58.0585 786.763,-58.2024 789.165,-64.7774"/>
</g>
<!-- Node16 -->
<g id="node16" class="node"><title>Node16</title>
<g id="a_node16"><a xlink:href="classYUVSource.html#a11ea64b650d6086177fa0f7a1f3f323d" target="_top" xlink:title="YUVSource::bitsPerSample">
<polygon fill="white" stroke="black" points="978.5,-172.434 978.5,-191.434 1116.5,-191.434 1116.5,-172.434 978.5,-172.434"/>
<text text-anchor="middle" x="1047.5" y="-179.434" font-family="Helvetica,sans-Serif" font-size="10.00">YUVSource::bitsPerSample</text>
</a>
</g>
</g>
<!-- Node15&#45;&gt;Node16 -->
<g id="edge17" class="edge"><title>Node15&#45;&gt;Node16</title>
<path fill="none" stroke="midnightblue" d="M927.165,-193.805C940.492,-192.48 954.482,-191.088 968.001,-189.743"/>
<polygon fill="midnightblue" stroke="midnightblue" points="968.625,-193.198 978.229,-188.726 967.932,-186.233 968.625,-193.198"/>
</g>
<!-- Node16&#45;&gt;Node12 -->
<g id="edge19" class="edge"><title>Node16&#45;&gt;Node12</title>
<path fill="none" stroke="midnightblue" d="M1110.37,-191.453C1125.84,-193.833 1142.57,-196.406 1158.48,-198.854"/>
<polygon fill="midnightblue" stroke="midnightblue" points="1158.38,-202.381 1168.8,-200.442 1159.45,-195.462 1158.38,-202.381"/>
</g>
<!-- Node16&#45;&gt;Node17 -->
<g id="edge18" class="edge"><title>Node16&#45;&gt;Node17</title>
<path fill="none" stroke="midnightblue" d="M1071.55,-172.309C1103.55,-158.946 1161.6,-134.708 1197.99,-119.511"/>
<polygon fill="midnightblue" stroke="midnightblue" points="1199.76,-122.565 1207.64,-115.482 1197.06,-116.105 1199.76,-122.565"/>
</g>
<!-- Node18&#45;&gt;Node16 -->
<g id="edge21" class="edge"><title>Node18&#45;&gt;Node16</title>
<path fill="none" stroke="midnightblue" d="M934.014,-170.745C945.279,-171.865 956.87,-173.018 968.132,-174.139"/>
<polygon fill="midnightblue" stroke="midnightblue" points="968.066,-177.649 978.364,-175.156 968.759,-170.684 968.066,-177.649"/>
</g>
</g>
</svg>
        <g id="navigator" transform="translate(0 0)" fill="#404254">
                <rect fill="#f2f5e9" fill-opacity="0.5" stroke="#606060" stroke-width=".5" x="0" y="0" width="60" height="60"/>
                <use id="zoomplus" xlink:href="#zoomPlus" x="17" y="9" onmousedown="handleZoom(evt,'in')"/>
                <use id="zoomminus" xlink:href="#zoomMin" x="42" y="9" onmousedown="handleZoom(evt,'out')"/>
                <use id="reset" xlink:href="#resetDef" x="30" y="36" onmousedown="handleReset()"/>
                <g id="arrowUp" xlink:href="#dirArrow" transform="translate(30 24)" onmousedown="handlePan(0,-1)">
                  <use xlink:href="#rim" fill="#404040">
                        <set attributeName="fill" to="#808080" begin="arrowUp.mouseover" end="arrowUp.mouseout"/>
                  </use>
                  <path fill="none" stroke="white" stroke-width="1.5" d="M0,-3.0v7 M-2.5,-0.5L0,-3.0L2.5,-0.5"/>
                </g>
                <g id="arrowRight" xlink:href="#dirArrow" transform="rotate(90) translate(36 -43)" onmousedown="handlePan(1,0)">
                  <use xlink:href="#rim" fill="#404040">
                        <set attributeName="fill" to="#808080" begin="arrowRight.mouseover" end="arrowRight.mouseout"/>
                  </use>
                  <path fill="none" stroke="white" stroke-width="1.5" d="M0,-3.0v7 M-2.5,-0.5L0,-3.0L2.5,-0.5"/>
                </g>
                <g id="arrowDown" xlink:href="#dirArrow" transform="rotate(180) translate(-30 -48)" onmousedown="handlePan(0,1)">
                  <use xlink:href="#rim" fill="#404040">
                        <set attributeName="fill" to="#808080" begin="arrowDown.mouseover" end="arrowDown.mouseout"/>
                  </use>
                  <path fill="none" stroke="white" stroke-width="1.5" d="M0,-3.0v7 M-2.5,-0.5L0,-3.0L2.5,-0.5"/>
                </g>
                <g id="arrowLeft" xlink:href="#dirArrow" transform="rotate(270) translate(-36 17)" onmousedown="handlePan(-1,0)">
                  <use xlink:href="#rim" fill="#404040">
                        <set attributeName="fill" to="#808080" begin="arrowLeft.mouseover" end="arrowLeft.mouseout"/>
                  </use>
                  <path fill="none" stroke="white" stroke-width="1.5" d="M0,-3.0v7 M-2.5,-0.5L0,-3.0L2.5,-0.5"/>
                </g>
        </g>
        <svg viewBox="0 0 15 15" width="100%" height="30px" preserveAspectRatio="xMaxYMin meet">
         <g id="arrow_out" transform="scale(0.3 0.3)">
          <a xlink:href="classMainWindow_a704745d0944b860342ac8bdb6867491c_cgraph_org.svg" target="_base">
           <rect id="button" ry="5" rx="5" y="6" x="6" height="38" width="38"
                fill="#f2f5e9" fill-opacity="0.5" stroke="#606060" stroke-width="1.0"/>
           <path id="arrow"
             d="M 11.500037,31.436501 C 11.940474,20.09759 22.043105,11.32322 32.158766,21.979434 L 37.068811,17.246167 C 37.068811,17.246167 37.088388,32 37.088388,32 L 22.160133,31.978069 C 22.160133,31.978069 26.997745,27.140456 26.997745,27.140456 C 18.528582,18.264221 13.291696,25.230495 11.500037,31.436501 z"
             style="fill:#404040;"/>
          </a>
         </g>
        </svg>
</svg>
