<?xml version="1.0" encoding="UTF-8" standalone="no"?>
<!DOCTYPE svg PUBLIC "-//W3C//DTD SVG 1.1//EN"
 "http://www.w3.org/Graphics/SVG/1.1/DTD/svg11.dtd">
<!-- Generated by graphviz version 2.38.0 (20140413.2041)
 -->
<!-- Title: statisticSource::getCreatedtime Pages: 1 -->
<svg width="342pt" height="66pt"
 viewBox="0.00 0.00 342.00 66.00" xmlns="http://www.w3.org/2000/svg" xmlns:xlink="http://www.w3.org/1999/xlink">
<g id="graph0" class="graph" transform="scale(1 1) rotate(0) translate(4 62)">
<title>statisticSource::getCreatedtime</title>
<polygon fill="white" stroke="none" points="-4,4 -4,-62 338,-62 338,4 -4,4"/>
<!-- Node1 -->
<g id="node1" class="node"><title>Node1</title>
<polygon fill="#bfbfbf" stroke="black" points="0,-19.5 0,-38.5 155,-38.5 155,-19.5 0,-19.5"/>
<text text-anchor="middle" x="77.5" y="-26.5" font-family="Helvetica,sans-Serif" font-size="10.00">statisticSource::getCreatedtime</text>
</g>
<!-- Node2 -->
<g id="node2" class="node"><title>Node2</title>
<g id="a_node2"><a xlink:href="classStatisticsObject.html#a7d03d62ba7c859483b80c70892b06100" target="_top" xlink:title="StatisticsObject::getInfoList">
<polygon fill="white" stroke="black" points="193.5,-38.5 193.5,-57.5 331.5,-57.5 331.5,-38.5 193.5,-38.5"/>
<text text-anchor="middle" x="262.5" y="-45.5" font-family="Helvetica,sans-Serif" font-size="10.00">StatisticsObject::getInfoList</text>
</a>
</g>
</g>
<!-- Node1&#45;&gt;Node2 -->
<g id="edge1" class="edge"><title>Node1&#45;&gt;Node2</title>
<path fill="none" stroke="midnightblue" d="M165.259,-38.0078C174.712,-38.9892 184.232,-39.9776 193.414,-40.931"/>
<polygon fill="midnightblue" stroke="midnightblue" points="165.356,-34.4991 155.048,-36.9476 164.633,-41.4617 165.356,-34.4991"/>
</g>
<!-- Node3 -->
<g id="node3" class="node"><title>Node3</title>
<g id="a_node3"><a xlink:href="classStatisticsObject.html#aa604b8a84afab33986c85340d7ad68ad" target="_top" xlink:title="StatisticsObject::createdtime">
<polygon fill="white" stroke="black" points="191,-0.5 191,-19.5 334,-19.5 334,-0.5 191,-0.5"/>
<text text-anchor="middle" x="262.5" y="-7.5" font-family="Helvetica,sans-Serif" font-size="10.00">StatisticsObject::createdtime</text>
</a>
</g>
</g>
<!-- Node1&#45;&gt;Node3 -->
<g id="edge2" class="edge"><title>Node1&#45;&gt;Node3</title>
<path fill="none" stroke="midnightblue" d="M165.111,-20.0076C173.721,-19.1137 182.389,-18.2137 190.809,-17.3395"/>
<polygon fill="midnightblue" stroke="midnightblue" points="164.633,-16.5383 155.048,-21.0524 165.356,-23.5009 164.633,-16.5383"/>
</g>
</g>
</svg>
