<?xml version="1.0" encoding="UTF-8" standalone="no"?>
<!DOCTYPE svg PUBLIC "-//W3C//DTD SVG 1.1//EN"
 "http://www.w3.org/Graphics/SVG/1.1/DTD/svg11.dtd">
<!-- Generated by graphviz version 2.38.0 (20140413.2041)
 -->
<!-- Title: de265File Pages: 1 -->
<svg width="176pt" height="140pt"
 viewBox="0.00 0.00 176.00 140.00" xmlns="http://www.w3.org/2000/svg" xmlns:xlink="http://www.w3.org/1999/xlink">
<g id="graph0" class="graph" transform="scale(1 1) rotate(0) translate(4 136)">
<title>de265File</title>
<polygon fill="white" stroke="none" points="-4,4 -4,-136 172,-136 172,4 -4,4"/>
<!-- Node1 -->
<g id="node1" class="node"><title>Node1</title>
<polygon fill="#bfbfbf" stroke="black" points="50.5,-0.5 50.5,-19.5 109.5,-19.5 109.5,-0.5 50.5,-0.5"/>
<text text-anchor="middle" x="80" y="-7.5" font-family="Helvetica,sans-Serif" font-size="10.00">de265File</text>
</g>
<!-- Node2 -->
<g id="node2" class="node"><title>Node2</title>
<g id="a_node2"><a xlink:href="classYUVSource.html" target="_top" xlink:title="YUVSource">
<polygon fill="white" stroke="black" points="0,-56.5 0,-75.5 68,-75.5 68,-56.5 0,-56.5"/>
<text text-anchor="middle" x="34" y="-63.5" font-family="Helvetica,sans-Serif" font-size="10.00">YUVSource</text>
</a>
</g>
</g>
<!-- Node2&#45;&gt;Node1 -->
<g id="edge1" class="edge"><title>Node2&#45;&gt;Node1</title>
<path fill="none" stroke="midnightblue" d="M48.114,-48.4314C56.176,-38.9673 65.9592,-27.4827 72.5454,-19.7511"/>
<polygon fill="midnightblue" stroke="midnightblue" points="45.4163,-46.2009 41.596,-56.083 50.745,-50.7402 45.4163,-46.2009"/>
</g>
<!-- Node3 -->
<g id="node3" class="node"><title>Node3</title>
<g id="a_node3"><a xlink:href="classQObject.html" target="_top" xlink:title="QObject">
<polygon fill="white" stroke="black" points="53.5,-112.5 53.5,-131.5 106.5,-131.5 106.5,-112.5 53.5,-112.5"/>
<text text-anchor="middle" x="80" y="-119.5" font-family="Helvetica,sans-Serif" font-size="10.00">QObject</text>
</a>
</g>
</g>
<!-- Node3&#45;&gt;Node2 -->
<g id="edge2" class="edge"><title>Node3&#45;&gt;Node2</title>
<path fill="none" stroke="midnightblue" d="M65.886,-104.431C57.824,-94.9673 48.0408,-83.4827 41.4546,-75.7511"/>
<polygon fill="midnightblue" stroke="midnightblue" points="63.255,-106.74 72.404,-112.083 68.5837,-102.201 63.255,-106.74"/>
</g>
<!-- Node4 -->
<g id="node4" class="node"><title>Node4</title>
<g id="a_node4"><a xlink:href="classstatisticSource.html" target="_top" xlink:title="statisticSource">
<polygon fill="white" stroke="black" points="86,-56.5 86,-75.5 168,-75.5 168,-56.5 86,-56.5"/>
<text text-anchor="middle" x="127" y="-63.5" font-family="Helvetica,sans-Serif" font-size="10.00">statisticSource</text>
</a>
</g>
</g>
<!-- Node3&#45;&gt;Node4 -->
<g id="edge4" class="edge"><title>Node3&#45;&gt;Node4</title>
<path fill="none" stroke="midnightblue" d="M94.4208,-104.431C102.658,-94.9673 112.654,-83.4827 119.383,-75.7511"/>
<polygon fill="midnightblue" stroke="midnightblue" points="91.6863,-102.242 87.7611,-112.083 96.9664,-106.838 91.6863,-102.242"/>
</g>
<!-- Node4&#45;&gt;Node1 -->
<g id="edge3" class="edge"><title>Node4&#45;&gt;Node1</title>
<path fill="none" stroke="midnightblue" d="M112.579,-48.4314C104.342,-38.9673 94.3461,-27.4827 87.6167,-19.7511"/>
<polygon fill="midnightblue" stroke="midnightblue" points="110.034,-50.8378 119.239,-56.083 115.314,-46.2421 110.034,-50.8378"/>
</g>
</g>
</svg>
