<?xml version="1.0" encoding="UTF-8" standalone="no"?>
<!DOCTYPE svg PUBLIC "-//W3C//DTD SVG 1.1//EN"
 "http://www.w3.org/Graphics/SVG/1.1/DTD/svg11.dtd">
<!-- Generated by graphviz version 2.38.0 (20140413.2041)
 -->
<!-- Title: MainWindow::on_LumaOffsetSpinBox_valueChanged Pages: 1 -->
<!--zoomable 423 -->
<svg id="main" version="1.1" xmlns="http://www.w3.org/2000/svg" xmlns:xlink="http://www.w3.org/1999/xlink" xml:space="preserve" onload="init(evt)">
<style type="text/css"><![CDATA[
.edge:hover path { stroke: red; }
.edge:hover polygon { stroke: red; fill: red; }
]]></style>
<script type="text/javascript"><![CDATA[
var edges = document.getElementsByTagName('g');
if (edges && edges.length) {
  for (var i=0;i<edges.length;i++) {
    if (edges[i].id.substr(0,4)=='edge') {
      edges[i].setAttribute('class','edge');
    }
  }
}
]]></script>
        <defs>
                <circle id="rim" cx="0" cy="0" r="7"/>
                <circle id="rim2" cx="0" cy="0" r="3.5"/>
                <g id="zoomPlus">
                        <use xlink:href="#rim" fill="#404040">
                                <set attributeName="fill" to="#808080" begin="zoomplus.mouseover" end="zoomplus.mouseout"/>
                        </use>
                        <path d="M-4,0h8M0,-4v8" fill="none" stroke="white" stroke-width="1.5" pointer-events="none"/>
                </g>
                <g id="zoomMin">
                        <use xlink:href="#rim" fill="#404040">
                                <set attributeName="fill" to="#808080" begin="zoomminus.mouseover" end="zoomminus.mouseout"/>
                        </use>
                        <path d="M-4,0h8" fill="none" stroke="white" stroke-width="1.5" pointer-events="none"/>
                </g>
                <g id="dirArrow">
                        <path fill="none" stroke="white" stroke-width="1.5" d="M0,-3.0v7 M-2.5,-0.5L0,-3.0L2.5,-0.5"/>
                </g>
               <g id="resetDef">
                       <use xlink:href="#rim2" fill="#404040">
                               <set attributeName="fill" to="#808080" begin="reset.mouseover" end="reset.mouseout"/>
                       </use>
               </g>
        </defs>

<script type="text/javascript">
var viewWidth = 1299;
var viewHeight = 423;
var sectionId = 'dynsection-46';
</script>
<script xlink:href="svgpan.js"/>
<svg id="graph" class="graph">
<g id="viewport">
<title>MainWindow::on_LumaOffsetSpinBox_valueChanged</title>
<polygon fill="white" stroke="none" points="-4,4 -4,-419 1295,-419 1295,4 -4,4"/>
<!-- Node1 -->
<g id="node1" class="node"><title>Node1</title>
<polygon fill="#bfbfbf" stroke="black" points="0,-259 0,-289 146,-289 146,-259 0,-259"/>
<text text-anchor="start" x="8" y="-277" font-family="Helvetica,sans-Serif" font-size="10.00">MainWindow::on_LumaOffset</text>
<text text-anchor="middle" x="73" y="-266" font-family="Helvetica,sans-Serif" font-size="10.00">SpinBox_valueChanged</text>
</g>
<!-- Node2 -->
<g id="node2" class="node"><title>Node2</title>
<g id="a_node2"><a xlink:href="classPlaylistItem.html#a53ef7e25dfa0d08e284653a19c96fc3e" target="_top" xlink:title="PlaylistItem::itemType">
<polygon fill="white" stroke="black" points="199,-340.5 199,-359.5 314,-359.5 314,-340.5 199,-340.5"/>
<text text-anchor="middle" x="256.5" y="-347.5" font-family="Helvetica,sans-Serif" font-size="10.00">PlaylistItem::itemType</text>
</a>
</g>
</g>
<!-- Node1&#45;&gt;Node2 -->
<g id="edge1" class="edge"><title>Node1&#45;&gt;Node2</title>
<path fill="none" stroke="midnightblue" d="M98.5344,-289.069C119.934,-301.69 152.145,-319.444 182,-331 188.359,-333.461 195.149,-335.704 201.937,-337.715"/>
<polygon fill="midnightblue" stroke="midnightblue" points="201.256,-341.159 211.83,-340.496 203.15,-334.42 201.256,-341.159"/>
</g>
<!-- Node3 -->
<g id="node3" class="node"><title>Node3</title>
<g id="a_node3"><a xlink:href="classPlaylistItem.html#a7a65abc1410966c8e7fb7e47d384b7bf" target="_top" xlink:title="PlaylistItem::getFrameObject">
<polygon fill="white" stroke="black" points="184.5,-302.5 184.5,-321.5 328.5,-321.5 328.5,-302.5 184.5,-302.5"/>
<text text-anchor="middle" x="256.5" y="-309.5" font-family="Helvetica,sans-Serif" font-size="10.00">PlaylistItem::getFrameObject</text>
</a>
</g>
</g>
<!-- Node1&#45;&gt;Node3 -->
<g id="edge2" class="edge"><title>Node1&#45;&gt;Node3</title>
<path fill="none" stroke="midnightblue" d="M145.734,-289.019C163.873,-292.816 183.075,-296.837 200.259,-300.434"/>
<polygon fill="midnightblue" stroke="midnightblue" points="199.616,-303.875 210.121,-302.499 201.05,-297.024 199.616,-303.875"/>
</g>
<!-- Node4 -->
<g id="node4" class="node"><title>Node4</title>
<g id="a_node4"><a xlink:href="classFrameObject.html#aa70a1b5f92a93f34fe94b3ca89337dcd" target="_top" xlink:title="FrameObject::setLumaOffset">
<polygon fill="white" stroke="black" points="185,-264.5 185,-283.5 328,-283.5 328,-264.5 185,-264.5"/>
<text text-anchor="middle" x="256.5" y="-271.5" font-family="Helvetica,sans-Serif" font-size="10.00">FrameObject::setLumaOffset</text>
</a>
</g>
</g>
<!-- Node1&#45;&gt;Node4 -->
<g id="edge3" class="edge"><title>Node1&#45;&gt;Node4</title>
<path fill="none" stroke="midnightblue" d="M146.255,-274C155.62,-274 165.26,-274 174.752,-274"/>
<polygon fill="midnightblue" stroke="midnightblue" points="174.973,-277.5 184.973,-274 174.973,-270.5 174.973,-277.5"/>
</g>
<!-- Node19 -->
<g id="node19" class="node"><title>Node19</title>
<g id="a_node19"><a xlink:href="classPlaylistItem.html#abebf593e5891b8a9e06278938d293375" target="_top" xlink:title="PlaylistItem::getDifference\lObject">
<polygon fill="white" stroke="black" points="190,-215 190,-245 323,-245 323,-215 190,-215"/>
<text text-anchor="start" x="198" y="-233" font-family="Helvetica,sans-Serif" font-size="10.00">PlaylistItem::getDifference</text>
<text text-anchor="middle" x="256.5" y="-222" font-family="Helvetica,sans-Serif" font-size="10.00">Object</text>
</a>
</g>
</g>
<!-- Node1&#45;&gt;Node19 -->
<g id="edge23" class="edge"><title>Node1&#45;&gt;Node19</title>
<path fill="none" stroke="midnightblue" d="M135.954,-258.981C151.347,-255.249 167.973,-251.219 183.791,-247.384"/>
<polygon fill="midnightblue" stroke="midnightblue" points="184.623,-250.784 193.517,-245.026 182.974,-243.981 184.623,-250.784"/>
</g>
<!-- Node20 -->
<g id="node20" class="node"><title>Node20</title>
<g id="a_node20"><a xlink:href="classMainWindow.html#ab0bccbff44df197a71751db53003079a" target="_top" xlink:title="updates the Playback controls to fit the current YUV settings ">
<polygon fill="white" stroke="black" points="182,-147 182,-177 331,-177 331,-147 182,-147"/>
<text text-anchor="start" x="190" y="-165" font-family="Helvetica,sans-Serif" font-size="10.00">MainWindow::refreshPlayback</text>
<text text-anchor="middle" x="256.5" y="-154" font-family="Helvetica,sans-Serif" font-size="10.00">Widgets</text>
</a>
</g>
</g>
<!-- Node1&#45;&gt;Node20 -->
<g id="edge24" class="edge"><title>Node1&#45;&gt;Node20</title>
<path fill="none" stroke="midnightblue" d="M97.0093,-258.93C118.762,-244.771 152.39,-223.111 182,-205 194.361,-197.439 208.032,-189.365 220.196,-182.278"/>
<polygon fill="midnightblue" stroke="midnightblue" points="222.267,-185.123 229.159,-177.076 218.753,-179.069 222.267,-185.123"/>
</g>
<!-- Node5 -->
<g id="node5" class="node"><title>Node5</title>
<g id="a_node5"><a xlink:href="classFrameObject.html#ac42be5ded1448dde312e661e66c8730e" target="_top" xlink:title="FrameObject::refreshDisplay\lImage">
<polygon fill="white" stroke="black" points="372,-279 372,-309 514,-309 514,-279 372,-279"/>
<text text-anchor="start" x="380" y="-297" font-family="Helvetica,sans-Serif" font-size="10.00">FrameObject::refreshDisplay</text>
<text text-anchor="middle" x="443" y="-286" font-family="Helvetica,sans-Serif" font-size="10.00">Image</text>
</a>
</g>
</g>
<!-- Node4&#45;&gt;Node5 -->
<g id="edge4" class="edge"><title>Node4&#45;&gt;Node5</title>
<path fill="none" stroke="midnightblue" d="M328.041,-281.647C339.023,-282.837 350.44,-284.075 361.621,-285.287"/>
<polygon fill="midnightblue" stroke="midnightblue" points="361.484,-288.792 371.803,-286.391 362.238,-281.833 361.484,-288.792"/>
</g>
<!-- Node6 -->
<g id="node6" class="node"><title>Node6</title>
<g id="a_node6"><a xlink:href="classFrameObject.html#adfa8fc2528a422aba57c301f3c2a311c" target="_top" xlink:title="FrameObject::clearCurrent\lCache">
<polygon fill="white" stroke="black" points="575.5,-352 575.5,-382 707.5,-382 707.5,-352 575.5,-352"/>
<text text-anchor="start" x="583.5" y="-370" font-family="Helvetica,sans-Serif" font-size="10.00">FrameObject::clearCurrent</text>
<text text-anchor="middle" x="641.5" y="-359" font-family="Helvetica,sans-Serif" font-size="10.00">Cache</text>
</a>
</g>
</g>
<!-- Node5&#45;&gt;Node6 -->
<g id="edge5" class="edge"><title>Node5&#45;&gt;Node6</title>
<path fill="none" stroke="midnightblue" d="M484.715,-309.126C515.409,-320.529 557.671,-336.229 590.433,-348.4"/>
<polygon fill="midnightblue" stroke="midnightblue" points="589.244,-351.692 599.837,-351.894 591.682,-345.13 589.244,-351.692"/>
</g>
<!-- Node10 -->
<g id="node10" class="node"><title>Node10</title>
<g id="a_node10"><a xlink:href="classFrameObject.html#ad33aa12aedba2856ec54989d6eda2d49" target="_top" xlink:title="FrameObject::loadImage">
<polygon fill="white" stroke="black" points="579.5,-262.5 579.5,-281.5 703.5,-281.5 703.5,-262.5 579.5,-262.5"/>
<text text-anchor="middle" x="641.5" y="-269.5" font-family="Helvetica,sans-Serif" font-size="10.00">FrameObject::loadImage</text>
</a>
</g>
</g>
<!-- Node5&#45;&gt;Node10 -->
<g id="edge9" class="edge"><title>Node5&#45;&gt;Node10</title>
<path fill="none" stroke="midnightblue" d="M514.109,-286.151C531.974,-284.15 551.195,-281.999 569.123,-279.991"/>
<polygon fill="midnightblue" stroke="midnightblue" points="569.672,-283.452 579.22,-278.861 568.893,-276.495 569.672,-283.452"/>
</g>
<!-- Node7 -->
<g id="node7" class="node"><title>Node7</title>
<g id="a_node7"><a xlink:href="classYUVSource.html#a12174732ce70dfe8f1e5b842a532b8c9" target="_top" xlink:title="YUVSource::getName">
<polygon fill="white" stroke="black" points="786.5,-395.5 786.5,-414.5 900.5,-414.5 900.5,-395.5 786.5,-395.5"/>
<text text-anchor="middle" x="843.5" y="-402.5" font-family="Helvetica,sans-Serif" font-size="10.00">YUVSource::getName</text>
</a>
</g>
</g>
<!-- Node6&#45;&gt;Node7 -->
<g id="edge6" class="edge"><title>Node6&#45;&gt;Node7</title>
<path fill="none" stroke="midnightblue" d="M707.711,-379.39C731.749,-383.957 758.851,-389.107 782.415,-393.584"/>
<polygon fill="midnightblue" stroke="midnightblue" points="781.801,-397.03 792.278,-395.458 783.107,-390.153 781.801,-397.03"/>
</g>
<!-- Node8 -->
<g id="node8" class="node"><title>Node8</title>
<g id="a_node8"><a xlink:href="classFrameObject.html#a1069def130e7deac035f166084ae4ca8" target="_top" xlink:title="FrameObject::numFrames">
<polygon fill="white" stroke="black" points="778,-357.5 778,-376.5 909,-376.5 909,-357.5 778,-357.5"/>
<text text-anchor="middle" x="843.5" y="-364.5" font-family="Helvetica,sans-Serif" font-size="10.00">FrameObject::numFrames</text>
</a>
</g>
</g>
<!-- Node6&#45;&gt;Node8 -->
<g id="edge7" class="edge"><title>Node6&#45;&gt;Node8</title>
<path fill="none" stroke="midnightblue" d="M707.711,-367C726.834,-367 747.896,-367 767.573,-367"/>
<polygon fill="midnightblue" stroke="midnightblue" points="767.72,-370.5 777.72,-367 767.719,-363.5 767.72,-370.5"/>
</g>
<!-- Node9 -->
<g id="node9" class="node"><title>Node9</title>
<g id="a_node9"><a xlink:href="classYUVSource.html#afaf713d38c871df33f6e28e9d589c86c" target="_top" xlink:title="YUVSource::getNumberFrames">
<polygon fill="white" stroke="black" points="959,-357.5 959,-376.5 1114,-376.5 1114,-357.5 959,-357.5"/>
<text text-anchor="middle" x="1036.5" y="-364.5" font-family="Helvetica,sans-Serif" font-size="10.00">YUVSource::getNumberFrames</text>
</a>
</g>
</g>
<!-- Node8&#45;&gt;Node9 -->
<g id="edge8" class="edge"><title>Node8&#45;&gt;Node9</title>
<path fill="none" stroke="midnightblue" d="M909.164,-367C921.841,-367 935.331,-367 948.597,-367"/>
<polygon fill="midnightblue" stroke="midnightblue" points="948.682,-370.5 958.682,-367 948.682,-363.5 948.682,-370.5"/>
</g>
<!-- Node10&#45;&gt;Node7 -->
<g id="edge11" class="edge"><title>Node10&#45;&gt;Node7</title>
<path fill="none" stroke="midnightblue" d="M655.933,-281.679C673.383,-294.538 704.4,-318.393 728,-342 745.864,-359.869 742.609,-372.551 764,-386 768.018,-388.526 772.345,-390.716 776.83,-392.615"/>
<polygon fill="midnightblue" stroke="midnightblue" points="775.615,-395.898 786.208,-396.118 778.065,-389.34 775.615,-395.898"/>
</g>
<!-- Node10&#45;&gt;Node8 -->
<g id="edge10" class="edge"><title>Node10&#45;&gt;Node8</title>
<path fill="none" stroke="midnightblue" d="M656.514,-281.652C678.557,-296.49 723.046,-325.065 764,-343 773.893,-347.332 784.807,-351.203 795.272,-354.505"/>
<polygon fill="midnightblue" stroke="midnightblue" points="794.534,-357.939 805.119,-357.494 796.567,-351.241 794.534,-357.939"/>
</g>
<!-- Node11 -->
<g id="node11" class="node"><title>Node11</title>
<g id="a_node11"><a xlink:href="classYUVSource.html#a592ce352c789f4f5789b11e052b58a33" target="_top" xlink:title="YUVSource::pixelFormat">
<polygon fill="white" stroke="black" points="1158,-124.5 1158,-143.5 1283,-143.5 1283,-124.5 1158,-124.5"/>
<text text-anchor="middle" x="1220.5" y="-131.5" font-family="Helvetica,sans-Serif" font-size="10.00">YUVSource::pixelFormat</text>
</a>
</g>
</g>
<!-- Node10&#45;&gt;Node11 -->
<g id="edge12" class="edge"><title>Node10&#45;&gt;Node11</title>
<path fill="none" stroke="midnightblue" d="M677.385,-262.485C694.74,-256.137 714.778,-246.117 728,-231 762.145,-191.963 722.05,-150.496 764,-120 894.564,-25.0857 1106.33,-90.351 1186.94,-120.765"/>
<polygon fill="midnightblue" stroke="midnightblue" points="1185.96,-124.137 1196.55,-124.461 1188.47,-117.604 1185.96,-124.137"/>
</g>
<!-- Node12 -->
<g id="node12" class="node"><title>Node12</title>
<g id="a_node12"><a xlink:href="classYUVSource.html#aff9d7390aa2cdb93376c69ede52b1e30" target="_top" xlink:title="YUVSource::getOneFrame">
<polygon fill="white" stroke="black" points="776.5,-281.5 776.5,-300.5 910.5,-300.5 910.5,-281.5 776.5,-281.5"/>
<text text-anchor="middle" x="843.5" y="-288.5" font-family="Helvetica,sans-Serif" font-size="10.00">YUVSource::getOneFrame</text>
</a>
</g>
</g>
<!-- Node10&#45;&gt;Node12 -->
<g id="edge13" class="edge"><title>Node10&#45;&gt;Node12</title>
<path fill="none" stroke="midnightblue" d="M703.593,-277.804C723.338,-279.68 745.479,-281.783 766.184,-283.75"/>
<polygon fill="midnightblue" stroke="midnightblue" points="765.929,-287.241 776.215,-284.703 766.591,-280.273 765.929,-287.241"/>
</g>
<!-- Node13 -->
<g id="node13" class="node"><title>Node13</title>
<g id="a_node13"><a xlink:href="classFrameObject.html#a3157b2afa82e71a5ebd93ac6dd25de6b" target="_top" xlink:title="FrameObject::doApplyYUVMath">
<polygon fill="white" stroke="black" points="765,-243.5 765,-262.5 922,-262.5 922,-243.5 765,-243.5"/>
<text text-anchor="middle" x="843.5" y="-250.5" font-family="Helvetica,sans-Serif" font-size="10.00">FrameObject::doApplyYUVMath</text>
</a>
</g>
</g>
<!-- Node10&#45;&gt;Node13 -->
<g id="edge14" class="edge"><title>Node10&#45;&gt;Node13</title>
<path fill="none" stroke="midnightblue" d="M703.593,-266.196C719.726,-264.664 737.46,-262.979 754.702,-261.341"/>
<polygon fill="midnightblue" stroke="midnightblue" points="755.157,-264.813 764.781,-260.383 754.495,-257.845 755.157,-264.813"/>
</g>
<!-- Node14 -->
<g id="node14" class="node"><title>Node14</title>
<g id="a_node14"><a xlink:href="classFrameObject.html#a38084be9c862db6fea97d202231144ec" target="_top" xlink:title="FrameObject::applyYUVMath">
<polygon fill="white" stroke="black" points="771,-167.5 771,-186.5 916,-186.5 916,-167.5 771,-167.5"/>
<text text-anchor="middle" x="843.5" y="-174.5" font-family="Helvetica,sans-Serif" font-size="10.00">FrameObject::applyYUVMath</text>
</a>
</g>
</g>
<!-- Node10&#45;&gt;Node14 -->
<g id="edge15" class="edge"><title>Node10&#45;&gt;Node14</title>
<path fill="none" stroke="midnightblue" d="M667.614,-262.498C685.301,-255.214 709.099,-244.188 728,-231 746.301,-218.23 744.464,-206.784 764,-196 768.155,-193.707 772.583,-191.687 777.139,-189.91"/>
<polygon fill="midnightblue" stroke="midnightblue" points="778.343,-193.197 786.627,-186.592 776.032,-186.59 778.343,-193.197"/>
</g>
<!-- Node16 -->
<g id="node16" class="node"><title>Node16</title>
<g id="a_node16"><a xlink:href="classYUVSource.html#a7e554f2c626688704099e00cc4ece029" target="_top" xlink:title="YUVSource::pixelFormatList">
<polygon fill="white" stroke="black" points="1150,-171.5 1150,-190.5 1291,-190.5 1291,-171.5 1150,-171.5"/>
<text text-anchor="middle" x="1220.5" y="-178.5" font-family="Helvetica,sans-Serif" font-size="10.00">YUVSource::pixelFormatList</text>
</a>
</g>
</g>
<!-- Node10&#45;&gt;Node16 -->
<g id="edge21" class="edge"><title>Node10&#45;&gt;Node16</title>
<path fill="none" stroke="midnightblue" d="M665.745,-281.596C689.837,-290.983 728.825,-304.628 764,-310 833.857,-320.669 853.816,-324.398 923,-310 1030.14,-287.703 1146.03,-224.564 1195.23,-195.712"/>
<polygon fill="midnightblue" stroke="midnightblue" points="1197.07,-198.689 1203.89,-190.58 1193.5,-192.667 1197.07,-198.689"/>
</g>
<!-- Node17 -->
<g id="node17" class="node"><title>Node17</title>
<g id="a_node17"><a xlink:href="classFrameObject.html#acd2367ffa54180853cd3ee901aa85304" target="_top" xlink:title="FrameObject::convertYUV2RGB">
<polygon fill="white" stroke="black" points="764,-129.5 764,-148.5 923,-148.5 923,-129.5 764,-129.5"/>
<text text-anchor="middle" x="843.5" y="-136.5" font-family="Helvetica,sans-Serif" font-size="10.00">FrameObject::convertYUV2RGB</text>
</a>
</g>
</g>
<!-- Node10&#45;&gt;Node17 -->
<g id="edge19" class="edge"><title>Node10&#45;&gt;Node17</title>
<path fill="none" stroke="midnightblue" d="M674.428,-262.459C691.977,-255.907 713.135,-245.702 728,-231 753.72,-205.562 735.759,-180.607 764,-158 766.182,-156.253 768.501,-154.663 770.922,-153.216"/>
<polygon fill="midnightblue" stroke="midnightblue" points="772.733,-156.221 780.069,-148.577 769.567,-149.978 772.733,-156.221"/>
</g>
<!-- Node18 -->
<g id="node18" class="node"><title>Node18</title>
<g id="a_node18"><a xlink:href="classDisplayObject.html#a790f4bdf4ecb24617ea7db5837c3048c" target="_top" xlink:title="DisplayObject::setInfo">
<polygon fill="white" stroke="black" points="786.5,-205.5 786.5,-224.5 900.5,-224.5 900.5,-205.5 786.5,-205.5"/>
<text text-anchor="middle" x="843.5" y="-212.5" font-family="Helvetica,sans-Serif" font-size="10.00">DisplayObject::setInfo</text>
</a>
</g>
</g>
<!-- Node10&#45;&gt;Node18 -->
<g id="edge22" class="edge"><title>Node10&#45;&gt;Node18</title>
<path fill="none" stroke="midnightblue" d="M671.31,-262.403C695.829,-254.377 732.052,-242.852 764,-234 772.64,-231.606 781.861,-229.223 790.833,-226.994"/>
<polygon fill="midnightblue" stroke="midnightblue" points="791.933,-230.328 800.814,-224.551 790.269,-223.529 791.933,-230.328"/>
</g>
<!-- Node15 -->
<g id="node15" class="node"><title>Node15</title>
<g id="a_node15"><a xlink:href="classYUVSource.html#a11ea64b650d6086177fa0f7a1f3f323d" target="_top" xlink:title="YUVSource::bitsPerSample">
<polygon fill="white" stroke="black" points="967.5,-148.5 967.5,-167.5 1105.5,-167.5 1105.5,-148.5 967.5,-148.5"/>
<text text-anchor="middle" x="1036.5" y="-155.5" font-family="Helvetica,sans-Serif" font-size="10.00">YUVSource::bitsPerSample</text>
</a>
</g>
</g>
<!-- Node14&#45;&gt;Node15 -->
<g id="edge16" class="edge"><title>Node14&#45;&gt;Node15</title>
<path fill="none" stroke="midnightblue" d="M916.165,-169.871C929.492,-168.545 943.482,-167.154 957.001,-165.809"/>
<polygon fill="midnightblue" stroke="midnightblue" points="957.625,-169.264 967.229,-164.791 956.932,-162.298 957.625,-169.264"/>
</g>
<!-- Node15&#45;&gt;Node11 -->
<g id="edge18" class="edge"><title>Node15&#45;&gt;Node11</title>
<path fill="none" stroke="midnightblue" d="M1105.53,-149.029C1119.34,-147.208 1133.91,-145.287 1147.84,-143.45"/>
<polygon fill="midnightblue" stroke="midnightblue" points="1148.4,-146.907 1157.85,-142.129 1147.48,-139.967 1148.4,-146.907"/>
</g>
<!-- Node15&#45;&gt;Node16 -->
<g id="edge17" class="edge"><title>Node15&#45;&gt;Node16</title>
<path fill="none" stroke="midnightblue" d="M1105.53,-166.597C1116.7,-168.008 1128.36,-169.482 1139.78,-170.925"/>
<polygon fill="midnightblue" stroke="midnightblue" points="1139.37,-174.402 1149.73,-172.183 1140.25,-167.457 1139.37,-174.402"/>
</g>
<!-- Node17&#45;&gt;Node15 -->
<g id="edge20" class="edge"><title>Node17&#45;&gt;Node15</title>
<path fill="none" stroke="midnightblue" d="M923.014,-146.81C934.279,-147.931 945.87,-149.084 957.132,-150.204"/>
<polygon fill="midnightblue" stroke="midnightblue" points="957.066,-153.715 967.364,-151.222 957.759,-146.749 957.066,-153.715"/>
</g>
<!-- Node21 -->
<g id="node21" class="node"><title>Node21</title>
<g id="a_node21"><a xlink:href="classMainWindow.html#aea2b70d7ccb204793c3121600f612c84" target="_top" xlink:title="Return the primary and secondary playlist item that is currently selected. ">
<polygon fill="white" stroke="black" points="567,-153 567,-183 716,-183 716,-153 567,-153"/>
<text text-anchor="start" x="575" y="-171" font-family="Helvetica,sans-Serif" font-size="10.00">MainWindow::selectedPrimary</text>
<text text-anchor="middle" x="641.5" y="-160" font-family="Helvetica,sans-Serif" font-size="10.00">PlaylistItem</text>
</a>
</g>
</g>
<!-- Node20&#45;&gt;Node21 -->
<g id="edge25" class="edge"><title>Node20&#45;&gt;Node21</title>
<path fill="none" stroke="midnightblue" d="M331.346,-163.157C395.855,-164.167 489.446,-165.634 556.733,-166.688"/>
<polygon fill="midnightblue" stroke="midnightblue" points="556.827,-170.19 566.88,-166.847 556.937,-163.19 556.827,-170.19"/>
</g>
<!-- Node22 -->
<g id="node22" class="node"><title>Node22</title>
<g id="a_node22"><a xlink:href="classPlaylistItem.html#a3d4d575a397a3725e62ab425dcf214a5" target="_top" xlink:title="PlaylistItem::displayObject">
<polygon fill="white" stroke="black" points="574.5,-114.5 574.5,-133.5 708.5,-133.5 708.5,-114.5 574.5,-114.5"/>
<text text-anchor="middle" x="641.5" y="-121.5" font-family="Helvetica,sans-Serif" font-size="10.00">PlaylistItem::displayObject</text>
</a>
</g>
</g>
<!-- Node20&#45;&gt;Node22 -->
<g id="edge26" class="edge"><title>Node20&#45;&gt;Node22</title>
<path fill="none" stroke="midnightblue" d="M331.346,-154.673C398.233,-148.037 496.385,-138.299 564.064,-131.584"/>
<polygon fill="midnightblue" stroke="midnightblue" points="564.632,-135.045 574.237,-130.574 563.941,-128.079 564.632,-135.045"/>
</g>
<!-- Node23 -->
<g id="node23" class="node"><title>Node23</title>
<g id="a_node23"><a xlink:href="classDisplayObject.html#a8f8f637b874a3e17128915cf414d6b60" target="_top" xlink:title="DisplayObject::frameRate">
<polygon fill="white" stroke="black" points="378,-240.5 378,-259.5 508,-259.5 508,-240.5 378,-240.5"/>
<text text-anchor="middle" x="443" y="-247.5" font-family="Helvetica,sans-Serif" font-size="10.00">DisplayObject::frameRate</text>
</a>
</g>
</g>
<!-- Node20&#45;&gt;Node23 -->
<g id="edge27" class="edge"><title>Node20&#45;&gt;Node23</title>
<path fill="none" stroke="midnightblue" d="M284.336,-177.033C298.392,-185.074 315.798,-195.295 331,-205 347.419,-215.482 349.325,-221.812 367,-230 373.079,-232.816 379.626,-235.293 386.23,-237.456"/>
<polygon fill="midnightblue" stroke="midnightblue" points="385.312,-240.835 395.898,-240.403 387.353,-234.139 385.312,-240.835"/>
</g>
<!-- Node24 -->
<g id="node24" class="node"><title>Node24</title>
<g id="a_node24"><a xlink:href="classDisplayObject.html#a800ba7adac185f51b23d5f0f1c5ff4ab" target="_top" xlink:title="DisplayObject::frameIndex\lLimits">
<polygon fill="white" stroke="black" points="376.5,-191 376.5,-221 509.5,-221 509.5,-191 376.5,-191"/>
<text text-anchor="start" x="384.5" y="-209" font-family="Helvetica,sans-Serif" font-size="10.00">DisplayObject::frameIndex</text>
<text text-anchor="middle" x="443" y="-198" font-family="Helvetica,sans-Serif" font-size="10.00">Limits</text>
</a>
</g>
</g>
<!-- Node20&#45;&gt;Node24 -->
<g id="edge28" class="edge"><title>Node20&#45;&gt;Node24</title>
<path fill="none" stroke="midnightblue" d="M320.478,-177.019C336.126,-180.751 353.026,-184.781 369.106,-188.616"/>
<polygon fill="midnightblue" stroke="midnightblue" points="368.453,-192.058 378.992,-190.974 370.077,-185.249 368.453,-192.058"/>
</g>
<!-- Node26 -->
<g id="node26" class="node"><title>Node26</title>
<g id="a_node26"><a xlink:href="classDisplayObject.html#aadedaec1d9a5ec4adbf8f33e0f802350" target="_top" xlink:title="DisplayObject::endFrame">
<polygon fill="white" stroke="black" points="577.5,-0.5 577.5,-19.5 705.5,-19.5 705.5,-0.5 577.5,-0.5"/>
<text text-anchor="middle" x="641.5" y="-7.5" font-family="Helvetica,sans-Serif" font-size="10.00">DisplayObject::endFrame</text>
</a>
</g>
</g>
<!-- Node20&#45;&gt;Node26 -->
<g id="edge30" class="edge"><title>Node20&#45;&gt;Node26</title>
<path fill="none" stroke="midnightblue" d="M270.304,-146.815C289.182,-125.478 326.633,-87.0016 367,-67 430.343,-35.6137 510.212,-21.4899 567.257,-15.146"/>
<polygon fill="midnightblue" stroke="midnightblue" points="567.701,-18.6186 577.277,-14.0854 566.964,-11.6575 567.701,-18.6186"/>
</g>
<!-- Node27 -->
<g id="node27" class="node"><title>Node27</title>
<g id="a_node27"><a xlink:href="classMainWindow.html#a904474dcf6f3da3e95bba2380192129a" target="_top" xlink:title="set current frame for playback ">
<polygon fill="white" stroke="black" points="367,-76.5 367,-95.5 519,-95.5 519,-76.5 367,-76.5"/>
<text text-anchor="middle" x="443" y="-83.5" font-family="Helvetica,sans-Serif" font-size="10.00">MainWindow::setCurrentFrame</text>
</a>
</g>
</g>
<!-- Node20&#45;&gt;Node27 -->
<g id="edge31" class="edge"><title>Node20&#45;&gt;Node27</title>
<path fill="none" stroke="midnightblue" d="M286.771,-146.786C308.558,-135.786 339.209,-120.988 367,-110 377.213,-105.962 388.4,-102.095 398.946,-98.6895"/>
<polygon fill="midnightblue" stroke="midnightblue" points="400.326,-101.924 408.807,-95.5751 398.218,-95.2493 400.326,-101.924"/>
</g>
<!-- Node25 -->
<g id="node25" class="node"><title>Node25</title>
<g id="a_node25"><a xlink:href="classDisplayObject.html#a587ff96ee994001247bdb74df1001309" target="_top" xlink:title="DisplayObject::numFrames">
<polygon fill="white" stroke="black" points="573.5,-202.5 573.5,-221.5 709.5,-221.5 709.5,-202.5 573.5,-202.5"/>
<text text-anchor="middle" x="641.5" y="-209.5" font-family="Helvetica,sans-Serif" font-size="10.00">DisplayObject::numFrames</text>
</a>
</g>
</g>
<!-- Node24&#45;&gt;Node25 -->
<g id="edge29" class="edge"><title>Node24&#45;&gt;Node25</title>
<path fill="none" stroke="midnightblue" d="M509.705,-208.006C526.772,-208.527 545.317,-209.094 562.933,-209.632"/>
<polygon fill="midnightblue" stroke="midnightblue" points="563.077,-213.137 573.179,-209.944 563.291,-206.141 563.077,-213.137"/>
</g>
<!-- Node27&#45;&gt;Node21 -->
<g id="edge32" class="edge"><title>Node27&#45;&gt;Node21</title>
<path fill="none" stroke="midnightblue" d="M460.093,-95.5007C481.291,-107.723 519.987,-129.038 555,-143 560.939,-145.368 567.19,-147.624 573.497,-149.741"/>
<polygon fill="midnightblue" stroke="midnightblue" points="572.825,-153.202 583.417,-152.95 574.98,-146.542 572.825,-153.202"/>
</g>
<!-- Node27&#45;&gt;Node22 -->
<g id="edge33" class="edge"><title>Node27&#45;&gt;Node22</title>
<path fill="none" stroke="midnightblue" d="M493.332,-95.54C519.961,-100.69 553.027,-107.084 581.066,-112.506"/>
<polygon fill="midnightblue" stroke="midnightblue" points="580.665,-115.994 591.148,-114.456 581.995,-109.121 580.665,-115.994"/>
</g>
<!-- Node27&#45;&gt;Node26 -->
<g id="edge34" class="edge"><title>Node27&#45;&gt;Node26</title>
<path fill="none" stroke="midnightblue" d="M459.596,-76.3589C480.565,-63.7842 519.343,-41.8759 555,-29 562.24,-26.3855 569.961,-24.062 577.688,-22.0167"/>
<polygon fill="midnightblue" stroke="midnightblue" points="578.594,-25.398 587.444,-19.5737 576.894,-18.6076 578.594,-25.398"/>
</g>
<!-- Node28 -->
<g id="node28" class="node"><title>Node28</title>
<g id="a_node28"><a xlink:href="classDisplayObject.html#aaaa354081106c97409a4bc2bbc2059fe" target="_top" xlink:title="DisplayObject::startFrame">
<polygon fill="white" stroke="black" points="576,-38.5 576,-57.5 707,-57.5 707,-38.5 576,-38.5"/>
<text text-anchor="middle" x="641.5" y="-45.5" font-family="Helvetica,sans-Serif" font-size="10.00">DisplayObject::startFrame</text>
</a>
</g>
</g>
<!-- Node27&#45;&gt;Node28 -->
<g id="edge35" class="edge"><title>Node27&#45;&gt;Node28</title>
<path fill="none" stroke="midnightblue" d="M493.332,-76.46C519.961,-71.3104 553.027,-64.916 581.066,-59.4935"/>
<polygon fill="midnightblue" stroke="midnightblue" points="581.995,-62.879 591.148,-57.5439 580.665,-56.0063 581.995,-62.879"/>
</g>
<!-- Node29 -->
<g id="node29" class="node"><title>Node29</title>
<g id="a_node29"><a xlink:href="classMainWindow.html#a6ad58489b43d2fca734a3dfa7b69832e" target="_top" xlink:title="update the frames slider and frame selection box without toggeling any signals ">
<polygon fill="white" stroke="black" points="555,-76.5 555,-95.5 728,-95.5 728,-76.5 555,-76.5"/>
<text text-anchor="middle" x="641.5" y="-83.5" font-family="Helvetica,sans-Serif" font-size="10.00">MainWindow::updateFrameControls</text>
</a>
</g>
</g>
<!-- Node27&#45;&gt;Node29 -->
<g id="edge36" class="edge"><title>Node27&#45;&gt;Node29</title>
<path fill="none" stroke="midnightblue" d="M519.129,-79.4189C527.54,-79.2939 536.19,-79.2383 544.813,-79.252"/>
<polygon fill="midnightblue" stroke="midnightblue" points="544.892,-82.7524 554.908,-79.3 544.925,-75.7524 544.892,-82.7524"/>
</g>
<!-- Node29&#45;&gt;Node27 -->
<g id="edge37" class="edge"><title>Node29&#45;&gt;Node27</title>
<path fill="none" stroke="midnightblue" d="M554.908,-92.7C546.439,-92.7673 537.842,-92.7667 529.376,-92.6982"/>
<polygon fill="midnightblue" stroke="midnightblue" points="529.169,-89.1957 519.129,-92.5811 529.089,-96.1953 529.169,-89.1957"/>
</g>
</g>
</svg>
        <g id="navigator" transform="translate(0 0)" fill="#404254">
                <rect fill="#f2f5e9" fill-opacity="0.5" stroke="#606060" stroke-width=".5" x="0" y="0" width="60" height="60"/>
                <use id="zoomplus" xlink:href="#zoomPlus" x="17" y="9" onmousedown="handleZoom(evt,'in')"/>
                <use id="zoomminus" xlink:href="#zoomMin" x="42" y="9" onmousedown="handleZoom(evt,'out')"/>
                <use id="reset" xlink:href="#resetDef" x="30" y="36" onmousedown="handleReset()"/>
                <g id="arrowUp" xlink:href="#dirArrow" transform="translate(30 24)" onmousedown="handlePan(0,-1)">
                  <use xlink:href="#rim" fill="#404040">
                        <set attributeName="fill" to="#808080" begin="arrowUp.mouseover" end="arrowUp.mouseout"/>
                  </use>
                  <path fill="none" stroke="white" stroke-width="1.5" d="M0,-3.0v7 M-2.5,-0.5L0,-3.0L2.5,-0.5"/>
                </g>
                <g id="arrowRight" xlink:href="#dirArrow" transform="rotate(90) translate(36 -43)" onmousedown="handlePan(1,0)">
                  <use xlink:href="#rim" fill="#404040">
                        <set attributeName="fill" to="#808080" begin="arrowRight.mouseover" end="arrowRight.mouseout"/>
                  </use>
                  <path fill="none" stroke="white" stroke-width="1.5" d="M0,-3.0v7 M-2.5,-0.5L0,-3.0L2.5,-0.5"/>
                </g>
                <g id="arrowDown" xlink:href="#dirArrow" transform="rotate(180) translate(-30 -48)" onmousedown="handlePan(0,1)">
                  <use xlink:href="#rim" fill="#404040">
                        <set attributeName="fill" to="#808080" begin="arrowDown.mouseover" end="arrowDown.mouseout"/>
                  </use>
                  <path fill="none" stroke="white" stroke-width="1.5" d="M0,-3.0v7 M-2.5,-0.5L0,-3.0L2.5,-0.5"/>
                </g>
                <g id="arrowLeft" xlink:href="#dirArrow" transform="rotate(270) translate(-36 17)" onmousedown="handlePan(-1,0)">
                  <use xlink:href="#rim" fill="#404040">
                        <set attributeName="fill" to="#808080" begin="arrowLeft.mouseover" end="arrowLeft.mouseout"/>
                  </use>
                  <path fill="none" stroke="white" stroke-width="1.5" d="M0,-3.0v7 M-2.5,-0.5L0,-3.0L2.5,-0.5"/>
                </g>
        </g>
        <svg viewBox="0 0 15 15" width="100%" height="30px" preserveAspectRatio="xMaxYMin meet">
         <g id="arrow_out" transform="scale(0.3 0.3)">
          <a xlink:href="classMainWindow_ab0e3857ccb336133d522cde81e73988e_cgraph_org.svg" target="_base">
           <rect id="button" ry="5" rx="5" y="6" x="6" height="38" width="38"
                fill="#f2f5e9" fill-opacity="0.5" stroke="#606060" stroke-width="1.0"/>
           <path id="arrow"
             d="M 11.500037,31.436501 C 11.940474,20.09759 22.043105,11.32322 32.158766,21.979434 L 37.068811,17.246167 C 37.068811,17.246167 37.088388,32 37.088388,32 L 22.160133,31.978069 C 22.160133,31.978069 26.997745,27.140456 26.997745,27.140456 C 18.528582,18.264221 13.291696,25.230495 11.500037,31.436501 z"
             style="fill:#404040;"/>
          </a>
         </g>
        </svg>
</svg>
