<?xml version="1.0" encoding="UTF-8" standalone="no"?>
<!DOCTYPE svg PUBLIC "-//W3C//DTD SVG 1.1//EN"
 "http://www.w3.org/Graphics/SVG/1.1/DTD/svg11.dtd">
<!-- Generated by graphviz version 2.38.0 (20140413.2041)
 -->
<!-- Title: PlaylistItem::itemType Pages: 1 -->
<svg width="1299pt" height="913pt"
 viewBox="0.00 0.00 1299.00 912.50" xmlns="http://www.w3.org/2000/svg" xmlns:xlink="http://www.w3.org/1999/xlink">
<g id="graph0" class="graph" transform="scale(1 1) rotate(0) translate(4 908.5)">
<title>PlaylistItem::itemType</title>
<polygon fill="white" stroke="none" points="-4,4 -4,-908.5 1295,-908.5 1295,4 -4,4"/>
<!-- Node1 -->
<g id="node1" class="node"><title>Node1</title>
<polygon fill="#bfbfbf" stroke="black" points="0,-437 0,-456 115,-456 115,-437 0,-437"/>
<text text-anchor="middle" x="57.5" y="-444" font-family="Helvetica,sans-Serif" font-size="10.00">PlaylistItem::itemType</text>
</g>
<!-- Node2 -->
<g id="node2" class="node"><title>Node2</title>
<g id="a_node2"><a xlink:href="classMainWindow.html#a88624964fbb9d67df9149b29fab6f225" target="_top" xlink:title="MainWindow::savePlaylist\lToFile">
<polygon fill="white" stroke="black" points="168.5,-841.5 168.5,-871.5 300.5,-871.5 300.5,-841.5 168.5,-841.5"/>
<text text-anchor="start" x="176.5" y="-859.5" font-family="Helvetica,sans-Serif" font-size="10.00">MainWindow::savePlaylist</text>
<text text-anchor="middle" x="234.5" y="-848.5" font-family="Helvetica,sans-Serif" font-size="10.00">ToFile</text>
</a>
</g>
</g>
<!-- Node1&#45;&gt;Node2 -->
<g id="edge1" class="edge"><title>Node1&#45;&gt;Node2</title>
<path fill="none" stroke="midnightblue" d="M59.2415,-466.058C62.2399,-522.208 77.1982,-686.834 151,-795.5 164.311,-815.099 186.058,-830.798 203.884,-841.359"/>
<polygon fill="midnightblue" stroke="midnightblue" points="62.7371,-465.878 58.7768,-456.051 55.7446,-466.203 62.7371,-465.878"/>
</g>
<!-- Node6 -->
<g id="node6" class="node"><title>Node6</title>
<g id="a_node6"><a xlink:href="classMainWindow.html#a6f33e93f427ff2df80edffcb3ad944da" target="_top" xlink:title="MainWindow::updateSelected\lItems">
<polygon fill="white" stroke="black" points="570.5,-595.5 570.5,-625.5 716.5,-625.5 716.5,-595.5 570.5,-595.5"/>
<text text-anchor="start" x="578.5" y="-613.5" font-family="Helvetica,sans-Serif" font-size="10.00">MainWindow::updateSelected</text>
<text text-anchor="middle" x="643.5" y="-602.5" font-family="Helvetica,sans-Serif" font-size="10.00">Items</text>
</a>
</g>
</g>
<!-- Node1&#45;&gt;Node6 -->
<g id="edge5" class="edge"><title>Node1&#45;&gt;Node6</title>
<path fill="none" stroke="midnightblue" d="M63.7715,-465.879C74.1084,-499.627 100.555,-568.362 151,-597.5 220.203,-637.474 451.128,-625.925 570.169,-616.84"/>
<polygon fill="midnightblue" stroke="midnightblue" points="67.1236,-464.872 60.9715,-456.246 60.4018,-466.826 67.1236,-464.872"/>
</g>
<!-- Node8 -->
<g id="node8" class="node"><title>Node8</title>
<g id="a_node8"><a xlink:href="classMainWindow.html#aaba5c236313378986c42c4a634c4cfb9" target="_top" xlink:title="MainWindow::onCustomContextMenu">
<polygon fill="white" stroke="black" points="938,-721 938,-740 1120,-740 1120,-721 938,-721"/>
<text text-anchor="middle" x="1029" y="-728" font-family="Helvetica,sans-Serif" font-size="10.00">MainWindow::onCustomContextMenu</text>
</a>
</g>
</g>
<!-- Node1&#45;&gt;Node8 -->
<g id="edge17" class="edge"><title>Node1&#45;&gt;Node8</title>
<path fill="none" stroke="midnightblue" d="M58.9706,-466.479C61.3143,-515.744 74.8156,-643.323 151,-702.5 201.869,-742.013 375.088,-730.5 439.5,-730.5 439.5,-730.5 439.5,-730.5 644.5,-730.5 744.869,-730.5 860.014,-730.5 937.729,-730.5"/>
<polygon fill="midnightblue" stroke="midnightblue" points="62.4585,-466.081 58.5956,-456.216 55.4632,-466.337 62.4585,-466.081"/>
</g>
<!-- Node9 -->
<g id="node9" class="node"><title>Node9</title>
<g id="a_node9"><a xlink:href="classMainWindow.html#af5ecc7c65080215b49b9d931c56c65c9" target="_top" xlink:title="MainWindow::editTextFrame">
<polygon fill="white" stroke="black" points="760,-683 760,-702 902,-702 902,-683 760,-683"/>
<text text-anchor="middle" x="831" y="-690" font-family="Helvetica,sans-Serif" font-size="10.00">MainWindow::editTextFrame</text>
</a>
</g>
</g>
<!-- Node1&#45;&gt;Node9 -->
<g id="edge19" class="edge"><title>Node1&#45;&gt;Node9</title>
<path fill="none" stroke="midnightblue" d="M59.9504,-466.529C64.4104,-511.612 82.1607,-620.829 151,-668.5 247.792,-735.528 606.506,-712.614 759.801,-699.272"/>
<polygon fill="midnightblue" stroke="midnightblue" points="63.414,-465.957 59.0628,-456.297 56.4401,-466.562 63.414,-465.957"/>
</g>
<!-- Node10 -->
<g id="node10" class="node"><title>Node10</title>
<g id="a_node10"><a xlink:href="classMainWindow.html#ab18c663524e2c130759c0ca960129ea4" target="_top" xlink:title="MainWindow::onItemDouble\lClicked">
<polygon fill="white" stroke="black" points="959,-642.5 959,-672.5 1099,-672.5 1099,-642.5 959,-642.5"/>
<text text-anchor="start" x="967" y="-660.5" font-family="Helvetica,sans-Serif" font-size="10.00">MainWindow::onItemDouble</text>
<text text-anchor="middle" x="1029" y="-649.5" font-family="Helvetica,sans-Serif" font-size="10.00">Clicked</text>
</a>
</g>
</g>
<!-- Node1&#45;&gt;Node10 -->
<g id="edge18" class="edge"><title>Node1&#45;&gt;Node10</title>
<path fill="none" stroke="midnightblue" d="M62.3383,-466.155C70.8589,-503.982 95.1849,-586.513 151,-624.5 257.573,-697.032 310.586,-654.5 439.5,-654.5 439.5,-654.5 439.5,-654.5 644.5,-654.5 754.36,-654.5 881.917,-655.746 958.721,-656.632"/>
<polygon fill="midnightblue" stroke="midnightblue" points="65.757,-465.405 60.262,-456.346 58.9088,-466.854 65.757,-465.405"/>
</g>
<!-- Node12 -->
<g id="node12" class="node"><title>Node12</title>
<g id="a_node12"><a xlink:href="classMainWindow.html#a29e6418f12a4331860a7db3616e91600" target="_top" xlink:title="updates the YUV information GUI elements from the current Renderobject ">
<polygon fill="white" stroke="black" points="160,-557.5 160,-587.5 309,-587.5 309,-557.5 160,-557.5"/>
<text text-anchor="start" x="168" y="-575.5" font-family="Helvetica,sans-Serif" font-size="10.00">MainWindow::updateSelection</text>
<text text-anchor="middle" x="234.5" y="-564.5" font-family="Helvetica,sans-Serif" font-size="10.00">MetaInfo</text>
</a>
</g>
</g>
<!-- Node1&#45;&gt;Node12 -->
<g id="edge20" class="edge"><title>Node1&#45;&gt;Node12</title>
<path fill="none" stroke="midnightblue" d="M71.4539,-464.229C87.8244,-485.499 117.889,-520.978 151,-542.5 160.073,-548.397 170.459,-553.331 180.732,-557.382"/>
<polygon fill="midnightblue" stroke="midnightblue" points="74.1183,-461.949 65.3074,-456.065 68.526,-466.159 74.1183,-461.949"/>
</g>
<!-- Node13 -->
<g id="node13" class="node"><title>Node13</title>
<g id="a_node13"><a xlink:href="classMainWindow.html#a2cae0b3ed4283301ecc11dc881d31422" target="_top" xlink:title="A file option was changed by the user (width/height/start/end/rate/sampling/frameSize/pixelFormat). ">
<polygon fill="white" stroke="black" points="372.5,-469.5 372.5,-499.5 508.5,-499.5 508.5,-469.5 372.5,-469.5"/>
<text text-anchor="start" x="380.5" y="-487.5" font-family="Helvetica,sans-Serif" font-size="10.00">MainWindow::on_fileOption</text>
<text text-anchor="middle" x="440.5" y="-476.5" font-family="Helvetica,sans-Serif" font-size="10.00">ValueChanged</text>
</a>
</g>
</g>
<!-- Node1&#45;&gt;Node13 -->
<g id="edge27" class="edge"><title>Node1&#45;&gt;Node13</title>
<path fill="none" stroke="midnightblue" d="M75.8488,-463.117C93.2584,-478.545 121.639,-500.451 151,-509.5 232.796,-534.709 333.394,-515.331 391.609,-499.521"/>
<polygon fill="midnightblue" stroke="midnightblue" points="77.9693,-460.313 68.2274,-456.148 73.2457,-465.479 77.9693,-460.313"/>
</g>
<!-- Node15 -->
<g id="node15" class="node"><title>Node15</title>
<g id="a_node15"><a xlink:href="classMainWindow.html#a704745d0944b860342ac8bdb6867491c" target="_top" xlink:title="TODO: Should this also be in updateSelectionMetaInfo and the signal/slot? ">
<polygon fill="white" stroke="black" points="152.5,-431.5 152.5,-461.5 316.5,-461.5 316.5,-431.5 152.5,-431.5"/>
<text text-anchor="start" x="160.5" y="-449.5" font-family="Helvetica,sans-Serif" font-size="10.00">MainWindow::on_interpolation</text>
<text text-anchor="middle" x="234.5" y="-438.5" font-family="Helvetica,sans-Serif" font-size="10.00">ComboBox_currentIndexChanged</text>
</a>
</g>
</g>
<!-- Node1&#45;&gt;Node15 -->
<g id="edge28" class="edge"><title>Node1&#45;&gt;Node15</title>
<path fill="none" stroke="midnightblue" d="M125.52,-446.5C134.346,-446.5 143.467,-446.5 152.495,-446.5"/>
<polygon fill="midnightblue" stroke="midnightblue" points="125.318,-443 115.317,-446.5 125.317,-450 125.318,-443"/>
</g>
<!-- Node16 -->
<g id="node16" class="node"><title>Node16</title>
<g id="a_node16"><a xlink:href="classMainWindow.html#a94442a4ea05a84b5f57585c4f6ca65a9" target="_top" xlink:title="MainWindow::statsTypesChanged">
<polygon fill="white" stroke="black" points="151,-481 151,-500 318,-500 318,-481 151,-481"/>
<text text-anchor="middle" x="234.5" y="-488" font-family="Helvetica,sans-Serif" font-size="10.00">MainWindow::statsTypesChanged</text>
</a>
</g>
</g>
<!-- Node1&#45;&gt;Node16 -->
<g id="edge29" class="edge"><title>Node1&#45;&gt;Node16</title>
<path fill="none" stroke="midnightblue" d="M102.435,-458.737C117.769,-462.911 135.114,-467.526 151,-471.5 163.833,-474.711 177.839,-478.012 190.608,-480.944"/>
<polygon fill="midnightblue" stroke="midnightblue" points="103.253,-455.332 92.684,-456.068 101.405,-462.084 103.253,-455.332"/>
</g>
<!-- Node18 -->
<g id="node18" class="node"><title>Node18</title>
<g id="a_node18"><a xlink:href="classMainWindow.html#ab2f303a68beea6bf87324e4e96f7a598" target="_top" xlink:title="update selection of color format ComboBox ">
<polygon fill="white" stroke="black" points="563,-778.5 563,-808.5 724,-808.5 724,-778.5 563,-778.5"/>
<text text-anchor="start" x="571" y="-796.5" font-family="Helvetica,sans-Serif" font-size="10.00">MainWindow::updatePixelFormat</text>
<text text-anchor="middle" x="643.5" y="-785.5" font-family="Helvetica,sans-Serif" font-size="10.00">ComboBoxSelection</text>
</a>
</g>
</g>
<!-- Node1&#45;&gt;Node18 -->
<g id="edge32" class="edge"><title>Node1&#45;&gt;Node18</title>
<path fill="none" stroke="midnightblue" d="M57.832,-466.336C57.1909,-520.774 63.6323,-673.183 151,-744.5 271.406,-842.786 467.692,-826.46 572.054,-808.546"/>
<polygon fill="midnightblue" stroke="midnightblue" points="61.3326,-466.344 58.0498,-456.271 54.3342,-466.193 61.3326,-466.344"/>
</g>
<!-- Node20 -->
<g id="node20" class="node"><title>Node20</title>
<g id="a_node20"><a xlink:href="classMainWindow.html#a3e50d275dfc7ac5871360412dd83f7eb" target="_top" xlink:title="MainWindow::on_LumaScale\lSpinBox_valueChanged">
<polygon fill="white" stroke="black" points="163,-343.5 163,-373.5 306,-373.5 306,-343.5 163,-343.5"/>
<text text-anchor="start" x="171" y="-361.5" font-family="Helvetica,sans-Serif" font-size="10.00">MainWindow::on_LumaScale</text>
<text text-anchor="middle" x="234.5" y="-350.5" font-family="Helvetica,sans-Serif" font-size="10.00">SpinBox_valueChanged</text>
</a>
</g>
</g>
<!-- Node1&#45;&gt;Node20 -->
<g id="edge36" class="edge"><title>Node1&#45;&gt;Node20</title>
<path fill="none" stroke="midnightblue" d="M80.2252,-431.032C98.5055,-418.476 125.649,-400.884 151,-388.5 162.229,-383.015 174.729,-377.965 186.533,-373.635"/>
<polygon fill="midnightblue" stroke="midnightblue" points="77.9793,-428.331 71.7702,-436.916 81.9776,-434.077 77.9793,-428.331"/>
</g>
<!-- Node21 -->
<g id="node21" class="node"><title>Node21</title>
<g id="a_node21"><a xlink:href="classMainWindow.html#a1836ff843ea4ed48e29ab90b08050bf7" target="_top" xlink:title="MainWindow::on_ColorComponents\lComboBox_currentIndexChanged">
<polygon fill="white" stroke="black" points="354,-294.5 354,-324.5 527,-324.5 527,-294.5 354,-294.5"/>
<text text-anchor="start" x="362" y="-312.5" font-family="Helvetica,sans-Serif" font-size="10.00">MainWindow::on_ColorComponents</text>
<text text-anchor="middle" x="440.5" y="-301.5" font-family="Helvetica,sans-Serif" font-size="10.00">ComboBox_currentIndexChanged</text>
</a>
</g>
</g>
<!-- Node1&#45;&gt;Node21 -->
<g id="edge46" class="edge"><title>Node1&#45;&gt;Node21</title>
<path fill="none" stroke="midnightblue" d="M104.435,-434.345C119.276,-430.482 135.818,-426.242 151,-422.5 225.005,-404.261 247.453,-412.353 318,-383.5 355.948,-367.98 395.769,-341.472 419.079,-324.753"/>
<polygon fill="midnightblue" stroke="midnightblue" points="103.26,-431.035 94.4693,-436.949 105.029,-437.807 103.26,-431.035"/>
</g>
<!-- Node22 -->
<g id="node22" class="node"><title>Node22</title>
<g id="a_node22"><a xlink:href="classMainWindow.html#aa8b7f37af858513162a091d7f81561b4" target="_top" xlink:title="MainWindow::on_ChromaScale\lSpinBox_valueChanged">
<polygon fill="white" stroke="black" points="157.5,-294.5 157.5,-324.5 311.5,-324.5 311.5,-294.5 157.5,-294.5"/>
<text text-anchor="start" x="165.5" y="-312.5" font-family="Helvetica,sans-Serif" font-size="10.00">MainWindow::on_ChromaScale</text>
<text text-anchor="middle" x="234.5" y="-301.5" font-family="Helvetica,sans-Serif" font-size="10.00">SpinBox_valueChanged</text>
</a>
</g>
</g>
<!-- Node1&#45;&gt;Node22 -->
<g id="edge38" class="edge"><title>Node1&#45;&gt;Node22</title>
<path fill="none" stroke="midnightblue" d="M68.9858,-427.968C83.997,-403.09 113.935,-359.175 151,-334.5 156.731,-330.685 163.066,-327.434 169.603,-324.667"/>
<polygon fill="midnightblue" stroke="midnightblue" points="65.8577,-426.383 63.8152,-436.779 71.895,-429.926 65.8577,-426.383"/>
</g>
<!-- Node23 -->
<g id="node23" class="node"><title>Node23</title>
<g id="a_node23"><a xlink:href="classMainWindow.html#ab0e3857ccb336133d522cde81e73988e" target="_top" xlink:title="MainWindow::on_LumaOffset\lSpinBox_valueChanged">
<polygon fill="white" stroke="black" points="161.5,-245.5 161.5,-275.5 307.5,-275.5 307.5,-245.5 161.5,-245.5"/>
<text text-anchor="start" x="169.5" y="-263.5" font-family="Helvetica,sans-Serif" font-size="10.00">MainWindow::on_LumaOffset</text>
<text text-anchor="middle" x="234.5" y="-252.5" font-family="Helvetica,sans-Serif" font-size="10.00">SpinBox_valueChanged</text>
</a>
</g>
</g>
<!-- Node1&#45;&gt;Node23 -->
<g id="edge40" class="edge"><title>Node1&#45;&gt;Node23</title>
<path fill="none" stroke="midnightblue" d="M64.3045,-427.244C75.4761,-393.466 103.188,-323.518 151,-285.5 155.92,-281.588 161.446,-278.287 167.247,-275.501"/>
<polygon fill="midnightblue" stroke="midnightblue" points="60.9437,-426.264 61.254,-436.854 67.6156,-428.382 60.9437,-426.264"/>
</g>
<!-- Node24 -->
<g id="node24" class="node"><title>Node24</title>
<g id="a_node24"><a xlink:href="classMainWindow.html#adac0478ee9ee4dd30f05fc7f5d300825" target="_top" xlink:title="MainWindow::on_ChromaOffset\lSpinBox_valueChanged">
<polygon fill="white" stroke="black" points="156.5,-196.5 156.5,-226.5 312.5,-226.5 312.5,-196.5 156.5,-196.5"/>
<text text-anchor="start" x="164.5" y="-214.5" font-family="Helvetica,sans-Serif" font-size="10.00">MainWindow::on_ChromaOffset</text>
<text text-anchor="middle" x="234.5" y="-203.5" font-family="Helvetica,sans-Serif" font-size="10.00">SpinBox_valueChanged</text>
</a>
</g>
</g>
<!-- Node1&#45;&gt;Node24 -->
<g id="edge42" class="edge"><title>Node1&#45;&gt;Node24</title>
<path fill="none" stroke="midnightblue" d="M61.5171,-427.014C68.9469,-385.689 92.0035,-288.775 151,-236.5 155.369,-232.629 160.321,-229.357 165.577,-226.592"/>
<polygon fill="midnightblue" stroke="midnightblue" points="58.0614,-426.459 59.852,-436.901 64.9642,-427.621 58.0614,-426.459"/>
</g>
<!-- Node25 -->
<g id="node25" class="node"><title>Node25</title>
<g id="a_node25"><a xlink:href="classMainWindow.html#a7f6cbe2be23224eb9eef6af3f55a6d4f" target="_top" xlink:title="MainWindow::on_LumaInvert\lCheckBox_toggled">
<polygon fill="white" stroke="black" points="163,-147.5 163,-177.5 306,-177.5 306,-147.5 163,-147.5"/>
<text text-anchor="start" x="171" y="-165.5" font-family="Helvetica,sans-Serif" font-size="10.00">MainWindow::on_LumaInvert</text>
<text text-anchor="middle" x="234.5" y="-154.5" font-family="Helvetica,sans-Serif" font-size="10.00">CheckBox_toggled</text>
</a>
</g>
</g>
<!-- Node1&#45;&gt;Node25 -->
<g id="edge44" class="edge"><title>Node1&#45;&gt;Node25</title>
<path fill="none" stroke="midnightblue" d="M59.6875,-426.866C63.6614,-378.856 80.5791,-254.566 151,-187.5 155.01,-183.681 159.584,-180.444 164.476,-177.7"/>
<polygon fill="midnightblue" stroke="midnightblue" points="56.1944,-426.645 58.9605,-436.873 63.176,-427.153 56.1944,-426.645"/>
</g>
<!-- Node26 -->
<g id="node26" class="node"><title>Node26</title>
<g id="a_node26"><a xlink:href="classMainWindow.html#aaa518172394694dea45234097327e979" target="_top" xlink:title="MainWindow::on_ChromaInvert\lCheckBox_toggled">
<polygon fill="white" stroke="black" points="157.5,-98.5 157.5,-128.5 311.5,-128.5 311.5,-98.5 157.5,-98.5"/>
<text text-anchor="start" x="165.5" y="-116.5" font-family="Helvetica,sans-Serif" font-size="10.00">MainWindow::on_ChromaInvert</text>
<text text-anchor="middle" x="234.5" y="-105.5" font-family="Helvetica,sans-Serif" font-size="10.00">CheckBox_toggled</text>
</a>
</g>
</g>
<!-- Node1&#45;&gt;Node26 -->
<g id="edge45" class="edge"><title>Node1&#45;&gt;Node26</title>
<path fill="none" stroke="midnightblue" d="M58.3893,-426.557C59.2033,-372.303 69.082,-220.621 151,-138.5 154.805,-134.686 159.171,-131.45 163.866,-128.705"/>
<polygon fill="midnightblue" stroke="midnightblue" points="54.8877,-426.84 58.3316,-436.86 61.8876,-426.879 54.8877,-426.84"/>
</g>
<!-- Node27 -->
<g id="node27" class="node"><title>Node27</title>
<g id="a_node27"><a xlink:href="classMainWindow.html#aa8d01c48d2abb3c4bfaf0fbb387a79b4" target="_top" xlink:title="MainWindow::on_colorConversion\lComboBox_currentIndexChanged">
<polygon fill="white" stroke="black" points="152,-49.5 152,-79.5 317,-79.5 317,-49.5 152,-49.5"/>
<text text-anchor="start" x="160" y="-67.5" font-family="Helvetica,sans-Serif" font-size="10.00">MainWindow::on_colorConversion</text>
<text text-anchor="middle" x="234.5" y="-56.5" font-family="Helvetica,sans-Serif" font-size="10.00">ComboBox_currentIndexChanged</text>
</a>
</g>
</g>
<!-- Node1&#45;&gt;Node27 -->
<g id="edge47" class="edge"><title>Node1&#45;&gt;Node27</title>
<path fill="none" stroke="midnightblue" d="M61.0611,-426.733C70.1812,-359.249 103.109,-139.381 151,-89.5 154.731,-85.6135 159.045,-82.3257 163.703,-79.5451"/>
<polygon fill="midnightblue" stroke="midnightblue" points="57.5642,-426.48 59.7191,-436.853 64.5034,-427.4 57.5642,-426.48"/>
</g>
<!-- Node28 -->
<g id="node28" class="node"><title>Node28</title>
<g id="a_node28"><a xlink:href="classPlaylistTreeWidget.html#a444d078b5f3648bc1ed8339a33a0df5e" target="_top" xlink:title="PlaylistTreeWidget\l::dragMoveEvent">
<polygon fill="white" stroke="black" points="185,-0.5 185,-30.5 284,-30.5 284,-0.5 185,-0.5"/>
<text text-anchor="start" x="193" y="-18.5" font-family="Helvetica,sans-Serif" font-size="10.00">PlaylistTreeWidget</text>
<text text-anchor="middle" x="234.5" y="-7.5" font-family="Helvetica,sans-Serif" font-size="10.00">::dragMoveEvent</text>
</a>
</g>
</g>
<!-- Node1&#45;&gt;Node28 -->
<g id="edge48" class="edge"><title>Node1&#45;&gt;Node28</title>
<path fill="none" stroke="midnightblue" d="M60.4248,-426.454C67.8861,-352.773 97.1924,-98.2255 151,-40.5 159.878,-30.9756 172.25,-25.0374 184.716,-21.348"/>
<polygon fill="midnightblue" stroke="midnightblue" points="56.9158,-426.373 59.4144,-436.669 63.8818,-427.062 56.9158,-426.373"/>
</g>
<!-- Node3 -->
<g id="node3" class="node"><title>Node3</title>
<g id="a_node3"><a xlink:href="classMainWindow.html#a9df7443ce5f907903438bb6a9abe9a33" target="_top" xlink:title="MainWindow::createMenusAnd\lActions">
<polygon fill="white" stroke="black" points="953,-781.5 953,-811.5 1105,-811.5 1105,-781.5 953,-781.5"/>
<text text-anchor="start" x="961" y="-799.5" font-family="Helvetica,sans-Serif" font-size="10.00">MainWindow::createMenusAnd</text>
<text text-anchor="middle" x="1029" y="-788.5" font-family="Helvetica,sans-Serif" font-size="10.00">Actions</text>
</a>
</g>
</g>
<!-- Node2&#45;&gt;Node3 -->
<g id="edge2" class="edge"><title>Node2&#45;&gt;Node3</title>
<path fill="none" stroke="midnightblue" d="M311.094,-861.307C435.42,-867.663 690.38,-874.163 902,-837.5 932.826,-832.159 966.46,-820.922 991.219,-811.56"/>
<polygon fill="midnightblue" stroke="midnightblue" points="311.092,-857.802 300.922,-860.772 310.725,-864.793 311.092,-857.802"/>
</g>
<!-- Node5 -->
<g id="node5" class="node"><title>Node5</title>
<g id="a_node5"><a xlink:href="classMainWindow.html#a4e20a4a065fbb0e4d3532a45a0a91425" target="_top" xlink:title="MainWindow::closeEvent">
<polygon fill="white" stroke="black" points="376.5,-885 376.5,-904 504.5,-904 504.5,-885 376.5,-885"/>
<text text-anchor="middle" x="440.5" y="-892" font-family="Helvetica,sans-Serif" font-size="10.00">MainWindow::closeEvent</text>
</a>
</g>
</g>
<!-- Node2&#45;&gt;Node5 -->
<g id="edge4" class="edge"><title>Node2&#45;&gt;Node5</title>
<path fill="none" stroke="midnightblue" d="M310.733,-870.514C336.528,-875.319 364.781,-880.582 388.233,-884.95"/>
<polygon fill="midnightblue" stroke="midnightblue" points="311.08,-867.018 300.608,-868.628 309.798,-873.9 311.08,-867.018"/>
</g>
<!-- Node4 -->
<g id="node4" class="node"><title>Node4</title>
<g id="a_node4"><a xlink:href="classMainWindow.html#a8b244be8b7b7db1b08de2a2acb9409db" target="_top" xlink:title="MainWindow::MainWindow">
<polygon fill="white" stroke="black" points="1156,-604 1156,-623 1291,-623 1291,-604 1156,-604"/>
<text text-anchor="middle" x="1223.5" y="-611" font-family="Helvetica,sans-Serif" font-size="10.00">MainWindow::MainWindow</text>
</a>
</g>
</g>
<!-- Node3&#45;&gt;Node4 -->
<g id="edge3" class="edge"><title>Node3&#45;&gt;Node4</title>
<path fill="none" stroke="midnightblue" d="M1077.17,-776.807C1091.76,-769.462 1107.31,-760.252 1120,-749.5 1166.01,-710.501 1203.78,-647.295 1217.23,-623.227"/>
<polygon fill="midnightblue" stroke="midnightblue" points="1075.23,-773.853 1067.76,-781.361 1078.28,-780.154 1075.23,-773.853"/>
</g>
<!-- Node6&#45;&gt;Node4 -->
<g id="edge6" class="edge"><title>Node6&#45;&gt;Node4</title>
<path fill="none" stroke="midnightblue" d="M726.719,-610.927C842.033,-611.525 1049.57,-612.602 1155.83,-613.154"/>
<polygon fill="midnightblue" stroke="midnightblue" points="726.553,-607.426 716.535,-610.874 726.517,-614.426 726.553,-607.426"/>
</g>
<!-- Node7 -->
<g id="node7" class="node"><title>Node7</title>
<g id="a_node7"><a xlink:href="classMainWindow.html#a6be7246a1a0ecf5d1442bb1775c3d9b3" target="_top" xlink:title="MainWindow::addDifference\lSequence">
<polygon fill="white" stroke="black" points="761,-759.5 761,-789.5 901,-789.5 901,-759.5 761,-759.5"/>
<text text-anchor="start" x="769" y="-777.5" font-family="Helvetica,sans-Serif" font-size="10.00">MainWindow::addDifference</text>
<text text-anchor="middle" x="831" y="-766.5" font-family="Helvetica,sans-Serif" font-size="10.00">Sequence</text>
</a>
</g>
</g>
<!-- Node6&#45;&gt;Node7 -->
<g id="edge7" class="edge"><title>Node6&#45;&gt;Node7</title>
<path fill="none" stroke="midnightblue" d="M669.232,-632.366C707.47,-666.172 779.964,-730.263 812.922,-759.402"/>
<polygon fill="midnightblue" stroke="midnightblue" points="671.429,-629.636 661.619,-625.635 666.793,-634.881 671.429,-629.636"/>
</g>
<!-- Node6&#45;&gt;Node9 -->
<g id="edge11" class="edge"><title>Node6&#45;&gt;Node9</title>
<path fill="none" stroke="midnightblue" d="M687.78,-629.632C725.597,-646.349 778.926,-669.923 808.363,-682.936"/>
<polygon fill="midnightblue" stroke="midnightblue" points="689.085,-626.382 678.524,-625.54 686.255,-632.784 689.085,-626.382"/>
</g>
<!-- Node11 -->
<g id="node11" class="node"><title>Node11</title>
<g id="a_node11"><a xlink:href="classMainWindow.html#a156c29c6d7ab278e4246c88a0fcbe2f2" target="_top" xlink:title="MainWindow::updateSettings">
<polygon fill="white" stroke="black" points="957,-566 957,-585 1101,-585 1101,-566 957,-566"/>
<text text-anchor="middle" x="1029" y="-573" font-family="Helvetica,sans-Serif" font-size="10.00">MainWindow::updateSettings</text>
</a>
</g>
</g>
<!-- Node6&#45;&gt;Node11 -->
<g id="edge15" class="edge"><title>Node6&#45;&gt;Node11</title>
<path fill="none" stroke="midnightblue" d="M726.774,-602.607C737.94,-601.553 749.25,-600.493 760,-599.5 826.75,-593.333 902.876,-586.538 956.893,-581.758"/>
<polygon fill="midnightblue" stroke="midnightblue" points="726.206,-599.145 716.58,-603.572 726.866,-606.114 726.206,-599.145"/>
</g>
<!-- Node7&#45;&gt;Node3 -->
<g id="edge8" class="edge"><title>Node7&#45;&gt;Node3</title>
<path fill="none" stroke="midnightblue" d="M911.043,-783.372C924.845,-784.921 939.168,-786.529 952.861,-788.066"/>
<polygon fill="midnightblue" stroke="midnightblue" points="911.43,-779.894 901.102,-782.256 910.649,-786.85 911.43,-779.894"/>
</g>
<!-- Node7&#45;&gt;Node8 -->
<g id="edge9" class="edge"><title>Node7&#45;&gt;Node8</title>
<path fill="none" stroke="midnightblue" d="M908.802,-757.259C934.94,-751.391 963.191,-745.049 985.626,-740.012"/>
<polygon fill="midnightblue" stroke="midnightblue" points="907.894,-753.875 898.904,-759.481 909.428,-760.705 907.894,-753.875"/>
</g>
<!-- Node8&#45;&gt;Node4 -->
<g id="edge10" class="edge"><title>Node8&#45;&gt;Node4</title>
<path fill="none" stroke="midnightblue" d="M1058.6,-716.198C1076.5,-707.016 1099.89,-694.585 1120,-682.5 1152.91,-662.718 1189.91,-636.865 1209.19,-623.103"/>
<polygon fill="midnightblue" stroke="midnightblue" points="1056.6,-713.288 1049.28,-720.943 1059.78,-719.526 1056.6,-713.288"/>
</g>
<!-- Node9&#45;&gt;Node8 -->
<g id="edge12" class="edge"><title>Node9&#45;&gt;Node8</title>
<path fill="none" stroke="midnightblue" d="M891.261,-703.989C919.227,-709.411 952.209,-715.806 978.774,-720.956"/>
<polygon fill="midnightblue" stroke="midnightblue" points="891.689,-700.507 881.206,-702.04 890.357,-707.379 891.689,-700.507"/>
</g>
<!-- Node9&#45;&gt;Node10 -->
<g id="edge13" class="edge"><title>Node9&#45;&gt;Node10</title>
<path fill="none" stroke="midnightblue" d="M895.364,-681.185C915.645,-677.563 938.197,-673.536 958.868,-669.845"/>
<polygon fill="midnightblue" stroke="midnightblue" points="894.528,-677.779 885.299,-682.982 895.759,-684.67 894.528,-677.779"/>
</g>
<!-- Node10&#45;&gt;Node4 -->
<g id="edge14" class="edge"><title>Node10&#45;&gt;Node4</title>
<path fill="none" stroke="midnightblue" d="M1105.77,-640.181C1131.35,-634.335 1158.95,-628.027 1180.88,-623.012"/>
<polygon fill="midnightblue" stroke="midnightblue" points="1104.68,-636.84 1095.71,-642.481 1106.24,-643.664 1104.68,-636.84"/>
</g>
<!-- Node11&#45;&gt;Node4 -->
<g id="edge16" class="edge"><title>Node11&#45;&gt;Node4</title>
<path fill="none" stroke="midnightblue" d="M1088.45,-587.038C1115.91,-592.458 1148.24,-598.841 1174.27,-603.98"/>
<polygon fill="midnightblue" stroke="midnightblue" points="1089.06,-583.592 1078.58,-585.089 1087.71,-590.459 1089.06,-583.592"/>
</g>
<!-- Node12&#45;&gt;Node6 -->
<g id="edge21" class="edge"><title>Node12&#45;&gt;Node6</title>
<path fill="none" stroke="midnightblue" d="M300.411,-555.226C360.148,-542.121 450.77,-529.333 527,-548.5 562.977,-557.546 599.964,-580.208 622.09,-595.479"/>
<polygon fill="midnightblue" stroke="midnightblue" points="299.344,-551.879 290.362,-557.498 300.888,-558.707 299.344,-551.879"/>
</g>
<!-- Node12&#45;&gt;Node13 -->
<g id="edge22" class="edge"><title>Node12&#45;&gt;Node13</title>
<path fill="none" stroke="midnightblue" d="M271.444,-553.844C286.314,-548.18 303.447,-541.543 318,-533.5 335.741,-523.695 336.204,-515.205 354,-505.5 359.801,-502.337 365.999,-499.404 372.309,-496.751"/>
<polygon fill="midnightblue" stroke="midnightblue" points="270.142,-550.594 262.048,-557.431 272.639,-557.134 270.142,-550.594"/>
</g>
<!-- Node14 -->
<g id="node14" class="node"><title>Node14</title>
<g id="a_node14"><a xlink:href="classMainWindow.html#a23cc43af3c6873f9a936b5af05c99f49" target="_top" xlink:title="The display objects information changed. Update. ">
<polygon fill="white" stroke="black" points="366,-557.5 366,-587.5 515,-587.5 515,-557.5 366,-557.5"/>
<text text-anchor="start" x="374" y="-575.5" font-family="Helvetica,sans-Serif" font-size="10.00">MainWindow::currentSelection</text>
<text text-anchor="middle" x="440.5" y="-564.5" font-family="Helvetica,sans-Serif" font-size="10.00">InformationChanged</text>
</a>
</g>
</g>
<!-- Node12&#45;&gt;Node14 -->
<g id="edge25" class="edge"><title>Node12&#45;&gt;Node14</title>
<path fill="none" stroke="midnightblue" d="M319.23,-572.5C334.723,-572.5 350.797,-572.5 365.959,-572.5"/>
<polygon fill="midnightblue" stroke="midnightblue" points="319.149,-569 309.149,-572.5 319.149,-576 319.149,-569"/>
</g>
<!-- Node13&#45;&gt;Node4 -->
<g id="edge23" class="edge"><title>Node13&#45;&gt;Node4</title>
<path fill="none" stroke="midnightblue" d="M518.906,-482.789C647.054,-482.126 909.988,-490.01 1120,-556.5 1154.55,-567.44 1190.61,-590.724 1209.38,-603.897"/>
<polygon fill="midnightblue" stroke="midnightblue" points="518.77,-479.289 508.795,-482.86 518.82,-486.289 518.77,-479.289"/>
</g>
<!-- Node13&#45;&gt;Node12 -->
<g id="edge24" class="edge"><title>Node13&#45;&gt;Node12</title>
<path fill="none" stroke="midnightblue" d="M401.887,-503.112C386.555,-508.721 368.955,-515.345 354,-523.5 336.204,-533.205 335.741,-541.695 318,-551.5 314.265,-553.564 310.36,-555.536 306.367,-557.398"/>
<polygon fill="midnightblue" stroke="midnightblue" points="403.395,-506.287 411.585,-499.566 400.991,-499.713 403.395,-506.287"/>
</g>
<!-- Node14&#45;&gt;Node6 -->
<g id="edge26" class="edge"><title>Node14&#45;&gt;Node6</title>
<path fill="none" stroke="midnightblue" d="M525.033,-588.292C540.129,-591.146 555.75,-594.1 570.482,-596.885"/>
<polygon fill="midnightblue" stroke="midnightblue" points="525.68,-584.853 515.204,-586.434 524.379,-591.731 525.68,-584.853"/>
</g>
<!-- Node16&#45;&gt;Node4 -->
<g id="edge30" class="edge"><title>Node16&#45;&gt;Node4</title>
<path fill="none" stroke="midnightblue" d="M308.116,-477.073C311.56,-475.424 314.879,-473.575 318,-471.5 340.806,-456.343 330.052,-434.778 354,-421.5 466.381,-359.188 514,-402.5 642.5,-402.5 642.5,-402.5 642.5,-402.5 832,-402.5 968.549,-402.5 1005.35,-435.333 1120,-509.5 1161.93,-536.626 1200.03,-583.59 1215.36,-603.797"/>
<polygon fill="midnightblue" stroke="midnightblue" points="306.627,-473.902 298.75,-480.987 309.326,-480.361 306.627,-473.902"/>
</g>
<!-- Node17 -->
<g id="node17" class="node"><title>Node17</title>
<g id="a_node17"><a xlink:href="classMainWindow.html#a47efae19bde69ff0bd199daeb46fb2dd" target="_top" xlink:title="Select a Stats Type and update GUI. ">
<polygon fill="white" stroke="black" points="363.5,-431 363.5,-450 517.5,-450 517.5,-431 363.5,-431"/>
<text text-anchor="middle" x="440.5" y="-438" font-family="Helvetica,sans-Serif" font-size="10.00">MainWindow::setSelectedStats</text>
</a>
</g>
</g>
<!-- Node16&#45;&gt;Node17 -->
<g id="edge31" class="edge"><title>Node16&#45;&gt;Node17</title>
<path fill="none" stroke="midnightblue" d="M289.523,-478.632C299.04,-476.378 308.832,-473.953 318,-471.5 334.162,-467.176 337.846,-464.852 354,-460.5 367.689,-456.812 382.716,-453.164 396.302,-450.014"/>
<polygon fill="midnightblue" stroke="midnightblue" points="288.685,-475.233 279.742,-480.913 290.275,-482.05 288.685,-475.233"/>
</g>
<!-- Node19 -->
<g id="node19" class="node"><title>Node19</title>
<g id="a_node19"><a xlink:href="classMainWindow.html#a288b768c3c21a9171bdc56fe845ece8b" target="_top" xlink:title="Shows the file open dialog and loads all selected Files. ">
<polygon fill="white" stroke="black" points="773,-809 773,-828 889,-828 889,-809 773,-809"/>
<text text-anchor="middle" x="831" y="-816" font-family="Helvetica,sans-Serif" font-size="10.00">MainWindow::openFile</text>
</a>
</g>
</g>
<!-- Node18&#45;&gt;Node19 -->
<g id="edge33" class="edge"><title>Node18&#45;&gt;Node19</title>
<path fill="none" stroke="midnightblue" d="M734.289,-805.601C747.467,-807.377 760.724,-809.164 772.996,-810.818"/>
<polygon fill="midnightblue" stroke="midnightblue" points="734.623,-802.114 724.245,-804.247 733.688,-809.052 734.623,-802.114"/>
</g>
<!-- Node19&#45;&gt;Node3 -->
<g id="edge34" class="edge"><title>Node19&#45;&gt;Node3</title>
<path fill="none" stroke="midnightblue" d="M899.208,-810.956C916.485,-809.017 935.183,-806.918 952.834,-804.937"/>
<polygon fill="midnightblue" stroke="midnightblue" points="898.765,-807.484 889.218,-812.078 899.546,-814.44 898.765,-807.484"/>
</g>
<!-- Node19&#45;&gt;Node8 -->
<g id="edge35" class="edge"><title>Node19&#45;&gt;Node8</title>
<path fill="none" stroke="midnightblue" d="M887.21,-805.658C892.306,-803.836 897.311,-801.79 902,-799.5 919.972,-790.724 920.846,-782.784 938,-772.5 959.443,-759.644 985.469,-747.877 1004.01,-740.09"/>
<polygon fill="midnightblue" stroke="midnightblue" points="885.769,-802.447 877.358,-808.889 887.951,-809.098 885.769,-802.447"/>
</g>
<!-- Node20&#45;&gt;Node21 -->
<g id="edge37" class="edge"><title>Node20&#45;&gt;Node21</title>
<path fill="none" stroke="midnightblue" d="M307.957,-341.096C330.524,-335.676 355.202,-329.748 377.025,-324.506"/>
<polygon fill="midnightblue" stroke="midnightblue" points="306.999,-337.727 298.093,-343.465 308.634,-344.533 306.999,-337.727"/>
</g>
<!-- Node22&#45;&gt;Node21 -->
<g id="edge39" class="edge"><title>Node22&#45;&gt;Node21</title>
<path fill="none" stroke="midnightblue" d="M321.803,-309.5C332.375,-309.5 343.178,-309.5 353.743,-309.5"/>
<polygon fill="midnightblue" stroke="midnightblue" points="321.752,-306 311.752,-309.5 321.752,-313 321.752,-306"/>
</g>
<!-- Node23&#45;&gt;Node21 -->
<g id="edge41" class="edge"><title>Node23&#45;&gt;Node21</title>
<path fill="none" stroke="midnightblue" d="M307.957,-277.904C330.524,-283.324 355.202,-289.252 377.025,-294.494"/>
<polygon fill="midnightblue" stroke="midnightblue" points="308.634,-274.467 298.093,-275.535 306.999,-281.273 308.634,-274.467"/>
</g>
<!-- Node24&#45;&gt;Node21 -->
<g id="edge43" class="edge"><title>Node24&#45;&gt;Node21</title>
<path fill="none" stroke="midnightblue" d="M301.586,-229.923C307.203,-231.971 312.742,-234.167 318,-236.5 354.889,-252.869 394.378,-278.224 417.996,-294.335"/>
<polygon fill="midnightblue" stroke="midnightblue" points="302.69,-226.601 292.095,-226.619 300.388,-233.212 302.69,-226.601"/>
</g>
</g>
</svg>
