<?xml version="1.0" encoding="UTF-8" standalone="no"?>
<!DOCTYPE svg PUBLIC "-//W3C//DTD SVG 1.1//EN"
 "http://www.w3.org/Graphics/SVG/1.1/DTD/svg11.dtd">
<!-- Generated by graphviz version 2.38.0 (20140413.2041)
 -->
<!-- Title: statisticSource::getValuesAt Pages: 1 -->
<svg width="527pt" height="110pt"
 viewBox="0.00 0.00 527.00 109.50" xmlns="http://www.w3.org/2000/svg" xmlns:xlink="http://www.w3.org/1999/xlink">
<g id="graph0" class="graph" transform="scale(1 1) rotate(0) translate(4 105.5)">
<title>statisticSource::getValuesAt</title>
<polygon fill="white" stroke="none" points="-4,4 -4,-105.5 523,-105.5 523,4 -4,4"/>
<!-- Node1 -->
<g id="node1" class="node"><title>Node1</title>
<polygon fill="#bfbfbf" stroke="black" points="0,-38.5 0,-57.5 141,-57.5 141,-38.5 0,-38.5"/>
<text text-anchor="middle" x="70.5" y="-45.5" font-family="Helvetica,sans-Serif" font-size="10.00">statisticSource::getValuesAt</text>
</g>
<!-- Node2 -->
<g id="node2" class="node"><title>Node2</title>
<g id="a_node2"><a xlink:href="classstatisticSource.html#a666dee63c406a9b88484286b2a8e08f4" target="_top" xlink:title="statisticSource::getStatistics">
<polygon fill="white" stroke="black" points="187.5,-76.5 187.5,-95.5 330.5,-95.5 330.5,-76.5 187.5,-76.5"/>
<text text-anchor="middle" x="259" y="-83.5" font-family="Helvetica,sans-Serif" font-size="10.00">statisticSource::getStatistics</text>
</a>
</g>
</g>
<!-- Node1&#45;&gt;Node2 -->
<g id="edge1" class="edge"><title>Node1&#45;&gt;Node2</title>
<path fill="none" stroke="midnightblue" d="M118.562,-57.589C143.727,-62.7165 174.896,-69.0672 201.379,-74.4632"/>
<polygon fill="midnightblue" stroke="midnightblue" points="200.779,-77.9129 211.277,-76.4799 202.177,-71.0538 200.779,-77.9129"/>
</g>
<!-- Node4 -->
<g id="node4" class="node"><title>Node4</title>
<g id="a_node4"><a xlink:href="classstatisticSource.html#accae8cdfc95b05e3ef9a945b1f579c46" target="_top" xlink:title="statisticSource::getStatisticsType">
<polygon fill="white" stroke="black" points="177,-38.5 177,-57.5 341,-57.5 341,-38.5 177,-38.5"/>
<text text-anchor="middle" x="259" y="-45.5" font-family="Helvetica,sans-Serif" font-size="10.00">statisticSource::getStatisticsType</text>
</a>
</g>
</g>
<!-- Node1&#45;&gt;Node4 -->
<g id="edge3" class="edge"><title>Node1&#45;&gt;Node4</title>
<path fill="none" stroke="midnightblue" d="M141.211,-48C149.54,-48 158.136,-48 166.711,-48"/>
<polygon fill="midnightblue" stroke="midnightblue" points="166.749,-51.5001 176.749,-48 166.749,-44.5001 166.749,-51.5001"/>
</g>
<!-- Node5 -->
<g id="node5" class="node"><title>Node5</title>
<g id="a_node5"><a xlink:href="classStatisticsType.html#a5a478ec4ac3d2ade7a2523e72f854b84" target="_top" xlink:title="StatisticsType::getValueTxt">
<polygon fill="white" stroke="black" points="190,-0.5 190,-19.5 328,-19.5 328,-0.5 190,-0.5"/>
<text text-anchor="middle" x="259" y="-7.5" font-family="Helvetica,sans-Serif" font-size="10.00">StatisticsType::getValueTxt</text>
</a>
</g>
</g>
<!-- Node1&#45;&gt;Node5 -->
<g id="edge4" class="edge"><title>Node1&#45;&gt;Node5</title>
<path fill="none" stroke="midnightblue" d="M118.562,-38.411C143.727,-33.2835 174.896,-26.9328 201.379,-21.5368"/>
<polygon fill="midnightblue" stroke="midnightblue" points="202.177,-24.9462 211.277,-19.5201 200.779,-18.0871 202.177,-24.9462"/>
</g>
<!-- Node3 -->
<g id="node3" class="node"><title>Node3</title>
<g id="a_node3"><a xlink:href="classstatisticSource.html#a769e0ef8bb1427d4d586425956ebfca2" target="_top" xlink:title="statisticSource::loadStatistic\lToCache">
<polygon fill="white" stroke="black" points="377,-71 377,-101 519,-101 519,-71 377,-71"/>
<text text-anchor="start" x="385" y="-89" font-family="Helvetica,sans-Serif" font-size="10.00">statisticSource::loadStatistic</text>
<text text-anchor="middle" x="448" y="-78" font-family="Helvetica,sans-Serif" font-size="10.00">ToCache</text>
</a>
</g>
</g>
<!-- Node2&#45;&gt;Node3 -->
<g id="edge2" class="edge"><title>Node2&#45;&gt;Node3</title>
<path fill="none" stroke="midnightblue" d="M330.697,-86C342.494,-86 354.807,-86 366.821,-86"/>
<polygon fill="midnightblue" stroke="midnightblue" points="366.824,-89.5001 376.824,-86 366.824,-82.5001 366.824,-89.5001"/>
</g>
</g>
</svg>
