<?xml version="1.0" encoding="UTF-8" standalone="no"?>
<!DOCTYPE svg PUBLIC "-//W3C//DTD SVG 1.1//EN"
 "http://www.w3.org/Graphics/SVG/1.1/DTD/svg11.dtd">
<!-- Generated by graphviz version 2.38.0 (20140413.2041)
 -->
<!-- Title: MainWindow::toggleFullscreen Pages: 1 -->
<!--zoomable 144 -->
<svg id="main" version="1.1" xmlns="http://www.w3.org/2000/svg" xmlns:xlink="http://www.w3.org/1999/xlink" xml:space="preserve" onload="init(evt)">
<style type="text/css"><![CDATA[
.edge:hover path { stroke: red; }
.edge:hover polygon { stroke: red; fill: red; }
]]></style>
<script type="text/javascript"><![CDATA[
var edges = document.getElementsByTagName('g');
if (edges && edges.length) {
  for (var i=0;i<edges.length;i++) {
    if (edges[i].id.substr(0,4)=='edge') {
      edges[i].setAttribute('class','edge');
    }
  }
}
]]></script>
        <defs>
                <circle id="rim" cx="0" cy="0" r="7"/>
                <circle id="rim2" cx="0" cy="0" r="3.5"/>
                <g id="zoomPlus">
                        <use xlink:href="#rim" fill="#404040">
                                <set attributeName="fill" to="#808080" begin="zoomplus.mouseover" end="zoomplus.mouseout"/>
                        </use>
                        <path d="M-4,0h8M0,-4v8" fill="none" stroke="white" stroke-width="1.5" pointer-events="none"/>
                </g>
                <g id="zoomMin">
                        <use xlink:href="#rim" fill="#404040">
                                <set attributeName="fill" to="#808080" begin="zoomminus.mouseover" end="zoomminus.mouseout"/>
                        </use>
                        <path d="M-4,0h8" fill="none" stroke="white" stroke-width="1.5" pointer-events="none"/>
                </g>
                <g id="dirArrow">
                        <path fill="none" stroke="white" stroke-width="1.5" d="M0,-3.0v7 M-2.5,-0.5L0,-3.0L2.5,-0.5"/>
                </g>
               <g id="resetDef">
                       <use xlink:href="#rim2" fill="#404040">
                               <set attributeName="fill" to="#808080" begin="reset.mouseover" end="reset.mouseout"/>
                       </use>
               </g>
        </defs>

<script type="text/javascript">
var viewWidth = 885;
var viewHeight = 144;
var sectionId = 'dynsection-92';
</script>
<script xlink:href="svgpan.js"/>
<svg id="graph" class="graph">
<g id="viewport">
<title>MainWindow::toggleFullscreen</title>
<polygon fill="white" stroke="none" points="-4,4 -4,-140.074 881,-140.074 881,4 -4,4"/>
<!-- Node1 -->
<g id="node1" class="node"><title>Node1</title>
<polygon fill="#bfbfbf" stroke="black" points="0,-48.0735 0,-67.0735 150,-67.0735 150,-48.0735 0,-48.0735"/>
<text text-anchor="middle" x="75" y="-55.0735" font-family="Helvetica,sans-Serif" font-size="10.00">MainWindow::toggleFullscreen</text>
</g>
<!-- Node2 -->
<g id="node2" class="node"><title>Node2</title>
<g id="a_node2"><a xlink:href="classMainWindow.html#a9df7443ce5f907903438bb6a9abe9a33" target="_top" xlink:title="MainWindow::createMenusAnd\lActions">
<polygon fill="white" stroke="black" points="368,-105.574 368,-135.574 520,-135.574 520,-105.574 368,-105.574"/>
<text text-anchor="start" x="376" y="-123.574" font-family="Helvetica,sans-Serif" font-size="10.00">MainWindow::createMenusAnd</text>
<text text-anchor="middle" x="444" y="-112.574" font-family="Helvetica,sans-Serif" font-size="10.00">Actions</text>
</a>
</g>
</g>
<!-- Node1&#45;&gt;Node2 -->
<g id="edge1" class="edge"><title>Node1&#45;&gt;Node2</title>
<path fill="none" stroke="midnightblue" d="M101.355,-72.0763C123.064,-83.6955 155.55,-99.227 186,-106.574 245.944,-121.036 315.942,-123.975 367.736,-123.611"/>
<polygon fill="midnightblue" stroke="midnightblue" points="102.92,-68.9429 92.467,-67.2142 99.5604,-75.0841 102.92,-68.9429"/>
</g>
<!-- Node4 -->
<g id="node4" class="node"><title>Node4</title>
<g id="a_node4"><a xlink:href="classMainWindow.html#a9c4f542263838b9ecd06eae839a42a34" target="_top" xlink:title="MainWindow::keyPressEvent">
<polygon fill="white" stroke="black" points="371,-29.0735 371,-48.0735 517,-48.0735 517,-29.0735 371,-29.0735"/>
<text text-anchor="middle" x="444" y="-36.0735" font-family="Helvetica,sans-Serif" font-size="10.00">MainWindow::keyPressEvent</text>
</a>
</g>
</g>
<!-- Node1&#45;&gt;Node4 -->
<g id="edge3" class="edge"><title>Node1&#45;&gt;Node4</title>
<path fill="none" stroke="midnightblue" d="M100.507,-43.0547C122.152,-31.1279 155.005,-15.1647 186,-8.57353 249.47,4.92361 267.675,-0.03422 332,-8.57353 361.089,-12.4352 393.371,-21.7538 415.587,-28.9891"/>
<polygon fill="midnightblue" stroke="midnightblue" points="98.6629,-40.0764 91.676,-48.041 102.105,-46.1719 98.6629,-40.0764"/>
</g>
<!-- Node6 -->
<g id="node6" class="node"><title>Node6</title>
<g id="a_node6"><a xlink:href="classMainWindow.html#a076bd90a537ddb685883ae2763b95ba2" target="_top" xlink:title="MainWindow::enableSeparate\lWindowsMode">
<polygon fill="white" stroke="black" points="186,-67.5735 186,-97.5735 332,-97.5735 332,-67.5735 186,-67.5735"/>
<text text-anchor="start" x="194" y="-85.5735" font-family="Helvetica,sans-Serif" font-size="10.00">MainWindow::enableSeparate</text>
<text text-anchor="middle" x="259" y="-74.5735" font-family="Helvetica,sans-Serif" font-size="10.00">WindowsMode</text>
</a>
</g>
</g>
<!-- Node1&#45;&gt;Node6 -->
<g id="edge6" class="edge"><title>Node1&#45;&gt;Node6</title>
<path fill="none" stroke="midnightblue" d="M155.374,-68.4765C165.506,-69.8684 175.834,-71.287 185.844,-72.662"/>
<polygon fill="midnightblue" stroke="midnightblue" points="155.709,-64.9898 145.326,-67.0963 154.756,-71.9247 155.709,-64.9898"/>
</g>
<!-- Node7 -->
<g id="node7" class="node"><title>Node7</title>
<g id="a_node7"><a xlink:href="classMainWindow.html#ae312881aaf4e6d2d0c9abd2bc2420770" target="_top" xlink:title="MainWindow::enableSingle\lWindowMode">
<polygon fill="white" stroke="black" points="192,-18.5735 192,-48.5735 326,-48.5735 326,-18.5735 192,-18.5735"/>
<text text-anchor="start" x="200" y="-36.5735" font-family="Helvetica,sans-Serif" font-size="10.00">MainWindow::enableSingle</text>
<text text-anchor="middle" x="259" y="-25.5735" font-family="Helvetica,sans-Serif" font-size="10.00">WindowMode</text>
</a>
</g>
</g>
<!-- Node1&#45;&gt;Node7 -->
<g id="edge10" class="edge"><title>Node1&#45;&gt;Node7</title>
<path fill="none" stroke="midnightblue" d="M158.399,-46.7077C169.588,-45.2322 180.952,-43.7337 191.807,-42.3023"/>
<polygon fill="midnightblue" stroke="midnightblue" points="157.649,-43.2762 148.193,-48.0536 158.564,-50.2161 157.649,-43.2762"/>
</g>
<!-- Node3 -->
<g id="node3" class="node"><title>Node3</title>
<g id="a_node3"><a xlink:href="classMainWindow.html#a8b244be8b7b7db1b08de2a2acb9409db" target="_top" xlink:title="MainWindow::MainWindow">
<polygon fill="white" stroke="black" points="742,-48.0735 742,-67.0735 877,-67.0735 877,-48.0735 742,-48.0735"/>
<text text-anchor="middle" x="809.5" y="-55.0735" font-family="Helvetica,sans-Serif" font-size="10.00">MainWindow::MainWindow</text>
</a>
</g>
</g>
<!-- Node2&#45;&gt;Node3 -->
<g id="edge2" class="edge"><title>Node2&#45;&gt;Node3</title>
<path fill="none" stroke="midnightblue" d="M530.231,-115.04C581.566,-110.655 648.01,-103.113 706,-90.5735 733.043,-84.7259 763.076,-74.61 783.603,-67.1155"/>
<polygon fill="midnightblue" stroke="midnightblue" points="529.848,-111.56 520.172,-115.876 530.428,-118.536 529.848,-111.56"/>
</g>
<!-- Node5 -->
<g id="node5" class="node"><title>Node5</title>
<g id="a_node5"><a xlink:href="classMainWindow.html#ab98bca74e18eefa8e0582b5a9eb78d10" target="_top" xlink:title="MainWindow::handleKeyPress">
<polygon fill="white" stroke="black" points="556,-29.0735 556,-48.0735 706,-48.0735 706,-29.0735 556,-29.0735"/>
<text text-anchor="middle" x="631" y="-36.0735" font-family="Helvetica,sans-Serif" font-size="10.00">MainWindow::handleKeyPress</text>
</a>
</g>
</g>
<!-- Node4&#45;&gt;Node5 -->
<g id="edge4" class="edge"><title>Node4&#45;&gt;Node5</title>
<path fill="none" stroke="midnightblue" d="M527.257,-38.5735C536.728,-38.5735 546.344,-38.5735 555.701,-38.5735"/>
<polygon fill="midnightblue" stroke="midnightblue" points="527.056,-35.0736 517.056,-38.5735 527.056,-42.0736 527.056,-35.0736"/>
</g>
<!-- Node5&#45;&gt;Node3 -->
<g id="edge5" class="edge"><title>Node5&#45;&gt;Node3</title>
<path fill="none" stroke="midnightblue" d="M716.178,-47.6352C724.813,-48.5647 733.5,-49.4999 741.908,-50.4049"/>
<polygon fill="midnightblue" stroke="midnightblue" points="716.402,-44.1392 706.085,-46.5487 715.653,-51.0989 716.402,-44.1392"/>
</g>
<!-- Node6&#45;&gt;Node2 -->
<g id="edge8" class="edge"><title>Node6&#45;&gt;Node2</title>
<path fill="none" stroke="midnightblue" d="M341.975,-99.5957C351.552,-101.584 361.269,-103.602 370.702,-105.561"/>
<polygon fill="midnightblue" stroke="midnightblue" points="342.567,-96.1439 332.064,-97.5376 341.143,-102.998 342.567,-96.1439"/>
</g>
<!-- Node6&#45;&gt;Node3 -->
<g id="edge7" class="edge"><title>Node6&#45;&gt;Node3</title>
<path fill="none" stroke="midnightblue" d="M342.557,-78.8107C451.509,-73.8448 641.207,-65.1985 741.659,-60.6201"/>
<polygon fill="midnightblue" stroke="midnightblue" points="342.101,-75.3277 332.271,-79.2795 342.42,-82.3205 342.101,-75.3277"/>
</g>
<!-- Node6&#45;&gt;Node4 -->
<g id="edge9" class="edge"><title>Node6&#45;&gt;Node4</title>
<path fill="none" stroke="midnightblue" d="M332.353,-65.1772C356.576,-59.353 382.674,-53.0781 403.437,-48.086"/>
<polygon fill="midnightblue" stroke="midnightblue" points="331.371,-61.8135 322.466,-67.5543 333.008,-68.6195 331.371,-61.8135"/>
</g>
<!-- Node7&#45;&gt;Node2 -->
<g id="edge12" class="edge"><title>Node7&#45;&gt;Node2</title>
<path fill="none" stroke="midnightblue" d="M318.672,-52.063C323.223,-53.8209 327.712,-55.6638 332,-57.5735 363.375,-71.5466 397.448,-91.6945 419.451,-105.417"/>
<polygon fill="midnightblue" stroke="midnightblue" points="319.882,-48.7787 309.289,-48.5804 317.446,-55.3413 319.882,-48.7787"/>
</g>
<!-- Node7&#45;&gt;Node3 -->
<g id="edge11" class="edge"><title>Node7&#45;&gt;Node3</title>
<path fill="none" stroke="midnightblue" d="M336.421,-21.6063C425.809,-9.80686 577.879,3.41135 706,-19.5735 736.076,-24.9691 768.863,-38.6079 789.055,-47.9875"/>
<polygon fill="midnightblue" stroke="midnightblue" points="335.813,-18.1566 326.371,-22.9621 336.749,-25.0938 335.813,-18.1566"/>
</g>
<!-- Node7&#45;&gt;Node4 -->
<g id="edge13" class="edge"><title>Node7&#45;&gt;Node4</title>
<path fill="none" stroke="midnightblue" d="M336.073,-35.652C347.578,-35.9664 359.418,-36.2899 370.838,-36.6019"/>
<polygon fill="midnightblue" stroke="midnightblue" points="336.159,-32.1532 326.067,-35.3786 335.968,-39.1506 336.159,-32.1532"/>
</g>
</g>
</svg>
        <g id="navigator" transform="translate(0 0)" fill="#404254">
                <rect fill="#f2f5e9" fill-opacity="0.5" stroke="#606060" stroke-width=".5" x="0" y="0" width="60" height="60"/>
                <use id="zoomplus" xlink:href="#zoomPlus" x="17" y="9" onmousedown="handleZoom(evt,'in')"/>
                <use id="zoomminus" xlink:href="#zoomMin" x="42" y="9" onmousedown="handleZoom(evt,'out')"/>
                <use id="reset" xlink:href="#resetDef" x="30" y="36" onmousedown="handleReset()"/>
                <g id="arrowUp" xlink:href="#dirArrow" transform="translate(30 24)" onmousedown="handlePan(0,-1)">
                  <use xlink:href="#rim" fill="#404040">
                        <set attributeName="fill" to="#808080" begin="arrowUp.mouseover" end="arrowUp.mouseout"/>
                  </use>
                  <path fill="none" stroke="white" stroke-width="1.5" d="M0,-3.0v7 M-2.5,-0.5L0,-3.0L2.5,-0.5"/>
                </g>
                <g id="arrowRight" xlink:href="#dirArrow" transform="rotate(90) translate(36 -43)" onmousedown="handlePan(1,0)">
                  <use xlink:href="#rim" fill="#404040">
                        <set attributeName="fill" to="#808080" begin="arrowRight.mouseover" end="arrowRight.mouseout"/>
                  </use>
                  <path fill="none" stroke="white" stroke-width="1.5" d="M0,-3.0v7 M-2.5,-0.5L0,-3.0L2.5,-0.5"/>
                </g>
                <g id="arrowDown" xlink:href="#dirArrow" transform="rotate(180) translate(-30 -48)" onmousedown="handlePan(0,1)">
                  <use xlink:href="#rim" fill="#404040">
                        <set attributeName="fill" to="#808080" begin="arrowDown.mouseover" end="arrowDown.mouseout"/>
                  </use>
                  <path fill="none" stroke="white" stroke-width="1.5" d="M0,-3.0v7 M-2.5,-0.5L0,-3.0L2.5,-0.5"/>
                </g>
                <g id="arrowLeft" xlink:href="#dirArrow" transform="rotate(270) translate(-36 17)" onmousedown="handlePan(-1,0)">
                  <use xlink:href="#rim" fill="#404040">
                        <set attributeName="fill" to="#808080" begin="arrowLeft.mouseover" end="arrowLeft.mouseout"/>
                  </use>
                  <path fill="none" stroke="white" stroke-width="1.5" d="M0,-3.0v7 M-2.5,-0.5L0,-3.0L2.5,-0.5"/>
                </g>
        </g>
        <svg viewBox="0 0 15 15" width="100%" height="30px" preserveAspectRatio="xMaxYMin meet">
         <g id="arrow_out" transform="scale(0.3 0.3)">
          <a xlink:href="classMainWindow_a20e17289a70704d7f2afefb65c9d889c_icgraph_org.svg" target="_base">
           <rect id="button" ry="5" rx="5" y="6" x="6" height="38" width="38"
                fill="#f2f5e9" fill-opacity="0.5" stroke="#606060" stroke-width="1.0"/>
           <path id="arrow"
             d="M 11.500037,31.436501 C 11.940474,20.09759 22.043105,11.32322 32.158766,21.979434 L 37.068811,17.246167 C 37.068811,17.246167 37.088388,32 37.088388,32 L 22.160133,31.978069 C 22.160133,31.978069 26.997745,27.140456 26.997745,27.140456 C 18.528582,18.264221 13.291696,25.230495 11.500037,31.436501 z"
             style="fill:#404040;"/>
          </a>
         </g>
        </svg>
</svg>
