<?xml version="1.0" encoding="UTF-8" standalone="no"?>
<!DOCTYPE svg PUBLIC "-//W3C//DTD SVG 1.1//EN"
 "http://www.w3.org/Graphics/SVG/1.1/DTD/svg11.dtd">
<!-- Generated by graphviz version 2.38.0 (20140413.2041)
 -->
<!-- Title: DisplayWidget::displayRect Pages: 1 -->
<!--zoomable 647 -->
<svg id="main" version="1.1" xmlns="http://www.w3.org/2000/svg" xmlns:xlink="http://www.w3.org/1999/xlink" xml:space="preserve" onload="init(evt)">
<style type="text/css"><![CDATA[
.edge:hover path { stroke: red; }
.edge:hover polygon { stroke: red; fill: red; }
]]></style>
<script type="text/javascript"><![CDATA[
var edges = document.getElementsByTagName('g');
if (edges && edges.length) {
  for (var i=0;i<edges.length;i++) {
    if (edges[i].id.substr(0,4)=='edge') {
      edges[i].setAttribute('class','edge');
    }
  }
}
]]></script>
        <defs>
                <circle id="rim" cx="0" cy="0" r="7"/>
                <circle id="rim2" cx="0" cy="0" r="3.5"/>
                <g id="zoomPlus">
                        <use xlink:href="#rim" fill="#404040">
                                <set attributeName="fill" to="#808080" begin="zoomplus.mouseover" end="zoomplus.mouseout"/>
                        </use>
                        <path d="M-4,0h8M0,-4v8" fill="none" stroke="white" stroke-width="1.5" pointer-events="none"/>
                </g>
                <g id="zoomMin">
                        <use xlink:href="#rim" fill="#404040">
                                <set attributeName="fill" to="#808080" begin="zoomminus.mouseover" end="zoomminus.mouseout"/>
                        </use>
                        <path d="M-4,0h8" fill="none" stroke="white" stroke-width="1.5" pointer-events="none"/>
                </g>
                <g id="dirArrow">
                        <path fill="none" stroke="white" stroke-width="1.5" d="M0,-3.0v7 M-2.5,-0.5L0,-3.0L2.5,-0.5"/>
                </g>
               <g id="resetDef">
                       <use xlink:href="#rim2" fill="#404040">
                               <set attributeName="fill" to="#808080" begin="reset.mouseover" end="reset.mouseout"/>
                       </use>
               </g>
        </defs>

<script type="text/javascript">
var viewWidth = 924;
var viewHeight = 647;
var sectionId = 'dynsection-6';
</script>
<script xlink:href="svgpan.js"/>
<svg id="graph" class="graph">
<g id="viewport">
<title>DisplayWidget::displayRect</title>
<polygon fill="white" stroke="none" points="-4,4 -4,-642.949 920,-642.949 920,4 -4,4"/>
<!-- Node1 -->
<g id="node1" class="node"><title>Node1</title>
<polygon fill="#bfbfbf" stroke="black" points="0,-397 0,-416 138,-416 138,-397 0,-397"/>
<text text-anchor="middle" x="69" y="-404" font-family="Helvetica,sans-Serif" font-size="10.00">DisplayWidget::displayRect</text>
</g>
<!-- Node2 -->
<g id="node2" class="node"><title>Node2</title>
<g id="a_node2"><a xlink:href="classDisplaySplitWidget.html#a07d514c8000eade67022e9f73a4214c0" target="_top" xlink:title="DisplaySplitWidget\l::zoomToPoint">
<polygon fill="white" stroke="black" points="364,-415.5 364,-445.5 464,-445.5 464,-415.5 364,-415.5"/>
<text text-anchor="start" x="372" y="-433.5" font-family="Helvetica,sans-Serif" font-size="10.00">DisplaySplitWidget</text>
<text text-anchor="middle" x="414" y="-422.5" font-family="Helvetica,sans-Serif" font-size="10.00">::zoomToPoint</text>
</a>
</g>
</g>
<!-- Node1&#45;&gt;Node2 -->
<g id="edge1" class="edge"><title>Node1&#45;&gt;Node2</title>
<path fill="none" stroke="midnightblue" d="M148.163,-411.969C214.445,-416.607 307.474,-423.116 363.804,-427.058"/>
<polygon fill="midnightblue" stroke="midnightblue" points="148.396,-408.477 138.176,-411.27 147.907,-415.46 148.396,-408.477"/>
</g>
<!-- Node3 -->
<g id="node3" class="node"><title>Node3</title>
<g id="a_node3"><a xlink:href="classDisplaySplitWidget.html#ad714b0427a31a3ac29bf0f0a2c1f3611" target="_top" xlink:title="DisplaySplitWidget\l::zoomIn">
<polygon fill="white" stroke="black" points="506.5,-464.5 506.5,-494.5 606.5,-494.5 606.5,-464.5 506.5,-464.5"/>
<text text-anchor="start" x="514.5" y="-482.5" font-family="Helvetica,sans-Serif" font-size="10.00">DisplaySplitWidget</text>
<text text-anchor="middle" x="556.5" y="-471.5" font-family="Helvetica,sans-Serif" font-size="10.00">::zoomIn</text>
</a>
</g>
</g>
<!-- Node1&#45;&gt;Node3 -->
<g id="edge12" class="edge"><title>Node1&#45;&gt;Node3</title>
<path fill="none" stroke="midnightblue" d="M92.146,-421.84C112.43,-434.979 143.803,-453.073 174,-461.5 289.598,-493.76 432.442,-489.4 506.218,-484.077"/>
<polygon fill="midnightblue" stroke="midnightblue" points="93.9189,-418.816 83.651,-416.204 90.0491,-424.649 93.9189,-418.816"/>
</g>
<!-- Node7 -->
<g id="node7" class="node"><title>Node7</title>
<g id="a_node7"><a xlink:href="classDisplaySplitWidget.html#aeea14bc10ca6579ab6f68f8150f9ac5f" target="_top" xlink:title="DisplaySplitWidget\l::zoomOut">
<polygon fill="white" stroke="black" points="506.5,-415.5 506.5,-445.5 606.5,-445.5 606.5,-415.5 506.5,-415.5"/>
<text text-anchor="start" x="514.5" y="-433.5" font-family="Helvetica,sans-Serif" font-size="10.00">DisplaySplitWidget</text>
<text text-anchor="middle" x="556.5" y="-422.5" font-family="Helvetica,sans-Serif" font-size="10.00">::zoomOut</text>
</a>
</g>
</g>
<!-- Node1&#45;&gt;Node7 -->
<g id="edge13" class="edge"><title>Node1&#45;&gt;Node7</title>
<path fill="none" stroke="midnightblue" d="M111.824,-418.826C130.682,-424.002 153.317,-429.693 174,-433.5 301.091,-456.895 335.835,-471.029 464,-454.5 478.333,-452.651 493.625,-449.238 507.521,-445.554"/>
<polygon fill="midnightblue" stroke="midnightblue" points="112.629,-415.417 102.056,-416.099 110.747,-422.159 112.629,-415.417"/>
</g>
<!-- Node8 -->
<g id="node8" class="node"><title>Node8</title>
<g id="a_node8"><a xlink:href="classDisplaySplitWidget.html#a43d312016afd6d843f1c624905f4afee" target="_top" xlink:title="DisplaySplitWidget\l::zoomToFit">
<polygon fill="white" stroke="black" points="506.5,-344.5 506.5,-374.5 606.5,-374.5 606.5,-344.5 506.5,-344.5"/>
<text text-anchor="start" x="514.5" y="-362.5" font-family="Helvetica,sans-Serif" font-size="10.00">DisplaySplitWidget</text>
<text text-anchor="middle" x="556.5" y="-351.5" font-family="Helvetica,sans-Serif" font-size="10.00">::zoomToFit</text>
</a>
</g>
</g>
<!-- Node1&#45;&gt;Node8 -->
<g id="edge14" class="edge"><title>Node1&#45;&gt;Node8</title>
<path fill="none" stroke="midnightblue" d="M99.1196,-392.64C119.566,-383.647 147.826,-372.674 174,-367.5 291.468,-344.278 433.241,-349.86 506.439,-355.148"/>
<polygon fill="midnightblue" stroke="midnightblue" points="97.4322,-389.561 89.7535,-396.861 100.308,-395.943 97.4322,-389.561"/>
</g>
<!-- Node9 -->
<g id="node9" class="node"><title>Node9</title>
<g id="a_node9"><a xlink:href="classDisplaySplitWidget.html#a0a3afd6247d51bc2ca6fabfc30ff9548" target="_top" xlink:title="DisplaySplitWidget\l::mouseReleaseEvent">
<polygon fill="white" stroke="black" points="500,-295.5 500,-325.5 613,-325.5 613,-295.5 500,-295.5"/>
<text text-anchor="start" x="508" y="-313.5" font-family="Helvetica,sans-Serif" font-size="10.00">DisplaySplitWidget</text>
<text text-anchor="middle" x="556.5" y="-302.5" font-family="Helvetica,sans-Serif" font-size="10.00">::mouseReleaseEvent</text>
</a>
</g>
</g>
<!-- Node1&#45;&gt;Node9 -->
<g id="edge20" class="edge"><title>Node1&#45;&gt;Node9</title>
<path fill="none" stroke="midnightblue" d="M91.4249,-391.079C111.656,-377.387 143.381,-358.106 174,-348.5 285.775,-313.433 424.177,-308.622 499.764,-309.04"/>
<polygon fill="midnightblue" stroke="midnightblue" points="89.2142,-388.352 82.9834,-396.921 93.1979,-394.108 89.2142,-388.352"/>
</g>
<!-- Node10 -->
<g id="node10" class="node"><title>Node10</title>
<g id="a_node10"><a xlink:href="classDisplaySplitWidget.html#a66c16edce3aae0df82f888348cd7590d" target="_top" xlink:title="DisplaySplitWidget\l::mouseMoveEvent">
<polygon fill="white" stroke="black" points="506,-579.5 506,-609.5 607,-609.5 607,-579.5 506,-579.5"/>
<text text-anchor="start" x="514" y="-597.5" font-family="Helvetica,sans-Serif" font-size="10.00">DisplaySplitWidget</text>
<text text-anchor="middle" x="556.5" y="-586.5" font-family="Helvetica,sans-Serif" font-size="10.00">::mouseMoveEvent</text>
</a>
</g>
</g>
<!-- Node1&#45;&gt;Node10 -->
<g id="edge15" class="edge"><title>Node1&#45;&gt;Node10</title>
<path fill="none" stroke="midnightblue" d="M74.2559,-425.942C84.0834,-465.726 112.39,-556.148 174,-597.5 277.666,-667.08 435.509,-632.566 511.539,-609.528"/>
<polygon fill="midnightblue" stroke="midnightblue" points="77.65,-425.085 71.9617,-416.147 70.8344,-426.682 77.65,-425.085"/>
</g>
<!-- Node11 -->
<g id="node11" class="node"><title>Node11</title>
<g id="a_node11"><a xlink:href="classDisplaySplitWidget.html#a9421eba026630943587a9ae226c7f8d6" target="_top" xlink:title="DisplaySplitWidget\l::panDisplay">
<polygon fill="white" stroke="black" points="364,-579.5 364,-609.5 464,-609.5 464,-579.5 364,-579.5"/>
<text text-anchor="start" x="372" y="-597.5" font-family="Helvetica,sans-Serif" font-size="10.00">DisplaySplitWidget</text>
<text text-anchor="middle" x="414" y="-586.5" font-family="Helvetica,sans-Serif" font-size="10.00">::panDisplay</text>
</a>
</g>
</g>
<!-- Node1&#45;&gt;Node11 -->
<g id="edge17" class="edge"><title>Node1&#45;&gt;Node11</title>
<path fill="none" stroke="midnightblue" d="M76.5314,-425.802C89.2676,-460.17 120.918,-531.459 174,-564.5 231.692,-600.41 312.442,-602.819 363.731,-599.789"/>
<polygon fill="midnightblue" stroke="midnightblue" points="79.7066,-424.284 73.0577,-416.036 73.1114,-426.63 79.7066,-424.284"/>
</g>
<!-- Node12 -->
<g id="node12" class="node"><title>Node12</title>
<g id="a_node12"><a xlink:href="classDisplaySplitWidget.html#a337e94b12c4e1837457997cf9d074046" target="_top" xlink:title="DisplaySplitWidget\l::splitterMovedTo">
<polygon fill="white" stroke="black" points="364,-175.5 364,-205.5 464,-205.5 464,-175.5 364,-175.5"/>
<text text-anchor="start" x="372" y="-193.5" font-family="Helvetica,sans-Serif" font-size="10.00">DisplaySplitWidget</text>
<text text-anchor="middle" x="414" y="-182.5" font-family="Helvetica,sans-Serif" font-size="10.00">::splitterMovedTo</text>
</a>
</g>
</g>
<!-- Node1&#45;&gt;Node12 -->
<g id="edge21" class="edge"><title>Node1&#45;&gt;Node12</title>
<path fill="none" stroke="midnightblue" d="M74.679,-386.832C85.0881,-347.802 114.112,-260.852 174,-220.5 230.53,-182.411 311.966,-180.664 363.673,-184.421"/>
<polygon fill="midnightblue" stroke="midnightblue" points="71.2433,-386.142 72.1775,-396.696 78.0284,-387.863 71.2433,-386.142"/>
</g>
<!-- Node14 -->
<g id="node14" class="node"><title>Node14</title>
<g id="a_node14"><a xlink:href="classDisplaySplitWidget.html#ac88b455e49d13fb34439e45838e468d9" target="_top" xlink:title="DisplaySplitWidget\l::updateView">
<polygon fill="white" stroke="black" points="364,-126.5 364,-156.5 464,-156.5 464,-126.5 364,-126.5"/>
<text text-anchor="start" x="372" y="-144.5" font-family="Helvetica,sans-Serif" font-size="10.00">DisplaySplitWidget</text>
<text text-anchor="middle" x="414" y="-133.5" font-family="Helvetica,sans-Serif" font-size="10.00">::updateView</text>
</a>
</g>
</g>
<!-- Node1&#45;&gt;Node14 -->
<g id="edge23" class="edge"><title>Node1&#45;&gt;Node14</title>
<path fill="none" stroke="midnightblue" d="M72.7328,-386.844C80.077,-342.045 104.617,-232.183 174,-179.5 228.877,-137.832 311.528,-133.956 363.847,-136.551"/>
<polygon fill="midnightblue" stroke="midnightblue" points="69.2687,-386.344 71.2193,-396.757 76.1885,-387.4 69.2687,-386.344"/>
</g>
<!-- Node21 -->
<g id="node21" class="node"><title>Node21</title>
<g id="a_node21"><a xlink:href="classDisplayWidget.html#a822a3c50c6c602fafff6ef2132ccdb42" target="_top" xlink:title="DisplayWidget::setDisplayRect">
<polygon fill="white" stroke="black" points="174,-377 174,-396 328,-396 328,-377 174,-377"/>
<text text-anchor="middle" x="251" y="-384" font-family="Helvetica,sans-Serif" font-size="10.00">DisplayWidget::setDisplayRect</text>
</a>
</g>
</g>
<!-- Node1&#45;&gt;Node21 -->
<g id="edge31" class="edge"><title>Node1&#45;&gt;Node21</title>
<path fill="none" stroke="midnightblue" d="M148.262,-397.804C156.707,-396.866 165.293,-395.912 173.715,-394.976"/>
<polygon fill="midnightblue" stroke="midnightblue" points="147.603,-394.356 138.05,-398.939 148.376,-401.313 147.603,-394.356"/>
</g>
<!-- Node2&#45;&gt;Node3 -->
<g id="edge2" class="edge"><title>Node2&#45;&gt;Node3</title>
<path fill="none" stroke="midnightblue" d="M468.148,-449.036C482.658,-454.096 498.204,-459.518 512.1,-464.364"/>
<polygon fill="midnightblue" stroke="midnightblue" points="468.896,-445.59 458.301,-445.601 466.591,-452.199 468.896,-445.59"/>
</g>
<!-- Node2&#45;&gt;Node7 -->
<g id="edge6" class="edge"><title>Node2&#45;&gt;Node7</title>
<path fill="none" stroke="midnightblue" d="M474.201,-430.5C484.841,-430.5 495.827,-430.5 506.15,-430.5"/>
<polygon fill="midnightblue" stroke="midnightblue" points="474.14,-427 464.14,-430.5 474.14,-434 474.14,-427"/>
</g>
<!-- Node2&#45;&gt;Node8 -->
<g id="edge9" class="edge"><title>Node2&#45;&gt;Node8</title>
<path fill="none" stroke="midnightblue" d="M453.84,-410.873C476.56,-399.391 504.8,-385.12 525.747,-374.536"/>
<polygon fill="midnightblue" stroke="midnightblue" points="452.143,-407.809 444.796,-415.443 455.3,-414.056 452.143,-407.809"/>
</g>
<!-- Node2&#45;&gt;Node9 -->
<g id="edge10" class="edge"><title>Node2&#45;&gt;Node9</title>
<path fill="none" stroke="midnightblue" d="M431.035,-407.15C446.61,-385.896 471.959,-354.822 500,-334.5 504.59,-331.173 509.713,-328.182 514.94,-325.533"/>
<polygon fill="midnightblue" stroke="midnightblue" points="428.158,-405.156 425.173,-415.322 433.846,-409.236 428.158,-405.156"/>
</g>
<!-- Node4 -->
<g id="node4" class="node"><title>Node4</title>
<g id="a_node4"><a xlink:href="classDisplaySplitWidget.html#a95fb887b76609440c606ddccadee2318" target="_top" xlink:title="DisplaySplitWidget\l::gestureEvent">
<polygon fill="white" stroke="black" points="664.5,-464.5 664.5,-494.5 764.5,-494.5 764.5,-464.5 664.5,-464.5"/>
<text text-anchor="start" x="672.5" y="-482.5" font-family="Helvetica,sans-Serif" font-size="10.00">DisplaySplitWidget</text>
<text text-anchor="middle" x="714.5" y="-471.5" font-family="Helvetica,sans-Serif" font-size="10.00">::gestureEvent</text>
</a>
</g>
</g>
<!-- Node3&#45;&gt;Node4 -->
<g id="edge3" class="edge"><title>Node3&#45;&gt;Node4</title>
<path fill="none" stroke="midnightblue" d="M616.982,-479.5C632.662,-479.5 649.401,-479.5 664.462,-479.5"/>
<polygon fill="midnightblue" stroke="midnightblue" points="616.859,-476 606.859,-479.5 616.859,-483 616.859,-476"/>
</g>
<!-- Node6 -->
<g id="node6" class="node"><title>Node6</title>
<g id="a_node6"><a xlink:href="classDisplaySplitWidget.html#a3560f335caf77049205e63785c8073ba" target="_top" xlink:title="DisplaySplitWidget\l::wheelEvent">
<polygon fill="white" stroke="black" points="664.5,-415.5 664.5,-445.5 764.5,-445.5 764.5,-415.5 664.5,-415.5"/>
<text text-anchor="start" x="672.5" y="-433.5" font-family="Helvetica,sans-Serif" font-size="10.00">DisplaySplitWidget</text>
<text text-anchor="middle" x="714.5" y="-422.5" font-family="Helvetica,sans-Serif" font-size="10.00">::wheelEvent</text>
</a>
</g>
</g>
<!-- Node3&#45;&gt;Node6 -->
<g id="edge5" class="edge"><title>Node3&#45;&gt;Node6</title>
<path fill="none" stroke="midnightblue" d="M615.166,-461.387C631.75,-456.178 649.654,-450.554 665.581,-445.552"/>
<polygon fill="midnightblue" stroke="midnightblue" points="614.07,-458.063 605.578,-464.399 616.167,-464.741 614.07,-458.063"/>
</g>
<!-- Node5 -->
<g id="node5" class="node"><title>Node5</title>
<g id="a_node5"><a xlink:href="classDisplaySplitWidget.html#a152c9ea9cbd3aa079800b6c1d0fbb284" target="_top" xlink:title="DisplaySplitWidget\l::event">
<polygon fill="white" stroke="black" points="816,-492.5 816,-522.5 916,-522.5 916,-492.5 816,-492.5"/>
<text text-anchor="start" x="824" y="-510.5" font-family="Helvetica,sans-Serif" font-size="10.00">DisplaySplitWidget</text>
<text text-anchor="middle" x="866" y="-499.5" font-family="Helvetica,sans-Serif" font-size="10.00">::event</text>
</a>
</g>
</g>
<!-- Node4&#45;&gt;Node5 -->
<g id="edge4" class="edge"><title>Node4&#45;&gt;Node5</title>
<path fill="none" stroke="midnightblue" d="M775.067,-490.656C788.625,-493.196 802.879,-495.865 815.941,-498.312"/>
<polygon fill="midnightblue" stroke="midnightblue" points="775.34,-487.147 764.866,-488.746 774.051,-494.027 775.34,-487.147"/>
</g>
<!-- Node7&#45;&gt;Node4 -->
<g id="edge7" class="edge"><title>Node7&#45;&gt;Node4</title>
<path fill="none" stroke="midnightblue" d="M615.166,-448.613C631.75,-453.822 649.654,-459.446 665.581,-464.448"/>
<polygon fill="midnightblue" stroke="midnightblue" points="616.167,-445.259 605.578,-445.601 614.07,-451.937 616.167,-445.259"/>
</g>
<!-- Node7&#45;&gt;Node6 -->
<g id="edge8" class="edge"><title>Node7&#45;&gt;Node6</title>
<path fill="none" stroke="midnightblue" d="M616.982,-430.5C632.662,-430.5 649.401,-430.5 664.462,-430.5"/>
<polygon fill="midnightblue" stroke="midnightblue" points="616.859,-427 606.859,-430.5 616.859,-434 616.859,-427"/>
</g>
<!-- Node9&#45;&gt;Node5 -->
<g id="edge11" class="edge"><title>Node9&#45;&gt;Node5</title>
<path fill="none" stroke="midnightblue" d="M621.277,-328.78C668.18,-344.257 731.87,-369.681 780,-405.5 813.286,-430.272 841.786,-470.636 855.775,-492.418"/>
<polygon fill="midnightblue" stroke="midnightblue" points="622.127,-325.376 611.535,-325.628 619.972,-332.037 622.127,-325.376"/>
</g>
<!-- Node10&#45;&gt;Node5 -->
<g id="edge16" class="edge"><title>Node10&#45;&gt;Node5</title>
<path fill="none" stroke="midnightblue" d="M617.119,-587.223C662.601,-580.599 726.352,-568.983 780,-550.5 800.952,-543.282 823.259,-531.838 839.761,-522.571"/>
<polygon fill="midnightblue" stroke="midnightblue" points="616.535,-583.771 607.126,-588.641 617.518,-590.702 616.535,-583.771"/>
</g>
<!-- Node11&#45;&gt;Node5 -->
<g id="edge18" class="edge"><title>Node11&#45;&gt;Node5</title>
<path fill="none" stroke="midnightblue" d="M472.268,-576.659C481.493,-574.074 490.975,-571.586 500,-569.5 611.941,-543.625 745.511,-523.657 815.93,-513.961"/>
<polygon fill="midnightblue" stroke="midnightblue" points="471.041,-573.37 462.392,-579.489 472.969,-580.099 471.041,-573.37"/>
</g>
<!-- Node11&#45;&gt;Node10 -->
<g id="edge19" class="edge"><title>Node11&#45;&gt;Node10</title>
<path fill="none" stroke="midnightblue" d="M474.408,-594.5C484.82,-594.5 495.557,-594.5 505.674,-594.5"/>
<polygon fill="midnightblue" stroke="midnightblue" points="474.14,-591 464.14,-594.5 474.14,-598 474.14,-591"/>
</g>
<!-- Node13 -->
<g id="node13" class="node"><title>Node13</title>
<g id="a_node13"><a xlink:href="classDisplaySplitWidget.html#ae32ceae7f4472266eabd00877651441b" target="_top" xlink:title="DisplaySplitWidget\l::DisplaySplitWidget">
<polygon fill="white" stroke="black" points="503.5,-235.5 503.5,-265.5 609.5,-265.5 609.5,-235.5 503.5,-235.5"/>
<text text-anchor="start" x="511.5" y="-253.5" font-family="Helvetica,sans-Serif" font-size="10.00">DisplaySplitWidget</text>
<text text-anchor="middle" x="556.5" y="-242.5" font-family="Helvetica,sans-Serif" font-size="10.00">::DisplaySplitWidget</text>
</a>
</g>
</g>
<!-- Node12&#45;&gt;Node13 -->
<g id="edge22" class="edge"><title>Node12&#45;&gt;Node13</title>
<path fill="none" stroke="midnightblue" d="M459.746,-209.609C479.236,-217.932 501.755,-227.549 520.057,-235.364"/>
<polygon fill="midnightblue" stroke="midnightblue" points="461.025,-206.349 450.454,-205.641 458.276,-212.787 461.025,-206.349"/>
</g>
<!-- Node15 -->
<g id="node15" class="node"><title>Node15</title>
<g id="a_node15"><a xlink:href="classDisplaySplitWidget.html#af09b165924f8be5a31873f3b11c8b3f9" target="_top" xlink:title="DisplaySplitWidget\l::resetViews">
<polygon fill="white" stroke="black" points="506.5,-88.5 506.5,-118.5 606.5,-118.5 606.5,-88.5 506.5,-88.5"/>
<text text-anchor="start" x="514.5" y="-106.5" font-family="Helvetica,sans-Serif" font-size="10.00">DisplaySplitWidget</text>
<text text-anchor="middle" x="556.5" y="-95.5" font-family="Helvetica,sans-Serif" font-size="10.00">::resetViews</text>
</a>
</g>
</g>
<!-- Node14&#45;&gt;Node15 -->
<g id="edge24" class="edge"><title>Node14&#45;&gt;Node15</title>
<path fill="none" stroke="midnightblue" d="M473.872,-125.577C484.614,-122.672 495.72,-119.668 506.15,-116.847"/>
<polygon fill="midnightblue" stroke="midnightblue" points="472.879,-122.22 464.14,-128.209 474.707,-128.977 472.879,-122.22"/>
</g>
<!-- Node17 -->
<g id="node17" class="node"><title>Node17</title>
<g id="a_node17"><a xlink:href="classDisplaySplitWidget.html#a0c0ae7b4fb7ddc344fec1a59034b771b" target="_top" xlink:title="DisplaySplitWidget\l::zoomToStandard">
<polygon fill="white" stroke="black" points="664.5,-44.5 664.5,-74.5 764.5,-74.5 764.5,-44.5 664.5,-44.5"/>
<text text-anchor="start" x="672.5" y="-62.5" font-family="Helvetica,sans-Serif" font-size="10.00">DisplaySplitWidget</text>
<text text-anchor="middle" x="714.5" y="-51.5" font-family="Helvetica,sans-Serif" font-size="10.00">::zoomToStandard</text>
</a>
</g>
</g>
<!-- Node14&#45;&gt;Node17 -->
<g id="edge27" class="edge"><title>Node14&#45;&gt;Node17</title>
<path fill="none" stroke="midnightblue" d="M437.741,-119.145C453.755,-104.882 476.46,-87.449 500,-78.5 553.567,-58.1356 619.947,-55.3964 664.34,-56.4466"/>
<polygon fill="midnightblue" stroke="midnightblue" points="435.002,-116.909 430.008,-126.253 439.739,-122.063 435.002,-116.909"/>
</g>
<!-- Node18 -->
<g id="node18" class="node"><title>Node18</title>
<g id="a_node18"><a xlink:href="classDisplaySplitWidget.html#a85aefaa2dbd64ebf686448a2c006f96d" target="_top" xlink:title="DisplaySplitWidget\l::setSplitEnabled">
<polygon fill="white" stroke="black" points="506.5,-0.5 506.5,-30.5 606.5,-30.5 606.5,-0.5 506.5,-0.5"/>
<text text-anchor="start" x="514.5" y="-18.5" font-family="Helvetica,sans-Serif" font-size="10.00">DisplaySplitWidget</text>
<text text-anchor="middle" x="556.5" y="-7.5" font-family="Helvetica,sans-Serif" font-size="10.00">::setSplitEnabled</text>
</a>
</g>
</g>
<!-- Node14&#45;&gt;Node18 -->
<g id="edge28" class="edge"><title>Node14&#45;&gt;Node18</title>
<path fill="none" stroke="midnightblue" d="M431.727,-118.352C447.616,-97.4938 473.027,-66.9057 500,-45.5 506.949,-39.9849 515.057,-34.9565 522.895,-30.6588"/>
<polygon fill="midnightblue" stroke="midnightblue" points="428.916,-116.267 425.723,-126.37 434.519,-120.463 428.916,-116.267"/>
</g>
<!-- Node19 -->
<g id="node19" class="node"><title>Node19</title>
<g id="a_node19"><a xlink:href="classDisplaySplitWidget.html#a2c0dcc84e9609d30e1eadd8340493e0b" target="_top" xlink:title="DisplaySplitWidget\l::resizeEvent">
<polygon fill="white" stroke="black" points="506.5,-186.5 506.5,-216.5 606.5,-216.5 606.5,-186.5 506.5,-186.5"/>
<text text-anchor="start" x="514.5" y="-204.5" font-family="Helvetica,sans-Serif" font-size="10.00">DisplaySplitWidget</text>
<text text-anchor="middle" x="556.5" y="-193.5" font-family="Helvetica,sans-Serif" font-size="10.00">::resizeEvent</text>
</a>
</g>
</g>
<!-- Node14&#45;&gt;Node19 -->
<g id="edge29" class="edge"><title>Node14&#45;&gt;Node19</title>
<path fill="none" stroke="midnightblue" d="M459.746,-160.609C479.236,-168.932 501.755,-178.549 520.057,-186.364"/>
<polygon fill="midnightblue" stroke="midnightblue" points="461.025,-157.349 450.454,-156.641 458.276,-163.787 461.025,-157.349"/>
</g>
<!-- Node20 -->
<g id="node20" class="node"><title>Node20</title>
<g id="a_node20"><a xlink:href="classDisplaySplitWidget.html#abe7686903d7727bd0f882dc68459f22d" target="_top" xlink:title="DisplaySplitWidget\l::setViewMode">
<polygon fill="white" stroke="black" points="506.5,-137.5 506.5,-167.5 606.5,-167.5 606.5,-137.5 506.5,-137.5"/>
<text text-anchor="start" x="514.5" y="-155.5" font-family="Helvetica,sans-Serif" font-size="10.00">DisplaySplitWidget</text>
<text text-anchor="middle" x="556.5" y="-144.5" font-family="Helvetica,sans-Serif" font-size="10.00">::setViewMode</text>
</a>
</g>
</g>
<!-- Node14&#45;&gt;Node20 -->
<g id="edge30" class="edge"><title>Node14&#45;&gt;Node20</title>
<path fill="none" stroke="midnightblue" d="M474.201,-146.135C484.841,-146.968 495.827,-147.828 506.15,-148.636"/>
<polygon fill="midnightblue" stroke="midnightblue" points="474.383,-142.639 464.14,-145.347 473.836,-149.617 474.383,-142.639"/>
</g>
<!-- Node16 -->
<g id="node16" class="node"><title>Node16</title>
<g id="a_node16"><a xlink:href="classDisplaySplitWidget.html#a6ac792979681575417245e357cdadb69" target="_top" xlink:title="DisplaySplitWidget\l::setActiveDisplayObjects">
<polygon fill="white" stroke="black" points="649,-93.5 649,-123.5 780,-123.5 780,-93.5 649,-93.5"/>
<text text-anchor="start" x="657" y="-111.5" font-family="Helvetica,sans-Serif" font-size="10.00">DisplaySplitWidget</text>
<text text-anchor="middle" x="714.5" y="-100.5" font-family="Helvetica,sans-Serif" font-size="10.00">::setActiveDisplayObjects</text>
</a>
</g>
</g>
<!-- Node15&#45;&gt;Node16 -->
<g id="edge25" class="edge"><title>Node15&#45;&gt;Node16</title>
<path fill="none" stroke="midnightblue" d="M617.047,-105.409C627.418,-105.741 638.251,-106.088 648.754,-106.425"/>
<polygon fill="midnightblue" stroke="midnightblue" points="616.966,-101.904 606.859,-105.082 616.742,-108.901 616.966,-101.904"/>
</g>
<!-- Node15&#45;&gt;Node17 -->
<g id="edge26" class="edge"><title>Node15&#45;&gt;Node17</title>
<path fill="none" stroke="midnightblue" d="M616.534,-86.8493C632.343,-82.3905 649.258,-77.6196 664.462,-73.3313"/>
<polygon fill="midnightblue" stroke="midnightblue" points="615.534,-83.4949 606.859,-89.5781 617.434,-90.232 615.534,-83.4949"/>
</g>
<!-- Node21&#45;&gt;Node2 -->
<g id="edge32" class="edge"><title>Node21&#45;&gt;Node2</title>
<path fill="none" stroke="midnightblue" d="M296.802,-398.744C317.623,-404.434 342.438,-411.216 363.78,-417.049"/>
<polygon fill="midnightblue" stroke="midnightblue" points="297.504,-395.307 286.935,-396.047 295.658,-402.06 297.504,-395.307"/>
</g>
<!-- Node21&#45;&gt;Node3 -->
<g id="edge33" class="edge"><title>Node21&#45;&gt;Node3</title>
<path fill="none" stroke="midnightblue" d="M271.912,-402.156C293.353,-418.125 329.102,-442.244 364,-454.5 410.503,-470.831 466.743,-476.65 506.204,-478.645"/>
<polygon fill="midnightblue" stroke="midnightblue" points="273.984,-399.335 263.904,-396.073 269.749,-404.909 273.984,-399.335"/>
</g>
<!-- Node21&#45;&gt;Node7 -->
<g id="edge34" class="edge"><title>Node21&#45;&gt;Node7</title>
<path fill="none" stroke="midnightblue" d="M338.642,-390.78C377.229,-393.58 423.103,-398.14 464,-405.5 477.938,-408.008 492.838,-411.653 506.48,-415.387"/>
<polygon fill="midnightblue" stroke="midnightblue" points="338.7,-387.276 328.481,-390.071 338.213,-394.259 338.7,-387.276"/>
</g>
<!-- Node21&#45;&gt;Node8 -->
<g id="edge35" class="edge"><title>Node21&#45;&gt;Node8</title>
<path fill="none" stroke="midnightblue" d="M333.527,-375.763C343.776,-374.574 354.125,-373.452 364,-372.5 412.261,-367.849 467.524,-364.286 506.239,-362.076"/>
<polygon fill="midnightblue" stroke="midnightblue" points="332.85,-372.319 323.331,-376.97 333.673,-379.27 332.85,-372.319"/>
</g>
<!-- Node21&#45;&gt;Node9 -->
<g id="edge37" class="edge"><title>Node21&#45;&gt;Node9</title>
<path fill="none" stroke="midnightblue" d="M299.85,-374.518C354.105,-360.932 442.444,-338.811 499.764,-324.457"/>
<polygon fill="midnightblue" stroke="midnightblue" points="298.981,-371.127 290.131,-376.952 300.682,-377.917 298.981,-371.127"/>
</g>
<!-- Node21&#45;&gt;Node11 -->
<g id="edge36" class="edge"><title>Node21&#45;&gt;Node11</title>
<path fill="none" stroke="midnightblue" d="M265.827,-404.364C297.008,-444.647 372.334,-541.963 401.342,-579.438"/>
<polygon fill="midnightblue" stroke="midnightblue" points="268.438,-402.019 259.549,-396.253 262.903,-406.303 268.438,-402.019"/>
</g>
<!-- Node21&#45;&gt;Node12 -->
<g id="edge38" class="edge"><title>Node21&#45;&gt;Node12</title>
<path fill="none" stroke="midnightblue" d="M266.684,-368.624C298.073,-330.412 371.223,-241.359 400.53,-205.68"/>
<polygon fill="midnightblue" stroke="midnightblue" points="263.627,-366.831 259.984,-376.78 269.036,-371.275 263.627,-366.831"/>
</g>
<!-- Node21&#45;&gt;Node14 -->
<g id="edge39" class="edge"><title>Node21&#45;&gt;Node14</title>
<path fill="none" stroke="midnightblue" d="M257.253,-366.997C269.431,-325.088 303.283,-225.396 364,-165.5 367.372,-162.174 371.296,-159.231 375.427,-156.65"/>
<polygon fill="midnightblue" stroke="midnightblue" points="253.841,-366.204 254.504,-376.779 260.58,-368.099 253.841,-366.204"/>
</g>
</g>
</svg>
        <g id="navigator" transform="translate(0 0)" fill="#404254">
                <rect fill="#f2f5e9" fill-opacity="0.5" stroke="#606060" stroke-width=".5" x="0" y="0" width="60" height="60"/>
                <use id="zoomplus" xlink:href="#zoomPlus" x="17" y="9" onmousedown="handleZoom(evt,'in')"/>
                <use id="zoomminus" xlink:href="#zoomMin" x="42" y="9" onmousedown="handleZoom(evt,'out')"/>
                <use id="reset" xlink:href="#resetDef" x="30" y="36" onmousedown="handleReset()"/>
                <g id="arrowUp" xlink:href="#dirArrow" transform="translate(30 24)" onmousedown="handlePan(0,-1)">
                  <use xlink:href="#rim" fill="#404040">
                        <set attributeName="fill" to="#808080" begin="arrowUp.mouseover" end="arrowUp.mouseout"/>
                  </use>
                  <path fill="none" stroke="white" stroke-width="1.5" d="M0,-3.0v7 M-2.5,-0.5L0,-3.0L2.5,-0.5"/>
                </g>
                <g id="arrowRight" xlink:href="#dirArrow" transform="rotate(90) translate(36 -43)" onmousedown="handlePan(1,0)">
                  <use xlink:href="#rim" fill="#404040">
                        <set attributeName="fill" to="#808080" begin="arrowRight.mouseover" end="arrowRight.mouseout"/>
                  </use>
                  <path fill="none" stroke="white" stroke-width="1.5" d="M0,-3.0v7 M-2.5,-0.5L0,-3.0L2.5,-0.5"/>
                </g>
                <g id="arrowDown" xlink:href="#dirArrow" transform="rotate(180) translate(-30 -48)" onmousedown="handlePan(0,1)">
                  <use xlink:href="#rim" fill="#404040">
                        <set attributeName="fill" to="#808080" begin="arrowDown.mouseover" end="arrowDown.mouseout"/>
                  </use>
                  <path fill="none" stroke="white" stroke-width="1.5" d="M0,-3.0v7 M-2.5,-0.5L0,-3.0L2.5,-0.5"/>
                </g>
                <g id="arrowLeft" xlink:href="#dirArrow" transform="rotate(270) translate(-36 17)" onmousedown="handlePan(-1,0)">
                  <use xlink:href="#rim" fill="#404040">
                        <set attributeName="fill" to="#808080" begin="arrowLeft.mouseover" end="arrowLeft.mouseout"/>
                  </use>
                  <path fill="none" stroke="white" stroke-width="1.5" d="M0,-3.0v7 M-2.5,-0.5L0,-3.0L2.5,-0.5"/>
                </g>
        </g>
        <svg viewBox="0 0 15 15" width="100%" height="30px" preserveAspectRatio="xMaxYMin meet">
         <g id="arrow_out" transform="scale(0.3 0.3)">
          <a xlink:href="classDisplayWidget_a477dcbaeee98a2c684374e4d5a36b0fd_icgraph_org.svg" target="_base">
           <rect id="button" ry="5" rx="5" y="6" x="6" height="38" width="38"
                fill="#f2f5e9" fill-opacity="0.5" stroke="#606060" stroke-width="1.0"/>
           <path id="arrow"
             d="M 11.500037,31.436501 C 11.940474,20.09759 22.043105,11.32322 32.158766,21.979434 L 37.068811,17.246167 C 37.068811,17.246167 37.088388,32 37.088388,32 L 22.160133,31.978069 C 22.160133,31.978069 26.997745,27.140456 26.997745,27.140456 C 18.528582,18.264221 13.291696,25.230495 11.500037,31.436501 z"
             style="fill:#404040;"/>
          </a>
         </g>
        </svg>
</svg>
