<?xml version="1.0" encoding="UTF-8" standalone="no"?>
<!DOCTYPE svg PUBLIC "-//W3C//DTD SVG 1.1//EN"
 "http://www.w3.org/Graphics/SVG/1.1/DTD/svg11.dtd">
<!-- Generated by graphviz version 2.38.0 (20140413.2041)
 -->
<!-- Title: PlaylistItem Pages: 1 -->
<svg width="540pt" height="217pt"
 viewBox="0.00 0.00 540.00 217.00" xmlns="http://www.w3.org/2000/svg" xmlns:xlink="http://www.w3.org/1999/xlink">
<g id="graph0" class="graph" transform="scale(1 1) rotate(0) translate(4 213)">
<title>PlaylistItem</title>
<polygon fill="white" stroke="none" points="-4,4 -4,-213 536,-213 536,4 -4,4"/>
<!-- Node1 -->
<g id="node1" class="node"><title>Node1</title>
<polygon fill="#bfbfbf" stroke="black" points="123,-0.5 123,-19.5 191,-19.5 191,-0.5 123,-0.5"/>
<text text-anchor="middle" x="157" y="-7.5" font-family="Helvetica,sans-Serif" font-size="10.00">PlaylistItem</text>
</g>
<!-- Node2 -->
<g id="node2" class="node"><title>Node2</title>
<g id="a_node2"><a xlink:href="classQTreeWidgetItem.html" target="_top" xlink:title="QTreeWidgetItem">
<polygon fill="white" stroke="black" points="0,-67.5 0,-86.5 94,-86.5 94,-67.5 0,-67.5"/>
<text text-anchor="middle" x="47" y="-74.5" font-family="Helvetica,sans-Serif" font-size="10.00">QTreeWidgetItem</text>
</a>
</g>
</g>
<!-- Node2&#45;&gt;Node1 -->
<g id="edge1" class="edge"><title>Node2&#45;&gt;Node1</title>
<path fill="none" stroke="midnightblue" d="M70.4976,-62.1151C92.2912,-49.237 124.041,-30.4758 142.4,-19.6273"/>
<polygon fill="midnightblue" stroke="midnightblue" points="68.6638,-59.1332 61.8351,-67.2338 72.2249,-65.1597 68.6638,-59.1332"/>
</g>
<!-- Node3 -->
<g id="node3" class="node"><title>Node3</title>
<polygon fill="white" stroke="#bfbfbf" points="112,-67.5 112,-86.5 202,-86.5 202,-67.5 112,-67.5"/>
<text text-anchor="middle" x="157" y="-74.5" font-family="Helvetica,sans-Serif" font-size="10.00">PlaylistItemType</text>
</g>
<!-- Node3&#45;&gt;Node1 -->
<g id="edge2" class="edge"><title>Node3&#45;&gt;Node1</title>
<path fill="none" stroke="#9a32cd" stroke-dasharray="5,2" d="M157,-57.037C157,-44.6703 157,-29.1198 157,-19.6273"/>
<polygon fill="#9a32cd" stroke="#9a32cd" points="153.5,-57.2338 157,-67.2338 160.5,-57.2338 153.5,-57.2338"/>
<text text-anchor="middle" x="200" y="-41" font-family="Helvetica,sans-Serif" font-size="10.00"> p_playlistItemType</text>
</g>
<!-- Node4 -->
<g id="node4" class="node"><title>Node4</title>
<g id="a_node4"><a xlink:href="classDisplayObject.html" target="_top" xlink:title="DisplayObject">
<polygon fill="white" stroke="black" points="227,-67.5 227,-86.5 305,-86.5 305,-67.5 227,-67.5"/>
<text text-anchor="middle" x="266" y="-74.5" font-family="Helvetica,sans-Serif" font-size="10.00">DisplayObject</text>
</a>
</g>
</g>
<!-- Node4&#45;&gt;Node1 -->
<g id="edge3" class="edge"><title>Node4&#45;&gt;Node1</title>
<path fill="none" stroke="#9a32cd" stroke-dasharray="5,2" d="M258.846,-57.6341C255.311,-50.6303 250.406,-43.1111 244,-38 228.918,-25.9664 208.453,-19.2703 191.16,-15.5574"/>
<polygon fill="#9a32cd" stroke="#9a32cd" points="255.822,-59.45 263.061,-67.1858 262.226,-56.624 255.822,-59.45"/>
<text text-anchor="middle" x="290.5" y="-41" font-family="Helvetica,sans-Serif" font-size="10.00"> p_displayObject</text>
</g>
<!-- Node5 -->
<g id="node5" class="node"><title>Node5</title>
<g id="a_node5"><a xlink:href="classQObject.html" target="_top" xlink:title="QObject">
<polygon fill="white" stroke="black" points="3.5,-189.5 3.5,-208.5 56.5,-208.5 56.5,-189.5 3.5,-189.5"/>
<text text-anchor="middle" x="30" y="-196.5" font-family="Helvetica,sans-Serif" font-size="10.00">QObject</text>
</a>
</g>
</g>
<!-- Node5&#45;&gt;Node4 -->
<g id="edge4" class="edge"><title>Node5&#45;&gt;Node4</title>
<path fill="none" stroke="midnightblue" d="M39.7655,-180.583C52.8089,-159.078 78.0299,-123.131 110,-105 112.555,-103.551 181.301,-91.9908 226.671,-84.4739"/>
<polygon fill="midnightblue" stroke="midnightblue" points="36.6764,-178.932 34.649,-189.331 42.7188,-182.466 36.6764,-178.932"/>
</g>
<!-- Node6 -->
<g id="node6" class="node"><title>Node6</title>
<polygon fill="white" stroke="#bfbfbf" points="74.5,-189.5 74.5,-208.5 165.5,-208.5 165.5,-189.5 74.5,-189.5"/>
<text text-anchor="middle" x="120" y="-196.5" font-family="Helvetica,sans-Serif" font-size="10.00">QList&lt; QString &gt;</text>
</g>
<!-- Node6&#45;&gt;Node4 -->
<g id="edge5" class="edge"><title>Node6&#45;&gt;Node4</title>
<path fill="none" stroke="#9a32cd" stroke-dasharray="5,2" d="M115.671,-179.391C112.023,-158.573 109.919,-125.135 128,-105 131.354,-101.265 187.379,-91.1816 226.999,-84.4507"/>
<polygon fill="#9a32cd" stroke="#9a32cd" points="112.253,-180.144 117.68,-189.243 119.112,-178.745 112.253,-180.144"/>
<text text-anchor="middle" x="168.5" y="-135.5" font-family="Helvetica,sans-Serif" font-size="10.00"> p_info_permanent</text>
</g>
<!-- Node7 -->
<g id="node7" class="node"><title>Node7</title>
<polygon fill="white" stroke="#bfbfbf" points="201.5,-189.5 201.5,-208.5 246.5,-208.5 246.5,-189.5 201.5,-189.5"/>
<text text-anchor="middle" x="224" y="-196.5" font-family="Helvetica,sans-Serif" font-size="10.00">double</text>
</g>
<!-- Node7&#45;&gt;Node4 -->
<g id="edge6" class="edge"><title>Node7&#45;&gt;Node4</title>
<path fill="none" stroke="#9a32cd" stroke-dasharray="5,2" d="M218.109,-179.724C212.881,-159.943 207.905,-128.129 221,-105 225.668,-96.7546 233.971,-90.7525 242.183,-86.5319"/>
<polygon fill="#9a32cd" stroke="#9a32cd" points="214.757,-180.731 220.927,-189.345 221.475,-178.764 214.757,-180.731"/>
<text text-anchor="middle" x="251" y="-135.5" font-family="Helvetica,sans-Serif" font-size="10.00"> p_frameRate</text>
</g>
<!-- Node8 -->
<g id="node8" class="node"><title>Node8</title>
<polygon fill="white" stroke="#bfbfbf" points="280,-189.5 280,-208.5 330,-208.5 330,-189.5 280,-189.5"/>
<text text-anchor="middle" x="305" y="-196.5" font-family="Helvetica,sans-Serif" font-size="10.00">QString</text>
</g>
<!-- Node8&#45;&gt;Node4 -->
<g id="edge7" class="edge"><title>Node8&#45;&gt;Node4</title>
<path fill="none" stroke="#9a32cd" stroke-dasharray="5,2" d="M303.204,-179.296C300.849,-160.019 295.687,-129.421 285,-105 282.151,-98.4888 277.604,-91.9506 273.672,-86.9392"/>
<polygon fill="#9a32cd" stroke="#9a32cd" points="299.747,-179.88 304.309,-189.442 306.705,-179.122 299.747,-179.88"/>
<text text-anchor="middle" x="323.5" y="-146.5" font-family="Helvetica,sans-Serif" font-size="10.00"> p_status</text>
<text text-anchor="middle" x="323.5" y="-135.5" font-family="Helvetica,sans-Serif" font-size="10.00">p_name</text>
<text text-anchor="middle" x="323.5" y="-124.5" font-family="Helvetica,sans-Serif" font-size="10.00">p_info</text>
</g>
<!-- Node9 -->
<g id="node9" class="node"><title>Node9</title>
<polygon fill="white" stroke="#bfbfbf" points="348.5,-189.5 348.5,-208.5 405.5,-208.5 405.5,-189.5 348.5,-189.5"/>
<text text-anchor="middle" x="377" y="-196.5" font-family="Helvetica,sans-Serif" font-size="10.00">QPixmap</text>
</g>
<!-- Node9&#45;&gt;Node4 -->
<g id="edge8" class="edge"><title>Node9&#45;&gt;Node4</title>
<path fill="none" stroke="#9a32cd" stroke-dasharray="5,2" d="M376.078,-179.1C374.058,-158.26 367.72,-125.035 348,-105 336.645,-93.4639 320.276,-86.856 305.146,-83.0712"/>
<polygon fill="#9a32cd" stroke="#9a32cd" points="372.599,-179.521 376.813,-189.241 379.581,-179.014 372.599,-179.521"/>
<text text-anchor="middle" x="411" y="-135.5" font-family="Helvetica,sans-Serif" font-size="10.00"> p_displayImage</text>
</g>
<!-- Node10 -->
<g id="node10" class="node"><title>Node10</title>
<polygon fill="white" stroke="#bfbfbf" points="455.5,-189.5 455.5,-208.5 484.5,-208.5 484.5,-189.5 455.5,-189.5"/>
<text text-anchor="middle" x="470" y="-196.5" font-family="Helvetica,sans-Serif" font-size="10.00">int</text>
</g>
<!-- Node10&#45;&gt;Node4 -->
<g id="edge9" class="edge"><title>Node10&#45;&gt;Node4</title>
<path fill="none" stroke="#9a32cd" stroke-dasharray="5,2" d="M471.267,-179.209C471.583,-157.947 468.509,-123.836 448,-105 427.767,-86.418 352.565,-80.6174 305.391,-78.8113"/>
<polygon fill="#9a32cd" stroke="#9a32cd" points="467.767,-179.127 470.85,-189.264 474.761,-179.417 467.767,-179.127"/>
<text text-anchor="middle" x="501.5" y="-163" font-family="Helvetica,sans-Serif" font-size="10.00"> p_startFrame</text>
<text text-anchor="middle" x="501.5" y="-152" font-family="Helvetica,sans-Serif" font-size="10.00">p_endFrame</text>
<text text-anchor="middle" x="501.5" y="-141" font-family="Helvetica,sans-Serif" font-size="10.00">p_width</text>
<text text-anchor="middle" x="501.5" y="-130" font-family="Helvetica,sans-Serif" font-size="10.00">p_sampling</text>
<text text-anchor="middle" x="501.5" y="-119" font-family="Helvetica,sans-Serif" font-size="10.00">p_height</text>
<text text-anchor="middle" x="501.5" y="-108" font-family="Helvetica,sans-Serif" font-size="10.00">p_lastIdx</text>
</g>
</g>
</svg>
