<?xml version="1.0" encoding="UTF-8" standalone="no"?>
<!DOCTYPE svg PUBLIC "-//W3C//DTD SVG 1.1//EN"
 "http://www.w3.org/Graphics/SVG/1.1/DTD/svg11.dtd">
<!-- Generated by graphviz version 2.38.0 (20140413.2041)
 -->
<!-- Title: YUVSource::getOneFrame Pages: 1 -->
<svg width="2079pt" height="825pt"
 viewBox="0.00 0.00 2079.00 824.50" xmlns="http://www.w3.org/2000/svg" xmlns:xlink="http://www.w3.org/1999/xlink">
<g id="graph0" class="graph" transform="scale(1 1) rotate(0) translate(4 820.5)">
<title>YUVSource::getOneFrame</title>
<polygon fill="white" stroke="none" points="-4,4 -4,-820.5 2075,-820.5 2075,4 -4,4"/>
<!-- Node1 -->
<g id="node1" class="node"><title>Node1</title>
<polygon fill="#bfbfbf" stroke="black" points="0,-253 0,-272 134,-272 134,-253 0,-253"/>
<text text-anchor="middle" x="67" y="-260" font-family="Helvetica,sans-Serif" font-size="10.00">YUVSource::getOneFrame</text>
</g>
<!-- Node2 -->
<g id="node2" class="node"><title>Node2</title>
<g id="a_node2"><a xlink:href="classDifferenceObject.html#acb2a437aedc3f3a4400c394d0330afc0" target="_top" xlink:title="DifferenceObject::loadImage">
<polygon fill="white" stroke="black" points="174,-310 174,-329 315,-329 315,-310 174,-310"/>
<text text-anchor="middle" x="244.5" y="-317" font-family="Helvetica,sans-Serif" font-size="10.00">DifferenceObject::loadImage</text>
</a>
</g>
</g>
<!-- Node1&#45;&gt;Node2 -->
<g id="edge1" class="edge"><title>Node1&#45;&gt;Node2</title>
<path fill="none" stroke="midnightblue" d="M101.152,-275.845C120.958,-283.566 146.714,-293.174 170,-300.5 180.812,-303.901 192.655,-307.162 203.615,-309.992"/>
<polygon fill="midnightblue" stroke="midnightblue" points="102.252,-272.516 91.6645,-272.112 99.6892,-279.03 102.252,-272.516"/>
</g>
<!-- Node4 -->
<g id="node4" class="node"><title>Node4</title>
<g id="a_node4"><a xlink:href="classDifferenceObject.html#a41d73f76e37c7db2d3701c913a38bec1" target="_top" xlink:title="DifferenceObject::getValuesAt">
<polygon fill="white" stroke="black" points="170,-272 170,-291 319,-291 319,-272 170,-272"/>
<text text-anchor="middle" x="244.5" y="-279" font-family="Helvetica,sans-Serif" font-size="10.00">DifferenceObject::getValuesAt</text>
</a>
</g>
</g>
<!-- Node1&#45;&gt;Node4 -->
<g id="edge3" class="edge"><title>Node1&#45;&gt;Node4</title>
<path fill="none" stroke="midnightblue" d="M144.477,-270.78C152.854,-271.686 161.37,-272.608 169.714,-273.512"/>
<polygon fill="midnightblue" stroke="midnightblue" points="144.668,-267.28 134.349,-269.683 143.914,-274.239 144.668,-267.28"/>
</g>
<!-- Node5 -->
<g id="node5" class="node"><title>Node5</title>
<g id="a_node5"><a xlink:href="classFrameObject.html#ad33aa12aedba2856ec54989d6eda2d49" target="_top" xlink:title="FrameObject::loadImage">
<polygon fill="white" stroke="black" points="182.5,-234 182.5,-253 306.5,-253 306.5,-234 182.5,-234"/>
<text text-anchor="middle" x="244.5" y="-241" font-family="Helvetica,sans-Serif" font-size="10.00">FrameObject::loadImage</text>
</a>
</g>
</g>
<!-- Node1&#45;&gt;Node5 -->
<g id="edge4" class="edge"><title>Node1&#45;&gt;Node5</title>
<path fill="none" stroke="midnightblue" d="M144.41,-254.228C157.066,-252.858 170.042,-251.453 182.261,-250.13"/>
<polygon fill="midnightblue" stroke="midnightblue" points="143.914,-250.761 134.349,-255.317 144.668,-257.72 143.914,-250.761"/>
</g>
<!-- Node45 -->
<g id="node45" class="node"><title>Node45</title>
<g id="a_node45"><a xlink:href="classFrameObject.html#af9bbd7dfa23f62734a661b2a2e420c8a" target="_top" xlink:title="FrameObject::getValuesAt">
<polygon fill="white" stroke="black" points="178.5,-196 178.5,-215 310.5,-215 310.5,-196 178.5,-196"/>
<text text-anchor="middle" x="244.5" y="-203" font-family="Helvetica,sans-Serif" font-size="10.00">FrameObject::getValuesAt</text>
</a>
</g>
</g>
<!-- Node1&#45;&gt;Node45 -->
<g id="edge61" class="edge"><title>Node1&#45;&gt;Node45</title>
<path fill="none" stroke="midnightblue" d="M101.152,-249.155C120.958,-241.434 146.714,-231.826 170,-224.5 180.812,-221.099 192.655,-217.838 203.615,-215.008"/>
<polygon fill="midnightblue" stroke="midnightblue" points="99.6892,-245.97 91.6645,-252.888 102.252,-252.484 99.6892,-245.97"/>
</g>
<!-- Node3 -->
<g id="node3" class="node"><title>Node3</title>
<g id="a_node3"><a xlink:href="classDifferenceObject.html#a72a52d53c72aae7579f252a61a914002" target="_top" xlink:title="DifferenceObject::refresh\lDisplayImage">
<polygon fill="white" stroke="black" points="363,-304.5 363,-334.5 489,-334.5 489,-304.5 363,-304.5"/>
<text text-anchor="start" x="371" y="-322.5" font-family="Helvetica,sans-Serif" font-size="10.00">DifferenceObject::refresh</text>
<text text-anchor="middle" x="426" y="-311.5" font-family="Helvetica,sans-Serif" font-size="10.00">DisplayImage</text>
</a>
</g>
</g>
<!-- Node2&#45;&gt;Node3 -->
<g id="edge2" class="edge"><title>Node2&#45;&gt;Node3</title>
<path fill="none" stroke="midnightblue" d="M325.231,-319.5C337.89,-319.5 350.818,-319.5 362.991,-319.5"/>
<polygon fill="midnightblue" stroke="midnightblue" points="325.156,-316 315.156,-319.5 325.156,-323 325.156,-316"/>
</g>
<!-- Node6 -->
<g id="node6" class="node"><title>Node6</title>
<g id="a_node6"><a xlink:href="classFrameObject.html#ac42be5ded1448dde312e661e66c8730e" target="_top" xlink:title="FrameObject::refreshDisplay\lImage">
<polygon fill="white" stroke="black" points="355,-228.5 355,-258.5 497,-258.5 497,-228.5 355,-228.5"/>
<text text-anchor="start" x="363" y="-246.5" font-family="Helvetica,sans-Serif" font-size="10.00">FrameObject::refreshDisplay</text>
<text text-anchor="middle" x="426" y="-235.5" font-family="Helvetica,sans-Serif" font-size="10.00">Image</text>
</a>
</g>
</g>
<!-- Node5&#45;&gt;Node6 -->
<g id="edge5" class="edge"><title>Node5&#45;&gt;Node6</title>
<path fill="none" stroke="midnightblue" d="M316.888,-243.5C329.395,-243.5 342.4,-243.5 354.873,-243.5"/>
<polygon fill="midnightblue" stroke="midnightblue" points="316.521,-240 306.521,-243.5 316.521,-247 316.521,-240"/>
</g>
<!-- Node7 -->
<g id="node7" class="node"><title>Node7</title>
<g id="a_node7"><a xlink:href="classFrameObject.html#a72a06fd2f07099819623216975625bed" target="_top" xlink:title="FrameObject::setSrcPixel\lFormat">
<polygon fill="white" stroke="black" points="563,-470.5 563,-500.5 692,-500.5 692,-470.5 563,-470.5"/>
<text text-anchor="start" x="571" y="-488.5" font-family="Helvetica,sans-Serif" font-size="10.00">FrameObject::setSrcPixel</text>
<text text-anchor="middle" x="627.5" y="-477.5" font-family="Helvetica,sans-Serif" font-size="10.00">Format</text>
</a>
</g>
</g>
<!-- Node6&#45;&gt;Node7 -->
<g id="edge6" class="edge"><title>Node6&#45;&gt;Node7</title>
<path fill="none" stroke="midnightblue" d="M464.629,-264.312C476.559,-272.593 488.771,-283.124 497,-295.5 534.006,-351.152 490.647,-389.801 533,-441.5 543.573,-454.406 558.804,-463.742 573.913,-470.399"/>
<polygon fill="midnightblue" stroke="midnightblue" points="466.334,-261.245 456.053,-258.685 462.494,-267.097 466.334,-261.245"/>
</g>
<!-- Node27 -->
<g id="node27" class="node"><title>Node27</title>
<g id="a_node27"><a xlink:href="classFrameObject.html#a75047fbb8bc09a65e318550143c2fdd1" target="_top" xlink:title="FrameObject::setInterpolationMode">
<polygon fill="white" stroke="black" points="542.5,-413 542.5,-432 712.5,-432 712.5,-413 542.5,-413"/>
<text text-anchor="middle" x="627.5" y="-420" font-family="Helvetica,sans-Serif" font-size="10.00">FrameObject::setInterpolationMode</text>
</a>
</g>
</g>
<!-- Node6&#45;&gt;Node27 -->
<g id="edge37" class="edge"><title>Node6&#45;&gt;Node27</title>
<path fill="none" stroke="midnightblue" d="M462.875,-264.328C474.995,-272.76 487.777,-283.383 497,-295.5 523.845,-330.768 501.339,-357.483 533,-388.5 544.845,-400.104 560.955,-407.786 576.465,-412.856"/>
<polygon fill="midnightblue" stroke="midnightblue" points="464.493,-261.201 454.226,-258.585 460.621,-267.033 464.493,-261.201"/>
</g>
<!-- Node29 -->
<g id="node29" class="node"><title>Node29</title>
<g id="a_node29"><a xlink:href="classFrameObject.html#a67c75cb8f2a30ef500517dffb67b96fb" target="_top" xlink:title="FrameObject::setColorConversionMode">
<polygon fill="white" stroke="black" points="533,-360 533,-379 722,-379 722,-360 533,-360"/>
<text text-anchor="middle" x="627.5" y="-367" font-family="Helvetica,sans-Serif" font-size="10.00">FrameObject::setColorConversionMode</text>
</a>
</g>
</g>
<!-- Node6&#45;&gt;Node29 -->
<g id="edge39" class="edge"><title>Node6&#45;&gt;Node29</title>
<path fill="none" stroke="midnightblue" d="M457.497,-264.527C470.083,-273.616 484.597,-284.644 497,-295.5 514.264,-310.612 513.909,-319.774 533,-332.5 551.157,-344.604 573.875,-353.709 592.371,-359.858"/>
<polygon fill="midnightblue" stroke="midnightblue" points="459.315,-261.525 449.14,-258.57 455.251,-267.225 459.315,-261.525"/>
</g>
<!-- Node31 -->
<g id="node31" class="node"><title>Node31</title>
<g id="a_node31"><a xlink:href="classFrameObject.html#a6120f59ed0a642cb9c5d01dc283c19cd" target="_top" xlink:title="FrameObject::setLumaScale">
<polygon fill="white" stroke="black" points="557,-304 557,-323 698,-323 698,-304 557,-304"/>
<text text-anchor="middle" x="627.5" y="-311" font-family="Helvetica,sans-Serif" font-size="10.00">FrameObject::setLumaScale</text>
</a>
</g>
</g>
<!-- Node6&#45;&gt;Node31 -->
<g id="edge41" class="edge"><title>Node6&#45;&gt;Node31</title>
<path fill="none" stroke="midnightblue" d="M477.923,-261.924C495.368,-268.191 515.02,-275.201 533,-281.5 554.859,-289.158 579.665,-297.638 598.231,-303.944"/>
<polygon fill="midnightblue" stroke="midnightblue" points="479.077,-258.62 468.483,-258.528 476.708,-265.206 479.077,-258.62"/>
</g>
<!-- Node34 -->
<g id="node34" class="node"><title>Node34</title>
<g id="a_node34"><a xlink:href="classFrameObject.html#aa3839da0486076c1af04a964dfac7392" target="_top" xlink:title="FrameObject::setChromaUScale">
<polygon fill="white" stroke="black" points="548,-253 548,-272 707,-272 707,-253 548,-253"/>
<text text-anchor="middle" x="627.5" y="-260" font-family="Helvetica,sans-Serif" font-size="10.00">FrameObject::setChromaUScale</text>
</a>
</g>
</g>
<!-- Node6&#45;&gt;Node34 -->
<g id="edge44" class="edge"><title>Node6&#45;&gt;Node34</title>
<path fill="none" stroke="midnightblue" d="M507.173,-251.136C520.551,-252.41 534.417,-253.73 547.759,-255.001"/>
<polygon fill="midnightblue" stroke="midnightblue" points="507.343,-247.636 497.056,-250.172 506.679,-254.604 507.343,-247.636"/>
</g>
<!-- Node36 -->
<g id="node36" class="node"><title>Node36</title>
<g id="a_node36"><a xlink:href="classFrameObject.html#abaa1202cddb161bcd5ce673e67b197af" target="_top" xlink:title="FrameObject::setChromaVScale">
<polygon fill="white" stroke="black" points="548.5,-215 548.5,-234 706.5,-234 706.5,-215 548.5,-215"/>
<text text-anchor="middle" x="627.5" y="-222" font-family="Helvetica,sans-Serif" font-size="10.00">FrameObject::setChromaVScale</text>
</a>
</g>
</g>
<!-- Node6&#45;&gt;Node36 -->
<g id="edge48" class="edge"><title>Node6&#45;&gt;Node36</title>
<path fill="none" stroke="midnightblue" d="M507.314,-235.851C520.878,-234.559 534.941,-233.22 548.446,-231.934"/>
<polygon fill="midnightblue" stroke="midnightblue" points="506.679,-232.396 497.056,-236.828 507.343,-239.364 506.679,-232.396"/>
</g>
<!-- Node37 -->
<g id="node37" class="node"><title>Node37</title>
<g id="a_node37"><a xlink:href="classFrameObject.html#aa70a1b5f92a93f34fe94b3ca89337dcd" target="_top" xlink:title="FrameObject::setLumaOffset">
<polygon fill="white" stroke="black" points="556,-174 556,-193 699,-193 699,-174 556,-174"/>
<text text-anchor="middle" x="627.5" y="-181" font-family="Helvetica,sans-Serif" font-size="10.00">FrameObject::setLumaOffset</text>
</a>
</g>
</g>
<!-- Node6&#45;&gt;Node37 -->
<g id="edge51" class="edge"><title>Node6&#45;&gt;Node37</title>
<path fill="none" stroke="midnightblue" d="M475.565,-224.787C493.471,-218.233 514.019,-211.116 533,-205.5 548.511,-200.911 565.691,-196.641 581.049,-193.107"/>
<polygon fill="midnightblue" stroke="midnightblue" points="474.08,-221.604 465.916,-228.356 476.509,-228.169 474.08,-221.604"/>
</g>
<!-- Node39 -->
<g id="node39" class="node"><title>Node39</title>
<g id="a_node39"><a xlink:href="classFrameObject.html#aa51ebda1841c6af48eb4e59e6fb76878" target="_top" xlink:title="FrameObject::setChromaOffset">
<polygon fill="white" stroke="black" points="550.5,-130 550.5,-149 704.5,-149 704.5,-130 550.5,-130"/>
<text text-anchor="middle" x="627.5" y="-137" font-family="Helvetica,sans-Serif" font-size="10.00">FrameObject::setChromaOffset</text>
</a>
</g>
</g>
<!-- Node6&#45;&gt;Node39 -->
<g id="edge54" class="edge"><title>Node6&#45;&gt;Node39</title>
<path fill="none" stroke="midnightblue" d="M450.501,-221.827C470.914,-204.071 501.997,-179.509 533,-164.5 546.611,-157.91 562.208,-152.864 576.713,-149.091"/>
<polygon fill="midnightblue" stroke="midnightblue" points="448.13,-219.252 442.96,-228.5 452.769,-224.494 448.13,-219.252"/>
</g>
<!-- Node41 -->
<g id="node41" class="node"><title>Node41</title>
<g id="a_node41"><a xlink:href="classFrameObject.html#ab9229ebf6eb0031158eb516ac416bd6b" target="_top" xlink:title="FrameObject::setLumaInvert">
<polygon fill="white" stroke="black" points="557,-81 557,-100 698,-100 698,-81 557,-81"/>
<text text-anchor="middle" x="627.5" y="-88" font-family="Helvetica,sans-Serif" font-size="10.00">FrameObject::setLumaInvert</text>
</a>
</g>
</g>
<!-- Node6&#45;&gt;Node41 -->
<g id="edge57" class="edge"><title>Node6&#45;&gt;Node41</title>
<path fill="none" stroke="midnightblue" d="M441.674,-219.607C459.845,-191.934 493.303,-146.792 533,-120.5 546.929,-111.275 563.895,-104.716 579.533,-100.135"/>
<polygon fill="midnightblue" stroke="midnightblue" points="438.57,-217.964 436.111,-228.269 444.46,-221.746 438.57,-217.964"/>
</g>
<!-- Node43 -->
<g id="node43" class="node"><title>Node43</title>
<g id="a_node43"><a xlink:href="classFrameObject.html#a67f3c49361b179fda6205658bb5218d4" target="_top" xlink:title="FrameObject::setChromaInvert">
<polygon fill="white" stroke="black" points="551.5,-21 551.5,-40 703.5,-40 703.5,-21 551.5,-21"/>
<text text-anchor="middle" x="627.5" y="-28" font-family="Helvetica,sans-Serif" font-size="10.00">FrameObject::setChromaInvert</text>
</a>
</g>
</g>
<!-- Node6&#45;&gt;Node43 -->
<g id="edge59" class="edge"><title>Node6&#45;&gt;Node43</title>
<path fill="none" stroke="midnightblue" d="M436.633,-218.581C451.949,-181.883 485.101,-113.162 533,-71.5 549.851,-56.8433 572.764,-46.6821 591.691,-40.1417"/>
<polygon fill="midnightblue" stroke="midnightblue" points="433.314,-217.451 432.788,-228.033 439.798,-220.088 433.314,-217.451"/>
</g>
<!-- Node8 -->
<g id="node8" class="node"><title>Node8</title>
<g id="a_node8"><a xlink:href="classMainWindow.html#a2d8cea1d443550a8f14ce8c80d2608c6" target="_top" xlink:title="MainWindow::loadPlaylistFile">
<polygon fill="white" stroke="black" points="973,-586 973,-605 1118,-605 1118,-586 973,-586"/>
<text text-anchor="middle" x="1045.5" y="-593" font-family="Helvetica,sans-Serif" font-size="10.00">MainWindow::loadPlaylistFile</text>
</a>
</g>
</g>
<!-- Node7&#45;&gt;Node8 -->
<g id="edge7" class="edge"><title>Node7&#45;&gt;Node8</title>
<path fill="none" stroke="midnightblue" d="M695.194,-503.135C784.174,-526.664 938.596,-567.496 1008.4,-585.954"/>
<polygon fill="midnightblue" stroke="midnightblue" points="696.033,-499.737 685.471,-500.564 694.244,-506.505 696.033,-499.737"/>
</g>
<!-- Node19 -->
<g id="node19" class="node"><title>Node19</title>
<g id="a_node19"><a xlink:href="classMainWindow.html#a2cae0b3ed4283301ecc11dc881d31422" target="_top" xlink:title="A file option was changed by the user (width/height/start/end/rate/sampling/frameSize/pixelFormat). ">
<polygon fill="white" stroke="black" points="772.5,-470.5 772.5,-500.5 908.5,-500.5 908.5,-470.5 772.5,-470.5"/>
<text text-anchor="start" x="780.5" y="-488.5" font-family="Helvetica,sans-Serif" font-size="10.00">MainWindow::on_fileOption</text>
<text text-anchor="middle" x="840.5" y="-477.5" font-family="Helvetica,sans-Serif" font-size="10.00">ValueChanged</text>
</a>
</g>
</g>
<!-- Node7&#45;&gt;Node19 -->
<g id="edge20" class="edge"><title>Node7&#45;&gt;Node19</title>
<path fill="none" stroke="midnightblue" d="M702.385,-485.5C725.153,-485.5 750.086,-485.5 772.373,-485.5"/>
<polygon fill="midnightblue" stroke="midnightblue" points="702.093,-482 692.093,-485.5 702.093,-489 702.093,-482"/>
</g>
<!-- Node9 -->
<g id="node9" class="node"><title>Node9</title>
<g id="a_node9"><a xlink:href="classMainWindow.html#a8ef1be3cb02e12d68d12375d1a7a0ced" target="_top" xlink:title="loads a list of yuv/csv files ">
<polygon fill="white" stroke="black" points="1367,-671 1367,-690 1485,-690 1485,-671 1367,-671"/>
<text text-anchor="middle" x="1426" y="-678" font-family="Helvetica,sans-Serif" font-size="10.00">MainWindow::loadFiles</text>
</a>
</g>
</g>
<!-- Node8&#45;&gt;Node9 -->
<g id="edge8" class="edge"><title>Node8&#45;&gt;Node9</title>
<path fill="none" stroke="midnightblue" d="M1098.61,-607.202C1174.24,-624.186 1312.96,-655.34 1382.67,-670.993"/>
<polygon fill="midnightblue" stroke="midnightblue" points="1099.34,-603.779 1088.82,-605.003 1097.81,-610.609 1099.34,-603.779"/>
</g>
<!-- Node10 -->
<g id="node10" class="node"><title>Node10</title>
<g id="a_node10"><a xlink:href="classDisplaySplitWidget.html#ac1d4ced58b2ac2b08153694a5de6232e" target="_top" xlink:title="DisplaySplitWidget\l::dropEvent">
<polygon fill="white" stroke="black" points="1558.5,-709.5 1558.5,-739.5 1658.5,-739.5 1658.5,-709.5 1558.5,-709.5"/>
<text text-anchor="start" x="1566.5" y="-727.5" font-family="Helvetica,sans-Serif" font-size="10.00">DisplaySplitWidget</text>
<text text-anchor="middle" x="1608.5" y="-716.5" font-family="Helvetica,sans-Serif" font-size="10.00">::dropEvent</text>
</a>
</g>
</g>
<!-- Node9&#45;&gt;Node10 -->
<g id="edge9" class="edge"><title>Node9&#45;&gt;Node10</title>
<path fill="none" stroke="midnightblue" d="M1476.03,-692.452C1501.61,-698.688 1532.82,-706.296 1558.41,-712.534"/>
<polygon fill="midnightblue" stroke="midnightblue" points="1476.71,-689.015 1466.17,-690.047 1475.05,-695.816 1476.71,-689.015"/>
</g>
<!-- Node11 -->
<g id="node11" class="node"><title>Node11</title>
<g id="a_node11"><a xlink:href="classMainWindow.html#a288b768c3c21a9171bdc56fe845ece8b" target="_top" xlink:title="Shows the file open dialog and loads all selected Files. ">
<polygon fill="white" stroke="black" points="1550.5,-583 1550.5,-602 1666.5,-602 1666.5,-583 1550.5,-583"/>
<text text-anchor="middle" x="1608.5" y="-590" font-family="Helvetica,sans-Serif" font-size="10.00">MainWindow::openFile</text>
</a>
</g>
</g>
<!-- Node9&#45;&gt;Node11 -->
<g id="edge10" class="edge"><title>Node9&#45;&gt;Node11</title>
<path fill="none" stroke="midnightblue" d="M1447.78,-664.807C1468.81,-649.581 1502.72,-626.744 1535,-612.5 1544.32,-608.389 1554.69,-604.926 1564.6,-602.098"/>
<polygon fill="midnightblue" stroke="midnightblue" points="1445.59,-662.076 1439.61,-670.82 1449.74,-667.716 1445.59,-662.076"/>
</g>
<!-- Node15 -->
<g id="node15" class="node"><title>Node15</title>
<g id="a_node15"><a xlink:href="classMainWindow.html#a935316315edb9b7af42657da20be0e54" target="_top" xlink:title="MainWindow::openRecentFile">
<polygon fill="white" stroke="black" points="1535,-671 1535,-690 1682,-690 1682,-671 1535,-671"/>
<text text-anchor="middle" x="1608.5" y="-678" font-family="Helvetica,sans-Serif" font-size="10.00">MainWindow::openRecentFile</text>
</a>
</g>
</g>
<!-- Node9&#45;&gt;Node15 -->
<g id="edge15" class="edge"><title>Node9&#45;&gt;Node15</title>
<path fill="none" stroke="midnightblue" d="M1495.33,-680.5C1508.28,-680.5 1521.87,-680.5 1534.94,-680.5"/>
<polygon fill="midnightblue" stroke="midnightblue" points="1495.1,-677 1485.1,-680.5 1495.1,-684 1495.1,-677"/>
</g>
<!-- Node16 -->
<g id="node16" class="node"><title>Node16</title>
<g id="a_node16"><a xlink:href="classPlaylistTreeWidget.html#a295170eb269cc67050ea0b575cd0ab53" target="_top" xlink:title="PlaylistTreeWidget\l::dropEvent">
<polygon fill="white" stroke="black" points="1559,-621.5 1559,-651.5 1658,-651.5 1658,-621.5 1559,-621.5"/>
<text text-anchor="start" x="1567" y="-639.5" font-family="Helvetica,sans-Serif" font-size="10.00">PlaylistTreeWidget</text>
<text text-anchor="middle" x="1608.5" y="-628.5" font-family="Helvetica,sans-Serif" font-size="10.00">::dropEvent</text>
</a>
</g>
</g>
<!-- Node9&#45;&gt;Node16 -->
<g id="edge17" class="edge"><title>Node9&#45;&gt;Node16</title>
<path fill="none" stroke="midnightblue" d="M1476.07,-668.539C1501.76,-662.277 1533.11,-654.635 1558.75,-648.384"/>
<polygon fill="midnightblue" stroke="midnightblue" points="1475.05,-665.184 1466.17,-670.953 1476.71,-671.985 1475.05,-665.184"/>
</g>
<!-- Node17 -->
<g id="node17" class="node"><title>Node17</title>
<g id="a_node17"><a xlink:href="classYUViewApp.html#ac0f5381cc5b703a9ea704b5eedab4b7f" target="_top" xlink:title="YUViewApp::YUViewApp">
<polygon fill="white" stroke="black" points="1544,-797 1544,-816 1673,-816 1673,-797 1544,-797"/>
<text text-anchor="middle" x="1608.5" y="-804" font-family="Helvetica,sans-Serif" font-size="10.00">YUViewApp::YUViewApp</text>
</a>
</g>
</g>
<!-- Node9&#45;&gt;Node17 -->
<g id="edge18" class="edge"><title>Node9&#45;&gt;Node17</title>
<path fill="none" stroke="midnightblue" d="M1440.08,-698.386C1458.55,-722.319 1494.55,-764.418 1535,-787.5 1541.78,-791.369 1549.37,-794.468 1557.01,-796.946"/>
<polygon fill="midnightblue" stroke="midnightblue" points="1442.71,-696.055 1433.89,-690.18 1437.12,-700.271 1442.71,-696.055"/>
</g>
<!-- Node18 -->
<g id="node18" class="node"><title>Node18</title>
<g id="a_node18"><a xlink:href="classYUViewApp.html#a2f5f937d6677018ef73a5ffc248f9891" target="_top" xlink:title="YUViewApp::event">
<polygon fill="white" stroke="black" points="1558.5,-759 1558.5,-778 1658.5,-778 1658.5,-759 1558.5,-759"/>
<text text-anchor="middle" x="1608.5" y="-766" font-family="Helvetica,sans-Serif" font-size="10.00">YUViewApp::event</text>
</a>
</g>
</g>
<!-- Node9&#45;&gt;Node18 -->
<g id="edge19" class="edge"><title>Node9&#45;&gt;Node18</title>
<path fill="none" stroke="midnightblue" d="M1447.36,-696.276C1468.3,-711.808 1502.36,-735.22 1535,-749.5 1543.58,-753.255 1553.07,-756.401 1562.28,-758.983"/>
<polygon fill="midnightblue" stroke="midnightblue" points="1449.33,-693.375 1439.24,-690.151 1445.12,-698.965 1449.33,-693.375"/>
</g>
<!-- Node12 -->
<g id="node12" class="node"><title>Node12</title>
<g id="a_node12"><a xlink:href="classMainWindow.html#a9df7443ce5f907903438bb6a9abe9a33" target="_top" xlink:title="MainWindow::createMenusAnd\lActions">
<polygon fill="white" stroke="black" points="1733,-580.5 1733,-610.5 1885,-610.5 1885,-580.5 1733,-580.5"/>
<text text-anchor="start" x="1741" y="-598.5" font-family="Helvetica,sans-Serif" font-size="10.00">MainWindow::createMenusAnd</text>
<text text-anchor="middle" x="1809" y="-587.5" font-family="Helvetica,sans-Serif" font-size="10.00">Actions</text>
</a>
</g>
</g>
<!-- Node11&#45;&gt;Node12 -->
<g id="edge11" class="edge"><title>Node11&#45;&gt;Node12</title>
<path fill="none" stroke="midnightblue" d="M1676.76,-593.517C1694.78,-593.789 1714.37,-594.085 1732.78,-594.363"/>
<polygon fill="midnightblue" stroke="midnightblue" points="1676.7,-590.015 1666.65,-593.364 1676.59,-597.015 1676.7,-590.015"/>
</g>
<!-- Node14 -->
<g id="node14" class="node"><title>Node14</title>
<g id="a_node14"><a xlink:href="classMainWindow.html#aaba5c236313378986c42c4a634c4cfb9" target="_top" xlink:title="MainWindow::onCustomContextMenu">
<polygon fill="white" stroke="black" points="1718,-542 1718,-561 1900,-561 1900,-542 1718,-542"/>
<text text-anchor="middle" x="1809" y="-549" font-family="Helvetica,sans-Serif" font-size="10.00">MainWindow::onCustomContextMenu</text>
</a>
</g>
</g>
<!-- Node11&#45;&gt;Node14 -->
<g id="edge13" class="edge"><title>Node11&#45;&gt;Node14</title>
<path fill="none" stroke="midnightblue" d="M1665.58,-580.918C1696,-574.634 1733.14,-566.962 1761.87,-561.029"/>
<polygon fill="midnightblue" stroke="midnightblue" points="1664.62,-577.54 1655.54,-582.991 1666.04,-584.395 1664.62,-577.54"/>
</g>
<!-- Node13 -->
<g id="node13" class="node"><title>Node13</title>
<g id="a_node13"><a xlink:href="classMainWindow.html#a8b244be8b7b7db1b08de2a2acb9409db" target="_top" xlink:title="MainWindow::MainWindow">
<polygon fill="white" stroke="black" points="1936,-476 1936,-495 2071,-495 2071,-476 1936,-476"/>
<text text-anchor="middle" x="2003.5" y="-483" font-family="Helvetica,sans-Serif" font-size="10.00">MainWindow::MainWindow</text>
</a>
</g>
</g>
<!-- Node12&#45;&gt;Node13 -->
<g id="edge12" class="edge"><title>Node12&#45;&gt;Node13</title>
<path fill="none" stroke="midnightblue" d="M1886,-576.922C1890.83,-574.971 1895.53,-572.835 1900,-570.5 1939.13,-550.046 1976.93,-512.797 1993.6,-495.201"/>
<polygon fill="midnightblue" stroke="midnightblue" points="1884.74,-573.658 1876.61,-580.451 1887.2,-580.21 1884.74,-573.658"/>
</g>
<!-- Node14&#45;&gt;Node13 -->
<g id="edge14" class="edge"><title>Node14&#45;&gt;Node13</title>
<path fill="none" stroke="midnightblue" d="M1874.77,-539.635C1883.34,-537.541 1891.93,-535.164 1900,-532.5 1930.86,-522.308 1964.8,-505.572 1984.84,-495.064"/>
<polygon fill="midnightblue" stroke="midnightblue" points="1873.72,-536.287 1864.77,-541.964 1875.31,-543.105 1873.72,-536.287"/>
</g>
<!-- Node15&#45;&gt;Node12 -->
<g id="edge16" class="edge"><title>Node15&#45;&gt;Node12</title>
<path fill="none" stroke="midnightblue" d="M1662.32,-668.157C1669.02,-666.155 1675.72,-663.931 1682,-661.5 1718.62,-647.323 1758.35,-625.297 1783.21,-610.64"/>
<polygon fill="midnightblue" stroke="midnightblue" points="1661.23,-664.829 1652.56,-670.929 1663.14,-671.563 1661.23,-664.829"/>
</g>
<!-- Node19&#45;&gt;Node13 -->
<g id="edge21" class="edge"><title>Node19&#45;&gt;Node13</title>
<path fill="none" stroke="midnightblue" d="M906.592,-467.746C1011.14,-439.503 1208.17,-387.5 1241.5,-387.5 1241.5,-387.5 1241.5,-387.5 1609.5,-387.5 1738.89,-387.5 1778.95,-360.802 1900,-406.5 1940.15,-421.656 1977.44,-458.172 1993.8,-475.739"/>
<polygon fill="midnightblue" stroke="midnightblue" points="905.511,-464.412 896.772,-470.402 907.339,-471.17 905.511,-464.412"/>
</g>
<!-- Node20 -->
<g id="node20" class="node"><title>Node20</title>
<g id="a_node20"><a xlink:href="classMainWindow.html#a29e6418f12a4331860a7db3616e91600" target="_top" xlink:title="updates the YUV information GUI elements from the current Renderobject ">
<polygon fill="white" stroke="black" points="971,-470.5 971,-500.5 1120,-500.5 1120,-470.5 971,-470.5"/>
<text text-anchor="start" x="979" y="-488.5" font-family="Helvetica,sans-Serif" font-size="10.00">MainWindow::updateSelection</text>
<text text-anchor="middle" x="1045.5" y="-477.5" font-family="Helvetica,sans-Serif" font-size="10.00">MetaInfo</text>
</a>
</g>
</g>
<!-- Node19&#45;&gt;Node20 -->
<g id="edge22" class="edge"><title>Node19&#45;&gt;Node20</title>
<path fill="none" stroke="midnightblue" d="M918.995,-478.921C936.027,-478.674 954.015,-478.695 970.888,-478.982"/>
<polygon fill="midnightblue" stroke="midnightblue" points="918.468,-475.429 908.532,-479.109 918.594,-482.428 918.468,-475.429"/>
</g>
<!-- Node20&#45;&gt;Node19 -->
<g id="edge34" class="edge"><title>Node20&#45;&gt;Node19</title>
<path fill="none" stroke="midnightblue" d="M960.745,-492.157C943.348,-492.341 925.234,-492.252 908.532,-491.891"/>
<polygon fill="midnightblue" stroke="midnightblue" points="960.937,-495.655 970.888,-492.018 960.841,-488.656 960.937,-495.655"/>
</g>
<!-- Node21 -->
<g id="node21" class="node"><title>Node21</title>
<g id="a_node21"><a xlink:href="classMainWindow.html#a6f33e93f427ff2df80edffcb3ad944da" target="_top" xlink:title="MainWindow::updateSelected\lItems">
<polygon fill="white" stroke="black" points="1353,-470.5 1353,-500.5 1499,-500.5 1499,-470.5 1353,-470.5"/>
<text text-anchor="start" x="1361" y="-488.5" font-family="Helvetica,sans-Serif" font-size="10.00">MainWindow::updateSelected</text>
<text text-anchor="middle" x="1426" y="-477.5" font-family="Helvetica,sans-Serif" font-size="10.00">Items</text>
</a>
</g>
</g>
<!-- Node20&#45;&gt;Node21 -->
<g id="edge23" class="edge"><title>Node20&#45;&gt;Node21</title>
<path fill="none" stroke="midnightblue" d="M1130.16,-487.837C1142.84,-488.112 1155.76,-488.349 1168,-488.5 1234.22,-489.317 1250.78,-489.419 1317,-488.5 1328.63,-488.339 1340.96,-488.079 1352.97,-487.779"/>
<polygon fill="midnightblue" stroke="midnightblue" points="1130.14,-484.336 1120.06,-487.608 1129.98,-491.334 1130.14,-484.336"/>
</g>
<!-- Node26 -->
<g id="node26" class="node"><title>Node26</title>
<g id="a_node26"><a xlink:href="classMainWindow.html#a23cc43af3c6873f9a936b5af05c99f49" target="_top" xlink:title="The display objects information changed. Update. ">
<polygon fill="white" stroke="black" points="1168,-448.5 1168,-478.5 1317,-478.5 1317,-448.5 1168,-448.5"/>
<text text-anchor="start" x="1176" y="-466.5" font-family="Helvetica,sans-Serif" font-size="10.00">MainWindow::currentSelection</text>
<text text-anchor="middle" x="1242.5" y="-455.5" font-family="Helvetica,sans-Serif" font-size="10.00">InformationChanged</text>
</a>
</g>
</g>
<!-- Node20&#45;&gt;Node26 -->
<g id="edge35" class="edge"><title>Node20&#45;&gt;Node26</title>
<path fill="none" stroke="midnightblue" d="M1130.22,-476.055C1142.78,-474.637 1155.66,-473.184 1168,-471.793"/>
<polygon fill="midnightblue" stroke="midnightblue" points="1129.77,-472.584 1120.22,-477.183 1130.55,-479.539 1129.77,-472.584"/>
</g>
<!-- Node21&#45;&gt;Node13 -->
<g id="edge24" class="edge"><title>Node21&#45;&gt;Node13</title>
<path fill="none" stroke="midnightblue" d="M1509.17,-484.456C1603.52,-483.42 1762.94,-482.163 1900,-483.5 1911.57,-483.613 1923.87,-483.797 1935.79,-484.01"/>
<polygon fill="midnightblue" stroke="midnightblue" points="1509.08,-480.957 1499.12,-484.569 1509.16,-487.957 1509.08,-480.957"/>
</g>
<!-- Node22 -->
<g id="node22" class="node"><title>Node22</title>
<g id="a_node22"><a xlink:href="classMainWindow.html#a6be7246a1a0ecf5d1442bb1775c3d9b3" target="_top" xlink:title="MainWindow::addDifference\lSequence">
<polygon fill="white" stroke="black" points="1538.5,-533.5 1538.5,-563.5 1678.5,-563.5 1678.5,-533.5 1538.5,-533.5"/>
<text text-anchor="start" x="1546.5" y="-551.5" font-family="Helvetica,sans-Serif" font-size="10.00">MainWindow::addDifference</text>
<text text-anchor="middle" x="1608.5" y="-540.5" font-family="Helvetica,sans-Serif" font-size="10.00">Sequence</text>
</a>
</g>
</g>
<!-- Node21&#45;&gt;Node22 -->
<g id="edge25" class="edge"><title>Node21&#45;&gt;Node22</title>
<path fill="none" stroke="midnightblue" d="M1479.15,-503.922C1496.86,-510.161 1516.79,-517.156 1535,-523.5 1544.3,-526.741 1554.29,-530.197 1563.78,-533.473"/>
<polygon fill="midnightblue" stroke="midnightblue" points="1480.15,-500.564 1469.55,-500.541 1477.82,-507.166 1480.15,-500.564"/>
</g>
<!-- Node23 -->
<g id="node23" class="node"><title>Node23</title>
<g id="a_node23"><a xlink:href="classMainWindow.html#af5ecc7c65080215b49b9d931c56c65c9" target="_top" xlink:title="MainWindow::editTextFrame">
<polygon fill="white" stroke="black" points="1537.5,-495 1537.5,-514 1679.5,-514 1679.5,-495 1537.5,-495"/>
<text text-anchor="middle" x="1608.5" y="-502" font-family="Helvetica,sans-Serif" font-size="10.00">MainWindow::editTextFrame</text>
</a>
</g>
</g>
<!-- Node21&#45;&gt;Node23 -->
<g id="edge28" class="edge"><title>Node21&#45;&gt;Node23</title>
<path fill="none" stroke="midnightblue" d="M1509.22,-494.154C1518.58,-495.141 1528.07,-496.139 1537.26,-497.107"/>
<polygon fill="midnightblue" stroke="midnightblue" points="1509.43,-490.657 1499.12,-493.091 1508.7,-497.619 1509.43,-490.657"/>
</g>
<!-- Node25 -->
<g id="node25" class="node"><title>Node25</title>
<g id="a_node25"><a xlink:href="classMainWindow.html#a156c29c6d7ab278e4246c88a0fcbe2f2" target="_top" xlink:title="MainWindow::updateSettings">
<polygon fill="white" stroke="black" points="1737,-416 1737,-435 1881,-435 1881,-416 1737,-416"/>
<text text-anchor="middle" x="1809" y="-423" font-family="Helvetica,sans-Serif" font-size="10.00">MainWindow::updateSettings</text>
</a>
</g>
</g>
<!-- Node21&#45;&gt;Node25 -->
<g id="edge32" class="edge"><title>Node21&#45;&gt;Node25</title>
<path fill="none" stroke="midnightblue" d="M1474.33,-467.056C1492.97,-460.5 1514.73,-453.708 1535,-449.5 1602.66,-435.451 1681.43,-429.618 1736.92,-427.201"/>
<polygon fill="midnightblue" stroke="midnightblue" points="1473.12,-463.772 1464.89,-470.448 1475.48,-470.359 1473.12,-463.772"/>
</g>
<!-- Node22&#45;&gt;Node12 -->
<g id="edge26" class="edge"><title>Node22&#45;&gt;Node12</title>
<path fill="none" stroke="midnightblue" d="M1682.68,-565.827C1702.99,-570.636 1724.87,-575.816 1744.57,-580.481"/>
<polygon fill="midnightblue" stroke="midnightblue" points="1683.39,-562.399 1672.85,-563.5 1681.78,-569.21 1683.39,-562.399"/>
</g>
<!-- Node22&#45;&gt;Node14 -->
<g id="edge27" class="edge"><title>Node22&#45;&gt;Node14</title>
<path fill="none" stroke="midnightblue" d="M1688.86,-549.699C1698.37,-549.843 1708.15,-549.991 1717.8,-550.137"/>
<polygon fill="midnightblue" stroke="midnightblue" points="1688.7,-546.197 1678.65,-549.545 1688.59,-553.196 1688.7,-546.197"/>
</g>
<!-- Node23&#45;&gt;Node14 -->
<g id="edge29" class="edge"><title>Node23&#45;&gt;Node14</title>
<path fill="none" stroke="midnightblue" d="M1654.87,-516.688C1674.27,-521.774 1697.19,-527.622 1718,-532.5 1731.84,-535.744 1746.93,-539.029 1760.74,-541.935"/>
<polygon fill="midnightblue" stroke="midnightblue" points="1655.64,-513.271 1645.07,-514.106 1653.85,-520.04 1655.64,-513.271"/>
</g>
<!-- Node24 -->
<g id="node24" class="node"><title>Node24</title>
<g id="a_node24"><a xlink:href="classMainWindow.html#ab18c663524e2c130759c0ca960129ea4" target="_top" xlink:title="MainWindow::onItemDouble\lClicked">
<polygon fill="white" stroke="black" points="1739,-492.5 1739,-522.5 1879,-522.5 1879,-492.5 1739,-492.5"/>
<text text-anchor="start" x="1747" y="-510.5" font-family="Helvetica,sans-Serif" font-size="10.00">MainWindow::onItemDouble</text>
<text text-anchor="middle" x="1809" y="-499.5" font-family="Helvetica,sans-Serif" font-size="10.00">Clicked</text>
</a>
</g>
</g>
<!-- Node23&#45;&gt;Node24 -->
<g id="edge30" class="edge"><title>Node23&#45;&gt;Node24</title>
<path fill="none" stroke="midnightblue" d="M1689.78,-505.713C1706.04,-505.959 1723,-506.215 1738.83,-506.455"/>
<polygon fill="midnightblue" stroke="midnightblue" points="1689.81,-502.214 1679.76,-505.562 1689.71,-509.213 1689.81,-502.214"/>
</g>
<!-- Node24&#45;&gt;Node13 -->
<g id="edge31" class="edge"><title>Node24&#45;&gt;Node13</title>
<path fill="none" stroke="midnightblue" d="M1889.28,-498.439C1904.75,-496.672 1920.81,-494.835 1935.82,-493.121"/>
<polygon fill="midnightblue" stroke="midnightblue" points="1888.76,-494.976 1879.22,-499.589 1889.56,-501.93 1888.76,-494.976"/>
</g>
<!-- Node25&#45;&gt;Node13 -->
<g id="edge33" class="edge"><title>Node25&#45;&gt;Node13</title>
<path fill="none" stroke="midnightblue" d="M1857.97,-437.559C1871.62,-441.186 1886.45,-445.32 1900,-449.5 1926.49,-457.672 1956.36,-468.329 1976.99,-475.923"/>
<polygon fill="midnightblue" stroke="midnightblue" points="1858.85,-434.169 1848.28,-435.013 1857.07,-440.94 1858.85,-434.169"/>
</g>
<!-- Node26&#45;&gt;Node21 -->
<g id="edge36" class="edge"><title>Node26&#45;&gt;Node21</title>
<path fill="none" stroke="midnightblue" d="M1327.09,-473.632C1335.68,-474.673 1344.35,-475.725 1352.81,-476.749"/>
<polygon fill="midnightblue" stroke="midnightblue" points="1327.41,-470.145 1317.06,-472.417 1326.57,-477.094 1327.41,-470.145"/>
</g>
<!-- Node28 -->
<g id="node28" class="node"><title>Node28</title>
<g id="a_node28"><a xlink:href="classMainWindow.html#a704745d0944b860342ac8bdb6867491c" target="_top" xlink:title="TODO: Should this also be in updateSelectionMetaInfo and the signal/slot? ">
<polygon fill="white" stroke="black" points="758.5,-421.5 758.5,-451.5 922.5,-451.5 922.5,-421.5 758.5,-421.5"/>
<text text-anchor="start" x="766.5" y="-439.5" font-family="Helvetica,sans-Serif" font-size="10.00">MainWindow::on_interpolation</text>
<text text-anchor="middle" x="840.5" y="-428.5" font-family="Helvetica,sans-Serif" font-size="10.00">ComboBox_currentIndexChanged</text>
</a>
</g>
</g>
<!-- Node27&#45;&gt;Node28 -->
<g id="edge38" class="edge"><title>Node27&#45;&gt;Node28</title>
<path fill="none" stroke="midnightblue" d="M723.1,-428.777C734.89,-429.559 746.862,-430.353 758.421,-431.12"/>
<polygon fill="midnightblue" stroke="midnightblue" points="723.012,-425.263 712.802,-428.094 722.549,-432.248 723.012,-425.263"/>
</g>
<!-- Node30 -->
<g id="node30" class="node"><title>Node30</title>
<g id="a_node30"><a xlink:href="classMainWindow.html#aa8d01c48d2abb3c4bfaf0fbb387a79b4" target="_top" xlink:title="MainWindow::on_colorConversion\lComboBox_currentIndexChanged">
<polygon fill="white" stroke="black" points="758,-372.5 758,-402.5 923,-402.5 923,-372.5 758,-372.5"/>
<text text-anchor="start" x="766" y="-390.5" font-family="Helvetica,sans-Serif" font-size="10.00">MainWindow::on_colorConversion</text>
<text text-anchor="middle" x="840.5" y="-379.5" font-family="Helvetica,sans-Serif" font-size="10.00">ComboBox_currentIndexChanged</text>
</a>
</g>
</g>
<!-- Node29&#45;&gt;Node30 -->
<g id="edge40" class="edge"><title>Node29&#45;&gt;Node30</title>
<path fill="none" stroke="midnightblue" d="M732.34,-378.358C740.93,-379.091 749.535,-379.825 757.927,-380.541"/>
<polygon fill="midnightblue" stroke="midnightblue" points="732.538,-374.863 722.276,-377.5 731.943,-381.837 732.538,-374.863"/>
</g>
<!-- Node32 -->
<g id="node32" class="node"><title>Node32</title>
<g id="a_node32"><a xlink:href="classMainWindow.html#a3e50d275dfc7ac5871360412dd83f7eb" target="_top" xlink:title="MainWindow::on_LumaScale\lSpinBox_valueChanged">
<polygon fill="white" stroke="black" points="769,-323.5 769,-353.5 912,-353.5 912,-323.5 769,-323.5"/>
<text text-anchor="start" x="777" y="-341.5" font-family="Helvetica,sans-Serif" font-size="10.00">MainWindow::on_LumaScale</text>
<text text-anchor="middle" x="840.5" y="-330.5" font-family="Helvetica,sans-Serif" font-size="10.00">SpinBox_valueChanged</text>
</a>
</g>
</g>
<!-- Node31&#45;&gt;Node32 -->
<g id="edge42" class="edge"><title>Node31&#45;&gt;Node32</title>
<path fill="none" stroke="midnightblue" d="M708.153,-322.938C728.093,-325.3 749.346,-327.818 768.817,-330.125"/>
<polygon fill="midnightblue" stroke="midnightblue" points="708.516,-319.456 698.174,-321.755 707.693,-326.408 708.516,-319.456"/>
</g>
<!-- Node33 -->
<g id="node33" class="node"><title>Node33</title>
<g id="a_node33"><a xlink:href="classMainWindow.html#a1836ff843ea4ed48e29ab90b08050bf7" target="_top" xlink:title="MainWindow::on_ColorComponents\lComboBox_currentIndexChanged">
<polygon fill="white" stroke="black" points="959,-213.5 959,-243.5 1132,-243.5 1132,-213.5 959,-213.5"/>
<text text-anchor="start" x="967" y="-231.5" font-family="Helvetica,sans-Serif" font-size="10.00">MainWindow::on_ColorComponents</text>
<text text-anchor="middle" x="1045.5" y="-220.5" font-family="Helvetica,sans-Serif" font-size="10.00">ComboBox_currentIndexChanged</text>
</a>
</g>
</g>
<!-- Node32&#45;&gt;Node33 -->
<g id="edge43" class="edge"><title>Node32&#45;&gt;Node33</title>
<path fill="none" stroke="midnightblue" d="M897.371,-319.878C906.093,-316.418 914.895,-312.592 923,-308.5 960.877,-289.379 1001.37,-260.901 1024.73,-243.582"/>
<polygon fill="midnightblue" stroke="midnightblue" points="896.057,-316.634 887.975,-323.484 898.565,-323.169 896.057,-316.634"/>
</g>
<!-- Node34&#45;&gt;Node33 -->
<g id="edge47" class="edge"><title>Node34&#45;&gt;Node33</title>
<path fill="none" stroke="midnightblue" d="M691.488,-273.496C751.516,-282.047 844.173,-290.215 923,-275.5 955.46,-269.441 990.414,-255.006 1014.46,-243.719"/>
<polygon fill="midnightblue" stroke="midnightblue" points="691.81,-270.005 681.407,-272.012 690.79,-276.931 691.81,-270.005"/>
</g>
<!-- Node35 -->
<g id="node35" class="node"><title>Node35</title>
<g id="a_node35"><a xlink:href="classMainWindow.html#aa8b7f37af858513162a091d7f81561b4" target="_top" xlink:title="MainWindow::on_ChromaScale\lSpinBox_valueChanged">
<polygon fill="white" stroke="black" points="763.5,-235.5 763.5,-265.5 917.5,-265.5 917.5,-235.5 763.5,-235.5"/>
<text text-anchor="start" x="771.5" y="-253.5" font-family="Helvetica,sans-Serif" font-size="10.00">MainWindow::on_ChromaScale</text>
<text text-anchor="middle" x="840.5" y="-242.5" font-family="Helvetica,sans-Serif" font-size="10.00">SpinBox_valueChanged</text>
</a>
</g>
</g>
<!-- Node34&#45;&gt;Node35 -->
<g id="edge45" class="edge"><title>Node34&#45;&gt;Node35</title>
<path fill="none" stroke="midnightblue" d="M717.084,-257.462C732.454,-256.588 748.317,-255.686 763.319,-254.833"/>
<polygon fill="midnightblue" stroke="midnightblue" points="716.854,-253.969 707.069,-258.032 717.251,-260.958 716.854,-253.969"/>
</g>
<!-- Node35&#45;&gt;Node33 -->
<g id="edge46" class="edge"><title>Node35&#45;&gt;Node33</title>
<path fill="none" stroke="midnightblue" d="M927.81,-241.146C938.039,-240.038 948.479,-238.906 958.701,-237.798"/>
<polygon fill="midnightblue" stroke="midnightblue" points="927.232,-237.688 917.667,-242.245 927.986,-244.648 927.232,-237.688"/>
</g>
<!-- Node36&#45;&gt;Node33 -->
<g id="edge50" class="edge"><title>Node36&#45;&gt;Node33</title>
<path fill="none" stroke="midnightblue" d="M716.942,-224.878C775.426,-225.182 853.789,-225.695 923,-226.5 934.602,-226.635 946.827,-226.804 958.872,-226.987"/>
<polygon fill="midnightblue" stroke="midnightblue" points="716.647,-221.376 706.629,-224.825 716.611,-228.376 716.647,-221.376"/>
</g>
<!-- Node36&#45;&gt;Node35 -->
<g id="edge49" class="edge"><title>Node36&#45;&gt;Node35</title>
<path fill="none" stroke="midnightblue" d="M716.06,-235.289C731.707,-237.217 747.896,-239.212 763.196,-241.098"/>
<polygon fill="midnightblue" stroke="midnightblue" points="716.223,-231.783 705.87,-234.034 715.367,-238.731 716.223,-231.783"/>
</g>
<!-- Node38 -->
<g id="node38" class="node"><title>Node38</title>
<g id="a_node38"><a xlink:href="classMainWindow.html#ab0e3857ccb336133d522cde81e73988e" target="_top" xlink:title="MainWindow::on_LumaOffset\lSpinBox_valueChanged">
<polygon fill="white" stroke="black" points="767.5,-147.5 767.5,-177.5 913.5,-177.5 913.5,-147.5 767.5,-147.5"/>
<text text-anchor="start" x="775.5" y="-165.5" font-family="Helvetica,sans-Serif" font-size="10.00">MainWindow::on_LumaOffset</text>
<text text-anchor="middle" x="840.5" y="-154.5" font-family="Helvetica,sans-Serif" font-size="10.00">SpinBox_valueChanged</text>
</a>
</g>
</g>
<!-- Node37&#45;&gt;Node38 -->
<g id="edge52" class="edge"><title>Node37&#45;&gt;Node38</title>
<path fill="none" stroke="midnightblue" d="M709.216,-175.467C728.299,-173.567 748.529,-171.554 767.212,-169.695"/>
<polygon fill="midnightblue" stroke="midnightblue" points="708.657,-172.005 699.053,-176.478 709.351,-178.97 708.657,-172.005"/>
</g>
<!-- Node38&#45;&gt;Node33 -->
<g id="edge53" class="edge"><title>Node38&#45;&gt;Node33</title>
<path fill="none" stroke="midnightblue" d="M897.375,-180.666C929.003,-190.949 968.094,-203.658 998.03,-213.392"/>
<polygon fill="midnightblue" stroke="midnightblue" points="898.41,-177.322 887.818,-177.559 896.246,-183.979 898.41,-177.322"/>
</g>
<!-- Node40 -->
<g id="node40" class="node"><title>Node40</title>
<g id="a_node40"><a xlink:href="classMainWindow.html#adac0478ee9ee4dd30f05fc7f5d300825" target="_top" xlink:title="MainWindow::on_ChromaOffset\lSpinBox_valueChanged">
<polygon fill="white" stroke="black" points="762.5,-98.5 762.5,-128.5 918.5,-128.5 918.5,-98.5 762.5,-98.5"/>
<text text-anchor="start" x="770.5" y="-116.5" font-family="Helvetica,sans-Serif" font-size="10.00">MainWindow::on_ChromaOffset</text>
<text text-anchor="middle" x="840.5" y="-105.5" font-family="Helvetica,sans-Serif" font-size="10.00">SpinBox_valueChanged</text>
</a>
</g>
</g>
<!-- Node39&#45;&gt;Node40 -->
<g id="edge55" class="edge"><title>Node39&#45;&gt;Node40</title>
<path fill="none" stroke="midnightblue" d="M714.908,-128.853C730.631,-126.915 746.939,-124.906 762.372,-123.004"/>
<polygon fill="midnightblue" stroke="midnightblue" points="714.173,-125.417 704.676,-130.113 715.029,-132.364 714.173,-125.417"/>
</g>
<!-- Node40&#45;&gt;Node33 -->
<g id="edge56" class="edge"><title>Node40&#45;&gt;Node33</title>
<path fill="none" stroke="midnightblue" d="M908.882,-132.156C913.737,-134.11 918.492,-136.224 923,-138.5 964.007,-159.206 1005.73,-193.66 1028.02,-213.39"/>
<polygon fill="midnightblue" stroke="midnightblue" points="910.051,-128.856 899.46,-128.594 907.576,-135.404 910.051,-128.856"/>
</g>
<!-- Node42 -->
<g id="node42" class="node"><title>Node42</title>
<g id="a_node42"><a xlink:href="classMainWindow.html#a7f6cbe2be23224eb9eef6af3f55a6d4f" target="_top" xlink:title="MainWindow::on_LumaInvert\lCheckBox_toggled">
<polygon fill="white" stroke="black" points="769,-49.5 769,-79.5 912,-79.5 912,-49.5 769,-49.5"/>
<text text-anchor="start" x="777" y="-67.5" font-family="Helvetica,sans-Serif" font-size="10.00">MainWindow::on_LumaInvert</text>
<text text-anchor="middle" x="840.5" y="-56.5" font-family="Helvetica,sans-Serif" font-size="10.00">CheckBox_toggled</text>
</a>
</g>
</g>
<!-- Node41&#45;&gt;Node42 -->
<g id="edge58" class="edge"><title>Node41&#45;&gt;Node42</title>
<path fill="none" stroke="midnightblue" d="M708.153,-80.6849C728.093,-78.2278 749.346,-75.609 768.817,-73.2097"/>
<polygon fill="midnightblue" stroke="midnightblue" points="707.671,-77.2178 698.174,-81.9146 708.527,-84.1652 707.671,-77.2178"/>
</g>
<!-- Node44 -->
<g id="node44" class="node"><title>Node44</title>
<g id="a_node44"><a xlink:href="classMainWindow.html#aaa518172394694dea45234097327e979" target="_top" xlink:title="MainWindow::on_ChromaInvert\lCheckBox_toggled">
<polygon fill="white" stroke="black" points="763.5,-0.5 763.5,-30.5 917.5,-30.5 917.5,-0.5 763.5,-0.5"/>
<text text-anchor="start" x="771.5" y="-18.5" font-family="Helvetica,sans-Serif" font-size="10.00">MainWindow::on_ChromaInvert</text>
<text text-anchor="middle" x="840.5" y="-7.5" font-family="Helvetica,sans-Serif" font-size="10.00">CheckBox_toggled</text>
</a>
</g>
</g>
<!-- Node43&#45;&gt;Node44 -->
<g id="edge60" class="edge"><title>Node43&#45;&gt;Node44</title>
<path fill="none" stroke="midnightblue" d="M713.845,-24.4328C730.169,-23.2723 747.162,-22.0643 763.18,-20.9256"/>
<polygon fill="midnightblue" stroke="midnightblue" points="713.509,-20.9478 703.782,-25.1482 714.005,-27.9302 713.509,-20.9478"/>
</g>
</g>
</svg>
