<?xml version="1.0" encoding="UTF-8" standalone="no"?>
<!DOCTYPE svg PUBLIC "-//W3C//DTD SVG 1.1//EN"
 "http://www.w3.org/Graphics/SVG/1.1/DTD/svg11.dtd">
<!-- Generated by graphviz version 2.38.0 (20140413.2041)
 -->
<!-- Title: YUVSource::getPath Pages: 1 -->
<svg width="804pt" height="88pt"
 viewBox="0.00 0.00 804.00 88.00" xmlns="http://www.w3.org/2000/svg" xmlns:xlink="http://www.w3.org/1999/xlink">
<g id="graph0" class="graph" transform="scale(1 1) rotate(0) translate(4 84)">
<title>YUVSource::getPath</title>
<polygon fill="white" stroke="none" points="-4,4 -4,-84 800,-84 800,4 -4,4"/>
<!-- Node1 -->
<g id="node1" class="node"><title>Node1</title>
<polygon fill="#bfbfbf" stroke="black" points="0,-41.5 0,-60.5 108,-60.5 108,-41.5 0,-41.5"/>
<text text-anchor="middle" x="54" y="-48.5" font-family="Helvetica,sans-Serif" font-size="10.00">YUVSource::getPath</text>
</g>
<!-- Node2 -->
<g id="node2" class="node"><title>Node2</title>
<g id="a_node2"><a xlink:href="classFrameObject.html#a39f8c67a346a78a20cac63a33769a830" target="_top" xlink:title="FrameObject::getInfoList">
<polygon fill="white" stroke="black" points="144,-60.5 144,-79.5 269,-79.5 269,-60.5 144,-60.5"/>
<text text-anchor="middle" x="206.5" y="-67.5" font-family="Helvetica,sans-Serif" font-size="10.00">FrameObject::getInfoList</text>
</a>
</g>
</g>
<!-- Node1&#45;&gt;Node2 -->
<g id="edge1" class="edge"><title>Node1&#45;&gt;Node2</title>
<path fill="none" stroke="midnightblue" d="M117.999,-58.9533C126.573,-60.0358 135.366,-61.1459 143.915,-62.2252"/>
<polygon fill="midnightblue" stroke="midnightblue" points="118.42,-55.4789 108.061,-57.6987 117.544,-62.4237 118.42,-55.4789"/>
</g>
<!-- Node3 -->
<g id="node3" class="node"><title>Node3</title>
<g id="a_node3"><a xlink:href="classFrameObject.html#a7822bdd934cc5a230899558718436788" target="_top" xlink:title="FrameObject::path">
<polygon fill="white" stroke="black" points="157.5,-22.5 157.5,-41.5 255.5,-41.5 255.5,-22.5 157.5,-22.5"/>
<text text-anchor="middle" x="206.5" y="-29.5" font-family="Helvetica,sans-Serif" font-size="10.00">FrameObject::path</text>
</a>
</g>
</g>
<!-- Node1&#45;&gt;Node3 -->
<g id="edge2" class="edge"><title>Node1&#45;&gt;Node3</title>
<path fill="none" stroke="midnightblue" d="M118.015,-43.0446C131.2,-41.3801 144.9,-39.6505 157.436,-38.0678"/>
<polygon fill="midnightblue" stroke="midnightblue" points="117.544,-39.5763 108.061,-44.3013 118.42,-46.5211 117.544,-39.5763"/>
</g>
<!-- Node4 -->
<g id="node4" class="node"><title>Node4</title>
<g id="a_node4"><a xlink:href="classMainWindow.html#a88624964fbb9d67df9149b29fab6f225" target="_top" xlink:title="MainWindow::savePlaylist\lToFile">
<polygon fill="white" stroke="black" points="305,-17 305,-47 437,-47 437,-17 305,-17"/>
<text text-anchor="start" x="313" y="-35" font-family="Helvetica,sans-Serif" font-size="10.00">MainWindow::savePlaylist</text>
<text text-anchor="middle" x="371" y="-24" font-family="Helvetica,sans-Serif" font-size="10.00">ToFile</text>
</a>
</g>
</g>
<!-- Node3&#45;&gt;Node4 -->
<g id="edge3" class="edge"><title>Node3&#45;&gt;Node4</title>
<path fill="none" stroke="midnightblue" d="M266.126,-32C278.653,-32 291.961,-32 304.721,-32"/>
<polygon fill="midnightblue" stroke="midnightblue" points="265.815,-28.5001 255.815,-32 265.815,-35.5001 265.815,-28.5001"/>
</g>
<!-- Node5 -->
<g id="node5" class="node"><title>Node5</title>
<g id="a_node5"><a xlink:href="classMainWindow.html#a9df7443ce5f907903438bb6a9abe9a33" target="_top" xlink:title="MainWindow::createMenusAnd\lActions">
<polygon fill="white" stroke="black" points="473,-39 473,-69 625,-69 625,-39 473,-39"/>
<text text-anchor="start" x="481" y="-57" font-family="Helvetica,sans-Serif" font-size="10.00">MainWindow::createMenusAnd</text>
<text text-anchor="middle" x="549" y="-46" font-family="Helvetica,sans-Serif" font-size="10.00">Actions</text>
</a>
</g>
</g>
<!-- Node4&#45;&gt;Node5 -->
<g id="edge4" class="edge"><title>Node4&#45;&gt;Node5</title>
<path fill="none" stroke="midnightblue" d="M446.985,-41.3731C455.543,-42.4428 464.268,-43.5336 472.829,-44.6036"/>
<polygon fill="midnightblue" stroke="midnightblue" points="447.393,-37.8969 437.036,-40.1295 446.524,-44.8429 447.393,-37.8969"/>
</g>
<!-- Node7 -->
<g id="node7" class="node"><title>Node7</title>
<g id="a_node7"><a xlink:href="classMainWindow.html#a4e20a4a065fbb0e4d3532a45a0a91425" target="_top" xlink:title="MainWindow::closeEvent">
<polygon fill="white" stroke="black" points="485,-0.5 485,-19.5 613,-19.5 613,-0.5 485,-0.5"/>
<text text-anchor="middle" x="549" y="-7.5" font-family="Helvetica,sans-Serif" font-size="10.00">MainWindow::closeEvent</text>
</a>
</g>
</g>
<!-- Node4&#45;&gt;Node7 -->
<g id="edge6" class="edge"><title>Node4&#45;&gt;Node7</title>
<path fill="none" stroke="midnightblue" d="M447.069,-22.6163C459.703,-21.0371 472.7,-19.4125 484.988,-17.8765"/>
<polygon fill="midnightblue" stroke="midnightblue" points="446.524,-19.1571 437.036,-23.8705 447.393,-26.1031 446.524,-19.1571"/>
</g>
<!-- Node6 -->
<g id="node6" class="node"><title>Node6</title>
<g id="a_node6"><a xlink:href="classMainWindow.html#a8b244be8b7b7db1b08de2a2acb9409db" target="_top" xlink:title="MainWindow::MainWindow">
<polygon fill="white" stroke="black" points="661,-44.5 661,-63.5 796,-63.5 796,-44.5 661,-44.5"/>
<text text-anchor="middle" x="728.5" y="-51.5" font-family="Helvetica,sans-Serif" font-size="10.00">MainWindow::MainWindow</text>
</a>
</g>
</g>
<!-- Node5&#45;&gt;Node6 -->
<g id="edge5" class="edge"><title>Node5&#45;&gt;Node6</title>
<path fill="none" stroke="midnightblue" d="M635.138,-54C643.793,-54 652.494,-54 660.911,-54"/>
<polygon fill="midnightblue" stroke="midnightblue" points="635.019,-50.5001 625.019,-54 635.019,-57.5001 635.019,-50.5001"/>
</g>
</g>
</svg>
