<?xml version="1.0" encoding="UTF-8" standalone="no"?>
<!DOCTYPE svg PUBLIC "-//W3C//DTD SVG 1.1//EN"
 "http://www.w3.org/Graphics/SVG/1.1/DTD/svg11.dtd">
<!-- Generated by graphviz version 2.38.0 (20140413.2041)
 -->
<!-- Title: YUVSource Pages: 1 -->
<svg width="670pt" height="173pt"
 viewBox="0.00 0.00 670.00 173.00" xmlns="http://www.w3.org/2000/svg" xmlns:xlink="http://www.w3.org/1999/xlink">
<g id="graph0" class="graph" transform="scale(1 1) rotate(0) translate(4 169)">
<title>YUVSource</title>
<polygon fill="white" stroke="none" points="-4,4 -4,-169 666,-169 666,4 -4,4"/>
<!-- Node1 -->
<g id="node1" class="node"><title>Node1</title>
<polygon fill="#bfbfbf" stroke="black" points="261.5,-0.5 261.5,-19.5 329.5,-19.5 329.5,-0.5 261.5,-0.5"/>
<text text-anchor="middle" x="295.5" y="-7.5" font-family="Helvetica,sans-Serif" font-size="10.00">YUVSource</text>
</g>
<!-- Node2 -->
<g id="node2" class="node"><title>Node2</title>
<g id="a_node2"><a xlink:href="classQObject.html" target="_top" xlink:title="QObject">
<polygon fill="white" stroke="black" points="0,-78.5 0,-97.5 53,-97.5 53,-78.5 0,-78.5"/>
<text text-anchor="middle" x="26.5" y="-85.5" font-family="Helvetica,sans-Serif" font-size="10.00">QObject</text>
</a>
</g>
</g>
<!-- Node2&#45;&gt;Node1 -->
<g id="edge1" class="edge"><title>Node2&#45;&gt;Node1</title>
<path fill="none" stroke="midnightblue" d="M47.8603,-72.9309C65.9326,-61.7026 92.9044,-46.493 118.5,-38 166.59,-22.0431 225.198,-15.4602 261.434,-12.7832"/>
<polygon fill="midnightblue" stroke="midnightblue" points="45.8405,-70.0675 39.2754,-78.3831 49.5933,-75.9765 45.8405,-70.0675"/>
</g>
<!-- Node3 -->
<g id="node3" class="node"><title>Node3</title>
<g id="a_node3"><a xlink:title="STL class. ">
<polygon fill="white" stroke="#bfbfbf" points="71.5,-78.5 71.5,-97.5 163.5,-97.5 163.5,-78.5 71.5,-78.5"/>
<text text-anchor="middle" x="117.5" y="-85.5" font-family="Helvetica,sans-Serif" font-size="10.00">std::map&lt; K, T &gt;</text>
</a>
</g>
</g>
<!-- Node3&#45;&gt;Node1 -->
<g id="edge2" class="edge"><title>Node3&#45;&gt;Node1</title>
<path fill="none" stroke="#9a32cd" stroke-dasharray="5,2" d="M119.407,-68.0254C121.46,-57.6464 125.711,-45.4255 134.5,-38 153.173,-22.2242 219.782,-15.4495 261.248,-12.7085"/>
<polygon fill="#9a32cd" stroke="#9a32cd" points="115.896,-67.8533 117.931,-78.2507 122.824,-68.8534 115.896,-67.8533"/>
<text text-anchor="middle" x="175" y="-46.5" font-family="Helvetica,sans-Serif" font-size="10.00"> g_pixelFormatList</text>
</g>
<!-- Node4 -->
<g id="node4" class="node"><title>Node4</title>
<polygon fill="white" stroke="#bfbfbf" points="79,-145.5 79,-164.5 108,-164.5 108,-145.5 79,-145.5"/>
<text text-anchor="middle" x="93.5" y="-152.5" font-family="Helvetica,sans-Serif" font-size="10.00">K</text>
</g>
<!-- Node4&#45;&gt;Node3 -->
<g id="edge3" class="edge"><title>Node4&#45;&gt;Node3</title>
<path fill="none" stroke="#9a32cd" stroke-dasharray="5,2" d="M91.527,-135.005C91.5219,-128.774 92.2271,-121.931 94.5,-116 97.1441,-109.1 102.363,-102.736 107.162,-97.9219"/>
<polygon fill="#9a32cd" stroke="#9a32cd" points="88.0466,-135.448 92.1178,-145.229 95.035,-135.044 88.0466,-135.448"/>
<text text-anchor="middle" x="107" y="-119" font-family="Helvetica,sans-Serif" font-size="10.00"> keys</text>
</g>
<!-- Node5 -->
<g id="node5" class="node"><title>Node5</title>
<polygon fill="white" stroke="#bfbfbf" points="127,-145.5 127,-164.5 156,-164.5 156,-145.5 127,-145.5"/>
<text text-anchor="middle" x="141.5" y="-152.5" font-family="Helvetica,sans-Serif" font-size="10.00">T</text>
</g>
<!-- Node5&#45;&gt;Node3 -->
<g id="edge4" class="edge"><title>Node5&#45;&gt;Node3</title>
<path fill="none" stroke="#9a32cd" stroke-dasharray="5,2" d="M134.776,-135.79C130.167,-123.308 124.262,-107.314 120.685,-97.6273"/>
<polygon fill="#9a32cd" stroke="#9a32cd" points="131.516,-137.065 138.263,-145.234 138.083,-134.641 131.516,-137.065"/>
<text text-anchor="middle" x="153" y="-119" font-family="Helvetica,sans-Serif" font-size="10.00"> elements</text>
</g>
<!-- Node6 -->
<g id="node6" class="node"><title>Node6</title>
<polygon fill="white" stroke="#bfbfbf" points="190,-78.5 190,-97.5 235,-97.5 235,-78.5 190,-78.5"/>
<text text-anchor="middle" x="212.5" y="-85.5" font-family="Helvetica,sans-Serif" font-size="10.00">double</text>
</g>
<!-- Node6&#45;&gt;Node1 -->
<g id="edge5" class="edge"><title>Node6&#45;&gt;Node1</title>
<path fill="none" stroke="#9a32cd" stroke-dasharray="5,2" d="M216.006,-68.381C218.74,-58.306 223.471,-46.2679 231.5,-38 239.649,-29.6082 250.811,-23.6994 261.533,-19.5968"/>
<polygon fill="#9a32cd" stroke="#9a32cd" points="212.562,-67.7452 213.763,-78.2717 219.388,-69.2935 212.562,-67.7452"/>
<text text-anchor="middle" x="261.5" y="-46.5" font-family="Helvetica,sans-Serif" font-size="10.00"> p_frameRate</text>
</g>
<!-- Node7 -->
<g id="node7" class="node"><title>Node7</title>
<polygon fill="white" stroke="#bfbfbf" points="261.5,-78.5 261.5,-97.5 329.5,-97.5 329.5,-78.5 261.5,-78.5"/>
<text text-anchor="middle" x="295.5" y="-85.5" font-family="Helvetica,sans-Serif" font-size="10.00">QByteArray</text>
</g>
<!-- Node7&#45;&gt;Node1 -->
<g id="edge6" class="edge"><title>Node7&#45;&gt;Node1</title>
<path fill="none" stroke="#9a32cd" stroke-dasharray="5,2" d="M295.5,-68.2239C295.5,-52.6974 295.5,-31.3582 295.5,-19.6165"/>
<polygon fill="#9a32cd" stroke="#9a32cd" points="292,-68.2818 295.5,-78.2818 299,-68.2819 292,-68.2818"/>
<text text-anchor="middle" x="334.5" y="-46.5" font-family="Helvetica,sans-Serif" font-size="10.00"> p_tmpBufferYUV</text>
</g>
<!-- Node8 -->
<g id="node8" class="node"><title>Node8</title>
<polygon fill="white" stroke="#bfbfbf" points="349.5,-78.5 349.5,-97.5 443.5,-97.5 443.5,-78.5 349.5,-78.5"/>
<text text-anchor="middle" x="396.5" y="-85.5" font-family="Helvetica,sans-Serif" font-size="10.00">InterpolationMode</text>
</g>
<!-- Node8&#45;&gt;Node1 -->
<g id="edge7" class="edge"><title>Node8&#45;&gt;Node1</title>
<path fill="none" stroke="#9a32cd" stroke-dasharray="5,2" d="M392.09,-68.4475C388.792,-58.2243 383.298,-46.0184 374.5,-38 362.18,-26.7723 344.987,-20.1835 329.785,-16.3315"/>
<polygon fill="#9a32cd" stroke="#9a32cd" points="388.729,-69.4261 394.777,-78.1248 395.474,-67.5529 388.729,-69.4261"/>
<text text-anchor="middle" x="435" y="-46.5" font-family="Helvetica,sans-Serif" font-size="10.00"> p_interpolationMode</text>
</g>
<!-- Node9 -->
<g id="node9" class="node"><title>Node9</title>
<polygon fill="white" stroke="#bfbfbf" points="496,-78.5 496,-97.5 525,-97.5 525,-78.5 496,-78.5"/>
<text text-anchor="middle" x="510.5" y="-85.5" font-family="Helvetica,sans-Serif" font-size="10.00">int</text>
</g>
<!-- Node9&#45;&gt;Node1 -->
<g id="edge8" class="edge"><title>Node9&#45;&gt;Node1</title>
<path fill="none" stroke="#9a32cd" stroke-dasharray="5,2" d="M505.43,-68.7916C501.489,-58.1068 494.902,-45.3076 484.5,-38 460.158,-20.8991 377.032,-14.5052 329.524,-12.2109"/>
<polygon fill="#9a32cd" stroke="#9a32cd" points="502.152,-70.0317 508.533,-78.4898 508.82,-67.8988 502.152,-70.0317"/>
<text text-anchor="middle" x="520" y="-52" font-family="Helvetica,sans-Serif" font-size="10.00"> p_width</text>
<text text-anchor="middle" x="520" y="-41" font-family="Helvetica,sans-Serif" font-size="10.00">p_height</text>
</g>
<!-- Node10 -->
<g id="node10" class="node"><title>Node10</title>
<polygon fill="white" stroke="#bfbfbf" points="543,-78.5 543,-97.5 662,-97.5 662,-78.5 543,-78.5"/>
<text text-anchor="middle" x="602.5" y="-85.5" font-family="Helvetica,sans-Serif" font-size="10.00">YUVCPixelFormatType</text>
</g>
<!-- Node10&#45;&gt;Node1 -->
<g id="edge9" class="edge"><title>Node10&#45;&gt;Node1</title>
<path fill="none" stroke="#9a32cd" stroke-dasharray="5,2" d="M587.791,-70.8057C576.56,-59.5751 560.067,-45.362 542.5,-38 504.903,-22.2438 388.191,-15.036 329.674,-12.3424"/>
<polygon fill="#9a32cd" stroke="#9a32cd" points="585.537,-73.5116 594.98,-78.3156 590.593,-68.6713 585.537,-73.5116"/>
<text text-anchor="middle" x="616.5" y="-46.5" font-family="Helvetica,sans-Serif" font-size="10.00"> p_srcPixelFormat</text>
</g>
</g>
</svg>
