<?xml version="1.0" encoding="UTF-8" standalone="no"?>
<!DOCTYPE svg PUBLIC "-//W3C//DTD SVG 1.1//EN"
 "http://www.w3.org/Graphics/SVG/1.1/DTD/svg11.dtd">
<!-- Generated by graphviz version 2.38.0 (20140413.2041)
 -->
<!-- Title: DisplaySplitWidget::resetViews Pages: 1 -->
<svg width="1362pt" height="312pt"
 viewBox="0.00 0.00 1362.00 312.00" xmlns="http://www.w3.org/2000/svg" xmlns:xlink="http://www.w3.org/1999/xlink">
<g id="graph0" class="graph" transform="scale(1 1) rotate(0) translate(4 308)">
<title>DisplaySplitWidget::resetViews</title>
<polygon fill="white" stroke="none" points="-4,4 -4,-308 1358,-308 1358,4 -4,4"/>
<!-- Node1 -->
<g id="node1" class="node"><title>Node1</title>
<polygon fill="#bfbfbf" stroke="black" points="0,-235 0,-265 100,-265 100,-235 0,-235"/>
<text text-anchor="start" x="8" y="-253" font-family="Helvetica,sans-Serif" font-size="10.00">DisplaySplitWidget</text>
<text text-anchor="middle" x="50" y="-242" font-family="Helvetica,sans-Serif" font-size="10.00">::resetViews</text>
</g>
<!-- Node2 -->
<g id="node2" class="node"><title>Node2</title>
<g id="a_node2"><a xlink:href="classDisplayWidget.html#a0dedd877a59b3b979241ad624a9a762a" target="_top" xlink:title="DisplayWidget::resetView">
<polygon fill="white" stroke="black" points="136,-273.5 136,-292.5 266,-292.5 266,-273.5 136,-273.5"/>
<text text-anchor="middle" x="201" y="-280.5" font-family="Helvetica,sans-Serif" font-size="10.00">DisplayWidget::resetView</text>
</a>
</g>
</g>
<!-- Node1&#45;&gt;Node2 -->
<g id="edge1" class="edge"><title>Node1&#45;&gt;Node2</title>
<path fill="none" stroke="midnightblue" d="M100.201,-260.897C115.221,-264.223 131.797,-267.895 147.054,-271.274"/>
<polygon fill="midnightblue" stroke="midnightblue" points="146.339,-274.7 156.859,-273.445 147.853,-267.866 146.339,-274.7"/>
</g>
<!-- Node4 -->
<g id="node4" class="node"><title>Node4</title>
<g id="a_node4"><a xlink:href="classDisplaySplitWidget.html#ac88b455e49d13fb34439e45838e468d9" target="_top" xlink:title="DisplaySplitWidget\l::updateView">
<polygon fill="white" stroke="black" points="151,-202 151,-232 251,-232 251,-202 151,-202"/>
<text text-anchor="start" x="159" y="-220" font-family="Helvetica,sans-Serif" font-size="10.00">DisplaySplitWidget</text>
<text text-anchor="middle" x="201" y="-209" font-family="Helvetica,sans-Serif" font-size="10.00">::updateView</text>
</a>
</g>
</g>
<!-- Node1&#45;&gt;Node4 -->
<g id="edge3" class="edge"><title>Node1&#45;&gt;Node4</title>
<path fill="none" stroke="midnightblue" d="M100.201,-239.103C113.17,-236.231 127.3,-233.101 140.739,-230.125"/>
<polygon fill="midnightblue" stroke="midnightblue" points="141.844,-233.465 150.851,-227.885 140.33,-226.631 141.844,-233.465"/>
</g>
<!-- Node3 -->
<g id="node3" class="node"><title>Node3</title>
<g id="a_node3"><a xlink:href="classDisplayWidget.html#a7c8417b26f905d8bda1601c879f7e600" target="_top" xlink:title="DisplayWidget::displayObject">
<polygon fill="white" stroke="black" points="306,-284.5 306,-303.5 452,-303.5 452,-284.5 306,-284.5"/>
<text text-anchor="middle" x="379" y="-291.5" font-family="Helvetica,sans-Serif" font-size="10.00">DisplayWidget::displayObject</text>
</a>
</g>
</g>
<!-- Node2&#45;&gt;Node3 -->
<g id="edge2" class="edge"><title>Node2&#45;&gt;Node3</title>
<path fill="none" stroke="midnightblue" d="M266.038,-287.002C275.768,-287.611 285.922,-288.245 295.971,-288.873"/>
<polygon fill="midnightblue" stroke="midnightblue" points="295.767,-292.367 305.966,-289.498 296.204,-285.381 295.767,-292.367"/>
</g>
<!-- Node5 -->
<g id="node5" class="node"><title>Node5</title>
<g id="a_node5"><a xlink:href="classDisplayWidget.html#a477dcbaeee98a2c684374e4d5a36b0fd" target="_top" xlink:title="DisplayWidget::displayRect">
<polygon fill="white" stroke="black" points="492,-210.5 492,-229.5 630,-229.5 630,-210.5 492,-210.5"/>
<text text-anchor="middle" x="561" y="-217.5" font-family="Helvetica,sans-Serif" font-size="10.00">DisplayWidget::displayRect</text>
</a>
</g>
</g>
<!-- Node4&#45;&gt;Node5 -->
<g id="edge4" class="edge"><title>Node4&#45;&gt;Node5</title>
<path fill="none" stroke="midnightblue" d="M251.028,-217.411C310.439,-217.909 411.294,-218.754 481.555,-219.343"/>
<polygon fill="midnightblue" stroke="midnightblue" points="481.662,-222.844 491.691,-219.428 481.72,-215.844 481.662,-222.844"/>
</g>
<!-- Node6 -->
<g id="node6" class="node"><title>Node6</title>
<g id="a_node6"><a xlink:href="classDisplayWidget.html#a822a3c50c6c602fafff6ef2132ccdb42" target="_top" xlink:title="DisplayWidget::setDisplayRect">
<polygon fill="white" stroke="black" points="302,-131.5 302,-150.5 456,-150.5 456,-131.5 302,-131.5"/>
<text text-anchor="middle" x="379" y="-138.5" font-family="Helvetica,sans-Serif" font-size="10.00">DisplayWidget::setDisplayRect</text>
</a>
</g>
</g>
<!-- Node4&#45;&gt;Node6 -->
<g id="edge5" class="edge"><title>Node4&#45;&gt;Node6</title>
<path fill="none" stroke="midnightblue" d="M236.772,-201.985C268.682,-188.206 315.548,-167.968 346.412,-154.64"/>
<polygon fill="midnightblue" stroke="midnightblue" points="348.038,-157.751 355.831,-150.573 345.262,-151.324 348.038,-157.751"/>
</g>
<!-- Node25 -->
<g id="node25" class="node"><title>Node25</title>
<g id="a_node25"><a xlink:href="classDisplayWidget.html#ad463e9effed6170427696da40d945c58" target="_top" xlink:title="DisplayWidget::DisplayWidget\lWidth">
<polygon fill="white" stroke="black" points="304,-235 304,-265 454,-265 454,-235 304,-235"/>
<text text-anchor="start" x="312" y="-253" font-family="Helvetica,sans-Serif" font-size="10.00">DisplayWidget::DisplayWidget</text>
<text text-anchor="middle" x="379" y="-242" font-family="Helvetica,sans-Serif" font-size="10.00">Width</text>
</a>
</g>
</g>
<!-- Node4&#45;&gt;Node25 -->
<g id="edge27" class="edge"><title>Node4&#45;&gt;Node25</title>
<path fill="none" stroke="midnightblue" d="M251.026,-226.192C264.331,-228.687 279.126,-231.461 293.781,-234.209"/>
<polygon fill="midnightblue" stroke="midnightblue" points="293.41,-237.7 303.884,-236.103 294.701,-230.82 293.41,-237.7"/>
</g>
<!-- Node6&#45;&gt;Node5 -->
<g id="edge6" class="edge"><title>Node6&#45;&gt;Node5</title>
<path fill="none" stroke="midnightblue" d="M395.839,-150.639C417.11,-163.279 456.361,-185.54 492,-200 498.663,-202.704 505.828,-205.215 512.918,-207.481"/>
<polygon fill="midnightblue" stroke="midnightblue" points="511.899,-210.83 522.485,-210.414 513.95,-204.137 511.899,-210.83"/>
</g>
<!-- Node7 -->
<g id="node7" class="node"><title>Node7</title>
<g id="a_node7"><a xlink:href="classDisplayObject.html#a669d39709021238465e2d42ae2ffce2d" target="_top" xlink:title="DisplayObject::setInternal\lScaleFactor">
<polygon fill="white" stroke="black" points="496,-112 496,-142 626,-142 626,-112 496,-112"/>
<text text-anchor="start" x="504" y="-130" font-family="Helvetica,sans-Serif" font-size="10.00">DisplayObject::setInternal</text>
<text text-anchor="middle" x="561" y="-119" font-family="Helvetica,sans-Serif" font-size="10.00">ScaleFactor</text>
</a>
</g>
</g>
<!-- Node6&#45;&gt;Node7 -->
<g id="edge7" class="edge"><title>Node6&#45;&gt;Node7</title>
<path fill="none" stroke="midnightblue" d="M456.075,-135.083C465.903,-134.319 475.957,-133.537 485.754,-132.775"/>
<polygon fill="midnightblue" stroke="midnightblue" points="486.152,-136.254 495.851,-131.989 485.609,-129.275 486.152,-136.254"/>
</g>
<!-- Node8 -->
<g id="node8" class="node"><title>Node8</title>
<g id="a_node8"><a xlink:href="classDisplayWidget.html#a59b9a00276458fae6c0c2db850a87616" target="_top" xlink:title="DisplayWidget::zoomFactor">
<polygon fill="white" stroke="black" points="666,-75.5 666,-94.5 804,-94.5 804,-75.5 666,-75.5"/>
<text text-anchor="middle" x="735" y="-82.5" font-family="Helvetica,sans-Serif" font-size="10.00">DisplayWidget::zoomFactor</text>
</a>
</g>
</g>
<!-- Node6&#45;&gt;Node8 -->
<g id="edge8" class="edge"><title>Node6&#45;&gt;Node8</title>
<path fill="none" stroke="midnightblue" d="M401.824,-131.457C424.048,-122.206 459.731,-108.629 492,-102 545.906,-90.9263 607.828,-86.728 655.54,-85.2714"/>
<polygon fill="midnightblue" stroke="midnightblue" points="655.903,-88.763 665.804,-84.9935 655.713,-81.7656 655.903,-88.763"/>
</g>
<!-- Node10 -->
<g id="node10" class="node"><title>Node10</title>
<g id="a_node10"><a xlink:href="classStatisticsObject.html#a685245dbc78feb8908c60b3becc9a0c0" target="_top" xlink:title="StatisticsObject::setInternal\lScaleFactor">
<polygon fill="white" stroke="black" points="492,-24 492,-54 630,-54 630,-24 492,-24"/>
<text text-anchor="start" x="500" y="-42" font-family="Helvetica,sans-Serif" font-size="10.00">StatisticsObject::setInternal</text>
<text text-anchor="middle" x="561" y="-31" font-family="Helvetica,sans-Serif" font-size="10.00">ScaleFactor</text>
</a>
</g>
</g>
<!-- Node6&#45;&gt;Node10 -->
<g id="edge10" class="edge"><title>Node6&#45;&gt;Node10</title>
<path fill="none" stroke="midnightblue" d="M393.377,-131.425C413.971,-116.911 454.948,-88.9262 492,-69 498.952,-65.2615 506.464,-61.5967 513.872,-58.1838"/>
<polygon fill="midnightblue" stroke="midnightblue" points="515.466,-61.3044 523.149,-54.009 512.594,-54.9209 515.466,-61.3044"/>
</g>
<!-- Node14 -->
<g id="node14" class="node"><title>Node14</title>
<g id="a_node14"><a xlink:href="classStatisticsObject.html#a09c2920b75ecda0e175a6c9384b446ab" target="_top" xlink:title="StatisticsObject::reload\lImage">
<polygon fill="white" stroke="black" points="501.5,-161 501.5,-191 620.5,-191 620.5,-161 501.5,-161"/>
<text text-anchor="start" x="509.5" y="-179" font-family="Helvetica,sans-Serif" font-size="10.00">StatisticsObject::reload</text>
<text text-anchor="middle" x="561" y="-168" font-family="Helvetica,sans-Serif" font-size="10.00">Image</text>
</a>
</g>
</g>
<!-- Node6&#45;&gt;Node14 -->
<g id="edge14" class="edge"><title>Node6&#45;&gt;Node14</title>
<path fill="none" stroke="midnightblue" d="M429.186,-150.564C448.329,-154.286 470.597,-158.616 491.276,-162.637"/>
<polygon fill="midnightblue" stroke="midnightblue" points="490.795,-166.109 501.279,-164.582 492.131,-159.238 490.795,-166.109"/>
</g>
<!-- Node9 -->
<g id="node9" class="node"><title>Node9</title>
<g id="a_node9"><a xlink:href="classDisplayObject.html#afb3b221174f722f563e7bf55a1ddb29f" target="_top" xlink:title="DisplayObject::width">
<polygon fill="white" stroke="black" points="861.5,-76.5 861.5,-95.5 968.5,-95.5 968.5,-76.5 861.5,-76.5"/>
<text text-anchor="middle" x="915" y="-83.5" font-family="Helvetica,sans-Serif" font-size="10.00">DisplayObject::width</text>
</a>
</g>
</g>
<!-- Node8&#45;&gt;Node9 -->
<g id="edge9" class="edge"><title>Node8&#45;&gt;Node9</title>
<path fill="none" stroke="midnightblue" d="M804.056,-85.3823C819.526,-85.4692 835.891,-85.5612 851.134,-85.6468"/>
<polygon fill="midnightblue" stroke="midnightblue" points="851.463,-89.1486 861.483,-85.705 851.503,-82.1487 851.463,-89.1486"/>
</g>
<!-- Node11 -->
<g id="node11" class="node"><title>Node11</title>
<g id="a_node11"><a xlink:href="classstatisticSource.html#a8c153e3e3576668f5e68af94f441319e" target="_top" xlink:title="statisticSource::setInternal\lScaleFactor">
<polygon fill="white" stroke="black" points="668,-24 668,-54 802,-54 802,-24 668,-24"/>
<text text-anchor="start" x="676" y="-42" font-family="Helvetica,sans-Serif" font-size="10.00">statisticSource::setInternal</text>
<text text-anchor="middle" x="735" y="-31" font-family="Helvetica,sans-Serif" font-size="10.00">ScaleFactor</text>
</a>
</g>
</g>
<!-- Node10&#45;&gt;Node11 -->
<g id="edge11" class="edge"><title>Node10&#45;&gt;Node11</title>
<path fill="none" stroke="midnightblue" d="M630.473,-39C639.39,-39 648.569,-39 657.605,-39"/>
<polygon fill="midnightblue" stroke="midnightblue" points="657.724,-42.5001 667.724,-39 657.724,-35.5001 657.724,-42.5001"/>
</g>
<!-- Node12 -->
<g id="node12" class="node"><title>Node12</title>
<g id="a_node12"><a xlink:href="typedef_8h.html#a9aaa34d570ccff65aa586904187cfff5" target="_top" xlink:title="clip">
<polygon fill="white" stroke="black" points="899,-0.5 899,-19.5 931,-19.5 931,-0.5 899,-0.5"/>
<text text-anchor="middle" x="915" y="-7.5" font-family="Helvetica,sans-Serif" font-size="10.00">clip</text>
</a>
</g>
</g>
<!-- Node11&#45;&gt;Node12 -->
<g id="edge12" class="edge"><title>Node11&#45;&gt;Node12</title>
<path fill="none" stroke="midnightblue" d="M802.028,-28.2427C832.297,-23.3112 866.372,-17.7597 888.897,-14.0899"/>
<polygon fill="midnightblue" stroke="midnightblue" points="889.652,-17.513 898.959,-12.4505 888.527,-10.6041 889.652,-17.513"/>
</g>
<!-- Node13 -->
<g id="node13" class="node"><title>Node13</title>
<g id="a_node13"><a xlink:href="classstatisticSource.html#ab919493c131a2f9b26c1c212c05ad223" target="_top" xlink:title="statisticSource::internal\lScaleFactor">
<polygon fill="white" stroke="black" points="1041.5,-66 1041.5,-96 1160.5,-96 1160.5,-66 1041.5,-66"/>
<text text-anchor="start" x="1049.5" y="-84" font-family="Helvetica,sans-Serif" font-size="10.00">statisticSource::internal</text>
<text text-anchor="middle" x="1101" y="-73" font-family="Helvetica,sans-Serif" font-size="10.00">ScaleFactor</text>
</a>
</g>
</g>
<!-- Node11&#45;&gt;Node13 -->
<g id="edge13" class="edge"><title>Node11&#45;&gt;Node13</title>
<path fill="none" stroke="midnightblue" d="M802.085,-45.9775C853.369,-51.4667 926.231,-59.4276 990,-67 1003.25,-68.5738 1017.4,-70.3219 1030.97,-72.0346"/>
<polygon fill="midnightblue" stroke="midnightblue" points="1030.86,-75.5483 1041.22,-73.3338 1031.74,-68.6039 1030.86,-75.5483"/>
</g>
<!-- Node15 -->
<g id="node15" class="node"><title>Node15</title>
<g id="a_node15"><a xlink:href="classStatisticsObject.html#a7ef3844aa2a91ec4fc67233f7a6f5552" target="_top" xlink:title="StatisticsObject::loadImage">
<polygon fill="white" stroke="black" points="666.5,-165.5 666.5,-184.5 803.5,-184.5 803.5,-165.5 666.5,-165.5"/>
<text text-anchor="middle" x="735" y="-172.5" font-family="Helvetica,sans-Serif" font-size="10.00">StatisticsObject::loadImage</text>
</a>
</g>
</g>
<!-- Node14&#45;&gt;Node15 -->
<g id="edge15" class="edge"><title>Node14&#45;&gt;Node15</title>
<path fill="none" stroke="midnightblue" d="M620.712,-175.659C632.077,-175.593 644.152,-175.522 656.022,-175.453"/>
<polygon fill="midnightblue" stroke="midnightblue" points="656.397,-178.951 666.377,-175.393 656.357,-171.951 656.397,-178.951"/>
</g>
<!-- Node15&#45;&gt;Node9 -->
<g id="edge20" class="edge"><title>Node15&#45;&gt;Node9</title>
<path fill="none" stroke="midnightblue" d="M747.382,-165.395C765.722,-150.386 803.465,-121.398 840,-105 845.349,-102.599 851.057,-100.461 856.841,-98.5664"/>
<polygon fill="midnightblue" stroke="midnightblue" points="858.044,-101.859 866.595,-95.6043 856.01,-95.1609 858.044,-101.859"/>
</g>
<!-- Node16 -->
<g id="node16" class="node"><title>Node16</title>
<g id="a_node16"><a xlink:href="classStatisticsObject.html#a977403d59c77839b97f38c4c5d09483b" target="_top" xlink:title="StatisticsObject::numFrames">
<polygon fill="white" stroke="black" points="843,-240.5 843,-259.5 987,-259.5 987,-240.5 843,-240.5"/>
<text text-anchor="middle" x="915" y="-247.5" font-family="Helvetica,sans-Serif" font-size="10.00">StatisticsObject::numFrames</text>
</a>
</g>
</g>
<!-- Node15&#45;&gt;Node16 -->
<g id="edge16" class="edge"><title>Node15&#45;&gt;Node16</title>
<path fill="none" stroke="midnightblue" d="M750.946,-184.558C770.665,-196.807 806.767,-218.009 840,-231 846.308,-233.466 853.044,-235.704 859.786,-237.707"/>
<polygon fill="midnightblue" stroke="midnightblue" points="859.044,-241.134 869.618,-240.473 860.94,-234.396 859.044,-241.134"/>
</g>
<!-- Node18 -->
<g id="node18" class="node"><title>Node18</title>
<g id="a_node18"><a xlink:href="classStatisticsObject.html#a9d90fa9d1b1373e6f93a9839c757739a" target="_top" xlink:title="StatisticsObject::internal\lScaleFactor">
<polygon fill="white" stroke="black" points="853,-115 853,-145 977,-145 977,-115 853,-115"/>
<text text-anchor="start" x="861" y="-133" font-family="Helvetica,sans-Serif" font-size="10.00">StatisticsObject::internal</text>
<text text-anchor="middle" x="915" y="-122" font-family="Helvetica,sans-Serif" font-size="10.00">ScaleFactor</text>
</a>
</g>
</g>
<!-- Node15&#45;&gt;Node18 -->
<g id="edge18" class="edge"><title>Node15&#45;&gt;Node18</title>
<path fill="none" stroke="midnightblue" d="M773.749,-165.457C794.379,-160.241 820.581,-153.617 844.74,-147.51"/>
<polygon fill="midnightblue" stroke="midnightblue" points="845.752,-150.864 854.589,-145.02 844.037,-144.077 845.752,-150.864"/>
</g>
<!-- Node19 -->
<g id="node19" class="node"><title>Node19</title>
<g id="a_node19"><a xlink:href="classDisplayObject.html#a814782fb1bf9e7a2ed7adab74872c08a" target="_top" xlink:title="DisplayObject::height">
<polygon fill="white" stroke="black" points="860,-202.5 860,-221.5 970,-221.5 970,-202.5 860,-202.5"/>
<text text-anchor="middle" x="915" y="-209.5" font-family="Helvetica,sans-Serif" font-size="10.00">DisplayObject::height</text>
</a>
</g>
</g>
<!-- Node15&#45;&gt;Node19 -->
<g id="edge21" class="edge"><title>Node15&#45;&gt;Node19</title>
<path fill="none" stroke="midnightblue" d="M781.839,-184.528C805.107,-189.365 833.567,-195.281 858.11,-200.382"/>
<polygon fill="midnightblue" stroke="midnightblue" points="857.504,-203.831 868.007,-202.44 858.929,-196.978 857.504,-203.831"/>
</g>
<!-- Node20 -->
<g id="node20" class="node"><title>Node20</title>
<g id="a_node20"><a xlink:href="classstatisticSource.html#a97118da6546c479004129b4fcc6851bf" target="_top" xlink:title="statisticSource::drawStatistics">
<polygon fill="white" stroke="black" points="840,-164.5 840,-183.5 990,-183.5 990,-164.5 840,-164.5"/>
<text text-anchor="middle" x="915" y="-171.5" font-family="Helvetica,sans-Serif" font-size="10.00">statisticSource::drawStatistics</text>
</a>
</g>
</g>
<!-- Node15&#45;&gt;Node20 -->
<g id="edge22" class="edge"><title>Node15&#45;&gt;Node20</title>
<path fill="none" stroke="midnightblue" d="M803.548,-174.621C812.101,-174.572 820.936,-174.523 829.709,-174.474"/>
<polygon fill="midnightblue" stroke="midnightblue" points="829.979,-177.972 839.959,-174.416 829.94,-170.972 829.979,-177.972"/>
</g>
<!-- Node17 -->
<g id="node17" class="node"><title>Node17</title>
<g id="a_node17"><a xlink:href="classstatisticSource.html#a49d2c60f7ce52592509c07fdc9d8e268" target="_top" xlink:title="statisticSource::getNumber\lFrames">
<polygon fill="white" stroke="black" points="1033,-235 1033,-265 1169,-265 1169,-235 1033,-235"/>
<text text-anchor="start" x="1041" y="-253" font-family="Helvetica,sans-Serif" font-size="10.00">statisticSource::getNumber</text>
<text text-anchor="middle" x="1101" y="-242" font-family="Helvetica,sans-Serif" font-size="10.00">Frames</text>
</a>
</g>
</g>
<!-- Node16&#45;&gt;Node17 -->
<g id="edge17" class="edge"><title>Node16&#45;&gt;Node17</title>
<path fill="none" stroke="midnightblue" d="M987.139,-250C998.793,-250 1010.92,-250 1022.71,-250"/>
<polygon fill="midnightblue" stroke="midnightblue" points="1022.97,-253.5 1032.97,-250 1022.97,-246.5 1022.97,-253.5"/>
</g>
<!-- Node18&#45;&gt;Node13 -->
<g id="edge19" class="edge"><title>Node18&#45;&gt;Node13</title>
<path fill="none" stroke="midnightblue" d="M972.457,-114.965C991.884,-109.792 1013.81,-103.952 1033.93,-98.5934"/>
<polygon fill="midnightblue" stroke="midnightblue" points="1034.89,-101.962 1043.65,-96.0062 1033.09,-95.1975 1034.89,-101.962"/>
</g>
<!-- Node21 -->
<g id="node21" class="node"><title>Node21</title>
<g id="a_node21"><a xlink:href="classstatisticSource.html#a666dee63c406a9b88484286b2a8e08f4" target="_top" xlink:title="statisticSource::getStatistics">
<polygon fill="white" stroke="black" points="1029.5,-180.5 1029.5,-199.5 1172.5,-199.5 1172.5,-180.5 1029.5,-180.5"/>
<text text-anchor="middle" x="1101" y="-187.5" font-family="Helvetica,sans-Serif" font-size="10.00">statisticSource::getStatistics</text>
</a>
</g>
</g>
<!-- Node20&#45;&gt;Node21 -->
<g id="edge23" class="edge"><title>Node20&#45;&gt;Node21</title>
<path fill="none" stroke="midnightblue" d="M990.044,-180.439C999.679,-181.276 1009.59,-182.138 1019.32,-182.985"/>
<polygon fill="midnightblue" stroke="midnightblue" points="1019.12,-186.48 1029.39,-183.86 1019.73,-179.507 1019.12,-186.48"/>
</g>
<!-- Node23 -->
<g id="node23" class="node"><title>Node23</title>
<g id="a_node23"><a xlink:href="classstatisticSource.html#af005d063b46b611d6166d4d8439d6245" target="_top" xlink:title="statisticSource::drawStatistics\lImage">
<polygon fill="white" stroke="black" points="1026,-131 1026,-161 1176,-161 1176,-131 1026,-131"/>
<text text-anchor="start" x="1034" y="-149" font-family="Helvetica,sans-Serif" font-size="10.00">statisticSource::drawStatistics</text>
<text text-anchor="middle" x="1101" y="-138" font-family="Helvetica,sans-Serif" font-size="10.00">Image</text>
</a>
</g>
</g>
<!-- Node20&#45;&gt;Node23 -->
<g id="edge25" class="edge"><title>Node20&#45;&gt;Node23</title>
<path fill="none" stroke="midnightblue" d="M978.551,-164.481C990.553,-162.655 1003.3,-160.715 1015.86,-158.805"/>
<polygon fill="midnightblue" stroke="midnightblue" points="1016.5,-162.246 1025.86,-157.282 1015.45,-155.326 1016.5,-162.246"/>
</g>
<!-- Node22 -->
<g id="node22" class="node"><title>Node22</title>
<g id="a_node22"><a xlink:href="classstatisticSource.html#a769e0ef8bb1427d4d586425956ebfca2" target="_top" xlink:title="statisticSource::loadStatistic\lToCache">
<polygon fill="white" stroke="black" points="1212,-175 1212,-205 1354,-205 1354,-175 1212,-175"/>
<text text-anchor="start" x="1220" y="-193" font-family="Helvetica,sans-Serif" font-size="10.00">statisticSource::loadStatistic</text>
<text text-anchor="middle" x="1283" y="-182" font-family="Helvetica,sans-Serif" font-size="10.00">ToCache</text>
</a>
</g>
</g>
<!-- Node21&#45;&gt;Node22 -->
<g id="edge24" class="edge"><title>Node21&#45;&gt;Node22</title>
<path fill="none" stroke="midnightblue" d="M1172.62,-190C1182.2,-190 1192.08,-190 1201.81,-190"/>
<polygon fill="midnightblue" stroke="midnightblue" points="1201.87,-193.5 1211.87,-190 1201.87,-186.5 1201.87,-193.5"/>
</g>
<!-- Node24 -->
<g id="node24" class="node"><title>Node24</title>
<g id="a_node24"><a xlink:href="statisticSource_8cpp.html#a00b2533858fa82f16ddb39544cfff2b4" target="_top" xlink:title="rotateVector">
<polygon fill="white" stroke="black" points="1248,-136.5 1248,-155.5 1318,-155.5 1318,-136.5 1248,-136.5"/>
<text text-anchor="middle" x="1283" y="-143.5" font-family="Helvetica,sans-Serif" font-size="10.00">rotateVector</text>
</a>
</g>
</g>
<!-- Node23&#45;&gt;Node24 -->
<g id="edge26" class="edge"><title>Node23&#45;&gt;Node24</title>
<path fill="none" stroke="midnightblue" d="M1176.25,-146C1197.07,-146 1219.05,-146 1237.55,-146"/>
<polygon fill="midnightblue" stroke="midnightblue" points="1237.72,-149.5 1247.72,-146 1237.72,-142.5 1237.72,-149.5"/>
</g>
</g>
</svg>
