<?xml version="1.0" encoding="UTF-8" standalone="no"?>
<!DOCTYPE svg PUBLIC "-//W3C//DTD SVG 1.1//EN"
 "http://www.w3.org/Graphics/SVG/1.1/DTD/svg11.dtd">
<!-- Generated by graphviz version 2.38.0 (20140413.2041)
 -->
<!-- Title: MainWindow::pause Pages: 1 -->
<svg width="836pt" height="93pt"
 viewBox="0.00 0.00 836.00 92.50" xmlns="http://www.w3.org/2000/svg" xmlns:xlink="http://www.w3.org/1999/xlink">
<g id="graph0" class="graph" transform="scale(1 1) rotate(0) translate(4 88.5)">
<title>MainWindow::pause</title>
<polygon fill="white" stroke="none" points="-4,4 -4,-88.5 832,-88.5 832,4 -4,4"/>
<!-- Node1 -->
<g id="node1" class="node"><title>Node1</title>
<polygon fill="#bfbfbf" stroke="black" points="0,-19.5 0,-38.5 105,-38.5 105,-19.5 0,-19.5"/>
<text text-anchor="middle" x="52.5" y="-26.5" font-family="Helvetica,sans-Serif" font-size="10.00">MainWindow::pause</text>
</g>
<!-- Node2 -->
<g id="node2" class="node"><title>Node2</title>
<g id="a_node2"><a xlink:href="classMainWindow.html#a153ba12113986ad0acac82272d0ad6eb" target="_top" xlink:title="Toggles playback of selected video file. ">
<polygon fill="white" stroke="black" points="141,-38.5 141,-57.5 287,-57.5 287,-38.5 141,-38.5"/>
<text text-anchor="middle" x="214" y="-45.5" font-family="Helvetica,sans-Serif" font-size="10.00">MainWindow::togglePlayback</text>
</a>
</g>
</g>
<!-- Node1&#45;&gt;Node2 -->
<g id="edge1" class="edge"><title>Node1&#45;&gt;Node2</title>
<path fill="none" stroke="midnightblue" d="M115.336,-36.3661C123.711,-37.3637 132.364,-38.3945 140.9,-39.4112"/>
<polygon fill="midnightblue" stroke="midnightblue" points="115.629,-32.8763 105.285,-35.1688 114.801,-39.8271 115.629,-32.8763"/>
</g>
<!-- Node7 -->
<g id="node7" class="node"><title>Node7</title>
<g id="a_node7"><a xlink:href="classMainWindow.html#aaa425b1554af3c1f58cc70b4815082ae" target="_top" xlink:title="this event is called when the playback&#45;timer is triggered. It will paint the next frame ...">
<polygon fill="white" stroke="black" points="151,-0.5 151,-19.5 277,-19.5 277,-0.5 151,-0.5"/>
<text text-anchor="middle" x="214" y="-7.5" font-family="Helvetica,sans-Serif" font-size="10.00">MainWindow::timerEvent</text>
</a>
</g>
</g>
<!-- Node1&#45;&gt;Node7 -->
<g id="edge7" class="edge"><title>Node1&#45;&gt;Node7</title>
<path fill="none" stroke="midnightblue" d="M115.37,-21.63C127.033,-20.2406 139.235,-18.7871 150.905,-17.3969"/>
<polygon fill="midnightblue" stroke="midnightblue" points="114.801,-18.1729 105.285,-22.8312 115.629,-25.1237 114.801,-18.1729"/>
</g>
<!-- Node3 -->
<g id="node3" class="node"><title>Node3</title>
<g id="a_node3"><a xlink:href="classMainWindow.html#a9df7443ce5f907903438bb6a9abe9a33" target="_top" xlink:title="MainWindow::createMenusAnd\lActions">
<polygon fill="white" stroke="black" points="505,-54 505,-84 657,-84 657,-54 505,-54"/>
<text text-anchor="start" x="513" y="-72" font-family="Helvetica,sans-Serif" font-size="10.00">MainWindow::createMenusAnd</text>
<text text-anchor="middle" x="581" y="-61" font-family="Helvetica,sans-Serif" font-size="10.00">Actions</text>
</a>
</g>
</g>
<!-- Node2&#45;&gt;Node3 -->
<g id="edge2" class="edge"><title>Node2&#45;&gt;Node3</title>
<path fill="none" stroke="midnightblue" d="M297.297,-52.7349C359.587,-56.3187 444.447,-61.2011 504.901,-64.6792"/>
<polygon fill="midnightblue" stroke="midnightblue" points="297.297,-49.2292 287.112,-52.1489 296.895,-56.2176 297.297,-49.2292"/>
</g>
<!-- Node5 -->
<g id="node5" class="node"><title>Node5</title>
<g id="a_node5"><a xlink:href="classMainWindow.html#a9c4f542263838b9ecd06eae839a42a34" target="_top" xlink:title="MainWindow::keyPressEvent">
<polygon fill="white" stroke="black" points="323,-18.5 323,-37.5 469,-37.5 469,-18.5 323,-18.5"/>
<text text-anchor="middle" x="396" y="-25.5" font-family="Helvetica,sans-Serif" font-size="10.00">MainWindow::keyPressEvent</text>
</a>
</g>
</g>
<!-- Node2&#45;&gt;Node5 -->
<g id="edge4" class="edge"><title>Node2&#45;&gt;Node5</title>
<path fill="none" stroke="midnightblue" d="M297.16,-38.8711C305.718,-37.9202 314.372,-36.9587 322.808,-36.0213"/>
<polygon fill="midnightblue" stroke="midnightblue" points="296.728,-35.3975 287.176,-39.9805 297.501,-42.3547 296.728,-35.3975"/>
</g>
<!-- Node4 -->
<g id="node4" class="node"><title>Node4</title>
<g id="a_node4"><a xlink:href="classMainWindow.html#a8b244be8b7b7db1b08de2a2acb9409db" target="_top" xlink:title="MainWindow::MainWindow">
<polygon fill="white" stroke="black" points="693,-37.5 693,-56.5 828,-56.5 828,-37.5 693,-37.5"/>
<text text-anchor="middle" x="760.5" y="-44.5" font-family="Helvetica,sans-Serif" font-size="10.00">MainWindow::MainWindow</text>
</a>
</g>
</g>
<!-- Node3&#45;&gt;Node4 -->
<g id="edge3" class="edge"><title>Node3&#45;&gt;Node4</title>
<path fill="none" stroke="midnightblue" d="M667.138,-58.4477C675.793,-57.3749 684.494,-56.2965 692.911,-55.2532"/>
<polygon fill="midnightblue" stroke="midnightblue" points="666.512,-54.9984 657.019,-59.7019 667.373,-61.9452 666.512,-54.9984"/>
</g>
<!-- Node6 -->
<g id="node6" class="node"><title>Node6</title>
<g id="a_node6"><a xlink:href="classMainWindow.html#ab98bca74e18eefa8e0582b5a9eb78d10" target="_top" xlink:title="MainWindow::handleKeyPress">
<polygon fill="white" stroke="black" points="506,-15.5 506,-34.5 656,-34.5 656,-15.5 506,-15.5"/>
<text text-anchor="middle" x="581" y="-22.5" font-family="Helvetica,sans-Serif" font-size="10.00">MainWindow::handleKeyPress</text>
</a>
</g>
</g>
<!-- Node5&#45;&gt;Node6 -->
<g id="edge5" class="edge"><title>Node5&#45;&gt;Node6</title>
<path fill="none" stroke="midnightblue" d="M479.08,-26.6544C488.013,-26.508 497.067,-26.3596 505.897,-26.2148"/>
<polygon fill="midnightblue" stroke="midnightblue" points="479.005,-23.1551 469.064,-26.8186 479.12,-30.1541 479.005,-23.1551"/>
</g>
<!-- Node6&#45;&gt;Node4 -->
<g id="edge6" class="edge"><title>Node6&#45;&gt;Node4</title>
<path fill="none" stroke="midnightblue" d="M666.287,-35.4468C675.219,-36.5539 684.211,-37.6684 692.901,-38.7454"/>
<polygon fill="midnightblue" stroke="midnightblue" points="666.602,-31.9592 656.248,-34.2025 665.741,-38.906 666.602,-31.9592"/>
</g>
</g>
</svg>
