<?xml version="1.0" encoding="UTF-8" standalone="no"?>
<!DOCTYPE svg PUBLIC "-//W3C//DTD SVG 1.1//EN"
 "http://www.w3.org/Graphics/SVG/1.1/DTD/svg11.dtd">
<!-- Generated by graphviz version 2.38.0 (20140413.2041)
 -->
<!-- Title: PlaylistItem::getDifferenceObject Pages: 1 -->
<svg width="931pt" height="442pt"
 viewBox="0.00 0.00 931.00 441.52" xmlns="http://www.w3.org/2000/svg" xmlns:xlink="http://www.w3.org/1999/xlink">
<g id="graph0" class="graph" transform="scale(1 1) rotate(0) translate(4 437.523)">
<title>PlaylistItem::getDifferenceObject</title>
<polygon fill="white" stroke="none" points="-4,4 -4,-437.523 927,-437.523 927,4 -4,4"/>
<!-- Node1 -->
<g id="node1" class="node"><title>Node1</title>
<polygon fill="#bfbfbf" stroke="black" points="0,-171.5 0,-201.5 133,-201.5 133,-171.5 0,-171.5"/>
<text text-anchor="start" x="8" y="-189.5" font-family="Helvetica,sans-Serif" font-size="10.00">PlaylistItem::getDifference</text>
<text text-anchor="middle" x="66.5" y="-178.5" font-family="Helvetica,sans-Serif" font-size="10.00">Object</text>
</g>
<!-- Node2 -->
<g id="node2" class="node"><title>Node2</title>
<g id="a_node2"><a xlink:href="classMainWindow.html#a6f33e93f427ff2df80edffcb3ad944da" target="_top" xlink:title="MainWindow::updateSelected\lItems">
<polygon fill="white" stroke="black" points="174,-333.5 174,-363.5 320,-363.5 320,-333.5 174,-333.5"/>
<text text-anchor="start" x="182" y="-351.5" font-family="Helvetica,sans-Serif" font-size="10.00">MainWindow::updateSelected</text>
<text text-anchor="middle" x="247" y="-340.5" font-family="Helvetica,sans-Serif" font-size="10.00">Items</text>
</a>
</g>
</g>
<!-- Node1&#45;&gt;Node2 -->
<g id="edge1" class="edge"><title>Node1&#45;&gt;Node2</title>
<path fill="none" stroke="midnightblue" d="M79.3089,-211.059C95.3901,-241.958 127.046,-294.587 169,-324.5 173.788,-327.914 179.078,-330.854 184.576,-333.383"/>
<polygon fill="midnightblue" stroke="midnightblue" points="82.2833,-209.185 74.6416,-201.847 76.039,-212.349 82.2833,-209.185"/>
</g>
<!-- Node10 -->
<g id="node10" class="node"><title>Node10</title>
<g id="a_node10"><a xlink:href="classMainWindow.html#a3e50d275dfc7ac5871360412dd83f7eb" target="_top" xlink:title="MainWindow::on_LumaScale\lSpinBox_valueChanged">
<polygon fill="white" stroke="black" points="175.5,-284.5 175.5,-314.5 318.5,-314.5 318.5,-284.5 175.5,-284.5"/>
<text text-anchor="start" x="183.5" y="-302.5" font-family="Helvetica,sans-Serif" font-size="10.00">MainWindow::on_LumaScale</text>
<text text-anchor="middle" x="247" y="-291.5" font-family="Helvetica,sans-Serif" font-size="10.00">SpinBox_valueChanged</text>
</a>
</g>
</g>
<!-- Node1&#45;&gt;Node10 -->
<g id="edge14" class="edge"><title>Node1&#45;&gt;Node10</title>
<path fill="none" stroke="midnightblue" d="M90.359,-208.764C109.967,-226.946 139.629,-252.351 169,-269.5 178.664,-275.143 189.587,-280.132 200.105,-284.342"/>
<polygon fill="midnightblue" stroke="midnightblue" points="92.5349,-206.006 82.8539,-201.701 87.7374,-211.103 92.5349,-206.006"/>
</g>
<!-- Node11 -->
<g id="node11" class="node"><title>Node11</title>
<g id="a_node11"><a xlink:href="classMainWindow.html#a1836ff843ea4ed48e29ab90b08050bf7" target="_top" xlink:title="MainWindow::on_ColorComponents\lComboBox_currentIndexChanged">
<polygon fill="white" stroke="black" points="361,-196.5 361,-226.5 534,-226.5 534,-196.5 361,-196.5"/>
<text text-anchor="start" x="369" y="-214.5" font-family="Helvetica,sans-Serif" font-size="10.00">MainWindow::on_ColorComponents</text>
<text text-anchor="middle" x="447.5" y="-203.5" font-family="Helvetica,sans-Serif" font-size="10.00">ComboBox_currentIndexChanged</text>
</a>
</g>
</g>
<!-- Node1&#45;&gt;Node11 -->
<g id="edge24" class="edge"><title>Node1&#45;&gt;Node11</title>
<path fill="none" stroke="midnightblue" d="M99.213,-206.835C118.545,-218.003 144.226,-230.729 169,-236.5 244.966,-254.196 335.332,-239.68 391.817,-226.511"/>
<polygon fill="midnightblue" stroke="midnightblue" points="100.92,-203.778 90.5347,-201.68 97.3447,-209.796 100.92,-203.778"/>
</g>
<!-- Node12 -->
<g id="node12" class="node"><title>Node12</title>
<g id="a_node12"><a xlink:href="classMainWindow.html#aa8b7f37af858513162a091d7f81561b4" target="_top" xlink:title="MainWindow::on_ChromaScale\lSpinBox_valueChanged">
<polygon fill="white" stroke="black" points="170,-196.5 170,-226.5 324,-226.5 324,-196.5 170,-196.5"/>
<text text-anchor="start" x="178" y="-214.5" font-family="Helvetica,sans-Serif" font-size="10.00">MainWindow::on_ChromaScale</text>
<text text-anchor="middle" x="247" y="-203.5" font-family="Helvetica,sans-Serif" font-size="10.00">SpinBox_valueChanged</text>
</a>
</g>
</g>
<!-- Node1&#45;&gt;Node12 -->
<g id="edge16" class="edge"><title>Node1&#45;&gt;Node12</title>
<path fill="none" stroke="midnightblue" d="M143.394,-197.129C152.159,-198.357 161.099,-199.609 169.867,-200.837"/>
<polygon fill="midnightblue" stroke="midnightblue" points="143.595,-193.624 133.206,-195.703 142.624,-200.556 143.595,-193.624"/>
</g>
<!-- Node13 -->
<g id="node13" class="node"><title>Node13</title>
<g id="a_node13"><a xlink:href="classMainWindow.html#ab0e3857ccb336133d522cde81e73988e" target="_top" xlink:title="MainWindow::on_LumaOffset\lSpinBox_valueChanged">
<polygon fill="white" stroke="black" points="174,-147.5 174,-177.5 320,-177.5 320,-147.5 174,-147.5"/>
<text text-anchor="start" x="182" y="-165.5" font-family="Helvetica,sans-Serif" font-size="10.00">MainWindow::on_LumaOffset</text>
<text text-anchor="middle" x="247" y="-154.5" font-family="Helvetica,sans-Serif" font-size="10.00">SpinBox_valueChanged</text>
</a>
</g>
</g>
<!-- Node1&#45;&gt;Node13 -->
<g id="edge18" class="edge"><title>Node1&#45;&gt;Node13</title>
<path fill="none" stroke="midnightblue" d="M143.241,-176.316C153.376,-174.954 163.748,-173.559 173.819,-172.205"/>
<polygon fill="midnightblue" stroke="midnightblue" points="142.651,-172.864 133.206,-177.666 143.584,-179.802 142.651,-172.864"/>
</g>
<!-- Node14 -->
<g id="node14" class="node"><title>Node14</title>
<g id="a_node14"><a xlink:href="classMainWindow.html#adac0478ee9ee4dd30f05fc7f5d300825" target="_top" xlink:title="MainWindow::on_ChromaOffset\lSpinBox_valueChanged">
<polygon fill="white" stroke="black" points="169,-98.5 169,-128.5 325,-128.5 325,-98.5 169,-98.5"/>
<text text-anchor="start" x="177" y="-116.5" font-family="Helvetica,sans-Serif" font-size="10.00">MainWindow::on_ChromaOffset</text>
<text text-anchor="middle" x="247" y="-105.5" font-family="Helvetica,sans-Serif" font-size="10.00">SpinBox_valueChanged</text>
</a>
</g>
</g>
<!-- Node1&#45;&gt;Node14 -->
<g id="edge20" class="edge"><title>Node1&#45;&gt;Node14</title>
<path fill="none" stroke="midnightblue" d="M105.932,-166.902C124.701,-157.699 147.766,-146.928 169,-138.5 177.753,-135.026 187.198,-131.658 196.374,-128.578"/>
<polygon fill="midnightblue" stroke="midnightblue" points="104.226,-163.841 96.8162,-171.413 107.331,-170.115 104.226,-163.841"/>
</g>
<!-- Node15 -->
<g id="node15" class="node"><title>Node15</title>
<g id="a_node15"><a xlink:href="classMainWindow.html#a7f6cbe2be23224eb9eef6af3f55a6d4f" target="_top" xlink:title="MainWindow::on_LumaInvert\lCheckBox_toggled">
<polygon fill="white" stroke="black" points="175.5,-49.5 175.5,-79.5 318.5,-79.5 318.5,-49.5 175.5,-49.5"/>
<text text-anchor="start" x="183.5" y="-67.5" font-family="Helvetica,sans-Serif" font-size="10.00">MainWindow::on_LumaInvert</text>
<text text-anchor="middle" x="247" y="-56.5" font-family="Helvetica,sans-Serif" font-size="10.00">CheckBox_toggled</text>
</a>
</g>
</g>
<!-- Node1&#45;&gt;Node15 -->
<g id="edge22" class="edge"><title>Node1&#45;&gt;Node15</title>
<path fill="none" stroke="midnightblue" d="M86.2571,-163.351C105.086,-141.5 135.97,-109.225 169,-89.5 175.396,-85.6808 182.443,-82.3714 189.599,-79.5244"/>
<polygon fill="midnightblue" stroke="midnightblue" points="83.433,-161.271 79.6519,-171.168 88.7797,-165.789 83.433,-161.271"/>
</g>
<!-- Node16 -->
<g id="node16" class="node"><title>Node16</title>
<g id="a_node16"><a xlink:href="classMainWindow.html#aaa518172394694dea45234097327e979" target="_top" xlink:title="MainWindow::on_ChromaInvert\lCheckBox_toggled">
<polygon fill="white" stroke="black" points="170,-0.5 170,-30.5 324,-30.5 324,-0.5 170,-0.5"/>
<text text-anchor="start" x="178" y="-18.5" font-family="Helvetica,sans-Serif" font-size="10.00">MainWindow::on_ChromaInvert</text>
<text text-anchor="middle" x="247" y="-7.5" font-family="Helvetica,sans-Serif" font-size="10.00">CheckBox_toggled</text>
</a>
</g>
</g>
<!-- Node1&#45;&gt;Node16 -->
<g id="edge23" class="edge"><title>Node1&#45;&gt;Node16</title>
<path fill="none" stroke="midnightblue" d="M78.3102,-162.022C93.8274,-129.628 125.422,-72.8523 169,-40.5 174.191,-36.6461 180.003,-33.3701 186.044,-30.5886"/>
<polygon fill="midnightblue" stroke="midnightblue" points="75.0668,-160.696 74.0152,-171.239 81.4117,-163.653 75.0668,-160.696"/>
</g>
<!-- Node3 -->
<g id="node3" class="node"><title>Node3</title>
<g id="a_node3"><a xlink:href="classMainWindow.html#a8b244be8b7b7db1b08de2a2acb9409db" target="_top" xlink:title="MainWindow::MainWindow">
<polygon fill="white" stroke="black" points="788,-326 788,-345 923,-345 923,-326 788,-326"/>
<text text-anchor="middle" x="855.5" y="-333" font-family="Helvetica,sans-Serif" font-size="10.00">MainWindow::MainWindow</text>
</a>
</g>
</g>
<!-- Node2&#45;&gt;Node3 -->
<g id="edge2" class="edge"><title>Node2&#45;&gt;Node3</title>
<path fill="none" stroke="midnightblue" d="M287.192,-367.782C308.49,-377.309 335.6,-387.933 361,-393.5 530.815,-430.722 585.726,-455.251 752,-404.5 790.572,-392.727 827.77,-361.033 844.81,-345.027"/>
<polygon fill="midnightblue" stroke="midnightblue" points="288.392,-364.482 277.843,-363.504 285.48,-370.847 288.392,-364.482"/>
</g>
<!-- Node4 -->
<g id="node4" class="node"><title>Node4</title>
<g id="a_node4"><a xlink:href="classMainWindow.html#a6be7246a1a0ecf5d1442bb1775c3d9b3" target="_top" xlink:title="MainWindow::addDifference\lSequence">
<polygon fill="white" stroke="black" points="377.5,-353.5 377.5,-383.5 517.5,-383.5 517.5,-353.5 377.5,-353.5"/>
<text text-anchor="start" x="385.5" y="-371.5" font-family="Helvetica,sans-Serif" font-size="10.00">MainWindow::addDifference</text>
<text text-anchor="middle" x="447.5" y="-360.5" font-family="Helvetica,sans-Serif" font-size="10.00">Sequence</text>
</a>
</g>
</g>
<!-- Node2&#45;&gt;Node4 -->
<g id="edge3" class="edge"><title>Node2&#45;&gt;Node4</title>
<path fill="none" stroke="midnightblue" d="M330.38,-356.8C345.985,-358.373 362.163,-360.003 377.309,-361.529"/>
<polygon fill="midnightblue" stroke="midnightblue" points="330.525,-353.297 320.225,-355.777 329.823,-360.262 330.525,-353.297"/>
</g>
<!-- Node7 -->
<g id="node7" class="node"><title>Node7</title>
<g id="a_node7"><a xlink:href="classMainWindow.html#af5ecc7c65080215b49b9d931c56c65c9" target="_top" xlink:title="MainWindow::editTextFrame">
<polygon fill="white" stroke="black" points="376.5,-315 376.5,-334 518.5,-334 518.5,-315 376.5,-315"/>
<text text-anchor="middle" x="447.5" y="-322" font-family="Helvetica,sans-Serif" font-size="10.00">MainWindow::editTextFrame</text>
</a>
</g>
</g>
<!-- Node2&#45;&gt;Node7 -->
<g id="edge8" class="edge"><title>Node2&#45;&gt;Node7</title>
<path fill="none" stroke="midnightblue" d="M330.197,-338.562C345.519,-336.709 361.399,-334.789 376.319,-332.985"/>
<polygon fill="midnightblue" stroke="midnightblue" points="329.732,-335.092 320.225,-339.768 330.572,-342.042 329.732,-335.092"/>
</g>
<!-- Node9 -->
<g id="node9" class="node"><title>Node9</title>
<g id="a_node9"><a xlink:href="classMainWindow.html#a156c29c6d7ab278e4246c88a0fcbe2f2" target="_top" xlink:title="MainWindow::updateSettings">
<polygon fill="white" stroke="black" points="589,-238 589,-257 733,-257 733,-238 589,-238"/>
<text text-anchor="middle" x="661" y="-245" font-family="Helvetica,sans-Serif" font-size="10.00">MainWindow::updateSettings</text>
</a>
</g>
</g>
<!-- Node2&#45;&gt;Node9 -->
<g id="edge12" class="edge"><title>Node2&#45;&gt;Node9</title>
<path fill="none" stroke="midnightblue" d="M310.566,-330.07C315.489,-328.295 320.351,-326.432 325,-324.5 341.706,-317.557 343.936,-311.51 361,-305.5 436.56,-278.89 527.405,-263.462 588.98,-255.301"/>
<polygon fill="midnightblue" stroke="midnightblue" points="309.361,-326.783 301.063,-333.369 311.657,-333.396 309.361,-326.783"/>
</g>
<!-- Node5 -->
<g id="node5" class="node"><title>Node5</title>
<g id="a_node5"><a xlink:href="classMainWindow.html#a9df7443ce5f907903438bb6a9abe9a33" target="_top" xlink:title="MainWindow::createMenusAnd\lActions">
<polygon fill="white" stroke="black" points="585,-364.5 585,-394.5 737,-394.5 737,-364.5 585,-364.5"/>
<text text-anchor="start" x="593" y="-382.5" font-family="Helvetica,sans-Serif" font-size="10.00">MainWindow::createMenusAnd</text>
<text text-anchor="middle" x="661" y="-371.5" font-family="Helvetica,sans-Serif" font-size="10.00">Actions</text>
</a>
</g>
</g>
<!-- Node4&#45;&gt;Node5 -->
<g id="edge4" class="edge"><title>Node4&#45;&gt;Node5</title>
<path fill="none" stroke="midnightblue" d="M527.956,-372.632C546.565,-373.6 566.335,-374.629 584.754,-375.586"/>
<polygon fill="midnightblue" stroke="midnightblue" points="527.921,-369.126 517.753,-372.102 527.558,-376.117 527.921,-369.126"/>
</g>
<!-- Node6 -->
<g id="node6" class="node"><title>Node6</title>
<g id="a_node6"><a xlink:href="classMainWindow.html#aaba5c236313378986c42c4a634c4cfb9" target="_top" xlink:title="MainWindow::onCustomContextMenu">
<polygon fill="white" stroke="black" points="570,-326 570,-345 752,-345 752,-326 570,-326"/>
<text text-anchor="middle" x="661" y="-333" font-family="Helvetica,sans-Serif" font-size="10.00">MainWindow::onCustomContextMenu</text>
</a>
</g>
</g>
<!-- Node4&#45;&gt;Node6 -->
<g id="edge6" class="edge"><title>Node4&#45;&gt;Node6</title>
<path fill="none" stroke="midnightblue" d="M527.701,-356.142C551.214,-352.474 576.6,-348.513 598.786,-345.051"/>
<polygon fill="midnightblue" stroke="midnightblue" points="527.094,-352.695 517.753,-357.695 528.173,-359.611 527.094,-352.695"/>
</g>
<!-- Node5&#45;&gt;Node3 -->
<g id="edge5" class="edge"><title>Node5&#45;&gt;Node3</title>
<path fill="none" stroke="midnightblue" d="M737.77,-362.181C763.346,-356.335 790.945,-350.027 812.883,-345.012"/>
<polygon fill="midnightblue" stroke="midnightblue" points="736.678,-358.84 727.709,-364.481 738.238,-365.664 736.678,-358.84"/>
</g>
<!-- Node6&#45;&gt;Node3 -->
<g id="edge7" class="edge"><title>Node6&#45;&gt;Node3</title>
<path fill="none" stroke="midnightblue" d="M762.219,-335.5C770.88,-335.5 779.497,-335.5 787.79,-335.5"/>
<polygon fill="midnightblue" stroke="midnightblue" points="762.05,-332 752.05,-335.5 762.05,-339 762.05,-332"/>
</g>
<!-- Node7&#45;&gt;Node6 -->
<g id="edge9" class="edge"><title>Node7&#45;&gt;Node6</title>
<path fill="none" stroke="midnightblue" d="M528.742,-328.673C542.13,-329.37 556.097,-330.096 569.715,-330.804"/>
<polygon fill="midnightblue" stroke="midnightblue" points="528.801,-325.172 518.633,-328.148 528.437,-332.162 528.801,-325.172"/>
</g>
<!-- Node8 -->
<g id="node8" class="node"><title>Node8</title>
<g id="a_node8"><a xlink:href="classMainWindow.html#ab18c663524e2c130759c0ca960129ea4" target="_top" xlink:title="MainWindow::onItemDouble\lClicked">
<polygon fill="white" stroke="black" points="591,-276.5 591,-306.5 731,-306.5 731,-276.5 591,-276.5"/>
<text text-anchor="start" x="599" y="-294.5" font-family="Helvetica,sans-Serif" font-size="10.00">MainWindow::onItemDouble</text>
<text text-anchor="middle" x="661" y="-283.5" font-family="Helvetica,sans-Serif" font-size="10.00">Clicked</text>
</a>
</g>
</g>
<!-- Node7&#45;&gt;Node8 -->
<g id="edge10" class="edge"><title>Node7&#45;&gt;Node8</title>
<path fill="none" stroke="midnightblue" d="M519.451,-313.43C542.516,-309.831 568.066,-305.844 590.988,-302.268"/>
<polygon fill="midnightblue" stroke="midnightblue" points="518.732,-309.999 509.391,-314.999 519.811,-316.916 518.732,-309.999"/>
</g>
<!-- Node8&#45;&gt;Node3 -->
<g id="edge11" class="edge"><title>Node8&#45;&gt;Node3</title>
<path fill="none" stroke="midnightblue" d="M737.77,-308.819C763.346,-314.665 790.945,-320.973 812.883,-325.988"/>
<polygon fill="midnightblue" stroke="midnightblue" points="738.238,-305.336 727.709,-306.519 736.678,-312.16 738.238,-305.336"/>
</g>
<!-- Node9&#45;&gt;Node3 -->
<g id="edge13" class="edge"><title>Node9&#45;&gt;Node3</title>
<path fill="none" stroke="midnightblue" d="M729.446,-259.627C737.184,-261.854 744.854,-264.46 752,-267.5 787.961,-282.798 824.887,-310.973 843.022,-325.797"/>
<polygon fill="midnightblue" stroke="midnightblue" points="730.206,-256.207 719.642,-257.004 728.397,-262.969 730.206,-256.207"/>
</g>
<!-- Node10&#45;&gt;Node11 -->
<g id="edge15" class="edge"><title>Node10&#45;&gt;Node11</title>
<path fill="none" stroke="midnightblue" d="M301.728,-280.6C309.682,-277.222 317.664,-273.493 325,-269.5 342.335,-260.064 343.603,-252.82 361,-243.5 373.015,-237.063 386.606,-231.34 399.359,-226.577"/>
<polygon fill="midnightblue" stroke="midnightblue" points="300.373,-277.372 292.443,-284.399 303.024,-283.851 300.373,-277.372"/>
</g>
<!-- Node12&#45;&gt;Node11 -->
<g id="edge17" class="edge"><title>Node12&#45;&gt;Node11</title>
<path fill="none" stroke="midnightblue" d="M334.422,-211.5C343.216,-211.5 352.147,-211.5 360.932,-211.5"/>
<polygon fill="midnightblue" stroke="midnightblue" points="334.178,-208 324.178,-211.5 334.178,-215 334.178,-208"/>
</g>
<!-- Node13&#45;&gt;Node11 -->
<g id="edge19" class="edge"><title>Node13&#45;&gt;Node11</title>
<path fill="none" stroke="midnightblue" d="M318.799,-179.977C340.677,-185.377 364.57,-191.276 385.71,-196.494"/>
<polygon fill="midnightblue" stroke="midnightblue" points="319.453,-176.533 308.906,-177.535 317.775,-183.329 319.453,-176.533"/>
</g>
<!-- Node14&#45;&gt;Node11 -->
<g id="edge21" class="edge"><title>Node14&#45;&gt;Node11</title>
<path fill="none" stroke="midnightblue" d="M309.533,-132.077C314.824,-134.095 320.044,-136.242 325,-138.5 361.726,-155.231 401.26,-180.485 424.933,-196.475"/>
<polygon fill="midnightblue" stroke="midnightblue" points="310.57,-128.729 299.976,-128.587 308.169,-135.305 310.57,-128.729"/>
</g>
</g>
</svg>
