<?xml version="1.0" encoding="UTF-8" standalone="no"?>
<!DOCTYPE svg PUBLIC "-//W3C//DTD SVG 1.1//EN"
 "http://www.w3.org/Graphics/SVG/1.1/DTD/svg11.dtd">
<!-- Generated by graphviz version 2.38.0 (20140413.2041)
 -->
<!-- Title: SettingsWindow::settingsChanged Pages: 1 -->
<svg width="466pt" height="39pt"
 viewBox="0.00 0.00 466.00 39.00" xmlns="http://www.w3.org/2000/svg" xmlns:xlink="http://www.w3.org/1999/xlink">
<g id="graph0" class="graph" transform="scale(1 1) rotate(0) translate(4 35)">
<title>SettingsWindow::settingsChanged</title>
<polygon fill="white" stroke="none" points="-4,4 -4,-35 462,-35 462,4 -4,4"/>
<!-- Node1 -->
<g id="node1" class="node"><title>Node1</title>
<polygon fill="#bfbfbf" stroke="black" points="0,-0.5 0,-30.5 128,-30.5 128,-0.5 0,-0.5"/>
<text text-anchor="start" x="8" y="-18.5" font-family="Helvetica,sans-Serif" font-size="10.00">SettingsWindow::settings</text>
<text text-anchor="middle" x="64" y="-7.5" font-family="Helvetica,sans-Serif" font-size="10.00">Changed</text>
</g>
<!-- Node2 -->
<g id="node2" class="node"><title>Node2</title>
<g id="a_node2"><a xlink:href="classSettingsWindow.html#a342dc36eb903ab229aedc6a5eaf7f5af" target="_top" xlink:title="SettingsWindow::saveSettings">
<polygon fill="white" stroke="black" points="164,-6 164,-25 315,-25 315,-6 164,-6"/>
<text text-anchor="middle" x="239.5" y="-13" font-family="Helvetica,sans-Serif" font-size="10.00">SettingsWindow::saveSettings</text>
</a>
</g>
</g>
<!-- Node1&#45;&gt;Node2 -->
<g id="edge1" class="edge"><title>Node1&#45;&gt;Node2</title>
<path fill="none" stroke="midnightblue" d="M138.342,-15.5C146.805,-15.5 155.442,-15.5 163.921,-15.5"/>
<polygon fill="midnightblue" stroke="midnightblue" points="138.128,-12.0001 128.128,-15.5 138.128,-19.0001 138.128,-12.0001"/>
</g>
<!-- Node3 -->
<g id="node3" class="node"><title>Node3</title>
<g id="a_node3"><a xlink:href="classSettingsWindow.html#a571162d244309d5b5ca0da0d980e9491" target="_top" xlink:title="SettingsWindow::on\l_saveButton_clicked">
<polygon fill="white" stroke="black" points="351,-0.5 351,-30.5 458,-30.5 458,-0.5 351,-0.5"/>
<text text-anchor="start" x="359" y="-18.5" font-family="Helvetica,sans-Serif" font-size="10.00">SettingsWindow::on</text>
<text text-anchor="middle" x="404.5" y="-7.5" font-family="Helvetica,sans-Serif" font-size="10.00">_saveButton_clicked</text>
</a>
</g>
</g>
<!-- Node2&#45;&gt;Node3 -->
<g id="edge2" class="edge"><title>Node2&#45;&gt;Node3</title>
<path fill="none" stroke="midnightblue" d="M325.371,-15.5C333.932,-15.5 342.443,-15.5 350.526,-15.5"/>
<polygon fill="midnightblue" stroke="midnightblue" points="325.321,-12.0001 315.321,-15.5 325.321,-19.0001 325.321,-12.0001"/>
</g>
</g>
</svg>
