<?xml version="1.0" encoding="UTF-8" standalone="no"?>
<!DOCTYPE svg PUBLIC "-//W3C//DTD SVG 1.1//EN"
 "http://www.w3.org/Graphics/SVG/1.1/DTD/svg11.dtd">
<!-- Generated by graphviz version 2.38.0 (20140413.2041)
 -->
<!-- Title: DisplayWidget::paintEvent Pages: 1 -->
<svg width="1081pt" height="417pt"
 viewBox="0.00 0.00 1081.00 416.50" xmlns="http://www.w3.org/2000/svg" xmlns:xlink="http://www.w3.org/1999/xlink">
<g id="graph0" class="graph" transform="scale(1 1) rotate(0) translate(4 412.5)">
<title>DisplayWidget::paintEvent</title>
<polygon fill="white" stroke="none" points="-4,4 -4,-412.5 1077,-412.5 1077,4 -4,4"/>
<!-- Node1 -->
<g id="node1" class="node"><title>Node1</title>
<polygon fill="#bfbfbf" stroke="black" points="0,-244 0,-263 133,-263 133,-244 0,-244"/>
<text text-anchor="middle" x="66.5" y="-251" font-family="Helvetica,sans-Serif" font-size="10.00">DisplayWidget::paintEvent</text>
</g>
<!-- Node2 -->
<g id="node2" class="node"><title>Node2</title>
<g id="a_node2"><a xlink:href="classDisplayObject.html#a790f4bdf4ecb24617ea7db5837c3048c" target="_top" xlink:title="DisplayObject::setInfo">
<polygon fill="white" stroke="black" points="192,-389 192,-408 306,-408 306,-389 192,-389"/>
<text text-anchor="middle" x="249" y="-396" font-family="Helvetica,sans-Serif" font-size="10.00">DisplayObject::setInfo</text>
</a>
</g>
</g>
<!-- Node1&#45;&gt;Node2 -->
<g id="edge1" class="edge"><title>Node1&#45;&gt;Node2</title>
<path fill="none" stroke="midnightblue" d="M72.4132,-263.078C85.0214,-286.654 120.938,-347.804 169,-378.5 173.106,-381.123 177.537,-383.401 182.131,-385.382"/>
<polygon fill="midnightblue" stroke="midnightblue" points="181.148,-388.752 191.739,-389.041 183.64,-382.211 181.148,-388.752"/>
</g>
<!-- Node3 -->
<g id="node3" class="node"><title>Node3</title>
<g id="a_node3"><a xlink:href="classDisplayWidget.html#acffa55d9477c7ada0ac15834d4c6460e" target="_top" xlink:title="DisplayWidget::drawFrame">
<polygon fill="white" stroke="black" points="181.5,-301 181.5,-320 316.5,-320 316.5,-301 181.5,-301"/>
<text text-anchor="middle" x="249" y="-308" font-family="Helvetica,sans-Serif" font-size="10.00">DisplayWidget::drawFrame</text>
</a>
</g>
</g>
<!-- Node1&#45;&gt;Node3 -->
<g id="edge2" class="edge"><title>Node1&#45;&gt;Node3</title>
<path fill="none" stroke="midnightblue" d="M96.3277,-263.037C116.618,-269.71 144.43,-278.774 169,-286.5 181.072,-290.296 194.212,-294.328 206.249,-297.981"/>
<polygon fill="midnightblue" stroke="midnightblue" points="205.467,-301.402 216.053,-300.948 207.495,-294.702 205.467,-301.402"/>
</g>
<!-- Node5 -->
<g id="node5" class="node"><title>Node5</title>
<g id="a_node5"><a xlink:href="classDisplayWidget.html#a59b9a00276458fae6c0c2db850a87616" target="_top" xlink:title="DisplayWidget::zoomFactor">
<polygon fill="white" stroke="black" points="370.5,-225 370.5,-244 508.5,-244 508.5,-225 370.5,-225"/>
<text text-anchor="middle" x="439.5" y="-232" font-family="Helvetica,sans-Serif" font-size="10.00">DisplayWidget::zoomFactor</text>
</a>
</g>
</g>
<!-- Node1&#45;&gt;Node5 -->
<g id="edge4" class="edge"><title>Node1&#45;&gt;Node5</title>
<path fill="none" stroke="midnightblue" d="M133.189,-256.614C186.155,-258.376 262.509,-259.226 329,-253.5 346.998,-251.95 366.477,-248.993 383.947,-245.864"/>
<polygon fill="midnightblue" stroke="midnightblue" points="384.777,-249.27 393.975,-244.012 383.505,-242.387 384.777,-249.27"/>
</g>
<!-- Node7 -->
<g id="node7" class="node"><title>Node7</title>
<g id="a_node7"><a xlink:href="classDisplayWidget.html#af5262746328c86b17bad250fdcb86f6e" target="_top" xlink:title="DisplayWidget::drawZoomFactor">
<polygon fill="white" stroke="black" points="169,-225 169,-244 329,-244 329,-225 169,-225"/>
<text text-anchor="middle" x="249" y="-232" font-family="Helvetica,sans-Serif" font-size="10.00">DisplayWidget::drawZoomFactor</text>
</a>
</g>
</g>
<!-- Node1&#45;&gt;Node7 -->
<g id="edge6" class="edge"><title>Node1&#45;&gt;Node7</title>
<path fill="none" stroke="midnightblue" d="M133.175,-246.587C141.507,-245.71 150.141,-244.801 158.763,-243.893"/>
<polygon fill="midnightblue" stroke="midnightblue" points="159.281,-247.358 168.86,-242.831 158.548,-240.397 159.281,-247.358"/>
</g>
<!-- Node8 -->
<g id="node8" class="node"><title>Node8</title>
<g id="a_node8"><a xlink:href="classDisplayWidget.html#a57993fce3ccd5406d4b2d17389172d99" target="_top" xlink:title="DisplayWidget::drawStatistics\lOverlay">
<polygon fill="white" stroke="black" points="174.5,-339.5 174.5,-369.5 323.5,-369.5 323.5,-339.5 174.5,-339.5"/>
<text text-anchor="start" x="182.5" y="-357.5" font-family="Helvetica,sans-Serif" font-size="10.00">DisplayWidget::drawStatistics</text>
<text text-anchor="middle" x="249" y="-346.5" font-family="Helvetica,sans-Serif" font-size="10.00">Overlay</text>
</a>
</g>
</g>
<!-- Node1&#45;&gt;Node8 -->
<g id="edge8" class="edge"><title>Node1&#45;&gt;Node8</title>
<path fill="none" stroke="midnightblue" d="M77.9474,-263.243C95.5015,-279.147 132.58,-310.789 169,-329.5 173.331,-331.725 177.897,-333.798 182.561,-335.722"/>
<polygon fill="midnightblue" stroke="midnightblue" points="181.638,-339.117 192.227,-339.459 184.162,-332.588 181.638,-339.117"/>
</g>
<!-- Node10 -->
<g id="node10" class="node"><title>Node10</title>
<g id="a_node10"><a xlink:href="classDisplayWidget.html#a871f1e96b7032b27fe067d6f2feaa384" target="_top" xlink:title="DisplayWidget::drawRegularGrid">
<polygon fill="white" stroke="black" points="169.5,-187 169.5,-206 328.5,-206 328.5,-187 169.5,-187"/>
<text text-anchor="middle" x="249" y="-194" font-family="Helvetica,sans-Serif" font-size="10.00">DisplayWidget::drawRegularGrid</text>
</a>
</g>
</g>
<!-- Node1&#45;&gt;Node10 -->
<g id="edge12" class="edge"><title>Node1&#45;&gt;Node10</title>
<path fill="none" stroke="midnightblue" d="M90.6038,-243.927C110.998,-235.7 141.653,-223.873 169,-215.5 177.144,-213.007 185.84,-210.632 194.375,-208.46"/>
<polygon fill="midnightblue" stroke="midnightblue" points="195.413,-211.809 204.279,-206.007 193.731,-205.014 195.413,-211.809"/>
</g>
<!-- Node11 -->
<g id="node11" class="node"><title>Node11</title>
<g id="a_node11"><a xlink:href="classDisplayWidget.html#a5b1f82d9c8ca09326e4bd23ffd838512" target="_top" xlink:title="DisplayWidget::drawSelection\lRectangle">
<polygon fill="white" stroke="black" points="175,-137.5 175,-167.5 323,-167.5 323,-137.5 175,-137.5"/>
<text text-anchor="start" x="183" y="-155.5" font-family="Helvetica,sans-Serif" font-size="10.00">DisplayWidget::drawSelection</text>
<text text-anchor="middle" x="249" y="-144.5" font-family="Helvetica,sans-Serif" font-size="10.00">Rectangle</text>
</a>
</g>
</g>
<!-- Node1&#45;&gt;Node11 -->
<g id="edge14" class="edge"><title>Node1&#45;&gt;Node11</title>
<path fill="none" stroke="midnightblue" d="M77.9474,-243.757C95.5015,-227.853 132.58,-196.211 169,-177.5 173.331,-175.275 177.897,-173.202 182.561,-171.278"/>
<polygon fill="midnightblue" stroke="midnightblue" points="184.162,-174.412 192.227,-167.541 181.638,-167.883 184.162,-174.412"/>
</g>
<!-- Node12 -->
<g id="node12" class="node"><title>Node12</title>
<g id="a_node12"><a xlink:href="classDisplayWidget.html#a8d78d2571b0b962ffda77608e24bd10c" target="_top" xlink:title="DisplayWidget::drawZoomBox">
<polygon fill="white" stroke="black" points="174.5,-99 174.5,-118 323.5,-118 323.5,-99 174.5,-99"/>
<text text-anchor="middle" x="249" y="-106" font-family="Helvetica,sans-Serif" font-size="10.00">DisplayWidget::drawZoomBox</text>
</a>
</g>
</g>
<!-- Node1&#45;&gt;Node12 -->
<g id="edge15" class="edge"><title>Node1&#45;&gt;Node12</title>
<path fill="none" stroke="midnightblue" d="M72.3692,-243.81C84.8769,-219.963 120.583,-158.15 169,-127.5 172.324,-125.396 175.862,-123.524 179.527,-121.86"/>
<polygon fill="midnightblue" stroke="midnightblue" points="180.863,-125.096 188.851,-118.136 178.266,-118.595 180.863,-125.096"/>
</g>
<!-- Node4 -->
<g id="node4" class="node"><title>Node4</title>
<g id="a_node4"><a xlink:href="classDisplayObject.html#a5ded2ebad23787f7821d0d9b750bdde3" target="_top" xlink:title="DisplayObject::displayImage">
<polygon fill="white" stroke="black" points="368.5,-285 368.5,-304 510.5,-304 510.5,-285 368.5,-285"/>
<text text-anchor="middle" x="439.5" y="-292" font-family="Helvetica,sans-Serif" font-size="10.00">DisplayObject::displayImage</text>
</a>
</g>
</g>
<!-- Node3&#45;&gt;Node4 -->
<g id="edge3" class="edge"><title>Node3&#45;&gt;Node4</title>
<path fill="none" stroke="midnightblue" d="M316.723,-304.836C330.189,-303.694 344.476,-302.481 358.346,-301.304"/>
<polygon fill="midnightblue" stroke="midnightblue" points="358.686,-304.787 368.355,-300.454 358.094,-297.812 358.686,-304.787"/>
</g>
<!-- Node6 -->
<g id="node6" class="node"><title>Node6</title>
<g id="a_node6"><a xlink:href="classDisplayObject.html#afb3b221174f722f563e7bf55a1ddb29f" target="_top" xlink:title="DisplayObject::width">
<polygon fill="white" stroke="black" points="569,-282 569,-301 676,-301 676,-282 569,-282"/>
<text text-anchor="middle" x="622.5" y="-289" font-family="Helvetica,sans-Serif" font-size="10.00">DisplayObject::width</text>
</a>
</g>
</g>
<!-- Node5&#45;&gt;Node6 -->
<g id="edge5" class="edge"><title>Node5&#45;&gt;Node6</title>
<path fill="none" stroke="midnightblue" d="M470.795,-244.041C501.075,-253.576 547.809,-268.294 581.203,-278.81"/>
<polygon fill="midnightblue" stroke="midnightblue" points="580.516,-282.263 591.106,-281.928 582.619,-275.586 580.516,-282.263"/>
</g>
<!-- Node7&#45;&gt;Node5 -->
<g id="edge7" class="edge"><title>Node7&#45;&gt;Node5</title>
<path fill="none" stroke="midnightblue" d="M329.122,-234.5C339.398,-234.5 349.921,-234.5 360.185,-234.5"/>
<polygon fill="midnightblue" stroke="midnightblue" points="360.343,-238 370.343,-234.5 360.343,-231 360.343,-238"/>
</g>
<!-- Node8&#45;&gt;Node4 -->
<g id="edge11" class="edge"><title>Node8&#45;&gt;Node4</title>
<path fill="none" stroke="midnightblue" d="M297.631,-339.451C307.975,-336.177 318.855,-332.726 329,-329.5 352.209,-322.118 378.173,-313.821 398.991,-307.159"/>
<polygon fill="midnightblue" stroke="midnightblue" points="400.307,-310.413 408.763,-304.03 398.172,-303.746 400.307,-310.413"/>
</g>
<!-- Node8&#45;&gt;Node6 -->
<g id="edge9" class="edge"><title>Node8&#45;&gt;Node6</title>
<path fill="none" stroke="midnightblue" d="M323.558,-344.038C376.605,-336.26 449.862,-325.037 514,-313.5 531.476,-310.357 550.476,-306.586 567.575,-303.061"/>
<polygon fill="midnightblue" stroke="midnightblue" points="568.317,-306.482 577.396,-301.021 566.893,-299.628 568.317,-306.482"/>
</g>
<!-- Node9 -->
<g id="node9" class="node"><title>Node9</title>
<g id="a_node9"><a xlink:href="classDisplayObject.html#a814782fb1bf9e7a2ed7adab74872c08a" target="_top" xlink:title="DisplayObject::height">
<polygon fill="white" stroke="black" points="384.5,-361 384.5,-380 494.5,-380 494.5,-361 384.5,-361"/>
<text text-anchor="middle" x="439.5" y="-368" font-family="Helvetica,sans-Serif" font-size="10.00">DisplayObject::height</text>
</a>
</g>
</g>
<!-- Node8&#45;&gt;Node9 -->
<g id="edge10" class="edge"><title>Node8&#45;&gt;Node9</title>
<path fill="none" stroke="midnightblue" d="M323.689,-360.755C340.449,-362.177 358.121,-363.677 374.443,-365.063"/>
<polygon fill="midnightblue" stroke="midnightblue" points="374.15,-368.55 384.41,-365.909 374.742,-361.576 374.15,-368.55"/>
</g>
<!-- Node10&#45;&gt;Node5 -->
<g id="edge13" class="edge"><title>Node10&#45;&gt;Node5</title>
<path fill="none" stroke="midnightblue" d="M297.567,-206.089C323.001,-211.216 354.505,-217.567 381.271,-222.963"/>
<polygon fill="midnightblue" stroke="midnightblue" points="380.781,-226.435 391.276,-224.98 382.164,-219.573 380.781,-226.435"/>
</g>
<!-- Node12&#45;&gt;Node4 -->
<g id="edge17" class="edge"><title>Node12&#45;&gt;Node4</title>
<path fill="none" stroke="midnightblue" d="M315.497,-118.105C320.434,-120.605 325.029,-123.693 329,-127.5 371.044,-167.803 328.827,-207.854 365,-253.5 374.347,-265.295 388.071,-274.236 401.137,-280.71"/>
<polygon fill="midnightblue" stroke="midnightblue" points="399.914,-284 410.462,-284.994 402.836,-277.639 399.914,-284"/>
</g>
<!-- Node12&#45;&gt;Node5 -->
<g id="edge16" class="edge"><title>Node12&#45;&gt;Node5</title>
<path fill="none" stroke="midnightblue" d="M313.877,-118.064C319.344,-120.553 324.496,-123.651 329,-127.5 360.81,-154.689 333.597,-186.842 365,-214.5 367.481,-216.685 370.178,-218.634 373.026,-220.372"/>
<polygon fill="midnightblue" stroke="midnightblue" points="371.464,-223.505 381.955,-224.98 374.674,-217.284 371.464,-223.505"/>
</g>
<!-- Node13 -->
<g id="node13" class="node"><title>Node13</title>
<g id="a_node13"><a xlink:href="classDisplayObject.html#a497df07b5c88b4e003c297cdac6940c1" target="_top" xlink:title="DisplayObject::internalScale\lFactor">
<polygon fill="white" stroke="black" points="369.5,-49.5 369.5,-79.5 509.5,-79.5 509.5,-49.5 369.5,-49.5"/>
<text text-anchor="start" x="377.5" y="-67.5" font-family="Helvetica,sans-Serif" font-size="10.00">DisplayObject::internalScale</text>
<text text-anchor="middle" x="439.5" y="-56.5" font-family="Helvetica,sans-Serif" font-size="10.00">Factor</text>
</a>
</g>
</g>
<!-- Node12&#45;&gt;Node13 -->
<g id="edge18" class="edge"><title>Node12&#45;&gt;Node13</title>
<path fill="none" stroke="midnightblue" d="M290.902,-98.9527C312.314,-93.9545 339.204,-87.6778 364.146,-81.8558"/>
<polygon fill="midnightblue" stroke="midnightblue" points="365.016,-85.2469 373.959,-79.5654 363.425,-78.4302 365.016,-85.2469"/>
</g>
<!-- Node14 -->
<g id="node14" class="node"><title>Node14</title>
<g id="a_node14"><a xlink:href="classStatisticsObject.html#aff8b935a89013db0ca4d03215465787a" target="_top" xlink:title="StatisticsObject::anyStatistics\lRendered">
<polygon fill="white" stroke="black" points="365,-0.5 365,-30.5 514,-30.5 514,-0.5 365,-0.5"/>
<text text-anchor="start" x="373" y="-18.5" font-family="Helvetica,sans-Serif" font-size="10.00">StatisticsObject::anyStatistics</text>
<text text-anchor="middle" x="439.5" y="-7.5" font-family="Helvetica,sans-Serif" font-size="10.00">Rendered</text>
</a>
</g>
</g>
<!-- Node12&#45;&gt;Node14 -->
<g id="edge19" class="edge"><title>Node12&#45;&gt;Node14</title>
<path fill="none" stroke="midnightblue" d="M263.608,-98.9458C284.587,-84.5433 326.447,-57.0888 365,-39.5 369.095,-37.6318 373.378,-35.8412 377.73,-34.14"/>
<polygon fill="midnightblue" stroke="midnightblue" points="379.174,-37.337 387.321,-30.563 376.728,-30.7783 379.174,-37.337"/>
</g>
<!-- Node16 -->
<g id="node16" class="node"><title>Node16</title>
<g id="a_node16"><a xlink:href="classStatisticsObject.html#a9d90fa9d1b1373e6f93a9839c757739a" target="_top" xlink:title="StatisticsObject::internal\lScaleFactor">
<polygon fill="white" stroke="black" points="377.5,-175.5 377.5,-205.5 501.5,-205.5 501.5,-175.5 377.5,-175.5"/>
<text text-anchor="start" x="385.5" y="-193.5" font-family="Helvetica,sans-Serif" font-size="10.00">StatisticsObject::internal</text>
<text text-anchor="middle" x="439.5" y="-182.5" font-family="Helvetica,sans-Serif" font-size="10.00">ScaleFactor</text>
</a>
</g>
</g>
<!-- Node12&#45;&gt;Node16 -->
<g id="edge21" class="edge"><title>Node12&#45;&gt;Node16</title>
<path fill="none" stroke="midnightblue" d="M307.206,-118.064C314.806,-120.525 322.283,-123.617 329,-127.5 349.14,-139.145 345.415,-152.943 365,-165.5 368.134,-167.51 371.448,-169.377 374.866,-171.109"/>
<polygon fill="midnightblue" stroke="midnightblue" points="373.56,-174.361 384.106,-175.382 376.499,-168.007 373.56,-174.361"/>
</g>
<!-- Node18 -->
<g id="node18" class="node"><title>Node18</title>
<g id="a_node18"><a xlink:href="classStatisticsObject.html#aca772b1f478a98a49b8e0835bf44f02a" target="_top" xlink:title="StatisticsObject::getValuesAt">
<polygon fill="white" stroke="black" points="366.5,-137 366.5,-156 512.5,-156 512.5,-137 366.5,-137"/>
<text text-anchor="middle" x="439.5" y="-144" font-family="Helvetica,sans-Serif" font-size="10.00">StatisticsObject::getValuesAt</text>
</a>
</g>
</g>
<!-- Node12&#45;&gt;Node18 -->
<g id="edge23" class="edge"><title>Node12&#45;&gt;Node18</title>
<path fill="none" stroke="midnightblue" d="M297.567,-118.089C323.001,-123.216 354.505,-129.567 381.271,-134.963"/>
<polygon fill="midnightblue" stroke="midnightblue" points="380.781,-138.435 391.276,-136.98 382.164,-131.573 380.781,-138.435"/>
</g>
<!-- Node24 -->
<g id="node24" class="node"><title>Node24</title>
<g id="a_node24"><a xlink:href="classDisplayObject.html#a0b3c486428073fdd24cc2d2f62205e3f" target="_top" xlink:title="DisplayObject::getValuesAt">
<polygon fill="white" stroke="black" points="371,-99 371,-118 508,-118 508,-99 371,-99"/>
<text text-anchor="middle" x="439.5" y="-106" font-family="Helvetica,sans-Serif" font-size="10.00">DisplayObject::getValuesAt</text>
</a>
</g>
</g>
<!-- Node12&#45;&gt;Node24 -->
<g id="edge29" class="edge"><title>Node12&#45;&gt;Node24</title>
<path fill="none" stroke="midnightblue" d="M323.689,-108.5C335.79,-108.5 348.366,-108.5 360.565,-108.5"/>
<polygon fill="midnightblue" stroke="midnightblue" points="360.706,-112 370.706,-108.5 360.706,-105 360.706,-112"/>
</g>
<!-- Node15 -->
<g id="node15" class="node"><title>Node15</title>
<g id="a_node15"><a xlink:href="classstatisticSource.html#a7b519c4cbad56471189a6e5f64204404" target="_top" xlink:title="statisticSource::anyStatistics\lRendered">
<polygon fill="white" stroke="black" points="550,-0.5 550,-30.5 695,-30.5 695,-0.5 550,-0.5"/>
<text text-anchor="start" x="558" y="-18.5" font-family="Helvetica,sans-Serif" font-size="10.00">statisticSource::anyStatistics</text>
<text text-anchor="middle" x="622.5" y="-7.5" font-family="Helvetica,sans-Serif" font-size="10.00">Rendered</text>
</a>
</g>
</g>
<!-- Node14&#45;&gt;Node15 -->
<g id="edge20" class="edge"><title>Node14&#45;&gt;Node15</title>
<path fill="none" stroke="midnightblue" d="M514.12,-15.5C522.631,-15.5 531.35,-15.5 539.959,-15.5"/>
<polygon fill="midnightblue" stroke="midnightblue" points="539.997,-19.0001 549.996,-15.5 539.996,-12.0001 539.997,-19.0001"/>
</g>
<!-- Node17 -->
<g id="node17" class="node"><title>Node17</title>
<g id="a_node17"><a xlink:href="classstatisticSource.html#ab919493c131a2f9b26c1c212c05ad223" target="_top" xlink:title="statisticSource::internal\lScaleFactor">
<polygon fill="white" stroke="black" points="563,-175.5 563,-205.5 682,-205.5 682,-175.5 563,-175.5"/>
<text text-anchor="start" x="571" y="-193.5" font-family="Helvetica,sans-Serif" font-size="10.00">statisticSource::internal</text>
<text text-anchor="middle" x="622.5" y="-182.5" font-family="Helvetica,sans-Serif" font-size="10.00">ScaleFactor</text>
</a>
</g>
</g>
<!-- Node16&#45;&gt;Node17 -->
<g id="edge22" class="edge"><title>Node16&#45;&gt;Node17</title>
<path fill="none" stroke="midnightblue" d="M501.526,-190.5C517.929,-190.5 535.782,-190.5 552.582,-190.5"/>
<polygon fill="midnightblue" stroke="midnightblue" points="552.883,-194 562.883,-190.5 552.883,-187 552.883,-194"/>
</g>
<!-- Node19 -->
<g id="node19" class="node"><title>Node19</title>
<g id="a_node19"><a xlink:href="classstatisticSource.html#a615cd6644b2620644e6df02e631c59e9" target="_top" xlink:title="statisticSource::getValuesAt">
<polygon fill="white" stroke="black" points="552,-137 552,-156 693,-156 693,-137 552,-137"/>
<text text-anchor="middle" x="622.5" y="-144" font-family="Helvetica,sans-Serif" font-size="10.00">statisticSource::getValuesAt</text>
</a>
</g>
</g>
<!-- Node18&#45;&gt;Node19 -->
<g id="edge24" class="edge"><title>Node18&#45;&gt;Node19</title>
<path fill="none" stroke="midnightblue" d="M512.556,-146.5C522.141,-146.5 532.014,-146.5 541.721,-146.5"/>
<polygon fill="midnightblue" stroke="midnightblue" points="541.756,-150 551.756,-146.5 541.756,-143 541.756,-150"/>
</g>
<!-- Node20 -->
<g id="node20" class="node"><title>Node20</title>
<g id="a_node20"><a xlink:href="classstatisticSource.html#a666dee63c406a9b88484286b2a8e08f4" target="_top" xlink:title="statisticSource::getStatistics">
<polygon fill="white" stroke="black" points="741.5,-175 741.5,-194 884.5,-194 884.5,-175 741.5,-175"/>
<text text-anchor="middle" x="813" y="-182" font-family="Helvetica,sans-Serif" font-size="10.00">statisticSource::getStatistics</text>
</a>
</g>
</g>
<!-- Node19&#45;&gt;Node20 -->
<g id="edge25" class="edge"><title>Node19&#45;&gt;Node20</title>
<path fill="none" stroke="midnightblue" d="M671.067,-156.089C696.501,-161.216 728.005,-167.567 754.771,-172.963"/>
<polygon fill="midnightblue" stroke="midnightblue" points="754.281,-176.435 764.776,-174.98 755.664,-169.573 754.281,-176.435"/>
</g>
<!-- Node22 -->
<g id="node22" class="node"><title>Node22</title>
<g id="a_node22"><a xlink:href="classstatisticSource.html#accae8cdfc95b05e3ef9a945b1f579c46" target="_top" xlink:title="statisticSource::getStatisticsType">
<polygon fill="white" stroke="black" points="731,-137 731,-156 895,-156 895,-137 731,-137"/>
<text text-anchor="middle" x="813" y="-144" font-family="Helvetica,sans-Serif" font-size="10.00">statisticSource::getStatisticsType</text>
</a>
</g>
</g>
<!-- Node19&#45;&gt;Node22 -->
<g id="edge27" class="edge"><title>Node19&#45;&gt;Node22</title>
<path fill="none" stroke="midnightblue" d="M693.155,-146.5C702.166,-146.5 711.5,-146.5 720.794,-146.5"/>
<polygon fill="midnightblue" stroke="midnightblue" points="720.846,-150 730.846,-146.5 720.846,-143 720.846,-150"/>
</g>
<!-- Node23 -->
<g id="node23" class="node"><title>Node23</title>
<g id="a_node23"><a xlink:href="classStatisticsType.html#a5a478ec4ac3d2ade7a2523e72f854b84" target="_top" xlink:title="StatisticsType::getValueTxt">
<polygon fill="white" stroke="black" points="744,-99 744,-118 882,-118 882,-99 744,-99"/>
<text text-anchor="middle" x="813" y="-106" font-family="Helvetica,sans-Serif" font-size="10.00">StatisticsType::getValueTxt</text>
</a>
</g>
</g>
<!-- Node19&#45;&gt;Node23 -->
<g id="edge28" class="edge"><title>Node19&#45;&gt;Node23</title>
<path fill="none" stroke="midnightblue" d="M671.067,-136.911C696.501,-131.784 728.005,-125.433 754.771,-120.037"/>
<polygon fill="midnightblue" stroke="midnightblue" points="755.664,-123.427 764.776,-118.02 754.281,-116.565 755.664,-123.427"/>
</g>
<!-- Node21 -->
<g id="node21" class="node"><title>Node21</title>
<g id="a_node21"><a xlink:href="classstatisticSource.html#a769e0ef8bb1427d4d586425956ebfca2" target="_top" xlink:title="statisticSource::loadStatistic\lToCache">
<polygon fill="white" stroke="black" points="931,-169.5 931,-199.5 1073,-199.5 1073,-169.5 931,-169.5"/>
<text text-anchor="start" x="939" y="-187.5" font-family="Helvetica,sans-Serif" font-size="10.00">statisticSource::loadStatistic</text>
<text text-anchor="middle" x="1002" y="-176.5" font-family="Helvetica,sans-Serif" font-size="10.00">ToCache</text>
</a>
</g>
</g>
<!-- Node20&#45;&gt;Node21 -->
<g id="edge26" class="edge"><title>Node20&#45;&gt;Node21</title>
<path fill="none" stroke="midnightblue" d="M884.697,-184.5C896.494,-184.5 908.807,-184.5 920.821,-184.5"/>
<polygon fill="midnightblue" stroke="midnightblue" points="920.824,-188 930.824,-184.5 920.824,-181 920.824,-188"/>
</g>
</g>
</svg>
