<?xml version="1.0" encoding="UTF-8" standalone="no"?>
<!DOCTYPE svg PUBLIC "-//W3C//DTD SVG 1.1//EN"
 "http://www.w3.org/Graphics/SVG/1.1/DTD/svg11.dtd">
<!-- Generated by graphviz version 2.38.0 (20140413.2041)
 -->
<!-- Title: YUVSource::verticalSubSampling Pages: 1 -->
<svg width="1232pt" height="85pt"
 viewBox="0.00 0.00 1232.00 85.00" xmlns="http://www.w3.org/2000/svg" xmlns:xlink="http://www.w3.org/1999/xlink">
<g id="graph0" class="graph" transform="scale(1 1) rotate(0) translate(4 81)">
<title>YUVSource::verticalSubSampling</title>
<polygon fill="white" stroke="none" points="-4,4 -4,-81 1228,-81 1228,4 -4,4"/>
<!-- Node1 -->
<g id="node1" class="node"><title>Node1</title>
<polygon fill="#bfbfbf" stroke="black" points="0,-19.5 0,-38.5 164,-38.5 164,-19.5 0,-19.5"/>
<text text-anchor="middle" x="82" y="-26.5" font-family="Helvetica,sans-Serif" font-size="10.00">YUVSource::verticalSubSampling</text>
</g>
<!-- Node2 -->
<g id="node2" class="node"><title>Node2</title>
<g id="a_node2"><a xlink:href="classYUVSource.html#aaec9232f1fe9e0b8beaad1cd4cb5279c" target="_top" xlink:title="YUVSource::convert2YUV444">
<polygon fill="white" stroke="black" points="200,-19.5 200,-38.5 349,-38.5 349,-19.5 200,-19.5"/>
<text text-anchor="middle" x="274.5" y="-26.5" font-family="Helvetica,sans-Serif" font-size="10.00">YUVSource::convert2YUV444</text>
</a>
</g>
</g>
<!-- Node1&#45;&gt;Node2 -->
<g id="edge1" class="edge"><title>Node1&#45;&gt;Node2</title>
<path fill="none" stroke="midnightblue" d="M174.117,-29C182.711,-29 191.35,-29 199.753,-29"/>
<polygon fill="midnightblue" stroke="midnightblue" points="174.065,-25.5001 164.065,-29 174.065,-32.5001 174.065,-25.5001"/>
</g>
<!-- Node3 -->
<g id="node3" class="node"><title>Node3</title>
<g id="a_node3"><a xlink:href="classde265File.html#a3c517644cd5710d54289b2cdba99babc" target="_top" xlink:title="de265File::copyImgTo444Buffer">
<polygon fill="white" stroke="black" points="385,-38.5 385,-57.5 540,-57.5 540,-38.5 385,-38.5"/>
<text text-anchor="middle" x="462.5" y="-45.5" font-family="Helvetica,sans-Serif" font-size="10.00">de265File::copyImgTo444Buffer</text>
</a>
</g>
</g>
<!-- Node2&#45;&gt;Node3 -->
<g id="edge2" class="edge"><title>Node2&#45;&gt;Node3</title>
<path fill="none" stroke="midnightblue" d="M359.036,-37.5333C367.634,-38.4115 376.34,-39.3008 384.857,-40.1709"/>
<polygon fill="midnightblue" stroke="midnightblue" points="359.316,-34.0437 349.012,-36.5093 358.605,-41.0075 359.316,-34.0437"/>
</g>
<!-- Node9 -->
<g id="node9" class="node"><title>Node9</title>
<g id="a_node9"><a xlink:href="classYUVFile.html#abf82a0b4c126ed5d1d9eaa7ff096e7b0" target="_top" xlink:title="YUVFile::getOneFrame">
<polygon fill="white" stroke="black" points="403,-0.5 403,-19.5 522,-19.5 522,-0.5 403,-0.5"/>
<text text-anchor="middle" x="462.5" y="-7.5" font-family="Helvetica,sans-Serif" font-size="10.00">YUVFile::getOneFrame</text>
</a>
</g>
</g>
<!-- Node2&#45;&gt;Node9 -->
<g id="edge9" class="edge"><title>Node2&#45;&gt;Node9</title>
<path fill="none" stroke="midnightblue" d="M359.152,-20.4549C373.899,-18.9484 388.963,-17.4097 402.84,-15.9922"/>
<polygon fill="midnightblue" stroke="midnightblue" points="358.605,-16.9925 349.012,-21.4907 359.316,-23.9563 358.605,-16.9925"/>
</g>
<!-- Node4 -->
<g id="node4" class="node"><title>Node4</title>
<g id="a_node4"><a xlink:href="classde265File.html#af2a66d6d47d74d992f61da5048d90538" target="_top" xlink:title="de265File::decodeOnePicture">
<polygon fill="white" stroke="black" points="576,-38.5 576,-57.5 721,-57.5 721,-38.5 576,-38.5"/>
<text text-anchor="middle" x="648.5" y="-45.5" font-family="Helvetica,sans-Serif" font-size="10.00">de265File::decodeOnePicture</text>
</a>
</g>
</g>
<!-- Node3&#45;&gt;Node4 -->
<g id="edge3" class="edge"><title>Node3&#45;&gt;Node4</title>
<path fill="none" stroke="midnightblue" d="M550.249,-48C558.848,-48 567.508,-48 575.929,-48"/>
<polygon fill="midnightblue" stroke="midnightblue" points="550.2,-44.5001 540.2,-48 550.2,-51.5001 550.2,-44.5001"/>
</g>
<!-- Node5 -->
<g id="node5" class="node"><title>Node5</title>
<g id="a_node5"><a xlink:href="classde265File.html#afc2f00a9676e0b5c3fdd821619bda482" target="_top" xlink:title="de265File::de265File">
<polygon fill="white" stroke="black" points="953.5,-57.5 953.5,-76.5 1060.5,-76.5 1060.5,-57.5 953.5,-57.5"/>
<text text-anchor="middle" x="1007" y="-64.5" font-family="Helvetica,sans-Serif" font-size="10.00">de265File::de265File</text>
</a>
</g>
</g>
<!-- Node4&#45;&gt;Node5 -->
<g id="edge4" class="edge"><title>Node4&#45;&gt;Node5</title>
<path fill="none" stroke="midnightblue" d="M731.511,-52.3709C799.813,-56.0111 895.038,-61.0862 953.495,-64.2017"/>
<polygon fill="midnightblue" stroke="midnightblue" points="731.386,-48.8593 721.214,-51.8221 731.014,-55.8494 731.386,-48.8593"/>
</g>
<!-- Node6 -->
<g id="node6" class="node"><title>Node6</title>
<g id="a_node6"><a xlink:href="classde265File.html#a948bfcc1b2c4ad6f0a3aa54b99f9553f" target="_top" xlink:title="de265File::backgroundDecoder">
<polygon fill="white" stroke="black" points="757,-19.5 757,-38.5 909,-38.5 909,-19.5 757,-19.5"/>
<text text-anchor="middle" x="833" y="-26.5" font-family="Helvetica,sans-Serif" font-size="10.00">de265File::backgroundDecoder</text>
</a>
</g>
</g>
<!-- Node4&#45;&gt;Node6 -->
<g id="edge5" class="edge"><title>Node4&#45;&gt;Node6</title>
<path fill="none" stroke="midnightblue" d="M731.138,-39.5007C739.745,-38.6046 748.468,-37.6965 756.995,-36.8088"/>
<polygon fill="midnightblue" stroke="midnightblue" points="730.689,-36.0285 721.105,-40.5452 731.414,-42.9908 730.689,-36.0285"/>
</g>
<!-- Node6&#45;&gt;Node5 -->
<g id="edge6" class="edge"><title>Node6&#45;&gt;Node5</title>
<path fill="none" stroke="midnightblue" d="M887.196,-40.7526C911.517,-46.1258 939.955,-52.4086 962.909,-57.4799"/>
<polygon fill="midnightblue" stroke="midnightblue" points="887.922,-37.3288 877.403,-38.589 886.412,-44.164 887.922,-37.3288"/>
</g>
<!-- Node7 -->
<g id="node7" class="node"><title>Node7</title>
<g id="a_node7"><a xlink:href="classde265File.html#a4778a7853c318063a9efd5f0990e79bf" target="_top" xlink:title="de265File::getOneFrame">
<polygon fill="white" stroke="black" points="945,-19.5 945,-38.5 1069,-38.5 1069,-19.5 945,-19.5"/>
<text text-anchor="middle" x="1007" y="-26.5" font-family="Helvetica,sans-Serif" font-size="10.00">de265File::getOneFrame</text>
</a>
</g>
</g>
<!-- Node6&#45;&gt;Node7 -->
<g id="edge7" class="edge"><title>Node6&#45;&gt;Node7</title>
<path fill="none" stroke="midnightblue" d="M919.305,-29C927.942,-29 936.589,-29 944.896,-29"/>
<polygon fill="midnightblue" stroke="midnightblue" points="919.192,-25.5001 909.191,-29 919.191,-32.5001 919.192,-25.5001"/>
</g>
<!-- Node8 -->
<g id="node8" class="node"><title>Node8</title>
<g id="a_node8"><a xlink:href="classde265File.html#af878636f68cd2ee3a4dfc6b3b0169676" target="_top" xlink:title="de265File::loadStatistic\lToCache">
<polygon fill="white" stroke="black" points="1105,-14 1105,-44 1224,-44 1224,-14 1105,-14"/>
<text text-anchor="start" x="1113" y="-32" font-family="Helvetica,sans-Serif" font-size="10.00">de265File::loadStatistic</text>
<text text-anchor="middle" x="1164.5" y="-21" font-family="Helvetica,sans-Serif" font-size="10.00">ToCache</text>
</a>
</g>
</g>
<!-- Node7&#45;&gt;Node8 -->
<g id="edge8" class="edge"><title>Node7&#45;&gt;Node8</title>
<path fill="none" stroke="midnightblue" d="M1079.09,-29C1087.75,-29 1096.51,-29 1104.95,-29"/>
<polygon fill="midnightblue" stroke="midnightblue" points="1079.01,-25.5001 1069.01,-29 1079.01,-32.5001 1079.01,-25.5001"/>
</g>
</g>
</svg>
