<?xml version="1.0" encoding="UTF-8" standalone="no"?>
<!DOCTYPE svg PUBLIC "-//W3C//DTD SVG 1.1//EN"
 "http://www.w3.org/Graphics/SVG/1.1/DTD/svg11.dtd">
<!-- Generated by graphviz version 2.38.0 (20140413.2041)
 -->
<!-- Title: PlaylistItem::getInfoTitel Pages: 1 -->
<!--zoomable 236 -->
<svg id="main" version="1.1" xmlns="http://www.w3.org/2000/svg" xmlns:xlink="http://www.w3.org/1999/xlink" xml:space="preserve" onload="init(evt)">
<style type="text/css"><![CDATA[
.edge:hover path { stroke: red; }
.edge:hover polygon { stroke: red; fill: red; }
]]></style>
<script type="text/javascript"><![CDATA[
var edges = document.getElementsByTagName('g');
if (edges && edges.length) {
  for (var i=0;i<edges.length;i++) {
    if (edges[i].id.substr(0,4)=='edge') {
      edges[i].setAttribute('class','edge');
    }
  }
}
]]></script>
        <defs>
                <circle id="rim" cx="0" cy="0" r="7"/>
                <circle id="rim2" cx="0" cy="0" r="3.5"/>
                <g id="zoomPlus">
                        <use xlink:href="#rim" fill="#404040">
                                <set attributeName="fill" to="#808080" begin="zoomplus.mouseover" end="zoomplus.mouseout"/>
                        </use>
                        <path d="M-4,0h8M0,-4v8" fill="none" stroke="white" stroke-width="1.5" pointer-events="none"/>
                </g>
                <g id="zoomMin">
                        <use xlink:href="#rim" fill="#404040">
                                <set attributeName="fill" to="#808080" begin="zoomminus.mouseover" end="zoomminus.mouseout"/>
                        </use>
                        <path d="M-4,0h8" fill="none" stroke="white" stroke-width="1.5" pointer-events="none"/>
                </g>
                <g id="dirArrow">
                        <path fill="none" stroke="white" stroke-width="1.5" d="M0,-3.0v7 M-2.5,-0.5L0,-3.0L2.5,-0.5"/>
                </g>
               <g id="resetDef">
                       <use xlink:href="#rim2" fill="#404040">
                               <set attributeName="fill" to="#808080" begin="reset.mouseover" end="reset.mouseout"/>
                       </use>
               </g>
        </defs>

<script type="text/javascript">
var viewWidth = 1252;
var viewHeight = 236;
var sectionId = 'dynsection-11';
</script>
<script xlink:href="svgpan.js"/>
<svg id="graph" class="graph">
<g id="viewport">
<title>PlaylistItem::getInfoTitel</title>
<polygon fill="white" stroke="none" points="-4,4 -4,-232.031 1248,-232.031 1248,4 -4,4"/>
<!-- Node1 -->
<g id="node1" class="node"><title>Node1</title>
<polygon fill="#bfbfbf" stroke="black" points="0,-32.1366 0,-51.1366 123,-51.1366 123,-32.1366 0,-32.1366"/>
<text text-anchor="middle" x="61.5" y="-39.1366" font-family="Helvetica,sans-Serif" font-size="10.00">PlaylistItem::getInfoTitel</text>
</g>
<!-- Node2 -->
<g id="node2" class="node"><title>Node2</title>
<g id="a_node2"><a xlink:href="classMainWindow.html#a29e6418f12a4331860a7db3616e91600" target="_top" xlink:title="updates the YUV information GUI elements from the current Renderobject ">
<polygon fill="white" stroke="black" points="159,-26.6366 159,-56.6366 308,-56.6366 308,-26.6366 159,-26.6366"/>
<text text-anchor="start" x="167" y="-44.6366" font-family="Helvetica,sans-Serif" font-size="10.00">MainWindow::updateSelection</text>
<text text-anchor="middle" x="233.5" y="-33.6366" font-family="Helvetica,sans-Serif" font-size="10.00">MetaInfo</text>
</a>
</g>
</g>
<!-- Node1&#45;&gt;Node2 -->
<g id="edge1" class="edge"><title>Node1&#45;&gt;Node2</title>
<path fill="none" stroke="midnightblue" d="M133.529,-41.6366C141.934,-41.6366 150.526,-41.6366 158.964,-41.6366"/>
<polygon fill="midnightblue" stroke="midnightblue" points="133.394,-38.1367 123.394,-41.6366 133.394,-45.1367 133.394,-38.1367"/>
</g>
<!-- Node3 -->
<g id="node3" class="node"><title>Node3</title>
<g id="a_node3"><a xlink:href="classMainWindow.html#a6f33e93f427ff2df80edffcb3ad944da" target="_top" xlink:title="MainWindow::updateSelected\lItems">
<polygon fill="white" stroke="black" points="529,-92.6366 529,-122.637 675,-122.637 675,-92.6366 529,-92.6366"/>
<text text-anchor="start" x="537" y="-110.637" font-family="Helvetica,sans-Serif" font-size="10.00">MainWindow::updateSelected</text>
<text text-anchor="middle" x="602" y="-99.6366" font-family="Helvetica,sans-Serif" font-size="10.00">Items</text>
</a>
</g>
</g>
<!-- Node2&#45;&gt;Node3 -->
<g id="edge2" class="edge"><title>Node2&#45;&gt;Node3</title>
<path fill="none" stroke="midnightblue" d="M270.102,-61.4485C290.976,-72.0617 318.233,-84.2379 344,-90.6366 405.082,-105.805 476.685,-109.433 528.776,-109.625"/>
<polygon fill="midnightblue" stroke="midnightblue" points="271.476,-58.2178 260.989,-56.7085 268.246,-64.4281 271.476,-58.2178"/>
</g>
<!-- Node11 -->
<g id="node11" class="node"><title>Node11</title>
<g id="a_node11"><a xlink:href="classMainWindow.html#a2cae0b3ed4283301ecc11dc881d31422" target="_top" xlink:title="A file option was changed by the user (width/height/start/end/rate/sampling/frameSize/pixelFormat). ">
<polygon fill="white" stroke="black" points="350.5,-2.63661 350.5,-32.6366 486.5,-32.6366 486.5,-2.63661 350.5,-2.63661"/>
<text text-anchor="start" x="358.5" y="-20.6366" font-family="Helvetica,sans-Serif" font-size="10.00">MainWindow::on_fileOption</text>
<text text-anchor="middle" x="418.5" y="-9.63661" font-family="Helvetica,sans-Serif" font-size="10.00">ValueChanged</text>
</a>
</g>
</g>
<!-- Node2&#45;&gt;Node11 -->
<g id="edge15" class="edge"><title>Node2&#45;&gt;Node11</title>
<path fill="none" stroke="midnightblue" d="M309.685,-25.1226C323.109,-23.2021 337.017,-21.4175 350.202,-19.927"/>
<polygon fill="midnightblue" stroke="midnightblue" points="308.919,-21.6975 299.534,-26.615 309.937,-28.6231 308.919,-21.6975"/>
</g>
<!-- Node12 -->
<g id="node12" class="node"><title>Node12</title>
<g id="a_node12"><a xlink:href="classMainWindow.html#a23cc43af3c6873f9a936b5af05c99f49" target="_top" xlink:title="The display objects information changed. Update. ">
<polygon fill="white" stroke="black" points="344,-51.6366 344,-81.6366 493,-81.6366 493,-51.6366 344,-51.6366"/>
<text text-anchor="start" x="352" y="-69.6366" font-family="Helvetica,sans-Serif" font-size="10.00">MainWindow::currentSelection</text>
<text text-anchor="middle" x="418.5" y="-58.6366" font-family="Helvetica,sans-Serif" font-size="10.00">InformationChanged</text>
</a>
</g>
</g>
<!-- Node2&#45;&gt;Node12 -->
<g id="edge18" class="edge"><title>Node2&#45;&gt;Node12</title>
<path fill="none" stroke="midnightblue" d="M318.109,-53.0586C326.651,-54.2255 335.285,-55.405 343.711,-56.5561"/>
<polygon fill="midnightblue" stroke="midnightblue" points="318.524,-49.5828 308.142,-51.697 317.576,-56.5184 318.524,-49.5828"/>
</g>
<!-- Node4 -->
<g id="node4" class="node"><title>Node4</title>
<g id="a_node4"><a xlink:href="classMainWindow.html#a8b244be8b7b7db1b08de2a2acb9409db" target="_top" xlink:title="MainWindow::MainWindow">
<polygon fill="white" stroke="black" points="1109,-112.137 1109,-131.137 1244,-131.137 1244,-112.137 1109,-112.137"/>
<text text-anchor="middle" x="1176.5" y="-119.137" font-family="Helvetica,sans-Serif" font-size="10.00">MainWindow::MainWindow</text>
</a>
</g>
</g>
<!-- Node3&#45;&gt;Node4 -->
<g id="edge3" class="edge"><title>Node3&#45;&gt;Node4</title>
<path fill="none" stroke="midnightblue" d="M631.905,-128.576C652.918,-142.892 682.551,-161.266 711,-172.637 787.099,-203.051 809.538,-203.694 891,-212.637 971.406,-221.463 997.383,-241.36 1073,-212.637 1116.82,-195.99 1153.9,-151.075 1168.66,-131.257"/>
<polygon fill="midnightblue" stroke="midnightblue" points="633.668,-125.54 623.455,-122.721 629.681,-131.293 633.668,-125.54"/>
</g>
<!-- Node5 -->
<g id="node5" class="node"><title>Node5</title>
<g id="a_node5"><a xlink:href="classMainWindow.html#a6be7246a1a0ecf5d1442bb1775c3d9b3" target="_top" xlink:title="MainWindow::addDifference\lSequence">
<polygon fill="white" stroke="black" points="713,-133.637 713,-163.637 853,-163.637 853,-133.637 713,-133.637"/>
<text text-anchor="start" x="721" y="-151.637" font-family="Helvetica,sans-Serif" font-size="10.00">MainWindow::addDifference</text>
<text text-anchor="middle" x="783" y="-140.637" font-family="Helvetica,sans-Serif" font-size="10.00">Sequence</text>
</a>
</g>
</g>
<!-- Node3&#45;&gt;Node5 -->
<g id="edge4" class="edge"><title>Node3&#45;&gt;Node5</title>
<path fill="none" stroke="midnightblue" d="M678.606,-124.954C691.161,-127.83 704.09,-130.791 716.371,-133.604"/>
<polygon fill="midnightblue" stroke="midnightblue" points="679.166,-121.492 668.637,-122.671 677.603,-128.315 679.166,-121.492"/>
</g>
<!-- Node8 -->
<g id="node8" class="node"><title>Node8</title>
<g id="a_node8"><a xlink:href="classMainWindow.html#af5ecc7c65080215b49b9d931c56c65c9" target="_top" xlink:title="MainWindow::editTextFrame">
<polygon fill="white" stroke="black" points="712,-95.1366 712,-114.137 854,-114.137 854,-95.1366 712,-95.1366"/>
<text text-anchor="middle" x="783" y="-102.137" font-family="Helvetica,sans-Serif" font-size="10.00">MainWindow::editTextFrame</text>
</a>
</g>
</g>
<!-- Node3&#45;&gt;Node8 -->
<g id="edge9" class="edge"><title>Node3&#45;&gt;Node8</title>
<path fill="none" stroke="midnightblue" d="M685.075,-106.261C694.024,-106.111 703.073,-105.959 711.86,-105.812"/>
<polygon fill="midnightblue" stroke="midnightblue" points="684.972,-102.762 675.032,-106.429 685.09,-109.761 684.972,-102.762"/>
</g>
<!-- Node10 -->
<g id="node10" class="node"><title>Node10</title>
<g id="a_node10"><a xlink:href="classMainWindow.html#a156c29c6d7ab278e4246c88a0fcbe2f2" target="_top" xlink:title="MainWindow::updateSettings">
<polygon fill="white" stroke="black" points="711,-51.1366 711,-70.1366 855,-70.1366 855,-51.1366 711,-51.1366"/>
<text text-anchor="middle" x="783" y="-58.1366" font-family="Helvetica,sans-Serif" font-size="10.00">MainWindow::updateSettings</text>
</a>
</g>
</g>
<!-- Node3&#45;&gt;Node10 -->
<g id="edge13" class="edge"><title>Node3&#45;&gt;Node10</title>
<path fill="none" stroke="midnightblue" d="M669.825,-90.0903C695.517,-83.3444 723.877,-75.8979 745.654,-70.1801"/>
<polygon fill="midnightblue" stroke="midnightblue" points="668.912,-86.7114 660.129,-92.6363 670.69,-93.4819 668.912,-86.7114"/>
</g>
<!-- Node6 -->
<g id="node6" class="node"><title>Node6</title>
<g id="a_node6"><a xlink:href="classMainWindow.html#a9df7443ce5f907903438bb6a9abe9a33" target="_top" xlink:title="MainWindow::createMenusAnd\lActions">
<polygon fill="white" stroke="black" points="906,-172.637 906,-202.637 1058,-202.637 1058,-172.637 906,-172.637"/>
<text text-anchor="start" x="914" y="-190.637" font-family="Helvetica,sans-Serif" font-size="10.00">MainWindow::createMenusAnd</text>
<text text-anchor="middle" x="982" y="-179.637" font-family="Helvetica,sans-Serif" font-size="10.00">Actions</text>
</a>
</g>
</g>
<!-- Node5&#45;&gt;Node6 -->
<g id="edge5" class="edge"><title>Node5&#45;&gt;Node6</title>
<path fill="none" stroke="midnightblue" d="M863.312,-164.338C877.386,-167.124 892.004,-170.018 905.955,-172.78"/>
<polygon fill="midnightblue" stroke="midnightblue" points="863.667,-160.84 853.178,-162.332 862.308,-167.707 863.667,-160.84"/>
</g>
<!-- Node7 -->
<g id="node7" class="node"><title>Node7</title>
<g id="a_node7"><a xlink:href="classMainWindow.html#aaba5c236313378986c42c4a634c4cfb9" target="_top" xlink:title="MainWindow::onCustomContextMenu">
<polygon fill="white" stroke="black" points="891,-134.137 891,-153.137 1073,-153.137 1073,-134.137 891,-134.137"/>
<text text-anchor="middle" x="982" y="-141.137" font-family="Helvetica,sans-Serif" font-size="10.00">MainWindow::onCustomContextMenu</text>
</a>
</g>
</g>
<!-- Node5&#45;&gt;Node7 -->
<g id="edge7" class="edge"><title>Node5&#45;&gt;Node7</title>
<path fill="none" stroke="midnightblue" d="M863.312,-146.624C872.389,-146.393 881.692,-146.157 890.897,-145.923"/>
<polygon fill="midnightblue" stroke="midnightblue" points="863.086,-143.128 853.178,-146.881 863.263,-150.126 863.086,-143.128"/>
</g>
<!-- Node6&#45;&gt;Node4 -->
<g id="edge6" class="edge"><title>Node6&#45;&gt;Node4</title>
<path fill="none" stroke="midnightblue" d="M1050.52,-169.748C1058.14,-167.473 1065.76,-165.081 1073,-162.637 1101.33,-153.069 1133.19,-139.937 1153.77,-131.138"/>
<polygon fill="midnightblue" stroke="midnightblue" points="1049.52,-166.395 1040.9,-172.563 1051.48,-173.114 1049.52,-166.395"/>
</g>
<!-- Node7&#45;&gt;Node4 -->
<g id="edge8" class="edge"><title>Node7&#45;&gt;Node4</title>
<path fill="none" stroke="midnightblue" d="M1076.36,-132.967C1087.34,-131.712 1098.36,-130.452 1108.87,-129.252"/>
<polygon fill="midnightblue" stroke="midnightblue" points="1075.85,-129.502 1066.31,-134.115 1076.65,-136.457 1075.85,-129.502"/>
</g>
<!-- Node8&#45;&gt;Node7 -->
<g id="edge10" class="edge"><title>Node8&#45;&gt;Node7</title>
<path fill="none" stroke="midnightblue" d="M842.162,-116.151C871.07,-121.874 905.582,-128.706 932.965,-134.127"/>
<polygon fill="midnightblue" stroke="midnightblue" points="842.681,-112.686 832.192,-114.177 841.322,-119.553 842.681,-112.686"/>
</g>
<!-- Node9 -->
<g id="node9" class="node"><title>Node9</title>
<g id="a_node9"><a xlink:href="classMainWindow.html#ab18c663524e2c130759c0ca960129ea4" target="_top" xlink:title="MainWindow::onItemDouble\lClicked">
<polygon fill="white" stroke="black" points="912,-84.6366 912,-114.637 1052,-114.637 1052,-84.6366 912,-84.6366"/>
<text text-anchor="start" x="920" y="-102.637" font-family="Helvetica,sans-Serif" font-size="10.00">MainWindow::onItemDouble</text>
<text text-anchor="middle" x="982" y="-91.6366" font-family="Helvetica,sans-Serif" font-size="10.00">Clicked</text>
</a>
</g>
</g>
<!-- Node8&#45;&gt;Node9 -->
<g id="edge11" class="edge"><title>Node8&#45;&gt;Node9</title>
<path fill="none" stroke="midnightblue" d="M864.273,-102.599C880.061,-102.199 896.496,-101.781 911.878,-101.391"/>
<polygon fill="midnightblue" stroke="midnightblue" points="863.917,-99.107 854.01,-102.86 864.095,-106.105 863.917,-99.107"/>
</g>
<!-- Node9&#45;&gt;Node4 -->
<g id="edge12" class="edge"><title>Node9&#45;&gt;Node4</title>
<path fill="none" stroke="midnightblue" d="M1062.28,-108.697C1077.75,-110.465 1093.81,-112.301 1108.82,-114.016"/>
<polygon fill="midnightblue" stroke="midnightblue" points="1062.56,-105.206 1052.22,-107.548 1061.76,-112.161 1062.56,-105.206"/>
</g>
<!-- Node10&#45;&gt;Node4 -->
<g id="edge14" class="edge"><title>Node10&#45;&gt;Node4</title>
<path fill="none" stroke="midnightblue" d="M865.453,-56.406C924.009,-55.331 1004.4,-57.9102 1073,-74.6366 1105.33,-82.5205 1139.92,-100.66 1159.52,-111.957"/>
<polygon fill="midnightblue" stroke="midnightblue" points="865.068,-52.9136 855.149,-56.6369 865.225,-59.9119 865.068,-52.9136"/>
</g>
<!-- Node11&#45;&gt;Node2 -->
<g id="edge17" class="edge"><title>Node11&#45;&gt;Node2</title>
<path fill="none" stroke="midnightblue" d="M342.657,-34.1016C331.262,-35.7348 319.511,-37.2709 308.142,-38.613"/>
<polygon fill="midnightblue" stroke="midnightblue" points="343.177,-37.563 352.56,-32.6439 342.157,-30.6376 343.177,-37.563"/>
</g>
<!-- Node11&#45;&gt;Node4 -->
<g id="edge16" class="edge"><title>Node11&#45;&gt;Node4</title>
<path fill="none" stroke="midnightblue" d="M496.818,-8.78784C621.693,2.67298 873.888,14.0106 1073,-52.6366 1111.04,-65.3694 1148.2,-96.3177 1165.47,-112.076"/>
<polygon fill="midnightblue" stroke="midnightblue" points="496.22,-5.32871 486.593,-9.75298 496.877,-12.2977 496.22,-5.32871"/>
</g>
<!-- Node12&#45;&gt;Node3 -->
<g id="edge19" class="edge"><title>Node12&#45;&gt;Node3</title>
<path fill="none" stroke="midnightblue" d="M496.162,-83.9541C508.892,-86.8298 522.001,-89.7912 534.455,-92.6043"/>
<polygon fill="midnightblue" stroke="midnightblue" points="496.579,-80.4602 486.053,-81.6707 495.036,-87.2882 496.579,-80.4602"/>
</g>
</g>
</svg>
        <g id="navigator" transform="translate(0 0)" fill="#404254">
                <rect fill="#f2f5e9" fill-opacity="0.5" stroke="#606060" stroke-width=".5" x="0" y="0" width="60" height="60"/>
                <use id="zoomplus" xlink:href="#zoomPlus" x="17" y="9" onmousedown="handleZoom(evt,'in')"/>
                <use id="zoomminus" xlink:href="#zoomMin" x="42" y="9" onmousedown="handleZoom(evt,'out')"/>
                <use id="reset" xlink:href="#resetDef" x="30" y="36" onmousedown="handleReset()"/>
                <g id="arrowUp" xlink:href="#dirArrow" transform="translate(30 24)" onmousedown="handlePan(0,-1)">
                  <use xlink:href="#rim" fill="#404040">
                        <set attributeName="fill" to="#808080" begin="arrowUp.mouseover" end="arrowUp.mouseout"/>
                  </use>
                  <path fill="none" stroke="white" stroke-width="1.5" d="M0,-3.0v7 M-2.5,-0.5L0,-3.0L2.5,-0.5"/>
                </g>
                <g id="arrowRight" xlink:href="#dirArrow" transform="rotate(90) translate(36 -43)" onmousedown="handlePan(1,0)">
                  <use xlink:href="#rim" fill="#404040">
                        <set attributeName="fill" to="#808080" begin="arrowRight.mouseover" end="arrowRight.mouseout"/>
                  </use>
                  <path fill="none" stroke="white" stroke-width="1.5" d="M0,-3.0v7 M-2.5,-0.5L0,-3.0L2.5,-0.5"/>
                </g>
                <g id="arrowDown" xlink:href="#dirArrow" transform="rotate(180) translate(-30 -48)" onmousedown="handlePan(0,1)">
                  <use xlink:href="#rim" fill="#404040">
                        <set attributeName="fill" to="#808080" begin="arrowDown.mouseover" end="arrowDown.mouseout"/>
                  </use>
                  <path fill="none" stroke="white" stroke-width="1.5" d="M0,-3.0v7 M-2.5,-0.5L0,-3.0L2.5,-0.5"/>
                </g>
                <g id="arrowLeft" xlink:href="#dirArrow" transform="rotate(270) translate(-36 17)" onmousedown="handlePan(-1,0)">
                  <use xlink:href="#rim" fill="#404040">
                        <set attributeName="fill" to="#808080" begin="arrowLeft.mouseover" end="arrowLeft.mouseout"/>
                  </use>
                  <path fill="none" stroke="white" stroke-width="1.5" d="M0,-3.0v7 M-2.5,-0.5L0,-3.0L2.5,-0.5"/>
                </g>
        </g>
        <svg viewBox="0 0 15 15" width="100%" height="30px" preserveAspectRatio="xMaxYMin meet">
         <g id="arrow_out" transform="scale(0.3 0.3)">
          <a xlink:href="classPlaylistItem_a6e67151b5a7da8967a9a931648f6c6a1_icgraph_org.svg" target="_base">
           <rect id="button" ry="5" rx="5" y="6" x="6" height="38" width="38"
                fill="#f2f5e9" fill-opacity="0.5" stroke="#606060" stroke-width="1.0"/>
           <path id="arrow"
             d="M 11.500037,31.436501 C 11.940474,20.09759 22.043105,11.32322 32.158766,21.979434 L 37.068811,17.246167 C 37.068811,17.246167 37.088388,32 37.088388,32 L 22.160133,31.978069 C 22.160133,31.978069 26.997745,27.140456 26.997745,27.140456 C 18.528582,18.264221 13.291696,25.230495 11.500037,31.436501 z"
             style="fill:#404040;"/>
          </a>
         </g>
        </svg>
</svg>
