<?xml version="1.0" encoding="UTF-8" standalone="no"?>
<!DOCTYPE svg PUBLIC "-//W3C//DTD SVG 1.1//EN"
 "http://www.w3.org/Graphics/SVG/1.1/DTD/svg11.dtd">
<!-- Generated by graphviz version 2.38.0 (20140413.2041)
 -->
<!-- Title: DisplayObject::loadImage Pages: 1 -->
<!--zoomable 478 -->
<svg id="main" version="1.1" xmlns="http://www.w3.org/2000/svg" xmlns:xlink="http://www.w3.org/1999/xlink" xml:space="preserve" onload="init(evt)">
<style type="text/css"><![CDATA[
.edge:hover path { stroke: red; }
.edge:hover polygon { stroke: red; fill: red; }
]]></style>
<script type="text/javascript"><![CDATA[
var edges = document.getElementsByTagName('g');
if (edges && edges.length) {
  for (var i=0;i<edges.length;i++) {
    if (edges[i].id.substr(0,4)=='edge') {
      edges[i].setAttribute('class','edge');
    }
  }
}
]]></script>
        <defs>
                <circle id="rim" cx="0" cy="0" r="7"/>
                <circle id="rim2" cx="0" cy="0" r="3.5"/>
                <g id="zoomPlus">
                        <use xlink:href="#rim" fill="#404040">
                                <set attributeName="fill" to="#808080" begin="zoomplus.mouseover" end="zoomplus.mouseout"/>
                        </use>
                        <path d="M-4,0h8M0,-4v8" fill="none" stroke="white" stroke-width="1.5" pointer-events="none"/>
                </g>
                <g id="zoomMin">
                        <use xlink:href="#rim" fill="#404040">
                                <set attributeName="fill" to="#808080" begin="zoomminus.mouseover" end="zoomminus.mouseout"/>
                        </use>
                        <path d="M-4,0h8" fill="none" stroke="white" stroke-width="1.5" pointer-events="none"/>
                </g>
                <g id="dirArrow">
                        <path fill="none" stroke="white" stroke-width="1.5" d="M0,-3.0v7 M-2.5,-0.5L0,-3.0L2.5,-0.5"/>
                </g>
               <g id="resetDef">
                       <use xlink:href="#rim2" fill="#404040">
                               <set attributeName="fill" to="#808080" begin="reset.mouseover" end="reset.mouseout"/>
                       </use>
               </g>
        </defs>

<script type="text/javascript">
var viewWidth = 1773;
var viewHeight = 478;
var sectionId = 'dynsection-14';
</script>
<script xlink:href="svgpan.js"/>
<svg id="graph" class="graph">
<g id="viewport">
<title>DisplayObject::loadImage</title>
<polygon fill="white" stroke="none" points="-4,4 -4,-474.377 1769,-474.377 1769,4 -4,4"/>
<!-- Node1 -->
<g id="node1" class="node"><title>Node1</title>
<polygon fill="#bfbfbf" stroke="black" points="0,-187.377 0,-206.377 129,-206.377 129,-187.377 0,-187.377"/>
<text text-anchor="middle" x="64.5" y="-194.377" font-family="Helvetica,sans-Serif" font-size="10.00">DisplayObject::loadImage</text>
</g>
<!-- Node2 -->
<g id="node2" class="node"><title>Node2</title>
<g id="a_node2"><a xlink:href="classDisplayObject.html#a64d01b5326cf6dae89928a7ad91b1283" target="_top" xlink:title="DisplayObject::refreshDisplay\lImage">
<polygon fill="white" stroke="black" points="165,-203.877 165,-233.877 312,-233.877 312,-203.877 165,-203.877"/>
<text text-anchor="start" x="173" y="-221.877" font-family="Helvetica,sans-Serif" font-size="10.00">DisplayObject::refreshDisplay</text>
<text text-anchor="middle" x="238.5" y="-210.877" font-family="Helvetica,sans-Serif" font-size="10.00">Image</text>
</a>
</g>
</g>
<!-- Node1&#45;&gt;Node2 -->
<g id="edge1" class="edge"><title>Node1&#45;&gt;Node2</title>
<path fill="none" stroke="midnightblue" d="M139.028,-206.282C147.606,-207.379 156.352,-208.498 164.917,-209.593"/>
<polygon fill="midnightblue" stroke="midnightblue" points="139.421,-202.804 129.058,-205.007 138.533,-209.747 139.421,-202.804"/>
</g>
<!-- Node29 -->
<g id="node29" class="node"><title>Node29</title>
<g id="a_node29"><a xlink:href="classDisplayWidget.html#a4a0937fa643aabd3dc4894a5c71179bf" target="_top" xlink:title="DisplayWidget::drawFrame">
<polygon fill="white" stroke="black" points="171,-165.377 171,-184.377 306,-184.377 306,-165.377 171,-165.377"/>
<text text-anchor="middle" x="238.5" y="-172.377" font-family="Helvetica,sans-Serif" font-size="10.00">DisplayWidget::drawFrame</text>
</a>
</g>
</g>
<!-- Node1&#45;&gt;Node29 -->
<g id="edge45" class="edge"><title>Node1&#45;&gt;Node29</title>
<path fill="none" stroke="midnightblue" d="M139.051,-187.469C149.578,-186.123 160.358,-184.744 170.745,-183.416"/>
<polygon fill="midnightblue" stroke="midnightblue" points="138.533,-184.007 129.058,-188.748 139.421,-190.951 138.533,-184.007"/>
</g>
<!-- Node3 -->
<g id="node3" class="node"><title>Node3</title>
<g id="a_node3"><a xlink:href="classDisplayObject.html#af14049278f3dfdf62f4e88d5c24e03c7" target="_top" xlink:title="DisplayObject::setSize">
<polygon fill="white" stroke="black" points="348,-209.377 348,-228.377 465,-228.377 465,-209.377 348,-209.377"/>
<text text-anchor="middle" x="406.5" y="-216.377" font-family="Helvetica,sans-Serif" font-size="10.00">DisplayObject::setSize</text>
</a>
</g>
</g>
<!-- Node2&#45;&gt;Node3 -->
<g id="edge2" class="edge"><title>Node2&#45;&gt;Node3</title>
<path fill="none" stroke="midnightblue" d="M322.425,-218.877C331.061,-218.877 339.698,-218.877 347.963,-218.877"/>
<polygon fill="midnightblue" stroke="midnightblue" points="322.31,-215.377 312.31,-218.877 322.31,-222.377 322.31,-215.377"/>
</g>
<!-- Node4 -->
<g id="node4" class="node"><title>Node4</title>
<g id="a_node4"><a xlink:href="classFrameObject.html#af3743977db6e996acf666952baaa9d41" target="_top" xlink:title="FrameObject::setSize">
<polygon fill="white" stroke="black" points="515,-276.377 515,-295.377 627,-295.377 627,-276.377 515,-276.377"/>
<text text-anchor="middle" x="571" y="-283.377" font-family="Helvetica,sans-Serif" font-size="10.00">FrameObject::setSize</text>
</a>
</g>
</g>
<!-- Node3&#45;&gt;Node4 -->
<g id="edge3" class="edge"><title>Node3&#45;&gt;Node4</title>
<path fill="none" stroke="midnightblue" d="M436.213,-232.953C454.552,-241.726 478.944,-252.994 501,-261.877 513.824,-267.042 528.236,-272.16 540.56,-276.334"/>
<polygon fill="midnightblue" stroke="midnightblue" points="437.488,-229.683 426.96,-228.494 434.449,-235.988 437.488,-229.683"/>
</g>
<!-- Node5 -->
<g id="node5" class="node"><title>Node5</title>
<g id="a_node5"><a xlink:href="classMainWindow.html#a2d8cea1d443550a8f14ce8c80d2608c6" target="_top" xlink:title="MainWindow::loadPlaylistFile">
<polygon fill="white" stroke="black" points="864,-257.377 864,-276.377 1009,-276.377 1009,-257.377 864,-257.377"/>
<text text-anchor="middle" x="936.5" y="-264.377" font-family="Helvetica,sans-Serif" font-size="10.00">MainWindow::loadPlaylistFile</text>
</a>
</g>
</g>
<!-- Node3&#45;&gt;Node5 -->
<g id="edge17" class="edge"><title>Node3&#45;&gt;Node5</title>
<path fill="none" stroke="midnightblue" d="M474.995,-225.013C574.945,-234.099 761.49,-251.058 863.804,-260.359"/>
<polygon fill="midnightblue" stroke="midnightblue" points="475.286,-221.525 465.01,-224.105 474.652,-228.496 475.286,-221.525"/>
</g>
<!-- Node16 -->
<g id="node16" class="node"><title>Node16</title>
<g id="a_node16"><a xlink:href="classMainWindow.html#a2cae0b3ed4283301ecc11dc881d31422" target="_top" xlink:title="A file option was changed by the user (width/height/start/end/rate/sampling/frameSize/pixelFormat). ">
<polygon fill="white" stroke="black" points="503,-55.8772 503,-85.8772 639,-85.8772 639,-55.8772 503,-55.8772"/>
<text text-anchor="start" x="511" y="-73.8772" font-family="Helvetica,sans-Serif" font-size="10.00">MainWindow::on_fileOption</text>
<text text-anchor="middle" x="571" y="-62.8772" font-family="Helvetica,sans-Serif" font-size="10.00">ValueChanged</text>
</a>
</g>
</g>
<!-- Node3&#45;&gt;Node16 -->
<g id="edge18" class="edge"><title>Node3&#45;&gt;Node16</title>
<path fill="none" stroke="midnightblue" d="M453.841,-205.348C457.757,-203.441 461.538,-201.293 465,-198.877 509.549,-167.79 545.55,-112.837 561.343,-86.2025"/>
<polygon fill="midnightblue" stroke="midnightblue" points="452.334,-202.186 444.543,-209.367 455.111,-208.612 452.334,-202.186"/>
</g>
<!-- Node24 -->
<g id="node24" class="node"><title>Node24</title>
<g id="a_node24"><a xlink:href="classTextObject.html#a8f1e5a14cf1a2f89b0794ea47b793ae3" target="_top" xlink:title="TextObject::refreshTextSize">
<polygon fill="white" stroke="black" points="501,-181.377 501,-200.377 641,-200.377 641,-181.377 501,-181.377"/>
<text text-anchor="middle" x="571" y="-188.377" font-family="Helvetica,sans-Serif" font-size="10.00">TextObject::refreshTextSize</text>
</a>
</g>
</g>
<!-- Node3&#45;&gt;Node24 -->
<g id="edge35" class="edge"><title>Node3&#45;&gt;Node24</title>
<path fill="none" stroke="midnightblue" d="M472.936,-207.602C486.812,-205.211 501.329,-202.71 514.781,-200.392"/>
<polygon fill="midnightblue" stroke="midnightblue" points="472.229,-204.172 462.969,-209.319 473.418,-211.071 472.229,-204.172"/>
</g>
<!-- Node4&#45;&gt;Node5 -->
<g id="edge4" class="edge"><title>Node4&#45;&gt;Node5</title>
<path fill="none" stroke="midnightblue" d="M637.543,-282.451C701.323,-279.118 797.985,-274.065 863.788,-270.626"/>
<polygon fill="midnightblue" stroke="midnightblue" points="637.011,-278.974 627.208,-282.991 637.377,-285.965 637.011,-278.974"/>
</g>
<!-- Node6 -->
<g id="node6" class="node"><title>Node6</title>
<g id="a_node6"><a xlink:href="classMainWindow.html#a8ef1be3cb02e12d68d12375d1a7a0ced" target="_top" xlink:title="loads a list of yuv/csv files ">
<polygon fill="white" stroke="black" points="1061,-314.377 1061,-333.377 1179,-333.377 1179,-314.377 1061,-314.377"/>
<text text-anchor="middle" x="1120" y="-321.377" font-family="Helvetica,sans-Serif" font-size="10.00">MainWindow::loadFiles</text>
</a>
</g>
</g>
<!-- Node5&#45;&gt;Node6 -->
<g id="edge5" class="edge"><title>Node5&#45;&gt;Node6</title>
<path fill="none" stroke="midnightblue" d="M977.799,-279.533C1011.26,-290.04 1058.12,-304.759 1088.52,-314.306"/>
<polygon fill="midnightblue" stroke="midnightblue" points="978.468,-276.075 967.879,-276.418 976.371,-282.753 978.468,-276.075"/>
</g>
<!-- Node7 -->
<g id="node7" class="node"><title>Node7</title>
<g id="a_node7"><a xlink:href="classDisplaySplitWidget.html#ac1d4ced58b2ac2b08153694a5de6232e" target="_top" xlink:title="DisplaySplitWidget\l::dropEvent">
<polygon fill="white" stroke="black" points="1252.5,-439.877 1252.5,-469.877 1352.5,-469.877 1352.5,-439.877 1252.5,-439.877"/>
<text text-anchor="start" x="1260.5" y="-457.877" font-family="Helvetica,sans-Serif" font-size="10.00">DisplaySplitWidget</text>
<text text-anchor="middle" x="1302.5" y="-446.877" font-family="Helvetica,sans-Serif" font-size="10.00">::dropEvent</text>
</a>
</g>
</g>
<!-- Node6&#45;&gt;Node7 -->
<g id="edge6" class="edge"><title>Node6&#45;&gt;Node7</title>
<path fill="none" stroke="midnightblue" d="M1134.67,-341.505C1153.55,-364.77 1189.77,-405.608 1229,-429.877 1236.13,-434.29 1244.15,-438.046 1252.17,-441.199"/>
<polygon fill="midnightblue" stroke="midnightblue" points="1137.28,-339.162 1128.31,-333.52 1131.8,-343.523 1137.28,-339.162"/>
</g>
<!-- Node8 -->
<g id="node8" class="node"><title>Node8</title>
<g id="a_node8"><a xlink:href="classMainWindow.html#a288b768c3c21a9171bdc56fe845ece8b" target="_top" xlink:title="Shows the file open dialog and loads all selected Files. ">
<polygon fill="white" stroke="black" points="1244.5,-238.377 1244.5,-257.377 1360.5,-257.377 1360.5,-238.377 1244.5,-238.377"/>
<text text-anchor="middle" x="1302.5" y="-245.377" font-family="Helvetica,sans-Serif" font-size="10.00">MainWindow::openFile</text>
</a>
</g>
</g>
<!-- Node6&#45;&gt;Node8 -->
<g id="edge7" class="edge"><title>Node6&#45;&gt;Node8</title>
<path fill="none" stroke="midnightblue" d="M1145.3,-308.976C1166.71,-296.363 1199.05,-278.526 1229,-266.877 1238.34,-263.245 1248.62,-260.079 1258.43,-257.427"/>
<polygon fill="midnightblue" stroke="midnightblue" points="1143.35,-306.063 1136.56,-314.195 1146.94,-312.073 1143.35,-306.063"/>
</g>
<!-- Node12 -->
<g id="node12" class="node"><title>Node12</title>
<g id="a_node12"><a xlink:href="classMainWindow.html#a935316315edb9b7af42657da20be0e54" target="_top" xlink:title="MainWindow::openRecentFile">
<polygon fill="white" stroke="black" points="1229,-276.377 1229,-295.377 1376,-295.377 1376,-276.377 1229,-276.377"/>
<text text-anchor="middle" x="1302.5" y="-283.377" font-family="Helvetica,sans-Serif" font-size="10.00">MainWindow::openRecentFile</text>
</a>
</g>
</g>
<!-- Node6&#45;&gt;Node12 -->
<g id="edge12" class="edge"><title>Node6&#45;&gt;Node12</title>
<path fill="none" stroke="midnightblue" d="M1176.48,-312.196C1202.08,-306.807 1232.08,-300.491 1256.28,-295.397"/>
<polygon fill="midnightblue" stroke="midnightblue" points="1175.61,-308.803 1166.55,-314.288 1177.05,-315.653 1175.61,-308.803"/>
</g>
<!-- Node13 -->
<g id="node13" class="node"><title>Node13</title>
<g id="a_node13"><a xlink:href="classPlaylistTreeWidget.html#a295170eb269cc67050ea0b575cd0ab53" target="_top" xlink:title="PlaylistTreeWidget\l::dropEvent">
<polygon fill="white" stroke="black" points="1253,-390.877 1253,-420.877 1352,-420.877 1352,-390.877 1253,-390.877"/>
<text text-anchor="start" x="1261" y="-408.877" font-family="Helvetica,sans-Serif" font-size="10.00">PlaylistTreeWidget</text>
<text text-anchor="middle" x="1302.5" y="-397.877" font-family="Helvetica,sans-Serif" font-size="10.00">::dropEvent</text>
</a>
</g>
</g>
<!-- Node6&#45;&gt;Node13 -->
<g id="edge14" class="edge"><title>Node6&#45;&gt;Node13</title>
<path fill="none" stroke="midnightblue" d="M1146.28,-338.641C1167.83,-350.878 1199.85,-368.249 1229,-380.877 1237.06,-384.371 1245.79,-387.724 1254.3,-390.778"/>
<polygon fill="midnightblue" stroke="midnightblue" points="1147.86,-335.514 1137.45,-333.578 1144.38,-341.587 1147.86,-335.514"/>
</g>
<!-- Node14 -->
<g id="node14" class="node"><title>Node14</title>
<g id="a_node14"><a xlink:href="classYUViewApp.html#ac0f5381cc5b703a9ea704b5eedab4b7f" target="_top" xlink:title="YUViewApp::YUViewApp">
<polygon fill="white" stroke="black" points="1238,-352.377 1238,-371.377 1367,-371.377 1367,-352.377 1238,-352.377"/>
<text text-anchor="middle" x="1302.5" y="-359.377" font-family="Helvetica,sans-Serif" font-size="10.00">YUViewApp::YUViewApp</text>
</a>
</g>
</g>
<!-- Node6&#45;&gt;Node14 -->
<g id="edge15" class="edge"><title>Node6&#45;&gt;Node14</title>
<path fill="none" stroke="midnightblue" d="M1176.48,-335.558C1202.08,-340.947 1232.08,-347.263 1256.28,-352.357"/>
<polygon fill="midnightblue" stroke="midnightblue" points="1177.05,-332.101 1166.55,-333.466 1175.61,-338.951 1177.05,-332.101"/>
</g>
<!-- Node15 -->
<g id="node15" class="node"><title>Node15</title>
<g id="a_node15"><a xlink:href="classYUViewApp.html#a2f5f937d6677018ef73a5ffc248f9891" target="_top" xlink:title="YUViewApp::event">
<polygon fill="white" stroke="black" points="1252.5,-314.377 1252.5,-333.377 1352.5,-333.377 1352.5,-314.377 1252.5,-314.377"/>
<text text-anchor="middle" x="1302.5" y="-321.377" font-family="Helvetica,sans-Serif" font-size="10.00">YUViewApp::event</text>
</a>
</g>
</g>
<!-- Node6&#45;&gt;Node15 -->
<g id="edge16" class="edge"><title>Node6&#45;&gt;Node15</title>
<path fill="none" stroke="midnightblue" d="M1189.24,-323.877C1210.21,-323.877 1232.86,-323.877 1252.29,-323.877"/>
<polygon fill="midnightblue" stroke="midnightblue" points="1189.1,-320.377 1179.1,-323.877 1189.1,-327.377 1189.1,-320.377"/>
</g>
<!-- Node9 -->
<g id="node9" class="node"><title>Node9</title>
<g id="a_node9"><a xlink:href="classMainWindow.html#a9df7443ce5f907903438bb6a9abe9a33" target="_top" xlink:title="MainWindow::createMenusAnd\lActions">
<polygon fill="white" stroke="black" points="1427,-200.877 1427,-230.877 1579,-230.877 1579,-200.877 1427,-200.877"/>
<text text-anchor="start" x="1435" y="-218.877" font-family="Helvetica,sans-Serif" font-size="10.00">MainWindow::createMenusAnd</text>
<text text-anchor="middle" x="1503" y="-207.877" font-family="Helvetica,sans-Serif" font-size="10.00">Actions</text>
</a>
</g>
</g>
<!-- Node8&#45;&gt;Node9 -->
<g id="edge8" class="edge"><title>Node8&#45;&gt;Node9</title>
<path fill="none" stroke="midnightblue" d="M1370.76,-237.034C1388.78,-234.13 1408.37,-230.972 1426.78,-228.003"/>
<polygon fill="midnightblue" stroke="midnightblue" points="1369.96,-233.617 1360.65,-238.664 1371.08,-240.528 1369.96,-233.617"/>
</g>
<!-- Node11 -->
<g id="node11" class="node"><title>Node11</title>
<g id="a_node11"><a xlink:href="classMainWindow.html#aaba5c236313378986c42c4a634c4cfb9" target="_top" xlink:title="MainWindow::onCustomContextMenu">
<polygon fill="white" stroke="black" points="1412,-162.377 1412,-181.377 1594,-181.377 1594,-162.377 1412,-162.377"/>
<text text-anchor="middle" x="1503" y="-169.377" font-family="Helvetica,sans-Serif" font-size="10.00">MainWindow::onCustomContextMenu</text>
</a>
</g>
</g>
<!-- Node8&#45;&gt;Node11 -->
<g id="edge10" class="edge"><title>Node8&#45;&gt;Node11</title>
<path fill="none" stroke="midnightblue" d="M1364.42,-234.662C1368.45,-232.959 1372.35,-231.039 1376,-228.877 1396.02,-217.029 1391.7,-202.239 1412,-190.877 1418.97,-186.978 1426.65,-183.876 1434.49,-181.411"/>
<polygon fill="midnightblue" stroke="midnightblue" points="1362.99,-231.461 1354.87,-238.259 1365.46,-238.013 1362.99,-231.461"/>
</g>
<!-- Node10 -->
<g id="node10" class="node"><title>Node10</title>
<g id="a_node10"><a xlink:href="classMainWindow.html#a8b244be8b7b7db1b08de2a2acb9409db" target="_top" xlink:title="MainWindow::MainWindow">
<polygon fill="white" stroke="black" points="1630,-96.3772 1630,-115.377 1765,-115.377 1765,-96.3772 1630,-96.3772"/>
<text text-anchor="middle" x="1697.5" y="-103.377" font-family="Helvetica,sans-Serif" font-size="10.00">MainWindow::MainWindow</text>
</a>
</g>
</g>
<!-- Node9&#45;&gt;Node10 -->
<g id="edge9" class="edge"><title>Node9&#45;&gt;Node10</title>
<path fill="none" stroke="midnightblue" d="M1580,-197.3C1584.83,-195.348 1589.53,-193.212 1594,-190.877 1633.13,-170.423 1670.93,-133.175 1687.6,-115.578"/>
<polygon fill="midnightblue" stroke="midnightblue" points="1578.74,-194.035 1570.61,-200.829 1581.2,-200.588 1578.74,-194.035"/>
</g>
<!-- Node11&#45;&gt;Node10 -->
<g id="edge11" class="edge"><title>Node11&#45;&gt;Node10</title>
<path fill="none" stroke="midnightblue" d="M1565.4,-159.989C1575.06,-157.616 1584.87,-154.906 1594,-151.877 1624.36,-141.807 1657.89,-125.761 1678.06,-115.528"/>
<polygon fill="midnightblue" stroke="midnightblue" points="1564.35,-156.64 1555.42,-162.339 1565.96,-163.453 1564.35,-156.64"/>
</g>
<!-- Node12&#45;&gt;Node9 -->
<g id="edge13" class="edge"><title>Node12&#45;&gt;Node9</title>
<path fill="none" stroke="midnightblue" d="M1353.51,-273.671C1361.09,-271.562 1368.79,-269.271 1376,-266.877 1407.8,-256.321 1443.09,-241.784 1468.22,-230.931"/>
<polygon fill="midnightblue" stroke="midnightblue" points="1352.4,-270.346 1343.66,-276.334 1354.22,-277.104 1352.4,-270.346"/>
</g>
<!-- Node16&#45;&gt;Node10 -->
<g id="edge19" class="edge"><title>Node16&#45;&gt;Node10</title>
<path fill="none" stroke="midnightblue" d="M634.601,-53.2946C706.587,-34.6549 828.603,-7.87719 935.5,-7.87719 935.5,-7.87719 935.5,-7.87719 1303.5,-7.87719 1432.89,-7.87719 1472.95,18.8205 1594,-26.8772 1634.15,-42.0333 1671.44,-78.5494 1687.8,-96.1157"/>
<polygon fill="midnightblue" stroke="midnightblue" points="633.569,-49.9469 624.782,-55.8672 635.343,-56.7183 633.569,-49.9469"/>
</g>
<!-- Node17 -->
<g id="node17" class="node"><title>Node17</title>
<g id="a_node17"><a xlink:href="classMainWindow.html#a29e6418f12a4331860a7db3616e91600" target="_top" xlink:title="updates the YUV information GUI elements from the current Renderobject ">
<polygon fill="white" stroke="black" points="677,-55.8772 677,-85.8772 826,-85.8772 826,-55.8772 677,-55.8772"/>
<text text-anchor="start" x="685" y="-73.8772" font-family="Helvetica,sans-Serif" font-size="10.00">MainWindow::updateSelection</text>
<text text-anchor="middle" x="751.5" y="-62.8772" font-family="Helvetica,sans-Serif" font-size="10.00">MetaInfo</text>
</a>
</g>
</g>
<!-- Node16&#45;&gt;Node17 -->
<g id="edge20" class="edge"><title>Node16&#45;&gt;Node17</title>
<path fill="none" stroke="midnightblue" d="M649.393,-64.1804C658.477,-64.0984 667.728,-64.1112 676.76,-64.2186"/>
<polygon fill="midnightblue" stroke="midnightblue" points="649.182,-60.6828 639.229,-64.3132 649.274,-67.6822 649.182,-60.6828"/>
</g>
<!-- Node17&#45;&gt;Node16 -->
<g id="edge32" class="edge"><title>Node17&#45;&gt;Node16</title>
<path fill="none" stroke="midnightblue" d="M666.49,-77.6168C657.348,-77.653 648.133,-77.5944 639.229,-77.4412"/>
<polygon fill="midnightblue" stroke="midnightblue" points="666.788,-81.1147 676.76,-77.5358 666.733,-74.1149 666.788,-81.1147"/>
</g>
<!-- Node18 -->
<g id="node18" class="node"><title>Node18</title>
<g id="a_node18"><a xlink:href="classMainWindow.html#a6f33e93f427ff2df80edffcb3ad944da" target="_top" xlink:title="MainWindow::updateSelected\lItems">
<polygon fill="white" stroke="black" points="1047,-69.8772 1047,-99.8772 1193,-99.8772 1193,-69.8772 1047,-69.8772"/>
<text text-anchor="start" x="1055" y="-87.8772" font-family="Helvetica,sans-Serif" font-size="10.00">MainWindow::updateSelected</text>
<text text-anchor="middle" x="1120" y="-76.8772" font-family="Helvetica,sans-Serif" font-size="10.00">Items</text>
</a>
</g>
</g>
<!-- Node17&#45;&gt;Node18 -->
<g id="edge21" class="edge"><title>Node17&#45;&gt;Node18</title>
<path fill="none" stroke="midnightblue" d="M836.288,-74.7945C844.97,-75.1731 853.663,-75.5409 862,-75.8772 924.453,-78.3965 995.459,-80.852 1046.99,-82.56"/>
<polygon fill="midnightblue" stroke="midnightblue" points="836.266,-71.2903 826.122,-74.3464 835.958,-78.2835 836.266,-71.2903"/>
</g>
<!-- Node23 -->
<g id="node23" class="node"><title>Node23</title>
<g id="a_node23"><a xlink:href="classMainWindow.html#a23cc43af3c6873f9a936b5af05c99f49" target="_top" xlink:title="The display objects information changed. Update. ">
<polygon fill="white" stroke="black" points="862,-36.8772 862,-66.8772 1011,-66.8772 1011,-36.8772 862,-36.8772"/>
<text text-anchor="start" x="870" y="-54.8772" font-family="Helvetica,sans-Serif" font-size="10.00">MainWindow::currentSelection</text>
<text text-anchor="middle" x="936.5" y="-43.8772" font-family="Helvetica,sans-Serif" font-size="10.00">InformationChanged</text>
</a>
</g>
</g>
<!-- Node17&#45;&gt;Node23 -->
<g id="edge33" class="edge"><title>Node17&#45;&gt;Node23</title>
<path fill="none" stroke="midnightblue" d="M836.109,-62.1965C844.651,-61.3096 853.285,-60.4132 861.711,-59.5384"/>
<polygon fill="midnightblue" stroke="midnightblue" points="835.727,-58.7172 826.142,-63.2313 836.45,-65.6798 835.727,-58.7172"/>
</g>
<!-- Node18&#45;&gt;Node10 -->
<g id="edge22" class="edge"><title>Node18&#45;&gt;Node10</title>
<path fill="none" stroke="midnightblue" d="M1203.15,-87.8748C1317.89,-92.0617 1523.93,-99.5801 1629.76,-103.442"/>
<polygon fill="midnightblue" stroke="midnightblue" points="1203.14,-84.3721 1193.01,-87.505 1202.88,-91.3674 1203.14,-84.3721"/>
</g>
<!-- Node19 -->
<g id="node19" class="node"><title>Node19</title>
<g id="a_node19"><a xlink:href="classMainWindow.html#a6be7246a1a0ecf5d1442bb1775c3d9b3" target="_top" xlink:title="MainWindow::addDifference\lSequence">
<polygon fill="white" stroke="black" points="1232.5,-150.877 1232.5,-180.877 1372.5,-180.877 1372.5,-150.877 1232.5,-150.877"/>
<text text-anchor="start" x="1240.5" y="-168.877" font-family="Helvetica,sans-Serif" font-size="10.00">MainWindow::addDifference</text>
<text text-anchor="middle" x="1302.5" y="-157.877" font-family="Helvetica,sans-Serif" font-size="10.00">Sequence</text>
</a>
</g>
</g>
<!-- Node18&#45;&gt;Node19 -->
<g id="edge23" class="edge"><title>Node18&#45;&gt;Node19</title>
<path fill="none" stroke="midnightblue" d="M1156.34,-104.871C1177.13,-116.209 1204.14,-130.216 1229,-140.877 1237.2,-144.394 1246.07,-147.782 1254.7,-150.868"/>
<polygon fill="midnightblue" stroke="midnightblue" points="1158,-101.786 1147.55,-100.032 1154.62,-107.919 1158,-101.786"/>
</g>
<!-- Node20 -->
<g id="node20" class="node"><title>Node20</title>
<g id="a_node20"><a xlink:href="classMainWindow.html#af5ecc7c65080215b49b9d931c56c65c9" target="_top" xlink:title="MainWindow::editTextFrame">
<polygon fill="white" stroke="black" points="1231.5,-112.377 1231.5,-131.377 1373.5,-131.377 1373.5,-112.377 1231.5,-112.377"/>
<text text-anchor="middle" x="1302.5" y="-119.377" font-family="Helvetica,sans-Serif" font-size="10.00">MainWindow::editTextFrame</text>
</a>
</g>
</g>
<!-- Node18&#45;&gt;Node20 -->
<g id="edge26" class="edge"><title>Node18&#45;&gt;Node20</title>
<path fill="none" stroke="midnightblue" d="M1202.96,-101.677C1220.78,-105.33 1239.04,-109.073 1254.92,-112.328"/>
<polygon fill="midnightblue" stroke="midnightblue" points="1203.62,-98.2396 1193.12,-99.6601 1202.21,-105.097 1203.62,-98.2396"/>
</g>
<!-- Node22 -->
<g id="node22" class="node"><title>Node22</title>
<g id="a_node22"><a xlink:href="classMainWindow.html#a156c29c6d7ab278e4246c88a0fcbe2f2" target="_top" xlink:title="MainWindow::updateSettings">
<polygon fill="white" stroke="black" points="1431,-36.3772 1431,-55.3772 1575,-55.3772 1575,-36.3772 1431,-36.3772"/>
<text text-anchor="middle" x="1503" y="-43.3772" font-family="Helvetica,sans-Serif" font-size="10.00">MainWindow::updateSettings</text>
</a>
</g>
</g>
<!-- Node18&#45;&gt;Node22 -->
<g id="edge30" class="edge"><title>Node18&#45;&gt;Node22</title>
<path fill="none" stroke="midnightblue" d="M1203.38,-72.9993C1212.02,-71.8835 1220.69,-70.8194 1229,-69.8772 1297.43,-62.1219 1375.76,-55.4637 1430.91,-51.1414"/>
<polygon fill="midnightblue" stroke="midnightblue" points="1202.72,-69.5554 1193.26,-74.3286 1203.63,-76.4957 1202.72,-69.5554"/>
</g>
<!-- Node19&#45;&gt;Node9 -->
<g id="edge24" class="edge"><title>Node19&#45;&gt;Node9</title>
<path fill="none" stroke="midnightblue" d="M1372.91,-183.361C1395.49,-189.047 1420.33,-195.305 1442.14,-200.8"/>
<polygon fill="midnightblue" stroke="midnightblue" points="1373.61,-179.928 1363.06,-180.879 1371.9,-186.715 1373.61,-179.928"/>
</g>
<!-- Node19&#45;&gt;Node11 -->
<g id="edge25" class="edge"><title>Node19&#45;&gt;Node11</title>
<path fill="none" stroke="midnightblue" d="M1382.86,-168.276C1392.37,-168.564 1402.15,-168.859 1411.8,-169.151"/>
<polygon fill="midnightblue" stroke="midnightblue" points="1382.75,-164.771 1372.65,-167.967 1382.54,-171.768 1382.75,-164.771"/>
</g>
<!-- Node20&#45;&gt;Node11 -->
<g id="edge27" class="edge"><title>Node20&#45;&gt;Node11</title>
<path fill="none" stroke="midnightblue" d="M1350.89,-134.002C1359.27,-136.231 1367.9,-138.58 1376,-140.877 1392.1,-145.443 1395.82,-147.615 1412,-151.877 1426.08,-155.588 1441.53,-159.188 1455.59,-162.287"/>
<polygon fill="midnightblue" stroke="midnightblue" points="1351.77,-130.616 1341.21,-131.452 1349.99,-137.384 1351.77,-130.616"/>
</g>
<!-- Node21 -->
<g id="node21" class="node"><title>Node21</title>
<g id="a_node21"><a xlink:href="classMainWindow.html#ab18c663524e2c130759c0ca960129ea4" target="_top" xlink:title="MainWindow::onItemDouble\lClicked">
<polygon fill="white" stroke="black" points="1433,-112.877 1433,-142.877 1573,-142.877 1573,-112.877 1433,-112.877"/>
<text text-anchor="start" x="1441" y="-130.877" font-family="Helvetica,sans-Serif" font-size="10.00">MainWindow::onItemDouble</text>
<text text-anchor="middle" x="1503" y="-119.877" font-family="Helvetica,sans-Serif" font-size="10.00">Clicked</text>
</a>
</g>
</g>
<!-- Node20&#45;&gt;Node21 -->
<g id="edge28" class="edge"><title>Node20&#45;&gt;Node21</title>
<path fill="none" stroke="midnightblue" d="M1383.78,-124.304C1400.04,-124.795 1417,-125.308 1432.83,-125.787"/>
<polygon fill="midnightblue" stroke="midnightblue" points="1383.86,-120.805 1373.76,-124.001 1383.65,-127.802 1383.86,-120.805"/>
</g>
<!-- Node21&#45;&gt;Node10 -->
<g id="edge29" class="edge"><title>Node21&#45;&gt;Node10</title>
<path fill="none" stroke="midnightblue" d="M1583.28,-118.816C1598.75,-117.049 1614.81,-115.213 1629.82,-113.498"/>
<polygon fill="midnightblue" stroke="midnightblue" points="1582.76,-115.353 1573.22,-119.966 1583.56,-122.308 1582.76,-115.353"/>
</g>
<!-- Node22&#45;&gt;Node10 -->
<g id="edge31" class="edge"><title>Node22&#45;&gt;Node10</title>
<path fill="none" stroke="midnightblue" d="M1551.97,-57.936C1565.62,-61.5635 1580.45,-65.6967 1594,-69.8772 1620.49,-78.0489 1650.36,-88.7061 1670.99,-96.2999"/>
<polygon fill="midnightblue" stroke="midnightblue" points="1552.85,-54.5466 1542.28,-55.3905 1551.07,-61.3168 1552.85,-54.5466"/>
</g>
<!-- Node23&#45;&gt;Node18 -->
<g id="edge34" class="edge"><title>Node23&#45;&gt;Node18</title>
<path fill="none" stroke="midnightblue" d="M1021.09,-67.0749C1029.68,-68.6368 1038.35,-70.2143 1046.81,-71.751"/>
<polygon fill="midnightblue" stroke="midnightblue" points="1021.53,-63.5974 1011.06,-65.252 1020.27,-70.4845 1021.53,-63.5974"/>
</g>
<!-- Node25 -->
<g id="node25" class="node"><title>Node25</title>
<g id="a_node25"><a xlink:href="classTextObject.html#a4abe36f8a979d68e0cec492bc70e6cea" target="_top" xlink:title="TextObject::TextObject">
<polygon fill="white" stroke="black" points="692,-162.377 692,-181.377 811,-181.377 811,-162.377 692,-162.377"/>
<text text-anchor="middle" x="751.5" y="-169.377" font-family="Helvetica,sans-Serif" font-size="10.00">TextObject::TextObject</text>
</a>
</g>
</g>
<!-- Node24&#45;&gt;Node25 -->
<g id="edge36" class="edge"><title>Node24&#45;&gt;Node25</title>
<path fill="none" stroke="midnightblue" d="M651.339,-182.432C664.95,-180.983 678.872,-179.501 691.818,-178.123"/>
<polygon fill="midnightblue" stroke="midnightblue" points="650.586,-178.992 641.013,-183.531 651.327,-185.953 650.586,-178.992"/>
</g>
<!-- Node26 -->
<g id="node26" class="node"><title>Node26</title>
<g id="a_node26"><a xlink:href="classTextObject.html#af88f6dc06fc9e630679371584da13e21" target="_top" xlink:title="TextObject::setText">
<polygon fill="white" stroke="black" points="884.5,-124.377 884.5,-143.377 988.5,-143.377 988.5,-124.377 884.5,-124.377"/>
<text text-anchor="middle" x="936.5" y="-131.377" font-family="Helvetica,sans-Serif" font-size="10.00">TextObject::setText</text>
</a>
</g>
</g>
<!-- Node24&#45;&gt;Node26 -->
<g id="edge37" class="edge"><title>Node24&#45;&gt;Node26</title>
<path fill="none" stroke="midnightblue" d="M602.687,-177.243C623.284,-168.728 651.257,-158.372 677,-152.877 747.853,-137.753 831.829,-134.137 884.398,-133.536"/>
<polygon fill="midnightblue" stroke="midnightblue" points="601.061,-174.13 593.211,-181.246 603.785,-180.579 601.061,-174.13"/>
</g>
<!-- Node27 -->
<g id="node27" class="node"><title>Node27</title>
<g id="a_node27"><a xlink:href="classTextObject.html#adaa0f36f9e82dc8298d0835101569eb4" target="_top" xlink:title="TextObject::setFont">
<polygon fill="white" stroke="black" points="699.5,-200.377 699.5,-219.377 803.5,-219.377 803.5,-200.377 699.5,-200.377"/>
<text text-anchor="middle" x="751.5" y="-207.377" font-family="Helvetica,sans-Serif" font-size="10.00">TextObject::setFont</text>
</a>
</g>
</g>
<!-- Node24&#45;&gt;Node27 -->
<g id="edge39" class="edge"><title>Node24&#45;&gt;Node27</title>
<path fill="none" stroke="midnightblue" d="M651.128,-199.3C667.502,-201.043 684.336,-202.835 699.388,-204.437"/>
<polygon fill="midnightblue" stroke="midnightblue" points="651.327,-195.801 641.013,-198.223 650.586,-202.762 651.327,-195.801"/>
</g>
<!-- Node26&#45;&gt;Node20 -->
<g id="edge38" class="edge"><title>Node26&#45;&gt;Node20</title>
<path fill="none" stroke="midnightblue" d="M999.271,-131.841C1063.57,-129.721 1164.11,-126.407 1231.36,-124.19"/>
<polygon fill="midnightblue" stroke="midnightblue" points="998.76,-128.356 988.88,-132.183 998.99,-135.352 998.76,-128.356"/>
</g>
<!-- Node27&#45;&gt;Node5 -->
<g id="edge40" class="edge"><title>Node27&#45;&gt;Node5</title>
<path fill="none" stroke="midnightblue" d="M792.696,-222.397C826.458,-232.913 873.988,-247.718 904.77,-257.306"/>
<polygon fill="midnightblue" stroke="midnightblue" points="793.719,-219.05 783.13,-219.418 791.637,-225.733 793.719,-219.05"/>
</g>
<!-- Node27&#45;&gt;Node20 -->
<g id="edge44" class="edge"><title>Node27&#45;&gt;Node20</title>
<path fill="none" stroke="midnightblue" d="M813.8,-200.99C898.98,-188.51 1057.92,-164.749 1193,-141.877 1212.17,-138.632 1233.19,-134.816 1251.59,-131.392"/>
<polygon fill="midnightblue" stroke="midnightblue" points="813.172,-197.545 803.784,-202.456 814.185,-204.471 813.172,-197.545"/>
</g>
<!-- Node28 -->
<g id="node28" class="node"><title>Node28</title>
<g id="a_node28"><a xlink:href="classMainWindow.html#ab547038b4acd1eab08a2693d47d8a8c4" target="_top" xlink:title="Adds a new text frame. ">
<polygon fill="white" stroke="black" points="1231.5,-200.377 1231.5,-219.377 1373.5,-219.377 1373.5,-200.377 1231.5,-200.377"/>
<text text-anchor="middle" x="1302.5" y="-207.377" font-family="Helvetica,sans-Serif" font-size="10.00">MainWindow::addTextFrame</text>
</a>
</g>
</g>
<!-- Node27&#45;&gt;Node28 -->
<g id="edge41" class="edge"><title>Node27&#45;&gt;Node28</title>
<path fill="none" stroke="midnightblue" d="M813.876,-209.877C916.709,-209.877 1123.17,-209.877 1231.5,-209.877"/>
<polygon fill="midnightblue" stroke="midnightblue" points="813.656,-206.377 803.656,-209.877 813.656,-213.377 813.656,-206.377"/>
</g>
<!-- Node28&#45;&gt;Node9 -->
<g id="edge42" class="edge"><title>Node28&#45;&gt;Node9</title>
<path fill="none" stroke="midnightblue" d="M1383.95,-212.309C1398.1,-212.737 1412.78,-213.18 1426.78,-213.604"/>
<polygon fill="midnightblue" stroke="midnightblue" points="1383.86,-208.805 1373.76,-212.001 1383.65,-215.802 1383.86,-208.805"/>
</g>
<!-- Node28&#45;&gt;Node11 -->
<g id="edge43" class="edge"><title>Node28&#45;&gt;Node11</title>
<path fill="none" stroke="midnightblue" d="M1363.52,-198.388C1391.84,-192.966 1425.24,-186.571 1452.15,-181.421"/>
<polygon fill="midnightblue" stroke="midnightblue" points="1362.5,-195.019 1353.33,-200.337 1363.81,-201.895 1362.5,-195.019"/>
</g>
<!-- Node30 -->
<g id="node30" class="node"><title>Node30</title>
<g id="a_node30"><a xlink:href="classDisplaySplitWidget.html#a95e926ec447ef50cee841ff4d7d4f59a" target="_top" xlink:title="DisplaySplitWidget\l::drawFrame">
<polygon fill="white" stroke="black" points="356.5,-159.877 356.5,-189.877 456.5,-189.877 456.5,-159.877 356.5,-159.877"/>
<text text-anchor="start" x="364.5" y="-177.877" font-family="Helvetica,sans-Serif" font-size="10.00">DisplaySplitWidget</text>
<text text-anchor="middle" x="406.5" y="-166.877" font-family="Helvetica,sans-Serif" font-size="10.00">::drawFrame</text>
</a>
</g>
</g>
<!-- Node29&#45;&gt;Node30 -->
<g id="edge46" class="edge"><title>Node29&#45;&gt;Node30</title>
<path fill="none" stroke="midnightblue" d="M316.377,-174.877C329.953,-174.877 343.75,-174.877 356.302,-174.877"/>
<polygon fill="midnightblue" stroke="midnightblue" points="316.062,-171.377 306.062,-174.877 316.062,-178.377 316.062,-171.377"/>
</g>
</g>
</svg>
        <g id="navigator" transform="translate(0 0)" fill="#404254">
                <rect fill="#f2f5e9" fill-opacity="0.5" stroke="#606060" stroke-width=".5" x="0" y="0" width="60" height="60"/>
                <use id="zoomplus" xlink:href="#zoomPlus" x="17" y="9" onmousedown="handleZoom(evt,'in')"/>
                <use id="zoomminus" xlink:href="#zoomMin" x="42" y="9" onmousedown="handleZoom(evt,'out')"/>
                <use id="reset" xlink:href="#resetDef" x="30" y="36" onmousedown="handleReset()"/>
                <g id="arrowUp" xlink:href="#dirArrow" transform="translate(30 24)" onmousedown="handlePan(0,-1)">
                  <use xlink:href="#rim" fill="#404040">
                        <set attributeName="fill" to="#808080" begin="arrowUp.mouseover" end="arrowUp.mouseout"/>
                  </use>
                  <path fill="none" stroke="white" stroke-width="1.5" d="M0,-3.0v7 M-2.5,-0.5L0,-3.0L2.5,-0.5"/>
                </g>
                <g id="arrowRight" xlink:href="#dirArrow" transform="rotate(90) translate(36 -43)" onmousedown="handlePan(1,0)">
                  <use xlink:href="#rim" fill="#404040">
                        <set attributeName="fill" to="#808080" begin="arrowRight.mouseover" end="arrowRight.mouseout"/>
                  </use>
                  <path fill="none" stroke="white" stroke-width="1.5" d="M0,-3.0v7 M-2.5,-0.5L0,-3.0L2.5,-0.5"/>
                </g>
                <g id="arrowDown" xlink:href="#dirArrow" transform="rotate(180) translate(-30 -48)" onmousedown="handlePan(0,1)">
                  <use xlink:href="#rim" fill="#404040">
                        <set attributeName="fill" to="#808080" begin="arrowDown.mouseover" end="arrowDown.mouseout"/>
                  </use>
                  <path fill="none" stroke="white" stroke-width="1.5" d="M0,-3.0v7 M-2.5,-0.5L0,-3.0L2.5,-0.5"/>
                </g>
                <g id="arrowLeft" xlink:href="#dirArrow" transform="rotate(270) translate(-36 17)" onmousedown="handlePan(-1,0)">
                  <use xlink:href="#rim" fill="#404040">
                        <set attributeName="fill" to="#808080" begin="arrowLeft.mouseover" end="arrowLeft.mouseout"/>
                  </use>
                  <path fill="none" stroke="white" stroke-width="1.5" d="M0,-3.0v7 M-2.5,-0.5L0,-3.0L2.5,-0.5"/>
                </g>
        </g>
        <svg viewBox="0 0 15 15" width="100%" height="30px" preserveAspectRatio="xMaxYMin meet">
         <g id="arrow_out" transform="scale(0.3 0.3)">
          <a xlink:href="classDisplayObject_aacc96a69c37767806090e1fa388be045_icgraph_org.svg" target="_base">
           <rect id="button" ry="5" rx="5" y="6" x="6" height="38" width="38"
                fill="#f2f5e9" fill-opacity="0.5" stroke="#606060" stroke-width="1.0"/>
           <path id="arrow"
             d="M 11.500037,31.436501 C 11.940474,20.09759 22.043105,11.32322 32.158766,21.979434 L 37.068811,17.246167 C 37.068811,17.246167 37.088388,32 37.088388,32 L 22.160133,31.978069 C 22.160133,31.978069 26.997745,27.140456 26.997745,27.140456 C 18.528582,18.264221 13.291696,25.230495 11.500037,31.436501 z"
             style="fill:#404040;"/>
          </a>
         </g>
        </svg>
</svg>
