<?xml version="1.0" encoding="UTF-8" standalone="no"?>
<!DOCTYPE svg PUBLIC "-//W3C//DTD SVG 1.1//EN"
 "http://www.w3.org/Graphics/SVG/1.1/DTD/svg11.dtd">
<!-- Generated by graphviz version 2.38.0 (20140413.2041)
 -->
<!-- Title: DisplayObject::numFrames Pages: 1 -->
<!--zoomable 815 -->
<svg id="main" version="1.1" xmlns="http://www.w3.org/2000/svg" xmlns:xlink="http://www.w3.org/1999/xlink" xml:space="preserve" onload="init(evt)">
<style type="text/css"><![CDATA[
.edge:hover path { stroke: red; }
.edge:hover polygon { stroke: red; fill: red; }
]]></style>
<script type="text/javascript"><![CDATA[
var edges = document.getElementsByTagName('g');
if (edges && edges.length) {
  for (var i=0;i<edges.length;i++) {
    if (edges[i].id.substr(0,4)=='edge') {
      edges[i].setAttribute('class','edge');
    }
  }
}
]]></script>
        <defs>
                <circle id="rim" cx="0" cy="0" r="7"/>
                <circle id="rim2" cx="0" cy="0" r="3.5"/>
                <g id="zoomPlus">
                        <use xlink:href="#rim" fill="#404040">
                                <set attributeName="fill" to="#808080" begin="zoomplus.mouseover" end="zoomplus.mouseout"/>
                        </use>
                        <path d="M-4,0h8M0,-4v8" fill="none" stroke="white" stroke-width="1.5" pointer-events="none"/>
                </g>
                <g id="zoomMin">
                        <use xlink:href="#rim" fill="#404040">
                                <set attributeName="fill" to="#808080" begin="zoomminus.mouseover" end="zoomminus.mouseout"/>
                        </use>
                        <path d="M-4,0h8" fill="none" stroke="white" stroke-width="1.5" pointer-events="none"/>
                </g>
                <g id="dirArrow">
                        <path fill="none" stroke="white" stroke-width="1.5" d="M0,-3.0v7 M-2.5,-0.5L0,-3.0L2.5,-0.5"/>
                </g>
               <g id="resetDef">
                       <use xlink:href="#rim2" fill="#404040">
                               <set attributeName="fill" to="#808080" begin="reset.mouseover" end="reset.mouseout"/>
                       </use>
               </g>
        </defs>

<script type="text/javascript">
var viewWidth = 1854;
var viewHeight = 815;
var sectionId = 'dynsection-16';
</script>
<script xlink:href="svgpan.js"/>
<svg id="graph" class="graph">
<g id="viewport">
<title>DisplayObject::numFrames</title>
<polygon fill="white" stroke="none" points="-4,4 -4,-810.5 1850,-810.5 1850,4 -4,4"/>
<!-- Node1 -->
<g id="node1" class="node"><title>Node1</title>
<polygon fill="#bfbfbf" stroke="black" points="0,-277.5 0,-296.5 136,-296.5 136,-277.5 0,-277.5"/>
<text text-anchor="middle" x="68" y="-284.5" font-family="Helvetica,sans-Serif" font-size="10.00">DisplayObject::numFrames</text>
</g>
<!-- Node2 -->
<g id="node2" class="node"><title>Node2</title>
<g id="a_node2"><a xlink:href="classDisplayObject.html#a800ba7adac185f51b23d5f0f1c5ff4ab" target="_top" xlink:title="DisplayObject::frameIndex\lLimits">
<polygon fill="white" stroke="black" points="180,-305 180,-335 313,-335 313,-305 180,-305"/>
<text text-anchor="start" x="188" y="-323" font-family="Helvetica,sans-Serif" font-size="10.00">DisplayObject::frameIndex</text>
<text text-anchor="middle" x="246.5" y="-312" font-family="Helvetica,sans-Serif" font-size="10.00">Limits</text>
</a>
</g>
</g>
<!-- Node1&#45;&gt;Node2 -->
<g id="edge1" class="edge"><title>Node1&#45;&gt;Node2</title>
<path fill="none" stroke="midnightblue" d="M130.332,-298.467C146.299,-301.453 163.567,-304.681 179.752,-307.707"/>
<polygon fill="midnightblue" stroke="midnightblue" points="130.524,-294.943 120.051,-296.545 129.238,-301.823 130.524,-294.943"/>
</g>
<!-- Node26 -->
<g id="node26" class="node"><title>Node26</title>
<g id="a_node26"><a xlink:href="classDisplayObject.html#a6de8d51bc677aa3956bd2d98228808b8" target="_top" xlink:title="DisplayObject::refreshNumber\lOfFrames">
<polygon fill="white" stroke="black" points="172,-240 172,-270 321,-270 321,-240 172,-240"/>
<text text-anchor="start" x="180" y="-258" font-family="Helvetica,sans-Serif" font-size="10.00">DisplayObject::refreshNumber</text>
<text text-anchor="middle" x="246.5" y="-247" font-family="Helvetica,sans-Serif" font-size="10.00">OfFrames</text>
</a>
</g>
</g>
<!-- Node1&#45;&gt;Node26 -->
<g id="edge41" class="edge"><title>Node1&#45;&gt;Node26</title>
<path fill="none" stroke="midnightblue" d="M131.345,-275.697C144.492,-273.313 158.48,-270.777 171.994,-268.327"/>
<polygon fill="midnightblue" stroke="midnightblue" points="130.693,-272.258 121.478,-277.486 131.942,-279.145 130.693,-272.258"/>
</g>
<!-- Node3 -->
<g id="node3" class="node"><title>Node3</title>
<g id="a_node3"><a xlink:href="classMainWindow.html#ab0bccbff44df197a71751db53003079a" target="_top" xlink:title="updates the Playback controls to fit the current YUV settings ">
<polygon fill="white" stroke="black" points="357,-547 357,-577 506,-577 506,-547 357,-547"/>
<text text-anchor="start" x="365" y="-565" font-family="Helvetica,sans-Serif" font-size="10.00">MainWindow::refreshPlayback</text>
<text text-anchor="middle" x="431.5" y="-554" font-family="Helvetica,sans-Serif" font-size="10.00">Widgets</text>
</a>
</g>
</g>
<!-- Node2&#45;&gt;Node3 -->
<g id="edge2" class="edge"><title>Node2&#45;&gt;Node3</title>
<path fill="none" stroke="midnightblue" d="M265.102,-343.276C302.307,-392.476 388.059,-505.876 419.057,-546.868"/>
<polygon fill="midnightblue" stroke="midnightblue" points="267.771,-341.003 258.947,-335.138 262.187,-345.225 267.771,-341.003"/>
</g>
<!-- Node22 -->
<g id="node22" class="node"><title>Node22</title>
<g id="a_node22"><a xlink:href="classMainWindow.html#a153ba12113986ad0acac82272d0ad6eb" target="_top" xlink:title="Toggles playback of selected video file. ">
<polygon fill="white" stroke="black" points="1128,-289.5 1128,-308.5 1274,-308.5 1274,-289.5 1128,-289.5"/>
<text text-anchor="middle" x="1201" y="-296.5" font-family="Helvetica,sans-Serif" font-size="10.00">MainWindow::togglePlayback</text>
</a>
</g>
</g>
<!-- Node2&#45;&gt;Node22 -->
<g id="edge35" class="edge"><title>Node2&#45;&gt;Node22</title>
<path fill="none" stroke="midnightblue" d="M323.498,-313.187C398.534,-307.054 516.582,-299 619,-299 619,-299 619,-299 821.5,-299 928.117,-299 1051.63,-299 1127.79,-299"/>
<polygon fill="midnightblue" stroke="midnightblue" points="322.879,-309.726 313.202,-314.038 323.456,-316.702 322.879,-309.726"/>
</g>
<!-- Node25 -->
<g id="node25" class="node"><title>Node25</title>
<g id="a_node25"><a xlink:href="classMainWindow.html#aaa425b1554af3c1f58cc70b4815082ae" target="_top" xlink:title="this event is called when the playback&#45;timer is triggered. It will paint the next frame ...">
<polygon fill="white" stroke="black" points="368.5,-327.5 368.5,-346.5 494.5,-346.5 494.5,-327.5 368.5,-327.5"/>
<text text-anchor="middle" x="431.5" y="-334.5" font-family="Helvetica,sans-Serif" font-size="10.00">MainWindow::timerEvent</text>
</a>
</g>
</g>
<!-- Node2&#45;&gt;Node25 -->
<g id="edge40" class="edge"><title>Node2&#45;&gt;Node25</title>
<path fill="none" stroke="midnightblue" d="M323.338,-327.045C338.361,-328.441 353.966,-329.89 368.465,-331.237"/>
<polygon fill="midnightblue" stroke="midnightblue" points="323.331,-323.529 313.05,-326.089 322.684,-330.499 323.331,-323.529"/>
</g>
<!-- Node4 -->
<g id="node4" class="node"><title>Node4</title>
<g id="a_node4"><a xlink:href="classMainWindow.html#a6f33e93f427ff2df80edffcb3ad944da" target="_top" xlink:title="MainWindow::updateSelected\lItems">
<polygon fill="white" stroke="black" points="1128,-410 1128,-440 1274,-440 1274,-410 1128,-410"/>
<text text-anchor="start" x="1136" y="-428" font-family="Helvetica,sans-Serif" font-size="10.00">MainWindow::updateSelected</text>
<text text-anchor="middle" x="1201" y="-417" font-family="Helvetica,sans-Serif" font-size="10.00">Items</text>
</a>
</g>
</g>
<!-- Node3&#45;&gt;Node4 -->
<g id="edge3" class="edge"><title>Node3&#45;&gt;Node4</title>
<path fill="none" stroke="midnightblue" d="M516.355,-558.986C568.789,-556.287 637.602,-551.257 698,-542 864.075,-516.546 1056.56,-465.497 1147.4,-440.086"/>
<polygon fill="midnightblue" stroke="midnightblue" points="515.908,-555.504 506.094,-559.496 516.255,-562.496 515.908,-555.504"/>
</g>
<!-- Node12 -->
<g id="node12" class="node"><title>Node12</title>
<g id="a_node12"><a xlink:href="classMainWindow.html#a2cae0b3ed4283301ecc11dc881d31422" target="_top" xlink:title="A file option was changed by the user (width/height/start/end/rate/sampling/frameSize/pixelFormat). ">
<polygon fill="white" stroke="black" points="552,-366 552,-396 688,-396 688,-366 552,-366"/>
<text text-anchor="start" x="560" y="-384" font-family="Helvetica,sans-Serif" font-size="10.00">MainWindow::on_fileOption</text>
<text text-anchor="middle" x="620" y="-373" font-family="Helvetica,sans-Serif" font-size="10.00">ValueChanged</text>
</a>
</g>
</g>
<!-- Node3&#45;&gt;Node12 -->
<g id="edge16" class="edge"><title>Node3&#45;&gt;Node12</title>
<path fill="none" stroke="midnightblue" d="M444.245,-538.01C461.463,-505.122 496.507,-446.122 542,-411 549.722,-405.038 558.775,-400.127 567.906,-396.129"/>
<polygon fill="midnightblue" stroke="midnightblue" points="441.116,-536.442 439.675,-546.938 447.347,-539.632 441.116,-536.442"/>
</g>
<!-- Node14 -->
<g id="node14" class="node"><title>Node14</title>
<g id="a_node14"><a xlink:href="classMainWindow.html#a23cc43af3c6873f9a936b5af05c99f49" target="_top" xlink:title="The display objects information changed. Update. ">
<polygon fill="white" stroke="black" points="943,-410 943,-440 1092,-440 1092,-410 943,-410"/>
<text text-anchor="start" x="951" y="-428" font-family="Helvetica,sans-Serif" font-size="10.00">MainWindow::currentSelection</text>
<text text-anchor="middle" x="1017.5" y="-417" font-family="Helvetica,sans-Serif" font-size="10.00">InformationChanged</text>
</a>
</g>
</g>
<!-- Node3&#45;&gt;Node14 -->
<g id="edge23" class="edge"><title>Node3&#45;&gt;Node14</title>
<path fill="none" stroke="midnightblue" d="M446.435,-538.073C464.433,-509.76 498.663,-463.948 542,-444 611.181,-412.156 827.639,-416.379 942.769,-421.196"/>
<polygon fill="midnightblue" stroke="midnightblue" points="443.235,-536.594 440.963,-546.942 449.193,-540.269 443.235,-536.594"/>
</g>
<!-- Node15 -->
<g id="node15" class="node"><title>Node15</title>
<g id="a_node15"><a xlink:href="classMainWindow.html#a3e50d275dfc7ac5871360412dd83f7eb" target="_top" xlink:title="MainWindow::on_LumaScale\lSpinBox_valueChanged">
<polygon fill="white" stroke="black" points="548.5,-776 548.5,-806 691.5,-806 691.5,-776 548.5,-776"/>
<text text-anchor="start" x="556.5" y="-794" font-family="Helvetica,sans-Serif" font-size="10.00">MainWindow::on_LumaScale</text>
<text text-anchor="middle" x="620" y="-783" font-family="Helvetica,sans-Serif" font-size="10.00">SpinBox_valueChanged</text>
</a>
</g>
</g>
<!-- Node3&#45;&gt;Node15 -->
<g id="edge24" class="edge"><title>Node3&#45;&gt;Node15</title>
<path fill="none" stroke="midnightblue" d="M439.016,-586.839C451.586,-629.89 483.266,-718.408 542,-767 546.1,-770.392 550.679,-773.305 555.505,-775.808"/>
<polygon fill="midnightblue" stroke="midnightblue" points="442.372,-585.842 436.293,-577.165 435.634,-587.74 442.372,-585.842"/>
</g>
<!-- Node16 -->
<g id="node16" class="node"><title>Node16</title>
<g id="a_node16"><a xlink:href="classMainWindow.html#a1836ff843ea4ed48e29ab90b08050bf7" target="_top" xlink:title="MainWindow::on_ColorComponents\lComboBox_currentIndexChanged">
<polygon fill="white" stroke="black" points="734,-678 734,-708 907,-708 907,-678 734,-678"/>
<text text-anchor="start" x="742" y="-696" font-family="Helvetica,sans-Serif" font-size="10.00">MainWindow::on_ColorComponents</text>
<text text-anchor="middle" x="820.5" y="-685" font-family="Helvetica,sans-Serif" font-size="10.00">ComboBox_currentIndexChanged</text>
</a>
</g>
</g>
<!-- Node3&#45;&gt;Node16 -->
<g id="edge34" class="edge"><title>Node3&#45;&gt;Node16</title>
<path fill="none" stroke="midnightblue" d="M516.373,-572.631C569.702,-581.169 639.475,-595.674 698,-619 736.315,-634.271 776.345,-661.109 799.548,-677.924"/>
<polygon fill="midnightblue" stroke="midnightblue" points="516.695,-569.139 506.275,-571.054 515.615,-576.055 516.695,-569.139"/>
</g>
<!-- Node17 -->
<g id="node17" class="node"><title>Node17</title>
<g id="a_node17"><a xlink:href="classMainWindow.html#aa8b7f37af858513162a091d7f81561b4" target="_top" xlink:title="MainWindow::on_ChromaScale\lSpinBox_valueChanged">
<polygon fill="white" stroke="black" points="543,-678 543,-708 697,-708 697,-678 543,-678"/>
<text text-anchor="start" x="551" y="-696" font-family="Helvetica,sans-Serif" font-size="10.00">MainWindow::on_ChromaScale</text>
<text text-anchor="middle" x="620" y="-685" font-family="Helvetica,sans-Serif" font-size="10.00">SpinBox_valueChanged</text>
</a>
</g>
</g>
<!-- Node3&#45;&gt;Node17 -->
<g id="edge26" class="edge"><title>Node3&#45;&gt;Node17</title>
<path fill="none" stroke="midnightblue" d="M450.794,-585.088C470.838,-608.963 505.088,-645.796 542,-668 548.263,-671.767 555.158,-675.036 562.171,-677.852"/>
<polygon fill="midnightblue" stroke="midnightblue" points="453.377,-582.718 444.315,-577.229 447.975,-587.171 453.377,-582.718"/>
</g>
<!-- Node18 -->
<g id="node18" class="node"><title>Node18</title>
<g id="a_node18"><a xlink:href="classMainWindow.html#ab0e3857ccb336133d522cde81e73988e" target="_top" xlink:title="MainWindow::on_LumaOffset\lSpinBox_valueChanged">
<polygon fill="white" stroke="black" points="547,-629 547,-659 693,-659 693,-629 547,-629"/>
<text text-anchor="start" x="555" y="-647" font-family="Helvetica,sans-Serif" font-size="10.00">MainWindow::on_LumaOffset</text>
<text text-anchor="middle" x="620" y="-636" font-family="Helvetica,sans-Serif" font-size="10.00">SpinBox_valueChanged</text>
</a>
</g>
</g>
<!-- Node3&#45;&gt;Node18 -->
<g id="edge28" class="edge"><title>Node3&#45;&gt;Node18</title>
<path fill="none" stroke="midnightblue" d="M472.024,-581.611C492.706,-591.659 518.541,-603.876 542,-614 553.855,-619.117 566.892,-624.343 578.813,-628.971"/>
<polygon fill="midnightblue" stroke="midnightblue" points="473.432,-578.405 462.911,-577.163 470.362,-584.695 473.432,-578.405"/>
</g>
<!-- Node19 -->
<g id="node19" class="node"><title>Node19</title>
<g id="a_node19"><a xlink:href="classMainWindow.html#adac0478ee9ee4dd30f05fc7f5d300825" target="_top" xlink:title="MainWindow::on_ChromaOffset\lSpinBox_valueChanged">
<polygon fill="white" stroke="black" points="542,-727 542,-757 698,-757 698,-727 542,-727"/>
<text text-anchor="start" x="550" y="-745" font-family="Helvetica,sans-Serif" font-size="10.00">MainWindow::on_ChromaOffset</text>
<text text-anchor="middle" x="620" y="-734" font-family="Helvetica,sans-Serif" font-size="10.00">SpinBox_valueChanged</text>
</a>
</g>
</g>
<!-- Node3&#45;&gt;Node19 -->
<g id="edge30" class="edge"><title>Node3&#45;&gt;Node19</title>
<path fill="none" stroke="midnightblue" d="M443.443,-586.725C459.919,-621.15 494.32,-683.202 542,-718 546.75,-721.467 552.015,-724.442 557.496,-726.994"/>
<polygon fill="midnightblue" stroke="midnightblue" points="446.489,-584.976 439.092,-577.39 440.145,-587.933 446.489,-584.976"/>
</g>
<!-- Node20 -->
<g id="node20" class="node"><title>Node20</title>
<g id="a_node20"><a xlink:href="classMainWindow.html#a7f6cbe2be23224eb9eef6af3f55a6d4f" target="_top" xlink:title="MainWindow::on_LumaInvert\lCheckBox_toggled">
<polygon fill="white" stroke="black" points="548.5,-503 548.5,-533 691.5,-533 691.5,-503 548.5,-503"/>
<text text-anchor="start" x="556.5" y="-521" font-family="Helvetica,sans-Serif" font-size="10.00">MainWindow::on_LumaInvert</text>
<text text-anchor="middle" x="620" y="-510" font-family="Helvetica,sans-Serif" font-size="10.00">CheckBox_toggled</text>
</a>
</g>
</g>
<!-- Node3&#45;&gt;Node20 -->
<g id="edge32" class="edge"><title>Node3&#45;&gt;Node20</title>
<path fill="none" stroke="midnightblue" d="M506.154,-544.623C522.407,-540.789 539.491,-536.758 555.309,-533.026"/>
<polygon fill="midnightblue" stroke="midnightblue" points="505.09,-541.278 496.161,-546.981 506.698,-548.091 505.09,-541.278"/>
</g>
<!-- Node21 -->
<g id="node21" class="node"><title>Node21</title>
<g id="a_node21"><a xlink:href="classMainWindow.html#aaa518172394694dea45234097327e979" target="_top" xlink:title="MainWindow::on_ChromaInvert\lCheckBox_toggled">
<polygon fill="white" stroke="black" points="543,-454 543,-484 697,-484 697,-454 543,-454"/>
<text text-anchor="start" x="551" y="-472" font-family="Helvetica,sans-Serif" font-size="10.00">MainWindow::on_ChromaInvert</text>
<text text-anchor="middle" x="620" y="-461" font-family="Helvetica,sans-Serif" font-size="10.00">CheckBox_toggled</text>
</a>
</g>
</g>
<!-- Node3&#45;&gt;Node21 -->
<g id="edge33" class="edge"><title>Node3&#45;&gt;Node21</title>
<path fill="none" stroke="midnightblue" d="M461.292,-540.932C482.718,-525.995 513.128,-506.319 542,-493 549.12,-489.715 556.81,-486.719 564.479,-484.043"/>
<polygon fill="midnightblue" stroke="midnightblue" points="459.124,-538.178 452.975,-546.807 463.162,-543.896 459.124,-538.178"/>
</g>
<!-- Node5 -->
<g id="node5" class="node"><title>Node5</title>
<g id="a_node5"><a xlink:href="classMainWindow.html#a8b244be8b7b7db1b08de2a2acb9409db" target="_top" xlink:title="MainWindow::MainWindow">
<polygon fill="white" stroke="black" points="1711,-365.5 1711,-384.5 1846,-384.5 1846,-365.5 1711,-365.5"/>
<text text-anchor="middle" x="1778.5" y="-372.5" font-family="Helvetica,sans-Serif" font-size="10.00">MainWindow::MainWindow</text>
</a>
</g>
</g>
<!-- Node4&#45;&gt;Node5 -->
<g id="edge4" class="edge"><title>Node4&#45;&gt;Node5</title>
<path fill="none" stroke="midnightblue" d="M1244.52,-443.96C1329.89,-479.113 1526.67,-545.314 1675,-482 1722.79,-461.6 1758.98,-406.773 1772.12,-384.551"/>
<polygon fill="midnightblue" stroke="midnightblue" points="1245.73,-440.673 1235.16,-440.043 1243.03,-447.131 1245.73,-440.673"/>
</g>
<!-- Node6 -->
<g id="node6" class="node"><title>Node6</title>
<g id="a_node6"><a xlink:href="classMainWindow.html#a6be7246a1a0ecf5d1442bb1775c3d9b3" target="_top" xlink:title="MainWindow::addDifference\lSequence">
<polygon fill="white" stroke="black" points="1313.5,-366 1313.5,-396 1453.5,-396 1453.5,-366 1313.5,-366"/>
<text text-anchor="start" x="1321.5" y="-384" font-family="Helvetica,sans-Serif" font-size="10.00">MainWindow::addDifference</text>
<text text-anchor="middle" x="1383.5" y="-373" font-family="Helvetica,sans-Serif" font-size="10.00">Sequence</text>
</a>
</g>
</g>
<!-- Node4&#45;&gt;Node6 -->
<g id="edge5" class="edge"><title>Node4&#45;&gt;Node6</title>
<path fill="none" stroke="midnightblue" d="M1273.73,-407.515C1289.33,-403.713 1305.69,-399.723 1320.86,-396.026"/>
<polygon fill="midnightblue" stroke="midnightblue" points="1272.5,-404.212 1263.61,-409.981 1274.16,-411.013 1272.5,-404.212"/>
</g>
<!-- Node9 -->
<g id="node9" class="node"><title>Node9</title>
<g id="a_node9"><a xlink:href="classMainWindow.html#af5ecc7c65080215b49b9d931c56c65c9" target="_top" xlink:title="MainWindow::editTextFrame">
<polygon fill="white" stroke="black" points="1312.5,-415.5 1312.5,-434.5 1454.5,-434.5 1454.5,-415.5 1312.5,-415.5"/>
<text text-anchor="middle" x="1383.5" y="-422.5" font-family="Helvetica,sans-Serif" font-size="10.00">MainWindow::editTextFrame</text>
</a>
</g>
</g>
<!-- Node4&#45;&gt;Node9 -->
<g id="edge10" class="edge"><title>Node4&#45;&gt;Node9</title>
<path fill="none" stroke="midnightblue" d="M1284.22,-425C1293.58,-425 1303.07,-425 1312.26,-425"/>
<polygon fill="midnightblue" stroke="midnightblue" points="1284.12,-421.5 1274.12,-425 1284.12,-428.5 1284.12,-421.5"/>
</g>
<!-- Node11 -->
<g id="node11" class="node"><title>Node11</title>
<g id="a_node11"><a xlink:href="classMainWindow.html#a156c29c6d7ab278e4246c88a0fcbe2f2" target="_top" xlink:title="MainWindow::updateSettings">
<polygon fill="white" stroke="black" points="1512,-453.5 1512,-472.5 1656,-472.5 1656,-453.5 1512,-453.5"/>
<text text-anchor="middle" x="1584" y="-460.5" font-family="Helvetica,sans-Serif" font-size="10.00">MainWindow::updateSettings</text>
</a>
</g>
</g>
<!-- Node4&#45;&gt;Node11 -->
<g id="edge14" class="edge"><title>Node4&#45;&gt;Node11</title>
<path fill="none" stroke="midnightblue" d="M1284.3,-440.396C1292.96,-441.742 1301.65,-442.977 1310,-444 1378.26,-452.357 1456.61,-457.338 1511.81,-460.089"/>
<polygon fill="midnightblue" stroke="midnightblue" points="1284.6,-436.9 1274.17,-438.773 1283.49,-443.812 1284.6,-436.9"/>
</g>
<!-- Node7 -->
<g id="node7" class="node"><title>Node7</title>
<g id="a_node7"><a xlink:href="classMainWindow.html#a9df7443ce5f907903438bb6a9abe9a33" target="_top" xlink:title="MainWindow::createMenusAnd\lActions">
<polygon fill="white" stroke="black" points="1508,-240 1508,-270 1660,-270 1660,-240 1508,-240"/>
<text text-anchor="start" x="1516" y="-258" font-family="Helvetica,sans-Serif" font-size="10.00">MainWindow::createMenusAnd</text>
<text text-anchor="middle" x="1584" y="-247" font-family="Helvetica,sans-Serif" font-size="10.00">Actions</text>
</a>
</g>
</g>
<!-- Node6&#45;&gt;Node7 -->
<g id="edge6" class="edge"><title>Node6&#45;&gt;Node7</title>
<path fill="none" stroke="midnightblue" d="M1410.63,-359.351C1424.67,-347.462 1442.1,-332.271 1457,-318 1473.8,-301.907 1473.07,-291.995 1493,-280 1499.39,-276.154 1506.39,-272.883 1513.58,-270.104"/>
<polygon fill="midnightblue" stroke="midnightblue" points="1408.21,-356.821 1402.81,-365.938 1412.71,-362.177 1408.21,-356.821"/>
</g>
<!-- Node8 -->
<g id="node8" class="node"><title>Node8</title>
<g id="a_node8"><a xlink:href="classMainWindow.html#aaba5c236313378986c42c4a634c4cfb9" target="_top" xlink:title="MainWindow::onCustomContextMenu">
<polygon fill="white" stroke="black" points="1493,-365.5 1493,-384.5 1675,-384.5 1675,-365.5 1493,-365.5"/>
<text text-anchor="middle" x="1584" y="-372.5" font-family="Helvetica,sans-Serif" font-size="10.00">MainWindow::onCustomContextMenu</text>
</a>
</g>
</g>
<!-- Node6&#45;&gt;Node8 -->
<g id="edge8" class="edge"><title>Node6&#45;&gt;Node8</title>
<path fill="none" stroke="midnightblue" d="M1463.86,-378.601C1473.37,-378.314 1483.15,-378.018 1492.8,-377.726"/>
<polygon fill="midnightblue" stroke="midnightblue" points="1463.54,-375.109 1453.65,-378.91 1463.75,-382.106 1463.54,-375.109"/>
</g>
<!-- Node7&#45;&gt;Node5 -->
<g id="edge7" class="edge"><title>Node7&#45;&gt;Node5</title>
<path fill="none" stroke="midnightblue" d="M1662.07,-273.684C1666.53,-275.6 1670.88,-277.7 1675,-280 1716.31,-303.064 1754.16,-346.112 1769.85,-365.317"/>
<polygon fill="midnightblue" stroke="midnightblue" points="1663.35,-270.427 1652.76,-270.005 1660.77,-276.936 1663.35,-270.427"/>
</g>
<!-- Node8&#45;&gt;Node5 -->
<g id="edge9" class="edge"><title>Node8&#45;&gt;Node5</title>
<path fill="none" stroke="midnightblue" d="M1685.22,-375C1693.88,-375 1702.5,-375 1710.79,-375"/>
<polygon fill="midnightblue" stroke="midnightblue" points="1685.05,-371.5 1675.05,-375 1685.05,-378.5 1685.05,-371.5"/>
</g>
<!-- Node9&#45;&gt;Node8 -->
<g id="edge11" class="edge"><title>Node9&#45;&gt;Node8</title>
<path fill="none" stroke="midnightblue" d="M1429.61,-412.762C1438.69,-410.24 1448.16,-407.569 1457,-405 1473.07,-400.331 1476.8,-398.176 1493,-394 1506.14,-390.611 1520.48,-387.379 1533.77,-384.571"/>
<polygon fill="midnightblue" stroke="midnightblue" points="1428.66,-409.392 1419.96,-415.428 1430.53,-416.14 1428.66,-409.392"/>
</g>
<!-- Node10 -->
<g id="node10" class="node"><title>Node10</title>
<g id="a_node10"><a xlink:href="classMainWindow.html#ab18c663524e2c130759c0ca960129ea4" target="_top" xlink:title="MainWindow::onItemDouble\lClicked">
<polygon fill="white" stroke="black" points="1514,-404 1514,-434 1654,-434 1654,-404 1514,-404"/>
<text text-anchor="start" x="1522" y="-422" font-family="Helvetica,sans-Serif" font-size="10.00">MainWindow::onItemDouble</text>
<text text-anchor="middle" x="1584" y="-411" font-family="Helvetica,sans-Serif" font-size="10.00">Clicked</text>
</a>
</g>
</g>
<!-- Node9&#45;&gt;Node10 -->
<g id="edge12" class="edge"><title>Node9&#45;&gt;Node10</title>
<path fill="none" stroke="midnightblue" d="M1464.78,-422.573C1481.04,-422.082 1498,-421.569 1513.83,-421.091"/>
<polygon fill="midnightblue" stroke="midnightblue" points="1464.65,-419.076 1454.76,-422.876 1464.86,-426.072 1464.65,-419.076"/>
</g>
<!-- Node10&#45;&gt;Node5 -->
<g id="edge13" class="edge"><title>Node10&#45;&gt;Node5</title>
<path fill="none" stroke="midnightblue" d="M1660.77,-401.681C1686.35,-395.835 1713.95,-389.527 1735.88,-384.512"/>
<polygon fill="midnightblue" stroke="midnightblue" points="1659.68,-398.34 1650.71,-403.981 1661.24,-405.164 1659.68,-398.34"/>
</g>
<!-- Node11&#45;&gt;Node5 -->
<g id="edge15" class="edge"><title>Node11&#45;&gt;Node5</title>
<path fill="none" stroke="midnightblue" d="M1652.45,-450.873C1660.18,-448.646 1667.85,-446.04 1675,-443 1710.96,-427.702 1747.89,-399.527 1766.02,-384.703"/>
<polygon fill="midnightblue" stroke="midnightblue" points="1651.4,-447.531 1642.64,-453.496 1653.21,-454.293 1651.4,-447.531"/>
</g>
<!-- Node12&#45;&gt;Node5 -->
<g id="edge17" class="edge"><title>Node12&#45;&gt;Node5</title>
<path fill="none" stroke="midnightblue" d="M691.221,-363.748C705.317,-360.771 720.076,-357.997 734,-356 858.565,-338.136 890.661,-337 1016.5,-337 1016.5,-337 1016.5,-337 1384.5,-337 1513.89,-337 1546.61,-339.959 1675,-356 1693.95,-358.367 1714.68,-362.01 1732.52,-365.475"/>
<polygon fill="midnightblue" stroke="midnightblue" points="690.127,-360.404 681.095,-365.944 691.61,-367.245 690.127,-360.404"/>
</g>
<!-- Node13 -->
<g id="node13" class="node"><title>Node13</title>
<g id="a_node13"><a xlink:href="classMainWindow.html#a29e6418f12a4331860a7db3616e91600" target="_top" xlink:title="updates the YUV information GUI elements from the current Renderobject ">
<polygon fill="white" stroke="black" points="746,-366 746,-396 895,-396 895,-366 746,-366"/>
<text text-anchor="start" x="754" y="-384" font-family="Helvetica,sans-Serif" font-size="10.00">MainWindow::updateSelection</text>
<text text-anchor="middle" x="820.5" y="-373" font-family="Helvetica,sans-Serif" font-size="10.00">MetaInfo</text>
</a>
</g>
</g>
<!-- Node12&#45;&gt;Node13 -->
<g id="edge18" class="edge"><title>Node12&#45;&gt;Node13</title>
<path fill="none" stroke="midnightblue" d="M698.352,-374.398C713.989,-374.183 730.39,-374.202 745.894,-374.454"/>
<polygon fill="midnightblue" stroke="midnightblue" points="698.141,-370.901 688.203,-374.573 698.262,-377.9 698.141,-370.901"/>
</g>
<!-- Node13&#45;&gt;Node4 -->
<g id="edge19" class="edge"><title>Node13&#45;&gt;Node4</title>
<path fill="none" stroke="midnightblue" d="M905.177,-383.48C958.81,-385.906 1029.78,-390.673 1092,-400 1108.56,-402.482 1126.34,-406.165 1142.59,-409.945"/>
<polygon fill="midnightblue" stroke="midnightblue" points="905.173,-379.977 895.031,-383.04 904.869,-386.97 905.173,-379.977"/>
</g>
<!-- Node13&#45;&gt;Node12 -->
<g id="edge20" class="edge"><title>Node13&#45;&gt;Node12</title>
<path fill="none" stroke="midnightblue" d="M735.594,-387.678C719.777,-387.828 703.426,-387.744 688.203,-387.427"/>
<polygon fill="midnightblue" stroke="midnightblue" points="735.94,-391.174 745.894,-387.546 735.85,-384.174 735.94,-391.174"/>
</g>
<!-- Node13&#45;&gt;Node14 -->
<g id="edge21" class="edge"><title>Node13&#45;&gt;Node14</title>
<path fill="none" stroke="midnightblue" d="M898.031,-398.268C915.167,-402.135 933.211,-406.207 949.907,-409.974"/>
<polygon fill="midnightblue" stroke="midnightblue" points="898.588,-394.806 888.063,-396.019 897.047,-401.635 898.588,-394.806"/>
</g>
<!-- Node14&#45;&gt;Node4 -->
<g id="edge22" class="edge"><title>Node14&#45;&gt;Node4</title>
<path fill="none" stroke="midnightblue" d="M1102.09,-425C1110.68,-425 1119.35,-425 1127.81,-425"/>
<polygon fill="midnightblue" stroke="midnightblue" points="1102.06,-421.5 1092.06,-425 1102.06,-428.5 1102.06,-421.5"/>
</g>
<!-- Node15&#45;&gt;Node16 -->
<g id="edge25" class="edge"><title>Node15&#45;&gt;Node16</title>
<path fill="none" stroke="midnightblue" d="M684.563,-772.558C689.16,-770.808 693.682,-768.952 698,-767 735.133,-750.212 774.873,-724.324 798.433,-708.04"/>
<polygon fill="midnightblue" stroke="midnightblue" points="683.273,-769.302 675.064,-776 685.658,-775.884 683.273,-769.302"/>
</g>
<!-- Node17&#45;&gt;Node16 -->
<g id="edge27" class="edge"><title>Node17&#45;&gt;Node16</title>
<path fill="none" stroke="midnightblue" d="M707.422,-693C716.216,-693 725.147,-693 733.932,-693"/>
<polygon fill="midnightblue" stroke="midnightblue" points="707.178,-689.5 697.178,-693 707.178,-696.5 707.178,-689.5"/>
</g>
<!-- Node18&#45;&gt;Node16 -->
<g id="edge29" class="edge"><title>Node18&#45;&gt;Node16</title>
<path fill="none" stroke="midnightblue" d="M691.799,-661.477C713.677,-666.877 737.57,-672.776 758.71,-677.994"/>
<polygon fill="midnightblue" stroke="midnightblue" points="692.453,-658.033 681.906,-659.035 690.775,-664.829 692.453,-658.033"/>
</g>
<!-- Node19&#45;&gt;Node16 -->
<g id="edge31" class="edge"><title>Node19&#45;&gt;Node16</title>
<path fill="none" stroke="midnightblue" d="M691.799,-724.523C713.677,-719.123 737.57,-713.224 758.71,-708.006"/>
<polygon fill="midnightblue" stroke="midnightblue" points="690.775,-721.171 681.906,-726.965 692.453,-727.967 690.775,-721.171"/>
</g>
<!-- Node22&#45;&gt;Node7 -->
<g id="edge36" class="edge"><title>Node22&#45;&gt;Node7</title>
<path fill="none" stroke="midnightblue" d="M1261.23,-287.669C1277.04,-284.895 1294.13,-282.118 1310,-280 1376.64,-271.103 1452.85,-264.413 1507.78,-260.203"/>
<polygon fill="midnightblue" stroke="midnightblue" points="1260.29,-284.282 1251.06,-289.484 1261.52,-291.173 1260.29,-284.282"/>
</g>
<!-- Node23 -->
<g id="node23" class="node"><title>Node23</title>
<g id="a_node23"><a xlink:href="classMainWindow.html#a9c4f542263838b9ecd06eae839a42a34" target="_top" xlink:title="MainWindow::keyPressEvent">
<polygon fill="white" stroke="black" points="1310.5,-289.5 1310.5,-308.5 1456.5,-308.5 1456.5,-289.5 1310.5,-289.5"/>
<text text-anchor="middle" x="1383.5" y="-296.5" font-family="Helvetica,sans-Serif" font-size="10.00">MainWindow::keyPressEvent</text>
</a>
</g>
</g>
<!-- Node22&#45;&gt;Node23 -->
<g id="edge37" class="edge"><title>Node22&#45;&gt;Node23</title>
<path fill="none" stroke="midnightblue" d="M1284.31,-299C1293.05,-299 1301.89,-299 1310.5,-299"/>
<polygon fill="midnightblue" stroke="midnightblue" points="1284.12,-295.5 1274.12,-299 1284.12,-302.5 1284.12,-295.5"/>
</g>
<!-- Node24 -->
<g id="node24" class="node"><title>Node24</title>
<g id="a_node24"><a xlink:href="classMainWindow.html#ab98bca74e18eefa8e0582b5a9eb78d10" target="_top" xlink:title="MainWindow::handleKeyPress">
<polygon fill="white" stroke="black" points="1509,-289.5 1509,-308.5 1659,-308.5 1659,-289.5 1509,-289.5"/>
<text text-anchor="middle" x="1584" y="-296.5" font-family="Helvetica,sans-Serif" font-size="10.00">MainWindow::handleKeyPress</text>
</a>
</g>
</g>
<!-- Node23&#45;&gt;Node24 -->
<g id="edge38" class="edge"><title>Node23&#45;&gt;Node24</title>
<path fill="none" stroke="midnightblue" d="M1466.78,-299C1480.71,-299 1495.11,-299 1508.83,-299"/>
<polygon fill="midnightblue" stroke="midnightblue" points="1466.72,-295.5 1456.72,-299 1466.72,-302.5 1466.72,-295.5"/>
</g>
<!-- Node24&#45;&gt;Node5 -->
<g id="edge39" class="edge"><title>Node24&#45;&gt;Node5</title>
<path fill="none" stroke="midnightblue" d="M1637.88,-311.128C1650.22,-314.498 1663.2,-318.49 1675,-323 1706.69,-335.11 1741.49,-354.067 1761.3,-365.438"/>
<polygon fill="midnightblue" stroke="midnightblue" points="1638.72,-307.729 1628.16,-308.56 1636.93,-314.497 1638.72,-307.729"/>
</g>
<!-- Node27 -->
<g id="node27" class="node"><title>Node27</title>
<g id="a_node27"><a xlink:href="classFrameObject.html#af3743977db6e996acf666952baaa9d41" target="_top" xlink:title="FrameObject::setSize">
<polygon fill="white" stroke="black" points="375.5,-201.5 375.5,-220.5 487.5,-220.5 487.5,-201.5 375.5,-201.5"/>
<text text-anchor="middle" x="431.5" y="-208.5" font-family="Helvetica,sans-Serif" font-size="10.00">FrameObject::setSize</text>
</a>
</g>
</g>
<!-- Node26&#45;&gt;Node27 -->
<g id="edge42" class="edge"><title>Node26&#45;&gt;Node27</title>
<path fill="none" stroke="midnightblue" d="M319.853,-237.604C344.076,-231.779 370.174,-225.505 390.937,-220.512"/>
<polygon fill="midnightblue" stroke="midnightblue" points="318.871,-234.24 309.966,-239.981 320.508,-241.046 318.871,-234.24"/>
</g>
<!-- Node36 -->
<g id="node36" class="node"><title>Node36</title>
<g id="a_node36"><a xlink:href="classFrameObject.html#a72a06fd2f07099819623216975625bed" target="_top" xlink:title="FrameObject::setSrcPixel\lFormat">
<polygon fill="white" stroke="black" points="367,-240 367,-270 496,-270 496,-240 367,-240"/>
<text text-anchor="start" x="375" y="-258" font-family="Helvetica,sans-Serif" font-size="10.00">FrameObject::setSrcPixel</text>
<text text-anchor="middle" x="431.5" y="-247" font-family="Helvetica,sans-Serif" font-size="10.00">Format</text>
</a>
</g>
</g>
<!-- Node26&#45;&gt;Node36 -->
<g id="edge54" class="edge"><title>Node26&#45;&gt;Node36</title>
<path fill="none" stroke="midnightblue" d="M331.487,-255C343.33,-255 355.343,-255 366.724,-255"/>
<polygon fill="midnightblue" stroke="midnightblue" points="331.142,-251.5 321.142,-255 331.142,-258.5 331.142,-251.5"/>
</g>
<!-- Node28 -->
<g id="node28" class="node"><title>Node28</title>
<g id="a_node28"><a xlink:href="classMainWindow.html#a2d8cea1d443550a8f14ce8c80d2608c6" target="_top" xlink:title="MainWindow::loadPlaylistFile">
<polygon fill="white" stroke="black" points="547.5,-201.5 547.5,-220.5 692.5,-220.5 692.5,-201.5 547.5,-201.5"/>
<text text-anchor="middle" x="620" y="-208.5" font-family="Helvetica,sans-Serif" font-size="10.00">MainWindow::loadPlaylistFile</text>
</a>
</g>
</g>
<!-- Node27&#45;&gt;Node28 -->
<g id="edge43" class="edge"><title>Node27&#45;&gt;Node28</title>
<path fill="none" stroke="midnightblue" d="M497.99,-211C513.946,-211 531.094,-211 547.32,-211"/>
<polygon fill="midnightblue" stroke="midnightblue" points="497.699,-207.5 487.699,-211 497.699,-214.5 497.699,-207.5"/>
</g>
<!-- Node29 -->
<g id="node29" class="node"><title>Node29</title>
<g id="a_node29"><a xlink:href="classMainWindow.html#a8ef1be3cb02e12d68d12375d1a7a0ced" target="_top" xlink:title="loads a list of yuv/csv files ">
<polygon fill="white" stroke="black" points="1142,-137.5 1142,-156.5 1260,-156.5 1260,-137.5 1142,-137.5"/>
<text text-anchor="middle" x="1201" y="-144.5" font-family="Helvetica,sans-Serif" font-size="10.00">MainWindow::loadFiles</text>
</a>
</g>
</g>
<!-- Node28&#45;&gt;Node29 -->
<g id="edge44" class="edge"><title>Node28&#45;&gt;Node29</title>
<path fill="none" stroke="midnightblue" d="M702.684,-201.971C821.189,-188.872 1037.93,-164.914 1141.67,-153.448"/>
<polygon fill="midnightblue" stroke="midnightblue" points="702.132,-198.511 692.577,-203.088 702.902,-205.468 702.132,-198.511"/>
</g>
<!-- Node30 -->
<g id="node30" class="node"><title>Node30</title>
<g id="a_node30"><a xlink:href="classDisplaySplitWidget.html#ac1d4ced58b2ac2b08153694a5de6232e" target="_top" xlink:title="DisplaySplitWidget\l::dropEvent">
<polygon fill="white" stroke="black" points="1333.5,-88 1333.5,-118 1433.5,-118 1433.5,-88 1333.5,-88"/>
<text text-anchor="start" x="1341.5" y="-106" font-family="Helvetica,sans-Serif" font-size="10.00">DisplaySplitWidget</text>
<text text-anchor="middle" x="1383.5" y="-95" font-family="Helvetica,sans-Serif" font-size="10.00">::dropEvent</text>
</a>
</g>
</g>
<!-- Node29&#45;&gt;Node30 -->
<g id="edge45" class="edge"><title>Node29&#45;&gt;Node30</title>
<path fill="none" stroke="midnightblue" d="M1251.03,-135.048C1276.61,-128.812 1307.82,-121.204 1333.41,-114.966"/>
<polygon fill="midnightblue" stroke="midnightblue" points="1250.05,-131.684 1241.17,-137.453 1251.71,-138.485 1250.05,-131.684"/>
</g>
<!-- Node31 -->
<g id="node31" class="node"><title>Node31</title>
<g id="a_node31"><a xlink:href="classMainWindow.html#a288b768c3c21a9171bdc56fe845ece8b" target="_top" xlink:title="Shows the file open dialog and loads all selected Files. ">
<polygon fill="white" stroke="black" points="1325.5,-213.5 1325.5,-232.5 1441.5,-232.5 1441.5,-213.5 1325.5,-213.5"/>
<text text-anchor="middle" x="1383.5" y="-220.5" font-family="Helvetica,sans-Serif" font-size="10.00">MainWindow::openFile</text>
</a>
</g>
</g>
<!-- Node29&#45;&gt;Node31 -->
<g id="edge46" class="edge"><title>Node29&#45;&gt;Node31</title>
<path fill="none" stroke="midnightblue" d="M1226.3,-161.901C1247.71,-174.515 1280.05,-192.351 1310,-204 1319.34,-207.632 1329.62,-210.798 1339.43,-213.45"/>
<polygon fill="midnightblue" stroke="midnightblue" points="1227.94,-158.804 1217.56,-156.682 1224.35,-164.814 1227.94,-158.804"/>
</g>
<!-- Node32 -->
<g id="node32" class="node"><title>Node32</title>
<g id="a_node32"><a xlink:href="classMainWindow.html#a935316315edb9b7af42657da20be0e54" target="_top" xlink:title="MainWindow::openRecentFile">
<polygon fill="white" stroke="black" points="1310,-137.5 1310,-156.5 1457,-156.5 1457,-137.5 1310,-137.5"/>
<text text-anchor="middle" x="1383.5" y="-144.5" font-family="Helvetica,sans-Serif" font-size="10.00">MainWindow::openRecentFile</text>
</a>
</g>
</g>
<!-- Node29&#45;&gt;Node32 -->
<g id="edge49" class="edge"><title>Node29&#45;&gt;Node32</title>
<path fill="none" stroke="midnightblue" d="M1270.33,-147C1283.28,-147 1296.87,-147 1309.94,-147"/>
<polygon fill="midnightblue" stroke="midnightblue" points="1270.1,-143.5 1260.1,-147 1270.1,-150.5 1270.1,-143.5"/>
</g>
<!-- Node33 -->
<g id="node33" class="node"><title>Node33</title>
<g id="a_node33"><a xlink:href="classPlaylistTreeWidget.html#a295170eb269cc67050ea0b575cd0ab53" target="_top" xlink:title="PlaylistTreeWidget\l::dropEvent">
<polygon fill="white" stroke="black" points="1334,-39 1334,-69 1433,-69 1433,-39 1334,-39"/>
<text text-anchor="start" x="1342" y="-57" font-family="Helvetica,sans-Serif" font-size="10.00">PlaylistTreeWidget</text>
<text text-anchor="middle" x="1383.5" y="-46" font-family="Helvetica,sans-Serif" font-size="10.00">::dropEvent</text>
</a>
</g>
</g>
<!-- Node29&#45;&gt;Node33 -->
<g id="edge51" class="edge"><title>Node29&#45;&gt;Node33</title>
<path fill="none" stroke="midnightblue" d="M1222.91,-131.407C1244.02,-116.208 1278,-93.2238 1310,-78 1317.54,-74.4112 1325.76,-71.1353 1333.87,-68.2356"/>
<polygon fill="midnightblue" stroke="midnightblue" points="1220.71,-128.679 1214.69,-137.398 1224.83,-134.335 1220.71,-128.679"/>
</g>
<!-- Node34 -->
<g id="node34" class="node"><title>Node34</title>
<g id="a_node34"><a xlink:href="classYUViewApp.html#ac0f5381cc5b703a9ea704b5eedab4b7f" target="_top" xlink:title="YUViewApp::YUViewApp">
<polygon fill="white" stroke="black" points="1319,-0.5 1319,-19.5 1448,-19.5 1448,-0.5 1319,-0.5"/>
<text text-anchor="middle" x="1383.5" y="-7.5" font-family="Helvetica,sans-Serif" font-size="10.00">YUViewApp::YUViewApp</text>
</a>
</g>
</g>
<!-- Node29&#45;&gt;Node34 -->
<g id="edge52" class="edge"><title>Node29&#45;&gt;Node34</title>
<path fill="none" stroke="midnightblue" d="M1213.62,-128.763C1231.23,-102.623 1267.22,-54.8142 1310,-29 1316.46,-25.1007 1323.72,-21.993 1331.07,-19.5184"/>
<polygon fill="midnightblue" stroke="midnightblue" points="1210.55,-127.055 1207.98,-137.333 1216.4,-130.902 1210.55,-127.055"/>
</g>
<!-- Node35 -->
<g id="node35" class="node"><title>Node35</title>
<g id="a_node35"><a xlink:href="classYUViewApp.html#a2f5f937d6677018ef73a5ffc248f9891" target="_top" xlink:title="YUViewApp::event">
<polygon fill="white" stroke="black" points="1333.5,-175.5 1333.5,-194.5 1433.5,-194.5 1433.5,-175.5 1333.5,-175.5"/>
<text text-anchor="middle" x="1383.5" y="-182.5" font-family="Helvetica,sans-Serif" font-size="10.00">YUViewApp::event</text>
</a>
</g>
</g>
<!-- Node29&#45;&gt;Node35 -->
<g id="edge53" class="edge"><title>Node29&#45;&gt;Node35</title>
<path fill="none" stroke="midnightblue" d="M1257.48,-158.681C1283.08,-164.07 1313.08,-170.386 1337.28,-175.48"/>
<polygon fill="midnightblue" stroke="midnightblue" points="1258.05,-155.224 1247.55,-156.589 1256.61,-162.074 1258.05,-155.224"/>
</g>
<!-- Node31&#45;&gt;Node7 -->
<g id="edge47" class="edge"><title>Node31&#45;&gt;Node7</title>
<path fill="none" stroke="midnightblue" d="M1451.76,-233.843C1469.78,-236.748 1489.37,-239.905 1507.78,-242.874"/>
<polygon fill="midnightblue" stroke="midnightblue" points="1452.08,-230.349 1441.65,-232.213 1450.96,-237.26 1452.08,-230.349"/>
</g>
<!-- Node31&#45;&gt;Node8 -->
<g id="edge48" class="edge"><title>Node31&#45;&gt;Node8</title>
<path fill="none" stroke="midnightblue" d="M1405.86,-238.494C1420.66,-249.541 1440.58,-265.029 1457,-280 1474.19,-295.676 1475.04,-303.218 1493,-318 1516.28,-337.155 1546.4,-355.025 1565.21,-365.482"/>
<polygon fill="midnightblue" stroke="midnightblue" points="1407.92,-235.668 1397.8,-232.541 1403.76,-241.298 1407.92,-235.668"/>
</g>
<!-- Node32&#45;&gt;Node7 -->
<g id="edge50" class="edge"><title>Node32&#45;&gt;Node7</title>
<path fill="none" stroke="midnightblue" d="M1440.97,-159.652C1446.48,-161.523 1451.91,-163.632 1457,-166 1499.49,-185.778 1542.77,-220.105 1565.9,-239.848"/>
<polygon fill="midnightblue" stroke="midnightblue" points="1441.6,-156.182 1431.01,-156.538 1439.51,-162.863 1441.6,-156.182"/>
</g>
<!-- Node36&#45;&gt;Node12 -->
<g id="edge56" class="edge"><title>Node36&#45;&gt;Node12</title>
<path fill="none" stroke="midnightblue" d="M463.534,-275.966C501.137,-301.371 563.562,-343.546 596.714,-365.944"/>
<polygon fill="midnightblue" stroke="midnightblue" points="465.242,-272.897 454.996,-270.199 461.323,-278.697 465.242,-272.897"/>
</g>
<!-- Node36&#45;&gt;Node28 -->
<g id="edge55" class="edge"><title>Node36&#45;&gt;Node28</title>
<path fill="none" stroke="midnightblue" d="M505.908,-237.681C530.687,-231.835 557.426,-225.527 578.68,-220.512"/>
<polygon fill="midnightblue" stroke="midnightblue" points="505.09,-234.278 496.161,-239.981 506.698,-241.091 505.09,-234.278"/>
</g>
</g>
</svg>
        <g id="navigator" transform="translate(0 0)" fill="#404254">
                <rect fill="#f2f5e9" fill-opacity="0.5" stroke="#606060" stroke-width=".5" x="0" y="0" width="60" height="60"/>
                <use id="zoomplus" xlink:href="#zoomPlus" x="17" y="9" onmousedown="handleZoom(evt,'in')"/>
                <use id="zoomminus" xlink:href="#zoomMin" x="42" y="9" onmousedown="handleZoom(evt,'out')"/>
                <use id="reset" xlink:href="#resetDef" x="30" y="36" onmousedown="handleReset()"/>
                <g id="arrowUp" xlink:href="#dirArrow" transform="translate(30 24)" onmousedown="handlePan(0,-1)">
                  <use xlink:href="#rim" fill="#404040">
                        <set attributeName="fill" to="#808080" begin="arrowUp.mouseover" end="arrowUp.mouseout"/>
                  </use>
                  <path fill="none" stroke="white" stroke-width="1.5" d="M0,-3.0v7 M-2.5,-0.5L0,-3.0L2.5,-0.5"/>
                </g>
                <g id="arrowRight" xlink:href="#dirArrow" transform="rotate(90) translate(36 -43)" onmousedown="handlePan(1,0)">
                  <use xlink:href="#rim" fill="#404040">
                        <set attributeName="fill" to="#808080" begin="arrowRight.mouseover" end="arrowRight.mouseout"/>
                  </use>
                  <path fill="none" stroke="white" stroke-width="1.5" d="M0,-3.0v7 M-2.5,-0.5L0,-3.0L2.5,-0.5"/>
                </g>
                <g id="arrowDown" xlink:href="#dirArrow" transform="rotate(180) translate(-30 -48)" onmousedown="handlePan(0,1)">
                  <use xlink:href="#rim" fill="#404040">
                        <set attributeName="fill" to="#808080" begin="arrowDown.mouseover" end="arrowDown.mouseout"/>
                  </use>
                  <path fill="none" stroke="white" stroke-width="1.5" d="M0,-3.0v7 M-2.5,-0.5L0,-3.0L2.5,-0.5"/>
                </g>
                <g id="arrowLeft" xlink:href="#dirArrow" transform="rotate(270) translate(-36 17)" onmousedown="handlePan(-1,0)">
                  <use xlink:href="#rim" fill="#404040">
                        <set attributeName="fill" to="#808080" begin="arrowLeft.mouseover" end="arrowLeft.mouseout"/>
                  </use>
                  <path fill="none" stroke="white" stroke-width="1.5" d="M0,-3.0v7 M-2.5,-0.5L0,-3.0L2.5,-0.5"/>
                </g>
        </g>
        <svg viewBox="0 0 15 15" width="100%" height="30px" preserveAspectRatio="xMaxYMin meet">
         <g id="arrow_out" transform="scale(0.3 0.3)">
          <a xlink:href="classDisplayObject_a587ff96ee994001247bdb74df1001309_icgraph_org.svg" target="_base">
           <rect id="button" ry="5" rx="5" y="6" x="6" height="38" width="38"
                fill="#f2f5e9" fill-opacity="0.5" stroke="#606060" stroke-width="1.0"/>
           <path id="arrow"
             d="M 11.500037,31.436501 C 11.940474,20.09759 22.043105,11.32322 32.158766,21.979434 L 37.068811,17.246167 C 37.068811,17.246167 37.088388,32 37.088388,32 L 22.160133,31.978069 C 22.160133,31.978069 26.997745,27.140456 26.997745,27.140456 C 18.528582,18.264221 13.291696,25.230495 11.500037,31.436501 z"
             style="fill:#404040;"/>
          </a>
         </g>
        </svg>
</svg>
