<?xml version="1.0" encoding="UTF-8" standalone="no"?>
<!DOCTYPE svg PUBLIC "-//W3C//DTD SVG 1.1//EN"
 "http://www.w3.org/Graphics/SVG/1.1/DTD/svg11.dtd">
<!-- Generated by graphviz version 2.38.0 (20140413.2041)
 -->
<!-- Title: QObject Pages: 1 -->
<svg width="543pt" height="196pt"
 viewBox="0.00 0.00 542.50 196.00" xmlns="http://www.w3.org/2000/svg" xmlns:xlink="http://www.w3.org/1999/xlink">
<g id="graph0" class="graph" transform="scale(1 1) rotate(0) translate(4 192)">
<title>QObject</title>
<polygon fill="white" stroke="none" points="-4,4 -4,-192 538.5,-192 538.5,4 -4,4"/>
<!-- Node1 -->
<g id="node1" class="node"><title>Node1</title>
<polygon fill="#bfbfbf" stroke="black" points="312.5,-168.5 312.5,-187.5 365.5,-187.5 365.5,-168.5 312.5,-168.5"/>
<text text-anchor="middle" x="339" y="-175.5" font-family="Helvetica,sans-Serif" font-size="10.00">QObject</text>
</g>
<!-- Node2 -->
<g id="node2" class="node"><title>Node2</title>
<g id="a_node2"><a xlink:href="classDisplayObject.html" target="_top" xlink:title="DisplayObject">
<polygon fill="white" stroke="black" points="151,-112.5 151,-131.5 229,-131.5 229,-112.5 151,-112.5"/>
<text text-anchor="middle" x="190" y="-119.5" font-family="Helvetica,sans-Serif" font-size="10.00">DisplayObject</text>
</a>
</g>
</g>
<!-- Node1&#45;&gt;Node2 -->
<g id="edge1" class="edge"><title>Node1&#45;&gt;Node2</title>
<path fill="none" stroke="midnightblue" d="M305.629,-164.906C277.616,-154.754 238.304,-140.506 213.499,-131.516"/>
<polygon fill="midnightblue" stroke="midnightblue" points="304.796,-168.327 315.391,-168.444 307.181,-161.746 304.796,-168.327"/>
</g>
<!-- Node7 -->
<g id="node7" class="node"><title>Node7</title>
<g id="a_node7"><a xlink:href="classstatisticSource.html" target="_top" xlink:title="statisticSource">
<polygon fill="white" stroke="black" points="298,-112.5 298,-131.5 380,-131.5 380,-112.5 298,-112.5"/>
<text text-anchor="middle" x="339" y="-119.5" font-family="Helvetica,sans-Serif" font-size="10.00">statisticSource</text>
</a>
</g>
</g>
<!-- Node1&#45;&gt;Node7 -->
<g id="edge6" class="edge"><title>Node1&#45;&gt;Node7</title>
<path fill="none" stroke="midnightblue" d="M339,-157.805C339,-148.91 339,-138.78 339,-131.751"/>
<polygon fill="midnightblue" stroke="midnightblue" points="335.5,-158.083 339,-168.083 342.5,-158.083 335.5,-158.083"/>
</g>
<!-- Node10 -->
<g id="node10" class="node"><title>Node10</title>
<g id="a_node10"><a xlink:href="classYUVSource.html" target="_top" xlink:title="YUVSource">
<polygon fill="white" stroke="black" points="400,-112.5 400,-131.5 468,-131.5 468,-112.5 400,-112.5"/>
<text text-anchor="middle" x="434" y="-119.5" font-family="Helvetica,sans-Serif" font-size="10.00">YUVSource</text>
</a>
</g>
</g>
<!-- Node1&#45;&gt;Node10 -->
<g id="edge9" class="edge"><title>Node1&#45;&gt;Node10</title>
<path fill="none" stroke="midnightblue" d="M363.318,-163.177C380.799,-153.241 403.83,-140.149 418.774,-131.655"/>
<polygon fill="midnightblue" stroke="midnightblue" points="361.227,-160.339 354.263,-168.324 364.687,-166.425 361.227,-160.339"/>
</g>
<!-- Node3 -->
<g id="node3" class="node"><title>Node3</title>
<g id="a_node3"><a xlink:href="classFrameObject.html" target="_top" xlink:title="FrameObject">
<polygon fill="white" stroke="black" points="8.5,-56.5 8.5,-75.5 81.5,-75.5 81.5,-56.5 8.5,-56.5"/>
<text text-anchor="middle" x="45" y="-63.5" font-family="Helvetica,sans-Serif" font-size="10.00">FrameObject</text>
</a>
</g>
</g>
<!-- Node2&#45;&gt;Node3 -->
<g id="edge2" class="edge"><title>Node2&#45;&gt;Node3</title>
<path fill="none" stroke="midnightblue" d="M157.525,-108.906C130.264,-98.7536 92.0076,-84.5063 67.8682,-75.5164"/>
<polygon fill="midnightblue" stroke="midnightblue" points="156.432,-112.233 167.024,-112.444 158.875,-105.674 156.432,-112.233"/>
</g>
<!-- Node5 -->
<g id="node5" class="node"><title>Node5</title>
<g id="a_node5"><a xlink:href="classStatisticsObject.html" target="_top" xlink:title="StatisticsObject">
<polygon fill="white" stroke="black" points="100,-56.5 100,-75.5 186,-75.5 186,-56.5 100,-56.5"/>
<text text-anchor="middle" x="143" y="-63.5" font-family="Helvetica,sans-Serif" font-size="10.00">StatisticsObject</text>
</a>
</g>
</g>
<!-- Node2&#45;&gt;Node5 -->
<g id="edge4" class="edge"><title>Node2&#45;&gt;Node5</title>
<path fill="none" stroke="midnightblue" d="M175.579,-104.431C167.342,-94.9673 157.346,-83.4827 150.617,-75.7511"/>
<polygon fill="midnightblue" stroke="midnightblue" points="173.034,-106.838 182.239,-112.083 178.314,-102.242 173.034,-106.838"/>
</g>
<!-- Node6 -->
<g id="node6" class="node"><title>Node6</title>
<g id="a_node6"><a xlink:href="classTextObject.html" target="_top" xlink:title="TextObject">
<polygon fill="white" stroke="black" points="204.5,-56.5 204.5,-75.5 269.5,-75.5 269.5,-56.5 204.5,-56.5"/>
<text text-anchor="middle" x="237" y="-63.5" font-family="Helvetica,sans-Serif" font-size="10.00">TextObject</text>
</a>
</g>
</g>
<!-- Node2&#45;&gt;Node6 -->
<g id="edge5" class="edge"><title>Node2&#45;&gt;Node6</title>
<path fill="none" stroke="midnightblue" d="M204.421,-104.431C212.658,-94.9673 222.654,-83.4827 229.383,-75.7511"/>
<polygon fill="midnightblue" stroke="midnightblue" points="201.686,-102.242 197.761,-112.083 206.966,-106.838 201.686,-102.242"/>
</g>
<!-- Node4 -->
<g id="node4" class="node"><title>Node4</title>
<g id="a_node4"><a xlink:href="classDifferenceObject.html" target="_top" xlink:title="DifferenceObject">
<polygon fill="white" stroke="black" points="0,-0.5 0,-19.5 90,-19.5 90,-0.5 0,-0.5"/>
<text text-anchor="middle" x="45" y="-7.5" font-family="Helvetica,sans-Serif" font-size="10.00">DifferenceObject</text>
</a>
</g>
</g>
<!-- Node3&#45;&gt;Node4 -->
<g id="edge3" class="edge"><title>Node3&#45;&gt;Node4</title>
<path fill="none" stroke="midnightblue" d="M45,-45.8045C45,-36.9102 45,-26.7798 45,-19.7511"/>
<polygon fill="midnightblue" stroke="midnightblue" points="41.5001,-46.083 45,-56.083 48.5001,-46.083 41.5001,-46.083"/>
</g>
<!-- Node8 -->
<g id="node8" class="node"><title>Node8</title>
<g id="a_node8"><a xlink:href="classde265File.html" target="_top" xlink:title="de265File">
<polygon fill="white" stroke="black" points="404.5,-56.5 404.5,-75.5 463.5,-75.5 463.5,-56.5 404.5,-56.5"/>
<text text-anchor="middle" x="434" y="-63.5" font-family="Helvetica,sans-Serif" font-size="10.00">de265File</text>
</a>
</g>
</g>
<!-- Node7&#45;&gt;Node8 -->
<g id="edge7" class="edge"><title>Node7&#45;&gt;Node8</title>
<path fill="none" stroke="midnightblue" d="M363.318,-107.177C380.799,-97.2407 403.83,-84.1492 418.774,-75.6545"/>
<polygon fill="midnightblue" stroke="midnightblue" points="361.227,-104.339 354.263,-112.324 364.687,-110.425 361.227,-104.339"/>
</g>
<!-- Node9 -->
<g id="node9" class="node"><title>Node9</title>
<g id="a_node9"><a xlink:href="classstatisticSourceFile.html" target="_top" xlink:title="statisticSourceFile">
<polygon fill="white" stroke="black" points="288,-56.5 288,-75.5 386,-75.5 386,-56.5 288,-56.5"/>
<text text-anchor="middle" x="337" y="-63.5" font-family="Helvetica,sans-Serif" font-size="10.00">statisticSourceFile</text>
</a>
</g>
</g>
<!-- Node7&#45;&gt;Node9 -->
<g id="edge8" class="edge"><title>Node7&#45;&gt;Node9</title>
<path fill="none" stroke="midnightblue" d="M338.289,-101.805C337.96,-92.9102 337.584,-82.7798 337.324,-75.7511"/>
<polygon fill="midnightblue" stroke="midnightblue" points="334.802,-102.219 338.67,-112.083 341.797,-101.96 334.802,-102.219"/>
</g>
<!-- Node10&#45;&gt;Node8 -->
<g id="edge10" class="edge"><title>Node10&#45;&gt;Node8</title>
<path fill="none" stroke="midnightblue" d="M434,-101.805C434,-92.9102 434,-82.7798 434,-75.7511"/>
<polygon fill="midnightblue" stroke="midnightblue" points="430.5,-102.083 434,-112.083 437.5,-102.083 430.5,-102.083"/>
</g>
<!-- Node11 -->
<g id="node11" class="node"><title>Node11</title>
<g id="a_node11"><a xlink:href="classYUVFile.html" target="_top" xlink:title="YUVFile">
<polygon fill="white" stroke="black" points="481.5,-56.5 481.5,-75.5 534.5,-75.5 534.5,-56.5 481.5,-56.5"/>
<text text-anchor="middle" x="508" y="-63.5" font-family="Helvetica,sans-Serif" font-size="10.00">YUVFile</text>
</a>
</g>
</g>
<!-- Node10&#45;&gt;Node11 -->
<g id="edge11" class="edge"><title>Node10&#45;&gt;Node11</title>
<path fill="none" stroke="midnightblue" d="M454.034,-106.38C467.409,-96.6204 484.559,-84.1057 495.894,-75.8339"/>
<polygon fill="midnightblue" stroke="midnightblue" points="451.904,-103.602 445.889,-112.324 456.03,-109.257 451.904,-103.602"/>
</g>
</g>
</svg>
