<?xml version="1.0" encoding="UTF-8" standalone="no"?>
<!DOCTYPE svg PUBLIC "-//W3C//DTD SVG 1.1//EN"
 "http://www.w3.org/Graphics/SVG/1.1/DTD/svg11.dtd">
<!-- Generated by graphviz version 2.38.0 (20140413.2041)
 -->
<!-- Title: PListSerializer::serializeElement Pages: 1 -->
<svg width="833pt" height="126pt"
 viewBox="0.00 0.00 833.00 126.00" xmlns="http://www.w3.org/2000/svg" xmlns:xlink="http://www.w3.org/1999/xlink">
<g id="graph0" class="graph" transform="scale(1 1) rotate(0) translate(4 122)">
<title>PListSerializer::serializeElement</title>
<polygon fill="white" stroke="none" points="-4,4 -4,-122 829,-122 829,4 -4,4"/>
<!-- Node1 -->
<g id="node1" class="node"><title>Node1</title>
<polygon fill="#bfbfbf" stroke="black" points="0,-55 0,-85 122,-85 122,-55 0,-55"/>
<text text-anchor="start" x="8" y="-73" font-family="Helvetica,sans-Serif" font-size="10.00">PListSerializer::serialize</text>
<text text-anchor="middle" x="61" y="-62" font-family="Helvetica,sans-Serif" font-size="10.00">Element</text>
</g>
<!-- Node2 -->
<g id="node2" class="node"><title>Node2</title>
<g id="a_node2"><a xlink:href="classPListSerializer.html#a3931479543c53e915f00161c3ddf1500" target="_top" xlink:title="PListSerializer::serializeList">
<polygon fill="white" stroke="black" points="159.5,-98.5 159.5,-117.5 296.5,-117.5 296.5,-98.5 159.5,-98.5"/>
<text text-anchor="middle" x="228" y="-105.5" font-family="Helvetica,sans-Serif" font-size="10.00">PListSerializer::serializeList</text>
</a>
</g>
</g>
<!-- Node1&#45;&gt;Node2 -->
<g id="edge1" class="edge"><title>Node1&#45;&gt;Node2</title>
<path fill="none" stroke="midnightblue" d="M132.127,-79.4685C158.745,-85.3044 187.122,-92.5014 205.831,-98.428"/>
<polygon fill="midnightblue" stroke="midnightblue" points="132.547,-75.979 122.036,-77.3039 131.079,-82.8233 132.547,-75.979"/>
</g>
<!-- Node3 -->
<g id="node3" class="node"><title>Node3</title>
<g id="a_node3"><a xlink:href="classPListSerializer.html#a7f93d3cb22cfbbee86b0e0e15b88bb70" target="_top" xlink:title="PListSerializer::serializeMap">
<polygon fill="white" stroke="black" points="158,-60.5 158,-79.5 298,-79.5 298,-60.5 158,-60.5"/>
<text text-anchor="middle" x="228" y="-67.5" font-family="Helvetica,sans-Serif" font-size="10.00">PListSerializer::serializeMap</text>
</a>
</g>
</g>
<!-- Node1&#45;&gt;Node3 -->
<g id="edge3" class="edge"><title>Node1&#45;&gt;Node3</title>
<path fill="none" stroke="midnightblue" d="M132.24,-63.3167C140.698,-63.2241 149.331,-63.2279 157.774,-63.3283"/>
<polygon fill="midnightblue" stroke="midnightblue" points="131.979,-59.8203 122.036,-63.4775 132.089,-66.8194 131.979,-59.8203"/>
</g>
<!-- Node4 -->
<g id="node4" class="node"><title>Node4</title>
<g id="a_node4"><a xlink:href="classPListSerializer.html#abfd3f0538d84ac3c6f18b9aa3846a04c" target="_top" xlink:title="PListSerializer::toPList">
<polygon fill="white" stroke="black" points="170,-22.5 170,-41.5 286,-41.5 286,-22.5 170,-22.5"/>
<text text-anchor="middle" x="228" y="-29.5" font-family="Helvetica,sans-Serif" font-size="10.00">PListSerializer::toPList</text>
</a>
</g>
</g>
<!-- Node1&#45;&gt;Node4 -->
<g id="edge5" class="edge"><title>Node1&#45;&gt;Node4</title>
<path fill="none" stroke="midnightblue" d="M131.805,-53.9236C150.12,-49.7058 169.289,-45.2911 185.586,-41.5378"/>
<polygon fill="midnightblue" stroke="midnightblue" points="130.995,-50.5186 122.036,-56.1736 132.566,-57.34 130.995,-50.5186"/>
</g>
<!-- Node2&#45;&gt;Node1 -->
<g id="edge2" class="edge"><title>Node2&#45;&gt;Node1</title>
<path fill="none" stroke="midnightblue" d="M149.273,-96.8392C132.881,-93.1333 116.238,-89.0129 101.942,-85.077"/>
<polygon fill="midnightblue" stroke="midnightblue" points="148.903,-100.342 159.423,-99.0877 150.417,-93.5077 148.903,-100.342"/>
</g>
<!-- Node3&#45;&gt;Node1 -->
<g id="edge4" class="edge"><title>Node3&#45;&gt;Node1</title>
<path fill="none" stroke="midnightblue" d="M147.687,-76.7455C139.057,-76.7698 130.38,-76.6954 122.036,-76.5225"/>
<polygon fill="midnightblue" stroke="midnightblue" points="147.8,-80.2449 157.774,-76.6717 147.749,-73.2451 147.8,-80.2449"/>
</g>
<!-- Node5 -->
<g id="node5" class="node"><title>Node5</title>
<g id="a_node5"><a xlink:href="classMainWindow.html#a88624964fbb9d67df9149b29fab6f225" target="_top" xlink:title="MainWindow::savePlaylist\lToFile">
<polygon fill="white" stroke="black" points="334,-17 334,-47 466,-47 466,-17 334,-17"/>
<text text-anchor="start" x="342" y="-35" font-family="Helvetica,sans-Serif" font-size="10.00">MainWindow::savePlaylist</text>
<text text-anchor="middle" x="400" y="-24" font-family="Helvetica,sans-Serif" font-size="10.00">ToFile</text>
</a>
</g>
</g>
<!-- Node4&#45;&gt;Node5 -->
<g id="edge6" class="edge"><title>Node4&#45;&gt;Node5</title>
<path fill="none" stroke="midnightblue" d="M296.317,-32C308.678,-32 321.561,-32 333.857,-32"/>
<polygon fill="midnightblue" stroke="midnightblue" points="296.08,-28.5001 286.08,-32 296.08,-35.5001 296.08,-28.5001"/>
</g>
<!-- Node6 -->
<g id="node6" class="node"><title>Node6</title>
<g id="a_node6"><a xlink:href="classMainWindow.html#a9df7443ce5f907903438bb6a9abe9a33" target="_top" xlink:title="MainWindow::createMenusAnd\lActions">
<polygon fill="white" stroke="black" points="502,-39 502,-69 654,-69 654,-39 502,-39"/>
<text text-anchor="start" x="510" y="-57" font-family="Helvetica,sans-Serif" font-size="10.00">MainWindow::createMenusAnd</text>
<text text-anchor="middle" x="578" y="-46" font-family="Helvetica,sans-Serif" font-size="10.00">Actions</text>
</a>
</g>
</g>
<!-- Node5&#45;&gt;Node6 -->
<g id="edge7" class="edge"><title>Node5&#45;&gt;Node6</title>
<path fill="none" stroke="midnightblue" d="M475.985,-41.3731C484.543,-42.4428 493.268,-43.5336 501.829,-44.6036"/>
<polygon fill="midnightblue" stroke="midnightblue" points="476.393,-37.8969 466.036,-40.1295 475.524,-44.8429 476.393,-37.8969"/>
</g>
<!-- Node8 -->
<g id="node8" class="node"><title>Node8</title>
<g id="a_node8"><a xlink:href="classMainWindow.html#a4e20a4a065fbb0e4d3532a45a0a91425" target="_top" xlink:title="MainWindow::closeEvent">
<polygon fill="white" stroke="black" points="514,-0.5 514,-19.5 642,-19.5 642,-0.5 514,-0.5"/>
<text text-anchor="middle" x="578" y="-7.5" font-family="Helvetica,sans-Serif" font-size="10.00">MainWindow::closeEvent</text>
</a>
</g>
</g>
<!-- Node5&#45;&gt;Node8 -->
<g id="edge9" class="edge"><title>Node5&#45;&gt;Node8</title>
<path fill="none" stroke="midnightblue" d="M476.069,-22.6163C488.703,-21.0371 501.7,-19.4125 513.988,-17.8765"/>
<polygon fill="midnightblue" stroke="midnightblue" points="475.524,-19.1571 466.036,-23.8705 476.393,-26.1031 475.524,-19.1571"/>
</g>
<!-- Node7 -->
<g id="node7" class="node"><title>Node7</title>
<g id="a_node7"><a xlink:href="classMainWindow.html#a8b244be8b7b7db1b08de2a2acb9409db" target="_top" xlink:title="MainWindow::MainWindow">
<polygon fill="white" stroke="black" points="690,-44.5 690,-63.5 825,-63.5 825,-44.5 690,-44.5"/>
<text text-anchor="middle" x="757.5" y="-51.5" font-family="Helvetica,sans-Serif" font-size="10.00">MainWindow::MainWindow</text>
</a>
</g>
</g>
<!-- Node6&#45;&gt;Node7 -->
<g id="edge8" class="edge"><title>Node6&#45;&gt;Node7</title>
<path fill="none" stroke="midnightblue" d="M664.138,-54C672.793,-54 681.494,-54 689.911,-54"/>
<polygon fill="midnightblue" stroke="midnightblue" points="664.019,-50.5001 654.019,-54 664.019,-57.5001 664.019,-50.5001"/>
</g>
</g>
</svg>
