<?xml version="1.0" encoding="UTF-8" standalone="no"?>
<!DOCTYPE svg PUBLIC "-//W3C//DTD SVG 1.1//EN"
 "http://www.w3.org/Graphics/SVG/1.1/DTD/svg11.dtd">
<!-- Generated by graphviz version 2.38.0 (20140413.2041)
 -->
<!-- Title: YUVSource::isFormatValid Pages: 1 -->
<svg width="437pt" height="66pt"
 viewBox="0.00 0.00 437.00 66.00" xmlns="http://www.w3.org/2000/svg" xmlns:xlink="http://www.w3.org/1999/xlink">
<g id="graph0" class="graph" transform="scale(1 1) rotate(0) translate(4 62)">
<title>YUVSource::isFormatValid</title>
<polygon fill="white" stroke="none" points="-4,4 -4,-62 433,-62 433,4 -4,4"/>
<!-- Node1 -->
<g id="node1" class="node"><title>Node1</title>
<polygon fill="#bfbfbf" stroke="black" points="0,-19.5 0,-38.5 134,-38.5 134,-19.5 0,-19.5"/>
<text text-anchor="middle" x="67" y="-26.5" font-family="Helvetica,sans-Serif" font-size="10.00">YUVSource::isFormatValid</text>
</g>
<!-- Node2 -->
<g id="node2" class="node"><title>Node2</title>
<g id="a_node2"><a xlink:href="classYUVFile.html#a1163bf311baeb46ba404b03b4b68d309" target="_top" xlink:title="YUVFile::isFormatValid">
<polygon fill="white" stroke="black" points="170,-19.5 170,-38.5 289,-38.5 289,-19.5 170,-19.5"/>
<text text-anchor="middle" x="229.5" y="-26.5" font-family="Helvetica,sans-Serif" font-size="10.00">YUVFile::isFormatValid</text>
</a>
</g>
</g>
<!-- Node1&#45;&gt;Node2 -->
<g id="edge1" class="edge"><title>Node1&#45;&gt;Node2</title>
<path fill="none" stroke="midnightblue" d="M144.266,-29C152.877,-29 161.55,-29 169.887,-29"/>
<polygon fill="midnightblue" stroke="midnightblue" points="144.208,-25.5001 134.208,-29 144.208,-32.5001 144.208,-25.5001"/>
</g>
<!-- Node3 -->
<g id="node3" class="node"><title>Node3</title>
<g id="a_node3"><a xlink:href="classYUVFile.html#a75df71aea1c05d5eda21e4003855c11f" target="_top" xlink:title="Get the format of the YUV if known. ">
<polygon fill="white" stroke="black" points="325,-38.5 325,-57.5 429,-57.5 429,-38.5 325,-38.5"/>
<text text-anchor="middle" x="377" y="-45.5" font-family="Helvetica,sans-Serif" font-size="10.00">YUVFile::getFormat</text>
</a>
</g>
</g>
<!-- Node2&#45;&gt;Node3 -->
<g id="edge2" class="edge"><title>Node2&#45;&gt;Node3</title>
<path fill="none" stroke="midnightblue" d="M299.335,-37.9888C307.971,-39.1165 316.681,-40.2538 324.975,-41.337"/>
<polygon fill="midnightblue" stroke="midnightblue" points="299.63,-34.4977 289.261,-36.6733 298.724,-41.4387 299.63,-34.4977"/>
</g>
<!-- Node4 -->
<g id="node4" class="node"><title>Node4</title>
<g id="a_node4"><a xlink:href="classYUVFile.html#a3613b248e47c0a174faa6c26bb6308a7" target="_top" xlink:title="YUVFile::getStatus">
<polygon fill="white" stroke="black" points="326.5,-0.5 326.5,-19.5 427.5,-19.5 427.5,-0.5 326.5,-0.5"/>
<text text-anchor="middle" x="377" y="-7.5" font-family="Helvetica,sans-Serif" font-size="10.00">YUVFile::getStatus</text>
</a>
</g>
</g>
<!-- Node2&#45;&gt;Node4 -->
<g id="edge3" class="edge"><title>Node2&#45;&gt;Node4</title>
<path fill="none" stroke="midnightblue" d="M299.448,-19.9965C308.528,-18.8108 317.686,-17.6149 326.356,-16.4827"/>
<polygon fill="midnightblue" stroke="midnightblue" points="298.724,-16.5613 289.261,-21.3267 299.63,-23.5023 298.724,-16.5613"/>
</g>
</g>
</svg>
