<?xml version="1.0" encoding="UTF-8" standalone="no"?>
<!DOCTYPE svg PUBLIC "-//W3C//DTD SVG 1.1//EN"
 "http://www.w3.org/Graphics/SVG/1.1/DTD/svg11.dtd">
<!-- Generated by graphviz version 2.38.0 (20140413.2041)
 -->
<!-- Title: StatisticsType::getValueTxt Pages: 1 -->
<svg width="859pt" height="28pt"
 viewBox="0.00 0.00 859.00 28.00" xmlns="http://www.w3.org/2000/svg" xmlns:xlink="http://www.w3.org/1999/xlink">
<g id="graph0" class="graph" transform="scale(1 1) rotate(0) translate(4 24)">
<title>StatisticsType::getValueTxt</title>
<polygon fill="white" stroke="none" points="-4,4 -4,-24 855,-24 855,4 -4,4"/>
<!-- Node1 -->
<g id="node1" class="node"><title>Node1</title>
<polygon fill="#bfbfbf" stroke="black" points="0,-0.5 0,-19.5 138,-19.5 138,-0.5 0,-0.5"/>
<text text-anchor="middle" x="69" y="-7.5" font-family="Helvetica,sans-Serif" font-size="10.00">StatisticsType::getValueTxt</text>
</g>
<!-- Node2 -->
<g id="node2" class="node"><title>Node2</title>
<g id="a_node2"><a xlink:href="classstatisticSource.html#a615cd6644b2620644e6df02e631c59e9" target="_top" xlink:title="statisticSource::getValuesAt">
<polygon fill="white" stroke="black" points="174,-0.5 174,-19.5 315,-19.5 315,-0.5 174,-0.5"/>
<text text-anchor="middle" x="244.5" y="-7.5" font-family="Helvetica,sans-Serif" font-size="10.00">statisticSource::getValuesAt</text>
</a>
</g>
</g>
<!-- Node1&#45;&gt;Node2 -->
<g id="edge1" class="edge"><title>Node1&#45;&gt;Node2</title>
<path fill="none" stroke="midnightblue" d="M148.1,-10C156.704,-10 165.422,-10 173.911,-10"/>
<polygon fill="midnightblue" stroke="midnightblue" points="148.074,-6.5001 138.074,-10 148.074,-13.5001 148.074,-6.5001"/>
</g>
<!-- Node3 -->
<g id="node3" class="node"><title>Node3</title>
<g id="a_node3"><a xlink:href="classStatisticsObject.html#aca772b1f478a98a49b8e0835bf44f02a" target="_top" xlink:title="StatisticsObject::getValuesAt">
<polygon fill="white" stroke="black" points="351,-0.5 351,-19.5 497,-19.5 497,-0.5 351,-0.5"/>
<text text-anchor="middle" x="424" y="-7.5" font-family="Helvetica,sans-Serif" font-size="10.00">StatisticsObject::getValuesAt</text>
</a>
</g>
</g>
<!-- Node2&#45;&gt;Node3 -->
<g id="edge2" class="edge"><title>Node2&#45;&gt;Node3</title>
<path fill="none" stroke="midnightblue" d="M325.151,-10C333.737,-10 342.439,-10 350.929,-10"/>
<polygon fill="midnightblue" stroke="midnightblue" points="325.143,-6.5001 315.143,-10 325.143,-13.5001 325.143,-6.5001"/>
</g>
<!-- Node4 -->
<g id="node4" class="node"><title>Node4</title>
<g id="a_node4"><a xlink:href="classDisplayWidget.html#a8d78d2571b0b962ffda77608e24bd10c" target="_top" xlink:title="DisplayWidget::drawZoomBox">
<polygon fill="white" stroke="black" points="533,-0.5 533,-19.5 682,-19.5 682,-0.5 533,-0.5"/>
<text text-anchor="middle" x="607.5" y="-7.5" font-family="Helvetica,sans-Serif" font-size="10.00">DisplayWidget::drawZoomBox</text>
</a>
</g>
</g>
<!-- Node3&#45;&gt;Node4 -->
<g id="edge3" class="edge"><title>Node3&#45;&gt;Node4</title>
<path fill="none" stroke="midnightblue" d="M507.458,-10C515.878,-10 524.393,-10 532.712,-10"/>
<polygon fill="midnightblue" stroke="midnightblue" points="507.255,-6.5001 497.255,-10 507.255,-13.5001 507.255,-6.5001"/>
</g>
<!-- Node5 -->
<g id="node5" class="node"><title>Node5</title>
<g id="a_node5"><a xlink:href="classDisplayWidget.html#a753fc8e8eda233123a20940439599c51" target="_top" xlink:title="DisplayWidget::paintEvent">
<polygon fill="white" stroke="black" points="718,-0.5 718,-19.5 851,-19.5 851,-0.5 718,-0.5"/>
<text text-anchor="middle" x="784.5" y="-7.5" font-family="Helvetica,sans-Serif" font-size="10.00">DisplayWidget::paintEvent</text>
</a>
</g>
</g>
<!-- Node4&#45;&gt;Node5 -->
<g id="edge4" class="edge"><title>Node4&#45;&gt;Node5</title>
<path fill="none" stroke="midnightblue" d="M692.28,-10C700.896,-10 709.56,-10 717.937,-10"/>
<polygon fill="midnightblue" stroke="midnightblue" points="692.209,-6.5001 682.209,-10 692.209,-13.5001 692.209,-6.5001"/>
</g>
</g>
</svg>
