<?xml version="1.0" encoding="UTF-8" standalone="no"?>
<!DOCTYPE svg PUBLIC "-//W3C//DTD SVG 1.1//EN"
 "http://www.w3.org/Graphics/SVG/1.1/DTD/svg11.dtd">
<!-- Generated by graphviz version 2.38.0 (20140413.2041)
 -->
<!-- Title: DisplayWidget::setOverlayStatisticsObject Pages: 1 -->
<svg width="317pt" height="39pt"
 viewBox="0.00 0.00 317.00 39.00" xmlns="http://www.w3.org/2000/svg" xmlns:xlink="http://www.w3.org/1999/xlink">
<g id="graph0" class="graph" transform="scale(1 1) rotate(0) translate(4 35)">
<title>DisplayWidget::setOverlayStatisticsObject</title>
<polygon fill="white" stroke="none" points="-4,4 -4,-35 313,-35 313,4 -4,4"/>
<!-- Node1 -->
<g id="node1" class="node"><title>Node1</title>
<polygon fill="#bfbfbf" stroke="black" points="0,-0.5 0,-30.5 134,-30.5 134,-0.5 0,-0.5"/>
<text text-anchor="start" x="8" y="-18.5" font-family="Helvetica,sans-Serif" font-size="10.00">DisplayWidget::setOverlay</text>
<text text-anchor="middle" x="67" y="-7.5" font-family="Helvetica,sans-Serif" font-size="10.00">StatisticsObject</text>
</g>
<!-- Node2 -->
<g id="node2" class="node"><title>Node2</title>
<g id="a_node2"><a xlink:href="classDisplaySplitWidget.html#ab659577fb3ec6a7f5b6422ed35097eed" target="_top" xlink:title="DisplaySplitWidget\l::setActiveStatisticsObjects">
<polygon fill="white" stroke="black" points="170,-0.5 170,-30.5 309,-30.5 309,-0.5 170,-0.5"/>
<text text-anchor="start" x="178" y="-18.5" font-family="Helvetica,sans-Serif" font-size="10.00">DisplaySplitWidget</text>
<text text-anchor="middle" x="239.5" y="-7.5" font-family="Helvetica,sans-Serif" font-size="10.00">::setActiveStatisticsObjects</text>
</a>
</g>
</g>
<!-- Node1&#45;&gt;Node2 -->
<g id="edge1" class="edge"><title>Node1&#45;&gt;Node2</title>
<path fill="none" stroke="midnightblue" d="M144.563,-15.5C152.953,-15.5 161.456,-15.5 169.742,-15.5"/>
<polygon fill="midnightblue" stroke="midnightblue" points="144.408,-12.0001 134.408,-15.5 144.408,-19.0001 144.408,-12.0001"/>
</g>
</g>
</svg>
