<?xml version="1.0" encoding="UTF-8" standalone="no"?>
<!DOCTYPE svg PUBLIC "-//W3C//DTD SVG 1.1//EN"
 "http://www.w3.org/Graphics/SVG/1.1/DTD/svg11.dtd">
<!-- Generated by graphviz version 2.38.0 (20140413.2041)
 -->
<!-- Title: FrameObject::~FrameObject Pages: 1 -->
<svg width="675pt" height="75pt"
 viewBox="0.00 0.00 675.00 74.50" xmlns="http://www.w3.org/2000/svg" xmlns:xlink="http://www.w3.org/1999/xlink">
<g id="graph0" class="graph" transform="scale(1 1) rotate(0) translate(4 70.5)">
<title>FrameObject::~FrameObject</title>
<polygon fill="white" stroke="none" points="-4,4 -4,-70.5 671,-70.5 671,4 -4,4"/>
<!-- Node1 -->
<g id="node1" class="node"><title>Node1</title>
<polygon fill="#bfbfbf" stroke="black" points="0,-28 0,-47 141,-47 141,-28 0,-28"/>
<text text-anchor="middle" x="70.5" y="-35" font-family="Helvetica,sans-Serif" font-size="10.00">FrameObject::~FrameObject</text>
</g>
<!-- Node2 -->
<g id="node2" class="node"><title>Node2</title>
<g id="a_node2"><a xlink:href="classFrameObject.html#adfa8fc2528a422aba57c301f3c2a311c" target="_top" xlink:title="FrameObject::clearCurrent\lCache">
<polygon fill="white" stroke="black" points="177,-0.5 177,-30.5 309,-30.5 309,-0.5 177,-0.5"/>
<text text-anchor="start" x="185" y="-18.5" font-family="Helvetica,sans-Serif" font-size="10.00">FrameObject::clearCurrent</text>
<text text-anchor="middle" x="243" y="-7.5" font-family="Helvetica,sans-Serif" font-size="10.00">Cache</text>
</a>
</g>
</g>
<!-- Node1&#45;&gt;Node2 -->
<g id="edge1" class="edge"><title>Node1&#45;&gt;Node2</title>
<path fill="none" stroke="midnightblue" d="M141.341,-28.4883C149.802,-27.3966 158.472,-26.2778 167.003,-25.177"/>
<polygon fill="midnightblue" stroke="midnightblue" points="167.463,-28.6467 176.933,-23.8957 166.567,-21.7043 167.463,-28.6467"/>
</g>
<!-- Node3 -->
<g id="node3" class="node"><title>Node3</title>
<g id="a_node3"><a xlink:href="classYUVSource.html#a12174732ce70dfe8f1e5b842a532b8c9" target="_top" xlink:title="YUVSource::getName">
<polygon fill="white" stroke="black" points="353.5,-47 353.5,-66 467.5,-66 467.5,-47 353.5,-47"/>
<text text-anchor="middle" x="410.5" y="-54" font-family="Helvetica,sans-Serif" font-size="10.00">YUVSource::getName</text>
</a>
</g>
</g>
<!-- Node1&#45;&gt;Node3 -->
<g id="edge5" class="edge"><title>Node1&#45;&gt;Node3</title>
<path fill="none" stroke="midnightblue" d="M141.124,-41.4138C200.373,-44.7444 284.898,-49.4957 343.181,-52.772"/>
<polygon fill="midnightblue" stroke="midnightblue" points="343.204,-56.2787 353.385,-53.3456 343.597,-49.2898 343.204,-56.2787"/>
</g>
<!-- Node2&#45;&gt;Node3 -->
<g id="edge2" class="edge"><title>Node2&#45;&gt;Node3</title>
<path fill="none" stroke="midnightblue" d="M304.686,-30.5341C323.195,-35.1192 343.292,-40.0979 360.89,-44.4577"/>
<polygon fill="midnightblue" stroke="midnightblue" points="360.384,-47.9381 370.933,-46.9455 362.068,-41.1435 360.384,-47.9381"/>
</g>
<!-- Node4 -->
<g id="node4" class="node"><title>Node4</title>
<g id="a_node4"><a xlink:href="classFrameObject.html#a1069def130e7deac035f166084ae4ca8" target="_top" xlink:title="FrameObject::numFrames">
<polygon fill="white" stroke="black" points="345,-6 345,-25 476,-25 476,-6 345,-6"/>
<text text-anchor="middle" x="410.5" y="-13" font-family="Helvetica,sans-Serif" font-size="10.00">FrameObject::numFrames</text>
</a>
</g>
</g>
<!-- Node2&#45;&gt;Node4 -->
<g id="edge3" class="edge"><title>Node2&#45;&gt;Node4</title>
<path fill="none" stroke="midnightblue" d="M309.41,-15.5C317.696,-15.5 326.225,-15.5 334.644,-15.5"/>
<polygon fill="midnightblue" stroke="midnightblue" points="334.836,-19.0001 344.836,-15.5 334.836,-12.0001 334.836,-19.0001"/>
</g>
<!-- Node5 -->
<g id="node5" class="node"><title>Node5</title>
<g id="a_node5"><a xlink:href="classYUVSource.html#afaf713d38c871df33f6e28e9d589c86c" target="_top" xlink:title="YUVSource::getNumberFrames">
<polygon fill="white" stroke="black" points="512,-6 512,-25 667,-25 667,-6 512,-6"/>
<text text-anchor="middle" x="589.5" y="-13" font-family="Helvetica,sans-Serif" font-size="10.00">YUVSource::getNumberFrames</text>
</a>
</g>
</g>
<!-- Node4&#45;&gt;Node5 -->
<g id="edge4" class="edge"><title>Node4&#45;&gt;Node5</title>
<path fill="none" stroke="midnightblue" d="M476.152,-15.5C484.457,-15.5 493.064,-15.5 501.651,-15.5"/>
<polygon fill="midnightblue" stroke="midnightblue" points="501.702,-19.0001 511.702,-15.5 501.702,-12.0001 501.702,-19.0001"/>
</g>
</g>
</svg>
