<?xml version="1.0" encoding="UTF-8" standalone="no"?>
<!DOCTYPE svg PUBLIC "-//W3C//DTD SVG 1.1//EN"
 "http://www.w3.org/Graphics/SVG/1.1/DTD/svg11.dtd">
<!-- Generated by graphviz version 2.38.0 (20140413.2041)
 -->
<!-- Title: de265File::getPBSubPosition Pages: 1 -->
<svg width="1004pt" height="72pt"
 viewBox="0.00 0.00 1004.00 71.50" xmlns="http://www.w3.org/2000/svg" xmlns:xlink="http://www.w3.org/1999/xlink">
<g id="graph0" class="graph" transform="scale(1 1) rotate(0) translate(4 67.5)">
<title>de265File::getPBSubPosition</title>
<polygon fill="white" stroke="none" points="-4,4 -4,-67.5 1000,-67.5 1000,4 -4,4"/>
<!-- Node1 -->
<g id="node1" class="node"><title>Node1</title>
<polygon fill="#bfbfbf" stroke="black" points="0,-25 0,-44 144,-44 144,-25 0,-25"/>
<text text-anchor="middle" x="72" y="-32" font-family="Helvetica,sans-Serif" font-size="10.00">de265File::getPBSubPosition</text>
</g>
<!-- Node2 -->
<g id="node2" class="node"><title>Node2</title>
<g id="a_node2"><a xlink:href="classde265File.html#a5d29707bcf85c62b6979f2b1d28ea5b9" target="_top" xlink:title="de265File::cacheStatistics">
<polygon fill="white" stroke="black" points="180,-25 180,-44 312,-44 312,-25 180,-25"/>
<text text-anchor="middle" x="246" y="-32" font-family="Helvetica,sans-Serif" font-size="10.00">de265File::cacheStatistics</text>
</a>
</g>
</g>
<!-- Node1&#45;&gt;Node2 -->
<g id="edge1" class="edge"><title>Node1&#45;&gt;Node2</title>
<path fill="none" stroke="midnightblue" d="M154.686,-34.5C163.118,-34.5 171.606,-34.5 179.824,-34.5"/>
<polygon fill="midnightblue" stroke="midnightblue" points="154.449,-31.0001 144.449,-34.5 154.449,-38.0001 154.449,-31.0001"/>
</g>
<!-- Node3 -->
<g id="node3" class="node"><title>Node3</title>
<g id="a_node3"><a xlink:href="classde265File.html#af2a66d6d47d74d992f61da5048d90538" target="_top" xlink:title="de265File::decodeOnePicture">
<polygon fill="white" stroke="black" points="348,-25 348,-44 493,-44 493,-25 348,-25"/>
<text text-anchor="middle" x="420.5" y="-32" font-family="Helvetica,sans-Serif" font-size="10.00">de265File::decodeOnePicture</text>
</a>
</g>
</g>
<!-- Node2&#45;&gt;Node3 -->
<g id="edge2" class="edge"><title>Node2&#45;&gt;Node3</title>
<path fill="none" stroke="midnightblue" d="M322.423,-34.5C330.867,-34.5 339.452,-34.5 347.847,-34.5"/>
<polygon fill="midnightblue" stroke="midnightblue" points="322.215,-31.0001 312.215,-34.5 322.215,-38.0001 322.215,-31.0001"/>
</g>
<!-- Node4 -->
<g id="node4" class="node"><title>Node4</title>
<g id="a_node4"><a xlink:href="classde265File.html#afc2f00a9676e0b5c3fdd821619bda482" target="_top" xlink:title="de265File::de265File">
<polygon fill="white" stroke="black" points="725.5,-44 725.5,-63 832.5,-63 832.5,-44 725.5,-44"/>
<text text-anchor="middle" x="779" y="-51" font-family="Helvetica,sans-Serif" font-size="10.00">de265File::de265File</text>
</a>
</g>
</g>
<!-- Node3&#45;&gt;Node4 -->
<g id="edge3" class="edge"><title>Node3&#45;&gt;Node4</title>
<path fill="none" stroke="midnightblue" d="M503.511,-38.8709C571.813,-42.5111 667.038,-47.5862 725.495,-50.7017"/>
<polygon fill="midnightblue" stroke="midnightblue" points="503.386,-35.3593 493.214,-38.3221 503.014,-42.3494 503.386,-35.3593"/>
</g>
<!-- Node5 -->
<g id="node5" class="node"><title>Node5</title>
<g id="a_node5"><a xlink:href="classde265File.html#a948bfcc1b2c4ad6f0a3aa54b99f9553f" target="_top" xlink:title="de265File::backgroundDecoder">
<polygon fill="white" stroke="black" points="529,-6 529,-25 681,-25 681,-6 529,-6"/>
<text text-anchor="middle" x="605" y="-13" font-family="Helvetica,sans-Serif" font-size="10.00">de265File::backgroundDecoder</text>
</a>
</g>
</g>
<!-- Node3&#45;&gt;Node5 -->
<g id="edge4" class="edge"><title>Node3&#45;&gt;Node5</title>
<path fill="none" stroke="midnightblue" d="M503.138,-26.0007C511.745,-25.1046 520.468,-24.1965 528.995,-23.3088"/>
<polygon fill="midnightblue" stroke="midnightblue" points="502.689,-22.5285 493.105,-27.0452 503.414,-29.4908 502.689,-22.5285"/>
</g>
<!-- Node5&#45;&gt;Node4 -->
<g id="edge5" class="edge"><title>Node5&#45;&gt;Node4</title>
<path fill="none" stroke="midnightblue" d="M659.196,-27.2526C683.517,-32.6258 711.955,-38.9086 734.909,-43.9799"/>
<polygon fill="midnightblue" stroke="midnightblue" points="659.922,-23.8288 649.403,-25.089 658.412,-30.664 659.922,-23.8288"/>
</g>
<!-- Node6 -->
<g id="node6" class="node"><title>Node6</title>
<g id="a_node6"><a xlink:href="classde265File.html#a4778a7853c318063a9efd5f0990e79bf" target="_top" xlink:title="de265File::getOneFrame">
<polygon fill="white" stroke="black" points="717,-6 717,-25 841,-25 841,-6 717,-6"/>
<text text-anchor="middle" x="779" y="-13" font-family="Helvetica,sans-Serif" font-size="10.00">de265File::getOneFrame</text>
</a>
</g>
</g>
<!-- Node5&#45;&gt;Node6 -->
<g id="edge6" class="edge"><title>Node5&#45;&gt;Node6</title>
<path fill="none" stroke="midnightblue" d="M691.305,-15.5C699.942,-15.5 708.589,-15.5 716.896,-15.5"/>
<polygon fill="midnightblue" stroke="midnightblue" points="691.192,-12.0001 681.191,-15.5 691.191,-19.0001 691.192,-12.0001"/>
</g>
<!-- Node7 -->
<g id="node7" class="node"><title>Node7</title>
<g id="a_node7"><a xlink:href="classde265File.html#af878636f68cd2ee3a4dfc6b3b0169676" target="_top" xlink:title="de265File::loadStatistic\lToCache">
<polygon fill="white" stroke="black" points="877,-0.5 877,-30.5 996,-30.5 996,-0.5 877,-0.5"/>
<text text-anchor="start" x="885" y="-18.5" font-family="Helvetica,sans-Serif" font-size="10.00">de265File::loadStatistic</text>
<text text-anchor="middle" x="936.5" y="-7.5" font-family="Helvetica,sans-Serif" font-size="10.00">ToCache</text>
</a>
</g>
</g>
<!-- Node6&#45;&gt;Node7 -->
<g id="edge7" class="edge"><title>Node6&#45;&gt;Node7</title>
<path fill="none" stroke="midnightblue" d="M851.093,-15.5C859.747,-15.5 868.511,-15.5 876.954,-15.5"/>
<polygon fill="midnightblue" stroke="midnightblue" points="851.011,-12.0001 841.011,-15.5 851.011,-19.0001 851.011,-12.0001"/>
</g>
</g>
</svg>
