<?xml version="1.0" encoding="UTF-8" standalone="no"?>
<!DOCTYPE svg PUBLIC "-//W3C//DTD SVG 1.1//EN"
 "http://www.w3.org/Graphics/SVG/1.1/DTD/svg11.dtd">
<!-- Generated by graphviz version 2.38.0 (20140413.2041)
 -->
<!-- Title: MainWindow::on_ChromaScaleSpinBox_valueChanged Pages: 1 -->
<svg width="1317pt" height="423pt"
 viewBox="0.00 0.00 1317.00 423.00" xmlns="http://www.w3.org/2000/svg" xmlns:xlink="http://www.w3.org/1999/xlink">
<g id="graph0" class="graph" transform="scale(1 1) rotate(0) translate(4 419)">
<title>MainWindow::on_ChromaScaleSpinBox_valueChanged</title>
<polygon fill="white" stroke="none" points="-4,4 -4,-419 1313,-419 1313,4 -4,4"/>
<!-- Node1 -->
<g id="node1" class="node"><title>Node1</title>
<polygon fill="#bfbfbf" stroke="black" points="0,-260 0,-290 154,-290 154,-260 0,-260"/>
<text text-anchor="start" x="8" y="-278" font-family="Helvetica,sans-Serif" font-size="10.00">MainWindow::on_ChromaScale</text>
<text text-anchor="middle" x="77" y="-267" font-family="Helvetica,sans-Serif" font-size="10.00">SpinBox_valueChanged</text>
</g>
<!-- Node2 -->
<g id="node2" class="node"><title>Node2</title>
<g id="a_node2"><a xlink:href="classPlaylistItem.html#a53ef7e25dfa0d08e284653a19c96fc3e" target="_top" xlink:title="PlaylistItem::itemType">
<polygon fill="white" stroke="black" points="212,-360.5 212,-379.5 327,-379.5 327,-360.5 212,-360.5"/>
<text text-anchor="middle" x="269.5" y="-367.5" font-family="Helvetica,sans-Serif" font-size="10.00">PlaylistItem::itemType</text>
</a>
</g>
</g>
<!-- Node1&#45;&gt;Node2 -->
<g id="edge1" class="edge"><title>Node1&#45;&gt;Node2</title>
<path fill="none" stroke="midnightblue" d="M95.8083,-290.101C116.949,-307.281 153.903,-335.017 190,-351 195.637,-353.496 201.654,-355.695 207.753,-357.626"/>
<polygon fill="midnightblue" stroke="midnightblue" points="206.782,-360.989 217.363,-360.443 208.751,-354.271 206.782,-360.989"/>
</g>
<!-- Node3 -->
<g id="node3" class="node"><title>Node3</title>
<g id="a_node3"><a xlink:href="classPlaylistItem.html#a7a65abc1410966c8e7fb7e47d384b7bf" target="_top" xlink:title="PlaylistItem::getFrameObject">
<polygon fill="white" stroke="black" points="197.5,-322.5 197.5,-341.5 341.5,-341.5 341.5,-322.5 197.5,-322.5"/>
<text text-anchor="middle" x="269.5" y="-329.5" font-family="Helvetica,sans-Serif" font-size="10.00">PlaylistItem::getFrameObject</text>
</a>
</g>
</g>
<!-- Node1&#45;&gt;Node3 -->
<g id="edge2" class="edge"><title>Node1&#45;&gt;Node3</title>
<path fill="none" stroke="midnightblue" d="M119.47,-290.06C140.464,-297.431 166.434,-306.165 190,-313 198.415,-315.441 207.398,-317.822 216.172,-320.027"/>
<polygon fill="midnightblue" stroke="midnightblue" points="215.4,-323.441 225.947,-322.436 217.075,-316.645 215.4,-323.441"/>
</g>
<!-- Node4 -->
<g id="node4" class="node"><title>Node4</title>
<g id="a_node4"><a xlink:href="classFrameObject.html#abaa1202cddb161bcd5ce673e67b197af" target="_top" xlink:title="FrameObject::setChromaVScale">
<polygon fill="white" stroke="black" points="190.5,-284.5 190.5,-303.5 348.5,-303.5 348.5,-284.5 190.5,-284.5"/>
<text text-anchor="middle" x="269.5" y="-291.5" font-family="Helvetica,sans-Serif" font-size="10.00">FrameObject::setChromaVScale</text>
</a>
</g>
</g>
<!-- Node1&#45;&gt;Node4 -->
<g id="edge3" class="edge"><title>Node1&#45;&gt;Node4</title>
<path fill="none" stroke="midnightblue" d="M154.112,-282.591C162.678,-283.446 171.46,-284.321 180.164,-285.19"/>
<polygon fill="midnightblue" stroke="midnightblue" points="180.031,-288.694 190.329,-286.203 180.725,-281.728 180.031,-288.694"/>
</g>
<!-- Node19 -->
<g id="node19" class="node"><title>Node19</title>
<g id="a_node19"><a xlink:href="classFrameObject.html#aa3839da0486076c1af04a964dfac7392" target="_top" xlink:title="FrameObject::setChromaUScale">
<polygon fill="white" stroke="black" points="190,-246.5 190,-265.5 349,-265.5 349,-246.5 190,-246.5"/>
<text text-anchor="middle" x="269.5" y="-253.5" font-family="Helvetica,sans-Serif" font-size="10.00">FrameObject::setChromaUScale</text>
</a>
</g>
</g>
<!-- Node1&#45;&gt;Node19 -->
<g id="edge23" class="edge"><title>Node1&#45;&gt;Node19</title>
<path fill="none" stroke="midnightblue" d="M154.112,-267.409C162.529,-266.569 171.154,-265.709 179.71,-264.856"/>
<polygon fill="midnightblue" stroke="midnightblue" points="180.101,-268.334 189.704,-263.859 179.406,-261.369 180.101,-268.334"/>
</g>
<!-- Node20 -->
<g id="node20" class="node"><title>Node20</title>
<g id="a_node20"><a xlink:href="classPlaylistItem.html#abebf593e5891b8a9e06278938d293375" target="_top" xlink:title="PlaylistItem::getDifference\lObject">
<polygon fill="white" stroke="black" points="203,-197 203,-227 336,-227 336,-197 203,-197"/>
<text text-anchor="start" x="211" y="-215" font-family="Helvetica,sans-Serif" font-size="10.00">PlaylistItem::getDifference</text>
<text text-anchor="middle" x="269.5" y="-204" font-family="Helvetica,sans-Serif" font-size="10.00">Object</text>
</a>
</g>
</g>
<!-- Node1&#45;&gt;Node20 -->
<g id="edge25" class="edge"><title>Node1&#45;&gt;Node20</title>
<path fill="none" stroke="midnightblue" d="M121.819,-259.92C142.473,-252.867 167.471,-244.409 190,-237 196.819,-234.758 203.981,-232.434 211.09,-230.146"/>
<polygon fill="midnightblue" stroke="midnightblue" points="212.26,-233.447 220.714,-227.061 210.123,-226.781 212.26,-233.447"/>
</g>
<!-- Node21 -->
<g id="node21" class="node"><title>Node21</title>
<g id="a_node21"><a xlink:href="classMainWindow.html#ab0bccbff44df197a71751db53003079a" target="_top" xlink:title="updates the Playback controls to fit the current YUV settings ">
<polygon fill="white" stroke="black" points="195,-147 195,-177 344,-177 344,-147 195,-147"/>
<text text-anchor="start" x="203" y="-165" font-family="Helvetica,sans-Serif" font-size="10.00">MainWindow::refreshPlayback</text>
<text text-anchor="middle" x="269.5" y="-154" font-family="Helvetica,sans-Serif" font-size="10.00">Widgets</text>
</a>
</g>
</g>
<!-- Node1&#45;&gt;Node21 -->
<g id="edge26" class="edge"><title>Node1&#45;&gt;Node21</title>
<path fill="none" stroke="midnightblue" d="M93.4088,-259.897C113.901,-240.557 151.978,-207.141 190,-187 194.203,-184.774 198.638,-182.704 203.174,-180.788"/>
<polygon fill="midnightblue" stroke="midnightblue" points="204.572,-183.999 212.586,-177.069 201.999,-177.489 204.572,-183.999"/>
</g>
<!-- Node5 -->
<g id="node5" class="node"><title>Node5</title>
<g id="a_node5"><a xlink:href="classFrameObject.html#ac42be5ded1448dde312e661e66c8730e" target="_top" xlink:title="FrameObject::refreshDisplay\lImage">
<polygon fill="white" stroke="black" points="390,-279 390,-309 532,-309 532,-279 390,-279"/>
<text text-anchor="start" x="398" y="-297" font-family="Helvetica,sans-Serif" font-size="10.00">FrameObject::refreshDisplay</text>
<text text-anchor="middle" x="461" y="-286" font-family="Helvetica,sans-Serif" font-size="10.00">Image</text>
</a>
</g>
</g>
<!-- Node4&#45;&gt;Node5 -->
<g id="edge4" class="edge"><title>Node4&#45;&gt;Node5</title>
<path fill="none" stroke="midnightblue" d="M348.671,-294C358.917,-294 369.43,-294 379.711,-294"/>
<polygon fill="midnightblue" stroke="midnightblue" points="379.896,-297.5 389.896,-294 379.896,-290.5 379.896,-297.5"/>
</g>
<!-- Node6 -->
<g id="node6" class="node"><title>Node6</title>
<g id="a_node6"><a xlink:href="classFrameObject.html#adfa8fc2528a422aba57c301f3c2a311c" target="_top" xlink:title="FrameObject::clearCurrent\lCache">
<polygon fill="white" stroke="black" points="593.5,-352 593.5,-382 725.5,-382 725.5,-352 593.5,-352"/>
<text text-anchor="start" x="601.5" y="-370" font-family="Helvetica,sans-Serif" font-size="10.00">FrameObject::clearCurrent</text>
<text text-anchor="middle" x="659.5" y="-359" font-family="Helvetica,sans-Serif" font-size="10.00">Cache</text>
</a>
</g>
</g>
<!-- Node5&#45;&gt;Node6 -->
<g id="edge5" class="edge"><title>Node5&#45;&gt;Node6</title>
<path fill="none" stroke="midnightblue" d="M502.715,-309.126C533.409,-320.529 575.671,-336.229 608.433,-348.4"/>
<polygon fill="midnightblue" stroke="midnightblue" points="607.244,-351.692 617.837,-351.894 609.682,-345.13 607.244,-351.692"/>
</g>
<!-- Node10 -->
<g id="node10" class="node"><title>Node10</title>
<g id="a_node10"><a xlink:href="classFrameObject.html#ad33aa12aedba2856ec54989d6eda2d49" target="_top" xlink:title="FrameObject::loadImage">
<polygon fill="white" stroke="black" points="597.5,-262.5 597.5,-281.5 721.5,-281.5 721.5,-262.5 597.5,-262.5"/>
<text text-anchor="middle" x="659.5" y="-269.5" font-family="Helvetica,sans-Serif" font-size="10.00">FrameObject::loadImage</text>
</a>
</g>
</g>
<!-- Node5&#45;&gt;Node10 -->
<g id="edge9" class="edge"><title>Node5&#45;&gt;Node10</title>
<path fill="none" stroke="midnightblue" d="M532.109,-286.151C549.974,-284.15 569.195,-281.999 587.123,-279.991"/>
<polygon fill="midnightblue" stroke="midnightblue" points="587.672,-283.452 597.22,-278.861 586.893,-276.495 587.672,-283.452"/>
</g>
<!-- Node7 -->
<g id="node7" class="node"><title>Node7</title>
<g id="a_node7"><a xlink:href="classYUVSource.html#a12174732ce70dfe8f1e5b842a532b8c9" target="_top" xlink:title="YUVSource::getName">
<polygon fill="white" stroke="black" points="804.5,-395.5 804.5,-414.5 918.5,-414.5 918.5,-395.5 804.5,-395.5"/>
<text text-anchor="middle" x="861.5" y="-402.5" font-family="Helvetica,sans-Serif" font-size="10.00">YUVSource::getName</text>
</a>
</g>
</g>
<!-- Node6&#45;&gt;Node7 -->
<g id="edge6" class="edge"><title>Node6&#45;&gt;Node7</title>
<path fill="none" stroke="midnightblue" d="M725.711,-379.39C749.749,-383.957 776.851,-389.107 800.415,-393.584"/>
<polygon fill="midnightblue" stroke="midnightblue" points="799.801,-397.03 810.278,-395.458 801.107,-390.153 799.801,-397.03"/>
</g>
<!-- Node8 -->
<g id="node8" class="node"><title>Node8</title>
<g id="a_node8"><a xlink:href="classFrameObject.html#a1069def130e7deac035f166084ae4ca8" target="_top" xlink:title="FrameObject::numFrames">
<polygon fill="white" stroke="black" points="796,-357.5 796,-376.5 927,-376.5 927,-357.5 796,-357.5"/>
<text text-anchor="middle" x="861.5" y="-364.5" font-family="Helvetica,sans-Serif" font-size="10.00">FrameObject::numFrames</text>
</a>
</g>
</g>
<!-- Node6&#45;&gt;Node8 -->
<g id="edge7" class="edge"><title>Node6&#45;&gt;Node8</title>
<path fill="none" stroke="midnightblue" d="M725.711,-367C744.834,-367 765.896,-367 785.573,-367"/>
<polygon fill="midnightblue" stroke="midnightblue" points="785.72,-370.5 795.72,-367 785.719,-363.5 785.72,-370.5"/>
</g>
<!-- Node9 -->
<g id="node9" class="node"><title>Node9</title>
<g id="a_node9"><a xlink:href="classYUVSource.html#afaf713d38c871df33f6e28e9d589c86c" target="_top" xlink:title="YUVSource::getNumberFrames">
<polygon fill="white" stroke="black" points="977,-357.5 977,-376.5 1132,-376.5 1132,-357.5 977,-357.5"/>
<text text-anchor="middle" x="1054.5" y="-364.5" font-family="Helvetica,sans-Serif" font-size="10.00">YUVSource::getNumberFrames</text>
</a>
</g>
</g>
<!-- Node8&#45;&gt;Node9 -->
<g id="edge8" class="edge"><title>Node8&#45;&gt;Node9</title>
<path fill="none" stroke="midnightblue" d="M927.164,-367C939.841,-367 953.331,-367 966.597,-367"/>
<polygon fill="midnightblue" stroke="midnightblue" points="966.682,-370.5 976.682,-367 966.682,-363.5 966.682,-370.5"/>
</g>
<!-- Node10&#45;&gt;Node7 -->
<g id="edge11" class="edge"><title>Node10&#45;&gt;Node7</title>
<path fill="none" stroke="midnightblue" d="M673.933,-281.679C691.383,-294.538 722.4,-318.393 746,-342 763.864,-359.869 760.609,-372.551 782,-386 786.018,-388.526 790.345,-390.716 794.83,-392.615"/>
<polygon fill="midnightblue" stroke="midnightblue" points="793.615,-395.898 804.208,-396.118 796.065,-389.34 793.615,-395.898"/>
</g>
<!-- Node10&#45;&gt;Node8 -->
<g id="edge10" class="edge"><title>Node10&#45;&gt;Node8</title>
<path fill="none" stroke="midnightblue" d="M674.514,-281.652C696.557,-296.49 741.046,-325.065 782,-343 791.893,-347.332 802.807,-351.203 813.272,-354.505"/>
<polygon fill="midnightblue" stroke="midnightblue" points="812.534,-357.939 823.119,-357.494 814.567,-351.241 812.534,-357.939"/>
</g>
<!-- Node11 -->
<g id="node11" class="node"><title>Node11</title>
<g id="a_node11"><a xlink:href="classYUVSource.html#a592ce352c789f4f5789b11e052b58a33" target="_top" xlink:title="YUVSource::pixelFormat">
<polygon fill="white" stroke="black" points="1176,-124.5 1176,-143.5 1301,-143.5 1301,-124.5 1176,-124.5"/>
<text text-anchor="middle" x="1238.5" y="-131.5" font-family="Helvetica,sans-Serif" font-size="10.00">YUVSource::pixelFormat</text>
</a>
</g>
</g>
<!-- Node10&#45;&gt;Node11 -->
<g id="edge12" class="edge"><title>Node10&#45;&gt;Node11</title>
<path fill="none" stroke="midnightblue" d="M695.385,-262.485C712.74,-256.137 732.778,-246.117 746,-231 780.145,-191.963 740.05,-150.496 782,-120 912.564,-25.0857 1124.33,-90.351 1204.94,-120.765"/>
<polygon fill="midnightblue" stroke="midnightblue" points="1203.96,-124.137 1214.55,-124.461 1206.47,-117.604 1203.96,-124.137"/>
</g>
<!-- Node12 -->
<g id="node12" class="node"><title>Node12</title>
<g id="a_node12"><a xlink:href="classYUVSource.html#aff9d7390aa2cdb93376c69ede52b1e30" target="_top" xlink:title="YUVSource::getOneFrame">
<polygon fill="white" stroke="black" points="794.5,-281.5 794.5,-300.5 928.5,-300.5 928.5,-281.5 794.5,-281.5"/>
<text text-anchor="middle" x="861.5" y="-288.5" font-family="Helvetica,sans-Serif" font-size="10.00">YUVSource::getOneFrame</text>
</a>
</g>
</g>
<!-- Node10&#45;&gt;Node12 -->
<g id="edge13" class="edge"><title>Node10&#45;&gt;Node12</title>
<path fill="none" stroke="midnightblue" d="M721.593,-277.804C741.338,-279.68 763.479,-281.783 784.184,-283.75"/>
<polygon fill="midnightblue" stroke="midnightblue" points="783.929,-287.241 794.215,-284.703 784.591,-280.273 783.929,-287.241"/>
</g>
<!-- Node13 -->
<g id="node13" class="node"><title>Node13</title>
<g id="a_node13"><a xlink:href="classFrameObject.html#a3157b2afa82e71a5ebd93ac6dd25de6b" target="_top" xlink:title="FrameObject::doApplyYUVMath">
<polygon fill="white" stroke="black" points="783,-243.5 783,-262.5 940,-262.5 940,-243.5 783,-243.5"/>
<text text-anchor="middle" x="861.5" y="-250.5" font-family="Helvetica,sans-Serif" font-size="10.00">FrameObject::doApplyYUVMath</text>
</a>
</g>
</g>
<!-- Node10&#45;&gt;Node13 -->
<g id="edge14" class="edge"><title>Node10&#45;&gt;Node13</title>
<path fill="none" stroke="midnightblue" d="M721.593,-266.196C737.726,-264.664 755.46,-262.979 772.702,-261.341"/>
<polygon fill="midnightblue" stroke="midnightblue" points="773.157,-264.813 782.781,-260.383 772.495,-257.845 773.157,-264.813"/>
</g>
<!-- Node14 -->
<g id="node14" class="node"><title>Node14</title>
<g id="a_node14"><a xlink:href="classFrameObject.html#a38084be9c862db6fea97d202231144ec" target="_top" xlink:title="FrameObject::applyYUVMath">
<polygon fill="white" stroke="black" points="789,-167.5 789,-186.5 934,-186.5 934,-167.5 789,-167.5"/>
<text text-anchor="middle" x="861.5" y="-174.5" font-family="Helvetica,sans-Serif" font-size="10.00">FrameObject::applyYUVMath</text>
</a>
</g>
</g>
<!-- Node10&#45;&gt;Node14 -->
<g id="edge15" class="edge"><title>Node10&#45;&gt;Node14</title>
<path fill="none" stroke="midnightblue" d="M685.614,-262.498C703.301,-255.214 727.099,-244.188 746,-231 764.301,-218.23 762.464,-206.784 782,-196 786.155,-193.707 790.583,-191.687 795.139,-189.91"/>
<polygon fill="midnightblue" stroke="midnightblue" points="796.343,-193.197 804.627,-186.592 794.032,-186.59 796.343,-193.197"/>
</g>
<!-- Node16 -->
<g id="node16" class="node"><title>Node16</title>
<g id="a_node16"><a xlink:href="classYUVSource.html#a7e554f2c626688704099e00cc4ece029" target="_top" xlink:title="YUVSource::pixelFormatList">
<polygon fill="white" stroke="black" points="1168,-171.5 1168,-190.5 1309,-190.5 1309,-171.5 1168,-171.5"/>
<text text-anchor="middle" x="1238.5" y="-178.5" font-family="Helvetica,sans-Serif" font-size="10.00">YUVSource::pixelFormatList</text>
</a>
</g>
</g>
<!-- Node10&#45;&gt;Node16 -->
<g id="edge21" class="edge"><title>Node10&#45;&gt;Node16</title>
<path fill="none" stroke="midnightblue" d="M683.745,-281.596C707.837,-290.983 746.825,-304.628 782,-310 851.857,-320.669 871.816,-324.398 941,-310 1048.14,-287.703 1164.03,-224.564 1213.23,-195.712"/>
<polygon fill="midnightblue" stroke="midnightblue" points="1215.07,-198.689 1221.89,-190.58 1211.5,-192.667 1215.07,-198.689"/>
</g>
<!-- Node17 -->
<g id="node17" class="node"><title>Node17</title>
<g id="a_node17"><a xlink:href="classFrameObject.html#acd2367ffa54180853cd3ee901aa85304" target="_top" xlink:title="FrameObject::convertYUV2RGB">
<polygon fill="white" stroke="black" points="782,-129.5 782,-148.5 941,-148.5 941,-129.5 782,-129.5"/>
<text text-anchor="middle" x="861.5" y="-136.5" font-family="Helvetica,sans-Serif" font-size="10.00">FrameObject::convertYUV2RGB</text>
</a>
</g>
</g>
<!-- Node10&#45;&gt;Node17 -->
<g id="edge19" class="edge"><title>Node10&#45;&gt;Node17</title>
<path fill="none" stroke="midnightblue" d="M692.428,-262.459C709.977,-255.907 731.135,-245.702 746,-231 771.72,-205.562 753.759,-180.607 782,-158 784.182,-156.253 786.501,-154.663 788.922,-153.216"/>
<polygon fill="midnightblue" stroke="midnightblue" points="790.733,-156.221 798.069,-148.577 787.567,-149.978 790.733,-156.221"/>
</g>
<!-- Node18 -->
<g id="node18" class="node"><title>Node18</title>
<g id="a_node18"><a xlink:href="classDisplayObject.html#a790f4bdf4ecb24617ea7db5837c3048c" target="_top" xlink:title="DisplayObject::setInfo">
<polygon fill="white" stroke="black" points="804.5,-205.5 804.5,-224.5 918.5,-224.5 918.5,-205.5 804.5,-205.5"/>
<text text-anchor="middle" x="861.5" y="-212.5" font-family="Helvetica,sans-Serif" font-size="10.00">DisplayObject::setInfo</text>
</a>
</g>
</g>
<!-- Node10&#45;&gt;Node18 -->
<g id="edge22" class="edge"><title>Node10&#45;&gt;Node18</title>
<path fill="none" stroke="midnightblue" d="M689.31,-262.403C713.829,-254.377 750.052,-242.852 782,-234 790.64,-231.606 799.861,-229.223 808.833,-226.994"/>
<polygon fill="midnightblue" stroke="midnightblue" points="809.933,-230.328 818.814,-224.551 808.269,-223.529 809.933,-230.328"/>
</g>
<!-- Node15 -->
<g id="node15" class="node"><title>Node15</title>
<g id="a_node15"><a xlink:href="classYUVSource.html#a11ea64b650d6086177fa0f7a1f3f323d" target="_top" xlink:title="YUVSource::bitsPerSample">
<polygon fill="white" stroke="black" points="985.5,-148.5 985.5,-167.5 1123.5,-167.5 1123.5,-148.5 985.5,-148.5"/>
<text text-anchor="middle" x="1054.5" y="-155.5" font-family="Helvetica,sans-Serif" font-size="10.00">YUVSource::bitsPerSample</text>
</a>
</g>
</g>
<!-- Node14&#45;&gt;Node15 -->
<g id="edge16" class="edge"><title>Node14&#45;&gt;Node15</title>
<path fill="none" stroke="midnightblue" d="M934.165,-169.871C947.492,-168.545 961.482,-167.154 975.001,-165.809"/>
<polygon fill="midnightblue" stroke="midnightblue" points="975.625,-169.264 985.229,-164.791 974.932,-162.298 975.625,-169.264"/>
</g>
<!-- Node15&#45;&gt;Node11 -->
<g id="edge18" class="edge"><title>Node15&#45;&gt;Node11</title>
<path fill="none" stroke="midnightblue" d="M1123.53,-149.029C1137.34,-147.208 1151.91,-145.287 1165.84,-143.45"/>
<polygon fill="midnightblue" stroke="midnightblue" points="1166.4,-146.907 1175.85,-142.129 1165.48,-139.967 1166.4,-146.907"/>
</g>
<!-- Node15&#45;&gt;Node16 -->
<g id="edge17" class="edge"><title>Node15&#45;&gt;Node16</title>
<path fill="none" stroke="midnightblue" d="M1123.53,-166.597C1134.7,-168.008 1146.36,-169.482 1157.78,-170.925"/>
<polygon fill="midnightblue" stroke="midnightblue" points="1157.37,-174.402 1167.73,-172.183 1158.25,-167.457 1157.37,-174.402"/>
</g>
<!-- Node17&#45;&gt;Node15 -->
<g id="edge20" class="edge"><title>Node17&#45;&gt;Node15</title>
<path fill="none" stroke="midnightblue" d="M941.014,-146.81C952.279,-147.931 963.87,-149.084 975.132,-150.204"/>
<polygon fill="midnightblue" stroke="midnightblue" points="975.066,-153.715 985.364,-151.222 975.759,-146.749 975.066,-153.715"/>
</g>
<!-- Node19&#45;&gt;Node5 -->
<g id="edge24" class="edge"><title>Node19&#45;&gt;Node5</title>
<path fill="none" stroke="midnightblue" d="M318.319,-265.589C337.06,-269.347 359.079,-273.763 380.098,-277.977"/>
<polygon fill="midnightblue" stroke="midnightblue" points="379.499,-281.427 389.992,-279.962 380.876,-274.564 379.499,-281.427"/>
</g>
<!-- Node22 -->
<g id="node22" class="node"><title>Node22</title>
<g id="a_node22"><a xlink:href="classMainWindow.html#aea2b70d7ccb204793c3121600f612c84" target="_top" xlink:title="Return the primary and secondary playlist item that is currently selected. ">
<polygon fill="white" stroke="black" points="585,-153 585,-183 734,-183 734,-153 585,-153"/>
<text text-anchor="start" x="593" y="-171" font-family="Helvetica,sans-Serif" font-size="10.00">MainWindow::selectedPrimary</text>
<text text-anchor="middle" x="659.5" y="-160" font-family="Helvetica,sans-Serif" font-size="10.00">PlaylistItem</text>
</a>
</g>
</g>
<!-- Node21&#45;&gt;Node22 -->
<g id="edge27" class="edge"><title>Node21&#45;&gt;Node22</title>
<path fill="none" stroke="midnightblue" d="M344.393,-163.143C410.062,-164.158 506.001,-165.642 574.55,-166.702"/>
<polygon fill="midnightblue" stroke="midnightblue" points="574.829,-170.206 584.882,-166.862 574.937,-163.207 574.829,-170.206"/>
</g>
<!-- Node23 -->
<g id="node23" class="node"><title>Node23</title>
<g id="a_node23"><a xlink:href="classPlaylistItem.html#a3d4d575a397a3725e62ab425dcf214a5" target="_top" xlink:title="PlaylistItem::displayObject">
<polygon fill="white" stroke="black" points="592.5,-114.5 592.5,-133.5 726.5,-133.5 726.5,-114.5 592.5,-114.5"/>
<text text-anchor="middle" x="659.5" y="-121.5" font-family="Helvetica,sans-Serif" font-size="10.00">PlaylistItem::displayObject</text>
</a>
</g>
</g>
<!-- Node21&#45;&gt;Node23 -->
<g id="edge28" class="edge"><title>Node21&#45;&gt;Node23</title>
<path fill="none" stroke="midnightblue" d="M344.393,-154.763C412.467,-148.096 513.069,-138.243 581.968,-131.495"/>
<polygon fill="midnightblue" stroke="midnightblue" points="582.708,-134.94 592.32,-130.482 582.026,-127.973 582.708,-134.94"/>
</g>
<!-- Node24 -->
<g id="node24" class="node"><title>Node24</title>
<g id="a_node24"><a xlink:href="classDisplayObject.html#a8f8f637b874a3e17128915cf414d6b60" target="_top" xlink:title="DisplayObject::frameRate">
<polygon fill="white" stroke="black" points="396,-240.5 396,-259.5 526,-259.5 526,-240.5 396,-240.5"/>
<text text-anchor="middle" x="461" y="-247.5" font-family="Helvetica,sans-Serif" font-size="10.00">DisplayObject::frameRate</text>
</a>
</g>
</g>
<!-- Node21&#45;&gt;Node24 -->
<g id="edge29" class="edge"><title>Node21&#45;&gt;Node24</title>
<path fill="none" stroke="midnightblue" d="M330.465,-177.116C336.977,-179.904 343.299,-183.174 349,-187 369.696,-200.889 363.978,-216.609 385,-230 389.049,-232.579 393.424,-234.828 397.955,-236.788"/>
<polygon fill="midnightblue" stroke="midnightblue" points="396.831,-240.106 407.421,-240.42 399.338,-233.57 396.831,-240.106"/>
</g>
<!-- Node25 -->
<g id="node25" class="node"><title>Node25</title>
<g id="a_node25"><a xlink:href="classDisplayObject.html#a800ba7adac185f51b23d5f0f1c5ff4ab" target="_top" xlink:title="DisplayObject::frameIndex\lLimits">
<polygon fill="white" stroke="black" points="394.5,-191 394.5,-221 527.5,-221 527.5,-191 394.5,-191"/>
<text text-anchor="start" x="402.5" y="-209" font-family="Helvetica,sans-Serif" font-size="10.00">DisplayObject::frameIndex</text>
<text text-anchor="middle" x="461" y="-198" font-family="Helvetica,sans-Serif" font-size="10.00">Limits</text>
</a>
</g>
</g>
<!-- Node21&#45;&gt;Node25 -->
<g id="edge30" class="edge"><title>Node21&#45;&gt;Node25</title>
<path fill="none" stroke="midnightblue" d="M335.185,-177.019C351.256,-180.751 368.615,-184.781 385.13,-188.616"/>
<polygon fill="midnightblue" stroke="midnightblue" points="384.752,-192.121 395.285,-190.974 386.336,-185.303 384.752,-192.121"/>
</g>
<!-- Node27 -->
<g id="node27" class="node"><title>Node27</title>
<g id="a_node27"><a xlink:href="classDisplayObject.html#aadedaec1d9a5ec4adbf8f33e0f802350" target="_top" xlink:title="DisplayObject::endFrame">
<polygon fill="white" stroke="black" points="595.5,-0.5 595.5,-19.5 723.5,-19.5 723.5,-0.5 595.5,-0.5"/>
<text text-anchor="middle" x="659.5" y="-7.5" font-family="Helvetica,sans-Serif" font-size="10.00">DisplayObject::endFrame</text>
</a>
</g>
</g>
<!-- Node21&#45;&gt;Node27 -->
<g id="edge32" class="edge"><title>Node21&#45;&gt;Node27</title>
<path fill="none" stroke="midnightblue" d="M284.04,-146.834C303.964,-125.52 343.348,-87.0702 385,-67 448.685,-36.3131 528.506,-22.0924 585.447,-15.5352"/>
<polygon fill="midnightblue" stroke="midnightblue" points="585.89,-19.0076 595.447,-14.435 585.125,-12.0496 585.89,-19.0076"/>
</g>
<!-- Node28 -->
<g id="node28" class="node"><title>Node28</title>
<g id="a_node28"><a xlink:href="classMainWindow.html#a904474dcf6f3da3e95bba2380192129a" target="_top" xlink:title="set current frame for playback ">
<polygon fill="white" stroke="black" points="385,-76.5 385,-95.5 537,-95.5 537,-76.5 385,-76.5"/>
<text text-anchor="middle" x="461" y="-83.5" font-family="Helvetica,sans-Serif" font-size="10.00">MainWindow::setCurrentFrame</text>
</a>
</g>
</g>
<!-- Node21&#45;&gt;Node28 -->
<g id="edge33" class="edge"><title>Node21&#45;&gt;Node28</title>
<path fill="none" stroke="midnightblue" d="M301.186,-146.884C324.008,-135.932 356.074,-121.153 385,-110 395.45,-105.971 406.892,-102.063 417.621,-98.6108"/>
<polygon fill="midnightblue" stroke="midnightblue" points="418.743,-101.927 427.225,-95.5784 416.636,-95.2517 418.743,-101.927"/>
</g>
<!-- Node26 -->
<g id="node26" class="node"><title>Node26</title>
<g id="a_node26"><a xlink:href="classDisplayObject.html#a587ff96ee994001247bdb74df1001309" target="_top" xlink:title="DisplayObject::numFrames">
<polygon fill="white" stroke="black" points="591.5,-202.5 591.5,-221.5 727.5,-221.5 727.5,-202.5 591.5,-202.5"/>
<text text-anchor="middle" x="659.5" y="-209.5" font-family="Helvetica,sans-Serif" font-size="10.00">DisplayObject::numFrames</text>
</a>
</g>
</g>
<!-- Node25&#45;&gt;Node26 -->
<g id="edge31" class="edge"><title>Node25&#45;&gt;Node26</title>
<path fill="none" stroke="midnightblue" d="M527.705,-208.006C544.772,-208.527 563.317,-209.094 580.933,-209.632"/>
<polygon fill="midnightblue" stroke="midnightblue" points="581.077,-213.137 591.179,-209.944 581.291,-206.141 581.077,-213.137"/>
</g>
<!-- Node28&#45;&gt;Node22 -->
<g id="edge34" class="edge"><title>Node28&#45;&gt;Node22</title>
<path fill="none" stroke="midnightblue" d="M478.093,-95.5007C499.291,-107.723 537.987,-129.038 573,-143 578.939,-145.368 585.19,-147.624 591.497,-149.741"/>
<polygon fill="midnightblue" stroke="midnightblue" points="590.825,-153.202 601.417,-152.95 592.98,-146.542 590.825,-153.202"/>
</g>
<!-- Node28&#45;&gt;Node23 -->
<g id="edge35" class="edge"><title>Node28&#45;&gt;Node23</title>
<path fill="none" stroke="midnightblue" d="M511.332,-95.54C537.961,-100.69 571.027,-107.084 599.066,-112.506"/>
<polygon fill="midnightblue" stroke="midnightblue" points="598.665,-115.994 609.148,-114.456 599.995,-109.121 598.665,-115.994"/>
</g>
<!-- Node28&#45;&gt;Node27 -->
<g id="edge36" class="edge"><title>Node28&#45;&gt;Node27</title>
<path fill="none" stroke="midnightblue" d="M477.596,-76.3589C498.565,-63.7842 537.343,-41.8759 573,-29 580.24,-26.3855 587.961,-24.062 595.688,-22.0167"/>
<polygon fill="midnightblue" stroke="midnightblue" points="596.594,-25.398 605.444,-19.5737 594.894,-18.6076 596.594,-25.398"/>
</g>
<!-- Node29 -->
<g id="node29" class="node"><title>Node29</title>
<g id="a_node29"><a xlink:href="classDisplayObject.html#aaaa354081106c97409a4bc2bbc2059fe" target="_top" xlink:title="DisplayObject::startFrame">
<polygon fill="white" stroke="black" points="594,-38.5 594,-57.5 725,-57.5 725,-38.5 594,-38.5"/>
<text text-anchor="middle" x="659.5" y="-45.5" font-family="Helvetica,sans-Serif" font-size="10.00">DisplayObject::startFrame</text>
</a>
</g>
</g>
<!-- Node28&#45;&gt;Node29 -->
<g id="edge37" class="edge"><title>Node28&#45;&gt;Node29</title>
<path fill="none" stroke="midnightblue" d="M511.332,-76.46C537.961,-71.3104 571.027,-64.916 599.066,-59.4935"/>
<polygon fill="midnightblue" stroke="midnightblue" points="599.995,-62.879 609.148,-57.5439 598.665,-56.0063 599.995,-62.879"/>
</g>
<!-- Node30 -->
<g id="node30" class="node"><title>Node30</title>
<g id="a_node30"><a xlink:href="classMainWindow.html#a6ad58489b43d2fca734a3dfa7b69832e" target="_top" xlink:title="update the frames slider and frame selection box without toggeling any signals ">
<polygon fill="white" stroke="black" points="573,-76.5 573,-95.5 746,-95.5 746,-76.5 573,-76.5"/>
<text text-anchor="middle" x="659.5" y="-83.5" font-family="Helvetica,sans-Serif" font-size="10.00">MainWindow::updateFrameControls</text>
</a>
</g>
</g>
<!-- Node28&#45;&gt;Node30 -->
<g id="edge38" class="edge"><title>Node28&#45;&gt;Node30</title>
<path fill="none" stroke="midnightblue" d="M537.129,-79.4189C545.54,-79.2939 554.19,-79.2383 562.813,-79.252"/>
<polygon fill="midnightblue" stroke="midnightblue" points="562.892,-82.7524 572.908,-79.3 562.925,-75.7524 562.892,-82.7524"/>
</g>
<!-- Node30&#45;&gt;Node28 -->
<g id="edge39" class="edge"><title>Node30&#45;&gt;Node28</title>
<path fill="none" stroke="midnightblue" d="M572.908,-92.7C564.439,-92.7673 555.842,-92.7667 547.376,-92.6982"/>
<polygon fill="midnightblue" stroke="midnightblue" points="547.169,-89.1957 537.129,-92.5811 547.089,-96.1953 547.169,-89.1957"/>
</g>
</g>
</svg>
