<?xml version="1.0" encoding="UTF-8" standalone="no"?>
<!DOCTYPE svg PUBLIC "-//W3C//DTD SVG 1.1//EN"
 "http://www.w3.org/Graphics/SVG/1.1/DTD/svg11.dtd">
<!-- Generated by graphviz version 2.38.0 (20140413.2041)
 -->
<!-- Title: de265File::setDe265ChromaMode Pages: 1 -->
<svg width="1048pt" height="72pt"
 viewBox="0.00 0.00 1048.00 71.50" xmlns="http://www.w3.org/2000/svg" xmlns:xlink="http://www.w3.org/1999/xlink">
<g id="graph0" class="graph" transform="scale(1 1) rotate(0) translate(4 67.5)">
<title>de265File::setDe265ChromaMode</title>
<polygon fill="white" stroke="none" points="-4,4 -4,-67.5 1044,-67.5 1044,4 -4,4"/>
<!-- Node1 -->
<g id="node1" class="node"><title>Node1</title>
<polygon fill="#bfbfbf" stroke="black" points="0,-25 0,-44 165,-44 165,-25 0,-25"/>
<text text-anchor="middle" x="82.5" y="-32" font-family="Helvetica,sans-Serif" font-size="10.00">de265File::setDe265ChromaMode</text>
</g>
<!-- Node2 -->
<g id="node2" class="node"><title>Node2</title>
<g id="a_node2"><a xlink:href="classde265File.html#a3c517644cd5710d54289b2cdba99babc" target="_top" xlink:title="de265File::copyImgTo444Buffer">
<polygon fill="white" stroke="black" points="201,-25 201,-44 356,-44 356,-25 201,-25"/>
<text text-anchor="middle" x="278.5" y="-32" font-family="Helvetica,sans-Serif" font-size="10.00">de265File::copyImgTo444Buffer</text>
</a>
</g>
</g>
<!-- Node1&#45;&gt;Node2 -->
<g id="edge1" class="edge"><title>Node1&#45;&gt;Node2</title>
<path fill="none" stroke="midnightblue" d="M175.229,-34.5C183.798,-34.5 192.422,-34.5 200.833,-34.5"/>
<polygon fill="midnightblue" stroke="midnightblue" points="175.211,-31.0001 165.211,-34.5 175.211,-38.0001 175.211,-31.0001"/>
</g>
<!-- Node3 -->
<g id="node3" class="node"><title>Node3</title>
<g id="a_node3"><a xlink:href="classde265File.html#af2a66d6d47d74d992f61da5048d90538" target="_top" xlink:title="de265File::decodeOnePicture">
<polygon fill="white" stroke="black" points="392,-25 392,-44 537,-44 537,-25 392,-25"/>
<text text-anchor="middle" x="464.5" y="-32" font-family="Helvetica,sans-Serif" font-size="10.00">de265File::decodeOnePicture</text>
</a>
</g>
</g>
<!-- Node2&#45;&gt;Node3 -->
<g id="edge2" class="edge"><title>Node2&#45;&gt;Node3</title>
<path fill="none" stroke="midnightblue" d="M366.249,-34.5C374.848,-34.5 383.508,-34.5 391.929,-34.5"/>
<polygon fill="midnightblue" stroke="midnightblue" points="366.2,-31.0001 356.2,-34.5 366.2,-38.0001 366.2,-31.0001"/>
</g>
<!-- Node4 -->
<g id="node4" class="node"><title>Node4</title>
<g id="a_node4"><a xlink:href="classde265File.html#afc2f00a9676e0b5c3fdd821619bda482" target="_top" xlink:title="de265File::de265File">
<polygon fill="white" stroke="black" points="769.5,-44 769.5,-63 876.5,-63 876.5,-44 769.5,-44"/>
<text text-anchor="middle" x="823" y="-51" font-family="Helvetica,sans-Serif" font-size="10.00">de265File::de265File</text>
</a>
</g>
</g>
<!-- Node3&#45;&gt;Node4 -->
<g id="edge3" class="edge"><title>Node3&#45;&gt;Node4</title>
<path fill="none" stroke="midnightblue" d="M547.511,-38.8709C615.813,-42.5111 711.038,-47.5862 769.495,-50.7017"/>
<polygon fill="midnightblue" stroke="midnightblue" points="547.386,-35.3593 537.214,-38.3221 547.014,-42.3494 547.386,-35.3593"/>
</g>
<!-- Node5 -->
<g id="node5" class="node"><title>Node5</title>
<g id="a_node5"><a xlink:href="classde265File.html#a948bfcc1b2c4ad6f0a3aa54b99f9553f" target="_top" xlink:title="de265File::backgroundDecoder">
<polygon fill="white" stroke="black" points="573,-6 573,-25 725,-25 725,-6 573,-6"/>
<text text-anchor="middle" x="649" y="-13" font-family="Helvetica,sans-Serif" font-size="10.00">de265File::backgroundDecoder</text>
</a>
</g>
</g>
<!-- Node3&#45;&gt;Node5 -->
<g id="edge4" class="edge"><title>Node3&#45;&gt;Node5</title>
<path fill="none" stroke="midnightblue" d="M547.138,-26.0007C555.745,-25.1046 564.468,-24.1965 572.995,-23.3088"/>
<polygon fill="midnightblue" stroke="midnightblue" points="546.689,-22.5285 537.105,-27.0452 547.414,-29.4908 546.689,-22.5285"/>
</g>
<!-- Node5&#45;&gt;Node4 -->
<g id="edge5" class="edge"><title>Node5&#45;&gt;Node4</title>
<path fill="none" stroke="midnightblue" d="M703.196,-27.2526C727.517,-32.6258 755.955,-38.9086 778.909,-43.9799"/>
<polygon fill="midnightblue" stroke="midnightblue" points="703.922,-23.8288 693.403,-25.089 702.412,-30.664 703.922,-23.8288"/>
</g>
<!-- Node6 -->
<g id="node6" class="node"><title>Node6</title>
<g id="a_node6"><a xlink:href="classde265File.html#a4778a7853c318063a9efd5f0990e79bf" target="_top" xlink:title="de265File::getOneFrame">
<polygon fill="white" stroke="black" points="761,-6 761,-25 885,-25 885,-6 761,-6"/>
<text text-anchor="middle" x="823" y="-13" font-family="Helvetica,sans-Serif" font-size="10.00">de265File::getOneFrame</text>
</a>
</g>
</g>
<!-- Node5&#45;&gt;Node6 -->
<g id="edge6" class="edge"><title>Node5&#45;&gt;Node6</title>
<path fill="none" stroke="midnightblue" d="M735.305,-15.5C743.942,-15.5 752.589,-15.5 760.896,-15.5"/>
<polygon fill="midnightblue" stroke="midnightblue" points="735.192,-12.0001 725.191,-15.5 735.191,-19.0001 735.192,-12.0001"/>
</g>
<!-- Node7 -->
<g id="node7" class="node"><title>Node7</title>
<g id="a_node7"><a xlink:href="classde265File.html#af878636f68cd2ee3a4dfc6b3b0169676" target="_top" xlink:title="de265File::loadStatistic\lToCache">
<polygon fill="white" stroke="black" points="921,-0.5 921,-30.5 1040,-30.5 1040,-0.5 921,-0.5"/>
<text text-anchor="start" x="929" y="-18.5" font-family="Helvetica,sans-Serif" font-size="10.00">de265File::loadStatistic</text>
<text text-anchor="middle" x="980.5" y="-7.5" font-family="Helvetica,sans-Serif" font-size="10.00">ToCache</text>
</a>
</g>
</g>
<!-- Node6&#45;&gt;Node7 -->
<g id="edge7" class="edge"><title>Node6&#45;&gt;Node7</title>
<path fill="none" stroke="midnightblue" d="M895.093,-15.5C903.747,-15.5 912.511,-15.5 920.954,-15.5"/>
<polygon fill="midnightblue" stroke="midnightblue" points="895.011,-12.0001 885.011,-15.5 895.011,-19.0001 895.011,-12.0001"/>
</g>
</g>
</svg>
