<?xml version="1.0" encoding="UTF-8" standalone="no"?>
<!DOCTYPE svg PUBLIC "-//W3C//DTD SVG 1.1//EN"
 "http://www.w3.org/Graphics/SVG/1.1/DTD/svg11.dtd">
<!-- Generated by graphviz version 2.38.0 (20140413.2041)
 -->
<!-- Title: YUVFile::isFormatValid Pages: 1 -->
<svg width="495pt" height="104pt"
 viewBox="0.00 0.00 495.00 104.00" xmlns="http://www.w3.org/2000/svg" xmlns:xlink="http://www.w3.org/1999/xlink">
<g id="graph0" class="graph" transform="scale(1 1) rotate(0) translate(4 100)">
<title>YUVFile::isFormatValid</title>
<polygon fill="white" stroke="none" points="-4,4 -4,-100 491,-100 491,4 -4,4"/>
<!-- Node1 -->
<g id="node1" class="node"><title>Node1</title>
<polygon fill="#bfbfbf" stroke="black" points="0,-57.5 0,-76.5 119,-76.5 119,-57.5 0,-57.5"/>
<text text-anchor="middle" x="59.5" y="-64.5" font-family="Helvetica,sans-Serif" font-size="10.00">YUVFile::isFormatValid</text>
</g>
<!-- Node2 -->
<g id="node2" class="node"><title>Node2</title>
<g id="a_node2"><a xlink:href="classYUVSource.html#a78500be60fb04caee953447fa2a497e7" target="_top" xlink:title="YUVSource::isFormatValid">
<polygon fill="white" stroke="black" points="158.5,-76.5 158.5,-95.5 292.5,-95.5 292.5,-76.5 158.5,-76.5"/>
<text text-anchor="middle" x="225.5" y="-83.5" font-family="Helvetica,sans-Serif" font-size="10.00">YUVSource::isFormatValid</text>
</a>
</g>
</g>
<!-- Node1&#45;&gt;Node2 -->
<g id="edge1" class="edge"><title>Node1&#45;&gt;Node2</title>
<path fill="none" stroke="midnightblue" d="M119.245,-73.8058C128.658,-74.8964 138.518,-76.0386 148.268,-77.1682"/>
<polygon fill="midnightblue" stroke="midnightblue" points="148.029,-80.6639 158.365,-78.3381 148.835,-73.7104 148.029,-80.6639"/>
</g>
<!-- Node4 -->
<g id="node4" class="node"><title>Node4</title>
<g id="a_node4"><a xlink:href="classYUVSource.html#a1fc5a320feef3ca2e3d90c2606276f17" target="_top" xlink:title="YUVSource::bytesPerFrame">
<polygon fill="white" stroke="black" points="155,-38.5 155,-57.5 296,-57.5 296,-38.5 155,-38.5"/>
<text text-anchor="middle" x="225.5" y="-45.5" font-family="Helvetica,sans-Serif" font-size="10.00">YUVSource::bytesPerFrame</text>
</a>
</g>
</g>
<!-- Node1&#45;&gt;Node4 -->
<g id="edge3" class="edge"><title>Node1&#45;&gt;Node4</title>
<path fill="none" stroke="midnightblue" d="M119.245,-60.1942C127.568,-59.2299 136.24,-58.2252 144.877,-57.2246"/>
<polygon fill="midnightblue" stroke="midnightblue" points="145.446,-60.6822 154.977,-56.0545 144.641,-53.7287 145.446,-60.6822"/>
</g>
<!-- Node3 -->
<g id="node3" class="node"><title>Node3</title>
<g id="a_node3"><a xlink:href="classYUVSource.html#afaf713d38c871df33f6e28e9d589c86c" target="_top" xlink:title="YUVSource::getNumberFrames">
<polygon fill="white" stroke="black" points="332,-76.5 332,-95.5 487,-95.5 487,-76.5 332,-76.5"/>
<text text-anchor="middle" x="409.5" y="-83.5" font-family="Helvetica,sans-Serif" font-size="10.00">YUVSource::getNumberFrames</text>
</a>
</g>
</g>
<!-- Node2&#45;&gt;Node3 -->
<g id="edge2" class="edge"><title>Node2&#45;&gt;Node3</title>
<path fill="none" stroke="midnightblue" d="M292.721,-86C302.15,-86 311.964,-86 321.713,-86"/>
<polygon fill="midnightblue" stroke="midnightblue" points="321.83,-89.5001 331.83,-86 321.83,-82.5001 321.83,-89.5001"/>
</g>
<!-- Node5 -->
<g id="node5" class="node"><title>Node5</title>
<g id="a_node5"><a xlink:href="classYUVSource.html#a7e554f2c626688704099e00cc4ece029" target="_top" xlink:title="YUVSource::pixelFormatList">
<polygon fill="white" stroke="black" points="339,-38.5 339,-57.5 480,-57.5 480,-38.5 339,-38.5"/>
<text text-anchor="middle" x="409.5" y="-45.5" font-family="Helvetica,sans-Serif" font-size="10.00">YUVSource::pixelFormatList</text>
</a>
</g>
</g>
<!-- Node4&#45;&gt;Node5 -->
<g id="edge4" class="edge"><title>Node4&#45;&gt;Node5</title>
<path fill="none" stroke="midnightblue" d="M296.085,-48C306.732,-48 317.793,-48 328.64,-48"/>
<polygon fill="midnightblue" stroke="midnightblue" points="328.953,-51.5001 338.953,-48 328.953,-44.5001 328.953,-51.5001"/>
</g>
<!-- Node6 -->
<g id="node6" class="node"><title>Node6</title>
<g id="a_node6"><a xlink:href="classYUVSource.html#a592ce352c789f4f5789b11e052b58a33" target="_top" xlink:title="YUVSource::pixelFormat">
<polygon fill="white" stroke="black" points="347,-0.5 347,-19.5 472,-19.5 472,-0.5 347,-0.5"/>
<text text-anchor="middle" x="409.5" y="-7.5" font-family="Helvetica,sans-Serif" font-size="10.00">YUVSource::pixelFormat</text>
</a>
</g>
</g>
<!-- Node4&#45;&gt;Node6 -->
<g id="edge5" class="edge"><title>Node4&#45;&gt;Node6</title>
<path fill="none" stroke="midnightblue" d="M272.426,-38.411C296.876,-33.3061 327.133,-26.9887 352.903,-21.6082"/>
<polygon fill="midnightblue" stroke="midnightblue" points="353.83,-24.9901 362.904,-19.5201 352.4,-18.1378 353.83,-24.9901"/>
</g>
</g>
</svg>
