<?xml version="1.0" encoding="UTF-8" standalone="no"?>
<!DOCTYPE svg PUBLIC "-//W3C//DTD SVG 1.1//EN"
 "http://www.w3.org/Graphics/SVG/1.1/DTD/svg11.dtd">
<!-- Generated by graphviz version 2.38.0 (20140413.2041)
 -->
<!-- Title: PListSerializer::serializeMap Pages: 1 -->
<svg width="1006pt" height="94pt"
 viewBox="0.00 0.00 1006.00 93.50" xmlns="http://www.w3.org/2000/svg" xmlns:xlink="http://www.w3.org/1999/xlink">
<g id="graph0" class="graph" transform="scale(1 1) rotate(0) translate(4 89.5)">
<title>PListSerializer::serializeMap</title>
<polygon fill="white" stroke="none" points="-4,4 -4,-89.5 1002,-89.5 1002,4 -4,4"/>
<!-- Node1 -->
<g id="node1" class="node"><title>Node1</title>
<polygon fill="#bfbfbf" stroke="black" points="0,-60.5 0,-79.5 140,-79.5 140,-60.5 0,-60.5"/>
<text text-anchor="middle" x="70" y="-67.5" font-family="Helvetica,sans-Serif" font-size="10.00">PListSerializer::serializeMap</text>
</g>
<!-- Node2 -->
<g id="node2" class="node"><title>Node2</title>
<g id="a_node2"><a xlink:href="classPListSerializer.html#a0167db85d915aea8d37b3e76b444fd31" target="_top" xlink:title="PListSerializer::serialize\lElement">
<polygon fill="white" stroke="black" points="176,-55 176,-85 298,-85 298,-55 176,-55"/>
<text text-anchor="start" x="184" y="-73" font-family="Helvetica,sans-Serif" font-size="10.00">PListSerializer::serialize</text>
<text text-anchor="middle" x="237" y="-62" font-family="Helvetica,sans-Serif" font-size="10.00">Element</text>
</a>
</g>
</g>
<!-- Node1&#45;&gt;Node2 -->
<g id="edge1" class="edge"><title>Node1&#45;&gt;Node2</title>
<path fill="none" stroke="midnightblue" d="M150.146,-63.255C158.813,-63.2293 167.528,-63.3031 175.91,-63.4764"/>
<polygon fill="midnightblue" stroke="midnightblue" points="149.992,-59.7559 140.019,-63.3307 150.045,-66.7557 149.992,-59.7559"/>
</g>
<!-- Node2&#45;&gt;Node1 -->
<g id="edge4" class="edge"><title>Node2&#45;&gt;Node1</title>
<path fill="none" stroke="midnightblue" d="M165.66,-76.6844C157.165,-76.7767 148.494,-76.7716 140.019,-76.6693"/>
<polygon fill="midnightblue" stroke="midnightblue" points="165.966,-80.1801 175.91,-76.5236 165.856,-73.181 165.966,-80.1801"/>
</g>
<!-- Node3 -->
<g id="node3" class="node"><title>Node3</title>
<g id="a_node3"><a xlink:href="classPListSerializer.html#a3931479543c53e915f00161c3ddf1500" target="_top" xlink:title="PListSerializer::serializeList">
<polygon fill="white" stroke="black" points="334,-60.5 334,-79.5 471,-79.5 471,-60.5 334,-60.5"/>
<text text-anchor="middle" x="402.5" y="-67.5" font-family="Helvetica,sans-Serif" font-size="10.00">PListSerializer::serializeList</text>
</a>
</g>
</g>
<!-- Node2&#45;&gt;Node3 -->
<g id="edge2" class="edge"><title>Node2&#45;&gt;Node3</title>
<path fill="none" stroke="midnightblue" d="M308.564,-63.3065C316.968,-63.2211 325.533,-63.2325 333.895,-63.3406"/>
<polygon fill="midnightblue" stroke="midnightblue" points="308.363,-59.809 298.417,-63.4586 308.468,-66.8082 308.363,-59.809"/>
</g>
<!-- Node4 -->
<g id="node4" class="node"><title>Node4</title>
<g id="a_node4"><a xlink:href="classPListSerializer.html#abfd3f0538d84ac3c6f18b9aa3846a04c" target="_top" xlink:title="PListSerializer::toPList">
<polygon fill="white" stroke="black" points="344.5,-22.5 344.5,-41.5 460.5,-41.5 460.5,-22.5 344.5,-22.5"/>
<text text-anchor="middle" x="402.5" y="-29.5" font-family="Helvetica,sans-Serif" font-size="10.00">PListSerializer::toPList</text>
</a>
</g>
</g>
<!-- Node2&#45;&gt;Node4 -->
<g id="edge5" class="edge"><title>Node2&#45;&gt;Node4</title>
<path fill="none" stroke="midnightblue" d="M308.174,-53.6905C325.912,-49.5678 344.393,-45.2725 360.184,-41.6024"/>
<polygon fill="midnightblue" stroke="midnightblue" points="307.365,-50.2851 298.417,-55.9582 308.95,-57.1034 307.365,-50.2851"/>
</g>
<!-- Node3&#45;&gt;Node2 -->
<g id="edge3" class="edge"><title>Node3&#45;&gt;Node2</title>
<path fill="none" stroke="midnightblue" d="M323.619,-76.7433C315.152,-76.7727 306.63,-76.7054 298.417,-76.5414"/>
<polygon fill="midnightblue" stroke="midnightblue" points="323.924,-80.241 333.895,-76.6594 323.866,-73.2412 323.924,-80.241"/>
</g>
<!-- Node5 -->
<g id="node5" class="node"><title>Node5</title>
<g id="a_node5"><a xlink:href="classMainWindow.html#a88624964fbb9d67df9149b29fab6f225" target="_top" xlink:title="MainWindow::savePlaylist\lToFile">
<polygon fill="white" stroke="black" points="507,-17 507,-47 639,-47 639,-17 507,-17"/>
<text text-anchor="start" x="515" y="-35" font-family="Helvetica,sans-Serif" font-size="10.00">MainWindow::savePlaylist</text>
<text text-anchor="middle" x="573" y="-24" font-family="Helvetica,sans-Serif" font-size="10.00">ToFile</text>
</a>
</g>
</g>
<!-- Node4&#45;&gt;Node5 -->
<g id="edge6" class="edge"><title>Node4&#45;&gt;Node5</title>
<path fill="none" stroke="midnightblue" d="M470.84,-32C482.72,-32 495.067,-32 506.884,-32"/>
<polygon fill="midnightblue" stroke="midnightblue" points="470.546,-28.5001 460.546,-32 470.546,-35.5001 470.546,-28.5001"/>
</g>
<!-- Node6 -->
<g id="node6" class="node"><title>Node6</title>
<g id="a_node6"><a xlink:href="classMainWindow.html#a9df7443ce5f907903438bb6a9abe9a33" target="_top" xlink:title="MainWindow::createMenusAnd\lActions">
<polygon fill="white" stroke="black" points="675,-39 675,-69 827,-69 827,-39 675,-39"/>
<text text-anchor="start" x="683" y="-57" font-family="Helvetica,sans-Serif" font-size="10.00">MainWindow::createMenusAnd</text>
<text text-anchor="middle" x="751" y="-46" font-family="Helvetica,sans-Serif" font-size="10.00">Actions</text>
</a>
</g>
</g>
<!-- Node5&#45;&gt;Node6 -->
<g id="edge7" class="edge"><title>Node5&#45;&gt;Node6</title>
<path fill="none" stroke="midnightblue" d="M648.985,-41.3731C657.543,-42.4428 666.268,-43.5336 674.829,-44.6036"/>
<polygon fill="midnightblue" stroke="midnightblue" points="649.393,-37.8969 639.036,-40.1295 648.524,-44.8429 649.393,-37.8969"/>
</g>
<!-- Node8 -->
<g id="node8" class="node"><title>Node8</title>
<g id="a_node8"><a xlink:href="classMainWindow.html#a4e20a4a065fbb0e4d3532a45a0a91425" target="_top" xlink:title="MainWindow::closeEvent">
<polygon fill="white" stroke="black" points="687,-0.5 687,-19.5 815,-19.5 815,-0.5 687,-0.5"/>
<text text-anchor="middle" x="751" y="-7.5" font-family="Helvetica,sans-Serif" font-size="10.00">MainWindow::closeEvent</text>
</a>
</g>
</g>
<!-- Node5&#45;&gt;Node8 -->
<g id="edge9" class="edge"><title>Node5&#45;&gt;Node8</title>
<path fill="none" stroke="midnightblue" d="M649.069,-22.6163C661.703,-21.0371 674.7,-19.4125 686.988,-17.8765"/>
<polygon fill="midnightblue" stroke="midnightblue" points="648.524,-19.1571 639.036,-23.8705 649.393,-26.1031 648.524,-19.1571"/>
</g>
<!-- Node7 -->
<g id="node7" class="node"><title>Node7</title>
<g id="a_node7"><a xlink:href="classMainWindow.html#a8b244be8b7b7db1b08de2a2acb9409db" target="_top" xlink:title="MainWindow::MainWindow">
<polygon fill="white" stroke="black" points="863,-44.5 863,-63.5 998,-63.5 998,-44.5 863,-44.5"/>
<text text-anchor="middle" x="930.5" y="-51.5" font-family="Helvetica,sans-Serif" font-size="10.00">MainWindow::MainWindow</text>
</a>
</g>
</g>
<!-- Node6&#45;&gt;Node7 -->
<g id="edge8" class="edge"><title>Node6&#45;&gt;Node7</title>
<path fill="none" stroke="midnightblue" d="M837.138,-54C845.793,-54 854.494,-54 862.911,-54"/>
<polygon fill="midnightblue" stroke="midnightblue" points="837.019,-50.5001 827.019,-54 837.019,-57.5001 837.019,-50.5001"/>
</g>
</g>
</svg>
