<?xml version="1.0" encoding="UTF-8" standalone="no"?>
<!DOCTYPE svg PUBLIC "-//W3C//DTD SVG 1.1//EN"
 "http://www.w3.org/Graphics/SVG/1.1/DTD/svg11.dtd">
<!-- Generated by graphviz version 2.38.0 (20140413.2041)
 -->
<!-- Title: YUVFile Pages: 1 -->
<svg width="670pt" height="262pt"
 viewBox="0.00 0.00 670.00 262.00" xmlns="http://www.w3.org/2000/svg" xmlns:xlink="http://www.w3.org/1999/xlink">
<g id="graph0" class="graph" transform="scale(1 1) rotate(0) translate(4 258)">
<title>YUVFile</title>
<polygon fill="white" stroke="none" points="-4,4 -4,-258 666,-258 666,4 -4,4"/>
<!-- Node1 -->
<g id="node1" class="node"><title>Node1</title>
<polygon fill="#bfbfbf" stroke="black" points="378,-0.5 378,-19.5 431,-19.5 431,-0.5 378,-0.5"/>
<text text-anchor="middle" x="404.5" y="-7.5" font-family="Helvetica,sans-Serif" font-size="10.00">YUVFile</text>
</g>
<!-- Node2 -->
<g id="node2" class="node"><title>Node2</title>
<g id="a_node2"><a xlink:href="classYUVSource.html" target="_top" xlink:title="YUVSource">
<polygon fill="white" stroke="black" points="261.5,-89.5 261.5,-108.5 329.5,-108.5 329.5,-89.5 261.5,-89.5"/>
<text text-anchor="middle" x="295.5" y="-96.5" font-family="Helvetica,sans-Serif" font-size="10.00">YUVSource</text>
</a>
</g>
</g>
<!-- Node2&#45;&gt;Node1 -->
<g id="edge1" class="edge"><title>Node2&#45;&gt;Node1</title>
<path fill="none" stroke="midnightblue" d="M311.874,-82.3786C325.312,-69.8506 345.062,-52.0943 363.5,-38 372.167,-31.3747 382.417,-24.6247 390.5,-19.531"/>
<polygon fill="midnightblue" stroke="midnightblue" points="309.272,-80.0209 304.391,-89.424 314.071,-85.1175 309.272,-80.0209"/>
</g>
<!-- Node3 -->
<g id="node3" class="node"><title>Node3</title>
<g id="a_node3"><a xlink:href="classQObject.html" target="_top" xlink:title="QObject">
<polygon fill="white" stroke="black" points="0,-167.5 0,-186.5 53,-186.5 53,-167.5 0,-167.5"/>
<text text-anchor="middle" x="26.5" y="-174.5" font-family="Helvetica,sans-Serif" font-size="10.00">QObject</text>
</a>
</g>
</g>
<!-- Node3&#45;&gt;Node2 -->
<g id="edge2" class="edge"><title>Node3&#45;&gt;Node2</title>
<path fill="none" stroke="midnightblue" d="M47.8603,-161.931C65.9326,-150.703 92.9044,-135.493 118.5,-127 166.59,-111.043 225.198,-104.46 261.434,-101.783"/>
<polygon fill="midnightblue" stroke="midnightblue" points="45.8405,-159.067 39.2754,-167.383 49.5933,-164.977 45.8405,-159.067"/>
</g>
<!-- Node4 -->
<g id="node4" class="node"><title>Node4</title>
<g id="a_node4"><a xlink:title="STL class. ">
<polygon fill="white" stroke="#bfbfbf" points="71.5,-167.5 71.5,-186.5 163.5,-186.5 163.5,-167.5 71.5,-167.5"/>
<text text-anchor="middle" x="117.5" y="-174.5" font-family="Helvetica,sans-Serif" font-size="10.00">std::map&lt; K, T &gt;</text>
</a>
</g>
</g>
<!-- Node4&#45;&gt;Node2 -->
<g id="edge3" class="edge"><title>Node4&#45;&gt;Node2</title>
<path fill="none" stroke="#9a32cd" stroke-dasharray="5,2" d="M119.407,-157.025C121.46,-146.646 125.711,-134.426 134.5,-127 153.173,-111.224 219.782,-104.45 261.248,-101.709"/>
<polygon fill="#9a32cd" stroke="#9a32cd" points="115.896,-156.853 117.931,-167.251 122.824,-157.853 115.896,-156.853"/>
<text text-anchor="middle" x="175" y="-135.5" font-family="Helvetica,sans-Serif" font-size="10.00"> g_pixelFormatList</text>
</g>
<!-- Node5 -->
<g id="node5" class="node"><title>Node5</title>
<polygon fill="white" stroke="#bfbfbf" points="79,-234.5 79,-253.5 108,-253.5 108,-234.5 79,-234.5"/>
<text text-anchor="middle" x="93.5" y="-241.5" font-family="Helvetica,sans-Serif" font-size="10.00">K</text>
</g>
<!-- Node5&#45;&gt;Node4 -->
<g id="edge4" class="edge"><title>Node5&#45;&gt;Node4</title>
<path fill="none" stroke="#9a32cd" stroke-dasharray="5,2" d="M91.527,-224.005C91.5219,-217.774 92.2271,-210.931 94.5,-205 97.1441,-198.1 102.363,-191.736 107.162,-186.922"/>
<polygon fill="#9a32cd" stroke="#9a32cd" points="88.0466,-224.448 92.1178,-234.229 95.035,-224.044 88.0466,-224.448"/>
<text text-anchor="middle" x="107" y="-208" font-family="Helvetica,sans-Serif" font-size="10.00"> keys</text>
</g>
<!-- Node6 -->
<g id="node6" class="node"><title>Node6</title>
<polygon fill="white" stroke="#bfbfbf" points="127,-234.5 127,-253.5 156,-253.5 156,-234.5 127,-234.5"/>
<text text-anchor="middle" x="141.5" y="-241.5" font-family="Helvetica,sans-Serif" font-size="10.00">T</text>
</g>
<!-- Node6&#45;&gt;Node4 -->
<g id="edge5" class="edge"><title>Node6&#45;&gt;Node4</title>
<path fill="none" stroke="#9a32cd" stroke-dasharray="5,2" d="M134.776,-224.79C130.167,-212.308 124.262,-196.314 120.685,-186.627"/>
<polygon fill="#9a32cd" stroke="#9a32cd" points="131.516,-226.065 138.263,-234.234 138.083,-223.641 131.516,-226.065"/>
<text text-anchor="middle" x="153" y="-208" font-family="Helvetica,sans-Serif" font-size="10.00"> elements</text>
</g>
<!-- Node7 -->
<g id="node7" class="node"><title>Node7</title>
<polygon fill="white" stroke="#bfbfbf" points="190,-167.5 190,-186.5 235,-186.5 235,-167.5 190,-167.5"/>
<text text-anchor="middle" x="212.5" y="-174.5" font-family="Helvetica,sans-Serif" font-size="10.00">double</text>
</g>
<!-- Node7&#45;&gt;Node2 -->
<g id="edge6" class="edge"><title>Node7&#45;&gt;Node2</title>
<path fill="none" stroke="#9a32cd" stroke-dasharray="5,2" d="M216.006,-157.381C218.74,-147.306 223.471,-135.268 231.5,-127 239.649,-118.608 250.811,-112.699 261.533,-108.597"/>
<polygon fill="#9a32cd" stroke="#9a32cd" points="212.562,-156.745 213.763,-167.272 219.388,-158.293 212.562,-156.745"/>
<text text-anchor="middle" x="261.5" y="-135.5" font-family="Helvetica,sans-Serif" font-size="10.00"> p_frameRate</text>
</g>
<!-- Node8 -->
<g id="node8" class="node"><title>Node8</title>
<polygon fill="white" stroke="#bfbfbf" points="261.5,-167.5 261.5,-186.5 329.5,-186.5 329.5,-167.5 261.5,-167.5"/>
<text text-anchor="middle" x="295.5" y="-174.5" font-family="Helvetica,sans-Serif" font-size="10.00">QByteArray</text>
</g>
<!-- Node8&#45;&gt;Node2 -->
<g id="edge7" class="edge"><title>Node8&#45;&gt;Node2</title>
<path fill="none" stroke="#9a32cd" stroke-dasharray="5,2" d="M295.5,-157.224C295.5,-141.697 295.5,-120.358 295.5,-108.616"/>
<polygon fill="#9a32cd" stroke="#9a32cd" points="292,-157.282 295.5,-167.282 299,-157.282 292,-157.282"/>
<text text-anchor="middle" x="334.5" y="-135.5" font-family="Helvetica,sans-Serif" font-size="10.00"> p_tmpBufferYUV</text>
</g>
<!-- Node9 -->
<g id="node9" class="node"><title>Node9</title>
<polygon fill="white" stroke="#bfbfbf" points="349.5,-167.5 349.5,-186.5 443.5,-186.5 443.5,-167.5 349.5,-167.5"/>
<text text-anchor="middle" x="396.5" y="-174.5" font-family="Helvetica,sans-Serif" font-size="10.00">InterpolationMode</text>
</g>
<!-- Node9&#45;&gt;Node2 -->
<g id="edge8" class="edge"><title>Node9&#45;&gt;Node2</title>
<path fill="none" stroke="#9a32cd" stroke-dasharray="5,2" d="M392.09,-157.447C388.792,-147.224 383.298,-135.018 374.5,-127 367.537,-120.654 347.274,-113.791 329.014,-108.572"/>
<polygon fill="#9a32cd" stroke="#9a32cd" points="388.729,-158.426 394.777,-167.125 395.474,-156.553 388.729,-158.426"/>
<text text-anchor="middle" x="435" y="-135.5" font-family="Helvetica,sans-Serif" font-size="10.00"> p_interpolationMode</text>
</g>
<!-- Node10 -->
<g id="node10" class="node"><title>Node10</title>
<polygon fill="white" stroke="#bfbfbf" points="496,-167.5 496,-186.5 525,-186.5 525,-167.5 496,-167.5"/>
<text text-anchor="middle" x="510.5" y="-174.5" font-family="Helvetica,sans-Serif" font-size="10.00">int</text>
</g>
<!-- Node10&#45;&gt;Node2 -->
<g id="edge9" class="edge"><title>Node10&#45;&gt;Node2</title>
<path fill="none" stroke="#9a32cd" stroke-dasharray="5,2" d="M505.48,-157.721C501.557,-147.01 494.971,-134.207 484.5,-127 457.572,-108.466 370.749,-114.353 338.5,-109 335.641,-108.525 332.683,-107.993 329.719,-107.431"/>
<polygon fill="#9a32cd" stroke="#9a32cd" points="502.205,-158.974 508.56,-167.451 508.878,-156.861 502.205,-158.974"/>
<text text-anchor="middle" x="521" y="-141" font-family="Helvetica,sans-Serif" font-size="10.00"> p_width</text>
<text text-anchor="middle" x="521" y="-130" font-family="Helvetica,sans-Serif" font-size="10.00">p_height</text>
</g>
<!-- Node11 -->
<g id="node11" class="node"><title>Node11</title>
<polygon fill="white" stroke="#bfbfbf" points="543,-167.5 543,-186.5 662,-186.5 662,-167.5 543,-167.5"/>
<text text-anchor="middle" x="602.5" y="-174.5" font-family="Helvetica,sans-Serif" font-size="10.00">YUVCPixelFormatType</text>
</g>
<!-- Node11&#45;&gt;Node2 -->
<g id="edge10" class="edge"><title>Node11&#45;&gt;Node2</title>
<path fill="none" stroke="#9a32cd" stroke-dasharray="5,2" d="M588.135,-159.694C577.14,-148.408 560.939,-134.175 543.5,-127 458.918,-92.1999 428.976,-122.392 338.5,-109 335.633,-108.576 332.67,-108.079 329.702,-107.541"/>
<polygon fill="#9a32cd" stroke="#9a32cd" points="585.79,-162.311 595.165,-167.248 590.915,-157.543 585.79,-162.311"/>
<text text-anchor="middle" x="616.5" y="-135.5" font-family="Helvetica,sans-Serif" font-size="10.00"> p_srcPixelFormat</text>
</g>
<!-- Node12 -->
<g id="node12" class="node"><title>Node12</title>
<polygon fill="white" stroke="#bfbfbf" points="348,-89.5 348,-108.5 395,-108.5 395,-89.5 348,-89.5"/>
<text text-anchor="middle" x="371.5" y="-96.5" font-family="Helvetica,sans-Serif" font-size="10.00">QFile *</text>
</g>
<!-- Node12&#45;&gt;Node1 -->
<g id="edge11" class="edge"><title>Node12&#45;&gt;Node1</title>
<path fill="none" stroke="#9a32cd" stroke-dasharray="5,2" d="M367.956,-79.3221C366.521,-66.9995 366.41,-50.8256 372.5,-38 376.117,-30.3831 383.026,-24.1253 389.502,-19.5589"/>
<polygon fill="#9a32cd" stroke="#9a32cd" points="364.519,-80.0019 369.507,-89.3495 371.437,-78.932 364.519,-80.0019"/>
<text text-anchor="middle" x="394" y="-52" font-family="Helvetica,sans-Serif" font-size="10.00"> p_srcFile</text>
</g>
<!-- Node13 -->
<g id="node13" class="node"><title>Node13</title>
<polygon fill="white" stroke="#bfbfbf" points="413.5,-89.5 413.5,-108.5 463.5,-108.5 463.5,-89.5 413.5,-89.5"/>
<text text-anchor="middle" x="438.5" y="-96.5" font-family="Helvetica,sans-Serif" font-size="10.00">QString</text>
</g>
<!-- Node13&#45;&gt;Node1 -->
<g id="edge12" class="edge"><title>Node13&#45;&gt;Node1</title>
<path fill="none" stroke="#9a32cd" stroke-dasharray="5,2" d="M431.628,-79.779C427.107,-67.8662 421.026,-51.9797 415.5,-38 413.118,-31.9749 410.368,-25.2249 408.214,-19.9812"/>
<polygon fill="#9a32cd" stroke="#9a32cd" points="428.468,-81.3186 435.28,-89.4334 435.016,-78.8418 428.468,-81.3186"/>
<text text-anchor="middle" x="462" y="-63" font-family="Helvetica,sans-Serif" font-size="10.00"> p_path</text>
<text text-anchor="middle" x="462" y="-52" font-family="Helvetica,sans-Serif" font-size="10.00">p_modifiedtime</text>
<text text-anchor="middle" x="462" y="-41" font-family="Helvetica,sans-Serif" font-size="10.00">p_createdtime</text>
</g>
<!-- Node14 -->
<g id="node14" class="node"><title>Node14</title>
<polygon fill="white" stroke="#bfbfbf" points="506,-89.5 506,-108.5 549,-108.5 549,-89.5 506,-89.5"/>
<text text-anchor="middle" x="527.5" y="-96.5" font-family="Helvetica,sans-Serif" font-size="10.00">qint64</text>
</g>
<!-- Node14&#45;&gt;Node1 -->
<g id="edge13" class="edge"><title>Node14&#45;&gt;Node1</title>
<path fill="none" stroke="#9a32cd" stroke-dasharray="5,2" d="M523.196,-79.2518C519.201,-65.9333 511.943,-48.5986 499.5,-38 480.312,-21.656 451.836,-15.1794 431.066,-12.6272"/>
<polygon fill="#9a32cd" stroke="#9a32cd" points="519.899,-80.4769 525.826,-89.2588 526.669,-78.6975 519.899,-80.4769"/>
<text text-anchor="middle" x="543.5" y="-52" font-family="Helvetica,sans-Serif" font-size="10.00"> p_fileSize</text>
</g>
</g>
</svg>
