<?xml version="1.0" encoding="UTF-8" standalone="no"?>
<!DOCTYPE svg PUBLIC "-//W3C//DTD SVG 1.1//EN"
 "http://www.w3.org/Graphics/SVG/1.1/DTD/svg11.dtd">
<!-- Generated by graphviz version 2.38.0 (20140413.2041)
 -->
<!-- Title: YUVSource::setSize Pages: 1 -->
<svg width="1182pt" height="242pt"
 viewBox="0.00 0.00 1182.00 241.50" xmlns="http://www.w3.org/2000/svg" xmlns:xlink="http://www.w3.org/1999/xlink">
<g id="graph0" class="graph" transform="scale(1 1) rotate(0) translate(4 237.5)">
<title>YUVSource::setSize</title>
<polygon fill="white" stroke="none" points="-4,4 -4,-237.5 1178,-237.5 1178,4 -4,4"/>
<!-- Node1 -->
<g id="node1" class="node"><title>Node1</title>
<polygon fill="#bfbfbf" stroke="black" points="0,-85.5 0,-104.5 107,-104.5 107,-85.5 0,-85.5"/>
<text text-anchor="middle" x="53.5" y="-92.5" font-family="Helvetica,sans-Serif" font-size="10.00">YUVSource::setSize</text>
</g>
<!-- Node2 -->
<g id="node2" class="node"><title>Node2</title>
<g id="a_node2"><a xlink:href="classFrameObject.html#af3743977db6e996acf666952baaa9d41" target="_top" xlink:title="FrameObject::setSize">
<polygon fill="white" stroke="black" points="143,-104.5 143,-123.5 255,-123.5 255,-104.5 143,-104.5"/>
<text text-anchor="middle" x="199" y="-111.5" font-family="Helvetica,sans-Serif" font-size="10.00">FrameObject::setSize</text>
</a>
</g>
</g>
<!-- Node1&#45;&gt;Node2 -->
<g id="edge1" class="edge"><title>Node1&#45;&gt;Node2</title>
<path fill="none" stroke="midnightblue" d="M117.116,-103.291C125.727,-104.431 134.517,-105.595 142.978,-106.715"/>
<polygon fill="midnightblue" stroke="midnightblue" points="117.492,-99.81 107.119,-101.967 116.573,-106.749 117.492,-99.81"/>
</g>
<!-- Node14 -->
<g id="node14" class="node"><title>Node14</title>
<g id="a_node14"><a xlink:href="classYUVFile.html#acae26b6cfe6b429d26c5acddcebd26b3" target="_top" xlink:title="YUVFile::setSize">
<polygon fill="white" stroke="black" points="153,-66.5 153,-85.5 245,-85.5 245,-66.5 153,-66.5"/>
<text text-anchor="middle" x="199" y="-73.5" font-family="Helvetica,sans-Serif" font-size="10.00">YUVFile::setSize</text>
</a>
</g>
</g>
<!-- Node1&#45;&gt;Node14 -->
<g id="edge15" class="edge"><title>Node1&#45;&gt;Node14</title>
<path fill="none" stroke="midnightblue" d="M117.131,-86.7074C129.184,-85.1115 141.586,-83.4695 152.946,-81.9653"/>
<polygon fill="midnightblue" stroke="midnightblue" points="116.573,-83.2506 107.119,-88.033 117.492,-90.19 116.573,-83.2506"/>
</g>
<!-- Node3 -->
<g id="node3" class="node"><title>Node3</title>
<g id="a_node3"><a xlink:href="classMainWindow.html#a2d8cea1d443550a8f14ce8c80d2608c6" target="_top" xlink:title="MainWindow::loadPlaylistFile">
<polygon fill="white" stroke="black" points="297,-104.5 297,-123.5 442,-123.5 442,-104.5 297,-104.5"/>
<text text-anchor="middle" x="369.5" y="-111.5" font-family="Helvetica,sans-Serif" font-size="10.00">MainWindow::loadPlaylistFile</text>
</a>
</g>
</g>
<!-- Node2&#45;&gt;Node3 -->
<g id="edge2" class="edge"><title>Node2&#45;&gt;Node3</title>
<path fill="none" stroke="midnightblue" d="M265.362,-114C275.71,-114 286.458,-114 296.938,-114"/>
<polygon fill="midnightblue" stroke="midnightblue" points="265.173,-110.5 255.173,-114 265.173,-117.5 265.173,-110.5"/>
</g>
<!-- Node4 -->
<g id="node4" class="node"><title>Node4</title>
<g id="a_node4"><a xlink:href="classMainWindow.html#a8ef1be3cb02e12d68d12375d1a7a0ced" target="_top" xlink:title="loads a list of yuv/csv files ">
<polygon fill="white" stroke="black" points="484,-104.5 484,-123.5 602,-123.5 602,-104.5 484,-104.5"/>
<text text-anchor="middle" x="543" y="-111.5" font-family="Helvetica,sans-Serif" font-size="10.00">MainWindow::loadFiles</text>
</a>
</g>
</g>
<!-- Node3&#45;&gt;Node4 -->
<g id="edge3" class="edge"><title>Node3&#45;&gt;Node4</title>
<path fill="none" stroke="midnightblue" d="M452.375,-114C462.996,-114 473.696,-114 483.822,-114"/>
<polygon fill="midnightblue" stroke="midnightblue" points="452.238,-110.5 442.238,-114 452.238,-117.5 452.238,-110.5"/>
</g>
<!-- Node5 -->
<g id="node5" class="node"><title>Node5</title>
<g id="a_node5"><a xlink:href="classDisplaySplitWidget.html#ac1d4ced58b2ac2b08153694a5de6232e" target="_top" xlink:title="DisplaySplitWidget\l::dropEvent">
<polygon fill="white" stroke="black" points="661.5,-203 661.5,-233 761.5,-233 761.5,-203 661.5,-203"/>
<text text-anchor="start" x="669.5" y="-221" font-family="Helvetica,sans-Serif" font-size="10.00">DisplaySplitWidget</text>
<text text-anchor="middle" x="711.5" y="-210" font-family="Helvetica,sans-Serif" font-size="10.00">::dropEvent</text>
</a>
</g>
</g>
<!-- Node4&#45;&gt;Node5 -->
<g id="edge4" class="edge"><title>Node4&#45;&gt;Node5</title>
<path fill="none" stroke="midnightblue" d="M560.223,-130.911C577.914,-148.517 607.762,-175.868 638,-193 645.298,-197.135 653.395,-200.749 661.455,-203.847"/>
<polygon fill="midnightblue" stroke="midnightblue" points="562.507,-128.241 552.993,-123.579 557.523,-133.157 562.507,-128.241"/>
</g>
<!-- Node6 -->
<g id="node6" class="node"><title>Node6</title>
<g id="a_node6"><a xlink:href="classMainWindow.html#a288b768c3c21a9171bdc56fe845ece8b" target="_top" xlink:title="Shows the file open dialog and loads all selected Files. ">
<polygon fill="white" stroke="black" points="653.5,-126.5 653.5,-145.5 769.5,-145.5 769.5,-126.5 653.5,-126.5"/>
<text text-anchor="middle" x="711.5" y="-133.5" font-family="Helvetica,sans-Serif" font-size="10.00">MainWindow::openFile</text>
</a>
</g>
</g>
<!-- Node4&#45;&gt;Node6 -->
<g id="edge5" class="edge"><title>Node4&#45;&gt;Node6</title>
<path fill="none" stroke="midnightblue" d="M612.504,-123.052C626.106,-124.849 640.251,-126.718 653.422,-128.458"/>
<polygon fill="midnightblue" stroke="midnightblue" points="612.606,-119.535 602.234,-121.695 611.689,-126.474 612.606,-119.535"/>
</g>
<!-- Node10 -->
<g id="node10" class="node"><title>Node10</title>
<g id="a_node10"><a xlink:href="classMainWindow.html#a935316315edb9b7af42657da20be0e54" target="_top" xlink:title="MainWindow::openRecentFile">
<polygon fill="white" stroke="black" points="638,-164.5 638,-183.5 785,-183.5 785,-164.5 638,-164.5"/>
<text text-anchor="middle" x="711.5" y="-171.5" font-family="Helvetica,sans-Serif" font-size="10.00">MainWindow::openRecentFile</text>
</a>
</g>
</g>
<!-- Node4&#45;&gt;Node10 -->
<g id="edge10" class="edge"><title>Node4&#45;&gt;Node10</title>
<path fill="none" stroke="midnightblue" d="M572.719,-127.911C591.099,-136.465 615.614,-147.237 638,-155 648.081,-158.496 659.142,-161.701 669.521,-164.444"/>
<polygon fill="midnightblue" stroke="midnightblue" points="573.99,-124.64 563.452,-123.544 571.006,-130.972 573.99,-124.64"/>
</g>
<!-- Node11 -->
<g id="node11" class="node"><title>Node11</title>
<g id="a_node11"><a xlink:href="classPlaylistTreeWidget.html#a295170eb269cc67050ea0b575cd0ab53" target="_top" xlink:title="PlaylistTreeWidget\l::dropEvent">
<polygon fill="white" stroke="black" points="662,-77 662,-107 761,-107 761,-77 662,-77"/>
<text text-anchor="start" x="670" y="-95" font-family="Helvetica,sans-Serif" font-size="10.00">PlaylistTreeWidget</text>
<text text-anchor="middle" x="711.5" y="-84" font-family="Helvetica,sans-Serif" font-size="10.00">::dropEvent</text>
</a>
</g>
</g>
<!-- Node4&#45;&gt;Node11 -->
<g id="edge12" class="edge"><title>Node4&#45;&gt;Node11</title>
<path fill="none" stroke="midnightblue" d="M612.446,-104.956C629.055,-102.762 646.476,-100.46 661.95,-98.4151"/>
<polygon fill="midnightblue" stroke="midnightblue" points="611.689,-101.526 602.234,-106.305 612.606,-108.465 611.689,-101.526"/>
</g>
<!-- Node12 -->
<g id="node12" class="node"><title>Node12</title>
<g id="a_node12"><a xlink:href="classYUViewApp.html#ac0f5381cc5b703a9ea704b5eedab4b7f" target="_top" xlink:title="YUViewApp::YUViewApp">
<polygon fill="white" stroke="black" points="647,-38.5 647,-57.5 776,-57.5 776,-38.5 647,-38.5"/>
<text text-anchor="middle" x="711.5" y="-45.5" font-family="Helvetica,sans-Serif" font-size="10.00">YUViewApp::YUViewApp</text>
</a>
</g>
</g>
<!-- Node4&#45;&gt;Node12 -->
<g id="edge13" class="edge"><title>Node4&#45;&gt;Node12</title>
<path fill="none" stroke="midnightblue" d="M589.353,-100.844C593.713,-99.0764 597.998,-97.1286 602,-95 619.896,-85.4819 619.825,-75.9746 638,-67 645.7,-63.1977 654.249,-60.093 662.697,-57.5791"/>
<polygon fill="midnightblue" stroke="midnightblue" points="587.907,-97.6481 579.766,-104.428 590.358,-104.205 587.907,-97.6481"/>
</g>
<!-- Node13 -->
<g id="node13" class="node"><title>Node13</title>
<g id="a_node13"><a xlink:href="classYUViewApp.html#a2f5f937d6677018ef73a5ffc248f9891" target="_top" xlink:title="YUViewApp::event">
<polygon fill="white" stroke="black" points="661.5,-0.5 661.5,-19.5 761.5,-19.5 761.5,-0.5 661.5,-0.5"/>
<text text-anchor="middle" x="711.5" y="-7.5" font-family="Helvetica,sans-Serif" font-size="10.00">YUViewApp::event</text>
</a>
</g>
</g>
<!-- Node4&#45;&gt;Node13 -->
<g id="edge14" class="edge"><title>Node4&#45;&gt;Node13</title>
<path fill="none" stroke="midnightblue" d="M595.492,-99.6364C597.783,-98.2313 599.969,-96.6901 602,-95 627.684,-73.6281 611.683,-49.5884 638,-29 644.764,-23.7084 652.859,-19.8824 661.149,-17.118"/>
<polygon fill="midnightblue" stroke="midnightblue" points="593.521,-96.7147 586.238,-104.409 596.73,-102.936 593.521,-96.7147"/>
</g>
<!-- Node7 -->
<g id="node7" class="node"><title>Node7</title>
<g id="a_node7"><a xlink:href="classMainWindow.html#a9df7443ce5f907903438bb6a9abe9a33" target="_top" xlink:title="MainWindow::createMenusAnd\lActions">
<polygon fill="white" stroke="black" points="836,-159 836,-189 988,-189 988,-159 836,-159"/>
<text text-anchor="start" x="844" y="-177" font-family="Helvetica,sans-Serif" font-size="10.00">MainWindow::createMenusAnd</text>
<text text-anchor="middle" x="912" y="-166" font-family="Helvetica,sans-Serif" font-size="10.00">Actions</text>
</a>
</g>
</g>
<!-- Node6&#45;&gt;Node7 -->
<g id="edge6" class="edge"><title>Node6&#45;&gt;Node7</title>
<path fill="none" stroke="midnightblue" d="M772.254,-147.439C792.298,-151.276 814.912,-155.605 835.974,-159.637"/>
<polygon fill="midnightblue" stroke="midnightblue" points="772.813,-143.983 762.334,-145.54 771.497,-150.858 772.813,-143.983"/>
</g>
<!-- Node9 -->
<g id="node9" class="node"><title>Node9</title>
<g id="a_node9"><a xlink:href="classMainWindow.html#aaba5c236313378986c42c4a634c4cfb9" target="_top" xlink:title="MainWindow::onCustomContextMenu">
<polygon fill="white" stroke="black" points="821,-120.5 821,-139.5 1003,-139.5 1003,-120.5 821,-120.5"/>
<text text-anchor="middle" x="912" y="-127.5" font-family="Helvetica,sans-Serif" font-size="10.00">MainWindow::onCustomContextMenu</text>
</a>
</g>
</g>
<!-- Node6&#45;&gt;Node9 -->
<g id="edge8" class="edge"><title>Node6&#45;&gt;Node9</title>
<path fill="none" stroke="midnightblue" d="M780.015,-133.959C793.189,-133.561 807.198,-133.138 820.968,-132.721"/>
<polygon fill="midnightblue" stroke="midnightblue" points="779.538,-130.472 769.648,-134.273 779.749,-137.469 779.538,-130.472"/>
</g>
<!-- Node8 -->
<g id="node8" class="node"><title>Node8</title>
<g id="a_node8"><a xlink:href="classMainWindow.html#a8b244be8b7b7db1b08de2a2acb9409db" target="_top" xlink:title="MainWindow::MainWindow">
<polygon fill="white" stroke="black" points="1039,-142.5 1039,-161.5 1174,-161.5 1174,-142.5 1039,-142.5"/>
<text text-anchor="middle" x="1106.5" y="-149.5" font-family="Helvetica,sans-Serif" font-size="10.00">MainWindow::MainWindow</text>
</a>
</g>
</g>
<!-- Node7&#45;&gt;Node8 -->
<g id="edge7" class="edge"><title>Node7&#45;&gt;Node8</title>
<path fill="none" stroke="midnightblue" d="M998.497,-164.229C1011.99,-162.687 1025.77,-161.112 1038.75,-159.628"/>
<polygon fill="midnightblue" stroke="midnightblue" points="997.79,-160.787 988.253,-165.4 998.585,-167.742 997.79,-160.787"/>
</g>
<!-- Node9&#45;&gt;Node8 -->
<g id="edge9" class="edge"><title>Node9&#45;&gt;Node8</title>
<path fill="none" stroke="midnightblue" d="M1006.36,-140.67C1017.34,-141.924 1028.36,-143.185 1038.87,-144.385"/>
<polygon fill="midnightblue" stroke="midnightblue" points="1006.65,-137.18 996.314,-139.522 1005.85,-144.134 1006.65,-137.18"/>
</g>
<!-- Node10&#45;&gt;Node7 -->
<g id="edge11" class="edge"><title>Node10&#45;&gt;Node7</title>
<path fill="none" stroke="midnightblue" d="M795.176,-174C808.605,-174 822.45,-174 835.691,-174"/>
<polygon fill="midnightblue" stroke="midnightblue" points="795.006,-170.5 785.006,-174 795.006,-177.5 795.006,-170.5"/>
</g>
<!-- Node15 -->
<g id="node15" class="node"><title>Node15</title>
<g id="a_node15"><a xlink:href="classYUVFile.html#a6a2f0d64ea5ad721c96de27fdc2e2d60" target="_top" xlink:title="YUVFile::formatFromCorrelation">
<polygon fill="white" stroke="black" points="291,-66.5 291,-85.5 448,-85.5 448,-66.5 291,-66.5"/>
<text text-anchor="middle" x="369.5" y="-73.5" font-family="Helvetica,sans-Serif" font-size="10.00">YUVFile::formatFromCorrelation</text>
</a>
</g>
</g>
<!-- Node14&#45;&gt;Node15 -->
<g id="edge16" class="edge"><title>Node14&#45;&gt;Node15</title>
<path fill="none" stroke="midnightblue" d="M255.304,-76C266.629,-76 278.748,-76 290.693,-76"/>
<polygon fill="midnightblue" stroke="midnightblue" points="255.155,-72.5001 245.155,-76 255.155,-79.5001 255.155,-72.5001"/>
</g>
<!-- Node16 -->
<g id="node16" class="node"><title>Node16</title>
<g id="a_node16"><a xlink:href="classYUVFile.html#a75df71aea1c05d5eda21e4003855c11f" target="_top" xlink:title="Get the format of the YUV if known. ">
<polygon fill="white" stroke="black" points="491,-66.5 491,-85.5 595,-85.5 595,-66.5 491,-66.5"/>
<text text-anchor="middle" x="543" y="-73.5" font-family="Helvetica,sans-Serif" font-size="10.00">YUVFile::getFormat</text>
</a>
</g>
</g>
<!-- Node15&#45;&gt;Node16 -->
<g id="edge17" class="edge"><title>Node15&#45;&gt;Node16</title>
<path fill="none" stroke="midnightblue" d="M458.345,-76C469.378,-76 480.364,-76 490.573,-76"/>
<polygon fill="midnightblue" stroke="midnightblue" points="458.221,-72.5001 448.221,-76 458.221,-79.5001 458.221,-72.5001"/>
</g>
</g>
</svg>
