<?xml version="1.0" encoding="UTF-8" standalone="no"?>
<!DOCTYPE svg PUBLIC "-//W3C//DTD SVG 1.1//EN"
 "http://www.w3.org/Graphics/SVG/1.1/DTD/svg11.dtd">
<!-- Generated by graphviz version 2.38.0 (20140413.2041)
 -->
<!-- Title: CacheIdx Pages: 1 -->
<svg width="127pt" height="95pt"
 viewBox="0.00 0.00 127.00 95.00" xmlns="http://www.w3.org/2000/svg" xmlns:xlink="http://www.w3.org/1999/xlink">
<g id="graph0" class="graph" transform="scale(1 1) rotate(0) translate(4 91)">
<title>CacheIdx</title>
<polygon fill="white" stroke="none" points="-4,4 -4,-91 123,-91 123,4 -4,4"/>
<!-- Node1 -->
<g id="node1" class="node"><title>Node1</title>
<polygon fill="#bfbfbf" stroke="black" points="28.5,-0.5 28.5,-19.5 87.5,-19.5 87.5,-0.5 28.5,-0.5"/>
<text text-anchor="middle" x="58" y="-7.5" font-family="Helvetica,sans-Serif" font-size="10.00">CacheIdx</text>
</g>
<!-- Node2 -->
<g id="node2" class="node"><title>Node2</title>
<polygon fill="white" stroke="#bfbfbf" points="0,-67.5 0,-86.5 50,-86.5 50,-67.5 0,-67.5"/>
<text text-anchor="middle" x="25" y="-74.5" font-family="Helvetica,sans-Serif" font-size="10.00">QString</text>
</g>
<!-- Node2&#45;&gt;Node1 -->
<g id="edge1" class="edge"><title>Node2&#45;&gt;Node1</title>
<path fill="none" stroke="#9a32cd" stroke-dasharray="5,2" d="M22.4692,-57.0066C22.4027,-50.6931 23.2121,-43.7992 26,-38 29.6534,-30.4006 36.5662,-24.1445 43.0344,-19.5746"/>
<polygon fill="#9a32cd" stroke="#9a32cd" points="19.0127,-57.6923 23.2966,-67.3824 25.9905,-57.1358 19.0127,-57.6923"/>
<text text-anchor="middle" x="47.5" y="-41" font-family="Helvetica,sans-Serif" font-size="10.00"> fileName</text>
</g>
<!-- Node3 -->
<g id="node3" class="node"><title>Node3</title>
<polygon fill="white" stroke="#bfbfbf" points="76.5,-67.5 76.5,-86.5 105.5,-86.5 105.5,-67.5 76.5,-67.5"/>
<text text-anchor="middle" x="91" y="-74.5" font-family="Helvetica,sans-Serif" font-size="10.00">int</text>
</g>
<!-- Node3&#45;&gt;Node1 -->
<g id="edge2" class="edge"><title>Node3&#45;&gt;Node1</title>
<path fill="none" stroke="#9a32cd" stroke-dasharray="5,2" d="M81.9445,-58.1635C75.5804,-45.6281 67.3468,-29.4104 62.38,-19.6273"/>
<polygon fill="#9a32cd" stroke="#9a32cd" points="78.9017,-59.9016 86.5495,-67.2338 85.1433,-56.7327 78.9017,-59.9016"/>
<text text-anchor="middle" x="98" y="-41" font-family="Helvetica,sans-Serif" font-size="10.00"> frameIdx</text>
</g>
</g>
</svg>
