<?xml version="1.0" encoding="UTF-8" standalone="no"?>
<!DOCTYPE svg PUBLIC "-//W3C//DTD SVG 1.1//EN"
 "http://www.w3.org/Graphics/SVG/1.1/DTD/svg11.dtd">
<!-- Generated by graphviz version 2.38.0 (20140413.2041)
 -->
<!-- Title: ColorRange Pages: 1 -->
<svg width="131pt" height="106pt"
 viewBox="0.00 0.00 130.50 106.00" xmlns="http://www.w3.org/2000/svg" xmlns:xlink="http://www.w3.org/1999/xlink">
<g id="graph0" class="graph" transform="scale(1 1) rotate(0) translate(4 102)">
<title>ColorRange</title>
<polygon fill="white" stroke="none" points="-4,4 -4,-102 126.5,-102 126.5,4 -4,4"/>
<!-- Node1 -->
<g id="node1" class="node"><title>Node1</title>
<polygon fill="#bfbfbf" stroke="black" points="23.5,-0.5 23.5,-19.5 91.5,-19.5 91.5,-0.5 23.5,-0.5"/>
<text text-anchor="middle" x="57.5" y="-7.5" font-family="Helvetica,sans-Serif" font-size="10.00">ColorRange</text>
</g>
<!-- Node2 -->
<g id="node2" class="node"><title>Node2</title>
<polygon fill="white" stroke="#bfbfbf" points="0,-78.5 0,-97.5 47,-97.5 47,-78.5 0,-78.5"/>
<text text-anchor="middle" x="23.5" y="-85.5" font-family="Helvetica,sans-Serif" font-size="10.00">QColor</text>
</g>
<!-- Node2&#45;&gt;Node1 -->
<g id="edge1" class="edge"><title>Node2&#45;&gt;Node1</title>
<path fill="none" stroke="#9a32cd" stroke-dasharray="5,2" d="M20.2791,-68.1573C19.5287,-58.6641 20.0057,-47.2392 24.5,-38 28.1914,-30.4114 35.1391,-24.2272 41.711,-19.7015"/>
<polygon fill="#9a32cd" stroke="#9a32cd" points="16.8187,-68.691 21.5567,-78.1674 23.7624,-67.8047 16.8187,-68.691"/>
<text text-anchor="middle" x="47.5" y="-52" font-family="Helvetica,sans-Serif" font-size="10.00"> maxColor</text>
<text text-anchor="middle" x="47.5" y="-41" font-family="Helvetica,sans-Serif" font-size="10.00">minColor</text>
</g>
<!-- Node3 -->
<g id="node3" class="node"><title>Node3</title>
<polygon fill="white" stroke="#bfbfbf" points="78,-78.5 78,-97.5 107,-97.5 107,-78.5 78,-78.5"/>
<text text-anchor="middle" x="92.5" y="-85.5" font-family="Helvetica,sans-Serif" font-size="10.00">int</text>
</g>
<!-- Node3&#45;&gt;Node1 -->
<g id="edge2" class="edge"><title>Node3&#45;&gt;Node1</title>
<path fill="none" stroke="#9a32cd" stroke-dasharray="5,2" d="M84.5285,-68.9374C80.4003,-59.6628 75.2433,-48.1977 70.5,-38 67.6915,-31.9619 64.4415,-25.2119 61.8936,-19.9715"/>
<polygon fill="#9a32cd" stroke="#9a32cd" points="81.4235,-70.5697 88.6752,-78.2939 87.8231,-67.7333 81.4235,-70.5697"/>
<text text-anchor="middle" x="101" y="-52" font-family="Helvetica,sans-Serif" font-size="10.00"> rangeMin</text>
<text text-anchor="middle" x="101" y="-41" font-family="Helvetica,sans-Serif" font-size="10.00">rangeMax</text>
</g>
</g>
</svg>
