<?xml version="1.0" encoding="UTF-8" standalone="no"?>
<!DOCTYPE svg PUBLIC "-//W3C//DTD SVG 1.1//EN"
 "http://www.w3.org/Graphics/SVG/1.1/DTD/svg11.dtd">
<!-- Generated by graphviz version 2.38.0 (20140413.2041)
 -->
<!-- Title: StatisticsObject::getInfoList Pages: 1 -->
<svg width="511pt" height="242pt"
 viewBox="0.00 0.00 511.00 241.50" xmlns="http://www.w3.org/2000/svg" xmlns:xlink="http://www.w3.org/1999/xlink">
<g id="graph0" class="graph" transform="scale(1 1) rotate(0) translate(4 237.5)">
<title>StatisticsObject::getInfoList</title>
<polygon fill="white" stroke="none" points="-4,4 -4,-237.5 507,-237.5 507,4 -4,4"/>
<!-- Node1 -->
<g id="node1" class="node"><title>Node1</title>
<polygon fill="#bfbfbf" stroke="black" points="0,-116 0,-135 138,-135 138,-116 0,-116"/>
<text text-anchor="middle" x="69" y="-123" font-family="Helvetica,sans-Serif" font-size="10.00">StatisticsObject::getInfoList</text>
</g>
<!-- Node2 -->
<g id="node2" class="node"><title>Node2</title>
<g id="a_node2"><a xlink:href="classstatisticSource.html#a0bcd5970599d13cd51bd9be237943de9" target="_top" xlink:title="statisticSource::getPath">
<polygon fill="white" stroke="black" points="191.5,-214 191.5,-233 313.5,-233 313.5,-214 191.5,-214"/>
<text text-anchor="middle" x="252.5" y="-221" font-family="Helvetica,sans-Serif" font-size="10.00">statisticSource::getPath</text>
</a>
</g>
</g>
<!-- Node1&#45;&gt;Node2 -->
<g id="edge1" class="edge"><title>Node1&#45;&gt;Node2</title>
<path fill="none" stroke="midnightblue" d="M79.6938,-135.11C97.0673,-151.784 135.32,-186.052 174,-204.5 179.002,-206.885 184.332,-208.989 189.767,-210.841"/>
<polygon fill="midnightblue" stroke="midnightblue" points="189.025,-214.276 199.614,-213.909 191.108,-207.593 189.025,-214.276"/>
</g>
<!-- Node3 -->
<g id="node3" class="node"><title>Node3</title>
<g id="a_node3"><a xlink:href="classstatisticSource.html#a45f4b4ffe3ebac7b7c70206be7638af5" target="_top" xlink:title="statisticSource::getCreatedtime">
<polygon fill="white" stroke="black" points="175,-176 175,-195 330,-195 330,-176 175,-176"/>
<text text-anchor="middle" x="252.5" y="-183" font-family="Helvetica,sans-Serif" font-size="10.00">statisticSource::getCreatedtime</text>
</a>
</g>
</g>
<!-- Node1&#45;&gt;Node3 -->
<g id="edge2" class="edge"><title>Node1&#45;&gt;Node3</title>
<path fill="none" stroke="midnightblue" d="M91.603,-135.008C112.426,-143.936 144.963,-157.264 174,-166.5 181.79,-168.978 190.106,-171.323 198.292,-173.465"/>
<polygon fill="midnightblue" stroke="midnightblue" points="197.615,-176.904 208.169,-175.972 199.338,-170.119 197.615,-176.904"/>
</g>
<!-- Node4 -->
<g id="node4" class="node"><title>Node4</title>
<g id="a_node4"><a xlink:href="classstatisticSource.html#a301259dbf888390c4076749db205e530" target="_top" xlink:title="statisticSource::getModifiedtime">
<polygon fill="white" stroke="black" points="174,-138 174,-157 331,-157 331,-138 174,-138"/>
<text text-anchor="middle" x="252.5" y="-145" font-family="Helvetica,sans-Serif" font-size="10.00">statisticSource::getModifiedtime</text>
</a>
</g>
</g>
<!-- Node1&#45;&gt;Node4 -->
<g id="edge3" class="edge"><title>Node1&#45;&gt;Node4</title>
<path fill="none" stroke="midnightblue" d="M138.1,-133.755C146.487,-134.771 155.149,-135.821 163.775,-136.867"/>
<polygon fill="midnightblue" stroke="midnightblue" points="163.517,-140.361 173.865,-138.09 164.359,-133.412 163.517,-140.361"/>
</g>
<!-- Node5 -->
<g id="node5" class="node"><title>Node5</title>
<g id="a_node5"><a xlink:href="classstatisticSource.html#adae2756a89cc7a0e79d0025f50537323" target="_top" xlink:title="statisticSource::getNumber\lBytes">
<polygon fill="white" stroke="black" points="184.5,-88.5 184.5,-118.5 320.5,-118.5 320.5,-88.5 184.5,-88.5"/>
<text text-anchor="start" x="192.5" y="-106.5" font-family="Helvetica,sans-Serif" font-size="10.00">statisticSource::getNumber</text>
<text text-anchor="middle" x="252.5" y="-95.5" font-family="Helvetica,sans-Serif" font-size="10.00">Bytes</text>
</a>
</g>
</g>
<!-- Node1&#45;&gt;Node5 -->
<g id="edge4" class="edge"><title>Node1&#45;&gt;Node5</title>
<path fill="none" stroke="midnightblue" d="M138.1,-117.245C149.888,-115.817 162.22,-114.322 174.231,-112.866"/>
<polygon fill="midnightblue" stroke="midnightblue" points="174.718,-116.333 184.224,-111.655 173.876,-109.383 174.718,-116.333"/>
</g>
<!-- Node6 -->
<g id="node6" class="node"><title>Node6</title>
<g id="a_node6"><a xlink:href="classStatisticsObject.html#a977403d59c77839b97f38c4c5d09483b" target="_top" xlink:title="StatisticsObject::numFrames">
<polygon fill="white" stroke="black" points="180.5,-50 180.5,-69 324.5,-69 324.5,-50 180.5,-50"/>
<text text-anchor="middle" x="252.5" y="-57" font-family="Helvetica,sans-Serif" font-size="10.00">StatisticsObject::numFrames</text>
</a>
</g>
</g>
<!-- Node1&#45;&gt;Node6 -->
<g id="edge5" class="edge"><title>Node1&#45;&gt;Node6</title>
<path fill="none" stroke="midnightblue" d="M89.1685,-115.881C109.752,-105.825 143.603,-90.0648 174,-79.5 182.113,-76.6802 190.827,-74.0561 199.378,-71.6976"/>
<polygon fill="midnightblue" stroke="midnightblue" points="200.534,-75.0118 209.295,-69.0551 198.731,-68.2478 200.534,-75.0118"/>
</g>
<!-- Node8 -->
<g id="node8" class="node"><title>Node8</title>
<g id="a_node8"><a xlink:href="classDisplayObject.html#ae44115df455b077d7f5524ffa4e32588" target="_top" xlink:title="DisplayObject::getStatus\lAndInfo">
<polygon fill="white" stroke="black" points="189.5,-0.5 189.5,-30.5 315.5,-30.5 315.5,-0.5 189.5,-0.5"/>
<text text-anchor="start" x="197.5" y="-18.5" font-family="Helvetica,sans-Serif" font-size="10.00">DisplayObject::getStatus</text>
<text text-anchor="middle" x="252.5" y="-7.5" font-family="Helvetica,sans-Serif" font-size="10.00">AndInfo</text>
</a>
</g>
</g>
<!-- Node1&#45;&gt;Node8 -->
<g id="edge7" class="edge"><title>Node1&#45;&gt;Node8</title>
<path fill="none" stroke="midnightblue" d="M79.1442,-115.963C96.2442,-98.6318 134.884,-61.7994 174,-40.5 178.02,-38.3112 182.262,-36.2761 186.607,-34.391"/>
<polygon fill="midnightblue" stroke="midnightblue" points="188.273,-37.4927 196.234,-30.502 185.651,-31.0022 188.273,-37.4927"/>
</g>
<!-- Node7 -->
<g id="node7" class="node"><title>Node7</title>
<g id="a_node7"><a xlink:href="classstatisticSource.html#a49d2c60f7ce52592509c07fdc9d8e268" target="_top" xlink:title="statisticSource::getNumber\lFrames">
<polygon fill="white" stroke="black" points="367,-44.5 367,-74.5 503,-74.5 503,-44.5 367,-44.5"/>
<text text-anchor="start" x="375" y="-62.5" font-family="Helvetica,sans-Serif" font-size="10.00">statisticSource::getNumber</text>
<text text-anchor="middle" x="435" y="-51.5" font-family="Helvetica,sans-Serif" font-size="10.00">Frames</text>
</a>
</g>
</g>
<!-- Node6&#45;&gt;Node7 -->
<g id="edge6" class="edge"><title>Node6&#45;&gt;Node7</title>
<path fill="none" stroke="midnightblue" d="M324.579,-59.5C335.121,-59.5 346.028,-59.5 356.689,-59.5"/>
<polygon fill="midnightblue" stroke="midnightblue" points="356.815,-63.0001 366.815,-59.5 356.815,-56.0001 356.815,-63.0001"/>
</g>
</g>
</svg>
