<?xml version="1.0" encoding="UTF-8" standalone="no"?>
<!DOCTYPE svg PUBLIC "-//W3C//DTD SVG 1.1//EN"
 "http://www.w3.org/Graphics/SVG/1.1/DTD/svg11.dtd">
<!-- Generated by graphviz version 2.38.0 (20140413.2041)
 -->
<!-- Title: StatisticsObject::reloadImage Pages: 1 -->
<svg width="850pt" height="228pt"
 viewBox="0.00 0.00 850.00 228.00" xmlns="http://www.w3.org/2000/svg" xmlns:xlink="http://www.w3.org/1999/xlink">
<g id="graph0" class="graph" transform="scale(1 1) rotate(0) translate(4 224)">
<title>StatisticsObject::reloadImage</title>
<polygon fill="white" stroke="none" points="-4,4 -4,-224 846,-224 846,4 -4,4"/>
<!-- Node1 -->
<g id="node1" class="node"><title>Node1</title>
<polygon fill="#bfbfbf" stroke="black" points="0,-98.5 0,-128.5 119,-128.5 119,-98.5 0,-98.5"/>
<text text-anchor="start" x="8" y="-116.5" font-family="Helvetica,sans-Serif" font-size="10.00">StatisticsObject::reload</text>
<text text-anchor="middle" x="59.5" y="-105.5" font-family="Helvetica,sans-Serif" font-size="10.00">Image</text>
</g>
<!-- Node2 -->
<g id="node2" class="node"><title>Node2</title>
<g id="a_node2"><a xlink:href="classStatisticsObject.html#a7ef3844aa2a91ec4fc67233f7a6f5552" target="_top" xlink:title="StatisticsObject::loadImage">
<polygon fill="white" stroke="black" points="155,-104 155,-123 292,-123 292,-104 155,-104"/>
<text text-anchor="middle" x="223.5" y="-111" font-family="Helvetica,sans-Serif" font-size="10.00">StatisticsObject::loadImage</text>
</a>
</g>
</g>
<!-- Node1&#45;&gt;Node2 -->
<g id="edge1" class="edge"><title>Node1&#45;&gt;Node2</title>
<path fill="none" stroke="midnightblue" d="M119.444,-113.5C127.612,-113.5 136.105,-113.5 144.552,-113.5"/>
<polygon fill="midnightblue" stroke="midnightblue" points="144.81,-117 154.81,-113.5 144.81,-110 144.81,-117"/>
</g>
<!-- Node3 -->
<g id="node3" class="node"><title>Node3</title>
<g id="a_node3"><a xlink:href="classStatisticsObject.html#a977403d59c77839b97f38c4c5d09483b" target="_top" xlink:title="StatisticsObject::numFrames">
<polygon fill="white" stroke="black" points="331,-193 331,-212 475,-212 475,-193 331,-193"/>
<text text-anchor="middle" x="403" y="-200" font-family="Helvetica,sans-Serif" font-size="10.00">StatisticsObject::numFrames</text>
</a>
</g>
</g>
<!-- Node2&#45;&gt;Node3 -->
<g id="edge2" class="edge"><title>Node2&#45;&gt;Node3</title>
<path fill="none" stroke="midnightblue" d="M236.169,-123.149C254.587,-137.927 292.012,-166.17 328,-182.5 334.188,-185.308 340.852,-187.792 347.555,-189.968"/>
<polygon fill="midnightblue" stroke="midnightblue" points="346.768,-193.387 357.354,-192.94 348.8,-186.688 346.768,-193.387"/>
</g>
<!-- Node5 -->
<g id="node5" class="node"><title>Node5</title>
<g id="a_node5"><a xlink:href="classStatisticsObject.html#a9d90fa9d1b1373e6f93a9839c757739a" target="_top" xlink:title="StatisticsObject::internal\lScaleFactor">
<polygon fill="white" stroke="black" points="341,-142.5 341,-172.5 465,-172.5 465,-142.5 341,-142.5"/>
<text text-anchor="start" x="349" y="-160.5" font-family="Helvetica,sans-Serif" font-size="10.00">StatisticsObject::internal</text>
<text text-anchor="middle" x="403" y="-149.5" font-family="Helvetica,sans-Serif" font-size="10.00">ScaleFactor</text>
</a>
</g>
</g>
<!-- Node2&#45;&gt;Node5 -->
<g id="edge4" class="edge"><title>Node2&#45;&gt;Node5</title>
<path fill="none" stroke="midnightblue" d="M263.015,-123.047C282.999,-128.001 308.051,-134.211 331.361,-139.99"/>
<polygon fill="midnightblue" stroke="midnightblue" points="330.677,-143.426 341.225,-142.435 332.361,-136.631 330.677,-143.426"/>
</g>
<!-- Node7 -->
<g id="node7" class="node"><title>Node7</title>
<g id="a_node7"><a xlink:href="classDisplayObject.html#afb3b221174f722f563e7bf55a1ddb29f" target="_top" xlink:title="DisplayObject::width">
<polygon fill="white" stroke="black" points="349.5,-104 349.5,-123 456.5,-123 456.5,-104 349.5,-104"/>
<text text-anchor="middle" x="403" y="-111" font-family="Helvetica,sans-Serif" font-size="10.00">DisplayObject::width</text>
</a>
</g>
</g>
<!-- Node2&#45;&gt;Node7 -->
<g id="edge6" class="edge"><title>Node2&#45;&gt;Node7</title>
<path fill="none" stroke="midnightblue" d="M292.111,-113.5C307.554,-113.5 323.904,-113.5 339.138,-113.5"/>
<polygon fill="midnightblue" stroke="midnightblue" points="339.481,-117 349.481,-113.5 339.481,-110 339.481,-117"/>
</g>
<!-- Node8 -->
<g id="node8" class="node"><title>Node8</title>
<g id="a_node8"><a xlink:href="classDisplayObject.html#a814782fb1bf9e7a2ed7adab74872c08a" target="_top" xlink:title="DisplayObject::height">
<polygon fill="white" stroke="black" points="348,-66 348,-85 458,-85 458,-66 348,-66"/>
<text text-anchor="middle" x="403" y="-73" font-family="Helvetica,sans-Serif" font-size="10.00">DisplayObject::height</text>
</a>
</g>
</g>
<!-- Node2&#45;&gt;Node8 -->
<g id="edge7" class="edge"><title>Node2&#45;&gt;Node8</title>
<path fill="none" stroke="midnightblue" d="M269.291,-103.911C293.03,-98.8287 322.384,-92.5446 347.444,-87.1797"/>
<polygon fill="midnightblue" stroke="midnightblue" points="348.486,-90.536 357.531,-85.0201 347.02,-83.6911 348.486,-90.536"/>
</g>
<!-- Node9 -->
<g id="node9" class="node"><title>Node9</title>
<g id="a_node9"><a xlink:href="classstatisticSource.html#a97118da6546c479004129b4fcc6851bf" target="_top" xlink:title="statisticSource::drawStatistics">
<polygon fill="white" stroke="black" points="328,-28 328,-47 478,-47 478,-28 328,-28"/>
<text text-anchor="middle" x="403" y="-35" font-family="Helvetica,sans-Serif" font-size="10.00">statisticSource::drawStatistics</text>
</a>
</g>
</g>
<!-- Node2&#45;&gt;Node9 -->
<g id="edge8" class="edge"><title>Node2&#45;&gt;Node9</title>
<path fill="none" stroke="midnightblue" d="M239.005,-103.965C258.516,-91.5067 294.627,-69.7276 328,-56.5 334.214,-54.0372 340.848,-51.8078 347.497,-49.8153"/>
<polygon fill="midnightblue" stroke="midnightblue" points="348.535,-53.1593 357.202,-47.0661 346.627,-46.4243 348.535,-53.1593"/>
</g>
<!-- Node4 -->
<g id="node4" class="node"><title>Node4</title>
<g id="a_node4"><a xlink:href="classstatisticSource.html#a49d2c60f7ce52592509c07fdc9d8e268" target="_top" xlink:title="statisticSource::getNumber\lFrames">
<polygon fill="white" stroke="black" points="521,-189.5 521,-219.5 657,-219.5 657,-189.5 521,-189.5"/>
<text text-anchor="start" x="529" y="-207.5" font-family="Helvetica,sans-Serif" font-size="10.00">statisticSource::getNumber</text>
<text text-anchor="middle" x="589" y="-196.5" font-family="Helvetica,sans-Serif" font-size="10.00">Frames</text>
</a>
</g>
</g>
<!-- Node3&#45;&gt;Node4 -->
<g id="edge3" class="edge"><title>Node3&#45;&gt;Node4</title>
<path fill="none" stroke="midnightblue" d="M475.139,-203.273C486.793,-203.4 498.919,-203.532 510.714,-203.66"/>
<polygon fill="midnightblue" stroke="midnightblue" points="510.935,-207.162 520.973,-203.771 511.012,-200.163 510.935,-207.162"/>
</g>
<!-- Node6 -->
<g id="node6" class="node"><title>Node6</title>
<g id="a_node6"><a xlink:href="classstatisticSource.html#ab919493c131a2f9b26c1c212c05ad223" target="_top" xlink:title="statisticSource::internal\lScaleFactor">
<polygon fill="white" stroke="black" points="529.5,-140.5 529.5,-170.5 648.5,-170.5 648.5,-140.5 529.5,-140.5"/>
<text text-anchor="start" x="537.5" y="-158.5" font-family="Helvetica,sans-Serif" font-size="10.00">statisticSource::internal</text>
<text text-anchor="middle" x="589" y="-147.5" font-family="Helvetica,sans-Serif" font-size="10.00">ScaleFactor</text>
</a>
</g>
</g>
<!-- Node5&#45;&gt;Node6 -->
<g id="edge5" class="edge"><title>Node5&#45;&gt;Node6</title>
<path fill="none" stroke="midnightblue" d="M465.014,-156.837C482.328,-156.649 501.301,-156.442 519.05,-156.249"/>
<polygon fill="midnightblue" stroke="midnightblue" points="519.376,-159.746 529.338,-156.138 519.3,-152.747 519.376,-159.746"/>
</g>
<!-- Node10 -->
<g id="node10" class="node"><title>Node10</title>
<g id="a_node10"><a xlink:href="classstatisticSource.html#a666dee63c406a9b88484286b2a8e08f4" target="_top" xlink:title="statisticSource::getStatistics">
<polygon fill="white" stroke="black" points="517.5,-50 517.5,-69 660.5,-69 660.5,-50 517.5,-50"/>
<text text-anchor="middle" x="589" y="-57" font-family="Helvetica,sans-Serif" font-size="10.00">statisticSource::getStatistics</text>
</a>
</g>
</g>
<!-- Node9&#45;&gt;Node10 -->
<g id="edge9" class="edge"><title>Node9&#45;&gt;Node10</title>
<path fill="none" stroke="midnightblue" d="M478.044,-46.3531C487.679,-47.5052 497.588,-48.6899 507.324,-49.854"/>
<polygon fill="midnightblue" stroke="midnightblue" points="507.045,-53.3455 517.39,-51.0575 507.876,-46.395 507.045,-53.3455"/>
</g>
<!-- Node12 -->
<g id="node12" class="node"><title>Node12</title>
<g id="a_node12"><a xlink:href="classstatisticSource.html#af005d063b46b611d6166d4d8439d6245" target="_top" xlink:title="statisticSource::drawStatistics\lImage">
<polygon fill="white" stroke="black" points="514,-0.5 514,-30.5 664,-30.5 664,-0.5 514,-0.5"/>
<text text-anchor="start" x="522" y="-18.5" font-family="Helvetica,sans-Serif" font-size="10.00">statisticSource::drawStatistics</text>
<text text-anchor="middle" x="589" y="-7.5" font-family="Helvetica,sans-Serif" font-size="10.00">Image</text>
</a>
</g>
</g>
<!-- Node9&#45;&gt;Node12 -->
<g id="edge11" class="edge"><title>Node9&#45;&gt;Node12</title>
<path fill="none" stroke="midnightblue" d="M478.044,-28.6469C486.514,-27.6342 495.195,-26.5963 503.784,-25.5693"/>
<polygon fill="midnightblue" stroke="midnightblue" points="504.294,-29.0334 513.808,-24.3708 503.463,-22.0829 504.294,-29.0334"/>
</g>
<!-- Node11 -->
<g id="node11" class="node"><title>Node11</title>
<g id="a_node11"><a xlink:href="classstatisticSource.html#a769e0ef8bb1427d4d586425956ebfca2" target="_top" xlink:title="statisticSource::loadStatistic\lToCache">
<polygon fill="white" stroke="black" points="700,-44.5 700,-74.5 842,-74.5 842,-44.5 700,-44.5"/>
<text text-anchor="start" x="708" y="-62.5" font-family="Helvetica,sans-Serif" font-size="10.00">statisticSource::loadStatistic</text>
<text text-anchor="middle" x="771" y="-51.5" font-family="Helvetica,sans-Serif" font-size="10.00">ToCache</text>
</a>
</g>
</g>
<!-- Node10&#45;&gt;Node11 -->
<g id="edge10" class="edge"><title>Node10&#45;&gt;Node11</title>
<path fill="none" stroke="midnightblue" d="M660.624,-59.5C670.2,-59.5 680.083,-59.5 689.812,-59.5"/>
<polygon fill="midnightblue" stroke="midnightblue" points="689.875,-63.0001 699.875,-59.5 689.875,-56.0001 689.875,-63.0001"/>
</g>
<!-- Node13 -->
<g id="node13" class="node"><title>Node13</title>
<g id="a_node13"><a xlink:href="statisticSource_8cpp.html#a00b2533858fa82f16ddb39544cfff2b4" target="_top" xlink:title="rotateVector">
<polygon fill="white" stroke="black" points="736,-6 736,-25 806,-25 806,-6 736,-6"/>
<text text-anchor="middle" x="771" y="-13" font-family="Helvetica,sans-Serif" font-size="10.00">rotateVector</text>
</a>
</g>
</g>
<!-- Node12&#45;&gt;Node13 -->
<g id="edge12" class="edge"><title>Node12&#45;&gt;Node13</title>
<path fill="none" stroke="midnightblue" d="M664.252,-15.5C685.073,-15.5 707.055,-15.5 725.551,-15.5"/>
<polygon fill="midnightblue" stroke="midnightblue" points="725.72,-19.0001 735.72,-15.5 725.72,-12.0001 725.72,-19.0001"/>
</g>
</g>
</svg>
