<?xml version="1.0" encoding="UTF-8" standalone="no"?>
<!DOCTYPE svg PUBLIC "-//W3C//DTD SVG 1.1//EN"
 "http://www.w3.org/Graphics/SVG/1.1/DTD/svg11.dtd">
<!-- Generated by graphviz version 2.38.0 (20140413.2041)
 -->
<!-- Title: StatisticsObject::getStatisticsTypeList Pages: 1 -->
<svg width="904pt" height="197pt"
 viewBox="0.00 0.00 904.00 197.44" xmlns="http://www.w3.org/2000/svg" xmlns:xlink="http://www.w3.org/1999/xlink">
<g id="graph0" class="graph" transform="scale(1 1) rotate(0) translate(4 193.442)">
<title>StatisticsObject::getStatisticsTypeList</title>
<polygon fill="white" stroke="none" points="-4,4 -4,-193.442 900,-193.442 900,4 -4,4"/>
<!-- Node1 -->
<g id="node1" class="node"><title>Node1</title>
<polygon fill="#bfbfbf" stroke="black" points="0,-107.518 0,-137.518 147,-137.518 147,-107.518 0,-107.518"/>
<text text-anchor="start" x="8" y="-125.518" font-family="Helvetica,sans-Serif" font-size="10.00">StatisticsObject::getStatistics</text>
<text text-anchor="middle" x="73.5" y="-114.518" font-family="Helvetica,sans-Serif" font-size="10.00">TypeList</text>
</g>
<!-- Node2 -->
<g id="node2" class="node"><title>Node2</title>
<g id="a_node2"><a xlink:href="classMainWindow.html#a88624964fbb9d67df9149b29fab6f225" target="_top" xlink:title="MainWindow::savePlaylist\lToFile">
<polygon fill="white" stroke="black" points="190,-151.518 190,-181.518 322,-181.518 322,-151.518 190,-151.518"/>
<text text-anchor="start" x="198" y="-169.518" font-family="Helvetica,sans-Serif" font-size="10.00">MainWindow::savePlaylist</text>
<text text-anchor="middle" x="256" y="-158.518" font-family="Helvetica,sans-Serif" font-size="10.00">ToFile</text>
</a>
</g>
</g>
<!-- Node1&#45;&gt;Node2 -->
<g id="edge1" class="edge"><title>Node1&#45;&gt;Node2</title>
<path fill="none" stroke="midnightblue" d="M146.23,-140.004C161.826,-143.805 178.193,-147.795 193.358,-151.492"/>
<polygon fill="midnightblue" stroke="midnightblue" points="146.657,-136.505 136.113,-137.537 145,-143.306 146.657,-136.505"/>
</g>
<!-- Node6 -->
<g id="node6" class="node"><title>Node6</title>
<g id="a_node6"><a xlink:href="classMainWindow.html#a6f33e93f427ff2df80edffcb3ad944da" target="_top" xlink:title="MainWindow::updateSelected\lItems">
<polygon fill="white" stroke="black" points="183,-63.5182 183,-93.5182 329,-93.5182 329,-63.5182 183,-63.5182"/>
<text text-anchor="start" x="191" y="-81.5182" font-family="Helvetica,sans-Serif" font-size="10.00">MainWindow::updateSelected</text>
<text text-anchor="middle" x="256" y="-70.5182" font-family="Helvetica,sans-Serif" font-size="10.00">Items</text>
</a>
</g>
</g>
<!-- Node1&#45;&gt;Node6 -->
<g id="edge5" class="edge"><title>Node1&#45;&gt;Node6</title>
<path fill="none" stroke="midnightblue" d="M146.23,-105.033C161.826,-101.231 178.193,-97.2412 193.358,-93.5444"/>
<polygon fill="midnightblue" stroke="midnightblue" points="145,-101.73 136.113,-107.499 146.657,-108.531 145,-101.73"/>
</g>
<!-- Node3 -->
<g id="node3" class="node"><title>Node3</title>
<g id="a_node3"><a xlink:href="classMainWindow.html#a9df7443ce5f907903438bb6a9abe9a33" target="_top" xlink:title="MainWindow::createMenusAnd\lActions">
<polygon fill="white" stroke="black" points="558,-151.518 558,-181.518 710,-181.518 710,-151.518 558,-151.518"/>
<text text-anchor="start" x="566" y="-169.518" font-family="Helvetica,sans-Serif" font-size="10.00">MainWindow::createMenusAnd</text>
<text text-anchor="middle" x="634" y="-158.518" font-family="Helvetica,sans-Serif" font-size="10.00">Actions</text>
</a>
</g>
</g>
<!-- Node2&#45;&gt;Node3 -->
<g id="edge2" class="edge"><title>Node2&#45;&gt;Node3</title>
<path fill="none" stroke="midnightblue" d="M332.15,-181.466C343.128,-183.146 354.327,-184.587 365,-185.518 427.872,-191.006 444.066,-190.237 507,-185.518 523.545,-184.278 541.211,-182.133 557.92,-179.721"/>
<polygon fill="midnightblue" stroke="midnightblue" points="332.579,-177.991 322.151,-179.864 331.471,-184.902 332.579,-177.991"/>
</g>
<!-- Node5 -->
<g id="node5" class="node"><title>Node5</title>
<g id="a_node5"><a xlink:href="classMainWindow.html#a4e20a4a065fbb0e4d3532a45a0a91425" target="_top" xlink:title="MainWindow::closeEvent">
<polygon fill="white" stroke="black" points="372,-157.018 372,-176.018 500,-176.018 500,-157.018 372,-157.018"/>
<text text-anchor="middle" x="436" y="-164.018" font-family="Helvetica,sans-Serif" font-size="10.00">MainWindow::closeEvent</text>
</a>
</g>
</g>
<!-- Node2&#45;&gt;Node5 -->
<g id="edge4" class="edge"><title>Node2&#45;&gt;Node5</title>
<path fill="none" stroke="midnightblue" d="M332.066,-166.518C345.34,-166.518 359.039,-166.518 371.94,-166.518"/>
<polygon fill="midnightblue" stroke="midnightblue" points="332.018,-163.018 322.018,-166.518 332.018,-170.018 332.018,-163.018"/>
</g>
<!-- Node4 -->
<g id="node4" class="node"><title>Node4</title>
<g id="a_node4"><a xlink:href="classMainWindow.html#a8b244be8b7b7db1b08de2a2acb9409db" target="_top" xlink:title="MainWindow::MainWindow">
<polygon fill="white" stroke="black" points="761,-69.0182 761,-88.0182 896,-88.0182 896,-69.0182 761,-69.0182"/>
<text text-anchor="middle" x="828.5" y="-76.0182" font-family="Helvetica,sans-Serif" font-size="10.00">MainWindow::MainWindow</text>
</a>
</g>
</g>
<!-- Node3&#45;&gt;Node4 -->
<g id="edge3" class="edge"><title>Node3&#45;&gt;Node4</title>
<path fill="none" stroke="midnightblue" d="M708.058,-148.117C713.861,-146.084 719.572,-143.884 725,-141.518 759.275,-126.579 795.731,-101.73 814.562,-88.1337"/>
<polygon fill="midnightblue" stroke="midnightblue" points="706.626,-144.904 698.241,-151.38 708.834,-151.547 706.626,-144.904"/>
</g>
<!-- Node6&#45;&gt;Node4 -->
<g id="edge6" class="edge"><title>Node6&#45;&gt;Node4</title>
<path fill="none" stroke="midnightblue" d="M303.515,-59.9856C388.646,-28.7488 574.594,27.0087 725,-15.5182 761.983,-25.9752 798.755,-53.9462 816.513,-68.8527"/>
<polygon fill="midnightblue" stroke="midnightblue" points="302.279,-56.711 294.129,-63.4809 304.722,-63.2709 302.279,-56.711"/>
</g>
<!-- Node7 -->
<g id="node7" class="node"><title>Node7</title>
<g id="a_node7"><a xlink:href="classMainWindow.html#a6be7246a1a0ecf5d1442bb1775c3d9b3" target="_top" xlink:title="MainWindow::addDifference\lSequence">
<polygon fill="white" stroke="black" points="366,-107.518 366,-137.518 506,-137.518 506,-107.518 366,-107.518"/>
<text text-anchor="start" x="374" y="-125.518" font-family="Helvetica,sans-Serif" font-size="10.00">MainWindow::addDifference</text>
<text text-anchor="middle" x="436" y="-114.518" font-family="Helvetica,sans-Serif" font-size="10.00">Sequence</text>
</a>
</g>
</g>
<!-- Node6&#45;&gt;Node7 -->
<g id="edge7" class="edge"><title>Node6&#45;&gt;Node7</title>
<path fill="none" stroke="midnightblue" d="M327.737,-96.0037C343.117,-99.8055 359.257,-103.795 374.212,-107.492"/>
<polygon fill="midnightblue" stroke="midnightblue" points="328.307,-92.5395 317.76,-93.5374 326.628,-99.3349 328.307,-92.5395"/>
</g>
<!-- Node9 -->
<g id="node9" class="node"><title>Node9</title>
<g id="a_node9"><a xlink:href="classMainWindow.html#af5ecc7c65080215b49b9d931c56c65c9" target="_top" xlink:title="MainWindow::editTextFrame">
<polygon fill="white" stroke="black" points="365,-69.0182 365,-88.0182 507,-88.0182 507,-69.0182 365,-69.0182"/>
<text text-anchor="middle" x="436" y="-76.0182" font-family="Helvetica,sans-Serif" font-size="10.00">MainWindow::editTextFrame</text>
</a>
</g>
</g>
<!-- Node6&#45;&gt;Node9 -->
<g id="edge11" class="edge"><title>Node6&#45;&gt;Node9</title>
<path fill="none" stroke="midnightblue" d="M339.42,-78.5182C347.894,-78.5182 356.449,-78.5182 364.774,-78.5182"/>
<polygon fill="midnightblue" stroke="midnightblue" points="339.143,-75.0183 329.143,-78.5182 339.143,-82.0183 339.143,-75.0183"/>
</g>
<!-- Node11 -->
<g id="node11" class="node"><title>Node11</title>
<g id="a_node11"><a xlink:href="classMainWindow.html#a156c29c6d7ab278e4246c88a0fcbe2f2" target="_top" xlink:title="MainWindow::updateSettings">
<polygon fill="white" stroke="black" points="562,-25.0182 562,-44.0182 706,-44.0182 706,-25.0182 562,-25.0182"/>
<text text-anchor="middle" x="634" y="-32.0182" font-family="Helvetica,sans-Serif" font-size="10.00">MainWindow::updateSettings</text>
</a>
</g>
</g>
<!-- Node6&#45;&gt;Node11 -->
<g id="edge15" class="edge"><title>Node6&#45;&gt;Node11</title>
<path fill="none" stroke="midnightblue" d="M339.326,-63.3234C347.979,-61.9392 356.66,-60.639 365,-59.5182 431.46,-50.5874 507.621,-43.8135 561.725,-39.5846"/>
<polygon fill="midnightblue" stroke="midnightblue" points="338.504,-59.9113 329.201,-64.9813 339.635,-66.8193 338.504,-59.9113"/>
</g>
<!-- Node7&#45;&gt;Node3 -->
<g id="edge8" class="edge"><title>Node7&#45;&gt;Node3</title>
<path fill="none" stroke="midnightblue" d="M513.923,-139.787C531.148,-143.653 549.284,-147.725 566.065,-151.492"/>
<polygon fill="midnightblue" stroke="midnightblue" points="514.428,-136.313 503.904,-137.537 512.894,-143.143 514.428,-136.313"/>
</g>
<!-- Node8 -->
<g id="node8" class="node"><title>Node8</title>
<g id="a_node8"><a xlink:href="classMainWindow.html#aaba5c236313378986c42c4a634c4cfb9" target="_top" xlink:title="MainWindow::onCustomContextMenu">
<polygon fill="white" stroke="black" points="543,-113.018 543,-132.018 725,-132.018 725,-113.018 543,-113.018"/>
<text text-anchor="middle" x="634" y="-120.018" font-family="Helvetica,sans-Serif" font-size="10.00">MainWindow::onCustomContextMenu</text>
</a>
</g>
</g>
<!-- Node7&#45;&gt;Node8 -->
<g id="edge9" class="edge"><title>Node7&#45;&gt;Node8</title>
<path fill="none" stroke="midnightblue" d="M516.276,-122.518C525.039,-122.518 534.009,-122.518 542.892,-122.518"/>
<polygon fill="midnightblue" stroke="midnightblue" points="516.102,-119.018 506.102,-122.518 516.102,-126.018 516.102,-119.018"/>
</g>
<!-- Node8&#45;&gt;Node4 -->
<g id="edge10" class="edge"><title>Node8&#45;&gt;Node4</title>
<path fill="none" stroke="midnightblue" d="M688.428,-110.75C700.463,-108.07 713.174,-105.217 725,-102.518 745.491,-97.8426 768.257,-92.5246 787.118,-88.0848"/>
<polygon fill="midnightblue" stroke="midnightblue" points="687.513,-107.368 678.51,-112.954 689.032,-114.201 687.513,-107.368"/>
</g>
<!-- Node9&#45;&gt;Node8 -->
<g id="edge12" class="edge"><title>Node9&#45;&gt;Node8</title>
<path fill="none" stroke="midnightblue" d="M488.902,-90.3131C506.115,-94.2132 525.378,-98.5652 543,-102.518 558.306,-105.952 575.082,-109.687 589.96,-112.99"/>
<polygon fill="midnightblue" stroke="midnightblue" points="489.559,-86.8732 479.032,-88.0755 488.011,-93.6999 489.559,-86.8732"/>
</g>
<!-- Node10 -->
<g id="node10" class="node"><title>Node10</title>
<g id="a_node10"><a xlink:href="classMainWindow.html#ab18c663524e2c130759c0ca960129ea4" target="_top" xlink:title="MainWindow::onItemDouble\lClicked">
<polygon fill="white" stroke="black" points="564,-63.5182 564,-93.5182 704,-93.5182 704,-63.5182 564,-63.5182"/>
<text text-anchor="start" x="572" y="-81.5182" font-family="Helvetica,sans-Serif" font-size="10.00">MainWindow::onItemDouble</text>
<text text-anchor="middle" x="634" y="-70.5182" font-family="Helvetica,sans-Serif" font-size="10.00">Clicked</text>
</a>
</g>
</g>
<!-- Node9&#45;&gt;Node10 -->
<g id="edge13" class="edge"><title>Node9&#45;&gt;Node10</title>
<path fill="none" stroke="midnightblue" d="M517.276,-78.5182C532.759,-78.5182 548.853,-78.5182 563.941,-78.5182"/>
<polygon fill="midnightblue" stroke="midnightblue" points="517.207,-75.0183 507.207,-78.5182 517.207,-82.0183 517.207,-75.0183"/>
</g>
<!-- Node10&#45;&gt;Node4 -->
<g id="edge14" class="edge"><title>Node10&#45;&gt;Node4</title>
<path fill="none" stroke="midnightblue" d="M714.283,-78.5182C729.747,-78.5182 745.815,-78.5182 760.82,-78.5182"/>
<polygon fill="midnightblue" stroke="midnightblue" points="714.225,-75.0183 704.225,-78.5182 714.225,-82.0183 714.225,-75.0183"/>
</g>
<!-- Node11&#45;&gt;Node4 -->
<g id="edge16" class="edge"><title>Node11&#45;&gt;Node4</title>
<path fill="none" stroke="midnightblue" d="M691.756,-46.219C702.796,-48.5745 714.27,-51.0777 725,-53.5182 746.433,-58.393 770.294,-64.1909 789.598,-68.9753"/>
<polygon fill="midnightblue" stroke="midnightblue" points="692.281,-42.7526 681.772,-44.1035 690.829,-49.6006 692.281,-42.7526"/>
</g>
</g>
</svg>
