<?xml version="1.0" encoding="UTF-8" standalone="no"?>
<!DOCTYPE svg PUBLIC "-//W3C//DTD SVG 1.1//EN"
 "http://www.w3.org/Graphics/SVG/1.1/DTD/svg11.dtd">
<!-- Generated by graphviz version 2.38.0 (20140413.2041)
 -->
<!-- Title: de265File::copyImgToByteArray Pages: 1 -->
<svg width="1017pt" height="72pt"
 viewBox="0.00 0.00 1017.00 71.50" xmlns="http://www.w3.org/2000/svg" xmlns:xlink="http://www.w3.org/1999/xlink">
<g id="graph0" class="graph" transform="scale(1 1) rotate(0) translate(4 67.5)">
<title>de265File::copyImgToByteArray</title>
<polygon fill="white" stroke="none" points="-4,4 -4,-67.5 1013,-67.5 1013,4 -4,4"/>
<!-- Node1 -->
<g id="node1" class="node"><title>Node1</title>
<polygon fill="#bfbfbf" stroke="black" points="0,-19.5 0,-49.5 134,-49.5 134,-19.5 0,-19.5"/>
<text text-anchor="start" x="8" y="-37.5" font-family="Helvetica,sans-Serif" font-size="10.00">de265File::copyImgToByte</text>
<text text-anchor="middle" x="67" y="-26.5" font-family="Helvetica,sans-Serif" font-size="10.00">Array</text>
</g>
<!-- Node2 -->
<g id="node2" class="node"><title>Node2</title>
<g id="a_node2"><a xlink:href="classde265File.html#a3c517644cd5710d54289b2cdba99babc" target="_top" xlink:title="de265File::copyImgTo444Buffer">
<polygon fill="white" stroke="black" points="170,-25 170,-44 325,-44 325,-25 170,-25"/>
<text text-anchor="middle" x="247.5" y="-32" font-family="Helvetica,sans-Serif" font-size="10.00">de265File::copyImgTo444Buffer</text>
</a>
</g>
</g>
<!-- Node1&#45;&gt;Node2 -->
<g id="edge1" class="edge"><title>Node1&#45;&gt;Node2</title>
<path fill="none" stroke="midnightblue" d="M144.399,-34.5C152.83,-34.5 161.417,-34.5 169.852,-34.5"/>
<polygon fill="midnightblue" stroke="midnightblue" points="144.213,-31.0001 134.213,-34.5 144.213,-38.0001 144.213,-31.0001"/>
</g>
<!-- Node3 -->
<g id="node3" class="node"><title>Node3</title>
<g id="a_node3"><a xlink:href="classde265File.html#af2a66d6d47d74d992f61da5048d90538" target="_top" xlink:title="de265File::decodeOnePicture">
<polygon fill="white" stroke="black" points="361,-25 361,-44 506,-44 506,-25 361,-25"/>
<text text-anchor="middle" x="433.5" y="-32" font-family="Helvetica,sans-Serif" font-size="10.00">de265File::decodeOnePicture</text>
</a>
</g>
</g>
<!-- Node2&#45;&gt;Node3 -->
<g id="edge2" class="edge"><title>Node2&#45;&gt;Node3</title>
<path fill="none" stroke="midnightblue" d="M335.249,-34.5C343.848,-34.5 352.508,-34.5 360.929,-34.5"/>
<polygon fill="midnightblue" stroke="midnightblue" points="335.2,-31.0001 325.2,-34.5 335.2,-38.0001 335.2,-31.0001"/>
</g>
<!-- Node4 -->
<g id="node4" class="node"><title>Node4</title>
<g id="a_node4"><a xlink:href="classde265File.html#afc2f00a9676e0b5c3fdd821619bda482" target="_top" xlink:title="de265File::de265File">
<polygon fill="white" stroke="black" points="738.5,-44 738.5,-63 845.5,-63 845.5,-44 738.5,-44"/>
<text text-anchor="middle" x="792" y="-51" font-family="Helvetica,sans-Serif" font-size="10.00">de265File::de265File</text>
</a>
</g>
</g>
<!-- Node3&#45;&gt;Node4 -->
<g id="edge3" class="edge"><title>Node3&#45;&gt;Node4</title>
<path fill="none" stroke="midnightblue" d="M516.511,-38.8709C584.813,-42.5111 680.038,-47.5862 738.495,-50.7017"/>
<polygon fill="midnightblue" stroke="midnightblue" points="516.386,-35.3593 506.214,-38.3221 516.014,-42.3494 516.386,-35.3593"/>
</g>
<!-- Node5 -->
<g id="node5" class="node"><title>Node5</title>
<g id="a_node5"><a xlink:href="classde265File.html#a948bfcc1b2c4ad6f0a3aa54b99f9553f" target="_top" xlink:title="de265File::backgroundDecoder">
<polygon fill="white" stroke="black" points="542,-6 542,-25 694,-25 694,-6 542,-6"/>
<text text-anchor="middle" x="618" y="-13" font-family="Helvetica,sans-Serif" font-size="10.00">de265File::backgroundDecoder</text>
</a>
</g>
</g>
<!-- Node3&#45;&gt;Node5 -->
<g id="edge4" class="edge"><title>Node3&#45;&gt;Node5</title>
<path fill="none" stroke="midnightblue" d="M516.138,-26.0007C524.745,-25.1046 533.468,-24.1965 541.995,-23.3088"/>
<polygon fill="midnightblue" stroke="midnightblue" points="515.689,-22.5285 506.105,-27.0452 516.414,-29.4908 515.689,-22.5285"/>
</g>
<!-- Node5&#45;&gt;Node4 -->
<g id="edge5" class="edge"><title>Node5&#45;&gt;Node4</title>
<path fill="none" stroke="midnightblue" d="M672.196,-27.2526C696.517,-32.6258 724.955,-38.9086 747.909,-43.9799"/>
<polygon fill="midnightblue" stroke="midnightblue" points="672.922,-23.8288 662.403,-25.089 671.412,-30.664 672.922,-23.8288"/>
</g>
<!-- Node6 -->
<g id="node6" class="node"><title>Node6</title>
<g id="a_node6"><a xlink:href="classde265File.html#a4778a7853c318063a9efd5f0990e79bf" target="_top" xlink:title="de265File::getOneFrame">
<polygon fill="white" stroke="black" points="730,-6 730,-25 854,-25 854,-6 730,-6"/>
<text text-anchor="middle" x="792" y="-13" font-family="Helvetica,sans-Serif" font-size="10.00">de265File::getOneFrame</text>
</a>
</g>
</g>
<!-- Node5&#45;&gt;Node6 -->
<g id="edge6" class="edge"><title>Node5&#45;&gt;Node6</title>
<path fill="none" stroke="midnightblue" d="M704.305,-15.5C712.942,-15.5 721.589,-15.5 729.896,-15.5"/>
<polygon fill="midnightblue" stroke="midnightblue" points="704.192,-12.0001 694.191,-15.5 704.191,-19.0001 704.192,-12.0001"/>
</g>
<!-- Node7 -->
<g id="node7" class="node"><title>Node7</title>
<g id="a_node7"><a xlink:href="classde265File.html#af878636f68cd2ee3a4dfc6b3b0169676" target="_top" xlink:title="de265File::loadStatistic\lToCache">
<polygon fill="white" stroke="black" points="890,-0.5 890,-30.5 1009,-30.5 1009,-0.5 890,-0.5"/>
<text text-anchor="start" x="898" y="-18.5" font-family="Helvetica,sans-Serif" font-size="10.00">de265File::loadStatistic</text>
<text text-anchor="middle" x="949.5" y="-7.5" font-family="Helvetica,sans-Serif" font-size="10.00">ToCache</text>
</a>
</g>
</g>
<!-- Node6&#45;&gt;Node7 -->
<g id="edge7" class="edge"><title>Node6&#45;&gt;Node7</title>
<path fill="none" stroke="midnightblue" d="M864.093,-15.5C872.747,-15.5 881.511,-15.5 889.954,-15.5"/>
<polygon fill="midnightblue" stroke="midnightblue" points="864.011,-12.0001 854.011,-15.5 864.011,-19.0001 864.011,-12.0001"/>
</g>
</g>
</svg>
