<?xml version="1.0" encoding="UTF-8" standalone="no"?>
<!DOCTYPE svg PUBLIC "-//W3C//DTD SVG 1.1//EN"
 "http://www.w3.org/Graphics/SVG/1.1/DTD/svg11.dtd">
<!-- Generated by graphviz version 2.38.0 (20140413.2041)
 -->
<!-- Title: MainWindow::deleteItem Pages: 1 -->
<svg width="522pt" height="78pt"
 viewBox="0.00 0.00 522.00 77.50" xmlns="http://www.w3.org/2000/svg" xmlns:xlink="http://www.w3.org/1999/xlink">
<g id="graph0" class="graph" transform="scale(1 1) rotate(0) translate(4 73.5)">
<title>MainWindow::deleteItem</title>
<polygon fill="white" stroke="none" points="-4,4 -4,-73.5 518,-73.5 518,4 -4,4"/>
<!-- Node1 -->
<g id="node1" class="node"><title>Node1</title>
<polygon fill="#bfbfbf" stroke="black" points="0,-22.5 0,-41.5 125,-41.5 125,-22.5 0,-22.5"/>
<text text-anchor="middle" x="62.5" y="-29.5" font-family="Helvetica,sans-Serif" font-size="10.00">MainWindow::deleteItem</text>
</g>
<!-- Node2 -->
<g id="node2" class="node"><title>Node2</title>
<g id="a_node2"><a xlink:href="classMainWindow.html#a9df7443ce5f907903438bb6a9abe9a33" target="_top" xlink:title="MainWindow::createMenusAnd\lActions">
<polygon fill="white" stroke="black" points="176,-39 176,-69 328,-69 328,-39 176,-39"/>
<text text-anchor="start" x="184" y="-57" font-family="Helvetica,sans-Serif" font-size="10.00">MainWindow::createMenusAnd</text>
<text text-anchor="middle" x="252" y="-46" font-family="Helvetica,sans-Serif" font-size="10.00">Actions</text>
</a>
</g>
</g>
<!-- Node1&#45;&gt;Node2 -->
<g id="edge1" class="edge"><title>Node1&#45;&gt;Node2</title>
<path fill="none" stroke="midnightblue" d="M135.202,-40.413C148.527,-41.9765 162.482,-43.6139 175.905,-45.1889"/>
<polygon fill="midnightblue" stroke="midnightblue" points="135.494,-36.9234 125.154,-39.2341 134.678,-43.8757 135.494,-36.9234"/>
</g>
<!-- Node4 -->
<g id="node4" class="node"><title>Node4</title>
<g id="a_node4"><a xlink:href="classMainWindow.html#aaba5c236313378986c42c4a634c4cfb9" target="_top" xlink:title="MainWindow::onCustomContextMenu">
<polygon fill="white" stroke="black" points="161,-0.5 161,-19.5 343,-19.5 343,-0.5 161,-0.5"/>
<text text-anchor="middle" x="252" y="-7.5" font-family="Helvetica,sans-Serif" font-size="10.00">MainWindow::onCustomContextMenu</text>
</a>
</g>
</g>
<!-- Node1&#45;&gt;Node4 -->
<g id="edge3" class="edge"><title>Node1&#45;&gt;Node4</title>
<path fill="none" stroke="midnightblue" d="M135.377,-23.5664C146.668,-22.2416 158.408,-20.8641 169.89,-19.5169"/>
<polygon fill="midnightblue" stroke="midnightblue" points="134.678,-20.1243 125.154,-24.7659 135.494,-27.0766 134.678,-20.1243"/>
</g>
<!-- Node3 -->
<g id="node3" class="node"><title>Node3</title>
<g id="a_node3"><a xlink:href="classMainWindow.html#a8b244be8b7b7db1b08de2a2acb9409db" target="_top" xlink:title="MainWindow::MainWindow">
<polygon fill="white" stroke="black" points="379,-22.5 379,-41.5 514,-41.5 514,-22.5 379,-22.5"/>
<text text-anchor="middle" x="446.5" y="-29.5" font-family="Helvetica,sans-Serif" font-size="10.00">MainWindow::MainWindow</text>
</a>
</g>
</g>
<!-- Node2&#45;&gt;Node3 -->
<g id="edge2" class="edge"><title>Node2&#45;&gt;Node3</title>
<path fill="none" stroke="midnightblue" d="M338.497,-44.2289C351.989,-42.6869 365.767,-41.1123 378.752,-39.6283"/>
<polygon fill="midnightblue" stroke="midnightblue" points="337.79,-40.7868 328.253,-45.3997 338.585,-47.7415 337.79,-40.7868"/>
</g>
<!-- Node4&#45;&gt;Node3 -->
<g id="edge4" class="edge"><title>Node4&#45;&gt;Node3</title>
<path fill="none" stroke="midnightblue" d="M346.363,-20.6701C357.339,-21.9244 368.365,-23.1845 378.869,-24.385"/>
<polygon fill="midnightblue" stroke="midnightblue" points="346.646,-17.1798 336.314,-19.5216 345.852,-24.1345 346.646,-17.1798"/>
</g>
</g>
</svg>
