<?xml version="1.0" encoding="UTF-8" standalone="no"?>
<!DOCTYPE svg PUBLIC "-//W3C//DTD SVG 1.1//EN"
 "http://www.w3.org/Graphics/SVG/1.1/DTD/svg11.dtd">
<!-- Generated by graphviz version 2.38.0 (20140413.2041)
 -->
<!-- Title: DifferenceObject::loadImage Pages: 1 -->
<!--zoomable 420 -->
<svg id="main" version="1.1" xmlns="http://www.w3.org/2000/svg" xmlns:xlink="http://www.w3.org/1999/xlink" xml:space="preserve" onload="init(evt)">
<style type="text/css"><![CDATA[
.edge:hover path { stroke: red; }
.edge:hover polygon { stroke: red; fill: red; }
]]></style>
<script type="text/javascript"><![CDATA[
var edges = document.getElementsByTagName('g');
if (edges && edges.length) {
  for (var i=0;i<edges.length;i++) {
    if (edges[i].id.substr(0,4)=='edge') {
      edges[i].setAttribute('class','edge');
    }
  }
}
]]></script>
        <defs>
                <circle id="rim" cx="0" cy="0" r="7"/>
                <circle id="rim2" cx="0" cy="0" r="3.5"/>
                <g id="zoomPlus">
                        <use xlink:href="#rim" fill="#404040">
                                <set attributeName="fill" to="#808080" begin="zoomplus.mouseover" end="zoomplus.mouseout"/>
                        </use>
                        <path d="M-4,0h8M0,-4v8" fill="none" stroke="white" stroke-width="1.5" pointer-events="none"/>
                </g>
                <g id="zoomMin">
                        <use xlink:href="#rim" fill="#404040">
                                <set attributeName="fill" to="#808080" begin="zoomminus.mouseover" end="zoomminus.mouseout"/>
                        </use>
                        <path d="M-4,0h8" fill="none" stroke="white" stroke-width="1.5" pointer-events="none"/>
                </g>
                <g id="dirArrow">
                        <path fill="none" stroke="white" stroke-width="1.5" d="M0,-3.0v7 M-2.5,-0.5L0,-3.0L2.5,-0.5"/>
                </g>
               <g id="resetDef">
                       <use xlink:href="#rim2" fill="#404040">
                               <set attributeName="fill" to="#808080" begin="reset.mouseover" end="reset.mouseout"/>
                       </use>
               </g>
        </defs>

<script type="text/javascript">
var viewWidth = 709;
var viewHeight = 420;
var sectionId = 'dynsection-4';
</script>
<script xlink:href="svgpan.js"/>
<svg id="graph" class="graph">
<g id="viewport">
<title>DifferenceObject::loadImage</title>
<polygon fill="white" stroke="none" points="-4,4 -4,-416 705,-416 705,4 -4,4"/>
<!-- Node1 -->
<g id="node1" class="node"><title>Node1</title>
<polygon fill="#bfbfbf" stroke="black" points="0,-190.5 0,-209.5 141,-209.5 141,-190.5 0,-190.5"/>
<text text-anchor="middle" x="70.5" y="-197.5" font-family="Helvetica,sans-Serif" font-size="10.00">DifferenceObject::loadImage</text>
</g>
<!-- Node2 -->
<g id="node2" class="node"><title>Node2</title>
<g id="a_node2"><a xlink:href="classDifferenceObject.html#a86467ed4a11dec1100ef08cfd6587d45" target="_top" xlink:title="DifferenceObject::numFrames">
<polygon fill="white" stroke="black" points="182.5,-392.5 182.5,-411.5 330.5,-411.5 330.5,-392.5 182.5,-392.5"/>
<text text-anchor="middle" x="256.5" y="-399.5" font-family="Helvetica,sans-Serif" font-size="10.00">DifferenceObject::numFrames</text>
</a>
</g>
</g>
<!-- Node1&#45;&gt;Node2 -->
<g id="edge1" class="edge"><title>Node1&#45;&gt;Node2</title>
<path fill="none" stroke="midnightblue" d="M74.1371,-209.792C82.9589,-240.587 114.471,-336.186 177,-383 179.501,-384.872 182.161,-386.563 184.934,-388.089"/>
<polygon fill="midnightblue" stroke="midnightblue" points="183.579,-391.319 194.116,-392.424 186.568,-384.989 183.579,-391.319"/>
</g>
<!-- Node5 -->
<g id="node5" class="node"><title>Node5</title>
<g id="a_node5"><a xlink:href="classFrameObject.html#a14aa70f40889c11f1b7e73c03144fc82" target="_top" xlink:title="FrameObject::getSource">
<polygon fill="white" stroke="black" points="195,-354.5 195,-373.5 318,-373.5 318,-354.5 195,-354.5"/>
<text text-anchor="middle" x="256.5" y="-361.5" font-family="Helvetica,sans-Serif" font-size="10.00">FrameObject::getSource</text>
</a>
</g>
</g>
<!-- Node1&#45;&gt;Node5 -->
<g id="edge4" class="edge"><title>Node1&#45;&gt;Node5</title>
<path fill="none" stroke="midnightblue" d="M76.1242,-209.82C88.6254,-235.3 125.644,-304.04 177,-340 183.18,-344.327 190.161,-347.891 197.347,-350.822"/>
<polygon fill="midnightblue" stroke="midnightblue" points="196.624,-354.285 207.218,-354.439 199.032,-347.712 196.624,-354.285"/>
</g>
<!-- Node6 -->
<g id="node6" class="node"><title>Node6</title>
<g id="a_node6"><a xlink:href="classYUVSource.html#a11ea64b650d6086177fa0f7a1f3f323d" target="_top" xlink:title="YUVSource::bitsPerSample">
<polygon fill="white" stroke="black" points="372,-114.5 372,-133.5 510,-133.5 510,-114.5 372,-114.5"/>
<text text-anchor="middle" x="441" y="-121.5" font-family="Helvetica,sans-Serif" font-size="10.00">YUVSource::bitsPerSample</text>
</a>
</g>
</g>
<!-- Node1&#45;&gt;Node6 -->
<g id="edge5" class="edge"><title>Node1&#45;&gt;Node6</title>
<path fill="none" stroke="midnightblue" d="M75.5782,-190.165C86.9929,-164.119 122.068,-93.5419 177,-67 240.629,-36.2562 267.542,-49.47 336,-67 367.134,-74.9726 398.967,-94.4145 419.07,-108.375"/>
<polygon fill="midnightblue" stroke="midnightblue" points="417.263,-111.385 427.437,-114.343 421.328,-105.686 417.263,-111.385"/>
</g>
<!-- Node8 -->
<g id="node8" class="node"><title>Node8</title>
<g id="a_node8"><a xlink:href="classYUVSource.html#a592ce352c789f4f5789b11e052b58a33" target="_top" xlink:title="YUVSource::pixelFormat">
<polygon fill="white" stroke="black" points="561,-278.5 561,-297.5 686,-297.5 686,-278.5 561,-278.5"/>
<text text-anchor="middle" x="623.5" y="-285.5" font-family="Helvetica,sans-Serif" font-size="10.00">YUVSource::pixelFormat</text>
</a>
</g>
</g>
<!-- Node1&#45;&gt;Node8 -->
<g id="edge11" class="edge"><title>Node1&#45;&gt;Node8</title>
<path fill="none" stroke="midnightblue" d="M81.8695,-209.607C99.703,-225.433 138.036,-256.48 177,-269 303.677,-309.706 461.07,-304.317 550.833,-296.38"/>
<polygon fill="midnightblue" stroke="midnightblue" points="551.267,-299.855 560.904,-295.453 550.626,-292.884 551.267,-299.855"/>
</g>
<!-- Node9 -->
<g id="node9" class="node"><title>Node9</title>
<g id="a_node9"><a xlink:href="classFrameObject.html#a34dc2eed371951b4ab0c1101afe2fc39" target="_top" xlink:title="FrameObject::pixelFormat">
<polygon fill="white" stroke="black" points="376,-316.5 376,-335.5 506,-335.5 506,-316.5 376,-316.5"/>
<text text-anchor="middle" x="441" y="-323.5" font-family="Helvetica,sans-Serif" font-size="10.00">FrameObject::pixelFormat</text>
</a>
</g>
</g>
<!-- Node1&#45;&gt;Node9 -->
<g id="edge8" class="edge"><title>Node1&#45;&gt;Node9</title>
<path fill="none" stroke="midnightblue" d="M78.0071,-209.777C92.7266,-230.958 130.912,-280.876 177,-302 236.322,-329.19 310.975,-333.565 365.575,-332.089"/>
<polygon fill="midnightblue" stroke="midnightblue" points="365.999,-335.577 375.873,-331.735 365.758,-328.581 365.999,-335.577"/>
</g>
<!-- Node10 -->
<g id="node10" class="node"><title>Node10</title>
<g id="a_node10"><a xlink:href="classYUVSource.html#aff9d7390aa2cdb93376c69ede52b1e30" target="_top" xlink:title="YUVSource::getOneFrame">
<polygon fill="white" stroke="black" points="189.5,-190.5 189.5,-209.5 323.5,-209.5 323.5,-190.5 189.5,-190.5"/>
<text text-anchor="middle" x="256.5" y="-197.5" font-family="Helvetica,sans-Serif" font-size="10.00">YUVSource::getOneFrame</text>
</a>
</g>
</g>
<!-- Node1&#45;&gt;Node10 -->
<g id="edge10" class="edge"><title>Node1&#45;&gt;Node10</title>
<path fill="none" stroke="midnightblue" d="M141.063,-200C153.59,-200 166.708,-200 179.409,-200"/>
<polygon fill="midnightblue" stroke="midnightblue" points="179.486,-203.5 189.486,-200 179.486,-196.5 179.486,-203.5"/>
</g>
<!-- Node11 -->
<g id="node11" class="node"><title>Node11</title>
<g id="a_node11"><a xlink:href="classDifferenceObject.html#aefdd72d579780077e6add94fac69d171" target="_top" xlink:title="DifferenceObject::subtract\lYUV444">
<polygon fill="white" stroke="black" points="191,-229 191,-259 322,-259 322,-229 191,-229"/>
<text text-anchor="start" x="199" y="-247" font-family="Helvetica,sans-Serif" font-size="10.00">DifferenceObject::subtract</text>
<text text-anchor="middle" x="256.5" y="-236" font-family="Helvetica,sans-Serif" font-size="10.00">YUV444</text>
</a>
</g>
</g>
<!-- Node1&#45;&gt;Node11 -->
<g id="edge12" class="edge"><title>Node1&#45;&gt;Node11</title>
<path fill="none" stroke="midnightblue" d="M111.425,-209.547C132.234,-214.523 158.342,-220.767 182.598,-226.567"/>
<polygon fill="midnightblue" stroke="midnightblue" points="181.96,-230.013 192.499,-228.935 183.588,-223.205 181.96,-230.013"/>
</g>
<!-- Node13 -->
<g id="node13" class="node"><title>Node13</title>
<g id="a_node13"><a xlink:href="classFrameObject.html#a3157b2afa82e71a5ebd93ac6dd25de6b" target="_top" xlink:title="FrameObject::doApplyYUVMath">
<polygon fill="white" stroke="black" points="178,-114.5 178,-133.5 335,-133.5 335,-114.5 178,-114.5"/>
<text text-anchor="middle" x="256.5" y="-121.5" font-family="Helvetica,sans-Serif" font-size="10.00">FrameObject::doApplyYUVMath</text>
</a>
</g>
</g>
<!-- Node1&#45;&gt;Node13 -->
<g id="edge15" class="edge"><title>Node1&#45;&gt;Node13</title>
<path fill="none" stroke="midnightblue" d="M86.2864,-190.412C106.176,-177.896 142.986,-156.052 177,-143 183.66,-140.444 190.773,-138.154 197.897,-136.124"/>
<polygon fill="midnightblue" stroke="midnightblue" points="198.829,-139.498 207.575,-133.518 197.009,-132.739 198.829,-139.498"/>
</g>
<!-- Node14 -->
<g id="node14" class="node"><title>Node14</title>
<g id="a_node14"><a xlink:href="classFrameObject.html#a38084be9c862db6fea97d202231144ec" target="_top" xlink:title="FrameObject::applyYUVMath">
<polygon fill="white" stroke="black" points="184,-152.5 184,-171.5 329,-171.5 329,-152.5 184,-152.5"/>
<text text-anchor="middle" x="256.5" y="-159.5" font-family="Helvetica,sans-Serif" font-size="10.00">FrameObject::applyYUVMath</text>
</a>
</g>
</g>
<!-- Node1&#45;&gt;Node14 -->
<g id="edge16" class="edge"><title>Node1&#45;&gt;Node14</title>
<path fill="none" stroke="midnightblue" d="M117.931,-190.411C142.649,-185.306 173.239,-178.989 199.292,-173.608"/>
<polygon fill="midnightblue" stroke="midnightblue" points="200.317,-176.97 209.403,-171.52 198.902,-170.115 200.317,-176.97"/>
</g>
<!-- Node15 -->
<g id="node15" class="node"><title>Node15</title>
<g id="a_node15"><a xlink:href="classFrameObject.html#acd2367ffa54180853cd3ee901aa85304" target="_top" xlink:title="FrameObject::convertYUV2RGB">
<polygon fill="white" stroke="black" points="177,-76.5 177,-95.5 336,-95.5 336,-76.5 177,-76.5"/>
<text text-anchor="middle" x="256.5" y="-83.5" font-family="Helvetica,sans-Serif" font-size="10.00">FrameObject::convertYUV2RGB</text>
</a>
</g>
</g>
<!-- Node1&#45;&gt;Node15 -->
<g id="edge18" class="edge"><title>Node1&#45;&gt;Node15</title>
<path fill="none" stroke="midnightblue" d="M79.3741,-190.207C95.5269,-170.804 134.486,-127.419 177,-105 181.459,-102.648 186.214,-100.583 191.094,-98.7688"/>
<polygon fill="midnightblue" stroke="midnightblue" points="192.221,-102.083 200.587,-95.582 189.993,-95.4465 192.221,-102.083"/>
</g>
<!-- Node16 -->
<g id="node16" class="node"><title>Node16</title>
<g id="a_node16"><a xlink:href="classDifferenceObject.html#a439e11946f44d8d3ea73d0738c522859" target="_top" xlink:title="DifferenceObject::mark">
<polygon fill="white" stroke="black" points="197.5,-0.5 197.5,-19.5 315.5,-19.5 315.5,-0.5 197.5,-0.5"/>
<text text-anchor="middle" x="256.5" y="-7.5" font-family="Helvetica,sans-Serif" font-size="10.00">DifferenceObject::mark</text>
</a>
</g>
</g>
<!-- Node1&#45;&gt;Node16 -->
<g id="edge20" class="edge"><title>Node1&#45;&gt;Node16</title>
<path fill="none" stroke="midnightblue" d="M74.8193,-190.461C85.1754,-162.113 119.671,-77.6431 177,-34 182.562,-29.7661 188.874,-26.2736 195.444,-23.3938"/>
<polygon fill="midnightblue" stroke="midnightblue" points="197.149,-26.4862 205.199,-19.598 194.61,-19.9627 197.149,-26.4862"/>
</g>
<!-- Node3 -->
<g id="node3" class="node"><title>Node3</title>
<g id="a_node3"><a xlink:href="classFrameObject.html#a1069def130e7deac035f166084ae4ca8" target="_top" xlink:title="FrameObject::numFrames">
<polygon fill="white" stroke="black" points="375.5,-392.5 375.5,-411.5 506.5,-411.5 506.5,-392.5 375.5,-392.5"/>
<text text-anchor="middle" x="441" y="-399.5" font-family="Helvetica,sans-Serif" font-size="10.00">FrameObject::numFrames</text>
</a>
</g>
</g>
<!-- Node2&#45;&gt;Node3 -->
<g id="edge2" class="edge"><title>Node2&#45;&gt;Node3</title>
<path fill="none" stroke="midnightblue" d="M330.678,-402C341.991,-402 353.69,-402 365.041,-402"/>
<polygon fill="midnightblue" stroke="midnightblue" points="365.346,-405.5 375.346,-402 365.346,-398.5 365.346,-405.5"/>
</g>
<!-- Node4 -->
<g id="node4" class="node"><title>Node4</title>
<g id="a_node4"><a xlink:href="classYUVSource.html#afaf713d38c871df33f6e28e9d589c86c" target="_top" xlink:title="YUVSource::getNumberFrames">
<polygon fill="white" stroke="black" points="546,-392.5 546,-411.5 701,-411.5 701,-392.5 546,-392.5"/>
<text text-anchor="middle" x="623.5" y="-399.5" font-family="Helvetica,sans-Serif" font-size="10.00">YUVSource::getNumberFrames</text>
</a>
</g>
</g>
<!-- Node3&#45;&gt;Node4 -->
<g id="edge3" class="edge"><title>Node3&#45;&gt;Node4</title>
<path fill="none" stroke="midnightblue" d="M506.655,-402C516.115,-402 525.983,-402 535.796,-402"/>
<polygon fill="midnightblue" stroke="midnightblue" points="535.982,-405.5 545.982,-402 535.982,-398.5 535.982,-405.5"/>
</g>
<!-- Node7 -->
<g id="node7" class="node"><title>Node7</title>
<g id="a_node7"><a xlink:href="classYUVSource.html#a7e554f2c626688704099e00cc4ece029" target="_top" xlink:title="YUVSource::pixelFormatList">
<polygon fill="white" stroke="black" points="553,-114.5 553,-133.5 694,-133.5 694,-114.5 553,-114.5"/>
<text text-anchor="middle" x="623.5" y="-121.5" font-family="Helvetica,sans-Serif" font-size="10.00">YUVSource::pixelFormatList</text>
</a>
</g>
</g>
<!-- Node6&#45;&gt;Node7 -->
<g id="edge6" class="edge"><title>Node6&#45;&gt;Node7</title>
<path fill="none" stroke="midnightblue" d="M510.239,-124C520.831,-124 531.853,-124 542.673,-124"/>
<polygon fill="midnightblue" stroke="midnightblue" points="542.964,-127.5 552.964,-124 542.964,-120.5 542.964,-127.5"/>
</g>
<!-- Node6&#45;&gt;Node8 -->
<g id="edge7" class="edge"><title>Node6&#45;&gt;Node8</title>
<path fill="none" stroke="midnightblue" d="M452.485,-133.526C482.143,-160.474 566.909,-237.491 604.348,-271.508"/>
<polygon fill="midnightblue" stroke="midnightblue" points="602.231,-274.313 611.986,-278.448 606.939,-269.132 602.231,-274.313"/>
</g>
<!-- Node9&#45;&gt;Node8 -->
<g id="edge9" class="edge"><title>Node9&#45;&gt;Node8</title>
<path fill="none" stroke="midnightblue" d="M487.548,-316.411C511.796,-311.306 541.804,-304.989 567.361,-299.608"/>
<polygon fill="midnightblue" stroke="midnightblue" points="568.215,-303.005 577.28,-297.52 566.773,-296.155 568.215,-303.005"/>
</g>
<!-- Node11&#45;&gt;Node6 -->
<g id="edge13" class="edge"><title>Node11&#45;&gt;Node6</title>
<path fill="none" stroke="midnightblue" d="M314.92,-228.929C322.228,-226.09 329.438,-222.795 336,-219 372.444,-197.927 406.903,-162.237 425.566,-141.117"/>
<polygon fill="midnightblue" stroke="midnightblue" points="428.225,-143.394 432.131,-133.545 422.936,-138.808 428.225,-143.394"/>
</g>
<!-- Node12 -->
<g id="node12" class="node"><title>Node12</title>
<g id="a_node12"><a xlink:href="typedef_8h.html#a9aaa34d570ccff65aa586904187cfff5" target="_top" xlink:title="clip">
<polygon fill="white" stroke="black" points="425,-234.5 425,-253.5 457,-253.5 457,-234.5 425,-234.5"/>
<text text-anchor="middle" x="441" y="-241.5" font-family="Helvetica,sans-Serif" font-size="10.00">clip</text>
</a>
</g>
</g>
<!-- Node11&#45;&gt;Node12 -->
<g id="edge14" class="edge"><title>Node11&#45;&gt;Node12</title>
<path fill="none" stroke="midnightblue" d="M322.1,-244C353.966,-244 390.587,-244 414.449,-244"/>
<polygon fill="midnightblue" stroke="midnightblue" points="414.757,-247.5 424.756,-244 414.756,-240.5 414.757,-247.5"/>
</g>
<!-- Node14&#45;&gt;Node6 -->
<g id="edge17" class="edge"><title>Node14&#45;&gt;Node6</title>
<path fill="none" stroke="midnightblue" d="M303.552,-152.411C328.069,-147.306 358.41,-140.989 384.25,-135.608"/>
<polygon fill="midnightblue" stroke="midnightblue" points="385.202,-138.985 394.279,-133.52 383.775,-132.132 385.202,-138.985"/>
</g>
<!-- Node15&#45;&gt;Node6 -->
<g id="edge19" class="edge"><title>Node15&#45;&gt;Node6</title>
<path fill="none" stroke="midnightblue" d="M303.552,-95.589C328.069,-100.694 358.41,-107.011 384.25,-112.392"/>
<polygon fill="midnightblue" stroke="midnightblue" points="383.775,-115.868 394.279,-114.48 385.202,-109.015 383.775,-115.868"/>
</g>
<!-- Node16&#45;&gt;Node6 -->
<g id="edge21" class="edge"><title>Node16&#45;&gt;Node6</title>
<path fill="none" stroke="midnightblue" d="M300.369,-19.6023C312.319,-23.2001 325.025,-27.9322 336,-34 371.447,-53.597 405.58,-86.7386 424.578,-106.871"/>
<polygon fill="midnightblue" stroke="midnightblue" points="422.17,-109.422 431.532,-114.382 427.307,-104.666 422.17,-109.422"/>
</g>
</g>
</svg>
        <g id="navigator" transform="translate(0 0)" fill="#404254">
                <rect fill="#f2f5e9" fill-opacity="0.5" stroke="#606060" stroke-width=".5" x="0" y="0" width="60" height="60"/>
                <use id="zoomplus" xlink:href="#zoomPlus" x="17" y="9" onmousedown="handleZoom(evt,'in')"/>
                <use id="zoomminus" xlink:href="#zoomMin" x="42" y="9" onmousedown="handleZoom(evt,'out')"/>
                <use id="reset" xlink:href="#resetDef" x="30" y="36" onmousedown="handleReset()"/>
                <g id="arrowUp" xlink:href="#dirArrow" transform="translate(30 24)" onmousedown="handlePan(0,-1)">
                  <use xlink:href="#rim" fill="#404040">
                        <set attributeName="fill" to="#808080" begin="arrowUp.mouseover" end="arrowUp.mouseout"/>
                  </use>
                  <path fill="none" stroke="white" stroke-width="1.5" d="M0,-3.0v7 M-2.5,-0.5L0,-3.0L2.5,-0.5"/>
                </g>
                <g id="arrowRight" xlink:href="#dirArrow" transform="rotate(90) translate(36 -43)" onmousedown="handlePan(1,0)">
                  <use xlink:href="#rim" fill="#404040">
                        <set attributeName="fill" to="#808080" begin="arrowRight.mouseover" end="arrowRight.mouseout"/>
                  </use>
                  <path fill="none" stroke="white" stroke-width="1.5" d="M0,-3.0v7 M-2.5,-0.5L0,-3.0L2.5,-0.5"/>
                </g>
                <g id="arrowDown" xlink:href="#dirArrow" transform="rotate(180) translate(-30 -48)" onmousedown="handlePan(0,1)">
                  <use xlink:href="#rim" fill="#404040">
                        <set attributeName="fill" to="#808080" begin="arrowDown.mouseover" end="arrowDown.mouseout"/>
                  </use>
                  <path fill="none" stroke="white" stroke-width="1.5" d="M0,-3.0v7 M-2.5,-0.5L0,-3.0L2.5,-0.5"/>
                </g>
                <g id="arrowLeft" xlink:href="#dirArrow" transform="rotate(270) translate(-36 17)" onmousedown="handlePan(-1,0)">
                  <use xlink:href="#rim" fill="#404040">
                        <set attributeName="fill" to="#808080" begin="arrowLeft.mouseover" end="arrowLeft.mouseout"/>
                  </use>
                  <path fill="none" stroke="white" stroke-width="1.5" d="M0,-3.0v7 M-2.5,-0.5L0,-3.0L2.5,-0.5"/>
                </g>
        </g>
        <svg viewBox="0 0 15 15" width="100%" height="30px" preserveAspectRatio="xMaxYMin meet">
         <g id="arrow_out" transform="scale(0.3 0.3)">
          <a xlink:href="classDifferenceObject_acb2a437aedc3f3a4400c394d0330afc0_cgraph_org.svg" target="_base">
           <rect id="button" ry="5" rx="5" y="6" x="6" height="38" width="38"
                fill="#f2f5e9" fill-opacity="0.5" stroke="#606060" stroke-width="1.0"/>
           <path id="arrow"
             d="M 11.500037,31.436501 C 11.940474,20.09759 22.043105,11.32322 32.158766,21.979434 L 37.068811,17.246167 C 37.068811,17.246167 37.088388,32 37.088388,32 L 22.160133,31.978069 C 22.160133,31.978069 26.997745,27.140456 26.997745,27.140456 C 18.528582,18.264221 13.291696,25.230495 11.500037,31.436501 z"
             style="fill:#404040;"/>
          </a>
         </g>
        </svg>
</svg>
