<?xml version="1.0" encoding="UTF-8" standalone="no"?>
<!DOCTYPE svg PUBLIC "-//W3C//DTD SVG 1.1//EN"
 "http://www.w3.org/Graphics/SVG/1.1/DTD/svg11.dtd">
<!-- Generated by graphviz version 2.38.0 (20140413.2041)
 -->
<!-- Title: YUVSource::setInterpolationMode Pages: 1 -->
<svg width="579pt" height="39pt"
 viewBox="0.00 0.00 579.00 39.00" xmlns="http://www.w3.org/2000/svg" xmlns:xlink="http://www.w3.org/1999/xlink">
<g id="graph0" class="graph" transform="scale(1 1) rotate(0) translate(4 35)">
<title>YUVSource::setInterpolationMode</title>
<polygon fill="white" stroke="none" points="-4,4 -4,-35 575,-35 575,4 -4,4"/>
<!-- Node1 -->
<g id="node1" class="node"><title>Node1</title>
<polygon fill="#bfbfbf" stroke="black" points="0,-6 0,-25 165,-25 165,-6 0,-6"/>
<text text-anchor="middle" x="82.5" y="-13" font-family="Helvetica,sans-Serif" font-size="10.00">YUVSource::setInterpolationMode</text>
</g>
<!-- Node2 -->
<g id="node2" class="node"><title>Node2</title>
<g id="a_node2"><a xlink:href="classFrameObject.html#a75047fbb8bc09a65e318550143c2fdd1" target="_top" xlink:title="FrameObject::setInterpolationMode">
<polygon fill="white" stroke="black" points="201,-6 201,-25 371,-25 371,-6 201,-6"/>
<text text-anchor="middle" x="286" y="-13" font-family="Helvetica,sans-Serif" font-size="10.00">FrameObject::setInterpolationMode</text>
</a>
</g>
</g>
<!-- Node1&#45;&gt;Node2 -->
<g id="edge1" class="edge"><title>Node1&#45;&gt;Node2</title>
<path fill="none" stroke="midnightblue" d="M175.179,-15.5C183.755,-15.5 192.419,-15.5 200.921,-15.5"/>
<polygon fill="midnightblue" stroke="midnightblue" points="175.167,-12.0001 165.167,-15.5 175.167,-19.0001 175.167,-12.0001"/>
</g>
<!-- Node3 -->
<g id="node3" class="node"><title>Node3</title>
<g id="a_node3"><a xlink:href="classMainWindow.html#a704745d0944b860342ac8bdb6867491c" target="_top" xlink:title="TODO: Should this also be in updateSelectionMetaInfo and the signal/slot? ">
<polygon fill="white" stroke="black" points="407,-0.5 407,-30.5 571,-30.5 571,-0.5 407,-0.5"/>
<text text-anchor="start" x="415" y="-18.5" font-family="Helvetica,sans-Serif" font-size="10.00">MainWindow::on_interpolation</text>
<text text-anchor="middle" x="489" y="-7.5" font-family="Helvetica,sans-Serif" font-size="10.00">ComboBox_currentIndexChanged</text>
</a>
</g>
</g>
<!-- Node2&#45;&gt;Node3 -->
<g id="edge2" class="edge"><title>Node2&#45;&gt;Node3</title>
<path fill="none" stroke="midnightblue" d="M381.121,-15.5C389.714,-15.5 398.369,-15.5 406.834,-15.5"/>
<polygon fill="midnightblue" stroke="midnightblue" points="381.078,-12.0001 371.077,-15.5 381.077,-19.0001 381.078,-12.0001"/>
</g>
</g>
</svg>
