<?xml version="1.0" encoding="UTF-8" standalone="no"?>
<!DOCTYPE svg PUBLIC "-//W3C//DTD SVG 1.1//EN"
 "http://www.w3.org/Graphics/SVG/1.1/DTD/svg11.dtd">
<!-- Generated by graphviz version 2.38.0 (20140413.2041)
 -->
<!-- Title: YUVSource::bytesPerFrame Pages: 1 -->
<!--zoomable 243 -->
<svg id="main" version="1.1" xmlns="http://www.w3.org/2000/svg" xmlns:xlink="http://www.w3.org/1999/xlink" xml:space="preserve" onload="init(evt)">
<style type="text/css"><![CDATA[
.edge:hover path { stroke: red; }
.edge:hover polygon { stroke: red; fill: red; }
]]></style>
<script type="text/javascript"><![CDATA[
var edges = document.getElementsByTagName('g');
if (edges && edges.length) {
  for (var i=0;i<edges.length;i++) {
    if (edges[i].id.substr(0,4)=='edge') {
      edges[i].setAttribute('class','edge');
    }
  }
}
]]></script>
        <defs>
                <circle id="rim" cx="0" cy="0" r="7"/>
                <circle id="rim2" cx="0" cy="0" r="3.5"/>
                <g id="zoomPlus">
                        <use xlink:href="#rim" fill="#404040">
                                <set attributeName="fill" to="#808080" begin="zoomplus.mouseover" end="zoomplus.mouseout"/>
                        </use>
                        <path d="M-4,0h8M0,-4v8" fill="none" stroke="white" stroke-width="1.5" pointer-events="none"/>
                </g>
                <g id="zoomMin">
                        <use xlink:href="#rim" fill="#404040">
                                <set attributeName="fill" to="#808080" begin="zoomminus.mouseover" end="zoomminus.mouseout"/>
                        </use>
                        <path d="M-4,0h8" fill="none" stroke="white" stroke-width="1.5" pointer-events="none"/>
                </g>
                <g id="dirArrow">
                        <path fill="none" stroke="white" stroke-width="1.5" d="M0,-3.0v7 M-2.5,-0.5L0,-3.0L2.5,-0.5"/>
                </g>
               <g id="resetDef">
                       <use xlink:href="#rim2" fill="#404040">
                               <set attributeName="fill" to="#808080" begin="reset.mouseover" end="reset.mouseout"/>
                       </use>
               </g>
        </defs>

<script type="text/javascript">
var viewWidth = 1217;
var viewHeight = 243;
var sectionId = 'dynsection-7';
</script>
<script xlink:href="svgpan.js"/>
<svg id="graph" class="graph">
<g id="viewport">
<title>YUVSource::bytesPerFrame</title>
<polygon fill="white" stroke="none" points="-4,4 -4,-238.5 1213,-238.5 1213,4 -4,4"/>
<!-- Node1 -->
<g id="node1" class="node"><title>Node1</title>
<polygon fill="#bfbfbf" stroke="black" points="0,-120 0,-139 141,-139 141,-120 0,-120"/>
<text text-anchor="middle" x="70.5" y="-127" font-family="Helvetica,sans-Serif" font-size="10.00">YUVSource::bytesPerFrame</text>
</g>
<!-- Node2 -->
<g id="node2" class="node"><title>Node2</title>
<g id="a_node2"><a xlink:href="classYUVFile.html#a1163bf311baeb46ba404b03b4b68d309" target="_top" xlink:title="YUVFile::isFormatValid">
<polygon fill="white" stroke="black" points="196,-215 196,-234 315,-234 315,-215 196,-215"/>
<text text-anchor="middle" x="255.5" y="-222" font-family="Helvetica,sans-Serif" font-size="10.00">YUVFile::isFormatValid</text>
</a>
</g>
</g>
<!-- Node1&#45;&gt;Node2 -->
<g id="edge1" class="edge"><title>Node1&#45;&gt;Node2</title>
<path fill="none" stroke="midnightblue" d="M89.6963,-146C109.697,-163.283 143.463,-190.024 177,-205.5 185.302,-209.331 194.474,-212.45 203.517,-214.968"/>
<polygon fill="midnightblue" stroke="midnightblue" points="91.8268,-143.213 82.0079,-139.233 87.2016,-148.467 91.8268,-143.213"/>
</g>
<!-- Node5 -->
<g id="node5" class="node"><title>Node5</title>
<g id="a_node5"><a xlink:href="classYUVFile.html#aaea54c44872c4fc8487bf6eee9f5ca44" target="_top" xlink:title="YUVFile::getNumberFrames">
<polygon fill="white" stroke="black" points="185.5,-177 185.5,-196 325.5,-196 325.5,-177 185.5,-177"/>
<text text-anchor="middle" x="255.5" y="-184" font-family="Helvetica,sans-Serif" font-size="10.00">YUVFile::getNumberFrames</text>
</a>
</g>
</g>
<!-- Node1&#45;&gt;Node5 -->
<g id="edge4" class="edge"><title>Node1&#45;&gt;Node5</title>
<path fill="none" stroke="midnightblue" d="M105.517,-142.783C126.041,-150.539 152.815,-160.202 177,-167.5 188.273,-170.902 200.604,-174.139 212.048,-176.946"/>
<polygon fill="midnightblue" stroke="midnightblue" points="106.573,-139.44 95.9819,-139.148 104.079,-145.981 106.573,-139.44"/>
</g>
<!-- Node6 -->
<g id="node6" class="node"><title>Node6</title>
<g id="a_node6"><a xlink:href="classYUVFile.html#a1146a0955f0959ef8bcb95e881bb5e37" target="_top" xlink:title="YUVFile::readFrame">
<polygon fill="white" stroke="black" points="202.5,-63 202.5,-82 308.5,-82 308.5,-63 202.5,-63"/>
<text text-anchor="middle" x="255.5" y="-70" font-family="Helvetica,sans-Serif" font-size="10.00">YUVFile::readFrame</text>
</a>
</g>
</g>
<!-- Node1&#45;&gt;Node6 -->
<g id="edge5" class="edge"><title>Node1&#45;&gt;Node6</title>
<path fill="none" stroke="midnightblue" d="M105.517,-116.217C126.041,-108.461 152.815,-98.7982 177,-91.5 188.273,-88.0982 200.604,-84.8607 212.048,-82.0535"/>
<polygon fill="midnightblue" stroke="midnightblue" points="104.079,-113.019 95.9819,-119.852 106.573,-119.56 104.079,-113.019"/>
</g>
<!-- Node8 -->
<g id="node8" class="node"><title>Node8</title>
<g id="a_node8"><a xlink:href="classYUVFile.html#a27f672eb848a0a43afa29afee6c3f02b" target="_top" xlink:title="YUVFile::formatFromFile">
<polygon fill="white" stroke="black" points="193,-139 193,-158 318,-158 318,-139 193,-139"/>
<text text-anchor="middle" x="255.5" y="-146" font-family="Helvetica,sans-Serif" font-size="10.00">YUVFile::formatFromFile</text>
</a>
</g>
</g>
<!-- Node1&#45;&gt;Node8 -->
<g id="edge7" class="edge"><title>Node1&#45;&gt;Node8</title>
<path fill="none" stroke="midnightblue" d="M151.252,-137.78C165.163,-139.225 179.443,-140.707 192.776,-142.091"/>
<polygon fill="midnightblue" stroke="midnightblue" points="151.515,-134.289 141.206,-136.737 150.792,-141.251 151.515,-134.289"/>
</g>
<!-- Node9 -->
<g id="node9" class="node"><title>Node9</title>
<g id="a_node9"><a xlink:href="classYUVFile.html#a6a2f0d64ea5ad721c96de27fdc2e2d60" target="_top" xlink:title="YUVFile::formatFromCorrelation">
<polygon fill="white" stroke="black" points="177,-101 177,-120 334,-120 334,-101 177,-101"/>
<text text-anchor="middle" x="255.5" y="-108" font-family="Helvetica,sans-Serif" font-size="10.00">YUVFile::formatFromCorrelation</text>
</a>
</g>
</g>
<!-- Node1&#45;&gt;Node9 -->
<g id="edge9" class="edge"><title>Node1&#45;&gt;Node9</title>
<path fill="none" stroke="midnightblue" d="M151.385,-121.206C159.799,-120.332 168.347,-119.445 176.737,-118.574"/>
<polygon fill="midnightblue" stroke="midnightblue" points="150.792,-117.749 141.206,-122.263 151.515,-124.711 150.792,-117.749"/>
</g>
<!-- Node10 -->
<g id="node10" class="node"><title>Node10</title>
<g id="a_node10"><a xlink:href="classYUVSource.html#aaec9232f1fe9e0b8beaad1cd4cb5279c" target="_top" xlink:title="YUVSource::convert2YUV444">
<polygon fill="white" stroke="black" points="181,-25 181,-44 330,-44 330,-25 181,-25"/>
<text text-anchor="middle" x="255.5" y="-32" font-family="Helvetica,sans-Serif" font-size="10.00">YUVSource::convert2YUV444</text>
</a>
</g>
</g>
<!-- Node1&#45;&gt;Node10 -->
<g id="edge11" class="edge"><title>Node1&#45;&gt;Node10</title>
<path fill="none" stroke="midnightblue" d="M89.6963,-113C109.697,-95.7169 143.463,-68.9763 177,-53.5 185.302,-49.669 194.474,-46.5505 203.517,-44.0317"/>
<polygon fill="midnightblue" stroke="midnightblue" points="87.2016,-110.533 82.0079,-119.767 91.8268,-115.787 87.2016,-110.533"/>
</g>
<!-- Node3 -->
<g id="node3" class="node"><title>Node3</title>
<g id="a_node3"><a xlink:href="classYUVFile.html#a75df71aea1c05d5eda21e4003855c11f" target="_top" xlink:title="Get the format of the YUV if known. ">
<polygon fill="white" stroke="black" points="395.5,-139 395.5,-158 499.5,-158 499.5,-139 395.5,-139"/>
<text text-anchor="middle" x="447.5" y="-146" font-family="Helvetica,sans-Serif" font-size="10.00">YUVFile::getFormat</text>
</a>
</g>
</g>
<!-- Node2&#45;&gt;Node3 -->
<g id="edge2" class="edge"><title>Node2&#45;&gt;Node3</title>
<path fill="none" stroke="midnightblue" d="M312.733,-212.329C319.967,-210.293 327.212,-208.014 334,-205.5 369.931,-192.193 409.309,-170.443 430.631,-158.011"/>
<polygon fill="midnightblue" stroke="midnightblue" points="311.677,-208.988 302.921,-214.953 313.486,-215.75 311.677,-208.988"/>
</g>
<!-- Node4 -->
<g id="node4" class="node"><title>Node4</title>
<g id="a_node4"><a xlink:href="classYUVFile.html#a3613b248e47c0a174faa6c26bb6308a7" target="_top" xlink:title="YUVFile::getStatus">
<polygon fill="white" stroke="black" points="397,-215 397,-234 498,-234 498,-215 397,-215"/>
<text text-anchor="middle" x="447.5" y="-222" font-family="Helvetica,sans-Serif" font-size="10.00">YUVFile::getStatus</text>
</a>
</g>
</g>
<!-- Node2&#45;&gt;Node4 -->
<g id="edge3" class="edge"><title>Node2&#45;&gt;Node4</title>
<path fill="none" stroke="midnightblue" d="M325.372,-224.5C349.002,-224.5 374.97,-224.5 396.781,-224.5"/>
<polygon fill="midnightblue" stroke="midnightblue" points="325.057,-221 315.057,-224.5 325.057,-228 325.057,-221"/>
</g>
<!-- Node7 -->
<g id="node7" class="node"><title>Node7</title>
<g id="a_node7"><a xlink:href="classYUVFile.html#abf82a0b4c126ed5d1d9eaa7ff096e7b0" target="_top" xlink:title="YUVFile::getOneFrame">
<polygon fill="white" stroke="black" points="388,-63 388,-82 507,-82 507,-63 388,-63"/>
<text text-anchor="middle" x="447.5" y="-70" font-family="Helvetica,sans-Serif" font-size="10.00">YUVFile::getOneFrame</text>
</a>
</g>
</g>
<!-- Node6&#45;&gt;Node7 -->
<g id="edge6" class="edge"><title>Node6&#45;&gt;Node7</title>
<path fill="none" stroke="midnightblue" d="M318.965,-72.5C341.106,-72.5 365.928,-72.5 387.749,-72.5"/>
<polygon fill="midnightblue" stroke="midnightblue" points="318.67,-69.0001 308.67,-72.5 318.67,-76.0001 318.67,-69.0001"/>
</g>
<!-- Node8&#45;&gt;Node3 -->
<g id="edge8" class="edge"><title>Node8&#45;&gt;Node3</title>
<path fill="none" stroke="midnightblue" d="M328.284,-148.5C350.577,-148.5 374.688,-148.5 395.285,-148.5"/>
<polygon fill="midnightblue" stroke="midnightblue" points="328.188,-145 318.188,-148.5 328.188,-152 328.188,-145"/>
</g>
<!-- Node9&#45;&gt;Node3 -->
<g id="edge10" class="edge"><title>Node9&#45;&gt;Node3</title>
<path fill="none" stroke="midnightblue" d="M314.548,-122.11C341.57,-127.514 373.318,-133.864 398.9,-138.98"/>
<polygon fill="midnightblue" stroke="midnightblue" points="314.937,-118.618 304.445,-120.089 313.564,-125.482 314.937,-118.618"/>
</g>
<!-- Node10&#45;&gt;Node7 -->
<g id="edge19" class="edge"><title>Node10&#45;&gt;Node7</title>
<path fill="none" stroke="midnightblue" d="M314.548,-46.1095C341.57,-51.514 373.318,-57.8635 398.9,-62.9799"/>
<polygon fill="midnightblue" stroke="midnightblue" points="314.937,-42.6182 304.445,-44.089 313.564,-49.4823 314.937,-42.6182"/>
</g>
<!-- Node11 -->
<g id="node11" class="node"><title>Node11</title>
<g id="a_node11"><a xlink:href="classde265File.html#a3c517644cd5710d54289b2cdba99babc" target="_top" xlink:title="de265File::copyImgTo444Buffer">
<polygon fill="white" stroke="black" points="370,-25 370,-44 525,-44 525,-25 370,-25"/>
<text text-anchor="middle" x="447.5" y="-32" font-family="Helvetica,sans-Serif" font-size="10.00">de265File::copyImgTo444Buffer</text>
</a>
</g>
</g>
<!-- Node10&#45;&gt;Node11 -->
<g id="edge12" class="edge"><title>Node10&#45;&gt;Node11</title>
<path fill="none" stroke="midnightblue" d="M340.41,-34.5C350.251,-34.5 360.253,-34.5 369.986,-34.5"/>
<polygon fill="midnightblue" stroke="midnightblue" points="340.231,-31.0001 330.231,-34.5 340.231,-38.0001 340.231,-31.0001"/>
</g>
<!-- Node12 -->
<g id="node12" class="node"><title>Node12</title>
<g id="a_node12"><a xlink:href="classde265File.html#af2a66d6d47d74d992f61da5048d90538" target="_top" xlink:title="de265File::decodeOnePicture">
<polygon fill="white" stroke="black" points="561,-25 561,-44 706,-44 706,-25 561,-25"/>
<text text-anchor="middle" x="633.5" y="-32" font-family="Helvetica,sans-Serif" font-size="10.00">de265File::decodeOnePicture</text>
</a>
</g>
</g>
<!-- Node11&#45;&gt;Node12 -->
<g id="edge13" class="edge"><title>Node11&#45;&gt;Node12</title>
<path fill="none" stroke="midnightblue" d="M535.249,-34.5C543.848,-34.5 552.508,-34.5 560.929,-34.5"/>
<polygon fill="midnightblue" stroke="midnightblue" points="535.2,-31.0001 525.2,-34.5 535.2,-38.0001 535.2,-31.0001"/>
</g>
<!-- Node13 -->
<g id="node13" class="node"><title>Node13</title>
<g id="a_node13"><a xlink:href="classde265File.html#afc2f00a9676e0b5c3fdd821619bda482" target="_top" xlink:title="de265File::de265File">
<polygon fill="white" stroke="black" points="938.5,-44 938.5,-63 1045.5,-63 1045.5,-44 938.5,-44"/>
<text text-anchor="middle" x="992" y="-51" font-family="Helvetica,sans-Serif" font-size="10.00">de265File::de265File</text>
</a>
</g>
</g>
<!-- Node12&#45;&gt;Node13 -->
<g id="edge14" class="edge"><title>Node12&#45;&gt;Node13</title>
<path fill="none" stroke="midnightblue" d="M716.511,-38.8709C784.813,-42.5111 880.038,-47.5862 938.495,-50.7017"/>
<polygon fill="midnightblue" stroke="midnightblue" points="716.386,-35.3593 706.214,-38.3221 716.014,-42.3494 716.386,-35.3593"/>
</g>
<!-- Node14 -->
<g id="node14" class="node"><title>Node14</title>
<g id="a_node14"><a xlink:href="classde265File.html#a948bfcc1b2c4ad6f0a3aa54b99f9553f" target="_top" xlink:title="de265File::backgroundDecoder">
<polygon fill="white" stroke="black" points="742,-6 742,-25 894,-25 894,-6 742,-6"/>
<text text-anchor="middle" x="818" y="-13" font-family="Helvetica,sans-Serif" font-size="10.00">de265File::backgroundDecoder</text>
</a>
</g>
</g>
<!-- Node12&#45;&gt;Node14 -->
<g id="edge15" class="edge"><title>Node12&#45;&gt;Node14</title>
<path fill="none" stroke="midnightblue" d="M716.138,-26.0007C724.745,-25.1046 733.468,-24.1965 741.995,-23.3088"/>
<polygon fill="midnightblue" stroke="midnightblue" points="715.689,-22.5285 706.105,-27.0452 716.414,-29.4908 715.689,-22.5285"/>
</g>
<!-- Node14&#45;&gt;Node13 -->
<g id="edge16" class="edge"><title>Node14&#45;&gt;Node13</title>
<path fill="none" stroke="midnightblue" d="M872.196,-27.2526C896.517,-32.6258 924.955,-38.9086 947.909,-43.9799"/>
<polygon fill="midnightblue" stroke="midnightblue" points="872.922,-23.8288 862.403,-25.089 871.412,-30.664 872.922,-23.8288"/>
</g>
<!-- Node15 -->
<g id="node15" class="node"><title>Node15</title>
<g id="a_node15"><a xlink:href="classde265File.html#a4778a7853c318063a9efd5f0990e79bf" target="_top" xlink:title="de265File::getOneFrame">
<polygon fill="white" stroke="black" points="930,-6 930,-25 1054,-25 1054,-6 930,-6"/>
<text text-anchor="middle" x="992" y="-13" font-family="Helvetica,sans-Serif" font-size="10.00">de265File::getOneFrame</text>
</a>
</g>
</g>
<!-- Node14&#45;&gt;Node15 -->
<g id="edge17" class="edge"><title>Node14&#45;&gt;Node15</title>
<path fill="none" stroke="midnightblue" d="M904.305,-15.5C912.942,-15.5 921.589,-15.5 929.896,-15.5"/>
<polygon fill="midnightblue" stroke="midnightblue" points="904.192,-12.0001 894.191,-15.5 904.191,-19.0001 904.192,-12.0001"/>
</g>
<!-- Node16 -->
<g id="node16" class="node"><title>Node16</title>
<g id="a_node16"><a xlink:href="classde265File.html#af878636f68cd2ee3a4dfc6b3b0169676" target="_top" xlink:title="de265File::loadStatistic\lToCache">
<polygon fill="white" stroke="black" points="1090,-0.5 1090,-30.5 1209,-30.5 1209,-0.5 1090,-0.5"/>
<text text-anchor="start" x="1098" y="-18.5" font-family="Helvetica,sans-Serif" font-size="10.00">de265File::loadStatistic</text>
<text text-anchor="middle" x="1149.5" y="-7.5" font-family="Helvetica,sans-Serif" font-size="10.00">ToCache</text>
</a>
</g>
</g>
<!-- Node15&#45;&gt;Node16 -->
<g id="edge18" class="edge"><title>Node15&#45;&gt;Node16</title>
<path fill="none" stroke="midnightblue" d="M1064.09,-15.5C1072.75,-15.5 1081.51,-15.5 1089.95,-15.5"/>
<polygon fill="midnightblue" stroke="midnightblue" points="1064.01,-12.0001 1054.01,-15.5 1064.01,-19.0001 1064.01,-12.0001"/>
</g>
</g>
</svg>
        <g id="navigator" transform="translate(0 0)" fill="#404254">
                <rect fill="#f2f5e9" fill-opacity="0.5" stroke="#606060" stroke-width=".5" x="0" y="0" width="60" height="60"/>
                <use id="zoomplus" xlink:href="#zoomPlus" x="17" y="9" onmousedown="handleZoom(evt,'in')"/>
                <use id="zoomminus" xlink:href="#zoomMin" x="42" y="9" onmousedown="handleZoom(evt,'out')"/>
                <use id="reset" xlink:href="#resetDef" x="30" y="36" onmousedown="handleReset()"/>
                <g id="arrowUp" xlink:href="#dirArrow" transform="translate(30 24)" onmousedown="handlePan(0,-1)">
                  <use xlink:href="#rim" fill="#404040">
                        <set attributeName="fill" to="#808080" begin="arrowUp.mouseover" end="arrowUp.mouseout"/>
                  </use>
                  <path fill="none" stroke="white" stroke-width="1.5" d="M0,-3.0v7 M-2.5,-0.5L0,-3.0L2.5,-0.5"/>
                </g>
                <g id="arrowRight" xlink:href="#dirArrow" transform="rotate(90) translate(36 -43)" onmousedown="handlePan(1,0)">
                  <use xlink:href="#rim" fill="#404040">
                        <set attributeName="fill" to="#808080" begin="arrowRight.mouseover" end="arrowRight.mouseout"/>
                  </use>
                  <path fill="none" stroke="white" stroke-width="1.5" d="M0,-3.0v7 M-2.5,-0.5L0,-3.0L2.5,-0.5"/>
                </g>
                <g id="arrowDown" xlink:href="#dirArrow" transform="rotate(180) translate(-30 -48)" onmousedown="handlePan(0,1)">
                  <use xlink:href="#rim" fill="#404040">
                        <set attributeName="fill" to="#808080" begin="arrowDown.mouseover" end="arrowDown.mouseout"/>
                  </use>
                  <path fill="none" stroke="white" stroke-width="1.5" d="M0,-3.0v7 M-2.5,-0.5L0,-3.0L2.5,-0.5"/>
                </g>
                <g id="arrowLeft" xlink:href="#dirArrow" transform="rotate(270) translate(-36 17)" onmousedown="handlePan(-1,0)">
                  <use xlink:href="#rim" fill="#404040">
                        <set attributeName="fill" to="#808080" begin="arrowLeft.mouseover" end="arrowLeft.mouseout"/>
                  </use>
                  <path fill="none" stroke="white" stroke-width="1.5" d="M0,-3.0v7 M-2.5,-0.5L0,-3.0L2.5,-0.5"/>
                </g>
        </g>
        <svg viewBox="0 0 15 15" width="100%" height="30px" preserveAspectRatio="xMaxYMin meet">
         <g id="arrow_out" transform="scale(0.3 0.3)">
          <a xlink:href="classYUVSource_a1fc5a320feef3ca2e3d90c2606276f17_icgraph_org.svg" target="_base">
           <rect id="button" ry="5" rx="5" y="6" x="6" height="38" width="38"
                fill="#f2f5e9" fill-opacity="0.5" stroke="#606060" stroke-width="1.0"/>
           <path id="arrow"
             d="M 11.500037,31.436501 C 11.940474,20.09759 22.043105,11.32322 32.158766,21.979434 L 37.068811,17.246167 C 37.068811,17.246167 37.088388,32 37.088388,32 L 22.160133,31.978069 C 22.160133,31.978069 26.997745,27.140456 26.997745,27.140456 C 18.528582,18.264221 13.291696,25.230495 11.500037,31.436501 z"
             style="fill:#404040;"/>
          </a>
         </g>
        </svg>
</svg>
