<?xml version="1.0" encoding="UTF-8" standalone="no"?>
<!DOCTYPE svg PUBLIC "-//W3C//DTD SVG 1.1//EN"
 "http://www.w3.org/Graphics/SVG/1.1/DTD/svg11.dtd">
<!-- Generated by graphviz version 2.38.0 (20140413.2041)
 -->
<!-- Title: YUVFile::formatFromFile Pages: 1 -->
<svg width="487pt" height="142pt"
 viewBox="0.00 0.00 487.00 142.00" xmlns="http://www.w3.org/2000/svg" xmlns:xlink="http://www.w3.org/1999/xlink">
<g id="graph0" class="graph" transform="scale(1 1) rotate(0) translate(4 138)">
<title>YUVFile::formatFromFile</title>
<polygon fill="white" stroke="none" points="-4,4 -4,-138 483,-138 483,4 -4,4"/>
<!-- Node1 -->
<g id="node1" class="node"><title>Node1</title>
<polygon fill="#bfbfbf" stroke="black" points="0,-57.5 0,-76.5 125,-76.5 125,-57.5 0,-57.5"/>
<text text-anchor="middle" x="62.5" y="-64.5" font-family="Helvetica,sans-Serif" font-size="10.00">YUVFile::formatFromFile</text>
</g>
<!-- Node2 -->
<g id="node2" class="node"><title>Node2</title>
<g id="a_node2"><a xlink:href="common_8cpp.html#aed0a759d224a5b3983b9610b44ff754a" target="_top" xlink:title="Common functions. ">
<polygon fill="white" stroke="black" points="178,-114.5 178,-133.5 285,-133.5 285,-114.5 178,-114.5"/>
<text text-anchor="middle" x="231.5" y="-121.5" font-family="Helvetica,sans-Serif" font-size="10.00">formatFromFilename</text>
</a>
</g>
</g>
<!-- Node1&#45;&gt;Node2 -->
<g id="edge1" class="edge"><title>Node1&#45;&gt;Node2</title>
<path fill="none" stroke="midnightblue" d="M86.1065,-76.5888C105.712,-84.7165 134.954,-96.3902 161,-105 168.102,-107.348 175.678,-109.635 183.119,-111.763"/>
<polygon fill="midnightblue" stroke="midnightblue" points="182.2,-115.14 192.773,-114.459 184.083,-108.398 182.2,-115.14"/>
</g>
<!-- Node3 -->
<g id="node3" class="node"><title>Node3</title>
<g id="a_node3"><a xlink:href="classYUVSource.html#a1fc5a320feef3ca2e3d90c2606276f17" target="_top" xlink:title="YUVSource::bytesPerFrame">
<polygon fill="white" stroke="black" points="161,-76.5 161,-95.5 302,-95.5 302,-76.5 161,-76.5"/>
<text text-anchor="middle" x="231.5" y="-83.5" font-family="Helvetica,sans-Serif" font-size="10.00">YUVSource::bytesPerFrame</text>
</a>
</g>
</g>
<!-- Node1&#45;&gt;Node3 -->
<g id="edge2" class="edge"><title>Node1&#45;&gt;Node3</title>
<path fill="none" stroke="midnightblue" d="M125.21,-74.0209C133.558,-74.9707 142.218,-75.956 150.824,-76.9351"/>
<polygon fill="midnightblue" stroke="midnightblue" points="150.548,-80.4262 160.88,-78.0791 151.339,-73.471 150.548,-80.4262"/>
</g>
<!-- Node6 -->
<g id="node6" class="node"><title>Node6</title>
<g id="a_node6"><a xlink:href="classYUVSource.html#a1e12d66c8db1b169a619e4227eed6537" target="_top" xlink:title="YUVSource::setFormat">
<polygon fill="white" stroke="black" points="172,-38.5 172,-57.5 291,-57.5 291,-38.5 172,-38.5"/>
<text text-anchor="middle" x="231.5" y="-45.5" font-family="Helvetica,sans-Serif" font-size="10.00">YUVSource::setFormat</text>
</a>
</g>
</g>
<!-- Node1&#45;&gt;Node6 -->
<g id="edge5" class="edge"><title>Node1&#45;&gt;Node6</title>
<path fill="none" stroke="midnightblue" d="M125.21,-59.9791C137.115,-58.6247 149.655,-57.198 161.767,-55.82"/>
<polygon fill="midnightblue" stroke="midnightblue" points="162.276,-59.2846 171.817,-54.6766 161.485,-52.3295 162.276,-59.2846"/>
</g>
<!-- Node7 -->
<g id="node7" class="node"><title>Node7</title>
<g id="a_node7"><a xlink:href="classYUVSource.html#a3b9129ee597809af82176876e40a215a" target="_top" xlink:title="YUVSource::setPixelFormat">
<polygon fill="white" stroke="black" points="161.5,-0.5 161.5,-19.5 301.5,-19.5 301.5,-0.5 161.5,-0.5"/>
<text text-anchor="middle" x="231.5" y="-7.5" font-family="Helvetica,sans-Serif" font-size="10.00">YUVSource::setPixelFormat</text>
</a>
</g>
</g>
<!-- Node1&#45;&gt;Node7 -->
<g id="edge6" class="edge"><title>Node1&#45;&gt;Node7</title>
<path fill="none" stroke="midnightblue" d="M86.1065,-57.4112C105.712,-49.2835 134.954,-37.6098 161,-29 168.102,-26.6524 175.678,-24.3649 183.119,-22.2375"/>
<polygon fill="midnightblue" stroke="midnightblue" points="184.083,-25.6024 192.773,-19.5414 182.2,-18.8604 184.083,-25.6024"/>
</g>
<!-- Node4 -->
<g id="node4" class="node"><title>Node4</title>
<g id="a_node4"><a xlink:href="classYUVSource.html#a7e554f2c626688704099e00cc4ece029" target="_top" xlink:title="YUVSource::pixelFormatList">
<polygon fill="white" stroke="black" points="338,-76.5 338,-95.5 479,-95.5 479,-76.5 338,-76.5"/>
<text text-anchor="middle" x="408.5" y="-83.5" font-family="Helvetica,sans-Serif" font-size="10.00">YUVSource::pixelFormatList</text>
</a>
</g>
</g>
<!-- Node3&#45;&gt;Node4 -->
<g id="edge3" class="edge"><title>Node3&#45;&gt;Node4</title>
<path fill="none" stroke="midnightblue" d="M302.167,-86C310.502,-86 319.063,-86 327.529,-86"/>
<polygon fill="midnightblue" stroke="midnightblue" points="327.786,-89.5001 337.786,-86 327.786,-82.5001 327.786,-89.5001"/>
</g>
<!-- Node5 -->
<g id="node5" class="node"><title>Node5</title>
<g id="a_node5"><a xlink:href="classYUVSource.html#a592ce352c789f4f5789b11e052b58a33" target="_top" xlink:title="YUVSource::pixelFormat">
<polygon fill="white" stroke="black" points="346,-19.5 346,-38.5 471,-38.5 471,-19.5 346,-19.5"/>
<text text-anchor="middle" x="408.5" y="-26.5" font-family="Helvetica,sans-Serif" font-size="10.00">YUVSource::pixelFormat</text>
</a>
</g>
</g>
<!-- Node3&#45;&gt;Node5 -->
<g id="edge4" class="edge"><title>Node3&#45;&gt;Node5</title>
<path fill="none" stroke="midnightblue" d="M269.449,-76.4801C280.012,-73.6014 291.505,-70.3191 302,-67 325.927,-59.4331 352.508,-49.8517 373.002,-42.2031"/>
<polygon fill="midnightblue" stroke="midnightblue" points="374.406,-45.4146 382.536,-38.621 371.944,-38.8619 374.406,-45.4146"/>
</g>
<!-- Node7&#45;&gt;Node5 -->
<g id="edge7" class="edge"><title>Node7&#45;&gt;Node5</title>
<path fill="none" stroke="midnightblue" d="M301.665,-17.5093C312.856,-18.7244 324.466,-19.9849 335.718,-21.2066"/>
<polygon fill="midnightblue" stroke="midnightblue" points="335.609,-24.7152 345.928,-22.3151 336.365,-17.7561 335.609,-24.7152"/>
</g>
</g>
</svg>
