<?xml version="1.0" encoding="UTF-8" standalone="no"?>
<!DOCTYPE svg PUBLIC "-//W3C//DTD SVG 1.1//EN"
 "http://www.w3.org/Graphics/SVG/1.1/DTD/svg11.dtd">
<!-- Generated by graphviz version 2.38.0 (20140413.2041)
 -->
<!-- Title: TextObject::setDuration Pages: 1 -->
<svg width="311pt" height="104pt"
 viewBox="0.00 0.00 311.00 104.00" xmlns="http://www.w3.org/2000/svg" xmlns:xlink="http://www.w3.org/1999/xlink">
<g id="graph0" class="graph" transform="scale(1 1) rotate(0) translate(4 100)">
<title>TextObject::setDuration</title>
<polygon fill="white" stroke="none" points="-4,4 -4,-100 307,-100 307,4 -4,4"/>
<!-- Node1 -->
<g id="node1" class="node"><title>Node1</title>
<polygon fill="#bfbfbf" stroke="black" points="0,-38.5 0,-57.5 121,-57.5 121,-38.5 0,-38.5"/>
<text text-anchor="middle" x="60.5" y="-45.5" font-family="Helvetica,sans-Serif" font-size="10.00">TextObject::setDuration</text>
</g>
<!-- Node2 -->
<g id="node2" class="node"><title>Node2</title>
<g id="a_node2"><a xlink:href="classDisplayObject.html#a98296771a38de4e1bf73983a0b23aea1" target="_top" xlink:title="DisplayObject::setFrameRate">
<polygon fill="white" stroke="black" points="157,-76.5 157,-95.5 303,-95.5 303,-76.5 157,-76.5"/>
<text text-anchor="middle" x="230" y="-83.5" font-family="Helvetica,sans-Serif" font-size="10.00">DisplayObject::setFrameRate</text>
</a>
</g>
</g>
<!-- Node1&#45;&gt;Node2 -->
<g id="edge1" class="edge"><title>Node1&#45;&gt;Node2</title>
<path fill="none" stroke="midnightblue" d="M103.767,-57.589C126.07,-62.6487 153.623,-68.8996 177.202,-74.2488"/>
<polygon fill="midnightblue" stroke="midnightblue" points="176.51,-77.6807 187.037,-76.4799 178.059,-70.8542 176.51,-77.6807"/>
</g>
<!-- Node3 -->
<g id="node3" class="node"><title>Node3</title>
<g id="a_node3"><a xlink:href="classDisplayObject.html#aed9e23b654a67915a5b76e5d124d7bb6" target="_top" xlink:title="DisplayObject::setStartFrame">
<polygon fill="white" stroke="black" points="157,-38.5 157,-57.5 303,-57.5 303,-38.5 157,-38.5"/>
<text text-anchor="middle" x="230" y="-45.5" font-family="Helvetica,sans-Serif" font-size="10.00">DisplayObject::setStartFrame</text>
</a>
</g>
</g>
<!-- Node1&#45;&gt;Node3 -->
<g id="edge2" class="edge"><title>Node1&#45;&gt;Node3</title>
<path fill="none" stroke="midnightblue" d="M121.026,-48C129.339,-48 138,-48 146.642,-48"/>
<polygon fill="midnightblue" stroke="midnightblue" points="146.755,-51.5001 156.755,-48 146.755,-44.5001 146.755,-51.5001"/>
</g>
<!-- Node4 -->
<g id="node4" class="node"><title>Node4</title>
<g id="a_node4"><a xlink:href="classDisplayObject.html#a1ebfa41c2a5b6c2ed4d8490503d197c8" target="_top" xlink:title="DisplayObject::setEndFrame">
<polygon fill="white" stroke="black" points="158.5,-0.5 158.5,-19.5 301.5,-19.5 301.5,-0.5 158.5,-0.5"/>
<text text-anchor="middle" x="230" y="-7.5" font-family="Helvetica,sans-Serif" font-size="10.00">DisplayObject::setEndFrame</text>
</a>
</g>
</g>
<!-- Node1&#45;&gt;Node4 -->
<g id="edge3" class="edge"><title>Node1&#45;&gt;Node4</title>
<path fill="none" stroke="midnightblue" d="M103.767,-38.411C126.07,-33.3513 153.623,-27.1004 177.202,-21.7512"/>
<polygon fill="midnightblue" stroke="midnightblue" points="178.059,-25.1458 187.037,-19.5201 176.51,-18.3193 178.059,-25.1458"/>
</g>
</g>
</svg>
