<?xml version="1.0" encoding="UTF-8" standalone="no"?>
<!DOCTYPE svg PUBLIC "-//W3C//DTD SVG 1.1//EN"
 "http://www.w3.org/Graphics/SVG/1.1/DTD/svg11.dtd">
<!-- Generated by graphviz version 2.38.0 (20140413.2041)
 -->
<!-- Title: MainWindow::statsTypesChanged Pages: 1 -->
<svg width="758pt" height="214pt"
 viewBox="0.00 0.00 758.00 214.00" xmlns="http://www.w3.org/2000/svg" xmlns:xlink="http://www.w3.org/1999/xlink">
<g id="graph0" class="graph" transform="scale(1 1) rotate(0) translate(4 210)">
<title>MainWindow::statsTypesChanged</title>
<polygon fill="white" stroke="none" points="-4,4 -4,-210 754,-210 754,4 -4,4"/>
<!-- Node1 -->
<g id="node1" class="node"><title>Node1</title>
<polygon fill="#bfbfbf" stroke="black" points="0,-88 0,-107 167,-107 167,-88 0,-88"/>
<text text-anchor="middle" x="83.5" y="-95" font-family="Helvetica,sans-Serif" font-size="10.00">MainWindow::statsTypesChanged</text>
</g>
<!-- Node2 -->
<g id="node2" class="node"><title>Node2</title>
<g id="a_node2"><a xlink:href="classMainWindow.html#aea2b70d7ccb204793c3121600f612c84" target="_top" xlink:title="Return the primary and secondary playlist item that is currently selected. ">
<polygon fill="white" stroke="black" points="401,-128.5 401,-158.5 550,-158.5 550,-128.5 401,-128.5"/>
<text text-anchor="start" x="409" y="-146.5" font-family="Helvetica,sans-Serif" font-size="10.00">MainWindow::selectedPrimary</text>
<text text-anchor="middle" x="475.5" y="-135.5" font-family="Helvetica,sans-Serif" font-size="10.00">PlaylistItem</text>
</a>
</g>
</g>
<!-- Node1&#45;&gt;Node2 -->
<g id="edge1" class="edge"><title>Node1&#45;&gt;Node2</title>
<path fill="none" stroke="midnightblue" d="M167.125,-99.8754C223.203,-102.347 298.887,-107.362 365,-117.5 379.358,-119.702 394.612,-122.817 409.03,-126.13"/>
<polygon fill="midnightblue" stroke="midnightblue" points="408.32,-129.559 418.856,-128.447 409.926,-122.746 408.32,-129.559"/>
</g>
<!-- Node3 -->
<g id="node3" class="node"><title>Node3</title>
<g id="a_node3"><a xlink:href="classPlaylistItem.html#a5d94b9e2dab116ab2f4a3afd3639b18f" target="_top" xlink:title="PlaylistItem::getStatistics\lObject">
<polygon fill="white" stroke="black" points="219.5,-126.5 219.5,-156.5 348.5,-156.5 348.5,-126.5 219.5,-126.5"/>
<text text-anchor="start" x="227.5" y="-144.5" font-family="Helvetica,sans-Serif" font-size="10.00">PlaylistItem::getStatistics</text>
<text text-anchor="middle" x="284" y="-133.5" font-family="Helvetica,sans-Serif" font-size="10.00">Object</text>
</a>
</g>
</g>
<!-- Node1&#45;&gt;Node3 -->
<g id="edge2" class="edge"><title>Node1&#45;&gt;Node3</title>
<path fill="none" stroke="midnightblue" d="M127.572,-107.047C151.436,-112.337 181.763,-119.06 209.28,-125.159"/>
<polygon fill="midnightblue" stroke="midnightblue" points="208.753,-128.627 219.274,-127.374 210.268,-121.793 208.753,-128.627"/>
</g>
<!-- Node4 -->
<g id="node4" class="node"><title>Node4</title>
<g id="a_node4"><a xlink:href="classStatisticsObject.html#a5403f2edc7dc5c51d105056d001632e8" target="_top" xlink:title="StatisticsObject::setStatistics\lTypeList">
<polygon fill="white" stroke="black" points="210.5,-0.5 210.5,-30.5 357.5,-30.5 357.5,-0.5 210.5,-0.5"/>
<text text-anchor="start" x="218.5" y="-18.5" font-family="Helvetica,sans-Serif" font-size="10.00">StatisticsObject::setStatistics</text>
<text text-anchor="middle" x="284" y="-7.5" font-family="Helvetica,sans-Serif" font-size="10.00">TypeList</text>
</a>
</g>
</g>
<!-- Node1&#45;&gt;Node4 -->
<g id="edge3" class="edge"><title>Node1&#45;&gt;Node4</title>
<path fill="none" stroke="midnightblue" d="M102.206,-87.979C125.059,-75.9255 166.259,-54.9883 203,-40.5 208.863,-38.188 215.032,-35.9426 221.236,-33.8076"/>
<polygon fill="midnightblue" stroke="midnightblue" points="222.602,-37.0416 230.975,-30.5497 220.381,-30.4032 222.602,-37.0416"/>
</g>
<!-- Node7 -->
<g id="node7" class="node"><title>Node7</title>
<g id="a_node7"><a xlink:href="classPlaylistItem.html#a53ef7e25dfa0d08e284653a19c96fc3e" target="_top" xlink:title="PlaylistItem::itemType">
<polygon fill="white" stroke="black" points="226.5,-50 226.5,-69 341.5,-69 341.5,-50 226.5,-50"/>
<text text-anchor="middle" x="284" y="-57" font-family="Helvetica,sans-Serif" font-size="10.00">PlaylistItem::itemType</text>
</a>
</g>
</g>
<!-- Node1&#45;&gt;Node7 -->
<g id="edge6" class="edge"><title>Node1&#45;&gt;Node7</title>
<path fill="none" stroke="midnightblue" d="M134.334,-87.96C161.234,-82.8104 194.636,-76.416 222.961,-70.9935"/>
<polygon fill="midnightblue" stroke="midnightblue" points="223.982,-74.3618 233.146,-69.0439 222.666,-67.4866 223.982,-74.3618"/>
</g>
<!-- Node8 -->
<g id="node8" class="node"><title>Node8</title>
<g id="a_node8"><a xlink:href="classMainWindow.html#a3f5983f88691760eb4074f9ca6c773d7" target="_top" xlink:title="MainWindow::selectedSecondary\lPlaylistItem">
<polygon fill="white" stroke="black" points="203,-175.5 203,-205.5 365,-205.5 365,-175.5 203,-175.5"/>
<text text-anchor="start" x="211" y="-193.5" font-family="Helvetica,sans-Serif" font-size="10.00">MainWindow::selectedSecondary</text>
<text text-anchor="middle" x="284" y="-182.5" font-family="Helvetica,sans-Serif" font-size="10.00">PlaylistItem</text>
</a>
</g>
</g>
<!-- Node1&#45;&gt;Node8 -->
<g id="edge7" class="edge"><title>Node1&#45;&gt;Node8</title>
<path fill="none" stroke="midnightblue" d="M98.5167,-107.14C120.127,-121.655 163.252,-149.254 203,-166.5 207.423,-168.419 212.047,-170.245 216.744,-171.968"/>
<polygon fill="midnightblue" stroke="midnightblue" points="215.855,-175.365 226.45,-175.361 218.165,-168.757 215.855,-175.365"/>
</g>
<!-- Node5 -->
<g id="node5" class="node"><title>Node5</title>
<g id="a_node5"><a xlink:href="classstatisticSource.html#a88843dfe28a48a46a3f344ea41043181" target="_top" xlink:title="statisticSource::setStatistics\lTypeList">
<polygon fill="white" stroke="black" points="404,-0.5 404,-30.5 547,-30.5 547,-0.5 404,-0.5"/>
<text text-anchor="start" x="412" y="-18.5" font-family="Helvetica,sans-Serif" font-size="10.00">statisticSource::setStatistics</text>
<text text-anchor="middle" x="475.5" y="-7.5" font-family="Helvetica,sans-Serif" font-size="10.00">TypeList</text>
</a>
</g>
</g>
<!-- Node4&#45;&gt;Node5 -->
<g id="edge4" class="edge"><title>Node4&#45;&gt;Node5</title>
<path fill="none" stroke="midnightblue" d="M357.724,-15.5C369.429,-15.5 381.609,-15.5 393.495,-15.5"/>
<polygon fill="midnightblue" stroke="midnightblue" points="393.845,-19.0001 403.845,-15.5 393.845,-12.0001 393.845,-19.0001"/>
</g>
<!-- Node6 -->
<g id="node6" class="node"><title>Node6</title>
<g id="a_node6"><a xlink:href="classstatisticSource.html#accae8cdfc95b05e3ef9a945b1f579c46" target="_top" xlink:title="statisticSource::getStatisticsType">
<polygon fill="white" stroke="black" points="586,-6 586,-25 750,-25 750,-6 586,-6"/>
<text text-anchor="middle" x="668" y="-13" font-family="Helvetica,sans-Serif" font-size="10.00">statisticSource::getStatisticsType</text>
</a>
</g>
</g>
<!-- Node5&#45;&gt;Node6 -->
<g id="edge5" class="edge"><title>Node5&#45;&gt;Node6</title>
<path fill="none" stroke="midnightblue" d="M547.164,-15.5C556.516,-15.5 566.208,-15.5 575.843,-15.5"/>
<polygon fill="midnightblue" stroke="midnightblue" points="575.848,-19.0001 585.848,-15.5 575.848,-12.0001 575.848,-19.0001"/>
</g>
<!-- Node8&#45;&gt;Node2 -->
<g id="edge8" class="edge"><title>Node8&#45;&gt;Node2</title>
<path fill="none" stroke="midnightblue" d="M345.48,-175.5C364.112,-170.878 384.788,-165.75 404.031,-160.978"/>
<polygon fill="midnightblue" stroke="midnightblue" points="405.081,-164.323 413.945,-158.519 403.396,-157.529 405.081,-164.323"/>
</g>
</g>
</svg>
