<?xml version="1.0" encoding="UTF-8" standalone="no"?>
<!DOCTYPE svg PUBLIC "-//W3C//DTD SVG 1.1//EN"
 "http://www.w3.org/Graphics/SVG/1.1/DTD/svg11.dtd">
<!-- Generated by graphviz version 2.38.0 (20140413.2041)
 -->
<!-- Title: DisplaySplitWidget::zoomToStandard Pages: 1 -->
<svg width="1498pt" height="313pt"
 viewBox="0.00 0.00 1498.00 313.00" xmlns="http://www.w3.org/2000/svg" xmlns:xlink="http://www.w3.org/1999/xlink">
<g id="graph0" class="graph" transform="scale(1 1) rotate(0) translate(4 309)">
<title>DisplaySplitWidget::zoomToStandard</title>
<polygon fill="white" stroke="none" points="-4,4 -4,-309 1494,-309 1494,4 -4,4"/>
<!-- Node1 -->
<g id="node1" class="node"><title>Node1</title>
<polygon fill="#bfbfbf" stroke="black" points="0,-225 0,-255 100,-255 100,-225 0,-225"/>
<text text-anchor="start" x="8" y="-243" font-family="Helvetica,sans-Serif" font-size="10.00">DisplaySplitWidget</text>
<text text-anchor="middle" x="50" y="-232" font-family="Helvetica,sans-Serif" font-size="10.00">::zoomToStandard</text>
</g>
<!-- Node2 -->
<g id="node2" class="node"><title>Node2</title>
<g id="a_node2"><a xlink:href="classDisplaySplitWidget.html#af09b165924f8be5a31873f3b11c8b3f9" target="_top" xlink:title="DisplaySplitWidget\l::resetViews">
<polygon fill="white" stroke="black" points="136,-247 136,-277 236,-277 236,-247 136,-247"/>
<text text-anchor="start" x="144" y="-265" font-family="Helvetica,sans-Serif" font-size="10.00">DisplaySplitWidget</text>
<text text-anchor="middle" x="186" y="-254" font-family="Helvetica,sans-Serif" font-size="10.00">::resetViews</text>
</a>
</g>
</g>
<!-- Node1&#45;&gt;Node2 -->
<g id="edge1" class="edge"><title>Node1&#45;&gt;Node2</title>
<path fill="none" stroke="midnightblue" d="M100.136,-248.067C108.511,-249.442 117.288,-250.883 125.889,-252.295"/>
<polygon fill="midnightblue" stroke="midnightblue" points="125.435,-255.767 135.87,-253.934 126.569,-248.86 125.435,-255.767"/>
</g>
<!-- Node5 -->
<g id="node5" class="node"><title>Node5</title>
<g id="a_node5"><a xlink:href="classDisplaySplitWidget.html#ac88b455e49d13fb34439e45838e468d9" target="_top" xlink:title="DisplaySplitWidget\l::updateView">
<polygon fill="white" stroke="black" points="287,-203 287,-233 387,-233 387,-203 287,-203"/>
<text text-anchor="start" x="295" y="-221" font-family="Helvetica,sans-Serif" font-size="10.00">DisplaySplitWidget</text>
<text text-anchor="middle" x="337" y="-210" font-family="Helvetica,sans-Serif" font-size="10.00">::updateView</text>
</a>
</g>
</g>
<!-- Node1&#45;&gt;Node5 -->
<g id="edge29" class="edge"><title>Node1&#45;&gt;Node5</title>
<path fill="none" stroke="midnightblue" d="M100.318,-236.193C149.308,-232.411 224.464,-226.61 276.685,-222.579"/>
<polygon fill="midnightblue" stroke="midnightblue" points="277.108,-226.057 286.809,-221.797 276.569,-219.077 277.108,-226.057"/>
</g>
<!-- Node3 -->
<g id="node3" class="node"><title>Node3</title>
<g id="a_node3"><a xlink:href="classDisplayWidget.html#a0dedd877a59b3b979241ad624a9a762a" target="_top" xlink:title="DisplayWidget::resetView">
<polygon fill="white" stroke="black" points="272,-274.5 272,-293.5 402,-293.5 402,-274.5 272,-274.5"/>
<text text-anchor="middle" x="337" y="-281.5" font-family="Helvetica,sans-Serif" font-size="10.00">DisplayWidget::resetView</text>
</a>
</g>
</g>
<!-- Node2&#45;&gt;Node3 -->
<g id="edge2" class="edge"><title>Node2&#45;&gt;Node3</title>
<path fill="none" stroke="midnightblue" d="M236.201,-269.265C244.426,-270.479 253.118,-271.762 261.804,-273.045"/>
<polygon fill="midnightblue" stroke="midnightblue" points="261.566,-276.548 271.97,-274.546 262.589,-269.623 261.566,-276.548"/>
</g>
<!-- Node2&#45;&gt;Node5 -->
<g id="edge4" class="edge"><title>Node2&#45;&gt;Node5</title>
<path fill="none" stroke="midnightblue" d="M236.201,-247.471C249.298,-243.603 263.578,-239.387 277.134,-235.383"/>
<polygon fill="midnightblue" stroke="midnightblue" points="278.251,-238.703 286.851,-232.514 276.269,-231.989 278.251,-238.703"/>
</g>
<!-- Node4 -->
<g id="node4" class="node"><title>Node4</title>
<g id="a_node4"><a xlink:href="classDisplayWidget.html#a7c8417b26f905d8bda1601c879f7e600" target="_top" xlink:title="DisplayWidget::displayObject">
<polygon fill="white" stroke="black" points="442,-285.5 442,-304.5 588,-304.5 588,-285.5 442,-285.5"/>
<text text-anchor="middle" x="515" y="-292.5" font-family="Helvetica,sans-Serif" font-size="10.00">DisplayWidget::displayObject</text>
</a>
</g>
</g>
<!-- Node3&#45;&gt;Node4 -->
<g id="edge3" class="edge"><title>Node3&#45;&gt;Node4</title>
<path fill="none" stroke="midnightblue" d="M402.038,-288.002C411.768,-288.611 421.922,-289.245 431.971,-289.873"/>
<polygon fill="midnightblue" stroke="midnightblue" points="431.767,-293.367 441.966,-290.498 432.204,-286.381 431.767,-293.367"/>
</g>
<!-- Node6 -->
<g id="node6" class="node"><title>Node6</title>
<g id="a_node6"><a xlink:href="classDisplayWidget.html#a477dcbaeee98a2c684374e4d5a36b0fd" target="_top" xlink:title="DisplayWidget::displayRect">
<polygon fill="white" stroke="black" points="628,-211.5 628,-230.5 766,-230.5 766,-211.5 628,-211.5"/>
<text text-anchor="middle" x="697" y="-218.5" font-family="Helvetica,sans-Serif" font-size="10.00">DisplayWidget::displayRect</text>
</a>
</g>
</g>
<!-- Node5&#45;&gt;Node6 -->
<g id="edge5" class="edge"><title>Node5&#45;&gt;Node6</title>
<path fill="none" stroke="midnightblue" d="M387.028,-218.411C446.439,-218.909 547.294,-219.754 617.555,-220.343"/>
<polygon fill="midnightblue" stroke="midnightblue" points="617.662,-223.844 627.691,-220.428 617.72,-216.844 617.662,-223.844"/>
</g>
<!-- Node7 -->
<g id="node7" class="node"><title>Node7</title>
<g id="a_node7"><a xlink:href="classDisplayWidget.html#a822a3c50c6c602fafff6ef2132ccdb42" target="_top" xlink:title="DisplayWidget::setDisplayRect">
<polygon fill="white" stroke="black" points="438,-132.5 438,-151.5 592,-151.5 592,-132.5 438,-132.5"/>
<text text-anchor="middle" x="515" y="-139.5" font-family="Helvetica,sans-Serif" font-size="10.00">DisplayWidget::setDisplayRect</text>
</a>
</g>
</g>
<!-- Node5&#45;&gt;Node7 -->
<g id="edge6" class="edge"><title>Node5&#45;&gt;Node7</title>
<path fill="none" stroke="midnightblue" d="M372.772,-202.985C404.682,-189.206 451.548,-168.968 482.412,-155.64"/>
<polygon fill="midnightblue" stroke="midnightblue" points="484.038,-158.751 491.831,-151.573 481.262,-152.324 484.038,-158.751"/>
</g>
<!-- Node26 -->
<g id="node26" class="node"><title>Node26</title>
<g id="a_node26"><a xlink:href="classDisplayWidget.html#ad463e9effed6170427696da40d945c58" target="_top" xlink:title="DisplayWidget::DisplayWidget\lWidth">
<polygon fill="white" stroke="black" points="440,-236 440,-266 590,-266 590,-236 440,-236"/>
<text text-anchor="start" x="448" y="-254" font-family="Helvetica,sans-Serif" font-size="10.00">DisplayWidget::DisplayWidget</text>
<text text-anchor="middle" x="515" y="-243" font-family="Helvetica,sans-Serif" font-size="10.00">Width</text>
</a>
</g>
</g>
<!-- Node5&#45;&gt;Node26 -->
<g id="edge28" class="edge"><title>Node5&#45;&gt;Node26</title>
<path fill="none" stroke="midnightblue" d="M387.026,-227.192C400.331,-229.687 415.126,-232.461 429.781,-235.209"/>
<polygon fill="midnightblue" stroke="midnightblue" points="429.41,-238.7 439.884,-237.103 430.701,-231.82 429.41,-238.7"/>
</g>
<!-- Node7&#45;&gt;Node6 -->
<g id="edge7" class="edge"><title>Node7&#45;&gt;Node6</title>
<path fill="none" stroke="midnightblue" d="M531.839,-151.639C553.11,-164.279 592.361,-186.54 628,-201 634.663,-203.704 641.828,-206.215 648.918,-208.481"/>
<polygon fill="midnightblue" stroke="midnightblue" points="647.899,-211.83 658.485,-211.414 649.95,-205.137 647.899,-211.83"/>
</g>
<!-- Node8 -->
<g id="node8" class="node"><title>Node8</title>
<g id="a_node8"><a xlink:href="classDisplayObject.html#a669d39709021238465e2d42ae2ffce2d" target="_top" xlink:title="DisplayObject::setInternal\lScaleFactor">
<polygon fill="white" stroke="black" points="632,-113 632,-143 762,-143 762,-113 632,-113"/>
<text text-anchor="start" x="640" y="-131" font-family="Helvetica,sans-Serif" font-size="10.00">DisplayObject::setInternal</text>
<text text-anchor="middle" x="697" y="-120" font-family="Helvetica,sans-Serif" font-size="10.00">ScaleFactor</text>
</a>
</g>
</g>
<!-- Node7&#45;&gt;Node8 -->
<g id="edge8" class="edge"><title>Node7&#45;&gt;Node8</title>
<path fill="none" stroke="midnightblue" d="M592.075,-136.083C601.903,-135.319 611.957,-134.537 621.754,-133.775"/>
<polygon fill="midnightblue" stroke="midnightblue" points="622.152,-137.254 631.851,-132.989 621.609,-130.275 622.152,-137.254"/>
</g>
<!-- Node9 -->
<g id="node9" class="node"><title>Node9</title>
<g id="a_node9"><a xlink:href="classDisplayWidget.html#a59b9a00276458fae6c0c2db850a87616" target="_top" xlink:title="DisplayWidget::zoomFactor">
<polygon fill="white" stroke="black" points="802,-75.5 802,-94.5 940,-94.5 940,-75.5 802,-75.5"/>
<text text-anchor="middle" x="871" y="-82.5" font-family="Helvetica,sans-Serif" font-size="10.00">DisplayWidget::zoomFactor</text>
</a>
</g>
</g>
<!-- Node7&#45;&gt;Node9 -->
<g id="edge9" class="edge"><title>Node7&#45;&gt;Node9</title>
<path fill="none" stroke="midnightblue" d="M537.83,-132.485C560.058,-123.256 595.744,-109.695 628,-103 681.899,-91.8122 743.821,-87.3557 791.535,-85.6738"/>
<polygon fill="midnightblue" stroke="midnightblue" points="791.916,-89.1635 801.8,-85.3468 791.693,-82.1671 791.916,-89.1635"/>
</g>
<!-- Node11 -->
<g id="node11" class="node"><title>Node11</title>
<g id="a_node11"><a xlink:href="classStatisticsObject.html#a685245dbc78feb8908c60b3becc9a0c0" target="_top" xlink:title="StatisticsObject::setInternal\lScaleFactor">
<polygon fill="white" stroke="black" points="628,-25 628,-55 766,-55 766,-25 628,-25"/>
<text text-anchor="start" x="636" y="-43" font-family="Helvetica,sans-Serif" font-size="10.00">StatisticsObject::setInternal</text>
<text text-anchor="middle" x="697" y="-32" font-family="Helvetica,sans-Serif" font-size="10.00">ScaleFactor</text>
</a>
</g>
</g>
<!-- Node7&#45;&gt;Node11 -->
<g id="edge11" class="edge"><title>Node7&#45;&gt;Node11</title>
<path fill="none" stroke="midnightblue" d="M529.377,-132.425C549.971,-117.911 590.948,-89.9262 628,-70 634.952,-66.2615 642.464,-62.5967 649.872,-59.1838"/>
<polygon fill="midnightblue" stroke="midnightblue" points="651.466,-62.3044 659.149,-55.009 648.594,-55.9209 651.466,-62.3044"/>
</g>
<!-- Node15 -->
<g id="node15" class="node"><title>Node15</title>
<g id="a_node15"><a xlink:href="classStatisticsObject.html#a09c2920b75ecda0e175a6c9384b446ab" target="_top" xlink:title="StatisticsObject::reload\lImage">
<polygon fill="white" stroke="black" points="637.5,-162 637.5,-192 756.5,-192 756.5,-162 637.5,-162"/>
<text text-anchor="start" x="645.5" y="-180" font-family="Helvetica,sans-Serif" font-size="10.00">StatisticsObject::reload</text>
<text text-anchor="middle" x="697" y="-169" font-family="Helvetica,sans-Serif" font-size="10.00">Image</text>
</a>
</g>
</g>
<!-- Node7&#45;&gt;Node15 -->
<g id="edge15" class="edge"><title>Node7&#45;&gt;Node15</title>
<path fill="none" stroke="midnightblue" d="M565.186,-151.564C584.329,-155.286 606.597,-159.616 627.276,-163.637"/>
<polygon fill="midnightblue" stroke="midnightblue" points="626.795,-167.109 637.279,-165.582 628.131,-160.238 626.795,-167.109"/>
</g>
<!-- Node10 -->
<g id="node10" class="node"><title>Node10</title>
<g id="a_node10"><a xlink:href="classDisplayObject.html#afb3b221174f722f563e7bf55a1ddb29f" target="_top" xlink:title="DisplayObject::width">
<polygon fill="white" stroke="black" points="997.5,-76.5 997.5,-95.5 1104.5,-95.5 1104.5,-76.5 997.5,-76.5"/>
<text text-anchor="middle" x="1051" y="-83.5" font-family="Helvetica,sans-Serif" font-size="10.00">DisplayObject::width</text>
</a>
</g>
</g>
<!-- Node9&#45;&gt;Node10 -->
<g id="edge10" class="edge"><title>Node9&#45;&gt;Node10</title>
<path fill="none" stroke="midnightblue" d="M940.056,-85.3823C955.526,-85.4692 971.891,-85.5612 987.134,-85.6468"/>
<polygon fill="midnightblue" stroke="midnightblue" points="987.463,-89.1486 997.483,-85.705 987.503,-82.1487 987.463,-89.1486"/>
</g>
<!-- Node12 -->
<g id="node12" class="node"><title>Node12</title>
<g id="a_node12"><a xlink:href="classstatisticSource.html#a8c153e3e3576668f5e68af94f441319e" target="_top" xlink:title="statisticSource::setInternal\lScaleFactor">
<polygon fill="white" stroke="black" points="804,-25 804,-55 938,-55 938,-25 804,-25"/>
<text text-anchor="start" x="812" y="-43" font-family="Helvetica,sans-Serif" font-size="10.00">statisticSource::setInternal</text>
<text text-anchor="middle" x="871" y="-32" font-family="Helvetica,sans-Serif" font-size="10.00">ScaleFactor</text>
</a>
</g>
</g>
<!-- Node11&#45;&gt;Node12 -->
<g id="edge12" class="edge"><title>Node11&#45;&gt;Node12</title>
<path fill="none" stroke="midnightblue" d="M766.473,-40C775.39,-40 784.569,-40 793.605,-40"/>
<polygon fill="midnightblue" stroke="midnightblue" points="793.724,-43.5001 803.724,-40 793.724,-36.5001 793.724,-43.5001"/>
</g>
<!-- Node13 -->
<g id="node13" class="node"><title>Node13</title>
<g id="a_node13"><a xlink:href="typedef_8h.html#a9aaa34d570ccff65aa586904187cfff5" target="_top" xlink:title="clip">
<polygon fill="white" stroke="black" points="1035,-0.5 1035,-19.5 1067,-19.5 1067,-0.5 1035,-0.5"/>
<text text-anchor="middle" x="1051" y="-7.5" font-family="Helvetica,sans-Serif" font-size="10.00">clip</text>
</a>
</g>
</g>
<!-- Node12&#45;&gt;Node13 -->
<g id="edge13" class="edge"><title>Node12&#45;&gt;Node13</title>
<path fill="none" stroke="midnightblue" d="M938.028,-28.8717C968.297,-23.7702 1002.37,-18.0272 1024.9,-14.2309"/>
<polygon fill="midnightblue" stroke="midnightblue" points="1025.68,-17.6483 1034.96,-12.535 1024.52,-10.7457 1025.68,-17.6483"/>
</g>
<!-- Node14 -->
<g id="node14" class="node"><title>Node14</title>
<g id="a_node14"><a xlink:href="classstatisticSource.html#ab919493c131a2f9b26c1c212c05ad223" target="_top" xlink:title="statisticSource::internal\lScaleFactor">
<polygon fill="white" stroke="black" points="1177.5,-66 1177.5,-96 1296.5,-96 1296.5,-66 1177.5,-66"/>
<text text-anchor="start" x="1185.5" y="-84" font-family="Helvetica,sans-Serif" font-size="10.00">statisticSource::internal</text>
<text text-anchor="middle" x="1237" y="-73" font-family="Helvetica,sans-Serif" font-size="10.00">ScaleFactor</text>
</a>
</g>
</g>
<!-- Node12&#45;&gt;Node14 -->
<g id="edge14" class="edge"><title>Node12&#45;&gt;Node14</title>
<path fill="none" stroke="midnightblue" d="M938.092,-46.6472C989.38,-51.8969 1062.24,-59.5549 1126,-67 1139.26,-68.548 1153.4,-70.2843 1166.98,-71.9934"/>
<polygon fill="midnightblue" stroke="midnightblue" points="1166.87,-75.5072 1177.23,-73.2915 1167.75,-68.5627 1166.87,-75.5072"/>
</g>
<!-- Node16 -->
<g id="node16" class="node"><title>Node16</title>
<g id="a_node16"><a xlink:href="classStatisticsObject.html#a7ef3844aa2a91ec4fc67233f7a6f5552" target="_top" xlink:title="StatisticsObject::loadImage">
<polygon fill="white" stroke="black" points="802.5,-165.5 802.5,-184.5 939.5,-184.5 939.5,-165.5 802.5,-165.5"/>
<text text-anchor="middle" x="871" y="-172.5" font-family="Helvetica,sans-Serif" font-size="10.00">StatisticsObject::loadImage</text>
</a>
</g>
</g>
<!-- Node15&#45;&gt;Node16 -->
<g id="edge16" class="edge"><title>Node15&#45;&gt;Node16</title>
<path fill="none" stroke="midnightblue" d="M756.712,-176.317C768.077,-176.185 780.152,-176.045 792.022,-175.907"/>
<polygon fill="midnightblue" stroke="midnightblue" points="792.418,-179.402 802.377,-175.786 792.337,-172.403 792.418,-179.402"/>
</g>
<!-- Node16&#45;&gt;Node10 -->
<g id="edge21" class="edge"><title>Node16&#45;&gt;Node10</title>
<path fill="none" stroke="midnightblue" d="M883.382,-165.395C901.722,-150.386 939.465,-121.398 976,-105 981.349,-102.599 987.057,-100.461 992.841,-98.5664"/>
<polygon fill="midnightblue" stroke="midnightblue" points="994.044,-101.859 1002.6,-95.6043 992.01,-95.1609 994.044,-101.859"/>
</g>
<!-- Node17 -->
<g id="node17" class="node"><title>Node17</title>
<g id="a_node17"><a xlink:href="classStatisticsObject.html#a977403d59c77839b97f38c4c5d09483b" target="_top" xlink:title="StatisticsObject::numFrames">
<polygon fill="white" stroke="black" points="979,-240.5 979,-259.5 1123,-259.5 1123,-240.5 979,-240.5"/>
<text text-anchor="middle" x="1051" y="-247.5" font-family="Helvetica,sans-Serif" font-size="10.00">StatisticsObject::numFrames</text>
</a>
</g>
</g>
<!-- Node16&#45;&gt;Node17 -->
<g id="edge17" class="edge"><title>Node16&#45;&gt;Node17</title>
<path fill="none" stroke="midnightblue" d="M886.946,-184.558C906.665,-196.807 942.767,-218.009 976,-231 982.308,-233.466 989.044,-235.704 995.786,-237.707"/>
<polygon fill="midnightblue" stroke="midnightblue" points="995.044,-241.134 1005.62,-240.473 996.94,-234.396 995.044,-241.134"/>
</g>
<!-- Node19 -->
<g id="node19" class="node"><title>Node19</title>
<g id="a_node19"><a xlink:href="classStatisticsObject.html#a9d90fa9d1b1373e6f93a9839c757739a" target="_top" xlink:title="StatisticsObject::internal\lScaleFactor">
<polygon fill="white" stroke="black" points="989,-115 989,-145 1113,-145 1113,-115 989,-115"/>
<text text-anchor="start" x="997" y="-133" font-family="Helvetica,sans-Serif" font-size="10.00">StatisticsObject::internal</text>
<text text-anchor="middle" x="1051" y="-122" font-family="Helvetica,sans-Serif" font-size="10.00">ScaleFactor</text>
</a>
</g>
</g>
<!-- Node16&#45;&gt;Node19 -->
<g id="edge19" class="edge"><title>Node16&#45;&gt;Node19</title>
<path fill="none" stroke="midnightblue" d="M909.749,-165.457C930.379,-160.241 956.581,-153.617 980.74,-147.51"/>
<polygon fill="midnightblue" stroke="midnightblue" points="981.752,-150.864 990.589,-145.02 980.037,-144.077 981.752,-150.864"/>
</g>
<!-- Node20 -->
<g id="node20" class="node"><title>Node20</title>
<g id="a_node20"><a xlink:href="classDisplayObject.html#a814782fb1bf9e7a2ed7adab74872c08a" target="_top" xlink:title="DisplayObject::height">
<polygon fill="white" stroke="black" points="996,-202.5 996,-221.5 1106,-221.5 1106,-202.5 996,-202.5"/>
<text text-anchor="middle" x="1051" y="-209.5" font-family="Helvetica,sans-Serif" font-size="10.00">DisplayObject::height</text>
</a>
</g>
</g>
<!-- Node16&#45;&gt;Node20 -->
<g id="edge22" class="edge"><title>Node16&#45;&gt;Node20</title>
<path fill="none" stroke="midnightblue" d="M917.839,-184.528C941.107,-189.365 969.567,-195.281 994.11,-200.382"/>
<polygon fill="midnightblue" stroke="midnightblue" points="993.504,-203.831 1004.01,-202.44 994.929,-196.978 993.504,-203.831"/>
</g>
<!-- Node21 -->
<g id="node21" class="node"><title>Node21</title>
<g id="a_node21"><a xlink:href="classstatisticSource.html#a97118da6546c479004129b4fcc6851bf" target="_top" xlink:title="statisticSource::drawStatistics">
<polygon fill="white" stroke="black" points="976,-164.5 976,-183.5 1126,-183.5 1126,-164.5 976,-164.5"/>
<text text-anchor="middle" x="1051" y="-171.5" font-family="Helvetica,sans-Serif" font-size="10.00">statisticSource::drawStatistics</text>
</a>
</g>
</g>
<!-- Node16&#45;&gt;Node21 -->
<g id="edge23" class="edge"><title>Node16&#45;&gt;Node21</title>
<path fill="none" stroke="midnightblue" d="M939.548,-174.621C948.101,-174.572 956.936,-174.523 965.709,-174.474"/>
<polygon fill="midnightblue" stroke="midnightblue" points="965.979,-177.972 975.959,-174.416 965.94,-170.972 965.979,-177.972"/>
</g>
<!-- Node18 -->
<g id="node18" class="node"><title>Node18</title>
<g id="a_node18"><a xlink:href="classstatisticSource.html#a49d2c60f7ce52592509c07fdc9d8e268" target="_top" xlink:title="statisticSource::getNumber\lFrames">
<polygon fill="white" stroke="black" points="1169,-235 1169,-265 1305,-265 1305,-235 1169,-235"/>
<text text-anchor="start" x="1177" y="-253" font-family="Helvetica,sans-Serif" font-size="10.00">statisticSource::getNumber</text>
<text text-anchor="middle" x="1237" y="-242" font-family="Helvetica,sans-Serif" font-size="10.00">Frames</text>
</a>
</g>
</g>
<!-- Node17&#45;&gt;Node18 -->
<g id="edge18" class="edge"><title>Node17&#45;&gt;Node18</title>
<path fill="none" stroke="midnightblue" d="M1123.14,-250C1134.79,-250 1146.92,-250 1158.71,-250"/>
<polygon fill="midnightblue" stroke="midnightblue" points="1158.97,-253.5 1168.97,-250 1158.97,-246.5 1158.97,-253.5"/>
</g>
<!-- Node19&#45;&gt;Node14 -->
<g id="edge20" class="edge"><title>Node19&#45;&gt;Node14</title>
<path fill="none" stroke="midnightblue" d="M1108.46,-114.965C1127.88,-109.792 1149.81,-103.952 1169.93,-98.5934"/>
<polygon fill="midnightblue" stroke="midnightblue" points="1170.89,-101.962 1179.65,-96.0062 1169.09,-95.1975 1170.89,-101.962"/>
</g>
<!-- Node22 -->
<g id="node22" class="node"><title>Node22</title>
<g id="a_node22"><a xlink:href="classstatisticSource.html#a666dee63c406a9b88484286b2a8e08f4" target="_top" xlink:title="statisticSource::getStatistics">
<polygon fill="white" stroke="black" points="1165.5,-180.5 1165.5,-199.5 1308.5,-199.5 1308.5,-180.5 1165.5,-180.5"/>
<text text-anchor="middle" x="1237" y="-187.5" font-family="Helvetica,sans-Serif" font-size="10.00">statisticSource::getStatistics</text>
</a>
</g>
</g>
<!-- Node21&#45;&gt;Node22 -->
<g id="edge24" class="edge"><title>Node21&#45;&gt;Node22</title>
<path fill="none" stroke="midnightblue" d="M1126.04,-180.439C1135.68,-181.276 1145.59,-182.138 1155.32,-182.985"/>
<polygon fill="midnightblue" stroke="midnightblue" points="1155.12,-186.48 1165.39,-183.86 1155.73,-179.507 1155.12,-186.48"/>
</g>
<!-- Node24 -->
<g id="node24" class="node"><title>Node24</title>
<g id="a_node24"><a xlink:href="classstatisticSource.html#af005d063b46b611d6166d4d8439d6245" target="_top" xlink:title="statisticSource::drawStatistics\lImage">
<polygon fill="white" stroke="black" points="1162,-131 1162,-161 1312,-161 1312,-131 1162,-131"/>
<text text-anchor="start" x="1170" y="-149" font-family="Helvetica,sans-Serif" font-size="10.00">statisticSource::drawStatistics</text>
<text text-anchor="middle" x="1237" y="-138" font-family="Helvetica,sans-Serif" font-size="10.00">Image</text>
</a>
</g>
</g>
<!-- Node21&#45;&gt;Node24 -->
<g id="edge26" class="edge"><title>Node21&#45;&gt;Node24</title>
<path fill="none" stroke="midnightblue" d="M1114.55,-164.481C1126.55,-162.655 1139.3,-160.715 1151.86,-158.805"/>
<polygon fill="midnightblue" stroke="midnightblue" points="1152.5,-162.246 1161.86,-157.282 1151.45,-155.326 1152.5,-162.246"/>
</g>
<!-- Node23 -->
<g id="node23" class="node"><title>Node23</title>
<g id="a_node23"><a xlink:href="classstatisticSource.html#a769e0ef8bb1427d4d586425956ebfca2" target="_top" xlink:title="statisticSource::loadStatistic\lToCache">
<polygon fill="white" stroke="black" points="1348,-175 1348,-205 1490,-205 1490,-175 1348,-175"/>
<text text-anchor="start" x="1356" y="-193" font-family="Helvetica,sans-Serif" font-size="10.00">statisticSource::loadStatistic</text>
<text text-anchor="middle" x="1419" y="-182" font-family="Helvetica,sans-Serif" font-size="10.00">ToCache</text>
</a>
</g>
</g>
<!-- Node22&#45;&gt;Node23 -->
<g id="edge25" class="edge"><title>Node22&#45;&gt;Node23</title>
<path fill="none" stroke="midnightblue" d="M1308.62,-190C1318.2,-190 1328.08,-190 1337.81,-190"/>
<polygon fill="midnightblue" stroke="midnightblue" points="1337.87,-193.5 1347.87,-190 1337.87,-186.5 1337.87,-193.5"/>
</g>
<!-- Node25 -->
<g id="node25" class="node"><title>Node25</title>
<g id="a_node25"><a xlink:href="statisticSource_8cpp.html#a00b2533858fa82f16ddb39544cfff2b4" target="_top" xlink:title="rotateVector">
<polygon fill="white" stroke="black" points="1384,-136.5 1384,-155.5 1454,-155.5 1454,-136.5 1384,-136.5"/>
<text text-anchor="middle" x="1419" y="-143.5" font-family="Helvetica,sans-Serif" font-size="10.00">rotateVector</text>
</a>
</g>
</g>
<!-- Node24&#45;&gt;Node25 -->
<g id="edge27" class="edge"><title>Node24&#45;&gt;Node25</title>
<path fill="none" stroke="midnightblue" d="M1312.25,-146C1333.07,-146 1355.05,-146 1373.55,-146"/>
<polygon fill="midnightblue" stroke="midnightblue" points="1373.72,-149.5 1383.72,-146 1373.72,-142.5 1373.72,-149.5"/>
</g>
</g>
</svg>
