<?xml version="1.0" encoding="UTF-8" standalone="no"?>
<!DOCTYPE svg PUBLIC "-//W3C//DTD SVG 1.1//EN"
 "http://www.w3.org/Graphics/SVG/1.1/DTD/svg11.dtd">
<!-- Generated by graphviz version 2.38.0 (20140413.2041)
 -->
<!-- Title: PListSerializer::serializeList Pages: 1 -->
<svg width="1006pt" height="94pt"
 viewBox="0.00 0.00 1006.00 93.50" xmlns="http://www.w3.org/2000/svg" xmlns:xlink="http://www.w3.org/1999/xlink">
<g id="graph0" class="graph" transform="scale(1 1) rotate(0) translate(4 89.5)">
<title>PListSerializer::serializeList</title>
<polygon fill="white" stroke="none" points="-4,4 -4,-89.5 1002,-89.5 1002,4 -4,4"/>
<!-- Node1 -->
<g id="node1" class="node"><title>Node1</title>
<polygon fill="#bfbfbf" stroke="black" points="0,-60.5 0,-79.5 137,-79.5 137,-60.5 0,-60.5"/>
<text text-anchor="middle" x="68.5" y="-67.5" font-family="Helvetica,sans-Serif" font-size="10.00">PListSerializer::serializeList</text>
</g>
<!-- Node2 -->
<g id="node2" class="node"><title>Node2</title>
<g id="a_node2"><a xlink:href="classPListSerializer.html#a0167db85d915aea8d37b3e76b444fd31" target="_top" xlink:title="PListSerializer::serialize\lElement">
<polygon fill="white" stroke="black" points="173,-55 173,-85 295,-85 295,-55 173,-55"/>
<text text-anchor="start" x="181" y="-73" font-family="Helvetica,sans-Serif" font-size="10.00">PListSerializer::serialize</text>
<text text-anchor="middle" x="234" y="-62" font-family="Helvetica,sans-Serif" font-size="10.00">Element</text>
</a>
</g>
</g>
<!-- Node1&#45;&gt;Node2 -->
<g id="edge1" class="edge"><title>Node1&#45;&gt;Node2</title>
<path fill="none" stroke="midnightblue" d="M147.688,-63.2557C156.148,-63.2286 164.658,-63.2981 172.857,-63.4641"/>
<polygon fill="midnightblue" stroke="midnightblue" points="147.39,-59.7578 137.418,-63.3366 147.446,-66.7576 147.39,-59.7578"/>
</g>
<!-- Node2&#45;&gt;Node1 -->
<g id="edge2" class="edge"><title>Node2&#45;&gt;Node1</title>
<path fill="none" stroke="midnightblue" d="M162.726,-76.6905C154.334,-76.778 145.777,-76.769 137.418,-76.6634"/>
<polygon fill="midnightblue" stroke="midnightblue" points="162.911,-80.1882 172.857,-76.5359 162.805,-73.189 162.911,-80.1882"/>
</g>
<!-- Node3 -->
<g id="node3" class="node"><title>Node3</title>
<g id="a_node3"><a xlink:href="classPListSerializer.html#a7f93d3cb22cfbbee86b0e0e15b88bb70" target="_top" xlink:title="PListSerializer::serializeMap">
<polygon fill="white" stroke="black" points="331,-60.5 331,-79.5 471,-79.5 471,-60.5 331,-60.5"/>
<text text-anchor="middle" x="401" y="-67.5" font-family="Helvetica,sans-Serif" font-size="10.00">PListSerializer::serializeMap</text>
</a>
</g>
</g>
<!-- Node2&#45;&gt;Node3 -->
<g id="edge3" class="edge"><title>Node2&#45;&gt;Node3</title>
<path fill="none" stroke="midnightblue" d="M305.24,-63.3167C313.698,-63.2241 322.331,-63.2279 330.774,-63.3283"/>
<polygon fill="midnightblue" stroke="midnightblue" points="304.979,-59.8203 295.036,-63.4775 305.089,-66.8194 304.979,-59.8203"/>
</g>
<!-- Node4 -->
<g id="node4" class="node"><title>Node4</title>
<g id="a_node4"><a xlink:href="classPListSerializer.html#abfd3f0538d84ac3c6f18b9aa3846a04c" target="_top" xlink:title="PListSerializer::toPList">
<polygon fill="white" stroke="black" points="343,-22.5 343,-41.5 459,-41.5 459,-22.5 343,-22.5"/>
<text text-anchor="middle" x="401" y="-29.5" font-family="Helvetica,sans-Serif" font-size="10.00">PListSerializer::toPList</text>
</a>
</g>
</g>
<!-- Node2&#45;&gt;Node4 -->
<g id="edge5" class="edge"><title>Node2&#45;&gt;Node4</title>
<path fill="none" stroke="midnightblue" d="M304.805,-53.9236C323.12,-49.7058 342.289,-45.2911 358.586,-41.5378"/>
<polygon fill="midnightblue" stroke="midnightblue" points="303.995,-50.5186 295.036,-56.1736 305.566,-57.34 303.995,-50.5186"/>
</g>
<!-- Node3&#45;&gt;Node2 -->
<g id="edge4" class="edge"><title>Node3&#45;&gt;Node2</title>
<path fill="none" stroke="midnightblue" d="M320.687,-76.7455C312.057,-76.7698 303.38,-76.6954 295.036,-76.5225"/>
<polygon fill="midnightblue" stroke="midnightblue" points="320.8,-80.2449 330.774,-76.6717 320.749,-73.2451 320.8,-80.2449"/>
</g>
<!-- Node5 -->
<g id="node5" class="node"><title>Node5</title>
<g id="a_node5"><a xlink:href="classMainWindow.html#a88624964fbb9d67df9149b29fab6f225" target="_top" xlink:title="MainWindow::savePlaylist\lToFile">
<polygon fill="white" stroke="black" points="507,-17 507,-47 639,-47 639,-17 507,-17"/>
<text text-anchor="start" x="515" y="-35" font-family="Helvetica,sans-Serif" font-size="10.00">MainWindow::savePlaylist</text>
<text text-anchor="middle" x="573" y="-24" font-family="Helvetica,sans-Serif" font-size="10.00">ToFile</text>
</a>
</g>
</g>
<!-- Node4&#45;&gt;Node5 -->
<g id="edge6" class="edge"><title>Node4&#45;&gt;Node5</title>
<path fill="none" stroke="midnightblue" d="M469.317,-32C481.678,-32 494.561,-32 506.857,-32"/>
<polygon fill="midnightblue" stroke="midnightblue" points="469.08,-28.5001 459.08,-32 469.08,-35.5001 469.08,-28.5001"/>
</g>
<!-- Node6 -->
<g id="node6" class="node"><title>Node6</title>
<g id="a_node6"><a xlink:href="classMainWindow.html#a9df7443ce5f907903438bb6a9abe9a33" target="_top" xlink:title="MainWindow::createMenusAnd\lActions">
<polygon fill="white" stroke="black" points="675,-39 675,-69 827,-69 827,-39 675,-39"/>
<text text-anchor="start" x="683" y="-57" font-family="Helvetica,sans-Serif" font-size="10.00">MainWindow::createMenusAnd</text>
<text text-anchor="middle" x="751" y="-46" font-family="Helvetica,sans-Serif" font-size="10.00">Actions</text>
</a>
</g>
</g>
<!-- Node5&#45;&gt;Node6 -->
<g id="edge7" class="edge"><title>Node5&#45;&gt;Node6</title>
<path fill="none" stroke="midnightblue" d="M648.985,-41.3731C657.543,-42.4428 666.268,-43.5336 674.829,-44.6036"/>
<polygon fill="midnightblue" stroke="midnightblue" points="649.393,-37.8969 639.036,-40.1295 648.524,-44.8429 649.393,-37.8969"/>
</g>
<!-- Node8 -->
<g id="node8" class="node"><title>Node8</title>
<g id="a_node8"><a xlink:href="classMainWindow.html#a4e20a4a065fbb0e4d3532a45a0a91425" target="_top" xlink:title="MainWindow::closeEvent">
<polygon fill="white" stroke="black" points="687,-0.5 687,-19.5 815,-19.5 815,-0.5 687,-0.5"/>
<text text-anchor="middle" x="751" y="-7.5" font-family="Helvetica,sans-Serif" font-size="10.00">MainWindow::closeEvent</text>
</a>
</g>
</g>
<!-- Node5&#45;&gt;Node8 -->
<g id="edge9" class="edge"><title>Node5&#45;&gt;Node8</title>
<path fill="none" stroke="midnightblue" d="M649.069,-22.6163C661.703,-21.0371 674.7,-19.4125 686.988,-17.8765"/>
<polygon fill="midnightblue" stroke="midnightblue" points="648.524,-19.1571 639.036,-23.8705 649.393,-26.1031 648.524,-19.1571"/>
</g>
<!-- Node7 -->
<g id="node7" class="node"><title>Node7</title>
<g id="a_node7"><a xlink:href="classMainWindow.html#a8b244be8b7b7db1b08de2a2acb9409db" target="_top" xlink:title="MainWindow::MainWindow">
<polygon fill="white" stroke="black" points="863,-44.5 863,-63.5 998,-63.5 998,-44.5 863,-44.5"/>
<text text-anchor="middle" x="930.5" y="-51.5" font-family="Helvetica,sans-Serif" font-size="10.00">MainWindow::MainWindow</text>
</a>
</g>
</g>
<!-- Node6&#45;&gt;Node7 -->
<g id="edge8" class="edge"><title>Node6&#45;&gt;Node7</title>
<path fill="none" stroke="midnightblue" d="M837.138,-54C845.793,-54 854.494,-54 862.911,-54"/>
<polygon fill="midnightblue" stroke="midnightblue" points="837.019,-50.5001 827.019,-54 837.019,-57.5001 837.019,-50.5001"/>
</g>
</g>
</svg>
