<?xml version="1.0" encoding="UTF-8" standalone="no"?>
<!DOCTYPE svg PUBLIC "-//W3C//DTD SVG 1.1//EN"
 "http://www.w3.org/Graphics/SVG/1.1/DTD/svg11.dtd">
<!-- Generated by graphviz version 2.38.0 (20140413.2041)
 -->
<!-- Title: MainWindow::openFile Pages: 1 -->
<svg width="513pt" height="78pt"
 viewBox="0.00 0.00 513.00 77.50" xmlns="http://www.w3.org/2000/svg" xmlns:xlink="http://www.w3.org/1999/xlink">
<g id="graph0" class="graph" transform="scale(1 1) rotate(0) translate(4 73.5)">
<title>MainWindow::openFile</title>
<polygon fill="white" stroke="none" points="-4,4 -4,-73.5 509,-73.5 509,4 -4,4"/>
<!-- Node1 -->
<g id="node1" class="node"><title>Node1</title>
<polygon fill="#bfbfbf" stroke="black" points="0,-22.5 0,-41.5 116,-41.5 116,-22.5 0,-22.5"/>
<text text-anchor="middle" x="58" y="-29.5" font-family="Helvetica,sans-Serif" font-size="10.00">MainWindow::openFile</text>
</g>
<!-- Node2 -->
<g id="node2" class="node"><title>Node2</title>
<g id="a_node2"><a xlink:href="classMainWindow.html#a9df7443ce5f907903438bb6a9abe9a33" target="_top" xlink:title="MainWindow::createMenusAnd\lActions">
<polygon fill="white" stroke="black" points="167,-39 167,-69 319,-69 319,-39 167,-39"/>
<text text-anchor="start" x="175" y="-57" font-family="Helvetica,sans-Serif" font-size="10.00">MainWindow::createMenusAnd</text>
<text text-anchor="middle" x="243" y="-46" font-family="Helvetica,sans-Serif" font-size="10.00">Actions</text>
</a>
</g>
</g>
<!-- Node1&#45;&gt;Node2 -->
<g id="edge1" class="edge"><title>Node1&#45;&gt;Node2</title>
<path fill="none" stroke="midnightblue" d="M126.111,-40.068C139.351,-41.6597 153.327,-43.3398 166.813,-44.9612"/>
<polygon fill="midnightblue" stroke="midnightblue" points="126.496,-36.5891 116.15,-38.8704 125.66,-43.5391 126.496,-36.5891"/>
</g>
<!-- Node4 -->
<g id="node4" class="node"><title>Node4</title>
<g id="a_node4"><a xlink:href="classMainWindow.html#aaba5c236313378986c42c4a634c4cfb9" target="_top" xlink:title="MainWindow::onCustomContextMenu">
<polygon fill="white" stroke="black" points="152,-0.5 152,-19.5 334,-19.5 334,-0.5 152,-0.5"/>
<text text-anchor="middle" x="243" y="-7.5" font-family="Helvetica,sans-Serif" font-size="10.00">MainWindow::onCustomContextMenu</text>
</a>
</g>
</g>
<!-- Node1&#45;&gt;Node4 -->
<g id="edge3" class="edge"><title>Node1&#45;&gt;Node4</title>
<path fill="none" stroke="midnightblue" d="M126.394,-23.898C138.246,-22.4732 150.679,-20.9784 162.818,-19.5191"/>
<polygon fill="midnightblue" stroke="midnightblue" points="125.66,-20.4609 116.15,-25.1296 126.496,-27.4109 125.66,-20.4609"/>
</g>
<!-- Node3 -->
<g id="node3" class="node"><title>Node3</title>
<g id="a_node3"><a xlink:href="classMainWindow.html#a8b244be8b7b7db1b08de2a2acb9409db" target="_top" xlink:title="MainWindow::MainWindow">
<polygon fill="white" stroke="black" points="370,-22.5 370,-41.5 505,-41.5 505,-22.5 370,-22.5"/>
<text text-anchor="middle" x="437.5" y="-29.5" font-family="Helvetica,sans-Serif" font-size="10.00">MainWindow::MainWindow</text>
</a>
</g>
</g>
<!-- Node2&#45;&gt;Node3 -->
<g id="edge2" class="edge"><title>Node2&#45;&gt;Node3</title>
<path fill="none" stroke="midnightblue" d="M329.497,-44.2289C342.989,-42.6869 356.767,-41.1123 369.752,-39.6283"/>
<polygon fill="midnightblue" stroke="midnightblue" points="328.79,-40.7868 319.253,-45.3997 329.585,-47.7415 328.79,-40.7868"/>
</g>
<!-- Node4&#45;&gt;Node3 -->
<g id="edge4" class="edge"><title>Node4&#45;&gt;Node3</title>
<path fill="none" stroke="midnightblue" d="M337.363,-20.6701C348.339,-21.9244 359.365,-23.1845 369.869,-24.385"/>
<polygon fill="midnightblue" stroke="midnightblue" points="337.646,-17.1798 327.314,-19.5216 336.852,-24.1345 337.646,-17.1798"/>
</g>
</g>
</svg>
