<?xml version="1.0" encoding="UTF-8" standalone="no"?>
<!DOCTYPE svg PUBLIC "-//W3C//DTD SVG 1.1//EN"
 "http://www.w3.org/Graphics/SVG/1.1/DTD/svg11.dtd">
<!-- Generated by graphviz version 2.38.0 (20140413.2041)
 -->
<!-- Title: DisplayObject::setInternalScaleFactor Pages: 1 -->
<svg width="916pt" height="524pt"
 viewBox="0.00 0.00 916.00 524.00" xmlns="http://www.w3.org/2000/svg" xmlns:xlink="http://www.w3.org/1999/xlink">
<g id="graph0" class="graph" transform="scale(1 1) rotate(0) translate(4 520)">
<title>DisplayObject::setInternalScaleFactor</title>
<polygon fill="white" stroke="none" points="-4,4 -4,-520 912,-520 912,4 -4,4"/>
<!-- Node1 -->
<g id="node1" class="node"><title>Node1</title>
<polygon fill="#bfbfbf" stroke="black" points="0,-341.5 0,-371.5 130,-371.5 130,-341.5 0,-341.5"/>
<text text-anchor="start" x="8" y="-359.5" font-family="Helvetica,sans-Serif" font-size="10.00">DisplayObject::setInternal</text>
<text text-anchor="middle" x="65" y="-348.5" font-family="Helvetica,sans-Serif" font-size="10.00">ScaleFactor</text>
</g>
<!-- Node2 -->
<g id="node2" class="node"><title>Node2</title>
<g id="a_node2"><a xlink:href="classDisplayWidget.html#a822a3c50c6c602fafff6ef2132ccdb42" target="_top" xlink:title="DisplayWidget::setDisplayRect">
<polygon fill="white" stroke="black" points="166,-347 166,-366 320,-366 320,-347 166,-347"/>
<text text-anchor="middle" x="243" y="-354" font-family="Helvetica,sans-Serif" font-size="10.00">DisplayWidget::setDisplayRect</text>
</a>
</g>
</g>
<!-- Node1&#45;&gt;Node2 -->
<g id="edge1" class="edge"><title>Node1&#45;&gt;Node2</title>
<path fill="none" stroke="midnightblue" d="M140.225,-356.5C148.664,-356.5 157.276,-356.5 165.742,-356.5"/>
<polygon fill="midnightblue" stroke="midnightblue" points="140.038,-353 130.038,-356.5 140.038,-360 140.038,-353"/>
</g>
<!-- Node3 -->
<g id="node3" class="node"><title>Node3</title>
<g id="a_node3"><a xlink:href="classDisplaySplitWidget.html#a07d514c8000eade67022e9f73a4214c0" target="_top" xlink:title="DisplaySplitWidget\l::zoomToPoint">
<polygon fill="white" stroke="black" points="356,-404.5 356,-434.5 456,-434.5 456,-404.5 356,-404.5"/>
<text text-anchor="start" x="364" y="-422.5" font-family="Helvetica,sans-Serif" font-size="10.00">DisplaySplitWidget</text>
<text text-anchor="middle" x="406" y="-411.5" font-family="Helvetica,sans-Serif" font-size="10.00">::zoomToPoint</text>
</a>
</g>
</g>
<!-- Node2&#45;&gt;Node3 -->
<g id="edge2" class="edge"><title>Node2&#45;&gt;Node3</title>
<path fill="none" stroke="midnightblue" d="M277.861,-369.75C303.766,-379.887 339.509,-393.873 366.5,-404.435"/>
<polygon fill="midnightblue" stroke="midnightblue" points="279.04,-366.453 268.452,-366.068 276.489,-372.972 279.04,-366.453"/>
</g>
<!-- Node4 -->
<g id="node4" class="node"><title>Node4</title>
<g id="a_node4"><a xlink:href="classDisplaySplitWidget.html#ad714b0427a31a3ac29bf0f0a2c1f3611" target="_top" xlink:title="DisplaySplitWidget\l::zoomIn">
<polygon fill="white" stroke="black" points="498.5,-338.5 498.5,-368.5 598.5,-368.5 598.5,-338.5 498.5,-338.5"/>
<text text-anchor="start" x="506.5" y="-356.5" font-family="Helvetica,sans-Serif" font-size="10.00">DisplaySplitWidget</text>
<text text-anchor="middle" x="548.5" y="-345.5" font-family="Helvetica,sans-Serif" font-size="10.00">::zoomIn</text>
</a>
</g>
</g>
<!-- Node2&#45;&gt;Node4 -->
<g id="edge13" class="edge"><title>Node2&#45;&gt;Node4</title>
<path fill="none" stroke="midnightblue" d="M330.528,-355.645C384.917,-355.107 453.111,-354.433 498.378,-353.986"/>
<polygon fill="midnightblue" stroke="midnightblue" points="330.159,-352.148 320.194,-355.747 330.228,-359.148 330.159,-352.148"/>
</g>
<!-- Node8 -->
<g id="node8" class="node"><title>Node8</title>
<g id="a_node8"><a xlink:href="classDisplaySplitWidget.html#aeea14bc10ca6579ab6f68f8150f9ac5f" target="_top" xlink:title="DisplaySplitWidget\l::zoomOut">
<polygon fill="white" stroke="black" points="498.5,-436.5 498.5,-466.5 598.5,-466.5 598.5,-436.5 498.5,-436.5"/>
<text text-anchor="start" x="506.5" y="-454.5" font-family="Helvetica,sans-Serif" font-size="10.00">DisplaySplitWidget</text>
<text text-anchor="middle" x="548.5" y="-443.5" font-family="Helvetica,sans-Serif" font-size="10.00">::zoomOut</text>
</a>
</g>
</g>
<!-- Node2&#45;&gt;Node8 -->
<g id="edge14" class="edge"><title>Node2&#45;&gt;Node8</title>
<path fill="none" stroke="midnightblue" d="M259.312,-373.924C279.17,-395.112 316.03,-429.853 356,-444.5 402.075,-461.384 458.629,-461.136 498.291,-457.892"/>
<polygon fill="midnightblue" stroke="midnightblue" points="261.662,-371.308 252.335,-366.282 256.492,-376.027 261.662,-371.308"/>
</g>
<!-- Node9 -->
<g id="node9" class="node"><title>Node9</title>
<g id="a_node9"><a xlink:href="classDisplaySplitWidget.html#a43d312016afd6d843f1c624905f4afee" target="_top" xlink:title="DisplaySplitWidget\l::zoomToFit">
<polygon fill="white" stroke="black" points="498.5,-387.5 498.5,-417.5 598.5,-417.5 598.5,-387.5 498.5,-387.5"/>
<text text-anchor="start" x="506.5" y="-405.5" font-family="Helvetica,sans-Serif" font-size="10.00">DisplaySplitWidget</text>
<text text-anchor="middle" x="548.5" y="-394.5" font-family="Helvetica,sans-Serif" font-size="10.00">::zoomToFit</text>
</a>
</g>
</g>
<!-- Node2&#45;&gt;Node9 -->
<g id="edge15" class="edge"><title>Node2&#45;&gt;Node9</title>
<path fill="none" stroke="midnightblue" d="M317.118,-367.582C373.214,-376.084 449.117,-387.589 498.197,-395.027"/>
<polygon fill="midnightblue" stroke="midnightblue" points="317.297,-364.069 306.885,-366.031 316.248,-370.99 317.297,-364.069"/>
</g>
<!-- Node10 -->
<g id="node10" class="node"><title>Node10</title>
<g id="a_node10"><a xlink:href="classDisplaySplitWidget.html#a0a3afd6247d51bc2ca6fabfc30ff9548" target="_top" xlink:title="DisplaySplitWidget\l::mouseReleaseEvent">
<polygon fill="white" stroke="black" points="492,-485.5 492,-515.5 605,-515.5 605,-485.5 492,-485.5"/>
<text text-anchor="start" x="500" y="-503.5" font-family="Helvetica,sans-Serif" font-size="10.00">DisplaySplitWidget</text>
<text text-anchor="middle" x="548.5" y="-492.5" font-family="Helvetica,sans-Serif" font-size="10.00">::mouseReleaseEvent</text>
</a>
</g>
</g>
<!-- Node2&#45;&gt;Node10 -->
<g id="edge20" class="edge"><title>Node2&#45;&gt;Node10</title>
<path fill="none" stroke="midnightblue" d="M256.863,-374.471C275.645,-399.247 313.049,-443.341 356,-465.5 398.35,-487.349 452.142,-495.748 491.925,-498.884"/>
<polygon fill="midnightblue" stroke="midnightblue" points="259.573,-372.249 250.81,-366.294 253.947,-376.414 259.573,-372.249"/>
</g>
<!-- Node11 -->
<g id="node11" class="node"><title>Node11</title>
<g id="a_node11"><a xlink:href="classDisplaySplitWidget.html#a9421eba026630943587a9ae226c7f8d6" target="_top" xlink:title="DisplaySplitWidget\l::panDisplay">
<polygon fill="white" stroke="black" points="498.5,-289.5 498.5,-319.5 598.5,-319.5 598.5,-289.5 498.5,-289.5"/>
<text text-anchor="start" x="506.5" y="-307.5" font-family="Helvetica,sans-Serif" font-size="10.00">DisplaySplitWidget</text>
<text text-anchor="middle" x="548.5" y="-296.5" font-family="Helvetica,sans-Serif" font-size="10.00">::panDisplay</text>
</a>
</g>
</g>
<!-- Node2&#45;&gt;Node11 -->
<g id="edge16" class="edge"><title>Node2&#45;&gt;Node11</title>
<path fill="none" stroke="midnightblue" d="M309.603,-345.26C366.27,-335.551 446.902,-321.736 498.21,-312.945"/>
<polygon fill="midnightblue" stroke="midnightblue" points="308.932,-341.824 299.667,-346.962 310.114,-348.723 308.932,-341.824"/>
</g>
<!-- Node13 -->
<g id="node13" class="node"><title>Node13</title>
<g id="a_node13"><a xlink:href="classDisplaySplitWidget.html#a337e94b12c4e1837457997cf9d074046" target="_top" xlink:title="DisplaySplitWidget\l::splitterMovedTo">
<polygon fill="white" stroke="black" points="356,-240.5 356,-270.5 456,-270.5 456,-240.5 356,-240.5"/>
<text text-anchor="start" x="364" y="-258.5" font-family="Helvetica,sans-Serif" font-size="10.00">DisplaySplitWidget</text>
<text text-anchor="middle" x="406" y="-247.5" font-family="Helvetica,sans-Serif" font-size="10.00">::splitterMovedTo</text>
</a>
</g>
</g>
<!-- Node2&#45;&gt;Node13 -->
<g id="edge21" class="edge"><title>Node2&#45;&gt;Node13</title>
<path fill="none" stroke="midnightblue" d="M267.771,-341.28C290.396,-326.829 325.43,-304.546 356,-285.5 363.873,-280.595 372.493,-275.294 380.277,-270.533"/>
<polygon fill="midnightblue" stroke="midnightblue" points="265.71,-338.443 259.17,-346.778 269.48,-344.341 265.71,-338.443"/>
</g>
<!-- Node15 -->
<g id="node15" class="node"><title>Node15</title>
<g id="a_node15"><a xlink:href="classDisplaySplitWidget.html#ac88b455e49d13fb34439e45838e468d9" target="_top" xlink:title="DisplaySplitWidget\l::updateView">
<polygon fill="white" stroke="black" points="356,-118.5 356,-148.5 456,-148.5 456,-118.5 356,-118.5"/>
<text text-anchor="start" x="364" y="-136.5" font-family="Helvetica,sans-Serif" font-size="10.00">DisplaySplitWidget</text>
<text text-anchor="middle" x="406" y="-125.5" font-family="Helvetica,sans-Serif" font-size="10.00">::updateView</text>
</a>
</g>
</g>
<!-- Node2&#45;&gt;Node15 -->
<g id="edge23" class="edge"><title>Node2&#45;&gt;Node15</title>
<path fill="none" stroke="midnightblue" d="M256.92,-338.605C287.786,-295.852 365.377,-188.381 394.092,-148.609"/>
<polygon fill="midnightblue" stroke="midnightblue" points="253.934,-336.761 250.918,-346.918 259.609,-340.859 253.934,-336.761"/>
</g>
<!-- Node3&#45;&gt;Node4 -->
<g id="edge3" class="edge"><title>Node3&#45;&gt;Node4</title>
<path fill="none" stroke="midnightblue" d="M446.999,-399.941C461.174,-393.08 477.261,-385.373 492,-378.5 498.992,-375.24 506.509,-371.806 513.683,-368.563"/>
<polygon fill="midnightblue" stroke="midnightblue" points="445.462,-396.796 437.993,-404.31 448.518,-403.093 445.462,-396.796"/>
</g>
<!-- Node3&#45;&gt;Node8 -->
<g id="edge7" class="edge"><title>Node3&#45;&gt;Node8</title>
<path fill="none" stroke="midnightblue" d="M466.201,-432.984C476.841,-435.407 487.827,-437.909 498.15,-440.26"/>
<polygon fill="midnightblue" stroke="midnightblue" points="466.668,-429.5 456.14,-430.692 465.113,-436.325 466.668,-429.5"/>
</g>
<!-- Node3&#45;&gt;Node9 -->
<g id="edge10" class="edge"><title>Node3&#45;&gt;Node9</title>
<path fill="none" stroke="midnightblue" d="M466.201,-412.337C476.841,-411.05 487.827,-409.72 498.15,-408.471"/>
<polygon fill="midnightblue" stroke="midnightblue" points="465.647,-408.878 456.14,-413.554 466.488,-415.828 465.647,-408.878"/>
</g>
<!-- Node3&#45;&gt;Node10 -->
<g id="edge11" class="edge"><title>Node3&#45;&gt;Node10</title>
<path fill="none" stroke="midnightblue" d="M435.726,-440.68C451.822,-452.052 472.523,-465.874 492,-476.5 497.714,-479.617 503.915,-482.632 510.033,-485.412"/>
<polygon fill="midnightblue" stroke="midnightblue" points="437.465,-437.62 427.295,-434.65 433.393,-443.314 437.465,-437.62"/>
</g>
<!-- Node5 -->
<g id="node5" class="node"><title>Node5</title>
<g id="a_node5"><a xlink:href="classDisplaySplitWidget.html#a95fb887b76609440c606ddccadee2318" target="_top" xlink:title="DisplaySplitWidget\l::gestureEvent">
<polygon fill="white" stroke="black" points="656.5,-377.5 656.5,-407.5 756.5,-407.5 756.5,-377.5 656.5,-377.5"/>
<text text-anchor="start" x="664.5" y="-395.5" font-family="Helvetica,sans-Serif" font-size="10.00">DisplaySplitWidget</text>
<text text-anchor="middle" x="706.5" y="-384.5" font-family="Helvetica,sans-Serif" font-size="10.00">::gestureEvent</text>
</a>
</g>
</g>
<!-- Node4&#45;&gt;Node5 -->
<g id="edge4" class="edge"><title>Node4&#45;&gt;Node5</title>
<path fill="none" stroke="midnightblue" d="M608.982,-368.37C624.662,-372.29 641.401,-376.475 656.462,-380.24"/>
<polygon fill="midnightblue" stroke="midnightblue" points="609.41,-364.87 598.859,-365.84 607.712,-371.661 609.41,-364.87"/>
</g>
<!-- Node7 -->
<g id="node7" class="node"><title>Node7</title>
<g id="a_node7"><a xlink:href="classDisplaySplitWidget.html#a3560f335caf77049205e63785c8073ba" target="_top" xlink:title="DisplaySplitWidget\l::wheelEvent">
<polygon fill="white" stroke="black" points="656.5,-431.5 656.5,-461.5 756.5,-461.5 756.5,-431.5 656.5,-431.5"/>
<text text-anchor="start" x="664.5" y="-449.5" font-family="Helvetica,sans-Serif" font-size="10.00">DisplaySplitWidget</text>
<text text-anchor="middle" x="706.5" y="-438.5" font-family="Helvetica,sans-Serif" font-size="10.00">::wheelEvent</text>
</a>
</g>
</g>
<!-- Node4&#45;&gt;Node7 -->
<g id="edge6" class="edge"><title>Node4&#45;&gt;Node7</title>
<path fill="none" stroke="midnightblue" d="M597.142,-373.374C599.867,-374.995 602.508,-376.705 605,-378.5 624.139,-392.289 621.856,-403.718 641,-417.5 648.374,-422.808 656.874,-427.471 665.233,-431.417"/>
<polygon fill="midnightblue" stroke="midnightblue" points="598.689,-370.231 588.236,-368.506 595.332,-376.374 598.689,-370.231"/>
</g>
<!-- Node6 -->
<g id="node6" class="node"><title>Node6</title>
<g id="a_node6"><a xlink:href="classDisplaySplitWidget.html#a152c9ea9cbd3aa079800b6c1d0fbb284" target="_top" xlink:title="DisplaySplitWidget\l::event">
<polygon fill="white" stroke="black" points="808,-355.5 808,-385.5 908,-385.5 908,-355.5 808,-355.5"/>
<text text-anchor="start" x="816" y="-373.5" font-family="Helvetica,sans-Serif" font-size="10.00">DisplaySplitWidget</text>
<text text-anchor="middle" x="858" y="-362.5" font-family="Helvetica,sans-Serif" font-size="10.00">::event</text>
</a>
</g>
</g>
<!-- Node5&#45;&gt;Node6 -->
<g id="edge5" class="edge"><title>Node5&#45;&gt;Node6</title>
<path fill="none" stroke="midnightblue" d="M767.067,-383.734C780.625,-381.739 794.879,-379.642 807.941,-377.719"/>
<polygon fill="midnightblue" stroke="midnightblue" points="766.25,-380.317 756.866,-385.235 767.269,-387.242 766.25,-380.317"/>
</g>
<!-- Node8&#45;&gt;Node5 -->
<g id="edge8" class="edge"><title>Node8&#45;&gt;Node5</title>
<path fill="none" stroke="midnightblue" d="M598.625,-432.921C620.27,-424.734 645.37,-415.242 665.804,-407.513"/>
<polygon fill="midnightblue" stroke="midnightblue" points="597.384,-429.648 589.269,-436.459 599.861,-436.195 597.384,-429.648"/>
</g>
<!-- Node8&#45;&gt;Node7 -->
<g id="edge9" class="edge"><title>Node8&#45;&gt;Node7</title>
<path fill="none" stroke="midnightblue" d="M608.982,-449.594C624.662,-449.091 641.401,-448.554 656.462,-448.072"/>
<polygon fill="midnightblue" stroke="midnightblue" points="608.742,-446.099 598.859,-449.918 608.966,-453.096 608.742,-446.099"/>
</g>
<!-- Node10&#45;&gt;Node6 -->
<g id="edge12" class="edge"><title>Node10&#45;&gt;Node6</title>
<path fill="none" stroke="midnightblue" d="M615.297,-504.153C661.753,-503.92 724.019,-497.738 772,-471.5 808.798,-451.378 836.421,-408.413 849.183,-385.546"/>
<polygon fill="midnightblue" stroke="midnightblue" points="615.055,-500.652 605.041,-504.109 615.026,-507.652 615.055,-500.652"/>
</g>
<!-- Node11&#45;&gt;Node6 -->
<g id="edge17" class="edge"><title>Node11&#45;&gt;Node6</title>
<path fill="none" stroke="midnightblue" d="M608.468,-321.347C619.253,-324.219 630.436,-327.058 641,-329.5 697.899,-342.652 763.94,-354.728 807.871,-362.316"/>
<polygon fill="midnightblue" stroke="midnightblue" points="609.272,-317.939 598.705,-318.712 607.447,-324.697 609.272,-317.939"/>
</g>
<!-- Node12 -->
<g id="node12" class="node"><title>Node12</title>
<g id="a_node12"><a xlink:href="classDisplaySplitWidget.html#a66c16edce3aae0df82f888348cd7590d" target="_top" xlink:title="DisplaySplitWidget\l::mouseMoveEvent">
<polygon fill="white" stroke="black" points="656,-289.5 656,-319.5 757,-319.5 757,-289.5 656,-289.5"/>
<text text-anchor="start" x="664" y="-307.5" font-family="Helvetica,sans-Serif" font-size="10.00">DisplaySplitWidget</text>
<text text-anchor="middle" x="706.5" y="-296.5" font-family="Helvetica,sans-Serif" font-size="10.00">::mouseMoveEvent</text>
</a>
</g>
</g>
<!-- Node11&#45;&gt;Node12 -->
<g id="edge18" class="edge"><title>Node11&#45;&gt;Node12</title>
<path fill="none" stroke="midnightblue" d="M608.882,-304.5C624.405,-304.5 640.973,-304.5 655.926,-304.5"/>
<polygon fill="midnightblue" stroke="midnightblue" points="608.859,-301 598.859,-304.5 608.859,-308 608.859,-301"/>
</g>
<!-- Node12&#45;&gt;Node6 -->
<g id="edge19" class="edge"><title>Node12&#45;&gt;Node6</title>
<path fill="none" stroke="midnightblue" d="M750.96,-323.686C773.854,-333.793 801.526,-346.01 822.861,-355.429"/>
<polygon fill="midnightblue" stroke="midnightblue" points="752.36,-320.479 741.798,-319.642 749.533,-326.882 752.36,-320.479"/>
</g>
<!-- Node14 -->
<g id="node14" class="node"><title>Node14</title>
<g id="a_node14"><a xlink:href="classDisplaySplitWidget.html#ae32ceae7f4472266eabd00877651441b" target="_top" xlink:title="DisplaySplitWidget\l::DisplaySplitWidget">
<polygon fill="white" stroke="black" points="495.5,-240.5 495.5,-270.5 601.5,-270.5 601.5,-240.5 495.5,-240.5"/>
<text text-anchor="start" x="503.5" y="-258.5" font-family="Helvetica,sans-Serif" font-size="10.00">DisplaySplitWidget</text>
<text text-anchor="middle" x="548.5" y="-247.5" font-family="Helvetica,sans-Serif" font-size="10.00">::DisplaySplitWidget</text>
</a>
</g>
</g>
<!-- Node13&#45;&gt;Node14 -->
<g id="edge22" class="edge"><title>Node13&#45;&gt;Node14</title>
<path fill="none" stroke="midnightblue" d="M466.408,-255.5C476.003,-255.5 485.874,-255.5 495.283,-255.5"/>
<polygon fill="midnightblue" stroke="midnightblue" points="466.14,-252 456.14,-255.5 466.14,-259 466.14,-252"/>
</g>
<!-- Node16 -->
<g id="node16" class="node"><title>Node16</title>
<g id="a_node16"><a xlink:href="classDisplaySplitWidget.html#af09b165924f8be5a31873f3b11c8b3f9" target="_top" xlink:title="DisplaySplitWidget\l::resetViews">
<polygon fill="white" stroke="black" points="498.5,-44.5 498.5,-74.5 598.5,-74.5 598.5,-44.5 498.5,-44.5"/>
<text text-anchor="start" x="506.5" y="-62.5" font-family="Helvetica,sans-Serif" font-size="10.00">DisplaySplitWidget</text>
<text text-anchor="middle" x="548.5" y="-51.5" font-family="Helvetica,sans-Serif" font-size="10.00">::resetViews</text>
</a>
</g>
</g>
<!-- Node15&#45;&gt;Node16 -->
<g id="edge24" class="edge"><title>Node15&#45;&gt;Node16</title>
<path fill="none" stroke="midnightblue" d="M439.493,-113.111C455.116,-103.64 474.263,-92.5084 492,-83.5 497.99,-80.4576 504.454,-77.4365 510.78,-74.616"/>
<polygon fill="midnightblue" stroke="midnightblue" points="437.442,-110.263 430.739,-118.468 441.096,-116.234 437.442,-110.263"/>
</g>
<!-- Node18 -->
<g id="node18" class="node"><title>Node18</title>
<g id="a_node18"><a xlink:href="classDisplaySplitWidget.html#a0c0ae7b4fb7ddc344fec1a59034b771b" target="_top" xlink:title="DisplaySplitWidget\l::zoomToStandard">
<polygon fill="white" stroke="black" points="656.5,-0.5 656.5,-30.5 756.5,-30.5 756.5,-0.5 656.5,-0.5"/>
<text text-anchor="start" x="664.5" y="-18.5" font-family="Helvetica,sans-Serif" font-size="10.00">DisplaySplitWidget</text>
<text text-anchor="middle" x="706.5" y="-7.5" font-family="Helvetica,sans-Serif" font-size="10.00">::zoomToStandard</text>
</a>
</g>
</g>
<!-- Node15&#45;&gt;Node18 -->
<g id="edge27" class="edge"><title>Node15&#45;&gt;Node18</title>
<path fill="none" stroke="midnightblue" d="M420.117,-109.466C434.412,-85.8957 459.633,-51.1476 492,-34.5 543.458,-8.03342 611.176,-6.70933 656.414,-9.74868"/>
<polygon fill="midnightblue" stroke="midnightblue" points="417.04,-107.794 415.01,-118.193 423.082,-111.329 417.04,-107.794"/>
</g>
<!-- Node19 -->
<g id="node19" class="node"><title>Node19</title>
<g id="a_node19"><a xlink:href="classDisplaySplitWidget.html#a85aefaa2dbd64ebf686448a2c006f96d" target="_top" xlink:title="DisplaySplitWidget\l::setSplitEnabled">
<polygon fill="white" stroke="black" points="498.5,-191.5 498.5,-221.5 598.5,-221.5 598.5,-191.5 498.5,-191.5"/>
<text text-anchor="start" x="506.5" y="-209.5" font-family="Helvetica,sans-Serif" font-size="10.00">DisplaySplitWidget</text>
<text text-anchor="middle" x="548.5" y="-198.5" font-family="Helvetica,sans-Serif" font-size="10.00">::setSplitEnabled</text>
</a>
</g>
</g>
<!-- Node15&#45;&gt;Node19 -->
<g id="edge28" class="edge"><title>Node15&#45;&gt;Node19</title>
<path fill="none" stroke="midnightblue" d="M441.004,-153.637C456.399,-162.511 474.937,-172.861 492,-181.5 498.6,-184.841 505.74,-188.225 512.632,-191.377"/>
<polygon fill="midnightblue" stroke="midnightblue" points="442.742,-150.6 432.337,-148.607 439.229,-156.654 442.742,-150.6"/>
</g>
<!-- Node20 -->
<g id="node20" class="node"><title>Node20</title>
<g id="a_node20"><a xlink:href="classDisplaySplitWidget.html#a2c0dcc84e9609d30e1eadd8340493e0b" target="_top" xlink:title="DisplaySplitWidget\l::resizeEvent">
<polygon fill="white" stroke="black" points="498.5,-142.5 498.5,-172.5 598.5,-172.5 598.5,-142.5 498.5,-142.5"/>
<text text-anchor="start" x="506.5" y="-160.5" font-family="Helvetica,sans-Serif" font-size="10.00">DisplaySplitWidget</text>
<text text-anchor="middle" x="548.5" y="-149.5" font-family="Helvetica,sans-Serif" font-size="10.00">::resizeEvent</text>
</a>
</g>
</g>
<!-- Node15&#45;&gt;Node20 -->
<g id="edge29" class="edge"><title>Node15&#45;&gt;Node20</title>
<path fill="none" stroke="midnightblue" d="M466.201,-143.613C476.841,-145.43 487.827,-147.307 498.15,-149.07"/>
<polygon fill="midnightblue" stroke="midnightblue" points="466.587,-140.128 456.14,-141.894 465.408,-147.028 466.587,-140.128"/>
</g>
<!-- Node21 -->
<g id="node21" class="node"><title>Node21</title>
<g id="a_node21"><a xlink:href="classDisplaySplitWidget.html#abe7686903d7727bd0f882dc68459f22d" target="_top" xlink:title="DisplaySplitWidget\l::setViewMode">
<polygon fill="white" stroke="black" points="498.5,-93.5 498.5,-123.5 598.5,-123.5 598.5,-93.5 498.5,-93.5"/>
<text text-anchor="start" x="506.5" y="-111.5" font-family="Helvetica,sans-Serif" font-size="10.00">DisplaySplitWidget</text>
<text text-anchor="middle" x="548.5" y="-100.5" font-family="Helvetica,sans-Serif" font-size="10.00">::setViewMode</text>
</a>
</g>
</g>
<!-- Node15&#45;&gt;Node21 -->
<g id="edge30" class="edge"><title>Node15&#45;&gt;Node21</title>
<path fill="none" stroke="midnightblue" d="M466.201,-122.966C476.841,-121.073 487.827,-119.118 498.15,-117.281"/>
<polygon fill="midnightblue" stroke="midnightblue" points="465.372,-119.558 456.14,-124.756 466.599,-126.45 465.372,-119.558"/>
</g>
<!-- Node17 -->
<g id="node17" class="node"><title>Node17</title>
<g id="a_node17"><a xlink:href="classDisplaySplitWidget.html#a6ac792979681575417245e357cdadb69" target="_top" xlink:title="DisplaySplitWidget\l::setActiveDisplayObjects">
<polygon fill="white" stroke="black" points="641,-49.5 641,-79.5 772,-79.5 772,-49.5 641,-49.5"/>
<text text-anchor="start" x="649" y="-67.5" font-family="Helvetica,sans-Serif" font-size="10.00">DisplaySplitWidget</text>
<text text-anchor="middle" x="706.5" y="-56.5" font-family="Helvetica,sans-Serif" font-size="10.00">::setActiveDisplayObjects</text>
</a>
</g>
</g>
<!-- Node16&#45;&gt;Node17 -->
<g id="edge25" class="edge"><title>Node16&#45;&gt;Node17</title>
<path fill="none" stroke="midnightblue" d="M609.047,-61.4086C619.418,-61.741 630.251,-62.0882 640.754,-62.4248"/>
<polygon fill="midnightblue" stroke="midnightblue" points="608.966,-57.9043 598.859,-61.082 608.742,-64.9007 608.966,-57.9043"/>
</g>
<!-- Node16&#45;&gt;Node18 -->
<g id="edge26" class="edge"><title>Node16&#45;&gt;Node18</title>
<path fill="none" stroke="midnightblue" d="M608.534,-42.8493C624.343,-38.3905 641.258,-33.6196 656.462,-29.3313"/>
<polygon fill="midnightblue" stroke="midnightblue" points="607.534,-39.4949 598.859,-45.5781 609.434,-46.232 607.534,-39.4949"/>
</g>
</g>
</svg>
