<?xml version="1.0" encoding="UTF-8" standalone="no"?>
<!DOCTYPE svg PUBLIC "-//W3C//DTD SVG 1.1//EN"
 "http://www.w3.org/Graphics/SVG/1.1/DTD/svg11.dtd">
<!-- Generated by graphviz version 2.38.0 (20140413.2041)
 -->
<!-- Title: TextObject::text Pages: 1 -->
<!--zoomable 190 -->
<svg id="main" version="1.1" xmlns="http://www.w3.org/2000/svg" xmlns:xlink="http://www.w3.org/1999/xlink" xml:space="preserve" onload="init(evt)">
<style type="text/css"><![CDATA[
.edge:hover path { stroke: red; }
.edge:hover polygon { stroke: red; fill: red; }
]]></style>
<script type="text/javascript"><![CDATA[
var edges = document.getElementsByTagName('g');
if (edges && edges.length) {
  for (var i=0;i<edges.length;i++) {
    if (edges[i].id.substr(0,4)=='edge') {
      edges[i].setAttribute('class','edge');
    }
  }
}
]]></script>
        <defs>
                <circle id="rim" cx="0" cy="0" r="7"/>
                <circle id="rim2" cx="0" cy="0" r="3.5"/>
                <g id="zoomPlus">
                        <use xlink:href="#rim" fill="#404040">
                                <set attributeName="fill" to="#808080" begin="zoomplus.mouseover" end="zoomplus.mouseout"/>
                        </use>
                        <path d="M-4,0h8M0,-4v8" fill="none" stroke="white" stroke-width="1.5" pointer-events="none"/>
                </g>
                <g id="zoomMin">
                        <use xlink:href="#rim" fill="#404040">
                                <set attributeName="fill" to="#808080" begin="zoomminus.mouseover" end="zoomminus.mouseout"/>
                        </use>
                        <path d="M-4,0h8" fill="none" stroke="white" stroke-width="1.5" pointer-events="none"/>
                </g>
                <g id="dirArrow">
                        <path fill="none" stroke="white" stroke-width="1.5" d="M0,-3.0v7 M-2.5,-0.5L0,-3.0L2.5,-0.5"/>
                </g>
               <g id="resetDef">
                       <use xlink:href="#rim2" fill="#404040">
                               <set attributeName="fill" to="#808080" begin="reset.mouseover" end="reset.mouseout"/>
                       </use>
               </g>
        </defs>

<script type="text/javascript">
var viewWidth = 830;
var viewHeight = 190;
var sectionId = 'dynsection-19';
</script>
<script xlink:href="svgpan.js"/>
<svg id="graph" class="graph">
<g id="viewport">
<title>TextObject::text</title>
<polygon fill="white" stroke="none" points="-4,4 -4,-185.5 826,-185.5 826,4 -4,4"/>
<!-- Node1 -->
<g id="node1" class="node"><title>Node1</title>
<polygon fill="#bfbfbf" stroke="black" points="0,-85.5 0,-104.5 87,-104.5 87,-85.5 0,-85.5"/>
<text text-anchor="middle" x="43.5" y="-92.5" font-family="Helvetica,sans-Serif" font-size="10.00">TextObject::text</text>
</g>
<!-- Node2 -->
<g id="node2" class="node"><title>Node2</title>
<g id="a_node2"><a xlink:href="classEditTextDialog.html#aa296e5b756a1005e13e0f50b7d375a16" target="_top" xlink:title="EditTextDialog::loadItem\lStettings">
<polygon fill="white" stroke="black" points="126.5,-151 126.5,-181 251.5,-181 251.5,-151 126.5,-151"/>
<text text-anchor="start" x="134.5" y="-169" font-family="Helvetica,sans-Serif" font-size="10.00">EditTextDialog::loadItem</text>
<text text-anchor="middle" x="189" y="-158" font-family="Helvetica,sans-Serif" font-size="10.00">Stettings</text>
</a>
</g>
</g>
<!-- Node1&#45;&gt;Node2 -->
<g id="edge1" class="edge"><title>Node1&#45;&gt;Node2</title>
<path fill="none" stroke="midnightblue" d="M67.5763,-110.37C82.8915,-120.178 103.661,-132.74 123,-142 129.618,-145.169 136.773,-148.191 143.833,-150.955"/>
<polygon fill="midnightblue" stroke="midnightblue" points="69.0997,-107.186 58.8069,-104.674 65.2865,-113.057 69.0997,-107.186"/>
</g>
<!-- Node7 -->
<g id="node7" class="node"><title>Node7</title>
<g id="a_node7"><a xlink:href="classFrameObjectDialog.html#a1bcbe6cf2b2c5abd047b454ee97e782d" target="_top" xlink:title="FrameObjectDialog::\lloadItemStettings">
<polygon fill="white" stroke="black" points="135.5,-102 135.5,-132 242.5,-132 242.5,-102 135.5,-102"/>
<text text-anchor="start" x="143.5" y="-120" font-family="Helvetica,sans-Serif" font-size="10.00">FrameObjectDialog::</text>
<text text-anchor="middle" x="189" y="-109" font-family="Helvetica,sans-Serif" font-size="10.00">loadItemStettings</text>
</a>
</g>
</g>
<!-- Node1&#45;&gt;Node7 -->
<g id="edge7" class="edge"><title>Node1&#45;&gt;Node7</title>
<path fill="none" stroke="midnightblue" d="M97.35,-103.102C109.743,-105.002 122.946,-107.027 135.331,-108.925"/>
<polygon fill="midnightblue" stroke="midnightblue" points="97.5811,-99.5971 87.1662,-101.541 96.5203,-106.516 97.5811,-99.5971"/>
</g>
<!-- Node8 -->
<g id="node8" class="node"><title>Node8</title>
<g id="a_node8"><a xlink:href="classMainWindow.html#a88624964fbb9d67df9149b29fab6f225" target="_top" xlink:title="MainWindow::savePlaylist\lToFile">
<polygon fill="white" stroke="black" points="123,-14 123,-44 255,-44 255,-14 123,-14"/>
<text text-anchor="start" x="131" y="-32" font-family="Helvetica,sans-Serif" font-size="10.00">MainWindow::savePlaylist</text>
<text text-anchor="middle" x="189" y="-21" font-family="Helvetica,sans-Serif" font-size="10.00">ToFile</text>
</a>
</g>
</g>
<!-- Node1&#45;&gt;Node8 -->
<g id="edge8" class="edge"><title>Node1&#45;&gt;Node8</title>
<path fill="none" stroke="midnightblue" d="M70.1707,-80.6451C85.329,-72.4088 105.014,-62.1239 123,-54 130.603,-50.5659 138.829,-47.1668 146.791,-44.0334"/>
<polygon fill="midnightblue" stroke="midnightblue" points="68.4574,-77.5929 61.3732,-85.4711 71.824,-83.7302 68.4574,-77.5929"/>
</g>
<!-- Node11 -->
<g id="node11" class="node"><title>Node11</title>
<g id="a_node11"><a xlink:href="classTextObject.html#af88f6dc06fc9e630679371584da13e21" target="_top" xlink:title="TextObject::setText">
<polygon fill="white" stroke="black" points="137,-63.5 137,-82.5 241,-82.5 241,-63.5 137,-63.5"/>
<text text-anchor="middle" x="189" y="-70.5" font-family="Helvetica,sans-Serif" font-size="10.00">TextObject::setText</text>
</a>
</g>
</g>
<!-- Node1&#45;&gt;Node11 -->
<g id="edge12" class="edge"><title>Node1&#45;&gt;Node11</title>
<path fill="none" stroke="midnightblue" d="M97.3073,-86.9041C110.233,-84.9225 124.041,-82.8055 136.886,-80.8364"/>
<polygon fill="midnightblue" stroke="midnightblue" points="96.5203,-83.4838 87.1662,-88.4588 97.5811,-90.4029 96.5203,-83.4838"/>
</g>
<!-- Node3 -->
<g id="node3" class="node"><title>Node3</title>
<g id="a_node3"><a xlink:href="classMainWindow.html#af5ecc7c65080215b49b9d931c56c65c9" target="_top" xlink:title="MainWindow::editTextFrame">
<polygon fill="white" stroke="black" points="291,-109.5 291,-128.5 433,-128.5 433,-109.5 291,-109.5"/>
<text text-anchor="middle" x="362" y="-116.5" font-family="Helvetica,sans-Serif" font-size="10.00">MainWindow::editTextFrame</text>
</a>
</g>
</g>
<!-- Node2&#45;&gt;Node3 -->
<g id="edge2" class="edge"><title>Node2&#45;&gt;Node3</title>
<path fill="none" stroke="midnightblue" d="M254.488,-148.275C278.859,-141.577 305.658,-134.211 326.278,-128.543"/>
<polygon fill="midnightblue" stroke="midnightblue" points="253.29,-144.975 244.576,-151 255.146,-151.724 253.29,-144.975"/>
</g>
<!-- Node4 -->
<g id="node4" class="node"><title>Node4</title>
<g id="a_node4"><a xlink:href="classMainWindow.html#aaba5c236313378986c42c4a634c4cfb9" target="_top" xlink:title="MainWindow::onCustomContextMenu">
<polygon fill="white" stroke="black" points="469,-131.5 469,-150.5 651,-150.5 651,-131.5 469,-131.5"/>
<text text-anchor="middle" x="560" y="-138.5" font-family="Helvetica,sans-Serif" font-size="10.00">MainWindow::onCustomContextMenu</text>
</a>
</g>
</g>
<!-- Node3&#45;&gt;Node4 -->
<g id="edge3" class="edge"><title>Node3&#45;&gt;Node4</title>
<path fill="none" stroke="midnightblue" d="M443.298,-128.013C453.493,-129.157 463.954,-130.332 474.217,-131.484"/>
<polygon fill="midnightblue" stroke="midnightblue" points="443.535,-124.518 433.207,-126.88 442.754,-131.474 443.535,-124.518"/>
</g>
<!-- Node6 -->
<g id="node6" class="node"><title>Node6</title>
<g id="a_node6"><a xlink:href="classMainWindow.html#ab18c663524e2c130759c0ca960129ea4" target="_top" xlink:title="MainWindow::onItemDouble\lClicked">
<polygon fill="white" stroke="black" points="490,-82 490,-112 630,-112 630,-82 490,-82"/>
<text text-anchor="start" x="498" y="-100" font-family="Helvetica,sans-Serif" font-size="10.00">MainWindow::onItemDouble</text>
<text text-anchor="middle" x="560" y="-89" font-family="Helvetica,sans-Serif" font-size="10.00">Clicked</text>
</a>
</g>
</g>
<!-- Node3&#45;&gt;Node6 -->
<g id="edge5" class="edge"><title>Node3&#45;&gt;Node6</title>
<path fill="none" stroke="midnightblue" d="M443.276,-109.989C458.759,-108.251 474.853,-106.445 489.941,-104.752"/>
<polygon fill="midnightblue" stroke="midnightblue" points="442.754,-106.526 433.207,-111.12 443.535,-113.482 442.754,-106.526"/>
</g>
<!-- Node5 -->
<g id="node5" class="node"><title>Node5</title>
<g id="a_node5"><a xlink:href="classMainWindow.html#a8b244be8b7b7db1b08de2a2acb9409db" target="_top" xlink:title="MainWindow::MainWindow">
<polygon fill="white" stroke="black" points="687,-87.5 687,-106.5 822,-106.5 822,-87.5 687,-87.5"/>
<text text-anchor="middle" x="754.5" y="-94.5" font-family="Helvetica,sans-Serif" font-size="10.00">MainWindow::MainWindow</text>
</a>
</g>
</g>
<!-- Node4&#45;&gt;Node5 -->
<g id="edge4" class="edge"><title>Node4&#45;&gt;Node5</title>
<path fill="none" stroke="midnightblue" d="M617.756,-129.299C628.796,-126.944 640.27,-124.44 651,-122 672.433,-117.125 696.294,-111.327 715.598,-106.543"/>
<polygon fill="midnightblue" stroke="midnightblue" points="616.829,-125.918 607.772,-131.415 618.281,-132.766 616.829,-125.918"/>
</g>
<!-- Node6&#45;&gt;Node5 -->
<g id="edge6" class="edge"><title>Node6&#45;&gt;Node5</title>
<path fill="none" stroke="midnightblue" d="M640.283,-97C655.747,-97 671.815,-97 686.82,-97"/>
<polygon fill="midnightblue" stroke="midnightblue" points="640.225,-93.5001 630.225,-97 640.225,-100.5 640.225,-93.5001"/>
</g>
<!-- Node9 -->
<g id="node9" class="node"><title>Node9</title>
<g id="a_node9"><a xlink:href="classMainWindow.html#a9df7443ce5f907903438bb6a9abe9a33" target="_top" xlink:title="MainWindow::createMenusAnd\lActions">
<polygon fill="white" stroke="black" points="484,-33 484,-63 636,-63 636,-33 484,-33"/>
<text text-anchor="start" x="492" y="-51" font-family="Helvetica,sans-Serif" font-size="10.00">MainWindow::createMenusAnd</text>
<text text-anchor="middle" x="560" y="-40" font-family="Helvetica,sans-Serif" font-size="10.00">Actions</text>
</a>
</g>
</g>
<!-- Node8&#45;&gt;Node9 -->
<g id="edge9" class="edge"><title>Node8&#45;&gt;Node9</title>
<path fill="none" stroke="midnightblue" d="M265.111,-32.8675C328.871,-36.1506 419.912,-40.8383 483.721,-44.1238"/>
<polygon fill="midnightblue" stroke="midnightblue" points="265.287,-29.372 255.12,-32.3531 264.927,-36.3628 265.287,-29.372"/>
</g>
<!-- Node10 -->
<g id="node10" class="node"><title>Node10</title>
<g id="a_node10"><a xlink:href="classMainWindow.html#a4e20a4a065fbb0e4d3532a45a0a91425" target="_top" xlink:title="MainWindow::closeEvent">
<polygon fill="white" stroke="black" points="298,-0.5 298,-19.5 426,-19.5 426,-0.5 298,-0.5"/>
<text text-anchor="middle" x="362" y="-7.5" font-family="Helvetica,sans-Serif" font-size="10.00">MainWindow::closeEvent</text>
</a>
</g>
</g>
<!-- Node8&#45;&gt;Node10 -->
<g id="edge11" class="edge"><title>Node8&#45;&gt;Node10</title>
<path fill="none" stroke="midnightblue" d="M265.397,-20.6225C276.194,-19.4229 287.209,-18.199 297.74,-17.0289"/>
<polygon fill="midnightblue" stroke="midnightblue" points="264.688,-17.1797 255.136,-21.7627 265.461,-24.1369 264.688,-17.1797"/>
</g>
<!-- Node9&#45;&gt;Node5 -->
<g id="edge10" class="edge"><title>Node9&#45;&gt;Node5</title>
<path fill="none" stroke="midnightblue" d="M629.769,-65.5048C658.847,-72.9065 691.578,-81.238 716.069,-87.472"/>
<polygon fill="midnightblue" stroke="midnightblue" points="630.619,-62.1096 620.065,-63.0346 628.892,-68.8933 630.619,-62.1096"/>
</g>
<!-- Node11&#45;&gt;Node3 -->
<g id="edge13" class="edge"><title>Node11&#45;&gt;Node3</title>
<path fill="none" stroke="midnightblue" d="M235.094,-85.1306C263.398,-92.7444 299.373,-102.422 325.614,-109.481"/>
<polygon fill="midnightblue" stroke="midnightblue" points="235.997,-81.7492 225.431,-82.5312 234.179,-88.5089 235.997,-81.7492"/>
</g>
</g>
</svg>
        <g id="navigator" transform="translate(0 0)" fill="#404254">
                <rect fill="#f2f5e9" fill-opacity="0.5" stroke="#606060" stroke-width=".5" x="0" y="0" width="60" height="60"/>
                <use id="zoomplus" xlink:href="#zoomPlus" x="17" y="9" onmousedown="handleZoom(evt,'in')"/>
                <use id="zoomminus" xlink:href="#zoomMin" x="42" y="9" onmousedown="handleZoom(evt,'out')"/>
                <use id="reset" xlink:href="#resetDef" x="30" y="36" onmousedown="handleReset()"/>
                <g id="arrowUp" xlink:href="#dirArrow" transform="translate(30 24)" onmousedown="handlePan(0,-1)">
                  <use xlink:href="#rim" fill="#404040">
                        <set attributeName="fill" to="#808080" begin="arrowUp.mouseover" end="arrowUp.mouseout"/>
                  </use>
                  <path fill="none" stroke="white" stroke-width="1.5" d="M0,-3.0v7 M-2.5,-0.5L0,-3.0L2.5,-0.5"/>
                </g>
                <g id="arrowRight" xlink:href="#dirArrow" transform="rotate(90) translate(36 -43)" onmousedown="handlePan(1,0)">
                  <use xlink:href="#rim" fill="#404040">
                        <set attributeName="fill" to="#808080" begin="arrowRight.mouseover" end="arrowRight.mouseout"/>
                  </use>
                  <path fill="none" stroke="white" stroke-width="1.5" d="M0,-3.0v7 M-2.5,-0.5L0,-3.0L2.5,-0.5"/>
                </g>
                <g id="arrowDown" xlink:href="#dirArrow" transform="rotate(180) translate(-30 -48)" onmousedown="handlePan(0,1)">
                  <use xlink:href="#rim" fill="#404040">
                        <set attributeName="fill" to="#808080" begin="arrowDown.mouseover" end="arrowDown.mouseout"/>
                  </use>
                  <path fill="none" stroke="white" stroke-width="1.5" d="M0,-3.0v7 M-2.5,-0.5L0,-3.0L2.5,-0.5"/>
                </g>
                <g id="arrowLeft" xlink:href="#dirArrow" transform="rotate(270) translate(-36 17)" onmousedown="handlePan(-1,0)">
                  <use xlink:href="#rim" fill="#404040">
                        <set attributeName="fill" to="#808080" begin="arrowLeft.mouseover" end="arrowLeft.mouseout"/>
                  </use>
                  <path fill="none" stroke="white" stroke-width="1.5" d="M0,-3.0v7 M-2.5,-0.5L0,-3.0L2.5,-0.5"/>
                </g>
        </g>
        <svg viewBox="0 0 15 15" width="100%" height="30px" preserveAspectRatio="xMaxYMin meet">
         <g id="arrow_out" transform="scale(0.3 0.3)">
          <a xlink:href="classTextObject_a20869fc1605e26ea2b69c3daf6eb1cc9_icgraph_org.svg" target="_base">
           <rect id="button" ry="5" rx="5" y="6" x="6" height="38" width="38"
                fill="#f2f5e9" fill-opacity="0.5" stroke="#606060" stroke-width="1.0"/>
           <path id="arrow"
             d="M 11.500037,31.436501 C 11.940474,20.09759 22.043105,11.32322 32.158766,21.979434 L 37.068811,17.246167 C 37.068811,17.246167 37.088388,32 37.088388,32 L 22.160133,31.978069 C 22.160133,31.978069 26.997745,27.140456 26.997745,27.140456 C 18.528582,18.264221 13.291696,25.230495 11.500037,31.436501 z"
             style="fill:#404040;"/>
          </a>
         </g>
        </svg>
</svg>
