<?xml version="1.0" encoding="UTF-8" standalone="no"?>
<!DOCTYPE svg PUBLIC "-//W3C//DTD SVG 1.1//EN"
 "http://www.w3.org/Graphics/SVG/1.1/DTD/svg11.dtd">
<!-- Generated by graphviz version 2.38.0 (20140413.2041)
 -->
<!-- Title: MainWindow::play Pages: 1 -->
<svg width="290pt" height="116pt"
 viewBox="0.00 0.00 290.00 115.50" xmlns="http://www.w3.org/2000/svg" xmlns:xlink="http://www.w3.org/1999/xlink">
<g id="graph0" class="graph" transform="scale(1 1) rotate(0) translate(4 111.5)">
<title>MainWindow::play</title>
<polygon fill="white" stroke="none" points="-4,4 -4,-111.5 286,-111.5 286,4 -4,4"/>
<!-- Node1 -->
<g id="node1" class="node"><title>Node1</title>
<polygon fill="#bfbfbf" stroke="black" points="0,-38.5 0,-57.5 97,-57.5 97,-38.5 0,-38.5"/>
<text text-anchor="middle" x="48.5" y="-45.5" font-family="Helvetica,sans-Serif" font-size="10.00">MainWindow::play</text>
</g>
<!-- Node2 -->
<g id="node2" class="node"><title>Node2</title>
<g id="a_node2"><a xlink:href="classMainWindow.html#aea2b70d7ccb204793c3121600f612c84" target="_top" xlink:title="Return the primary and secondary playlist item that is currently selected. ">
<polygon fill="white" stroke="black" points="133,-77 133,-107 282,-107 282,-77 133,-77"/>
<text text-anchor="start" x="141" y="-95" font-family="Helvetica,sans-Serif" font-size="10.00">MainWindow::selectedPrimary</text>
<text text-anchor="middle" x="207.5" y="-84" font-family="Helvetica,sans-Serif" font-size="10.00">PlaylistItem</text>
</a>
</g>
</g>
<!-- Node1&#45;&gt;Node2 -->
<g id="edge1" class="edge"><title>Node1&#45;&gt;Node2</title>
<path fill="none" stroke="midnightblue" d="M83.5667,-57.5473C100.927,-62.4128 122.611,-68.4898 142.913,-74.1796"/>
<polygon fill="midnightblue" stroke="midnightblue" points="142.171,-77.6061 152.744,-76.9346 144.06,-70.8658 142.171,-77.6061"/>
</g>
<!-- Node3 -->
<g id="node3" class="node"><title>Node3</title>
<g id="a_node3"><a xlink:href="classPlaylistItem.html#a3d4d575a397a3725e62ab425dcf214a5" target="_top" xlink:title="PlaylistItem::displayObject">
<polygon fill="white" stroke="black" points="140.5,-38.5 140.5,-57.5 274.5,-57.5 274.5,-38.5 140.5,-38.5"/>
<text text-anchor="middle" x="207.5" y="-45.5" font-family="Helvetica,sans-Serif" font-size="10.00">PlaylistItem::displayObject</text>
</a>
</g>
</g>
<!-- Node1&#45;&gt;Node3 -->
<g id="edge2" class="edge"><title>Node1&#45;&gt;Node3</title>
<path fill="none" stroke="midnightblue" d="M97.0312,-48C107.465,-48 118.769,-48 130.017,-48"/>
<polygon fill="midnightblue" stroke="midnightblue" points="130.305,-51.5001 140.304,-48 130.304,-44.5001 130.305,-51.5001"/>
</g>
<!-- Node4 -->
<g id="node4" class="node"><title>Node4</title>
<g id="a_node4"><a xlink:href="classDisplayObject.html#a8f8f637b874a3e17128915cf414d6b60" target="_top" xlink:title="DisplayObject::frameRate">
<polygon fill="white" stroke="black" points="142.5,-0.5 142.5,-19.5 272.5,-19.5 272.5,-0.5 142.5,-0.5"/>
<text text-anchor="middle" x="207.5" y="-7.5" font-family="Helvetica,sans-Serif" font-size="10.00">DisplayObject::frameRate</text>
</a>
</g>
</g>
<!-- Node1&#45;&gt;Node4 -->
<g id="edge3" class="edge"><title>Node1&#45;&gt;Node4</title>
<path fill="none" stroke="midnightblue" d="M89.1177,-38.411C109.836,-33.3965 135.388,-27.2119 157.356,-21.8947"/>
<polygon fill="midnightblue" stroke="midnightblue" points="158.271,-25.2744 167.167,-19.5201 156.624,-18.4708 158.271,-25.2744"/>
</g>
</g>
</svg>
