<?xml version="1.0" encoding="UTF-8" standalone="no"?>
<!DOCTYPE svg PUBLIC "-//W3C//DTD SVG 1.1//EN"
 "http://www.w3.org/Graphics/SVG/1.1/DTD/svg11.dtd">
<!-- Generated by graphviz version 2.38.0 (20140413.2041)
 -->
<!-- Title: statisticSource::getNumberFrames Pages: 1 -->
<svg width="1447pt" height="524pt"
 viewBox="0.00 0.00 1447.00 524.00" xmlns="http://www.w3.org/2000/svg" xmlns:xlink="http://www.w3.org/1999/xlink">
<g id="graph0" class="graph" transform="scale(1 1) rotate(0) translate(4 520)">
<title>statisticSource::getNumberFrames</title>
<polygon fill="white" stroke="none" points="-4,4 -4,-520 1443,-520 1443,4 -4,4"/>
<!-- Node1 -->
<g id="node1" class="node"><title>Node1</title>
<polygon fill="#bfbfbf" stroke="black" points="0,-344.5 0,-374.5 136,-374.5 136,-344.5 0,-344.5"/>
<text text-anchor="start" x="8" y="-362.5" font-family="Helvetica,sans-Serif" font-size="10.00">statisticSource::getNumber</text>
<text text-anchor="middle" x="68" y="-351.5" font-family="Helvetica,sans-Serif" font-size="10.00">Frames</text>
</g>
<!-- Node2 -->
<g id="node2" class="node"><title>Node2</title>
<g id="a_node2"><a xlink:href="classStatisticsObject.html#a977403d59c77839b97f38c4c5d09483b" target="_top" xlink:title="StatisticsObject::numFrames">
<polygon fill="white" stroke="black" points="172,-350 172,-369 316,-369 316,-350 172,-350"/>
<text text-anchor="middle" x="244" y="-357" font-family="Helvetica,sans-Serif" font-size="10.00">StatisticsObject::numFrames</text>
</a>
</g>
</g>
<!-- Node1&#45;&gt;Node2 -->
<g id="edge1" class="edge"><title>Node1&#45;&gt;Node2</title>
<path fill="none" stroke="midnightblue" d="M146.494,-359.5C154.94,-359.5 163.508,-359.5 171.873,-359.5"/>
<polygon fill="midnightblue" stroke="midnightblue" points="146.273,-356 136.273,-359.5 146.273,-363 146.273,-356"/>
</g>
<!-- Node3 -->
<g id="node3" class="node"><title>Node3</title>
<g id="a_node3"><a xlink:href="classStatisticsObject.html#a7ef3844aa2a91ec4fc67233f7a6f5552" target="_top" xlink:title="StatisticsObject::loadImage">
<polygon fill="white" stroke="black" points="352.5,-369 352.5,-388 489.5,-388 489.5,-369 352.5,-369"/>
<text text-anchor="middle" x="421" y="-376" font-family="Helvetica,sans-Serif" font-size="10.00">StatisticsObject::loadImage</text>
</a>
</g>
</g>
<!-- Node2&#45;&gt;Node3 -->
<g id="edge2" class="edge"><title>Node2&#45;&gt;Node3</title>
<path fill="none" stroke="midnightblue" d="M326.318,-368.329C335.005,-369.272 343.773,-370.224 352.278,-371.147"/>
<polygon fill="midnightblue" stroke="midnightblue" points="326.499,-364.828 316.179,-367.228 325.743,-371.787 326.499,-364.828"/>
</g>
<!-- Node27 -->
<g id="node27" class="node"><title>Node27</title>
<g id="a_node27"><a xlink:href="classStatisticsObject.html#a7d03d62ba7c859483b80c70892b06100" target="_top" xlink:title="StatisticsObject::getInfoList">
<polygon fill="white" stroke="black" points="352,-331 352,-350 490,-350 490,-331 352,-331"/>
<text text-anchor="middle" x="421" y="-338" font-family="Helvetica,sans-Serif" font-size="10.00">StatisticsObject::getInfoList</text>
</a>
</g>
</g>
<!-- Node2&#45;&gt;Node27 -->
<g id="edge36" class="edge"><title>Node2&#45;&gt;Node27</title>
<path fill="none" stroke="midnightblue" d="M326.237,-350.68C334.854,-349.744 343.553,-348.8 351.996,-347.883"/>
<polygon fill="midnightblue" stroke="midnightblue" points="325.743,-347.213 316.179,-351.772 326.499,-354.172 325.743,-347.213"/>
</g>
<!-- Node4 -->
<g id="node4" class="node"><title>Node4</title>
<g id="a_node4"><a xlink:href="classDisplayWidget.html#a4a0937fa643aabd3dc4894a5c71179bf" target="_top" xlink:title="DisplayWidget::drawFrame">
<polygon fill="white" stroke="black" points="526,-391 526,-410 661,-410 661,-391 526,-391"/>
<text text-anchor="middle" x="593.5" y="-398" font-family="Helvetica,sans-Serif" font-size="10.00">DisplayWidget::drawFrame</text>
</a>
</g>
</g>
<!-- Node3&#45;&gt;Node4 -->
<g id="edge3" class="edge"><title>Node3&#45;&gt;Node4</title>
<path fill="none" stroke="midnightblue" d="M499.995,-388.564C508.674,-389.684 517.453,-390.816 525.97,-391.915"/>
<polygon fill="midnightblue" stroke="midnightblue" points="500.242,-385.067 489.876,-387.258 499.346,-392.009 500.242,-385.067"/>
</g>
<!-- Node6 -->
<g id="node6" class="node"><title>Node6</title>
<g id="a_node6"><a xlink:href="classStatisticsObject.html#a09c2920b75ecda0e175a6c9384b446ab" target="_top" xlink:title="StatisticsObject::reload\lImage">
<polygon fill="white" stroke="black" points="534,-341.5 534,-371.5 653,-371.5 653,-341.5 534,-341.5"/>
<text text-anchor="start" x="542" y="-359.5" font-family="Helvetica,sans-Serif" font-size="10.00">StatisticsObject::reload</text>
<text text-anchor="middle" x="593.5" y="-348.5" font-family="Helvetica,sans-Serif" font-size="10.00">Image</text>
</a>
</g>
</g>
<!-- Node3&#45;&gt;Node6 -->
<g id="edge5" class="edge"><title>Node3&#45;&gt;Node6</title>
<path fill="none" stroke="midnightblue" d="M499.874,-368.452C511.327,-366.974 522.959,-365.473 533.934,-364.057"/>
<polygon fill="midnightblue" stroke="midnightblue" points="499.346,-364.991 489.876,-369.742 500.242,-371.933 499.346,-364.991"/>
</g>
<!-- Node5 -->
<g id="node5" class="node"><title>Node5</title>
<g id="a_node5"><a xlink:href="classDisplaySplitWidget.html#a95e926ec447ef50cee841ff4d7d4f59a" target="_top" xlink:title="DisplaySplitWidget\l::drawFrame">
<polygon fill="white" stroke="black" points="724,-385.5 724,-415.5 824,-415.5 824,-385.5 724,-385.5"/>
<text text-anchor="start" x="732" y="-403.5" font-family="Helvetica,sans-Serif" font-size="10.00">DisplaySplitWidget</text>
<text text-anchor="middle" x="774" y="-392.5" font-family="Helvetica,sans-Serif" font-size="10.00">::drawFrame</text>
</a>
</g>
</g>
<!-- Node4&#45;&gt;Node5 -->
<g id="edge4" class="edge"><title>Node4&#45;&gt;Node5</title>
<path fill="none" stroke="midnightblue" d="M671.575,-400.5C689.326,-400.5 707.732,-400.5 723.913,-400.5"/>
<polygon fill="midnightblue" stroke="midnightblue" points="671.221,-397 661.221,-400.5 671.221,-404 671.221,-397"/>
</g>
<!-- Node7 -->
<g id="node7" class="node"><title>Node7</title>
<g id="a_node7"><a xlink:href="classDisplayWidget.html#a822a3c50c6c602fafff6ef2132ccdb42" target="_top" xlink:title="DisplayWidget::setDisplayRect">
<polygon fill="white" stroke="black" points="697,-347 697,-366 851,-366 851,-347 697,-347"/>
<text text-anchor="middle" x="774" y="-354" font-family="Helvetica,sans-Serif" font-size="10.00">DisplayWidget::setDisplayRect</text>
</a>
</g>
</g>
<!-- Node6&#45;&gt;Node7 -->
<g id="edge6" class="edge"><title>Node6&#45;&gt;Node7</title>
<path fill="none" stroke="midnightblue" d="M663.724,-356.5C674.605,-356.5 685.905,-356.5 696.931,-356.5"/>
<polygon fill="midnightblue" stroke="midnightblue" points="663.442,-353 653.442,-356.5 663.442,-360 663.442,-353"/>
</g>
<!-- Node8 -->
<g id="node8" class="node"><title>Node8</title>
<g id="a_node8"><a xlink:href="classDisplaySplitWidget.html#a07d514c8000eade67022e9f73a4214c0" target="_top" xlink:title="DisplaySplitWidget\l::zoomToPoint">
<polygon fill="white" stroke="black" points="887,-404.5 887,-434.5 987,-434.5 987,-404.5 887,-404.5"/>
<text text-anchor="start" x="895" y="-422.5" font-family="Helvetica,sans-Serif" font-size="10.00">DisplaySplitWidget</text>
<text text-anchor="middle" x="937" y="-411.5" font-family="Helvetica,sans-Serif" font-size="10.00">::zoomToPoint</text>
</a>
</g>
</g>
<!-- Node7&#45;&gt;Node8 -->
<g id="edge7" class="edge"><title>Node7&#45;&gt;Node8</title>
<path fill="none" stroke="midnightblue" d="M827.377,-368.726C835.379,-371.04 843.473,-373.643 851,-376.5 871.409,-384.248 893.37,-395.438 909.856,-404.461"/>
<polygon fill="midnightblue" stroke="midnightblue" points="828.28,-365.344 817.709,-366.05 826.413,-372.091 828.28,-365.344"/>
</g>
<!-- Node9 -->
<g id="node9" class="node"><title>Node9</title>
<g id="a_node9"><a xlink:href="classDisplaySplitWidget.html#ad714b0427a31a3ac29bf0f0a2c1f3611" target="_top" xlink:title="DisplaySplitWidget\l::zoomIn">
<polygon fill="white" stroke="black" points="1029.5,-338.5 1029.5,-368.5 1129.5,-368.5 1129.5,-338.5 1029.5,-338.5"/>
<text text-anchor="start" x="1037.5" y="-356.5" font-family="Helvetica,sans-Serif" font-size="10.00">DisplaySplitWidget</text>
<text text-anchor="middle" x="1079.5" y="-345.5" font-family="Helvetica,sans-Serif" font-size="10.00">::zoomIn</text>
</a>
</g>
</g>
<!-- Node7&#45;&gt;Node9 -->
<g id="edge18" class="edge"><title>Node7&#45;&gt;Node9</title>
<path fill="none" stroke="midnightblue" d="M861.528,-355.645C915.917,-355.107 984.111,-354.433 1029.38,-353.986"/>
<polygon fill="midnightblue" stroke="midnightblue" points="861.159,-352.148 851.194,-355.747 861.228,-359.148 861.159,-352.148"/>
</g>
<!-- Node13 -->
<g id="node13" class="node"><title>Node13</title>
<g id="a_node13"><a xlink:href="classDisplaySplitWidget.html#aeea14bc10ca6579ab6f68f8150f9ac5f" target="_top" xlink:title="DisplaySplitWidget\l::zoomOut">
<polygon fill="white" stroke="black" points="1029.5,-436.5 1029.5,-466.5 1129.5,-466.5 1129.5,-436.5 1029.5,-436.5"/>
<text text-anchor="start" x="1037.5" y="-454.5" font-family="Helvetica,sans-Serif" font-size="10.00">DisplaySplitWidget</text>
<text text-anchor="middle" x="1079.5" y="-443.5" font-family="Helvetica,sans-Serif" font-size="10.00">::zoomOut</text>
</a>
</g>
</g>
<!-- Node7&#45;&gt;Node13 -->
<g id="edge19" class="edge"><title>Node7&#45;&gt;Node13</title>
<path fill="none" stroke="midnightblue" d="M841.97,-370.525C845.154,-372.288 848.189,-374.27 851,-376.5 877.791,-397.752 858.031,-426.329 887,-444.5 929.416,-471.105 988.145,-468.848 1029.35,-462.469"/>
<polygon fill="midnightblue" stroke="midnightblue" points="843.201,-367.235 832.666,-366.116 840.204,-373.561 843.201,-367.235"/>
</g>
<!-- Node14 -->
<g id="node14" class="node"><title>Node14</title>
<g id="a_node14"><a xlink:href="classDisplaySplitWidget.html#a43d312016afd6d843f1c624905f4afee" target="_top" xlink:title="DisplaySplitWidget\l::zoomToFit">
<polygon fill="white" stroke="black" points="1029.5,-387.5 1029.5,-417.5 1129.5,-417.5 1129.5,-387.5 1029.5,-387.5"/>
<text text-anchor="start" x="1037.5" y="-405.5" font-family="Helvetica,sans-Serif" font-size="10.00">DisplaySplitWidget</text>
<text text-anchor="middle" x="1079.5" y="-394.5" font-family="Helvetica,sans-Serif" font-size="10.00">::zoomToFit</text>
</a>
</g>
</g>
<!-- Node7&#45;&gt;Node14 -->
<g id="edge20" class="edge"><title>Node7&#45;&gt;Node14</title>
<path fill="none" stroke="midnightblue" d="M848.118,-367.582C904.214,-376.084 980.117,-387.589 1029.2,-395.027"/>
<polygon fill="midnightblue" stroke="midnightblue" points="848.297,-364.069 837.885,-366.031 847.248,-370.99 848.297,-364.069"/>
</g>
<!-- Node15 -->
<g id="node15" class="node"><title>Node15</title>
<g id="a_node15"><a xlink:href="classDisplaySplitWidget.html#a0a3afd6247d51bc2ca6fabfc30ff9548" target="_top" xlink:title="DisplaySplitWidget\l::mouseReleaseEvent">
<polygon fill="white" stroke="black" points="1023,-485.5 1023,-515.5 1136,-515.5 1136,-485.5 1023,-485.5"/>
<text text-anchor="start" x="1031" y="-503.5" font-family="Helvetica,sans-Serif" font-size="10.00">DisplaySplitWidget</text>
<text text-anchor="middle" x="1079.5" y="-492.5" font-family="Helvetica,sans-Serif" font-size="10.00">::mouseReleaseEvent</text>
</a>
</g>
</g>
<!-- Node7&#45;&gt;Node15 -->
<g id="edge25" class="edge"><title>Node7&#45;&gt;Node15</title>
<path fill="none" stroke="midnightblue" d="M843.368,-370.793C846.073,-372.491 848.635,-374.386 851,-376.5 884.046,-406.037 852.564,-441.597 887,-469.5 924.812,-500.138 980.951,-506.066 1022.68,-505.417"/>
<polygon fill="midnightblue" stroke="midnightblue" points="844.793,-367.587 834.316,-366.011 841.523,-373.777 844.793,-367.587"/>
</g>
<!-- Node16 -->
<g id="node16" class="node"><title>Node16</title>
<g id="a_node16"><a xlink:href="classDisplaySplitWidget.html#a9421eba026630943587a9ae226c7f8d6" target="_top" xlink:title="DisplaySplitWidget\l::panDisplay">
<polygon fill="white" stroke="black" points="1029.5,-289.5 1029.5,-319.5 1129.5,-319.5 1129.5,-289.5 1029.5,-289.5"/>
<text text-anchor="start" x="1037.5" y="-307.5" font-family="Helvetica,sans-Serif" font-size="10.00">DisplaySplitWidget</text>
<text text-anchor="middle" x="1079.5" y="-296.5" font-family="Helvetica,sans-Serif" font-size="10.00">::panDisplay</text>
</a>
</g>
</g>
<!-- Node7&#45;&gt;Node16 -->
<g id="edge21" class="edge"><title>Node7&#45;&gt;Node16</title>
<path fill="none" stroke="midnightblue" d="M840.603,-345.26C897.27,-335.551 977.902,-321.736 1029.21,-312.945"/>
<polygon fill="midnightblue" stroke="midnightblue" points="839.932,-341.824 830.667,-346.962 841.114,-348.723 839.932,-341.824"/>
</g>
<!-- Node18 -->
<g id="node18" class="node"><title>Node18</title>
<g id="a_node18"><a xlink:href="classDisplaySplitWidget.html#a337e94b12c4e1837457997cf9d074046" target="_top" xlink:title="DisplaySplitWidget\l::splitterMovedTo">
<polygon fill="white" stroke="black" points="887,-240.5 887,-270.5 987,-270.5 987,-240.5 887,-240.5"/>
<text text-anchor="start" x="895" y="-258.5" font-family="Helvetica,sans-Serif" font-size="10.00">DisplaySplitWidget</text>
<text text-anchor="middle" x="937" y="-247.5" font-family="Helvetica,sans-Serif" font-size="10.00">::splitterMovedTo</text>
</a>
</g>
</g>
<!-- Node7&#45;&gt;Node18 -->
<g id="edge26" class="edge"><title>Node7&#45;&gt;Node18</title>
<path fill="none" stroke="midnightblue" d="M798.771,-341.28C821.396,-326.829 856.43,-304.546 887,-285.5 894.873,-280.595 903.493,-275.294 911.277,-270.533"/>
<polygon fill="midnightblue" stroke="midnightblue" points="796.71,-338.443 790.17,-346.778 800.48,-344.341 796.71,-338.443"/>
</g>
<!-- Node20 -->
<g id="node20" class="node"><title>Node20</title>
<g id="a_node20"><a xlink:href="classDisplaySplitWidget.html#ac88b455e49d13fb34439e45838e468d9" target="_top" xlink:title="DisplaySplitWidget\l::updateView">
<polygon fill="white" stroke="black" points="887,-118.5 887,-148.5 987,-148.5 987,-118.5 887,-118.5"/>
<text text-anchor="start" x="895" y="-136.5" font-family="Helvetica,sans-Serif" font-size="10.00">DisplaySplitWidget</text>
<text text-anchor="middle" x="937" y="-125.5" font-family="Helvetica,sans-Serif" font-size="10.00">::updateView</text>
</a>
</g>
</g>
<!-- Node7&#45;&gt;Node20 -->
<g id="edge28" class="edge"><title>Node7&#45;&gt;Node20</title>
<path fill="none" stroke="midnightblue" d="M787.92,-338.605C818.786,-295.852 896.377,-188.381 925.092,-148.609"/>
<polygon fill="midnightblue" stroke="midnightblue" points="784.934,-336.761 781.918,-346.918 790.609,-340.859 784.934,-336.761"/>
</g>
<!-- Node8&#45;&gt;Node9 -->
<g id="edge8" class="edge"><title>Node8&#45;&gt;Node9</title>
<path fill="none" stroke="midnightblue" d="M977.999,-399.941C992.174,-393.08 1008.26,-385.373 1023,-378.5 1029.99,-375.24 1037.51,-371.806 1044.68,-368.563"/>
<polygon fill="midnightblue" stroke="midnightblue" points="976.462,-396.796 968.993,-404.31 979.518,-403.093 976.462,-396.796"/>
</g>
<!-- Node8&#45;&gt;Node13 -->
<g id="edge12" class="edge"><title>Node8&#45;&gt;Node13</title>
<path fill="none" stroke="midnightblue" d="M997.201,-432.984C1007.84,-435.407 1018.83,-437.909 1029.15,-440.26"/>
<polygon fill="midnightblue" stroke="midnightblue" points="997.668,-429.5 987.14,-430.692 996.113,-436.325 997.668,-429.5"/>
</g>
<!-- Node8&#45;&gt;Node14 -->
<g id="edge15" class="edge"><title>Node8&#45;&gt;Node14</title>
<path fill="none" stroke="midnightblue" d="M997.201,-412.337C1007.84,-411.05 1018.83,-409.72 1029.15,-408.471"/>
<polygon fill="midnightblue" stroke="midnightblue" points="996.647,-408.878 987.14,-413.554 997.488,-415.828 996.647,-408.878"/>
</g>
<!-- Node8&#45;&gt;Node15 -->
<g id="edge16" class="edge"><title>Node8&#45;&gt;Node15</title>
<path fill="none" stroke="midnightblue" d="M966.726,-440.68C982.822,-452.052 1003.52,-465.874 1023,-476.5 1028.71,-479.617 1034.92,-482.632 1041.03,-485.412"/>
<polygon fill="midnightblue" stroke="midnightblue" points="968.465,-437.62 958.295,-434.65 964.393,-443.314 968.465,-437.62"/>
</g>
<!-- Node10 -->
<g id="node10" class="node"><title>Node10</title>
<g id="a_node10"><a xlink:href="classDisplaySplitWidget.html#a95fb887b76609440c606ddccadee2318" target="_top" xlink:title="DisplaySplitWidget\l::gestureEvent">
<polygon fill="white" stroke="black" points="1187.5,-377.5 1187.5,-407.5 1287.5,-407.5 1287.5,-377.5 1187.5,-377.5"/>
<text text-anchor="start" x="1195.5" y="-395.5" font-family="Helvetica,sans-Serif" font-size="10.00">DisplaySplitWidget</text>
<text text-anchor="middle" x="1237.5" y="-384.5" font-family="Helvetica,sans-Serif" font-size="10.00">::gestureEvent</text>
</a>
</g>
</g>
<!-- Node9&#45;&gt;Node10 -->
<g id="edge9" class="edge"><title>Node9&#45;&gt;Node10</title>
<path fill="none" stroke="midnightblue" d="M1139.98,-368.37C1155.66,-372.29 1172.4,-376.475 1187.46,-380.24"/>
<polygon fill="midnightblue" stroke="midnightblue" points="1140.41,-364.87 1129.86,-365.84 1138.71,-371.661 1140.41,-364.87"/>
</g>
<!-- Node12 -->
<g id="node12" class="node"><title>Node12</title>
<g id="a_node12"><a xlink:href="classDisplaySplitWidget.html#a3560f335caf77049205e63785c8073ba" target="_top" xlink:title="DisplaySplitWidget\l::wheelEvent">
<polygon fill="white" stroke="black" points="1187.5,-431.5 1187.5,-461.5 1287.5,-461.5 1287.5,-431.5 1187.5,-431.5"/>
<text text-anchor="start" x="1195.5" y="-449.5" font-family="Helvetica,sans-Serif" font-size="10.00">DisplaySplitWidget</text>
<text text-anchor="middle" x="1237.5" y="-438.5" font-family="Helvetica,sans-Serif" font-size="10.00">::wheelEvent</text>
</a>
</g>
</g>
<!-- Node9&#45;&gt;Node12 -->
<g id="edge11" class="edge"><title>Node9&#45;&gt;Node12</title>
<path fill="none" stroke="midnightblue" d="M1128.14,-373.374C1130.87,-374.995 1133.51,-376.705 1136,-378.5 1155.14,-392.289 1152.86,-403.718 1172,-417.5 1179.37,-422.808 1187.87,-427.471 1196.23,-431.417"/>
<polygon fill="midnightblue" stroke="midnightblue" points="1129.69,-370.231 1119.24,-368.506 1126.33,-376.374 1129.69,-370.231"/>
</g>
<!-- Node11 -->
<g id="node11" class="node"><title>Node11</title>
<g id="a_node11"><a xlink:href="classDisplaySplitWidget.html#a152c9ea9cbd3aa079800b6c1d0fbb284" target="_top" xlink:title="DisplaySplitWidget\l::event">
<polygon fill="white" stroke="black" points="1339,-355.5 1339,-385.5 1439,-385.5 1439,-355.5 1339,-355.5"/>
<text text-anchor="start" x="1347" y="-373.5" font-family="Helvetica,sans-Serif" font-size="10.00">DisplaySplitWidget</text>
<text text-anchor="middle" x="1389" y="-362.5" font-family="Helvetica,sans-Serif" font-size="10.00">::event</text>
</a>
</g>
</g>
<!-- Node10&#45;&gt;Node11 -->
<g id="edge10" class="edge"><title>Node10&#45;&gt;Node11</title>
<path fill="none" stroke="midnightblue" d="M1298.07,-383.734C1311.62,-381.739 1325.88,-379.642 1338.94,-377.719"/>
<polygon fill="midnightblue" stroke="midnightblue" points="1297.25,-380.317 1287.87,-385.235 1298.27,-387.242 1297.25,-380.317"/>
</g>
<!-- Node13&#45;&gt;Node10 -->
<g id="edge13" class="edge"><title>Node13&#45;&gt;Node10</title>
<path fill="none" stroke="midnightblue" d="M1129.63,-432.921C1151.27,-424.734 1176.37,-415.242 1196.8,-407.513"/>
<polygon fill="midnightblue" stroke="midnightblue" points="1128.38,-429.648 1120.27,-436.459 1130.86,-436.195 1128.38,-429.648"/>
</g>
<!-- Node13&#45;&gt;Node12 -->
<g id="edge14" class="edge"><title>Node13&#45;&gt;Node12</title>
<path fill="none" stroke="midnightblue" d="M1139.98,-449.594C1155.66,-449.091 1172.4,-448.554 1187.46,-448.072"/>
<polygon fill="midnightblue" stroke="midnightblue" points="1139.74,-446.099 1129.86,-449.918 1139.97,-453.096 1139.74,-446.099"/>
</g>
<!-- Node15&#45;&gt;Node11 -->
<g id="edge17" class="edge"><title>Node15&#45;&gt;Node11</title>
<path fill="none" stroke="midnightblue" d="M1146.3,-504.153C1192.75,-503.92 1255.02,-497.738 1303,-471.5 1339.8,-451.378 1367.42,-408.413 1380.18,-385.546"/>
<polygon fill="midnightblue" stroke="midnightblue" points="1146.06,-500.652 1136.04,-504.109 1146.03,-507.652 1146.06,-500.652"/>
</g>
<!-- Node16&#45;&gt;Node11 -->
<g id="edge22" class="edge"><title>Node16&#45;&gt;Node11</title>
<path fill="none" stroke="midnightblue" d="M1139.47,-321.347C1150.25,-324.219 1161.44,-327.058 1172,-329.5 1228.9,-342.652 1294.94,-354.728 1338.87,-362.316"/>
<polygon fill="midnightblue" stroke="midnightblue" points="1140.27,-317.939 1129.71,-318.712 1138.45,-324.697 1140.27,-317.939"/>
</g>
<!-- Node17 -->
<g id="node17" class="node"><title>Node17</title>
<g id="a_node17"><a xlink:href="classDisplaySplitWidget.html#a66c16edce3aae0df82f888348cd7590d" target="_top" xlink:title="DisplaySplitWidget\l::mouseMoveEvent">
<polygon fill="white" stroke="black" points="1187,-289.5 1187,-319.5 1288,-319.5 1288,-289.5 1187,-289.5"/>
<text text-anchor="start" x="1195" y="-307.5" font-family="Helvetica,sans-Serif" font-size="10.00">DisplaySplitWidget</text>
<text text-anchor="middle" x="1237.5" y="-296.5" font-family="Helvetica,sans-Serif" font-size="10.00">::mouseMoveEvent</text>
</a>
</g>
</g>
<!-- Node16&#45;&gt;Node17 -->
<g id="edge23" class="edge"><title>Node16&#45;&gt;Node17</title>
<path fill="none" stroke="midnightblue" d="M1139.88,-304.5C1155.41,-304.5 1171.97,-304.5 1186.93,-304.5"/>
<polygon fill="midnightblue" stroke="midnightblue" points="1139.86,-301 1129.86,-304.5 1139.86,-308 1139.86,-301"/>
</g>
<!-- Node17&#45;&gt;Node11 -->
<g id="edge24" class="edge"><title>Node17&#45;&gt;Node11</title>
<path fill="none" stroke="midnightblue" d="M1281.96,-323.686C1304.85,-333.793 1332.53,-346.01 1353.86,-355.429"/>
<polygon fill="midnightblue" stroke="midnightblue" points="1283.36,-320.479 1272.8,-319.642 1280.53,-326.882 1283.36,-320.479"/>
</g>
<!-- Node19 -->
<g id="node19" class="node"><title>Node19</title>
<g id="a_node19"><a xlink:href="classDisplaySplitWidget.html#ae32ceae7f4472266eabd00877651441b" target="_top" xlink:title="DisplaySplitWidget\l::DisplaySplitWidget">
<polygon fill="white" stroke="black" points="1026.5,-240.5 1026.5,-270.5 1132.5,-270.5 1132.5,-240.5 1026.5,-240.5"/>
<text text-anchor="start" x="1034.5" y="-258.5" font-family="Helvetica,sans-Serif" font-size="10.00">DisplaySplitWidget</text>
<text text-anchor="middle" x="1079.5" y="-247.5" font-family="Helvetica,sans-Serif" font-size="10.00">::DisplaySplitWidget</text>
</a>
</g>
</g>
<!-- Node18&#45;&gt;Node19 -->
<g id="edge27" class="edge"><title>Node18&#45;&gt;Node19</title>
<path fill="none" stroke="midnightblue" d="M997.408,-255.5C1007,-255.5 1016.87,-255.5 1026.28,-255.5"/>
<polygon fill="midnightblue" stroke="midnightblue" points="997.14,-252 987.14,-255.5 997.14,-259 997.14,-252"/>
</g>
<!-- Node21 -->
<g id="node21" class="node"><title>Node21</title>
<g id="a_node21"><a xlink:href="classDisplaySplitWidget.html#af09b165924f8be5a31873f3b11c8b3f9" target="_top" xlink:title="DisplaySplitWidget\l::resetViews">
<polygon fill="white" stroke="black" points="1029.5,-44.5 1029.5,-74.5 1129.5,-74.5 1129.5,-44.5 1029.5,-44.5"/>
<text text-anchor="start" x="1037.5" y="-62.5" font-family="Helvetica,sans-Serif" font-size="10.00">DisplaySplitWidget</text>
<text text-anchor="middle" x="1079.5" y="-51.5" font-family="Helvetica,sans-Serif" font-size="10.00">::resetViews</text>
</a>
</g>
</g>
<!-- Node20&#45;&gt;Node21 -->
<g id="edge29" class="edge"><title>Node20&#45;&gt;Node21</title>
<path fill="none" stroke="midnightblue" d="M970.493,-113.111C986.116,-103.64 1005.26,-92.5084 1023,-83.5 1028.99,-80.4576 1035.45,-77.4365 1041.78,-74.616"/>
<polygon fill="midnightblue" stroke="midnightblue" points="968.442,-110.263 961.739,-118.468 972.096,-116.234 968.442,-110.263"/>
</g>
<!-- Node23 -->
<g id="node23" class="node"><title>Node23</title>
<g id="a_node23"><a xlink:href="classDisplaySplitWidget.html#a0c0ae7b4fb7ddc344fec1a59034b771b" target="_top" xlink:title="DisplaySplitWidget\l::zoomToStandard">
<polygon fill="white" stroke="black" points="1187.5,-0.5 1187.5,-30.5 1287.5,-30.5 1287.5,-0.5 1187.5,-0.5"/>
<text text-anchor="start" x="1195.5" y="-18.5" font-family="Helvetica,sans-Serif" font-size="10.00">DisplaySplitWidget</text>
<text text-anchor="middle" x="1237.5" y="-7.5" font-family="Helvetica,sans-Serif" font-size="10.00">::zoomToStandard</text>
</a>
</g>
</g>
<!-- Node20&#45;&gt;Node23 -->
<g id="edge32" class="edge"><title>Node20&#45;&gt;Node23</title>
<path fill="none" stroke="midnightblue" d="M951.117,-109.466C965.412,-85.8957 990.633,-51.1476 1023,-34.5 1074.46,-8.03342 1142.18,-6.70933 1187.41,-9.74868"/>
<polygon fill="midnightblue" stroke="midnightblue" points="948.04,-107.794 946.01,-118.193 954.082,-111.329 948.04,-107.794"/>
</g>
<!-- Node24 -->
<g id="node24" class="node"><title>Node24</title>
<g id="a_node24"><a xlink:href="classDisplaySplitWidget.html#a85aefaa2dbd64ebf686448a2c006f96d" target="_top" xlink:title="DisplaySplitWidget\l::setSplitEnabled">
<polygon fill="white" stroke="black" points="1029.5,-191.5 1029.5,-221.5 1129.5,-221.5 1129.5,-191.5 1029.5,-191.5"/>
<text text-anchor="start" x="1037.5" y="-209.5" font-family="Helvetica,sans-Serif" font-size="10.00">DisplaySplitWidget</text>
<text text-anchor="middle" x="1079.5" y="-198.5" font-family="Helvetica,sans-Serif" font-size="10.00">::setSplitEnabled</text>
</a>
</g>
</g>
<!-- Node20&#45;&gt;Node24 -->
<g id="edge33" class="edge"><title>Node20&#45;&gt;Node24</title>
<path fill="none" stroke="midnightblue" d="M972.004,-153.637C987.399,-162.511 1005.94,-172.861 1023,-181.5 1029.6,-184.841 1036.74,-188.225 1043.63,-191.377"/>
<polygon fill="midnightblue" stroke="midnightblue" points="973.742,-150.6 963.337,-148.607 970.229,-156.654 973.742,-150.6"/>
</g>
<!-- Node25 -->
<g id="node25" class="node"><title>Node25</title>
<g id="a_node25"><a xlink:href="classDisplaySplitWidget.html#a2c0dcc84e9609d30e1eadd8340493e0b" target="_top" xlink:title="DisplaySplitWidget\l::resizeEvent">
<polygon fill="white" stroke="black" points="1029.5,-142.5 1029.5,-172.5 1129.5,-172.5 1129.5,-142.5 1029.5,-142.5"/>
<text text-anchor="start" x="1037.5" y="-160.5" font-family="Helvetica,sans-Serif" font-size="10.00">DisplaySplitWidget</text>
<text text-anchor="middle" x="1079.5" y="-149.5" font-family="Helvetica,sans-Serif" font-size="10.00">::resizeEvent</text>
</a>
</g>
</g>
<!-- Node20&#45;&gt;Node25 -->
<g id="edge34" class="edge"><title>Node20&#45;&gt;Node25</title>
<path fill="none" stroke="midnightblue" d="M997.201,-143.613C1007.84,-145.43 1018.83,-147.307 1029.15,-149.07"/>
<polygon fill="midnightblue" stroke="midnightblue" points="997.587,-140.128 987.14,-141.894 996.408,-147.028 997.587,-140.128"/>
</g>
<!-- Node26 -->
<g id="node26" class="node"><title>Node26</title>
<g id="a_node26"><a xlink:href="classDisplaySplitWidget.html#abe7686903d7727bd0f882dc68459f22d" target="_top" xlink:title="DisplaySplitWidget\l::setViewMode">
<polygon fill="white" stroke="black" points="1029.5,-93.5 1029.5,-123.5 1129.5,-123.5 1129.5,-93.5 1029.5,-93.5"/>
<text text-anchor="start" x="1037.5" y="-111.5" font-family="Helvetica,sans-Serif" font-size="10.00">DisplaySplitWidget</text>
<text text-anchor="middle" x="1079.5" y="-100.5" font-family="Helvetica,sans-Serif" font-size="10.00">::setViewMode</text>
</a>
</g>
</g>
<!-- Node20&#45;&gt;Node26 -->
<g id="edge35" class="edge"><title>Node20&#45;&gt;Node26</title>
<path fill="none" stroke="midnightblue" d="M997.201,-122.966C1007.84,-121.073 1018.83,-119.118 1029.15,-117.281"/>
<polygon fill="midnightblue" stroke="midnightblue" points="996.372,-119.558 987.14,-124.756 997.599,-126.45 996.372,-119.558"/>
</g>
<!-- Node22 -->
<g id="node22" class="node"><title>Node22</title>
<g id="a_node22"><a xlink:href="classDisplaySplitWidget.html#a6ac792979681575417245e357cdadb69" target="_top" xlink:title="DisplaySplitWidget\l::setActiveDisplayObjects">
<polygon fill="white" stroke="black" points="1172,-49.5 1172,-79.5 1303,-79.5 1303,-49.5 1172,-49.5"/>
<text text-anchor="start" x="1180" y="-67.5" font-family="Helvetica,sans-Serif" font-size="10.00">DisplaySplitWidget</text>
<text text-anchor="middle" x="1237.5" y="-56.5" font-family="Helvetica,sans-Serif" font-size="10.00">::setActiveDisplayObjects</text>
</a>
</g>
</g>
<!-- Node21&#45;&gt;Node22 -->
<g id="edge30" class="edge"><title>Node21&#45;&gt;Node22</title>
<path fill="none" stroke="midnightblue" d="M1140.05,-61.4086C1150.42,-61.741 1161.25,-62.0882 1171.75,-62.4248"/>
<polygon fill="midnightblue" stroke="midnightblue" points="1139.97,-57.9043 1129.86,-61.082 1139.74,-64.9007 1139.97,-57.9043"/>
</g>
<!-- Node21&#45;&gt;Node23 -->
<g id="edge31" class="edge"><title>Node21&#45;&gt;Node23</title>
<path fill="none" stroke="midnightblue" d="M1139.53,-42.8493C1155.34,-38.3905 1172.26,-33.6196 1187.46,-29.3313"/>
<polygon fill="midnightblue" stroke="midnightblue" points="1138.53,-39.4949 1129.86,-45.5781 1140.43,-46.232 1138.53,-39.4949"/>
</g>
</g>
</svg>
