<?xml version="1.0" encoding="UTF-8" standalone="no"?>
<!DOCTYPE svg PUBLIC "-//W3C//DTD SVG 1.1//EN"
 "http://www.w3.org/Graphics/SVG/1.1/DTD/svg11.dtd">
<!-- Generated by graphviz version 2.38.0 (20140413.2041)
 -->
<!-- Title: MainWindow::on_fileOptionValueChanged Pages: 1 -->
<!--zoomable 224 -->
<svg id="main" version="1.1" xmlns="http://www.w3.org/2000/svg" xmlns:xlink="http://www.w3.org/1999/xlink" xml:space="preserve" onload="init(evt)">
<style type="text/css"><![CDATA[
.edge:hover path { stroke: red; }
.edge:hover polygon { stroke: red; fill: red; }
]]></style>
<script type="text/javascript"><![CDATA[
var edges = document.getElementsByTagName('g');
if (edges && edges.length) {
  for (var i=0;i<edges.length;i++) {
    if (edges[i].id.substr(0,4)=='edge') {
      edges[i].setAttribute('class','edge');
    }
  }
}
]]></script>
        <defs>
                <circle id="rim" cx="0" cy="0" r="7"/>
                <circle id="rim2" cx="0" cy="0" r="3.5"/>
                <g id="zoomPlus">
                        <use xlink:href="#rim" fill="#404040">
                                <set attributeName="fill" to="#808080" begin="zoomplus.mouseover" end="zoomplus.mouseout"/>
                        </use>
                        <path d="M-4,0h8M0,-4v8" fill="none" stroke="white" stroke-width="1.5" pointer-events="none"/>
                </g>
                <g id="zoomMin">
                        <use xlink:href="#rim" fill="#404040">
                                <set attributeName="fill" to="#808080" begin="zoomminus.mouseover" end="zoomminus.mouseout"/>
                        </use>
                        <path d="M-4,0h8" fill="none" stroke="white" stroke-width="1.5" pointer-events="none"/>
                </g>
                <g id="dirArrow">
                        <path fill="none" stroke="white" stroke-width="1.5" d="M0,-3.0v7 M-2.5,-0.5L0,-3.0L2.5,-0.5"/>
                </g>
               <g id="resetDef">
                       <use xlink:href="#rim2" fill="#404040">
                               <set attributeName="fill" to="#808080" begin="reset.mouseover" end="reset.mouseout"/>
                       </use>
               </g>
        </defs>

<script type="text/javascript">
var viewWidth = 1265;
var viewHeight = 224;
var sectionId = 'dynsection-43';
</script>
<script xlink:href="svgpan.js"/>
<svg id="graph" class="graph">
<g id="viewport">
<title>MainWindow::on_fileOptionValueChanged</title>
<polygon fill="white" stroke="none" points="-4,4 -4,-219.755 1261,-219.755 1261,4 -4,4"/>
<!-- Node1 -->
<g id="node1" class="node"><title>Node1</title>
<polygon fill="#bfbfbf" stroke="black" points="0,-155.338 0,-185.338 136,-185.338 136,-155.338 0,-155.338"/>
<text text-anchor="start" x="8" y="-173.338" font-family="Helvetica,sans-Serif" font-size="10.00">MainWindow::on_fileOption</text>
<text text-anchor="middle" x="68" y="-162.338" font-family="Helvetica,sans-Serif" font-size="10.00">ValueChanged</text>
</g>
<!-- Node2 -->
<g id="node2" class="node"><title>Node2</title>
<g id="a_node2"><a xlink:href="classMainWindow.html#a8b244be8b7b7db1b08de2a2acb9409db" target="_top" xlink:title="MainWindow::MainWindow">
<polygon fill="white" stroke="black" points="1122,-100.838 1122,-119.838 1257,-119.838 1257,-100.838 1122,-100.838"/>
<text text-anchor="middle" x="1189.5" y="-107.838" font-family="Helvetica,sans-Serif" font-size="10.00">MainWindow::MainWindow</text>
</a>
</g>
</g>
<!-- Node1&#45;&gt;Node2 -->
<g id="edge1" class="edge"><title>Node1&#45;&gt;Node2</title>
<path fill="none" stroke="midnightblue" d="M136.274,-187.557C148.118,-190.146 160.375,-192.545 172,-194.338 285.885,-211.908 315.268,-214.338 430.5,-214.338 430.5,-214.338 430.5,-214.338 797,-214.338 926.33,-214.338 964.876,-225.673 1086,-180.338 1123.54,-166.288 1160.64,-135.702 1178.12,-120.026"/>
<polygon fill="midnightblue" stroke="midnightblue" points="136.968,-184.126 126.444,-185.347 135.433,-190.955 136.968,-184.126"/>
</g>
<!-- Node3 -->
<g id="node3" class="node"><title>Node3</title>
<g id="a_node3"><a xlink:href="classMainWindow.html#a29e6418f12a4331860a7db3616e91600" target="_top" xlink:title="updates the YUV information GUI elements from the current Renderobject ">
<polygon fill="white" stroke="black" points="172,-155.338 172,-185.338 321,-185.338 321,-155.338 172,-155.338"/>
<text text-anchor="start" x="180" y="-173.338" font-family="Helvetica,sans-Serif" font-size="10.00">MainWindow::updateSelection</text>
<text text-anchor="middle" x="246.5" y="-162.338" font-family="Helvetica,sans-Serif" font-size="10.00">MetaInfo</text>
</a>
</g>
</g>
<!-- Node1&#45;&gt;Node3 -->
<g id="edge2" class="edge"><title>Node1&#45;&gt;Node3</title>
<path fill="none" stroke="midnightblue" d="M146.478,-163.633C154.951,-163.562 163.559,-163.575 171.982,-163.672"/>
<polygon fill="midnightblue" stroke="midnightblue" points="146.186,-160.136 136.231,-163.761 146.274,-167.136 146.186,-160.136"/>
</g>
<!-- Node3&#45;&gt;Node1 -->
<g id="edge16" class="edge"><title>Node3&#45;&gt;Node1</title>
<path fill="none" stroke="midnightblue" d="M161.918,-177.08C153.305,-177.111 144.633,-177.056 136.231,-176.915"/>
<polygon fill="midnightblue" stroke="midnightblue" points="162.009,-180.579 171.982,-177.004 161.956,-173.579 162.009,-180.579"/>
</g>
<!-- Node4 -->
<g id="node4" class="node"><title>Node4</title>
<g id="a_node4"><a xlink:href="classMainWindow.html#a6f33e93f427ff2df80edffcb3ad944da" target="_top" xlink:title="MainWindow::updateSelected\lItems">
<polygon fill="white" stroke="black" points="542,-115.338 542,-145.338 688,-145.338 688,-115.338 542,-115.338"/>
<text text-anchor="start" x="550" y="-133.338" font-family="Helvetica,sans-Serif" font-size="10.00">MainWindow::updateSelected</text>
<text text-anchor="middle" x="615" y="-122.338" font-family="Helvetica,sans-Serif" font-size="10.00">Items</text>
</a>
</g>
</g>
<!-- Node3&#45;&gt;Node4 -->
<g id="edge3" class="edge"><title>Node3&#45;&gt;Node4</title>
<path fill="none" stroke="midnightblue" d="M331.311,-167.886C382.052,-165.643 447.963,-161.383 506,-153.338 520.621,-151.311 536.218,-148.423 550.88,-145.374"/>
<polygon fill="midnightblue" stroke="midnightblue" points="330.889,-164.401 321.047,-168.322 331.186,-171.394 330.889,-164.401"/>
</g>
<!-- Node11 -->
<g id="node11" class="node"><title>Node11</title>
<g id="a_node11"><a xlink:href="classMainWindow.html#a23cc43af3c6873f9a936b5af05c99f49" target="_top" xlink:title="The display objects information changed. Update. ">
<polygon fill="white" stroke="black" points="357,-114.338 357,-144.338 506,-144.338 506,-114.338 357,-114.338"/>
<text text-anchor="start" x="365" y="-132.338" font-family="Helvetica,sans-Serif" font-size="10.00">MainWindow::currentSelection</text>
<text text-anchor="middle" x="431.5" y="-121.338" font-family="Helvetica,sans-Serif" font-size="10.00">InformationChanged</text>
</a>
</g>
</g>
<!-- Node3&#45;&gt;Node11 -->
<g id="edge17" class="edge"><title>Node3&#45;&gt;Node11</title>
<path fill="none" stroke="midnightblue" d="M324.414,-153.106C337.369,-150.203 350.724,-147.211 363.405,-144.37"/>
<polygon fill="midnightblue" stroke="midnightblue" points="323.596,-149.702 314.603,-155.304 325.127,-156.533 323.596,-149.702"/>
</g>
<!-- Node4&#45;&gt;Node2 -->
<g id="edge4" class="edge"><title>Node4&#45;&gt;Node2</title>
<path fill="none" stroke="midnightblue" d="M680.033,-147.622C694.394,-150.808 709.634,-153.657 724,-155.338 883.799,-174.042 928.676,-190.022 1086,-156.338 1118.61,-149.355 1153.39,-131.177 1172.89,-119.875"/>
<polygon fill="midnightblue" stroke="midnightblue" points="680.782,-144.203 670.252,-145.372 679.213,-151.025 680.782,-144.203"/>
</g>
<!-- Node5 -->
<g id="node5" class="node"><title>Node5</title>
<g id="a_node5"><a xlink:href="classMainWindow.html#a6be7246a1a0ecf5d1442bb1775c3d9b3" target="_top" xlink:title="MainWindow::addDifference\lSequence">
<polygon fill="white" stroke="black" points="726,-116.338 726,-146.338 866,-146.338 866,-116.338 726,-116.338"/>
<text text-anchor="start" x="734" y="-134.338" font-family="Helvetica,sans-Serif" font-size="10.00">MainWindow::addDifference</text>
<text text-anchor="middle" x="796" y="-123.338" font-family="Helvetica,sans-Serif" font-size="10.00">Sequence</text>
</a>
</g>
</g>
<!-- Node4&#45;&gt;Node5 -->
<g id="edge5" class="edge"><title>Node4&#45;&gt;Node5</title>
<path fill="none" stroke="midnightblue" d="M698.317,-130.798C707.483,-130.849 716.75,-130.901 725.73,-130.951"/>
<polygon fill="midnightblue" stroke="midnightblue" points="698.052,-127.296 688.032,-130.74 698.013,-134.296 698.052,-127.296"/>
</g>
<!-- Node8 -->
<g id="node8" class="node"><title>Node8</title>
<g id="a_node8"><a xlink:href="classMainWindow.html#af5ecc7c65080215b49b9d931c56c65c9" target="_top" xlink:title="MainWindow::editTextFrame">
<polygon fill="white" stroke="black" points="725,-77.8381 725,-96.8381 867,-96.8381 867,-77.8381 725,-77.8381"/>
<text text-anchor="middle" x="796" y="-84.8381" font-family="Helvetica,sans-Serif" font-size="10.00">MainWindow::editTextFrame</text>
</a>
</g>
</g>
<!-- Node4&#45;&gt;Node8 -->
<g id="edge10" class="edge"><title>Node4&#45;&gt;Node8</title>
<path fill="none" stroke="midnightblue" d="M688.609,-112.896C711.414,-107.417 735.736,-101.575 755.361,-96.8603"/>
<polygon fill="midnightblue" stroke="midnightblue" points="687.511,-109.56 678.606,-115.299 689.146,-116.366 687.511,-109.56"/>
</g>
<!-- Node10 -->
<g id="node10" class="node"><title>Node10</title>
<g id="a_node10"><a xlink:href="classMainWindow.html#a156c29c6d7ab278e4246c88a0fcbe2f2" target="_top" xlink:title="MainWindow::updateSettings">
<polygon fill="white" stroke="black" points="724,-14.8381 724,-33.8381 868,-33.8381 868,-14.8381 724,-14.8381"/>
<text text-anchor="middle" x="796" y="-21.8381" font-family="Helvetica,sans-Serif" font-size="10.00">MainWindow::updateSettings</text>
</a>
</g>
</g>
<!-- Node4&#45;&gt;Node10 -->
<g id="edge14" class="edge"><title>Node4&#45;&gt;Node10</title>
<path fill="none" stroke="midnightblue" d="M650.438,-109.945C688.883,-87.1782 749.499,-51.283 778.488,-34.1158"/>
<polygon fill="midnightblue" stroke="midnightblue" points="648.467,-107.044 641.646,-115.151 652.034,-113.067 648.467,-107.044"/>
</g>
<!-- Node6 -->
<g id="node6" class="node"><title>Node6</title>
<g id="a_node6"><a xlink:href="classMainWindow.html#a9df7443ce5f907903438bb6a9abe9a33" target="_top" xlink:title="MainWindow::createMenusAnd\lActions">
<polygon fill="white" stroke="black" points="919,-117.338 919,-147.338 1071,-147.338 1071,-117.338 919,-117.338"/>
<text text-anchor="start" x="927" y="-135.338" font-family="Helvetica,sans-Serif" font-size="10.00">MainWindow::createMenusAnd</text>
<text text-anchor="middle" x="995" y="-124.338" font-family="Helvetica,sans-Serif" font-size="10.00">Actions</text>
</a>
</g>
</g>
<!-- Node5&#45;&gt;Node6 -->
<g id="edge6" class="edge"><title>Node5&#45;&gt;Node6</title>
<path fill="none" stroke="midnightblue" d="M876.312,-131.741C890.386,-131.812 905.004,-131.886 918.955,-131.957"/>
<polygon fill="midnightblue" stroke="midnightblue" points="876.195,-128.24 866.178,-131.689 876.16,-135.24 876.195,-128.24"/>
</g>
<!-- Node7 -->
<g id="node7" class="node"><title>Node7</title>
<g id="a_node7"><a xlink:href="classMainWindow.html#aaba5c236313378986c42c4a634c4cfb9" target="_top" xlink:title="MainWindow::onCustomContextMenu">
<polygon fill="white" stroke="black" points="904,-78.8381 904,-97.8381 1086,-97.8381 1086,-78.8381 904,-78.8381"/>
<text text-anchor="middle" x="995" y="-85.8381" font-family="Helvetica,sans-Serif" font-size="10.00">MainWindow::onCustomContextMenu</text>
</a>
</g>
</g>
<!-- Node5&#45;&gt;Node7 -->
<g id="edge8" class="edge"><title>Node5&#45;&gt;Node7</title>
<path fill="none" stroke="midnightblue" d="M873.295,-114.102C883.611,-111.807 894.062,-109.502 904,-107.338 918.356,-104.213 934.017,-100.88 948.191,-97.8925"/>
<polygon fill="midnightblue" stroke="midnightblue" points="872.466,-110.701 863.467,-116.293 873.989,-117.533 872.466,-110.701"/>
</g>
<!-- Node6&#45;&gt;Node2 -->
<g id="edge7" class="edge"><title>Node6&#45;&gt;Node2</title>
<path fill="none" stroke="midnightblue" d="M1081.5,-122.567C1094.99,-121.025 1108.77,-119.45 1121.75,-117.966"/>
<polygon fill="midnightblue" stroke="midnightblue" points="1080.79,-119.125 1071.25,-123.738 1081.59,-126.08 1080.79,-119.125"/>
</g>
<!-- Node7&#45;&gt;Node2 -->
<g id="edge9" class="edge"><title>Node7&#45;&gt;Node2</title>
<path fill="none" stroke="midnightblue" d="M1089.36,-99.0081C1100.34,-100.262 1111.36,-101.523 1121.87,-102.723"/>
<polygon fill="midnightblue" stroke="midnightblue" points="1089.65,-95.5178 1079.31,-97.8596 1088.85,-102.473 1089.65,-95.5178"/>
</g>
<!-- Node8&#45;&gt;Node7 -->
<g id="edge11" class="edge"><title>Node8&#45;&gt;Node7</title>
<path fill="none" stroke="midnightblue" d="M877.215,-87.7452C886.002,-87.7898 894.99,-87.8355 903.887,-87.8806"/>
<polygon fill="midnightblue" stroke="midnightblue" points="877.027,-84.2443 867.01,-87.6934 876.992,-91.2442 877.027,-84.2443"/>
</g>
<!-- Node9 -->
<g id="node9" class="node"><title>Node9</title>
<g id="a_node9"><a xlink:href="classMainWindow.html#ab18c663524e2c130759c0ca960129ea4" target="_top" xlink:title="MainWindow::onItemDouble\lClicked">
<polygon fill="white" stroke="black" points="925,-29.3381 925,-59.3381 1065,-59.3381 1065,-29.3381 925,-29.3381"/>
<text text-anchor="start" x="933" y="-47.3381" font-family="Helvetica,sans-Serif" font-size="10.00">MainWindow::onItemDouble</text>
<text text-anchor="middle" x="995" y="-36.3381" font-family="Helvetica,sans-Serif" font-size="10.00">Clicked</text>
</a>
</g>
</g>
<!-- Node8&#45;&gt;Node9 -->
<g id="edge12" class="edge"><title>Node8&#45;&gt;Node9</title>
<path fill="none" stroke="midnightblue" d="M850.638,-75.6303C873.641,-70.6092 900.796,-64.6821 925.25,-59.3443"/>
<polygon fill="midnightblue" stroke="midnightblue" points="849.744,-72.2429 840.721,-77.795 851.237,-79.0818 849.744,-72.2429"/>
</g>
<!-- Node9&#45;&gt;Node2 -->
<g id="edge13" class="edge"><title>Node9&#45;&gt;Node2</title>
<path fill="none" stroke="midnightblue" d="M1063.52,-62.2268C1071.14,-64.5019 1078.76,-66.8934 1086,-69.3381 1114.33,-78.9056 1146.19,-92.0376 1166.77,-100.837"/>
<polygon fill="midnightblue" stroke="midnightblue" points="1064.48,-58.8609 1053.9,-59.4119 1062.52,-65.5793 1064.48,-58.8609"/>
</g>
<!-- Node10&#45;&gt;Node2 -->
<g id="edge15" class="edge"><title>Node10&#45;&gt;Node2</title>
<path fill="none" stroke="midnightblue" d="M845.769,-12.8004C904.79,-1.21246 1006.18,10.9824 1086,-19.3381 1129.82,-35.9845 1166.9,-80.8993 1181.66,-100.718"/>
<polygon fill="midnightblue" stroke="midnightblue" points="845.064,-9.37201 835.963,-14.797 846.461,-16.2313 845.064,-9.37201"/>
</g>
<!-- Node11&#45;&gt;Node4 -->
<g id="edge18" class="edge"><title>Node11&#45;&gt;Node4</title>
<path fill="none" stroke="midnightblue" d="M516.087,-129.799C524.678,-129.846 533.354,-129.894 541.806,-129.94"/>
<polygon fill="midnightblue" stroke="midnightblue" points="516.081,-126.299 506.061,-129.743 516.042,-133.298 516.081,-126.299"/>
</g>
</g>
</svg>
        <g id="navigator" transform="translate(0 0)" fill="#404254">
                <rect fill="#f2f5e9" fill-opacity="0.5" stroke="#606060" stroke-width=".5" x="0" y="0" width="60" height="60"/>
                <use id="zoomplus" xlink:href="#zoomPlus" x="17" y="9" onmousedown="handleZoom(evt,'in')"/>
                <use id="zoomminus" xlink:href="#zoomMin" x="42" y="9" onmousedown="handleZoom(evt,'out')"/>
                <use id="reset" xlink:href="#resetDef" x="30" y="36" onmousedown="handleReset()"/>
                <g id="arrowUp" xlink:href="#dirArrow" transform="translate(30 24)" onmousedown="handlePan(0,-1)">
                  <use xlink:href="#rim" fill="#404040">
                        <set attributeName="fill" to="#808080" begin="arrowUp.mouseover" end="arrowUp.mouseout"/>
                  </use>
                  <path fill="none" stroke="white" stroke-width="1.5" d="M0,-3.0v7 M-2.5,-0.5L0,-3.0L2.5,-0.5"/>
                </g>
                <g id="arrowRight" xlink:href="#dirArrow" transform="rotate(90) translate(36 -43)" onmousedown="handlePan(1,0)">
                  <use xlink:href="#rim" fill="#404040">
                        <set attributeName="fill" to="#808080" begin="arrowRight.mouseover" end="arrowRight.mouseout"/>
                  </use>
                  <path fill="none" stroke="white" stroke-width="1.5" d="M0,-3.0v7 M-2.5,-0.5L0,-3.0L2.5,-0.5"/>
                </g>
                <g id="arrowDown" xlink:href="#dirArrow" transform="rotate(180) translate(-30 -48)" onmousedown="handlePan(0,1)">
                  <use xlink:href="#rim" fill="#404040">
                        <set attributeName="fill" to="#808080" begin="arrowDown.mouseover" end="arrowDown.mouseout"/>
                  </use>
                  <path fill="none" stroke="white" stroke-width="1.5" d="M0,-3.0v7 M-2.5,-0.5L0,-3.0L2.5,-0.5"/>
                </g>
                <g id="arrowLeft" xlink:href="#dirArrow" transform="rotate(270) translate(-36 17)" onmousedown="handlePan(-1,0)">
                  <use xlink:href="#rim" fill="#404040">
                        <set attributeName="fill" to="#808080" begin="arrowLeft.mouseover" end="arrowLeft.mouseout"/>
                  </use>
                  <path fill="none" stroke="white" stroke-width="1.5" d="M0,-3.0v7 M-2.5,-0.5L0,-3.0L2.5,-0.5"/>
                </g>
        </g>
        <svg viewBox="0 0 15 15" width="100%" height="30px" preserveAspectRatio="xMaxYMin meet">
         <g id="arrow_out" transform="scale(0.3 0.3)">
          <a xlink:href="classMainWindow_a2cae0b3ed4283301ecc11dc881d31422_icgraph_org.svg" target="_base">
           <rect id="button" ry="5" rx="5" y="6" x="6" height="38" width="38"
                fill="#f2f5e9" fill-opacity="0.5" stroke="#606060" stroke-width="1.0"/>
           <path id="arrow"
             d="M 11.500037,31.436501 C 11.940474,20.09759 22.043105,11.32322 32.158766,21.979434 L 37.068811,17.246167 C 37.068811,17.246167 37.088388,32 37.088388,32 L 22.160133,31.978069 C 22.160133,31.978069 26.997745,27.140456 26.997745,27.140456 C 18.528582,18.264221 13.291696,25.230495 11.500037,31.436501 z"
             style="fill:#404040;"/>
          </a>
         </g>
        </svg>
</svg>
