<?xml version="1.0" encoding="UTF-8" standalone="no"?>
<!DOCTYPE svg PUBLIC "-//W3C//DTD SVG 1.1//EN"
 "http://www.w3.org/Graphics/SVG/1.1/DTD/svg11.dtd">
<!-- Generated by graphviz version 2.38.0 (20140413.2041)
 -->
<!-- Title: de265File::cacheStatistics_TUTree_recursive Pages: 1 -->
<svg width="340pt" height="66pt"
 viewBox="0.00 0.00 340.00 66.00" xmlns="http://www.w3.org/2000/svg" xmlns:xlink="http://www.w3.org/1999/xlink">
<g id="graph0" class="graph" transform="scale(1 1) rotate(0) translate(4 62)">
<title>de265File::cacheStatistics_TUTree_recursive</title>
<polygon fill="white" stroke="none" points="-4,4 -4,-62 336,-62 336,4 -4,4"/>
<!-- Node1 -->
<g id="node1" class="node"><title>Node1</title>
<polygon fill="#bfbfbf" stroke="black" points="0,-14 0,-44 132,-44 132,-14 0,-14"/>
<text text-anchor="start" x="8" y="-32" font-family="Helvetica,sans-Serif" font-size="10.00">de265File::cacheStatistics</text>
<text text-anchor="middle" x="66" y="-21" font-family="Helvetica,sans-Serif" font-size="10.00">_TUTree_recursive</text>
</g>
<!-- Node2 -->
<g id="node2" class="node"><title>Node2</title>
<g id="a_node2"><a xlink:href="classstatisticSource.html#accae8cdfc95b05e3ef9a945b1f579c46" target="_top" xlink:title="statisticSource::getStatisticsType">
<polygon fill="white" stroke="black" points="168,-38.5 168,-57.5 332,-57.5 332,-38.5 168,-38.5"/>
<text text-anchor="middle" x="250" y="-45.5" font-family="Helvetica,sans-Serif" font-size="10.00">statisticSource::getStatisticsType</text>
</a>
</g>
</g>
<!-- Node1&#45;&gt;Node2 -->
<g id="edge1" class="edge"><title>Node1&#45;&gt;Node2</title>
<path fill="none" stroke="midnightblue" d="M132.192,-35.8058C140.476,-36.6706 149.071,-37.5679 157.671,-38.4656"/>
<polygon fill="midnightblue" stroke="midnightblue" points="157.439,-41.9604 167.749,-39.5177 158.166,-34.9982 157.439,-41.9604"/>
</g>
<!-- Node3 -->
<g id="node3" class="node"><title>Node3</title>
<g id="a_node3"><a xlink:href="classColorRange.html#ab14e6c6fd346fdf7a003cbae112daa99" target="_top" xlink:title="ColorRange::getColor">
<polygon fill="white" stroke="black" points="194.5,-0.5 194.5,-19.5 305.5,-19.5 305.5,-0.5 194.5,-0.5"/>
<text text-anchor="middle" x="250" y="-7.5" font-family="Helvetica,sans-Serif" font-size="10.00">ColorRange::getColor</text>
</a>
</g>
</g>
<!-- Node1&#45;&gt;Node3 -->
<g id="edge2" class="edge"><title>Node1&#45;&gt;Node3</title>
<path fill="none" stroke="midnightblue" d="M132.192,-22.1942C149.086,-20.4306 167.273,-18.532 184.148,-16.7702"/>
<polygon fill="midnightblue" stroke="midnightblue" points="184.881,-20.2129 194.463,-15.6934 184.154,-13.2507 184.881,-20.2129"/>
</g>
</g>
</svg>
