<?xml version="1.0" encoding="UTF-8" standalone="no"?>
<!DOCTYPE svg PUBLIC "-//W3C//DTD SVG 1.1//EN"
 "http://www.w3.org/Graphics/SVG/1.1/DTD/svg11.dtd">
<!-- Generated by graphviz version 2.38.0 (20140413.2041)
 -->
<!-- Title: FrameObject::pixelFormat Pages: 1 -->
<!--zoomable 379 -->
<svg id="main" version="1.1" xmlns="http://www.w3.org/2000/svg" xmlns:xlink="http://www.w3.org/1999/xlink" xml:space="preserve" onload="init(evt)">
<style type="text/css"><![CDATA[
.edge:hover path { stroke: red; }
.edge:hover polygon { stroke: red; fill: red; }
]]></style>
<script type="text/javascript"><![CDATA[
var edges = document.getElementsByTagName('g');
if (edges && edges.length) {
  for (var i=0;i<edges.length;i++) {
    if (edges[i].id.substr(0,4)=='edge') {
      edges[i].setAttribute('class','edge');
    }
  }
}
]]></script>
        <defs>
                <circle id="rim" cx="0" cy="0" r="7"/>
                <circle id="rim2" cx="0" cy="0" r="3.5"/>
                <g id="zoomPlus">
                        <use xlink:href="#rim" fill="#404040">
                                <set attributeName="fill" to="#808080" begin="zoomplus.mouseover" end="zoomplus.mouseout"/>
                        </use>
                        <path d="M-4,0h8M0,-4v8" fill="none" stroke="white" stroke-width="1.5" pointer-events="none"/>
                </g>
                <g id="zoomMin">
                        <use xlink:href="#rim" fill="#404040">
                                <set attributeName="fill" to="#808080" begin="zoomminus.mouseover" end="zoomminus.mouseout"/>
                        </use>
                        <path d="M-4,0h8" fill="none" stroke="white" stroke-width="1.5" pointer-events="none"/>
                </g>
                <g id="dirArrow">
                        <path fill="none" stroke="white" stroke-width="1.5" d="M0,-3.0v7 M-2.5,-0.5L0,-3.0L2.5,-0.5"/>
                </g>
               <g id="resetDef">
                       <use xlink:href="#rim2" fill="#404040">
                               <set attributeName="fill" to="#808080" begin="reset.mouseover" end="reset.mouseout"/>
                       </use>
               </g>
        </defs>

<script type="text/javascript">
var viewWidth = 1272;
var viewHeight = 379;
var sectionId = 'dynsection-24';
</script>
<script xlink:href="svgpan.js"/>
<svg id="graph" class="graph">
<g id="viewport">
<title>FrameObject::pixelFormat</title>
<polygon fill="white" stroke="none" points="-4,4 -4,-375 1268,-375 1268,4 -4,4"/>
<!-- Node1 -->
<g id="node1" class="node"><title>Node1</title>
<polygon fill="#bfbfbf" stroke="black" points="0,-180 0,-199 130,-199 130,-180 0,-180"/>
<text text-anchor="middle" x="65" y="-187" font-family="Helvetica,sans-Serif" font-size="10.00">FrameObject::pixelFormat</text>
</g>
<!-- Node2 -->
<g id="node2" class="node"><title>Node2</title>
<g id="a_node2"><a xlink:href="classDifferenceObject.html#acb2a437aedc3f3a4400c394d0330afc0" target="_top" xlink:title="DifferenceObject::loadImage">
<polygon fill="white" stroke="black" points="170,-326 170,-345 311,-345 311,-326 170,-326"/>
<text text-anchor="middle" x="240.5" y="-333" font-family="Helvetica,sans-Serif" font-size="10.00">DifferenceObject::loadImage</text>
</a>
</g>
</g>
<!-- Node1&#45;&gt;Node2 -->
<g id="edge1" class="edge"><title>Node1&#45;&gt;Node2</title>
<path fill="none" stroke="midnightblue" d="M84.3798,-205.876C104.298,-223.532 137.109,-252.353 166,-276.5 187.218,-294.234 212.454,-314.266 227.155,-325.834"/>
<polygon fill="midnightblue" stroke="midnightblue" points="86.483,-203.063 76.682,-199.039 81.8346,-208.297 86.483,-203.063"/>
</g>
<!-- Node4 -->
<g id="node4" class="node"><title>Node4</title>
<g id="a_node4"><a xlink:href="classMainWindow.html#a88624964fbb9d67df9149b29fab6f225" target="_top" xlink:title="MainWindow::savePlaylist\lToFile">
<polygon fill="white" stroke="black" points="174.5,-236.5 174.5,-266.5 306.5,-266.5 306.5,-236.5 174.5,-236.5"/>
<text text-anchor="start" x="182.5" y="-254.5" font-family="Helvetica,sans-Serif" font-size="10.00">MainWindow::savePlaylist</text>
<text text-anchor="middle" x="240.5" y="-243.5" font-family="Helvetica,sans-Serif" font-size="10.00">ToFile</text>
</a>
</g>
</g>
<!-- Node1&#45;&gt;Node4 -->
<g id="edge3" class="edge"><title>Node1&#45;&gt;Node4</title>
<path fill="none" stroke="midnightblue" d="M102.413,-202.512C130.077,-212.398 168.184,-226.015 197.2,-236.384"/>
<polygon fill="midnightblue" stroke="midnightblue" points="103.324,-199.121 92.7291,-199.052 100.968,-205.713 103.324,-199.121"/>
</g>
<!-- Node8 -->
<g id="node8" class="node"><title>Node8</title>
<g id="a_node8"><a xlink:href="classMainWindow.html#a29e6418f12a4331860a7db3616e91600" target="_top" xlink:title="updates the YUV information GUI elements from the current Renderobject ">
<polygon fill="white" stroke="black" points="166,-113.5 166,-143.5 315,-143.5 315,-113.5 166,-113.5"/>
<text text-anchor="start" x="174" y="-131.5" font-family="Helvetica,sans-Serif" font-size="10.00">MainWindow::updateSelection</text>
<text text-anchor="middle" x="240.5" y="-120.5" font-family="Helvetica,sans-Serif" font-size="10.00">MetaInfo</text>
</a>
</g>
</g>
<!-- Node1&#45;&gt;Node8 -->
<g id="edge7" class="edge"><title>Node1&#45;&gt;Node8</title>
<path fill="none" stroke="midnightblue" d="M102.74,-176.583C130.226,-166.919 167.883,-153.68 196.724,-143.54"/>
<polygon fill="midnightblue" stroke="midnightblue" points="101.382,-173.35 93.1094,-179.969 103.704,-179.954 101.382,-173.35"/>
</g>
<!-- Node17 -->
<g id="node17" class="node"><title>Node17</title>
<g id="a_node17"><a xlink:href="classMainWindow.html#ab2f303a68beea6bf87324e4e96f7a598" target="_top" xlink:title="update selection of color format ComboBox ">
<polygon fill="white" stroke="black" points="536,-0.5 536,-30.5 697,-30.5 697,-0.5 536,-0.5"/>
<text text-anchor="start" x="544" y="-18.5" font-family="Helvetica,sans-Serif" font-size="10.00">MainWindow::updatePixelFormat</text>
<text text-anchor="middle" x="616.5" y="-7.5" font-family="Helvetica,sans-Serif" font-size="10.00">ComboBoxSelection</text>
</a>
</g>
</g>
<!-- Node1&#45;&gt;Node17 -->
<g id="edge25" class="edge"><title>Node1&#45;&gt;Node17</title>
<path fill="none" stroke="midnightblue" d="M81.2586,-172.353C99.5312,-152.858 131.96,-121.421 166,-103.5 284.739,-40.9879 442.253,-22.6516 535.829,-17.4142"/>
<polygon fill="midnightblue" stroke="midnightblue" points="78.513,-170.168 74.3307,-179.903 83.6707,-174.901 78.513,-170.168"/>
</g>
<!-- Node3 -->
<g id="node3" class="node"><title>Node3</title>
<g id="a_node3"><a xlink:href="classDifferenceObject.html#a72a52d53c72aae7579f252a61a914002" target="_top" xlink:title="DifferenceObject::refresh\lDisplayImage">
<polygon fill="white" stroke="black" points="362.5,-340.5 362.5,-370.5 488.5,-370.5 488.5,-340.5 362.5,-340.5"/>
<text text-anchor="start" x="370.5" y="-358.5" font-family="Helvetica,sans-Serif" font-size="10.00">DifferenceObject::refresh</text>
<text text-anchor="middle" x="425.5" y="-347.5" font-family="Helvetica,sans-Serif" font-size="10.00">DisplayImage</text>
</a>
</g>
</g>
<!-- Node2&#45;&gt;Node3 -->
<g id="edge2" class="edge"><title>Node2&#45;&gt;Node3</title>
<path fill="none" stroke="midnightblue" d="M321.192,-344.209C335.019,-345.721 349.212,-347.272 362.48,-348.722"/>
<polygon fill="midnightblue" stroke="midnightblue" points="321.528,-340.725 311.206,-343.118 320.767,-347.684 321.528,-340.725"/>
</g>
<!-- Node5 -->
<g id="node5" class="node"><title>Node5</title>
<g id="a_node5"><a xlink:href="classMainWindow.html#a9df7443ce5f907903438bb6a9abe9a33" target="_top" xlink:title="MainWindow::createMenusAnd\lActions">
<polygon fill="white" stroke="black" points="926,-214.5 926,-244.5 1078,-244.5 1078,-214.5 926,-214.5"/>
<text text-anchor="start" x="934" y="-232.5" font-family="Helvetica,sans-Serif" font-size="10.00">MainWindow::createMenusAnd</text>
<text text-anchor="middle" x="1002" y="-221.5" font-family="Helvetica,sans-Serif" font-size="10.00">Actions</text>
</a>
</g>
</g>
<!-- Node4&#45;&gt;Node5 -->
<g id="edge4" class="edge"><title>Node4&#45;&gt;Node5</title>
<path fill="none" stroke="midnightblue" d="M316.671,-266.292C328.129,-268.039 339.849,-269.54 351,-270.5 479.449,-281.561 844.053,-258.208 875,-254.5 894.707,-252.139 915.941,-248.397 935.257,-244.521"/>
<polygon fill="midnightblue" stroke="midnightblue" points="317.116,-262.819 306.69,-264.701 316.014,-269.732 317.116,-262.819"/>
</g>
<!-- Node7 -->
<g id="node7" class="node"><title>Node7</title>
<g id="a_node7"><a xlink:href="classMainWindow.html#a4e20a4a065fbb0e4d3532a45a0a91425" target="_top" xlink:title="MainWindow::closeEvent">
<polygon fill="white" stroke="black" points="361.5,-242 361.5,-261 489.5,-261 489.5,-242 361.5,-242"/>
<text text-anchor="middle" x="425.5" y="-249" font-family="Helvetica,sans-Serif" font-size="10.00">MainWindow::closeEvent</text>
</a>
</g>
</g>
<!-- Node4&#45;&gt;Node7 -->
<g id="edge6" class="edge"><title>Node4&#45;&gt;Node7</title>
<path fill="none" stroke="midnightblue" d="M316.665,-251.5C331.464,-251.5 346.851,-251.5 361.211,-251.5"/>
<polygon fill="midnightblue" stroke="midnightblue" points="316.534,-248 306.534,-251.5 316.534,-255 316.534,-248"/>
</g>
<!-- Node6 -->
<g id="node6" class="node"><title>Node6</title>
<g id="a_node6"><a xlink:href="classMainWindow.html#a8b244be8b7b7db1b08de2a2acb9409db" target="_top" xlink:title="MainWindow::MainWindow">
<polygon fill="white" stroke="black" points="1129,-154 1129,-173 1264,-173 1264,-154 1129,-154"/>
<text text-anchor="middle" x="1196.5" y="-161" font-family="Helvetica,sans-Serif" font-size="10.00">MainWindow::MainWindow</text>
</a>
</g>
</g>
<!-- Node5&#45;&gt;Node6 -->
<g id="edge5" class="edge"><title>Node5&#45;&gt;Node6</title>
<path fill="none" stroke="midnightblue" d="M1070.52,-211.611C1078.14,-209.336 1085.76,-206.945 1093,-204.5 1121.33,-194.932 1153.19,-181.8 1173.77,-173.001"/>
<polygon fill="midnightblue" stroke="midnightblue" points="1069.52,-208.259 1060.9,-214.426 1071.48,-214.977 1069.52,-208.259"/>
</g>
<!-- Node9 -->
<g id="node9" class="node"><title>Node9</title>
<g id="a_node9"><a xlink:href="classMainWindow.html#a6f33e93f427ff2df80edffcb3ad944da" target="_top" xlink:title="MainWindow::updateSelected\lItems">
<polygon fill="white" stroke="black" points="543.5,-155.5 543.5,-185.5 689.5,-185.5 689.5,-155.5 543.5,-155.5"/>
<text text-anchor="start" x="551.5" y="-173.5" font-family="Helvetica,sans-Serif" font-size="10.00">MainWindow::updateSelected</text>
<text text-anchor="middle" x="616.5" y="-162.5" font-family="Helvetica,sans-Serif" font-size="10.00">Items</text>
</a>
</g>
</g>
<!-- Node8&#45;&gt;Node9 -->
<g id="edge8" class="edge"><title>Node8&#45;&gt;Node9</title>
<path fill="none" stroke="midnightblue" d="M312.436,-145.645C325.214,-148.277 338.458,-150.709 351,-152.5 415.701,-161.74 490.005,-166.268 543.352,-168.468"/>
<polygon fill="midnightblue" stroke="midnightblue" points="312.819,-142.149 302.311,-143.501 311.369,-148.997 312.819,-142.149"/>
</g>
<!-- Node15 -->
<g id="node15" class="node"><title>Node15</title>
<g id="a_node15"><a xlink:href="classMainWindow.html#a2cae0b3ed4283301ecc11dc881d31422" target="_top" xlink:title="A file option was changed by the user (width/height/start/end/rate/sampling/frameSize/pixelFormat). ">
<polygon fill="white" stroke="black" points="357.5,-64.5 357.5,-94.5 493.5,-94.5 493.5,-64.5 357.5,-64.5"/>
<text text-anchor="start" x="365.5" y="-82.5" font-family="Helvetica,sans-Serif" font-size="10.00">MainWindow::on_fileOption</text>
<text text-anchor="middle" x="425.5" y="-71.5" font-family="Helvetica,sans-Serif" font-size="10.00">ValueChanged</text>
</a>
</g>
</g>
<!-- Node8&#45;&gt;Node15 -->
<g id="edge20" class="edge"><title>Node8&#45;&gt;Node15</title>
<path fill="none" stroke="midnightblue" d="M286.953,-110.405C308.209,-103.881 333.948,-96.7859 357.386,-90.9383"/>
<polygon fill="midnightblue" stroke="midnightblue" points="285.715,-107.125 277.219,-113.455 287.808,-113.805 285.715,-107.125"/>
</g>
<!-- Node16 -->
<g id="node16" class="node"><title>Node16</title>
<g id="a_node16"><a xlink:href="classMainWindow.html#a23cc43af3c6873f9a936b5af05c99f49" target="_top" xlink:title="The display objects information changed. Update. ">
<polygon fill="white" stroke="black" points="351,-113.5 351,-143.5 500,-143.5 500,-113.5 351,-113.5"/>
<text text-anchor="start" x="359" y="-131.5" font-family="Helvetica,sans-Serif" font-size="10.00">MainWindow::currentSelection</text>
<text text-anchor="middle" x="425.5" y="-120.5" font-family="Helvetica,sans-Serif" font-size="10.00">InformationChanged</text>
</a>
</g>
</g>
<!-- Node8&#45;&gt;Node16 -->
<g id="edge23" class="edge"><title>Node8&#45;&gt;Node16</title>
<path fill="none" stroke="midnightblue" d="M325.387,-128.5C333.838,-128.5 342.376,-128.5 350.711,-128.5"/>
<polygon fill="midnightblue" stroke="midnightblue" points="325.142,-125 315.142,-128.5 325.142,-132 325.142,-125"/>
</g>
<!-- Node9&#45;&gt;Node6 -->
<g id="edge9" class="edge"><title>Node9&#45;&gt;Node6</title>
<path fill="none" stroke="midnightblue" d="M639.088,-192.819C660.641,-213.36 695.83,-242.413 733,-254.5 885.157,-303.979 943.427,-311.316 1093,-254.5 1136.82,-237.854 1173.9,-192.939 1188.66,-173.12"/>
<polygon fill="midnightblue" stroke="midnightblue" points="641.384,-190.169 631.786,-185.684 636.492,-195.176 641.384,-190.169"/>
</g>
<!-- Node10 -->
<g id="node10" class="node"><title>Node10</title>
<g id="a_node10"><a xlink:href="classMainWindow.html#a6be7246a1a0ecf5d1442bb1775c3d9b3" target="_top" xlink:title="MainWindow::addDifference\lSequence">
<polygon fill="white" stroke="black" points="734,-214.5 734,-244.5 874,-244.5 874,-214.5 734,-214.5"/>
<text text-anchor="start" x="742" y="-232.5" font-family="Helvetica,sans-Serif" font-size="10.00">MainWindow::addDifference</text>
<text text-anchor="middle" x="804" y="-221.5" font-family="Helvetica,sans-Serif" font-size="10.00">Sequence</text>
</a>
</g>
</g>
<!-- Node9&#45;&gt;Node10 -->
<g id="edge10" class="edge"><title>Node9&#45;&gt;Node10</title>
<path fill="none" stroke="midnightblue" d="M674.534,-188.64C700.581,-196.925 731.063,-206.62 755.797,-214.487"/>
<polygon fill="midnightblue" stroke="midnightblue" points="675.38,-185.237 664.789,-185.541 673.258,-191.907 675.38,-185.237"/>
</g>
<!-- Node12 -->
<g id="node12" class="node"><title>Node12</title>
<g id="a_node12"><a xlink:href="classMainWindow.html#af5ecc7c65080215b49b9d931c56c65c9" target="_top" xlink:title="MainWindow::editTextFrame">
<polygon fill="white" stroke="black" points="733,-138 733,-157 875,-157 875,-138 733,-138"/>
<text text-anchor="middle" x="804" y="-145" font-family="Helvetica,sans-Serif" font-size="10.00">MainWindow::editTextFrame</text>
</a>
</g>
</g>
<!-- Node9&#45;&gt;Node12 -->
<g id="edge14" class="edge"><title>Node9&#45;&gt;Node12</title>
<path fill="none" stroke="midnightblue" d="M699.785,-160.298C710.792,-158.933 721.999,-157.543 732.773,-156.207"/>
<polygon fill="midnightblue" stroke="midnightblue" points="699.244,-156.838 689.75,-161.542 700.105,-163.785 699.244,-156.838"/>
</g>
<!-- Node14 -->
<g id="node14" class="node"><title>Node14</title>
<g id="a_node14"><a xlink:href="classMainWindow.html#a156c29c6d7ab278e4246c88a0fcbe2f2" target="_top" xlink:title="MainWindow::updateSettings">
<polygon fill="white" stroke="black" points="930,-88 930,-107 1074,-107 1074,-88 930,-88"/>
<text text-anchor="middle" x="1002" y="-95" font-family="Helvetica,sans-Serif" font-size="10.00">MainWindow::updateSettings</text>
</a>
</g>
</g>
<!-- Node9&#45;&gt;Node14 -->
<g id="edge18" class="edge"><title>Node9&#45;&gt;Node14</title>
<path fill="none" stroke="midnightblue" d="M661.624,-151.704C682.848,-143.379 708.87,-134.2 733,-128.5 798.754,-112.968 875.498,-105.097 929.969,-101.185"/>
<polygon fill="midnightblue" stroke="midnightblue" points="660.223,-148.495 652.234,-155.454 662.819,-154.996 660.223,-148.495"/>
</g>
<!-- Node10&#45;&gt;Node5 -->
<g id="edge11" class="edge"><title>Node10&#45;&gt;Node5</title>
<path fill="none" stroke="midnightblue" d="M884.445,-229.5C898.123,-229.5 912.301,-229.5 925.861,-229.5"/>
<polygon fill="midnightblue" stroke="midnightblue" points="884.102,-226 874.102,-229.5 884.102,-233 884.102,-226"/>
</g>
<!-- Node11 -->
<g id="node11" class="node"><title>Node11</title>
<g id="a_node11"><a xlink:href="classMainWindow.html#aaba5c236313378986c42c4a634c4cfb9" target="_top" xlink:title="MainWindow::onCustomContextMenu">
<polygon fill="white" stroke="black" points="911,-176 911,-195 1093,-195 1093,-176 911,-176"/>
<text text-anchor="middle" x="1002" y="-183" font-family="Helvetica,sans-Serif" font-size="10.00">MainWindow::onCustomContextMenu</text>
</a>
</g>
</g>
<!-- Node10&#45;&gt;Node11 -->
<g id="edge12" class="edge"><title>Node10&#45;&gt;Node11</title>
<path fill="none" stroke="midnightblue" d="M881.131,-212.224C891.175,-209.956 901.334,-207.668 911,-205.5 926.306,-202.067 943.082,-198.331 957.96,-195.028"/>
<polygon fill="midnightblue" stroke="midnightblue" points="880.13,-208.862 871.148,-214.48 881.673,-215.69 880.13,-208.862"/>
</g>
<!-- Node11&#45;&gt;Node6 -->
<g id="edge13" class="edge"><title>Node11&#45;&gt;Node6</title>
<path fill="none" stroke="midnightblue" d="M1096.36,-174.83C1107.34,-173.576 1118.36,-172.315 1128.87,-171.115"/>
<polygon fill="midnightblue" stroke="midnightblue" points="1095.85,-171.366 1086.31,-175.978 1096.65,-178.32 1095.85,-171.366"/>
</g>
<!-- Node12&#45;&gt;Node11 -->
<g id="edge15" class="edge"><title>Node12&#45;&gt;Node11</title>
<path fill="none" stroke="midnightblue" d="M864.261,-158.989C892.227,-164.411 925.209,-170.806 951.774,-175.956"/>
<polygon fill="midnightblue" stroke="midnightblue" points="864.689,-155.507 854.206,-157.04 863.357,-162.379 864.689,-155.507"/>
</g>
<!-- Node13 -->
<g id="node13" class="node"><title>Node13</title>
<g id="a_node13"><a xlink:href="classMainWindow.html#ab18c663524e2c130759c0ca960129ea4" target="_top" xlink:title="MainWindow::onItemDouble\lClicked">
<polygon fill="white" stroke="black" points="932,-126.5 932,-156.5 1072,-156.5 1072,-126.5 932,-126.5"/>
<text text-anchor="start" x="940" y="-144.5" font-family="Helvetica,sans-Serif" font-size="10.00">MainWindow::onItemDouble</text>
<text text-anchor="middle" x="1002" y="-133.5" font-family="Helvetica,sans-Serif" font-size="10.00">Clicked</text>
</a>
</g>
</g>
<!-- Node12&#45;&gt;Node13 -->
<g id="edge16" class="edge"><title>Node12&#45;&gt;Node13</title>
<path fill="none" stroke="midnightblue" d="M885.276,-145.043C900.759,-144.569 916.853,-144.076 931.941,-143.614"/>
<polygon fill="midnightblue" stroke="midnightblue" points="885.095,-141.546 875.207,-145.351 885.309,-148.543 885.095,-141.546"/>
</g>
<!-- Node13&#45;&gt;Node6 -->
<g id="edge17" class="edge"><title>Node13&#45;&gt;Node6</title>
<path fill="none" stroke="midnightblue" d="M1082.28,-150.561C1097.75,-152.328 1113.81,-154.165 1128.82,-155.879"/>
<polygon fill="midnightblue" stroke="midnightblue" points="1082.56,-147.07 1072.22,-149.411 1081.76,-154.024 1082.56,-147.07"/>
</g>
<!-- Node14&#45;&gt;Node6 -->
<g id="edge19" class="edge"><title>Node14&#45;&gt;Node6</title>
<path fill="none" stroke="midnightblue" d="M1067.77,-109.365C1076.34,-111.459 1084.93,-113.836 1093,-116.5 1123.86,-126.692 1157.8,-143.428 1177.84,-153.936"/>
<polygon fill="midnightblue" stroke="midnightblue" points="1068.31,-105.895 1057.77,-107.036 1066.72,-112.713 1068.31,-105.895"/>
</g>
<!-- Node15&#45;&gt;Node6 -->
<g id="edge21" class="edge"><title>Node15&#45;&gt;Node6</title>
<path fill="none" stroke="midnightblue" d="M503.872,-72.84C655.646,-60.8419 986.863,-40.2173 1093,-78.5 1135.41,-93.7953 1172.68,-135.107 1188.04,-153.927"/>
<polygon fill="midnightblue" stroke="midnightblue" points="503.388,-69.3674 493.699,-73.6526 503.946,-76.3452 503.388,-69.3674"/>
</g>
<!-- Node15&#45;&gt;Node8 -->
<g id="edge22" class="edge"><title>Node15&#45;&gt;Node8</title>
<path fill="none" stroke="midnightblue" d="M379.153,-97.5622C359.833,-103.495 336.793,-109.902 315.142,-115.416"/>
<polygon fill="midnightblue" stroke="midnightblue" points="380.395,-100.841 388.89,-94.5101 378.301,-94.1614 380.395,-100.841"/>
</g>
<!-- Node16&#45;&gt;Node9 -->
<g id="edge24" class="edge"><title>Node16&#45;&gt;Node9</title>
<path fill="none" stroke="midnightblue" d="M504.153,-145.756C518.683,-148.985 533.762,-152.336 547.956,-155.49"/>
<polygon fill="midnightblue" stroke="midnightblue" points="504.721,-142.297 494.2,-143.544 503.202,-149.13 504.721,-142.297"/>
</g>
<!-- Node18 -->
<g id="node18" class="node"><title>Node18</title>
<g id="a_node18"><a xlink:href="classMainWindow.html#a288b768c3c21a9171bdc56fe845ece8b" target="_top" xlink:title="Shows the file open dialog and loads all selected Files. ">
<polygon fill="white" stroke="black" points="746,-176 746,-195 862,-195 862,-176 746,-176"/>
<text text-anchor="middle" x="804" y="-183" font-family="Helvetica,sans-Serif" font-size="10.00">MainWindow::openFile</text>
</a>
</g>
</g>
<!-- Node17&#45;&gt;Node18 -->
<g id="edge26" class="edge"><title>Node17&#45;&gt;Node18</title>
<path fill="none" stroke="midnightblue" d="M629.433,-39.6681C647.28,-73.2728 684.123,-133.673 733,-166.5 738.749,-170.362 745.259,-173.441 751.938,-175.896"/>
<polygon fill="midnightblue" stroke="midnightblue" points="632.418,-37.821 624.71,-30.5521 626.203,-41.0413 632.418,-37.821"/>
</g>
<!-- Node18&#45;&gt;Node5 -->
<g id="edge27" class="edge"><title>Node18&#45;&gt;Node5</title>
<path fill="none" stroke="midnightblue" d="M857.307,-197.242C880.82,-202.521 908.853,-208.814 933.891,-214.435"/>
<polygon fill="midnightblue" stroke="midnightblue" points="858.053,-193.823 847.529,-195.047 856.52,-200.653 858.053,-193.823"/>
</g>
<!-- Node18&#45;&gt;Node11 -->
<g id="edge28" class="edge"><title>Node18&#45;&gt;Node11</title>
<path fill="none" stroke="midnightblue" d="M872.439,-185.5C884.833,-185.5 897.952,-185.5 910.887,-185.5"/>
<polygon fill="midnightblue" stroke="midnightblue" points="872.218,-182 862.218,-185.5 872.218,-189 872.218,-182"/>
</g>
</g>
</svg>
        <g id="navigator" transform="translate(0 0)" fill="#404254">
                <rect fill="#f2f5e9" fill-opacity="0.5" stroke="#606060" stroke-width=".5" x="0" y="0" width="60" height="60"/>
                <use id="zoomplus" xlink:href="#zoomPlus" x="17" y="9" onmousedown="handleZoom(evt,'in')"/>
                <use id="zoomminus" xlink:href="#zoomMin" x="42" y="9" onmousedown="handleZoom(evt,'out')"/>
                <use id="reset" xlink:href="#resetDef" x="30" y="36" onmousedown="handleReset()"/>
                <g id="arrowUp" xlink:href="#dirArrow" transform="translate(30 24)" onmousedown="handlePan(0,-1)">
                  <use xlink:href="#rim" fill="#404040">
                        <set attributeName="fill" to="#808080" begin="arrowUp.mouseover" end="arrowUp.mouseout"/>
                  </use>
                  <path fill="none" stroke="white" stroke-width="1.5" d="M0,-3.0v7 M-2.5,-0.5L0,-3.0L2.5,-0.5"/>
                </g>
                <g id="arrowRight" xlink:href="#dirArrow" transform="rotate(90) translate(36 -43)" onmousedown="handlePan(1,0)">
                  <use xlink:href="#rim" fill="#404040">
                        <set attributeName="fill" to="#808080" begin="arrowRight.mouseover" end="arrowRight.mouseout"/>
                  </use>
                  <path fill="none" stroke="white" stroke-width="1.5" d="M0,-3.0v7 M-2.5,-0.5L0,-3.0L2.5,-0.5"/>
                </g>
                <g id="arrowDown" xlink:href="#dirArrow" transform="rotate(180) translate(-30 -48)" onmousedown="handlePan(0,1)">
                  <use xlink:href="#rim" fill="#404040">
                        <set attributeName="fill" to="#808080" begin="arrowDown.mouseover" end="arrowDown.mouseout"/>
                  </use>
                  <path fill="none" stroke="white" stroke-width="1.5" d="M0,-3.0v7 M-2.5,-0.5L0,-3.0L2.5,-0.5"/>
                </g>
                <g id="arrowLeft" xlink:href="#dirArrow" transform="rotate(270) translate(-36 17)" onmousedown="handlePan(-1,0)">
                  <use xlink:href="#rim" fill="#404040">
                        <set attributeName="fill" to="#808080" begin="arrowLeft.mouseover" end="arrowLeft.mouseout"/>
                  </use>
                  <path fill="none" stroke="white" stroke-width="1.5" d="M0,-3.0v7 M-2.5,-0.5L0,-3.0L2.5,-0.5"/>
                </g>
        </g>
        <svg viewBox="0 0 15 15" width="100%" height="30px" preserveAspectRatio="xMaxYMin meet">
         <g id="arrow_out" transform="scale(0.3 0.3)">
          <a xlink:href="classFrameObject_a34dc2eed371951b4ab0c1101afe2fc39_icgraph_org.svg" target="_base">
           <rect id="button" ry="5" rx="5" y="6" x="6" height="38" width="38"
                fill="#f2f5e9" fill-opacity="0.5" stroke="#606060" stroke-width="1.0"/>
           <path id="arrow"
             d="M 11.500037,31.436501 C 11.940474,20.09759 22.043105,11.32322 32.158766,21.979434 L 37.068811,17.246167 C 37.068811,17.246167 37.088388,32 37.088388,32 L 22.160133,31.978069 C 22.160133,31.978069 26.997745,27.140456 26.997745,27.140456 C 18.528582,18.264221 13.291696,25.230495 11.500037,31.436501 z"
             style="fill:#404040;"/>
          </a>
         </g>
        </svg>
</svg>
