<?xml version="1.0" encoding="UTF-8" standalone="no"?>
<!DOCTYPE svg PUBLIC "-//W3C//DTD SVG 1.1//EN"
 "http://www.w3.org/Graphics/SVG/1.1/DTD/svg11.dtd">
<!-- Generated by graphviz version 2.38.0 (20140413.2041)
 -->
<!-- Title: YUVSource::convert2YUV444 Pages: 1 -->
<svg width="1032pt" height="85pt"
 viewBox="0.00 0.00 1032.00 85.00" xmlns="http://www.w3.org/2000/svg" xmlns:xlink="http://www.w3.org/1999/xlink">
<g id="graph0" class="graph" transform="scale(1 1) rotate(0) translate(4 81)">
<title>YUVSource::convert2YUV444</title>
<polygon fill="white" stroke="none" points="-4,4 -4,-81 1028,-81 1028,4 -4,4"/>
<!-- Node1 -->
<g id="node1" class="node"><title>Node1</title>
<polygon fill="#bfbfbf" stroke="black" points="0,-19.5 0,-38.5 149,-38.5 149,-19.5 0,-19.5"/>
<text text-anchor="middle" x="74.5" y="-26.5" font-family="Helvetica,sans-Serif" font-size="10.00">YUVSource::convert2YUV444</text>
</g>
<!-- Node2 -->
<g id="node2" class="node"><title>Node2</title>
<g id="a_node2"><a xlink:href="classde265File.html#a3c517644cd5710d54289b2cdba99babc" target="_top" xlink:title="de265File::copyImgTo444Buffer">
<polygon fill="white" stroke="black" points="185,-38.5 185,-57.5 340,-57.5 340,-38.5 185,-38.5"/>
<text text-anchor="middle" x="262.5" y="-45.5" font-family="Helvetica,sans-Serif" font-size="10.00">de265File::copyImgTo444Buffer</text>
</a>
</g>
</g>
<!-- Node1&#45;&gt;Node2 -->
<g id="edge1" class="edge"><title>Node1&#45;&gt;Node2</title>
<path fill="none" stroke="midnightblue" d="M159.036,-37.5333C167.634,-38.4115 176.34,-39.3008 184.857,-40.1709"/>
<polygon fill="midnightblue" stroke="midnightblue" points="159.316,-34.0437 149.012,-36.5093 158.605,-41.0075 159.316,-34.0437"/>
</g>
<!-- Node8 -->
<g id="node8" class="node"><title>Node8</title>
<g id="a_node8"><a xlink:href="classYUVFile.html#abf82a0b4c126ed5d1d9eaa7ff096e7b0" target="_top" xlink:title="YUVFile::getOneFrame">
<polygon fill="white" stroke="black" points="203,-0.5 203,-19.5 322,-19.5 322,-0.5 203,-0.5"/>
<text text-anchor="middle" x="262.5" y="-7.5" font-family="Helvetica,sans-Serif" font-size="10.00">YUVFile::getOneFrame</text>
</a>
</g>
</g>
<!-- Node1&#45;&gt;Node8 -->
<g id="edge8" class="edge"><title>Node1&#45;&gt;Node8</title>
<path fill="none" stroke="midnightblue" d="M159.152,-20.4549C173.899,-18.9484 188.963,-17.4097 202.84,-15.9922"/>
<polygon fill="midnightblue" stroke="midnightblue" points="158.605,-16.9925 149.012,-21.4907 159.316,-23.9563 158.605,-16.9925"/>
</g>
<!-- Node3 -->
<g id="node3" class="node"><title>Node3</title>
<g id="a_node3"><a xlink:href="classde265File.html#af2a66d6d47d74d992f61da5048d90538" target="_top" xlink:title="de265File::decodeOnePicture">
<polygon fill="white" stroke="black" points="376,-38.5 376,-57.5 521,-57.5 521,-38.5 376,-38.5"/>
<text text-anchor="middle" x="448.5" y="-45.5" font-family="Helvetica,sans-Serif" font-size="10.00">de265File::decodeOnePicture</text>
</a>
</g>
</g>
<!-- Node2&#45;&gt;Node3 -->
<g id="edge2" class="edge"><title>Node2&#45;&gt;Node3</title>
<path fill="none" stroke="midnightblue" d="M350.249,-48C358.848,-48 367.508,-48 375.929,-48"/>
<polygon fill="midnightblue" stroke="midnightblue" points="350.2,-44.5001 340.2,-48 350.2,-51.5001 350.2,-44.5001"/>
</g>
<!-- Node4 -->
<g id="node4" class="node"><title>Node4</title>
<g id="a_node4"><a xlink:href="classde265File.html#afc2f00a9676e0b5c3fdd821619bda482" target="_top" xlink:title="de265File::de265File">
<polygon fill="white" stroke="black" points="753.5,-57.5 753.5,-76.5 860.5,-76.5 860.5,-57.5 753.5,-57.5"/>
<text text-anchor="middle" x="807" y="-64.5" font-family="Helvetica,sans-Serif" font-size="10.00">de265File::de265File</text>
</a>
</g>
</g>
<!-- Node3&#45;&gt;Node4 -->
<g id="edge3" class="edge"><title>Node3&#45;&gt;Node4</title>
<path fill="none" stroke="midnightblue" d="M531.511,-52.3709C599.813,-56.0111 695.038,-61.0862 753.495,-64.2017"/>
<polygon fill="midnightblue" stroke="midnightblue" points="531.386,-48.8593 521.214,-51.8221 531.014,-55.8494 531.386,-48.8593"/>
</g>
<!-- Node5 -->
<g id="node5" class="node"><title>Node5</title>
<g id="a_node5"><a xlink:href="classde265File.html#a948bfcc1b2c4ad6f0a3aa54b99f9553f" target="_top" xlink:title="de265File::backgroundDecoder">
<polygon fill="white" stroke="black" points="557,-19.5 557,-38.5 709,-38.5 709,-19.5 557,-19.5"/>
<text text-anchor="middle" x="633" y="-26.5" font-family="Helvetica,sans-Serif" font-size="10.00">de265File::backgroundDecoder</text>
</a>
</g>
</g>
<!-- Node3&#45;&gt;Node5 -->
<g id="edge4" class="edge"><title>Node3&#45;&gt;Node5</title>
<path fill="none" stroke="midnightblue" d="M531.138,-39.5007C539.745,-38.6046 548.468,-37.6965 556.995,-36.8088"/>
<polygon fill="midnightblue" stroke="midnightblue" points="530.689,-36.0285 521.105,-40.5452 531.414,-42.9908 530.689,-36.0285"/>
</g>
<!-- Node5&#45;&gt;Node4 -->
<g id="edge5" class="edge"><title>Node5&#45;&gt;Node4</title>
<path fill="none" stroke="midnightblue" d="M687.196,-40.7526C711.517,-46.1258 739.955,-52.4086 762.909,-57.4799"/>
<polygon fill="midnightblue" stroke="midnightblue" points="687.922,-37.3288 677.403,-38.589 686.412,-44.164 687.922,-37.3288"/>
</g>
<!-- Node6 -->
<g id="node6" class="node"><title>Node6</title>
<g id="a_node6"><a xlink:href="classde265File.html#a4778a7853c318063a9efd5f0990e79bf" target="_top" xlink:title="de265File::getOneFrame">
<polygon fill="white" stroke="black" points="745,-19.5 745,-38.5 869,-38.5 869,-19.5 745,-19.5"/>
<text text-anchor="middle" x="807" y="-26.5" font-family="Helvetica,sans-Serif" font-size="10.00">de265File::getOneFrame</text>
</a>
</g>
</g>
<!-- Node5&#45;&gt;Node6 -->
<g id="edge6" class="edge"><title>Node5&#45;&gt;Node6</title>
<path fill="none" stroke="midnightblue" d="M719.305,-29C727.942,-29 736.589,-29 744.896,-29"/>
<polygon fill="midnightblue" stroke="midnightblue" points="719.192,-25.5001 709.191,-29 719.191,-32.5001 719.192,-25.5001"/>
</g>
<!-- Node7 -->
<g id="node7" class="node"><title>Node7</title>
<g id="a_node7"><a xlink:href="classde265File.html#af878636f68cd2ee3a4dfc6b3b0169676" target="_top" xlink:title="de265File::loadStatistic\lToCache">
<polygon fill="white" stroke="black" points="905,-14 905,-44 1024,-44 1024,-14 905,-14"/>
<text text-anchor="start" x="913" y="-32" font-family="Helvetica,sans-Serif" font-size="10.00">de265File::loadStatistic</text>
<text text-anchor="middle" x="964.5" y="-21" font-family="Helvetica,sans-Serif" font-size="10.00">ToCache</text>
</a>
</g>
</g>
<!-- Node6&#45;&gt;Node7 -->
<g id="edge7" class="edge"><title>Node6&#45;&gt;Node7</title>
<path fill="none" stroke="midnightblue" d="M879.093,-29C887.747,-29 896.511,-29 904.954,-29"/>
<polygon fill="midnightblue" stroke="midnightblue" points="879.011,-25.5001 869.011,-29 879.011,-32.5001 879.011,-25.5001"/>
</g>
</g>
</svg>
