<?xml version="1.0" encoding="UTF-8" standalone="no"?>
<!DOCTYPE svg PUBLIC "-//W3C//DTD SVG 1.1//EN"
 "http://www.w3.org/Graphics/SVG/1.1/DTD/svg11.dtd">
<!-- Generated by graphviz version 2.38.0 (20140413.2041)
 -->
<!-- Title: StatisticsObject::StatisticsObject Pages: 1 -->
<svg width="494pt" height="310pt"
 viewBox="0.00 0.00 494.00 310.35" xmlns="http://www.w3.org/2000/svg" xmlns:xlink="http://www.w3.org/1999/xlink">
<g id="graph0" class="graph" transform="scale(1 1) rotate(0) translate(4 306.353)">
<title>StatisticsObject::StatisticsObject</title>
<polygon fill="white" stroke="none" points="-4,4 -4,-306.353 490,-306.353 490,4 -4,4"/>
<!-- Node1 -->
<g id="node1" class="node"><title>Node1</title>
<polygon fill="#bfbfbf" stroke="black" points="0,-153 0,-183 134,-183 134,-153 0,-153"/>
<text text-anchor="start" x="8" y="-171" font-family="Helvetica,sans-Serif" font-size="10.00">StatisticsObject::Statistics</text>
<text text-anchor="middle" x="67" y="-160" font-family="Helvetica,sans-Serif" font-size="10.00">Object</text>
</g>
<!-- Node2 -->
<g id="node2" class="node"><title>Node2</title>
<g id="a_node2"><a xlink:href="classDisplayObject.html#afb3b221174f722f563e7bf55a1ddb29f" target="_top" xlink:title="DisplayObject::width">
<polygon fill="white" stroke="black" points="367.5,-272.5 367.5,-291.5 474.5,-291.5 474.5,-272.5 367.5,-272.5"/>
<text text-anchor="middle" x="421" y="-279.5" font-family="Helvetica,sans-Serif" font-size="10.00">DisplayObject::width</text>
</a>
</g>
</g>
<!-- Node1&#45;&gt;Node2 -->
<g id="edge1" class="edge"><title>Node1&#45;&gt;Node2</title>
<path fill="none" stroke="midnightblue" d="M75.887,-183.129C90.419,-209.139 124.178,-261.513 170,-282 234.449,-310.816 317.925,-303.014 370.231,-293.493"/>
<polygon fill="midnightblue" stroke="midnightblue" points="371.096,-296.891 380.262,-291.577 369.783,-290.016 371.096,-296.891"/>
</g>
<!-- Node3 -->
<g id="node3" class="node"><title>Node3</title>
<g id="a_node3"><a xlink:href="classDisplayObject.html#a814782fb1bf9e7a2ed7adab74872c08a" target="_top" xlink:title="DisplayObject::height">
<polygon fill="white" stroke="black" points="366,-186.5 366,-205.5 476,-205.5 476,-186.5 366,-186.5"/>
<text text-anchor="middle" x="421" y="-193.5" font-family="Helvetica,sans-Serif" font-size="10.00">DisplayObject::height</text>
</a>
</g>
</g>
<!-- Node1&#45;&gt;Node3 -->
<g id="edge2" class="edge"><title>Node1&#45;&gt;Node3</title>
<path fill="none" stroke="midnightblue" d="M134.128,-163.104C185.154,-160.506 257.369,-159.397 320,-168 341.499,-170.953 364.888,-177.319 383.637,-183.236"/>
<polygon fill="midnightblue" stroke="midnightblue" points="382.667,-186.601 393.259,-186.36 384.829,-179.943 382.667,-186.601"/>
</g>
<!-- Node4 -->
<g id="node4" class="node"><title>Node4</title>
<g id="a_node4"><a xlink:href="classDisplayObject.html#a8f8f637b874a3e17128915cf414d6b60" target="_top" xlink:title="DisplayObject::frameRate">
<polygon fill="white" stroke="black" points="180,-215.5 180,-234.5 310,-234.5 310,-215.5 180,-215.5"/>
<text text-anchor="middle" x="245" y="-222.5" font-family="Helvetica,sans-Serif" font-size="10.00">DisplayObject::frameRate</text>
</a>
</g>
</g>
<!-- Node1&#45;&gt;Node4 -->
<g id="edge3" class="edge"><title>Node1&#45;&gt;Node4</title>
<path fill="none" stroke="midnightblue" d="M105.455,-183.032C124.598,-190.439 148.363,-199.213 170,-206 177.564,-208.373 185.629,-210.673 193.55,-212.806"/>
<polygon fill="midnightblue" stroke="midnightblue" points="192.895,-216.252 203.456,-215.41 194.675,-209.482 192.895,-216.252"/>
</g>
<!-- Node5 -->
<g id="node5" class="node"><title>Node5</title>
<g id="a_node5"><a xlink:href="common_8cpp.html#aed0a759d224a5b3983b9610b44ff754a" target="_top" xlink:title="Common functions. ">
<polygon fill="white" stroke="black" points="191.5,-177.5 191.5,-196.5 298.5,-196.5 298.5,-177.5 191.5,-177.5"/>
<text text-anchor="middle" x="245" y="-184.5" font-family="Helvetica,sans-Serif" font-size="10.00">formatFromFilename</text>
</a>
</g>
</g>
<!-- Node1&#45;&gt;Node5 -->
<g id="edge4" class="edge"><title>Node1&#45;&gt;Node5</title>
<path fill="none" stroke="midnightblue" d="M134.037,-175.129C149.411,-176.789 165.742,-178.552 180.982,-180.197"/>
<polygon fill="midnightblue" stroke="midnightblue" points="181.016,-183.721 191.334,-181.314 181.767,-176.761 181.016,-183.721"/>
</g>
<!-- Node6 -->
<g id="node6" class="node"><title>Node6</title>
<g id="a_node6"><a xlink:href="classDisplayObject.html#a4b72bf3422adf483b502da939d38c9d6" target="_top" xlink:title="DisplayObject::size">
<polygon fill="white" stroke="black" points="194,-253.5 194,-272.5 296,-272.5 296,-253.5 194,-253.5"/>
<text text-anchor="middle" x="245" y="-260.5" font-family="Helvetica,sans-Serif" font-size="10.00">DisplayObject::size</text>
</a>
</g>
</g>
<!-- Node1&#45;&gt;Node6 -->
<g id="edge5" class="edge"><title>Node1&#45;&gt;Node6</title>
<path fill="none" stroke="midnightblue" d="M84.0058,-183.096C103.059,-200.271 136.526,-228.002 170,-244 175.011,-246.395 180.363,-248.515 185.81,-250.386"/>
<polygon fill="midnightblue" stroke="midnightblue" points="185.075,-253.823 195.664,-253.489 187.178,-247.147 185.075,-253.823"/>
</g>
<!-- Node7 -->
<g id="node7" class="node"><title>Node7</title>
<g id="a_node7"><a xlink:href="classstatisticSource.html#ae76f453386438dc42055b554190ab1c0" target="_top" xlink:title="statisticSource::getSize">
<polygon fill="white" stroke="black" points="184.5,-101.5 184.5,-120.5 305.5,-120.5 305.5,-101.5 184.5,-101.5"/>
<text text-anchor="middle" x="245" y="-108.5" font-family="Helvetica,sans-Serif" font-size="10.00">statisticSource::getSize</text>
</a>
</g>
</g>
<!-- Node1&#45;&gt;Node7 -->
<g id="edge8" class="edge"><title>Node1&#45;&gt;Node7</title>
<path fill="none" stroke="midnightblue" d="M114.703,-152.875C142.786,-143.779 178.127,-132.334 204.76,-123.708"/>
<polygon fill="midnightblue" stroke="midnightblue" points="206.073,-126.962 214.508,-120.551 203.916,-120.303 206.073,-126.962"/>
</g>
<!-- Node8 -->
<g id="node8" class="node"><title>Node8</title>
<g id="a_node8"><a xlink:href="classstatisticSource.html#aeac45f27c6a5bd53ac369f564a8ebd89" target="_top" xlink:title="statisticSource::getFrameRate">
<polygon fill="white" stroke="black" points="170,-63.5 170,-82.5 320,-82.5 320,-63.5 170,-63.5"/>
<text text-anchor="middle" x="245" y="-70.5" font-family="Helvetica,sans-Serif" font-size="10.00">statisticSource::getFrameRate</text>
</a>
</g>
</g>
<!-- Node1&#45;&gt;Node8 -->
<g id="edge9" class="edge"><title>Node1&#45;&gt;Node8</title>
<path fill="none" stroke="midnightblue" d="M84.0058,-152.904C103.059,-135.729 136.526,-107.998 170,-92 175.011,-89.6049 180.363,-87.485 185.81,-85.6143"/>
<polygon fill="midnightblue" stroke="midnightblue" points="187.178,-88.8532 195.664,-82.5106 185.075,-82.1765 187.178,-88.8532"/>
</g>
<!-- Node9 -->
<g id="node9" class="node"><title>Node9</title>
<g id="a_node9"><a xlink:href="classStatisticsObject.html#a78938588464aca9d9aa880e2f3f7de5b" target="_top" xlink:title="StatisticsObject::statistic\lSourceInformationChanced">
<polygon fill="white" stroke="black" points="177.5,-14 177.5,-44 312.5,-44 312.5,-14 177.5,-14"/>
<text text-anchor="start" x="185.5" y="-32" font-family="Helvetica,sans-Serif" font-size="10.00">StatisticsObject::statistic</text>
<text text-anchor="middle" x="245" y="-21" font-family="Helvetica,sans-Serif" font-size="10.00">SourceInformationChanced</text>
</a>
</g>
</g>
<!-- Node1&#45;&gt;Node9 -->
<g id="edge10" class="edge"><title>Node1&#45;&gt;Node9</title>
<path fill="none" stroke="midnightblue" d="M77.7229,-152.802C93.9868,-128.546 128.994,-81.0625 170,-54 173.066,-51.9762 176.313,-50.1008 179.666,-48.365"/>
<polygon fill="midnightblue" stroke="midnightblue" points="181.189,-51.5169 188.745,-44.0903 178.207,-45.1839 181.189,-51.5169"/>
</g>
<!-- Node6&#45;&gt;Node2 -->
<g id="edge6" class="edge"><title>Node6&#45;&gt;Node2</title>
<path fill="none" stroke="midnightblue" d="M296.328,-268.496C315.389,-270.577 337.326,-272.972 357.381,-275.162"/>
<polygon fill="midnightblue" stroke="midnightblue" points="357.042,-278.646 367.363,-276.252 357.802,-271.687 357.042,-278.646"/>
</g>
<!-- Node6&#45;&gt;Node3 -->
<g id="edge7" class="edge"><title>Node6&#45;&gt;Node3</title>
<path fill="none" stroke="midnightblue" d="M289.089,-253.456C299.339,-250.77 310.155,-247.587 320,-244 345.812,-234.595 373.909,-220.766 393.73,-210.365"/>
<polygon fill="midnightblue" stroke="midnightblue" points="395.563,-213.354 402.748,-205.568 392.276,-207.174 395.563,-213.354"/>
</g>
<!-- Node10 -->
<g id="node10" class="node"><title>Node10</title>
<g id="a_node10"><a xlink:href="classstatisticSource.html#ab420aa7b1787dbeb354489cb765d29a6" target="_top" xlink:title="statisticSource::getStatus">
<polygon fill="white" stroke="black" points="356,-38.5 356,-57.5 486,-57.5 486,-38.5 356,-38.5"/>
<text text-anchor="middle" x="421" y="-45.5" font-family="Helvetica,sans-Serif" font-size="10.00">statisticSource::getStatus</text>
</a>
</g>
</g>
<!-- Node9&#45;&gt;Node10 -->
<g id="edge11" class="edge"><title>Node9&#45;&gt;Node10</title>
<path fill="none" stroke="midnightblue" d="M312.775,-36.2916C323.635,-37.4774 334.94,-38.7118 345.96,-39.9152"/>
<polygon fill="midnightblue" stroke="midnightblue" points="345.66,-43.4031 355.981,-41.0094 346.42,-36.4445 345.66,-43.4031"/>
</g>
<!-- Node11 -->
<g id="node11" class="node"><title>Node11</title>
<g id="a_node11"><a xlink:href="classstatisticSource.html#a3ef9eb84901d880497da300e3825e7fd" target="_top" xlink:title="statisticSource::getInfo">
<polygon fill="white" stroke="black" points="362,-0.5 362,-19.5 480,-19.5 480,-0.5 362,-0.5"/>
<text text-anchor="middle" x="421" y="-7.5" font-family="Helvetica,sans-Serif" font-size="10.00">statisticSource::getInfo</text>
</a>
</g>
</g>
<!-- Node9&#45;&gt;Node11 -->
<g id="edge12" class="edge"><title>Node9&#45;&gt;Node11</title>
<path fill="none" stroke="midnightblue" d="M312.775,-21.7084C325.555,-20.3129 338.952,-18.8501 351.777,-17.4497"/>
<polygon fill="midnightblue" stroke="midnightblue" points="352.356,-20.9073 361.917,-16.3424 351.596,-13.9487 352.356,-20.9073"/>
</g>
</g>
</svg>
