<?xml version="1.0" encoding="UTF-8" standalone="no"?>
<!DOCTYPE svg PUBLIC "-//W3C//DTD SVG 1.1//EN"
 "http://www.w3.org/Graphics/SVG/1.1/DTD/svg11.dtd">
<!-- Generated by graphviz version 2.38.0 (20140413.2041)
 -->
<!-- Title: MainWindow::selectedSecondaryPlaylistItem Pages: 1 -->
<svg width="952pt" height="267pt"
 viewBox="0.00 0.00 952.00 266.52" xmlns="http://www.w3.org/2000/svg" xmlns:xlink="http://www.w3.org/1999/xlink">
<g id="graph0" class="graph" transform="scale(1 1) rotate(0) translate(4 262.517)">
<title>MainWindow::selectedSecondaryPlaylistItem</title>
<polygon fill="white" stroke="none" points="-4,4 -4,-262.517 948,-262.517 948,4 -4,4"/>
<!-- Node1 -->
<g id="node1" class="node"><title>Node1</title>
<polygon fill="#bfbfbf" stroke="black" points="0,-74 0,-104 162,-104 162,-74 0,-74"/>
<text text-anchor="start" x="8" y="-92" font-family="Helvetica,sans-Serif" font-size="10.00">MainWindow::selectedSecondary</text>
<text text-anchor="middle" x="81" y="-81" font-family="Helvetica,sans-Serif" font-size="10.00">PlaylistItem</text>
</g>
<!-- Node2 -->
<g id="node2" class="node"><title>Node2</title>
<g id="a_node2"><a xlink:href="classMainWindow.html#a6f33e93f427ff2df80edffcb3ad944da" target="_top" xlink:title="MainWindow::updateSelected\lItems">
<polygon fill="white" stroke="black" points="208.5,-115 208.5,-145 354.5,-145 354.5,-115 208.5,-115"/>
<text text-anchor="start" x="216.5" y="-133" font-family="Helvetica,sans-Serif" font-size="10.00">MainWindow::updateSelected</text>
<text text-anchor="middle" x="281.5" y="-122" font-family="Helvetica,sans-Serif" font-size="10.00">Items</text>
</a>
</g>
</g>
<!-- Node1&#45;&gt;Node2 -->
<g id="edge1" class="edge"><title>Node1&#45;&gt;Node2</title>
<path fill="none" stroke="midnightblue" d="M164.73,-106.088C179.226,-109.082 194.206,-112.176 208.385,-115.105"/>
<polygon fill="midnightblue" stroke="midnightblue" points="165.288,-102.629 154.787,-104.034 163.872,-109.485 165.288,-102.629"/>
</g>
<!-- Node10 -->
<g id="node10" class="node"><title>Node10</title>
<g id="a_node10"><a xlink:href="classMainWindow.html#a94442a4ea05a84b5f57585c4f6ca65a9" target="_top" xlink:title="MainWindow::statsTypesChanged">
<polygon fill="white" stroke="black" points="198,-38.5 198,-57.5 365,-57.5 365,-38.5 198,-38.5"/>
<text text-anchor="middle" x="281.5" y="-45.5" font-family="Helvetica,sans-Serif" font-size="10.00">MainWindow::statsTypesChanged</text>
</a>
</g>
</g>
<!-- Node1&#45;&gt;Node10 -->
<g id="edge14" class="edge"><title>Node1&#45;&gt;Node10</title>
<path fill="none" stroke="midnightblue" d="M164.857,-71.886C188.575,-66.9871 213.577,-61.8229 234.242,-57.5545"/>
<polygon fill="midnightblue" stroke="midnightblue" points="163.872,-68.5154 154.787,-73.9659 165.288,-75.3707 163.872,-68.5154"/>
</g>
<!-- Node3 -->
<g id="node3" class="node"><title>Node3</title>
<g id="a_node3"><a xlink:href="classMainWindow.html#a8b244be8b7b7db1b08de2a2acb9409db" target="_top" xlink:title="MainWindow::MainWindow">
<polygon fill="white" stroke="black" points="809,-142.5 809,-161.5 944,-161.5 944,-142.5 809,-142.5"/>
<text text-anchor="middle" x="876.5" y="-149.5" font-family="Helvetica,sans-Serif" font-size="10.00">MainWindow::MainWindow</text>
</a>
</g>
</g>
<!-- Node2&#45;&gt;Node3 -->
<g id="edge2" class="edge"><title>Node2&#45;&gt;Node3</title>
<path fill="none" stroke="midnightblue" d="M312.632,-150.553C335.879,-165.586 369.317,-185.464 401,-198 481.694,-229.927 504.805,-232.932 591,-243 671.343,-252.384 697.383,-271.723 773,-243 816.824,-226.354 853.898,-181.439 868.66,-161.62"/>
<polygon fill="midnightblue" stroke="midnightblue" points="314.527,-147.61 304.246,-145.054 310.689,-153.464 314.527,-147.61"/>
</g>
<!-- Node4 -->
<g id="node4" class="node"><title>Node4</title>
<g id="a_node4"><a xlink:href="classMainWindow.html#a6be7246a1a0ecf5d1442bb1775c3d9b3" target="_top" xlink:title="MainWindow::addDifference\lSequence">
<polygon fill="white" stroke="black" points="408,-159 408,-189 548,-189 548,-159 408,-159"/>
<text text-anchor="start" x="416" y="-177" font-family="Helvetica,sans-Serif" font-size="10.00">MainWindow::addDifference</text>
<text text-anchor="middle" x="478" y="-166" font-family="Helvetica,sans-Serif" font-size="10.00">Sequence</text>
</a>
</g>
</g>
<!-- Node2&#45;&gt;Node4 -->
<g id="edge3" class="edge"><title>Node2&#45;&gt;Node4</title>
<path fill="none" stroke="midnightblue" d="M358.834,-147.268C375.927,-151.135 393.925,-155.207 410.577,-158.974"/>
<polygon fill="midnightblue" stroke="midnightblue" points="359.418,-143.812 348.892,-145.019 357.873,-150.64 359.418,-143.812"/>
</g>
<!-- Node7 -->
<g id="node7" class="node"><title>Node7</title>
<g id="a_node7"><a xlink:href="classMainWindow.html#af5ecc7c65080215b49b9d931c56c65c9" target="_top" xlink:title="MainWindow::editTextFrame">
<polygon fill="white" stroke="black" points="407,-120.5 407,-139.5 549,-139.5 549,-120.5 407,-120.5"/>
<text text-anchor="middle" x="478" y="-127.5" font-family="Helvetica,sans-Serif" font-size="10.00">MainWindow::editTextFrame</text>
</a>
</g>
</g>
<!-- Node2&#45;&gt;Node7 -->
<g id="edge8" class="edge"><title>Node2&#45;&gt;Node7</title>
<path fill="none" stroke="midnightblue" d="M364.767,-130C378.79,-130 393.238,-130 406.909,-130"/>
<polygon fill="midnightblue" stroke="midnightblue" points="364.648,-126.5 354.648,-130 364.648,-133.5 364.648,-126.5"/>
</g>
<!-- Node9 -->
<g id="node9" class="node"><title>Node9</title>
<g id="a_node9"><a xlink:href="classMainWindow.html#a156c29c6d7ab278e4246c88a0fcbe2f2" target="_top" xlink:title="MainWindow::updateSettings">
<polygon fill="white" stroke="black" points="610,-76.5 610,-95.5 754,-95.5 754,-76.5 610,-76.5"/>
<text text-anchor="middle" x="682" y="-83.5" font-family="Helvetica,sans-Serif" font-size="10.00">MainWindow::updateSettings</text>
</a>
</g>
</g>
<!-- Node2&#45;&gt;Node9 -->
<g id="edge12" class="edge"><title>Node2&#45;&gt;Node9</title>
<path fill="none" stroke="midnightblue" d="M364.858,-116.035C376.96,-114.204 389.289,-112.46 401,-111 471.828,-102.171 553.114,-95.2703 609.792,-90.9765"/>
<polygon fill="midnightblue" stroke="midnightblue" points="364.116,-112.608 354.765,-117.589 365.182,-119.526 364.116,-112.608"/>
</g>
<!-- Node5 -->
<g id="node5" class="node"><title>Node5</title>
<g id="a_node5"><a xlink:href="classMainWindow.html#a9df7443ce5f907903438bb6a9abe9a33" target="_top" xlink:title="MainWindow::createMenusAnd\lActions">
<polygon fill="white" stroke="black" points="606,-203 606,-233 758,-233 758,-203 606,-203"/>
<text text-anchor="start" x="614" y="-221" font-family="Helvetica,sans-Serif" font-size="10.00">MainWindow::createMenusAnd</text>
<text text-anchor="middle" x="682" y="-210" font-family="Helvetica,sans-Serif" font-size="10.00">Actions</text>
</a>
</g>
</g>
<!-- Node4&#45;&gt;Node5 -->
<g id="edge4" class="edge"><title>Node4&#45;&gt;Node5</title>
<path fill="none" stroke="midnightblue" d="M557.78,-191.16C575.68,-195.059 594.56,-199.171 612.016,-202.974"/>
<polygon fill="midnightblue" stroke="midnightblue" points="558.468,-187.728 547.952,-189.019 556.978,-194.567 558.468,-187.728"/>
</g>
<!-- Node6 -->
<g id="node6" class="node"><title>Node6</title>
<g id="a_node6"><a xlink:href="classMainWindow.html#aaba5c236313378986c42c4a634c4cfb9" target="_top" xlink:title="MainWindow::onCustomContextMenu">
<polygon fill="white" stroke="black" points="591,-164.5 591,-183.5 773,-183.5 773,-164.5 591,-164.5"/>
<text text-anchor="middle" x="682" y="-171.5" font-family="Helvetica,sans-Serif" font-size="10.00">MainWindow::onCustomContextMenu</text>
</a>
</g>
</g>
<!-- Node4&#45;&gt;Node6 -->
<g id="edge6" class="edge"><title>Node4&#45;&gt;Node6</title>
<path fill="none" stroke="midnightblue" d="M558.328,-174C568.982,-174 579.972,-174 590.796,-174"/>
<polygon fill="midnightblue" stroke="midnightblue" points="558.234,-170.5 548.234,-174 558.234,-177.5 558.234,-170.5"/>
</g>
<!-- Node5&#45;&gt;Node3 -->
<g id="edge5" class="edge"><title>Node5&#45;&gt;Node3</title>
<path fill="none" stroke="midnightblue" d="M750.521,-200.111C758.14,-197.836 765.762,-195.445 773,-193 801.327,-183.432 833.192,-170.3 853.765,-161.501"/>
<polygon fill="midnightblue" stroke="midnightblue" points="749.515,-196.759 740.9,-202.926 751.481,-203.477 749.515,-196.759"/>
</g>
<!-- Node6&#45;&gt;Node3 -->
<g id="edge7" class="edge"><title>Node6&#45;&gt;Node3</title>
<path fill="none" stroke="midnightblue" d="M776.363,-163.33C787.339,-162.076 798.365,-160.815 808.869,-159.615"/>
<polygon fill="midnightblue" stroke="midnightblue" points="775.852,-159.866 766.314,-164.478 776.646,-166.82 775.852,-159.866"/>
</g>
<!-- Node7&#45;&gt;Node6 -->
<g id="edge9" class="edge"><title>Node7&#45;&gt;Node6</title>
<path fill="none" stroke="midnightblue" d="M532.677,-141.692C565.353,-148.81 606.568,-157.787 637.255,-164.471"/>
<polygon fill="midnightblue" stroke="midnightblue" points="533.347,-138.256 522.831,-139.547 531.857,-145.096 533.347,-138.256"/>
</g>
<!-- Node8 -->
<g id="node8" class="node"><title>Node8</title>
<g id="a_node8"><a xlink:href="classMainWindow.html#ab18c663524e2c130759c0ca960129ea4" target="_top" xlink:title="MainWindow::onItemDouble\lClicked">
<polygon fill="white" stroke="black" points="612,-115 612,-145 752,-145 752,-115 612,-115"/>
<text text-anchor="start" x="620" y="-133" font-family="Helvetica,sans-Serif" font-size="10.00">MainWindow::onItemDouble</text>
<text text-anchor="middle" x="682" y="-122" font-family="Helvetica,sans-Serif" font-size="10.00">Clicked</text>
</a>
</g>
</g>
<!-- Node7&#45;&gt;Node8 -->
<g id="edge10" class="edge"><title>Node7&#45;&gt;Node8</title>
<path fill="none" stroke="midnightblue" d="M559.198,-130C576.575,-130 594.81,-130 611.724,-130"/>
<polygon fill="midnightblue" stroke="midnightblue" points="559.083,-126.5 549.083,-130 559.083,-133.5 559.083,-126.5"/>
</g>
<!-- Node8&#45;&gt;Node3 -->
<g id="edge11" class="edge"><title>Node8&#45;&gt;Node3</title>
<path fill="none" stroke="midnightblue" d="M762.283,-139.061C777.747,-140.828 793.815,-142.665 808.82,-144.379"/>
<polygon fill="midnightblue" stroke="midnightblue" points="762.558,-135.57 752.225,-137.911 761.763,-142.524 762.558,-135.57"/>
</g>
<!-- Node9&#45;&gt;Node3 -->
<g id="edge13" class="edge"><title>Node9&#45;&gt;Node3</title>
<path fill="none" stroke="midnightblue" d="M747.773,-97.8648C756.336,-99.9593 764.935,-102.336 773,-105 803.858,-115.192 837.795,-131.928 857.844,-142.436"/>
<polygon fill="midnightblue" stroke="midnightblue" points="748.306,-94.3952 737.773,-95.5356 746.718,-101.213 748.306,-94.3952"/>
</g>
<!-- Node10&#45;&gt;Node3 -->
<g id="edge15" class="edge"><title>Node10&#45;&gt;Node3</title>
<path fill="none" stroke="midnightblue" d="M375.135,-44.57C496.7,-41.2696 702.844,-40.1495 773,-67 814.886,-83.0307 852.152,-123.579 867.746,-142.279"/>
<polygon fill="midnightblue" stroke="midnightblue" points="374.986,-41.0727 365.088,-44.8529 375.183,-48.0699 374.986,-41.0727"/>
</g>
<!-- Node11 -->
<g id="node11" class="node"><title>Node11</title>
<g id="a_node11"><a xlink:href="classMainWindow.html#a47efae19bde69ff0bd199daeb46fb2dd" target="_top" xlink:title="Select a Stats Type and update GUI. ">
<polygon fill="white" stroke="black" points="401,-0.5 401,-19.5 555,-19.5 555,-0.5 401,-0.5"/>
<text text-anchor="middle" x="478" y="-7.5" font-family="Helvetica,sans-Serif" font-size="10.00">MainWindow::setSelectedStats</text>
</a>
</g>
</g>
<!-- Node10&#45;&gt;Node11 -->
<g id="edge16" class="edge"><title>Node10&#45;&gt;Node11</title>
<path fill="none" stroke="midnightblue" d="M341.308,-36.5106C369.059,-31.0886 401.789,-24.6942 428.15,-19.5439"/>
<polygon fill="midnightblue" stroke="midnightblue" points="340.473,-33.1074 331.33,-38.46 341.815,-39.9775 340.473,-33.1074"/>
</g>
</g>
</svg>
