<?xml version="1.0" encoding="UTF-8" standalone="no"?>
<!DOCTYPE svg PUBLIC "-//W3C//DTD SVG 1.1//EN"
 "http://www.w3.org/Graphics/SVG/1.1/DTD/svg11.dtd">
<!-- Generated by graphviz version 2.38.0 (20140413.2041)
 -->
<!-- Title: StatisticsObject Pages: 1 -->
<!--zoomable 470 -->
<svg id="main" version="1.1" xmlns="http://www.w3.org/2000/svg" xmlns:xlink="http://www.w3.org/1999/xlink" xml:space="preserve" onload="init(evt)">
<style type="text/css"><![CDATA[
.edge:hover path { stroke: red; }
.edge:hover polygon { stroke: red; fill: red; }
]]></style>
<script type="text/javascript"><![CDATA[
var edges = document.getElementsByTagName('g');
if (edges && edges.length) {
  for (var i=0;i<edges.length;i++) {
    if (edges[i].id.substr(0,4)=='edge') {
      edges[i].setAttribute('class','edge');
    }
  }
}
]]></script>
        <defs>
                <circle id="rim" cx="0" cy="0" r="7"/>
                <circle id="rim2" cx="0" cy="0" r="3.5"/>
                <g id="zoomPlus">
                        <use xlink:href="#rim" fill="#404040">
                                <set attributeName="fill" to="#808080" begin="zoomplus.mouseover" end="zoomplus.mouseout"/>
                        </use>
                        <path d="M-4,0h8M0,-4v8" fill="none" stroke="white" stroke-width="1.5" pointer-events="none"/>
                </g>
                <g id="zoomMin">
                        <use xlink:href="#rim" fill="#404040">
                                <set attributeName="fill" to="#808080" begin="zoomminus.mouseover" end="zoomminus.mouseout"/>
                        </use>
                        <path d="M-4,0h8" fill="none" stroke="white" stroke-width="1.5" pointer-events="none"/>
                </g>
                <g id="dirArrow">
                        <path fill="none" stroke="white" stroke-width="1.5" d="M0,-3.0v7 M-2.5,-0.5L0,-3.0L2.5,-0.5"/>
                </g>
               <g id="resetDef">
                       <use xlink:href="#rim2" fill="#404040">
                               <set attributeName="fill" to="#808080" begin="reset.mouseover" end="reset.mouseout"/>
                       </use>
               </g>
        </defs>

<script type="text/javascript">
var viewWidth = 588;
var viewHeight = 470;
var sectionId = 'dynsection-1';
</script>
<script xlink:href="svgpan.js"/>
<svg id="graph" class="graph">
<g id="viewport">
<title>StatisticsObject</title>
<polygon fill="white" stroke="none" points="-4,4 -4,-466 584,-466 584,4 -4,4"/>
<!-- Node1 -->
<g id="node1" class="node"><title>Node1</title>
<polygon fill="#bfbfbf" stroke="black" points="494,-86.5 494,-105.5 580,-105.5 580,-86.5 494,-86.5"/>
<text text-anchor="middle" x="537" y="-93.5" font-family="Helvetica,sans-Serif" font-size="10.00">StatisticsObject</text>
</g>
<!-- Node2 -->
<g id="node2" class="node"><title>Node2</title>
<g id="a_node2"><a xlink:href="classDisplayObject.html" target="_top" xlink:title="DisplayObject">
<polygon fill="white" stroke="black" points="270,-307.5 270,-326.5 348,-326.5 348,-307.5 270,-307.5"/>
<text text-anchor="middle" x="309" y="-314.5" font-family="Helvetica,sans-Serif" font-size="10.00">DisplayObject</text>
</a>
</g>
</g>
<!-- Node2&#45;&gt;Node1 -->
<g id="edge1" class="edge"><title>Node2&#45;&gt;Node1</title>
<path fill="none" stroke="midnightblue" d="M327.231,-300.15C372.01,-256.362 490.999,-140.005 526.113,-105.668"/>
<polygon fill="midnightblue" stroke="midnightblue" points="324.705,-297.725 320.003,-307.219 329.599,-302.73 324.705,-297.725"/>
</g>
<!-- Node3 -->
<g id="node3" class="node"><title>Node3</title>
<g id="a_node3"><a xlink:href="classQObject.html" target="_top" xlink:title="QObject">
<polygon fill="white" stroke="black" points="40.5,-100.5 40.5,-119.5 93.5,-119.5 93.5,-100.5 40.5,-100.5"/>
<text text-anchor="middle" x="67" y="-107.5" font-family="Helvetica,sans-Serif" font-size="10.00">QObject</text>
</a>
</g>
</g>
<!-- Node3&#45;&gt;Node2 -->
<g id="edge2" class="edge"><title>Node3&#45;&gt;Node2</title>
<path fill="none" stroke="midnightblue" d="M103.558,-121.195C118.496,-125.848 136.07,-131.259 152,-136 195.417,-148.92 216.652,-133.343 250,-164 293.708,-204.181 304.707,-280.731 307.273,-307.485"/>
<polygon fill="midnightblue" stroke="midnightblue" points="104.279,-117.753 93.6903,-118.111 102.191,-124.435 104.279,-117.753"/>
</g>
<!-- Node9 -->
<g id="node9" class="node"><title>Node9</title>
<g id="a_node9"><a xlink:href="classstatisticSource.html" target="_top" xlink:title="statisticSource">
<polygon fill="white" stroke="black" points="268,-86.5 268,-105.5 350,-105.5 350,-86.5 268,-86.5"/>
<text text-anchor="middle" x="309" y="-93.5" font-family="Helvetica,sans-Serif" font-size="10.00">statisticSource</text>
</a>
</g>
</g>
<!-- Node3&#45;&gt;Node9 -->
<g id="edge9" class="edge"><title>Node3&#45;&gt;Node9</title>
<path fill="none" stroke="midnightblue" d="M103.398,-101.725C118.311,-98.6398 135.908,-95.5189 152,-94 195.363,-89.907 206.451,-93.2494 250,-94 255.742,-94.099 261.803,-94.253 267.755,-94.4327"/>
<polygon fill="midnightblue" stroke="midnightblue" points="102.599,-98.3171 93.5552,-103.836 104.067,-105.162 102.599,-98.3171"/>
</g>
<!-- Node4 -->
<g id="node4" class="node"><title>Node4</title>
<polygon fill="white" stroke="#bfbfbf" points="21.5,-399.5 21.5,-418.5 112.5,-418.5 112.5,-399.5 21.5,-399.5"/>
<text text-anchor="middle" x="67" y="-406.5" font-family="Helvetica,sans-Serif" font-size="10.00">QList&lt; QString &gt;</text>
</g>
<!-- Node4&#45;&gt;Node2 -->
<g id="edge3" class="edge"><title>Node4&#45;&gt;Node2</title>
<path fill="none" stroke="#9a32cd" stroke-dasharray="5,2" d="M122.863,-410.445C160.671,-409.225 210.941,-403.073 250,-382 274.225,-368.93 293.32,-341.591 302.335,-326.877"/>
<polygon fill="#9a32cd" stroke="#9a32cd" points="122.472,-406.953 112.549,-410.667 122.622,-413.951 122.472,-406.953"/>
<text text-anchor="middle" x="201" y="-411" font-family="Helvetica,sans-Serif" font-size="10.00"> p_info_permanent</text>
</g>
<!-- Node5 -->
<g id="node5" class="node"><title>Node5</title>
<polygon fill="white" stroke="#bfbfbf" points="44.5,-361.5 44.5,-380.5 89.5,-380.5 89.5,-361.5 44.5,-361.5"/>
<text text-anchor="middle" x="67" y="-368.5" font-family="Helvetica,sans-Serif" font-size="10.00">double</text>
</g>
<!-- Node5&#45;&gt;Node2 -->
<g id="edge4" class="edge"><title>Node5&#45;&gt;Node2</title>
<path fill="none" stroke="#9a32cd" stroke-dasharray="5,2" d="M99.7094,-370.468C136.625,-369.062 199.04,-364.227 250,-348 265.666,-343.011 282.059,-333.826 293.405,-326.744"/>
<polygon fill="#9a32cd" stroke="#9a32cd" points="99.4416,-366.975 89.5583,-370.792 99.6649,-373.971 99.4416,-366.975"/>
<text text-anchor="middle" x="201" y="-370" font-family="Helvetica,sans-Serif" font-size="10.00"> p_frameRate</text>
</g>
<!-- Node6 -->
<g id="node6" class="node"><title>Node6</title>
<polygon fill="white" stroke="#bfbfbf" points="42,-284.5 42,-303.5 92,-303.5 92,-284.5 42,-284.5"/>
<text text-anchor="middle" x="67" y="-291.5" font-family="Helvetica,sans-Serif" font-size="10.00">QString</text>
</g>
<!-- Node6&#45;&gt;Node2 -->
<g id="edge5" class="edge"><title>Node6&#45;&gt;Node2</title>
<path fill="none" stroke="#9a32cd" stroke-dasharray="5,2" d="M102.341,-297.291C146.705,-301.543 223.697,-308.921 269.844,-313.343"/>
<polygon fill="#9a32cd" stroke="#9a32cd" points="102.622,-293.802 92.3332,-296.332 101.954,-300.77 102.622,-293.802"/>
<text text-anchor="middle" x="201" y="-336" font-family="Helvetica,sans-Serif" font-size="10.00"> p_status</text>
<text text-anchor="middle" x="201" y="-325" font-family="Helvetica,sans-Serif" font-size="10.00">p_name</text>
<text text-anchor="middle" x="201" y="-314" font-family="Helvetica,sans-Serif" font-size="10.00">p_info</text>
</g>
<!-- Node6&#45;&gt;Node9 -->
<g id="edge11" class="edge"><title>Node6&#45;&gt;Node9</title>
<path fill="none" stroke="#9a32cd" stroke-dasharray="5,2" d="M102.29,-286.576C153.456,-275.375 244.418,-254.935 250,-250 294.736,-210.453 305.085,-132.835 307.377,-105.667"/>
<polygon fill="#9a32cd" stroke="#9a32cd" points="101.347,-283.199 92.323,-288.751 102.839,-290.038 101.347,-283.199"/>
<text text-anchor="middle" x="201" y="-289" font-family="Helvetica,sans-Serif" font-size="10.00"> p_status</text>
<text text-anchor="middle" x="201" y="-278" font-family="Helvetica,sans-Serif" font-size="10.00">p_info</text>
</g>
<!-- Node7 -->
<g id="node7" class="node"><title>Node7</title>
<polygon fill="white" stroke="#bfbfbf" points="38.5,-437.5 38.5,-456.5 95.5,-456.5 95.5,-437.5 38.5,-437.5"/>
<text text-anchor="middle" x="67" y="-444.5" font-family="Helvetica,sans-Serif" font-size="10.00">QPixmap</text>
</g>
<!-- Node7&#45;&gt;Node2 -->
<g id="edge6" class="edge"><title>Node7&#45;&gt;Node2</title>
<path fill="none" stroke="#9a32cd" stroke-dasharray="5,2" d="M105.682,-451.426C145.123,-454.06 207.158,-452.348 250,-423 284.612,-399.289 300.543,-347.929 305.857,-326.594"/>
<polygon fill="#9a32cd" stroke="#9a32cd" points="105.925,-447.934 95.6794,-450.633 105.371,-454.913 105.925,-447.934"/>
<text text-anchor="middle" x="201" y="-454" font-family="Helvetica,sans-Serif" font-size="10.00"> p_displayImage</text>
</g>
<!-- Node8 -->
<g id="node8" class="node"><title>Node8</title>
<polygon fill="white" stroke="#bfbfbf" points="52.5,-150.5 52.5,-169.5 81.5,-169.5 81.5,-150.5 52.5,-150.5"/>
<text text-anchor="middle" x="67" y="-157.5" font-family="Helvetica,sans-Serif" font-size="10.00">int</text>
</g>
<!-- Node8&#45;&gt;Node2 -->
<g id="edge7" class="edge"><title>Node8&#45;&gt;Node2</title>
<path fill="none" stroke="#9a32cd" stroke-dasharray="5,2" d="M91.9882,-160.303C135.588,-161.308 225.582,-165.616 250,-184 291.456,-215.212 303.75,-282.312 306.971,-307.333"/>
<polygon fill="#9a32cd" stroke="#9a32cd" points="91.7954,-156.798 81.7308,-160.108 91.6626,-163.797 91.7954,-156.798"/>
<text text-anchor="middle" x="201" y="-242" font-family="Helvetica,sans-Serif" font-size="10.00"> p_startFrame</text>
<text text-anchor="middle" x="201" y="-231" font-family="Helvetica,sans-Serif" font-size="10.00">p_endFrame</text>
<text text-anchor="middle" x="201" y="-220" font-family="Helvetica,sans-Serif" font-size="10.00">p_width</text>
<text text-anchor="middle" x="201" y="-209" font-family="Helvetica,sans-Serif" font-size="10.00">p_sampling</text>
<text text-anchor="middle" x="201" y="-198" font-family="Helvetica,sans-Serif" font-size="10.00">p_height</text>
<text text-anchor="middle" x="201" y="-187" font-family="Helvetica,sans-Serif" font-size="10.00">p_lastIdx</text>
</g>
<!-- Node8&#45;&gt;Node9 -->
<g id="edge13" class="edge"><title>Node8&#45;&gt;Node9</title>
<path fill="none" stroke="#9a32cd" stroke-dasharray="5,2" d="M91.481,-153.738C133.621,-142.501 222.32,-118.848 272.122,-105.567"/>
<polygon fill="#9a32cd" stroke="#9a32cd" points="90.3516,-150.417 81.5911,-156.376 92.1553,-157.181 90.3516,-150.417"/>
<text text-anchor="middle" x="201" y="-152" font-family="Helvetica,sans-Serif" font-size="10.00"> p_internalScaleFactor</text>
<text text-anchor="middle" x="201" y="-141" font-family="Helvetica,sans-Serif" font-size="10.00">p_lastFrameIdx</text>
</g>
<!-- Node9&#45;&gt;Node1 -->
<g id="edge8" class="edge"><title>Node9&#45;&gt;Node1</title>
<path fill="none" stroke="#9a32cd" stroke-dasharray="5,2" d="M360.26,-96C400.432,-96 456.09,-96 493.931,-96"/>
<polygon fill="#9a32cd" stroke="#9a32cd" points="360.144,-92.5001 350.144,-96 360.144,-99.5001 360.144,-92.5001"/>
<text text-anchor="middle" x="422" y="-99" font-family="Helvetica,sans-Serif" font-size="10.00"> p_statisticSource</text>
</g>
<!-- Node10 -->
<g id="node10" class="node"><title>Node10</title>
<polygon fill="white" stroke="#bfbfbf" points="1.5,-39 1.5,-69 132.5,-69 132.5,-39 1.5,-39"/>
<text text-anchor="start" x="9.5" y="-57" font-family="Helvetica,sans-Serif" font-size="10.00">QHash&lt; int, QHash&lt;</text>
<text text-anchor="middle" x="67" y="-46" font-family="Helvetica,sans-Serif" font-size="10.00"> int, StatisticsItemList &gt; &gt;</text>
</g>
<!-- Node10&#45;&gt;Node9 -->
<g id="edge10" class="edge"><title>Node10&#45;&gt;Node9</title>
<path fill="none" stroke="#9a32cd" stroke-dasharray="5,2" d="M142.948,-60.9839C175.995,-64.8067 215.159,-70.3544 250,-78 260.092,-80.2146 270.957,-83.3715 280.524,-86.4247"/>
<polygon fill="#9a32cd" stroke="#9a32cd" points="143.228,-57.4935 132.9,-59.8525 142.445,-64.4495 143.228,-57.4935"/>
<text text-anchor="middle" x="201" y="-81" font-family="Helvetica,sans-Serif" font-size="10.00"> p_statsCache</text>
</g>
<!-- Node11 -->
<g id="node11" class="node"><title>Node11</title>
<polygon fill="white" stroke="#bfbfbf" points="0,-0.5 0,-19.5 134,-19.5 134,-0.5 0,-0.5"/>
<text text-anchor="middle" x="67" y="-7.5" font-family="Helvetica,sans-Serif" font-size="10.00">QVector&lt; StatisticsType &gt;</text>
</g>
<!-- Node11&#45;&gt;Node9 -->
<g id="edge12" class="edge"><title>Node11&#45;&gt;Node9</title>
<path fill="none" stroke="#9a32cd" stroke-dasharray="5,2" d="M144.194,-12.3981C179.046,-16.7102 219.31,-26.5243 250,-48 262.429,-56.6974 256.69,-66.8908 268,-77 272.127,-80.6888 277.097,-83.8056 282.109,-86.3803"/>
<polygon fill="#9a32cd" stroke="#9a32cd" points="144.37,-8.8963 134.046,-11.2761 143.6,-15.8539 144.37,-8.8963"/>
<text text-anchor="middle" x="201" y="-51" font-family="Helvetica,sans-Serif" font-size="10.00"> p_statsTypeList</text>
</g>
<!-- Node12 -->
<g id="node12" class="node"><title>Node12</title>
<polygon fill="white" stroke="#bfbfbf" points="291.5,-48.5 291.5,-67.5 326.5,-67.5 326.5,-48.5 291.5,-48.5"/>
<text text-anchor="middle" x="309" y="-55.5" font-family="Helvetica,sans-Serif" font-size="10.00">bool</text>
</g>
<!-- Node12&#45;&gt;Node1 -->
<g id="edge14" class="edge"><title>Node12&#45;&gt;Node1</title>
<path fill="none" stroke="#9a32cd" stroke-dasharray="5,2" d="M336.766,-60.8131C369.698,-64.4797 427.241,-71.5554 476,-81 484.011,-82.5518 492.554,-84.5042 500.607,-86.4827"/>
<polygon fill="#9a32cd" stroke="#9a32cd" points="336.911,-57.3081 326.59,-59.7018 336.151,-64.2668 336.911,-57.3081"/>
<text text-anchor="middle" x="422" y="-84" font-family="Helvetica,sans-Serif" font-size="10.00"> p_statisticSourceOwner</text>
</g>
</g>
</svg>
        <g id="navigator" transform="translate(0 0)" fill="#404254">
                <rect fill="#f2f5e9" fill-opacity="0.5" stroke="#606060" stroke-width=".5" x="0" y="0" width="60" height="60"/>
                <use id="zoomplus" xlink:href="#zoomPlus" x="17" y="9" onmousedown="handleZoom(evt,'in')"/>
                <use id="zoomminus" xlink:href="#zoomMin" x="42" y="9" onmousedown="handleZoom(evt,'out')"/>
                <use id="reset" xlink:href="#resetDef" x="30" y="36" onmousedown="handleReset()"/>
                <g id="arrowUp" xlink:href="#dirArrow" transform="translate(30 24)" onmousedown="handlePan(0,-1)">
                  <use xlink:href="#rim" fill="#404040">
                        <set attributeName="fill" to="#808080" begin="arrowUp.mouseover" end="arrowUp.mouseout"/>
                  </use>
                  <path fill="none" stroke="white" stroke-width="1.5" d="M0,-3.0v7 M-2.5,-0.5L0,-3.0L2.5,-0.5"/>
                </g>
                <g id="arrowRight" xlink:href="#dirArrow" transform="rotate(90) translate(36 -43)" onmousedown="handlePan(1,0)">
                  <use xlink:href="#rim" fill="#404040">
                        <set attributeName="fill" to="#808080" begin="arrowRight.mouseover" end="arrowRight.mouseout"/>
                  </use>
                  <path fill="none" stroke="white" stroke-width="1.5" d="M0,-3.0v7 M-2.5,-0.5L0,-3.0L2.5,-0.5"/>
                </g>
                <g id="arrowDown" xlink:href="#dirArrow" transform="rotate(180) translate(-30 -48)" onmousedown="handlePan(0,1)">
                  <use xlink:href="#rim" fill="#404040">
                        <set attributeName="fill" to="#808080" begin="arrowDown.mouseover" end="arrowDown.mouseout"/>
                  </use>
                  <path fill="none" stroke="white" stroke-width="1.5" d="M0,-3.0v7 M-2.5,-0.5L0,-3.0L2.5,-0.5"/>
                </g>
                <g id="arrowLeft" xlink:href="#dirArrow" transform="rotate(270) translate(-36 17)" onmousedown="handlePan(-1,0)">
                  <use xlink:href="#rim" fill="#404040">
                        <set attributeName="fill" to="#808080" begin="arrowLeft.mouseover" end="arrowLeft.mouseout"/>
                  </use>
                  <path fill="none" stroke="white" stroke-width="1.5" d="M0,-3.0v7 M-2.5,-0.5L0,-3.0L2.5,-0.5"/>
                </g>
        </g>
        <svg viewBox="0 0 15 15" width="100%" height="30px" preserveAspectRatio="xMaxYMin meet">
         <g id="arrow_out" transform="scale(0.3 0.3)">
          <a xlink:href="classStatisticsObject__coll__graph_org.svg" target="_base">
           <rect id="button" ry="5" rx="5" y="6" x="6" height="38" width="38"
                fill="#f2f5e9" fill-opacity="0.5" stroke="#606060" stroke-width="1.0"/>
           <path id="arrow"
             d="M 11.500037,31.436501 C 11.940474,20.09759 22.043105,11.32322 32.158766,21.979434 L 37.068811,17.246167 C 37.068811,17.246167 37.088388,32 37.088388,32 L 22.160133,31.978069 C 22.160133,31.978069 26.997745,27.140456 26.997745,27.140456 C 18.528582,18.264221 13.291696,25.230495 11.500037,31.436501 z"
             style="fill:#404040;"/>
          </a>
         </g>
        </svg>
</svg>
