<?xml version="1.0" encoding="UTF-8" standalone="no"?>
<!DOCTYPE svg PUBLIC "-//W3C//DTD SVG 1.1//EN"
 "http://www.w3.org/Graphics/SVG/1.1/DTD/svg11.dtd">
<!-- Generated by graphviz version 2.38.0 (20140413.2041)
 -->
<!-- Title: DifferenceObject::subtractYUV444 Pages: 1 -->
<svg width="478pt" height="39pt"
 viewBox="0.00 0.00 478.00 39.00" xmlns="http://www.w3.org/2000/svg" xmlns:xlink="http://www.w3.org/1999/xlink">
<g id="graph0" class="graph" transform="scale(1 1) rotate(0) translate(4 35)">
<title>DifferenceObject::subtractYUV444</title>
<polygon fill="white" stroke="none" points="-4,4 -4,-35 474,-35 474,4 -4,4"/>
<!-- Node1 -->
<g id="node1" class="node"><title>Node1</title>
<polygon fill="#bfbfbf" stroke="black" points="0,-0.5 0,-30.5 131,-30.5 131,-0.5 0,-0.5"/>
<text text-anchor="start" x="8" y="-18.5" font-family="Helvetica,sans-Serif" font-size="10.00">DifferenceObject::subtract</text>
<text text-anchor="middle" x="65.5" y="-7.5" font-family="Helvetica,sans-Serif" font-size="10.00">YUV444</text>
</g>
<!-- Node2 -->
<g id="node2" class="node"><title>Node2</title>
<g id="a_node2"><a xlink:href="classDifferenceObject.html#acb2a437aedc3f3a4400c394d0330afc0" target="_top" xlink:title="DifferenceObject::loadImage">
<polygon fill="white" stroke="black" points="167,-6 167,-25 308,-25 308,-6 167,-6"/>
<text text-anchor="middle" x="237.5" y="-13" font-family="Helvetica,sans-Serif" font-size="10.00">DifferenceObject::loadImage</text>
</a>
</g>
</g>
<!-- Node1&#45;&gt;Node2 -->
<g id="edge1" class="edge"><title>Node1&#45;&gt;Node2</title>
<path fill="none" stroke="midnightblue" d="M141.456,-15.5C149.893,-15.5 158.464,-15.5 166.829,-15.5"/>
<polygon fill="midnightblue" stroke="midnightblue" points="141.255,-12.0001 131.255,-15.5 141.255,-19.0001 141.255,-12.0001"/>
</g>
<!-- Node3 -->
<g id="node3" class="node"><title>Node3</title>
<g id="a_node3"><a xlink:href="classDifferenceObject.html#a72a52d53c72aae7579f252a61a914002" target="_top" xlink:title="DifferenceObject::refresh\lDisplayImage">
<polygon fill="white" stroke="black" points="344,-0.5 344,-30.5 470,-30.5 470,-0.5 344,-0.5"/>
<text text-anchor="start" x="352" y="-18.5" font-family="Helvetica,sans-Serif" font-size="10.00">DifferenceObject::refresh</text>
<text text-anchor="middle" x="407" y="-7.5" font-family="Helvetica,sans-Serif" font-size="10.00">DisplayImage</text>
</a>
</g>
</g>
<!-- Node2&#45;&gt;Node3 -->
<g id="edge2" class="edge"><title>Node2&#45;&gt;Node3</title>
<path fill="none" stroke="midnightblue" d="M318.161,-15.5C326.791,-15.5 335.478,-15.5 343.856,-15.5"/>
<polygon fill="midnightblue" stroke="midnightblue" points="318.08,-12.0001 308.08,-15.5 318.08,-19.0001 318.08,-12.0001"/>
</g>
</g>
</svg>
