<?xml version="1.0" encoding="UTF-8" standalone="no"?>
<!DOCTYPE svg PUBLIC "-//W3C//DTD SVG 1.1//EN"
 "http://www.w3.org/Graphics/SVG/1.1/DTD/svg11.dtd">
<!-- Generated by graphviz version 2.38.0 (20140413.2041)
 -->
<!-- Title: MainWindow::setControlsEnabled Pages: 1 -->
<svg width="923pt" height="186pt"
 viewBox="0.00 0.00 923.00 186.05" xmlns="http://www.w3.org/2000/svg" xmlns:xlink="http://www.w3.org/1999/xlink">
<g id="graph0" class="graph" transform="scale(1 1) rotate(0) translate(4 182.052)">
<title>MainWindow::setControlsEnabled</title>
<polygon fill="white" stroke="none" points="-4,4 -4,-182.052 919,-182.052 919,4 -4,4"/>
<!-- Node1 -->
<g id="node1" class="node"><title>Node1</title>
<polygon fill="#bfbfbf" stroke="black" points="0,-74.9435 0,-93.9435 164,-93.9435 164,-74.9435 0,-74.9435"/>
<text text-anchor="middle" x="82" y="-81.9435" font-family="Helvetica,sans-Serif" font-size="10.00">MainWindow::setControlsEnabled</text>
</g>
<!-- Node2 -->
<g id="node2" class="node"><title>Node2</title>
<g id="a_node2"><a xlink:href="classMainWindow.html#a6f33e93f427ff2df80edffcb3ad944da" target="_top" xlink:title="MainWindow::updateSelected\lItems">
<polygon fill="white" stroke="black" points="200,-69.4435 200,-99.4435 346,-99.4435 346,-69.4435 200,-69.4435"/>
<text text-anchor="start" x="208" y="-87.4435" font-family="Helvetica,sans-Serif" font-size="10.00">MainWindow::updateSelected</text>
<text text-anchor="middle" x="273" y="-76.4435" font-family="Helvetica,sans-Serif" font-size="10.00">Items</text>
</a>
</g>
</g>
<!-- Node1&#45;&gt;Node2 -->
<g id="edge1" class="edge"><title>Node1&#45;&gt;Node2</title>
<path fill="none" stroke="midnightblue" d="M174.261,-84.4435C182.817,-84.4435 191.409,-84.4435 199.755,-84.4435"/>
<polygon fill="midnightblue" stroke="midnightblue" points="174.25,-80.9436 164.25,-84.4435 174.25,-87.9436 174.25,-80.9436"/>
</g>
<!-- Node3 -->
<g id="node3" class="node"><title>Node3</title>
<g id="a_node3"><a xlink:href="classMainWindow.html#a8b244be8b7b7db1b08de2a2acb9409db" target="_top" xlink:title="MainWindow::MainWindow">
<polygon fill="white" stroke="black" points="780,-74.9435 780,-93.9435 915,-93.9435 915,-74.9435 780,-74.9435"/>
<text text-anchor="middle" x="847.5" y="-81.9435" font-family="Helvetica,sans-Serif" font-size="10.00">MainWindow::MainWindow</text>
</a>
</g>
</g>
<!-- Node2&#45;&gt;Node3 -->
<g id="edge2" class="edge"><title>Node2&#45;&gt;Node3</title>
<path fill="none" stroke="midnightblue" d="M312.64,-103.975C332.83,-113.383 358.228,-123.995 382,-130.443 537.591,-172.647 589.809,-200.507 744,-153.443 782.572,-141.67 819.77,-109.977 836.81,-93.9703"/>
<polygon fill="midnightblue" stroke="midnightblue" points="314.001,-100.747 303.467,-99.6178 310.998,-107.07 314.001,-100.747"/>
</g>
<!-- Node4 -->
<g id="node4" class="node"><title>Node4</title>
<g id="a_node4"><a xlink:href="classMainWindow.html#a6be7246a1a0ecf5d1442bb1775c3d9b3" target="_top" xlink:title="MainWindow::addDifference\lSequence">
<polygon fill="white" stroke="black" points="384,-91.4435 384,-121.443 524,-121.443 524,-91.4435 384,-91.4435"/>
<text text-anchor="start" x="392" y="-109.443" font-family="Helvetica,sans-Serif" font-size="10.00">MainWindow::addDifference</text>
<text text-anchor="middle" x="454" y="-98.4435" font-family="Helvetica,sans-Serif" font-size="10.00">Sequence</text>
</a>
</g>
</g>
<!-- Node2&#45;&gt;Node4 -->
<g id="edge3" class="edge"><title>Node2&#45;&gt;Node4</title>
<path fill="none" stroke="midnightblue" d="M356.022,-94.5243C365.284,-95.6627 374.653,-96.8143 383.73,-97.9298"/>
<polygon fill="midnightblue" stroke="midnightblue" points="356.385,-91.0427 346.032,-93.2966 355.531,-97.9904 356.385,-91.0427"/>
</g>
<!-- Node7 -->
<g id="node7" class="node"><title>Node7</title>
<g id="a_node7"><a xlink:href="classMainWindow.html#af5ecc7c65080215b49b9d931c56c65c9" target="_top" xlink:title="MainWindow::editTextFrame">
<polygon fill="white" stroke="black" points="383,-52.9435 383,-71.9435 525,-71.9435 525,-52.9435 383,-52.9435"/>
<text text-anchor="middle" x="454" y="-59.9435" font-family="Helvetica,sans-Serif" font-size="10.00">MainWindow::editTextFrame</text>
</a>
</g>
</g>
<!-- Node2&#45;&gt;Node7 -->
<g id="edge8" class="edge"><title>Node2&#45;&gt;Node7</title>
<path fill="none" stroke="midnightblue" d="M356.075,-74.3561C365.024,-73.2562 374.073,-72.1441 382.86,-71.064"/>
<polygon fill="midnightblue" stroke="midnightblue" points="355.531,-70.8965 346.032,-75.5903 356.385,-77.8442 355.531,-70.8965"/>
</g>
<!-- Node9 -->
<g id="node9" class="node"><title>Node9</title>
<g id="a_node9"><a xlink:href="classMainWindow.html#a156c29c6d7ab278e4246c88a0fcbe2f2" target="_top" xlink:title="MainWindow::updateSettings">
<polygon fill="white" stroke="black" points="382,-11.9435 382,-30.9435 526,-30.9435 526,-11.9435 382,-11.9435"/>
<text text-anchor="middle" x="454" y="-18.9435" font-family="Helvetica,sans-Serif" font-size="10.00">MainWindow::updateSettings</text>
</a>
</g>
</g>
<!-- Node2&#45;&gt;Node9 -->
<g id="edge12" class="edge"><title>Node2&#45;&gt;Node9</title>
<path fill="none" stroke="midnightblue" d="M321.299,-65.7564C340.097,-58.5216 361.977,-50.339 382,-43.4435 394.567,-39.1157 408.515,-34.709 420.699,-30.9875"/>
<polygon fill="midnightblue" stroke="midnightblue" points="319.839,-62.5684 311.776,-69.4414 322.365,-69.0967 319.839,-62.5684"/>
</g>
<!-- Node5 -->
<g id="node5" class="node"><title>Node5</title>
<g id="a_node5"><a xlink:href="classMainWindow.html#a9df7443ce5f907903438bb6a9abe9a33" target="_top" xlink:title="MainWindow::createMenusAnd\lActions">
<polygon fill="white" stroke="black" points="577,-113.443 577,-143.443 729,-143.443 729,-113.443 577,-113.443"/>
<text text-anchor="start" x="585" y="-131.443" font-family="Helvetica,sans-Serif" font-size="10.00">MainWindow::createMenusAnd</text>
<text text-anchor="middle" x="653" y="-120.443" font-family="Helvetica,sans-Serif" font-size="10.00">Actions</text>
</a>
</g>
</g>
<!-- Node4&#45;&gt;Node5 -->
<g id="edge4" class="edge"><title>Node4&#45;&gt;Node5</title>
<path fill="none" stroke="midnightblue" d="M534.312,-115.301C548.386,-116.872 563.004,-118.505 576.955,-120.063"/>
<polygon fill="midnightblue" stroke="midnightblue" points="534.505,-111.8 524.178,-114.169 533.728,-118.757 534.505,-111.8"/>
</g>
<!-- Node6 -->
<g id="node6" class="node"><title>Node6</title>
<g id="a_node6"><a xlink:href="classMainWindow.html#aaba5c236313378986c42c4a634c4cfb9" target="_top" xlink:title="MainWindow::onCustomContextMenu">
<polygon fill="white" stroke="black" points="562,-74.9435 562,-93.9435 744,-93.9435 744,-74.9435 562,-74.9435"/>
<text text-anchor="middle" x="653" y="-81.9435" font-family="Helvetica,sans-Serif" font-size="10.00">MainWindow::onCustomContextMenu</text>
</a>
</g>
</g>
<!-- Node4&#45;&gt;Node6 -->
<g id="edge6" class="edge"><title>Node4&#45;&gt;Node6</title>
<path fill="none" stroke="midnightblue" d="M534.297,-97.588C544.968,-96.3963 555.953,-95.1695 566.723,-93.9668"/>
<polygon fill="midnightblue" stroke="midnightblue" points="533.728,-94.1297 524.178,-98.718 534.505,-101.086 533.728,-94.1297"/>
</g>
<!-- Node5&#45;&gt;Node3 -->
<g id="edge5" class="edge"><title>Node5&#45;&gt;Node3</title>
<path fill="none" stroke="midnightblue" d="M729.77,-111.125C755.346,-105.279 782.945,-98.9703 804.883,-93.9559"/>
<polygon fill="midnightblue" stroke="midnightblue" points="728.678,-107.784 719.709,-113.424 730.238,-114.608 728.678,-107.784"/>
</g>
<!-- Node6&#45;&gt;Node3 -->
<g id="edge7" class="edge"><title>Node6&#45;&gt;Node3</title>
<path fill="none" stroke="midnightblue" d="M754.219,-84.4435C762.88,-84.4435 771.497,-84.4435 779.79,-84.4435"/>
<polygon fill="midnightblue" stroke="midnightblue" points="754.05,-80.9436 744.05,-84.4435 754.05,-87.9436 754.05,-80.9436"/>
</g>
<!-- Node7&#45;&gt;Node6 -->
<g id="edge9" class="edge"><title>Node7&#45;&gt;Node6</title>
<path fill="none" stroke="midnightblue" d="M535.257,-71.4062C545.616,-72.563 556.253,-73.751 566.689,-74.9164"/>
<polygon fill="midnightblue" stroke="midnightblue" points="535.336,-67.8934 525.01,-70.2618 534.559,-74.8501 535.336,-67.8934"/>
</g>
<!-- Node8 -->
<g id="node8" class="node"><title>Node8</title>
<g id="a_node8"><a xlink:href="classMainWindow.html#ab18c663524e2c130759c0ca960129ea4" target="_top" xlink:title="MainWindow::onItemDouble\lClicked">
<polygon fill="white" stroke="black" points="583,-25.4435 583,-55.4435 723,-55.4435 723,-25.4435 583,-25.4435"/>
<text text-anchor="start" x="591" y="-43.4435" font-family="Helvetica,sans-Serif" font-size="10.00">MainWindow::onItemDouble</text>
<text text-anchor="middle" x="653" y="-32.4435" font-family="Helvetica,sans-Serif" font-size="10.00">Clicked</text>
</a>
</g>
</g>
<!-- Node7&#45;&gt;Node8 -->
<g id="edge10" class="edge"><title>Node7&#45;&gt;Node8</title>
<path fill="none" stroke="midnightblue" d="M535.273,-53.479C551.061,-51.7159 567.496,-49.8805 582.878,-48.1626"/>
<polygon fill="midnightblue" stroke="midnightblue" points="534.559,-50.0368 525.01,-54.6252 535.336,-56.9936 534.559,-50.0368"/>
</g>
<!-- Node8&#45;&gt;Node3 -->
<g id="edge11" class="edge"><title>Node8&#45;&gt;Node3</title>
<path fill="none" stroke="midnightblue" d="M729.77,-57.7622C755.346,-63.6083 782.945,-69.9167 804.883,-74.9311"/>
<polygon fill="midnightblue" stroke="midnightblue" points="730.238,-54.279 719.709,-55.4627 728.678,-61.1031 730.238,-54.279"/>
</g>
<!-- Node9&#45;&gt;Node3 -->
<g id="edge13" class="edge"><title>Node9&#45;&gt;Node3</title>
<path fill="none" stroke="midnightblue" d="M510.404,-10.2425C569.636,-0.558898 665.617,8.48106 744,-15.4435 782.572,-27.2168 819.77,-58.9102 836.81,-74.9166"/>
<polygon fill="midnightblue" stroke="midnightblue" points="509.777,-6.79884 500.504,-11.9233 510.948,-13.7001 509.777,-6.79884"/>
</g>
</g>
</svg>
