<?xml version="1.0" encoding="UTF-8" standalone="no"?>
<!DOCTYPE svg PUBLIC "-//W3C//DTD SVG 1.1//EN"
 "http://www.w3.org/Graphics/SVG/1.1/DTD/svg11.dtd">
<!-- Generated by graphviz version 2.38.0 (20140413.2041)
 -->
<!-- Title: YUVFile::readBytes Pages: 1 -->
<svg width="460pt" height="66pt"
 viewBox="0.00 0.00 460.00 66.00" xmlns="http://www.w3.org/2000/svg" xmlns:xlink="http://www.w3.org/1999/xlink">
<g id="graph0" class="graph" transform="scale(1 1) rotate(0) translate(4 62)">
<title>YUVFile::readBytes</title>
<polygon fill="white" stroke="none" points="-4,4 -4,-62 456,-62 456,4 -4,4"/>
<!-- Node1 -->
<g id="node1" class="node"><title>Node1</title>
<polygon fill="#bfbfbf" stroke="black" points="0,-19.5 0,-38.5 104,-38.5 104,-19.5 0,-19.5"/>
<text text-anchor="middle" x="52" y="-26.5" font-family="Helvetica,sans-Serif" font-size="10.00">YUVFile::readBytes</text>
</g>
<!-- Node2 -->
<g id="node2" class="node"><title>Node2</title>
<g id="a_node2"><a xlink:href="classYUVFile.html#a1146a0955f0959ef8bcb95e881bb5e37" target="_top" xlink:title="YUVFile::readFrame">
<polygon fill="white" stroke="black" points="165.5,-38.5 165.5,-57.5 271.5,-57.5 271.5,-38.5 165.5,-38.5"/>
<text text-anchor="middle" x="218.5" y="-45.5" font-family="Helvetica,sans-Serif" font-size="10.00">YUVFile::readFrame</text>
</a>
</g>
</g>
<!-- Node1&#45;&gt;Node2 -->
<g id="edge1" class="edge"><title>Node1&#45;&gt;Node2</title>
<path fill="none" stroke="midnightblue" d="M114.379,-36.0893C131.111,-38.0219 149.077,-40.097 165.25,-41.965"/>
<polygon fill="midnightblue" stroke="midnightblue" points="114.483,-32.5782 104.147,-34.9076 113.679,-39.5319 114.483,-32.5782"/>
</g>
<!-- Node4 -->
<g id="node4" class="node"><title>Node4</title>
<g id="a_node4"><a xlink:href="classYUVFile.html#a6a2f0d64ea5ad721c96de27fdc2e2d60" target="_top" xlink:title="YUVFile::formatFromCorrelation">
<polygon fill="white" stroke="black" points="140,-0.5 140,-19.5 297,-19.5 297,-0.5 140,-0.5"/>
<text text-anchor="middle" x="218.5" y="-7.5" font-family="Helvetica,sans-Serif" font-size="10.00">YUVFile::formatFromCorrelation</text>
</a>
</g>
</g>
<!-- Node1&#45;&gt;Node4 -->
<g id="edge3" class="edge"><title>Node1&#45;&gt;Node4</title>
<path fill="none" stroke="midnightblue" d="M114.167,-21.9351C122.53,-20.9692 131.204,-19.9673 139.811,-18.9732"/>
<polygon fill="midnightblue" stroke="midnightblue" points="113.679,-18.4681 104.147,-23.0924 114.483,-25.4218 113.679,-18.4681"/>
</g>
<!-- Node3 -->
<g id="node3" class="node"><title>Node3</title>
<g id="a_node3"><a xlink:href="classYUVFile.html#abf82a0b4c126ed5d1d9eaa7ff096e7b0" target="_top" xlink:title="YUVFile::getOneFrame">
<polygon fill="white" stroke="black" points="333,-38.5 333,-57.5 452,-57.5 452,-38.5 333,-38.5"/>
<text text-anchor="middle" x="392.5" y="-45.5" font-family="Helvetica,sans-Serif" font-size="10.00">YUVFile::getOneFrame</text>
</a>
</g>
</g>
<!-- Node2&#45;&gt;Node3 -->
<g id="edge2" class="edge"><title>Node2&#45;&gt;Node3</title>
<path fill="none" stroke="midnightblue" d="M281.783,-48C298.49,-48 316.492,-48 332.987,-48"/>
<polygon fill="midnightblue" stroke="midnightblue" points="281.572,-44.5001 271.572,-48 281.572,-51.5001 281.572,-44.5001"/>
</g>
<!-- Node5 -->
<g id="node5" class="node"><title>Node5</title>
<g id="a_node5"><a xlink:href="classYUVFile.html#a75df71aea1c05d5eda21e4003855c11f" target="_top" xlink:title="Get the format of the YUV if known. ">
<polygon fill="white" stroke="black" points="340.5,-0.5 340.5,-19.5 444.5,-19.5 444.5,-0.5 340.5,-0.5"/>
<text text-anchor="middle" x="392.5" y="-7.5" font-family="Helvetica,sans-Serif" font-size="10.00">YUVFile::getFormat</text>
</a>
</g>
</g>
<!-- Node4&#45;&gt;Node5 -->
<g id="edge4" class="edge"><title>Node4&#45;&gt;Node5</title>
<path fill="none" stroke="midnightblue" d="M307.494,-10C318.716,-10 329.893,-10 340.26,-10"/>
<polygon fill="midnightblue" stroke="midnightblue" points="307.197,-6.5001 297.197,-10 307.197,-13.5001 307.197,-6.5001"/>
</g>
</g>
</svg>
