<?xml version="1.0" encoding="UTF-8" standalone="no"?>
<!DOCTYPE svg PUBLIC "-//W3C//DTD SVG 1.1//EN"
 "http://www.w3.org/Graphics/SVG/1.1/DTD/svg11.dtd">
<!-- Generated by graphviz version 2.38.0 (20140413.2041)
 -->
<!-- Title: statisticSourceFile::readHeaderFromFile Pages: 1 -->
<svg width="259pt" height="39pt"
 viewBox="0.00 0.00 259.00 39.00" xmlns="http://www.w3.org/2000/svg" xmlns:xlink="http://www.w3.org/1999/xlink">
<g id="graph0" class="graph" transform="scale(1 1) rotate(0) translate(4 35)">
<title>statisticSourceFile::readHeaderFromFile</title>
<polygon fill="white" stroke="none" points="-4,4 -4,-35 255,-35 255,4 -4,4"/>
<!-- Node1 -->
<g id="node1" class="node"><title>Node1</title>
<polygon fill="#bfbfbf" stroke="black" points="0,-0.5 0,-30.5 111,-30.5 111,-0.5 0,-0.5"/>
<text text-anchor="start" x="8" y="-18.5" font-family="Helvetica,sans-Serif" font-size="10.00">statisticSourceFile</text>
<text text-anchor="middle" x="55.5" y="-7.5" font-family="Helvetica,sans-Serif" font-size="10.00">::readHeaderFromFile</text>
</g>
<!-- Node2 -->
<g id="node2" class="node"><title>Node2</title>
<g id="a_node2"><a xlink:href="classstatisticSourceFile.html#acbf3c85a7294a590dbebc5797da80a46" target="_top" xlink:title="statisticSourceFile\l::statisticSourceFile">
<polygon fill="white" stroke="black" points="147,-0.5 147,-30.5 251,-30.5 251,-0.5 147,-0.5"/>
<text text-anchor="start" x="155" y="-18.5" font-family="Helvetica,sans-Serif" font-size="10.00">statisticSourceFile</text>
<text text-anchor="middle" x="199" y="-7.5" font-family="Helvetica,sans-Serif" font-size="10.00">::statisticSourceFile</text>
</a>
</g>
</g>
<!-- Node1&#45;&gt;Node2 -->
<g id="edge1" class="edge"><title>Node1&#45;&gt;Node2</title>
<path fill="none" stroke="midnightblue" d="M121.445,-15.5C129.91,-15.5 138.486,-15.5 146.685,-15.5"/>
<polygon fill="midnightblue" stroke="midnightblue" points="121.208,-12.0001 111.208,-15.5 121.208,-19.0001 121.208,-12.0001"/>
</g>
</g>
</svg>
