<?xml version="1.0" encoding="UTF-8" standalone="no"?>
<!DOCTYPE svg PUBLIC "-//W3C//DTD SVG 1.1//EN"
 "http://www.w3.org/Graphics/SVG/1.1/DTD/svg11.dtd">
<!-- Generated by graphviz version 2.38.0 (20140413.2041)
 -->
<!-- Title: PlaylistItem::getInfoList Pages: 1 -->
<svg width="456pt" height="39pt"
 viewBox="0.00 0.00 456.00 39.00" xmlns="http://www.w3.org/2000/svg" xmlns:xlink="http://www.w3.org/1999/xlink">
<g id="graph0" class="graph" transform="scale(1 1) rotate(0) translate(4 35)">
<title>PlaylistItem::getInfoList</title>
<polygon fill="white" stroke="none" points="-4,4 -4,-35 452,-35 452,4 -4,4"/>
<!-- Node1 -->
<g id="node1" class="node"><title>Node1</title>
<polygon fill="#bfbfbf" stroke="black" points="0,-6 0,-25 120,-25 120,-6 0,-6"/>
<text text-anchor="middle" x="60" y="-13" font-family="Helvetica,sans-Serif" font-size="10.00">PlaylistItem::getInfoList</text>
</g>
<!-- Node2 -->
<g id="node2" class="node"><title>Node2</title>
<g id="a_node2"><a xlink:href="classDisplayObject.html#ae13452345536c3bb6cd4f2c9bcd92047" target="_top" xlink:title="DisplayObject::getInfoList">
<polygon fill="white" stroke="black" points="156,-6 156,-25 286,-25 286,-6 156,-6"/>
<text text-anchor="middle" x="221" y="-13" font-family="Helvetica,sans-Serif" font-size="10.00">DisplayObject::getInfoList</text>
</a>
</g>
</g>
<!-- Node1&#45;&gt;Node2 -->
<g id="edge1" class="edge"><title>Node1&#45;&gt;Node2</title>
<path fill="none" stroke="midnightblue" d="M120.206,-15.5C128.583,-15.5 137.281,-15.5 145.896,-15.5"/>
<polygon fill="midnightblue" stroke="midnightblue" points="145.944,-19.0001 155.944,-15.5 145.944,-12.0001 145.944,-19.0001"/>
</g>
<!-- Node3 -->
<g id="node3" class="node"><title>Node3</title>
<g id="a_node3"><a xlink:href="classDisplayObject.html#ae44115df455b077d7f5524ffa4e32588" target="_top" xlink:title="DisplayObject::getStatus\lAndInfo">
<polygon fill="white" stroke="black" points="322,-0.5 322,-30.5 448,-30.5 448,-0.5 322,-0.5"/>
<text text-anchor="start" x="330" y="-18.5" font-family="Helvetica,sans-Serif" font-size="10.00">DisplayObject::getStatus</text>
<text text-anchor="middle" x="385" y="-7.5" font-family="Helvetica,sans-Serif" font-size="10.00">AndInfo</text>
</a>
</g>
</g>
<!-- Node2&#45;&gt;Node3 -->
<g id="edge2" class="edge"><title>Node2&#45;&gt;Node3</title>
<path fill="none" stroke="midnightblue" d="M286.027,-15.5C294.389,-15.5 303.004,-15.5 311.494,-15.5"/>
<polygon fill="midnightblue" stroke="midnightblue" points="311.761,-19.0001 321.761,-15.5 311.761,-12.0001 311.761,-19.0001"/>
</g>
</g>
</svg>
