<?xml version="1.0" encoding="UTF-8" standalone="no"?>
<!DOCTYPE svg PUBLIC "-//W3C//DTD SVG 1.1//EN"
 "http://www.w3.org/Graphics/SVG/1.1/DTD/svg11.dtd">
<!-- Generated by graphviz version 2.38.0 (20140413.2041)
 -->
<!-- Title: DisplaySplitWidget Pages: 1 -->
<!--zoomable 690 -->
<svg id="main" version="1.1" xmlns="http://www.w3.org/2000/svg" xmlns:xlink="http://www.w3.org/1999/xlink" xml:space="preserve" onload="init(evt)">
<style type="text/css"><![CDATA[
.edge:hover path { stroke: red; }
.edge:hover polygon { stroke: red; fill: red; }
]]></style>
<script type="text/javascript"><![CDATA[
var edges = document.getElementsByTagName('g');
if (edges && edges.length) {
  for (var i=0;i<edges.length;i++) {
    if (edges[i].id.substr(0,4)=='edge') {
      edges[i].setAttribute('class','edge');
    }
  }
}
]]></script>
        <defs>
                <circle id="rim" cx="0" cy="0" r="7"/>
                <circle id="rim2" cx="0" cy="0" r="3.5"/>
                <g id="zoomPlus">
                        <use xlink:href="#rim" fill="#404040">
                                <set attributeName="fill" to="#808080" begin="zoomplus.mouseover" end="zoomplus.mouseout"/>
                        </use>
                        <path d="M-4,0h8M0,-4v8" fill="none" stroke="white" stroke-width="1.5" pointer-events="none"/>
                </g>
                <g id="zoomMin">
                        <use xlink:href="#rim" fill="#404040">
                                <set attributeName="fill" to="#808080" begin="zoomminus.mouseover" end="zoomminus.mouseout"/>
                        </use>
                        <path d="M-4,0h8" fill="none" stroke="white" stroke-width="1.5" pointer-events="none"/>
                </g>
                <g id="dirArrow">
                        <path fill="none" stroke="white" stroke-width="1.5" d="M0,-3.0v7 M-2.5,-0.5L0,-3.0L2.5,-0.5"/>
                </g>
               <g id="resetDef">
                       <use xlink:href="#rim2" fill="#404040">
                               <set attributeName="fill" to="#808080" begin="reset.mouseover" end="reset.mouseout"/>
                       </use>
               </g>
        </defs>

<script type="text/javascript">
var viewWidth = 1050;
var viewHeight = 690;
var sectionId = 'dynsection-1';
</script>
<script xlink:href="svgpan.js"/>
<svg id="graph" class="graph">
<g id="viewport">
<title>DisplaySplitWidget</title>
<polygon fill="white" stroke="none" points="-4,4 -4,-686 1046,-686 1046,4 -4,4"/>
<!-- Node1 -->
<g id="node1" class="node"><title>Node1</title>
<polygon fill="#bfbfbf" stroke="black" points="942,-199.5 942,-218.5 1042,-218.5 1042,-199.5 942,-199.5"/>
<text text-anchor="middle" x="992" y="-206.5" font-family="Helvetica,sans-Serif" font-size="10.00">DisplaySplitWidget</text>
</g>
<!-- Node2 -->
<g id="node2" class="node"><title>Node2</title>
<g id="a_node2"><a xlink:href="classQSplitter.html" target="_top" xlink:title="QSplitter">
<polygon fill="white" stroke="black" points="750.5,-662.5 750.5,-681.5 805.5,-681.5 805.5,-662.5 750.5,-662.5"/>
<text text-anchor="middle" x="778" y="-669.5" font-family="Helvetica,sans-Serif" font-size="10.00">QSplitter</text>
</a>
</g>
</g>
<!-- Node2&#45;&gt;Node1 -->
<g id="edge1" class="edge"><title>Node2&#45;&gt;Node1</title>
<path fill="none" stroke="midnightblue" d="M815.794,-676.873C848.792,-679.011 896.174,-676.178 924,-648 986.705,-584.502 990.791,-276.853 990.999,-218.548"/>
<polygon fill="midnightblue" stroke="midnightblue" points="815.884,-673.369 805.629,-676.03 815.306,-680.345 815.884,-673.369"/>
</g>
<!-- Node3 -->
<g id="node3" class="node"><title>Node3</title>
<g id="a_node3"><a xlink:href="classDisplayWidget.html" target="_top" xlink:title="DisplayWidget">
<polygon fill="white" stroke="black" points="738,-282.5 738,-301.5 818,-301.5 818,-282.5 738,-282.5"/>
<text text-anchor="middle" x="778" y="-289.5" font-family="Helvetica,sans-Serif" font-size="10.00">DisplayWidget</text>
</a>
</g>
</g>
<!-- Node3&#45;&gt;Node1 -->
<g id="edge2" class="edge"><title>Node3&#45;&gt;Node1</title>
<path fill="none" stroke="#9a32cd" stroke-dasharray="5,2" d="M812.772,-278.778C855.702,-261.97 928.775,-233.362 966.639,-218.538"/>
<polygon fill="#9a32cd" stroke="#9a32cd" points="811.355,-275.574 803.319,-282.479 813.907,-282.092 811.355,-275.574"/>
<text text-anchor="middle" x="883.5" y="-269" font-family="Helvetica,sans-Serif" font-size="10.00"> p_displayWidgets</text>
</g>
<!-- Node4 -->
<g id="node4" class="node"><title>Node4</title>
<g id="a_node4"><a xlink:href="classQWidget.html" target="_top" xlink:title="QWidget">
<polygon fill="white" stroke="black" points="509.5,-321.5 509.5,-340.5 564.5,-340.5 564.5,-321.5 509.5,-321.5"/>
<text text-anchor="middle" x="537" y="-328.5" font-family="Helvetica,sans-Serif" font-size="10.00">QWidget</text>
</a>
</g>
</g>
<!-- Node4&#45;&gt;Node3 -->
<g id="edge3" class="edge"><title>Node4&#45;&gt;Node3</title>
<path fill="none" stroke="midnightblue" d="M574.583,-325.273C610.002,-319.698 665.207,-310.93 713,-303 721.008,-301.671 729.574,-300.22 737.75,-298.82"/>
<polygon fill="midnightblue" stroke="midnightblue" points="574.034,-321.816 564.699,-326.826 575.121,-328.731 574.034,-321.816"/>
</g>
<!-- Node5 -->
<g id="node5" class="node"><title>Node5</title>
<polygon fill="white" stroke="#bfbfbf" points="513.5,-236.5 513.5,-255.5 560.5,-255.5 560.5,-236.5 513.5,-236.5"/>
<text text-anchor="middle" x="537" y="-243.5" font-family="Helvetica,sans-Serif" font-size="10.00">QColor</text>
</g>
<!-- Node5&#45;&gt;Node3 -->
<g id="edge4" class="edge"><title>Node5&#45;&gt;Node3</title>
<path fill="none" stroke="#9a32cd" stroke-dasharray="5,2" d="M570.975,-247.47C606.494,-249.627 664.451,-254.815 713,-267 727.925,-270.746 744.06,-277.065 756.395,-282.412"/>
<polygon fill="#9a32cd" stroke="#9a32cd" points="570.888,-243.96 560.707,-246.894 570.495,-250.949 570.888,-243.96"/>
<text text-anchor="middle" x="655.5" y="-270" font-family="Helvetica,sans-Serif" font-size="10.00"> p_gridColor</text>
</g>
<!-- Node6 -->
<g id="node6" class="node"><title>Node6</title>
<g id="a_node6"><a xlink:href="classDisplayObject.html" target="_top" xlink:title="DisplayObject">
<polygon fill="white" stroke="black" points="270,-271.5 270,-290.5 348,-290.5 348,-271.5 270,-271.5"/>
<text text-anchor="middle" x="309" y="-278.5" font-family="Helvetica,sans-Serif" font-size="10.00">DisplayObject</text>
</a>
</g>
</g>
<!-- Node6&#45;&gt;Node1 -->
<g id="edge26" class="edge"><title>Node6&#45;&gt;Node1</title>
<path fill="none" stroke="#9a32cd" stroke-dasharray="5,2" d="M317.272,-300.222C331.627,-337.938 362.681,-418.313 368,-422 534.937,-537.719 638.407,-497.262 825,-417 917.523,-377.202 972.844,-254.352 987.229,-218.758"/>
<polygon fill="#9a32cd" stroke="#9a32cd" points="320.522,-298.922 313.701,-290.815 313.978,-301.406 320.522,-298.922"/>
<text text-anchor="middle" x="655.5" y="-496" font-family="Helvetica,sans-Serif" font-size="10.00"> p_displayObjects</text>
</g>
<!-- Node6&#45;&gt;Node3 -->
<g id="edge5" class="edge"><title>Node6&#45;&gt;Node3</title>
<path fill="none" stroke="#9a32cd" stroke-dasharray="5,2" d="M358.463,-282.142C451.386,-284.33 652.92,-289.077 737.926,-291.08"/>
<polygon fill="#9a32cd" stroke="#9a32cd" points="358.296,-278.637 348.217,-281.9 358.131,-285.635 358.296,-278.637"/>
<text text-anchor="middle" x="537" y="-291" font-family="Helvetica,sans-Serif" font-size="10.00"> p_displayObject</text>
</g>
<!-- Node13 -->
<g id="node13" class="node"><title>Node13</title>
<g id="a_node13"><a xlink:href="classStatisticsObject.html" target="_top" xlink:title="StatisticsObject">
<polygon fill="white" stroke="black" points="494,-397.5 494,-416.5 580,-416.5 580,-397.5 494,-397.5"/>
<text text-anchor="middle" x="537" y="-404.5" font-family="Helvetica,sans-Serif" font-size="10.00">StatisticsObject</text>
</a>
</g>
</g>
<!-- Node6&#45;&gt;Node13 -->
<g id="edge14" class="edge"><title>Node6&#45;&gt;Node13</title>
<path fill="none" stroke="midnightblue" d="M333.964,-295.993C368.667,-317.46 435.199,-357.703 494,-388 500.261,-391.226 507.18,-394.479 513.565,-397.359"/>
<polygon fill="midnightblue" stroke="midnightblue" points="335.794,-293.009 325.452,-290.709 332.102,-298.957 335.794,-293.009"/>
</g>
<!-- Node7 -->
<g id="node7" class="node"><title>Node7</title>
<g id="a_node7"><a xlink:href="classQObject.html" target="_top" xlink:title="QObject">
<polygon fill="white" stroke="black" points="40.5,-271.5 40.5,-290.5 93.5,-290.5 93.5,-271.5 40.5,-271.5"/>
<text text-anchor="middle" x="67" y="-278.5" font-family="Helvetica,sans-Serif" font-size="10.00">QObject</text>
</a>
</g>
</g>
<!-- Node7&#45;&gt;Node6 -->
<g id="edge6" class="edge"><title>Node7&#45;&gt;Node6</title>
<path fill="none" stroke="midnightblue" d="M103.647,-271.095C118.474,-267.458 135.943,-263.793 152,-262 195.286,-257.166 206.989,-255.135 250,-262 261.614,-263.854 274.061,-267.672 284.435,-271.403"/>
<polygon fill="midnightblue" stroke="midnightblue" points="102.683,-267.729 93.8535,-273.585 104.408,-274.513 102.683,-267.729"/>
</g>
<!-- Node14 -->
<g id="node14" class="node"><title>Node14</title>
<g id="a_node14"><a xlink:href="classstatisticSource.html" target="_top" xlink:title="statisticSource">
<polygon fill="white" stroke="black" points="268,-397.5 268,-416.5 350,-416.5 350,-397.5 268,-397.5"/>
<text text-anchor="middle" x="309" y="-404.5" font-family="Helvetica,sans-Serif" font-size="10.00">statisticSource</text>
</a>
</g>
</g>
<!-- Node7&#45;&gt;Node14 -->
<g id="edge16" class="edge"><title>Node7&#45;&gt;Node14</title>
<path fill="none" stroke="midnightblue" d="M100.775,-294.475C116.272,-300.793 135.053,-308.372 152,-315 195.358,-331.957 210.553,-327.273 250,-352 270.223,-364.677 289.454,-385.147 299.896,-397.216"/>
<polygon fill="midnightblue" stroke="midnightblue" points="101.697,-291.071 91.1166,-290.528 99.0493,-297.551 101.697,-291.071"/>
</g>
<!-- Node8 -->
<g id="node8" class="node"><title>Node8</title>
<polygon fill="white" stroke="#bfbfbf" points="21.5,-214.5 21.5,-233.5 112.5,-233.5 112.5,-214.5 21.5,-214.5"/>
<text text-anchor="middle" x="67" y="-221.5" font-family="Helvetica,sans-Serif" font-size="10.00">QList&lt; QString &gt;</text>
</g>
<!-- Node8&#45;&gt;Node6 -->
<g id="edge7" class="edge"><title>Node8&#45;&gt;Node6</title>
<path fill="none" stroke="#9a32cd" stroke-dasharray="5,2" d="M122.75,-223.035C159.678,-223.981 208.965,-228.391 250,-243 267.919,-249.379 285.812,-262.359 296.886,-271.362"/>
<polygon fill="#9a32cd" stroke="#9a32cd" points="122.741,-219.534 112.679,-222.855 122.615,-226.533 122.741,-219.534"/>
<text text-anchor="middle" x="201" y="-246" font-family="Helvetica,sans-Serif" font-size="10.00"> p_info_permanent</text>
</g>
<!-- Node9 -->
<g id="node9" class="node"><title>Node9</title>
<polygon fill="white" stroke="#bfbfbf" points="44.5,-176.5 44.5,-195.5 89.5,-195.5 89.5,-176.5 44.5,-176.5"/>
<text text-anchor="middle" x="67" y="-183.5" font-family="Helvetica,sans-Serif" font-size="10.00">double</text>
</g>
<!-- Node9&#45;&gt;Node6 -->
<g id="edge8" class="edge"><title>Node9&#45;&gt;Node6</title>
<path fill="none" stroke="#9a32cd" stroke-dasharray="5,2" d="M99.7851,-183.376C137.933,-181.694 202.67,-183.62 250,-210 263.347,-217.439 289.298,-253.657 301.44,-271.301"/>
<polygon fill="#9a32cd" stroke="#9a32cd" points="99.5591,-179.883 89.7671,-183.929 99.9448,-186.872 99.5591,-179.883"/>
<text text-anchor="middle" x="201" y="-213" font-family="Helvetica,sans-Serif" font-size="10.00"> p_frameRate</text>
</g>
<!-- Node10 -->
<g id="node10" class="node"><title>Node10</title>
<polygon fill="white" stroke="#bfbfbf" points="42,-335.5 42,-354.5 92,-354.5 92,-335.5 42,-335.5"/>
<text text-anchor="middle" x="67" y="-342.5" font-family="Helvetica,sans-Serif" font-size="10.00">QString</text>
</g>
<!-- Node10&#45;&gt;Node6 -->
<g id="edge9" class="edge"><title>Node10&#45;&gt;Node6</title>
<path fill="none" stroke="#9a32cd" stroke-dasharray="5,2" d="M101.702,-334.052C116.991,-329.218 135.343,-323.602 152,-319 191.9,-307.977 238.002,-296.955 269.685,-289.643"/>
<polygon fill="#9a32cd" stroke="#9a32cd" points="100.611,-330.726 92.1451,-337.096 102.736,-337.395 100.611,-330.726"/>
<text text-anchor="middle" x="201" y="-344" font-family="Helvetica,sans-Serif" font-size="10.00"> p_status</text>
<text text-anchor="middle" x="201" y="-333" font-family="Helvetica,sans-Serif" font-size="10.00">p_name</text>
<text text-anchor="middle" x="201" y="-322" font-family="Helvetica,sans-Serif" font-size="10.00">p_info</text>
</g>
<!-- Node10&#45;&gt;Node14 -->
<g id="edge18" class="edge"><title>Node10&#45;&gt;Node14</title>
<path fill="none" stroke="#9a32cd" stroke-dasharray="5,2" d="M102.379,-348.288C139.521,-352.514 200.087,-361.376 250,-378 264.74,-382.909 280.443,-390.953 291.787,-397.325"/>
<polygon fill="#9a32cd" stroke="#9a32cd" points="102.417,-344.772 92.0974,-347.169 101.66,-351.73 102.417,-344.772"/>
<text text-anchor="middle" x="201" y="-392" font-family="Helvetica,sans-Serif" font-size="10.00"> p_status</text>
<text text-anchor="middle" x="201" y="-381" font-family="Helvetica,sans-Serif" font-size="10.00">p_info</text>
</g>
<!-- Node11 -->
<g id="node11" class="node"><title>Node11</title>
<polygon fill="white" stroke="#bfbfbf" points="38.5,-138.5 38.5,-157.5 95.5,-157.5 95.5,-138.5 38.5,-138.5"/>
<text text-anchor="middle" x="67" y="-145.5" font-family="Helvetica,sans-Serif" font-size="10.00">QPixmap</text>
</g>
<!-- Node11&#45;&gt;Node6 -->
<g id="edge10" class="edge"><title>Node11&#45;&gt;Node6</title>
<path fill="none" stroke="#9a32cd" stroke-dasharray="5,2" d="M105.534,-141.663C145.859,-137.092 209.582,-136.638 250,-170 270.162,-186.642 256.163,-202.691 268,-226 276.768,-243.265 290.718,-260.981 299.612,-271.485"/>
<polygon fill="#9a32cd" stroke="#9a32cd" points="105.045,-138.197 95.5665,-142.931 105.928,-145.141 105.045,-138.197"/>
<text text-anchor="middle" x="201" y="-173" font-family="Helvetica,sans-Serif" font-size="10.00"> p_displayImage</text>
</g>
<!-- Node12 -->
<g id="node12" class="node"><title>Node12</title>
<polygon fill="white" stroke="#bfbfbf" points="52.5,-572.5 52.5,-591.5 81.5,-591.5 81.5,-572.5 52.5,-572.5"/>
<text text-anchor="middle" x="67" y="-579.5" font-family="Helvetica,sans-Serif" font-size="10.00">int</text>
</g>
<!-- Node12&#45;&gt;Node1 -->
<g id="edge29" class="edge"><title>Node12&#45;&gt;Node1</title>
<path fill="none" stroke="#9a32cd" stroke-dasharray="5,2" d="M91.2327,-590.501C133.671,-605.245 226.84,-634 308,-634 308,-634 308,-634 779,-634 971.12,-634 989.139,-281.937 990.826,-218.675"/>
<polygon fill="#9a32cd" stroke="#9a32cd" points="92.1693,-587.12 81.5745,-587.081 89.8323,-593.718 92.1693,-587.12"/>
<text text-anchor="middle" x="537" y="-637" font-family="Helvetica,sans-Serif" font-size="10.00"> p_LastSplitPos</text>
</g>
<!-- Node12&#45;&gt;Node3 -->
<g id="edge12" class="edge"><title>Node12&#45;&gt;Node3</title>
<path fill="none" stroke="#9a32cd" stroke-dasharray="5,2" d="M91.8592,-584.352C126.683,-587.401 193.443,-591.79 250,-587 458.007,-569.382 569.153,-659.279 713,-508 736.286,-483.511 718.866,-388.54 731,-357 739.439,-335.065 756.955,-313.599 767.771,-301.652"/>
<polygon fill="#9a32cd" stroke="#9a32cd" points="92.0065,-580.851 81.7285,-583.423 91.367,-587.822 92.0065,-580.851"/>
<text text-anchor="middle" x="422" y="-599" font-family="Helvetica,sans-Serif" font-size="10.00"> p_gridSize</text>
</g>
<!-- Node12&#45;&gt;Node6 -->
<g id="edge11" class="edge"><title>Node12&#45;&gt;Node6</title>
<path fill="none" stroke="#9a32cd" stroke-dasharray="5,2" d="M77.1308,-563.128C90.1752,-538.249 116.544,-494.955 152,-472 189.555,-447.685 217.485,-479.73 250,-449 270.543,-429.584 259.045,-414.811 268,-388 280.125,-351.696 296.703,-309.315 304.128,-290.655"/>
<polygon fill="#9a32cd" stroke="#9a32cd" points="73.9014,-561.758 72.509,-572.261 80.1472,-564.919 73.9014,-561.758"/>
<text text-anchor="middle" x="201" y="-530" font-family="Helvetica,sans-Serif" font-size="10.00"> p_startFrame</text>
<text text-anchor="middle" x="201" y="-519" font-family="Helvetica,sans-Serif" font-size="10.00">p_endFrame</text>
<text text-anchor="middle" x="201" y="-508" font-family="Helvetica,sans-Serif" font-size="10.00">p_width</text>
<text text-anchor="middle" x="201" y="-497" font-family="Helvetica,sans-Serif" font-size="10.00">p_sampling</text>
<text text-anchor="middle" x="201" y="-486" font-family="Helvetica,sans-Serif" font-size="10.00">p_height</text>
<text text-anchor="middle" x="201" y="-475" font-family="Helvetica,sans-Serif" font-size="10.00">p_lastIdx</text>
</g>
<!-- Node12&#45;&gt;Node14 -->
<g id="edge20" class="edge"><title>Node12&#45;&gt;Node14</title>
<path fill="none" stroke="#9a32cd" stroke-dasharray="5,2" d="M91.6428,-577.096C140.206,-566.984 246.921,-544.545 250,-542 290.505,-508.523 303.379,-441.508 306.862,-416.607"/>
<polygon fill="#9a32cd" stroke="#9a32cd" points="90.7703,-573.702 81.6922,-579.165 92.1953,-580.556 90.7703,-573.702"/>
<text text-anchor="middle" x="201" y="-578" font-family="Helvetica,sans-Serif" font-size="10.00"> p_internalScaleFactor</text>
<text text-anchor="middle" x="201" y="-567" font-family="Helvetica,sans-Serif" font-size="10.00">p_lastFrameIdx</text>
</g>
<!-- Node13&#45;&gt;Node1 -->
<g id="edge27" class="edge"><title>Node13&#45;&gt;Node1</title>
<path fill="none" stroke="#9a32cd" stroke-dasharray="5,2" d="M590.293,-414.177C625.593,-417.291 672.882,-418.067 713,-407 818.293,-377.954 839.058,-349.667 924,-281 948.167,-261.463 971.836,-233.314 983.5,-218.673"/>
<polygon fill="#9a32cd" stroke="#9a32cd" points="590.5,-410.68 580.208,-413.195 589.822,-417.647 590.5,-410.68"/>
<text text-anchor="middle" x="778" y="-405" font-family="Helvetica,sans-Serif" font-size="10.00"> p_overlayObjects</text>
</g>
<!-- Node13&#45;&gt;Node3 -->
<g id="edge13" class="edge"><title>Node13&#45;&gt;Node3</title>
<path fill="none" stroke="#9a32cd" stroke-dasharray="5,2" d="M590.199,-397.306C640.795,-387.843 710.32,-374.632 713,-373 742.237,-355.195 763.473,-318.869 772.372,-301.57"/>
<polygon fill="#9a32cd" stroke="#9a32cd" points="589.544,-393.868 580.357,-399.144 590.83,-400.749 589.544,-393.868"/>
<text text-anchor="middle" x="655.5" y="-399" font-family="Helvetica,sans-Serif" font-size="10.00"> p_overlayStatisticsObject</text>
</g>
<!-- Node14&#45;&gt;Node13 -->
<g id="edge15" class="edge"><title>Node14&#45;&gt;Node13</title>
<path fill="none" stroke="#9a32cd" stroke-dasharray="5,2" d="M360.26,-407C400.432,-407 456.09,-407 493.931,-407"/>
<polygon fill="#9a32cd" stroke="#9a32cd" points="360.144,-403.5 350.144,-407 360.144,-410.5 360.144,-403.5"/>
<text text-anchor="middle" x="422" y="-410" font-family="Helvetica,sans-Serif" font-size="10.00"> p_statisticSource</text>
</g>
<!-- Node15 -->
<g id="node15" class="node"><title>Node15</title>
<polygon fill="white" stroke="#bfbfbf" points="1.5,-387 1.5,-417 132.5,-417 132.5,-387 1.5,-387"/>
<text text-anchor="start" x="9.5" y="-405" font-family="Helvetica,sans-Serif" font-size="10.00">QHash&lt; int, QHash&lt;</text>
<text text-anchor="middle" x="67" y="-394" font-family="Helvetica,sans-Serif" font-size="10.00"> int, StatisticsItemList &gt; &gt;</text>
</g>
<!-- Node15&#45;&gt;Node14 -->
<g id="edge17" class="edge"><title>Node15&#45;&gt;Node14</title>
<path fill="none" stroke="#9a32cd" stroke-dasharray="5,2" d="M142.665,-403.556C183.975,-404.416 233.689,-405.452 267.746,-406.161"/>
<polygon fill="#9a32cd" stroke="#9a32cd" points="142.702,-400.056 132.631,-403.346 142.556,-407.054 142.702,-400.056"/>
<text text-anchor="middle" x="201" y="-409" font-family="Helvetica,sans-Serif" font-size="10.00"> p_statsCache</text>
</g>
<!-- Node16 -->
<g id="node16" class="node"><title>Node16</title>
<polygon fill="white" stroke="#bfbfbf" points="0,-436.5 0,-455.5 134,-455.5 134,-436.5 0,-436.5"/>
<text text-anchor="middle" x="67" y="-443.5" font-family="Helvetica,sans-Serif" font-size="10.00">QVector&lt; StatisticsType &gt;</text>
</g>
<!-- Node16&#45;&gt;Node14 -->
<g id="edge19" class="edge"><title>Node16&#45;&gt;Node14</title>
<path fill="none" stroke="#9a32cd" stroke-dasharray="5,2" d="M144.213,-435.676C176.859,-431 215.369,-425.146 250,-419 255.771,-417.976 261.847,-416.813 267.807,-415.624"/>
<polygon fill="#9a32cd" stroke="#9a32cd" points="143.688,-432.216 134.281,-437.089 144.674,-439.146 143.688,-432.216"/>
<text text-anchor="middle" x="201" y="-437" font-family="Helvetica,sans-Serif" font-size="10.00"> p_statsTypeList</text>
</g>
<!-- Node17 -->
<g id="node17" class="node"><title>Node17</title>
<polygon fill="white" stroke="#bfbfbf" points="291.5,-197.5 291.5,-216.5 326.5,-216.5 326.5,-197.5 291.5,-197.5"/>
<text text-anchor="middle" x="309" y="-204.5" font-family="Helvetica,sans-Serif" font-size="10.00">bool</text>
</g>
<!-- Node17&#45;&gt;Node1 -->
<g id="edge31" class="edge"><title>Node17&#45;&gt;Node1</title>
<path fill="none" stroke="#9a32cd" stroke-dasharray="5,2" d="M336.389,-195.461C371.608,-180.58 436.255,-155.063 494,-142 539.334,-131.744 551.584,-133.448 598,-131 649.04,-128.308 662.363,-124.054 713,-131 809.471,-144.234 830.271,-163.606 924,-190 934.823,-193.048 946.625,-196.389 957.266,-199.408"/>
<polygon fill="#9a32cd" stroke="#9a32cd" points="334.675,-192.387 326.854,-199.535 337.425,-198.824 334.675,-192.387"/>
<text text-anchor="middle" x="655.5" y="-156" font-family="Helvetica,sans-Serif" font-size="10.00"> p_zoomBoxEnabled</text>
<text text-anchor="middle" x="655.5" y="-145" font-family="Helvetica,sans-Serif" font-size="10.00">p_enableSplit</text>
<text text-anchor="middle" x="655.5" y="-134" font-family="Helvetica,sans-Serif" font-size="10.00">p_BlockMouse</text>
</g>
<!-- Node17&#45;&gt;Node3 -->
<g id="edge22" class="edge"><title>Node17&#45;&gt;Node3</title>
<path fill="none" stroke="#9a32cd" stroke-dasharray="5,2" d="M336.818,-206.228C385.491,-205.197 491.526,-204.65 580,-216 640.104,-223.71 657.733,-221.152 713,-246 733.717,-255.314 754.477,-271.891 766.513,-282.395"/>
<polygon fill="#9a32cd" stroke="#9a32cd" points="336.437,-202.736 326.523,-206.473 336.603,-209.734 336.437,-202.736"/>
<text text-anchor="middle" x="537" y="-219" font-family="Helvetica,sans-Serif" font-size="10.00"> p_drawGrid</text>
</g>
<!-- Node17&#45;&gt;Node13 -->
<g id="edge21" class="edge"><title>Node17&#45;&gt;Node13</title>
<path fill="none" stroke="#9a32cd" stroke-dasharray="5,2" d="M336.129,-214.783C373.306,-227.268 440.847,-255.434 476,-304 498.387,-334.929 470.036,-358.276 494,-388 497.114,-391.863 501.184,-394.969 505.563,-397.459"/>
<polygon fill="#9a32cd" stroke="#9a32cd" points="337.093,-211.416 326.501,-211.674 334.941,-218.077 337.093,-211.416"/>
<text text-anchor="middle" x="422" y="-307" font-family="Helvetica,sans-Serif" font-size="10.00"> p_statisticSourceOwner</text>
</g>
<!-- Node18 -->
<g id="node18" class="node"><title>Node18</title>
<polygon fill="white" stroke="#bfbfbf" points="514.5,-359.5 514.5,-378.5 559.5,-378.5 559.5,-359.5 514.5,-359.5"/>
<text text-anchor="middle" x="537" y="-366.5" font-family="Helvetica,sans-Serif" font-size="10.00">QRect</text>
</g>
<!-- Node18&#45;&gt;Node3 -->
<g id="edge23" class="edge"><title>Node18&#45;&gt;Node3</title>
<path fill="none" stroke="#9a32cd" stroke-dasharray="5,2" d="M569.126,-359.11C578.373,-356.321 588.556,-353.397 598,-351 648.607,-338.153 664.009,-345.055 713,-327 730.824,-320.431 749.733,-309.544 762.337,-301.654"/>
<polygon fill="#9a32cd" stroke="#9a32cd" points="568.071,-355.772 559.537,-362.051 570.124,-362.464 568.071,-355.772"/>
<text text-anchor="middle" x="655.5" y="-365" font-family="Helvetica,sans-Serif" font-size="10.00"> p_displayRect</text>
<text text-anchor="middle" x="655.5" y="-354" font-family="Helvetica,sans-Serif" font-size="10.00">p_selectionRect</text>
</g>
<!-- Node19 -->
<g id="node19" class="node"><title>Node19</title>
<polygon fill="white" stroke="#bfbfbf" points="513.5,-151.5 513.5,-170.5 560.5,-170.5 560.5,-151.5 513.5,-151.5"/>
<text text-anchor="middle" x="537" y="-158.5" font-family="Helvetica,sans-Serif" font-size="10.00">QPoint</text>
</g>
<!-- Node19&#45;&gt;Node1 -->
<g id="edge32" class="edge"><title>Node19&#45;&gt;Node1</title>
<path fill="none" stroke="#9a32cd" stroke-dasharray="5,2" d="M571.061,-164.503C649.78,-172.844 848.664,-193.918 941.652,-203.771"/>
<polygon fill="#9a32cd" stroke="#9a32cd" points="571.088,-160.986 560.775,-163.413 570.35,-167.948 571.088,-160.986"/>
<text text-anchor="middle" x="778" y="-217" font-family="Helvetica,sans-Serif" font-size="10.00"> p_TouchPoint</text>
<text text-anchor="middle" x="778" y="-206" font-family="Helvetica,sans-Serif" font-size="10.00">p_selectionStartPoint</text>
<text text-anchor="middle" x="778" y="-195" font-family="Helvetica,sans-Serif" font-size="10.00">p_selectionEndPoint</text>
</g>
<!-- Node19&#45;&gt;Node3 -->
<g id="edge24" class="edge"><title>Node19&#45;&gt;Node3</title>
<path fill="none" stroke="#9a32cd" stroke-dasharray="5,2" d="M570.207,-173.198C579.13,-176.324 588.873,-179.503 598,-182 648.276,-195.754 669.032,-177.005 713,-205 743.527,-224.437 764.401,-264.015 772.826,-282.318"/>
<polygon fill="#9a32cd" stroke="#9a32cd" points="571.153,-169.819 560.558,-169.732 568.786,-176.407 571.153,-169.819"/>
<text text-anchor="middle" x="655.5" y="-208" font-family="Helvetica,sans-Serif" font-size="10.00"> p_zoomBoxPoint</text>
</g>
<!-- Node20 -->
<g id="node20" class="node"><title>Node20</title>
<polygon fill="white" stroke="#bfbfbf" points="737.5,-76.5 737.5,-95.5 818.5,-95.5 818.5,-76.5 737.5,-76.5"/>
<text text-anchor="middle" x="778" y="-83.5" font-family="Helvetica,sans-Serif" font-size="10.00">SelectionMode</text>
</g>
<!-- Node20&#45;&gt;Node1 -->
<g id="edge25" class="edge"><title>Node20&#45;&gt;Node1</title>
<path fill="none" stroke="#9a32cd" stroke-dasharray="5,2" d="M828.811,-79.7624C858.549,-78.5126 895.877,-81.5025 924,-99 962.162,-122.743 981.701,-177.014 988.336,-199.237"/>
<polygon fill="#9a32cd" stroke="#9a32cd" points="828.412,-76.2798 818.636,-80.3644 828.825,-83.2675 828.412,-76.2798"/>
<text text-anchor="middle" x="883.5" y="-102" font-family="Helvetica,sans-Serif" font-size="10.00"> selectionMode_</text>
</g>
<!-- Node21 -->
<g id="node21" class="node"><title>Node21</title>
<polygon fill="white" stroke="#bfbfbf" points="759,-38.5 759,-57.5 797,-57.5 797,-38.5 759,-38.5"/>
<text text-anchor="middle" x="778" y="-45.5" font-family="Helvetica,sans-Serif" font-size="10.00">qreal</text>
</g>
<!-- Node21&#45;&gt;Node1 -->
<g id="edge28" class="edge"><title>Node21&#45;&gt;Node1</title>
<path fill="none" stroke="#9a32cd" stroke-dasharray="5,2" d="M807.303,-43.7073C838.823,-40.5194 889.825,-40.2911 924,-65 970.477,-98.604 985.659,-172.664 989.719,-199.255"/>
<polygon fill="#9a32cd" stroke="#9a32cd" points="806.546,-40.2724 797.026,-44.9223 807.368,-47.2239 806.546,-40.2724"/>
<text text-anchor="middle" x="883.5" y="-68" font-family="Helvetica,sans-Serif" font-size="10.00"> p_TouchScale</text>
</g>
<!-- Node22 -->
<g id="node22" class="node"><title>Node22</title>
<polygon fill="white" stroke="#bfbfbf" points="747,-0.5 747,-19.5 809,-19.5 809,-0.5 747,-0.5"/>
<text text-anchor="middle" x="778" y="-7.5" font-family="Helvetica,sans-Serif" font-size="10.00">ViewMode</text>
</g>
<!-- Node22&#45;&gt;Node1 -->
<g id="edge30" class="edge"><title>Node22&#45;&gt;Node1</title>
<path fill="none" stroke="#9a32cd" stroke-dasharray="5,2" d="M819.356,-4.4333C851.094,-2.33725 894.701,-4.79302 924,-28 979.947,-72.314 989.177,-168.189 990.699,-199.146"/>
<polygon fill="#9a32cd" stroke="#9a32cd" points="818.758,-0.971122 809.085,-5.29523 819.343,-7.9466 818.758,-0.971122"/>
<text text-anchor="middle" x="883.5" y="-31" font-family="Helvetica,sans-Serif" font-size="10.00"> viewMode_</text>
</g>
</g>
</svg>
        <g id="navigator" transform="translate(0 0)" fill="#404254">
                <rect fill="#f2f5e9" fill-opacity="0.5" stroke="#606060" stroke-width=".5" x="0" y="0" width="60" height="60"/>
                <use id="zoomplus" xlink:href="#zoomPlus" x="17" y="9" onmousedown="handleZoom(evt,'in')"/>
                <use id="zoomminus" xlink:href="#zoomMin" x="42" y="9" onmousedown="handleZoom(evt,'out')"/>
                <use id="reset" xlink:href="#resetDef" x="30" y="36" onmousedown="handleReset()"/>
                <g id="arrowUp" xlink:href="#dirArrow" transform="translate(30 24)" onmousedown="handlePan(0,-1)">
                  <use xlink:href="#rim" fill="#404040">
                        <set attributeName="fill" to="#808080" begin="arrowUp.mouseover" end="arrowUp.mouseout"/>
                  </use>
                  <path fill="none" stroke="white" stroke-width="1.5" d="M0,-3.0v7 M-2.5,-0.5L0,-3.0L2.5,-0.5"/>
                </g>
                <g id="arrowRight" xlink:href="#dirArrow" transform="rotate(90) translate(36 -43)" onmousedown="handlePan(1,0)">
                  <use xlink:href="#rim" fill="#404040">
                        <set attributeName="fill" to="#808080" begin="arrowRight.mouseover" end="arrowRight.mouseout"/>
                  </use>
                  <path fill="none" stroke="white" stroke-width="1.5" d="M0,-3.0v7 M-2.5,-0.5L0,-3.0L2.5,-0.5"/>
                </g>
                <g id="arrowDown" xlink:href="#dirArrow" transform="rotate(180) translate(-30 -48)" onmousedown="handlePan(0,1)">
                  <use xlink:href="#rim" fill="#404040">
                        <set attributeName="fill" to="#808080" begin="arrowDown.mouseover" end="arrowDown.mouseout"/>
                  </use>
                  <path fill="none" stroke="white" stroke-width="1.5" d="M0,-3.0v7 M-2.5,-0.5L0,-3.0L2.5,-0.5"/>
                </g>
                <g id="arrowLeft" xlink:href="#dirArrow" transform="rotate(270) translate(-36 17)" onmousedown="handlePan(-1,0)">
                  <use xlink:href="#rim" fill="#404040">
                        <set attributeName="fill" to="#808080" begin="arrowLeft.mouseover" end="arrowLeft.mouseout"/>
                  </use>
                  <path fill="none" stroke="white" stroke-width="1.5" d="M0,-3.0v7 M-2.5,-0.5L0,-3.0L2.5,-0.5"/>
                </g>
        </g>
        <svg viewBox="0 0 15 15" width="100%" height="30px" preserveAspectRatio="xMaxYMin meet">
         <g id="arrow_out" transform="scale(0.3 0.3)">
          <a xlink:href="classDisplaySplitWidget__coll__graph_org.svg" target="_base">
           <rect id="button" ry="5" rx="5" y="6" x="6" height="38" width="38"
                fill="#f2f5e9" fill-opacity="0.5" stroke="#606060" stroke-width="1.0"/>
           <path id="arrow"
             d="M 11.500037,31.436501 C 11.940474,20.09759 22.043105,11.32322 32.158766,21.979434 L 37.068811,17.246167 C 37.068811,17.246167 37.088388,32 37.088388,32 L 22.160133,31.978069 C 22.160133,31.978069 26.997745,27.140456 26.997745,27.140456 C 18.528582,18.264221 13.291696,25.230495 11.500037,31.436501 z"
             style="fill:#404040;"/>
          </a>
         </g>
        </svg>
</svg>
