<?xml version="1.0" encoding="UTF-8" standalone="no"?>
<!DOCTYPE svg PUBLIC "-//W3C//DTD SVG 1.1//EN"
 "http://www.w3.org/Graphics/SVG/1.1/DTD/svg11.dtd">
<!-- Generated by graphviz version 2.38.0 (20140413.2041)
 -->
<!-- Title: MainWindow::updateFrameControls Pages: 1 -->
<svg width="1893pt" height="717pt"
 viewBox="0.00 0.00 1893.00 717.08" xmlns="http://www.w3.org/2000/svg" xmlns:xlink="http://www.w3.org/1999/xlink">
<g id="graph0" class="graph" transform="scale(1 1) rotate(0) translate(4 713.078)">
<title>MainWindow::updateFrameControls</title>
<polygon fill="white" stroke="none" points="-4,4 -4,-713.078 1889,-713.078 1889,4 -4,4"/>
<!-- Node1 -->
<g id="node1" class="node"><title>Node1</title>
<polygon fill="#bfbfbf" stroke="black" points="0,-566.578 0,-585.578 173,-585.578 173,-566.578 0,-566.578"/>
<text text-anchor="middle" x="86.5" y="-573.578" font-family="Helvetica,sans-Serif" font-size="10.00">MainWindow::updateFrameControls</text>
</g>
<!-- Node2 -->
<g id="node2" class="node"><title>Node2</title>
<g id="a_node2"><a xlink:href="classMainWindow.html#a904474dcf6f3da3e95bba2380192129a" target="_top" xlink:title="set current frame for playback ">
<polygon fill="white" stroke="black" points="209,-566.578 209,-585.578 361,-585.578 361,-566.578 209,-566.578"/>
<text text-anchor="middle" x="285" y="-573.578" font-family="Helvetica,sans-Serif" font-size="10.00">MainWindow::setCurrentFrame</text>
</a>
</g>
</g>
<!-- Node1&#45;&gt;Node2 -->
<g id="edge1" class="edge"><title>Node1&#45;&gt;Node2</title>
<path fill="none" stroke="midnightblue" d="M183.195,-569.33C191.805,-569.317 200.441,-569.372 208.838,-569.497"/>
<polygon fill="midnightblue" stroke="midnightblue" points="183.099,-565.831 173.116,-569.378 183.133,-572.831 183.099,-565.831"/>
</g>
<!-- Node2&#45;&gt;Node1 -->
<g id="edge16" class="edge"><title>Node2&#45;&gt;Node1</title>
<path fill="none" stroke="midnightblue" d="M198.608,-582.777C190.154,-582.845 181.572,-582.845 173.116,-582.778"/>
<polygon fill="midnightblue" stroke="midnightblue" points="198.878,-586.274 208.838,-582.66 198.798,-579.274 198.878,-586.274"/>
</g>
<!-- Node3 -->
<g id="node3" class="node"><title>Node3</title>
<g id="a_node3"><a xlink:href="classMainWindow.html#a8b244be8b7b7db1b08de2a2acb9409db" target="_top" xlink:title="MainWindow::MainWindow">
<polygon fill="white" stroke="black" points="1750,-408.578 1750,-427.578 1885,-427.578 1885,-408.578 1750,-408.578"/>
<text text-anchor="middle" x="1817.5" y="-415.578" font-family="Helvetica,sans-Serif" font-size="10.00">MainWindow::MainWindow</text>
</a>
</g>
</g>
<!-- Node2&#45;&gt;Node3 -->
<g id="edge2" class="edge"><title>Node2&#45;&gt;Node3</title>
<path fill="none" stroke="midnightblue" d="M302.573,-592.922C322.923,-612.546 359.39,-644.402 397,-661.078 505.221,-709.064 540.617,-709.078 659,-709.078 659,-709.078 659,-709.078 1424,-709.078 1477.32,-709.078 1609.28,-690.242 1714,-600.078 1772.26,-549.917 1804.32,-458.021 1813.62,-427.914"/>
<polygon fill="midnightblue" stroke="midnightblue" points="304.938,-590.338 295.356,-585.818 300.027,-595.327 304.938,-590.338"/>
</g>
<!-- Node4 -->
<g id="node4" class="node"><title>Node4</title>
<g id="a_node4"><a xlink:href="classMainWindow.html#a6f33e93f427ff2df80edffcb3ad944da" target="_top" xlink:title="MainWindow::updateSelected\lItems">
<polygon fill="white" stroke="black" points="1168,-318.078 1168,-348.078 1314,-348.078 1314,-318.078 1168,-318.078"/>
<text text-anchor="start" x="1176" y="-336.078" font-family="Helvetica,sans-Serif" font-size="10.00">MainWindow::updateSelected</text>
<text text-anchor="middle" x="1241" y="-325.078" font-family="Helvetica,sans-Serif" font-size="10.00">Items</text>
</a>
</g>
</g>
<!-- Node2&#45;&gt;Node4 -->
<g id="edge3" class="edge"><title>Node2&#45;&gt;Node4</title>
<path fill="none" stroke="midnightblue" d="M308.902,-561.127C330.662,-547.661 364.759,-528.438 397,-518.078 508.962,-482.103 541.4,-481.078 659,-481.078 659,-481.078 659,-481.078 861.5,-481.078 1006.49,-481.078 1162.6,-385.71 1218.55,-348.084"/>
<polygon fill="midnightblue" stroke="midnightblue" points="306.966,-558.21 300.372,-566.504 310.698,-564.132 306.966,-558.21"/>
</g>
<!-- Node11 -->
<g id="node11" class="node"><title>Node11</title>
<g id="a_node11"><a xlink:href="classMainWindow.html#ab0bccbff44df197a71751db53003079a" target="_top" xlink:title="updates the Playback controls to fit the current YUV settings ">
<polygon fill="white" stroke="black" points="397,-236.078 397,-266.078 546,-266.078 546,-236.078 397,-236.078"/>
<text text-anchor="start" x="405" y="-254.078" font-family="Helvetica,sans-Serif" font-size="10.00">MainWindow::refreshPlayback</text>
<text text-anchor="middle" x="471.5" y="-243.078" font-family="Helvetica,sans-Serif" font-size="10.00">Widgets</text>
</a>
</g>
</g>
<!-- Node2&#45;&gt;Node11 -->
<g id="edge17" class="edge"><title>Node2&#45;&gt;Node11</title>
<path fill="none" stroke="midnightblue" d="M296.562,-557.473C329.72,-499.065 431.343,-320.054 461.79,-266.42"/>
<polygon fill="midnightblue" stroke="midnightblue" points="293.415,-555.927 291.522,-566.352 299.502,-559.383 293.415,-555.927"/>
</g>
<!-- Node22 -->
<g id="node22" class="node"><title>Node22</title>
<g id="a_node22"><a xlink:href="classMainWindow.html#a153ba12113986ad0acac82272d0ad6eb" target="_top" xlink:title="Toggles playback of selected video file. ">
<polygon fill="white" stroke="black" points="1168,-661.578 1168,-680.578 1314,-680.578 1314,-661.578 1168,-661.578"/>
<text text-anchor="middle" x="1241" y="-668.578" font-family="Helvetica,sans-Serif" font-size="10.00">MainWindow::togglePlayback</text>
</a>
</g>
</g>
<!-- Node2&#45;&gt;Node22 -->
<g id="edge38" class="edge"><title>Node2&#45;&gt;Node22</title>
<path fill="none" stroke="midnightblue" d="M311.297,-590.741C333.26,-602.832 366.277,-619.5 397,-629.078 509.587,-664.178 541.069,-671.078 659,-671.078 659,-671.078 659,-671.078 861.5,-671.078 968.117,-671.078 1091.63,-671.078 1167.79,-671.078"/>
<polygon fill="midnightblue" stroke="midnightblue" points="312.751,-587.544 302.316,-585.712 309.331,-593.652 312.751,-587.544"/>
</g>
<!-- Node25 -->
<g id="node25" class="node"><title>Node25</title>
<g id="a_node25"><a xlink:href="classMainWindow.html#a939e90ddfe07d74be87b351ca2171fb0" target="_top" xlink:title="Stops playback of selected video file. ">
<polygon fill="white" stroke="black" points="1192,-509.578 1192,-528.578 1290,-528.578 1290,-509.578 1192,-509.578"/>
<text text-anchor="middle" x="1241" y="-516.578" font-family="Helvetica,sans-Serif" font-size="10.00">MainWindow::stop</text>
</a>
</g>
</g>
<!-- Node2&#45;&gt;Node25 -->
<g id="edge43" class="edge"><title>Node2&#45;&gt;Node25</title>
<path fill="none" stroke="midnightblue" d="M322.232,-563.33C343.707,-556.274 371.606,-547.966 397,-543.078 511.824,-520.976 542.068,-519.078 659,-519.078 659,-519.078 659,-519.078 861.5,-519.078 980.274,-519.078 1120.01,-519.078 1191.9,-519.078"/>
<polygon fill="midnightblue" stroke="midnightblue" points="320.921,-560.078 312.548,-566.57 323.142,-566.716 320.921,-560.078"/>
</g>
<!-- Node27 -->
<g id="node27" class="node"><title>Node27</title>
<g id="a_node27"><a xlink:href="classMainWindow.html#aaa425b1554af3c1f58cc70b4815082ae" target="_top" xlink:title="this event is called when the playback&#45;timer is triggered. It will paint the next frame ...">
<polygon fill="white" stroke="black" points="1360,-509.578 1360,-528.578 1486,-528.578 1486,-509.578 1360,-509.578"/>
<text text-anchor="middle" x="1423" y="-516.578" font-family="Helvetica,sans-Serif" font-size="10.00">MainWindow::timerEvent</text>
</a>
</g>
</g>
<!-- Node2&#45;&gt;Node27 -->
<g id="edge48" class="edge"><title>Node2&#45;&gt;Node27</title>
<path fill="none" stroke="midnightblue" d="M371.72,-569.229C447.281,-563.785 560.379,-557.078 659,-557.078 659,-557.078 659,-557.078 1058.5,-557.078 1172.37,-557.078 1201.01,-552.183 1314,-538.078 1333.65,-535.626 1355.16,-532.03 1373.77,-528.625"/>
<polygon fill="midnightblue" stroke="midnightblue" points="371.032,-565.77 361.313,-569.988 371.541,-572.751 371.032,-565.77"/>
</g>
<!-- Node28 -->
<g id="node28" class="node"><title>Node28</title>
<g id="a_node28"><a xlink:href="classMainWindow.html#a4c2deac99b9b27dbb251d52380150515" target="_top" xlink:title="MainWindow::nextFrame">
<polygon fill="white" stroke="black" points="1178.5,-585.578 1178.5,-604.578 1303.5,-604.578 1303.5,-585.578 1178.5,-585.578"/>
<text text-anchor="middle" x="1241" y="-592.578" font-family="Helvetica,sans-Serif" font-size="10.00">MainWindow::nextFrame</text>
</a>
</g>
</g>
<!-- Node2&#45;&gt;Node28 -->
<g id="edge49" class="edge"><title>Node2&#45;&gt;Node28</title>
<path fill="none" stroke="midnightblue" d="M371.72,-582.927C447.281,-588.372 560.379,-595.078 659,-595.078 659,-595.078 659,-595.078 861.5,-595.078 973.21,-595.078 1103.47,-595.078 1178.37,-595.078"/>
<polygon fill="midnightblue" stroke="midnightblue" points="371.541,-579.405 361.313,-582.168 371.032,-586.387 371.541,-579.405"/>
</g>
<!-- Node29 -->
<g id="node29" class="node"><title>Node29</title>
<g id="a_node29"><a xlink:href="classMainWindow.html#abbeaa37510f3ebb176767c939bf80b55" target="_top" xlink:title="MainWindow::previousFrame">
<polygon fill="white" stroke="black" points="1169.5,-623.578 1169.5,-642.578 1312.5,-642.578 1312.5,-623.578 1169.5,-623.578"/>
<text text-anchor="middle" x="1241" y="-630.578" font-family="Helvetica,sans-Serif" font-size="10.00">MainWindow::previousFrame</text>
</a>
</g>
</g>
<!-- Node2&#45;&gt;Node29 -->
<g id="edge53" class="edge"><title>Node2&#45;&gt;Node29</title>
<path fill="none" stroke="midnightblue" d="M330.142,-588.154C350.39,-593.347 374.785,-599.12 397,-603.078 512.388,-623.636 541.795,-633.078 659,-633.078 659,-633.078 659,-633.078 861.5,-633.078 968.775,-633.078 1093.15,-633.078 1169.19,-633.078"/>
<polygon fill="midnightblue" stroke="midnightblue" points="330.824,-584.715 320.265,-585.584 329.061,-591.49 330.824,-584.715"/>
</g>
<!-- Node4&#45;&gt;Node3 -->
<g id="edge4" class="edge"><title>Node4&#45;&gt;Node3</title>
<path fill="none" stroke="midnightblue" d="M1324.15,-316.669C1420.66,-301.059 1584.09,-286.22 1714,-333.078 1756.41,-348.374 1793.68,-389.686 1809.04,-408.505"/>
<polygon fill="midnightblue" stroke="midnightblue" points="1323.45,-313.237 1314.16,-318.326 1324.59,-320.142 1323.45,-313.237"/>
</g>
<!-- Node5 -->
<g id="node5" class="node"><title>Node5</title>
<g id="a_node5"><a xlink:href="classMainWindow.html#a6be7246a1a0ecf5d1442bb1775c3d9b3" target="_top" xlink:title="MainWindow::addDifference\lSequence">
<polygon fill="white" stroke="black" points="1353,-422.078 1353,-452.078 1493,-452.078 1493,-422.078 1353,-422.078"/>
<text text-anchor="start" x="1361" y="-440.078" font-family="Helvetica,sans-Serif" font-size="10.00">MainWindow::addDifference</text>
<text text-anchor="middle" x="1423" y="-429.078" font-family="Helvetica,sans-Serif" font-size="10.00">Sequence</text>
</a>
</g>
</g>
<!-- Node4&#45;&gt;Node5 -->
<g id="edge5" class="edge"><title>Node4&#45;&gt;Node5</title>
<path fill="none" stroke="midnightblue" d="M1267.06,-354.762C1288.08,-372.103 1319.49,-396.08 1350,-412.078 1357.03,-415.765 1364.72,-419.096 1372.38,-422.037"/>
<polygon fill="midnightblue" stroke="midnightblue" points="1269.17,-351.972 1259.26,-348.241 1264.68,-357.342 1269.17,-351.972"/>
</g>
<!-- Node8 -->
<g id="node8" class="node"><title>Node8</title>
<g id="a_node8"><a xlink:href="classMainWindow.html#af5ecc7c65080215b49b9d931c56c65c9" target="_top" xlink:title="MainWindow::editTextFrame">
<polygon fill="white" stroke="black" points="1352,-383.578 1352,-402.578 1494,-402.578 1494,-383.578 1352,-383.578"/>
<text text-anchor="middle" x="1423" y="-390.578" font-family="Helvetica,sans-Serif" font-size="10.00">MainWindow::editTextFrame</text>
</a>
</g>
</g>
<!-- Node4&#45;&gt;Node8 -->
<g id="edge10" class="edge"><title>Node4&#45;&gt;Node8</title>
<path fill="none" stroke="midnightblue" d="M1297.06,-351.432C1328.91,-362.047 1367.66,-374.964 1393.48,-383.571"/>
<polygon fill="midnightblue" stroke="midnightblue" points="1298.02,-348.061 1287.42,-348.219 1295.8,-354.702 1298.02,-348.061"/>
</g>
<!-- Node10 -->
<g id="node10" class="node"><title>Node10</title>
<g id="a_node10"><a xlink:href="classMainWindow.html#a156c29c6d7ab278e4246c88a0fcbe2f2" target="_top" xlink:title="MainWindow::updateSettings">
<polygon fill="white" stroke="black" points="1551,-342.578 1551,-361.578 1695,-361.578 1695,-342.578 1551,-342.578"/>
<text text-anchor="middle" x="1623" y="-349.578" font-family="Helvetica,sans-Serif" font-size="10.00">MainWindow::updateSettings</text>
</a>
</g>
</g>
<!-- Node4&#45;&gt;Node10 -->
<g id="edge14" class="edge"><title>Node4&#45;&gt;Node10</title>
<path fill="none" stroke="midnightblue" d="M1324.55,-337.206C1392.09,-340.583 1486.63,-345.31 1550.87,-348.522"/>
<polygon fill="midnightblue" stroke="midnightblue" points="1324.53,-333.701 1314.37,-336.697 1324.18,-340.692 1324.53,-333.701"/>
</g>
<!-- Node6 -->
<g id="node6" class="node"><title>Node6</title>
<g id="a_node6"><a xlink:href="classMainWindow.html#a9df7443ce5f907903438bb6a9abe9a33" target="_top" xlink:title="MainWindow::createMenusAnd\lActions">
<polygon fill="white" stroke="black" points="1547,-495.078 1547,-525.078 1699,-525.078 1699,-495.078 1547,-495.078"/>
<text text-anchor="start" x="1555" y="-513.078" font-family="Helvetica,sans-Serif" font-size="10.00">MainWindow::createMenusAnd</text>
<text text-anchor="middle" x="1623" y="-502.078" font-family="Helvetica,sans-Serif" font-size="10.00">Actions</text>
</a>
</g>
</g>
<!-- Node5&#45;&gt;Node6 -->
<g id="edge6" class="edge"><title>Node5&#45;&gt;Node6</title>
<path fill="none" stroke="midnightblue" d="M1477.83,-455.572C1483.97,-457.739 1490.12,-459.94 1496,-462.078 1525.48,-472.807 1558.62,-485.456 1583.51,-495.075"/>
<polygon fill="midnightblue" stroke="midnightblue" points="1478.84,-452.217 1468.24,-452.208 1476.52,-458.822 1478.84,-452.217"/>
</g>
<!-- Node7 -->
<g id="node7" class="node"><title>Node7</title>
<g id="a_node7"><a xlink:href="classMainWindow.html#aaba5c236313378986c42c4a634c4cfb9" target="_top" xlink:title="MainWindow::onCustomContextMenu">
<polygon fill="white" stroke="black" points="1532,-430.578 1532,-449.578 1714,-449.578 1714,-430.578 1532,-430.578"/>
<text text-anchor="middle" x="1623" y="-437.578" font-family="Helvetica,sans-Serif" font-size="10.00">MainWindow::onCustomContextMenu</text>
</a>
</g>
</g>
<!-- Node5&#45;&gt;Node7 -->
<g id="edge8" class="edge"><title>Node5&#45;&gt;Node7</title>
<path fill="none" stroke="midnightblue" d="M1503.33,-438.28C1512.73,-438.423 1522.38,-438.569 1531.91,-438.713"/>
<polygon fill="midnightblue" stroke="midnightblue" points="1503.3,-434.78 1493.25,-438.128 1503.2,-441.779 1503.3,-434.78"/>
</g>
<!-- Node6&#45;&gt;Node3 -->
<g id="edge7" class="edge"><title>Node6&#45;&gt;Node3</title>
<path fill="none" stroke="midnightblue" d="M1664.85,-490.554C1705.28,-471.232 1765.48,-442.46 1796.47,-427.65"/>
<polygon fill="midnightblue" stroke="midnightblue" points="1663.3,-487.416 1655.79,-494.886 1666.32,-493.732 1663.3,-487.416"/>
</g>
<!-- Node7&#45;&gt;Node3 -->
<g id="edge9" class="edge"><title>Node7&#45;&gt;Node3</title>
<path fill="none" stroke="midnightblue" d="M1717.36,-429.408C1728.34,-428.154 1739.36,-426.894 1749.87,-425.693"/>
<polygon fill="midnightblue" stroke="midnightblue" points="1716.85,-425.944 1707.31,-430.557 1717.65,-432.899 1716.85,-425.944"/>
</g>
<!-- Node8&#45;&gt;Node7 -->
<g id="edge11" class="edge"><title>Node8&#45;&gt;Node7</title>
<path fill="none" stroke="midnightblue" d="M1471.27,-405.182C1490.14,-409.938 1512.07,-415.373 1532,-420.078 1546.95,-423.609 1563.35,-427.304 1578,-430.544"/>
<polygon fill="midnightblue" stroke="midnightblue" points="1471.98,-401.751 1461.43,-402.692 1470.26,-408.538 1471.98,-401.751"/>
</g>
<!-- Node9 -->
<g id="node9" class="node"><title>Node9</title>
<g id="a_node9"><a xlink:href="classMainWindow.html#ab18c663524e2c130759c0ca960129ea4" target="_top" xlink:title="MainWindow::onItemDouble\lClicked">
<polygon fill="white" stroke="black" points="1553,-381.078 1553,-411.078 1693,-411.078 1693,-381.078 1553,-381.078"/>
<text text-anchor="start" x="1561" y="-399.078" font-family="Helvetica,sans-Serif" font-size="10.00">MainWindow::onItemDouble</text>
<text text-anchor="middle" x="1623" y="-388.078" font-family="Helvetica,sans-Serif" font-size="10.00">Clicked</text>
</a>
</g>
</g>
<!-- Node8&#45;&gt;Node9 -->
<g id="edge12" class="edge"><title>Node8&#45;&gt;Node9</title>
<path fill="none" stroke="midnightblue" d="M1504.47,-394.298C1520.46,-394.54 1537.1,-394.792 1552.67,-395.028"/>
<polygon fill="midnightblue" stroke="midnightblue" points="1504.14,-390.792 1494.09,-394.14 1504.03,-397.791 1504.14,-390.792"/>
</g>
<!-- Node9&#45;&gt;Node3 -->
<g id="edge13" class="edge"><title>Node9&#45;&gt;Node3</title>
<path fill="none" stroke="midnightblue" d="M1703.28,-405.139C1718.75,-406.906 1734.81,-408.743 1749.82,-410.458"/>
<polygon fill="midnightblue" stroke="midnightblue" points="1703.56,-401.648 1693.22,-403.99 1702.76,-408.603 1703.56,-401.648"/>
</g>
<!-- Node10&#45;&gt;Node3 -->
<g id="edge15" class="edge"><title>Node10&#45;&gt;Node3</title>
<path fill="none" stroke="midnightblue" d="M1688.77,-363.943C1697.34,-366.038 1705.93,-368.415 1714,-371.078 1744.86,-381.27 1778.8,-398.006 1798.84,-408.515"/>
<polygon fill="midnightblue" stroke="midnightblue" points="1689.31,-360.473 1678.77,-361.614 1687.72,-367.291 1689.31,-360.473"/>
</g>
<!-- Node11&#45;&gt;Node4 -->
<g id="edge18" class="edge"><title>Node11&#45;&gt;Node4</title>
<path fill="none" stroke="midnightblue" d="M485.261,-227.187C502.632,-197.519 536.807,-148.352 582,-128.078 645.259,-99.6994 669.965,-114.722 738,-128.078 929.912,-165.753 1140.94,-277.287 1213.68,-317.992"/>
<polygon fill="midnightblue" stroke="midnightblue" points="482.11,-225.648 480.219,-236.072 488.198,-229.102 482.11,-225.648"/>
</g>
<!-- Node12 -->
<g id="node12" class="node"><title>Node12</title>
<g id="a_node12"><a xlink:href="classMainWindow.html#a2cae0b3ed4283301ecc11dc881d31422" target="_top" xlink:title="A file option was changed by the user (width/height/start/end/rate/sampling/frameSize/pixelFormat). ">
<polygon fill="white" stroke="black" points="592,-50.0783 592,-80.0783 728,-80.0783 728,-50.0783 592,-50.0783"/>
<text text-anchor="start" x="600" y="-68.0783" font-family="Helvetica,sans-Serif" font-size="10.00">MainWindow::on_fileOption</text>
<text text-anchor="middle" x="660" y="-57.0783" font-family="Helvetica,sans-Serif" font-size="10.00">ValueChanged</text>
</a>
</g>
</g>
<!-- Node11&#45;&gt;Node12 -->
<g id="edge19" class="edge"><title>Node11&#45;&gt;Node12</title>
<path fill="none" stroke="midnightblue" d="M483.784,-226.804C500.668,-192.918 535.555,-131.509 582,-95.0783 589.676,-89.0572 598.707,-84.1181 607.832,-80.1111"/>
<polygon fill="midnightblue" stroke="midnightblue" points="480.545,-225.46 479.316,-235.983 486.839,-228.523 480.545,-225.46"/>
</g>
<!-- Node14 -->
<g id="node14" class="node"><title>Node14</title>
<g id="a_node14"><a xlink:href="classMainWindow.html#a23cc43af3c6873f9a936b5af05c99f49" target="_top" xlink:title="The display objects information changed. Update. ">
<polygon fill="white" stroke="black" points="983,-69.0783 983,-99.0783 1132,-99.0783 1132,-69.0783 983,-69.0783"/>
<text text-anchor="start" x="991" y="-87.0783" font-family="Helvetica,sans-Serif" font-size="10.00">MainWindow::currentSelection</text>
<text text-anchor="middle" x="1057.5" y="-76.0783" font-family="Helvetica,sans-Serif" font-size="10.00">InformationChanged</text>
</a>
</g>
</g>
<!-- Node11&#45;&gt;Node14 -->
<g id="edge26" class="edge"><title>Node11&#45;&gt;Node14</title>
<path fill="none" stroke="midnightblue" d="M476.837,-226.191C486.402,-179.858 514.105,-81.3372 582,-40.0783 726.938,47.9977 944.022,-33.2005 1024.76,-69.0485"/>
<polygon fill="midnightblue" stroke="midnightblue" points="473.399,-225.532 474.921,-236.017 480.27,-226.871 473.399,-225.532"/>
</g>
<!-- Node15 -->
<g id="node15" class="node"><title>Node15</title>
<g id="a_node15"><a xlink:href="classMainWindow.html#a3e50d275dfc7ac5871360412dd83f7eb" target="_top" xlink:title="MainWindow::on_LumaScale\lSpinBox_valueChanged">
<polygon fill="white" stroke="black" points="588.5,-285.078 588.5,-315.078 731.5,-315.078 731.5,-285.078 588.5,-285.078"/>
<text text-anchor="start" x="596.5" y="-303.078" font-family="Helvetica,sans-Serif" font-size="10.00">MainWindow::on_LumaScale</text>
<text text-anchor="middle" x="660" y="-292.078" font-family="Helvetica,sans-Serif" font-size="10.00">SpinBox_valueChanged</text>
</a>
</g>
</g>
<!-- Node11&#45;&gt;Node15 -->
<g id="edge27" class="edge"><title>Node11&#45;&gt;Node15</title>
<path fill="none" stroke="midnightblue" d="M539.575,-268.701C559.979,-274.062 582.202,-279.901 601.885,-285.072"/>
<polygon fill="midnightblue" stroke="midnightblue" points="540.285,-265.269 529.724,-266.113 538.506,-272.039 540.285,-265.269"/>
</g>
<!-- Node16 -->
<g id="node16" class="node"><title>Node16</title>
<g id="a_node16"><a xlink:href="classMainWindow.html#a1836ff843ea4ed48e29ab90b08050bf7" target="_top" xlink:title="MainWindow::on_ColorComponents\lComboBox_currentIndexChanged">
<polygon fill="white" stroke="black" points="774,-329.078 774,-359.078 947,-359.078 947,-329.078 774,-329.078"/>
<text text-anchor="start" x="782" y="-347.078" font-family="Helvetica,sans-Serif" font-size="10.00">MainWindow::on_ColorComponents</text>
<text text-anchor="middle" x="860.5" y="-336.078" font-family="Helvetica,sans-Serif" font-size="10.00">ComboBox_currentIndexChanged</text>
</a>
</g>
</g>
<!-- Node11&#45;&gt;Node16 -->
<g id="edge37" class="edge"><title>Node11&#45;&gt;Node16</title>
<path fill="none" stroke="midnightblue" d="M496.936,-272.828C517.9,-290.068 549.751,-313.033 582,-324.078 643.804,-345.246 717.76,-349.629 773.777,-349.055"/>
<polygon fill="midnightblue" stroke="midnightblue" points="499.092,-270.068 489.187,-266.306 494.584,-275.423 499.092,-270.068"/>
</g>
<!-- Node17 -->
<g id="node17" class="node"><title>Node17</title>
<g id="a_node17"><a xlink:href="classMainWindow.html#aa8b7f37af858513162a091d7f81561b4" target="_top" xlink:title="MainWindow::on_ChromaScale\lSpinBox_valueChanged">
<polygon fill="white" stroke="black" points="583,-236.078 583,-266.078 737,-266.078 737,-236.078 583,-236.078"/>
<text text-anchor="start" x="591" y="-254.078" font-family="Helvetica,sans-Serif" font-size="10.00">MainWindow::on_ChromaScale</text>
<text text-anchor="middle" x="660" y="-243.078" font-family="Helvetica,sans-Serif" font-size="10.00">SpinBox_valueChanged</text>
</a>
</g>
</g>
<!-- Node11&#45;&gt;Node17 -->
<g id="edge29" class="edge"><title>Node11&#45;&gt;Node17</title>
<path fill="none" stroke="midnightblue" d="M556.436,-251.078C565.206,-251.078 574.087,-251.078 582.765,-251.078"/>
<polygon fill="midnightblue" stroke="midnightblue" points="556.21,-247.578 546.21,-251.078 556.21,-254.578 556.21,-247.578"/>
</g>
<!-- Node18 -->
<g id="node18" class="node"><title>Node18</title>
<g id="a_node18"><a xlink:href="classMainWindow.html#ab0e3857ccb336133d522cde81e73988e" target="_top" xlink:title="MainWindow::on_LumaOffset\lSpinBox_valueChanged">
<polygon fill="white" stroke="black" points="587,-422.078 587,-452.078 733,-452.078 733,-422.078 587,-422.078"/>
<text text-anchor="start" x="595" y="-440.078" font-family="Helvetica,sans-Serif" font-size="10.00">MainWindow::on_LumaOffset</text>
<text text-anchor="middle" x="660" y="-429.078" font-family="Helvetica,sans-Serif" font-size="10.00">SpinBox_valueChanged</text>
</a>
</g>
</g>
<!-- Node11&#45;&gt;Node18 -->
<g id="edge31" class="edge"><title>Node11&#45;&gt;Node18</title>
<path fill="none" stroke="midnightblue" d="M483.043,-275.978C499.235,-311.302 533.521,-375.701 582,-412.078 587.171,-415.959 592.97,-419.252 599.005,-422.043"/>
<polygon fill="midnightblue" stroke="midnightblue" points="486.05,-274.129 478.78,-266.423 479.658,-276.981 486.05,-274.129"/>
</g>
<!-- Node19 -->
<g id="node19" class="node"><title>Node19</title>
<g id="a_node19"><a xlink:href="classMainWindow.html#adac0478ee9ee4dd30f05fc7f5d300825" target="_top" xlink:title="MainWindow::on_ChromaOffset\lSpinBox_valueChanged">
<polygon fill="white" stroke="black" points="582,-373.078 582,-403.078 738,-403.078 738,-373.078 582,-373.078"/>
<text text-anchor="start" x="590" y="-391.078" font-family="Helvetica,sans-Serif" font-size="10.00">MainWindow::on_ChromaOffset</text>
<text text-anchor="middle" x="660" y="-380.078" font-family="Helvetica,sans-Serif" font-size="10.00">SpinBox_valueChanged</text>
</a>
</g>
</g>
<!-- Node11&#45;&gt;Node19 -->
<g id="edge33" class="edge"><title>Node11&#45;&gt;Node19</title>
<path fill="none" stroke="midnightblue" d="M491.01,-273.972C511.234,-297.73 545.631,-334.629 582,-358.078 591.043,-363.909 601.397,-368.898 611.517,-373.039"/>
<polygon fill="midnightblue" stroke="midnightblue" points="493.571,-271.579 484.467,-266.16 488.205,-276.074 493.571,-271.579"/>
</g>
<!-- Node20 -->
<g id="node20" class="node"><title>Node20</title>
<g id="a_node20"><a xlink:href="classMainWindow.html#a7f6cbe2be23224eb9eef6af3f55a6d4f" target="_top" xlink:title="MainWindow::on_LumaInvert\lCheckBox_toggled">
<polygon fill="white" stroke="black" points="588.5,-187.078 588.5,-217.078 731.5,-217.078 731.5,-187.078 588.5,-187.078"/>
<text text-anchor="start" x="596.5" y="-205.078" font-family="Helvetica,sans-Serif" font-size="10.00">MainWindow::on_LumaInvert</text>
<text text-anchor="middle" x="660" y="-194.078" font-family="Helvetica,sans-Serif" font-size="10.00">CheckBox_toggled</text>
</a>
</g>
</g>
<!-- Node11&#45;&gt;Node20 -->
<g id="edge35" class="edge"><title>Node11&#45;&gt;Node20</title>
<path fill="none" stroke="midnightblue" d="M539.575,-233.455C559.979,-228.095 582.202,-222.256 601.885,-217.084"/>
<polygon fill="midnightblue" stroke="midnightblue" points="538.506,-230.117 529.724,-236.044 540.285,-236.888 538.506,-230.117"/>
</g>
<!-- Node21 -->
<g id="node21" class="node"><title>Node21</title>
<g id="a_node21"><a xlink:href="classMainWindow.html#aaa518172394694dea45234097327e979" target="_top" xlink:title="MainWindow::on_ChromaInvert\lCheckBox_toggled">
<polygon fill="white" stroke="black" points="583,-138.078 583,-168.078 737,-168.078 737,-138.078 583,-138.078"/>
<text text-anchor="start" x="591" y="-156.078" font-family="Helvetica,sans-Serif" font-size="10.00">MainWindow::on_ChromaInvert</text>
<text text-anchor="middle" x="660" y="-145.078" font-family="Helvetica,sans-Serif" font-size="10.00">CheckBox_toggled</text>
</a>
</g>
</g>
<!-- Node11&#45;&gt;Node21 -->
<g id="edge36" class="edge"><title>Node11&#45;&gt;Node21</title>
<path fill="none" stroke="midnightblue" d="M499.203,-229.76C520.584,-213.522 551.88,-191.562 582,-177.078 588.814,-173.801 596.18,-170.839 603.561,-168.205"/>
<polygon fill="midnightblue" stroke="midnightblue" points="497.026,-227.019 491.238,-235.894 501.297,-232.565 497.026,-227.019"/>
</g>
<!-- Node12&#45;&gt;Node3 -->
<g id="edge20" class="edge"><title>Node12&#45;&gt;Node3</title>
<path fill="none" stroke="midnightblue" d="M738.534,-57.2752C818.207,-49.9395 945.882,-40.0783 1056.5,-40.0783 1056.5,-40.0783 1056.5,-40.0783 1424,-40.0783 1643.01,-40.0783 1786.89,-349.189 1812.42,-408.355"/>
<polygon fill="midnightblue" stroke="midnightblue" points="737.731,-53.8348 728.098,-58.2469 738.38,-60.8046 737.731,-53.8348"/>
</g>
<!-- Node13 -->
<g id="node13" class="node"><title>Node13</title>
<g id="a_node13"><a xlink:href="classMainWindow.html#a29e6418f12a4331860a7db3616e91600" target="_top" xlink:title="updates the YUV information GUI elements from the current Renderobject ">
<polygon fill="white" stroke="black" points="786,-69.0783 786,-99.0783 935,-99.0783 935,-69.0783 786,-69.0783"/>
<text text-anchor="start" x="794" y="-87.0783" font-family="Helvetica,sans-Serif" font-size="10.00">MainWindow::updateSelection</text>
<text text-anchor="middle" x="860.5" y="-76.0783" font-family="Helvetica,sans-Serif" font-size="10.00">MetaInfo</text>
</a>
</g>
</g>
<!-- Node12&#45;&gt;Node13 -->
<g id="edge21" class="edge"><title>Node12&#45;&gt;Node13</title>
<path fill="none" stroke="midnightblue" d="M738.352,-65.8804C753.989,-67.1624 770.39,-68.751 785.894,-70.4873"/>
<polygon fill="midnightblue" stroke="midnightblue" points="738.446,-62.3772 728.203,-65.0838 737.898,-69.3557 738.446,-62.3772"/>
</g>
<!-- Node13&#45;&gt;Node4 -->
<g id="edge22" class="edge"><title>Node13&#45;&gt;Node4</title>
<path fill="none" stroke="midnightblue" d="M942.78,-101.207C1016.72,-117.321 1116.62,-140.634 1132,-152.078 1191.16,-196.085 1224.1,-282.953 1235.44,-317.945"/>
<polygon fill="midnightblue" stroke="midnightblue" points="943.502,-97.7819 932.987,-99.0812 942.018,-104.623 943.502,-97.7819"/>
</g>
<!-- Node13&#45;&gt;Node12 -->
<g id="edge23" class="edge"><title>Node13&#45;&gt;Node12</title>
<path fill="none" stroke="midnightblue" d="M775.594,-82.7248C759.777,-81.3607 743.426,-79.7121 728.203,-77.9378"/>
<polygon fill="midnightblue" stroke="midnightblue" points="775.639,-86.2404 785.894,-83.5785 776.218,-79.2644 775.639,-86.2404"/>
</g>
<!-- Node13&#45;&gt;Node14 -->
<g id="edge24" class="edge"><title>Node13&#45;&gt;Node14</title>
<path fill="none" stroke="midnightblue" d="M945.59,-84.0783C958.04,-84.0783 970.787,-84.0783 982.998,-84.0783"/>
<polygon fill="midnightblue" stroke="midnightblue" points="945.221,-80.5784 935.221,-84.0783 945.221,-87.5784 945.221,-80.5784"/>
</g>
<!-- Node14&#45;&gt;Node4 -->
<g id="edge25" class="edge"><title>Node14&#45;&gt;Node4</title>
<path fill="none" stroke="midnightblue" d="M1118.56,-104.083C1123.4,-107.004 1127.97,-110.32 1132,-114.078 1195.74,-173.466 1226.74,-278.628 1236.49,-317.807"/>
<polygon fill="midnightblue" stroke="midnightblue" points="1120.09,-100.928 1109.63,-99.2437 1116.75,-107.083 1120.09,-100.928"/>
</g>
<!-- Node15&#45;&gt;Node16 -->
<g id="edge28" class="edge"><title>Node15&#45;&gt;Node16</title>
<path fill="none" stroke="midnightblue" d="M738.904,-317.347C756.348,-321.213 774.716,-325.285 791.711,-329.052"/>
<polygon fill="midnightblue" stroke="midnightblue" points="739.278,-313.845 728.757,-315.098 737.763,-320.679 739.278,-313.845"/>
</g>
<!-- Node17&#45;&gt;Node16 -->
<g id="edge30" class="edge"><title>Node17&#45;&gt;Node16</title>
<path fill="none" stroke="midnightblue" d="M724.254,-269.58C728.949,-271.322 733.576,-273.159 738,-275.078 773.829,-290.621 812.648,-313.905 836.525,-329.046"/>
<polygon fill="midnightblue" stroke="midnightblue" points="725.158,-266.187 714.563,-266.14 722.816,-272.783 725.158,-266.187"/>
</g>
<!-- Node18&#45;&gt;Node16 -->
<g id="edge32" class="edge"><title>Node18&#45;&gt;Node16</title>
<path fill="none" stroke="midnightblue" d="M721.535,-418.68C727.156,-416.596 732.72,-414.386 738,-412.078 773.217,-396.684 811.557,-374.181 835.556,-359.338"/>
<polygon fill="midnightblue" stroke="midnightblue" points="720.3,-415.405 712.06,-422.064 722.655,-421.997 720.3,-415.405"/>
</g>
<!-- Node19&#45;&gt;Node16 -->
<g id="edge34" class="edge"><title>Node19&#45;&gt;Node16</title>
<path fill="none" stroke="midnightblue" d="M738.904,-370.81C756.348,-366.943 774.716,-362.872 791.711,-359.104"/>
<polygon fill="midnightblue" stroke="midnightblue" points="737.763,-367.478 728.757,-373.059 739.278,-374.312 737.763,-367.478"/>
</g>
<!-- Node22&#45;&gt;Node6 -->
<g id="edge39" class="edge"><title>Node22&#45;&gt;Node6</title>
<path fill="none" stroke="midnightblue" d="M1295.33,-682.269C1350.93,-690.746 1437.91,-694.652 1496,-652.078 1530.75,-626.611 1503.8,-594.646 1532,-562.078 1545.94,-545.981 1566.15,-533.676 1583.89,-525.086"/>
<polygon fill="midnightblue" stroke="midnightblue" points="1295.76,-678.793 1285.33,-680.643 1294.64,-685.702 1295.76,-678.793"/>
</g>
<!-- Node23 -->
<g id="node23" class="node"><title>Node23</title>
<g id="a_node23"><a xlink:href="classMainWindow.html#a9c4f542263838b9ecd06eae839a42a34" target="_top" xlink:title="MainWindow::keyPressEvent">
<polygon fill="white" stroke="black" points="1350,-623.578 1350,-642.578 1496,-642.578 1496,-623.578 1350,-623.578"/>
<text text-anchor="middle" x="1423" y="-630.578" font-family="Helvetica,sans-Serif" font-size="10.00">MainWindow::keyPressEvent</text>
</a>
</g>
</g>
<!-- Node22&#45;&gt;Node23 -->
<g id="edge40" class="edge"><title>Node22&#45;&gt;Node23</title>
<path fill="none" stroke="midnightblue" d="M1297.33,-659.397C1322.86,-654.008 1352.78,-647.692 1376.91,-642.598"/>
<polygon fill="midnightblue" stroke="midnightblue" points="1296.48,-655.999 1287.42,-661.489 1297.93,-662.848 1296.48,-655.999"/>
</g>
<!-- Node24 -->
<g id="node24" class="node"><title>Node24</title>
<g id="a_node24"><a xlink:href="classMainWindow.html#ab98bca74e18eefa8e0582b5a9eb78d10" target="_top" xlink:title="MainWindow::handleKeyPress">
<polygon fill="white" stroke="black" points="1548,-571.578 1548,-590.578 1698,-590.578 1698,-571.578 1548,-571.578"/>
<text text-anchor="middle" x="1623" y="-578.578" font-family="Helvetica,sans-Serif" font-size="10.00">MainWindow::handleKeyPress</text>
</a>
</g>
</g>
<!-- Node23&#45;&gt;Node24 -->
<g id="edge41" class="edge"><title>Node23&#45;&gt;Node24</title>
<path fill="none" stroke="midnightblue" d="M1470.33,-620.91C1505.49,-611.678 1553.13,-599.165 1585.58,-590.643"/>
<polygon fill="midnightblue" stroke="midnightblue" points="1469.1,-617.615 1460.32,-623.541 1470.88,-624.386 1469.1,-617.615"/>
</g>
<!-- Node24&#45;&gt;Node3 -->
<g id="edge42" class="edge"><title>Node24&#45;&gt;Node3</title>
<path fill="none" stroke="midnightblue" d="M1657.37,-567.23C1675.12,-559.006 1696.78,-547.555 1714,-534.078 1756.11,-501.112 1794.69,-449.303 1809.78,-427.867"/>
<polygon fill="midnightblue" stroke="midnightblue" points="1655.64,-564.167 1647.96,-571.459 1658.51,-570.552 1655.64,-564.167"/>
</g>
<!-- Node26 -->
<g id="node26" class="node"><title>Node26</title>
<g id="a_node26"><a xlink:href="classMainWindow.html#a24bbb70be6f6e1007b0d6cbf7cd5f64d" target="_top" xlink:title="Deletes a group from playlist. ">
<polygon fill="white" stroke="black" points="1360.5,-471.578 1360.5,-490.578 1485.5,-490.578 1485.5,-471.578 1360.5,-471.578"/>
<text text-anchor="middle" x="1423" y="-478.578" font-family="Helvetica,sans-Serif" font-size="10.00">MainWindow::deleteItem</text>
</a>
</g>
</g>
<!-- Node25&#45;&gt;Node26 -->
<g id="edge44" class="edge"><title>Node25&#45;&gt;Node26</title>
<path fill="none" stroke="midnightblue" d="M1297.33,-507.397C1322.86,-502.008 1352.78,-495.692 1376.91,-490.598"/>
<polygon fill="midnightblue" stroke="midnightblue" points="1296.48,-503.999 1287.42,-509.489 1297.93,-510.848 1296.48,-503.999"/>
</g>
<!-- Node25&#45;&gt;Node27 -->
<g id="edge47" class="edge"><title>Node25&#45;&gt;Node27</title>
<path fill="none" stroke="midnightblue" d="M1300.25,-519.078C1319.26,-519.078 1340.43,-519.078 1359.72,-519.078"/>
<polygon fill="midnightblue" stroke="midnightblue" points="1300.24,-515.578 1290.24,-519.078 1300.24,-522.578 1300.24,-515.578"/>
</g>
<!-- Node26&#45;&gt;Node6 -->
<g id="edge45" class="edge"><title>Node26&#45;&gt;Node6</title>
<path fill="none" stroke="midnightblue" d="M1495.75,-491.588C1512.38,-494.023 1530.12,-496.621 1546.89,-499.077"/>
<polygon fill="midnightblue" stroke="midnightblue" points="1495.96,-488.081 1485.56,-490.095 1494.95,-495.007 1495.96,-488.081"/>
</g>
<!-- Node26&#45;&gt;Node7 -->
<g id="edge46" class="edge"><title>Node26&#45;&gt;Node7</title>
<path fill="none" stroke="midnightblue" d="M1479.93,-469.496C1510.28,-463.212 1547.33,-455.54 1575.98,-449.607"/>
<polygon fill="midnightblue" stroke="midnightblue" points="1479.01,-466.114 1469.92,-471.569 1480.42,-472.969 1479.01,-466.114"/>
</g>
<!-- Node28&#45;&gt;Node6 -->
<g id="edge50" class="edge"><title>Node28&#45;&gt;Node6</title>
<path fill="none" stroke="midnightblue" d="M1294.53,-583.329C1362.39,-568.148 1480.63,-541.701 1554.93,-525.082"/>
<polygon fill="midnightblue" stroke="midnightblue" points="1293.48,-579.977 1284.48,-585.575 1295.01,-586.808 1293.48,-579.977"/>
</g>
<!-- Node28&#45;&gt;Node23 -->
<g id="edge51" class="edge"><title>Node28&#45;&gt;Node23</title>
<path fill="none" stroke="midnightblue" d="M1297.33,-606.759C1322.86,-612.148 1352.78,-618.464 1376.91,-623.558"/>
<polygon fill="midnightblue" stroke="midnightblue" points="1297.93,-603.308 1287.42,-604.667 1296.48,-610.157 1297.93,-603.308"/>
</g>
<!-- Node28&#45;&gt;Node27 -->
<g id="edge52" class="edge"><title>Node28&#45;&gt;Node27</title>
<path fill="none" stroke="midnightblue" d="M1288,-582.341C1296.86,-579.172 1305.9,-575.416 1314,-571.078 1331.87,-561.514 1332.13,-552.643 1350,-543.078 1361.04,-537.172 1373.8,-532.344 1385.48,-528.608"/>
<polygon fill="midnightblue" stroke="midnightblue" points="1286.87,-579.03 1278.52,-585.549 1289.11,-585.661 1286.87,-579.03"/>
</g>
<!-- Node29&#45;&gt;Node6 -->
<g id="edge54" class="edge"><title>Node29&#45;&gt;Node6</title>
<path fill="none" stroke="midnightblue" d="M1301.59,-621.436C1353.68,-610.466 1430.94,-592.266 1496,-569.078 1530.58,-556.752 1568.52,-538.263 1593.63,-525.276"/>
<polygon fill="midnightblue" stroke="midnightblue" points="1300.6,-618.068 1291.52,-623.533 1302.02,-624.921 1300.6,-618.068"/>
</g>
<!-- Node29&#45;&gt;Node23 -->
<g id="edge55" class="edge"><title>Node29&#45;&gt;Node23</title>
<path fill="none" stroke="midnightblue" d="M1322.74,-633.078C1331.76,-633.078 1340.9,-633.078 1349.8,-633.078"/>
<polygon fill="midnightblue" stroke="midnightblue" points="1322.62,-629.578 1312.62,-633.078 1322.62,-636.578 1322.62,-629.578"/>
</g>
</g>
</svg>
