<?xml version="1.0" encoding="UTF-8" standalone="no"?>
<!DOCTYPE svg PUBLIC "-//W3C//DTD SVG 1.1//EN"
 "http://www.w3.org/Graphics/SVG/1.1/DTD/svg11.dtd">
<!-- Generated by graphviz version 2.38.0 (20140413.2041)
 -->
<!-- Title: EditTextDialog::loadItemStettings Pages: 1 -->
<svg width="700pt" height="78pt"
 viewBox="0.00 0.00 700.00 77.50" xmlns="http://www.w3.org/2000/svg" xmlns:xlink="http://www.w3.org/1999/xlink">
<g id="graph0" class="graph" transform="scale(1 1) rotate(0) translate(4 73.5)">
<title>EditTextDialog::loadItemStettings</title>
<polygon fill="white" stroke="none" points="-4,4 -4,-73.5 696,-73.5 696,4 -4,4"/>
<!-- Node1 -->
<g id="node1" class="node"><title>Node1</title>
<polygon fill="#bfbfbf" stroke="black" points="0,-22.5 0,-52.5 125,-52.5 125,-22.5 0,-22.5"/>
<text text-anchor="start" x="8" y="-40.5" font-family="Helvetica,sans-Serif" font-size="10.00">EditTextDialog::loadItem</text>
<text text-anchor="middle" x="62.5" y="-29.5" font-family="Helvetica,sans-Serif" font-size="10.00">Stettings</text>
</g>
<!-- Node2 -->
<g id="node2" class="node"><title>Node2</title>
<g id="a_node2"><a xlink:href="classMainWindow.html#af5ecc7c65080215b49b9d931c56c65c9" target="_top" xlink:title="MainWindow::editTextFrame">
<polygon fill="white" stroke="black" points="161,-28 161,-47 303,-47 303,-28 161,-28"/>
<text text-anchor="middle" x="232" y="-35" font-family="Helvetica,sans-Serif" font-size="10.00">MainWindow::editTextFrame</text>
</a>
</g>
</g>
<!-- Node1&#45;&gt;Node2 -->
<g id="edge1" class="edge"><title>Node1&#45;&gt;Node2</title>
<path fill="none" stroke="midnightblue" d="M135.542,-37.5C143.946,-37.5 152.509,-37.5 160.886,-37.5"/>
<polygon fill="midnightblue" stroke="midnightblue" points="135.395,-34.0001 125.395,-37.5 135.395,-41.0001 135.395,-34.0001"/>
</g>
<!-- Node3 -->
<g id="node3" class="node"><title>Node3</title>
<g id="a_node3"><a xlink:href="classMainWindow.html#aaba5c236313378986c42c4a634c4cfb9" target="_top" xlink:title="MainWindow::onCustomContextMenu">
<polygon fill="white" stroke="black" points="339,-50 339,-69 521,-69 521,-50 339,-50"/>
<text text-anchor="middle" x="430" y="-57" font-family="Helvetica,sans-Serif" font-size="10.00">MainWindow::onCustomContextMenu</text>
</a>
</g>
</g>
<!-- Node2&#45;&gt;Node3 -->
<g id="edge2" class="edge"><title>Node2&#45;&gt;Node3</title>
<path fill="none" stroke="midnightblue" d="M313.298,-46.513C323.493,-47.6574 333.954,-48.8315 344.217,-49.9836"/>
<polygon fill="midnightblue" stroke="midnightblue" points="313.535,-43.0177 303.207,-45.3804 312.754,-49.9741 313.535,-43.0177"/>
</g>
<!-- Node5 -->
<g id="node5" class="node"><title>Node5</title>
<g id="a_node5"><a xlink:href="classMainWindow.html#ab18c663524e2c130759c0ca960129ea4" target="_top" xlink:title="MainWindow::onItemDouble\lClicked">
<polygon fill="white" stroke="black" points="360,-0.5 360,-30.5 500,-30.5 500,-0.5 360,-0.5"/>
<text text-anchor="start" x="368" y="-18.5" font-family="Helvetica,sans-Serif" font-size="10.00">MainWindow::onItemDouble</text>
<text text-anchor="middle" x="430" y="-7.5" font-family="Helvetica,sans-Serif" font-size="10.00">Clicked</text>
</a>
</g>
</g>
<!-- Node2&#45;&gt;Node5 -->
<g id="edge4" class="edge"><title>Node2&#45;&gt;Node5</title>
<path fill="none" stroke="midnightblue" d="M313.276,-28.4894C328.759,-26.7515 344.853,-24.9451 359.941,-23.2515"/>
<polygon fill="midnightblue" stroke="midnightblue" points="312.754,-25.0259 303.207,-29.6196 313.535,-31.9823 312.754,-25.0259"/>
</g>
<!-- Node4 -->
<g id="node4" class="node"><title>Node4</title>
<g id="a_node4"><a xlink:href="classMainWindow.html#a8b244be8b7b7db1b08de2a2acb9409db" target="_top" xlink:title="MainWindow::MainWindow">
<polygon fill="white" stroke="black" points="557,-28 557,-47 692,-47 692,-28 557,-28"/>
<text text-anchor="middle" x="624.5" y="-35" font-family="Helvetica,sans-Serif" font-size="10.00">MainWindow::MainWindow</text>
</a>
</g>
</g>
<!-- Node3&#45;&gt;Node4 -->
<g id="edge3" class="edge"><title>Node3&#45;&gt;Node4</title>
<path fill="none" stroke="midnightblue" d="M524.363,-48.8299C535.339,-47.5756 546.365,-46.3155 556.869,-45.115"/>
<polygon fill="midnightblue" stroke="midnightblue" points="523.852,-45.3655 514.314,-49.9784 524.646,-52.3202 523.852,-45.3655"/>
</g>
<!-- Node5&#45;&gt;Node4 -->
<g id="edge5" class="edge"><title>Node5&#45;&gt;Node4</title>
<path fill="none" stroke="midnightblue" d="M510.283,-24.5609C525.747,-26.3282 541.815,-28.1645 556.82,-29.8794"/>
<polygon fill="midnightblue" stroke="midnightblue" points="510.558,-21.0696 500.225,-23.4114 509.763,-28.0243 510.558,-21.0696"/>
</g>
</g>
</svg>
