<?xml version="1.0" encoding="UTF-8" standalone="no"?>
<!DOCTYPE svg PUBLIC "-//W3C//DTD SVG 1.1//EN"
 "http://www.w3.org/Graphics/SVG/1.1/DTD/svg11.dtd">
<!-- Generated by graphviz version 2.38.0 (20140413.2041)
 -->
<!-- Title: DisplayObject::displayImage Pages: 1 -->
<svg width="640pt" height="122pt"
 viewBox="0.00 0.00 640.00 121.50" xmlns="http://www.w3.org/2000/svg" xmlns:xlink="http://www.w3.org/1999/xlink">
<g id="graph0" class="graph" transform="scale(1 1) rotate(0) translate(4 117.5)">
<title>DisplayObject::displayImage</title>
<polygon fill="white" stroke="none" points="-4,4 -4,-117.5 636,-117.5 636,4 -4,4"/>
<!-- Node1 -->
<g id="node1" class="node"><title>Node1</title>
<polygon fill="#bfbfbf" stroke="black" points="0,-44.5 0,-63.5 142,-63.5 142,-44.5 0,-44.5"/>
<text text-anchor="middle" x="71" y="-51.5" font-family="Helvetica,sans-Serif" font-size="10.00">DisplayObject::displayImage</text>
</g>
<!-- Node2 -->
<g id="node2" class="node"><title>Node2</title>
<g id="a_node2"><a xlink:href="classDisplayWidget.html#acffa55d9477c7ada0ac15834d4c6460e" target="_top" xlink:title="DisplayWidget::drawFrame">
<polygon fill="white" stroke="black" points="185,-88.5 185,-107.5 320,-107.5 320,-88.5 185,-88.5"/>
<text text-anchor="middle" x="252.5" y="-95.5" font-family="Helvetica,sans-Serif" font-size="10.00">DisplayWidget::drawFrame</text>
</a>
</g>
</g>
<!-- Node1&#45;&gt;Node2 -->
<g id="edge1" class="edge"><title>Node1&#45;&gt;Node2</title>
<path fill="none" stroke="midnightblue" d="M120.828,-65.969C149.68,-73.0414 185.712,-81.8736 212.627,-88.4713"/>
<polygon fill="midnightblue" stroke="midnightblue" points="121.495,-62.5288 110.949,-63.5473 119.828,-69.3276 121.495,-62.5288"/>
</g>
<!-- Node6 -->
<g id="node6" class="node"><title>Node6</title>
<g id="a_node6"><a xlink:href="classDisplayWidget.html#a57993fce3ccd5406d4b2d17389172d99" target="_top" xlink:title="DisplayWidget::drawStatistics\lOverlay">
<polygon fill="white" stroke="black" points="178,-39 178,-69 327,-69 327,-39 178,-39"/>
<text text-anchor="start" x="186" y="-57" font-family="Helvetica,sans-Serif" font-size="10.00">DisplayWidget::drawStatistics</text>
<text text-anchor="middle" x="252.5" y="-46" font-family="Helvetica,sans-Serif" font-size="10.00">Overlay</text>
</a>
</g>
</g>
<!-- Node1&#45;&gt;Node6 -->
<g id="edge5" class="edge"><title>Node1&#45;&gt;Node6</title>
<path fill="none" stroke="midnightblue" d="M152.414,-54C160.874,-54 169.446,-54 177.825,-54"/>
<polygon fill="midnightblue" stroke="midnightblue" points="152.171,-50.5001 142.171,-54 152.171,-57.5001 152.171,-50.5001"/>
</g>
<!-- Node7 -->
<g id="node7" class="node"><title>Node7</title>
<g id="a_node7"><a xlink:href="classDisplayWidget.html#a8d78d2571b0b962ffda77608e24bd10c" target="_top" xlink:title="DisplayWidget::drawZoomBox">
<polygon fill="white" stroke="black" points="178,-0.5 178,-19.5 327,-19.5 327,-0.5 178,-0.5"/>
<text text-anchor="middle" x="252.5" y="-7.5" font-family="Helvetica,sans-Serif" font-size="10.00">DisplayWidget::drawZoomBox</text>
</a>
</g>
</g>
<!-- Node1&#45;&gt;Node7 -->
<g id="edge7" class="edge"><title>Node1&#45;&gt;Node7</title>
<path fill="none" stroke="midnightblue" d="M120.828,-42.031C149.68,-34.9586 185.712,-26.1264 212.627,-19.5287"/>
<polygon fill="midnightblue" stroke="midnightblue" points="119.828,-38.6724 110.949,-44.4527 121.495,-45.4712 119.828,-38.6724"/>
</g>
<!-- Node3 -->
<g id="node3" class="node"><title>Node3</title>
<g id="a_node3"><a xlink:href="classDisplayWidget.html#ab656f1b9e79ea8ab4fe7f75e45ef3af1" target="_top" xlink:title="DisplayWidget::clear">
<polygon fill="white" stroke="black" points="376,-88.5 376,-107.5 483,-107.5 483,-88.5 376,-88.5"/>
<text text-anchor="middle" x="429.5" y="-95.5" font-family="Helvetica,sans-Serif" font-size="10.00">DisplayWidget::clear</text>
</a>
</g>
</g>
<!-- Node2&#45;&gt;Node3 -->
<g id="edge2" class="edge"><title>Node2&#45;&gt;Node3</title>
<path fill="none" stroke="midnightblue" d="M330.211,-98C345.638,-98 361.519,-98 375.897,-98"/>
<polygon fill="midnightblue" stroke="midnightblue" points="330.159,-94.5001 320.159,-98 330.159,-101.5 330.159,-94.5001"/>
</g>
<!-- Node5 -->
<g id="node5" class="node"><title>Node5</title>
<g id="a_node5"><a xlink:href="classDisplayWidget.html#a753fc8e8eda233123a20940439599c51" target="_top" xlink:title="DisplayWidget::paintEvent">
<polygon fill="white" stroke="black" points="363,-44.5 363,-63.5 496,-63.5 496,-44.5 363,-44.5"/>
<text text-anchor="middle" x="429.5" y="-51.5" font-family="Helvetica,sans-Serif" font-size="10.00">DisplayWidget::paintEvent</text>
</a>
</g>
</g>
<!-- Node2&#45;&gt;Node5 -->
<g id="edge4" class="edge"><title>Node2&#45;&gt;Node5</title>
<path fill="none" stroke="midnightblue" d="M301.473,-85.9383C329.539,-78.8815 364.476,-70.0976 390.602,-63.5287"/>
<polygon fill="midnightblue" stroke="midnightblue" points="300.317,-82.6198 291.472,-88.4527 302.024,-89.4085 300.317,-82.6198"/>
</g>
<!-- Node4 -->
<g id="node4" class="node"><title>Node4</title>
<g id="a_node4"><a xlink:href="classDisplaySplitWidget.html#a7e5ce408b6b8003c1e56448f40952b0e" target="_top" xlink:title="DisplaySplitWidget\l::clear">
<polygon fill="white" stroke="black" points="532,-83 532,-113 632,-113 632,-83 532,-83"/>
<text text-anchor="start" x="540" y="-101" font-family="Helvetica,sans-Serif" font-size="10.00">DisplaySplitWidget</text>
<text text-anchor="middle" x="582" y="-90" font-family="Helvetica,sans-Serif" font-size="10.00">::clear</text>
</a>
</g>
</g>
<!-- Node3&#45;&gt;Node4 -->
<g id="edge3" class="edge"><title>Node3&#45;&gt;Node4</title>
<path fill="none" stroke="midnightblue" d="M493.335,-98C506.222,-98 519.608,-98 531.926,-98"/>
<polygon fill="midnightblue" stroke="midnightblue" points="493.138,-94.5001 483.138,-98 493.138,-101.5 493.138,-94.5001"/>
</g>
<!-- Node6&#45;&gt;Node5 -->
<g id="edge6" class="edge"><title>Node6&#45;&gt;Node5</title>
<path fill="none" stroke="midnightblue" d="M337.28,-54C345.896,-54 354.56,-54 362.937,-54"/>
<polygon fill="midnightblue" stroke="midnightblue" points="337.209,-50.5001 327.209,-54 337.209,-57.5001 337.209,-50.5001"/>
</g>
<!-- Node7&#45;&gt;Node5 -->
<g id="edge8" class="edge"><title>Node7&#45;&gt;Node5</title>
<path fill="none" stroke="midnightblue" d="M301.473,-22.0617C329.539,-29.1185 364.476,-37.9024 390.602,-44.4713"/>
<polygon fill="midnightblue" stroke="midnightblue" points="302.024,-18.5915 291.472,-19.5473 300.317,-25.3802 302.024,-18.5915"/>
</g>
</g>
</svg>
