<?xml version="1.0" encoding="UTF-8" standalone="no"?>
<!DOCTYPE svg PUBLIC "-//W3C//DTD SVG 1.1//EN"
 "http://www.w3.org/Graphics/SVG/1.1/DTD/svg11.dtd">
<!-- Generated by graphviz version 2.38.0 (20140413.2041)
 -->
<!-- Title: de265File::backgroundDecoder Pages: 1 -->
<svg width="475pt" height="72pt"
 viewBox="0.00 0.00 475.00 71.50" xmlns="http://www.w3.org/2000/svg" xmlns:xlink="http://www.w3.org/1999/xlink">
<g id="graph0" class="graph" transform="scale(1 1) rotate(0) translate(4 67.5)">
<title>de265File::backgroundDecoder</title>
<polygon fill="white" stroke="none" points="-4,4 -4,-67.5 471,-67.5 471,4 -4,4"/>
<!-- Node1 -->
<g id="node1" class="node"><title>Node1</title>
<polygon fill="#bfbfbf" stroke="black" points="0,-25 0,-44 152,-44 152,-25 0,-25"/>
<text text-anchor="middle" x="76" y="-32" font-family="Helvetica,sans-Serif" font-size="10.00">de265File::backgroundDecoder</text>
</g>
<!-- Node2 -->
<g id="node2" class="node"><title>Node2</title>
<g id="a_node2"><a xlink:href="classde265File.html#afc2f00a9676e0b5c3fdd821619bda482" target="_top" xlink:title="de265File::de265File">
<polygon fill="white" stroke="black" points="196.5,-44 196.5,-63 303.5,-63 303.5,-44 196.5,-44"/>
<text text-anchor="middle" x="250" y="-51" font-family="Helvetica,sans-Serif" font-size="10.00">de265File::de265File</text>
</a>
</g>
</g>
<!-- Node1&#45;&gt;Node2 -->
<g id="edge1" class="edge"><title>Node1&#45;&gt;Node2</title>
<path fill="none" stroke="midnightblue" d="M162.376,-43.931C173.993,-45.2144 185.626,-46.4994 196.426,-47.6924"/>
<polygon fill="midnightblue" stroke="midnightblue" points="162.515,-40.4253 152.191,-42.806 161.747,-47.3829 162.515,-40.4253"/>
</g>
<!-- Node3 -->
<g id="node3" class="node"><title>Node3</title>
<g id="a_node3"><a xlink:href="classde265File.html#a4778a7853c318063a9efd5f0990e79bf" target="_top" xlink:title="de265File::getOneFrame">
<polygon fill="white" stroke="black" points="188,-6 188,-25 312,-25 312,-6 188,-6"/>
<text text-anchor="middle" x="250" y="-13" font-family="Helvetica,sans-Serif" font-size="10.00">de265File::getOneFrame</text>
</a>
</g>
</g>
<!-- Node1&#45;&gt;Node3 -->
<g id="edge2" class="edge"><title>Node1&#45;&gt;Node3</title>
<path fill="none" stroke="midnightblue" d="M162.305,-25.0767C170.942,-24.1227 179.589,-23.1675 187.896,-22.2499"/>
<polygon fill="midnightblue" stroke="midnightblue" points="161.747,-21.6171 152.191,-26.194 162.515,-28.5747 161.747,-21.6171"/>
</g>
<!-- Node4 -->
<g id="node4" class="node"><title>Node4</title>
<g id="a_node4"><a xlink:href="classde265File.html#af878636f68cd2ee3a4dfc6b3b0169676" target="_top" xlink:title="de265File::loadStatistic\lToCache">
<polygon fill="white" stroke="black" points="348,-0.5 348,-30.5 467,-30.5 467,-0.5 348,-0.5"/>
<text text-anchor="start" x="356" y="-18.5" font-family="Helvetica,sans-Serif" font-size="10.00">de265File::loadStatistic</text>
<text text-anchor="middle" x="407.5" y="-7.5" font-family="Helvetica,sans-Serif" font-size="10.00">ToCache</text>
</a>
</g>
</g>
<!-- Node3&#45;&gt;Node4 -->
<g id="edge3" class="edge"><title>Node3&#45;&gt;Node4</title>
<path fill="none" stroke="midnightblue" d="M322.093,-15.5C330.747,-15.5 339.511,-15.5 347.954,-15.5"/>
<polygon fill="midnightblue" stroke="midnightblue" points="322.011,-12.0001 312.011,-15.5 322.011,-19.0001 322.011,-12.0001"/>
</g>
</g>
</svg>
