<?xml version="1.0" encoding="UTF-8" standalone="no"?>
<!DOCTYPE svg PUBLIC "-//W3C//DTD SVG 1.1//EN"
 "http://www.w3.org/Graphics/SVG/1.1/DTD/svg11.dtd">
<!-- Generated by graphviz version 2.38.0 (20140413.2041)
 -->
<!-- Title: PListParser::parsePList Pages: 1 -->
<svg width="1035pt" height="242pt"
 viewBox="0.00 0.00 1035.00 241.50" xmlns="http://www.w3.org/2000/svg" xmlns:xlink="http://www.w3.org/1999/xlink">
<g id="graph0" class="graph" transform="scale(1 1) rotate(0) translate(4 237.5)">
<title>PListParser::parsePList</title>
<polygon fill="white" stroke="none" points="-4,4 -4,-237.5 1031,-237.5 1031,4 -4,4"/>
<!-- Node1 -->
<g id="node1" class="node"><title>Node1</title>
<polygon fill="#bfbfbf" stroke="black" points="0,-104.5 0,-123.5 120,-123.5 120,-104.5 0,-104.5"/>
<text text-anchor="middle" x="60" y="-111.5" font-family="Helvetica,sans-Serif" font-size="10.00">PListParser::parsePList</text>
</g>
<!-- Node2 -->
<g id="node2" class="node"><title>Node2</title>
<g id="a_node2"><a xlink:href="classMainWindow.html#a2d8cea1d443550a8f14ce8c80d2608c6" target="_top" xlink:title="MainWindow::loadPlaylistFile">
<polygon fill="white" stroke="black" points="156,-104.5 156,-123.5 301,-123.5 301,-104.5 156,-104.5"/>
<text text-anchor="middle" x="228.5" y="-111.5" font-family="Helvetica,sans-Serif" font-size="10.00">MainWindow::loadPlaylistFile</text>
</a>
</g>
</g>
<!-- Node1&#45;&gt;Node2 -->
<g id="edge1" class="edge"><title>Node1&#45;&gt;Node2</title>
<path fill="none" stroke="midnightblue" d="M130.368,-114C138.828,-114 147.485,-114 155.976,-114"/>
<polygon fill="midnightblue" stroke="midnightblue" points="130.171,-110.5 120.17,-114 130.17,-117.5 130.171,-110.5"/>
</g>
<!-- Node3 -->
<g id="node3" class="node"><title>Node3</title>
<g id="a_node3"><a xlink:href="classMainWindow.html#a8ef1be3cb02e12d68d12375d1a7a0ced" target="_top" xlink:title="loads a list of yuv/csv files ">
<polygon fill="white" stroke="black" points="337,-104.5 337,-123.5 455,-123.5 455,-104.5 337,-104.5"/>
<text text-anchor="middle" x="396" y="-111.5" font-family="Helvetica,sans-Serif" font-size="10.00">MainWindow::loadFiles</text>
</a>
</g>
</g>
<!-- Node2&#45;&gt;Node3 -->
<g id="edge2" class="edge"><title>Node2&#45;&gt;Node3</title>
<path fill="none" stroke="midnightblue" d="M311.279,-114C319.95,-114 328.636,-114 336.955,-114"/>
<polygon fill="midnightblue" stroke="midnightblue" points="311.128,-110.5 301.128,-114 311.128,-117.5 311.128,-110.5"/>
</g>
<!-- Node4 -->
<g id="node4" class="node"><title>Node4</title>
<g id="a_node4"><a xlink:href="classDisplaySplitWidget.html#ac1d4ced58b2ac2b08153694a5de6232e" target="_top" xlink:title="DisplaySplitWidget\l::dropEvent">
<polygon fill="white" stroke="black" points="514.5,-203 514.5,-233 614.5,-233 614.5,-203 514.5,-203"/>
<text text-anchor="start" x="522.5" y="-221" font-family="Helvetica,sans-Serif" font-size="10.00">DisplaySplitWidget</text>
<text text-anchor="middle" x="564.5" y="-210" font-family="Helvetica,sans-Serif" font-size="10.00">::dropEvent</text>
</a>
</g>
</g>
<!-- Node3&#45;&gt;Node4 -->
<g id="edge3" class="edge"><title>Node3&#45;&gt;Node4</title>
<path fill="none" stroke="midnightblue" d="M413.223,-130.911C430.914,-148.517 460.762,-175.868 491,-193 498.298,-197.135 506.395,-200.749 514.455,-203.847"/>
<polygon fill="midnightblue" stroke="midnightblue" points="415.507,-128.241 405.993,-123.579 410.523,-133.157 415.507,-128.241"/>
</g>
<!-- Node5 -->
<g id="node5" class="node"><title>Node5</title>
<g id="a_node5"><a xlink:href="classMainWindow.html#a288b768c3c21a9171bdc56fe845ece8b" target="_top" xlink:title="Shows the file open dialog and loads all selected Files. ">
<polygon fill="white" stroke="black" points="506.5,-126.5 506.5,-145.5 622.5,-145.5 622.5,-126.5 506.5,-126.5"/>
<text text-anchor="middle" x="564.5" y="-133.5" font-family="Helvetica,sans-Serif" font-size="10.00">MainWindow::openFile</text>
</a>
</g>
</g>
<!-- Node3&#45;&gt;Node5 -->
<g id="edge4" class="edge"><title>Node3&#45;&gt;Node5</title>
<path fill="none" stroke="midnightblue" d="M465.504,-123.052C479.106,-124.849 493.251,-126.718 506.422,-128.458"/>
<polygon fill="midnightblue" stroke="midnightblue" points="465.606,-119.535 455.234,-121.695 464.689,-126.474 465.606,-119.535"/>
</g>
<!-- Node9 -->
<g id="node9" class="node"><title>Node9</title>
<g id="a_node9"><a xlink:href="classMainWindow.html#a935316315edb9b7af42657da20be0e54" target="_top" xlink:title="MainWindow::openRecentFile">
<polygon fill="white" stroke="black" points="491,-164.5 491,-183.5 638,-183.5 638,-164.5 491,-164.5"/>
<text text-anchor="middle" x="564.5" y="-171.5" font-family="Helvetica,sans-Serif" font-size="10.00">MainWindow::openRecentFile</text>
</a>
</g>
</g>
<!-- Node3&#45;&gt;Node9 -->
<g id="edge9" class="edge"><title>Node3&#45;&gt;Node9</title>
<path fill="none" stroke="midnightblue" d="M425.719,-127.911C444.099,-136.465 468.614,-147.237 491,-155 501.081,-158.496 512.142,-161.701 522.521,-164.444"/>
<polygon fill="midnightblue" stroke="midnightblue" points="426.99,-124.64 416.452,-123.544 424.006,-130.972 426.99,-124.64"/>
</g>
<!-- Node10 -->
<g id="node10" class="node"><title>Node10</title>
<g id="a_node10"><a xlink:href="classPlaylistTreeWidget.html#a295170eb269cc67050ea0b575cd0ab53" target="_top" xlink:title="PlaylistTreeWidget\l::dropEvent">
<polygon fill="white" stroke="black" points="515,-77 515,-107 614,-107 614,-77 515,-77"/>
<text text-anchor="start" x="523" y="-95" font-family="Helvetica,sans-Serif" font-size="10.00">PlaylistTreeWidget</text>
<text text-anchor="middle" x="564.5" y="-84" font-family="Helvetica,sans-Serif" font-size="10.00">::dropEvent</text>
</a>
</g>
</g>
<!-- Node3&#45;&gt;Node10 -->
<g id="edge11" class="edge"><title>Node3&#45;&gt;Node10</title>
<path fill="none" stroke="midnightblue" d="M465.446,-104.956C482.055,-102.762 499.476,-100.46 514.95,-98.4151"/>
<polygon fill="midnightblue" stroke="midnightblue" points="464.689,-101.526 455.234,-106.305 465.606,-108.465 464.689,-101.526"/>
</g>
<!-- Node11 -->
<g id="node11" class="node"><title>Node11</title>
<g id="a_node11"><a xlink:href="classYUViewApp.html#ac0f5381cc5b703a9ea704b5eedab4b7f" target="_top" xlink:title="YUViewApp::YUViewApp">
<polygon fill="white" stroke="black" points="500,-38.5 500,-57.5 629,-57.5 629,-38.5 500,-38.5"/>
<text text-anchor="middle" x="564.5" y="-45.5" font-family="Helvetica,sans-Serif" font-size="10.00">YUViewApp::YUViewApp</text>
</a>
</g>
</g>
<!-- Node3&#45;&gt;Node11 -->
<g id="edge12" class="edge"><title>Node3&#45;&gt;Node11</title>
<path fill="none" stroke="midnightblue" d="M423.236,-99.5226C441.773,-89.7036 467.417,-76.9344 491,-68 501.379,-64.0682 512.858,-60.5424 523.563,-57.5865"/>
<polygon fill="midnightblue" stroke="midnightblue" points="421.394,-96.5388 414.238,-104.352 424.705,-102.706 421.394,-96.5388"/>
</g>
<!-- Node12 -->
<g id="node12" class="node"><title>Node12</title>
<g id="a_node12"><a xlink:href="classYUViewApp.html#a2f5f937d6677018ef73a5ffc248f9891" target="_top" xlink:title="YUViewApp::event">
<polygon fill="white" stroke="black" points="514.5,-0.5 514.5,-19.5 614.5,-19.5 614.5,-0.5 514.5,-0.5"/>
<text text-anchor="middle" x="564.5" y="-7.5" font-family="Helvetica,sans-Serif" font-size="10.00">YUViewApp::event</text>
</a>
</g>
</g>
<!-- Node3&#45;&gt;Node12 -->
<g id="edge13" class="edge"><title>Node3&#45;&gt;Node12</title>
<path fill="none" stroke="midnightblue" d="M411.389,-96.747C428.435,-77.417 458.631,-46.5042 491,-29 498.211,-25.1007 506.263,-21.9698 514.306,-19.4654"/>
<polygon fill="midnightblue" stroke="midnightblue" points="408.596,-94.626 404.72,-104.486 413.899,-99.1951 408.596,-94.626"/>
</g>
<!-- Node6 -->
<g id="node6" class="node"><title>Node6</title>
<g id="a_node6"><a xlink:href="classMainWindow.html#a9df7443ce5f907903438bb6a9abe9a33" target="_top" xlink:title="MainWindow::createMenusAnd\lActions">
<polygon fill="white" stroke="black" points="689,-159 689,-189 841,-189 841,-159 689,-159"/>
<text text-anchor="start" x="697" y="-177" font-family="Helvetica,sans-Serif" font-size="10.00">MainWindow::createMenusAnd</text>
<text text-anchor="middle" x="765" y="-166" font-family="Helvetica,sans-Serif" font-size="10.00">Actions</text>
</a>
</g>
</g>
<!-- Node5&#45;&gt;Node6 -->
<g id="edge5" class="edge"><title>Node5&#45;&gt;Node6</title>
<path fill="none" stroke="midnightblue" d="M625.254,-147.439C645.298,-151.276 667.912,-155.605 688.974,-159.637"/>
<polygon fill="midnightblue" stroke="midnightblue" points="625.813,-143.983 615.334,-145.54 624.497,-150.858 625.813,-143.983"/>
</g>
<!-- Node8 -->
<g id="node8" class="node"><title>Node8</title>
<g id="a_node8"><a xlink:href="classMainWindow.html#aaba5c236313378986c42c4a634c4cfb9" target="_top" xlink:title="MainWindow::onCustomContextMenu">
<polygon fill="white" stroke="black" points="674,-120.5 674,-139.5 856,-139.5 856,-120.5 674,-120.5"/>
<text text-anchor="middle" x="765" y="-127.5" font-family="Helvetica,sans-Serif" font-size="10.00">MainWindow::onCustomContextMenu</text>
</a>
</g>
</g>
<!-- Node5&#45;&gt;Node8 -->
<g id="edge7" class="edge"><title>Node5&#45;&gt;Node8</title>
<path fill="none" stroke="midnightblue" d="M633.015,-133.959C646.189,-133.561 660.198,-133.138 673.968,-132.721"/>
<polygon fill="midnightblue" stroke="midnightblue" points="632.538,-130.472 622.648,-134.273 632.749,-137.469 632.538,-130.472"/>
</g>
<!-- Node7 -->
<g id="node7" class="node"><title>Node7</title>
<g id="a_node7"><a xlink:href="classMainWindow.html#a8b244be8b7b7db1b08de2a2acb9409db" target="_top" xlink:title="MainWindow::MainWindow">
<polygon fill="white" stroke="black" points="892,-142.5 892,-161.5 1027,-161.5 1027,-142.5 892,-142.5"/>
<text text-anchor="middle" x="959.5" y="-149.5" font-family="Helvetica,sans-Serif" font-size="10.00">MainWindow::MainWindow</text>
</a>
</g>
</g>
<!-- Node6&#45;&gt;Node7 -->
<g id="edge6" class="edge"><title>Node6&#45;&gt;Node7</title>
<path fill="none" stroke="midnightblue" d="M851.497,-164.229C864.989,-162.687 878.767,-161.112 891.752,-159.628"/>
<polygon fill="midnightblue" stroke="midnightblue" points="850.79,-160.787 841.253,-165.4 851.585,-167.742 850.79,-160.787"/>
</g>
<!-- Node8&#45;&gt;Node7 -->
<g id="edge8" class="edge"><title>Node8&#45;&gt;Node7</title>
<path fill="none" stroke="midnightblue" d="M859.363,-140.67C870.339,-141.924 881.365,-143.185 891.869,-144.385"/>
<polygon fill="midnightblue" stroke="midnightblue" points="859.646,-137.18 849.314,-139.522 858.852,-144.134 859.646,-137.18"/>
</g>
<!-- Node9&#45;&gt;Node6 -->
<g id="edge10" class="edge"><title>Node9&#45;&gt;Node6</title>
<path fill="none" stroke="midnightblue" d="M648.176,-174C661.605,-174 675.45,-174 688.691,-174"/>
<polygon fill="midnightblue" stroke="midnightblue" points="648.006,-170.5 638.006,-174 648.006,-177.5 648.006,-170.5"/>
</g>
</g>
</svg>
