<?xml version="1.0" encoding="UTF-8" standalone="no"?>
<!DOCTYPE svg PUBLIC "-//W3C//DTD SVG 1.1//EN"
 "http://www.w3.org/Graphics/SVG/1.1/DTD/svg11.dtd">
<!-- Generated by graphviz version 2.38.0 (20140413.2041)
 -->
<!-- Title: TextObject::refreshTextSize Pages: 1 -->
<svg width="649pt" height="116pt"
 viewBox="0.00 0.00 649.00 116.00" xmlns="http://www.w3.org/2000/svg" xmlns:xlink="http://www.w3.org/1999/xlink">
<g id="graph0" class="graph" transform="scale(1 1) rotate(0) translate(4 112)">
<title>TextObject::refreshTextSize</title>
<polygon fill="white" stroke="none" points="-4,4 -4,-112 645,-112 645,4 -4,4"/>
<!-- Node1 -->
<g id="node1" class="node"><title>Node1</title>
<polygon fill="#bfbfbf" stroke="black" points="0,-44.5 0,-63.5 140,-63.5 140,-44.5 0,-44.5"/>
<text text-anchor="middle" x="70" y="-51.5" font-family="Helvetica,sans-Serif" font-size="10.00">TextObject::refreshTextSize</text>
</g>
<!-- Node2 -->
<g id="node2" class="node"><title>Node2</title>
<g id="a_node2"><a xlink:href="classDisplayObject.html#afb3b221174f722f563e7bf55a1ddb29f" target="_top" xlink:title="DisplayObject::width">
<polygon fill="white" stroke="black" points="349,-88.5 349,-107.5 456,-107.5 456,-88.5 349,-88.5"/>
<text text-anchor="middle" x="402.5" y="-95.5" font-family="Helvetica,sans-Serif" font-size="10.00">DisplayObject::width</text>
</a>
</g>
</g>
<!-- Node1&#45;&gt;Node2 -->
<g id="edge1" class="edge"><title>Node1&#45;&gt;Node2</title>
<path fill="none" stroke="midnightblue" d="M119.766,-63.5426C137.436,-66.8101 157.577,-70.3151 176,-73 230.899,-81.0006 293.648,-87.7652 338.992,-92.232"/>
<polygon fill="midnightblue" stroke="midnightblue" points="338.678,-95.7179 348.97,-93.2056 339.357,-88.751 338.678,-95.7179"/>
</g>
<!-- Node3 -->
<g id="node3" class="node"><title>Node3</title>
<g id="a_node3"><a xlink:href="classDisplayObject.html#a814782fb1bf9e7a2ed7adab74872c08a" target="_top" xlink:title="DisplayObject::height">
<polygon fill="white" stroke="black" points="347.5,-0.5 347.5,-19.5 457.5,-19.5 457.5,-0.5 347.5,-0.5"/>
<text text-anchor="middle" x="402.5" y="-7.5" font-family="Helvetica,sans-Serif" font-size="10.00">DisplayObject::height</text>
</a>
</g>
</g>
<!-- Node1&#45;&gt;Node3 -->
<g id="edge2" class="edge"><title>Node1&#45;&gt;Node3</title>
<path fill="none" stroke="midnightblue" d="M119.766,-44.4574C137.436,-41.1899 157.577,-37.6849 176,-35 230.174,-27.105 291.993,-20.4137 337.187,-15.9461"/>
<polygon fill="midnightblue" stroke="midnightblue" points="337.534,-19.429 347.145,-14.9711 336.852,-12.4623 337.534,-19.429"/>
</g>
<!-- Node4 -->
<g id="node4" class="node"><title>Node4</title>
<g id="a_node4"><a xlink:href="classDisplayObject.html#af14049278f3dfdf62f4e88d5c24e03c7" target="_top" xlink:title="DisplayObject::setSize">
<polygon fill="white" stroke="black" points="176,-44.5 176,-63.5 293,-63.5 293,-44.5 176,-44.5"/>
<text text-anchor="middle" x="234.5" y="-51.5" font-family="Helvetica,sans-Serif" font-size="10.00">DisplayObject::setSize</text>
</a>
</g>
</g>
<!-- Node1&#45;&gt;Node4 -->
<g id="edge3" class="edge"><title>Node1&#45;&gt;Node4</title>
<path fill="none" stroke="midnightblue" d="M140.386,-54C148.788,-54 157.363,-54 165.741,-54"/>
<polygon fill="midnightblue" stroke="midnightblue" points="165.838,-57.5001 175.838,-54 165.838,-50.5001 165.838,-57.5001"/>
</g>
<!-- Node4&#45;&gt;Node2 -->
<g id="edge4" class="edge"><title>Node4&#45;&gt;Node2</title>
<path fill="none" stroke="midnightblue" d="M271.52,-63.5473C296.209,-70.0916 329.168,-78.8278 355.719,-85.8654"/>
<polygon fill="midnightblue" stroke="midnightblue" points="354.988,-89.2923 365.551,-88.4713 356.781,-82.5259 354.988,-89.2923"/>
</g>
<!-- Node4&#45;&gt;Node3 -->
<g id="edge5" class="edge"><title>Node4&#45;&gt;Node3</title>
<path fill="none" stroke="midnightblue" d="M271.008,-44.4615C288.47,-39.782 309.833,-34.074 329,-29 337.499,-26.75 346.563,-24.3641 355.301,-22.0708"/>
<polygon fill="midnightblue" stroke="midnightblue" points="356.195,-25.4548 364.98,-19.533 354.419,-18.6836 356.195,-25.4548"/>
</g>
<!-- Node5 -->
<g id="node5" class="node"><title>Node5</title>
<g id="a_node5"><a xlink:href="classDisplayObject.html#a64d01b5326cf6dae89928a7ad91b1283" target="_top" xlink:title="DisplayObject::refreshDisplay\lImage">
<polygon fill="white" stroke="black" points="329,-39 329,-69 476,-69 476,-39 329,-39"/>
<text text-anchor="start" x="337" y="-57" font-family="Helvetica,sans-Serif" font-size="10.00">DisplayObject::refreshDisplay</text>
<text text-anchor="middle" x="402.5" y="-46" font-family="Helvetica,sans-Serif" font-size="10.00">Image</text>
</a>
</g>
</g>
<!-- Node4&#45;&gt;Node5 -->
<g id="edge6" class="edge"><title>Node4&#45;&gt;Node5</title>
<path fill="none" stroke="midnightblue" d="M293.093,-54C301.371,-54 310.023,-54 318.672,-54"/>
<polygon fill="midnightblue" stroke="midnightblue" points="318.802,-57.5001 328.802,-54 318.802,-50.5001 318.802,-57.5001"/>
</g>
<!-- Node6 -->
<g id="node6" class="node"><title>Node6</title>
<g id="a_node6"><a xlink:href="classDisplayObject.html#aacc96a69c37767806090e1fa388be045" target="_top" xlink:title="DisplayObject::loadImage">
<polygon fill="white" stroke="black" points="512,-44.5 512,-63.5 641,-63.5 641,-44.5 512,-44.5"/>
<text text-anchor="middle" x="576.5" y="-51.5" font-family="Helvetica,sans-Serif" font-size="10.00">DisplayObject::loadImage</text>
</a>
</g>
</g>
<!-- Node5&#45;&gt;Node6 -->
<g id="edge7" class="edge"><title>Node5&#45;&gt;Node6</title>
<path fill="none" stroke="midnightblue" d="M476.443,-54C484.841,-54 493.408,-54 501.814,-54"/>
<polygon fill="midnightblue" stroke="midnightblue" points="501.967,-57.5001 511.967,-54 501.967,-50.5001 501.967,-57.5001"/>
</g>
</g>
</svg>
