<?xml version="1.0" encoding="UTF-8" standalone="no"?>
<!DOCTYPE svg PUBLIC "-//W3C//DTD SVG 1.1//EN"
 "http://www.w3.org/Graphics/SVG/1.1/DTD/svg11.dtd">
<!-- Generated by graphviz version 2.38.0 (20140413.2041)
 -->
<!-- Title: statisticSource::getStatisticsType Pages: 1 -->
<!--zoomable 394 -->
<svg id="main" version="1.1" xmlns="http://www.w3.org/2000/svg" xmlns:xlink="http://www.w3.org/1999/xlink" xml:space="preserve" onload="init(evt)">
<style type="text/css"><![CDATA[
.edge:hover path { stroke: red; }
.edge:hover polygon { stroke: red; fill: red; }
]]></style>
<script type="text/javascript"><![CDATA[
var edges = document.getElementsByTagName('g');
if (edges && edges.length) {
  for (var i=0;i<edges.length;i++) {
    if (edges[i].id.substr(0,4)=='edge') {
      edges[i].setAttribute('class','edge');
    }
  }
}
]]></script>
        <defs>
                <circle id="rim" cx="0" cy="0" r="7"/>
                <circle id="rim2" cx="0" cy="0" r="3.5"/>
                <g id="zoomPlus">
                        <use xlink:href="#rim" fill="#404040">
                                <set attributeName="fill" to="#808080" begin="zoomplus.mouseover" end="zoomplus.mouseout"/>
                        </use>
                        <path d="M-4,0h8M0,-4v8" fill="none" stroke="white" stroke-width="1.5" pointer-events="none"/>
                </g>
                <g id="zoomMin">
                        <use xlink:href="#rim" fill="#404040">
                                <set attributeName="fill" to="#808080" begin="zoomminus.mouseover" end="zoomminus.mouseout"/>
                        </use>
                        <path d="M-4,0h8" fill="none" stroke="white" stroke-width="1.5" pointer-events="none"/>
                </g>
                <g id="dirArrow">
                        <path fill="none" stroke="white" stroke-width="1.5" d="M0,-3.0v7 M-2.5,-0.5L0,-3.0L2.5,-0.5"/>
                </g>
               <g id="resetDef">
                       <use xlink:href="#rim2" fill="#404040">
                               <set attributeName="fill" to="#808080" begin="reset.mouseover" end="reset.mouseout"/>
                       </use>
               </g>
        </defs>

<script type="text/javascript">
var viewWidth = 1499;
var viewHeight = 394;
var sectionId = 'dynsection-18';
</script>
<script xlink:href="svgpan.js"/>
<svg id="graph" class="graph">
<g id="viewport">
<title>statisticSource::getStatisticsType</title>
<polygon fill="white" stroke="none" points="-4,4 -4,-390 1495,-390 1495,4 -4,4"/>
<!-- Node1 -->
<g id="node1" class="node"><title>Node1</title>
<polygon fill="#bfbfbf" stroke="black" points="0,-230.5 0,-249.5 164,-249.5 164,-230.5 0,-230.5"/>
<text text-anchor="middle" x="82" y="-237.5" font-family="Helvetica,sans-Serif" font-size="10.00">statisticSource::getStatisticsType</text>
</g>
<!-- Node2 -->
<g id="node2" class="node"><title>Node2</title>
<g id="a_node2"><a xlink:href="classde265File.html#a5d29707bcf85c62b6979f2b1d28ea5b9" target="_top" xlink:title="de265File::cacheStatistics">
<polygon fill="white" stroke="black" points="386.5,-318.5 386.5,-337.5 518.5,-337.5 518.5,-318.5 386.5,-318.5"/>
<text text-anchor="middle" x="452.5" y="-325.5" font-family="Helvetica,sans-Serif" font-size="10.00">de265File::cacheStatistics</text>
</a>
</g>
</g>
<!-- Node1&#45;&gt;Node2 -->
<g id="edge1" class="edge"><title>Node1&#45;&gt;Node2</title>
<path fill="none" stroke="midnightblue" d="M103.092,-255.781C125.369,-272.296 163.055,-297.404 200,-309 261.205,-328.21 334.722,-331.656 386.416,-331.089"/>
<polygon fill="midnightblue" stroke="midnightblue" points="105.158,-252.955 95.0727,-249.709 100.933,-258.536 105.158,-252.955"/>
</g>
<!-- Node8 -->
<g id="node8" class="node"><title>Node8</title>
<g id="a_node8"><a xlink:href="classde265File.html#a520be66d0220a4771f0955ce29c71fa5" target="_top" xlink:title="de265File::cacheStatistics\l_TUTree_recursive">
<polygon fill="white" stroke="black" points="205.5,-269 205.5,-299 337.5,-299 337.5,-269 205.5,-269"/>
<text text-anchor="start" x="213.5" y="-287" font-family="Helvetica,sans-Serif" font-size="10.00">de265File::cacheStatistics</text>
<text text-anchor="middle" x="271.5" y="-276" font-family="Helvetica,sans-Serif" font-size="10.00">_TUTree_recursive</text>
</a>
</g>
</g>
<!-- Node1&#45;&gt;Node8 -->
<g id="edge8" class="edge"><title>Node1&#45;&gt;Node8</title>
<path fill="none" stroke="midnightblue" d="M133.642,-251.884C156.01,-257.133 182.563,-263.364 206.301,-268.935"/>
<polygon fill="midnightblue" stroke="midnightblue" points="134.22,-248.425 123.685,-249.547 132.621,-255.239 134.22,-248.425"/>
</g>
<!-- Node9 -->
<g id="node9" class="node"><title>Node9</title>
<g id="a_node9"><a xlink:href="classstatisticSource.html#a615cd6644b2620644e6df02e631c59e9" target="_top" xlink:title="statisticSource::getValuesAt">
<polygon fill="white" stroke="black" points="201,-230.5 201,-249.5 342,-249.5 342,-230.5 201,-230.5"/>
<text text-anchor="middle" x="271.5" y="-237.5" font-family="Helvetica,sans-Serif" font-size="10.00">statisticSource::getValuesAt</text>
</a>
</g>
</g>
<!-- Node1&#45;&gt;Node9 -->
<g id="edge10" class="edge"><title>Node1&#45;&gt;Node9</title>
<path fill="none" stroke="midnightblue" d="M174.265,-240C183.252,-240 192.269,-240 200.986,-240"/>
<polygon fill="midnightblue" stroke="midnightblue" points="174.15,-236.5 164.15,-240 174.15,-243.5 174.15,-236.5"/>
</g>
<!-- Node13 -->
<g id="node13" class="node"><title>Node13</title>
<g id="a_node13"><a xlink:href="classstatisticSource.html#a88843dfe28a48a46a3f344ea41043181" target="_top" xlink:title="statisticSource::setStatistics\lTypeList">
<polygon fill="white" stroke="black" points="200,-181 200,-211 343,-211 343,-181 200,-181"/>
<text text-anchor="start" x="208" y="-199" font-family="Helvetica,sans-Serif" font-size="10.00">statisticSource::setStatistics</text>
<text text-anchor="middle" x="271.5" y="-188" font-family="Helvetica,sans-Serif" font-size="10.00">TypeList</text>
</a>
</g>
</g>
<!-- Node1&#45;&gt;Node13 -->
<g id="edge14" class="edge"><title>Node1&#45;&gt;Node13</title>
<path fill="none" stroke="midnightblue" d="M133.642,-228.116C156.01,-222.867 182.563,-216.636 206.301,-211.065"/>
<polygon fill="midnightblue" stroke="midnightblue" points="132.621,-224.761 123.685,-230.453 134.22,-231.575 132.621,-224.761"/>
</g>
<!-- Node28 -->
<g id="node28" class="node"><title>Node28</title>
<g id="a_node28"><a xlink:href="classstatisticSourceFile.html#adbd4089ff0278b8d20017974c9b24568" target="_top" xlink:title="statisticSourceFile\l::loadStatisticToCache">
<polygon fill="white" stroke="black" points="213.5,-132 213.5,-162 329.5,-162 329.5,-132 213.5,-132"/>
<text text-anchor="start" x="221.5" y="-150" font-family="Helvetica,sans-Serif" font-size="10.00">statisticSourceFile</text>
<text text-anchor="middle" x="271.5" y="-139" font-family="Helvetica,sans-Serif" font-size="10.00">::loadStatisticToCache</text>
</a>
</g>
</g>
<!-- Node1&#45;&gt;Node28 -->
<g id="edge32" class="edge"><title>Node1&#45;&gt;Node28</title>
<path fill="none" stroke="midnightblue" d="M106.104,-224.844C129.221,-210.099 166.122,-187.686 200,-172 207.66,-168.453 215.975,-165.096 224.119,-162.06"/>
<polygon fill="midnightblue" stroke="midnightblue" points="104.179,-221.921 97.6661,-230.277 107.969,-227.806 104.179,-221.921"/>
</g>
<!-- Node3 -->
<g id="node3" class="node"><title>Node3</title>
<g id="a_node3"><a xlink:href="classde265File.html#af2a66d6d47d74d992f61da5048d90538" target="_top" xlink:title="de265File::decodeOnePicture">
<polygon fill="white" stroke="black" points="573,-328.5 573,-347.5 718,-347.5 718,-328.5 573,-328.5"/>
<text text-anchor="middle" x="645.5" y="-335.5" font-family="Helvetica,sans-Serif" font-size="10.00">de265File::decodeOnePicture</text>
</a>
</g>
</g>
<!-- Node2&#45;&gt;Node3 -->
<g id="edge2" class="edge"><title>Node2&#45;&gt;Node3</title>
<path fill="none" stroke="midnightblue" d="M529.043,-331.955C543.433,-332.709 558.456,-333.495 572.724,-334.242"/>
<polygon fill="midnightblue" stroke="midnightblue" points="528.867,-328.441 518.697,-331.413 528.5,-335.432 528.867,-328.441"/>
</g>
<!-- Node4 -->
<g id="node4" class="node"><title>Node4</title>
<g id="a_node4"><a xlink:href="classde265File.html#afc2f00a9676e0b5c3fdd821619bda482" target="_top" xlink:title="de265File::de265File">
<polygon fill="white" stroke="black" points="975,-366.5 975,-385.5 1082,-385.5 1082,-366.5 975,-366.5"/>
<text text-anchor="middle" x="1028.5" y="-373.5" font-family="Helvetica,sans-Serif" font-size="10.00">de265File::de265File</text>
</a>
</g>
</g>
<!-- Node3&#45;&gt;Node4 -->
<g id="edge3" class="edge"><title>Node3&#45;&gt;Node4</title>
<path fill="none" stroke="midnightblue" d="M709.998,-349.222C727.755,-352.076 747.093,-354.92 765,-357 837.506,-365.421 921.74,-370.731 974.831,-373.533"/>
<polygon fill="midnightblue" stroke="midnightblue" points="710.183,-345.706 699.749,-347.546 709.053,-352.614 710.183,-345.706"/>
</g>
<!-- Node5 -->
<g id="node5" class="node"><title>Node5</title>
<g id="a_node5"><a xlink:href="classde265File.html#a948bfcc1b2c4ad6f0a3aa54b99f9553f" target="_top" xlink:title="de265File::backgroundDecoder">
<polygon fill="white" stroke="black" points="766,-328.5 766,-347.5 918,-347.5 918,-328.5 766,-328.5"/>
<text text-anchor="middle" x="842" y="-335.5" font-family="Helvetica,sans-Serif" font-size="10.00">de265File::backgroundDecoder</text>
</a>
</g>
</g>
<!-- Node3&#45;&gt;Node5 -->
<g id="edge4" class="edge"><title>Node3&#45;&gt;Node5</title>
<path fill="none" stroke="midnightblue" d="M728.45,-338C740.893,-338 753.68,-338 765.966,-338"/>
<polygon fill="midnightblue" stroke="midnightblue" points="728.096,-334.5 718.096,-338 728.096,-341.5 728.096,-334.5"/>
</g>
<!-- Node5&#45;&gt;Node4 -->
<g id="edge5" class="edge"><title>Node5&#45;&gt;Node4</title>
<path fill="none" stroke="midnightblue" d="M899.367,-349.61C925.607,-355.014 956.436,-361.364 981.278,-366.48"/>
<polygon fill="midnightblue" stroke="midnightblue" points="900.058,-346.178 889.557,-347.589 898.645,-353.034 900.058,-346.178"/>
</g>
<!-- Node6 -->
<g id="node6" class="node"><title>Node6</title>
<g id="a_node6"><a xlink:href="classde265File.html#a4778a7853c318063a9efd5f0990e79bf" target="_top" xlink:title="de265File::getOneFrame">
<polygon fill="white" stroke="black" points="966.5,-328.5 966.5,-347.5 1090.5,-347.5 1090.5,-328.5 966.5,-328.5"/>
<text text-anchor="middle" x="1028.5" y="-335.5" font-family="Helvetica,sans-Serif" font-size="10.00">de265File::getOneFrame</text>
</a>
</g>
</g>
<!-- Node5&#45;&gt;Node6 -->
<g id="edge6" class="edge"><title>Node5&#45;&gt;Node6</title>
<path fill="none" stroke="midnightblue" d="M928.285,-338C941.127,-338 954.151,-338 966.352,-338"/>
<polygon fill="midnightblue" stroke="midnightblue" points="928.043,-334.5 918.043,-338 928.043,-341.5 928.043,-334.5"/>
</g>
<!-- Node7 -->
<g id="node7" class="node"><title>Node7</title>
<g id="a_node7"><a xlink:href="classde265File.html#af878636f68cd2ee3a4dfc6b3b0169676" target="_top" xlink:title="de265File::loadStatistic\lToCache">
<polygon fill="white" stroke="black" points="1169.5,-323 1169.5,-353 1288.5,-353 1288.5,-323 1169.5,-323"/>
<text text-anchor="start" x="1177.5" y="-341" font-family="Helvetica,sans-Serif" font-size="10.00">de265File::loadStatistic</text>
<text text-anchor="middle" x="1229" y="-330" font-family="Helvetica,sans-Serif" font-size="10.00">ToCache</text>
</a>
</g>
</g>
<!-- Node6&#45;&gt;Node7 -->
<g id="edge7" class="edge"><title>Node6&#45;&gt;Node7</title>
<path fill="none" stroke="midnightblue" d="M1100.85,-338C1123.34,-338 1147.91,-338 1169.4,-338"/>
<polygon fill="midnightblue" stroke="midnightblue" points="1100.68,-334.5 1090.68,-338 1100.68,-341.5 1100.68,-334.5"/>
</g>
<!-- Node8&#45;&gt;Node2 -->
<g id="edge9" class="edge"><title>Node8&#45;&gt;Node2</title>
<path fill="none" stroke="midnightblue" d="M343.588,-301.474C367.192,-307.276 392.583,-313.518 412.802,-318.488"/>
<polygon fill="midnightblue" stroke="midnightblue" points="344.147,-298.008 333.601,-299.019 342.476,-304.805 344.147,-298.008"/>
</g>
<!-- Node10 -->
<g id="node10" class="node"><title>Node10</title>
<g id="a_node10"><a xlink:href="classStatisticsObject.html#aca772b1f478a98a49b8e0835bf44f02a" target="_top" xlink:title="StatisticsObject::getValuesAt">
<polygon fill="white" stroke="black" points="379.5,-230.5 379.5,-249.5 525.5,-249.5 525.5,-230.5 379.5,-230.5"/>
<text text-anchor="middle" x="452.5" y="-237.5" font-family="Helvetica,sans-Serif" font-size="10.00">StatisticsObject::getValuesAt</text>
</a>
</g>
</g>
<!-- Node9&#45;&gt;Node10 -->
<g id="edge11" class="edge"><title>Node9&#45;&gt;Node10</title>
<path fill="none" stroke="midnightblue" d="M352.299,-240C361.295,-240 370.423,-240 379.315,-240"/>
<polygon fill="midnightblue" stroke="midnightblue" points="352.219,-236.5 342.219,-240 352.219,-243.5 352.219,-236.5"/>
</g>
<!-- Node11 -->
<g id="node11" class="node"><title>Node11</title>
<g id="a_node11"><a xlink:href="classDisplayWidget.html#a8d78d2571b0b962ffda77608e24bd10c" target="_top" xlink:title="DisplayWidget::drawZoomBox">
<polygon fill="white" stroke="black" points="571,-230.5 571,-249.5 720,-249.5 720,-230.5 571,-230.5"/>
<text text-anchor="middle" x="645.5" y="-237.5" font-family="Helvetica,sans-Serif" font-size="10.00">DisplayWidget::drawZoomBox</text>
</a>
</g>
</g>
<!-- Node10&#45;&gt;Node11 -->
<g id="edge12" class="edge"><title>Node10&#45;&gt;Node11</title>
<path fill="none" stroke="midnightblue" d="M535.866,-240C547.521,-240 559.443,-240 570.919,-240"/>
<polygon fill="midnightblue" stroke="midnightblue" points="535.709,-236.5 525.709,-240 535.709,-243.5 535.709,-236.5"/>
</g>
<!-- Node12 -->
<g id="node12" class="node"><title>Node12</title>
<g id="a_node12"><a xlink:href="classDisplayWidget.html#a753fc8e8eda233123a20940439599c51" target="_top" xlink:title="DisplayWidget::paintEvent">
<polygon fill="white" stroke="black" points="775.5,-230.5 775.5,-249.5 908.5,-249.5 908.5,-230.5 775.5,-230.5"/>
<text text-anchor="middle" x="842" y="-237.5" font-family="Helvetica,sans-Serif" font-size="10.00">DisplayWidget::paintEvent</text>
</a>
</g>
</g>
<!-- Node11&#45;&gt;Node12 -->
<g id="edge13" class="edge"><title>Node11&#45;&gt;Node12</title>
<path fill="none" stroke="midnightblue" d="M730.365,-240C745.416,-240 760.904,-240 775.348,-240"/>
<polygon fill="midnightblue" stroke="midnightblue" points="730.032,-236.5 720.032,-240 730.032,-243.5 730.032,-236.5"/>
</g>
<!-- Node14 -->
<g id="node14" class="node"><title>Node14</title>
<g id="a_node14"><a xlink:href="classStatisticsObject.html#a5403f2edc7dc5c51d105056d001632e8" target="_top" xlink:title="StatisticsObject::setStatistics\lTypeList">
<polygon fill="white" stroke="black" points="379,-162 379,-192 526,-192 526,-162 379,-162"/>
<text text-anchor="start" x="387" y="-180" font-family="Helvetica,sans-Serif" font-size="10.00">StatisticsObject::setStatistics</text>
<text text-anchor="middle" x="452.5" y="-169" font-family="Helvetica,sans-Serif" font-size="10.00">TypeList</text>
</a>
</g>
</g>
<!-- Node13&#45;&gt;Node14 -->
<g id="edge15" class="edge"><title>Node13&#45;&gt;Node14</title>
<path fill="none" stroke="midnightblue" d="M353.228,-187.431C361.789,-186.522 370.459,-185.602 378.92,-184.704"/>
<polygon fill="midnightblue" stroke="midnightblue" points="352.82,-183.955 343.246,-188.491 353.559,-190.916 352.82,-183.955"/>
</g>
<!-- Node15 -->
<g id="node15" class="node"><title>Node15</title>
<g id="a_node15"><a xlink:href="classMainWindow.html#a2d8cea1d443550a8f14ce8c80d2608c6" target="_top" xlink:title="MainWindow::loadPlaylistFile">
<polygon fill="white" stroke="black" points="573,-167.5 573,-186.5 718,-186.5 718,-167.5 573,-167.5"/>
<text text-anchor="middle" x="645.5" y="-174.5" font-family="Helvetica,sans-Serif" font-size="10.00">MainWindow::loadPlaylistFile</text>
</a>
</g>
</g>
<!-- Node14&#45;&gt;Node15 -->
<g id="edge16" class="edge"><title>Node14&#45;&gt;Node15</title>
<path fill="none" stroke="midnightblue" d="M536.386,-177C548.547,-177 560.987,-177 572.896,-177"/>
<polygon fill="midnightblue" stroke="midnightblue" points="536.254,-173.5 526.254,-177 536.254,-180.5 536.254,-173.5"/>
</g>
<!-- Node26 -->
<g id="node26" class="node"><title>Node26</title>
<g id="a_node26"><a xlink:href="classMainWindow.html#a94442a4ea05a84b5f57585c4f6ca65a9" target="_top" xlink:title="MainWindow::statsTypesChanged">
<polygon fill="white" stroke="black" points="562,-38.5 562,-57.5 729,-57.5 729,-38.5 562,-38.5"/>
<text text-anchor="middle" x="645.5" y="-45.5" font-family="Helvetica,sans-Serif" font-size="10.00">MainWindow::statsTypesChanged</text>
</a>
</g>
</g>
<!-- Node14&#45;&gt;Node26 -->
<g id="edge29" class="edge"><title>Node14&#45;&gt;Node26</title>
<path fill="none" stroke="midnightblue" d="M484.193,-156.27C525.947,-128.07 598.993,-78.735 629.961,-57.8193"/>
<polygon fill="midnightblue" stroke="midnightblue" points="482.112,-153.452 475.784,-161.95 486.03,-159.253 482.112,-153.452"/>
</g>
<!-- Node16 -->
<g id="node16" class="node"><title>Node16</title>
<g id="a_node16"><a xlink:href="classMainWindow.html#a8ef1be3cb02e12d68d12375d1a7a0ced" target="_top" xlink:title="loads a list of yuv/csv files ">
<polygon fill="white" stroke="black" points="783,-167.5 783,-186.5 901,-186.5 901,-167.5 783,-167.5"/>
<text text-anchor="middle" x="842" y="-174.5" font-family="Helvetica,sans-Serif" font-size="10.00">MainWindow::loadFiles</text>
</a>
</g>
</g>
<!-- Node15&#45;&gt;Node16 -->
<g id="edge17" class="edge"><title>Node15&#45;&gt;Node16</title>
<path fill="none" stroke="midnightblue" d="M728.211,-177C746.59,-177 765.729,-177 782.911,-177"/>
<polygon fill="midnightblue" stroke="midnightblue" points="728.096,-173.5 718.096,-177 728.096,-180.5 728.096,-173.5"/>
</g>
<!-- Node17 -->
<g id="node17" class="node"><title>Node17</title>
<g id="a_node17"><a xlink:href="classDisplaySplitWidget.html#ac1d4ced58b2ac2b08153694a5de6232e" target="_top" xlink:title="DisplaySplitWidget\l::dropEvent">
<polygon fill="white" stroke="black" points="978.5,-279 978.5,-309 1078.5,-309 1078.5,-279 978.5,-279"/>
<text text-anchor="start" x="986.5" y="-297" font-family="Helvetica,sans-Serif" font-size="10.00">DisplaySplitWidget</text>
<text text-anchor="middle" x="1028.5" y="-286" font-family="Helvetica,sans-Serif" font-size="10.00">::dropEvent</text>
</a>
</g>
</g>
<!-- Node16&#45;&gt;Node17 -->
<g id="edge18" class="edge"><title>Node16&#45;&gt;Node17</title>
<path fill="none" stroke="midnightblue" d="M873.669,-191.136C888.312,-198.752 905.532,-209.043 919,-221 938.941,-238.704 933.448,-253.296 955,-269 961.994,-274.096 970.111,-278.216 978.329,-281.527"/>
<polygon fill="midnightblue" stroke="midnightblue" points="874.992,-187.884 864.485,-186.527 871.852,-194.14 874.992,-187.884"/>
</g>
<!-- Node18 -->
<g id="node18" class="node"><title>Node18</title>
<g id="a_node18"><a xlink:href="classMainWindow.html#a288b768c3c21a9171bdc56fe845ece8b" target="_top" xlink:title="Shows the file open dialog and loads all selected Files. ">
<polygon fill="white" stroke="black" points="970.5,-202.5 970.5,-221.5 1086.5,-221.5 1086.5,-202.5 970.5,-202.5"/>
<text text-anchor="middle" x="1028.5" y="-209.5" font-family="Helvetica,sans-Serif" font-size="10.00">MainWindow::openFile</text>
</a>
</g>
</g>
<!-- Node16&#45;&gt;Node18 -->
<g id="edge19" class="edge"><title>Node16&#45;&gt;Node18</title>
<path fill="none" stroke="midnightblue" d="M903.42,-188.462C927.279,-192.988 954.374,-198.128 977.146,-202.448"/>
<polygon fill="midnightblue" stroke="midnightblue" points="903.893,-184.989 893.415,-186.564 902.588,-191.866 903.893,-184.989"/>
</g>
<!-- Node22 -->
<g id="node22" class="node"><title>Node22</title>
<g id="a_node22"><a xlink:href="classMainWindow.html#a935316315edb9b7af42657da20be0e54" target="_top" xlink:title="MainWindow::openRecentFile">
<polygon fill="white" stroke="black" points="955,-240.5 955,-259.5 1102,-259.5 1102,-240.5 955,-240.5"/>
<text text-anchor="middle" x="1028.5" y="-247.5" font-family="Helvetica,sans-Serif" font-size="10.00">MainWindow::openRecentFile</text>
</a>
</g>
</g>
<!-- Node16&#45;&gt;Node22 -->
<g id="edge24" class="edge"><title>Node16&#45;&gt;Node22</title>
<path fill="none" stroke="midnightblue" d="M869.244,-191.442C891.551,-203.279 924.69,-219.84 955,-231 964.646,-234.552 975.243,-237.721 985.285,-240.405"/>
<polygon fill="midnightblue" stroke="midnightblue" points="870.853,-188.334 860.386,-186.688 867.542,-194.501 870.853,-188.334"/>
</g>
<!-- Node23 -->
<g id="node23" class="node"><title>Node23</title>
<g id="a_node23"><a xlink:href="classPlaylistTreeWidget.html#a295170eb269cc67050ea0b575cd0ab53" target="_top" xlink:title="PlaylistTreeWidget\l::dropEvent">
<polygon fill="white" stroke="black" points="979,-153 979,-183 1078,-183 1078,-153 979,-153"/>
<text text-anchor="start" x="987" y="-171" font-family="Helvetica,sans-Serif" font-size="10.00">PlaylistTreeWidget</text>
<text text-anchor="middle" x="1028.5" y="-160" font-family="Helvetica,sans-Serif" font-size="10.00">::dropEvent</text>
</a>
</g>
</g>
<!-- Node16&#45;&gt;Node23 -->
<g id="edge26" class="edge"><title>Node16&#45;&gt;Node23</title>
<path fill="none" stroke="midnightblue" d="M911.283,-173.669C933.754,-172.573 958.263,-171.377 978.956,-170.368"/>
<polygon fill="midnightblue" stroke="midnightblue" points="910.941,-170.182 901.124,-174.165 911.282,-177.173 910.941,-170.182"/>
</g>
<!-- Node24 -->
<g id="node24" class="node"><title>Node24</title>
<g id="a_node24"><a xlink:href="classYUViewApp.html#ac0f5381cc5b703a9ea704b5eedab4b7f" target="_top" xlink:title="YUViewApp::YUViewApp">
<polygon fill="white" stroke="black" points="964,-114.5 964,-133.5 1093,-133.5 1093,-114.5 964,-114.5"/>
<text text-anchor="middle" x="1028.5" y="-121.5" font-family="Helvetica,sans-Serif" font-size="10.00">YUViewApp::YUViewApp</text>
</a>
</g>
</g>
<!-- Node16&#45;&gt;Node24 -->
<g id="edge27" class="edge"><title>Node16&#45;&gt;Node24</title>
<path fill="none" stroke="midnightblue" d="M884.44,-164.604C905.538,-158.34 931.609,-150.672 955,-144 967.179,-140.526 980.538,-136.813 992.434,-133.541"/>
<polygon fill="midnightblue" stroke="midnightblue" points="883.407,-161.259 874.82,-167.465 885.403,-167.969 883.407,-161.259"/>
</g>
<!-- Node25 -->
<g id="node25" class="node"><title>Node25</title>
<g id="a_node25"><a xlink:href="classYUViewApp.html#a2f5f937d6677018ef73a5ffc248f9891" target="_top" xlink:title="YUViewApp::event">
<polygon fill="white" stroke="black" points="978.5,-76.5 978.5,-95.5 1078.5,-95.5 1078.5,-76.5 978.5,-76.5"/>
<text text-anchor="middle" x="1028.5" y="-83.5" font-family="Helvetica,sans-Serif" font-size="10.00">YUViewApp::event</text>
</a>
</g>
</g>
<!-- Node16&#45;&gt;Node25 -->
<g id="edge28" class="edge"><title>Node16&#45;&gt;Node25</title>
<path fill="none" stroke="midnightblue" d="M863.105,-161.276C884.706,-145.074 920.587,-120.114 955,-105 963.459,-101.285 972.802,-98.1694 981.889,-95.6062"/>
<polygon fill="midnightblue" stroke="midnightblue" points="860.866,-158.582 855.031,-167.425 865.107,-164.151 860.866,-158.582"/>
</g>
<!-- Node19 -->
<g id="node19" class="node"><title>Node19</title>
<g id="a_node19"><a xlink:href="classMainWindow.html#a9df7443ce5f907903438bb6a9abe9a33" target="_top" xlink:title="MainWindow::createMenusAnd\lActions">
<polygon fill="white" stroke="black" points="1153,-216 1153,-246 1305,-246 1305,-216 1153,-216"/>
<text text-anchor="start" x="1161" y="-234" font-family="Helvetica,sans-Serif" font-size="10.00">MainWindow::createMenusAnd</text>
<text text-anchor="middle" x="1229" y="-223" font-family="Helvetica,sans-Serif" font-size="10.00">Actions</text>
</a>
</g>
</g>
<!-- Node18&#45;&gt;Node19 -->
<g id="edge20" class="edge"><title>Node18&#45;&gt;Node19</title>
<path fill="none" stroke="midnightblue" d="M1096.76,-218.438C1114.78,-220.163 1134.37,-222.038 1152.78,-223.8"/>
<polygon fill="midnightblue" stroke="midnightblue" points="1096.94,-214.939 1086.65,-217.47 1096.27,-221.907 1096.94,-214.939"/>
</g>
<!-- Node21 -->
<g id="node21" class="node"><title>Node21</title>
<g id="a_node21"><a xlink:href="classMainWindow.html#aaba5c236313378986c42c4a634c4cfb9" target="_top" xlink:title="MainWindow::onCustomContextMenu">
<polygon fill="white" stroke="black" points="1138,-177.5 1138,-196.5 1320,-196.5 1320,-177.5 1138,-177.5"/>
<text text-anchor="middle" x="1229" y="-184.5" font-family="Helvetica,sans-Serif" font-size="10.00">MainWindow::onCustomContextMenu</text>
</a>
</g>
</g>
<!-- Node18&#45;&gt;Node21 -->
<g id="edge22" class="edge"><title>Node18&#45;&gt;Node21</title>
<path fill="none" stroke="midnightblue" d="M1096.71,-203.536C1114.62,-201.28 1134.09,-198.828 1152.42,-196.519"/>
<polygon fill="midnightblue" stroke="midnightblue" points="1096.13,-200.08 1086.65,-204.803 1097.01,-207.025 1096.13,-200.08"/>
</g>
<!-- Node20 -->
<g id="node20" class="node"><title>Node20</title>
<g id="a_node20"><a xlink:href="classMainWindow.html#a8b244be8b7b7db1b08de2a2acb9409db" target="_top" xlink:title="MainWindow::MainWindow">
<polygon fill="white" stroke="black" points="1356,-177.5 1356,-196.5 1491,-196.5 1491,-177.5 1356,-177.5"/>
<text text-anchor="middle" x="1423.5" y="-184.5" font-family="Helvetica,sans-Serif" font-size="10.00">MainWindow::MainWindow</text>
</a>
</g>
</g>
<!-- Node19&#45;&gt;Node20 -->
<g id="edge21" class="edge"><title>Node19&#45;&gt;Node20</title>
<path fill="none" stroke="midnightblue" d="M1305.77,-213.681C1331.35,-207.835 1358.95,-201.527 1380.88,-196.512"/>
<polygon fill="midnightblue" stroke="midnightblue" points="1304.68,-210.34 1295.71,-215.981 1306.24,-217.164 1304.68,-210.34"/>
</g>
<!-- Node21&#45;&gt;Node20 -->
<g id="edge23" class="edge"><title>Node21&#45;&gt;Node20</title>
<path fill="none" stroke="midnightblue" d="M1330.22,-187C1338.88,-187 1347.5,-187 1355.79,-187"/>
<polygon fill="midnightblue" stroke="midnightblue" points="1330.05,-183.5 1320.05,-187 1330.05,-190.5 1330.05,-183.5"/>
</g>
<!-- Node22&#45;&gt;Node19 -->
<g id="edge25" class="edge"><title>Node22&#45;&gt;Node19</title>
<path fill="none" stroke="midnightblue" d="M1112.18,-242.086C1125.61,-240.801 1139.45,-239.476 1152.69,-238.208"/>
<polygon fill="midnightblue" stroke="midnightblue" points="1111.63,-238.623 1102.01,-243.06 1112.29,-245.591 1111.63,-238.623"/>
</g>
<!-- Node26&#45;&gt;Node20 -->
<g id="edge30" class="edge"><title>Node26&#45;&gt;Node20</title>
<path fill="none" stroke="midnightblue" d="M739.519,-43.3631C832.308,-40.7221 978.445,-41.9577 1102,-67 1221.37,-91.1947 1355.08,-153.59 1403.62,-177.491"/>
<polygon fill="midnightblue" stroke="midnightblue" points="739.201,-39.8711 729.313,-43.6754 739.415,-46.8678 739.201,-39.8711"/>
</g>
<!-- Node27 -->
<g id="node27" class="node"><title>Node27</title>
<g id="a_node27"><a xlink:href="classMainWindow.html#a47efae19bde69ff0bd199daeb46fb2dd" target="_top" xlink:title="Select a Stats Type and update GUI. ">
<polygon fill="white" stroke="black" points="765,-0.5 765,-19.5 919,-19.5 919,-0.5 765,-0.5"/>
<text text-anchor="middle" x="842" y="-7.5" font-family="Helvetica,sans-Serif" font-size="10.00">MainWindow::setSelectedStats</text>
</a>
</g>
</g>
<!-- Node26&#45;&gt;Node27 -->
<g id="edge31" class="edge"><title>Node26&#45;&gt;Node27</title>
<path fill="none" stroke="midnightblue" d="M705.308,-36.5106C733.059,-31.0886 765.789,-24.6942 792.15,-19.5439"/>
<polygon fill="midnightblue" stroke="midnightblue" points="704.473,-33.1074 695.33,-38.46 705.815,-39.9775 704.473,-33.1074"/>
</g>
</g>
</svg>
        <g id="navigator" transform="translate(0 0)" fill="#404254">
                <rect fill="#f2f5e9" fill-opacity="0.5" stroke="#606060" stroke-width=".5" x="0" y="0" width="60" height="60"/>
                <use id="zoomplus" xlink:href="#zoomPlus" x="17" y="9" onmousedown="handleZoom(evt,'in')"/>
                <use id="zoomminus" xlink:href="#zoomMin" x="42" y="9" onmousedown="handleZoom(evt,'out')"/>
                <use id="reset" xlink:href="#resetDef" x="30" y="36" onmousedown="handleReset()"/>
                <g id="arrowUp" xlink:href="#dirArrow" transform="translate(30 24)" onmousedown="handlePan(0,-1)">
                  <use xlink:href="#rim" fill="#404040">
                        <set attributeName="fill" to="#808080" begin="arrowUp.mouseover" end="arrowUp.mouseout"/>
                  </use>
                  <path fill="none" stroke="white" stroke-width="1.5" d="M0,-3.0v7 M-2.5,-0.5L0,-3.0L2.5,-0.5"/>
                </g>
                <g id="arrowRight" xlink:href="#dirArrow" transform="rotate(90) translate(36 -43)" onmousedown="handlePan(1,0)">
                  <use xlink:href="#rim" fill="#404040">
                        <set attributeName="fill" to="#808080" begin="arrowRight.mouseover" end="arrowRight.mouseout"/>
                  </use>
                  <path fill="none" stroke="white" stroke-width="1.5" d="M0,-3.0v7 M-2.5,-0.5L0,-3.0L2.5,-0.5"/>
                </g>
                <g id="arrowDown" xlink:href="#dirArrow" transform="rotate(180) translate(-30 -48)" onmousedown="handlePan(0,1)">
                  <use xlink:href="#rim" fill="#404040">
                        <set attributeName="fill" to="#808080" begin="arrowDown.mouseover" end="arrowDown.mouseout"/>
                  </use>
                  <path fill="none" stroke="white" stroke-width="1.5" d="M0,-3.0v7 M-2.5,-0.5L0,-3.0L2.5,-0.5"/>
                </g>
                <g id="arrowLeft" xlink:href="#dirArrow" transform="rotate(270) translate(-36 17)" onmousedown="handlePan(-1,0)">
                  <use xlink:href="#rim" fill="#404040">
                        <set attributeName="fill" to="#808080" begin="arrowLeft.mouseover" end="arrowLeft.mouseout"/>
                  </use>
                  <path fill="none" stroke="white" stroke-width="1.5" d="M0,-3.0v7 M-2.5,-0.5L0,-3.0L2.5,-0.5"/>
                </g>
        </g>
        <svg viewBox="0 0 15 15" width="100%" height="30px" preserveAspectRatio="xMaxYMin meet">
         <g id="arrow_out" transform="scale(0.3 0.3)">
          <a xlink:href="classstatisticSource_accae8cdfc95b05e3ef9a945b1f579c46_icgraph_org.svg" target="_base">
           <rect id="button" ry="5" rx="5" y="6" x="6" height="38" width="38"
                fill="#f2f5e9" fill-opacity="0.5" stroke="#606060" stroke-width="1.0"/>
           <path id="arrow"
             d="M 11.500037,31.436501 C 11.940474,20.09759 22.043105,11.32322 32.158766,21.979434 L 37.068811,17.246167 C 37.068811,17.246167 37.088388,32 37.088388,32 L 22.160133,31.978069 C 22.160133,31.978069 26.997745,27.140456 26.997745,27.140456 C 18.528582,18.264221 13.291696,25.230495 11.500037,31.436501 z"
             style="fill:#404040;"/>
          </a>
         </g>
        </svg>
</svg>
