<?xml version="1.0" encoding="UTF-8" standalone="no"?>
<!DOCTYPE svg PUBLIC "-//W3C//DTD SVG 1.1//EN"
 "http://www.w3.org/Graphics/SVG/1.1/DTD/svg11.dtd">
<!-- Generated by graphviz version 2.38.0 (20140413.2041)
 -->
<!-- Title: MainWindow::currentSelectionInformationChanged Pages: 1 -->
<svg width="908pt" height="186pt"
 viewBox="0.00 0.00 908.00 186.05" xmlns="http://www.w3.org/2000/svg" xmlns:xlink="http://www.w3.org/1999/xlink">
<g id="graph0" class="graph" transform="scale(1 1) rotate(0) translate(4 182.052)">
<title>MainWindow::currentSelectionInformationChanged</title>
<polygon fill="white" stroke="none" points="-4,4 -4,-182.052 904,-182.052 904,4 -4,4"/>
<!-- Node1 -->
<g id="node1" class="node"><title>Node1</title>
<polygon fill="#bfbfbf" stroke="black" points="0,-69.4435 0,-99.4435 149,-99.4435 149,-69.4435 0,-69.4435"/>
<text text-anchor="start" x="8" y="-87.4435" font-family="Helvetica,sans-Serif" font-size="10.00">MainWindow::currentSelection</text>
<text text-anchor="middle" x="74.5" y="-76.4435" font-family="Helvetica,sans-Serif" font-size="10.00">InformationChanged</text>
</g>
<!-- Node2 -->
<g id="node2" class="node"><title>Node2</title>
<g id="a_node2"><a xlink:href="classMainWindow.html#a6f33e93f427ff2df80edffcb3ad944da" target="_top" xlink:title="MainWindow::updateSelected\lItems">
<polygon fill="white" stroke="black" points="185,-69.4435 185,-99.4435 331,-99.4435 331,-69.4435 185,-69.4435"/>
<text text-anchor="start" x="193" y="-87.4435" font-family="Helvetica,sans-Serif" font-size="10.00">MainWindow::updateSelected</text>
<text text-anchor="middle" x="258" y="-76.4435" font-family="Helvetica,sans-Serif" font-size="10.00">Items</text>
</a>
</g>
</g>
<!-- Node1&#45;&gt;Node2 -->
<g id="edge1" class="edge"><title>Node1&#45;&gt;Node2</title>
<path fill="none" stroke="midnightblue" d="M159.087,-84.4435C167.678,-84.4435 176.354,-84.4435 184.806,-84.4435"/>
<polygon fill="midnightblue" stroke="midnightblue" points="159.061,-80.9436 149.061,-84.4435 159.061,-87.9436 159.061,-80.9436"/>
</g>
<!-- Node3 -->
<g id="node3" class="node"><title>Node3</title>
<g id="a_node3"><a xlink:href="classMainWindow.html#a8b244be8b7b7db1b08de2a2acb9409db" target="_top" xlink:title="MainWindow::MainWindow">
<polygon fill="white" stroke="black" points="765,-74.9435 765,-93.9435 900,-93.9435 900,-74.9435 765,-74.9435"/>
<text text-anchor="middle" x="832.5" y="-81.9435" font-family="Helvetica,sans-Serif" font-size="10.00">MainWindow::MainWindow</text>
</a>
</g>
</g>
<!-- Node2&#45;&gt;Node3 -->
<g id="edge2" class="edge"><title>Node2&#45;&gt;Node3</title>
<path fill="none" stroke="midnightblue" d="M297.64,-103.975C317.83,-113.383 343.228,-123.995 367,-130.443 522.591,-172.647 574.809,-200.507 729,-153.443 767.572,-141.67 804.77,-109.977 821.81,-93.9703"/>
<polygon fill="midnightblue" stroke="midnightblue" points="299.001,-100.747 288.467,-99.6178 295.998,-107.07 299.001,-100.747"/>
</g>
<!-- Node4 -->
<g id="node4" class="node"><title>Node4</title>
<g id="a_node4"><a xlink:href="classMainWindow.html#a6be7246a1a0ecf5d1442bb1775c3d9b3" target="_top" xlink:title="MainWindow::addDifference\lSequence">
<polygon fill="white" stroke="black" points="369,-91.4435 369,-121.443 509,-121.443 509,-91.4435 369,-91.4435"/>
<text text-anchor="start" x="377" y="-109.443" font-family="Helvetica,sans-Serif" font-size="10.00">MainWindow::addDifference</text>
<text text-anchor="middle" x="439" y="-98.4435" font-family="Helvetica,sans-Serif" font-size="10.00">Sequence</text>
</a>
</g>
</g>
<!-- Node2&#45;&gt;Node4 -->
<g id="edge3" class="edge"><title>Node2&#45;&gt;Node4</title>
<path fill="none" stroke="midnightblue" d="M341.022,-94.5243C350.284,-95.6627 359.653,-96.8143 368.73,-97.9298"/>
<polygon fill="midnightblue" stroke="midnightblue" points="341.385,-91.0427 331.032,-93.2966 340.531,-97.9904 341.385,-91.0427"/>
</g>
<!-- Node7 -->
<g id="node7" class="node"><title>Node7</title>
<g id="a_node7"><a xlink:href="classMainWindow.html#af5ecc7c65080215b49b9d931c56c65c9" target="_top" xlink:title="MainWindow::editTextFrame">
<polygon fill="white" stroke="black" points="368,-52.9435 368,-71.9435 510,-71.9435 510,-52.9435 368,-52.9435"/>
<text text-anchor="middle" x="439" y="-59.9435" font-family="Helvetica,sans-Serif" font-size="10.00">MainWindow::editTextFrame</text>
</a>
</g>
</g>
<!-- Node2&#45;&gt;Node7 -->
<g id="edge8" class="edge"><title>Node2&#45;&gt;Node7</title>
<path fill="none" stroke="midnightblue" d="M341.075,-74.3561C350.024,-73.2562 359.073,-72.1441 367.86,-71.064"/>
<polygon fill="midnightblue" stroke="midnightblue" points="340.531,-70.8965 331.032,-75.5903 341.385,-77.8442 340.531,-70.8965"/>
</g>
<!-- Node9 -->
<g id="node9" class="node"><title>Node9</title>
<g id="a_node9"><a xlink:href="classMainWindow.html#a156c29c6d7ab278e4246c88a0fcbe2f2" target="_top" xlink:title="MainWindow::updateSettings">
<polygon fill="white" stroke="black" points="367,-11.9435 367,-30.9435 511,-30.9435 511,-11.9435 367,-11.9435"/>
<text text-anchor="middle" x="439" y="-18.9435" font-family="Helvetica,sans-Serif" font-size="10.00">MainWindow::updateSettings</text>
</a>
</g>
</g>
<!-- Node2&#45;&gt;Node9 -->
<g id="edge12" class="edge"><title>Node2&#45;&gt;Node9</title>
<path fill="none" stroke="midnightblue" d="M306.299,-65.7564C325.097,-58.5216 346.977,-50.339 367,-43.4435 379.567,-39.1157 393.515,-34.709 405.699,-30.9875"/>
<polygon fill="midnightblue" stroke="midnightblue" points="304.839,-62.5684 296.776,-69.4414 307.365,-69.0967 304.839,-62.5684"/>
</g>
<!-- Node5 -->
<g id="node5" class="node"><title>Node5</title>
<g id="a_node5"><a xlink:href="classMainWindow.html#a9df7443ce5f907903438bb6a9abe9a33" target="_top" xlink:title="MainWindow::createMenusAnd\lActions">
<polygon fill="white" stroke="black" points="562,-113.443 562,-143.443 714,-143.443 714,-113.443 562,-113.443"/>
<text text-anchor="start" x="570" y="-131.443" font-family="Helvetica,sans-Serif" font-size="10.00">MainWindow::createMenusAnd</text>
<text text-anchor="middle" x="638" y="-120.443" font-family="Helvetica,sans-Serif" font-size="10.00">Actions</text>
</a>
</g>
</g>
<!-- Node4&#45;&gt;Node5 -->
<g id="edge4" class="edge"><title>Node4&#45;&gt;Node5</title>
<path fill="none" stroke="midnightblue" d="M519.312,-115.301C533.386,-116.872 548.004,-118.505 561.955,-120.063"/>
<polygon fill="midnightblue" stroke="midnightblue" points="519.505,-111.8 509.178,-114.169 518.728,-118.757 519.505,-111.8"/>
</g>
<!-- Node6 -->
<g id="node6" class="node"><title>Node6</title>
<g id="a_node6"><a xlink:href="classMainWindow.html#aaba5c236313378986c42c4a634c4cfb9" target="_top" xlink:title="MainWindow::onCustomContextMenu">
<polygon fill="white" stroke="black" points="547,-74.9435 547,-93.9435 729,-93.9435 729,-74.9435 547,-74.9435"/>
<text text-anchor="middle" x="638" y="-81.9435" font-family="Helvetica,sans-Serif" font-size="10.00">MainWindow::onCustomContextMenu</text>
</a>
</g>
</g>
<!-- Node4&#45;&gt;Node6 -->
<g id="edge6" class="edge"><title>Node4&#45;&gt;Node6</title>
<path fill="none" stroke="midnightblue" d="M519.297,-97.588C529.968,-96.3963 540.953,-95.1695 551.723,-93.9668"/>
<polygon fill="midnightblue" stroke="midnightblue" points="518.728,-94.1297 509.178,-98.718 519.505,-101.086 518.728,-94.1297"/>
</g>
<!-- Node5&#45;&gt;Node3 -->
<g id="edge5" class="edge"><title>Node5&#45;&gt;Node3</title>
<path fill="none" stroke="midnightblue" d="M714.77,-111.125C740.346,-105.279 767.945,-98.9703 789.883,-93.9559"/>
<polygon fill="midnightblue" stroke="midnightblue" points="713.678,-107.784 704.709,-113.424 715.238,-114.608 713.678,-107.784"/>
</g>
<!-- Node6&#45;&gt;Node3 -->
<g id="edge7" class="edge"><title>Node6&#45;&gt;Node3</title>
<path fill="none" stroke="midnightblue" d="M739.219,-84.4435C747.88,-84.4435 756.497,-84.4435 764.79,-84.4435"/>
<polygon fill="midnightblue" stroke="midnightblue" points="739.05,-80.9436 729.05,-84.4435 739.05,-87.9436 739.05,-80.9436"/>
</g>
<!-- Node7&#45;&gt;Node6 -->
<g id="edge9" class="edge"><title>Node7&#45;&gt;Node6</title>
<path fill="none" stroke="midnightblue" d="M520.257,-71.4062C530.616,-72.563 541.253,-73.751 551.689,-74.9164"/>
<polygon fill="midnightblue" stroke="midnightblue" points="520.336,-67.8934 510.01,-70.2618 519.559,-74.8501 520.336,-67.8934"/>
</g>
<!-- Node8 -->
<g id="node8" class="node"><title>Node8</title>
<g id="a_node8"><a xlink:href="classMainWindow.html#ab18c663524e2c130759c0ca960129ea4" target="_top" xlink:title="MainWindow::onItemDouble\lClicked">
<polygon fill="white" stroke="black" points="568,-25.4435 568,-55.4435 708,-55.4435 708,-25.4435 568,-25.4435"/>
<text text-anchor="start" x="576" y="-43.4435" font-family="Helvetica,sans-Serif" font-size="10.00">MainWindow::onItemDouble</text>
<text text-anchor="middle" x="638" y="-32.4435" font-family="Helvetica,sans-Serif" font-size="10.00">Clicked</text>
</a>
</g>
</g>
<!-- Node7&#45;&gt;Node8 -->
<g id="edge10" class="edge"><title>Node7&#45;&gt;Node8</title>
<path fill="none" stroke="midnightblue" d="M520.273,-53.479C536.061,-51.7159 552.496,-49.8805 567.878,-48.1626"/>
<polygon fill="midnightblue" stroke="midnightblue" points="519.559,-50.0368 510.01,-54.6252 520.336,-56.9936 519.559,-50.0368"/>
</g>
<!-- Node8&#45;&gt;Node3 -->
<g id="edge11" class="edge"><title>Node8&#45;&gt;Node3</title>
<path fill="none" stroke="midnightblue" d="M714.77,-57.7622C740.346,-63.6083 767.945,-69.9167 789.883,-74.9311"/>
<polygon fill="midnightblue" stroke="midnightblue" points="715.238,-54.279 704.709,-55.4627 713.678,-61.1031 715.238,-54.279"/>
</g>
<!-- Node9&#45;&gt;Node3 -->
<g id="edge13" class="edge"><title>Node9&#45;&gt;Node3</title>
<path fill="none" stroke="midnightblue" d="M495.404,-10.2425C554.636,-0.558898 650.617,8.48106 729,-15.4435 767.572,-27.2168 804.77,-58.9102 821.81,-74.9166"/>
<polygon fill="midnightblue" stroke="midnightblue" points="494.777,-6.79884 485.504,-11.9233 495.948,-13.7001 494.777,-6.79884"/>
</g>
</g>
</svg>
