<?xml version="1.0" encoding="UTF-8" standalone="no"?>
<!DOCTYPE svg PUBLIC "-//W3C//DTD SVG 1.1//EN"
 "http://www.w3.org/Graphics/SVG/1.1/DTD/svg11.dtd">
<!-- Generated by graphviz version 2.38.0 (20140413.2041)
 -->
<!-- Title: EditTextDialog::loadItemStettings Pages: 1 -->
<svg width="274pt" height="142pt"
 viewBox="0.00 0.00 274.00 142.00" xmlns="http://www.w3.org/2000/svg" xmlns:xlink="http://www.w3.org/1999/xlink">
<g id="graph0" class="graph" transform="scale(1 1) rotate(0) translate(4 138)">
<title>EditTextDialog::loadItemStettings</title>
<polygon fill="white" stroke="none" points="-4,4 -4,-138 270,-138 270,4 -4,4"/>
<!-- Node1 -->
<g id="node1" class="node"><title>Node1</title>
<polygon fill="#bfbfbf" stroke="black" points="0,-52 0,-82 125,-82 125,-52 0,-52"/>
<text text-anchor="start" x="8" y="-70" font-family="Helvetica,sans-Serif" font-size="10.00">EditTextDialog::loadItem</text>
<text text-anchor="middle" x="62.5" y="-59" font-family="Helvetica,sans-Serif" font-size="10.00">Stettings</text>
</g>
<!-- Node2 -->
<g id="node2" class="node"><title>Node2</title>
<g id="a_node2"><a xlink:href="classTextObject.html#a40a3c04abf6f17df174696a8902b84f1" target="_top" xlink:title="TextObject::font">
<polygon fill="white" stroke="black" points="170,-114.5 170,-133.5 257,-133.5 257,-114.5 170,-114.5"/>
<text text-anchor="middle" x="213.5" y="-121.5" font-family="Helvetica,sans-Serif" font-size="10.00">TextObject::font</text>
</a>
</g>
</g>
<!-- Node1&#45;&gt;Node2 -->
<g id="edge1" class="edge"><title>Node1&#45;&gt;Node2</title>
<path fill="none" stroke="midnightblue" d="M101.873,-82.1414C119.806,-89.1698 141.466,-97.5906 161,-105 166.124,-106.943 171.544,-108.972 176.869,-110.95"/>
<polygon fill="midnightblue" stroke="midnightblue" points="175.673,-114.24 186.266,-114.426 178.101,-107.674 175.673,-114.24"/>
</g>
<!-- Node3 -->
<g id="node3" class="node"><title>Node3</title>
<g id="a_node3"><a xlink:href="classTextObject.html#a20869fc1605e26ea2b69c3daf6eb1cc9" target="_top" xlink:title="TextObject::text">
<polygon fill="white" stroke="black" points="170,-76.5 170,-95.5 257,-95.5 257,-76.5 170,-76.5"/>
<text text-anchor="middle" x="213.5" y="-83.5" font-family="Helvetica,sans-Serif" font-size="10.00">TextObject::text</text>
</a>
</g>
</g>
<!-- Node1&#45;&gt;Node3 -->
<g id="edge2" class="edge"><title>Node1&#45;&gt;Node3</title>
<path fill="none" stroke="midnightblue" d="M125.395,-74.8926C136.781,-76.3446 148.572,-77.8481 159.662,-79.2622"/>
<polygon fill="midnightblue" stroke="midnightblue" points="159.255,-82.7386 169.617,-80.5317 160.14,-75.7948 159.255,-82.7386"/>
</g>
<!-- Node4 -->
<g id="node4" class="node"><title>Node4</title>
<g id="a_node4"><a xlink:href="classTextObject.html#a2c8318c487b65fb1c973cd3a130efe06" target="_top" xlink:title="TextObject::duration">
<polygon fill="white" stroke="black" points="161,-38.5 161,-57.5 266,-57.5 266,-38.5 161,-38.5"/>
<text text-anchor="middle" x="213.5" y="-45.5" font-family="Helvetica,sans-Serif" font-size="10.00">TextObject::duration</text>
</a>
</g>
</g>
<!-- Node1&#45;&gt;Node4 -->
<g id="edge3" class="edge"><title>Node1&#45;&gt;Node4</title>
<path fill="none" stroke="midnightblue" d="M125.395,-59.1074C133.808,-58.0346 142.442,-56.9336 150.85,-55.8614"/>
<polygon fill="midnightblue" stroke="midnightblue" points="151.488,-59.3085 160.965,-54.5716 150.603,-52.3647 151.488,-59.3085"/>
</g>
<!-- Node5 -->
<g id="node5" class="node"><title>Node5</title>
<g id="a_node5"><a xlink:href="classTextObject.html#a08fdf4f44f51b8bed47924be88de9515" target="_top" xlink:title="TextObject::color">
<polygon fill="white" stroke="black" points="167.5,-0.5 167.5,-19.5 259.5,-19.5 259.5,-0.5 167.5,-0.5"/>
<text text-anchor="middle" x="213.5" y="-7.5" font-family="Helvetica,sans-Serif" font-size="10.00">TextObject::color</text>
</a>
</g>
</g>
<!-- Node1&#45;&gt;Node5 -->
<g id="edge4" class="edge"><title>Node1&#45;&gt;Node5</title>
<path fill="none" stroke="midnightblue" d="M101.873,-51.8586C119.806,-44.8302 141.466,-36.4094 161,-29 166.124,-27.0566 171.544,-25.0277 176.869,-23.0497"/>
<polygon fill="midnightblue" stroke="midnightblue" points="178.101,-26.3256 186.266,-19.5738 175.673,-19.7603 178.101,-26.3256"/>
</g>
</g>
</svg>
