<?xml version="1.0" encoding="UTF-8" standalone="no"?>
<!DOCTYPE svg PUBLIC "-//W3C//DTD SVG 1.1//EN"
 "http://www.w3.org/Graphics/SVG/1.1/DTD/svg11.dtd">
<!-- Generated by graphviz version 2.38.0 (20140413.2041)
 -->
<!-- Title: DisplaySplitWidget::setViewMode Pages: 1 -->
<svg width="1332pt" height="274pt"
 viewBox="0.00 0.00 1332.00 273.50" xmlns="http://www.w3.org/2000/svg" xmlns:xlink="http://www.w3.org/1999/xlink">
<g id="graph0" class="graph" transform="scale(1 1) rotate(0) translate(4 269.5)">
<title>DisplaySplitWidget::setViewMode</title>
<polygon fill="white" stroke="none" points="-4,4 -4,-269.5 1328,-269.5 1328,4 -4,4"/>
<!-- Node1 -->
<g id="node1" class="node"><title>Node1</title>
<polygon fill="#bfbfbf" stroke="black" points="0,-161 0,-191 100,-191 100,-161 0,-161"/>
<text text-anchor="start" x="8" y="-179" font-family="Helvetica,sans-Serif" font-size="10.00">DisplaySplitWidget</text>
<text text-anchor="middle" x="50" y="-168" font-family="Helvetica,sans-Serif" font-size="10.00">::setViewMode</text>
</g>
<!-- Node2 -->
<g id="node2" class="node"><title>Node2</title>
<g id="a_node2"><a xlink:href="classDisplaySplitWidget.html#a6f7be41220a894f92ee9d47b02c79fe3" target="_top" xlink:title="DisplaySplitWidget\l::viewMode">
<polygon fill="white" stroke="black" points="136,-186 136,-216 236,-216 236,-186 136,-186"/>
<text text-anchor="start" x="144" y="-204" font-family="Helvetica,sans-Serif" font-size="10.00">DisplaySplitWidget</text>
<text text-anchor="middle" x="186" y="-193" font-family="Helvetica,sans-Serif" font-size="10.00">::viewMode</text>
</a>
</g>
</g>
<!-- Node1&#45;&gt;Node2 -->
<g id="edge1" class="edge"><title>Node1&#45;&gt;Node2</title>
<path fill="none" stroke="midnightblue" d="M100.136,-185.167C108.511,-186.73 117.288,-188.367 125.889,-189.972"/>
<polygon fill="midnightblue" stroke="midnightblue" points="125.398,-193.441 135.87,-191.834 126.682,-186.559 125.398,-193.441"/>
</g>
<!-- Node3 -->
<g id="node3" class="node"><title>Node3</title>
<g id="a_node3"><a xlink:href="classDisplaySplitWidget.html#ac88b455e49d13fb34439e45838e468d9" target="_top" xlink:title="DisplaySplitWidget\l::updateView">
<polygon fill="white" stroke="black" points="136,-137 136,-167 236,-167 236,-137 136,-137"/>
<text text-anchor="start" x="144" y="-155" font-family="Helvetica,sans-Serif" font-size="10.00">DisplaySplitWidget</text>
<text text-anchor="middle" x="186" y="-144" font-family="Helvetica,sans-Serif" font-size="10.00">::updateView</text>
</a>
</g>
</g>
<!-- Node1&#45;&gt;Node3 -->
<g id="edge2" class="edge"><title>Node1&#45;&gt;Node3</title>
<path fill="none" stroke="midnightblue" d="M100.136,-167.2C108.511,-165.7 117.288,-164.128 125.889,-162.587"/>
<polygon fill="midnightblue" stroke="midnightblue" points="126.644,-166.008 135.87,-160.799 125.41,-159.117 126.644,-166.008"/>
</g>
<!-- Node4 -->
<g id="node4" class="node"><title>Node4</title>
<g id="a_node4"><a xlink:href="classDisplayWidget.html#a477dcbaeee98a2c684374e4d5a36b0fd" target="_top" xlink:title="DisplayWidget::displayRect">
<polygon fill="white" stroke="black" points="462,-210.5 462,-229.5 600,-229.5 600,-210.5 462,-210.5"/>
<text text-anchor="middle" x="531" y="-217.5" font-family="Helvetica,sans-Serif" font-size="10.00">DisplayWidget::displayRect</text>
</a>
</g>
</g>
<!-- Node3&#45;&gt;Node4 -->
<g id="edge3" class="edge"><title>Node3&#45;&gt;Node4</title>
<path fill="none" stroke="midnightblue" d="M236.383,-163.321C248.047,-165.917 260.45,-168.613 272,-171 338.345,-184.712 414.595,-199.014 466.899,-208.602"/>
<polygon fill="midnightblue" stroke="midnightblue" points="466.564,-212.099 477.03,-210.456 467.823,-205.213 466.564,-212.099"/>
</g>
<!-- Node5 -->
<g id="node5" class="node"><title>Node5</title>
<g id="a_node5"><a xlink:href="classDisplayWidget.html#a822a3c50c6c602fafff6ef2132ccdb42" target="_top" xlink:title="DisplayWidget::setDisplayRect">
<polygon fill="white" stroke="black" points="272,-142.5 272,-161.5 426,-161.5 426,-142.5 272,-142.5"/>
<text text-anchor="middle" x="349" y="-149.5" font-family="Helvetica,sans-Serif" font-size="10.00">DisplayWidget::setDisplayRect</text>
</a>
</g>
</g>
<!-- Node3&#45;&gt;Node5 -->
<g id="edge4" class="edge"><title>Node3&#45;&gt;Node5</title>
<path fill="none" stroke="midnightblue" d="M236.18,-152C244.289,-152 252.9,-152 261.604,-152"/>
<polygon fill="midnightblue" stroke="midnightblue" points="261.839,-155.5 271.839,-152 261.839,-148.5 261.839,-155.5"/>
</g>
<!-- Node24 -->
<g id="node24" class="node"><title>Node24</title>
<g id="a_node24"><a xlink:href="classDisplayWidget.html#ad463e9effed6170427696da40d945c58" target="_top" xlink:title="DisplayWidget::DisplayWidget\lWidth">
<polygon fill="white" stroke="black" points="274,-93 274,-123 424,-123 424,-93 274,-93"/>
<text text-anchor="start" x="282" y="-111" font-family="Helvetica,sans-Serif" font-size="10.00">DisplayWidget::DisplayWidget</text>
<text text-anchor="middle" x="349" y="-100" font-family="Helvetica,sans-Serif" font-size="10.00">Width</text>
</a>
</g>
</g>
<!-- Node3&#45;&gt;Node24 -->
<g id="edge26" class="edge"><title>Node3&#45;&gt;Node24</title>
<path fill="none" stroke="midnightblue" d="M236.18,-138.559C251.037,-134.499 267.58,-129.978 283.288,-125.685"/>
<polygon fill="midnightblue" stroke="midnightblue" points="284.214,-129.061 292.938,-123.048 282.369,-122.308 284.214,-129.061"/>
</g>
<!-- Node5&#45;&gt;Node4 -->
<g id="edge5" class="edge"><title>Node5&#45;&gt;Node4</title>
<path fill="none" stroke="midnightblue" d="M380.846,-161.501C394.867,-166.188 411.522,-172.277 426,-179 442.8,-186.801 444.99,-192.666 462,-200 468.302,-202.717 475.084,-205.199 481.84,-207.42"/>
<polygon fill="midnightblue" stroke="midnightblue" points="481.07,-210.846 491.659,-210.484 483.155,-204.164 481.07,-210.846"/>
</g>
<!-- Node6 -->
<g id="node6" class="node"><title>Node6</title>
<g id="a_node6"><a xlink:href="classDisplayObject.html#a669d39709021238465e2d42ae2ffce2d" target="_top" xlink:title="DisplayObject::setInternal\lScaleFactor">
<polygon fill="white" stroke="black" points="466,-112 466,-142 596,-142 596,-112 466,-112"/>
<text text-anchor="start" x="474" y="-130" font-family="Helvetica,sans-Serif" font-size="10.00">DisplayObject::setInternal</text>
<text text-anchor="middle" x="531" y="-119" font-family="Helvetica,sans-Serif" font-size="10.00">ScaleFactor</text>
</a>
</g>
</g>
<!-- Node5&#45;&gt;Node6 -->
<g id="edge6" class="edge"><title>Node5&#45;&gt;Node6</title>
<path fill="none" stroke="midnightblue" d="M418.564,-142.477C430.672,-140.796 443.33,-139.037 455.59,-137.335"/>
<polygon fill="midnightblue" stroke="midnightblue" points="456.351,-140.763 465.774,-135.92 455.388,-133.829 456.351,-140.763"/>
</g>
<!-- Node7 -->
<g id="node7" class="node"><title>Node7</title>
<g id="a_node7"><a xlink:href="classDisplayWidget.html#a59b9a00276458fae6c0c2db850a87616" target="_top" xlink:title="DisplayWidget::zoomFactor">
<polygon fill="white" stroke="black" points="636,-75.5 636,-94.5 774,-94.5 774,-75.5 636,-75.5"/>
<text text-anchor="middle" x="705" y="-82.5" font-family="Helvetica,sans-Serif" font-size="10.00">DisplayWidget::zoomFactor</text>
</a>
</g>
</g>
<!-- Node5&#45;&gt;Node7 -->
<g id="edge7" class="edge"><title>Node5&#45;&gt;Node7</title>
<path fill="none" stroke="midnightblue" d="M399.018,-142.481C408.254,-139.756 417.633,-136.314 426,-132 444.512,-122.456 442.677,-109.772 462,-102 513.802,-81.1634 576.849,-77.3484 625.604,-78.5135"/>
<polygon fill="midnightblue" stroke="midnightblue" points="625.677,-82.0174 635.782,-78.8334 625.897,-75.0209 625.677,-82.0174"/>
</g>
<!-- Node9 -->
<g id="node9" class="node"><title>Node9</title>
<g id="a_node9"><a xlink:href="classStatisticsObject.html#a685245dbc78feb8908c60b3becc9a0c0" target="_top" xlink:title="StatisticsObject::setInternal\lScaleFactor">
<polygon fill="white" stroke="black" points="462,-24 462,-54 600,-54 600,-24 462,-24"/>
<text text-anchor="start" x="470" y="-42" font-family="Helvetica,sans-Serif" font-size="10.00">StatisticsObject::setInternal</text>
<text text-anchor="middle" x="531" y="-31" font-family="Helvetica,sans-Serif" font-size="10.00">ScaleFactor</text>
</a>
</g>
</g>
<!-- Node5&#45;&gt;Node9 -->
<g id="edge9" class="edge"><title>Node5&#45;&gt;Node9</title>
<path fill="none" stroke="midnightblue" d="M407.144,-142.368C413.894,-139.708 420.371,-136.319 426,-132 451.585,-112.368 438.046,-90.5916 462,-69 466.133,-65.2744 470.804,-61.9526 475.713,-59.0044"/>
<polygon fill="midnightblue" stroke="midnightblue" points="477.63,-61.9462 484.743,-54.0945 474.286,-55.7964 477.63,-61.9462"/>
</g>
<!-- Node13 -->
<g id="node13" class="node"><title>Node13</title>
<g id="a_node13"><a xlink:href="classStatisticsObject.html#a09c2920b75ecda0e175a6c9384b446ab" target="_top" xlink:title="StatisticsObject::reload\lImage">
<polygon fill="white" stroke="black" points="471.5,-161 471.5,-191 590.5,-191 590.5,-161 471.5,-161"/>
<text text-anchor="start" x="479.5" y="-179" font-family="Helvetica,sans-Serif" font-size="10.00">StatisticsObject::reload</text>
<text text-anchor="middle" x="531" y="-168" font-family="Helvetica,sans-Serif" font-size="10.00">Image</text>
</a>
</g>
</g>
<!-- Node5&#45;&gt;Node13 -->
<g id="edge13" class="edge"><title>Node5&#45;&gt;Node13</title>
<path fill="none" stroke="midnightblue" d="M421.399,-161.52C434.488,-163.265 448.126,-165.083 461.139,-166.819"/>
<polygon fill="midnightblue" stroke="midnightblue" points="461.044,-170.337 471.419,-168.189 461.969,-163.398 461.044,-170.337"/>
</g>
<!-- Node8 -->
<g id="node8" class="node"><title>Node8</title>
<g id="a_node8"><a xlink:href="classDisplayObject.html#afb3b221174f722f563e7bf55a1ddb29f" target="_top" xlink:title="DisplayObject::width">
<polygon fill="white" stroke="black" points="831.5,-76.5 831.5,-95.5 938.5,-95.5 938.5,-76.5 831.5,-76.5"/>
<text text-anchor="middle" x="885" y="-83.5" font-family="Helvetica,sans-Serif" font-size="10.00">DisplayObject::width</text>
</a>
</g>
</g>
<!-- Node7&#45;&gt;Node8 -->
<g id="edge8" class="edge"><title>Node7&#45;&gt;Node8</title>
<path fill="none" stroke="midnightblue" d="M774.056,-85.3823C789.526,-85.4692 805.891,-85.5612 821.134,-85.6468"/>
<polygon fill="midnightblue" stroke="midnightblue" points="821.463,-89.1486 831.483,-85.705 821.503,-82.1487 821.463,-89.1486"/>
</g>
<!-- Node10 -->
<g id="node10" class="node"><title>Node10</title>
<g id="a_node10"><a xlink:href="classstatisticSource.html#a8c153e3e3576668f5e68af94f441319e" target="_top" xlink:title="statisticSource::setInternal\lScaleFactor">
<polygon fill="white" stroke="black" points="638,-24 638,-54 772,-54 772,-24 638,-24"/>
<text text-anchor="start" x="646" y="-42" font-family="Helvetica,sans-Serif" font-size="10.00">statisticSource::setInternal</text>
<text text-anchor="middle" x="705" y="-31" font-family="Helvetica,sans-Serif" font-size="10.00">ScaleFactor</text>
</a>
</g>
</g>
<!-- Node9&#45;&gt;Node10 -->
<g id="edge10" class="edge"><title>Node9&#45;&gt;Node10</title>
<path fill="none" stroke="midnightblue" d="M600.473,-39C609.39,-39 618.569,-39 627.605,-39"/>
<polygon fill="midnightblue" stroke="midnightblue" points="627.724,-42.5001 637.724,-39 627.724,-35.5001 627.724,-42.5001"/>
</g>
<!-- Node11 -->
<g id="node11" class="node"><title>Node11</title>
<g id="a_node11"><a xlink:href="typedef_8h.html#a9aaa34d570ccff65aa586904187cfff5" target="_top" xlink:title="clip">
<polygon fill="white" stroke="black" points="869,-0.5 869,-19.5 901,-19.5 901,-0.5 869,-0.5"/>
<text text-anchor="middle" x="885" y="-7.5" font-family="Helvetica,sans-Serif" font-size="10.00">clip</text>
</a>
</g>
</g>
<!-- Node10&#45;&gt;Node11 -->
<g id="edge11" class="edge"><title>Node10&#45;&gt;Node11</title>
<path fill="none" stroke="midnightblue" d="M772.028,-28.2427C802.297,-23.3112 836.372,-17.7597 858.897,-14.0899"/>
<polygon fill="midnightblue" stroke="midnightblue" points="859.652,-17.513 868.959,-12.4505 858.527,-10.6041 859.652,-17.513"/>
</g>
<!-- Node12 -->
<g id="node12" class="node"><title>Node12</title>
<g id="a_node12"><a xlink:href="classstatisticSource.html#ab919493c131a2f9b26c1c212c05ad223" target="_top" xlink:title="statisticSource::internal\lScaleFactor">
<polygon fill="white" stroke="black" points="1011.5,-66 1011.5,-96 1130.5,-96 1130.5,-66 1011.5,-66"/>
<text text-anchor="start" x="1019.5" y="-84" font-family="Helvetica,sans-Serif" font-size="10.00">statisticSource::internal</text>
<text text-anchor="middle" x="1071" y="-73" font-family="Helvetica,sans-Serif" font-size="10.00">ScaleFactor</text>
</a>
</g>
</g>
<!-- Node10&#45;&gt;Node12 -->
<g id="edge12" class="edge"><title>Node10&#45;&gt;Node12</title>
<path fill="none" stroke="midnightblue" d="M772.085,-45.9775C823.369,-51.4667 896.231,-59.4276 960,-67 973.253,-68.5738 987.396,-70.3219 1000.97,-72.0346"/>
<polygon fill="midnightblue" stroke="midnightblue" points="1000.86,-75.5483 1011.22,-73.3338 1001.74,-68.6039 1000.86,-75.5483"/>
</g>
<!-- Node14 -->
<g id="node14" class="node"><title>Node14</title>
<g id="a_node14"><a xlink:href="classStatisticsObject.html#a7ef3844aa2a91ec4fc67233f7a6f5552" target="_top" xlink:title="StatisticsObject::loadImage">
<polygon fill="white" stroke="black" points="636.5,-165.5 636.5,-184.5 773.5,-184.5 773.5,-165.5 636.5,-165.5"/>
<text text-anchor="middle" x="705" y="-172.5" font-family="Helvetica,sans-Serif" font-size="10.00">StatisticsObject::loadImage</text>
</a>
</g>
</g>
<!-- Node13&#45;&gt;Node14 -->
<g id="edge14" class="edge"><title>Node13&#45;&gt;Node14</title>
<path fill="none" stroke="midnightblue" d="M590.712,-175.659C602.077,-175.593 614.152,-175.522 626.022,-175.453"/>
<polygon fill="midnightblue" stroke="midnightblue" points="626.397,-178.951 636.377,-175.393 626.357,-171.951 626.397,-178.951"/>
</g>
<!-- Node14&#45;&gt;Node8 -->
<g id="edge19" class="edge"><title>Node14&#45;&gt;Node8</title>
<path fill="none" stroke="midnightblue" d="M717.382,-165.395C735.722,-150.386 773.465,-121.398 810,-105 815.349,-102.599 821.057,-100.461 826.841,-98.5664"/>
<polygon fill="midnightblue" stroke="midnightblue" points="828.044,-101.859 836.595,-95.6043 826.01,-95.1609 828.044,-101.859"/>
</g>
<!-- Node15 -->
<g id="node15" class="node"><title>Node15</title>
<g id="a_node15"><a xlink:href="classStatisticsObject.html#a977403d59c77839b97f38c4c5d09483b" target="_top" xlink:title="StatisticsObject::numFrames">
<polygon fill="white" stroke="black" points="813,-240.5 813,-259.5 957,-259.5 957,-240.5 813,-240.5"/>
<text text-anchor="middle" x="885" y="-247.5" font-family="Helvetica,sans-Serif" font-size="10.00">StatisticsObject::numFrames</text>
</a>
</g>
</g>
<!-- Node14&#45;&gt;Node15 -->
<g id="edge15" class="edge"><title>Node14&#45;&gt;Node15</title>
<path fill="none" stroke="midnightblue" d="M720.946,-184.558C740.665,-196.807 776.767,-218.009 810,-231 816.308,-233.466 823.044,-235.704 829.786,-237.707"/>
<polygon fill="midnightblue" stroke="midnightblue" points="829.044,-241.134 839.618,-240.473 830.94,-234.396 829.044,-241.134"/>
</g>
<!-- Node17 -->
<g id="node17" class="node"><title>Node17</title>
<g id="a_node17"><a xlink:href="classStatisticsObject.html#a9d90fa9d1b1373e6f93a9839c757739a" target="_top" xlink:title="StatisticsObject::internal\lScaleFactor">
<polygon fill="white" stroke="black" points="823,-115 823,-145 947,-145 947,-115 823,-115"/>
<text text-anchor="start" x="831" y="-133" font-family="Helvetica,sans-Serif" font-size="10.00">StatisticsObject::internal</text>
<text text-anchor="middle" x="885" y="-122" font-family="Helvetica,sans-Serif" font-size="10.00">ScaleFactor</text>
</a>
</g>
</g>
<!-- Node14&#45;&gt;Node17 -->
<g id="edge17" class="edge"><title>Node14&#45;&gt;Node17</title>
<path fill="none" stroke="midnightblue" d="M743.749,-165.457C764.379,-160.241 790.581,-153.617 814.74,-147.51"/>
<polygon fill="midnightblue" stroke="midnightblue" points="815.752,-150.864 824.589,-145.02 814.037,-144.077 815.752,-150.864"/>
</g>
<!-- Node18 -->
<g id="node18" class="node"><title>Node18</title>
<g id="a_node18"><a xlink:href="classDisplayObject.html#a814782fb1bf9e7a2ed7adab74872c08a" target="_top" xlink:title="DisplayObject::height">
<polygon fill="white" stroke="black" points="830,-202.5 830,-221.5 940,-221.5 940,-202.5 830,-202.5"/>
<text text-anchor="middle" x="885" y="-209.5" font-family="Helvetica,sans-Serif" font-size="10.00">DisplayObject::height</text>
</a>
</g>
</g>
<!-- Node14&#45;&gt;Node18 -->
<g id="edge20" class="edge"><title>Node14&#45;&gt;Node18</title>
<path fill="none" stroke="midnightblue" d="M751.839,-184.528C775.107,-189.365 803.567,-195.281 828.11,-200.382"/>
<polygon fill="midnightblue" stroke="midnightblue" points="827.504,-203.831 838.007,-202.44 828.929,-196.978 827.504,-203.831"/>
</g>
<!-- Node19 -->
<g id="node19" class="node"><title>Node19</title>
<g id="a_node19"><a xlink:href="classstatisticSource.html#a97118da6546c479004129b4fcc6851bf" target="_top" xlink:title="statisticSource::drawStatistics">
<polygon fill="white" stroke="black" points="810,-164.5 810,-183.5 960,-183.5 960,-164.5 810,-164.5"/>
<text text-anchor="middle" x="885" y="-171.5" font-family="Helvetica,sans-Serif" font-size="10.00">statisticSource::drawStatistics</text>
</a>
</g>
</g>
<!-- Node14&#45;&gt;Node19 -->
<g id="edge21" class="edge"><title>Node14&#45;&gt;Node19</title>
<path fill="none" stroke="midnightblue" d="M773.548,-174.621C782.101,-174.572 790.936,-174.523 799.709,-174.474"/>
<polygon fill="midnightblue" stroke="midnightblue" points="799.979,-177.972 809.959,-174.416 799.94,-170.972 799.979,-177.972"/>
</g>
<!-- Node16 -->
<g id="node16" class="node"><title>Node16</title>
<g id="a_node16"><a xlink:href="classstatisticSource.html#a49d2c60f7ce52592509c07fdc9d8e268" target="_top" xlink:title="statisticSource::getNumber\lFrames">
<polygon fill="white" stroke="black" points="1003,-235 1003,-265 1139,-265 1139,-235 1003,-235"/>
<text text-anchor="start" x="1011" y="-253" font-family="Helvetica,sans-Serif" font-size="10.00">statisticSource::getNumber</text>
<text text-anchor="middle" x="1071" y="-242" font-family="Helvetica,sans-Serif" font-size="10.00">Frames</text>
</a>
</g>
</g>
<!-- Node15&#45;&gt;Node16 -->
<g id="edge16" class="edge"><title>Node15&#45;&gt;Node16</title>
<path fill="none" stroke="midnightblue" d="M957.139,-250C968.793,-250 980.919,-250 992.714,-250"/>
<polygon fill="midnightblue" stroke="midnightblue" points="992.973,-253.5 1002.97,-250 992.973,-246.5 992.973,-253.5"/>
</g>
<!-- Node17&#45;&gt;Node12 -->
<g id="edge18" class="edge"><title>Node17&#45;&gt;Node12</title>
<path fill="none" stroke="midnightblue" d="M942.457,-114.965C961.884,-109.792 983.811,-103.952 1003.93,-98.5934"/>
<polygon fill="midnightblue" stroke="midnightblue" points="1004.89,-101.962 1013.65,-96.0062 1003.09,-95.1975 1004.89,-101.962"/>
</g>
<!-- Node20 -->
<g id="node20" class="node"><title>Node20</title>
<g id="a_node20"><a xlink:href="classstatisticSource.html#a666dee63c406a9b88484286b2a8e08f4" target="_top" xlink:title="statisticSource::getStatistics">
<polygon fill="white" stroke="black" points="999.5,-180.5 999.5,-199.5 1142.5,-199.5 1142.5,-180.5 999.5,-180.5"/>
<text text-anchor="middle" x="1071" y="-187.5" font-family="Helvetica,sans-Serif" font-size="10.00">statisticSource::getStatistics</text>
</a>
</g>
</g>
<!-- Node19&#45;&gt;Node20 -->
<g id="edge22" class="edge"><title>Node19&#45;&gt;Node20</title>
<path fill="none" stroke="midnightblue" d="M960.044,-180.439C969.679,-181.276 979.588,-182.138 989.324,-182.985"/>
<polygon fill="midnightblue" stroke="midnightblue" points="989.124,-186.48 999.39,-183.86 989.731,-179.507 989.124,-186.48"/>
</g>
<!-- Node22 -->
<g id="node22" class="node"><title>Node22</title>
<g id="a_node22"><a xlink:href="classstatisticSource.html#af005d063b46b611d6166d4d8439d6245" target="_top" xlink:title="statisticSource::drawStatistics\lImage">
<polygon fill="white" stroke="black" points="996,-131 996,-161 1146,-161 1146,-131 996,-131"/>
<text text-anchor="start" x="1004" y="-149" font-family="Helvetica,sans-Serif" font-size="10.00">statisticSource::drawStatistics</text>
<text text-anchor="middle" x="1071" y="-138" font-family="Helvetica,sans-Serif" font-size="10.00">Image</text>
</a>
</g>
</g>
<!-- Node19&#45;&gt;Node22 -->
<g id="edge24" class="edge"><title>Node19&#45;&gt;Node22</title>
<path fill="none" stroke="midnightblue" d="M948.551,-164.481C960.553,-162.655 973.303,-160.715 985.856,-158.805"/>
<polygon fill="midnightblue" stroke="midnightblue" points="986.504,-162.246 995.863,-157.282 985.451,-155.326 986.504,-162.246"/>
</g>
<!-- Node21 -->
<g id="node21" class="node"><title>Node21</title>
<g id="a_node21"><a xlink:href="classstatisticSource.html#a769e0ef8bb1427d4d586425956ebfca2" target="_top" xlink:title="statisticSource::loadStatistic\lToCache">
<polygon fill="white" stroke="black" points="1182,-175 1182,-205 1324,-205 1324,-175 1182,-175"/>
<text text-anchor="start" x="1190" y="-193" font-family="Helvetica,sans-Serif" font-size="10.00">statisticSource::loadStatistic</text>
<text text-anchor="middle" x="1253" y="-182" font-family="Helvetica,sans-Serif" font-size="10.00">ToCache</text>
</a>
</g>
</g>
<!-- Node20&#45;&gt;Node21 -->
<g id="edge23" class="edge"><title>Node20&#45;&gt;Node21</title>
<path fill="none" stroke="midnightblue" d="M1142.62,-190C1152.2,-190 1162.08,-190 1171.81,-190"/>
<polygon fill="midnightblue" stroke="midnightblue" points="1171.87,-193.5 1181.87,-190 1171.87,-186.5 1171.87,-193.5"/>
</g>
<!-- Node23 -->
<g id="node23" class="node"><title>Node23</title>
<g id="a_node23"><a xlink:href="statisticSource_8cpp.html#a00b2533858fa82f16ddb39544cfff2b4" target="_top" xlink:title="rotateVector">
<polygon fill="white" stroke="black" points="1218,-136.5 1218,-155.5 1288,-155.5 1288,-136.5 1218,-136.5"/>
<text text-anchor="middle" x="1253" y="-143.5" font-family="Helvetica,sans-Serif" font-size="10.00">rotateVector</text>
</a>
</g>
</g>
<!-- Node22&#45;&gt;Node23 -->
<g id="edge25" class="edge"><title>Node22&#45;&gt;Node23</title>
<path fill="none" stroke="midnightblue" d="M1146.25,-146C1167.07,-146 1189.05,-146 1207.55,-146"/>
<polygon fill="midnightblue" stroke="midnightblue" points="1207.72,-149.5 1217.72,-146 1207.72,-142.5 1207.72,-149.5"/>
</g>
</g>
</svg>
