<?xml version="1.0" encoding="UTF-8" standalone="no"?>
<!DOCTYPE svg PUBLIC "-//W3C//DTD SVG 1.1//EN"
 "http://www.w3.org/Graphics/SVG/1.1/DTD/svg11.dtd">
<!-- Generated by graphviz version 2.38.0 (20140413.2041)
 -->
<!-- Title: DisplaySplitWidget::setActiveStatisticsObjects Pages: 1 -->
<svg width="467pt" height="104pt"
 viewBox="0.00 0.00 467.00 104.00" xmlns="http://www.w3.org/2000/svg" xmlns:xlink="http://www.w3.org/1999/xlink">
<g id="graph0" class="graph" transform="scale(1 1) rotate(0) translate(4 100)">
<title>DisplaySplitWidget::setActiveStatisticsObjects</title>
<polygon fill="white" stroke="none" points="-4,4 -4,-100 463,-100 463,4 -4,4"/>
<!-- Node1 -->
<g id="node1" class="node"><title>Node1</title>
<polygon fill="#bfbfbf" stroke="black" points="0,-33 0,-63 139,-63 139,-33 0,-33"/>
<text text-anchor="start" x="8" y="-51" font-family="Helvetica,sans-Serif" font-size="10.00">DisplaySplitWidget</text>
<text text-anchor="middle" x="69.5" y="-40" font-family="Helvetica,sans-Serif" font-size="10.00">::setActiveStatisticsObjects</text>
</g>
<!-- Node2 -->
<g id="node2" class="node"><title>Node2</title>
<g id="a_node2"><a xlink:href="classDisplayWidget.html#a7647a72d7c488005815720f838bcb2b3" target="_top" xlink:title="DisplayWidget::setOverlay\lStatisticsObject">
<polygon fill="white" stroke="black" points="175,-33 175,-63 309,-63 309,-33 175,-33"/>
<text text-anchor="start" x="183" y="-51" font-family="Helvetica,sans-Serif" font-size="10.00">DisplayWidget::setOverlay</text>
<text text-anchor="middle" x="242" y="-40" font-family="Helvetica,sans-Serif" font-size="10.00">StatisticsObject</text>
</a>
</g>
</g>
<!-- Node1&#45;&gt;Node2 -->
<g id="edge1" class="edge"><title>Node1&#45;&gt;Node2</title>
<path fill="none" stroke="midnightblue" d="M139.357,-48C147.702,-48 156.265,-48 164.708,-48"/>
<polygon fill="midnightblue" stroke="midnightblue" points="164.927,-51.5001 174.927,-48 164.927,-44.5001 164.927,-51.5001"/>
</g>
<!-- Node3 -->
<g id="node3" class="node"><title>Node3</title>
<g id="a_node3"><a xlink:href="classDisplayObject.html#afb3b221174f722f563e7bf55a1ddb29f" target="_top" xlink:title="DisplayObject::width">
<polygon fill="white" stroke="black" points="348.5,-76.5 348.5,-95.5 455.5,-95.5 455.5,-76.5 348.5,-76.5"/>
<text text-anchor="middle" x="402" y="-83.5" font-family="Helvetica,sans-Serif" font-size="10.00">DisplayObject::width</text>
</a>
</g>
</g>
<!-- Node2&#45;&gt;Node3 -->
<g id="edge2" class="edge"><title>Node2&#45;&gt;Node3</title>
<path fill="none" stroke="midnightblue" d="M305.446,-63.0186C320.724,-66.6931 336.867,-70.5757 351.449,-74.0826"/>
<polygon fill="midnightblue" stroke="midnightblue" points="350.723,-77.5077 361.264,-76.4432 352.36,-70.7018 350.723,-77.5077"/>
</g>
<!-- Node4 -->
<g id="node4" class="node"><title>Node4</title>
<g id="a_node4"><a xlink:href="classDisplayObject.html#a814782fb1bf9e7a2ed7adab74872c08a" target="_top" xlink:title="DisplayObject::height">
<polygon fill="white" stroke="black" points="347,-38.5 347,-57.5 457,-57.5 457,-38.5 347,-38.5"/>
<text text-anchor="middle" x="402" y="-45.5" font-family="Helvetica,sans-Serif" font-size="10.00">DisplayObject::height</text>
</a>
</g>
</g>
<!-- Node2&#45;&gt;Node4 -->
<g id="edge3" class="edge"><title>Node2&#45;&gt;Node4</title>
<path fill="none" stroke="midnightblue" d="M309.091,-48C318.184,-48 327.512,-48 336.574,-48"/>
<polygon fill="midnightblue" stroke="midnightblue" points="336.667,-51.5001 346.667,-48 336.667,-44.5001 336.667,-51.5001"/>
</g>
<!-- Node5 -->
<g id="node5" class="node"><title>Node5</title>
<g id="a_node5"><a xlink:href="classDisplayObject.html#a790f4bdf4ecb24617ea7db5837c3048c" target="_top" xlink:title="DisplayObject::setInfo">
<polygon fill="white" stroke="black" points="345,-0.5 345,-19.5 459,-19.5 459,-0.5 345,-0.5"/>
<text text-anchor="middle" x="402" y="-7.5" font-family="Helvetica,sans-Serif" font-size="10.00">DisplayObject::setInfo</text>
</a>
</g>
</g>
<!-- Node2&#45;&gt;Node5 -->
<g id="edge4" class="edge"><title>Node2&#45;&gt;Node5</title>
<path fill="none" stroke="midnightblue" d="M305.446,-32.9814C320.724,-29.3069 336.867,-25.4243 351.449,-21.9174"/>
<polygon fill="midnightblue" stroke="midnightblue" points="352.36,-25.2982 361.264,-19.5568 350.723,-18.4923 352.36,-25.2982"/>
</g>
</g>
</svg>
