<?xml version="1.0" encoding="UTF-8" standalone="no"?>
<!DOCTYPE svg PUBLIC "-//W3C//DTD SVG 1.1//EN"
 "http://www.w3.org/Graphics/SVG/1.1/DTD/svg11.dtd">
<!-- Generated by graphviz version 2.38.0 (20140413.2041)
 -->
<!-- Title: statisticSourceFile Pages: 1 -->
<!--zoomable 492 -->
<svg id="main" version="1.1" xmlns="http://www.w3.org/2000/svg" xmlns:xlink="http://www.w3.org/1999/xlink" xml:space="preserve" onload="init(evt)">
<style type="text/css"><![CDATA[
.edge:hover path { stroke: red; }
.edge:hover polygon { stroke: red; fill: red; }
]]></style>
<script type="text/javascript"><![CDATA[
var edges = document.getElementsByTagName('g');
if (edges && edges.length) {
  for (var i=0;i<edges.length;i++) {
    if (edges[i].id.substr(0,4)=='edge') {
      edges[i].setAttribute('class','edge');
    }
  }
}
]]></script>
        <defs>
                <circle id="rim" cx="0" cy="0" r="7"/>
                <circle id="rim2" cx="0" cy="0" r="3.5"/>
                <g id="zoomPlus">
                        <use xlink:href="#rim" fill="#404040">
                                <set attributeName="fill" to="#808080" begin="zoomplus.mouseover" end="zoomplus.mouseout"/>
                        </use>
                        <path d="M-4,0h8M0,-4v8" fill="none" stroke="white" stroke-width="1.5" pointer-events="none"/>
                </g>
                <g id="zoomMin">
                        <use xlink:href="#rim" fill="#404040">
                                <set attributeName="fill" to="#808080" begin="zoomminus.mouseover" end="zoomminus.mouseout"/>
                        </use>
                        <path d="M-4,0h8" fill="none" stroke="white" stroke-width="1.5" pointer-events="none"/>
                </g>
                <g id="dirArrow">
                        <path fill="none" stroke="white" stroke-width="1.5" d="M0,-3.0v7 M-2.5,-0.5L0,-3.0L2.5,-0.5"/>
                </g>
               <g id="resetDef">
                       <use xlink:href="#rim2" fill="#404040">
                               <set attributeName="fill" to="#808080" begin="reset.mouseover" end="reset.mouseout"/>
                       </use>
               </g>
        </defs>

<script type="text/javascript">
var viewWidth = 650;
var viewHeight = 492;
var sectionId = 'dynsection-1';
</script>
<script xlink:href="svgpan.js"/>
<svg id="graph" class="graph">
<g id="viewport">
<title>statisticSourceFile</title>
<polygon fill="white" stroke="none" points="-4,4 -4,-488.057 646,-488.057 646,4 -4,4"/>
<!-- Node1 -->
<g id="node1" class="node"><title>Node1</title>
<polygon fill="#bfbfbf" stroke="black" points="544,-171.557 544,-190.557 642,-190.557 642,-171.557 544,-171.557"/>
<text text-anchor="middle" x="593" y="-178.557" font-family="Helvetica,sans-Serif" font-size="10.00">statisticSourceFile</text>
</g>
<!-- Node2 -->
<g id="node2" class="node"><title>Node2</title>
<g id="a_node2"><a xlink:href="classstatisticSource.html" target="_top" xlink:title="statisticSource">
<polygon fill="white" stroke="black" points="285.5,-350.557 285.5,-369.557 367.5,-369.557 367.5,-350.557 285.5,-350.557"/>
<text text-anchor="middle" x="326.5" y="-357.557" font-family="Helvetica,sans-Serif" font-size="10.00">statisticSource</text>
</a>
</g>
</g>
<!-- Node2&#45;&gt;Node1 -->
<g id="edge1" class="edge"><title>Node2&#45;&gt;Node1</title>
<path fill="none" stroke="midnightblue" d="M377.305,-348.522C420.238,-336.658 482.064,-314.788 526,-279.057 557.033,-253.82 579.083,-210.169 587.83,-190.799"/>
<polygon fill="midnightblue" stroke="midnightblue" points="376.387,-345.145 367.634,-351.115 378.199,-351.906 376.387,-345.145"/>
</g>
<!-- Node3 -->
<g id="node3" class="node"><title>Node3</title>
<g id="a_node3"><a xlink:href="classQObject.html" target="_top" xlink:title="QObject">
<polygon fill="white" stroke="black" points="40.5,-463.557 40.5,-482.557 93.5,-482.557 93.5,-463.557 40.5,-463.557"/>
<text text-anchor="middle" x="67" y="-470.557" font-family="Helvetica,sans-Serif" font-size="10.00">QObject</text>
</a>
</g>
</g>
<!-- Node3&#45;&gt;Node2 -->
<g id="edge2" class="edge"><title>Node3&#45;&gt;Node2</title>
<path fill="none" stroke="midnightblue" d="M103.775,-470.966C141.991,-467.459 203.357,-458.083 250,-433.057 280.044,-416.937 306.481,-385.416 318.55,-369.595"/>
<polygon fill="midnightblue" stroke="midnightblue" points="103.318,-467.492 93.6419,-471.808 103.897,-474.468 103.318,-467.492"/>
</g>
<!-- Node4 -->
<g id="node4" class="node"><title>Node4</title>
<polygon fill="white" stroke="#bfbfbf" points="1.5,-408.057 1.5,-438.057 132.5,-438.057 132.5,-408.057 1.5,-408.057"/>
<text text-anchor="start" x="9.5" y="-426.057" font-family="Helvetica,sans-Serif" font-size="10.00">QHash&lt; int, QHash&lt;</text>
<text text-anchor="middle" x="67" y="-415.057" font-family="Helvetica,sans-Serif" font-size="10.00"> int, StatisticsItemList &gt; &gt;</text>
</g>
<!-- Node4&#45;&gt;Node2 -->
<g id="edge3" class="edge"><title>Node4&#45;&gt;Node2</title>
<path fill="none" stroke="#9a32cd" stroke-dasharray="5,2" d="M142.909,-419.032C176.269,-415.757 215.689,-409.82 250,-399.057 272.382,-392.036 296.086,-378.692 310.836,-369.588"/>
<polygon fill="#9a32cd" stroke="#9a32cd" points="142.4,-415.564 132.762,-419.966 143.041,-422.535 142.4,-415.564"/>
<text text-anchor="middle" x="201" y="-421.057" font-family="Helvetica,sans-Serif" font-size="10.00"> p_statsCache</text>
</g>
<!-- Node5 -->
<g id="node5" class="node"><title>Node5</title>
<polygon fill="white" stroke="#bfbfbf" points="42,-369.557 42,-388.557 92,-388.557 92,-369.557 42,-369.557"/>
<text text-anchor="middle" x="67" y="-376.557" font-family="Helvetica,sans-Serif" font-size="10.00">QString</text>
</g>
<!-- Node5&#45;&gt;Node1 -->
<g id="edge9" class="edge"><title>Node5&#45;&gt;Node1</title>
<path fill="none" stroke="#9a32cd" stroke-dasharray="5,2" d="M102.074,-383.356C113.186,-386.113 124.973,-390.637 134,-398.057 147.513,-409.165 137.068,-423.945 152,-433.057 189.18,-455.745 207.212,-441.2 250,-433.057 379.561,-408.4 430.155,-414.654 526,-324.057 566.934,-285.364 584.726,-216.347 590.115,-190.863"/>
<polygon fill="#9a32cd" stroke="#9a32cd" points="102.661,-379.903 92.1575,-381.288 101.232,-386.756 102.661,-379.903"/>
<text text-anchor="middle" x="326.5" y="-476.057" font-family="Helvetica,sans-Serif" font-size="10.00"> p_FileName</text>
<text text-anchor="middle" x="326.5" y="-465.057" font-family="Helvetica,sans-Serif" font-size="10.00">p_filePath</text>
<text text-anchor="middle" x="326.5" y="-454.057" font-family="Helvetica,sans-Serif" font-size="10.00">p_modifiedtime</text>
<text text-anchor="middle" x="326.5" y="-443.057" font-family="Helvetica,sans-Serif" font-size="10.00">p_createdtime</text>
<text text-anchor="middle" x="326.5" y="-432.057" font-family="Helvetica,sans-Serif" font-size="10.00">p_srcFileName</text>
</g>
<!-- Node5&#45;&gt;Node2 -->
<g id="edge4" class="edge"><title>Node5&#45;&gt;Node2</title>
<path fill="none" stroke="#9a32cd" stroke-dasharray="5,2" d="M102.287,-376.527C149.641,-373.033 234.9,-366.742 285.228,-363.028"/>
<polygon fill="#9a32cd" stroke="#9a32cd" points="101.94,-373.043 92.225,-377.269 102.455,-380.024 101.94,-373.043"/>
<text text-anchor="middle" x="201" y="-387.057" font-family="Helvetica,sans-Serif" font-size="10.00"> p_status</text>
<text text-anchor="middle" x="201" y="-376.057" font-family="Helvetica,sans-Serif" font-size="10.00">p_info</text>
</g>
<!-- Node6 -->
<g id="node6" class="node"><title>Node6</title>
<polygon fill="white" stroke="#bfbfbf" points="0,-331.557 0,-350.557 134,-350.557 134,-331.557 0,-331.557"/>
<text text-anchor="middle" x="67" y="-338.557" font-family="Helvetica,sans-Serif" font-size="10.00">QVector&lt; StatisticsType &gt;</text>
</g>
<!-- Node6&#45;&gt;Node2 -->
<g id="edge5" class="edge"><title>Node6&#45;&gt;Node2</title>
<path fill="none" stroke="#9a32cd" stroke-dasharray="5,2" d="M144.556,-344.177C177.098,-345.785 215.437,-348.05 250,-351.057 261.441,-352.052 273.826,-353.41 285.191,-354.77"/>
<polygon fill="#9a32cd" stroke="#9a32cd" points="144.363,-340.664 134.206,-343.678 144.026,-347.656 144.363,-340.664"/>
<text text-anchor="middle" x="201" y="-354.057" font-family="Helvetica,sans-Serif" font-size="10.00"> p_statsTypeList</text>
</g>
<!-- Node7 -->
<g id="node7" class="node"><title>Node7</title>
<polygon fill="white" stroke="#bfbfbf" points="52.5,-272.557 52.5,-291.557 81.5,-291.557 81.5,-272.557 52.5,-272.557"/>
<text text-anchor="middle" x="67" y="-279.557" font-family="Helvetica,sans-Serif" font-size="10.00">int</text>
</g>
<!-- Node7&#45;&gt;Node1 -->
<g id="edge11" class="edge"><title>Node7&#45;&gt;Node1</title>
<path fill="none" stroke="#9a32cd" stroke-dasharray="5,2" d="M92.0335,-283.321C161.787,-286.141 369.261,-288.506 526,-228.057 548.049,-219.553 569.583,-201.97 581.781,-190.885"/>
<polygon fill="#9a32cd" stroke="#9a32cd" points="91.844,-279.809 81.6969,-282.856 91.5297,-286.801 91.844,-279.809"/>
<text text-anchor="middle" x="326.5" y="-283.057" font-family="Helvetica,sans-Serif" font-size="10.00"> p_frameRate</text>
</g>
<!-- Node7&#45;&gt;Node2 -->
<g id="edge6" class="edge"><title>Node7&#45;&gt;Node2</title>
<path fill="none" stroke="#9a32cd" stroke-dasharray="5,2" d="M91.9008,-284.622C127.286,-288.927 195.319,-299.157 250,-319.057 272.426,-327.218 296.312,-341.194 311.072,-350.527"/>
<polygon fill="#9a32cd" stroke="#9a32cd" points="91.9545,-281.105 81.6175,-283.428 91.147,-288.058 91.9545,-281.105"/>
<text text-anchor="middle" x="201" y="-333.057" font-family="Helvetica,sans-Serif" font-size="10.00"> p_internalScaleFactor</text>
<text text-anchor="middle" x="201" y="-322.057" font-family="Helvetica,sans-Serif" font-size="10.00">p_lastFrameIdx</text>
</g>
<!-- Node8 -->
<g id="node8" class="node"><title>Node8</title>
<polygon fill="white" stroke="#bfbfbf" points="303,-209.557 303,-228.557 350,-228.557 350,-209.557 303,-209.557"/>
<text text-anchor="middle" x="326.5" y="-216.557" font-family="Helvetica,sans-Serif" font-size="10.00">QFile *</text>
</g>
<!-- Node8&#45;&gt;Node1 -->
<g id="edge7" class="edge"><title>Node8&#45;&gt;Node1</title>
<path fill="none" stroke="#9a32cd" stroke-dasharray="5,2" d="M360.347,-216.347C399.84,-212.837 468.051,-205.969 526,-196.057 534.918,-194.531 544.443,-192.567 553.402,-190.565"/>
<polygon fill="#9a32cd" stroke="#9a32cd" points="359.897,-212.873 350.238,-217.228 360.504,-219.847 359.897,-212.873"/>
<text text-anchor="middle" x="464.5" y="-216.057" font-family="Helvetica,sans-Serif" font-size="10.00"> p_srcFile</text>
</g>
<!-- Node9 -->
<g id="node9" class="node"><title>Node9</title>
<polygon fill="white" stroke="#bfbfbf" points="282.5,-171.557 282.5,-190.557 370.5,-190.557 370.5,-171.557 282.5,-171.557"/>
<text text-anchor="middle" x="326.5" y="-178.557" font-family="Helvetica,sans-Serif" font-size="10.00">QFuture&lt; void &gt;</text>
</g>
<!-- Node9&#45;&gt;Node1 -->
<g id="edge8" class="edge"><title>Node9&#45;&gt;Node1</title>
<path fill="none" stroke="#9a32cd" stroke-dasharray="5,2" d="M380.696,-181.057C428.29,-181.057 497.463,-181.057 543.549,-181.057"/>
<polygon fill="#9a32cd" stroke="#9a32cd" points="380.585,-177.557 370.585,-181.057 380.585,-184.557 380.585,-177.557"/>
<text text-anchor="middle" x="464.5" y="-184.057" font-family="Helvetica,sans-Serif" font-size="10.00"> p_backgroundParserFuture</text>
</g>
<!-- Node10 -->
<g id="node10" class="node"><title>Node10</title>
<polygon fill="white" stroke="#bfbfbf" points="268,-122.057 268,-152.057 385,-152.057 385,-122.057 268,-122.057"/>
<text text-anchor="start" x="276" y="-140.057" font-family="Helvetica,sans-Serif" font-size="10.00">QMap&lt; int, QMap&lt; int,</text>
<text text-anchor="middle" x="326.5" y="-129.057" font-family="Helvetica,sans-Serif" font-size="10.00"> qint64 &gt; &gt;</text>
</g>
<!-- Node10&#45;&gt;Node1 -->
<g id="edge10" class="edge"><title>Node10&#45;&gt;Node1</title>
<path fill="none" stroke="#9a32cd" stroke-dasharray="5,2" d="M395.082,-145.592C433.574,-150.788 482.627,-157.973 526,-166.057 534.548,-167.65 543.669,-169.576 552.318,-171.508"/>
<polygon fill="#9a32cd" stroke="#9a32cd" points="395.403,-142.104 385.027,-144.248 394.475,-149.043 395.403,-142.104"/>
<text text-anchor="middle" x="464.5" y="-169.057" font-family="Helvetica,sans-Serif" font-size="10.00"> p_pocTypeStartList</text>
</g>
<!-- Node11 -->
<g id="node11" class="node"><title>Node11</title>
<polygon fill="white" stroke="#bfbfbf" points="309,-83.557 309,-102.557 344,-102.557 344,-83.557 309,-83.557"/>
<text text-anchor="middle" x="326.5" y="-90.557" font-family="Helvetica,sans-Serif" font-size="10.00">bool</text>
</g>
<!-- Node11&#45;&gt;Node1 -->
<g id="edge12" class="edge"><title>Node11&#45;&gt;Node1</title>
<path fill="none" stroke="#9a32cd" stroke-dasharray="5,2" d="M354.256,-91.9602C393.755,-91.3881 469.128,-94.354 526,-121.057 551.231,-132.904 573.61,-157.754 584.674,-171.465"/>
<polygon fill="#9a32cd" stroke="#9a32cd" points="354.027,-88.4645 344.112,-92.1986 354.192,-95.4626 354.027,-88.4645"/>
<text text-anchor="middle" x="464.5" y="-135.057" font-family="Helvetica,sans-Serif" font-size="10.00"> p_cancelBackgroundParser</text>
<text text-anchor="middle" x="464.5" y="-124.057" font-family="Helvetica,sans-Serif" font-size="10.00">bFileSortedByPOC</text>
</g>
<!-- Node12 -->
<g id="node12" class="node"><title>Node12</title>
<polygon fill="white" stroke="#bfbfbf" points="305,-42.557 305,-61.557 348,-61.557 348,-42.557 305,-42.557"/>
<text text-anchor="middle" x="326.5" y="-49.557" font-family="Helvetica,sans-Serif" font-size="10.00">qint64</text>
</g>
<!-- Node12&#45;&gt;Node1 -->
<g id="edge13" class="edge"><title>Node12&#45;&gt;Node1</title>
<path fill="none" stroke="#9a32cd" stroke-dasharray="5,2" d="M358.33,-46.2958C399.842,-40.2597 474.439,-35.6371 526,-68.057 564.851,-92.4851 583.483,-148.719 589.615,-171.355"/>
<polygon fill="#9a32cd" stroke="#9a32cd" points="357.612,-42.8658 348.279,-47.8807 358.702,-49.7803 357.612,-42.8658"/>
<text text-anchor="middle" x="464.5" y="-82.057" font-family="Helvetica,sans-Serif" font-size="10.00"> p_nrFrames</text>
<text text-anchor="middle" x="464.5" y="-71.057" font-family="Helvetica,sans-Serif" font-size="10.00">p_fileSize</text>
</g>
<!-- Node13 -->
<g id="node13" class="node"><title>Node13</title>
<polygon fill="white" stroke="#bfbfbf" points="304.5,-4.55696 304.5,-23.557 348.5,-23.557 348.5,-4.55696 304.5,-4.55696"/>
<text text-anchor="middle" x="326.5" y="-11.557" font-family="Helvetica,sans-Serif" font-size="10.00">QSize</text>
</g>
<!-- Node13&#45;&gt;Node1 -->
<g id="edge14" class="edge"><title>Node13&#45;&gt;Node1</title>
<path fill="none" stroke="#9a32cd" stroke-dasharray="5,2" d="M358.614,-6.8603C400.702,0.982572 476.225,8.15197 526,-27.057 575.87,-62.3329 588.334,-143.363 591.203,-171.344"/>
<polygon fill="#9a32cd" stroke="#9a32cd" points="357.793,-3.45515 348.67,-8.84338 359.162,-10.32 357.793,-3.45515"/>
<text text-anchor="middle" x="464.5" y="-30.057" font-family="Helvetica,sans-Serif" font-size="10.00"> p_size</text>
</g>
</g>
</svg>
        <g id="navigator" transform="translate(0 0)" fill="#404254">
                <rect fill="#f2f5e9" fill-opacity="0.5" stroke="#606060" stroke-width=".5" x="0" y="0" width="60" height="60"/>
                <use id="zoomplus" xlink:href="#zoomPlus" x="17" y="9" onmousedown="handleZoom(evt,'in')"/>
                <use id="zoomminus" xlink:href="#zoomMin" x="42" y="9" onmousedown="handleZoom(evt,'out')"/>
                <use id="reset" xlink:href="#resetDef" x="30" y="36" onmousedown="handleReset()"/>
                <g id="arrowUp" xlink:href="#dirArrow" transform="translate(30 24)" onmousedown="handlePan(0,-1)">
                  <use xlink:href="#rim" fill="#404040">
                        <set attributeName="fill" to="#808080" begin="arrowUp.mouseover" end="arrowUp.mouseout"/>
                  </use>
                  <path fill="none" stroke="white" stroke-width="1.5" d="M0,-3.0v7 M-2.5,-0.5L0,-3.0L2.5,-0.5"/>
                </g>
                <g id="arrowRight" xlink:href="#dirArrow" transform="rotate(90) translate(36 -43)" onmousedown="handlePan(1,0)">
                  <use xlink:href="#rim" fill="#404040">
                        <set attributeName="fill" to="#808080" begin="arrowRight.mouseover" end="arrowRight.mouseout"/>
                  </use>
                  <path fill="none" stroke="white" stroke-width="1.5" d="M0,-3.0v7 M-2.5,-0.5L0,-3.0L2.5,-0.5"/>
                </g>
                <g id="arrowDown" xlink:href="#dirArrow" transform="rotate(180) translate(-30 -48)" onmousedown="handlePan(0,1)">
                  <use xlink:href="#rim" fill="#404040">
                        <set attributeName="fill" to="#808080" begin="arrowDown.mouseover" end="arrowDown.mouseout"/>
                  </use>
                  <path fill="none" stroke="white" stroke-width="1.5" d="M0,-3.0v7 M-2.5,-0.5L0,-3.0L2.5,-0.5"/>
                </g>
                <g id="arrowLeft" xlink:href="#dirArrow" transform="rotate(270) translate(-36 17)" onmousedown="handlePan(-1,0)">
                  <use xlink:href="#rim" fill="#404040">
                        <set attributeName="fill" to="#808080" begin="arrowLeft.mouseover" end="arrowLeft.mouseout"/>
                  </use>
                  <path fill="none" stroke="white" stroke-width="1.5" d="M0,-3.0v7 M-2.5,-0.5L0,-3.0L2.5,-0.5"/>
                </g>
        </g>
        <svg viewBox="0 0 15 15" width="100%" height="30px" preserveAspectRatio="xMaxYMin meet">
         <g id="arrow_out" transform="scale(0.3 0.3)">
          <a xlink:href="classstatisticSourceFile__coll__graph_org.svg" target="_base">
           <rect id="button" ry="5" rx="5" y="6" x="6" height="38" width="38"
                fill="#f2f5e9" fill-opacity="0.5" stroke="#606060" stroke-width="1.0"/>
           <path id="arrow"
             d="M 11.500037,31.436501 C 11.940474,20.09759 22.043105,11.32322 32.158766,21.979434 L 37.068811,17.246167 C 37.068811,17.246167 37.088388,32 37.088388,32 L 22.160133,31.978069 C 22.160133,31.978069 26.997745,27.140456 26.997745,27.140456 C 18.528582,18.264221 13.291696,25.230495 11.500037,31.436501 z"
             style="fill:#404040;"/>
          </a>
         </g>
        </svg>
</svg>
