<?xml version="1.0" encoding="UTF-8" standalone="no"?>
<!DOCTYPE svg PUBLIC "-//W3C//DTD SVG 1.1//EN"
 "http://www.w3.org/Graphics/SVG/1.1/DTD/svg11.dtd">
<!-- Generated by graphviz version 2.38.0 (20140413.2041)
 -->
<!-- Title: MainWindow::stop Pages: 1 -->
<svg width="503pt" height="192pt"
 viewBox="0.00 0.00 503.00 191.50" xmlns="http://www.w3.org/2000/svg" xmlns:xlink="http://www.w3.org/1999/xlink">
<g id="graph0" class="graph" transform="scale(1 1) rotate(0) translate(4 187.5)">
<title>MainWindow::stop</title>
<polygon fill="white" stroke="none" points="-4,4 -4,-187.5 499,-187.5 499,4 -4,4"/>
<!-- Node1 -->
<g id="node1" class="node"><title>Node1</title>
<polygon fill="#bfbfbf" stroke="black" points="0,-114.5 0,-133.5 98,-133.5 98,-114.5 0,-114.5"/>
<text text-anchor="middle" x="49" y="-121.5" font-family="Helvetica,sans-Serif" font-size="10.00">MainWindow::stop</text>
</g>
<!-- Node2 -->
<g id="node2" class="node"><title>Node2</title>
<g id="a_node2"><a xlink:href="classMainWindow.html#a6a271bddd41d8f0e1e105187f5b1bf06" target="_top" xlink:title="MainWindow::isPlaylistItem\lSelected">
<polygon fill="white" stroke="black" points="141,-153 141,-183 279,-183 279,-153 141,-153"/>
<text text-anchor="start" x="149" y="-171" font-family="Helvetica,sans-Serif" font-size="10.00">MainWindow::isPlaylistItem</text>
<text text-anchor="middle" x="210" y="-160" font-family="Helvetica,sans-Serif" font-size="10.00">Selected</text>
</a>
</g>
</g>
<!-- Node1&#45;&gt;Node2 -->
<g id="edge1" class="edge"><title>Node1&#45;&gt;Node2</title>
<path fill="none" stroke="midnightblue" d="M84.5006,-133.547C102.162,-138.435 124.242,-144.545 144.884,-150.257"/>
<polygon fill="midnightblue" stroke="midnightblue" points="143.988,-153.641 154.559,-152.935 145.855,-146.894 143.988,-153.641"/>
</g>
<!-- Node3 -->
<g id="node3" class="node"><title>Node3</title>
<g id="a_node3"><a xlink:href="classMainWindow.html#aea2b70d7ccb204793c3121600f612c84" target="_top" xlink:title="Return the primary and secondary playlist item that is currently selected. ">
<polygon fill="white" stroke="black" points="334,-153 334,-183 483,-183 483,-153 334,-153"/>
<text text-anchor="start" x="342" y="-171" font-family="Helvetica,sans-Serif" font-size="10.00">MainWindow::selectedPrimary</text>
<text text-anchor="middle" x="408.5" y="-160" font-family="Helvetica,sans-Serif" font-size="10.00">PlaylistItem</text>
</a>
</g>
</g>
<!-- Node1&#45;&gt;Node3 -->
<g id="edge10" class="edge"><title>Node1&#45;&gt;Node3</title>
<path fill="none" stroke="midnightblue" d="M98.0861,-126.515C145.899,-129.382 221.258,-134.891 286,-144 299.706,-145.928 314.203,-148.405 328.224,-151.031"/>
<polygon fill="midnightblue" stroke="midnightblue" points="327.853,-154.524 338.333,-152.965 329.168,-147.648 327.853,-154.524"/>
</g>
<!-- Node4 -->
<g id="node4" class="node"><title>Node4</title>
<g id="a_node4"><a xlink:href="classMainWindow.html#a904474dcf6f3da3e95bba2380192129a" target="_top" xlink:title="set current frame for playback ">
<polygon fill="white" stroke="black" points="134,-76.5 134,-95.5 286,-95.5 286,-76.5 134,-76.5"/>
<text text-anchor="middle" x="210" y="-83.5" font-family="Helvetica,sans-Serif" font-size="10.00">MainWindow::setCurrentFrame</text>
</a>
</g>
</g>
<!-- Node1&#45;&gt;Node4 -->
<g id="edge3" class="edge"><title>Node1&#45;&gt;Node4</title>
<path fill="none" stroke="midnightblue" d="M90.1224,-114.411C111.104,-109.396 136.982,-103.212 159.23,-97.8947"/>
<polygon fill="midnightblue" stroke="midnightblue" points="160.254,-101.249 169.166,-95.5201 158.626,-94.4405 160.254,-101.249"/>
</g>
<!-- Node2&#45;&gt;Node3 -->
<g id="edge2" class="edge"><title>Node2&#45;&gt;Node3</title>
<path fill="none" stroke="midnightblue" d="M279.175,-168C293.495,-168 308.758,-168 323.577,-168"/>
<polygon fill="midnightblue" stroke="midnightblue" points="323.749,-171.5 333.749,-168 323.749,-164.5 323.749,-171.5"/>
</g>
<!-- Node4&#45;&gt;Node3 -->
<g id="edge4" class="edge"><title>Node4&#45;&gt;Node3</title>
<path fill="none" stroke="midnightblue" d="M251.673,-95.5179C263.205,-99.1313 275.476,-103.893 286,-110 304.773,-120.894 303.091,-132.343 322,-143 325.895,-145.195 330,-147.213 334.218,-149.066"/>
<polygon fill="midnightblue" stroke="midnightblue" points="333.014,-152.354 343.597,-152.863 335.641,-145.866 333.014,-152.354"/>
</g>
<!-- Node5 -->
<g id="node5" class="node"><title>Node5</title>
<g id="a_node5"><a xlink:href="classPlaylistItem.html#a3d4d575a397a3725e62ab425dcf214a5" target="_top" xlink:title="PlaylistItem::displayObject">
<polygon fill="white" stroke="black" points="341.5,-114.5 341.5,-133.5 475.5,-133.5 475.5,-114.5 341.5,-114.5"/>
<text text-anchor="middle" x="408.5" y="-121.5" font-family="Helvetica,sans-Serif" font-size="10.00">PlaylistItem::displayObject</text>
</a>
</g>
</g>
<!-- Node4&#45;&gt;Node5 -->
<g id="edge5" class="edge"><title>Node4&#45;&gt;Node5</title>
<path fill="none" stroke="midnightblue" d="M260.332,-95.54C286.961,-100.69 320.027,-107.084 348.066,-112.506"/>
<polygon fill="midnightblue" stroke="midnightblue" points="347.665,-115.994 358.148,-114.456 348.995,-109.121 347.665,-115.994"/>
</g>
<!-- Node6 -->
<g id="node6" class="node"><title>Node6</title>
<g id="a_node6"><a xlink:href="classDisplayObject.html#aadedaec1d9a5ec4adbf8f33e0f802350" target="_top" xlink:title="DisplayObject::endFrame">
<polygon fill="white" stroke="black" points="344.5,-76.5 344.5,-95.5 472.5,-95.5 472.5,-76.5 344.5,-76.5"/>
<text text-anchor="middle" x="408.5" y="-83.5" font-family="Helvetica,sans-Serif" font-size="10.00">DisplayObject::endFrame</text>
</a>
</g>
</g>
<!-- Node4&#45;&gt;Node6 -->
<g id="edge6" class="edge"><title>Node4&#45;&gt;Node6</title>
<path fill="none" stroke="midnightblue" d="M286.129,-86C301.861,-86 318.43,-86 334.098,-86"/>
<polygon fill="midnightblue" stroke="midnightblue" points="334.245,-89.5001 344.245,-86 334.245,-82.5001 334.245,-89.5001"/>
</g>
<!-- Node7 -->
<g id="node7" class="node"><title>Node7</title>
<g id="a_node7"><a xlink:href="classDisplayObject.html#aaaa354081106c97409a4bc2bbc2059fe" target="_top" xlink:title="DisplayObject::startFrame">
<polygon fill="white" stroke="black" points="343,-38.5 343,-57.5 474,-57.5 474,-38.5 343,-38.5"/>
<text text-anchor="middle" x="408.5" y="-45.5" font-family="Helvetica,sans-Serif" font-size="10.00">DisplayObject::startFrame</text>
</a>
</g>
</g>
<!-- Node4&#45;&gt;Node7 -->
<g id="edge7" class="edge"><title>Node4&#45;&gt;Node7</title>
<path fill="none" stroke="midnightblue" d="M260.332,-76.46C286.961,-71.3104 320.027,-64.916 348.066,-59.4935"/>
<polygon fill="midnightblue" stroke="midnightblue" points="348.995,-62.879 358.148,-57.5439 347.665,-56.0063 348.995,-62.879"/>
</g>
<!-- Node8 -->
<g id="node8" class="node"><title>Node8</title>
<g id="a_node8"><a xlink:href="classMainWindow.html#a6ad58489b43d2fca734a3dfa7b69832e" target="_top" xlink:title="update the frames slider and frame selection box without toggeling any signals ">
<polygon fill="white" stroke="black" points="322,-0.5 322,-19.5 495,-19.5 495,-0.5 322,-0.5"/>
<text text-anchor="middle" x="408.5" y="-7.5" font-family="Helvetica,sans-Serif" font-size="10.00">MainWindow::updateFrameControls</text>
</a>
</g>
</g>
<!-- Node4&#45;&gt;Node8 -->
<g id="edge8" class="edge"><title>Node4&#45;&gt;Node8</title>
<path fill="none" stroke="midnightblue" d="M218.761,-76.4147C235.112,-62.3551 274.745,-38.5884 313.897,-23.0956"/>
<polygon fill="midnightblue" stroke="midnightblue" points="315.18,-26.3527 323.292,-19.5383 312.701,-19.8062 315.18,-26.3527"/>
</g>
<!-- Node8&#45;&gt;Node4 -->
<g id="edge9" class="edge"><title>Node8&#45;&gt;Node4</title>
<path fill="none" stroke="midnightblue" d="M389.439,-19.518C371.87,-24.5151 344.597,-29.8401 322,-38 296.556,-47.1879 269.523,-60.9749 248.506,-71.6434"/>
<polygon fill="midnightblue" stroke="midnightblue" points="246.645,-68.6624 239.3,-76.298 249.803,-74.9093 246.645,-68.6624"/>
</g>
</g>
</svg>
