<?xml version="1.0" encoding="UTF-8" standalone="no"?>
<!DOCTYPE svg PUBLIC "-//W3C//DTD SVG 1.1//EN"
 "http://www.w3.org/Graphics/SVG/1.1/DTD/svg11.dtd">
<!-- Generated by graphviz version 2.38.0 (20140413.2041)
 -->
<!-- Title: MainWindow::previousFrame Pages: 1 -->
<svg width="692pt" height="78pt"
 viewBox="0.00 0.00 692.00 77.50" xmlns="http://www.w3.org/2000/svg" xmlns:xlink="http://www.w3.org/1999/xlink">
<g id="graph0" class="graph" transform="scale(1 1) rotate(0) translate(4 73.5)">
<title>MainWindow::previousFrame</title>
<polygon fill="white" stroke="none" points="-4,4 -4,-73.5 688,-73.5 688,4 -4,4"/>
<!-- Node1 -->
<g id="node1" class="node"><title>Node1</title>
<polygon fill="#bfbfbf" stroke="black" points="0,-22.5 0,-41.5 143,-41.5 143,-22.5 0,-22.5"/>
<text text-anchor="middle" x="71.5" y="-29.5" font-family="Helvetica,sans-Serif" font-size="10.00">MainWindow::previousFrame</text>
</g>
<!-- Node2 -->
<g id="node2" class="node"><title>Node2</title>
<g id="a_node2"><a xlink:href="classMainWindow.html#a9df7443ce5f907903438bb6a9abe9a33" target="_top" xlink:title="MainWindow::createMenusAnd\lActions">
<polygon fill="white" stroke="black" points="361,-39 361,-69 513,-69 513,-39 361,-39"/>
<text text-anchor="start" x="369" y="-57" font-family="Helvetica,sans-Serif" font-size="10.00">MainWindow::createMenusAnd</text>
<text text-anchor="middle" x="437" y="-46" font-family="Helvetica,sans-Serif" font-size="10.00">Actions</text>
</a>
</g>
</g>
<!-- Node1&#45;&gt;Node2 -->
<g id="edge1" class="edge"><title>Node1&#45;&gt;Node2</title>
<path fill="none" stroke="midnightblue" d="M153.161,-36.8819C215.234,-40.6386 300.374,-45.7916 360.986,-49.46"/>
<polygon fill="midnightblue" stroke="midnightblue" points="153.211,-33.3785 143.017,-36.2679 152.788,-40.3657 153.211,-33.3785"/>
</g>
<!-- Node4 -->
<g id="node4" class="node"><title>Node4</title>
<g id="a_node4"><a xlink:href="classMainWindow.html#a9c4f542263838b9ecd06eae839a42a34" target="_top" xlink:title="MainWindow::keyPressEvent">
<polygon fill="white" stroke="black" points="179,-3.5 179,-22.5 325,-22.5 325,-3.5 179,-3.5"/>
<text text-anchor="middle" x="252" y="-10.5" font-family="Helvetica,sans-Serif" font-size="10.00">MainWindow::keyPressEvent</text>
</a>
</g>
</g>
<!-- Node1&#45;&gt;Node4 -->
<g id="edge3" class="edge"><title>Node1&#45;&gt;Node4</title>
<path fill="none" stroke="midnightblue" d="M153.086,-23.4223C161.695,-22.5058 170.414,-21.5778 178.916,-20.6728"/>
<polygon fill="midnightblue" stroke="midnightblue" points="152.621,-19.9518 143.048,-24.4907 153.362,-26.9125 152.621,-19.9518"/>
</g>
<!-- Node3 -->
<g id="node3" class="node"><title>Node3</title>
<g id="a_node3"><a xlink:href="classMainWindow.html#a8b244be8b7b7db1b08de2a2acb9409db" target="_top" xlink:title="MainWindow::MainWindow">
<polygon fill="white" stroke="black" points="549,-22.5 549,-41.5 684,-41.5 684,-22.5 549,-22.5"/>
<text text-anchor="middle" x="616.5" y="-29.5" font-family="Helvetica,sans-Serif" font-size="10.00">MainWindow::MainWindow</text>
</a>
</g>
</g>
<!-- Node2&#45;&gt;Node3 -->
<g id="edge2" class="edge"><title>Node2&#45;&gt;Node3</title>
<path fill="none" stroke="midnightblue" d="M523.138,-43.4477C531.793,-42.3749 540.494,-41.2965 548.911,-40.2532"/>
<polygon fill="midnightblue" stroke="midnightblue" points="522.512,-39.9984 513.019,-44.7019 523.373,-46.9452 522.512,-39.9984"/>
</g>
<!-- Node5 -->
<g id="node5" class="node"><title>Node5</title>
<g id="a_node5"><a xlink:href="classMainWindow.html#ab98bca74e18eefa8e0582b5a9eb78d10" target="_top" xlink:title="MainWindow::handleKeyPress">
<polygon fill="white" stroke="black" points="362,-0.5 362,-19.5 512,-19.5 512,-0.5 362,-0.5"/>
<text text-anchor="middle" x="437" y="-7.5" font-family="Helvetica,sans-Serif" font-size="10.00">MainWindow::handleKeyPress</text>
</a>
</g>
</g>
<!-- Node4&#45;&gt;Node5 -->
<g id="edge4" class="edge"><title>Node4&#45;&gt;Node5</title>
<path fill="none" stroke="midnightblue" d="M335.08,-11.6544C344.013,-11.508 353.067,-11.3596 361.897,-11.2148"/>
<polygon fill="midnightblue" stroke="midnightblue" points="335.005,-8.15509 325.064,-11.8186 335.12,-15.1541 335.005,-8.15509"/>
</g>
<!-- Node5&#45;&gt;Node3 -->
<g id="edge5" class="edge"><title>Node5&#45;&gt;Node3</title>
<path fill="none" stroke="midnightblue" d="M522.287,-20.4468C531.219,-21.5539 540.211,-22.6684 548.901,-23.7454"/>
<polygon fill="midnightblue" stroke="midnightblue" points="522.602,-16.9592 512.248,-19.2025 521.741,-23.906 522.602,-16.9592"/>
</g>
</g>
</svg>
