<?xml version="1.0" encoding="UTF-8" standalone="no"?>
<!DOCTYPE svg PUBLIC "-//W3C//DTD SVG 1.1//EN"
 "http://www.w3.org/Graphics/SVG/1.1/DTD/svg11.dtd">
<!-- Generated by graphviz version 2.38.0 (20140413.2041)
 -->
<!-- Title: MainWindow::setSelectedStats Pages: 1 -->
<svg width="948pt" height="214pt"
 viewBox="0.00 0.00 948.00 214.00" xmlns="http://www.w3.org/2000/svg" xmlns:xlink="http://www.w3.org/1999/xlink">
<g id="graph0" class="graph" transform="scale(1 1) rotate(0) translate(4 210)">
<title>MainWindow::setSelectedStats</title>
<polygon fill="white" stroke="none" points="-4,4 -4,-210 944,-210 944,4 -4,4"/>
<!-- Node1 -->
<g id="node1" class="node"><title>Node1</title>
<polygon fill="#bfbfbf" stroke="black" points="0,-88 0,-107 154,-107 154,-88 0,-88"/>
<text text-anchor="middle" x="77" y="-95" font-family="Helvetica,sans-Serif" font-size="10.00">MainWindow::setSelectedStats</text>
</g>
<!-- Node2 -->
<g id="node2" class="node"><title>Node2</title>
<g id="a_node2"><a xlink:href="classMainWindow.html#a94442a4ea05a84b5f57585c4f6ca65a9" target="_top" xlink:title="MainWindow::statsTypesChanged">
<polygon fill="white" stroke="black" points="190,-88 190,-107 357,-107 357,-88 190,-88"/>
<text text-anchor="middle" x="273.5" y="-95" font-family="Helvetica,sans-Serif" font-size="10.00">MainWindow::statsTypesChanged</text>
</a>
</g>
</g>
<!-- Node1&#45;&gt;Node2 -->
<g id="edge1" class="edge"><title>Node1&#45;&gt;Node2</title>
<path fill="none" stroke="midnightblue" d="M154.034,-97.5C162.458,-97.5 171.105,-97.5 179.706,-97.5"/>
<polygon fill="midnightblue" stroke="midnightblue" points="179.764,-101 189.764,-97.5 179.764,-94.0001 179.764,-101"/>
</g>
<!-- Node3 -->
<g id="node3" class="node"><title>Node3</title>
<g id="a_node3"><a xlink:href="classMainWindow.html#aea2b70d7ccb204793c3121600f612c84" target="_top" xlink:title="Return the primary and secondary playlist item that is currently selected. ">
<polygon fill="white" stroke="black" points="591,-128.5 591,-158.5 740,-158.5 740,-128.5 591,-128.5"/>
<text text-anchor="start" x="599" y="-146.5" font-family="Helvetica,sans-Serif" font-size="10.00">MainWindow::selectedPrimary</text>
<text text-anchor="middle" x="665.5" y="-135.5" font-family="Helvetica,sans-Serif" font-size="10.00">PlaylistItem</text>
</a>
</g>
</g>
<!-- Node2&#45;&gt;Node3 -->
<g id="edge2" class="edge"><title>Node2&#45;&gt;Node3</title>
<path fill="none" stroke="midnightblue" d="M357.125,-99.8754C413.203,-102.347 488.887,-107.362 555,-117.5 569.358,-119.702 584.612,-122.817 599.03,-126.13"/>
<polygon fill="midnightblue" stroke="midnightblue" points="598.32,-129.559 608.856,-128.447 599.926,-122.746 598.32,-129.559"/>
</g>
<!-- Node4 -->
<g id="node4" class="node"><title>Node4</title>
<g id="a_node4"><a xlink:href="classPlaylistItem.html#a5d94b9e2dab116ab2f4a3afd3639b18f" target="_top" xlink:title="PlaylistItem::getStatistics\lObject">
<polygon fill="white" stroke="black" points="409.5,-126.5 409.5,-156.5 538.5,-156.5 538.5,-126.5 409.5,-126.5"/>
<text text-anchor="start" x="417.5" y="-144.5" font-family="Helvetica,sans-Serif" font-size="10.00">PlaylistItem::getStatistics</text>
<text text-anchor="middle" x="474" y="-133.5" font-family="Helvetica,sans-Serif" font-size="10.00">Object</text>
</a>
</g>
</g>
<!-- Node2&#45;&gt;Node4 -->
<g id="edge3" class="edge"><title>Node2&#45;&gt;Node4</title>
<path fill="none" stroke="midnightblue" d="M317.572,-107.047C341.436,-112.337 371.763,-119.06 399.28,-125.159"/>
<polygon fill="midnightblue" stroke="midnightblue" points="398.753,-128.627 409.274,-127.374 400.268,-121.793 398.753,-128.627"/>
</g>
<!-- Node5 -->
<g id="node5" class="node"><title>Node5</title>
<g id="a_node5"><a xlink:href="classStatisticsObject.html#a5403f2edc7dc5c51d105056d001632e8" target="_top" xlink:title="StatisticsObject::setStatistics\lTypeList">
<polygon fill="white" stroke="black" points="400.5,-0.5 400.5,-30.5 547.5,-30.5 547.5,-0.5 400.5,-0.5"/>
<text text-anchor="start" x="408.5" y="-18.5" font-family="Helvetica,sans-Serif" font-size="10.00">StatisticsObject::setStatistics</text>
<text text-anchor="middle" x="474" y="-7.5" font-family="Helvetica,sans-Serif" font-size="10.00">TypeList</text>
</a>
</g>
</g>
<!-- Node2&#45;&gt;Node5 -->
<g id="edge4" class="edge"><title>Node2&#45;&gt;Node5</title>
<path fill="none" stroke="midnightblue" d="M292.206,-87.979C315.059,-75.9255 356.259,-54.9883 393,-40.5 398.863,-38.188 405.032,-35.9426 411.236,-33.8076"/>
<polygon fill="midnightblue" stroke="midnightblue" points="412.602,-37.0416 420.975,-30.5497 410.381,-30.4032 412.602,-37.0416"/>
</g>
<!-- Node8 -->
<g id="node8" class="node"><title>Node8</title>
<g id="a_node8"><a xlink:href="classPlaylistItem.html#a53ef7e25dfa0d08e284653a19c96fc3e" target="_top" xlink:title="PlaylistItem::itemType">
<polygon fill="white" stroke="black" points="416.5,-50 416.5,-69 531.5,-69 531.5,-50 416.5,-50"/>
<text text-anchor="middle" x="474" y="-57" font-family="Helvetica,sans-Serif" font-size="10.00">PlaylistItem::itemType</text>
</a>
</g>
</g>
<!-- Node2&#45;&gt;Node8 -->
<g id="edge7" class="edge"><title>Node2&#45;&gt;Node8</title>
<path fill="none" stroke="midnightblue" d="M324.334,-87.96C351.234,-82.8104 384.636,-76.416 412.961,-70.9935"/>
<polygon fill="midnightblue" stroke="midnightblue" points="413.982,-74.3618 423.146,-69.0439 412.666,-67.4866 413.982,-74.3618"/>
</g>
<!-- Node9 -->
<g id="node9" class="node"><title>Node9</title>
<g id="a_node9"><a xlink:href="classMainWindow.html#a3f5983f88691760eb4074f9ca6c773d7" target="_top" xlink:title="MainWindow::selectedSecondary\lPlaylistItem">
<polygon fill="white" stroke="black" points="393,-175.5 393,-205.5 555,-205.5 555,-175.5 393,-175.5"/>
<text text-anchor="start" x="401" y="-193.5" font-family="Helvetica,sans-Serif" font-size="10.00">MainWindow::selectedSecondary</text>
<text text-anchor="middle" x="474" y="-182.5" font-family="Helvetica,sans-Serif" font-size="10.00">PlaylistItem</text>
</a>
</g>
</g>
<!-- Node2&#45;&gt;Node9 -->
<g id="edge8" class="edge"><title>Node2&#45;&gt;Node9</title>
<path fill="none" stroke="midnightblue" d="M288.517,-107.14C310.127,-121.655 353.252,-149.254 393,-166.5 397.423,-168.419 402.047,-170.245 406.744,-171.968"/>
<polygon fill="midnightblue" stroke="midnightblue" points="405.855,-175.365 416.45,-175.361 408.165,-168.757 405.855,-175.365"/>
</g>
<!-- Node6 -->
<g id="node6" class="node"><title>Node6</title>
<g id="a_node6"><a xlink:href="classstatisticSource.html#a88843dfe28a48a46a3f344ea41043181" target="_top" xlink:title="statisticSource::setStatistics\lTypeList">
<polygon fill="white" stroke="black" points="594,-0.5 594,-30.5 737,-30.5 737,-0.5 594,-0.5"/>
<text text-anchor="start" x="602" y="-18.5" font-family="Helvetica,sans-Serif" font-size="10.00">statisticSource::setStatistics</text>
<text text-anchor="middle" x="665.5" y="-7.5" font-family="Helvetica,sans-Serif" font-size="10.00">TypeList</text>
</a>
</g>
</g>
<!-- Node5&#45;&gt;Node6 -->
<g id="edge5" class="edge"><title>Node5&#45;&gt;Node6</title>
<path fill="none" stroke="midnightblue" d="M547.724,-15.5C559.429,-15.5 571.609,-15.5 583.495,-15.5"/>
<polygon fill="midnightblue" stroke="midnightblue" points="583.845,-19.0001 593.845,-15.5 583.845,-12.0001 583.845,-19.0001"/>
</g>
<!-- Node7 -->
<g id="node7" class="node"><title>Node7</title>
<g id="a_node7"><a xlink:href="classstatisticSource.html#accae8cdfc95b05e3ef9a945b1f579c46" target="_top" xlink:title="statisticSource::getStatisticsType">
<polygon fill="white" stroke="black" points="776,-6 776,-25 940,-25 940,-6 776,-6"/>
<text text-anchor="middle" x="858" y="-13" font-family="Helvetica,sans-Serif" font-size="10.00">statisticSource::getStatisticsType</text>
</a>
</g>
</g>
<!-- Node6&#45;&gt;Node7 -->
<g id="edge6" class="edge"><title>Node6&#45;&gt;Node7</title>
<path fill="none" stroke="midnightblue" d="M737.164,-15.5C746.516,-15.5 756.208,-15.5 765.843,-15.5"/>
<polygon fill="midnightblue" stroke="midnightblue" points="765.848,-19.0001 775.848,-15.5 765.848,-12.0001 765.848,-19.0001"/>
</g>
<!-- Node9&#45;&gt;Node3 -->
<g id="edge9" class="edge"><title>Node9&#45;&gt;Node3</title>
<path fill="none" stroke="midnightblue" d="M535.48,-175.5C554.112,-170.878 574.788,-165.75 594.031,-160.978"/>
<polygon fill="midnightblue" stroke="midnightblue" points="595.081,-164.323 603.945,-158.519 593.396,-157.529 595.081,-164.323"/>
</g>
</g>
</svg>
