<?xml version="1.0" encoding="UTF-8" standalone="no"?>
<!DOCTYPE svg PUBLIC "-//W3C//DTD SVG 1.1//EN"
 "http://www.w3.org/Graphics/SVG/1.1/DTD/svg11.dtd">
<!-- Generated by graphviz version 2.38.0 (20140413.2041)
 -->
<!-- Title: PlaylistTreeWidget::dragMoveEvent Pages: 1 -->
<svg width="258pt" height="78pt"
 viewBox="0.00 0.00 258.00 77.50" xmlns="http://www.w3.org/2000/svg" xmlns:xlink="http://www.w3.org/1999/xlink">
<g id="graph0" class="graph" transform="scale(1 1) rotate(0) translate(4 73.5)">
<title>PlaylistTreeWidget::dragMoveEvent</title>
<polygon fill="white" stroke="none" points="-4,4 -4,-73.5 254,-73.5 254,4 -4,4"/>
<!-- Node1 -->
<g id="node1" class="node"><title>Node1</title>
<polygon fill="#bfbfbf" stroke="black" points="0,-17 0,-47 99,-47 99,-17 0,-17"/>
<text text-anchor="start" x="8" y="-35" font-family="Helvetica,sans-Serif" font-size="10.00">PlaylistTreeWidget</text>
<text text-anchor="middle" x="49.5" y="-24" font-family="Helvetica,sans-Serif" font-size="10.00">::dragMoveEvent</text>
</g>
<!-- Node2 -->
<g id="node2" class="node"><title>Node2</title>
<g id="a_node2"><a xlink:href="classPlaylistTreeWidget.html#a2aeb2a4cab4d6a2bc35b165aa180e0a3" target="_top" xlink:title="PlaylistTreeWidget\l::getDropTarget">
<polygon fill="white" stroke="black" points="143,-39 143,-69 242,-69 242,-39 143,-39"/>
<text text-anchor="start" x="151" y="-57" font-family="Helvetica,sans-Serif" font-size="10.00">PlaylistTreeWidget</text>
<text text-anchor="middle" x="192.5" y="-46" font-family="Helvetica,sans-Serif" font-size="10.00">::getDropTarget</text>
</a>
</g>
</g>
<!-- Node1&#45;&gt;Node2 -->
<g id="edge1" class="edge"><title>Node1&#45;&gt;Node2</title>
<path fill="none" stroke="midnightblue" d="M99.0242,-39.5712C109.88,-41.265 121.509,-43.0794 132.73,-44.8302"/>
<polygon fill="midnightblue" stroke="midnightblue" points="132.466,-48.3313 142.886,-46.4149 133.546,-41.415 132.466,-48.3313"/>
</g>
<!-- Node3 -->
<g id="node3" class="node"><title>Node3</title>
<g id="a_node3"><a xlink:href="classPlaylistItem.html#a53ef7e25dfa0d08e284653a19c96fc3e" target="_top" xlink:title="PlaylistItem::itemType">
<polygon fill="white" stroke="black" points="135,-0.5 135,-19.5 250,-19.5 250,-0.5 135,-0.5"/>
<text text-anchor="middle" x="192.5" y="-7.5" font-family="Helvetica,sans-Serif" font-size="10.00">PlaylistItem::itemType</text>
</a>
</g>
</g>
<!-- Node1&#45;&gt;Node3 -->
<g id="edge2" class="edge"><title>Node1&#45;&gt;Node3</title>
<path fill="none" stroke="midnightblue" d="M99.0242,-24.4288C107.269,-23.1424 115.96,-21.7865 124.578,-20.4417"/>
<polygon fill="midnightblue" stroke="midnightblue" points="125.292,-23.8728 134.632,-18.8729 124.212,-16.9565 125.292,-23.8728"/>
</g>
</g>
</svg>
