<?xml version="1.0" encoding="UTF-8" standalone="no"?>
<!DOCTYPE svg PUBLIC "-//W3C//DTD SVG 1.1//EN"
 "http://www.w3.org/Graphics/SVG/1.1/DTD/svg11.dtd">
<!-- Generated by graphviz version 2.38.0 (20140413.2041)
 -->
<!-- Title: StatisticsObject::getStatisticsTypeList Pages: 1 -->
<svg width="334pt" height="39pt"
 viewBox="0.00 0.00 334.00 39.00" xmlns="http://www.w3.org/2000/svg" xmlns:xlink="http://www.w3.org/1999/xlink">
<g id="graph0" class="graph" transform="scale(1 1) rotate(0) translate(4 35)">
<title>StatisticsObject::getStatisticsTypeList</title>
<polygon fill="white" stroke="none" points="-4,4 -4,-35 330,-35 330,4 -4,4"/>
<!-- Node1 -->
<g id="node1" class="node"><title>Node1</title>
<polygon fill="#bfbfbf" stroke="black" points="0,-0.5 0,-30.5 147,-30.5 147,-0.5 0,-0.5"/>
<text text-anchor="start" x="8" y="-18.5" font-family="Helvetica,sans-Serif" font-size="10.00">StatisticsObject::getStatistics</text>
<text text-anchor="middle" x="73.5" y="-7.5" font-family="Helvetica,sans-Serif" font-size="10.00">TypeList</text>
</g>
<!-- Node2 -->
<g id="node2" class="node"><title>Node2</title>
<g id="a_node2"><a xlink:href="classstatisticSource.html#a74f687960651340a1bce1f8b2653a335" target="_top" xlink:title="statisticSource::getStatistics\lTypeList">
<polygon fill="white" stroke="black" points="183,-0.5 183,-30.5 326,-30.5 326,-0.5 183,-0.5"/>
<text text-anchor="start" x="191" y="-18.5" font-family="Helvetica,sans-Serif" font-size="10.00">statisticSource::getStatistics</text>
<text text-anchor="middle" x="254.5" y="-7.5" font-family="Helvetica,sans-Serif" font-size="10.00">TypeList</text>
</a>
</g>
</g>
<!-- Node1&#45;&gt;Node2 -->
<g id="edge1" class="edge"><title>Node1&#45;&gt;Node2</title>
<path fill="none" stroke="midnightblue" d="M147.048,-15.5C155.546,-15.5 164.255,-15.5 172.855,-15.5"/>
<polygon fill="midnightblue" stroke="midnightblue" points="172.88,-19.0001 182.88,-15.5 172.88,-12.0001 172.88,-19.0001"/>
</g>
</g>
</svg>
