<?xml version="1.0" encoding="UTF-8" standalone="no"?>
<!DOCTYPE svg PUBLIC "-//W3C//DTD SVG 1.1//EN"
 "http://www.w3.org/Graphics/SVG/1.1/DTD/svg11.dtd">
<!-- Generated by graphviz version 2.38.0 (20140413.2041)
 -->
<!-- Title: PlaylistItem Pages: 1 -->
<!--zoomable 217 -->
<svg id="main" version="1.1" xmlns="http://www.w3.org/2000/svg" xmlns:xlink="http://www.w3.org/1999/xlink" xml:space="preserve" onload="init(evt)">
<style type="text/css"><![CDATA[
.edge:hover path { stroke: red; }
.edge:hover polygon { stroke: red; fill: red; }
]]></style>
<script type="text/javascript"><![CDATA[
var edges = document.getElementsByTagName('g');
if (edges && edges.length) {
  for (var i=0;i<edges.length;i++) {
    if (edges[i].id.substr(0,4)=='edge') {
      edges[i].setAttribute('class','edge');
    }
  }
}
]]></script>
        <defs>
                <circle id="rim" cx="0" cy="0" r="7"/>
                <circle id="rim2" cx="0" cy="0" r="3.5"/>
                <g id="zoomPlus">
                        <use xlink:href="#rim" fill="#404040">
                                <set attributeName="fill" to="#808080" begin="zoomplus.mouseover" end="zoomplus.mouseout"/>
                        </use>
                        <path d="M-4,0h8M0,-4v8" fill="none" stroke="white" stroke-width="1.5" pointer-events="none"/>
                </g>
                <g id="zoomMin">
                        <use xlink:href="#rim" fill="#404040">
                                <set attributeName="fill" to="#808080" begin="zoomminus.mouseover" end="zoomminus.mouseout"/>
                        </use>
                        <path d="M-4,0h8" fill="none" stroke="white" stroke-width="1.5" pointer-events="none"/>
                </g>
                <g id="dirArrow">
                        <path fill="none" stroke="white" stroke-width="1.5" d="M0,-3.0v7 M-2.5,-0.5L0,-3.0L2.5,-0.5"/>
                </g>
               <g id="resetDef">
                       <use xlink:href="#rim2" fill="#404040">
                               <set attributeName="fill" to="#808080" begin="reset.mouseover" end="reset.mouseout"/>
                       </use>
               </g>
        </defs>

<script type="text/javascript">
var viewWidth = 540;
var viewHeight = 217;
var sectionId = 'dynsection-1';
</script>
<script xlink:href="svgpan.js"/>
<svg id="graph" class="graph">
<g id="viewport">
<title>PlaylistItem</title>
<polygon fill="white" stroke="none" points="-4,4 -4,-213 536,-213 536,4 -4,4"/>
<!-- Node1 -->
<g id="node1" class="node"><title>Node1</title>
<polygon fill="#bfbfbf" stroke="black" points="123,-0.5 123,-19.5 191,-19.5 191,-0.5 123,-0.5"/>
<text text-anchor="middle" x="157" y="-7.5" font-family="Helvetica,sans-Serif" font-size="10.00">PlaylistItem</text>
</g>
<!-- Node2 -->
<g id="node2" class="node"><title>Node2</title>
<g id="a_node2"><a xlink:href="classQTreeWidgetItem.html" target="_top" xlink:title="QTreeWidgetItem">
<polygon fill="white" stroke="black" points="0,-67.5 0,-86.5 94,-86.5 94,-67.5 0,-67.5"/>
<text text-anchor="middle" x="47" y="-74.5" font-family="Helvetica,sans-Serif" font-size="10.00">QTreeWidgetItem</text>
</a>
</g>
</g>
<!-- Node2&#45;&gt;Node1 -->
<g id="edge1" class="edge"><title>Node2&#45;&gt;Node1</title>
<path fill="none" stroke="midnightblue" d="M70.4976,-62.1151C92.2912,-49.237 124.041,-30.4758 142.4,-19.6273"/>
<polygon fill="midnightblue" stroke="midnightblue" points="68.6638,-59.1332 61.8351,-67.2338 72.2249,-65.1597 68.6638,-59.1332"/>
</g>
<!-- Node3 -->
<g id="node3" class="node"><title>Node3</title>
<polygon fill="white" stroke="#bfbfbf" points="112,-67.5 112,-86.5 202,-86.5 202,-67.5 112,-67.5"/>
<text text-anchor="middle" x="157" y="-74.5" font-family="Helvetica,sans-Serif" font-size="10.00">PlaylistItemType</text>
</g>
<!-- Node3&#45;&gt;Node1 -->
<g id="edge2" class="edge"><title>Node3&#45;&gt;Node1</title>
<path fill="none" stroke="#9a32cd" stroke-dasharray="5,2" d="M157,-57.037C157,-44.6703 157,-29.1198 157,-19.6273"/>
<polygon fill="#9a32cd" stroke="#9a32cd" points="153.5,-57.2338 157,-67.2338 160.5,-57.2338 153.5,-57.2338"/>
<text text-anchor="middle" x="200" y="-41" font-family="Helvetica,sans-Serif" font-size="10.00"> p_playlistItemType</text>
</g>
<!-- Node4 -->
<g id="node4" class="node"><title>Node4</title>
<g id="a_node4"><a xlink:href="classDisplayObject.html" target="_top" xlink:title="DisplayObject">
<polygon fill="white" stroke="black" points="227,-67.5 227,-86.5 305,-86.5 305,-67.5 227,-67.5"/>
<text text-anchor="middle" x="266" y="-74.5" font-family="Helvetica,sans-Serif" font-size="10.00">DisplayObject</text>
</a>
</g>
</g>
<!-- Node4&#45;&gt;Node1 -->
<g id="edge3" class="edge"><title>Node4&#45;&gt;Node1</title>
<path fill="none" stroke="#9a32cd" stroke-dasharray="5,2" d="M258.846,-57.6341C255.311,-50.6303 250.406,-43.1111 244,-38 228.918,-25.9664 208.453,-19.2703 191.16,-15.5574"/>
<polygon fill="#9a32cd" stroke="#9a32cd" points="255.822,-59.45 263.061,-67.1858 262.226,-56.624 255.822,-59.45"/>
<text text-anchor="middle" x="290.5" y="-41" font-family="Helvetica,sans-Serif" font-size="10.00"> p_displayObject</text>
</g>
<!-- Node5 -->
<g id="node5" class="node"><title>Node5</title>
<g id="a_node5"><a xlink:href="classQObject.html" target="_top" xlink:title="QObject">
<polygon fill="white" stroke="black" points="3.5,-189.5 3.5,-208.5 56.5,-208.5 56.5,-189.5 3.5,-189.5"/>
<text text-anchor="middle" x="30" y="-196.5" font-family="Helvetica,sans-Serif" font-size="10.00">QObject</text>
</a>
</g>
</g>
<!-- Node5&#45;&gt;Node4 -->
<g id="edge4" class="edge"><title>Node5&#45;&gt;Node4</title>
<path fill="none" stroke="midnightblue" d="M39.7655,-180.583C52.8089,-159.078 78.0299,-123.131 110,-105 112.555,-103.551 181.301,-91.9908 226.671,-84.4739"/>
<polygon fill="midnightblue" stroke="midnightblue" points="36.6764,-178.932 34.649,-189.331 42.7188,-182.466 36.6764,-178.932"/>
</g>
<!-- Node6 -->
<g id="node6" class="node"><title>Node6</title>
<polygon fill="white" stroke="#bfbfbf" points="74.5,-189.5 74.5,-208.5 165.5,-208.5 165.5,-189.5 74.5,-189.5"/>
<text text-anchor="middle" x="120" y="-196.5" font-family="Helvetica,sans-Serif" font-size="10.00">QList&lt; QString &gt;</text>
</g>
<!-- Node6&#45;&gt;Node4 -->
<g id="edge5" class="edge"><title>Node6&#45;&gt;Node4</title>
<path fill="none" stroke="#9a32cd" stroke-dasharray="5,2" d="M115.671,-179.391C112.023,-158.573 109.919,-125.135 128,-105 131.354,-101.265 187.379,-91.1816 226.999,-84.4507"/>
<polygon fill="#9a32cd" stroke="#9a32cd" points="112.253,-180.144 117.68,-189.243 119.112,-178.745 112.253,-180.144"/>
<text text-anchor="middle" x="168.5" y="-135.5" font-family="Helvetica,sans-Serif" font-size="10.00"> p_info_permanent</text>
</g>
<!-- Node7 -->
<g id="node7" class="node"><title>Node7</title>
<polygon fill="white" stroke="#bfbfbf" points="201.5,-189.5 201.5,-208.5 246.5,-208.5 246.5,-189.5 201.5,-189.5"/>
<text text-anchor="middle" x="224" y="-196.5" font-family="Helvetica,sans-Serif" font-size="10.00">double</text>
</g>
<!-- Node7&#45;&gt;Node4 -->
<g id="edge6" class="edge"><title>Node7&#45;&gt;Node4</title>
<path fill="none" stroke="#9a32cd" stroke-dasharray="5,2" d="M218.109,-179.724C212.881,-159.943 207.905,-128.129 221,-105 225.668,-96.7546 233.971,-90.7525 242.183,-86.5319"/>
<polygon fill="#9a32cd" stroke="#9a32cd" points="214.757,-180.731 220.927,-189.345 221.475,-178.764 214.757,-180.731"/>
<text text-anchor="middle" x="251" y="-135.5" font-family="Helvetica,sans-Serif" font-size="10.00"> p_frameRate</text>
</g>
<!-- Node8 -->
<g id="node8" class="node"><title>Node8</title>
<polygon fill="white" stroke="#bfbfbf" points="280,-189.5 280,-208.5 330,-208.5 330,-189.5 280,-189.5"/>
<text text-anchor="middle" x="305" y="-196.5" font-family="Helvetica,sans-Serif" font-size="10.00">QString</text>
</g>
<!-- Node8&#45;&gt;Node4 -->
<g id="edge7" class="edge"><title>Node8&#45;&gt;Node4</title>
<path fill="none" stroke="#9a32cd" stroke-dasharray="5,2" d="M303.204,-179.296C300.849,-160.019 295.687,-129.421 285,-105 282.151,-98.4888 277.604,-91.9506 273.672,-86.9392"/>
<polygon fill="#9a32cd" stroke="#9a32cd" points="299.747,-179.88 304.309,-189.442 306.705,-179.122 299.747,-179.88"/>
<text text-anchor="middle" x="323.5" y="-146.5" font-family="Helvetica,sans-Serif" font-size="10.00"> p_status</text>
<text text-anchor="middle" x="323.5" y="-135.5" font-family="Helvetica,sans-Serif" font-size="10.00">p_name</text>
<text text-anchor="middle" x="323.5" y="-124.5" font-family="Helvetica,sans-Serif" font-size="10.00">p_info</text>
</g>
<!-- Node9 -->
<g id="node9" class="node"><title>Node9</title>
<polygon fill="white" stroke="#bfbfbf" points="348.5,-189.5 348.5,-208.5 405.5,-208.5 405.5,-189.5 348.5,-189.5"/>
<text text-anchor="middle" x="377" y="-196.5" font-family="Helvetica,sans-Serif" font-size="10.00">QPixmap</text>
</g>
<!-- Node9&#45;&gt;Node4 -->
<g id="edge8" class="edge"><title>Node9&#45;&gt;Node4</title>
<path fill="none" stroke="#9a32cd" stroke-dasharray="5,2" d="M376.078,-179.1C374.058,-158.26 367.72,-125.035 348,-105 336.645,-93.4639 320.276,-86.856 305.146,-83.0712"/>
<polygon fill="#9a32cd" stroke="#9a32cd" points="372.599,-179.521 376.813,-189.241 379.581,-179.014 372.599,-179.521"/>
<text text-anchor="middle" x="411" y="-135.5" font-family="Helvetica,sans-Serif" font-size="10.00"> p_displayImage</text>
</g>
<!-- Node10 -->
<g id="node10" class="node"><title>Node10</title>
<polygon fill="white" stroke="#bfbfbf" points="455.5,-189.5 455.5,-208.5 484.5,-208.5 484.5,-189.5 455.5,-189.5"/>
<text text-anchor="middle" x="470" y="-196.5" font-family="Helvetica,sans-Serif" font-size="10.00">int</text>
</g>
<!-- Node10&#45;&gt;Node4 -->
<g id="edge9" class="edge"><title>Node10&#45;&gt;Node4</title>
<path fill="none" stroke="#9a32cd" stroke-dasharray="5,2" d="M471.267,-179.209C471.583,-157.947 468.509,-123.836 448,-105 427.767,-86.418 352.565,-80.6174 305.391,-78.8113"/>
<polygon fill="#9a32cd" stroke="#9a32cd" points="467.767,-179.127 470.85,-189.264 474.761,-179.417 467.767,-179.127"/>
<text text-anchor="middle" x="501.5" y="-163" font-family="Helvetica,sans-Serif" font-size="10.00"> p_startFrame</text>
<text text-anchor="middle" x="501.5" y="-152" font-family="Helvetica,sans-Serif" font-size="10.00">p_endFrame</text>
<text text-anchor="middle" x="501.5" y="-141" font-family="Helvetica,sans-Serif" font-size="10.00">p_width</text>
<text text-anchor="middle" x="501.5" y="-130" font-family="Helvetica,sans-Serif" font-size="10.00">p_sampling</text>
<text text-anchor="middle" x="501.5" y="-119" font-family="Helvetica,sans-Serif" font-size="10.00">p_height</text>
<text text-anchor="middle" x="501.5" y="-108" font-family="Helvetica,sans-Serif" font-size="10.00">p_lastIdx</text>
</g>
</g>
</svg>
        <g id="navigator" transform="translate(0 0)" fill="#404254">
                <rect fill="#f2f5e9" fill-opacity="0.5" stroke="#606060" stroke-width=".5" x="0" y="0" width="60" height="60"/>
                <use id="zoomplus" xlink:href="#zoomPlus" x="17" y="9" onmousedown="handleZoom(evt,'in')"/>
                <use id="zoomminus" xlink:href="#zoomMin" x="42" y="9" onmousedown="handleZoom(evt,'out')"/>
                <use id="reset" xlink:href="#resetDef" x="30" y="36" onmousedown="handleReset()"/>
                <g id="arrowUp" xlink:href="#dirArrow" transform="translate(30 24)" onmousedown="handlePan(0,-1)">
                  <use xlink:href="#rim" fill="#404040">
                        <set attributeName="fill" to="#808080" begin="arrowUp.mouseover" end="arrowUp.mouseout"/>
                  </use>
                  <path fill="none" stroke="white" stroke-width="1.5" d="M0,-3.0v7 M-2.5,-0.5L0,-3.0L2.5,-0.5"/>
                </g>
                <g id="arrowRight" xlink:href="#dirArrow" transform="rotate(90) translate(36 -43)" onmousedown="handlePan(1,0)">
                  <use xlink:href="#rim" fill="#404040">
                        <set attributeName="fill" to="#808080" begin="arrowRight.mouseover" end="arrowRight.mouseout"/>
                  </use>
                  <path fill="none" stroke="white" stroke-width="1.5" d="M0,-3.0v7 M-2.5,-0.5L0,-3.0L2.5,-0.5"/>
                </g>
                <g id="arrowDown" xlink:href="#dirArrow" transform="rotate(180) translate(-30 -48)" onmousedown="handlePan(0,1)">
                  <use xlink:href="#rim" fill="#404040">
                        <set attributeName="fill" to="#808080" begin="arrowDown.mouseover" end="arrowDown.mouseout"/>
                  </use>
                  <path fill="none" stroke="white" stroke-width="1.5" d="M0,-3.0v7 M-2.5,-0.5L0,-3.0L2.5,-0.5"/>
                </g>
                <g id="arrowLeft" xlink:href="#dirArrow" transform="rotate(270) translate(-36 17)" onmousedown="handlePan(-1,0)">
                  <use xlink:href="#rim" fill="#404040">
                        <set attributeName="fill" to="#808080" begin="arrowLeft.mouseover" end="arrowLeft.mouseout"/>
                  </use>
                  <path fill="none" stroke="white" stroke-width="1.5" d="M0,-3.0v7 M-2.5,-0.5L0,-3.0L2.5,-0.5"/>
                </g>
        </g>
        <svg viewBox="0 0 15 15" width="100%" height="30px" preserveAspectRatio="xMaxYMin meet">
         <g id="arrow_out" transform="scale(0.3 0.3)">
          <a xlink:href="classPlaylistItem__coll__graph_org.svg" target="_base">
           <rect id="button" ry="5" rx="5" y="6" x="6" height="38" width="38"
                fill="#f2f5e9" fill-opacity="0.5" stroke="#606060" stroke-width="1.0"/>
           <path id="arrow"
             d="M 11.500037,31.436501 C 11.940474,20.09759 22.043105,11.32322 32.158766,21.979434 L 37.068811,17.246167 C 37.068811,17.246167 37.088388,32 37.088388,32 L 22.160133,31.978069 C 22.160133,31.978069 26.997745,27.140456 26.997745,27.140456 C 18.528582,18.264221 13.291696,25.230495 11.500037,31.436501 z"
             style="fill:#404040;"/>
          </a>
         </g>
        </svg>
</svg>
