<?xml version="1.0" encoding="UTF-8" standalone="no"?>
<!DOCTYPE svg PUBLIC "-//W3C//DTD SVG 1.1//EN"
 "http://www.w3.org/Graphics/SVG/1.1/DTD/svg11.dtd">
<!-- Generated by graphviz version 2.38.0 (20140413.2041)
 -->
<!-- Title: MainWindow::openProjectWebsite Pages: 1 -->
<svg width="534pt" height="39pt"
 viewBox="0.00 0.00 534.00 39.00" xmlns="http://www.w3.org/2000/svg" xmlns:xlink="http://www.w3.org/1999/xlink">
<g id="graph0" class="graph" transform="scale(1 1) rotate(0) translate(4 35)">
<title>MainWindow::openProjectWebsite</title>
<polygon fill="white" stroke="none" points="-4,4 -4,-35 530,-35 530,4 -4,4"/>
<!-- Node1 -->
<g id="node1" class="node"><title>Node1</title>
<polygon fill="#bfbfbf" stroke="black" points="0,-6 0,-25 167,-25 167,-6 0,-6"/>
<text text-anchor="middle" x="83.5" y="-13" font-family="Helvetica,sans-Serif" font-size="10.00">MainWindow::openProjectWebsite</text>
</g>
<!-- Node2 -->
<g id="node2" class="node"><title>Node2</title>
<g id="a_node2"><a xlink:href="classMainWindow.html#a9df7443ce5f907903438bb6a9abe9a33" target="_top" xlink:title="MainWindow::createMenusAnd\lActions">
<polygon fill="white" stroke="black" points="203,-0.5 203,-30.5 355,-30.5 355,-0.5 203,-0.5"/>
<text text-anchor="start" x="211" y="-18.5" font-family="Helvetica,sans-Serif" font-size="10.00">MainWindow::createMenusAnd</text>
<text text-anchor="middle" x="279" y="-7.5" font-family="Helvetica,sans-Serif" font-size="10.00">Actions</text>
</a>
</g>
</g>
<!-- Node1&#45;&gt;Node2 -->
<g id="edge1" class="edge"><title>Node1&#45;&gt;Node2</title>
<path fill="none" stroke="midnightblue" d="M177.142,-15.5C185.707,-15.5 194.315,-15.5 202.698,-15.5"/>
<polygon fill="midnightblue" stroke="midnightblue" points="177.123,-12.0001 167.123,-15.5 177.123,-19.0001 177.123,-12.0001"/>
</g>
<!-- Node3 -->
<g id="node3" class="node"><title>Node3</title>
<g id="a_node3"><a xlink:href="classMainWindow.html#a8b244be8b7b7db1b08de2a2acb9409db" target="_top" xlink:title="MainWindow::MainWindow">
<polygon fill="white" stroke="black" points="391,-6 391,-25 526,-25 526,-6 391,-6"/>
<text text-anchor="middle" x="458.5" y="-13" font-family="Helvetica,sans-Serif" font-size="10.00">MainWindow::MainWindow</text>
</a>
</g>
</g>
<!-- Node2&#45;&gt;Node3 -->
<g id="edge2" class="edge"><title>Node2&#45;&gt;Node3</title>
<path fill="none" stroke="midnightblue" d="M365.138,-15.5C373.793,-15.5 382.494,-15.5 390.911,-15.5"/>
<polygon fill="midnightblue" stroke="midnightblue" points="365.019,-12.0001 355.019,-15.5 365.019,-19.0001 365.019,-12.0001"/>
</g>
</g>
</svg>
