<?xml version="1.0" encoding="UTF-8" standalone="no"?>
<!DOCTYPE svg PUBLIC "-//W3C//DTD SVG 1.1//EN"
 "http://www.w3.org/Graphics/SVG/1.1/DTD/svg11.dtd">
<!-- Generated by graphviz version 2.38.0 (20140413.2041)
 -->
<!-- Title: MainWindow::on_ChromaOffsetSpinBox_valueChanged Pages: 1 -->
<svg width="373pt" height="39pt"
 viewBox="0.00 0.00 373.00 39.00" xmlns="http://www.w3.org/2000/svg" xmlns:xlink="http://www.w3.org/1999/xlink">
<g id="graph0" class="graph" transform="scale(1 1) rotate(0) translate(4 35)">
<title>MainWindow::on_ChromaOffsetSpinBox_valueChanged</title>
<polygon fill="white" stroke="none" points="-4,4 -4,-35 369,-35 369,4 -4,4"/>
<!-- Node1 -->
<g id="node1" class="node"><title>Node1</title>
<polygon fill="#bfbfbf" stroke="black" points="0,-0.5 0,-30.5 156,-30.5 156,-0.5 0,-0.5"/>
<text text-anchor="start" x="8" y="-18.5" font-family="Helvetica,sans-Serif" font-size="10.00">MainWindow::on_ChromaOffset</text>
<text text-anchor="middle" x="78" y="-7.5" font-family="Helvetica,sans-Serif" font-size="10.00">SpinBox_valueChanged</text>
</g>
<!-- Node2 -->
<g id="node2" class="node"><title>Node2</title>
<g id="a_node2"><a xlink:href="classMainWindow.html#a1836ff843ea4ed48e29ab90b08050bf7" target="_top" xlink:title="MainWindow::on_ColorComponents\lComboBox_currentIndexChanged">
<polygon fill="white" stroke="black" points="192,-0.5 192,-30.5 365,-30.5 365,-0.5 192,-0.5"/>
<text text-anchor="start" x="200" y="-18.5" font-family="Helvetica,sans-Serif" font-size="10.00">MainWindow::on_ColorComponents</text>
<text text-anchor="middle" x="278.5" y="-7.5" font-family="Helvetica,sans-Serif" font-size="10.00">ComboBox_currentIndexChanged</text>
</a>
</g>
</g>
<!-- Node1&#45;&gt;Node2 -->
<g id="edge1" class="edge"><title>Node1&#45;&gt;Node2</title>
<path fill="none" stroke="midnightblue" d="M166.049,-15.5C174.645,-15.5 183.366,-15.5 191.948,-15.5"/>
<polygon fill="midnightblue" stroke="midnightblue" points="166.029,-12.0001 156.029,-15.5 166.029,-19.0001 166.029,-12.0001"/>
</g>
</g>
</svg>
