<?xml version="1.0" encoding="UTF-8" standalone="no"?>
<!DOCTYPE svg PUBLIC "-//W3C//DTD SVG 1.1//EN"
 "http://www.w3.org/Graphics/SVG/1.1/DTD/svg11.dtd">
<!-- Generated by graphviz version 2.38.0 (20140413.2041)
 -->
<!-- Title: FrameObject::refreshDisplayImage Pages: 1 -->
<svg width="881pt" height="333pt"
 viewBox="0.00 0.00 881.00 332.93" xmlns="http://www.w3.org/2000/svg" xmlns:xlink="http://www.w3.org/1999/xlink">
<g id="graph0" class="graph" transform="scale(1 1) rotate(0) translate(4 328.934)">
<title>FrameObject::refreshDisplayImage</title>
<polygon fill="white" stroke="none" points="-4,4 -4,-328.934 877,-328.934 877,4 -4,4"/>
<!-- Node1 -->
<g id="node1" class="node"><title>Node1</title>
<polygon fill="#bfbfbf" stroke="black" points="0,-223.934 0,-253.934 142,-253.934 142,-223.934 0,-223.934"/>
<text text-anchor="start" x="8" y="-241.934" font-family="Helvetica,sans-Serif" font-size="10.00">FrameObject::refreshDisplay</text>
<text text-anchor="middle" x="71" y="-230.934" font-family="Helvetica,sans-Serif" font-size="10.00">Image</text>
</g>
<!-- Node2 -->
<g id="node2" class="node"><title>Node2</title>
<g id="a_node2"><a xlink:href="classFrameObject.html#adfa8fc2528a422aba57c301f3c2a311c" target="_top" xlink:title="FrameObject::clearCurrent\lCache">
<polygon fill="white" stroke="black" points="178,-261.934 178,-291.934 310,-291.934 310,-261.934 178,-261.934"/>
<text text-anchor="start" x="186" y="-279.934" font-family="Helvetica,sans-Serif" font-size="10.00">FrameObject::clearCurrent</text>
<text text-anchor="middle" x="244" y="-268.934" font-family="Helvetica,sans-Serif" font-size="10.00">Cache</text>
</a>
</g>
</g>
<!-- Node1&#45;&gt;Node2 -->
<g id="edge1" class="edge"><title>Node1&#45;&gt;Node2</title>
<path fill="none" stroke="midnightblue" d="M139.584,-253.953C148.937,-256.032 158.591,-258.177 168.068,-260.283"/>
<polygon fill="midnightblue" stroke="midnightblue" points="167.339,-263.706 177.861,-262.459 168.858,-256.873 167.339,-263.706"/>
</g>
<!-- Node6 -->
<g id="node6" class="node"><title>Node6</title>
<g id="a_node6"><a xlink:href="classFrameObject.html#ad33aa12aedba2856ec54989d6eda2d49" target="_top" xlink:title="FrameObject::loadImage">
<polygon fill="white" stroke="black" points="182,-172.434 182,-191.434 306,-191.434 306,-172.434 182,-172.434"/>
<text text-anchor="middle" x="244" y="-179.434" font-family="Helvetica,sans-Serif" font-size="10.00">FrameObject::loadImage</text>
</a>
</g>
</g>
<!-- Node1&#45;&gt;Node6 -->
<g id="edge5" class="edge"><title>Node1&#45;&gt;Node6</title>
<path fill="none" stroke="midnightblue" d="M117.376,-223.809C144.542,-214.754 178.696,-203.369 204.533,-194.757"/>
<polygon fill="midnightblue" stroke="midnightblue" points="205.966,-197.968 214.346,-191.486 203.752,-191.328 205.966,-197.968"/>
</g>
<!-- Node3 -->
<g id="node3" class="node"><title>Node3</title>
<g id="a_node3"><a xlink:href="classYUVSource.html#a12174732ce70dfe8f1e5b842a532b8c9" target="_top" xlink:title="YUVSource::getName">
<polygon fill="white" stroke="black" points="368.5,-267.434 368.5,-286.434 482.5,-286.434 482.5,-267.434 368.5,-267.434"/>
<text text-anchor="middle" x="425.5" y="-274.434" font-family="Helvetica,sans-Serif" font-size="10.00">YUVSource::getName</text>
</a>
</g>
</g>
<!-- Node2&#45;&gt;Node3 -->
<g id="edge2" class="edge"><title>Node2&#45;&gt;Node3</title>
<path fill="none" stroke="midnightblue" d="M310.057,-276.934C325.695,-276.934 342.417,-276.934 358.114,-276.934"/>
<polygon fill="midnightblue" stroke="midnightblue" points="358.26,-280.434 368.26,-276.934 358.26,-273.434 358.26,-280.434"/>
</g>
<!-- Node4 -->
<g id="node4" class="node"><title>Node4</title>
<g id="a_node4"><a xlink:href="classFrameObject.html#a1069def130e7deac035f166084ae4ca8" target="_top" xlink:title="FrameObject::numFrames">
<polygon fill="white" stroke="black" points="360,-305.434 360,-324.434 491,-324.434 491,-305.434 360,-305.434"/>
<text text-anchor="middle" x="425.5" y="-312.434" font-family="Helvetica,sans-Serif" font-size="10.00">FrameObject::numFrames</text>
</a>
</g>
</g>
<!-- Node2&#45;&gt;Node4 -->
<g id="edge3" class="edge"><title>Node2&#45;&gt;Node4</title>
<path fill="none" stroke="midnightblue" d="M310.057,-290.707C329.618,-294.848 350.876,-299.348 369.702,-303.334"/>
<polygon fill="midnightblue" stroke="midnightblue" points="369.085,-306.78 379.593,-305.427 370.534,-299.932 369.085,-306.78"/>
</g>
<!-- Node5 -->
<g id="node5" class="node"><title>Node5</title>
<g id="a_node5"><a xlink:href="classYUVSource.html#afaf713d38c871df33f6e28e9d589c86c" target="_top" xlink:title="YUVSource::getNumberFrames">
<polygon fill="white" stroke="black" points="541,-305.434 541,-324.434 696,-324.434 696,-305.434 541,-305.434"/>
<text text-anchor="middle" x="618.5" y="-312.434" font-family="Helvetica,sans-Serif" font-size="10.00">YUVSource::getNumberFrames</text>
</a>
</g>
</g>
<!-- Node4&#45;&gt;Node5 -->
<g id="edge4" class="edge"><title>Node4&#45;&gt;Node5</title>
<path fill="none" stroke="midnightblue" d="M491.164,-314.934C503.841,-314.934 517.331,-314.934 530.597,-314.934"/>
<polygon fill="midnightblue" stroke="midnightblue" points="530.682,-318.434 540.682,-314.934 530.682,-311.434 530.682,-318.434"/>
</g>
<!-- Node6&#45;&gt;Node3 -->
<g id="edge7" class="edge"><title>Node6&#45;&gt;Node3</title>
<path fill="none" stroke="midnightblue" d="M256.066,-191.513C273.893,-206.512 310.569,-235.613 346,-252.934 355.026,-257.347 365.034,-261.149 374.799,-264.343"/>
<polygon fill="midnightblue" stroke="midnightblue" points="373.849,-267.713 384.437,-267.334 375.924,-261.027 373.849,-267.713"/>
</g>
<!-- Node6&#45;&gt;Node4 -->
<g id="edge6" class="edge"><title>Node6&#45;&gt;Node4</title>
<path fill="none" stroke="midnightblue" d="M253.968,-191.459C266.634,-204.971 290.404,-230.554 310,-252.934 326.419,-271.686 324.825,-282.787 346,-295.934 349.388,-298.038 352.991,-299.908 356.721,-301.572"/>
<polygon fill="midnightblue" stroke="midnightblue" points="355.614,-304.897 366.202,-305.294 358.173,-298.381 355.614,-304.897"/>
</g>
<!-- Node7 -->
<g id="node7" class="node"><title>Node7</title>
<g id="a_node7"><a xlink:href="classYUVSource.html#a592ce352c789f4f5789b11e052b58a33" target="_top" xlink:title="YUVSource::pixelFormat">
<polygon fill="white" stroke="black" points="740,-200.434 740,-219.434 865,-219.434 865,-200.434 740,-200.434"/>
<text text-anchor="middle" x="802.5" y="-207.434" font-family="Helvetica,sans-Serif" font-size="10.00">YUVSource::pixelFormat</text>
</a>
</g>
</g>
<!-- Node6&#45;&gt;Node7 -->
<g id="edge8" class="edge"><title>Node6&#45;&gt;Node7</title>
<path fill="none" stroke="midnightblue" d="M264.143,-191.519C284.027,-200.898 316.324,-214.536 346,-219.934 479.757,-244.264 639.231,-231.417 729.597,-220.346"/>
<polygon fill="midnightblue" stroke="midnightblue" points="730.244,-223.792 739.732,-219.076 729.374,-216.847 730.244,-223.792"/>
</g>
<!-- Node8 -->
<g id="node8" class="node"><title>Node8</title>
<g id="a_node8"><a xlink:href="classYUVSource.html#aff9d7390aa2cdb93376c69ede52b1e30" target="_top" xlink:title="YUVSource::getOneFrame">
<polygon fill="white" stroke="black" points="358.5,-115.434 358.5,-134.434 492.5,-134.434 492.5,-115.434 358.5,-115.434"/>
<text text-anchor="middle" x="425.5" y="-122.434" font-family="Helvetica,sans-Serif" font-size="10.00">YUVSource::getOneFrame</text>
</a>
</g>
</g>
<!-- Node6&#45;&gt;Node8 -->
<g id="edge9" class="edge"><title>Node6&#45;&gt;Node8</title>
<path fill="none" stroke="midnightblue" d="M267.988,-172.364C288.28,-164.139 318.784,-152.313 346,-143.934 354.091,-141.443 362.732,-139.071 371.213,-136.899"/>
<polygon fill="midnightblue" stroke="midnightblue" points="372.197,-140.261 381.054,-134.446 370.504,-133.468 372.197,-140.261"/>
</g>
<!-- Node9 -->
<g id="node9" class="node"><title>Node9</title>
<g id="a_node9"><a xlink:href="classFrameObject.html#a3157b2afa82e71a5ebd93ac6dd25de6b" target="_top" xlink:title="FrameObject::doApplyYUVMath">
<polygon fill="white" stroke="black" points="347,-77.4343 347,-96.4343 504,-96.4343 504,-77.4343 347,-77.4343"/>
<text text-anchor="middle" x="425.5" y="-84.4343" font-family="Helvetica,sans-Serif" font-size="10.00">FrameObject::doApplyYUVMath</text>
</a>
</g>
</g>
<!-- Node6&#45;&gt;Node9 -->
<g id="edge10" class="edge"><title>Node6&#45;&gt;Node9</title>
<path fill="none" stroke="midnightblue" d="M254.697,-172.426C271.712,-156.282 308.696,-123.554 346,-105.934 351.198,-103.479 356.745,-101.323 362.395,-99.4328"/>
<polygon fill="midnightblue" stroke="midnightblue" points="363.426,-102.778 371.959,-96.4978 361.372,-96.0858 363.426,-102.778"/>
</g>
<!-- Node10 -->
<g id="node10" class="node"><title>Node10</title>
<g id="a_node10"><a xlink:href="classFrameObject.html#a38084be9c862db6fea97d202231144ec" target="_top" xlink:title="FrameObject::applyYUVMath">
<polygon fill="white" stroke="black" points="353,-191.434 353,-210.434 498,-210.434 498,-191.434 353,-191.434"/>
<text text-anchor="middle" x="425.5" y="-198.434" font-family="Helvetica,sans-Serif" font-size="10.00">FrameObject::applyYUVMath</text>
</a>
</g>
</g>
<!-- Node6&#45;&gt;Node10 -->
<g id="edge11" class="edge"><title>Node6&#45;&gt;Node10</title>
<path fill="none" stroke="midnightblue" d="M306.021,-188.393C317.773,-189.637 330.259,-190.959 342.548,-192.26"/>
<polygon fill="midnightblue" stroke="midnightblue" points="342.492,-195.773 352.805,-193.345 343.229,-188.812 342.492,-195.773"/>
</g>
<!-- Node12 -->
<g id="node12" class="node"><title>Node12</title>
<g id="a_node12"><a xlink:href="classYUVSource.html#a7e554f2c626688704099e00cc4ece029" target="_top" xlink:title="YUVSource::pixelFormatList">
<polygon fill="white" stroke="black" points="732,-96.4343 732,-115.434 873,-115.434 873,-96.4343 732,-96.4343"/>
<text text-anchor="middle" x="802.5" y="-103.434" font-family="Helvetica,sans-Serif" font-size="10.00">YUVSource::pixelFormatList</text>
</a>
</g>
</g>
<!-- Node6&#45;&gt;Node12 -->
<g id="edge17" class="edge"><title>Node6&#45;&gt;Node12</title>
<path fill="none" stroke="midnightblue" d="M247.804,-172.424C256.674,-144.299 287.082,-61.5238 346,-29.9343 494.092,49.4667 705.01,-52.087 776.618,-91.5178"/>
<polygon fill="midnightblue" stroke="midnightblue" points="774.966,-94.6042 785.403,-96.4312 778.384,-88.4949 774.966,-94.6042"/>
</g>
<!-- Node13 -->
<g id="node13" class="node"><title>Node13</title>
<g id="a_node13"><a xlink:href="classFrameObject.html#acd2367ffa54180853cd3ee901aa85304" target="_top" xlink:title="FrameObject::convertYUV2RGB">
<polygon fill="white" stroke="black" points="346,-153.434 346,-172.434 505,-172.434 505,-153.434 346,-153.434"/>
<text text-anchor="middle" x="425.5" y="-160.434" font-family="Helvetica,sans-Serif" font-size="10.00">FrameObject::convertYUV2RGB</text>
</a>
</g>
</g>
<!-- Node6&#45;&gt;Node13 -->
<g id="edge15" class="edge"><title>Node6&#45;&gt;Node13</title>
<path fill="none" stroke="midnightblue" d="M306.021,-175.475C315.626,-174.459 325.721,-173.39 335.798,-172.323"/>
<polygon fill="midnightblue" stroke="midnightblue" points="336.275,-175.793 345.851,-171.259 335.538,-168.831 336.275,-175.793"/>
</g>
<!-- Node14 -->
<g id="node14" class="node"><title>Node14</title>
<g id="a_node14"><a xlink:href="classDisplayObject.html#a790f4bdf4ecb24617ea7db5837c3048c" target="_top" xlink:title="DisplayObject::setInfo">
<polygon fill="white" stroke="black" points="368.5,-39.4343 368.5,-58.4343 482.5,-58.4343 482.5,-39.4343 368.5,-39.4343"/>
<text text-anchor="middle" x="425.5" y="-46.4343" font-family="Helvetica,sans-Serif" font-size="10.00">DisplayObject::setInfo</text>
</a>
</g>
</g>
<!-- Node6&#45;&gt;Node14 -->
<g id="edge18" class="edge"><title>Node6&#45;&gt;Node14</title>
<path fill="none" stroke="midnightblue" d="M250.676,-172.204C264.168,-149.985 300.459,-95.3341 346,-67.9343 350.066,-65.4878 354.429,-63.3561 358.94,-61.4988"/>
<polygon fill="midnightblue" stroke="midnightblue" points="360.165,-64.7774 368.357,-58.0585 357.763,-58.2024 360.165,-64.7774"/>
</g>
<!-- Node11 -->
<g id="node11" class="node"><title>Node11</title>
<g id="a_node11"><a xlink:href="classYUVSource.html#a11ea64b650d6086177fa0f7a1f3f323d" target="_top" xlink:title="YUVSource::bitsPerSample">
<polygon fill="white" stroke="black" points="549.5,-172.434 549.5,-191.434 687.5,-191.434 687.5,-172.434 549.5,-172.434"/>
<text text-anchor="middle" x="618.5" y="-179.434" font-family="Helvetica,sans-Serif" font-size="10.00">YUVSource::bitsPerSample</text>
</a>
</g>
</g>
<!-- Node10&#45;&gt;Node11 -->
<g id="edge12" class="edge"><title>Node10&#45;&gt;Node11</title>
<path fill="none" stroke="midnightblue" d="M498.165,-193.805C511.492,-192.48 525.482,-191.088 539.001,-189.743"/>
<polygon fill="midnightblue" stroke="midnightblue" points="539.625,-193.198 549.229,-188.726 538.932,-186.233 539.625,-193.198"/>
</g>
<!-- Node11&#45;&gt;Node7 -->
<g id="edge14" class="edge"><title>Node11&#45;&gt;Node7</title>
<path fill="none" stroke="midnightblue" d="M681.371,-191.453C696.841,-193.833 713.566,-196.406 729.48,-198.854"/>
<polygon fill="midnightblue" stroke="midnightblue" points="729.384,-202.381 739.8,-200.442 730.449,-195.462 729.384,-202.381"/>
</g>
<!-- Node11&#45;&gt;Node12 -->
<g id="edge13" class="edge"><title>Node11&#45;&gt;Node12</title>
<path fill="none" stroke="midnightblue" d="M642.55,-172.309C674.55,-158.946 732.595,-134.708 768.986,-119.511"/>
<polygon fill="midnightblue" stroke="midnightblue" points="770.758,-122.565 778.637,-115.482 768.06,-116.105 770.758,-122.565"/>
</g>
<!-- Node13&#45;&gt;Node11 -->
<g id="edge16" class="edge"><title>Node13&#45;&gt;Node11</title>
<path fill="none" stroke="midnightblue" d="M505.014,-170.745C516.279,-171.865 527.87,-173.018 539.132,-174.139"/>
<polygon fill="midnightblue" stroke="midnightblue" points="539.066,-177.649 549.364,-175.156 539.759,-170.684 539.066,-177.649"/>
</g>
</g>
</svg>
