<?xml version="1.0" encoding="UTF-8" standalone="no"?>
<!DOCTYPE svg PUBLIC "-//W3C//DTD SVG 1.1//EN"
 "http://www.w3.org/Graphics/SVG/1.1/DTD/svg11.dtd">
<!-- Generated by graphviz version 2.38.0 (20140413.2041)
 -->
<!-- Title: StatsListModel Pages: 1 -->
<svg width="264pt" height="95pt"
 viewBox="0.00 0.00 263.50 95.00" xmlns="http://www.w3.org/2000/svg" xmlns:xlink="http://www.w3.org/1999/xlink">
<g id="graph0" class="graph" transform="scale(1 1) rotate(0) translate(4 91)">
<title>StatsListModel</title>
<polygon fill="white" stroke="none" points="-4,4 -4,-91 259.5,-91 259.5,4 -4,4"/>
<!-- Node1 -->
<g id="node1" class="node"><title>Node1</title>
<polygon fill="#bfbfbf" stroke="black" points="78.5,-0.5 78.5,-19.5 160.5,-19.5 160.5,-0.5 78.5,-0.5"/>
<text text-anchor="middle" x="119.5" y="-7.5" font-family="Helvetica,sans-Serif" font-size="10.00">StatsListModel</text>
</g>
<!-- Node2 -->
<g id="node2" class="node"><title>Node2</title>
<g id="a_node2"><a xlink:href="classQAbstractListModel.html" target="_top" xlink:title="QAbstractListModel">
<polygon fill="white" stroke="black" points="0,-67.5 0,-86.5 103,-86.5 103,-67.5 0,-67.5"/>
<text text-anchor="middle" x="51.5" y="-74.5" font-family="Helvetica,sans-Serif" font-size="10.00">QAbstractListModel</text>
</a>
</g>
</g>
<!-- Node2&#45;&gt;Node1 -->
<g id="edge1" class="edge"><title>Node2&#45;&gt;Node1</title>
<path fill="none" stroke="midnightblue" d="M68.2418,-59.9968C81.5774,-47.2496 99.7333,-29.8947 110.475,-19.6273"/>
<polygon fill="midnightblue" stroke="midnightblue" points="65.4811,-57.7939 60.6708,-67.2338 70.318,-62.854 65.4811,-57.7939"/>
</g>
<!-- Node3 -->
<g id="node3" class="node"><title>Node3</title>
<polygon fill="white" stroke="#bfbfbf" points="121.5,-67.5 121.5,-86.5 255.5,-86.5 255.5,-67.5 121.5,-67.5"/>
<text text-anchor="middle" x="188.5" y="-74.5" font-family="Helvetica,sans-Serif" font-size="10.00">QVector&lt; StatisticsType &gt;</text>
</g>
<!-- Node3&#45;&gt;Node1 -->
<g id="edge2" class="edge"><title>Node3&#45;&gt;Node1</title>
<path fill="none" stroke="#9a32cd" stroke-dasharray="5,2" d="M171.894,-60.3564C158.329,-47.5777 139.66,-29.9915 128.658,-19.6273"/>
<polygon fill="#9a32cd" stroke="#9a32cd" points="169.515,-62.9245 179.194,-67.2338 174.315,-57.8292 169.515,-62.9245"/>
<text text-anchor="middle" x="204" y="-41" font-family="Helvetica,sans-Serif" font-size="10.00"> p_statisticsTypeList</text>
</g>
</g>
</svg>
