<?xml version="1.0" encoding="UTF-8" standalone="no"?>
<!DOCTYPE svg PUBLIC "-//W3C//DTD SVG 1.1//EN"
 "http://www.w3.org/Graphics/SVG/1.1/DTD/svg11.dtd">
<!-- Generated by graphviz version 2.38.0 (20140413.2041)
 -->
<!-- Title: statisticSource::setInternalScaleFactor Pages: 1 -->
<svg width="297pt" height="78pt"
 viewBox="0.00 0.00 297.00 77.50" xmlns="http://www.w3.org/2000/svg" xmlns:xlink="http://www.w3.org/1999/xlink">
<g id="graph0" class="graph" transform="scale(1 1) rotate(0) translate(4 73.5)">
<title>statisticSource::setInternalScaleFactor</title>
<polygon fill="white" stroke="none" points="-4,4 -4,-73.5 293,-73.5 293,4 -4,4"/>
<!-- Node1 -->
<g id="node1" class="node"><title>Node1</title>
<polygon fill="#bfbfbf" stroke="black" points="0,-22.5 0,-52.5 134,-52.5 134,-22.5 0,-22.5"/>
<text text-anchor="start" x="8" y="-40.5" font-family="Helvetica,sans-Serif" font-size="10.00">statisticSource::setInternal</text>
<text text-anchor="middle" x="67" y="-29.5" font-family="Helvetica,sans-Serif" font-size="10.00">ScaleFactor</text>
</g>
<!-- Node2 -->
<g id="node2" class="node"><title>Node2</title>
<g id="a_node2"><a xlink:href="typedef_8h.html#a9aaa34d570ccff65aa586904187cfff5" target="_top" xlink:title="clip">
<polygon fill="white" stroke="black" points="213.5,-50 213.5,-69 245.5,-69 245.5,-50 213.5,-50"/>
<text text-anchor="middle" x="229.5" y="-57" font-family="Helvetica,sans-Serif" font-size="10.00">clip</text>
</a>
</g>
</g>
<!-- Node1&#45;&gt;Node2 -->
<g id="edge1" class="edge"><title>Node1&#45;&gt;Node2</title>
<path fill="none" stroke="midnightblue" d="M134.208,-46.5753C158.606,-49.9195 184.792,-53.5088 203.362,-56.0542"/>
<polygon fill="midnightblue" stroke="midnightblue" points="202.961,-59.532 213.344,-57.4226 203.912,-52.5969 202.961,-59.532"/>
</g>
<!-- Node3 -->
<g id="node3" class="node"><title>Node3</title>
<g id="a_node3"><a xlink:href="classstatisticSource.html#ab919493c131a2f9b26c1c212c05ad223" target="_top" xlink:title="statisticSource::internal\lScaleFactor">
<polygon fill="white" stroke="black" points="170,-0.5 170,-30.5 289,-30.5 289,-0.5 170,-0.5"/>
<text text-anchor="start" x="178" y="-18.5" font-family="Helvetica,sans-Serif" font-size="10.00">statisticSource::internal</text>
<text text-anchor="middle" x="229.5" y="-7.5" font-family="Helvetica,sans-Serif" font-size="10.00">ScaleFactor</text>
</a>
</g>
</g>
<!-- Node1&#45;&gt;Node3 -->
<g id="edge2" class="edge"><title>Node1&#45;&gt;Node3</title>
<path fill="none" stroke="midnightblue" d="M134.208,-28.4247C142.711,-27.2592 151.431,-26.064 159.97,-24.8935"/>
<polygon fill="midnightblue" stroke="midnightblue" points="160.455,-28.3599 169.887,-23.5342 159.504,-21.4247 160.455,-28.3599"/>
</g>
</g>
</svg>
