<?xml version="1.0" encoding="UTF-8" standalone="no"?>
<!DOCTYPE svg PUBLIC "-//W3C//DTD SVG 1.1//EN"
 "http://www.w3.org/Graphics/SVG/1.1/DTD/svg11.dtd">
<!-- Generated by graphviz version 2.38.0 (20140413.2041)
 -->
<!-- Title: PListSerializer::toPList Pages: 1 -->
<svg width="651pt" height="78pt"
 viewBox="0.00 0.00 651.00 77.50" xmlns="http://www.w3.org/2000/svg" xmlns:xlink="http://www.w3.org/1999/xlink">
<g id="graph0" class="graph" transform="scale(1 1) rotate(0) translate(4 73.5)">
<title>PListSerializer::toPList</title>
<polygon fill="white" stroke="none" points="-4,4 -4,-73.5 647,-73.5 647,4 -4,4"/>
<!-- Node1 -->
<g id="node1" class="node"><title>Node1</title>
<polygon fill="#bfbfbf" stroke="black" points="0,-22.5 0,-41.5 116,-41.5 116,-22.5 0,-22.5"/>
<text text-anchor="middle" x="58" y="-29.5" font-family="Helvetica,sans-Serif" font-size="10.00">PListSerializer::toPList</text>
</g>
<!-- Node2 -->
<g id="node2" class="node"><title>Node2</title>
<g id="a_node2"><a xlink:href="classMainWindow.html#a88624964fbb9d67df9149b29fab6f225" target="_top" xlink:title="MainWindow::savePlaylist\lToFile">
<polygon fill="white" stroke="black" points="152,-17 152,-47 284,-47 284,-17 152,-17"/>
<text text-anchor="start" x="160" y="-35" font-family="Helvetica,sans-Serif" font-size="10.00">MainWindow::savePlaylist</text>
<text text-anchor="middle" x="218" y="-24" font-family="Helvetica,sans-Serif" font-size="10.00">ToFile</text>
</a>
</g>
</g>
<!-- Node1&#45;&gt;Node2 -->
<g id="edge1" class="edge"><title>Node1&#45;&gt;Node2</title>
<path fill="none" stroke="midnightblue" d="M126.306,-32C134.82,-32 143.518,-32 151.994,-32"/>
<polygon fill="midnightblue" stroke="midnightblue" points="126.042,-28.5001 116.042,-32 126.042,-35.5001 126.042,-28.5001"/>
</g>
<!-- Node3 -->
<g id="node3" class="node"><title>Node3</title>
<g id="a_node3"><a xlink:href="classMainWindow.html#a9df7443ce5f907903438bb6a9abe9a33" target="_top" xlink:title="MainWindow::createMenusAnd\lActions">
<polygon fill="white" stroke="black" points="320,-39 320,-69 472,-69 472,-39 320,-39"/>
<text text-anchor="start" x="328" y="-57" font-family="Helvetica,sans-Serif" font-size="10.00">MainWindow::createMenusAnd</text>
<text text-anchor="middle" x="396" y="-46" font-family="Helvetica,sans-Serif" font-size="10.00">Actions</text>
</a>
</g>
</g>
<!-- Node2&#45;&gt;Node3 -->
<g id="edge2" class="edge"><title>Node2&#45;&gt;Node3</title>
<path fill="none" stroke="midnightblue" d="M293.985,-41.3731C302.543,-42.4428 311.268,-43.5336 319.829,-44.6036"/>
<polygon fill="midnightblue" stroke="midnightblue" points="294.393,-37.8969 284.036,-40.1295 293.524,-44.8429 294.393,-37.8969"/>
</g>
<!-- Node5 -->
<g id="node5" class="node"><title>Node5</title>
<g id="a_node5"><a xlink:href="classMainWindow.html#a4e20a4a065fbb0e4d3532a45a0a91425" target="_top" xlink:title="MainWindow::closeEvent">
<polygon fill="white" stroke="black" points="332,-0.5 332,-19.5 460,-19.5 460,-0.5 332,-0.5"/>
<text text-anchor="middle" x="396" y="-7.5" font-family="Helvetica,sans-Serif" font-size="10.00">MainWindow::closeEvent</text>
</a>
</g>
</g>
<!-- Node2&#45;&gt;Node5 -->
<g id="edge4" class="edge"><title>Node2&#45;&gt;Node5</title>
<path fill="none" stroke="midnightblue" d="M294.069,-22.6163C306.703,-21.0371 319.7,-19.4125 331.988,-17.8765"/>
<polygon fill="midnightblue" stroke="midnightblue" points="293.524,-19.1571 284.036,-23.8705 294.393,-26.1031 293.524,-19.1571"/>
</g>
<!-- Node4 -->
<g id="node4" class="node"><title>Node4</title>
<g id="a_node4"><a xlink:href="classMainWindow.html#a8b244be8b7b7db1b08de2a2acb9409db" target="_top" xlink:title="MainWindow::MainWindow">
<polygon fill="white" stroke="black" points="508,-44.5 508,-63.5 643,-63.5 643,-44.5 508,-44.5"/>
<text text-anchor="middle" x="575.5" y="-51.5" font-family="Helvetica,sans-Serif" font-size="10.00">MainWindow::MainWindow</text>
</a>
</g>
</g>
<!-- Node3&#45;&gt;Node4 -->
<g id="edge3" class="edge"><title>Node3&#45;&gt;Node4</title>
<path fill="none" stroke="midnightblue" d="M482.138,-54C490.793,-54 499.494,-54 507.911,-54"/>
<polygon fill="midnightblue" stroke="midnightblue" points="482.019,-50.5001 472.019,-54 482.019,-57.5001 482.019,-50.5001"/>
</g>
</g>
</svg>
