<?xml version="1.0" encoding="UTF-8" standalone="no"?>
<!DOCTYPE svg PUBLIC "-//W3C//DTD SVG 1.1//EN"
 "http://www.w3.org/Graphics/SVG/1.1/DTD/svg11.dtd">
<!-- Generated by graphviz version 2.38.0 (20140413.2041)
 -->
<!-- Title: DisplayWidget::displayObject Pages: 1 -->
<!--zoomable 317 -->
<svg id="main" version="1.1" xmlns="http://www.w3.org/2000/svg" xmlns:xlink="http://www.w3.org/1999/xlink" xml:space="preserve" onload="init(evt)">
<style type="text/css"><![CDATA[
.edge:hover path { stroke: red; }
.edge:hover polygon { stroke: red; fill: red; }
]]></style>
<script type="text/javascript"><![CDATA[
var edges = document.getElementsByTagName('g');
if (edges && edges.length) {
  for (var i=0;i<edges.length;i++) {
    if (edges[i].id.substr(0,4)=='edge') {
      edges[i].setAttribute('class','edge');
    }
  }
}
]]></script>
        <defs>
                <circle id="rim" cx="0" cy="0" r="7"/>
                <circle id="rim2" cx="0" cy="0" r="3.5"/>
                <g id="zoomPlus">
                        <use xlink:href="#rim" fill="#404040">
                                <set attributeName="fill" to="#808080" begin="zoomplus.mouseover" end="zoomplus.mouseout"/>
                        </use>
                        <path d="M-4,0h8M0,-4v8" fill="none" stroke="white" stroke-width="1.5" pointer-events="none"/>
                </g>
                <g id="zoomMin">
                        <use xlink:href="#rim" fill="#404040">
                                <set attributeName="fill" to="#808080" begin="zoomminus.mouseover" end="zoomminus.mouseout"/>
                        </use>
                        <path d="M-4,0h8" fill="none" stroke="white" stroke-width="1.5" pointer-events="none"/>
                </g>
                <g id="dirArrow">
                        <path fill="none" stroke="white" stroke-width="1.5" d="M0,-3.0v7 M-2.5,-0.5L0,-3.0L2.5,-0.5"/>
                </g>
               <g id="resetDef">
                       <use xlink:href="#rim2" fill="#404040">
                               <set attributeName="fill" to="#808080" begin="reset.mouseover" end="reset.mouseout"/>
                       </use>
               </g>
        </defs>

<script type="text/javascript">
var viewWidth = 759;
var viewHeight = 317;
var sectionId = 'dynsection-5';
</script>
<script xlink:href="svgpan.js"/>
<svg id="graph" class="graph">
<g id="viewport">
<title>DisplayWidget::displayObject</title>
<polygon fill="white" stroke="none" points="-4,4 -4,-313 755,-313 755,4 -4,4"/>
<!-- Node1 -->
<g id="node1" class="node"><title>Node1</title>
<polygon fill="#bfbfbf" stroke="black" points="0,-142 0,-161 146,-161 146,-142 0,-142"/>
<text text-anchor="middle" x="73" y="-149" font-family="Helvetica,sans-Serif" font-size="10.00">DisplayWidget::displayObject</text>
</g>
<!-- Node2 -->
<g id="node2" class="node"><title>Node2</title>
<g id="a_node2"><a xlink:href="classDisplaySplitWidget.html#a6ac792979681575417245e357cdadb69" target="_top" xlink:title="DisplaySplitWidget\l::setActiveDisplayObjects">
<polygon fill="white" stroke="black" points="484,-278.5 484,-308.5 615,-308.5 615,-278.5 484,-278.5"/>
<text text-anchor="start" x="492" y="-296.5" font-family="Helvetica,sans-Serif" font-size="10.00">DisplaySplitWidget</text>
<text text-anchor="middle" x="549.5" y="-285.5" font-family="Helvetica,sans-Serif" font-size="10.00">::setActiveDisplayObjects</text>
</a>
</g>
</g>
<!-- Node1&#45;&gt;Node2 -->
<g id="edge1" class="edge"><title>Node1&#45;&gt;Node2</title>
<path fill="none" stroke="midnightblue" d="M86.4649,-169.412C104.444,-193.638 140.135,-236.05 182,-255.5 279.899,-300.983 407.983,-303.015 483.918,-299.116"/>
<polygon fill="midnightblue" stroke="midnightblue" points="89.1571,-167.162 80.4652,-161.104 83.482,-171.26 89.1571,-167.162"/>
</g>
<!-- Node3 -->
<g id="node3" class="node"><title>Node3</title>
<g id="a_node3"><a xlink:href="classDisplaySplitWidget.html#a07d514c8000eade67022e9f73a4214c0" target="_top" xlink:title="DisplaySplitWidget\l::zoomToPoint">
<polygon fill="white" stroke="black" points="197,-92.5 197,-122.5 297,-122.5 297,-92.5 197,-92.5"/>
<text text-anchor="start" x="205" y="-110.5" font-family="Helvetica,sans-Serif" font-size="10.00">DisplaySplitWidget</text>
<text text-anchor="middle" x="247" y="-99.5" font-family="Helvetica,sans-Serif" font-size="10.00">::zoomToPoint</text>
</a>
</g>
</g>
<!-- Node1&#45;&gt;Node3 -->
<g id="edge2" class="edge"><title>Node1&#45;&gt;Node3</title>
<path fill="none" stroke="midnightblue" d="M121.091,-139.454C144.657,-133.425 173.163,-126.133 196.989,-120.038"/>
<polygon fill="midnightblue" stroke="midnightblue" points="120.142,-136.083 111.321,-141.953 121.877,-142.865 120.142,-136.083"/>
</g>
<!-- Node4 -->
<g id="node4" class="node"><title>Node4</title>
<g id="a_node4"><a xlink:href="classDisplaySplitWidget.html#ad714b0427a31a3ac29bf0f0a2c1f3611" target="_top" xlink:title="DisplaySplitWidget\l::zoomIn">
<polygon fill="white" stroke="black" points="348,-131.5 348,-161.5 448,-161.5 448,-131.5 348,-131.5"/>
<text text-anchor="start" x="356" y="-149.5" font-family="Helvetica,sans-Serif" font-size="10.00">DisplaySplitWidget</text>
<text text-anchor="middle" x="398" y="-138.5" font-family="Helvetica,sans-Serif" font-size="10.00">::zoomIn</text>
</a>
</g>
</g>
<!-- Node1&#45;&gt;Node4 -->
<g id="edge13" class="edge"><title>Node1&#45;&gt;Node4</title>
<path fill="none" stroke="midnightblue" d="M156.368,-150.225C216.805,-149.289 296.88,-148.05 347.684,-147.263"/>
<polygon fill="midnightblue" stroke="midnightblue" points="156.03,-146.73 146.085,-150.384 156.138,-153.729 156.03,-146.73"/>
</g>
<!-- Node8 -->
<g id="node8" class="node"><title>Node8</title>
<g id="a_node8"><a xlink:href="classDisplaySplitWidget.html#aeea14bc10ca6579ab6f68f8150f9ac5f" target="_top" xlink:title="DisplaySplitWidget\l::zoomOut">
<polygon fill="white" stroke="black" points="348,-180.5 348,-210.5 448,-210.5 448,-180.5 348,-180.5"/>
<text text-anchor="start" x="356" y="-198.5" font-family="Helvetica,sans-Serif" font-size="10.00">DisplaySplitWidget</text>
<text text-anchor="middle" x="398" y="-187.5" font-family="Helvetica,sans-Serif" font-size="10.00">::zoomOut</text>
</a>
</g>
</g>
<!-- Node1&#45;&gt;Node8 -->
<g id="edge14" class="edge"><title>Node1&#45;&gt;Node8</title>
<path fill="none" stroke="midnightblue" d="M154.013,-162.4C214.658,-170.661 296.077,-181.752 347.55,-188.764"/>
<polygon fill="midnightblue" stroke="midnightblue" points="154.467,-158.929 144.086,-161.047 153.522,-165.865 154.467,-158.929"/>
</g>
<!-- Node9 -->
<g id="node9" class="node"><title>Node9</title>
<g id="a_node9"><a xlink:href="classDisplaySplitWidget.html#a43d312016afd6d843f1c624905f4afee" target="_top" xlink:title="DisplaySplitWidget\l::zoomToFit">
<polygon fill="white" stroke="black" points="348,-43.5 348,-73.5 448,-73.5 448,-43.5 348,-43.5"/>
<text text-anchor="start" x="356" y="-61.5" font-family="Helvetica,sans-Serif" font-size="10.00">DisplaySplitWidget</text>
<text text-anchor="middle" x="398" y="-50.5" font-family="Helvetica,sans-Serif" font-size="10.00">::zoomToFit</text>
</a>
</g>
</g>
<!-- Node1&#45;&gt;Node9 -->
<g id="edge15" class="edge"><title>Node1&#45;&gt;Node9</title>
<path fill="none" stroke="midnightblue" d="M92.9602,-135.509C113.478,-119.181 147.859,-94.5709 182,-82.5 236.532,-63.2196 303.259,-58.4509 347.775,-57.7116"/>
<polygon fill="midnightblue" stroke="midnightblue" points="90.6053,-132.913 85.057,-141.939 95.0229,-138.343 90.6053,-132.913"/>
</g>
<!-- Node11 -->
<g id="node11" class="node"><title>Node11</title>
<g id="a_node11"><a xlink:href="classDisplaySplitWidget.html#a66c16edce3aae0df82f888348cd7590d" target="_top" xlink:title="DisplaySplitWidget\l::mouseMoveEvent">
<polygon fill="white" stroke="black" points="196.5,-0.5 196.5,-30.5 297.5,-30.5 297.5,-0.5 196.5,-0.5"/>
<text text-anchor="start" x="204.5" y="-18.5" font-family="Helvetica,sans-Serif" font-size="10.00">DisplaySplitWidget</text>
<text text-anchor="middle" x="247" y="-7.5" font-family="Helvetica,sans-Serif" font-size="10.00">::mouseMoveEvent</text>
</a>
</g>
</g>
<!-- Node1&#45;&gt;Node11 -->
<g id="edge16" class="edge"><title>Node1&#45;&gt;Node11</title>
<path fill="none" stroke="midnightblue" d="M88.7422,-134.041C108.319,-111.644 144.779,-72.5808 182,-46.5 190.493,-40.5489 200.303,-35.1656 209.652,-30.6181"/>
<polygon fill="midnightblue" stroke="midnightblue" points="85.9775,-131.888 82.0994,-141.747 91.2796,-136.458 85.9775,-131.888"/>
</g>
<!-- Node12 -->
<g id="node12" class="node"><title>Node12</title>
<g id="a_node12"><a xlink:href="classDisplayWidget.html#a0dedd877a59b3b979241ad624a9a762a" target="_top" xlink:title="DisplayWidget::resetView">
<polygon fill="white" stroke="black" points="182,-227 182,-246 312,-246 312,-227 182,-227"/>
<text text-anchor="middle" x="247" y="-234" font-family="Helvetica,sans-Serif" font-size="10.00">DisplayWidget::resetView</text>
</a>
</g>
</g>
<!-- Node1&#45;&gt;Node12 -->
<g id="edge18" class="edge"><title>Node1&#45;&gt;Node12</title>
<path fill="none" stroke="midnightblue" d="M102.645,-165.656C137.797,-183.027 196.444,-212.01 226.675,-226.95"/>
<polygon fill="midnightblue" stroke="midnightblue" points="103.912,-162.378 93.3962,-161.085 100.811,-168.654 103.912,-162.378"/>
</g>
<!-- Node3&#45;&gt;Node4 -->
<g id="edge3" class="edge"><title>Node3&#45;&gt;Node4</title>
<path fill="none" stroke="midnightblue" d="M306.919,-122.922C320.478,-126.471 334.757,-130.208 347.851,-133.635"/>
<polygon fill="midnightblue" stroke="midnightblue" points="307.761,-119.524 297.201,-120.378 305.989,-126.296 307.761,-119.524"/>
</g>
<!-- Node3&#45;&gt;Node8 -->
<g id="edge7" class="edge"><title>Node3&#45;&gt;Node8</title>
<path fill="none" stroke="midnightblue" d="M279.167,-128.155C298.677,-140.828 324.488,-157.132 348,-170.5 353.895,-173.851 360.288,-177.267 366.451,-180.453"/>
<polygon fill="midnightblue" stroke="midnightblue" points="280.965,-125.149 270.678,-122.612 277.138,-131.01 280.965,-125.149"/>
</g>
<!-- Node3&#45;&gt;Node9 -->
<g id="edge10" class="edge"><title>Node3&#45;&gt;Node9</title>
<path fill="none" stroke="midnightblue" d="M303.523,-89.2409C319.238,-84.0727 336.161,-78.5076 351.231,-73.5516"/>
<polygon fill="midnightblue" stroke="midnightblue" points="302.327,-85.9497 293.921,-92.3986 304.514,-92.5993 302.327,-85.9497"/>
</g>
<!-- Node10 -->
<g id="node10" class="node"><title>Node10</title>
<g id="a_node10"><a xlink:href="classDisplaySplitWidget.html#a0a3afd6247d51bc2ca6fabfc30ff9548" target="_top" xlink:title="DisplaySplitWidget\l::mouseReleaseEvent">
<polygon fill="white" stroke="black" points="493,-82.5 493,-112.5 606,-112.5 606,-82.5 493,-82.5"/>
<text text-anchor="start" x="501" y="-100.5" font-family="Helvetica,sans-Serif" font-size="10.00">DisplaySplitWidget</text>
<text text-anchor="middle" x="549.5" y="-89.5" font-family="Helvetica,sans-Serif" font-size="10.00">::mouseReleaseEvent</text>
</a>
</g>
</g>
<!-- Node3&#45;&gt;Node10 -->
<g id="edge11" class="edge"><title>Node3&#45;&gt;Node10</title>
<path fill="none" stroke="midnightblue" d="M307.377,-105.524C361.255,-103.731 440.101,-101.107 492.802,-99.3535"/>
<polygon fill="midnightblue" stroke="midnightblue" points="307.163,-102.029 297.285,-105.86 307.396,-109.025 307.163,-102.029"/>
</g>
<!-- Node5 -->
<g id="node5" class="node"><title>Node5</title>
<g id="a_node5"><a xlink:href="classDisplaySplitWidget.html#a95fb887b76609440c606ddccadee2318" target="_top" xlink:title="DisplaySplitWidget\l::gestureEvent">
<polygon fill="white" stroke="black" points="499.5,-180.5 499.5,-210.5 599.5,-210.5 599.5,-180.5 499.5,-180.5"/>
<text text-anchor="start" x="507.5" y="-198.5" font-family="Helvetica,sans-Serif" font-size="10.00">DisplaySplitWidget</text>
<text text-anchor="middle" x="549.5" y="-187.5" font-family="Helvetica,sans-Serif" font-size="10.00">::gestureEvent</text>
</a>
</g>
</g>
<!-- Node4&#45;&gt;Node5 -->
<g id="edge4" class="edge"><title>Node4&#45;&gt;Node5</title>
<path fill="none" stroke="midnightblue" d="M454.709,-164.759C470.477,-169.927 487.456,-175.492 502.577,-180.448"/>
<polygon fill="midnightblue" stroke="midnightblue" points="455.668,-161.39 445.075,-161.601 453.487,-168.042 455.668,-161.39"/>
</g>
<!-- Node7 -->
<g id="node7" class="node"><title>Node7</title>
<g id="a_node7"><a xlink:href="classDisplaySplitWidget.html#a3560f335caf77049205e63785c8073ba" target="_top" xlink:title="DisplaySplitWidget\l::wheelEvent">
<polygon fill="white" stroke="black" points="499.5,-131.5 499.5,-161.5 599.5,-161.5 599.5,-131.5 499.5,-131.5"/>
<text text-anchor="start" x="507.5" y="-149.5" font-family="Helvetica,sans-Serif" font-size="10.00">DisplaySplitWidget</text>
<text text-anchor="middle" x="549.5" y="-138.5" font-family="Helvetica,sans-Serif" font-size="10.00">::wheelEvent</text>
</a>
</g>
</g>
<!-- Node4&#45;&gt;Node7 -->
<g id="edge6" class="edge"><title>Node4&#45;&gt;Node7</title>
<path fill="none" stroke="midnightblue" d="M458.567,-146.5C472.125,-146.5 486.379,-146.5 499.441,-146.5"/>
<polygon fill="midnightblue" stroke="midnightblue" points="458.366,-143 448.366,-146.5 458.366,-150 458.366,-143"/>
</g>
<!-- Node6 -->
<g id="node6" class="node"><title>Node6</title>
<g id="a_node6"><a xlink:href="classDisplaySplitWidget.html#a152c9ea9cbd3aa079800b6c1d0fbb284" target="_top" xlink:title="DisplaySplitWidget\l::event">
<polygon fill="white" stroke="black" points="651,-82.5 651,-112.5 751,-112.5 751,-82.5 651,-82.5"/>
<text text-anchor="start" x="659" y="-100.5" font-family="Helvetica,sans-Serif" font-size="10.00">DisplaySplitWidget</text>
<text text-anchor="middle" x="701" y="-89.5" font-family="Helvetica,sans-Serif" font-size="10.00">::event</text>
</a>
</g>
</g>
<!-- Node5&#45;&gt;Node6 -->
<g id="edge5" class="edge"><title>Node5&#45;&gt;Node6</title>
<path fill="none" stroke="midnightblue" d="M604.384,-176.244C608.046,-174.442 611.619,-172.525 615,-170.5 642.368,-154.107 669.554,-128.758 685.561,-112.656"/>
<polygon fill="midnightblue" stroke="midnightblue" points="602.783,-173.128 595.161,-180.488 605.708,-179.488 602.783,-173.128"/>
</g>
<!-- Node8&#45;&gt;Node5 -->
<g id="edge8" class="edge"><title>Node8&#45;&gt;Node5</title>
<path fill="none" stroke="midnightblue" d="M458.567,-195.5C472.125,-195.5 486.379,-195.5 499.441,-195.5"/>
<polygon fill="midnightblue" stroke="midnightblue" points="458.366,-192 448.366,-195.5 458.366,-199 458.366,-192"/>
</g>
<!-- Node8&#45;&gt;Node7 -->
<g id="edge9" class="edge"><title>Node8&#45;&gt;Node7</title>
<path fill="none" stroke="midnightblue" d="M454.709,-177.241C470.477,-172.073 487.456,-166.508 502.577,-161.552"/>
<polygon fill="midnightblue" stroke="midnightblue" points="453.487,-173.958 445.075,-180.399 455.668,-180.61 453.487,-173.958"/>
</g>
<!-- Node10&#45;&gt;Node6 -->
<g id="edge12" class="edge"><title>Node10&#45;&gt;Node6</title>
<path fill="none" stroke="midnightblue" d="M616.231,-97.5C627.8,-97.5 639.662,-97.5 650.686,-97.5"/>
<polygon fill="midnightblue" stroke="midnightblue" points="616.168,-94.0001 606.168,-97.5 616.168,-101 616.168,-94.0001"/>
</g>
<!-- Node11&#45;&gt;Node6 -->
<g id="edge17" class="edge"><title>Node11&#45;&gt;Node6</title>
<path fill="none" stroke="midnightblue" d="M307.65,-18.682C347.553,-21.3462 401.138,-25.9572 448,-33.5 523.251,-45.6122 541.298,-53.0723 615,-72.5 626.602,-75.5582 639.024,-79.0736 650.691,-82.4838"/>
<polygon fill="midnightblue" stroke="midnightblue" points="307.759,-15.1818 297.554,-18.0299 307.308,-22.1673 307.759,-15.1818"/>
</g>
<!-- Node13 -->
<g id="node13" class="node"><title>Node13</title>
<g id="a_node13"><a xlink:href="classDisplaySplitWidget.html#af09b165924f8be5a31873f3b11c8b3f9" target="_top" xlink:title="DisplaySplitWidget\l::resetViews">
<polygon fill="white" stroke="black" points="348,-229.5 348,-259.5 448,-259.5 448,-229.5 348,-229.5"/>
<text text-anchor="start" x="356" y="-247.5" font-family="Helvetica,sans-Serif" font-size="10.00">DisplaySplitWidget</text>
<text text-anchor="middle" x="398" y="-236.5" font-family="Helvetica,sans-Serif" font-size="10.00">::resetViews</text>
</a>
</g>
</g>
<!-- Node12&#45;&gt;Node13 -->
<g id="edge19" class="edge"><title>Node12&#45;&gt;Node13</title>
<path fill="none" stroke="midnightblue" d="M322.229,-240.485C330.922,-240.952 339.621,-241.419 347.851,-241.861"/>
<polygon fill="midnightblue" stroke="midnightblue" points="322.227,-236.98 312.054,-239.939 321.852,-243.97 322.227,-236.98"/>
</g>
<!-- Node13&#45;&gt;Node2 -->
<g id="edge20" class="edge"><title>Node13&#45;&gt;Node2</title>
<path fill="none" stroke="midnightblue" d="M454.709,-262.759C470.477,-267.927 487.456,-273.492 502.577,-278.448"/>
<polygon fill="midnightblue" stroke="midnightblue" points="455.668,-259.39 445.075,-259.601 453.487,-266.042 455.668,-259.39"/>
</g>
<!-- Node14 -->
<g id="node14" class="node"><title>Node14</title>
<g id="a_node14"><a xlink:href="classDisplaySplitWidget.html#a0c0ae7b4fb7ddc344fec1a59034b771b" target="_top" xlink:title="DisplaySplitWidget\l::zoomToStandard">
<polygon fill="white" stroke="black" points="499.5,-229.5 499.5,-259.5 599.5,-259.5 599.5,-229.5 499.5,-229.5"/>
<text text-anchor="start" x="507.5" y="-247.5" font-family="Helvetica,sans-Serif" font-size="10.00">DisplaySplitWidget</text>
<text text-anchor="middle" x="549.5" y="-236.5" font-family="Helvetica,sans-Serif" font-size="10.00">::zoomToStandard</text>
</a>
</g>
</g>
<!-- Node13&#45;&gt;Node14 -->
<g id="edge21" class="edge"><title>Node13&#45;&gt;Node14</title>
<path fill="none" stroke="midnightblue" d="M458.567,-244.5C472.125,-244.5 486.379,-244.5 499.441,-244.5"/>
<polygon fill="midnightblue" stroke="midnightblue" points="458.366,-241 448.366,-244.5 458.366,-248 458.366,-241"/>
</g>
</g>
</svg>
        <g id="navigator" transform="translate(0 0)" fill="#404254">
                <rect fill="#f2f5e9" fill-opacity="0.5" stroke="#606060" stroke-width=".5" x="0" y="0" width="60" height="60"/>
                <use id="zoomplus" xlink:href="#zoomPlus" x="17" y="9" onmousedown="handleZoom(evt,'in')"/>
                <use id="zoomminus" xlink:href="#zoomMin" x="42" y="9" onmousedown="handleZoom(evt,'out')"/>
                <use id="reset" xlink:href="#resetDef" x="30" y="36" onmousedown="handleReset()"/>
                <g id="arrowUp" xlink:href="#dirArrow" transform="translate(30 24)" onmousedown="handlePan(0,-1)">
                  <use xlink:href="#rim" fill="#404040">
                        <set attributeName="fill" to="#808080" begin="arrowUp.mouseover" end="arrowUp.mouseout"/>
                  </use>
                  <path fill="none" stroke="white" stroke-width="1.5" d="M0,-3.0v7 M-2.5,-0.5L0,-3.0L2.5,-0.5"/>
                </g>
                <g id="arrowRight" xlink:href="#dirArrow" transform="rotate(90) translate(36 -43)" onmousedown="handlePan(1,0)">
                  <use xlink:href="#rim" fill="#404040">
                        <set attributeName="fill" to="#808080" begin="arrowRight.mouseover" end="arrowRight.mouseout"/>
                  </use>
                  <path fill="none" stroke="white" stroke-width="1.5" d="M0,-3.0v7 M-2.5,-0.5L0,-3.0L2.5,-0.5"/>
                </g>
                <g id="arrowDown" xlink:href="#dirArrow" transform="rotate(180) translate(-30 -48)" onmousedown="handlePan(0,1)">
                  <use xlink:href="#rim" fill="#404040">
                        <set attributeName="fill" to="#808080" begin="arrowDown.mouseover" end="arrowDown.mouseout"/>
                  </use>
                  <path fill="none" stroke="white" stroke-width="1.5" d="M0,-3.0v7 M-2.5,-0.5L0,-3.0L2.5,-0.5"/>
                </g>
                <g id="arrowLeft" xlink:href="#dirArrow" transform="rotate(270) translate(-36 17)" onmousedown="handlePan(-1,0)">
                  <use xlink:href="#rim" fill="#404040">
                        <set attributeName="fill" to="#808080" begin="arrowLeft.mouseover" end="arrowLeft.mouseout"/>
                  </use>
                  <path fill="none" stroke="white" stroke-width="1.5" d="M0,-3.0v7 M-2.5,-0.5L0,-3.0L2.5,-0.5"/>
                </g>
        </g>
        <svg viewBox="0 0 15 15" width="100%" height="30px" preserveAspectRatio="xMaxYMin meet">
         <g id="arrow_out" transform="scale(0.3 0.3)">
          <a xlink:href="classDisplayWidget_a7c8417b26f905d8bda1601c879f7e600_icgraph_org.svg" target="_base">
           <rect id="button" ry="5" rx="5" y="6" x="6" height="38" width="38"
                fill="#f2f5e9" fill-opacity="0.5" stroke="#606060" stroke-width="1.0"/>
           <path id="arrow"
             d="M 11.500037,31.436501 C 11.940474,20.09759 22.043105,11.32322 32.158766,21.979434 L 37.068811,17.246167 C 37.068811,17.246167 37.088388,32 37.088388,32 L 22.160133,31.978069 C 22.160133,31.978069 26.997745,27.140456 26.997745,27.140456 C 18.528582,18.264221 13.291696,25.230495 11.500037,31.436501 z"
             style="fill:#404040;"/>
          </a>
         </g>
        </svg>
</svg>
