<?xml version="1.0" encoding="UTF-8" standalone="no"?>
<!DOCTYPE svg PUBLIC "-//W3C//DTD SVG 1.1//EN"
 "http://www.w3.org/Graphics/SVG/1.1/DTD/svg11.dtd">
<!-- Generated by graphviz version 2.38.0 (20140413.2041)
 -->
<!-- Title: TextObject::setText Pages: 1 -->
<svg width="679pt" height="78pt"
 viewBox="0.00 0.00 679.00 77.50" xmlns="http://www.w3.org/2000/svg" xmlns:xlink="http://www.w3.org/1999/xlink">
<g id="graph0" class="graph" transform="scale(1 1) rotate(0) translate(4 73.5)">
<title>TextObject::setText</title>
<polygon fill="white" stroke="none" points="-4,4 -4,-73.5 675,-73.5 675,4 -4,4"/>
<!-- Node1 -->
<g id="node1" class="node"><title>Node1</title>
<polygon fill="#bfbfbf" stroke="black" points="0,-28 0,-47 104,-47 104,-28 0,-28"/>
<text text-anchor="middle" x="52" y="-35" font-family="Helvetica,sans-Serif" font-size="10.00">TextObject::setText</text>
</g>
<!-- Node2 -->
<g id="node2" class="node"><title>Node2</title>
<g id="a_node2"><a xlink:href="classMainWindow.html#af5ecc7c65080215b49b9d931c56c65c9" target="_top" xlink:title="MainWindow::editTextFrame">
<polygon fill="white" stroke="black" points="140,-28 140,-47 282,-47 282,-28 140,-28"/>
<text text-anchor="middle" x="211" y="-35" font-family="Helvetica,sans-Serif" font-size="10.00">MainWindow::editTextFrame</text>
</a>
</g>
</g>
<!-- Node1&#45;&gt;Node2 -->
<g id="edge1" class="edge"><title>Node1&#45;&gt;Node2</title>
<path fill="none" stroke="midnightblue" d="M114.446,-37.5C122.808,-37.5 131.441,-37.5 139.941,-37.5"/>
<polygon fill="midnightblue" stroke="midnightblue" points="114.408,-34.0001 104.408,-37.5 114.408,-41.0001 114.408,-34.0001"/>
</g>
<!-- Node3 -->
<g id="node3" class="node"><title>Node3</title>
<g id="a_node3"><a xlink:href="classMainWindow.html#aaba5c236313378986c42c4a634c4cfb9" target="_top" xlink:title="MainWindow::onCustomContextMenu">
<polygon fill="white" stroke="black" points="318,-50 318,-69 500,-69 500,-50 318,-50"/>
<text text-anchor="middle" x="409" y="-57" font-family="Helvetica,sans-Serif" font-size="10.00">MainWindow::onCustomContextMenu</text>
</a>
</g>
</g>
<!-- Node2&#45;&gt;Node3 -->
<g id="edge2" class="edge"><title>Node2&#45;&gt;Node3</title>
<path fill="none" stroke="midnightblue" d="M292.298,-46.513C302.493,-47.6574 312.954,-48.8315 323.217,-49.9836"/>
<polygon fill="midnightblue" stroke="midnightblue" points="292.535,-43.0177 282.207,-45.3804 291.754,-49.9741 292.535,-43.0177"/>
</g>
<!-- Node5 -->
<g id="node5" class="node"><title>Node5</title>
<g id="a_node5"><a xlink:href="classMainWindow.html#ab18c663524e2c130759c0ca960129ea4" target="_top" xlink:title="MainWindow::onItemDouble\lClicked">
<polygon fill="white" stroke="black" points="339,-0.5 339,-30.5 479,-30.5 479,-0.5 339,-0.5"/>
<text text-anchor="start" x="347" y="-18.5" font-family="Helvetica,sans-Serif" font-size="10.00">MainWindow::onItemDouble</text>
<text text-anchor="middle" x="409" y="-7.5" font-family="Helvetica,sans-Serif" font-size="10.00">Clicked</text>
</a>
</g>
</g>
<!-- Node2&#45;&gt;Node5 -->
<g id="edge4" class="edge"><title>Node2&#45;&gt;Node5</title>
<path fill="none" stroke="midnightblue" d="M292.276,-28.4894C307.759,-26.7515 323.853,-24.9451 338.941,-23.2515"/>
<polygon fill="midnightblue" stroke="midnightblue" points="291.754,-25.0259 282.207,-29.6196 292.535,-31.9823 291.754,-25.0259"/>
</g>
<!-- Node4 -->
<g id="node4" class="node"><title>Node4</title>
<g id="a_node4"><a xlink:href="classMainWindow.html#a8b244be8b7b7db1b08de2a2acb9409db" target="_top" xlink:title="MainWindow::MainWindow">
<polygon fill="white" stroke="black" points="536,-28 536,-47 671,-47 671,-28 536,-28"/>
<text text-anchor="middle" x="603.5" y="-35" font-family="Helvetica,sans-Serif" font-size="10.00">MainWindow::MainWindow</text>
</a>
</g>
</g>
<!-- Node3&#45;&gt;Node4 -->
<g id="edge3" class="edge"><title>Node3&#45;&gt;Node4</title>
<path fill="none" stroke="midnightblue" d="M503.363,-48.8299C514.339,-47.5756 525.365,-46.3155 535.869,-45.115"/>
<polygon fill="midnightblue" stroke="midnightblue" points="502.852,-45.3655 493.314,-49.9784 503.646,-52.3202 502.852,-45.3655"/>
</g>
<!-- Node5&#45;&gt;Node4 -->
<g id="edge5" class="edge"><title>Node5&#45;&gt;Node4</title>
<path fill="none" stroke="midnightblue" d="M489.283,-24.5609C504.747,-26.3282 520.815,-28.1645 535.82,-29.8794"/>
<polygon fill="midnightblue" stroke="midnightblue" points="489.558,-21.0696 479.225,-23.4114 488.763,-28.0243 489.558,-21.0696"/>
</g>
</g>
</svg>
