<?xml version="1.0" encoding="UTF-8" standalone="no"?>
<!DOCTYPE svg PUBLIC "-//W3C//DTD SVG 1.1//EN"
 "http://www.w3.org/Graphics/SVG/1.1/DTD/svg11.dtd">
<!-- Generated by graphviz version 2.38.0 (20140413.2041)
 -->
<!-- Title: FrameObject::FrameObject Pages: 1 -->
<svg width="501pt" height="203pt"
 viewBox="0.00 0.00 501.00 202.50" xmlns="http://www.w3.org/2000/svg" xmlns:xlink="http://www.w3.org/1999/xlink">
<g id="graph0" class="graph" transform="scale(1 1) rotate(0) translate(4 198.5)">
<title>FrameObject::FrameObject</title>
<polygon fill="white" stroke="none" points="-4,4 -4,-198.5 497,-198.5 497,4 -4,4"/>
<!-- Node1 -->
<g id="node1" class="node"><title>Node1</title>
<polygon fill="#bfbfbf" stroke="black" points="0,-76.5 0,-95.5 135,-95.5 135,-76.5 0,-76.5"/>
<text text-anchor="middle" x="67.5" y="-83.5" font-family="Helvetica,sans-Serif" font-size="10.00">FrameObject::FrameObject</text>
</g>
<!-- Node2 -->
<g id="node2" class="node"><title>Node2</title>
<g id="a_node2"><a xlink:href="classFrameObject.html#a8c4852704943d229d95353c5471390cd" target="_top" xlink:title="FrameObject::slot_source\lStatusChanged">
<polygon fill="white" stroke="black" points="172,-164 172,-194 301,-194 301,-164 172,-164"/>
<text text-anchor="start" x="180" y="-182" font-family="Helvetica,sans-Serif" font-size="10.00">FrameObject::slot_source</text>
<text text-anchor="middle" x="236.5" y="-171" font-family="Helvetica,sans-Serif" font-size="10.00">StatusChanged</text>
</a>
</g>
</g>
<!-- Node1&#45;&gt;Node2 -->
<g id="edge1" class="edge"><title>Node1&#45;&gt;Node2</title>
<path fill="none" stroke="midnightblue" d="M80.8442,-95.7302C99.5225,-110.116 136.46,-137.265 171,-155 174.331,-156.711 177.814,-158.362 181.361,-159.943"/>
<polygon fill="midnightblue" stroke="midnightblue" points="180.266,-163.281 190.839,-163.957 182.996,-156.835 180.266,-163.281"/>
</g>
<!-- Node3 -->
<g id="node3" class="node"><title>Node3</title>
<g id="a_node3"><a xlink:href="classFrameObject.html#a09393acb6601f3ef81bd4978ed015b69" target="_top" xlink:title="FrameObject::slot_source\lNrFramesChanged">
<polygon fill="white" stroke="black" points="172,-115 172,-145 301,-145 301,-115 172,-115"/>
<text text-anchor="start" x="180" y="-133" font-family="Helvetica,sans-Serif" font-size="10.00">FrameObject::slot_source</text>
<text text-anchor="middle" x="236.5" y="-122" font-family="Helvetica,sans-Serif" font-size="10.00">NrFramesChanged</text>
</a>
</g>
</g>
<!-- Node1&#45;&gt;Node3 -->
<g id="edge2" class="edge"><title>Node1&#45;&gt;Node3</title>
<path fill="none" stroke="midnightblue" d="M104.737,-95.5473C123.371,-100.457 146.688,-106.6 168.452,-112.335"/>
<polygon fill="midnightblue" stroke="midnightblue" points="167.758,-115.771 178.32,-114.935 169.542,-109.002 167.758,-115.771"/>
</g>
<!-- Node4 -->
<g id="node4" class="node"><title>Node4</title>
<g id="a_node4"><a xlink:href="classFrameObject.html#a1069def130e7deac035f166084ae4ca8" target="_top" xlink:title="FrameObject::numFrames">
<polygon fill="white" stroke="black" points="171,-76.5 171,-95.5 302,-95.5 302,-76.5 171,-76.5"/>
<text text-anchor="middle" x="236.5" y="-83.5" font-family="Helvetica,sans-Serif" font-size="10.00">FrameObject::numFrames</text>
</a>
</g>
</g>
<!-- Node1&#45;&gt;Node4 -->
<g id="edge3" class="edge"><title>Node1&#45;&gt;Node4</title>
<path fill="none" stroke="midnightblue" d="M135.463,-86C143.785,-86 152.336,-86 160.766,-86"/>
<polygon fill="midnightblue" stroke="midnightblue" points="160.965,-89.5001 170.965,-86 160.965,-82.5001 160.965,-89.5001"/>
</g>
<!-- Node6 -->
<g id="node6" class="node"><title>Node6</title>
<g id="a_node6"><a xlink:href="classYUVSource.html#a905b30851f386ef8a18ec0da5f598374" target="_top" xlink:title="Get the format of the YUV if known. ">
<polygon fill="white" stroke="black" points="177,-38.5 177,-57.5 296,-57.5 296,-38.5 177,-38.5"/>
<text text-anchor="middle" x="236.5" y="-45.5" font-family="Helvetica,sans-Serif" font-size="10.00">YUVSource::getFormat</text>
</a>
</g>
</g>
<!-- Node1&#45;&gt;Node6 -->
<g id="edge5" class="edge"><title>Node1&#45;&gt;Node6</title>
<path fill="none" stroke="midnightblue" d="M110.641,-76.411C132.877,-71.3513 160.348,-65.1004 183.856,-59.7512"/>
<polygon fill="midnightblue" stroke="midnightblue" points="184.688,-63.1516 193.662,-57.5201 183.135,-56.3261 184.688,-63.1516"/>
</g>
<!-- Node7 -->
<g id="node7" class="node"><title>Node7</title>
<g id="a_node7"><a xlink:href="classYUVSource.html#a12174732ce70dfe8f1e5b842a532b8c9" target="_top" xlink:title="YUVSource::getName">
<polygon fill="white" stroke="black" points="179.5,-0.5 179.5,-19.5 293.5,-19.5 293.5,-0.5 179.5,-0.5"/>
<text text-anchor="middle" x="236.5" y="-7.5" font-family="Helvetica,sans-Serif" font-size="10.00">YUVSource::getName</text>
</a>
</g>
</g>
<!-- Node1&#45;&gt;Node7 -->
<g id="edge7" class="edge"><title>Node1&#45;&gt;Node7</title>
<path fill="none" stroke="midnightblue" d="M83.2554,-76.4183C102.716,-64.1082 138.326,-42.6985 171,-29 176.448,-26.7157 182.264,-24.592 188.087,-22.6547"/>
<polygon fill="midnightblue" stroke="midnightblue" points="189.353,-25.9255 197.833,-19.5749 187.243,-19.2509 189.353,-25.9255"/>
</g>
<!-- Node5 -->
<g id="node5" class="node"><title>Node5</title>
<g id="a_node5"><a xlink:href="classYUVSource.html#afaf713d38c871df33f6e28e9d589c86c" target="_top" xlink:title="YUVSource::getNumberFrames">
<polygon fill="white" stroke="black" points="338,-57.5 338,-76.5 493,-76.5 493,-57.5 338,-57.5"/>
<text text-anchor="middle" x="415.5" y="-64.5" font-family="Helvetica,sans-Serif" font-size="10.00">YUVSource::getNumberFrames</text>
</a>
</g>
</g>
<!-- Node4&#45;&gt;Node5 -->
<g id="edge4" class="edge"><title>Node4&#45;&gt;Node5</title>
<path fill="none" stroke="midnightblue" d="M302.152,-79.0599C310.457,-78.1685 319.064,-77.2445 327.651,-76.3228"/>
<polygon fill="midnightblue" stroke="midnightblue" points="328.133,-79.7912 337.702,-75.2438 327.386,-72.8312 328.133,-79.7912"/>
</g>
<!-- Node6&#45;&gt;Node5 -->
<g id="edge6" class="edge"><title>Node6&#45;&gt;Node5</title>
<path fill="none" stroke="midnightblue" d="M296.438,-54.3267C306.498,-55.4066 317.133,-56.5482 327.736,-57.6863"/>
<polygon fill="midnightblue" stroke="midnightblue" points="327.554,-61.1868 337.871,-58.7742 328.301,-54.2268 327.554,-61.1868"/>
</g>
</g>
</svg>
