<?xml version="1.0" encoding="UTF-8" standalone="no"?>
<!DOCTYPE svg PUBLIC "-//W3C//DTD SVG 1.1//EN"
 "http://www.w3.org/Graphics/SVG/1.1/DTD/svg11.dtd">
<!-- Generated by graphviz version 2.38.0 (20140413.2041)
 -->
<!-- Title: FrameObject::setLumaScale Pages: 1 -->
<!--zoomable 333 -->
<svg id="main" version="1.1" xmlns="http://www.w3.org/2000/svg" xmlns:xlink="http://www.w3.org/1999/xlink" xml:space="preserve" onload="init(evt)">
<style type="text/css"><![CDATA[
.edge:hover path { stroke: red; }
.edge:hover polygon { stroke: red; fill: red; }
]]></style>
<script type="text/javascript"><![CDATA[
var edges = document.getElementsByTagName('g');
if (edges && edges.length) {
  for (var i=0;i<edges.length;i++) {
    if (edges[i].id.substr(0,4)=='edge') {
      edges[i].setAttribute('class','edge');
    }
  }
}
]]></script>
        <defs>
                <circle id="rim" cx="0" cy="0" r="7"/>
                <circle id="rim2" cx="0" cy="0" r="3.5"/>
                <g id="zoomPlus">
                        <use xlink:href="#rim" fill="#404040">
                                <set attributeName="fill" to="#808080" begin="zoomplus.mouseover" end="zoomplus.mouseout"/>
                        </use>
                        <path d="M-4,0h8M0,-4v8" fill="none" stroke="white" stroke-width="1.5" pointer-events="none"/>
                </g>
                <g id="zoomMin">
                        <use xlink:href="#rim" fill="#404040">
                                <set attributeName="fill" to="#808080" begin="zoomminus.mouseover" end="zoomminus.mouseout"/>
                        </use>
                        <path d="M-4,0h8" fill="none" stroke="white" stroke-width="1.5" pointer-events="none"/>
                </g>
                <g id="dirArrow">
                        <path fill="none" stroke="white" stroke-width="1.5" d="M0,-3.0v7 M-2.5,-0.5L0,-3.0L2.5,-0.5"/>
                </g>
               <g id="resetDef">
                       <use xlink:href="#rim2" fill="#404040">
                               <set attributeName="fill" to="#808080" begin="reset.mouseover" end="reset.mouseout"/>
                       </use>
               </g>
        </defs>

<script type="text/javascript">
var viewWidth = 1058;
var viewHeight = 333;
var sectionId = 'dynsection-43';
</script>
<script xlink:href="svgpan.js"/>
<svg id="graph" class="graph">
<g id="viewport">
<title>FrameObject::setLumaScale</title>
<polygon fill="white" stroke="none" points="-4,4 -4,-328.934 1054,-328.934 1054,4 -4,4"/>
<!-- Node1 -->
<g id="node1" class="node"><title>Node1</title>
<polygon fill="#bfbfbf" stroke="black" points="0,-229.434 0,-248.434 141,-248.434 141,-229.434 0,-229.434"/>
<text text-anchor="middle" x="70.5" y="-236.434" font-family="Helvetica,sans-Serif" font-size="10.00">FrameObject::setLumaScale</text>
</g>
<!-- Node2 -->
<g id="node2" class="node"><title>Node2</title>
<g id="a_node2"><a xlink:href="classFrameObject.html#ac42be5ded1448dde312e661e66c8730e" target="_top" xlink:title="FrameObject::refreshDisplay\lImage">
<polygon fill="white" stroke="black" points="177,-223.934 177,-253.934 319,-253.934 319,-223.934 177,-223.934"/>
<text text-anchor="start" x="185" y="-241.934" font-family="Helvetica,sans-Serif" font-size="10.00">FrameObject::refreshDisplay</text>
<text text-anchor="middle" x="248" y="-230.934" font-family="Helvetica,sans-Serif" font-size="10.00">Image</text>
</a>
</g>
</g>
<!-- Node1&#45;&gt;Node2 -->
<g id="edge1" class="edge"><title>Node1&#45;&gt;Node2</title>
<path fill="none" stroke="midnightblue" d="M141.114,-238.934C149.575,-238.934 158.271,-238.934 166.868,-238.934"/>
<polygon fill="midnightblue" stroke="midnightblue" points="166.895,-242.434 176.895,-238.934 166.895,-235.434 166.895,-242.434"/>
</g>
<!-- Node3 -->
<g id="node3" class="node"><title>Node3</title>
<g id="a_node3"><a xlink:href="classFrameObject.html#adfa8fc2528a422aba57c301f3c2a311c" target="_top" xlink:title="FrameObject::clearCurrent\lCache">
<polygon fill="white" stroke="black" points="355,-261.934 355,-291.934 487,-291.934 487,-261.934 355,-261.934"/>
<text text-anchor="start" x="363" y="-279.934" font-family="Helvetica,sans-Serif" font-size="10.00">FrameObject::clearCurrent</text>
<text text-anchor="middle" x="421" y="-268.934" font-family="Helvetica,sans-Serif" font-size="10.00">Cache</text>
</a>
</g>
</g>
<!-- Node2&#45;&gt;Node3 -->
<g id="edge2" class="edge"><title>Node2&#45;&gt;Node3</title>
<path fill="none" stroke="midnightblue" d="M316.584,-253.953C325.937,-256.032 335.591,-258.177 345.068,-260.283"/>
<polygon fill="midnightblue" stroke="midnightblue" points="344.339,-263.706 354.861,-262.459 345.858,-256.873 344.339,-263.706"/>
</g>
<!-- Node7 -->
<g id="node7" class="node"><title>Node7</title>
<g id="a_node7"><a xlink:href="classFrameObject.html#ad33aa12aedba2856ec54989d6eda2d49" target="_top" xlink:title="FrameObject::loadImage">
<polygon fill="white" stroke="black" points="359,-172.434 359,-191.434 483,-191.434 483,-172.434 359,-172.434"/>
<text text-anchor="middle" x="421" y="-179.434" font-family="Helvetica,sans-Serif" font-size="10.00">FrameObject::loadImage</text>
</a>
</g>
</g>
<!-- Node2&#45;&gt;Node7 -->
<g id="edge6" class="edge"><title>Node2&#45;&gt;Node7</title>
<path fill="none" stroke="midnightblue" d="M294.376,-223.809C321.542,-214.754 355.696,-203.369 381.533,-194.757"/>
<polygon fill="midnightblue" stroke="midnightblue" points="382.966,-197.968 391.346,-191.486 380.752,-191.328 382.966,-197.968"/>
</g>
<!-- Node4 -->
<g id="node4" class="node"><title>Node4</title>
<g id="a_node4"><a xlink:href="classYUVSource.html#a12174732ce70dfe8f1e5b842a532b8c9" target="_top" xlink:title="YUVSource::getName">
<polygon fill="white" stroke="black" points="545.5,-267.434 545.5,-286.434 659.5,-286.434 659.5,-267.434 545.5,-267.434"/>
<text text-anchor="middle" x="602.5" y="-274.434" font-family="Helvetica,sans-Serif" font-size="10.00">YUVSource::getName</text>
</a>
</g>
</g>
<!-- Node3&#45;&gt;Node4 -->
<g id="edge3" class="edge"><title>Node3&#45;&gt;Node4</title>
<path fill="none" stroke="midnightblue" d="M487.057,-276.934C502.695,-276.934 519.417,-276.934 535.114,-276.934"/>
<polygon fill="midnightblue" stroke="midnightblue" points="535.26,-280.434 545.26,-276.934 535.26,-273.434 535.26,-280.434"/>
</g>
<!-- Node5 -->
<g id="node5" class="node"><title>Node5</title>
<g id="a_node5"><a xlink:href="classFrameObject.html#a1069def130e7deac035f166084ae4ca8" target="_top" xlink:title="FrameObject::numFrames">
<polygon fill="white" stroke="black" points="537,-305.434 537,-324.434 668,-324.434 668,-305.434 537,-305.434"/>
<text text-anchor="middle" x="602.5" y="-312.434" font-family="Helvetica,sans-Serif" font-size="10.00">FrameObject::numFrames</text>
</a>
</g>
</g>
<!-- Node3&#45;&gt;Node5 -->
<g id="edge4" class="edge"><title>Node3&#45;&gt;Node5</title>
<path fill="none" stroke="midnightblue" d="M487.057,-290.707C506.618,-294.848 527.876,-299.348 546.702,-303.334"/>
<polygon fill="midnightblue" stroke="midnightblue" points="546.085,-306.78 556.593,-305.427 547.534,-299.932 546.085,-306.78"/>
</g>
<!-- Node6 -->
<g id="node6" class="node"><title>Node6</title>
<g id="a_node6"><a xlink:href="classYUVSource.html#afaf713d38c871df33f6e28e9d589c86c" target="_top" xlink:title="YUVSource::getNumberFrames">
<polygon fill="white" stroke="black" points="718,-305.434 718,-324.434 873,-324.434 873,-305.434 718,-305.434"/>
<text text-anchor="middle" x="795.5" y="-312.434" font-family="Helvetica,sans-Serif" font-size="10.00">YUVSource::getNumberFrames</text>
</a>
</g>
</g>
<!-- Node5&#45;&gt;Node6 -->
<g id="edge5" class="edge"><title>Node5&#45;&gt;Node6</title>
<path fill="none" stroke="midnightblue" d="M668.164,-314.934C680.841,-314.934 694.331,-314.934 707.597,-314.934"/>
<polygon fill="midnightblue" stroke="midnightblue" points="707.682,-318.434 717.682,-314.934 707.682,-311.434 707.682,-318.434"/>
</g>
<!-- Node7&#45;&gt;Node4 -->
<g id="edge8" class="edge"><title>Node7&#45;&gt;Node4</title>
<path fill="none" stroke="midnightblue" d="M433.066,-191.513C450.893,-206.512 487.569,-235.613 523,-252.934 532.026,-257.347 542.034,-261.149 551.799,-264.343"/>
<polygon fill="midnightblue" stroke="midnightblue" points="550.849,-267.713 561.437,-267.334 552.924,-261.027 550.849,-267.713"/>
</g>
<!-- Node7&#45;&gt;Node5 -->
<g id="edge7" class="edge"><title>Node7&#45;&gt;Node5</title>
<path fill="none" stroke="midnightblue" d="M430.968,-191.459C443.634,-204.971 467.404,-230.554 487,-252.934 503.419,-271.686 501.825,-282.787 523,-295.934 526.388,-298.038 529.991,-299.908 533.721,-301.572"/>
<polygon fill="midnightblue" stroke="midnightblue" points="532.614,-304.897 543.202,-305.294 535.173,-298.381 532.614,-304.897"/>
</g>
<!-- Node8 -->
<g id="node8" class="node"><title>Node8</title>
<g id="a_node8"><a xlink:href="classYUVSource.html#a592ce352c789f4f5789b11e052b58a33" target="_top" xlink:title="YUVSource::pixelFormat">
<polygon fill="white" stroke="black" points="917,-200.434 917,-219.434 1042,-219.434 1042,-200.434 917,-200.434"/>
<text text-anchor="middle" x="979.5" y="-207.434" font-family="Helvetica,sans-Serif" font-size="10.00">YUVSource::pixelFormat</text>
</a>
</g>
</g>
<!-- Node7&#45;&gt;Node8 -->
<g id="edge9" class="edge"><title>Node7&#45;&gt;Node8</title>
<path fill="none" stroke="midnightblue" d="M441.143,-191.519C461.027,-200.898 493.324,-214.536 523,-219.934 656.757,-244.264 816.231,-231.417 906.597,-220.346"/>
<polygon fill="midnightblue" stroke="midnightblue" points="907.244,-223.792 916.732,-219.076 906.374,-216.847 907.244,-223.792"/>
</g>
<!-- Node9 -->
<g id="node9" class="node"><title>Node9</title>
<g id="a_node9"><a xlink:href="classYUVSource.html#aff9d7390aa2cdb93376c69ede52b1e30" target="_top" xlink:title="YUVSource::getOneFrame">
<polygon fill="white" stroke="black" points="535.5,-115.434 535.5,-134.434 669.5,-134.434 669.5,-115.434 535.5,-115.434"/>
<text text-anchor="middle" x="602.5" y="-122.434" font-family="Helvetica,sans-Serif" font-size="10.00">YUVSource::getOneFrame</text>
</a>
</g>
</g>
<!-- Node7&#45;&gt;Node9 -->
<g id="edge10" class="edge"><title>Node7&#45;&gt;Node9</title>
<path fill="none" stroke="midnightblue" d="M444.988,-172.364C465.28,-164.139 495.784,-152.313 523,-143.934 531.091,-141.443 539.732,-139.071 548.213,-136.899"/>
<polygon fill="midnightblue" stroke="midnightblue" points="549.197,-140.261 558.054,-134.446 547.504,-133.468 549.197,-140.261"/>
</g>
<!-- Node10 -->
<g id="node10" class="node"><title>Node10</title>
<g id="a_node10"><a xlink:href="classFrameObject.html#a3157b2afa82e71a5ebd93ac6dd25de6b" target="_top" xlink:title="FrameObject::doApplyYUVMath">
<polygon fill="white" stroke="black" points="524,-77.4343 524,-96.4343 681,-96.4343 681,-77.4343 524,-77.4343"/>
<text text-anchor="middle" x="602.5" y="-84.4343" font-family="Helvetica,sans-Serif" font-size="10.00">FrameObject::doApplyYUVMath</text>
</a>
</g>
</g>
<!-- Node7&#45;&gt;Node10 -->
<g id="edge11" class="edge"><title>Node7&#45;&gt;Node10</title>
<path fill="none" stroke="midnightblue" d="M431.697,-172.426C448.712,-156.282 485.696,-123.554 523,-105.934 528.198,-103.479 533.745,-101.323 539.395,-99.4328"/>
<polygon fill="midnightblue" stroke="midnightblue" points="540.426,-102.778 548.959,-96.4978 538.372,-96.0858 540.426,-102.778"/>
</g>
<!-- Node11 -->
<g id="node11" class="node"><title>Node11</title>
<g id="a_node11"><a xlink:href="classFrameObject.html#a38084be9c862db6fea97d202231144ec" target="_top" xlink:title="FrameObject::applyYUVMath">
<polygon fill="white" stroke="black" points="530,-191.434 530,-210.434 675,-210.434 675,-191.434 530,-191.434"/>
<text text-anchor="middle" x="602.5" y="-198.434" font-family="Helvetica,sans-Serif" font-size="10.00">FrameObject::applyYUVMath</text>
</a>
</g>
</g>
<!-- Node7&#45;&gt;Node11 -->
<g id="edge12" class="edge"><title>Node7&#45;&gt;Node11</title>
<path fill="none" stroke="midnightblue" d="M483.021,-188.393C494.773,-189.637 507.259,-190.959 519.548,-192.26"/>
<polygon fill="midnightblue" stroke="midnightblue" points="519.492,-195.773 529.805,-193.345 520.229,-188.812 519.492,-195.773"/>
</g>
<!-- Node13 -->
<g id="node13" class="node"><title>Node13</title>
<g id="a_node13"><a xlink:href="classYUVSource.html#a7e554f2c626688704099e00cc4ece029" target="_top" xlink:title="YUVSource::pixelFormatList">
<polygon fill="white" stroke="black" points="909,-96.4343 909,-115.434 1050,-115.434 1050,-96.4343 909,-96.4343"/>
<text text-anchor="middle" x="979.5" y="-103.434" font-family="Helvetica,sans-Serif" font-size="10.00">YUVSource::pixelFormatList</text>
</a>
</g>
</g>
<!-- Node7&#45;&gt;Node13 -->
<g id="edge18" class="edge"><title>Node7&#45;&gt;Node13</title>
<path fill="none" stroke="midnightblue" d="M424.804,-172.424C433.674,-144.299 464.082,-61.5238 523,-29.9343 671.092,49.4667 882.01,-52.087 953.618,-91.5178"/>
<polygon fill="midnightblue" stroke="midnightblue" points="951.966,-94.6042 962.403,-96.4312 955.384,-88.4949 951.966,-94.6042"/>
</g>
<!-- Node14 -->
<g id="node14" class="node"><title>Node14</title>
<g id="a_node14"><a xlink:href="classFrameObject.html#acd2367ffa54180853cd3ee901aa85304" target="_top" xlink:title="FrameObject::convertYUV2RGB">
<polygon fill="white" stroke="black" points="523,-153.434 523,-172.434 682,-172.434 682,-153.434 523,-153.434"/>
<text text-anchor="middle" x="602.5" y="-160.434" font-family="Helvetica,sans-Serif" font-size="10.00">FrameObject::convertYUV2RGB</text>
</a>
</g>
</g>
<!-- Node7&#45;&gt;Node14 -->
<g id="edge16" class="edge"><title>Node7&#45;&gt;Node14</title>
<path fill="none" stroke="midnightblue" d="M483.021,-175.475C492.626,-174.459 502.721,-173.39 512.798,-172.323"/>
<polygon fill="midnightblue" stroke="midnightblue" points="513.275,-175.793 522.851,-171.259 512.538,-168.831 513.275,-175.793"/>
</g>
<!-- Node15 -->
<g id="node15" class="node"><title>Node15</title>
<g id="a_node15"><a xlink:href="classDisplayObject.html#a790f4bdf4ecb24617ea7db5837c3048c" target="_top" xlink:title="DisplayObject::setInfo">
<polygon fill="white" stroke="black" points="545.5,-39.4343 545.5,-58.4343 659.5,-58.4343 659.5,-39.4343 545.5,-39.4343"/>
<text text-anchor="middle" x="602.5" y="-46.4343" font-family="Helvetica,sans-Serif" font-size="10.00">DisplayObject::setInfo</text>
</a>
</g>
</g>
<!-- Node7&#45;&gt;Node15 -->
<g id="edge19" class="edge"><title>Node7&#45;&gt;Node15</title>
<path fill="none" stroke="midnightblue" d="M427.676,-172.204C441.168,-149.985 477.459,-95.3341 523,-67.9343 527.066,-65.4878 531.429,-63.3561 535.94,-61.4988"/>
<polygon fill="midnightblue" stroke="midnightblue" points="537.165,-64.7774 545.357,-58.0585 534.763,-58.2024 537.165,-64.7774"/>
</g>
<!-- Node12 -->
<g id="node12" class="node"><title>Node12</title>
<g id="a_node12"><a xlink:href="classYUVSource.html#a11ea64b650d6086177fa0f7a1f3f323d" target="_top" xlink:title="YUVSource::bitsPerSample">
<polygon fill="white" stroke="black" points="726.5,-172.434 726.5,-191.434 864.5,-191.434 864.5,-172.434 726.5,-172.434"/>
<text text-anchor="middle" x="795.5" y="-179.434" font-family="Helvetica,sans-Serif" font-size="10.00">YUVSource::bitsPerSample</text>
</a>
</g>
</g>
<!-- Node11&#45;&gt;Node12 -->
<g id="edge13" class="edge"><title>Node11&#45;&gt;Node12</title>
<path fill="none" stroke="midnightblue" d="M675.165,-193.805C688.492,-192.48 702.482,-191.088 716.001,-189.743"/>
<polygon fill="midnightblue" stroke="midnightblue" points="716.625,-193.198 726.229,-188.726 715.932,-186.233 716.625,-193.198"/>
</g>
<!-- Node12&#45;&gt;Node8 -->
<g id="edge15" class="edge"><title>Node12&#45;&gt;Node8</title>
<path fill="none" stroke="midnightblue" d="M858.371,-191.453C873.841,-193.833 890.566,-196.406 906.48,-198.854"/>
<polygon fill="midnightblue" stroke="midnightblue" points="906.384,-202.381 916.8,-200.442 907.449,-195.462 906.384,-202.381"/>
</g>
<!-- Node12&#45;&gt;Node13 -->
<g id="edge14" class="edge"><title>Node12&#45;&gt;Node13</title>
<path fill="none" stroke="midnightblue" d="M819.55,-172.309C851.55,-158.946 909.595,-134.708 945.986,-119.511"/>
<polygon fill="midnightblue" stroke="midnightblue" points="947.758,-122.565 955.637,-115.482 945.06,-116.105 947.758,-122.565"/>
</g>
<!-- Node14&#45;&gt;Node12 -->
<g id="edge17" class="edge"><title>Node14&#45;&gt;Node12</title>
<path fill="none" stroke="midnightblue" d="M682.014,-170.745C693.279,-171.865 704.87,-173.018 716.132,-174.139"/>
<polygon fill="midnightblue" stroke="midnightblue" points="716.066,-177.649 726.364,-175.156 716.759,-170.684 716.066,-177.649"/>
</g>
</g>
</svg>
        <g id="navigator" transform="translate(0 0)" fill="#404254">
                <rect fill="#f2f5e9" fill-opacity="0.5" stroke="#606060" stroke-width=".5" x="0" y="0" width="60" height="60"/>
                <use id="zoomplus" xlink:href="#zoomPlus" x="17" y="9" onmousedown="handleZoom(evt,'in')"/>
                <use id="zoomminus" xlink:href="#zoomMin" x="42" y="9" onmousedown="handleZoom(evt,'out')"/>
                <use id="reset" xlink:href="#resetDef" x="30" y="36" onmousedown="handleReset()"/>
                <g id="arrowUp" xlink:href="#dirArrow" transform="translate(30 24)" onmousedown="handlePan(0,-1)">
                  <use xlink:href="#rim" fill="#404040">
                        <set attributeName="fill" to="#808080" begin="arrowUp.mouseover" end="arrowUp.mouseout"/>
                  </use>
                  <path fill="none" stroke="white" stroke-width="1.5" d="M0,-3.0v7 M-2.5,-0.5L0,-3.0L2.5,-0.5"/>
                </g>
                <g id="arrowRight" xlink:href="#dirArrow" transform="rotate(90) translate(36 -43)" onmousedown="handlePan(1,0)">
                  <use xlink:href="#rim" fill="#404040">
                        <set attributeName="fill" to="#808080" begin="arrowRight.mouseover" end="arrowRight.mouseout"/>
                  </use>
                  <path fill="none" stroke="white" stroke-width="1.5" d="M0,-3.0v7 M-2.5,-0.5L0,-3.0L2.5,-0.5"/>
                </g>
                <g id="arrowDown" xlink:href="#dirArrow" transform="rotate(180) translate(-30 -48)" onmousedown="handlePan(0,1)">
                  <use xlink:href="#rim" fill="#404040">
                        <set attributeName="fill" to="#808080" begin="arrowDown.mouseover" end="arrowDown.mouseout"/>
                  </use>
                  <path fill="none" stroke="white" stroke-width="1.5" d="M0,-3.0v7 M-2.5,-0.5L0,-3.0L2.5,-0.5"/>
                </g>
                <g id="arrowLeft" xlink:href="#dirArrow" transform="rotate(270) translate(-36 17)" onmousedown="handlePan(-1,0)">
                  <use xlink:href="#rim" fill="#404040">
                        <set attributeName="fill" to="#808080" begin="arrowLeft.mouseover" end="arrowLeft.mouseout"/>
                  </use>
                  <path fill="none" stroke="white" stroke-width="1.5" d="M0,-3.0v7 M-2.5,-0.5L0,-3.0L2.5,-0.5"/>
                </g>
        </g>
        <svg viewBox="0 0 15 15" width="100%" height="30px" preserveAspectRatio="xMaxYMin meet">
         <g id="arrow_out" transform="scale(0.3 0.3)">
          <a xlink:href="classFrameObject_a6120f59ed0a642cb9c5d01dc283c19cd_cgraph_org.svg" target="_base">
           <rect id="button" ry="5" rx="5" y="6" x="6" height="38" width="38"
                fill="#f2f5e9" fill-opacity="0.5" stroke="#606060" stroke-width="1.0"/>
           <path id="arrow"
             d="M 11.500037,31.436501 C 11.940474,20.09759 22.043105,11.32322 32.158766,21.979434 L 37.068811,17.246167 C 37.068811,17.246167 37.088388,32 37.088388,32 L 22.160133,31.978069 C 22.160133,31.978069 26.997745,27.140456 26.997745,27.140456 C 18.528582,18.264221 13.291696,25.230495 11.500037,31.436501 z"
             style="fill:#404040;"/>
          </a>
         </g>
        </svg>
</svg>
