<?xml version="1.0" encoding="UTF-8" standalone="no"?>
<!DOCTYPE svg PUBLIC "-//W3C//DTD SVG 1.1//EN"
 "http://www.w3.org/Graphics/SVG/1.1/DTD/svg11.dtd">
<!-- Generated by graphviz version 2.38.0 (20140413.2041)
 -->
<!-- Title: YUVSource::bytePerComponent Pages: 1 -->
<svg width="1226pt" height="85pt"
 viewBox="0.00 0.00 1226.00 85.00" xmlns="http://www.w3.org/2000/svg" xmlns:xlink="http://www.w3.org/1999/xlink">
<g id="graph0" class="graph" transform="scale(1 1) rotate(0) translate(4 81)">
<title>YUVSource::bytePerComponent</title>
<polygon fill="white" stroke="none" points="-4,4 -4,-81 1222,-81 1222,4 -4,4"/>
<!-- Node1 -->
<g id="node1" class="node"><title>Node1</title>
<polygon fill="#bfbfbf" stroke="black" points="0,-19.5 0,-38.5 158,-38.5 158,-19.5 0,-19.5"/>
<text text-anchor="middle" x="79" y="-26.5" font-family="Helvetica,sans-Serif" font-size="10.00">YUVSource::bytePerComponent</text>
</g>
<!-- Node2 -->
<g id="node2" class="node"><title>Node2</title>
<g id="a_node2"><a xlink:href="classYUVSource.html#aaec9232f1fe9e0b8beaad1cd4cb5279c" target="_top" xlink:title="YUVSource::convert2YUV444">
<polygon fill="white" stroke="black" points="194,-19.5 194,-38.5 343,-38.5 343,-19.5 194,-19.5"/>
<text text-anchor="middle" x="268.5" y="-26.5" font-family="Helvetica,sans-Serif" font-size="10.00">YUVSource::convert2YUV444</text>
</a>
</g>
</g>
<!-- Node1&#45;&gt;Node2 -->
<g id="edge1" class="edge"><title>Node1&#45;&gt;Node2</title>
<path fill="none" stroke="midnightblue" d="M168.227,-29C176.843,-29 185.522,-29 193.97,-29"/>
<polygon fill="midnightblue" stroke="midnightblue" points="168.159,-25.5001 158.159,-29 168.159,-32.5001 168.159,-25.5001"/>
</g>
<!-- Node3 -->
<g id="node3" class="node"><title>Node3</title>
<g id="a_node3"><a xlink:href="classde265File.html#a3c517644cd5710d54289b2cdba99babc" target="_top" xlink:title="de265File::copyImgTo444Buffer">
<polygon fill="white" stroke="black" points="379,-38.5 379,-57.5 534,-57.5 534,-38.5 379,-38.5"/>
<text text-anchor="middle" x="456.5" y="-45.5" font-family="Helvetica,sans-Serif" font-size="10.00">de265File::copyImgTo444Buffer</text>
</a>
</g>
</g>
<!-- Node2&#45;&gt;Node3 -->
<g id="edge2" class="edge"><title>Node2&#45;&gt;Node3</title>
<path fill="none" stroke="midnightblue" d="M353.036,-37.5333C361.634,-38.4115 370.34,-39.3008 378.857,-40.1709"/>
<polygon fill="midnightblue" stroke="midnightblue" points="353.316,-34.0437 343.012,-36.5093 352.605,-41.0075 353.316,-34.0437"/>
</g>
<!-- Node9 -->
<g id="node9" class="node"><title>Node9</title>
<g id="a_node9"><a xlink:href="classYUVFile.html#abf82a0b4c126ed5d1d9eaa7ff096e7b0" target="_top" xlink:title="YUVFile::getOneFrame">
<polygon fill="white" stroke="black" points="397,-0.5 397,-19.5 516,-19.5 516,-0.5 397,-0.5"/>
<text text-anchor="middle" x="456.5" y="-7.5" font-family="Helvetica,sans-Serif" font-size="10.00">YUVFile::getOneFrame</text>
</a>
</g>
</g>
<!-- Node2&#45;&gt;Node9 -->
<g id="edge9" class="edge"><title>Node2&#45;&gt;Node9</title>
<path fill="none" stroke="midnightblue" d="M353.152,-20.4549C367.899,-18.9484 382.963,-17.4097 396.84,-15.9922"/>
<polygon fill="midnightblue" stroke="midnightblue" points="352.605,-16.9925 343.012,-21.4907 353.316,-23.9563 352.605,-16.9925"/>
</g>
<!-- Node4 -->
<g id="node4" class="node"><title>Node4</title>
<g id="a_node4"><a xlink:href="classde265File.html#af2a66d6d47d74d992f61da5048d90538" target="_top" xlink:title="de265File::decodeOnePicture">
<polygon fill="white" stroke="black" points="570,-38.5 570,-57.5 715,-57.5 715,-38.5 570,-38.5"/>
<text text-anchor="middle" x="642.5" y="-45.5" font-family="Helvetica,sans-Serif" font-size="10.00">de265File::decodeOnePicture</text>
</a>
</g>
</g>
<!-- Node3&#45;&gt;Node4 -->
<g id="edge3" class="edge"><title>Node3&#45;&gt;Node4</title>
<path fill="none" stroke="midnightblue" d="M544.249,-48C552.848,-48 561.508,-48 569.929,-48"/>
<polygon fill="midnightblue" stroke="midnightblue" points="544.2,-44.5001 534.2,-48 544.2,-51.5001 544.2,-44.5001"/>
</g>
<!-- Node5 -->
<g id="node5" class="node"><title>Node5</title>
<g id="a_node5"><a xlink:href="classde265File.html#afc2f00a9676e0b5c3fdd821619bda482" target="_top" xlink:title="de265File::de265File">
<polygon fill="white" stroke="black" points="947.5,-57.5 947.5,-76.5 1054.5,-76.5 1054.5,-57.5 947.5,-57.5"/>
<text text-anchor="middle" x="1001" y="-64.5" font-family="Helvetica,sans-Serif" font-size="10.00">de265File::de265File</text>
</a>
</g>
</g>
<!-- Node4&#45;&gt;Node5 -->
<g id="edge4" class="edge"><title>Node4&#45;&gt;Node5</title>
<path fill="none" stroke="midnightblue" d="M725.511,-52.3709C793.813,-56.0111 889.038,-61.0862 947.495,-64.2017"/>
<polygon fill="midnightblue" stroke="midnightblue" points="725.386,-48.8593 715.214,-51.8221 725.014,-55.8494 725.386,-48.8593"/>
</g>
<!-- Node6 -->
<g id="node6" class="node"><title>Node6</title>
<g id="a_node6"><a xlink:href="classde265File.html#a948bfcc1b2c4ad6f0a3aa54b99f9553f" target="_top" xlink:title="de265File::backgroundDecoder">
<polygon fill="white" stroke="black" points="751,-19.5 751,-38.5 903,-38.5 903,-19.5 751,-19.5"/>
<text text-anchor="middle" x="827" y="-26.5" font-family="Helvetica,sans-Serif" font-size="10.00">de265File::backgroundDecoder</text>
</a>
</g>
</g>
<!-- Node4&#45;&gt;Node6 -->
<g id="edge5" class="edge"><title>Node4&#45;&gt;Node6</title>
<path fill="none" stroke="midnightblue" d="M725.138,-39.5007C733.745,-38.6046 742.468,-37.6965 750.995,-36.8088"/>
<polygon fill="midnightblue" stroke="midnightblue" points="724.689,-36.0285 715.105,-40.5452 725.414,-42.9908 724.689,-36.0285"/>
</g>
<!-- Node6&#45;&gt;Node5 -->
<g id="edge6" class="edge"><title>Node6&#45;&gt;Node5</title>
<path fill="none" stroke="midnightblue" d="M881.196,-40.7526C905.517,-46.1258 933.955,-52.4086 956.909,-57.4799"/>
<polygon fill="midnightblue" stroke="midnightblue" points="881.922,-37.3288 871.403,-38.589 880.412,-44.164 881.922,-37.3288"/>
</g>
<!-- Node7 -->
<g id="node7" class="node"><title>Node7</title>
<g id="a_node7"><a xlink:href="classde265File.html#a4778a7853c318063a9efd5f0990e79bf" target="_top" xlink:title="de265File::getOneFrame">
<polygon fill="white" stroke="black" points="939,-19.5 939,-38.5 1063,-38.5 1063,-19.5 939,-19.5"/>
<text text-anchor="middle" x="1001" y="-26.5" font-family="Helvetica,sans-Serif" font-size="10.00">de265File::getOneFrame</text>
</a>
</g>
</g>
<!-- Node6&#45;&gt;Node7 -->
<g id="edge7" class="edge"><title>Node6&#45;&gt;Node7</title>
<path fill="none" stroke="midnightblue" d="M913.305,-29C921.942,-29 930.589,-29 938.896,-29"/>
<polygon fill="midnightblue" stroke="midnightblue" points="913.192,-25.5001 903.191,-29 913.191,-32.5001 913.192,-25.5001"/>
</g>
<!-- Node8 -->
<g id="node8" class="node"><title>Node8</title>
<g id="a_node8"><a xlink:href="classde265File.html#af878636f68cd2ee3a4dfc6b3b0169676" target="_top" xlink:title="de265File::loadStatistic\lToCache">
<polygon fill="white" stroke="black" points="1099,-14 1099,-44 1218,-44 1218,-14 1099,-14"/>
<text text-anchor="start" x="1107" y="-32" font-family="Helvetica,sans-Serif" font-size="10.00">de265File::loadStatistic</text>
<text text-anchor="middle" x="1158.5" y="-21" font-family="Helvetica,sans-Serif" font-size="10.00">ToCache</text>
</a>
</g>
</g>
<!-- Node7&#45;&gt;Node8 -->
<g id="edge8" class="edge"><title>Node7&#45;&gt;Node8</title>
<path fill="none" stroke="midnightblue" d="M1073.09,-29C1081.75,-29 1090.51,-29 1098.95,-29"/>
<polygon fill="midnightblue" stroke="midnightblue" points="1073.01,-25.5001 1063.01,-29 1073.01,-32.5001 1073.01,-25.5001"/>
</g>
</g>
</svg>
