<?xml version="1.0" encoding="UTF-8" standalone="no"?>
<!DOCTYPE svg PUBLIC "-//W3C//DTD SVG 1.1//EN"
 "http://www.w3.org/Graphics/SVG/1.1/DTD/svg11.dtd">
<!-- Generated by graphviz version 2.38.0 (20140413.2041)
 -->
<!-- Title: PlaylistItem::getStatisticsObject Pages: 1 -->
<!--zoomable 520 -->
<svg id="main" version="1.1" xmlns="http://www.w3.org/2000/svg" xmlns:xlink="http://www.w3.org/1999/xlink" xml:space="preserve" onload="init(evt)">
<style type="text/css"><![CDATA[
.edge:hover path { stroke: red; }
.edge:hover polygon { stroke: red; fill: red; }
]]></style>
<script type="text/javascript"><![CDATA[
var edges = document.getElementsByTagName('g');
if (edges && edges.length) {
  for (var i=0;i<edges.length;i++) {
    if (edges[i].id.substr(0,4)=='edge') {
      edges[i].setAttribute('class','edge');
    }
  }
}
]]></script>
        <defs>
                <circle id="rim" cx="0" cy="0" r="7"/>
                <circle id="rim2" cx="0" cy="0" r="3.5"/>
                <g id="zoomPlus">
                        <use xlink:href="#rim" fill="#404040">
                                <set attributeName="fill" to="#808080" begin="zoomplus.mouseover" end="zoomplus.mouseout"/>
                        </use>
                        <path d="M-4,0h8M0,-4v8" fill="none" stroke="white" stroke-width="1.5" pointer-events="none"/>
                </g>
                <g id="zoomMin">
                        <use xlink:href="#rim" fill="#404040">
                                <set attributeName="fill" to="#808080" begin="zoomminus.mouseover" end="zoomminus.mouseout"/>
                        </use>
                        <path d="M-4,0h8" fill="none" stroke="white" stroke-width="1.5" pointer-events="none"/>
                </g>
                <g id="dirArrow">
                        <path fill="none" stroke="white" stroke-width="1.5" d="M0,-3.0v7 M-2.5,-0.5L0,-3.0L2.5,-0.5"/>
                </g>
               <g id="resetDef">
                       <use xlink:href="#rim2" fill="#404040">
                               <set attributeName="fill" to="#808080" begin="reset.mouseover" end="reset.mouseout"/>
                       </use>
               </g>
        </defs>

<script type="text/javascript">
var viewWidth = 1102;
var viewHeight = 520;
var sectionId = 'dynsection-12';
</script>
<script xlink:href="svgpan.js"/>
<svg id="graph" class="graph">
<g id="viewport">
<title>PlaylistItem::getStatisticsObject</title>
<polygon fill="white" stroke="none" points="-4,4 -4,-515.5 1098,-515.5 1098,4 -4,4"/>
<!-- Node1 -->
<g id="node1" class="node"><title>Node1</title>
<polygon fill="#bfbfbf" stroke="black" points="0,-170 0,-200 129,-200 129,-170 0,-170"/>
<text text-anchor="start" x="8" y="-188" font-family="Helvetica,sans-Serif" font-size="10.00">PlaylistItem::getStatistics</text>
<text text-anchor="middle" x="64.5" y="-177" font-family="Helvetica,sans-Serif" font-size="10.00">Object</text>
</g>
<!-- Node2 -->
<g id="node2" class="node"><title>Node2</title>
<g id="a_node2"><a xlink:href="classMainWindow.html#a2d8cea1d443550a8f14ce8c80d2608c6" target="_top" xlink:title="MainWindow::loadPlaylistFile">
<polygon fill="white" stroke="black" points="176,-300.5 176,-319.5 321,-319.5 321,-300.5 176,-300.5"/>
<text text-anchor="middle" x="248.5" y="-307.5" font-family="Helvetica,sans-Serif" font-size="10.00">MainWindow::loadPlaylistFile</text>
</a>
</g>
</g>
<!-- Node1&#45;&gt;Node2 -->
<g id="edge1" class="edge"><title>Node1&#45;&gt;Node2</title>
<path fill="none" stroke="midnightblue" d="M95.7234,-205.758C135.509,-233.083 203.845,-280.017 233.304,-300.25"/>
<polygon fill="midnightblue" stroke="midnightblue" points="97.6781,-202.854 87.4535,-200.078 93.715,-208.624 97.6781,-202.854"/>
</g>
<!-- Node13 -->
<g id="node13" class="node"><title>Node13</title>
<g id="a_node13"><a xlink:href="classMainWindow.html#a88624964fbb9d67df9149b29fab6f225" target="_top" xlink:title="MainWindow::savePlaylist\lToFile">
<polygon fill="white" stroke="black" points="182.5,-194 182.5,-224 314.5,-224 314.5,-194 182.5,-194"/>
<text text-anchor="start" x="190.5" y="-212" font-family="Helvetica,sans-Serif" font-size="10.00">MainWindow::savePlaylist</text>
<text text-anchor="middle" x="248.5" y="-201" font-family="Helvetica,sans-Serif" font-size="10.00">ToFile</text>
</a>
</g>
</g>
<!-- Node1&#45;&gt;Node13 -->
<g id="edge14" class="edge"><title>Node1&#45;&gt;Node13</title>
<path fill="none" stroke="midnightblue" d="M139.389,-194.744C153.614,-196.619 168.417,-198.571 182.34,-200.407"/>
<polygon fill="midnightblue" stroke="midnightblue" points="139.527,-191.232 129.155,-193.394 138.611,-198.171 139.527,-191.232"/>
</g>
<!-- Node15 -->
<g id="node15" class="node"><title>Node15</title>
<g id="a_node15"><a xlink:href="classMainWindow.html#a6f33e93f427ff2df80edffcb3ad944da" target="_top" xlink:title="MainWindow::updateSelected\lItems">
<polygon fill="white" stroke="black" points="372,-147 372,-177 518,-177 518,-147 372,-147"/>
<text text-anchor="start" x="380" y="-165" font-family="Helvetica,sans-Serif" font-size="10.00">MainWindow::updateSelected</text>
<text text-anchor="middle" x="445" y="-154" font-family="Helvetica,sans-Serif" font-size="10.00">Items</text>
</a>
</g>
</g>
<!-- Node1&#45;&gt;Node15 -->
<g id="edge17" class="edge"><title>Node1&#45;&gt;Node15</title>
<path fill="none" stroke="midnightblue" d="M139.374,-180.511C206.591,-176.426 305.21,-170.434 371.875,-166.383"/>
<polygon fill="midnightblue" stroke="midnightblue" points="139.049,-177.024 129.279,-181.124 139.473,-184.011 139.049,-177.024"/>
</g>
<!-- Node20 -->
<g id="node20" class="node"><title>Node20</title>
<g id="a_node20"><a xlink:href="classMainWindow.html#a94442a4ea05a84b5f57585c4f6ca65a9" target="_top" xlink:title="MainWindow::statsTypesChanged">
<polygon fill="white" stroke="black" points="165,-38.5 165,-57.5 332,-57.5 332,-38.5 165,-38.5"/>
<text text-anchor="middle" x="248.5" y="-45.5" font-family="Helvetica,sans-Serif" font-size="10.00">MainWindow::statsTypesChanged</text>
</a>
</g>
</g>
<!-- Node1&#45;&gt;Node20 -->
<g id="edge28" class="edge"><title>Node1&#45;&gt;Node20</title>
<path fill="none" stroke="midnightblue" d="M93.7316,-163.749C133.886,-133.522 205.839,-79.3604 234.856,-57.518"/>
<polygon fill="midnightblue" stroke="midnightblue" points="91.5571,-161.005 85.6726,-169.815 95.767,-166.597 91.5571,-161.005"/>
</g>
<!-- Node3 -->
<g id="node3" class="node"><title>Node3</title>
<g id="a_node3"><a xlink:href="classMainWindow.html#a8ef1be3cb02e12d68d12375d1a7a0ced" target="_top" xlink:title="loads a list of yuv/csv files ">
<polygon fill="white" stroke="black" points="386,-354.5 386,-373.5 504,-373.5 504,-354.5 386,-354.5"/>
<text text-anchor="middle" x="445" y="-361.5" font-family="Helvetica,sans-Serif" font-size="10.00">MainWindow::loadFiles</text>
</a>
</g>
</g>
<!-- Node2&#45;&gt;Node3 -->
<g id="edge2" class="edge"><title>Node2&#45;&gt;Node3</title>
<path fill="none" stroke="midnightblue" d="M293.823,-322.306C328.991,-332.069 377.438,-345.52 409.692,-354.475"/>
<polygon fill="midnightblue" stroke="midnightblue" points="294.397,-318.833 283.825,-319.53 292.524,-325.577 294.397,-318.833"/>
</g>
<!-- Node4 -->
<g id="node4" class="node"><title>Node4</title>
<g id="a_node4"><a xlink:href="classDisplaySplitWidget.html#ac1d4ced58b2ac2b08153694a5de6232e" target="_top" xlink:title="DisplaySplitWidget\l::dropEvent">
<polygon fill="white" stroke="black" points="581.5,-481 581.5,-511 681.5,-511 681.5,-481 581.5,-481"/>
<text text-anchor="start" x="589.5" y="-499" font-family="Helvetica,sans-Serif" font-size="10.00">DisplaySplitWidget</text>
<text text-anchor="middle" x="631.5" y="-488" font-family="Helvetica,sans-Serif" font-size="10.00">::dropEvent</text>
</a>
</g>
</g>
<!-- Node3&#45;&gt;Node4 -->
<g id="edge3" class="edge"><title>Node3&#45;&gt;Node4</title>
<path fill="none" stroke="midnightblue" d="M460.021,-381.464C479.655,-404.87 517.505,-446.322 558,-471 565.163,-475.365 573.191,-479.096 581.224,-482.24"/>
<polygon fill="midnightblue" stroke="midnightblue" points="462.701,-379.213 453.64,-373.721 457.299,-383.665 462.701,-379.213"/>
</g>
<!-- Node5 -->
<g id="node5" class="node"><title>Node5</title>
<g id="a_node5"><a xlink:href="classMainWindow.html#a288b768c3c21a9171bdc56fe845ece8b" target="_top" xlink:title="Shows the file open dialog and loads all selected Files. ">
<polygon fill="white" stroke="black" points="573.5,-278.5 573.5,-297.5 689.5,-297.5 689.5,-278.5 573.5,-278.5"/>
<text text-anchor="middle" x="631.5" y="-285.5" font-family="Helvetica,sans-Serif" font-size="10.00">MainWindow::openFile</text>
</a>
</g>
</g>
<!-- Node3&#45;&gt;Node5 -->
<g id="edge4" class="edge"><title>Node3&#45;&gt;Node5</title>
<path fill="none" stroke="midnightblue" d="M470.978,-349.322C493.221,-336.735 526.953,-318.811 558,-307 567.486,-303.391 577.922,-300.218 587.848,-297.549"/>
<polygon fill="midnightblue" stroke="midnightblue" points="469.128,-346.349 462.191,-354.357 472.608,-352.423 469.128,-346.349"/>
</g>
<!-- Node9 -->
<g id="node9" class="node"><title>Node9</title>
<g id="a_node9"><a xlink:href="classMainWindow.html#a935316315edb9b7af42657da20be0e54" target="_top" xlink:title="MainWindow::openRecentFile">
<polygon fill="white" stroke="black" points="558,-442.5 558,-461.5 705,-461.5 705,-442.5 558,-442.5"/>
<text text-anchor="middle" x="631.5" y="-449.5" font-family="Helvetica,sans-Serif" font-size="10.00">MainWindow::openRecentFile</text>
</a>
</g>
</g>
<!-- Node3&#45;&gt;Node9 -->
<g id="edge9" class="edge"><title>Node3&#45;&gt;Node9</title>
<path fill="none" stroke="midnightblue" d="M466.922,-379.525C488.682,-395.022 524.227,-418.553 558,-433 566.733,-436.736 576.381,-439.886 585.712,-442.481"/>
<polygon fill="midnightblue" stroke="midnightblue" points="468.909,-376.643 458.754,-373.622 464.809,-382.317 468.909,-376.643"/>
</g>
<!-- Node10 -->
<g id="node10" class="node"><title>Node10</title>
<g id="a_node10"><a xlink:href="classPlaylistTreeWidget.html#a295170eb269cc67050ea0b575cd0ab53" target="_top" xlink:title="PlaylistTreeWidget\l::dropEvent">
<polygon fill="white" stroke="black" points="582,-393 582,-423 681,-423 681,-393 582,-393"/>
<text text-anchor="start" x="590" y="-411" font-family="Helvetica,sans-Serif" font-size="10.00">PlaylistTreeWidget</text>
<text text-anchor="middle" x="631.5" y="-400" font-family="Helvetica,sans-Serif" font-size="10.00">::dropEvent</text>
</a>
</g>
</g>
<!-- Node3&#45;&gt;Node10 -->
<g id="edge11" class="edge"><title>Node3&#45;&gt;Node10</title>
<path fill="none" stroke="midnightblue" d="M495.924,-375.906C522.563,-382.259 555.214,-390.046 581.683,-396.358"/>
<polygon fill="midnightblue" stroke="midnightblue" points="496.573,-372.463 486.034,-373.547 494.949,-379.272 496.573,-372.463"/>
</g>
<!-- Node11 -->
<g id="node11" class="node"><title>Node11</title>
<g id="a_node11"><a xlink:href="classYUViewApp.html#ac0f5381cc5b703a9ea704b5eedab4b7f" target="_top" xlink:title="YUViewApp::YUViewApp">
<polygon fill="white" stroke="black" points="567,-354.5 567,-373.5 696,-373.5 696,-354.5 567,-354.5"/>
<text text-anchor="middle" x="631.5" y="-361.5" font-family="Helvetica,sans-Serif" font-size="10.00">YUViewApp::YUViewApp</text>
</a>
</g>
</g>
<!-- Node3&#45;&gt;Node11 -->
<g id="edge12" class="edge"><title>Node3&#45;&gt;Node11</title>
<path fill="none" stroke="midnightblue" d="M514.13,-364C531.396,-364 549.875,-364 566.907,-364"/>
<polygon fill="midnightblue" stroke="midnightblue" points="514.124,-360.5 504.124,-364 514.124,-367.5 514.124,-360.5"/>
</g>
<!-- Node12 -->
<g id="node12" class="node"><title>Node12</title>
<g id="a_node12"><a xlink:href="classYUViewApp.html#a2f5f937d6677018ef73a5ffc248f9891" target="_top" xlink:title="YUViewApp::event">
<polygon fill="white" stroke="black" points="581.5,-316.5 581.5,-335.5 681.5,-335.5 681.5,-316.5 581.5,-316.5"/>
<text text-anchor="middle" x="631.5" y="-323.5" font-family="Helvetica,sans-Serif" font-size="10.00">YUViewApp::event</text>
</a>
</g>
</g>
<!-- Node3&#45;&gt;Node12 -->
<g id="edge13" class="edge"><title>Node3&#45;&gt;Node12</title>
<path fill="none" stroke="midnightblue" d="M502.367,-352.39C528.607,-346.986 559.436,-340.636 584.278,-335.52"/>
<polygon fill="midnightblue" stroke="midnightblue" points="501.645,-348.966 492.557,-354.411 503.058,-355.822 501.645,-348.966"/>
</g>
<!-- Node6 -->
<g id="node6" class="node"><title>Node6</title>
<g id="a_node6"><a xlink:href="classMainWindow.html#a9df7443ce5f907903438bb6a9abe9a33" target="_top" xlink:title="MainWindow::createMenusAnd\lActions">
<polygon fill="white" stroke="black" points="756,-241 756,-271 908,-271 908,-241 756,-241"/>
<text text-anchor="start" x="764" y="-259" font-family="Helvetica,sans-Serif" font-size="10.00">MainWindow::createMenusAnd</text>
<text text-anchor="middle" x="832" y="-248" font-family="Helvetica,sans-Serif" font-size="10.00">Actions</text>
</a>
</g>
</g>
<!-- Node5&#45;&gt;Node6 -->
<g id="edge5" class="edge"><title>Node5&#45;&gt;Node6</title>
<path fill="none" stroke="midnightblue" d="M699.763,-277.157C717.778,-274.252 737.367,-271.095 755.781,-268.126"/>
<polygon fill="midnightblue" stroke="midnightblue" points="698.964,-273.74 689.648,-278.787 700.078,-280.651 698.964,-273.74"/>
</g>
<!-- Node8 -->
<g id="node8" class="node"><title>Node8</title>
<g id="a_node8"><a xlink:href="classMainWindow.html#aaba5c236313378986c42c4a634c4cfb9" target="_top" xlink:title="MainWindow::onCustomContextMenu">
<polygon fill="white" stroke="black" points="741,-202.5 741,-221.5 923,-221.5 923,-202.5 741,-202.5"/>
<text text-anchor="middle" x="832" y="-209.5" font-family="Helvetica,sans-Serif" font-size="10.00">MainWindow::onCustomContextMenu</text>
</a>
</g>
</g>
<!-- Node5&#45;&gt;Node8 -->
<g id="edge7" class="edge"><title>Node5&#45;&gt;Node8</title>
<path fill="none" stroke="midnightblue" d="M656.054,-273.182C677.465,-260.316 710.31,-242.06 741,-231 751.517,-227.21 763.011,-224.072 774.162,-221.513"/>
<polygon fill="midnightblue" stroke="midnightblue" points="654.055,-270.302 647.343,-278.499 657.702,-276.277 654.055,-270.302"/>
</g>
<!-- Node7 -->
<g id="node7" class="node"><title>Node7</title>
<g id="a_node7"><a xlink:href="classMainWindow.html#a8b244be8b7b7db1b08de2a2acb9409db" target="_top" xlink:title="MainWindow::MainWindow">
<polygon fill="white" stroke="black" points="959,-136.5 959,-155.5 1094,-155.5 1094,-136.5 959,-136.5"/>
<text text-anchor="middle" x="1026.5" y="-143.5" font-family="Helvetica,sans-Serif" font-size="10.00">MainWindow::MainWindow</text>
</a>
</g>
</g>
<!-- Node6&#45;&gt;Node7 -->
<g id="edge6" class="edge"><title>Node6&#45;&gt;Node7</title>
<path fill="none" stroke="midnightblue" d="M908.999,-237.422C913.825,-235.471 918.534,-233.335 923,-231 962.132,-210.546 999.929,-173.297 1016.6,-155.701"/>
<polygon fill="midnightblue" stroke="midnightblue" points="907.737,-234.158 899.607,-240.951 910.199,-240.71 907.737,-234.158"/>
</g>
<!-- Node8&#45;&gt;Node7 -->
<g id="edge8" class="edge"><title>Node8&#45;&gt;Node7</title>
<path fill="none" stroke="midnightblue" d="M894.4,-200.111C904.06,-197.739 913.867,-195.029 923,-192 953.362,-181.93 986.889,-165.884 1007.06,-155.651"/>
<polygon fill="midnightblue" stroke="midnightblue" points="893.351,-196.762 884.42,-202.462 894.956,-203.576 893.351,-196.762"/>
</g>
<!-- Node9&#45;&gt;Node6 -->
<g id="edge10" class="edge"><title>Node9&#45;&gt;Node6</title>
<path fill="none" stroke="midnightblue" d="M695.693,-438.439C698.946,-436.826 702.074,-435.02 705,-433 767.393,-389.926 809.485,-305.376 824.691,-271.035"/>
<polygon fill="midnightblue" stroke="midnightblue" points="694.062,-435.331 686.258,-442.497 696.828,-441.761 694.062,-435.331"/>
</g>
<!-- Node13&#45;&gt;Node6 -->
<g id="edge15" class="edge"><title>Node13&#45;&gt;Node6</title>
<path fill="none" stroke="midnightblue" d="M324.831,-222.22C339.133,-224.406 354.001,-226.458 368,-228 504.276,-243.009 664.069,-250.438 755.827,-253.732"/>
<polygon fill="midnightblue" stroke="midnightblue" points="324.959,-218.698 314.538,-220.611 323.877,-225.614 324.959,-218.698"/>
</g>
<!-- Node14 -->
<g id="node14" class="node"><title>Node14</title>
<g id="a_node14"><a xlink:href="classMainWindow.html#a4e20a4a065fbb0e4d3532a45a0a91425" target="_top" xlink:title="MainWindow::closeEvent">
<polygon fill="white" stroke="black" points="381,-199.5 381,-218.5 509,-218.5 509,-199.5 381,-199.5"/>
<text text-anchor="middle" x="445" y="-206.5" font-family="Helvetica,sans-Serif" font-size="10.00">MainWindow::closeEvent</text>
</a>
</g>
</g>
<!-- Node13&#45;&gt;Node14 -->
<g id="edge16" class="edge"><title>Node13&#45;&gt;Node14</title>
<path fill="none" stroke="midnightblue" d="M324.679,-209C343.178,-209 362.801,-209 380.677,-209"/>
<polygon fill="midnightblue" stroke="midnightblue" points="324.536,-205.5 314.536,-209 324.536,-212.5 324.536,-205.5"/>
</g>
<!-- Node15&#45;&gt;Node7 -->
<g id="edge18" class="edge"><title>Node15&#45;&gt;Node7</title>
<path fill="none" stroke="midnightblue" d="M528.068,-146.456C538.118,-145.032 548.272,-143.819 558,-143 700.346,-131.012 867.933,-136.925 958.774,-141.792"/>
<polygon fill="midnightblue" stroke="midnightblue" points="527.447,-143.009 518.071,-147.943 528.477,-149.933 527.447,-143.009"/>
</g>
<!-- Node16 -->
<g id="node16" class="node"><title>Node16</title>
<g id="a_node16"><a xlink:href="classMainWindow.html#a6be7246a1a0ecf5d1442bb1775c3d9b3" target="_top" xlink:title="MainWindow::addDifference\lSequence">
<polygon fill="white" stroke="black" points="561.5,-191 561.5,-221 701.5,-221 701.5,-191 561.5,-191"/>
<text text-anchor="start" x="569.5" y="-209" font-family="Helvetica,sans-Serif" font-size="10.00">MainWindow::addDifference</text>
<text text-anchor="middle" x="631.5" y="-198" font-family="Helvetica,sans-Serif" font-size="10.00">Sequence</text>
</a>
</g>
</g>
<!-- Node15&#45;&gt;Node16 -->
<g id="edge19" class="edge"><title>Node15&#45;&gt;Node16</title>
<path fill="none" stroke="midnightblue" d="M518.864,-179.377C534.943,-183.211 551.844,-187.242 567.492,-190.974"/>
<polygon fill="midnightblue" stroke="midnightblue" points="519.518,-175.935 508.978,-177.019 517.894,-182.744 519.518,-175.935"/>
</g>
<!-- Node17 -->
<g id="node17" class="node"><title>Node17</title>
<g id="a_node17"><a xlink:href="classMainWindow.html#af5ecc7c65080215b49b9d931c56c65c9" target="_top" xlink:title="MainWindow::editTextFrame">
<polygon fill="white" stroke="black" points="560.5,-152.5 560.5,-171.5 702.5,-171.5 702.5,-152.5 560.5,-152.5"/>
<text text-anchor="middle" x="631.5" y="-159.5" font-family="Helvetica,sans-Serif" font-size="10.00">MainWindow::editTextFrame</text>
</a>
</g>
</g>
<!-- Node15&#45;&gt;Node17 -->
<g id="edge22" class="edge"><title>Node15&#45;&gt;Node17</title>
<path fill="none" stroke="midnightblue" d="M528.278,-162C538.946,-162 549.793,-162 560.24,-162"/>
<polygon fill="midnightblue" stroke="midnightblue" points="528.125,-158.5 518.125,-162 528.125,-165.5 528.125,-158.5"/>
</g>
<!-- Node19 -->
<g id="node19" class="node"><title>Node19</title>
<g id="a_node19"><a xlink:href="classMainWindow.html#a156c29c6d7ab278e4246c88a0fcbe2f2" target="_top" xlink:title="MainWindow::updateSettings">
<polygon fill="white" stroke="black" points="760,-76.5 760,-95.5 904,-95.5 904,-76.5 760,-76.5"/>
<text text-anchor="middle" x="832" y="-83.5" font-family="Helvetica,sans-Serif" font-size="10.00">MainWindow::updateSettings</text>
</a>
</g>
</g>
<!-- Node15&#45;&gt;Node19 -->
<g id="edge26" class="edge"><title>Node15&#45;&gt;Node19</title>
<path fill="none" stroke="midnightblue" d="M480.792,-142.013C502.324,-130.629 530.938,-117.233 558,-110 624.994,-92.0936 704.195,-86.7972 759.988,-85.5565"/>
<polygon fill="midnightblue" stroke="midnightblue" points="478.862,-139.077 471.726,-146.908 482.188,-145.237 478.862,-139.077"/>
</g>
<!-- Node16&#45;&gt;Node6 -->
<g id="edge20" class="edge"><title>Node16&#45;&gt;Node6</title>
<path fill="none" stroke="midnightblue" d="M701.912,-223.484C724.485,-229.17 749.329,-235.428 771.143,-240.923"/>
<polygon fill="midnightblue" stroke="midnightblue" points="702.609,-220.05 692.057,-221.002 700.899,-226.838 702.609,-220.05"/>
</g>
<!-- Node16&#45;&gt;Node8 -->
<g id="edge21" class="edge"><title>Node16&#45;&gt;Node8</title>
<path fill="none" stroke="midnightblue" d="M711.857,-208.399C721.375,-208.686 731.147,-208.982 740.803,-209.274"/>
<polygon fill="midnightblue" stroke="midnightblue" points="711.748,-204.894 701.647,-208.09 711.537,-211.891 711.748,-204.894"/>
</g>
<!-- Node17&#45;&gt;Node8 -->
<g id="edge23" class="edge"><title>Node17&#45;&gt;Node8</title>
<path fill="none" stroke="midnightblue" d="M679.885,-174.125C688.268,-176.353 696.902,-178.703 705,-181 721.095,-185.566 724.822,-187.738 741,-192 755.085,-195.711 770.529,-199.311 784.585,-202.41"/>
<polygon fill="midnightblue" stroke="midnightblue" points="680.769,-170.738 670.207,-171.575 678.985,-177.507 680.769,-170.738"/>
</g>
<!-- Node18 -->
<g id="node18" class="node"><title>Node18</title>
<g id="a_node18"><a xlink:href="classMainWindow.html#ab18c663524e2c130759c0ca960129ea4" target="_top" xlink:title="MainWindow::onItemDouble\lClicked">
<polygon fill="white" stroke="black" points="762,-153 762,-183 902,-183 902,-153 762,-153"/>
<text text-anchor="start" x="770" y="-171" font-family="Helvetica,sans-Serif" font-size="10.00">MainWindow::onItemDouble</text>
<text text-anchor="middle" x="832" y="-160" font-family="Helvetica,sans-Serif" font-size="10.00">Clicked</text>
</a>
</g>
</g>
<!-- Node17&#45;&gt;Node18 -->
<g id="edge24" class="edge"><title>Node17&#45;&gt;Node18</title>
<path fill="none" stroke="midnightblue" d="M712.778,-164.427C729.036,-164.918 745.999,-165.431 761.833,-165.909"/>
<polygon fill="midnightblue" stroke="midnightblue" points="712.864,-160.928 702.763,-164.124 712.653,-167.924 712.864,-160.928"/>
</g>
<!-- Node18&#45;&gt;Node7 -->
<g id="edge25" class="edge"><title>Node18&#45;&gt;Node7</title>
<path fill="none" stroke="midnightblue" d="M912.283,-158.939C927.747,-157.172 943.815,-155.335 958.82,-153.621"/>
<polygon fill="midnightblue" stroke="midnightblue" points="911.763,-155.476 902.225,-160.089 912.558,-162.43 911.763,-155.476"/>
</g>
<!-- Node19&#45;&gt;Node7 -->
<g id="edge27" class="edge"><title>Node19&#45;&gt;Node7</title>
<path fill="none" stroke="midnightblue" d="M880.973,-98.0588C894.615,-101.686 909.446,-105.82 923,-110 949.494,-118.172 979.358,-128.829 999.986,-136.423"/>
<polygon fill="midnightblue" stroke="midnightblue" points="881.846,-94.6694 871.285,-95.5133 880.067,-101.44 881.846,-94.6694"/>
</g>
<!-- Node20&#45;&gt;Node7 -->
<g id="edge29" class="edge"><title>Node20&#45;&gt;Node7</title>
<path fill="none" stroke="midnightblue" d="M342.415,-43.5937C501.482,-37.2142 818.891,-29.8889 923,-67 963.633,-81.4841 1000.97,-118.68 1017.1,-136.372"/>
<polygon fill="midnightblue" stroke="midnightblue" points="342.019,-40.1069 332.17,-44.0121 342.305,-47.101 342.019,-40.1069"/>
</g>
<!-- Node21 -->
<g id="node21" class="node"><title>Node21</title>
<g id="a_node21"><a xlink:href="classMainWindow.html#a47efae19bde69ff0bd199daeb46fb2dd" target="_top" xlink:title="Select a Stats Type and update GUI. ">
<polygon fill="white" stroke="black" points="368,-0.5 368,-19.5 522,-19.5 522,-0.5 368,-0.5"/>
<text text-anchor="middle" x="445" y="-7.5" font-family="Helvetica,sans-Serif" font-size="10.00">MainWindow::setSelectedStats</text>
</a>
</g>
</g>
<!-- Node20&#45;&gt;Node21 -->
<g id="edge30" class="edge"><title>Node20&#45;&gt;Node21</title>
<path fill="none" stroke="midnightblue" d="M308.308,-36.5106C336.059,-31.0886 368.789,-24.6942 395.15,-19.5439"/>
<polygon fill="midnightblue" stroke="midnightblue" points="307.473,-33.1074 298.33,-38.46 308.815,-39.9775 307.473,-33.1074"/>
</g>
</g>
</svg>
        <g id="navigator" transform="translate(0 0)" fill="#404254">
                <rect fill="#f2f5e9" fill-opacity="0.5" stroke="#606060" stroke-width=".5" x="0" y="0" width="60" height="60"/>
                <use id="zoomplus" xlink:href="#zoomPlus" x="17" y="9" onmousedown="handleZoom(evt,'in')"/>
                <use id="zoomminus" xlink:href="#zoomMin" x="42" y="9" onmousedown="handleZoom(evt,'out')"/>
                <use id="reset" xlink:href="#resetDef" x="30" y="36" onmousedown="handleReset()"/>
                <g id="arrowUp" xlink:href="#dirArrow" transform="translate(30 24)" onmousedown="handlePan(0,-1)">
                  <use xlink:href="#rim" fill="#404040">
                        <set attributeName="fill" to="#808080" begin="arrowUp.mouseover" end="arrowUp.mouseout"/>
                  </use>
                  <path fill="none" stroke="white" stroke-width="1.5" d="M0,-3.0v7 M-2.5,-0.5L0,-3.0L2.5,-0.5"/>
                </g>
                <g id="arrowRight" xlink:href="#dirArrow" transform="rotate(90) translate(36 -43)" onmousedown="handlePan(1,0)">
                  <use xlink:href="#rim" fill="#404040">
                        <set attributeName="fill" to="#808080" begin="arrowRight.mouseover" end="arrowRight.mouseout"/>
                  </use>
                  <path fill="none" stroke="white" stroke-width="1.5" d="M0,-3.0v7 M-2.5,-0.5L0,-3.0L2.5,-0.5"/>
                </g>
                <g id="arrowDown" xlink:href="#dirArrow" transform="rotate(180) translate(-30 -48)" onmousedown="handlePan(0,1)">
                  <use xlink:href="#rim" fill="#404040">
                        <set attributeName="fill" to="#808080" begin="arrowDown.mouseover" end="arrowDown.mouseout"/>
                  </use>
                  <path fill="none" stroke="white" stroke-width="1.5" d="M0,-3.0v7 M-2.5,-0.5L0,-3.0L2.5,-0.5"/>
                </g>
                <g id="arrowLeft" xlink:href="#dirArrow" transform="rotate(270) translate(-36 17)" onmousedown="handlePan(-1,0)">
                  <use xlink:href="#rim" fill="#404040">
                        <set attributeName="fill" to="#808080" begin="arrowLeft.mouseover" end="arrowLeft.mouseout"/>
                  </use>
                  <path fill="none" stroke="white" stroke-width="1.5" d="M0,-3.0v7 M-2.5,-0.5L0,-3.0L2.5,-0.5"/>
                </g>
        </g>
        <svg viewBox="0 0 15 15" width="100%" height="30px" preserveAspectRatio="xMaxYMin meet">
         <g id="arrow_out" transform="scale(0.3 0.3)">
          <a xlink:href="classPlaylistItem_a5d94b9e2dab116ab2f4a3afd3639b18f_icgraph_org.svg" target="_base">
           <rect id="button" ry="5" rx="5" y="6" x="6" height="38" width="38"
                fill="#f2f5e9" fill-opacity="0.5" stroke="#606060" stroke-width="1.0"/>
           <path id="arrow"
             d="M 11.500037,31.436501 C 11.940474,20.09759 22.043105,11.32322 32.158766,21.979434 L 37.068811,17.246167 C 37.068811,17.246167 37.088388,32 37.088388,32 L 22.160133,31.978069 C 22.160133,31.978069 26.997745,27.140456 26.997745,27.140456 C 18.528582,18.264221 13.291696,25.230495 11.500037,31.436501 z"
             style="fill:#404040;"/>
          </a>
         </g>
        </svg>
</svg>
