<?xml version="1.0" encoding="UTF-8" standalone="no"?>
<!DOCTYPE svg PUBLIC "-//W3C//DTD SVG 1.1//EN"
 "http://www.w3.org/Graphics/SVG/1.1/DTD/svg11.dtd">
<!-- Generated by graphviz version 2.38.0 (20140413.2041)
 -->
<!-- Title: MainWindow::addTextFrame Pages: 1 -->
<svg width="539pt" height="78pt"
 viewBox="0.00 0.00 539.00 77.50" xmlns="http://www.w3.org/2000/svg" xmlns:xlink="http://www.w3.org/1999/xlink">
<g id="graph0" class="graph" transform="scale(1 1) rotate(0) translate(4 73.5)">
<title>MainWindow::addTextFrame</title>
<polygon fill="white" stroke="none" points="-4,4 -4,-73.5 535,-73.5 535,4 -4,4"/>
<!-- Node1 -->
<g id="node1" class="node"><title>Node1</title>
<polygon fill="#bfbfbf" stroke="black" points="0,-22.5 0,-41.5 142,-41.5 142,-22.5 0,-22.5"/>
<text text-anchor="middle" x="71" y="-29.5" font-family="Helvetica,sans-Serif" font-size="10.00">MainWindow::addTextFrame</text>
</g>
<!-- Node2 -->
<g id="node2" class="node"><title>Node2</title>
<g id="a_node2"><a xlink:href="classMainWindow.html#a9df7443ce5f907903438bb6a9abe9a33" target="_top" xlink:title="MainWindow::createMenusAnd\lActions">
<polygon fill="white" stroke="black" points="193,-39 193,-69 345,-69 345,-39 193,-39"/>
<text text-anchor="start" x="201" y="-57" font-family="Helvetica,sans-Serif" font-size="10.00">MainWindow::createMenusAnd</text>
<text text-anchor="middle" x="269" y="-46" font-family="Helvetica,sans-Serif" font-size="10.00">Actions</text>
</a>
</g>
</g>
<!-- Node1&#45;&gt;Node2 -->
<g id="edge1" class="edge"><title>Node1&#45;&gt;Node2</title>
<path fill="none" stroke="midnightblue" d="M152.371,-41.0213C165.802,-42.5288 179.69,-44.0877 192.981,-45.5795"/>
<polygon fill="midnightblue" stroke="midnightblue" points="152.535,-37.5177 142.207,-39.8804 151.754,-44.4741 152.535,-37.5177"/>
</g>
<!-- Node4 -->
<g id="node4" class="node"><title>Node4</title>
<g id="a_node4"><a xlink:href="classMainWindow.html#aaba5c236313378986c42c4a634c4cfb9" target="_top" xlink:title="MainWindow::onCustomContextMenu">
<polygon fill="white" stroke="black" points="178,-0.5 178,-19.5 360,-19.5 360,-0.5 178,-0.5"/>
<text text-anchor="middle" x="269" y="-7.5" font-family="Helvetica,sans-Serif" font-size="10.00">MainWindow::onCustomContextMenu</text>
</a>
</g>
</g>
<!-- Node1&#45;&gt;Node4 -->
<g id="edge3" class="edge"><title>Node1&#45;&gt;Node4</title>
<path fill="none" stroke="midnightblue" d="M152.298,-22.987C162.493,-21.8426 172.954,-20.6685 183.217,-19.5164"/>
<polygon fill="midnightblue" stroke="midnightblue" points="151.754,-19.5259 142.207,-24.1196 152.535,-26.4823 151.754,-19.5259"/>
</g>
<!-- Node3 -->
<g id="node3" class="node"><title>Node3</title>
<g id="a_node3"><a xlink:href="classMainWindow.html#a8b244be8b7b7db1b08de2a2acb9409db" target="_top" xlink:title="MainWindow::MainWindow">
<polygon fill="white" stroke="black" points="396,-22.5 396,-41.5 531,-41.5 531,-22.5 396,-22.5"/>
<text text-anchor="middle" x="463.5" y="-29.5" font-family="Helvetica,sans-Serif" font-size="10.00">MainWindow::MainWindow</text>
</a>
</g>
</g>
<!-- Node2&#45;&gt;Node3 -->
<g id="edge2" class="edge"><title>Node2&#45;&gt;Node3</title>
<path fill="none" stroke="midnightblue" d="M355.497,-44.2289C368.989,-42.6869 382.767,-41.1123 395.752,-39.6283"/>
<polygon fill="midnightblue" stroke="midnightblue" points="354.79,-40.7868 345.253,-45.3997 355.585,-47.7415 354.79,-40.7868"/>
</g>
<!-- Node4&#45;&gt;Node3 -->
<g id="edge4" class="edge"><title>Node4&#45;&gt;Node3</title>
<path fill="none" stroke="midnightblue" d="M363.363,-20.6701C374.339,-21.9244 385.365,-23.1845 395.869,-24.385"/>
<polygon fill="midnightblue" stroke="midnightblue" points="363.646,-17.1798 353.314,-19.5216 362.852,-24.1345 363.646,-17.1798"/>
</g>
</g>
</svg>
