<?xml version="1.0" encoding="UTF-8" standalone="no"?>
<!DOCTYPE svg PUBLIC "-//W3C//DTD SVG 1.1//EN"
 "http://www.w3.org/Graphics/SVG/1.1/DTD/svg11.dtd">
<!-- Generated by graphviz version 2.38.0 (20140413.2041)
 -->
<!-- Title: MainWindow::addTextFrame Pages: 1 -->
<svg width="1000pt" height="268pt"
 viewBox="0.00 0.00 1000.00 267.50" xmlns="http://www.w3.org/2000/svg" xmlns:xlink="http://www.w3.org/1999/xlink">
<g id="graph0" class="graph" transform="scale(1 1) rotate(0) translate(4 263.5)">
<title>MainWindow::addTextFrame</title>
<polygon fill="white" stroke="none" points="-4,4 -4,-263.5 996,-263.5 996,4 -4,4"/>
<!-- Node1 -->
<g id="node1" class="node"><title>Node1</title>
<polygon fill="#bfbfbf" stroke="black" points="0,-126 0,-145 142,-145 142,-126 0,-126"/>
<text text-anchor="middle" x="71" y="-133" font-family="Helvetica,sans-Serif" font-size="10.00">MainWindow::addTextFrame</text>
</g>
<!-- Node2 -->
<g id="node2" class="node"><title>Node2</title>
<g id="a_node2"><a xlink:href="classEditTextDialog.html#a6447b5935f3e454928929c601ad3dc18" target="_top" xlink:title="EditTextDialog::getText">
<polygon fill="white" stroke="black" points="186.5,-240 186.5,-259 306.5,-259 306.5,-240 186.5,-240"/>
<text text-anchor="middle" x="246.5" y="-247" font-family="Helvetica,sans-Serif" font-size="10.00">EditTextDialog::getText</text>
</a>
</g>
</g>
<!-- Node1&#45;&gt;Node2 -->
<g id="edge1" class="edge"><title>Node1&#45;&gt;Node2</title>
<path fill="none" stroke="midnightblue" d="M79.994,-145.158C96.3719,-164.318 135.77,-207.289 178,-230.5 182.009,-232.704 186.296,-234.67 190.692,-236.42"/>
<polygon fill="midnightblue" stroke="midnightblue" points="189.831,-239.83 200.426,-239.918 192.198,-233.242 189.831,-239.83"/>
</g>
<!-- Node3 -->
<g id="node3" class="node"><title>Node3</title>
<g id="a_node3"><a xlink:href="classPlaylistItem.html#ad49967db988d94174603ff085d8e2088" target="_top" xlink:title="PlaylistItem::getTextObject">
<polygon fill="white" stroke="black" points="178.5,-202 178.5,-221 314.5,-221 314.5,-202 178.5,-202"/>
<text text-anchor="middle" x="246.5" y="-209" font-family="Helvetica,sans-Serif" font-size="10.00">PlaylistItem::getTextObject</text>
</a>
</g>
</g>
<!-- Node1&#45;&gt;Node3 -->
<g id="edge2" class="edge"><title>Node1&#45;&gt;Node3</title>
<path fill="none" stroke="midnightblue" d="M87.2835,-145.107C107.435,-157.444 144.289,-178.884 178,-192.5 183.852,-194.864 190.102,-197.049 196.349,-199.032"/>
<polygon fill="midnightblue" stroke="midnightblue" points="195.521,-202.438 206.106,-201.977 197.544,-195.737 195.521,-202.438"/>
</g>
<!-- Node4 -->
<g id="node4" class="node"><title>Node4</title>
<g id="a_node4"><a xlink:href="classTextObject.html#adaa0f36f9e82dc8298d0835101569eb4" target="_top" xlink:title="TextObject::setFont">
<polygon fill="white" stroke="black" points="194.5,-164 194.5,-183 298.5,-183 298.5,-164 194.5,-164"/>
<text text-anchor="middle" x="246.5" y="-171" font-family="Helvetica,sans-Serif" font-size="10.00">TextObject::setFont</text>
</a>
</g>
</g>
<!-- Node1&#45;&gt;Node4 -->
<g id="edge3" class="edge"><title>Node1&#45;&gt;Node4</title>
<path fill="none" stroke="midnightblue" d="M115.781,-145.089C138.986,-150.171 167.678,-156.455 192.173,-161.82"/>
<polygon fill="midnightblue" stroke="midnightblue" points="191.516,-165.259 202.033,-163.98 193.014,-158.421 191.516,-165.259"/>
</g>
<!-- Node12 -->
<g id="node12" class="node"><title>Node12</title>
<g id="a_node12"><a xlink:href="classEditTextDialog.html#a4de351f3d157fe523eadbe592f316c99" target="_top" xlink:title="EditTextDialog::getFont">
<polygon fill="white" stroke="black" points="186.5,-126 186.5,-145 306.5,-145 306.5,-126 186.5,-126"/>
<text text-anchor="middle" x="246.5" y="-133" font-family="Helvetica,sans-Serif" font-size="10.00">EditTextDialog::getFont</text>
</a>
</g>
</g>
<!-- Node1&#45;&gt;Node12 -->
<g id="edge13" class="edge"><title>Node1&#45;&gt;Node12</title>
<path fill="none" stroke="midnightblue" d="M142.069,-135.5C153.302,-135.5 164.922,-135.5 176.139,-135.5"/>
<polygon fill="midnightblue" stroke="midnightblue" points="176.303,-139 186.303,-135.5 176.303,-132 176.303,-139"/>
</g>
<!-- Node13 -->
<g id="node13" class="node"><title>Node13</title>
<g id="a_node13"><a xlink:href="classEditTextDialog.html#af6c3abd3ec26fbe28283333a7cb1495a" target="_top" xlink:title="EditTextDialog::getDuration">
<polygon fill="white" stroke="black" points="178,-88 178,-107 315,-107 315,-88 178,-88"/>
<text text-anchor="middle" x="246.5" y="-95" font-family="Helvetica,sans-Serif" font-size="10.00">EditTextDialog::getDuration</text>
</a>
</g>
</g>
<!-- Node1&#45;&gt;Node13 -->
<g id="edge14" class="edge"><title>Node1&#45;&gt;Node13</title>
<path fill="none" stroke="midnightblue" d="M115.781,-125.911C138.986,-120.829 167.678,-114.545 192.173,-109.18"/>
<polygon fill="midnightblue" stroke="midnightblue" points="193.014,-112.579 202.033,-107.02 191.516,-105.741 193.014,-112.579"/>
</g>
<!-- Node14 -->
<g id="node14" class="node"><title>Node14</title>
<g id="a_node14"><a xlink:href="classEditTextDialog.html#a3ad4e5b7e0ef0dd55ab79ed60ba30a99" target="_top" xlink:title="EditTextDialog::getColor">
<polygon fill="white" stroke="black" points="184.5,-50 184.5,-69 308.5,-69 308.5,-50 184.5,-50"/>
<text text-anchor="middle" x="246.5" y="-57" font-family="Helvetica,sans-Serif" font-size="10.00">EditTextDialog::getColor</text>
</a>
</g>
</g>
<!-- Node1&#45;&gt;Node14 -->
<g id="edge15" class="edge"><title>Node1&#45;&gt;Node14</title>
<path fill="none" stroke="midnightblue" d="M87.2835,-125.893C107.435,-113.556 144.289,-92.1164 178,-78.5 183.852,-76.1362 190.102,-73.9506 196.349,-71.9679"/>
<polygon fill="midnightblue" stroke="midnightblue" points="197.544,-75.2634 206.106,-69.0229 195.521,-68.562 197.544,-75.2634"/>
</g>
<!-- Node15 -->
<g id="node15" class="node"><title>Node15</title>
<g id="a_node15"><a xlink:href="classPlaylistTreeWidget.html#a3d898eca74f2de619866263e7ffbe5f2" target="_top" xlink:title="PlaylistTreeWidget\l::setIsSaved">
<polygon fill="white" stroke="black" points="197,-0.5 197,-30.5 296,-30.5 296,-0.5 197,-0.5"/>
<text text-anchor="start" x="205" y="-18.5" font-family="Helvetica,sans-Serif" font-size="10.00">PlaylistTreeWidget</text>
<text text-anchor="middle" x="246.5" y="-7.5" font-family="Helvetica,sans-Serif" font-size="10.00">::setIsSaved</text>
</a>
</g>
</g>
<!-- Node1&#45;&gt;Node15 -->
<g id="edge16" class="edge"><title>Node1&#45;&gt;Node15</title>
<path fill="none" stroke="midnightblue" d="M80.4169,-125.839C97.2415,-107.05 136.947,-65.2599 178,-40.5 181.394,-38.4528 184.984,-36.5292 188.668,-34.7299"/>
<polygon fill="midnightblue" stroke="midnightblue" points="190.302,-37.832 197.963,-30.5138 187.41,-31.4571 190.302,-37.832"/>
</g>
<!-- Node5 -->
<g id="node5" class="node"><title>Node5</title>
<g id="a_node5"><a xlink:href="classTextObject.html#a40a3c04abf6f17df174696a8902b84f1" target="_top" xlink:title="TextObject::font">
<polygon fill="white" stroke="black" points="377.5,-183 377.5,-202 464.5,-202 464.5,-183 377.5,-183"/>
<text text-anchor="middle" x="421" y="-190" font-family="Helvetica,sans-Serif" font-size="10.00">TextObject::font</text>
</a>
</g>
</g>
<!-- Node4&#45;&gt;Node5 -->
<g id="edge4" class="edge"><title>Node4&#45;&gt;Node5</title>
<path fill="none" stroke="midnightblue" d="M298.789,-179.149C320.394,-181.529 345.522,-184.297 367.279,-186.693"/>
<polygon fill="midnightblue" stroke="midnightblue" points="367.012,-190.185 377.335,-187.801 367.779,-183.227 367.012,-190.185"/>
</g>
<!-- Node6 -->
<g id="node6" class="node"><title>Node6</title>
<g id="a_node6"><a xlink:href="classTextObject.html#a8f1e5a14cf1a2f89b0794ea47b793ae3" target="_top" xlink:title="TextObject::refreshTextSize">
<polygon fill="white" stroke="black" points="351,-145 351,-164 491,-164 491,-145 351,-145"/>
<text text-anchor="middle" x="421" y="-152" font-family="Helvetica,sans-Serif" font-size="10.00">TextObject::refreshTextSize</text>
</a>
</g>
</g>
<!-- Node4&#45;&gt;Node6 -->
<g id="edge5" class="edge"><title>Node4&#45;&gt;Node6</title>
<path fill="none" stroke="midnightblue" d="M298.789,-167.851C311.895,-166.407 326.298,-164.821 340.458,-163.261"/>
<polygon fill="midnightblue" stroke="midnightblue" points="341.147,-166.707 350.704,-162.133 340.38,-159.749 341.147,-166.707"/>
</g>
<!-- Node7 -->
<g id="node7" class="node"><title>Node7</title>
<g id="a_node7"><a xlink:href="classDisplayObject.html#afb3b221174f722f563e7bf55a1ddb29f" target="_top" xlink:title="DisplayObject::width">
<polygon fill="white" stroke="black" points="700,-189 700,-208 807,-208 807,-189 700,-189"/>
<text text-anchor="middle" x="753.5" y="-196" font-family="Helvetica,sans-Serif" font-size="10.00">DisplayObject::width</text>
</a>
</g>
</g>
<!-- Node6&#45;&gt;Node7 -->
<g id="edge6" class="edge"><title>Node6&#45;&gt;Node7</title>
<path fill="none" stroke="midnightblue" d="M470.766,-164.043C488.436,-167.31 508.577,-170.815 527,-173.5 581.899,-181.501 644.648,-188.265 689.992,-192.732"/>
<polygon fill="midnightblue" stroke="midnightblue" points="689.678,-196.218 699.97,-193.706 690.357,-189.251 689.678,-196.218"/>
</g>
<!-- Node8 -->
<g id="node8" class="node"><title>Node8</title>
<g id="a_node8"><a xlink:href="classDisplayObject.html#a814782fb1bf9e7a2ed7adab74872c08a" target="_top" xlink:title="DisplayObject::height">
<polygon fill="white" stroke="black" points="698.5,-101 698.5,-120 808.5,-120 808.5,-101 698.5,-101"/>
<text text-anchor="middle" x="753.5" y="-108" font-family="Helvetica,sans-Serif" font-size="10.00">DisplayObject::height</text>
</a>
</g>
</g>
<!-- Node6&#45;&gt;Node8 -->
<g id="edge7" class="edge"><title>Node6&#45;&gt;Node8</title>
<path fill="none" stroke="midnightblue" d="M470.766,-144.957C488.436,-141.69 508.577,-138.185 527,-135.5 581.174,-127.605 642.993,-120.914 688.187,-116.446"/>
<polygon fill="midnightblue" stroke="midnightblue" points="688.534,-119.929 698.145,-115.471 687.852,-112.962 688.534,-119.929"/>
</g>
<!-- Node9 -->
<g id="node9" class="node"><title>Node9</title>
<g id="a_node9"><a xlink:href="classDisplayObject.html#af14049278f3dfdf62f4e88d5c24e03c7" target="_top" xlink:title="DisplayObject::setSize">
<polygon fill="white" stroke="black" points="527,-145 527,-164 644,-164 644,-145 527,-145"/>
<text text-anchor="middle" x="585.5" y="-152" font-family="Helvetica,sans-Serif" font-size="10.00">DisplayObject::setSize</text>
</a>
</g>
</g>
<!-- Node6&#45;&gt;Node9 -->
<g id="edge8" class="edge"><title>Node6&#45;&gt;Node9</title>
<path fill="none" stroke="midnightblue" d="M491.386,-154.5C499.788,-154.5 508.363,-154.5 516.741,-154.5"/>
<polygon fill="midnightblue" stroke="midnightblue" points="516.838,-158 526.838,-154.5 516.838,-151 516.838,-158"/>
</g>
<!-- Node9&#45;&gt;Node7 -->
<g id="edge9" class="edge"><title>Node9&#45;&gt;Node7</title>
<path fill="none" stroke="midnightblue" d="M622.008,-164.039C639.47,-168.718 660.833,-174.426 680,-179.5 688.499,-181.75 697.563,-184.136 706.301,-186.429"/>
<polygon fill="midnightblue" stroke="midnightblue" points="705.419,-189.816 715.98,-188.967 707.195,-183.045 705.419,-189.816"/>
</g>
<!-- Node9&#45;&gt;Node8 -->
<g id="edge10" class="edge"><title>Node9&#45;&gt;Node8</title>
<path fill="none" stroke="midnightblue" d="M622.52,-144.953C647.209,-138.408 680.168,-129.672 706.719,-122.635"/>
<polygon fill="midnightblue" stroke="midnightblue" points="707.781,-125.974 716.551,-120.029 705.988,-119.208 707.781,-125.974"/>
</g>
<!-- Node10 -->
<g id="node10" class="node"><title>Node10</title>
<g id="a_node10"><a xlink:href="classDisplayObject.html#a64d01b5326cf6dae89928a7ad91b1283" target="_top" xlink:title="DisplayObject::refreshDisplay\lImage">
<polygon fill="white" stroke="black" points="680,-139.5 680,-169.5 827,-169.5 827,-139.5 680,-139.5"/>
<text text-anchor="start" x="688" y="-157.5" font-family="Helvetica,sans-Serif" font-size="10.00">DisplayObject::refreshDisplay</text>
<text text-anchor="middle" x="753.5" y="-146.5" font-family="Helvetica,sans-Serif" font-size="10.00">Image</text>
</a>
</g>
</g>
<!-- Node9&#45;&gt;Node10 -->
<g id="edge11" class="edge"><title>Node9&#45;&gt;Node10</title>
<path fill="none" stroke="midnightblue" d="M644.093,-154.5C652.371,-154.5 661.023,-154.5 669.672,-154.5"/>
<polygon fill="midnightblue" stroke="midnightblue" points="669.802,-158 679.802,-154.5 669.802,-151 669.802,-158"/>
</g>
<!-- Node11 -->
<g id="node11" class="node"><title>Node11</title>
<g id="a_node11"><a xlink:href="classDisplayObject.html#aacc96a69c37767806090e1fa388be045" target="_top" xlink:title="DisplayObject::loadImage">
<polygon fill="white" stroke="black" points="863,-145 863,-164 992,-164 992,-145 863,-145"/>
<text text-anchor="middle" x="927.5" y="-152" font-family="Helvetica,sans-Serif" font-size="10.00">DisplayObject::loadImage</text>
</a>
</g>
</g>
<!-- Node10&#45;&gt;Node11 -->
<g id="edge12" class="edge"><title>Node10&#45;&gt;Node11</title>
<path fill="none" stroke="midnightblue" d="M827.443,-154.5C835.841,-154.5 844.408,-154.5 852.814,-154.5"/>
<polygon fill="midnightblue" stroke="midnightblue" points="852.967,-158 862.967,-154.5 852.967,-151 852.967,-158"/>
</g>
</g>
</svg>
