<?xml version="1.0" encoding="UTF-8" standalone="no"?>
<!DOCTYPE svg PUBLIC "-//W3C//DTD SVG 1.1//EN"
 "http://www.w3.org/Graphics/SVG/1.1/DTD/svg11.dtd">
<!-- Generated by graphviz version 2.38.0 (20140413.2041)
 -->
<!-- Title: TextObject::setFont Pages: 1 -->
<svg width="789pt" height="116pt"
 viewBox="0.00 0.00 789.00 116.00" xmlns="http://www.w3.org/2000/svg" xmlns:xlink="http://www.w3.org/1999/xlink">
<g id="graph0" class="graph" transform="scale(1 1) rotate(0) translate(4 112)">
<title>TextObject::setFont</title>
<polygon fill="white" stroke="none" points="-4,4 -4,-112 785,-112 785,4 -4,4"/>
<!-- Node1 -->
<g id="node1" class="node"><title>Node1</title>
<polygon fill="#bfbfbf" stroke="black" points="0,-63.5 0,-82.5 104,-82.5 104,-63.5 0,-63.5"/>
<text text-anchor="middle" x="52" y="-70.5" font-family="Helvetica,sans-Serif" font-size="10.00">TextObject::setFont</text>
</g>
<!-- Node2 -->
<g id="node2" class="node"><title>Node2</title>
<g id="a_node2"><a xlink:href="classTextObject.html#a40a3c04abf6f17df174696a8902b84f1" target="_top" xlink:title="TextObject::font">
<polygon fill="white" stroke="black" points="166.5,-82.5 166.5,-101.5 253.5,-101.5 253.5,-82.5 166.5,-82.5"/>
<text text-anchor="middle" x="210" y="-89.5" font-family="Helvetica,sans-Serif" font-size="10.00">TextObject::font</text>
</a>
</g>
</g>
<!-- Node1&#45;&gt;Node2 -->
<g id="edge1" class="edge"><title>Node1&#45;&gt;Node2</title>
<path fill="none" stroke="midnightblue" d="M104.08,-79.2213C120.784,-81.2558 139.366,-83.519 156.195,-85.5686"/>
<polygon fill="midnightblue" stroke="midnightblue" points="156.064,-89.0785 166.414,-86.8133 156.911,-82.1298 156.064,-89.0785"/>
</g>
<!-- Node3 -->
<g id="node3" class="node"><title>Node3</title>
<g id="a_node3"><a xlink:href="classTextObject.html#a8f1e5a14cf1a2f89b0794ea47b793ae3" target="_top" xlink:title="TextObject::refreshTextSize">
<polygon fill="white" stroke="black" points="140,-44.5 140,-63.5 280,-63.5 280,-44.5 140,-44.5"/>
<text text-anchor="middle" x="210" y="-51.5" font-family="Helvetica,sans-Serif" font-size="10.00">TextObject::refreshTextSize</text>
</a>
</g>
</g>
<!-- Node1&#45;&gt;Node3 -->
<g id="edge2" class="edge"><title>Node1&#45;&gt;Node3</title>
<path fill="none" stroke="midnightblue" d="M104.08,-66.7787C112.409,-65.7643 121.204,-64.6931 130.016,-63.6198"/>
<polygon fill="midnightblue" stroke="midnightblue" points="130.445,-67.0936 139.948,-62.4102 129.598,-60.1449 130.445,-67.0936"/>
</g>
<!-- Node4 -->
<g id="node4" class="node"><title>Node4</title>
<g id="a_node4"><a xlink:href="classDisplayObject.html#afb3b221174f722f563e7bf55a1ddb29f" target="_top" xlink:title="DisplayObject::width">
<polygon fill="white" stroke="black" points="489,-88.5 489,-107.5 596,-107.5 596,-88.5 489,-88.5"/>
<text text-anchor="middle" x="542.5" y="-95.5" font-family="Helvetica,sans-Serif" font-size="10.00">DisplayObject::width</text>
</a>
</g>
</g>
<!-- Node3&#45;&gt;Node4 -->
<g id="edge3" class="edge"><title>Node3&#45;&gt;Node4</title>
<path fill="none" stroke="midnightblue" d="M259.766,-63.5426C277.436,-66.8101 297.577,-70.3151 316,-73 370.899,-81.0006 433.648,-87.7652 478.992,-92.232"/>
<polygon fill="midnightblue" stroke="midnightblue" points="478.678,-95.7179 488.97,-93.2056 479.357,-88.751 478.678,-95.7179"/>
</g>
<!-- Node5 -->
<g id="node5" class="node"><title>Node5</title>
<g id="a_node5"><a xlink:href="classDisplayObject.html#a814782fb1bf9e7a2ed7adab74872c08a" target="_top" xlink:title="DisplayObject::height">
<polygon fill="white" stroke="black" points="487.5,-0.5 487.5,-19.5 597.5,-19.5 597.5,-0.5 487.5,-0.5"/>
<text text-anchor="middle" x="542.5" y="-7.5" font-family="Helvetica,sans-Serif" font-size="10.00">DisplayObject::height</text>
</a>
</g>
</g>
<!-- Node3&#45;&gt;Node5 -->
<g id="edge4" class="edge"><title>Node3&#45;&gt;Node5</title>
<path fill="none" stroke="midnightblue" d="M259.766,-44.4574C277.436,-41.1899 297.577,-37.6849 316,-35 370.174,-27.105 431.993,-20.4137 477.187,-15.9461"/>
<polygon fill="midnightblue" stroke="midnightblue" points="477.534,-19.429 487.145,-14.9711 476.852,-12.4623 477.534,-19.429"/>
</g>
<!-- Node6 -->
<g id="node6" class="node"><title>Node6</title>
<g id="a_node6"><a xlink:href="classDisplayObject.html#af14049278f3dfdf62f4e88d5c24e03c7" target="_top" xlink:title="DisplayObject::setSize">
<polygon fill="white" stroke="black" points="316,-44.5 316,-63.5 433,-63.5 433,-44.5 316,-44.5"/>
<text text-anchor="middle" x="374.5" y="-51.5" font-family="Helvetica,sans-Serif" font-size="10.00">DisplayObject::setSize</text>
</a>
</g>
</g>
<!-- Node3&#45;&gt;Node6 -->
<g id="edge5" class="edge"><title>Node3&#45;&gt;Node6</title>
<path fill="none" stroke="midnightblue" d="M280.386,-54C288.788,-54 297.363,-54 305.741,-54"/>
<polygon fill="midnightblue" stroke="midnightblue" points="305.838,-57.5001 315.838,-54 305.838,-50.5001 305.838,-57.5001"/>
</g>
<!-- Node6&#45;&gt;Node4 -->
<g id="edge6" class="edge"><title>Node6&#45;&gt;Node4</title>
<path fill="none" stroke="midnightblue" d="M411.52,-63.5473C436.209,-70.0916 469.168,-78.8278 495.719,-85.8654"/>
<polygon fill="midnightblue" stroke="midnightblue" points="494.988,-89.2923 505.551,-88.4713 496.781,-82.5259 494.988,-89.2923"/>
</g>
<!-- Node6&#45;&gt;Node5 -->
<g id="edge7" class="edge"><title>Node6&#45;&gt;Node5</title>
<path fill="none" stroke="midnightblue" d="M411.008,-44.4615C428.47,-39.782 449.833,-34.074 469,-29 477.499,-26.75 486.563,-24.3641 495.301,-22.0708"/>
<polygon fill="midnightblue" stroke="midnightblue" points="496.195,-25.4548 504.98,-19.533 494.419,-18.6836 496.195,-25.4548"/>
</g>
<!-- Node7 -->
<g id="node7" class="node"><title>Node7</title>
<g id="a_node7"><a xlink:href="classDisplayObject.html#a64d01b5326cf6dae89928a7ad91b1283" target="_top" xlink:title="DisplayObject::refreshDisplay\lImage">
<polygon fill="white" stroke="black" points="469,-39 469,-69 616,-69 616,-39 469,-39"/>
<text text-anchor="start" x="477" y="-57" font-family="Helvetica,sans-Serif" font-size="10.00">DisplayObject::refreshDisplay</text>
<text text-anchor="middle" x="542.5" y="-46" font-family="Helvetica,sans-Serif" font-size="10.00">Image</text>
</a>
</g>
</g>
<!-- Node6&#45;&gt;Node7 -->
<g id="edge8" class="edge"><title>Node6&#45;&gt;Node7</title>
<path fill="none" stroke="midnightblue" d="M433.093,-54C441.371,-54 450.023,-54 458.672,-54"/>
<polygon fill="midnightblue" stroke="midnightblue" points="458.802,-57.5001 468.802,-54 458.802,-50.5001 458.802,-57.5001"/>
</g>
<!-- Node8 -->
<g id="node8" class="node"><title>Node8</title>
<g id="a_node8"><a xlink:href="classDisplayObject.html#aacc96a69c37767806090e1fa388be045" target="_top" xlink:title="DisplayObject::loadImage">
<polygon fill="white" stroke="black" points="652,-44.5 652,-63.5 781,-63.5 781,-44.5 652,-44.5"/>
<text text-anchor="middle" x="716.5" y="-51.5" font-family="Helvetica,sans-Serif" font-size="10.00">DisplayObject::loadImage</text>
</a>
</g>
</g>
<!-- Node7&#45;&gt;Node8 -->
<g id="edge9" class="edge"><title>Node7&#45;&gt;Node8</title>
<path fill="none" stroke="midnightblue" d="M616.443,-54C624.841,-54 633.408,-54 641.814,-54"/>
<polygon fill="midnightblue" stroke="midnightblue" points="641.967,-57.5001 651.967,-54 641.967,-50.5001 641.967,-57.5001"/>
</g>
</g>
</svg>
