<?xml version="1.0" encoding="UTF-8" standalone="no"?>
<!DOCTYPE svg PUBLIC "-//W3C//DTD SVG 1.1//EN"
 "http://www.w3.org/Graphics/SVG/1.1/DTD/svg11.dtd">
<!-- Generated by graphviz version 2.38.0 (20140413.2041)
 -->
<!-- Title: PListParser::parsePList Pages: 1 -->
<svg width="491pt" height="66pt"
 viewBox="0.00 0.00 491.00 66.00" xmlns="http://www.w3.org/2000/svg" xmlns:xlink="http://www.w3.org/1999/xlink">
<g id="graph0" class="graph" transform="scale(1 1) rotate(0) translate(4 62)">
<title>PListParser::parsePList</title>
<polygon fill="white" stroke="none" points="-4,4 -4,-62 487,-62 487,4 -4,4"/>
<!-- Node1 -->
<g id="node1" class="node"><title>Node1</title>
<polygon fill="#bfbfbf" stroke="black" points="0,-19.5 0,-38.5 120,-38.5 120,-19.5 0,-19.5"/>
<text text-anchor="middle" x="60" y="-26.5" font-family="Helvetica,sans-Serif" font-size="10.00">PListParser::parsePList</text>
</g>
<!-- Node2 -->
<g id="node2" class="node"><title>Node2</title>
<g id="a_node2"><a xlink:href="classPListParser.html#a23710a0d61733745542a2296393df556" target="_top" xlink:title="PListParser::parseElement">
<polygon fill="white" stroke="black" points="156,-19.5 156,-38.5 290,-38.5 290,-19.5 156,-19.5"/>
<text text-anchor="middle" x="223" y="-26.5" font-family="Helvetica,sans-Serif" font-size="10.00">PListParser::parseElement</text>
</a>
</g>
</g>
<!-- Node1&#45;&gt;Node2 -->
<g id="edge1" class="edge"><title>Node1&#45;&gt;Node2</title>
<path fill="none" stroke="midnightblue" d="M120.036,-29C128.422,-29 137.143,-29 145.797,-29"/>
<polygon fill="midnightblue" stroke="midnightblue" points="145.902,-32.5001 155.902,-29 145.902,-25.5001 145.902,-32.5001"/>
</g>
<!-- Node3 -->
<g id="node3" class="node"><title>Node3</title>
<g id="a_node3"><a xlink:href="classPListParser.html#a601716c73380ba67d8e6b0973aa0ee63" target="_top" xlink:title="PListParser::parseDictElement">
<polygon fill="white" stroke="black" points="328.5,-38.5 328.5,-57.5 480.5,-57.5 480.5,-38.5 328.5,-38.5"/>
<text text-anchor="middle" x="404.5" y="-45.5" font-family="Helvetica,sans-Serif" font-size="10.00">PListParser::parseDictElement</text>
</a>
</g>
</g>
<!-- Node2&#45;&gt;Node3 -->
<g id="edge2" class="edge"><title>Node2&#45;&gt;Node3</title>
<path fill="none" stroke="midnightblue" d="M290.074,-29.4572C312.137,-31.3865 336.256,-34.1133 356.559,-37.0162"/>
<polygon fill="midnightblue" stroke="midnightblue" points="356.086,-40.4844 366.494,-38.4995 357.12,-33.5611 356.086,-40.4844"/>
</g>
<!-- Node4 -->
<g id="node4" class="node"><title>Node4</title>
<g id="a_node4"><a xlink:href="classPListParser.html#ad3c04e6d8bd25a3bfe3cc24bad88284c" target="_top" xlink:title="PListParser::parseArrayElement">
<polygon fill="white" stroke="black" points="326,-0.5 326,-19.5 483,-19.5 483,-0.5 326,-0.5"/>
<text text-anchor="middle" x="404.5" y="-7.5" font-family="Helvetica,sans-Serif" font-size="10.00">PListParser::parseArrayElement</text>
</a>
</g>
</g>
<!-- Node2&#45;&gt;Node4 -->
<g id="edge4" class="edge"><title>Node2&#45;&gt;Node4</title>
<path fill="none" stroke="midnightblue" d="M261.193,-19.4705C277.108,-16.9883 296.427,-14.558 315.632,-12.5521"/>
<polygon fill="midnightblue" stroke="midnightblue" points="316.047,-16.0282 325.646,-11.5438 315.345,-9.06338 316.047,-16.0282"/>
</g>
<!-- Node3&#45;&gt;Node2 -->
<g id="edge3" class="edge"><title>Node3&#45;&gt;Node2</title>
<path fill="none" stroke="midnightblue" d="M328.223,-46.7033C308.87,-44.8667 288.595,-42.5041 271.126,-40.0102"/>
<polygon fill="midnightblue" stroke="midnightblue" points="271.599,-36.5422 261.193,-38.5295 270.567,-43.4657 271.599,-36.5422"/>
</g>
<!-- Node4&#45;&gt;Node2 -->
<g id="edge5" class="edge"><title>Node4&#45;&gt;Node2</title>
<path fill="none" stroke="midnightblue" d="M366.494,-19.5005C347.304,-22.4988 323.129,-25.4235 300.168,-27.6185"/>
<polygon fill="midnightblue" stroke="midnightblue" points="299.714,-24.1454 290.074,-28.5428 300.352,-31.1162 299.714,-24.1454"/>
</g>
</g>
</svg>
