<?xml version="1.0" encoding="UTF-8" standalone="no"?>
<!DOCTYPE svg PUBLIC "-//W3C//DTD SVG 1.1//EN"
 "http://www.w3.org/Graphics/SVG/1.1/DTD/svg11.dtd">
<!-- Generated by graphviz version 2.38.0 (20140413.2041)
 -->
<!-- Title: statisticSource::signal_statisticInformationChanged Pages: 1 -->
<svg width="477pt" height="50pt"
 viewBox="0.00 0.00 477.00 50.00" xmlns="http://www.w3.org/2000/svg" xmlns:xlink="http://www.w3.org/1999/xlink">
<g id="graph0" class="graph" transform="scale(1 1) rotate(0) translate(4 46)">
<title>statisticSource::signal_statisticInformationChanged</title>
<polygon fill="white" stroke="none" points="-4,4 -4,-46 473,-46 473,4 -4,4"/>
<!-- Node1 -->
<g id="node1" class="node"><title>Node1</title>
<polygon fill="#bfbfbf" stroke="black" points="0,-6 0,-36 144,-36 144,-6 0,-6"/>
<text text-anchor="start" x="8" y="-24" font-family="Helvetica,sans-Serif" font-size="10.00">statisticSource::signal</text>
<text text-anchor="middle" x="72" y="-13" font-family="Helvetica,sans-Serif" font-size="10.00">_statisticInformationChanged</text>
</g>
<!-- Node2 -->
<g id="node2" class="node"><title>Node2</title>
<g id="a_node2"><a xlink:href="classstatisticSourceFile.html#acc3ffa45de09a7cfc3f1b459fb1a0da6" target="_top" xlink:title="statisticSourceFile\l::readFrameAndTypePositions\lFromFile">
<polygon fill="white" stroke="black" points="180,-0.5 180,-41.5 329,-41.5 329,-0.5 180,-0.5"/>
<text text-anchor="start" x="188" y="-29.5" font-family="Helvetica,sans-Serif" font-size="10.00">statisticSourceFile</text>
<text text-anchor="start" x="188" y="-18.5" font-family="Helvetica,sans-Serif" font-size="10.00">::readFrameAndTypePositions</text>
<text text-anchor="middle" x="254.5" y="-7.5" font-family="Helvetica,sans-Serif" font-size="10.00">FromFile</text>
</a>
</g>
</g>
<!-- Node1&#45;&gt;Node2 -->
<g id="edge1" class="edge"><title>Node1&#45;&gt;Node2</title>
<path fill="none" stroke="midnightblue" d="M154.353,-21C162.836,-21 171.424,-21 179.815,-21"/>
<polygon fill="midnightblue" stroke="midnightblue" points="154.079,-17.5001 144.079,-21 154.079,-24.5001 154.079,-17.5001"/>
</g>
<!-- Node3 -->
<g id="node3" class="node"><title>Node3</title>
<g id="a_node3"><a xlink:href="classstatisticSourceFile.html#acbf3c85a7294a590dbebc5797da80a46" target="_top" xlink:title="statisticSourceFile\l::statisticSourceFile">
<polygon fill="white" stroke="black" points="365,-6 365,-36 469,-36 469,-6 365,-6"/>
<text text-anchor="start" x="373" y="-24" font-family="Helvetica,sans-Serif" font-size="10.00">statisticSourceFile</text>
<text text-anchor="middle" x="417" y="-13" font-family="Helvetica,sans-Serif" font-size="10.00">::statisticSourceFile</text>
</a>
</g>
</g>
<!-- Node2&#45;&gt;Node3 -->
<g id="edge2" class="edge"><title>Node2&#45;&gt;Node3</title>
<path fill="none" stroke="midnightblue" d="M339.348,-21C348.014,-21 356.624,-21 364.772,-21"/>
<polygon fill="midnightblue" stroke="midnightblue" points="339.174,-17.5001 329.174,-21 339.174,-24.5001 339.174,-17.5001"/>
</g>
</g>
</svg>
