<?xml version="1.0" encoding="UTF-8" standalone="no"?>
<!DOCTYPE svg PUBLIC "-//W3C//DTD SVG 1.1//EN"
 "http://www.w3.org/Graphics/SVG/1.1/DTD/svg11.dtd">
<!-- Generated by graphviz version 2.38.0 (20140413.2041)
 -->
<!-- Title: FrameObject::setSrcPixelFormat Pages: 1 -->
<svg width="1064pt" height="395pt"
 viewBox="0.00 0.00 1064.00 394.70" xmlns="http://www.w3.org/2000/svg" xmlns:xlink="http://www.w3.org/1999/xlink">
<g id="graph0" class="graph" transform="scale(1 1) rotate(0) translate(4 390.701)">
<title>FrameObject::setSrcPixelFormat</title>
<polygon fill="white" stroke="none" points="-4,4 -4,-390.701 1060,-390.701 1060,4 -4,4"/>
<!-- Node1 -->
<g id="node1" class="node"><title>Node1</title>
<polygon fill="#bfbfbf" stroke="black" points="0,-252.701 0,-282.701 129,-282.701 129,-252.701 0,-252.701"/>
<text text-anchor="start" x="8" y="-270.701" font-family="Helvetica,sans-Serif" font-size="10.00">FrameObject::setSrcPixel</text>
<text text-anchor="middle" x="64.5" y="-259.701" font-family="Helvetica,sans-Serif" font-size="10.00">Format</text>
</g>
<!-- Node2 -->
<g id="node2" class="node"><title>Node2</title>
<g id="a_node2"><a xlink:href="classYUVSource.html#a3b9129ee597809af82176876e40a215a" target="_top" xlink:title="YUVSource::setPixelFormat">
<polygon fill="white" stroke="black" points="731.5,-367.201 731.5,-386.201 871.5,-386.201 871.5,-367.201 731.5,-367.201"/>
<text text-anchor="middle" x="801.5" y="-374.201" font-family="Helvetica,sans-Serif" font-size="10.00">YUVSource::setPixelFormat</text>
</a>
</g>
</g>
<!-- Node1&#45;&gt;Node2 -->
<g id="edge1" class="edge"><title>Node1&#45;&gt;Node2</title>
<path fill="none" stroke="midnightblue" d="M125.356,-282.727C138.392,-285.834 152.134,-288.986 165,-291.701 325.871,-325.658 365.859,-337.265 529,-357.701 593.417,-365.771 666.893,-370.651 721.15,-373.442"/>
<polygon fill="midnightblue" stroke="midnightblue" points="721.23,-376.95 731.393,-373.955 721.581,-369.959 721.23,-376.95"/>
</g>
<!-- Node4 -->
<g id="node4" class="node"><title>Node4</title>
<g id="a_node4"><a xlink:href="classDisplayObject.html#a6de8d51bc677aa3956bd2d98228808b8" target="_top" xlink:title="DisplayObject::refreshNumber\lOfFrames">
<polygon fill="white" stroke="black" points="165,-171.701 165,-201.701 314,-201.701 314,-171.701 165,-171.701"/>
<text text-anchor="start" x="173" y="-189.701" font-family="Helvetica,sans-Serif" font-size="10.00">DisplayObject::refreshNumber</text>
<text text-anchor="middle" x="239.5" y="-178.701" font-family="Helvetica,sans-Serif" font-size="10.00">OfFrames</text>
</a>
</g>
</g>
<!-- Node1&#45;&gt;Node4 -->
<g id="edge3" class="edge"><title>Node1&#45;&gt;Node4</title>
<path fill="none" stroke="midnightblue" d="M97.6345,-252.656C125.706,-239.512 166.625,-220.354 197.136,-206.069"/>
<polygon fill="midnightblue" stroke="midnightblue" points="198.672,-209.214 206.244,-201.804 195.704,-202.874 198.672,-209.214"/>
</g>
<!-- Node7 -->
<g id="node7" class="node"><title>Node7</title>
<g id="a_node7"><a xlink:href="classFrameObject.html#ac42be5ded1448dde312e661e66c8730e" target="_top" xlink:title="FrameObject::refreshDisplay\lImage">
<polygon fill="white" stroke="black" points="168.5,-252.701 168.5,-282.701 310.5,-282.701 310.5,-252.701 168.5,-252.701"/>
<text text-anchor="start" x="176.5" y="-270.701" font-family="Helvetica,sans-Serif" font-size="10.00">FrameObject::refreshDisplay</text>
<text text-anchor="middle" x="239.5" y="-259.701" font-family="Helvetica,sans-Serif" font-size="10.00">Image</text>
</a>
</g>
</g>
<!-- Node1&#45;&gt;Node7 -->
<g id="edge6" class="edge"><title>Node1&#45;&gt;Node7</title>
<path fill="none" stroke="midnightblue" d="M129.427,-267.701C138.857,-267.701 148.672,-267.701 158.378,-267.701"/>
<polygon fill="midnightblue" stroke="midnightblue" points="158.434,-271.201 168.434,-267.701 158.434,-264.201 158.434,-271.201"/>
</g>
<!-- Node3 -->
<g id="node3" class="node"><title>Node3</title>
<g id="a_node3"><a xlink:href="classYUVSource.html#a592ce352c789f4f5789b11e052b58a33" target="_top" xlink:title="YUVSource::pixelFormat">
<polygon fill="white" stroke="black" points="923,-215.201 923,-234.201 1048,-234.201 1048,-215.201 923,-215.201"/>
<text text-anchor="middle" x="985.5" y="-222.201" font-family="Helvetica,sans-Serif" font-size="10.00">YUVSource::pixelFormat</text>
</a>
</g>
</g>
<!-- Node2&#45;&gt;Node3 -->
<g id="edge2" class="edge"><title>Node2&#45;&gt;Node3</title>
<path fill="none" stroke="midnightblue" d="M859.413,-367.071C866.307,-364.623 873.016,-361.552 879,-357.701 924.449,-328.453 958.92,-272.863 974.819,-243.677"/>
<polygon fill="midnightblue" stroke="midnightblue" points="978.07,-245.016 979.656,-234.541 971.884,-241.741 978.07,-245.016"/>
</g>
<!-- Node5 -->
<g id="node5" class="node"><title>Node5</title>
<g id="a_node5"><a xlink:href="classDisplayObject.html#a1ebfa41c2a5b6c2ed4d8490503d197c8" target="_top" xlink:title="DisplayObject::setEndFrame">
<polygon fill="white" stroke="black" points="350,-177.201 350,-196.201 493,-196.201 493,-177.201 350,-177.201"/>
<text text-anchor="middle" x="421.5" y="-184.201" font-family="Helvetica,sans-Serif" font-size="10.00">DisplayObject::setEndFrame</text>
</a>
</g>
</g>
<!-- Node4&#45;&gt;Node5 -->
<g id="edge4" class="edge"><title>Node4&#45;&gt;Node5</title>
<path fill="none" stroke="midnightblue" d="M314.232,-186.701C322.584,-186.701 331.129,-186.701 339.567,-186.701"/>
<polygon fill="midnightblue" stroke="midnightblue" points="339.786,-190.201 349.786,-186.701 339.786,-183.201 339.786,-190.201"/>
</g>
<!-- Node6 -->
<g id="node6" class="node"><title>Node6</title>
<g id="a_node6"><a xlink:href="classDisplayObject.html#a587ff96ee994001247bdb74df1001309" target="_top" xlink:title="DisplayObject::numFrames">
<polygon fill="white" stroke="black" points="353.5,-139.201 353.5,-158.201 489.5,-158.201 489.5,-139.201 353.5,-139.201"/>
<text text-anchor="middle" x="421.5" y="-146.201" font-family="Helvetica,sans-Serif" font-size="10.00">DisplayObject::numFrames</text>
</a>
</g>
</g>
<!-- Node4&#45;&gt;Node6 -->
<g id="edge5" class="edge"><title>Node4&#45;&gt;Node6</title>
<path fill="none" stroke="midnightblue" d="M311.641,-171.683C329.463,-167.92 348.317,-163.94 365.237,-160.368"/>
<polygon fill="midnightblue" stroke="midnightblue" points="366.434,-163.692 375.496,-158.202 364.988,-156.843 366.434,-163.692"/>
</g>
<!-- Node8 -->
<g id="node8" class="node"><title>Node8</title>
<g id="a_node8"><a xlink:href="classFrameObject.html#adfa8fc2528a422aba57c301f3c2a311c" target="_top" xlink:title="FrameObject::clearCurrent\lCache">
<polygon fill="white" stroke="black" points="355.5,-285.701 355.5,-315.701 487.5,-315.701 487.5,-285.701 355.5,-285.701"/>
<text text-anchor="start" x="363.5" y="-303.701" font-family="Helvetica,sans-Serif" font-size="10.00">FrameObject::clearCurrent</text>
<text text-anchor="middle" x="421.5" y="-292.701" font-family="Helvetica,sans-Serif" font-size="10.00">Cache</text>
</a>
</g>
</g>
<!-- Node7&#45;&gt;Node8 -->
<g id="edge7" class="edge"><title>Node7&#45;&gt;Node8</title>
<path fill="none" stroke="midnightblue" d="M310.608,-280.555C321.984,-282.64 333.806,-284.808 345.298,-286.914"/>
<polygon fill="midnightblue" stroke="midnightblue" points="344.824,-290.386 355.291,-288.746 346.086,-283.5 344.824,-290.386"/>
</g>
<!-- Node12 -->
<g id="node12" class="node"><title>Node12</title>
<g id="a_node12"><a xlink:href="classFrameObject.html#ad33aa12aedba2856ec54989d6eda2d49" target="_top" xlink:title="FrameObject::loadImage">
<polygon fill="white" stroke="black" points="359.5,-215.201 359.5,-234.201 483.5,-234.201 483.5,-215.201 359.5,-215.201"/>
<text text-anchor="middle" x="421.5" y="-222.201" font-family="Helvetica,sans-Serif" font-size="10.00">FrameObject::loadImage</text>
</a>
</g>
</g>
<!-- Node7&#45;&gt;Node12 -->
<g id="edge11" class="edge"><title>Node7&#45;&gt;Node12</title>
<path fill="none" stroke="midnightblue" d="M303.455,-252.662C325.498,-247.396 349.926,-241.561 370.739,-236.589"/>
<polygon fill="midnightblue" stroke="midnightblue" points="371.726,-239.951 380.639,-234.224 370.1,-233.143 371.726,-239.951"/>
</g>
<!-- Node9 -->
<g id="node9" class="node"><title>Node9</title>
<g id="a_node9"><a xlink:href="classYUVSource.html#a12174732ce70dfe8f1e5b842a532b8c9" target="_top" xlink:title="YUVSource::getName">
<polygon fill="white" stroke="black" points="551.5,-291.201 551.5,-310.201 665.5,-310.201 665.5,-291.201 551.5,-291.201"/>
<text text-anchor="middle" x="608.5" y="-298.201" font-family="Helvetica,sans-Serif" font-size="10.00">YUVSource::getName</text>
</a>
</g>
</g>
<!-- Node8&#45;&gt;Node9 -->
<g id="edge8" class="edge"><title>Node8&#45;&gt;Node9</title>
<path fill="none" stroke="midnightblue" d="M487.724,-300.701C505.116,-300.701 523.922,-300.701 541.362,-300.701"/>
<polygon fill="midnightblue" stroke="midnightblue" points="541.453,-304.201 551.453,-300.701 541.453,-297.201 541.453,-304.201"/>
</g>
<!-- Node10 -->
<g id="node10" class="node"><title>Node10</title>
<g id="a_node10"><a xlink:href="classFrameObject.html#a1069def130e7deac035f166084ae4ca8" target="_top" xlink:title="FrameObject::numFrames">
<polygon fill="white" stroke="black" points="543,-329.201 543,-348.201 674,-348.201 674,-329.201 543,-329.201"/>
<text text-anchor="middle" x="608.5" y="-336.201" font-family="Helvetica,sans-Serif" font-size="10.00">FrameObject::numFrames</text>
</a>
</g>
</g>
<!-- Node8&#45;&gt;Node10 -->
<g id="edge9" class="edge"><title>Node8&#45;&gt;Node10</title>
<path fill="none" stroke="midnightblue" d="M487.724,-314.099C508.459,-318.358 531.203,-323.03 551.249,-327.147"/>
<polygon fill="midnightblue" stroke="midnightblue" points="550.655,-330.598 561.155,-329.182 552.064,-323.741 550.655,-330.598"/>
</g>
<!-- Node11 -->
<g id="node11" class="node"><title>Node11</title>
<g id="a_node11"><a xlink:href="classYUVSource.html#afaf713d38c871df33f6e28e9d589c86c" target="_top" xlink:title="YUVSource::getNumberFrames">
<polygon fill="white" stroke="black" points="724,-329.201 724,-348.201 879,-348.201 879,-329.201 724,-329.201"/>
<text text-anchor="middle" x="801.5" y="-336.201" font-family="Helvetica,sans-Serif" font-size="10.00">YUVSource::getNumberFrames</text>
</a>
</g>
</g>
<!-- Node10&#45;&gt;Node11 -->
<g id="edge10" class="edge"><title>Node10&#45;&gt;Node11</title>
<path fill="none" stroke="midnightblue" d="M674.164,-338.701C686.841,-338.701 700.331,-338.701 713.597,-338.701"/>
<polygon fill="midnightblue" stroke="midnightblue" points="713.682,-342.201 723.682,-338.701 713.682,-335.201 713.682,-342.201"/>
</g>
<!-- Node12&#45;&gt;Node3 -->
<g id="edge14" class="edge"><title>Node12&#45;&gt;Node3</title>
<path fill="none" stroke="midnightblue" d="M483.714,-224.701C588.409,-224.701 801.323,-224.701 912.797,-224.701"/>
<polygon fill="midnightblue" stroke="midnightblue" points="912.935,-228.201 922.935,-224.701 912.935,-221.201 912.935,-228.201"/>
</g>
<!-- Node12&#45;&gt;Node9 -->
<g id="edge13" class="edge"><title>Node12&#45;&gt;Node9</title>
<path fill="none" stroke="midnightblue" d="M437.441,-234.281C457.534,-246.787 494.711,-268.62 529,-281.701 535.665,-284.244 542.781,-286.526 549.906,-288.552"/>
<polygon fill="midnightblue" stroke="midnightblue" points="549.02,-291.938 559.586,-291.154 550.838,-285.178 549.02,-291.938"/>
</g>
<!-- Node12&#45;&gt;Node10 -->
<g id="edge12" class="edge"><title>Node12&#45;&gt;Node10</title>
<path fill="none" stroke="midnightblue" d="M437.947,-234.205C452.845,-243.743 475.628,-259.333 493,-275.701 511.39,-293.029 507.609,-306.253 529,-319.701 532.376,-321.824 535.97,-323.709 539.693,-325.384"/>
<polygon fill="midnightblue" stroke="midnightblue" points="538.574,-328.705 549.16,-329.128 541.148,-322.195 538.574,-328.705"/>
</g>
<!-- Node13 -->
<g id="node13" class="node"><title>Node13</title>
<g id="a_node13"><a xlink:href="classYUVSource.html#aff9d7390aa2cdb93376c69ede52b1e30" target="_top" xlink:title="YUVSource::getOneFrame">
<polygon fill="white" stroke="black" points="541.5,-253.201 541.5,-272.201 675.5,-272.201 675.5,-253.201 541.5,-253.201"/>
<text text-anchor="middle" x="608.5" y="-260.201" font-family="Helvetica,sans-Serif" font-size="10.00">YUVSource::getOneFrame</text>
</a>
</g>
</g>
<!-- Node12&#45;&gt;Node13 -->
<g id="edge15" class="edge"><title>Node12&#45;&gt;Node13</title>
<path fill="none" stroke="midnightblue" d="M469.183,-234.29C494.146,-239.418 525.064,-245.769 551.334,-251.165"/>
<polygon fill="midnightblue" stroke="midnightblue" points="550.653,-254.598 561.152,-253.181 552.061,-247.741 550.653,-254.598"/>
</g>
<!-- Node14 -->
<g id="node14" class="node"><title>Node14</title>
<g id="a_node14"><a xlink:href="classFrameObject.html#a3157b2afa82e71a5ebd93ac6dd25de6b" target="_top" xlink:title="FrameObject::doApplyYUVMath">
<polygon fill="white" stroke="black" points="530,-177.201 530,-196.201 687,-196.201 687,-177.201 530,-177.201"/>
<text text-anchor="middle" x="608.5" y="-184.201" font-family="Helvetica,sans-Serif" font-size="10.00">FrameObject::doApplyYUVMath</text>
</a>
</g>
</g>
<!-- Node12&#45;&gt;Node14 -->
<g id="edge16" class="edge"><title>Node12&#45;&gt;Node14</title>
<path fill="none" stroke="midnightblue" d="M469.183,-215.112C494.146,-209.985 525.064,-203.634 551.334,-198.238"/>
<polygon fill="midnightblue" stroke="midnightblue" points="552.061,-201.662 561.152,-196.221 550.653,-194.805 552.061,-201.662"/>
</g>
<!-- Node15 -->
<g id="node15" class="node"><title>Node15</title>
<g id="a_node15"><a xlink:href="classFrameObject.html#a38084be9c862db6fea97d202231144ec" target="_top" xlink:title="FrameObject::applyYUVMath">
<polygon fill="white" stroke="black" points="536,-101.201 536,-120.201 681,-120.201 681,-101.201 536,-101.201"/>
<text text-anchor="middle" x="608.5" y="-108.201" font-family="Helvetica,sans-Serif" font-size="10.00">FrameObject::applyYUVMath</text>
</a>
</g>
</g>
<!-- Node12&#45;&gt;Node15 -->
<g id="edge17" class="edge"><title>Node12&#45;&gt;Node15</title>
<path fill="none" stroke="midnightblue" d="M477.245,-215.179C482.933,-212.707 488.33,-209.602 493,-205.701 521.686,-181.743 500.007,-153.288 529,-129.701 531.046,-128.037 533.216,-126.514 535.479,-125.121"/>
<polygon fill="midnightblue" stroke="midnightblue" points="537.357,-128.09 544.614,-120.371 534.127,-121.88 537.357,-128.09"/>
</g>
<!-- Node17 -->
<g id="node17" class="node"><title>Node17</title>
<g id="a_node17"><a xlink:href="classYUVSource.html#a7e554f2c626688704099e00cc4ece029" target="_top" xlink:title="YUVSource::pixelFormatList">
<polygon fill="white" stroke="black" points="915,-54.2014 915,-73.2014 1056,-73.2014 1056,-54.2014 915,-54.2014"/>
<text text-anchor="middle" x="985.5" y="-61.2014" font-family="Helvetica,sans-Serif" font-size="10.00">YUVSource::pixelFormatList</text>
</a>
</g>
</g>
<!-- Node12&#45;&gt;Node17 -->
<g id="edge23" class="edge"><title>Node12&#45;&gt;Node17</title>
<path fill="none" stroke="midnightblue" d="M480.16,-215.08C484.906,-212.603 489.294,-209.523 493,-205.701 541.331,-155.863 474.546,-96.765 529,-53.7014 655.731,46.52 870.218,-19.5594 951.736,-50.3613"/>
<polygon fill="midnightblue" stroke="midnightblue" points="950.859,-53.7741 961.449,-54.1041 953.376,-47.2423 950.859,-53.7741"/>
</g>
<!-- Node18 -->
<g id="node18" class="node"><title>Node18</title>
<g id="a_node18"><a xlink:href="classFrameObject.html#acd2367ffa54180853cd3ee901aa85304" target="_top" xlink:title="FrameObject::convertYUV2RGB">
<polygon fill="white" stroke="black" points="529,-63.2014 529,-82.2014 688,-82.2014 688,-63.2014 529,-63.2014"/>
<text text-anchor="middle" x="608.5" y="-70.2014" font-family="Helvetica,sans-Serif" font-size="10.00">FrameObject::convertYUV2RGB</text>
</a>
</g>
</g>
<!-- Node12&#45;&gt;Node18 -->
<g id="edge21" class="edge"><title>Node12&#45;&gt;Node18</title>
<path fill="none" stroke="midnightblue" d="M479.183,-215.132C484.247,-212.654 488.973,-209.56 493,-205.701 531.363,-168.94 490.166,-127.965 529,-91.7014 530.665,-90.1462 532.436,-88.7119 534.291,-87.3894"/>
<polygon fill="midnightblue" stroke="midnightblue" points="536.091,-90.3911 542.906,-82.2789 532.519,-84.3707 536.091,-90.3911"/>
</g>
<!-- Node19 -->
<g id="node19" class="node"><title>Node19</title>
<g id="a_node19"><a xlink:href="classDisplayObject.html#a790f4bdf4ecb24617ea7db5837c3048c" target="_top" xlink:title="DisplayObject::setInfo">
<polygon fill="white" stroke="black" points="551.5,-139.201 551.5,-158.201 665.5,-158.201 665.5,-139.201 551.5,-139.201"/>
<text text-anchor="middle" x="608.5" y="-146.201" font-family="Helvetica,sans-Serif" font-size="10.00">DisplayObject::setInfo</text>
</a>
</g>
</g>
<!-- Node12&#45;&gt;Node19 -->
<g id="edge24" class="edge"><title>Node12&#45;&gt;Node19</title>
<path fill="none" stroke="midnightblue" d="M471.71,-215.195C479.125,-212.711 486.468,-209.598 493,-205.701 512.98,-193.784 508.868,-179.361 529,-167.701 533.107,-165.323 537.499,-163.242 542.031,-161.42"/>
<polygon fill="midnightblue" stroke="midnightblue" points="543.247,-164.702 551.48,-158.034 540.885,-158.112 543.247,-164.702"/>
</g>
<!-- Node16 -->
<g id="node16" class="node"><title>Node16</title>
<g id="a_node16"><a xlink:href="classYUVSource.html#a11ea64b650d6086177fa0f7a1f3f323d" target="_top" xlink:title="YUVSource::bitsPerSample">
<polygon fill="white" stroke="black" points="732.5,-82.2014 732.5,-101.201 870.5,-101.201 870.5,-82.2014 732.5,-82.2014"/>
<text text-anchor="middle" x="801.5" y="-89.2014" font-family="Helvetica,sans-Serif" font-size="10.00">YUVSource::bitsPerSample</text>
</a>
</g>
</g>
<!-- Node15&#45;&gt;Node16 -->
<g id="edge18" class="edge"><title>Node15&#45;&gt;Node16</title>
<path fill="none" stroke="midnightblue" d="M681.165,-103.572C694.492,-102.247 708.482,-100.855 722.001,-99.5101"/>
<polygon fill="midnightblue" stroke="midnightblue" points="722.625,-102.965 732.229,-98.4927 721.932,-95.9998 722.625,-102.965"/>
</g>
<!-- Node16&#45;&gt;Node3 -->
<g id="edge20" class="edge"><title>Node16&#45;&gt;Node3</title>
<path fill="none" stroke="midnightblue" d="M815.589,-101.266C846.526,-123.874 924.426,-180.801 962.654,-208.737"/>
<polygon fill="midnightblue" stroke="midnightblue" points="960.9,-211.79 971.039,-214.864 965.03,-206.138 960.9,-211.79"/>
</g>
<!-- Node16&#45;&gt;Node17 -->
<g id="edge19" class="edge"><title>Node16&#45;&gt;Node17</title>
<path fill="none" stroke="midnightblue" d="M864.371,-82.1828C879.756,-79.8158 896.383,-77.2578 912.22,-74.8214"/>
<polygon fill="midnightblue" stroke="midnightblue" points="913.14,-78.2211 922.491,-73.2412 912.075,-71.3025 913.14,-78.2211"/>
</g>
<!-- Node18&#45;&gt;Node16 -->
<g id="edge22" class="edge"><title>Node18&#45;&gt;Node16</title>
<path fill="none" stroke="midnightblue" d="M688.014,-80.5116C699.279,-81.6322 710.87,-82.7853 722.132,-83.9056"/>
<polygon fill="midnightblue" stroke="midnightblue" points="722.066,-87.4162 732.364,-84.9234 722.759,-80.4506 722.066,-87.4162"/>
</g>
</g>
</svg>
