<?xml version="1.0" encoding="UTF-8" standalone="no"?>
<!DOCTYPE svg PUBLIC "-//W3C//DTD SVG 1.1//EN"
 "http://www.w3.org/Graphics/SVG/1.1/DTD/svg11.dtd">
<!-- Generated by graphviz version 2.38.0 (20140413.2041)
 -->
<!-- Title: de265File::getStatisticsEnabled Pages: 1 -->
<!--zoomable 242 -->
<svg id="main" version="1.1" xmlns="http://www.w3.org/2000/svg" xmlns:xlink="http://www.w3.org/1999/xlink" xml:space="preserve" onload="init(evt)">
<style type="text/css"><![CDATA[
.edge:hover path { stroke: red; }
.edge:hover polygon { stroke: red; fill: red; }
]]></style>
<script type="text/javascript"><![CDATA[
var edges = document.getElementsByTagName('g');
if (edges && edges.length) {
  for (var i=0;i<edges.length;i++) {
    if (edges[i].id.substr(0,4)=='edge') {
      edges[i].setAttribute('class','edge');
    }
  }
}
]]></script>
        <defs>
                <circle id="rim" cx="0" cy="0" r="7"/>
                <circle id="rim2" cx="0" cy="0" r="3.5"/>
                <g id="zoomPlus">
                        <use xlink:href="#rim" fill="#404040">
                                <set attributeName="fill" to="#808080" begin="zoomplus.mouseover" end="zoomplus.mouseout"/>
                        </use>
                        <path d="M-4,0h8M0,-4v8" fill="none" stroke="white" stroke-width="1.5" pointer-events="none"/>
                </g>
                <g id="zoomMin">
                        <use xlink:href="#rim" fill="#404040">
                                <set attributeName="fill" to="#808080" begin="zoomminus.mouseover" end="zoomminus.mouseout"/>
                        </use>
                        <path d="M-4,0h8" fill="none" stroke="white" stroke-width="1.5" pointer-events="none"/>
                </g>
                <g id="dirArrow">
                        <path fill="none" stroke="white" stroke-width="1.5" d="M0,-3.0v7 M-2.5,-0.5L0,-3.0L2.5,-0.5"/>
                </g>
               <g id="resetDef">
                       <use xlink:href="#rim2" fill="#404040">
                               <set attributeName="fill" to="#808080" begin="reset.mouseover" end="reset.mouseout"/>
                       </use>
               </g>
        </defs>

<script type="text/javascript">
var viewWidth = 853;
var viewHeight = 242;
var sectionId = 'dynsection-23';
</script>
<script xlink:href="svgpan.js"/>
<svg id="graph" class="graph">
<g id="viewport">
<title>de265File::getStatisticsEnabled</title>
<polygon fill="white" stroke="none" points="-4,4 -4,-237.5 849,-237.5 849,4 -4,4"/>
<!-- Node1 -->
<g id="node1" class="node"><title>Node1</title>
<polygon fill="#bfbfbf" stroke="black" points="0,-99 0,-129 119,-129 119,-99 0,-99"/>
<text text-anchor="start" x="8" y="-117" font-family="Helvetica,sans-Serif" font-size="10.00">de265File::getStatistics</text>
<text text-anchor="middle" x="59.5" y="-106" font-family="Helvetica,sans-Serif" font-size="10.00">Enabled</text>
</g>
<!-- Node2 -->
<g id="node2" class="node"><title>Node2</title>
<g id="a_node2"><a xlink:href="classMainWindow.html#a8ef1be3cb02e12d68d12375d1a7a0ced" target="_top" xlink:title="loads a list of yuv/csv files ">
<polygon fill="white" stroke="black" points="155,-104.5 155,-123.5 273,-123.5 273,-104.5 155,-104.5"/>
<text text-anchor="middle" x="214" y="-111.5" font-family="Helvetica,sans-Serif" font-size="10.00">MainWindow::loadFiles</text>
</a>
</g>
</g>
<!-- Node1&#45;&gt;Node2 -->
<g id="edge1" class="edge"><title>Node1&#45;&gt;Node2</title>
<path fill="none" stroke="midnightblue" d="M129.061,-114C137.685,-114 146.442,-114 154.884,-114"/>
<polygon fill="midnightblue" stroke="midnightblue" points="129.024,-110.5 119.024,-114 129.024,-117.5 129.024,-110.5"/>
</g>
<!-- Node3 -->
<g id="node3" class="node"><title>Node3</title>
<g id="a_node3"><a xlink:href="classDisplaySplitWidget.html#ac1d4ced58b2ac2b08153694a5de6232e" target="_top" xlink:title="DisplaySplitWidget\l::dropEvent">
<polygon fill="white" stroke="black" points="332.5,-203 332.5,-233 432.5,-233 432.5,-203 332.5,-203"/>
<text text-anchor="start" x="340.5" y="-221" font-family="Helvetica,sans-Serif" font-size="10.00">DisplaySplitWidget</text>
<text text-anchor="middle" x="382.5" y="-210" font-family="Helvetica,sans-Serif" font-size="10.00">::dropEvent</text>
</a>
</g>
</g>
<!-- Node2&#45;&gt;Node3 -->
<g id="edge2" class="edge"><title>Node2&#45;&gt;Node3</title>
<path fill="none" stroke="midnightblue" d="M231.223,-130.911C248.914,-148.517 278.762,-175.868 309,-193 316.298,-197.135 324.395,-200.749 332.455,-203.847"/>
<polygon fill="midnightblue" stroke="midnightblue" points="233.507,-128.241 223.993,-123.579 228.523,-133.157 233.507,-128.241"/>
</g>
<!-- Node4 -->
<g id="node4" class="node"><title>Node4</title>
<g id="a_node4"><a xlink:href="classMainWindow.html#a288b768c3c21a9171bdc56fe845ece8b" target="_top" xlink:title="Shows the file open dialog and loads all selected Files. ">
<polygon fill="white" stroke="black" points="324.5,-126.5 324.5,-145.5 440.5,-145.5 440.5,-126.5 324.5,-126.5"/>
<text text-anchor="middle" x="382.5" y="-133.5" font-family="Helvetica,sans-Serif" font-size="10.00">MainWindow::openFile</text>
</a>
</g>
</g>
<!-- Node2&#45;&gt;Node4 -->
<g id="edge3" class="edge"><title>Node2&#45;&gt;Node4</title>
<path fill="none" stroke="midnightblue" d="M283.504,-123.052C297.106,-124.849 311.251,-126.718 324.422,-128.458"/>
<polygon fill="midnightblue" stroke="midnightblue" points="283.606,-119.535 273.234,-121.695 282.689,-126.474 283.606,-119.535"/>
</g>
<!-- Node8 -->
<g id="node8" class="node"><title>Node8</title>
<g id="a_node8"><a xlink:href="classMainWindow.html#a935316315edb9b7af42657da20be0e54" target="_top" xlink:title="MainWindow::openRecentFile">
<polygon fill="white" stroke="black" points="309,-164.5 309,-183.5 456,-183.5 456,-164.5 309,-164.5"/>
<text text-anchor="middle" x="382.5" y="-171.5" font-family="Helvetica,sans-Serif" font-size="10.00">MainWindow::openRecentFile</text>
</a>
</g>
</g>
<!-- Node2&#45;&gt;Node8 -->
<g id="edge8" class="edge"><title>Node2&#45;&gt;Node8</title>
<path fill="none" stroke="midnightblue" d="M243.719,-127.911C262.099,-136.465 286.614,-147.237 309,-155 319.081,-158.496 330.142,-161.701 340.521,-164.444"/>
<polygon fill="midnightblue" stroke="midnightblue" points="244.99,-124.64 234.452,-123.544 242.006,-130.972 244.99,-124.64"/>
</g>
<!-- Node9 -->
<g id="node9" class="node"><title>Node9</title>
<g id="a_node9"><a xlink:href="classPlaylistTreeWidget.html#a295170eb269cc67050ea0b575cd0ab53" target="_top" xlink:title="PlaylistTreeWidget\l::dropEvent">
<polygon fill="white" stroke="black" points="333,-77 333,-107 432,-107 432,-77 333,-77"/>
<text text-anchor="start" x="341" y="-95" font-family="Helvetica,sans-Serif" font-size="10.00">PlaylistTreeWidget</text>
<text text-anchor="middle" x="382.5" y="-84" font-family="Helvetica,sans-Serif" font-size="10.00">::dropEvent</text>
</a>
</g>
</g>
<!-- Node2&#45;&gt;Node9 -->
<g id="edge10" class="edge"><title>Node2&#45;&gt;Node9</title>
<path fill="none" stroke="midnightblue" d="M283.446,-104.956C300.055,-102.762 317.476,-100.46 332.95,-98.4151"/>
<polygon fill="midnightblue" stroke="midnightblue" points="282.689,-101.526 273.234,-106.305 283.606,-108.465 282.689,-101.526"/>
</g>
<!-- Node10 -->
<g id="node10" class="node"><title>Node10</title>
<g id="a_node10"><a xlink:href="classYUViewApp.html#ac0f5381cc5b703a9ea704b5eedab4b7f" target="_top" xlink:title="YUViewApp::YUViewApp">
<polygon fill="white" stroke="black" points="318,-38.5 318,-57.5 447,-57.5 447,-38.5 318,-38.5"/>
<text text-anchor="middle" x="382.5" y="-45.5" font-family="Helvetica,sans-Serif" font-size="10.00">YUViewApp::YUViewApp</text>
</a>
</g>
</g>
<!-- Node2&#45;&gt;Node10 -->
<g id="edge11" class="edge"><title>Node2&#45;&gt;Node10</title>
<path fill="none" stroke="midnightblue" d="M241.236,-99.5226C259.773,-89.7036 285.417,-76.9344 309,-68 319.379,-64.0682 330.858,-60.5424 341.563,-57.5865"/>
<polygon fill="midnightblue" stroke="midnightblue" points="239.394,-96.5388 232.238,-104.352 242.705,-102.706 239.394,-96.5388"/>
</g>
<!-- Node11 -->
<g id="node11" class="node"><title>Node11</title>
<g id="a_node11"><a xlink:href="classYUViewApp.html#a2f5f937d6677018ef73a5ffc248f9891" target="_top" xlink:title="YUViewApp::event">
<polygon fill="white" stroke="black" points="332.5,-0.5 332.5,-19.5 432.5,-19.5 432.5,-0.5 332.5,-0.5"/>
<text text-anchor="middle" x="382.5" y="-7.5" font-family="Helvetica,sans-Serif" font-size="10.00">YUViewApp::event</text>
</a>
</g>
</g>
<!-- Node2&#45;&gt;Node11 -->
<g id="edge12" class="edge"><title>Node2&#45;&gt;Node11</title>
<path fill="none" stroke="midnightblue" d="M229.389,-96.747C246.435,-77.417 276.631,-46.5042 309,-29 316.211,-25.1007 324.263,-21.9698 332.306,-19.4654"/>
<polygon fill="midnightblue" stroke="midnightblue" points="226.596,-94.626 222.72,-104.486 231.899,-99.1951 226.596,-94.626"/>
</g>
<!-- Node5 -->
<g id="node5" class="node"><title>Node5</title>
<g id="a_node5"><a xlink:href="classMainWindow.html#a9df7443ce5f907903438bb6a9abe9a33" target="_top" xlink:title="MainWindow::createMenusAnd\lActions">
<polygon fill="white" stroke="black" points="507,-159 507,-189 659,-189 659,-159 507,-159"/>
<text text-anchor="start" x="515" y="-177" font-family="Helvetica,sans-Serif" font-size="10.00">MainWindow::createMenusAnd</text>
<text text-anchor="middle" x="583" y="-166" font-family="Helvetica,sans-Serif" font-size="10.00">Actions</text>
</a>
</g>
</g>
<!-- Node4&#45;&gt;Node5 -->
<g id="edge4" class="edge"><title>Node4&#45;&gt;Node5</title>
<path fill="none" stroke="midnightblue" d="M443.254,-147.439C463.298,-151.276 485.912,-155.605 506.974,-159.637"/>
<polygon fill="midnightblue" stroke="midnightblue" points="443.813,-143.983 433.334,-145.54 442.497,-150.858 443.813,-143.983"/>
</g>
<!-- Node7 -->
<g id="node7" class="node"><title>Node7</title>
<g id="a_node7"><a xlink:href="classMainWindow.html#aaba5c236313378986c42c4a634c4cfb9" target="_top" xlink:title="MainWindow::onCustomContextMenu">
<polygon fill="white" stroke="black" points="492,-120.5 492,-139.5 674,-139.5 674,-120.5 492,-120.5"/>
<text text-anchor="middle" x="583" y="-127.5" font-family="Helvetica,sans-Serif" font-size="10.00">MainWindow::onCustomContextMenu</text>
</a>
</g>
</g>
<!-- Node4&#45;&gt;Node7 -->
<g id="edge6" class="edge"><title>Node4&#45;&gt;Node7</title>
<path fill="none" stroke="midnightblue" d="M451.015,-133.959C464.189,-133.561 478.198,-133.138 491.968,-132.721"/>
<polygon fill="midnightblue" stroke="midnightblue" points="450.538,-130.472 440.648,-134.273 450.749,-137.469 450.538,-130.472"/>
</g>
<!-- Node6 -->
<g id="node6" class="node"><title>Node6</title>
<g id="a_node6"><a xlink:href="classMainWindow.html#a8b244be8b7b7db1b08de2a2acb9409db" target="_top" xlink:title="MainWindow::MainWindow">
<polygon fill="white" stroke="black" points="710,-142.5 710,-161.5 845,-161.5 845,-142.5 710,-142.5"/>
<text text-anchor="middle" x="777.5" y="-149.5" font-family="Helvetica,sans-Serif" font-size="10.00">MainWindow::MainWindow</text>
</a>
</g>
</g>
<!-- Node5&#45;&gt;Node6 -->
<g id="edge5" class="edge"><title>Node5&#45;&gt;Node6</title>
<path fill="none" stroke="midnightblue" d="M669.497,-164.229C682.989,-162.687 696.767,-161.112 709.752,-159.628"/>
<polygon fill="midnightblue" stroke="midnightblue" points="668.79,-160.787 659.253,-165.4 669.585,-167.742 668.79,-160.787"/>
</g>
<!-- Node7&#45;&gt;Node6 -->
<g id="edge7" class="edge"><title>Node7&#45;&gt;Node6</title>
<path fill="none" stroke="midnightblue" d="M677.363,-140.67C688.339,-141.924 699.365,-143.185 709.869,-144.385"/>
<polygon fill="midnightblue" stroke="midnightblue" points="677.646,-137.18 667.314,-139.522 676.852,-144.134 677.646,-137.18"/>
</g>
<!-- Node8&#45;&gt;Node5 -->
<g id="edge9" class="edge"><title>Node8&#45;&gt;Node5</title>
<path fill="none" stroke="midnightblue" d="M466.176,-174C479.605,-174 493.45,-174 506.691,-174"/>
<polygon fill="midnightblue" stroke="midnightblue" points="466.006,-170.5 456.006,-174 466.006,-177.5 466.006,-170.5"/>
</g>
</g>
</svg>
        <g id="navigator" transform="translate(0 0)" fill="#404254">
                <rect fill="#f2f5e9" fill-opacity="0.5" stroke="#606060" stroke-width=".5" x="0" y="0" width="60" height="60"/>
                <use id="zoomplus" xlink:href="#zoomPlus" x="17" y="9" onmousedown="handleZoom(evt,'in')"/>
                <use id="zoomminus" xlink:href="#zoomMin" x="42" y="9" onmousedown="handleZoom(evt,'out')"/>
                <use id="reset" xlink:href="#resetDef" x="30" y="36" onmousedown="handleReset()"/>
                <g id="arrowUp" xlink:href="#dirArrow" transform="translate(30 24)" onmousedown="handlePan(0,-1)">
                  <use xlink:href="#rim" fill="#404040">
                        <set attributeName="fill" to="#808080" begin="arrowUp.mouseover" end="arrowUp.mouseout"/>
                  </use>
                  <path fill="none" stroke="white" stroke-width="1.5" d="M0,-3.0v7 M-2.5,-0.5L0,-3.0L2.5,-0.5"/>
                </g>
                <g id="arrowRight" xlink:href="#dirArrow" transform="rotate(90) translate(36 -43)" onmousedown="handlePan(1,0)">
                  <use xlink:href="#rim" fill="#404040">
                        <set attributeName="fill" to="#808080" begin="arrowRight.mouseover" end="arrowRight.mouseout"/>
                  </use>
                  <path fill="none" stroke="white" stroke-width="1.5" d="M0,-3.0v7 M-2.5,-0.5L0,-3.0L2.5,-0.5"/>
                </g>
                <g id="arrowDown" xlink:href="#dirArrow" transform="rotate(180) translate(-30 -48)" onmousedown="handlePan(0,1)">
                  <use xlink:href="#rim" fill="#404040">
                        <set attributeName="fill" to="#808080" begin="arrowDown.mouseover" end="arrowDown.mouseout"/>
                  </use>
                  <path fill="none" stroke="white" stroke-width="1.5" d="M0,-3.0v7 M-2.5,-0.5L0,-3.0L2.5,-0.5"/>
                </g>
                <g id="arrowLeft" xlink:href="#dirArrow" transform="rotate(270) translate(-36 17)" onmousedown="handlePan(-1,0)">
                  <use xlink:href="#rim" fill="#404040">
                        <set attributeName="fill" to="#808080" begin="arrowLeft.mouseover" end="arrowLeft.mouseout"/>
                  </use>
                  <path fill="none" stroke="white" stroke-width="1.5" d="M0,-3.0v7 M-2.5,-0.5L0,-3.0L2.5,-0.5"/>
                </g>
        </g>
        <svg viewBox="0 0 15 15" width="100%" height="30px" preserveAspectRatio="xMaxYMin meet">
         <g id="arrow_out" transform="scale(0.3 0.3)">
          <a xlink:href="classde265File_abc835a56ab7b007650cc1611239ee4da_icgraph_org.svg" target="_base">
           <rect id="button" ry="5" rx="5" y="6" x="6" height="38" width="38"
                fill="#f2f5e9" fill-opacity="0.5" stroke="#606060" stroke-width="1.0"/>
           <path id="arrow"
             d="M 11.500037,31.436501 C 11.940474,20.09759 22.043105,11.32322 32.158766,21.979434 L 37.068811,17.246167 C 37.068811,17.246167 37.088388,32 37.088388,32 L 22.160133,31.978069 C 22.160133,31.978069 26.997745,27.140456 26.997745,27.140456 C 18.528582,18.264221 13.291696,25.230495 11.500037,31.436501 z"
             style="fill:#404040;"/>
          </a>
         </g>
        </svg>
</svg>
