<?xml version="1.0" encoding="UTF-8" standalone="no"?>
<!DOCTYPE svg PUBLIC "-//W3C//DTD SVG 1.1//EN"
 "http://www.w3.org/Graphics/SVG/1.1/DTD/svg11.dtd">
<!-- Generated by graphviz version 2.38.0 (20140413.2041)
 -->
<!-- Title: DisplayWidget::DisplayWidgetWidth Pages: 1 -->
<svg width="597pt" height="230pt"
 viewBox="0.00 0.00 597.00 230.00" xmlns="http://www.w3.org/2000/svg" xmlns:xlink="http://www.w3.org/1999/xlink">
<g id="graph0" class="graph" transform="scale(1 1) rotate(0) translate(4 226)">
<title>DisplayWidget::DisplayWidgetWidth</title>
<polygon fill="white" stroke="none" points="-4,4 -4,-226 593,-226 593,4 -4,4"/>
<!-- Node1 -->
<g id="node1" class="node"><title>Node1</title>
<polygon fill="#bfbfbf" stroke="black" points="0,-98.5 0,-128.5 150,-128.5 150,-98.5 0,-98.5"/>
<text text-anchor="start" x="8" y="-116.5" font-family="Helvetica,sans-Serif" font-size="10.00">DisplayWidget::DisplayWidget</text>
<text text-anchor="middle" x="75" y="-105.5" font-family="Helvetica,sans-Serif" font-size="10.00">Width</text>
</g>
<!-- Node2 -->
<g id="node2" class="node"><title>Node2</title>
<g id="a_node2"><a xlink:href="classDisplaySplitWidget.html#ac88b455e49d13fb34439e45838e468d9" target="_top" xlink:title="DisplaySplitWidget\l::updateView">
<polygon fill="white" stroke="black" points="186,-98.5 186,-128.5 286,-128.5 286,-98.5 186,-98.5"/>
<text text-anchor="start" x="194" y="-116.5" font-family="Helvetica,sans-Serif" font-size="10.00">DisplaySplitWidget</text>
<text text-anchor="middle" x="236" y="-105.5" font-family="Helvetica,sans-Serif" font-size="10.00">::updateView</text>
</a>
</g>
</g>
<!-- Node1&#45;&gt;Node2 -->
<g id="edge1" class="edge"><title>Node1&#45;&gt;Node2</title>
<path fill="none" stroke="midnightblue" d="M160.485,-113.5C169.083,-113.5 177.603,-113.5 185.641,-113.5"/>
<polygon fill="midnightblue" stroke="midnightblue" points="160.379,-110 150.379,-113.5 160.379,-117 160.379,-110"/>
</g>
<!-- Node3 -->
<g id="node3" class="node"><title>Node3</title>
<g id="a_node3"><a xlink:href="classDisplaySplitWidget.html#af09b165924f8be5a31873f3b11c8b3f9" target="_top" xlink:title="DisplaySplitWidget\l::resetViews">
<polygon fill="white" stroke="black" points="322,-186.5 322,-216.5 422,-216.5 422,-186.5 322,-186.5"/>
<text text-anchor="start" x="330" y="-204.5" font-family="Helvetica,sans-Serif" font-size="10.00">DisplaySplitWidget</text>
<text text-anchor="middle" x="372" y="-193.5" font-family="Helvetica,sans-Serif" font-size="10.00">::resetViews</text>
</a>
</g>
</g>
<!-- Node2&#45;&gt;Node3 -->
<g id="edge2" class="edge"><title>Node2&#45;&gt;Node3</title>
<path fill="none" stroke="midnightblue" d="M266.974,-134.484C283.143,-145.669 303.52,-159.549 322,-171.5 329.706,-176.484 338.201,-181.76 345.924,-186.474"/>
<polygon fill="midnightblue" stroke="midnightblue" points="268.674,-131.404 258.463,-128.577 264.683,-137.154 268.674,-131.404"/>
</g>
<!-- Node5 -->
<g id="node5" class="node"><title>Node5</title>
<g id="a_node5"><a xlink:href="classDisplaySplitWidget.html#a0c0ae7b4fb7ddc344fec1a59034b771b" target="_top" xlink:title="DisplaySplitWidget\l::zoomToStandard">
<polygon fill="white" stroke="black" points="473.5,-142.5 473.5,-172.5 573.5,-172.5 573.5,-142.5 473.5,-142.5"/>
<text text-anchor="start" x="481.5" y="-160.5" font-family="Helvetica,sans-Serif" font-size="10.00">DisplaySplitWidget</text>
<text text-anchor="middle" x="523.5" y="-149.5" font-family="Helvetica,sans-Serif" font-size="10.00">::zoomToStandard</text>
</a>
</g>
</g>
<!-- Node2&#45;&gt;Node5 -->
<g id="edge5" class="edge"><title>Node2&#45;&gt;Node5</title>
<path fill="none" stroke="midnightblue" d="M292.177,-131.389C302.029,-134.106 312.258,-136.624 322,-138.5 372.986,-148.32 432.287,-153.14 473.099,-155.457"/>
<polygon fill="midnightblue" stroke="midnightblue" points="293.059,-128.001 282.483,-128.622 291.138,-134.732 293.059,-128.001"/>
</g>
<!-- Node6 -->
<g id="node6" class="node"><title>Node6</title>
<g id="a_node6"><a xlink:href="classDisplaySplitWidget.html#a85aefaa2dbd64ebf686448a2c006f96d" target="_top" xlink:title="DisplaySplitWidget\l::setSplitEnabled">
<polygon fill="white" stroke="black" points="322,-98.5 322,-128.5 422,-128.5 422,-98.5 322,-98.5"/>
<text text-anchor="start" x="330" y="-116.5" font-family="Helvetica,sans-Serif" font-size="10.00">DisplaySplitWidget</text>
<text text-anchor="middle" x="372" y="-105.5" font-family="Helvetica,sans-Serif" font-size="10.00">::setSplitEnabled</text>
</a>
</g>
</g>
<!-- Node2&#45;&gt;Node6 -->
<g id="edge6" class="edge"><title>Node2&#45;&gt;Node6</title>
<path fill="none" stroke="midnightblue" d="M296.398,-113.5C304.909,-113.5 313.586,-113.5 321.87,-113.5"/>
<polygon fill="midnightblue" stroke="midnightblue" points="296.136,-110 286.136,-113.5 296.136,-117 296.136,-110"/>
</g>
<!-- Node7 -->
<g id="node7" class="node"><title>Node7</title>
<g id="a_node7"><a xlink:href="classDisplaySplitWidget.html#a2c0dcc84e9609d30e1eadd8340493e0b" target="_top" xlink:title="DisplaySplitWidget\l::resizeEvent">
<polygon fill="white" stroke="black" points="322,-49.5 322,-79.5 422,-79.5 422,-49.5 322,-49.5"/>
<text text-anchor="start" x="330" y="-67.5" font-family="Helvetica,sans-Serif" font-size="10.00">DisplaySplitWidget</text>
<text text-anchor="middle" x="372" y="-56.5" font-family="Helvetica,sans-Serif" font-size="10.00">::resizeEvent</text>
</a>
</g>
</g>
<!-- Node2&#45;&gt;Node7 -->
<g id="edge7" class="edge"><title>Node2&#45;&gt;Node7</title>
<path fill="none" stroke="midnightblue" d="M288.088,-94.8184C301.812,-89.7999 316.482,-84.4357 329.608,-79.6359"/>
<polygon fill="midnightblue" stroke="midnightblue" points="286.488,-91.6771 278.298,-98.3986 288.892,-98.2513 286.488,-91.6771"/>
</g>
<!-- Node8 -->
<g id="node8" class="node"><title>Node8</title>
<g id="a_node8"><a xlink:href="classDisplaySplitWidget.html#abe7686903d7727bd0f882dc68459f22d" target="_top" xlink:title="DisplaySplitWidget\l::setViewMode">
<polygon fill="white" stroke="black" points="322,-0.5 322,-30.5 422,-30.5 422,-0.5 322,-0.5"/>
<text text-anchor="start" x="330" y="-18.5" font-family="Helvetica,sans-Serif" font-size="10.00">DisplaySplitWidget</text>
<text text-anchor="middle" x="372" y="-7.5" font-family="Helvetica,sans-Serif" font-size="10.00">::setViewMode</text>
</a>
</g>
</g>
<!-- Node2&#45;&gt;Node8 -->
<g id="edge8" class="edge"><title>Node2&#45;&gt;Node8</title>
<path fill="none" stroke="midnightblue" d="M259.885,-91.2021C276.341,-75.8497 299.508,-55.5823 322,-40.5 327.235,-36.9896 333.028,-33.6276 338.743,-30.5707"/>
<polygon fill="midnightblue" stroke="midnightblue" points="257.24,-88.8862 252.378,-98.2997 262.049,-93.9727 257.24,-88.8862"/>
</g>
<!-- Node4 -->
<g id="node4" class="node"><title>Node4</title>
<g id="a_node4"><a xlink:href="classDisplaySplitWidget.html#a6ac792979681575417245e357cdadb69" target="_top" xlink:title="DisplaySplitWidget\l::setActiveDisplayObjects">
<polygon fill="white" stroke="black" points="458,-191.5 458,-221.5 589,-221.5 589,-191.5 458,-191.5"/>
<text text-anchor="start" x="466" y="-209.5" font-family="Helvetica,sans-Serif" font-size="10.00">DisplaySplitWidget</text>
<text text-anchor="middle" x="523.5" y="-198.5" font-family="Helvetica,sans-Serif" font-size="10.00">::setActiveDisplayObjects</text>
</a>
</g>
</g>
<!-- Node3&#45;&gt;Node4 -->
<g id="edge3" class="edge"><title>Node3&#45;&gt;Node4</title>
<path fill="none" stroke="midnightblue" d="M432.443,-203.488C440.839,-203.769 449.503,-204.059 457.988,-204.342"/>
<polygon fill="midnightblue" stroke="midnightblue" points="432.478,-199.987 422.366,-203.151 432.244,-206.983 432.478,-199.987"/>
</g>
<!-- Node3&#45;&gt;Node5 -->
<g id="edge4" class="edge"><title>Node3&#45;&gt;Node5</title>
<path fill="none" stroke="midnightblue" d="M432.169,-184.086C445.845,-180.061 460.25,-175.821 473.441,-171.939"/>
<polygon fill="midnightblue" stroke="midnightblue" points="430.971,-180.79 422.366,-186.971 432.948,-187.505 430.971,-180.79"/>
</g>
</g>
</svg>
