<?xml version="1.0" encoding="UTF-8" standalone="no"?>
<!DOCTYPE svg PUBLIC "-//W3C//DTD SVG 1.1//EN"
 "http://www.w3.org/Graphics/SVG/1.1/DTD/svg11.dtd">
<!-- Generated by graphviz version 2.38.0 (20140413.2041)
 -->
<!-- Title: de265File::loadStatisticToCache Pages: 1 -->
<svg width="1435pt" height="385pt"
 viewBox="0.00 0.00 1435.00 385.00" xmlns="http://www.w3.org/2000/svg" xmlns:xlink="http://www.w3.org/1999/xlink">
<g id="graph0" class="graph" transform="scale(1 1) rotate(0) translate(4 381)">
<title>de265File::loadStatisticToCache</title>
<polygon fill="white" stroke="none" points="-4,4 -4,-381 1431,-381 1431,4 -4,4"/>
<!-- Node1 -->
<g id="node1" class="node"><title>Node1</title>
<polygon fill="#bfbfbf" stroke="black" points="0,-134 0,-164 119,-164 119,-134 0,-134"/>
<text text-anchor="start" x="8" y="-152" font-family="Helvetica,sans-Serif" font-size="10.00">de265File::loadStatistic</text>
<text text-anchor="middle" x="59.5" y="-141" font-family="Helvetica,sans-Serif" font-size="10.00">ToCache</text>
</g>
<!-- Node2 -->
<g id="node2" class="node"><title>Node2</title>
<g id="a_node2"><a xlink:href="classde265File.html#a4778a7853c318063a9efd5f0990e79bf" target="_top" xlink:title="de265File::getOneFrame">
<polygon fill="white" stroke="black" points="155,-139.5 155,-158.5 279,-158.5 279,-139.5 155,-139.5"/>
<text text-anchor="middle" x="217" y="-146.5" font-family="Helvetica,sans-Serif" font-size="10.00">de265File::getOneFrame</text>
</a>
</g>
</g>
<!-- Node1&#45;&gt;Node2 -->
<g id="edge1" class="edge"><title>Node1&#45;&gt;Node2</title>
<path fill="none" stroke="midnightblue" d="M119.288,-149C127.542,-149 136.101,-149 144.559,-149"/>
<polygon fill="midnightblue" stroke="midnightblue" points="144.799,-152.5 154.799,-149 144.799,-145.5 144.799,-152.5"/>
</g>
<!-- Node3 -->
<g id="node3" class="node"><title>Node3</title>
<g id="a_node3"><a xlink:href="classde265File.html#a11e810b8338cce1574a5a66a7de4121f" target="_top" xlink:title="de265File::allocateNewDecoder">
<polygon fill="white" stroke="black" points="694,-256.5 694,-275.5 849,-275.5 849,-256.5 694,-256.5"/>
<text text-anchor="middle" x="771.5" y="-263.5" font-family="Helvetica,sans-Serif" font-size="10.00">de265File::allocateNewDecoder</text>
</a>
</g>
</g>
<!-- Node2&#45;&gt;Node3 -->
<g id="edge2" class="edge"><title>Node2&#45;&gt;Node3</title>
<path fill="none" stroke="midnightblue" d="M240.945,-158.55C260.487,-166.547 289.387,-178.057 315,-187 400.608,-216.892 420.882,-230.262 510,-247 567.345,-257.77 632.854,-262.514 683.834,-264.568"/>
<polygon fill="midnightblue" stroke="midnightblue" points="683.705,-268.065 693.829,-264.944 683.968,-261.07 683.705,-268.065"/>
</g>
<!-- Node4 -->
<g id="node4" class="node"><title>Node4</title>
<g id="a_node4"><a xlink:href="classde265File.html#a948bfcc1b2c4ad6f0a3aa54b99f9553f" target="_top" xlink:title="de265File::backgroundDecoder">
<polygon fill="white" stroke="black" points="318.5,-158.5 318.5,-177.5 470.5,-177.5 470.5,-158.5 318.5,-158.5"/>
<text text-anchor="middle" x="394.5" y="-165.5" font-family="Helvetica,sans-Serif" font-size="10.00">de265File::backgroundDecoder</text>
</a>
</g>
</g>
<!-- Node2&#45;&gt;Node4 -->
<g id="edge3" class="edge"><title>Node2&#45;&gt;Node4</title>
<path fill="none" stroke="midnightblue" d="M279.381,-155.645C288.698,-156.654 298.453,-157.71 308.167,-158.762"/>
<polygon fill="midnightblue" stroke="midnightblue" points="307.938,-162.257 318.257,-159.854 308.692,-155.298 307.938,-162.257"/>
</g>
<!-- Node29 -->
<g id="node29" class="node"><title>Node29</title>
<g id="a_node29"><a xlink:href="classde265File.html#a55079c881a5b49af1ff6802a013d6b05" target="_top" xlink:title="de265File::addEmptyBuffer">
<polygon fill="white" stroke="black" points="516.5,-92.5 516.5,-111.5 651.5,-111.5 651.5,-92.5 516.5,-92.5"/>
<text text-anchor="middle" x="584" y="-99.5" font-family="Helvetica,sans-Serif" font-size="10.00">de265File::addEmptyBuffer</text>
</a>
</g>
</g>
<!-- Node2&#45;&gt;Node29 -->
<g id="edge44" class="edge"><title>Node2&#45;&gt;Node29</title>
<path fill="none" stroke="midnightblue" d="M279.093,-141.133C341.539,-133.092 438.693,-120.582 506.282,-111.879"/>
<polygon fill="midnightblue" stroke="midnightblue" points="506.978,-115.318 516.449,-110.57 506.084,-108.375 506.978,-115.318"/>
</g>
<!-- Node30 -->
<g id="node30" class="node"><title>Node30</title>
<g id="a_node30"><a xlink:href="classde265File.html#a103231047037b251147ecbf2a71bc561" target="_top" xlink:title="de265File::popImageFromOutput\lBuffer">
<polygon fill="white" stroke="black" points="315,-71 315,-101 474,-101 474,-71 315,-71"/>
<text text-anchor="start" x="323" y="-89" font-family="Helvetica,sans-Serif" font-size="10.00">de265File::popImageFromOutput</text>
<text text-anchor="middle" x="394.5" y="-78" font-family="Helvetica,sans-Serif" font-size="10.00">Buffer</text>
</a>
</g>
</g>
<!-- Node2&#45;&gt;Node30 -->
<g id="edge43" class="edge"><title>Node2&#45;&gt;Node30</title>
<path fill="none" stroke="midnightblue" d="M244.655,-139.432C270.377,-130.198 310.004,-115.973 341.905,-104.521"/>
<polygon fill="midnightblue" stroke="midnightblue" points="343.304,-107.738 351.533,-101.065 340.939,-101.15 343.304,-107.738"/>
</g>
<!-- Node5 -->
<g id="node5" class="node"><title>Node5</title>
<g id="a_node5"><a xlink:href="classde265File.html#ac9886a2f36ab86cd737480327a8e1169" target="_top" xlink:title="de265File::getEmptyBuffer">
<polygon fill="white" stroke="black" points="517.5,-180.5 517.5,-199.5 650.5,-199.5 650.5,-180.5 517.5,-180.5"/>
<text text-anchor="middle" x="584" y="-187.5" font-family="Helvetica,sans-Serif" font-size="10.00">de265File::getEmptyBuffer</text>
</a>
</g>
</g>
<!-- Node4&#45;&gt;Node5 -->
<g id="edge4" class="edge"><title>Node4&#45;&gt;Node5</title>
<path fill="none" stroke="midnightblue" d="M470.683,-176.821C482.782,-178.241 495.31,-179.711 507.418,-181.132"/>
<polygon fill="midnightblue" stroke="midnightblue" points="507.131,-184.622 517.471,-182.311 507.947,-177.67 507.131,-184.622"/>
</g>
<!-- Node6 -->
<g id="node6" class="node"><title>Node6</title>
<g id="a_node6"><a xlink:href="classde265File.html#af2a66d6d47d74d992f61da5048d90538" target="_top" xlink:title="de265File::decodeOnePicture">
<polygon fill="white" stroke="black" points="511.5,-218.5 511.5,-237.5 656.5,-237.5 656.5,-218.5 511.5,-218.5"/>
<text text-anchor="middle" x="584" y="-225.5" font-family="Helvetica,sans-Serif" font-size="10.00">de265File::decodeOnePicture</text>
</a>
</g>
</g>
<!-- Node4&#45;&gt;Node6 -->
<g id="edge5" class="edge"><title>Node4&#45;&gt;Node6</title>
<path fill="none" stroke="midnightblue" d="M420.301,-177.605C443.349,-186.357 478.727,-199.352 510,-209 517.74,-211.388 526.001,-213.731 534.08,-215.912"/>
<polygon fill="midnightblue" stroke="midnightblue" points="533.234,-219.308 543.797,-218.483 535.025,-212.541 533.234,-219.308"/>
</g>
<!-- Node28 -->
<g id="node28" class="node"><title>Node28</title>
<g id="a_node28"><a xlink:href="classde265File.html#ab871a9b271079bdd6e431661d07bdb7b" target="_top" xlink:title="de265File::addImageToOutput\lBuffer">
<polygon fill="white" stroke="black" points="510,-131 510,-161 658,-161 658,-131 510,-131"/>
<text text-anchor="start" x="518" y="-149" font-family="Helvetica,sans-Serif" font-size="10.00">de265File::addImageToOutput</text>
<text text-anchor="middle" x="584" y="-138" font-family="Helvetica,sans-Serif" font-size="10.00">Buffer</text>
</a>
</g>
</g>
<!-- Node4&#45;&gt;Node28 -->
<g id="edge41" class="edge"><title>Node4&#45;&gt;Node28</title>
<path fill="none" stroke="midnightblue" d="M470.683,-159.179C480.286,-158.052 490.16,-156.893 499.88,-155.753"/>
<polygon fill="midnightblue" stroke="midnightblue" points="500.411,-159.215 509.935,-154.573 499.595,-152.262 500.411,-159.215"/>
</g>
<!-- Node4&#45;&gt;Node29 -->
<g id="edge42" class="edge"><title>Node4&#45;&gt;Node29</title>
<path fill="none" stroke="midnightblue" d="M434.206,-158.433C447.14,-154.645 461.45,-149.796 474,-144 491.237,-136.04 492.599,-128.596 510,-121 515.459,-118.617 521.283,-116.481 527.169,-114.58"/>
<polygon fill="midnightblue" stroke="midnightblue" points="528.513,-117.83 537.081,-111.599 526.497,-111.127 528.513,-117.83"/>
</g>
<!-- Node6&#45;&gt;Node3 -->
<g id="edge40" class="edge"><title>Node6&#45;&gt;Node3</title>
<path fill="none" stroke="midnightblue" d="M631.809,-237.589C656.84,-242.716 687.841,-249.067 714.182,-254.463"/>
<polygon fill="midnightblue" stroke="midnightblue" points="713.528,-257.902 724.027,-256.48 714.933,-251.044 713.528,-257.902"/>
</g>
<!-- Node7 -->
<g id="node7" class="node"><title>Node7</title>
<g id="a_node7"><a xlink:href="classde265File.html#a98ca47c8bd383ae4aab828fff7e964bd" target="_top" xlink:title="de265File::getNumberFrames">
<polygon fill="white" stroke="black" points="698.5,-218.5 698.5,-237.5 844.5,-237.5 844.5,-218.5 698.5,-218.5"/>
<text text-anchor="middle" x="771.5" y="-225.5" font-family="Helvetica,sans-Serif" font-size="10.00">de265File::getNumberFrames</text>
</a>
</g>
</g>
<!-- Node6&#45;&gt;Node7 -->
<g id="edge6" class="edge"><title>Node6&#45;&gt;Node7</title>
<path fill="none" stroke="midnightblue" d="M656.719,-228C667.072,-228 677.794,-228 688.331,-228"/>
<polygon fill="midnightblue" stroke="midnightblue" points="688.36,-231.5 698.36,-228 688.36,-224.5 688.36,-231.5"/>
</g>
<!-- Node8 -->
<g id="node8" class="node"><title>Node8</title>
<g id="a_node8"><a xlink:href="classde265File.html#a3c517644cd5710d54289b2cdba99babc" target="_top" xlink:title="de265File::copyImgTo444Buffer">
<polygon fill="white" stroke="black" points="694,-180.5 694,-199.5 849,-199.5 849,-180.5 694,-180.5"/>
<text text-anchor="middle" x="771.5" y="-187.5" font-family="Helvetica,sans-Serif" font-size="10.00">de265File::copyImgTo444Buffer</text>
</a>
</g>
</g>
<!-- Node6&#45;&gt;Node8 -->
<g id="edge7" class="edge"><title>Node6&#45;&gt;Node8</title>
<path fill="none" stroke="midnightblue" d="M631.809,-218.411C656.84,-213.284 687.841,-206.933 714.182,-201.537"/>
<polygon fill="midnightblue" stroke="midnightblue" points="714.933,-204.956 724.027,-199.52 713.528,-198.098 714.933,-204.956"/>
</g>
<!-- Node23 -->
<g id="node23" class="node"><title>Node23</title>
<g id="a_node23"><a xlink:href="classde265File.html#a5d29707bcf85c62b6979f2b1d28ea5b9" target="_top" xlink:title="de265File::cacheStatistics">
<polygon fill="white" stroke="black" points="705.5,-85.5 705.5,-104.5 837.5,-104.5 837.5,-85.5 705.5,-85.5"/>
<text text-anchor="middle" x="771.5" y="-92.5" font-family="Helvetica,sans-Serif" font-size="10.00">de265File::cacheStatistics</text>
</a>
</g>
</g>
<!-- Node6&#45;&gt;Node23 -->
<g id="edge33" class="edge"><title>Node6&#45;&gt;Node23</title>
<path fill="none" stroke="midnightblue" d="M636.72,-218.416C644.136,-215.951 651.46,-212.863 658,-209 678.031,-197.168 677.746,-187.645 694,-171 714.049,-150.469 737.515,-127.278 753.118,-111.972"/>
<polygon fill="midnightblue" stroke="midnightblue" points="755.805,-114.24 760.501,-104.743 750.908,-109.238 755.805,-114.24"/>
</g>
<!-- Node9 -->
<g id="node9" class="node"><title>Node9</title>
<g id="a_node9"><a xlink:href="classde265File.html#ae0d8c743227dab80ea92b12273d1ed9d" target="_top" xlink:title="de265File::setDe265ChromaMode">
<polygon fill="white" stroke="black" points="885,-161.5 885,-180.5 1050,-180.5 1050,-161.5 885,-161.5"/>
<text text-anchor="middle" x="967.5" y="-168.5" font-family="Helvetica,sans-Serif" font-size="10.00">de265File::setDe265ChromaMode</text>
</a>
</g>
</g>
<!-- Node8&#45;&gt;Node9 -->
<g id="edge8" class="edge"><title>Node8&#45;&gt;Node9</title>
<path fill="none" stroke="midnightblue" d="M849.174,-182.491C857.624,-181.663 866.289,-180.815 874.897,-179.971"/>
<polygon fill="midnightblue" stroke="midnightblue" points="875.349,-183.444 884.96,-178.986 874.666,-176.477 875.349,-183.444"/>
</g>
<!-- Node10 -->
<g id="node10" class="node"><title>Node10</title>
<g id="a_node10"><a xlink:href="classde265File.html#a66bbaa69a4db7a5dcff623932b776993" target="_top" xlink:title="de265File::copyImgToByte\lArray">
<polygon fill="white" stroke="black" points="900.5,-238 900.5,-268 1034.5,-268 1034.5,-238 900.5,-238"/>
<text text-anchor="start" x="908.5" y="-256" font-family="Helvetica,sans-Serif" font-size="10.00">de265File::copyImgToByte</text>
<text text-anchor="middle" x="967.5" y="-245" font-family="Helvetica,sans-Serif" font-size="10.00">Array</text>
</a>
</g>
</g>
<!-- Node8&#45;&gt;Node10 -->
<g id="edge9" class="edge"><title>Node8&#45;&gt;Node10</title>
<path fill="none" stroke="midnightblue" d="M818.768,-199.576C828.874,-202.195 839.411,-205.341 849,-209 865.903,-215.45 868.278,-221.095 885,-228 890.521,-230.28 896.327,-232.462 902.19,-234.521"/>
<polygon fill="midnightblue" stroke="midnightblue" points="901.479,-237.975 912.073,-237.865 903.722,-231.345 901.479,-237.975"/>
</g>
<!-- Node11 -->
<g id="node11" class="node"><title>Node11</title>
<g id="a_node11"><a xlink:href="classYUVSource.html#aaec9232f1fe9e0b8beaad1cd4cb5279c" target="_top" xlink:title="YUVSource::convert2YUV444">
<polygon fill="white" stroke="black" points="893,-199.5 893,-218.5 1042,-218.5 1042,-199.5 893,-199.5"/>
<text text-anchor="middle" x="967.5" y="-206.5" font-family="Helvetica,sans-Serif" font-size="10.00">YUVSource::convert2YUV444</text>
</a>
</g>
</g>
<!-- Node8&#45;&gt;Node11 -->
<g id="edge10" class="edge"><title>Node8&#45;&gt;Node11</title>
<path fill="none" stroke="midnightblue" d="M849.174,-197.509C860.202,-198.589 871.597,-199.705 882.753,-200.798"/>
<polygon fill="midnightblue" stroke="midnightblue" points="882.621,-204.302 892.915,-201.793 883.304,-197.335 882.621,-204.302"/>
</g>
<!-- Node12 -->
<g id="node12" class="node"><title>Node12</title>
<g id="a_node12"><a xlink:href="classYUVSource.html#a49b60ef481a8c0da626c12c510c5f789" target="_top" xlink:title="YUVSource::horizontalSub\lSampling">
<polygon fill="white" stroke="black" points="1101,-194 1101,-224 1235,-224 1235,-194 1101,-194"/>
<text text-anchor="start" x="1109" y="-212" font-family="Helvetica,sans-Serif" font-size="10.00">YUVSource::horizontalSub</text>
<text text-anchor="middle" x="1168" y="-201" font-family="Helvetica,sans-Serif" font-size="10.00">Sampling</text>
</a>
</g>
</g>
<!-- Node11&#45;&gt;Node12 -->
<g id="edge11" class="edge"><title>Node11&#45;&gt;Node12</title>
<path fill="none" stroke="midnightblue" d="M1042.13,-209C1057.88,-209 1074.55,-209 1090.41,-209"/>
<polygon fill="midnightblue" stroke="midnightblue" points="1090.69,-212.5 1100.69,-209 1090.69,-205.5 1090.69,-212.5"/>
</g>
<!-- Node15 -->
<g id="node15" class="node"><title>Node15</title>
<g id="a_node15"><a xlink:href="classYUVSource.html#a76715cca6b2a80ab811ef55cefb77ba8" target="_top" xlink:title="YUVSource::verticalSubSampling">
<polygon fill="white" stroke="black" points="1086,-155.5 1086,-174.5 1250,-174.5 1250,-155.5 1086,-155.5"/>
<text text-anchor="middle" x="1168" y="-162.5" font-family="Helvetica,sans-Serif" font-size="10.00">YUVSource::verticalSubSampling</text>
</a>
</g>
</g>
<!-- Node11&#45;&gt;Node15 -->
<g id="edge14" class="edge"><title>Node11&#45;&gt;Node15</title>
<path fill="none" stroke="midnightblue" d="M1011.57,-199.453C1041.62,-192.793 1081.9,-183.864 1113.93,-176.764"/>
<polygon fill="midnightblue" stroke="midnightblue" points="1115.01,-180.11 1124.01,-174.529 1113.49,-173.276 1115.01,-180.11"/>
</g>
<!-- Node16 -->
<g id="node16" class="node"><title>Node16</title>
<g id="a_node16"><a xlink:href="classYUVSource.html#ae9481604c7bc675f22e5c99b4d484799" target="_top" xlink:title="YUVSource::bytePerComponent">
<polygon fill="white" stroke="black" points="1089,-117.5 1089,-136.5 1247,-136.5 1247,-117.5 1089,-117.5"/>
<text text-anchor="middle" x="1168" y="-124.5" font-family="Helvetica,sans-Serif" font-size="10.00">YUVSource::bytePerComponent</text>
</a>
</g>
</g>
<!-- Node11&#45;&gt;Node16 -->
<g id="edge17" class="edge"><title>Node11&#45;&gt;Node16</title>
<path fill="none" stroke="midnightblue" d="M1029.49,-199.498C1036.69,-197.028 1043.71,-193.917 1050,-190 1071.45,-176.642 1064.56,-159.373 1086,-146 1089.42,-143.868 1093.05,-141.975 1096.82,-140.294"/>
<polygon fill="midnightblue" stroke="midnightblue" points="1098.36,-143.449 1106.39,-136.538 1095.8,-136.933 1098.36,-143.449"/>
</g>
<!-- Node17 -->
<g id="node17" class="node"><title>Node17</title>
<g id="a_node17"><a xlink:href="yuvsource_8cpp.html#a27981d91849b459bede94a48e2ba017c" target="_top" xlink:title="SwapInt32BigToHost">
<polygon fill="white" stroke="black" points="1113,-357.5 1113,-376.5 1223,-376.5 1223,-357.5 1113,-357.5"/>
<text text-anchor="middle" x="1168" y="-364.5" font-family="Helvetica,sans-Serif" font-size="10.00">SwapInt32BigToHost</text>
</a>
</g>
</g>
<!-- Node11&#45;&gt;Node17 -->
<g id="edge20" class="edge"><title>Node11&#45;&gt;Node17</title>
<path fill="none" stroke="midnightblue" d="M1036.39,-218.645C1041.35,-221.143 1045.98,-224.22 1050,-228 1090.58,-266.125 1045.44,-309.847 1086,-348 1091.02,-352.721 1096.98,-356.343 1103.36,-359.11"/>
<polygon fill="midnightblue" stroke="midnightblue" points="1102.34,-362.466 1112.94,-362.583 1104.73,-355.885 1102.34,-362.466"/>
</g>
<!-- Node19 -->
<g id="node19" class="node"><title>Node19</title>
<g id="a_node19"><a xlink:href="yuvsource_8cpp.html#a0c98dc4b871eaabafce15094c29a8f4b" target="_top" xlink:title="SwapInt32LittleToHost">
<polygon fill="white" stroke="black" points="1110,-319.5 1110,-338.5 1226,-338.5 1226,-319.5 1110,-319.5"/>
<text text-anchor="middle" x="1168" y="-326.5" font-family="Helvetica,sans-Serif" font-size="10.00">SwapInt32LittleToHost</text>
</a>
</g>
</g>
<!-- Node11&#45;&gt;Node19 -->
<g id="edge22" class="edge"><title>Node11&#45;&gt;Node19</title>
<path fill="none" stroke="midnightblue" d="M1034.7,-218.641C1040.21,-221.12 1045.42,-224.194 1050,-228 1080.62,-253.43 1055.4,-284.549 1086,-310 1090.3,-313.579 1095.16,-316.51 1100.3,-318.907"/>
<polygon fill="midnightblue" stroke="midnightblue" points="1099.23,-322.245 1109.81,-322.669 1101.8,-315.736 1099.23,-322.245"/>
</g>
<!-- Node20 -->
<g id="node20" class="node"><title>Node20</title>
<g id="a_node20"><a xlink:href="classYUVSource.html#a41ae3831a69c7797cc486e8150dee813" target="_top" xlink:title="YUVSource::isPlanar">
<polygon fill="white" stroke="black" points="1113,-79.5 1113,-98.5 1223,-98.5 1223,-79.5 1113,-79.5"/>
<text text-anchor="middle" x="1168" y="-86.5" font-family="Helvetica,sans-Serif" font-size="10.00">YUVSource::isPlanar</text>
</a>
</g>
</g>
<!-- Node11&#45;&gt;Node20 -->
<g id="edge24" class="edge"><title>Node11&#45;&gt;Node20</title>
<path fill="none" stroke="midnightblue" d="M1034.7,-199.359C1040.21,-196.88 1045.42,-193.806 1050,-190 1080.62,-164.57 1055.4,-133.451 1086,-108 1091.03,-103.818 1096.81,-100.521 1102.93,-97.9263"/>
<polygon fill="midnightblue" stroke="midnightblue" points="1104.52,-101.074 1112.75,-94.4018 1102.15,-94.4857 1104.52,-101.074"/>
</g>
<!-- Node21 -->
<g id="node21" class="node"><title>Node21</title>
<g id="a_node21"><a xlink:href="classYUVSource.html#a11ea64b650d6086177fa0f7a1f3f323d" target="_top" xlink:title="YUVSource::bitsPerSample">
<polygon fill="white" stroke="black" points="1099,-281.5 1099,-300.5 1237,-300.5 1237,-281.5 1099,-281.5"/>
<text text-anchor="middle" x="1168" y="-288.5" font-family="Helvetica,sans-Serif" font-size="10.00">YUVSource::bitsPerSample</text>
</a>
</g>
</g>
<!-- Node11&#45;&gt;Node21 -->
<g id="edge27" class="edge"><title>Node11&#45;&gt;Node21</title>
<path fill="none" stroke="midnightblue" d="M1029.49,-218.502C1036.69,-220.972 1043.71,-224.083 1050,-228 1071.45,-241.358 1064.56,-258.627 1086,-272 1089.42,-274.132 1093.05,-276.025 1096.82,-277.706"/>
<polygon fill="midnightblue" stroke="midnightblue" points="1095.8,-281.067 1106.39,-281.462 1098.36,-274.551 1095.8,-281.067"/>
</g>
<!-- Node22 -->
<g id="node22" class="node"><title>Node22</title>
<g id="a_node22"><a xlink:href="classYUVSource.html#a1fc5a320feef3ca2e3d90c2606276f17" target="_top" xlink:title="YUVSource::bytesPerFrame">
<polygon fill="white" stroke="black" points="1097.5,-243.5 1097.5,-262.5 1238.5,-262.5 1238.5,-243.5 1097.5,-243.5"/>
<text text-anchor="middle" x="1168" y="-250.5" font-family="Helvetica,sans-Serif" font-size="10.00">YUVSource::bytesPerFrame</text>
</a>
</g>
</g>
<!-- Node11&#45;&gt;Node22 -->
<g id="edge30" class="edge"><title>Node11&#45;&gt;Node22</title>
<path fill="none" stroke="midnightblue" d="M1011.57,-218.547C1041.62,-225.207 1081.9,-234.136 1113.93,-241.236"/>
<polygon fill="midnightblue" stroke="midnightblue" points="1113.49,-244.724 1124.01,-243.471 1115.01,-237.89 1113.49,-244.724"/>
</g>
<!-- Node13 -->
<g id="node13" class="node"><title>Node13</title>
<g id="a_node13"><a xlink:href="classYUVSource.html#a7e554f2c626688704099e00cc4ece029" target="_top" xlink:title="YUVSource::pixelFormatList">
<polygon fill="white" stroke="black" points="1286,-197.5 1286,-216.5 1427,-216.5 1427,-197.5 1286,-197.5"/>
<text text-anchor="middle" x="1356.5" y="-204.5" font-family="Helvetica,sans-Serif" font-size="10.00">YUVSource::pixelFormatList</text>
</a>
</g>
</g>
<!-- Node12&#45;&gt;Node13 -->
<g id="edge12" class="edge"><title>Node12&#45;&gt;Node13</title>
<path fill="none" stroke="midnightblue" d="M1235.02,-208.292C1248.13,-208.151 1262.02,-208.002 1275.54,-207.857"/>
<polygon fill="midnightblue" stroke="midnightblue" points="1275.82,-211.355 1285.78,-207.748 1275.74,-204.355 1275.82,-211.355"/>
</g>
<!-- Node14 -->
<g id="node14" class="node"><title>Node14</title>
<g id="a_node14"><a xlink:href="classYUVSource.html#a592ce352c789f4f5789b11e052b58a33" target="_top" xlink:title="YUVSource::pixelFormat">
<polygon fill="white" stroke="black" points="1294,-156.5 1294,-175.5 1419,-175.5 1419,-156.5 1294,-156.5"/>
<text text-anchor="middle" x="1356.5" y="-163.5" font-family="Helvetica,sans-Serif" font-size="10.00">YUVSource::pixelFormat</text>
</a>
</g>
</g>
<!-- Node12&#45;&gt;Node14 -->
<g id="edge13" class="edge"><title>Node12&#45;&gt;Node14</title>
<path fill="none" stroke="midnightblue" d="M1234.23,-193.961C1257.17,-188.671 1282.61,-182.806 1304.24,-177.82"/>
<polygon fill="midnightblue" stroke="midnightblue" points="1305.24,-181.18 1314.2,-175.522 1303.67,-174.358 1305.24,-181.18"/>
</g>
<!-- Node15&#45;&gt;Node13 -->
<g id="edge15" class="edge"><title>Node15&#45;&gt;Node13</title>
<path fill="none" stroke="midnightblue" d="M1211.32,-174.53C1238.53,-180.657 1274.08,-188.663 1303.07,-195.192"/>
<polygon fill="midnightblue" stroke="midnightblue" points="1302.5,-198.652 1313.03,-197.435 1304.04,-191.823 1302.5,-198.652"/>
</g>
<!-- Node15&#45;&gt;Node14 -->
<g id="edge16" class="edge"><title>Node15&#45;&gt;Node14</title>
<path fill="none" stroke="midnightblue" d="M1250.26,-165.436C1261.34,-165.495 1272.66,-165.556 1283.56,-165.614"/>
<polygon fill="midnightblue" stroke="midnightblue" points="1283.85,-169.116 1293.87,-165.67 1283.88,-162.116 1283.85,-169.116"/>
</g>
<!-- Node16&#45;&gt;Node13 -->
<g id="edge18" class="edge"><title>Node16&#45;&gt;Node13</title>
<path fill="none" stroke="midnightblue" d="M1228.55,-136.62C1236.04,-139.07 1243.39,-142.144 1250,-146 1270.38,-157.882 1266.09,-172.351 1286,-185 1291.4,-188.429 1297.37,-191.362 1303.49,-193.861"/>
<polygon fill="midnightblue" stroke="midnightblue" points="1302.55,-197.247 1313.15,-197.438 1304.98,-190.683 1302.55,-197.247"/>
</g>
<!-- Node16&#45;&gt;Node14 -->
<g id="edge19" class="edge"><title>Node16&#45;&gt;Node14</title>
<path fill="none" stroke="midnightblue" d="M1214.62,-136.54C1240.46,-141.943 1272.96,-148.74 1300.24,-154.443"/>
<polygon fill="midnightblue" stroke="midnightblue" points="1299.52,-157.869 1310.03,-156.491 1300.95,-151.018 1299.52,-157.869"/>
</g>
<!-- Node18 -->
<g id="node18" class="node"><title>Node18</title>
<g id="a_node18"><a xlink:href="yuvsource_8cpp.html#aba4cbfdcf035da2dd089dbf5dd97ff19" target="_top" xlink:title="SwapInt32">
<polygon fill="white" stroke="black" points="1325,-338.5 1325,-357.5 1388,-357.5 1388,-338.5 1325,-338.5"/>
<text text-anchor="middle" x="1356.5" y="-345.5" font-family="Helvetica,sans-Serif" font-size="10.00">SwapInt32</text>
</a>
</g>
</g>
<!-- Node17&#45;&gt;Node18 -->
<g id="edge21" class="edge"><title>Node17&#45;&gt;Node18</title>
<path fill="none" stroke="midnightblue" d="M1223.19,-361.479C1252.34,-358.509 1287.7,-354.907 1314.53,-352.173"/>
<polygon fill="midnightblue" stroke="midnightblue" points="1315.14,-355.63 1324.73,-351.134 1314.43,-348.666 1315.14,-355.63"/>
</g>
<!-- Node19&#45;&gt;Node18 -->
<g id="edge23" class="edge"><title>Node19&#45;&gt;Node18</title>
<path fill="none" stroke="midnightblue" d="M1226.22,-334.83C1254.83,-337.744 1288.79,-341.204 1314.72,-343.845"/>
<polygon fill="midnightblue" stroke="midnightblue" points="1314.64,-347.356 1324.94,-344.887 1315.35,-340.392 1314.64,-347.356"/>
</g>
<!-- Node20&#45;&gt;Node13 -->
<g id="edge25" class="edge"><title>Node20&#45;&gt;Node13</title>
<path fill="none" stroke="midnightblue" d="M1223.13,-94.5475C1232.81,-97.4424 1242.26,-101.718 1250,-108 1279.33,-131.811 1257.6,-160.09 1286,-185 1289.62,-188.171 1293.69,-190.886 1298.01,-193.209"/>
<polygon fill="midnightblue" stroke="midnightblue" points="1296.59,-196.412 1307.14,-197.45 1299.54,-190.063 1296.59,-196.412"/>
</g>
<!-- Node20&#45;&gt;Node14 -->
<g id="edge26" class="edge"><title>Node20&#45;&gt;Node14</title>
<path fill="none" stroke="midnightblue" d="M1219.34,-98.5604C1229.64,-101.139 1240.29,-104.273 1250,-108 1279.92,-119.484 1311.84,-138.015 1332.63,-151.034"/>
<polygon fill="midnightblue" stroke="midnightblue" points="1330.78,-154 1341.09,-156.41 1334.53,-148.092 1330.78,-154"/>
</g>
<!-- Node21&#45;&gt;Node13 -->
<g id="edge28" class="edge"><title>Node21&#45;&gt;Node13</title>
<path fill="none" stroke="midnightblue" d="M1220.77,-281.481C1230.66,-278.933 1240.79,-275.801 1250,-272 1281.36,-259.064 1314.11,-237.406 1334.64,-222.677"/>
<polygon fill="midnightblue" stroke="midnightblue" points="1336.89,-225.366 1342.91,-216.644 1332.77,-219.711 1336.89,-225.366"/>
</g>
<!-- Node21&#45;&gt;Node14 -->
<g id="edge29" class="edge"><title>Node21&#45;&gt;Node14</title>
<path fill="none" stroke="midnightblue" d="M1234.83,-281.361C1240.3,-278.882 1245.46,-275.807 1250,-272 1281.11,-245.891 1255.9,-215.275 1286,-188 1289.42,-184.905 1293.27,-182.245 1297.36,-179.959"/>
<polygon fill="midnightblue" stroke="midnightblue" points="1299.12,-182.999 1306.63,-175.529 1296.1,-176.683 1299.12,-182.999"/>
</g>
<!-- Node22&#45;&gt;Node13 -->
<g id="edge31" class="edge"><title>Node22&#45;&gt;Node13</title>
<path fill="none" stroke="midnightblue" d="M1207.64,-243.469C1236.53,-236.345 1276.2,-226.56 1307.18,-218.918"/>
<polygon fill="midnightblue" stroke="midnightblue" points="1308.04,-222.312 1316.91,-216.519 1306.36,-215.516 1308.04,-222.312"/>
</g>
<!-- Node22&#45;&gt;Node14 -->
<g id="edge32" class="edge"><title>Node22&#45;&gt;Node14</title>
<path fill="none" stroke="midnightblue" d="M1227.56,-243.456C1235.45,-240.786 1243.17,-237.371 1250,-233 1271.58,-219.199 1264.88,-202.49 1286,-188 1290.95,-184.606 1296.45,-181.714 1302.12,-179.256"/>
<polygon fill="midnightblue" stroke="midnightblue" points="1303.72,-182.392 1311.77,-175.514 1301.19,-175.865 1303.72,-182.392"/>
</g>
<!-- Node24 -->
<g id="node24" class="node"><title>Node24</title>
<g id="a_node24"><a xlink:href="classstatisticSource.html#accae8cdfc95b05e3ef9a945b1f579c46" target="_top" xlink:title="statisticSource::getStatisticsType">
<polygon fill="white" stroke="black" points="1086,-41.5 1086,-60.5 1250,-60.5 1250,-41.5 1086,-41.5"/>
<text text-anchor="middle" x="1168" y="-48.5" font-family="Helvetica,sans-Serif" font-size="10.00">statisticSource::getStatisticsType</text>
</a>
</g>
</g>
<!-- Node23&#45;&gt;Node24 -->
<g id="edge34" class="edge"><title>Node23&#45;&gt;Node24</title>
<path fill="none" stroke="midnightblue" d="M797.765,-104.591C848.437,-122.193 964.906,-154.324 1050,-114 1072.83,-103.18 1064.56,-83.3729 1086,-70 1089.42,-67.8678 1093.05,-65.9747 1096.82,-64.2939"/>
<polygon fill="midnightblue" stroke="midnightblue" points="1098.36,-67.4492 1106.39,-60.5378 1095.8,-60.933 1098.36,-67.4492"/>
</g>
<!-- Node25 -->
<g id="node25" class="node"><title>Node25</title>
<g id="a_node25"><a xlink:href="classColorRange.html#ab14e6c6fd346fdf7a003cbae112daa99" target="_top" xlink:title="ColorRange::getColor">
<polygon fill="white" stroke="black" points="1112.5,-0.5 1112.5,-19.5 1223.5,-19.5 1223.5,-0.5 1112.5,-0.5"/>
<text text-anchor="middle" x="1168" y="-7.5" font-family="Helvetica,sans-Serif" font-size="10.00">ColorRange::getColor</text>
</a>
</g>
</g>
<!-- Node23&#45;&gt;Node25 -->
<g id="edge35" class="edge"><title>Node23&#45;&gt;Node25</title>
<path fill="none" stroke="midnightblue" d="M783.701,-85.4542C802.93,-69.7183 844.111,-38.8018 885,-26 956.848,-3.50509 1043.95,-2.23719 1102.16,-4.82618"/>
<polygon fill="midnightblue" stroke="midnightblue" points="1102.16,-8.33053 1112.32,-5.33048 1102.51,-1.33913 1102.16,-8.33053"/>
</g>
<!-- Node26 -->
<g id="node26" class="node"><title>Node26</title>
<g id="a_node26"><a xlink:href="classde265File.html#a697bfc618014f0498d9afcf6f4385b97" target="_top" xlink:title="de265File::getPBSubPosition">
<polygon fill="white" stroke="black" points="895.5,-85.5 895.5,-104.5 1039.5,-104.5 1039.5,-85.5 895.5,-85.5"/>
<text text-anchor="middle" x="967.5" y="-92.5" font-family="Helvetica,sans-Serif" font-size="10.00">de265File::getPBSubPosition</text>
</a>
</g>
</g>
<!-- Node23&#45;&gt;Node26 -->
<g id="edge36" class="edge"><title>Node23&#45;&gt;Node26</title>
<path fill="none" stroke="midnightblue" d="M837.639,-95C852.809,-95 869.148,-95 884.929,-95"/>
<polygon fill="midnightblue" stroke="midnightblue" points="885.2,-98.5001 895.2,-95 885.2,-91.5001 885.2,-98.5001"/>
</g>
<!-- Node27 -->
<g id="node27" class="node"><title>Node27</title>
<g id="a_node27"><a xlink:href="classde265File.html#a520be66d0220a4771f0955ce29c71fa5" target="_top" xlink:title="de265File::cacheStatistics\l_TUTree_recursive">
<polygon fill="white" stroke="black" points="901.5,-36 901.5,-66 1033.5,-66 1033.5,-36 901.5,-36"/>
<text text-anchor="start" x="909.5" y="-54" font-family="Helvetica,sans-Serif" font-size="10.00">de265File::cacheStatistics</text>
<text text-anchor="middle" x="967.5" y="-43" font-family="Helvetica,sans-Serif" font-size="10.00">_TUTree_recursive</text>
</a>
</g>
</g>
<!-- Node23&#45;&gt;Node27 -->
<g id="edge37" class="edge"><title>Node23&#45;&gt;Node27</title>
<path fill="none" stroke="midnightblue" d="M814.595,-85.4527C837.026,-80.3652 865.298,-73.953 891.351,-68.044"/>
<polygon fill="midnightblue" stroke="midnightblue" points="892.233,-71.433 901.211,-65.8078 890.685,-64.6064 892.233,-71.433"/>
</g>
<!-- Node27&#45;&gt;Node24 -->
<g id="edge38" class="edge"><title>Node27&#45;&gt;Node24</title>
<path fill="none" stroke="midnightblue" d="M1033.77,-51C1047.14,-51 1061.44,-51 1075.53,-51"/>
<polygon fill="midnightblue" stroke="midnightblue" points="1075.74,-54.5001 1085.74,-51 1075.74,-47.5001 1075.74,-54.5001"/>
</g>
<!-- Node27&#45;&gt;Node25 -->
<g id="edge39" class="edge"><title>Node27&#45;&gt;Node25</title>
<path fill="none" stroke="midnightblue" d="M1033.77,-37.5183C1058.69,-32.3719 1086.85,-26.5544 1110.85,-21.5983"/>
<polygon fill="midnightblue" stroke="midnightblue" points="1111.77,-24.982 1120.85,-19.5315 1110.35,-18.1267 1111.77,-24.982"/>
</g>
</g>
</svg>
