<?xml version="1.0" encoding="UTF-8" standalone="no"?>
<!DOCTYPE svg PUBLIC "-//W3C//DTD SVG 1.1//EN"
 "http://www.w3.org/Graphics/SVG/1.1/DTD/svg11.dtd">
<!-- Generated by graphviz version 2.38.0 (20140413.2041)
 -->
<!-- Title: StatsListModel::rowCount Pages: 1 -->
<svg width="320pt" height="66pt"
 viewBox="0.00 0.00 320.00 66.00" xmlns="http://www.w3.org/2000/svg" xmlns:xlink="http://www.w3.org/1999/xlink">
<g id="graph0" class="graph" transform="scale(1 1) rotate(0) translate(4 62)">
<title>StatsListModel::rowCount</title>
<polygon fill="white" stroke="none" points="-4,4 -4,-62 316,-62 316,4 -4,4"/>
<!-- Node1 -->
<g id="node1" class="node"><title>Node1</title>
<polygon fill="#bfbfbf" stroke="black" points="0,-19.5 0,-38.5 130,-38.5 130,-19.5 0,-19.5"/>
<text text-anchor="middle" x="65" y="-26.5" font-family="Helvetica,sans-Serif" font-size="10.00">StatsListModel::rowCount</text>
</g>
<!-- Node2 -->
<g id="node2" class="node"><title>Node2</title>
<g id="a_node2"><a xlink:href="classStatsListModel.html#a34cb57d9deb7c0d3b21c668e93360eaa" target="_top" xlink:title="StatsListModel::insertRows">
<polygon fill="white" stroke="black" points="170.5,-38.5 170.5,-57.5 307.5,-57.5 307.5,-38.5 170.5,-38.5"/>
<text text-anchor="middle" x="239" y="-45.5" font-family="Helvetica,sans-Serif" font-size="10.00">StatsListModel::insertRows</text>
</a>
</g>
</g>
<!-- Node1&#45;&gt;Node2 -->
<g id="edge1" class="edge"><title>Node1&#45;&gt;Node2</title>
<path fill="none" stroke="midnightblue" d="M140.049,-37.1798C150.147,-38.2954 160.47,-39.4357 170.445,-40.5376"/>
<polygon fill="midnightblue" stroke="midnightblue" points="140.37,-33.6941 130.046,-36.0749 139.602,-40.6518 140.37,-33.6941"/>
</g>
<!-- Node3 -->
<g id="node3" class="node"><title>Node3</title>
<g id="a_node3"><a xlink:href="classStatsListModel.html#a63e9cef7ffc44f396106dcc4729b959c" target="_top" xlink:title="StatsListModel::removeRows">
<polygon fill="white" stroke="black" points="166,-0.5 166,-19.5 312,-19.5 312,-0.5 166,-0.5"/>
<text text-anchor="middle" x="239" y="-7.5" font-family="Helvetica,sans-Serif" font-size="10.00">StatsListModel::removeRows</text>
</a>
</g>
</g>
<!-- Node1&#45;&gt;Node3 -->
<g id="edge2" class="edge"><title>Node1&#45;&gt;Node3</title>
<path fill="none" stroke="midnightblue" d="M139.994,-20.8262C148.549,-19.8812 157.266,-18.9183 165.796,-17.976"/>
<polygon fill="midnightblue" stroke="midnightblue" points="139.602,-17.3482 130.046,-21.9251 140.37,-24.3059 139.602,-17.3482"/>
</g>
</g>
</svg>
