<?xml version="1.0" encoding="UTF-8" standalone="no"?>
<!DOCTYPE svg PUBLIC "-//W3C//DTD SVG 1.1//EN"
 "http://www.w3.org/Graphics/SVG/1.1/DTD/svg11.dtd">
<!-- Generated by graphviz version 2.38.0 (20140413.2041)
 -->
<!-- Title: PlaylistItem::PlaylistItem Pages: 1 -->
<svg width="427pt" height="28pt"
 viewBox="0.00 0.00 427.00 28.00" xmlns="http://www.w3.org/2000/svg" xmlns:xlink="http://www.w3.org/1999/xlink">
<g id="graph0" class="graph" transform="scale(1 1) rotate(0) translate(4 24)">
<title>PlaylistItem::PlaylistItem</title>
<polygon fill="white" stroke="none" points="-4,4 -4,-24 423,-24 423,4 -4,4"/>
<!-- Node1 -->
<g id="node1" class="node"><title>Node1</title>
<polygon fill="#bfbfbf" stroke="black" points="0,-0.5 0,-19.5 126,-19.5 126,-0.5 0,-0.5"/>
<text text-anchor="middle" x="63" y="-7.5" font-family="Helvetica,sans-Serif" font-size="10.00">PlaylistItem::PlaylistItem</text>
</g>
<!-- Node2 -->
<g id="node2" class="node"><title>Node2</title>
<g id="a_node2"><a xlink:href="classPlaylistItem.html#aa964a8cc17182c6acbaa4a0b3587eab6" target="_top" xlink:title="PlaylistItem::initClass">
<polygon fill="white" stroke="black" points="162,-0.5 162,-19.5 275,-19.5 275,-0.5 162,-0.5"/>
<text text-anchor="middle" x="218.5" y="-7.5" font-family="Helvetica,sans-Serif" font-size="10.00">PlaylistItem::initClass</text>
</a>
</g>
</g>
<!-- Node1&#45;&gt;Node2 -->
<g id="edge1" class="edge"><title>Node1&#45;&gt;Node2</title>
<path fill="none" stroke="midnightblue" d="M126.434,-10C134.696,-10 143.186,-10 151.505,-10"/>
<polygon fill="midnightblue" stroke="midnightblue" points="151.54,-13.5001 161.54,-10 151.54,-6.5001 151.54,-13.5001"/>
</g>
<!-- Node3 -->
<g id="node3" class="node"><title>Node3</title>
<g id="a_node3"><a xlink:href="classDisplayObject.html#a26a91c4966e6a796fc05a2e3fef490ea" target="_top" xlink:title="DisplayObject::name">
<polygon fill="white" stroke="black" points="311,-0.5 311,-19.5 419,-19.5 419,-0.5 311,-0.5"/>
<text text-anchor="middle" x="365" y="-7.5" font-family="Helvetica,sans-Serif" font-size="10.00">DisplayObject::name</text>
</a>
</g>
</g>
<!-- Node2&#45;&gt;Node3 -->
<g id="edge2" class="edge"><title>Node2&#45;&gt;Node3</title>
<path fill="none" stroke="midnightblue" d="M275.367,-10C283.611,-10 292.155,-10 300.538,-10"/>
<polygon fill="midnightblue" stroke="midnightblue" points="300.654,-13.5001 310.654,-10 300.654,-6.5001 300.654,-13.5001"/>
</g>
</g>
</svg>
