<?xml version="1.0" encoding="UTF-8" standalone="no"?>
<!DOCTYPE svg PUBLIC "-//W3C//DTD SVG 1.1//EN"
 "http://www.w3.org/Graphics/SVG/1.1/DTD/svg11.dtd">
<!-- Generated by graphviz version 2.38.0 (20140413.2041)
 -->
<!-- Title: YUVFile::getNumberFrames Pages: 1 -->
<svg width="502pt" height="66pt"
 viewBox="0.00 0.00 502.00 66.00" xmlns="http://www.w3.org/2000/svg" xmlns:xlink="http://www.w3.org/1999/xlink">
<g id="graph0" class="graph" transform="scale(1 1) rotate(0) translate(4 62)">
<title>YUVFile::getNumberFrames</title>
<polygon fill="white" stroke="none" points="-4,4 -4,-62 498,-62 498,4 -4,4"/>
<!-- Node1 -->
<g id="node1" class="node"><title>Node1</title>
<polygon fill="#bfbfbf" stroke="black" points="0,-19.5 0,-38.5 140,-38.5 140,-19.5 0,-19.5"/>
<text text-anchor="middle" x="70" y="-26.5" font-family="Helvetica,sans-Serif" font-size="10.00">YUVFile::getNumberFrames</text>
</g>
<!-- Node2 -->
<g id="node2" class="node"><title>Node2</title>
<g id="a_node2"><a xlink:href="classYUVSource.html#a1fc5a320feef3ca2e3d90c2606276f17" target="_top" xlink:title="YUVSource::bytesPerFrame">
<polygon fill="white" stroke="black" points="176,-19.5 176,-38.5 317,-38.5 317,-19.5 176,-19.5"/>
<text text-anchor="middle" x="246.5" y="-26.5" font-family="Helvetica,sans-Serif" font-size="10.00">YUVSource::bytesPerFrame</text>
</a>
</g>
</g>
<!-- Node1&#45;&gt;Node2 -->
<g id="edge1" class="edge"><title>Node1&#45;&gt;Node2</title>
<path fill="none" stroke="midnightblue" d="M140.218,-29C148.539,-29 157.088,-29 165.546,-29"/>
<polygon fill="midnightblue" stroke="midnightblue" points="165.795,-32.5001 175.795,-29 165.795,-25.5001 165.795,-32.5001"/>
</g>
<!-- Node3 -->
<g id="node3" class="node"><title>Node3</title>
<g id="a_node3"><a xlink:href="classYUVSource.html#a7e554f2c626688704099e00cc4ece029" target="_top" xlink:title="YUVSource::pixelFormatList">
<polygon fill="white" stroke="black" points="353,-38.5 353,-57.5 494,-57.5 494,-38.5 353,-38.5"/>
<text text-anchor="middle" x="423.5" y="-45.5" font-family="Helvetica,sans-Serif" font-size="10.00">YUVSource::pixelFormatList</text>
</a>
</g>
</g>
<!-- Node2&#45;&gt;Node3 -->
<g id="edge2" class="edge"><title>Node2&#45;&gt;Node3</title>
<path fill="none" stroke="midnightblue" d="M317.167,-36.5639C325.594,-37.4788 334.251,-38.4187 342.808,-39.3477"/>
<polygon fill="midnightblue" stroke="midnightblue" points="342.467,-42.8312 352.786,-40.4311 343.223,-35.8721 342.467,-42.8312"/>
</g>
<!-- Node4 -->
<g id="node4" class="node"><title>Node4</title>
<g id="a_node4"><a xlink:href="classYUVSource.html#a592ce352c789f4f5789b11e052b58a33" target="_top" xlink:title="YUVSource::pixelFormat">
<polygon fill="white" stroke="black" points="361,-0.5 361,-19.5 486,-19.5 486,-0.5 361,-0.5"/>
<text text-anchor="middle" x="423.5" y="-7.5" font-family="Helvetica,sans-Serif" font-size="10.00">YUVSource::pixelFormat</text>
</a>
</g>
</g>
<!-- Node2&#45;&gt;Node4 -->
<g id="edge3" class="edge"><title>Node2&#45;&gt;Node4</title>
<path fill="none" stroke="midnightblue" d="M317.167,-21.4361C328.26,-20.2318 339.752,-18.9841 350.888,-17.775"/>
<polygon fill="midnightblue" stroke="midnightblue" points="351.43,-21.2368 360.994,-16.6778 350.674,-14.2777 351.43,-21.2368"/>
</g>
</g>
</svg>
