<?xml version="1.0" encoding="UTF-8" standalone="no"?>
<!DOCTYPE svg PUBLIC "-//W3C//DTD SVG 1.1//EN"
 "http://www.w3.org/Graphics/SVG/1.1/DTD/svg11.dtd">
<!-- Generated by graphviz version 2.38.0 (20140413.2041)
 -->
<!-- Title: MainWindow::enableSeparateWindowsMode Pages: 1 -->
<svg width="695pt" height="93pt"
 viewBox="0.00 0.00 695.00 92.55" xmlns="http://www.w3.org/2000/svg" xmlns:xlink="http://www.w3.org/1999/xlink">
<g id="graph0" class="graph" transform="scale(1 1) rotate(0) translate(4 88.5451)">
<title>MainWindow::enableSeparateWindowsMode</title>
<polygon fill="white" stroke="none" points="-4,4 -4,-88.5451 691,-88.5451 691,4 -4,4"/>
<!-- Node1 -->
<g id="node1" class="node"><title>Node1</title>
<polygon fill="#bfbfbf" stroke="black" points="0,-39 0,-69 146,-69 146,-39 0,-39"/>
<text text-anchor="start" x="8" y="-57" font-family="Helvetica,sans-Serif" font-size="10.00">MainWindow::enableSeparate</text>
<text text-anchor="middle" x="73" y="-46" font-family="Helvetica,sans-Serif" font-size="10.00">WindowsMode</text>
</g>
<!-- Node2 -->
<g id="node2" class="node"><title>Node2</title>
<g id="a_node2"><a xlink:href="classMainWindow.html#a8b244be8b7b7db1b08de2a2acb9409db" target="_top" xlink:title="MainWindow::MainWindow">
<polygon fill="white" stroke="black" points="552,-44.5 552,-63.5 687,-63.5 687,-44.5 552,-44.5"/>
<text text-anchor="middle" x="619.5" y="-51.5" font-family="Helvetica,sans-Serif" font-size="10.00">MainWindow::MainWindow</text>
</a>
</g>
</g>
<!-- Node1&#45;&gt;Node2 -->
<g id="edge1" class="edge"><title>Node1&#45;&gt;Node2</title>
<path fill="none" stroke="midnightblue" d="M156.217,-66.7413C245.166,-78.5972 391.035,-92.4348 516,-78 539.784,-75.2527 566.067,-69.0325 586.063,-63.6132"/>
<polygon fill="midnightblue" stroke="midnightblue" points="156.571,-63.2574 146.192,-65.3811 155.63,-70.1938 156.571,-63.2574"/>
</g>
<!-- Node3 -->
<g id="node3" class="node"><title>Node3</title>
<g id="a_node3"><a xlink:href="classMainWindow.html#a9df7443ce5f907903438bb6a9abe9a33" target="_top" xlink:title="MainWindow::createMenusAnd\lActions">
<polygon fill="white" stroke="black" points="364,-39 364,-69 516,-69 516,-39 364,-39"/>
<text text-anchor="start" x="372" y="-57" font-family="Helvetica,sans-Serif" font-size="10.00">MainWindow::createMenusAnd</text>
<text text-anchor="middle" x="440" y="-46" font-family="Helvetica,sans-Serif" font-size="10.00">Actions</text>
</a>
</g>
</g>
<!-- Node1&#45;&gt;Node3 -->
<g id="edge2" class="edge"><title>Node1&#45;&gt;Node3</title>
<path fill="none" stroke="midnightblue" d="M156.297,-54C218.587,-54 303.447,-54 363.901,-54"/>
<polygon fill="midnightblue" stroke="midnightblue" points="156.112,-50.5001 146.112,-54 156.112,-57.5001 156.112,-50.5001"/>
</g>
<!-- Node4 -->
<g id="node4" class="node"><title>Node4</title>
<g id="a_node4"><a xlink:href="classMainWindow.html#a9c4f542263838b9ecd06eae839a42a34" target="_top" xlink:title="MainWindow::keyPressEvent">
<polygon fill="white" stroke="black" points="182,-3.5 182,-22.5 328,-22.5 328,-3.5 182,-3.5"/>
<text text-anchor="middle" x="255" y="-10.5" font-family="Helvetica,sans-Serif" font-size="10.00">MainWindow::keyPressEvent</text>
</a>
</g>
</g>
<!-- Node1&#45;&gt;Node4 -->
<g id="edge4" class="edge"><title>Node1&#45;&gt;Node4</title>
<path fill="none" stroke="midnightblue" d="M149.999,-36.6891C171.248,-31.849 193.565,-26.7657 212.054,-22.5545"/>
<polygon fill="midnightblue" stroke="midnightblue" points="148.976,-33.3324 140.003,-38.9659 150.531,-40.1575 148.976,-33.3324"/>
</g>
<!-- Node3&#45;&gt;Node2 -->
<g id="edge3" class="edge"><title>Node3&#45;&gt;Node2</title>
<path fill="none" stroke="midnightblue" d="M526.138,-54C534.793,-54 543.494,-54 551.911,-54"/>
<polygon fill="midnightblue" stroke="midnightblue" points="526.019,-50.5001 516.019,-54 526.019,-57.5001 526.019,-50.5001"/>
</g>
<!-- Node5 -->
<g id="node5" class="node"><title>Node5</title>
<g id="a_node5"><a xlink:href="classMainWindow.html#ab98bca74e18eefa8e0582b5a9eb78d10" target="_top" xlink:title="MainWindow::handleKeyPress">
<polygon fill="white" stroke="black" points="365,-0.5 365,-19.5 515,-19.5 515,-0.5 365,-0.5"/>
<text text-anchor="middle" x="440" y="-7.5" font-family="Helvetica,sans-Serif" font-size="10.00">MainWindow::handleKeyPress</text>
</a>
</g>
</g>
<!-- Node4&#45;&gt;Node5 -->
<g id="edge5" class="edge"><title>Node4&#45;&gt;Node5</title>
<path fill="none" stroke="midnightblue" d="M338.08,-11.6544C347.013,-11.508 356.067,-11.3596 364.897,-11.2148"/>
<polygon fill="midnightblue" stroke="midnightblue" points="338.005,-8.15509 328.064,-11.8186 338.12,-15.1541 338.005,-8.15509"/>
</g>
<!-- Node5&#45;&gt;Node2 -->
<g id="edge6" class="edge"><title>Node5&#45;&gt;Node2</title>
<path fill="none" stroke="midnightblue" d="M489.284,-21.969C517.815,-29.0414 553.445,-37.8736 580.06,-44.4713"/>
<polygon fill="midnightblue" stroke="midnightblue" points="490.063,-18.5563 479.515,-19.5473 488.379,-25.3507 490.063,-18.5563"/>
</g>
</g>
</svg>
