<?xml version="1.0" encoding="UTF-8" standalone="no"?>
<!DOCTYPE svg PUBLIC "-//W3C//DTD SVG 1.1//EN"
 "http://www.w3.org/Graphics/SVG/1.1/DTD/svg11.dtd">
<!-- Generated by graphviz version 2.38.0 (20140413.2041)
 -->
<!-- Title: TextObject::refreshTextSize Pages: 1 -->
<!--zoomable 368 -->
<svg id="main" version="1.1" xmlns="http://www.w3.org/2000/svg" xmlns:xlink="http://www.w3.org/1999/xlink" xml:space="preserve" onload="init(evt)">
<style type="text/css"><![CDATA[
.edge:hover path { stroke: red; }
.edge:hover polygon { stroke: red; fill: red; }
]]></style>
<script type="text/javascript"><![CDATA[
var edges = document.getElementsByTagName('g');
if (edges && edges.length) {
  for (var i=0;i<edges.length;i++) {
    if (edges[i].id.substr(0,4)=='edge') {
      edges[i].setAttribute('class','edge');
    }
  }
}
]]></script>
        <defs>
                <circle id="rim" cx="0" cy="0" r="7"/>
                <circle id="rim2" cx="0" cy="0" r="3.5"/>
                <g id="zoomPlus">
                        <use xlink:href="#rim" fill="#404040">
                                <set attributeName="fill" to="#808080" begin="zoomplus.mouseover" end="zoomplus.mouseout"/>
                        </use>
                        <path d="M-4,0h8M0,-4v8" fill="none" stroke="white" stroke-width="1.5" pointer-events="none"/>
                </g>
                <g id="zoomMin">
                        <use xlink:href="#rim" fill="#404040">
                                <set attributeName="fill" to="#808080" begin="zoomminus.mouseover" end="zoomminus.mouseout"/>
                        </use>
                        <path d="M-4,0h8" fill="none" stroke="white" stroke-width="1.5" pointer-events="none"/>
                </g>
                <g id="dirArrow">
                        <path fill="none" stroke="white" stroke-width="1.5" d="M0,-3.0v7 M-2.5,-0.5L0,-3.0L2.5,-0.5"/>
                </g>
               <g id="resetDef">
                       <use xlink:href="#rim2" fill="#404040">
                               <set attributeName="fill" to="#808080" begin="reset.mouseover" end="reset.mouseout"/>
                       </use>
               </g>
        </defs>

<script type="text/javascript">
var viewWidth = 1232;
var viewHeight = 368;
var sectionId = 'dynsection-10';
</script>
<script xlink:href="svgpan.js"/>
<svg id="graph" class="graph">
<g id="viewport">
<title>TextObject::refreshTextSize</title>
<polygon fill="white" stroke="none" points="-4,4 -4,-363.5 1228,-363.5 1228,4 -4,4"/>
<!-- Node1 -->
<g id="node1" class="node"><title>Node1</title>
<polygon fill="#bfbfbf" stroke="black" points="0,-290.5 0,-309.5 140,-309.5 140,-290.5 0,-290.5"/>
<text text-anchor="middle" x="70" y="-297.5" font-family="Helvetica,sans-Serif" font-size="10.00">TextObject::refreshTextSize</text>
</g>
<!-- Node2 -->
<g id="node2" class="node"><title>Node2</title>
<g id="a_node2"><a xlink:href="classTextObject.html#a4abe36f8a979d68e0cec492bc70e6cea" target="_top" xlink:title="TextObject::TextObject">
<polygon fill="white" stroke="black" points="176,-328.5 176,-347.5 295,-347.5 295,-328.5 176,-328.5"/>
<text text-anchor="middle" x="235.5" y="-335.5" font-family="Helvetica,sans-Serif" font-size="10.00">TextObject::TextObject</text>
</a>
</g>
</g>
<!-- Node1&#45;&gt;Node2 -->
<g id="edge1" class="edge"><title>Node1&#45;&gt;Node2</title>
<path fill="none" stroke="midnightblue" d="M122.184,-311.896C145.166,-317.237 171.913,-323.454 193.539,-328.48"/>
<polygon fill="midnightblue" stroke="midnightblue" points="122.791,-308.444 112.258,-309.589 121.206,-315.262 122.791,-308.444"/>
</g>
<!-- Node3 -->
<g id="node3" class="node"><title>Node3</title>
<g id="a_node3"><a xlink:href="classTextObject.html#af88f6dc06fc9e630679371584da13e21" target="_top" xlink:title="TextObject::setText">
<polygon fill="white" stroke="black" points="183.5,-290.5 183.5,-309.5 287.5,-309.5 287.5,-290.5 183.5,-290.5"/>
<text text-anchor="middle" x="235.5" y="-297.5" font-family="Helvetica,sans-Serif" font-size="10.00">TextObject::setText</text>
</a>
</g>
</g>
<!-- Node1&#45;&gt;Node3 -->
<g id="edge2" class="edge"><title>Node1&#45;&gt;Node3</title>
<path fill="none" stroke="midnightblue" d="M150.561,-300C161.734,-300 172.962,-300 183.409,-300"/>
<polygon fill="midnightblue" stroke="midnightblue" points="150.339,-296.5 140.339,-300 150.339,-303.5 150.339,-296.5"/>
</g>
<!-- Node8 -->
<g id="node8" class="node"><title>Node8</title>
<g id="a_node8"><a xlink:href="classTextObject.html#adaa0f36f9e82dc8298d0835101569eb4" target="_top" xlink:title="TextObject::setFont">
<polygon fill="white" stroke="black" points="183.5,-252.5 183.5,-271.5 287.5,-271.5 287.5,-252.5 183.5,-252.5"/>
<text text-anchor="middle" x="235.5" y="-259.5" font-family="Helvetica,sans-Serif" font-size="10.00">TextObject::setFont</text>
</a>
</g>
</g>
<!-- Node1&#45;&gt;Node8 -->
<g id="edge8" class="edge"><title>Node1&#45;&gt;Node8</title>
<path fill="none" stroke="midnightblue" d="M122.184,-288.104C145.166,-282.763 171.913,-276.546 193.539,-271.52"/>
<polygon fill="midnightblue" stroke="midnightblue" points="121.206,-284.738 112.258,-290.411 122.791,-291.556 121.206,-284.738"/>
</g>
<!-- Node4 -->
<g id="node4" class="node"><title>Node4</title>
<g id="a_node4"><a xlink:href="classMainWindow.html#af5ecc7c65080215b49b9d931c56c65c9" target="_top" xlink:title="MainWindow::editTextFrame">
<polygon fill="white" stroke="black" points="332.5,-290.5 332.5,-309.5 474.5,-309.5 474.5,-290.5 332.5,-290.5"/>
<text text-anchor="middle" x="403.5" y="-297.5" font-family="Helvetica,sans-Serif" font-size="10.00">MainWindow::editTextFrame</text>
</a>
</g>
</g>
<!-- Node3&#45;&gt;Node4 -->
<g id="edge3" class="edge"><title>Node3&#45;&gt;Node4</title>
<path fill="none" stroke="midnightblue" d="M297.785,-300C309.014,-300 320.812,-300 332.278,-300"/>
<polygon fill="midnightblue" stroke="midnightblue" points="297.66,-296.5 287.66,-300 297.66,-303.5 297.66,-296.5"/>
</g>
<!-- Node5 -->
<g id="node5" class="node"><title>Node5</title>
<g id="a_node5"><a xlink:href="classMainWindow.html#aaba5c236313378986c42c4a634c4cfb9" target="_top" xlink:title="MainWindow::onCustomContextMenu">
<polygon fill="white" stroke="black" points="871,-252.5 871,-271.5 1053,-271.5 1053,-252.5 871,-252.5"/>
<text text-anchor="middle" x="962" y="-259.5" font-family="Helvetica,sans-Serif" font-size="10.00">MainWindow::onCustomContextMenu</text>
</a>
</g>
</g>
<!-- Node4&#45;&gt;Node5 -->
<g id="edge4" class="edge"><title>Node4&#45;&gt;Node5</title>
<path fill="none" stroke="midnightblue" d="M484.774,-298.986C571.375,-297.302 713.237,-292.834 835,-281 858.45,-278.721 884.195,-275.05 906.268,-271.539"/>
<polygon fill="midnightblue" stroke="midnightblue" points="484.685,-295.487 474.752,-299.173 484.816,-302.486 484.685,-295.487"/>
</g>
<!-- Node7 -->
<g id="node7" class="node"><title>Node7</title>
<g id="a_node7"><a xlink:href="classMainWindow.html#ab18c663524e2c130759c0ca960129ea4" target="_top" xlink:title="MainWindow::onItemDouble\lClicked">
<polygon fill="white" stroke="black" points="512,-329 512,-359 652,-359 652,-329 512,-329"/>
<text text-anchor="start" x="520" y="-347" font-family="Helvetica,sans-Serif" font-size="10.00">MainWindow::onItemDouble</text>
<text text-anchor="middle" x="582" y="-336" font-family="Helvetica,sans-Serif" font-size="10.00">Clicked</text>
</a>
</g>
</g>
<!-- Node4&#45;&gt;Node7 -->
<g id="edge6" class="edge"><title>Node4&#45;&gt;Node7</title>
<path fill="none" stroke="midnightblue" d="M452.741,-312.026C473.677,-317.245 498.424,-323.414 520.567,-328.935"/>
<polygon fill="midnightblue" stroke="midnightblue" points="453.348,-308.57 442.798,-309.547 451.654,-315.362 453.348,-308.57"/>
</g>
<!-- Node6 -->
<g id="node6" class="node"><title>Node6</title>
<g id="a_node6"><a xlink:href="classMainWindow.html#a8b244be8b7b7db1b08de2a2acb9409db" target="_top" xlink:title="MainWindow::MainWindow">
<polygon fill="white" stroke="black" points="1089,-252.5 1089,-271.5 1224,-271.5 1224,-252.5 1089,-252.5"/>
<text text-anchor="middle" x="1156.5" y="-259.5" font-family="Helvetica,sans-Serif" font-size="10.00">MainWindow::MainWindow</text>
</a>
</g>
</g>
<!-- Node5&#45;&gt;Node6 -->
<g id="edge5" class="edge"><title>Node5&#45;&gt;Node6</title>
<path fill="none" stroke="midnightblue" d="M1063.22,-262C1071.88,-262 1080.5,-262 1088.79,-262"/>
<polygon fill="midnightblue" stroke="midnightblue" points="1063.05,-258.5 1053.05,-262 1063.05,-265.5 1063.05,-258.5"/>
</g>
<!-- Node7&#45;&gt;Node6 -->
<g id="edge7" class="edge"><title>Node7&#45;&gt;Node6</title>
<path fill="none" stroke="midnightblue" d="M662.001,-334.635C755.535,-323.265 915.926,-302.877 1053,-281 1070.6,-278.19 1089.84,-274.73 1106.84,-271.536"/>
<polygon fill="midnightblue" stroke="midnightblue" points="661.553,-331.164 652.047,-335.842 662.396,-338.113 661.553,-331.164"/>
</g>
<!-- Node8&#45;&gt;Node4 -->
<g id="edge24" class="edge"><title>Node8&#45;&gt;Node4</title>
<path fill="none" stroke="midnightblue" d="M288.153,-273.824C311.556,-279.182 338.857,-285.431 360.912,-290.48"/>
<polygon fill="midnightblue" stroke="midnightblue" points="288.918,-270.409 278.389,-271.589 287.356,-277.232 288.918,-270.409"/>
</g>
<!-- Node9 -->
<g id="node9" class="node"><title>Node9</title>
<g id="a_node9"><a xlink:href="classMainWindow.html#a2d8cea1d443550a8f14ce8c80d2608c6" target="_top" xlink:title="MainWindow::loadPlaylistFile">
<polygon fill="white" stroke="black" points="331,-173.5 331,-192.5 476,-192.5 476,-173.5 331,-173.5"/>
<text text-anchor="middle" x="403.5" y="-180.5" font-family="Helvetica,sans-Serif" font-size="10.00">MainWindow::loadPlaylistFile</text>
</a>
</g>
</g>
<!-- Node8&#45;&gt;Node9 -->
<g id="edge9" class="edge"><title>Node8&#45;&gt;Node9</title>
<path fill="none" stroke="midnightblue" d="M265.809,-248.052C299.332,-232.098 353.325,-206.402 382.406,-192.563"/>
<polygon fill="midnightblue" stroke="midnightblue" points="264.049,-245.013 256.523,-252.471 267.057,-251.334 264.049,-245.013"/>
</g>
<!-- Node18 -->
<g id="node18" class="node"><title>Node18</title>
<g id="a_node18"><a xlink:href="classMainWindow.html#ab547038b4acd1eab08a2693d47d8a8c4" target="_top" xlink:title="Adds a new text frame. ">
<polygon fill="white" stroke="black" points="690.5,-252.5 690.5,-271.5 832.5,-271.5 832.5,-252.5 690.5,-252.5"/>
<text text-anchor="middle" x="761.5" y="-259.5" font-family="Helvetica,sans-Serif" font-size="10.00">MainWindow::addTextFrame</text>
</a>
</g>
</g>
<!-- Node8&#45;&gt;Node18 -->
<g id="edge21" class="edge"><title>Node8&#45;&gt;Node18</title>
<path fill="none" stroke="midnightblue" d="M297.729,-262C395.588,-262 586.712,-262 690.082,-262"/>
<polygon fill="midnightblue" stroke="midnightblue" points="297.697,-258.5 287.697,-262 297.697,-265.5 297.697,-258.5"/>
</g>
<!-- Node10 -->
<g id="node10" class="node"><title>Node10</title>
<g id="a_node10"><a xlink:href="classMainWindow.html#a8ef1be3cb02e12d68d12375d1a7a0ced" target="_top" xlink:title="loads a list of yuv/csv files ">
<polygon fill="white" stroke="black" points="523,-132.5 523,-151.5 641,-151.5 641,-132.5 523,-132.5"/>
<text text-anchor="middle" x="582" y="-139.5" font-family="Helvetica,sans-Serif" font-size="10.00">MainWindow::loadFiles</text>
</a>
</g>
</g>
<!-- Node9&#45;&gt;Node10 -->
<g id="edge10" class="edge"><title>Node9&#45;&gt;Node10</title>
<path fill="none" stroke="midnightblue" d="M455.423,-171.171C482.271,-164.934 514.771,-157.385 539.98,-151.529"/>
<polygon fill="midnightblue" stroke="midnightblue" points="454.385,-167.819 445.436,-173.491 455.969,-174.637 454.385,-167.819"/>
</g>
<!-- Node11 -->
<g id="node11" class="node"><title>Node11</title>
<g id="a_node11"><a xlink:href="classDisplaySplitWidget.html#ac1d4ced58b2ac2b08153694a5de6232e" target="_top" xlink:title="DisplaySplitWidget\l::dropEvent">
<polygon fill="white" stroke="black" points="711.5,-127 711.5,-157 811.5,-157 811.5,-127 711.5,-127"/>
<text text-anchor="start" x="719.5" y="-145" font-family="Helvetica,sans-Serif" font-size="10.00">DisplaySplitWidget</text>
<text text-anchor="middle" x="761.5" y="-134" font-family="Helvetica,sans-Serif" font-size="10.00">::dropEvent</text>
</a>
</g>
</g>
<!-- Node10&#45;&gt;Node11 -->
<g id="edge11" class="edge"><title>Node10&#45;&gt;Node11</title>
<path fill="none" stroke="midnightblue" d="M651.154,-142C671.246,-142 692.827,-142 711.465,-142"/>
<polygon fill="midnightblue" stroke="midnightblue" points="651.12,-138.5 641.12,-142 651.12,-145.5 651.12,-138.5"/>
</g>
<!-- Node12 -->
<g id="node12" class="node"><title>Node12</title>
<g id="a_node12"><a xlink:href="classMainWindow.html#a288b768c3c21a9171bdc56fe845ece8b" target="_top" xlink:title="Shows the file open dialog and loads all selected Files. ">
<polygon fill="white" stroke="black" points="703.5,-88.5 703.5,-107.5 819.5,-107.5 819.5,-88.5 703.5,-88.5"/>
<text text-anchor="middle" x="761.5" y="-95.5" font-family="Helvetica,sans-Serif" font-size="10.00">MainWindow::openFile</text>
</a>
</g>
</g>
<!-- Node10&#45;&gt;Node12 -->
<g id="edge12" class="edge"><title>Node10&#45;&gt;Node12</title>
<path fill="none" stroke="midnightblue" d="M631.284,-130.031C659.815,-122.959 695.445,-114.126 722.06,-107.529"/>
<polygon fill="midnightblue" stroke="midnightblue" points="630.379,-126.649 621.515,-132.453 632.063,-133.444 630.379,-126.649"/>
</g>
<!-- Node14 -->
<g id="node14" class="node"><title>Node14</title>
<g id="a_node14"><a xlink:href="classMainWindow.html#a935316315edb9b7af42657da20be0e54" target="_top" xlink:title="MainWindow::openRecentFile">
<polygon fill="white" stroke="black" points="688,-0.5 688,-19.5 835,-19.5 835,-0.5 688,-0.5"/>
<text text-anchor="middle" x="761.5" y="-7.5" font-family="Helvetica,sans-Serif" font-size="10.00">MainWindow::openRecentFile</text>
</a>
</g>
</g>
<!-- Node10&#45;&gt;Node14 -->
<g id="edge16" class="edge"><title>Node10&#45;&gt;Node14</title>
<path fill="none" stroke="midnightblue" d="M594.843,-123.836C612.22,-98.6621 647.042,-53.5067 688,-29 694.476,-25.1251 701.739,-22.0307 709.1,-19.5621"/>
<polygon fill="midnightblue" stroke="midnightblue" points="591.744,-122.171 589.061,-132.421 597.55,-126.082 591.744,-122.171"/>
</g>
<!-- Node15 -->
<g id="node15" class="node"><title>Node15</title>
<g id="a_node15"><a xlink:href="classPlaylistTreeWidget.html#a295170eb269cc67050ea0b575cd0ab53" target="_top" xlink:title="PlaylistTreeWidget\l::dropEvent">
<polygon fill="white" stroke="black" points="712,-39 712,-69 811,-69 811,-39 712,-39"/>
<text text-anchor="start" x="720" y="-57" font-family="Helvetica,sans-Serif" font-size="10.00">PlaylistTreeWidget</text>
<text text-anchor="middle" x="761.5" y="-46" font-family="Helvetica,sans-Serif" font-size="10.00">::dropEvent</text>
</a>
</g>
</g>
<!-- Node10&#45;&gt;Node15 -->
<g id="edge18" class="edge"><title>Node10&#45;&gt;Node15</title>
<path fill="none" stroke="midnightblue" d="M605.167,-126.835C625.92,-113.096 658.124,-92.9278 688,-79 695.723,-75.3996 704.116,-72.0369 712.361,-69.018"/>
<polygon fill="midnightblue" stroke="midnightblue" points="603.112,-123.999 596.751,-132.471 607.008,-129.815 603.112,-123.999"/>
</g>
<!-- Node16 -->
<g id="node16" class="node"><title>Node16</title>
<g id="a_node16"><a xlink:href="classYUViewApp.html#ac0f5381cc5b703a9ea704b5eedab4b7f" target="_top" xlink:title="YUViewApp::YUViewApp">
<polygon fill="white" stroke="black" points="697,-214.5 697,-233.5 826,-233.5 826,-214.5 697,-214.5"/>
<text text-anchor="middle" x="761.5" y="-221.5" font-family="Helvetica,sans-Serif" font-size="10.00">YUViewApp::YUViewApp</text>
</a>
</g>
</g>
<!-- Node10&#45;&gt;Node16 -->
<g id="edge19" class="edge"><title>Node10&#45;&gt;Node16</title>
<path fill="none" stroke="midnightblue" d="M604.585,-157.46C625.16,-171.575 657.448,-192.142 688,-205 696.755,-208.685 706.412,-211.813 715.745,-214.402"/>
<polygon fill="midnightblue" stroke="midnightblue" points="606.47,-154.508 596.264,-151.664 602.469,-160.252 606.47,-154.508"/>
</g>
<!-- Node17 -->
<g id="node17" class="node"><title>Node17</title>
<g id="a_node17"><a xlink:href="classYUViewApp.html#a2f5f937d6677018ef73a5ffc248f9891" target="_top" xlink:title="YUViewApp::event">
<polygon fill="white" stroke="black" points="711.5,-176.5 711.5,-195.5 811.5,-195.5 811.5,-176.5 711.5,-176.5"/>
<text text-anchor="middle" x="761.5" y="-183.5" font-family="Helvetica,sans-Serif" font-size="10.00">YUViewApp::event</text>
</a>
</g>
</g>
<!-- Node10&#45;&gt;Node17 -->
<g id="edge20" class="edge"><title>Node10&#45;&gt;Node17</title>
<path fill="none" stroke="midnightblue" d="M631.284,-153.969C659.815,-161.041 695.445,-169.874 722.06,-176.471"/>
<polygon fill="midnightblue" stroke="midnightblue" points="632.063,-150.556 621.515,-151.547 630.379,-157.351 632.063,-150.556"/>
</g>
<!-- Node12&#45;&gt;Node5 -->
<g id="edge15" class="edge"><title>Node12&#45;&gt;Node5</title>
<path fill="none" stroke="midnightblue" d="M827.224,-111.86C829.952,-113.398 832.562,-115.105 835,-117 861.075,-137.265 850.364,-156.218 871,-182 894.253,-211.052 928.681,-238.38 947.502,-252.337"/>
<polygon fill="midnightblue" stroke="midnightblue" points="828.702,-108.688 818.174,-107.504 825.666,-114.995 828.702,-108.688"/>
</g>
<!-- Node13 -->
<g id="node13" class="node"><title>Node13</title>
<g id="a_node13"><a xlink:href="classMainWindow.html#a9df7443ce5f907903438bb6a9abe9a33" target="_top" xlink:title="MainWindow::createMenusAnd\lActions">
<polygon fill="white" stroke="black" points="886,-143 886,-173 1038,-173 1038,-143 886,-143"/>
<text text-anchor="start" x="894" y="-161" font-family="Helvetica,sans-Serif" font-size="10.00">MainWindow::createMenusAnd</text>
<text text-anchor="middle" x="962" y="-150" font-family="Helvetica,sans-Serif" font-size="10.00">Actions</text>
</a>
</g>
</g>
<!-- Node12&#45;&gt;Node13 -->
<g id="edge13" class="edge"><title>Node12&#45;&gt;Node13</title>
<path fill="none" stroke="midnightblue" d="M810.47,-110.15C818.676,-112.349 827.1,-114.682 835,-117 862.371,-125.032 892.788,-134.903 916.879,-142.946"/>
<polygon fill="midnightblue" stroke="midnightblue" points="811.181,-106.718 800.619,-107.544 809.391,-113.485 811.181,-106.718"/>
</g>
<!-- Node13&#45;&gt;Node6 -->
<g id="edge14" class="edge"><title>Node13&#45;&gt;Node6</title>
<path fill="none" stroke="midnightblue" d="M999.943,-177.959C1041.32,-200.314 1106.66,-235.615 1137.83,-252.452"/>
<polygon fill="midnightblue" stroke="midnightblue" points="1001.45,-174.796 990.991,-173.122 998.126,-180.955 1001.45,-174.796"/>
</g>
<!-- Node14&#45;&gt;Node13 -->
<g id="edge17" class="edge"><title>Node14&#45;&gt;Node13</title>
<path fill="none" stroke="midnightblue" d="M822.835,-23.0493C827.062,-24.7949 831.163,-26.7688 835,-29 886.42,-58.9024 930.919,-115.477 950.447,-142.661"/>
<polygon fill="midnightblue" stroke="midnightblue" points="824.026,-19.7583 813.433,-19.5814 821.603,-26.3258 824.026,-19.7583"/>
</g>
<!-- Node18&#45;&gt;Node5 -->
<g id="edge23" class="edge"><title>Node18&#45;&gt;Node5</title>
<path fill="none" stroke="midnightblue" d="M842.955,-262C852.08,-262 861.425,-262 870.666,-262"/>
<polygon fill="midnightblue" stroke="midnightblue" points="842.763,-258.5 832.763,-262 842.763,-265.5 842.763,-258.5"/>
</g>
<!-- Node18&#45;&gt;Node13 -->
<g id="edge22" class="edge"><title>Node18&#45;&gt;Node13</title>
<path fill="none" stroke="midnightblue" d="M818.255,-249.454C824.005,-247.551 829.684,-245.405 835,-243 876.591,-224.182 919.511,-191.98 942.97,-173.077"/>
<polygon fill="midnightblue" stroke="midnightblue" points="817.092,-246.15 808.56,-252.431 819.147,-252.841 817.092,-246.15"/>
</g>
</g>
</svg>
        <g id="navigator" transform="translate(0 0)" fill="#404254">
                <rect fill="#f2f5e9" fill-opacity="0.5" stroke="#606060" stroke-width=".5" x="0" y="0" width="60" height="60"/>
                <use id="zoomplus" xlink:href="#zoomPlus" x="17" y="9" onmousedown="handleZoom(evt,'in')"/>
                <use id="zoomminus" xlink:href="#zoomMin" x="42" y="9" onmousedown="handleZoom(evt,'out')"/>
                <use id="reset" xlink:href="#resetDef" x="30" y="36" onmousedown="handleReset()"/>
                <g id="arrowUp" xlink:href="#dirArrow" transform="translate(30 24)" onmousedown="handlePan(0,-1)">
                  <use xlink:href="#rim" fill="#404040">
                        <set attributeName="fill" to="#808080" begin="arrowUp.mouseover" end="arrowUp.mouseout"/>
                  </use>
                  <path fill="none" stroke="white" stroke-width="1.5" d="M0,-3.0v7 M-2.5,-0.5L0,-3.0L2.5,-0.5"/>
                </g>
                <g id="arrowRight" xlink:href="#dirArrow" transform="rotate(90) translate(36 -43)" onmousedown="handlePan(1,0)">
                  <use xlink:href="#rim" fill="#404040">
                        <set attributeName="fill" to="#808080" begin="arrowRight.mouseover" end="arrowRight.mouseout"/>
                  </use>
                  <path fill="none" stroke="white" stroke-width="1.5" d="M0,-3.0v7 M-2.5,-0.5L0,-3.0L2.5,-0.5"/>
                </g>
                <g id="arrowDown" xlink:href="#dirArrow" transform="rotate(180) translate(-30 -48)" onmousedown="handlePan(0,1)">
                  <use xlink:href="#rim" fill="#404040">
                        <set attributeName="fill" to="#808080" begin="arrowDown.mouseover" end="arrowDown.mouseout"/>
                  </use>
                  <path fill="none" stroke="white" stroke-width="1.5" d="M0,-3.0v7 M-2.5,-0.5L0,-3.0L2.5,-0.5"/>
                </g>
                <g id="arrowLeft" xlink:href="#dirArrow" transform="rotate(270) translate(-36 17)" onmousedown="handlePan(-1,0)">
                  <use xlink:href="#rim" fill="#404040">
                        <set attributeName="fill" to="#808080" begin="arrowLeft.mouseover" end="arrowLeft.mouseout"/>
                  </use>
                  <path fill="none" stroke="white" stroke-width="1.5" d="M0,-3.0v7 M-2.5,-0.5L0,-3.0L2.5,-0.5"/>
                </g>
        </g>
        <svg viewBox="0 0 15 15" width="100%" height="30px" preserveAspectRatio="xMaxYMin meet">
         <g id="arrow_out" transform="scale(0.3 0.3)">
          <a xlink:href="classTextObject_a8f1e5a14cf1a2f89b0794ea47b793ae3_icgraph_org.svg" target="_base">
           <rect id="button" ry="5" rx="5" y="6" x="6" height="38" width="38"
                fill="#f2f5e9" fill-opacity="0.5" stroke="#606060" stroke-width="1.0"/>
           <path id="arrow"
             d="M 11.500037,31.436501 C 11.940474,20.09759 22.043105,11.32322 32.158766,21.979434 L 37.068811,17.246167 C 37.068811,17.246167 37.088388,32 37.088388,32 L 22.160133,31.978069 C 22.160133,31.978069 26.997745,27.140456 26.997745,27.140456 C 18.528582,18.264221 13.291696,25.230495 11.500037,31.436501 z"
             style="fill:#404040;"/>
          </a>
         </g>
        </svg>
</svg>
