<?xml version="1.0" encoding="UTF-8" standalone="no"?>
<!DOCTYPE svg PUBLIC "-//W3C//DTD SVG 1.1//EN"
 "http://www.w3.org/Graphics/SVG/1.1/DTD/svg11.dtd">
<!-- Generated by graphviz version 2.38.0 (20140413.2041)
 -->
<!-- Title: FrameObject::loadImage Pages: 1 -->
<svg width="1884pt" height="825pt"
 viewBox="0.00 0.00 1884.00 824.50" xmlns="http://www.w3.org/2000/svg" xmlns:xlink="http://www.w3.org/1999/xlink">
<g id="graph0" class="graph" transform="scale(1 1) rotate(0) translate(4 820.5)">
<title>FrameObject::loadImage</title>
<polygon fill="white" stroke="none" points="-4,4 -4,-820.5 1880,-820.5 1880,4 -4,4"/>
<!-- Node1 -->
<g id="node1" class="node"><title>Node1</title>
<polygon fill="#bfbfbf" stroke="black" points="0,-234 0,-253 124,-253 124,-234 0,-234"/>
<text text-anchor="middle" x="62" y="-241" font-family="Helvetica,sans-Serif" font-size="10.00">FrameObject::loadImage</text>
</g>
<!-- Node2 -->
<g id="node2" class="node"><title>Node2</title>
<g id="a_node2"><a xlink:href="classFrameObject.html#ac42be5ded1448dde312e661e66c8730e" target="_top" xlink:title="FrameObject::refreshDisplay\lImage">
<polygon fill="white" stroke="black" points="160,-228.5 160,-258.5 302,-258.5 302,-228.5 160,-228.5"/>
<text text-anchor="start" x="168" y="-246.5" font-family="Helvetica,sans-Serif" font-size="10.00">FrameObject::refreshDisplay</text>
<text text-anchor="middle" x="231" y="-235.5" font-family="Helvetica,sans-Serif" font-size="10.00">Image</text>
</a>
</g>
</g>
<!-- Node1&#45;&gt;Node2 -->
<g id="edge1" class="edge"><title>Node1&#45;&gt;Node2</title>
<path fill="none" stroke="midnightblue" d="M134.376,-243.5C142.777,-243.5 151.344,-243.5 159.729,-243.5"/>
<polygon fill="midnightblue" stroke="midnightblue" points="134.236,-240 124.236,-243.5 134.236,-247 134.236,-240"/>
</g>
<!-- Node3 -->
<g id="node3" class="node"><title>Node3</title>
<g id="a_node3"><a xlink:href="classFrameObject.html#a72a06fd2f07099819623216975625bed" target="_top" xlink:title="FrameObject::setSrcPixel\lFormat">
<polygon fill="white" stroke="black" points="368,-470.5 368,-500.5 497,-500.5 497,-470.5 368,-470.5"/>
<text text-anchor="start" x="376" y="-488.5" font-family="Helvetica,sans-Serif" font-size="10.00">FrameObject::setSrcPixel</text>
<text text-anchor="middle" x="432.5" y="-477.5" font-family="Helvetica,sans-Serif" font-size="10.00">Format</text>
</a>
</g>
</g>
<!-- Node2&#45;&gt;Node3 -->
<g id="edge2" class="edge"><title>Node2&#45;&gt;Node3</title>
<path fill="none" stroke="midnightblue" d="M239.584,-268.427C253.185,-309.416 285.33,-391.484 338,-441.5 351.139,-453.977 368.465,-463.458 384.628,-470.364"/>
<polygon fill="midnightblue" stroke="midnightblue" points="242.849,-267.15 236.452,-258.705 236.187,-269.296 242.849,-267.15"/>
</g>
<!-- Node23 -->
<g id="node23" class="node"><title>Node23</title>
<g id="a_node23"><a xlink:href="classFrameObject.html#a75047fbb8bc09a65e318550143c2fdd1" target="_top" xlink:title="FrameObject::setInterpolationMode">
<polygon fill="white" stroke="black" points="347.5,-413 347.5,-432 517.5,-432 517.5,-413 347.5,-413"/>
<text text-anchor="middle" x="432.5" y="-420" font-family="Helvetica,sans-Serif" font-size="10.00">FrameObject::setInterpolationMode</text>
</a>
</g>
</g>
<!-- Node2&#45;&gt;Node23 -->
<g id="edge33" class="edge"><title>Node2&#45;&gt;Node23</title>
<path fill="none" stroke="midnightblue" d="M243.782,-267.577C260.543,-299.486 294.163,-355.577 338,-388.5 353.054,-399.806 372.239,-407.648 389.309,-412.926"/>
<polygon fill="midnightblue" stroke="midnightblue" points="246.806,-265.804 239.129,-258.503 240.577,-268.998 246.806,-265.804"/>
</g>
<!-- Node25 -->
<g id="node25" class="node"><title>Node25</title>
<g id="a_node25"><a xlink:href="classFrameObject.html#a67c75cb8f2a30ef500517dffb67b96fb" target="_top" xlink:title="FrameObject::setColorConversionMode">
<polygon fill="white" stroke="black" points="338,-360 338,-379 527,-379 527,-360 338,-360"/>
<text text-anchor="middle" x="432.5" y="-367" font-family="Helvetica,sans-Serif" font-size="10.00">FrameObject::setColorConversionMode</text>
</a>
</g>
</g>
<!-- Node2&#45;&gt;Node25 -->
<g id="edge35" class="edge"><title>Node2&#45;&gt;Node25</title>
<path fill="none" stroke="midnightblue" d="M254.174,-265.831C274.56,-285.412 306.339,-313.623 338,-332.5 357.493,-344.122 381.3,-353.482 400.012,-359.88"/>
<polygon fill="midnightblue" stroke="midnightblue" points="256.548,-263.257 246.942,-258.787 251.663,-268.272 256.548,-263.257"/>
</g>
<!-- Node27 -->
<g id="node27" class="node"><title>Node27</title>
<g id="a_node27"><a xlink:href="classFrameObject.html#a6120f59ed0a642cb9c5d01dc283c19cd" target="_top" xlink:title="FrameObject::setLumaScale">
<polygon fill="white" stroke="black" points="362,-304 362,-323 503,-323 503,-304 362,-304"/>
<text text-anchor="middle" x="432.5" y="-311" font-family="Helvetica,sans-Serif" font-size="10.00">FrameObject::setLumaScale</text>
</a>
</g>
</g>
<!-- Node2&#45;&gt;Node27 -->
<g id="edge37" class="edge"><title>Node2&#45;&gt;Node27</title>
<path fill="none" stroke="midnightblue" d="M282.923,-261.924C300.368,-268.191 320.02,-275.201 338,-281.5 359.859,-289.158 384.665,-297.638 403.231,-303.944"/>
<polygon fill="midnightblue" stroke="midnightblue" points="284.077,-258.62 273.483,-258.528 281.708,-265.206 284.077,-258.62"/>
</g>
<!-- Node30 -->
<g id="node30" class="node"><title>Node30</title>
<g id="a_node30"><a xlink:href="classFrameObject.html#aa3839da0486076c1af04a964dfac7392" target="_top" xlink:title="FrameObject::setChromaUScale">
<polygon fill="white" stroke="black" points="353,-253 353,-272 512,-272 512,-253 353,-253"/>
<text text-anchor="middle" x="432.5" y="-260" font-family="Helvetica,sans-Serif" font-size="10.00">FrameObject::setChromaUScale</text>
</a>
</g>
</g>
<!-- Node2&#45;&gt;Node30 -->
<g id="edge40" class="edge"><title>Node2&#45;&gt;Node30</title>
<path fill="none" stroke="midnightblue" d="M312.173,-251.136C325.551,-252.41 339.417,-253.73 352.759,-255.001"/>
<polygon fill="midnightblue" stroke="midnightblue" points="312.343,-247.636 302.056,-250.172 311.679,-254.604 312.343,-247.636"/>
</g>
<!-- Node32 -->
<g id="node32" class="node"><title>Node32</title>
<g id="a_node32"><a xlink:href="classFrameObject.html#abaa1202cddb161bcd5ce673e67b197af" target="_top" xlink:title="FrameObject::setChromaVScale">
<polygon fill="white" stroke="black" points="353.5,-215 353.5,-234 511.5,-234 511.5,-215 353.5,-215"/>
<text text-anchor="middle" x="432.5" y="-222" font-family="Helvetica,sans-Serif" font-size="10.00">FrameObject::setChromaVScale</text>
</a>
</g>
</g>
<!-- Node2&#45;&gt;Node32 -->
<g id="edge44" class="edge"><title>Node2&#45;&gt;Node32</title>
<path fill="none" stroke="midnightblue" d="M312.314,-235.851C325.878,-234.559 339.941,-233.22 353.446,-231.934"/>
<polygon fill="midnightblue" stroke="midnightblue" points="311.679,-232.396 302.056,-236.828 312.343,-239.364 311.679,-232.396"/>
</g>
<!-- Node33 -->
<g id="node33" class="node"><title>Node33</title>
<g id="a_node33"><a xlink:href="classFrameObject.html#aa70a1b5f92a93f34fe94b3ca89337dcd" target="_top" xlink:title="FrameObject::setLumaOffset">
<polygon fill="white" stroke="black" points="361,-174 361,-193 504,-193 504,-174 361,-174"/>
<text text-anchor="middle" x="432.5" y="-181" font-family="Helvetica,sans-Serif" font-size="10.00">FrameObject::setLumaOffset</text>
</a>
</g>
</g>
<!-- Node2&#45;&gt;Node33 -->
<g id="edge47" class="edge"><title>Node2&#45;&gt;Node33</title>
<path fill="none" stroke="midnightblue" d="M280.565,-224.787C298.471,-218.233 319.019,-211.116 338,-205.5 353.511,-200.911 370.691,-196.641 386.049,-193.107"/>
<polygon fill="midnightblue" stroke="midnightblue" points="279.08,-221.604 270.916,-228.356 281.509,-228.169 279.08,-221.604"/>
</g>
<!-- Node35 -->
<g id="node35" class="node"><title>Node35</title>
<g id="a_node35"><a xlink:href="classFrameObject.html#aa51ebda1841c6af48eb4e59e6fb76878" target="_top" xlink:title="FrameObject::setChromaOffset">
<polygon fill="white" stroke="black" points="355.5,-130 355.5,-149 509.5,-149 509.5,-130 355.5,-130"/>
<text text-anchor="middle" x="432.5" y="-137" font-family="Helvetica,sans-Serif" font-size="10.00">FrameObject::setChromaOffset</text>
</a>
</g>
</g>
<!-- Node2&#45;&gt;Node35 -->
<g id="edge50" class="edge"><title>Node2&#45;&gt;Node35</title>
<path fill="none" stroke="midnightblue" d="M255.501,-221.827C275.914,-204.071 306.997,-179.509 338,-164.5 351.611,-157.91 367.208,-152.864 381.713,-149.091"/>
<polygon fill="midnightblue" stroke="midnightblue" points="253.13,-219.252 247.96,-228.5 257.769,-224.494 253.13,-219.252"/>
</g>
<!-- Node37 -->
<g id="node37" class="node"><title>Node37</title>
<g id="a_node37"><a xlink:href="classFrameObject.html#ab9229ebf6eb0031158eb516ac416bd6b" target="_top" xlink:title="FrameObject::setLumaInvert">
<polygon fill="white" stroke="black" points="362,-81 362,-100 503,-100 503,-81 362,-81"/>
<text text-anchor="middle" x="432.5" y="-88" font-family="Helvetica,sans-Serif" font-size="10.00">FrameObject::setLumaInvert</text>
</a>
</g>
</g>
<!-- Node2&#45;&gt;Node37 -->
<g id="edge53" class="edge"><title>Node2&#45;&gt;Node37</title>
<path fill="none" stroke="midnightblue" d="M246.674,-219.607C264.845,-191.934 298.303,-146.792 338,-120.5 351.929,-111.275 368.895,-104.716 384.533,-100.135"/>
<polygon fill="midnightblue" stroke="midnightblue" points="243.57,-217.964 241.111,-228.269 249.46,-221.746 243.57,-217.964"/>
</g>
<!-- Node39 -->
<g id="node39" class="node"><title>Node39</title>
<g id="a_node39"><a xlink:href="classFrameObject.html#a67f3c49361b179fda6205658bb5218d4" target="_top" xlink:title="FrameObject::setChromaInvert">
<polygon fill="white" stroke="black" points="356.5,-21 356.5,-40 508.5,-40 508.5,-21 356.5,-21"/>
<text text-anchor="middle" x="432.5" y="-28" font-family="Helvetica,sans-Serif" font-size="10.00">FrameObject::setChromaInvert</text>
</a>
</g>
</g>
<!-- Node2&#45;&gt;Node39 -->
<g id="edge55" class="edge"><title>Node2&#45;&gt;Node39</title>
<path fill="none" stroke="midnightblue" d="M241.633,-218.581C256.949,-181.883 290.101,-113.162 338,-71.5 354.851,-56.8433 377.764,-46.6821 396.691,-40.1417"/>
<polygon fill="midnightblue" stroke="midnightblue" points="238.314,-217.451 237.788,-228.033 244.798,-220.088 238.314,-217.451"/>
</g>
<!-- Node4 -->
<g id="node4" class="node"><title>Node4</title>
<g id="a_node4"><a xlink:href="classMainWindow.html#a2d8cea1d443550a8f14ce8c80d2608c6" target="_top" xlink:title="MainWindow::loadPlaylistFile">
<polygon fill="white" stroke="black" points="778,-586 778,-605 923,-605 923,-586 778,-586"/>
<text text-anchor="middle" x="850.5" y="-593" font-family="Helvetica,sans-Serif" font-size="10.00">MainWindow::loadPlaylistFile</text>
</a>
</g>
</g>
<!-- Node3&#45;&gt;Node4 -->
<g id="edge3" class="edge"><title>Node3&#45;&gt;Node4</title>
<path fill="none" stroke="midnightblue" d="M500.194,-503.135C589.174,-526.664 743.596,-567.496 813.4,-585.954"/>
<polygon fill="midnightblue" stroke="midnightblue" points="501.033,-499.737 490.471,-500.564 499.244,-506.505 501.033,-499.737"/>
</g>
<!-- Node15 -->
<g id="node15" class="node"><title>Node15</title>
<g id="a_node15"><a xlink:href="classMainWindow.html#a2cae0b3ed4283301ecc11dc881d31422" target="_top" xlink:title="A file option was changed by the user (width/height/start/end/rate/sampling/frameSize/pixelFormat). ">
<polygon fill="white" stroke="black" points="577.5,-470.5 577.5,-500.5 713.5,-500.5 713.5,-470.5 577.5,-470.5"/>
<text text-anchor="start" x="585.5" y="-488.5" font-family="Helvetica,sans-Serif" font-size="10.00">MainWindow::on_fileOption</text>
<text text-anchor="middle" x="645.5" y="-477.5" font-family="Helvetica,sans-Serif" font-size="10.00">ValueChanged</text>
</a>
</g>
</g>
<!-- Node3&#45;&gt;Node15 -->
<g id="edge16" class="edge"><title>Node3&#45;&gt;Node15</title>
<path fill="none" stroke="midnightblue" d="M507.385,-485.5C530.153,-485.5 555.086,-485.5 577.373,-485.5"/>
<polygon fill="midnightblue" stroke="midnightblue" points="507.093,-482 497.093,-485.5 507.093,-489 507.093,-482"/>
</g>
<!-- Node5 -->
<g id="node5" class="node"><title>Node5</title>
<g id="a_node5"><a xlink:href="classMainWindow.html#a8ef1be3cb02e12d68d12375d1a7a0ced" target="_top" xlink:title="loads a list of yuv/csv files ">
<polygon fill="white" stroke="black" points="1172,-671 1172,-690 1290,-690 1290,-671 1172,-671"/>
<text text-anchor="middle" x="1231" y="-678" font-family="Helvetica,sans-Serif" font-size="10.00">MainWindow::loadFiles</text>
</a>
</g>
</g>
<!-- Node4&#45;&gt;Node5 -->
<g id="edge4" class="edge"><title>Node4&#45;&gt;Node5</title>
<path fill="none" stroke="midnightblue" d="M903.61,-607.202C979.236,-624.186 1117.96,-655.34 1187.67,-670.993"/>
<polygon fill="midnightblue" stroke="midnightblue" points="904.341,-603.779 893.817,-605.003 902.807,-610.609 904.341,-603.779"/>
</g>
<!-- Node6 -->
<g id="node6" class="node"><title>Node6</title>
<g id="a_node6"><a xlink:href="classDisplaySplitWidget.html#ac1d4ced58b2ac2b08153694a5de6232e" target="_top" xlink:title="DisplaySplitWidget\l::dropEvent">
<polygon fill="white" stroke="black" points="1363.5,-709.5 1363.5,-739.5 1463.5,-739.5 1463.5,-709.5 1363.5,-709.5"/>
<text text-anchor="start" x="1371.5" y="-727.5" font-family="Helvetica,sans-Serif" font-size="10.00">DisplaySplitWidget</text>
<text text-anchor="middle" x="1413.5" y="-716.5" font-family="Helvetica,sans-Serif" font-size="10.00">::dropEvent</text>
</a>
</g>
</g>
<!-- Node5&#45;&gt;Node6 -->
<g id="edge5" class="edge"><title>Node5&#45;&gt;Node6</title>
<path fill="none" stroke="midnightblue" d="M1281.03,-692.452C1306.61,-698.688 1337.82,-706.296 1363.41,-712.534"/>
<polygon fill="midnightblue" stroke="midnightblue" points="1281.71,-689.015 1271.17,-690.047 1280.05,-695.816 1281.71,-689.015"/>
</g>
<!-- Node7 -->
<g id="node7" class="node"><title>Node7</title>
<g id="a_node7"><a xlink:href="classMainWindow.html#a288b768c3c21a9171bdc56fe845ece8b" target="_top" xlink:title="Shows the file open dialog and loads all selected Files. ">
<polygon fill="white" stroke="black" points="1355.5,-583 1355.5,-602 1471.5,-602 1471.5,-583 1355.5,-583"/>
<text text-anchor="middle" x="1413.5" y="-590" font-family="Helvetica,sans-Serif" font-size="10.00">MainWindow::openFile</text>
</a>
</g>
</g>
<!-- Node5&#45;&gt;Node7 -->
<g id="edge6" class="edge"><title>Node5&#45;&gt;Node7</title>
<path fill="none" stroke="midnightblue" d="M1252.78,-664.807C1273.81,-649.581 1307.72,-626.744 1340,-612.5 1349.32,-608.389 1359.69,-604.926 1369.6,-602.098"/>
<polygon fill="midnightblue" stroke="midnightblue" points="1250.59,-662.076 1244.61,-670.82 1254.74,-667.716 1250.59,-662.076"/>
</g>
<!-- Node11 -->
<g id="node11" class="node"><title>Node11</title>
<g id="a_node11"><a xlink:href="classMainWindow.html#a935316315edb9b7af42657da20be0e54" target="_top" xlink:title="MainWindow::openRecentFile">
<polygon fill="white" stroke="black" points="1340,-671 1340,-690 1487,-690 1487,-671 1340,-671"/>
<text text-anchor="middle" x="1413.5" y="-678" font-family="Helvetica,sans-Serif" font-size="10.00">MainWindow::openRecentFile</text>
</a>
</g>
</g>
<!-- Node5&#45;&gt;Node11 -->
<g id="edge11" class="edge"><title>Node5&#45;&gt;Node11</title>
<path fill="none" stroke="midnightblue" d="M1300.33,-680.5C1313.28,-680.5 1326.87,-680.5 1339.94,-680.5"/>
<polygon fill="midnightblue" stroke="midnightblue" points="1300.1,-677 1290.1,-680.5 1300.1,-684 1300.1,-677"/>
</g>
<!-- Node12 -->
<g id="node12" class="node"><title>Node12</title>
<g id="a_node12"><a xlink:href="classPlaylistTreeWidget.html#a295170eb269cc67050ea0b575cd0ab53" target="_top" xlink:title="PlaylistTreeWidget\l::dropEvent">
<polygon fill="white" stroke="black" points="1364,-621.5 1364,-651.5 1463,-651.5 1463,-621.5 1364,-621.5"/>
<text text-anchor="start" x="1372" y="-639.5" font-family="Helvetica,sans-Serif" font-size="10.00">PlaylistTreeWidget</text>
<text text-anchor="middle" x="1413.5" y="-628.5" font-family="Helvetica,sans-Serif" font-size="10.00">::dropEvent</text>
</a>
</g>
</g>
<!-- Node5&#45;&gt;Node12 -->
<g id="edge13" class="edge"><title>Node5&#45;&gt;Node12</title>
<path fill="none" stroke="midnightblue" d="M1281.07,-668.539C1306.76,-662.277 1338.11,-654.635 1363.75,-648.384"/>
<polygon fill="midnightblue" stroke="midnightblue" points="1280.05,-665.184 1271.17,-670.953 1281.71,-671.985 1280.05,-665.184"/>
</g>
<!-- Node13 -->
<g id="node13" class="node"><title>Node13</title>
<g id="a_node13"><a xlink:href="classYUViewApp.html#ac0f5381cc5b703a9ea704b5eedab4b7f" target="_top" xlink:title="YUViewApp::YUViewApp">
<polygon fill="white" stroke="black" points="1349,-797 1349,-816 1478,-816 1478,-797 1349,-797"/>
<text text-anchor="middle" x="1413.5" y="-804" font-family="Helvetica,sans-Serif" font-size="10.00">YUViewApp::YUViewApp</text>
</a>
</g>
</g>
<!-- Node5&#45;&gt;Node13 -->
<g id="edge14" class="edge"><title>Node5&#45;&gt;Node13</title>
<path fill="none" stroke="midnightblue" d="M1245.08,-698.386C1263.55,-722.319 1299.55,-764.418 1340,-787.5 1346.78,-791.369 1354.37,-794.468 1362.01,-796.946"/>
<polygon fill="midnightblue" stroke="midnightblue" points="1247.71,-696.055 1238.89,-690.18 1242.12,-700.271 1247.71,-696.055"/>
</g>
<!-- Node14 -->
<g id="node14" class="node"><title>Node14</title>
<g id="a_node14"><a xlink:href="classYUViewApp.html#a2f5f937d6677018ef73a5ffc248f9891" target="_top" xlink:title="YUViewApp::event">
<polygon fill="white" stroke="black" points="1363.5,-759 1363.5,-778 1463.5,-778 1463.5,-759 1363.5,-759"/>
<text text-anchor="middle" x="1413.5" y="-766" font-family="Helvetica,sans-Serif" font-size="10.00">YUViewApp::event</text>
</a>
</g>
</g>
<!-- Node5&#45;&gt;Node14 -->
<g id="edge15" class="edge"><title>Node5&#45;&gt;Node14</title>
<path fill="none" stroke="midnightblue" d="M1252.36,-696.276C1273.3,-711.808 1307.36,-735.22 1340,-749.5 1348.58,-753.255 1358.07,-756.401 1367.28,-758.983"/>
<polygon fill="midnightblue" stroke="midnightblue" points="1254.33,-693.375 1244.24,-690.151 1250.12,-698.965 1254.33,-693.375"/>
</g>
<!-- Node8 -->
<g id="node8" class="node"><title>Node8</title>
<g id="a_node8"><a xlink:href="classMainWindow.html#a9df7443ce5f907903438bb6a9abe9a33" target="_top" xlink:title="MainWindow::createMenusAnd\lActions">
<polygon fill="white" stroke="black" points="1538,-580.5 1538,-610.5 1690,-610.5 1690,-580.5 1538,-580.5"/>
<text text-anchor="start" x="1546" y="-598.5" font-family="Helvetica,sans-Serif" font-size="10.00">MainWindow::createMenusAnd</text>
<text text-anchor="middle" x="1614" y="-587.5" font-family="Helvetica,sans-Serif" font-size="10.00">Actions</text>
</a>
</g>
</g>
<!-- Node7&#45;&gt;Node8 -->
<g id="edge7" class="edge"><title>Node7&#45;&gt;Node8</title>
<path fill="none" stroke="midnightblue" d="M1481.76,-593.517C1499.78,-593.789 1519.37,-594.085 1537.78,-594.363"/>
<polygon fill="midnightblue" stroke="midnightblue" points="1481.7,-590.015 1471.65,-593.364 1481.59,-597.015 1481.7,-590.015"/>
</g>
<!-- Node10 -->
<g id="node10" class="node"><title>Node10</title>
<g id="a_node10"><a xlink:href="classMainWindow.html#aaba5c236313378986c42c4a634c4cfb9" target="_top" xlink:title="MainWindow::onCustomContextMenu">
<polygon fill="white" stroke="black" points="1523,-542 1523,-561 1705,-561 1705,-542 1523,-542"/>
<text text-anchor="middle" x="1614" y="-549" font-family="Helvetica,sans-Serif" font-size="10.00">MainWindow::onCustomContextMenu</text>
</a>
</g>
</g>
<!-- Node7&#45;&gt;Node10 -->
<g id="edge9" class="edge"><title>Node7&#45;&gt;Node10</title>
<path fill="none" stroke="midnightblue" d="M1470.58,-580.918C1501,-574.634 1538.14,-566.962 1566.87,-561.029"/>
<polygon fill="midnightblue" stroke="midnightblue" points="1469.62,-577.54 1460.54,-582.991 1471.04,-584.395 1469.62,-577.54"/>
</g>
<!-- Node9 -->
<g id="node9" class="node"><title>Node9</title>
<g id="a_node9"><a xlink:href="classMainWindow.html#a8b244be8b7b7db1b08de2a2acb9409db" target="_top" xlink:title="MainWindow::MainWindow">
<polygon fill="white" stroke="black" points="1741,-476 1741,-495 1876,-495 1876,-476 1741,-476"/>
<text text-anchor="middle" x="1808.5" y="-483" font-family="Helvetica,sans-Serif" font-size="10.00">MainWindow::MainWindow</text>
</a>
</g>
</g>
<!-- Node8&#45;&gt;Node9 -->
<g id="edge8" class="edge"><title>Node8&#45;&gt;Node9</title>
<path fill="none" stroke="midnightblue" d="M1691,-576.922C1695.83,-574.971 1700.53,-572.835 1705,-570.5 1744.13,-550.046 1781.93,-512.797 1798.6,-495.201"/>
<polygon fill="midnightblue" stroke="midnightblue" points="1689.74,-573.658 1681.61,-580.451 1692.2,-580.21 1689.74,-573.658"/>
</g>
<!-- Node10&#45;&gt;Node9 -->
<g id="edge10" class="edge"><title>Node10&#45;&gt;Node9</title>
<path fill="none" stroke="midnightblue" d="M1679.77,-539.635C1688.34,-537.541 1696.93,-535.164 1705,-532.5 1735.86,-522.308 1769.8,-505.572 1789.84,-495.064"/>
<polygon fill="midnightblue" stroke="midnightblue" points="1678.72,-536.287 1669.77,-541.964 1680.31,-543.105 1678.72,-536.287"/>
</g>
<!-- Node11&#45;&gt;Node8 -->
<g id="edge12" class="edge"><title>Node11&#45;&gt;Node8</title>
<path fill="none" stroke="midnightblue" d="M1467.32,-668.157C1474.02,-666.155 1480.72,-663.931 1487,-661.5 1523.62,-647.323 1563.35,-625.297 1588.21,-610.64"/>
<polygon fill="midnightblue" stroke="midnightblue" points="1466.23,-664.829 1457.56,-670.929 1468.14,-671.563 1466.23,-664.829"/>
</g>
<!-- Node15&#45;&gt;Node9 -->
<g id="edge17" class="edge"><title>Node15&#45;&gt;Node9</title>
<path fill="none" stroke="midnightblue" d="M711.592,-467.746C816.139,-439.503 1013.17,-387.5 1046.5,-387.5 1046.5,-387.5 1046.5,-387.5 1414.5,-387.5 1543.89,-387.5 1583.95,-360.802 1705,-406.5 1745.15,-421.656 1782.44,-458.172 1798.8,-475.739"/>
<polygon fill="midnightblue" stroke="midnightblue" points="710.511,-464.412 701.772,-470.402 712.339,-471.17 710.511,-464.412"/>
</g>
<!-- Node16 -->
<g id="node16" class="node"><title>Node16</title>
<g id="a_node16"><a xlink:href="classMainWindow.html#a29e6418f12a4331860a7db3616e91600" target="_top" xlink:title="updates the YUV information GUI elements from the current Renderobject ">
<polygon fill="white" stroke="black" points="776,-470.5 776,-500.5 925,-500.5 925,-470.5 776,-470.5"/>
<text text-anchor="start" x="784" y="-488.5" font-family="Helvetica,sans-Serif" font-size="10.00">MainWindow::updateSelection</text>
<text text-anchor="middle" x="850.5" y="-477.5" font-family="Helvetica,sans-Serif" font-size="10.00">MetaInfo</text>
</a>
</g>
</g>
<!-- Node15&#45;&gt;Node16 -->
<g id="edge18" class="edge"><title>Node15&#45;&gt;Node16</title>
<path fill="none" stroke="midnightblue" d="M723.995,-478.921C741.027,-478.674 759.015,-478.695 775.888,-478.982"/>
<polygon fill="midnightblue" stroke="midnightblue" points="723.468,-475.429 713.532,-479.109 723.594,-482.428 723.468,-475.429"/>
</g>
<!-- Node16&#45;&gt;Node15 -->
<g id="edge30" class="edge"><title>Node16&#45;&gt;Node15</title>
<path fill="none" stroke="midnightblue" d="M765.745,-492.157C748.348,-492.341 730.234,-492.252 713.532,-491.891"/>
<polygon fill="midnightblue" stroke="midnightblue" points="765.937,-495.655 775.888,-492.018 765.841,-488.656 765.937,-495.655"/>
</g>
<!-- Node17 -->
<g id="node17" class="node"><title>Node17</title>
<g id="a_node17"><a xlink:href="classMainWindow.html#a6f33e93f427ff2df80edffcb3ad944da" target="_top" xlink:title="MainWindow::updateSelected\lItems">
<polygon fill="white" stroke="black" points="1158,-470.5 1158,-500.5 1304,-500.5 1304,-470.5 1158,-470.5"/>
<text text-anchor="start" x="1166" y="-488.5" font-family="Helvetica,sans-Serif" font-size="10.00">MainWindow::updateSelected</text>
<text text-anchor="middle" x="1231" y="-477.5" font-family="Helvetica,sans-Serif" font-size="10.00">Items</text>
</a>
</g>
</g>
<!-- Node16&#45;&gt;Node17 -->
<g id="edge19" class="edge"><title>Node16&#45;&gt;Node17</title>
<path fill="none" stroke="midnightblue" d="M935.158,-487.837C947.836,-488.112 960.764,-488.349 973,-488.5 1039.22,-489.317 1055.78,-489.419 1122,-488.5 1133.63,-488.339 1145.96,-488.079 1157.97,-487.779"/>
<polygon fill="midnightblue" stroke="midnightblue" points="935.138,-484.336 925.061,-487.608 934.98,-491.334 935.138,-484.336"/>
</g>
<!-- Node22 -->
<g id="node22" class="node"><title>Node22</title>
<g id="a_node22"><a xlink:href="classMainWindow.html#a23cc43af3c6873f9a936b5af05c99f49" target="_top" xlink:title="The display objects information changed. Update. ">
<polygon fill="white" stroke="black" points="973,-448.5 973,-478.5 1122,-478.5 1122,-448.5 973,-448.5"/>
<text text-anchor="start" x="981" y="-466.5" font-family="Helvetica,sans-Serif" font-size="10.00">MainWindow::currentSelection</text>
<text text-anchor="middle" x="1047.5" y="-455.5" font-family="Helvetica,sans-Serif" font-size="10.00">InformationChanged</text>
</a>
</g>
</g>
<!-- Node16&#45;&gt;Node22 -->
<g id="edge31" class="edge"><title>Node16&#45;&gt;Node22</title>
<path fill="none" stroke="midnightblue" d="M935.217,-476.055C947.785,-474.637 960.665,-473.184 972.998,-471.793"/>
<polygon fill="midnightblue" stroke="midnightblue" points="934.766,-472.584 925.221,-477.183 935.551,-479.539 934.766,-472.584"/>
</g>
<!-- Node17&#45;&gt;Node9 -->
<g id="edge20" class="edge"><title>Node17&#45;&gt;Node9</title>
<path fill="none" stroke="midnightblue" d="M1314.17,-484.456C1408.52,-483.42 1567.94,-482.163 1705,-483.5 1716.57,-483.613 1728.87,-483.797 1740.79,-484.01"/>
<polygon fill="midnightblue" stroke="midnightblue" points="1314.08,-480.957 1304.12,-484.569 1314.16,-487.957 1314.08,-480.957"/>
</g>
<!-- Node18 -->
<g id="node18" class="node"><title>Node18</title>
<g id="a_node18"><a xlink:href="classMainWindow.html#a6be7246a1a0ecf5d1442bb1775c3d9b3" target="_top" xlink:title="MainWindow::addDifference\lSequence">
<polygon fill="white" stroke="black" points="1343.5,-533.5 1343.5,-563.5 1483.5,-563.5 1483.5,-533.5 1343.5,-533.5"/>
<text text-anchor="start" x="1351.5" y="-551.5" font-family="Helvetica,sans-Serif" font-size="10.00">MainWindow::addDifference</text>
<text text-anchor="middle" x="1413.5" y="-540.5" font-family="Helvetica,sans-Serif" font-size="10.00">Sequence</text>
</a>
</g>
</g>
<!-- Node17&#45;&gt;Node18 -->
<g id="edge21" class="edge"><title>Node17&#45;&gt;Node18</title>
<path fill="none" stroke="midnightblue" d="M1284.15,-503.922C1301.86,-510.161 1321.79,-517.156 1340,-523.5 1349.3,-526.741 1359.29,-530.197 1368.78,-533.473"/>
<polygon fill="midnightblue" stroke="midnightblue" points="1285.15,-500.564 1274.55,-500.541 1282.82,-507.166 1285.15,-500.564"/>
</g>
<!-- Node19 -->
<g id="node19" class="node"><title>Node19</title>
<g id="a_node19"><a xlink:href="classMainWindow.html#af5ecc7c65080215b49b9d931c56c65c9" target="_top" xlink:title="MainWindow::editTextFrame">
<polygon fill="white" stroke="black" points="1342.5,-495 1342.5,-514 1484.5,-514 1484.5,-495 1342.5,-495"/>
<text text-anchor="middle" x="1413.5" y="-502" font-family="Helvetica,sans-Serif" font-size="10.00">MainWindow::editTextFrame</text>
</a>
</g>
</g>
<!-- Node17&#45;&gt;Node19 -->
<g id="edge24" class="edge"><title>Node17&#45;&gt;Node19</title>
<path fill="none" stroke="midnightblue" d="M1314.22,-494.154C1323.58,-495.141 1333.07,-496.139 1342.26,-497.107"/>
<polygon fill="midnightblue" stroke="midnightblue" points="1314.43,-490.657 1304.12,-493.091 1313.7,-497.619 1314.43,-490.657"/>
</g>
<!-- Node21 -->
<g id="node21" class="node"><title>Node21</title>
<g id="a_node21"><a xlink:href="classMainWindow.html#a156c29c6d7ab278e4246c88a0fcbe2f2" target="_top" xlink:title="MainWindow::updateSettings">
<polygon fill="white" stroke="black" points="1542,-416 1542,-435 1686,-435 1686,-416 1542,-416"/>
<text text-anchor="middle" x="1614" y="-423" font-family="Helvetica,sans-Serif" font-size="10.00">MainWindow::updateSettings</text>
</a>
</g>
</g>
<!-- Node17&#45;&gt;Node21 -->
<g id="edge28" class="edge"><title>Node17&#45;&gt;Node21</title>
<path fill="none" stroke="midnightblue" d="M1279.33,-467.056C1297.97,-460.5 1319.73,-453.708 1340,-449.5 1407.66,-435.451 1486.43,-429.618 1541.92,-427.201"/>
<polygon fill="midnightblue" stroke="midnightblue" points="1278.12,-463.772 1269.89,-470.448 1280.48,-470.359 1278.12,-463.772"/>
</g>
<!-- Node18&#45;&gt;Node8 -->
<g id="edge22" class="edge"><title>Node18&#45;&gt;Node8</title>
<path fill="none" stroke="midnightblue" d="M1487.68,-565.827C1507.99,-570.636 1529.87,-575.816 1549.57,-580.481"/>
<polygon fill="midnightblue" stroke="midnightblue" points="1488.39,-562.399 1477.85,-563.5 1486.78,-569.21 1488.39,-562.399"/>
</g>
<!-- Node18&#45;&gt;Node10 -->
<g id="edge23" class="edge"><title>Node18&#45;&gt;Node10</title>
<path fill="none" stroke="midnightblue" d="M1493.86,-549.699C1503.37,-549.843 1513.15,-549.991 1522.8,-550.137"/>
<polygon fill="midnightblue" stroke="midnightblue" points="1493.7,-546.197 1483.65,-549.545 1493.59,-553.196 1493.7,-546.197"/>
</g>
<!-- Node19&#45;&gt;Node10 -->
<g id="edge25" class="edge"><title>Node19&#45;&gt;Node10</title>
<path fill="none" stroke="midnightblue" d="M1459.87,-516.688C1479.27,-521.774 1502.19,-527.622 1523,-532.5 1536.84,-535.744 1551.93,-539.029 1565.74,-541.935"/>
<polygon fill="midnightblue" stroke="midnightblue" points="1460.64,-513.271 1450.07,-514.106 1458.85,-520.04 1460.64,-513.271"/>
</g>
<!-- Node20 -->
<g id="node20" class="node"><title>Node20</title>
<g id="a_node20"><a xlink:href="classMainWindow.html#ab18c663524e2c130759c0ca960129ea4" target="_top" xlink:title="MainWindow::onItemDouble\lClicked">
<polygon fill="white" stroke="black" points="1544,-492.5 1544,-522.5 1684,-522.5 1684,-492.5 1544,-492.5"/>
<text text-anchor="start" x="1552" y="-510.5" font-family="Helvetica,sans-Serif" font-size="10.00">MainWindow::onItemDouble</text>
<text text-anchor="middle" x="1614" y="-499.5" font-family="Helvetica,sans-Serif" font-size="10.00">Clicked</text>
</a>
</g>
</g>
<!-- Node19&#45;&gt;Node20 -->
<g id="edge26" class="edge"><title>Node19&#45;&gt;Node20</title>
<path fill="none" stroke="midnightblue" d="M1494.78,-505.713C1511.04,-505.959 1528,-506.215 1543.83,-506.455"/>
<polygon fill="midnightblue" stroke="midnightblue" points="1494.81,-502.214 1484.76,-505.562 1494.71,-509.213 1494.81,-502.214"/>
</g>
<!-- Node20&#45;&gt;Node9 -->
<g id="edge27" class="edge"><title>Node20&#45;&gt;Node9</title>
<path fill="none" stroke="midnightblue" d="M1694.28,-498.439C1709.75,-496.672 1725.81,-494.835 1740.82,-493.121"/>
<polygon fill="midnightblue" stroke="midnightblue" points="1693.76,-494.976 1684.22,-499.589 1694.56,-501.93 1693.76,-494.976"/>
</g>
<!-- Node21&#45;&gt;Node9 -->
<g id="edge29" class="edge"><title>Node21&#45;&gt;Node9</title>
<path fill="none" stroke="midnightblue" d="M1662.97,-437.559C1676.62,-441.186 1691.45,-445.32 1705,-449.5 1731.49,-457.672 1761.36,-468.329 1781.99,-475.923"/>
<polygon fill="midnightblue" stroke="midnightblue" points="1663.85,-434.169 1653.28,-435.013 1662.07,-440.94 1663.85,-434.169"/>
</g>
<!-- Node22&#45;&gt;Node17 -->
<g id="edge32" class="edge"><title>Node22&#45;&gt;Node17</title>
<path fill="none" stroke="midnightblue" d="M1132.09,-473.632C1140.68,-474.673 1149.35,-475.725 1157.81,-476.749"/>
<polygon fill="midnightblue" stroke="midnightblue" points="1132.41,-470.145 1122.06,-472.417 1131.57,-477.094 1132.41,-470.145"/>
</g>
<!-- Node24 -->
<g id="node24" class="node"><title>Node24</title>
<g id="a_node24"><a xlink:href="classMainWindow.html#a704745d0944b860342ac8bdb6867491c" target="_top" xlink:title="TODO: Should this also be in updateSelectionMetaInfo and the signal/slot? ">
<polygon fill="white" stroke="black" points="563.5,-421.5 563.5,-451.5 727.5,-451.5 727.5,-421.5 563.5,-421.5"/>
<text text-anchor="start" x="571.5" y="-439.5" font-family="Helvetica,sans-Serif" font-size="10.00">MainWindow::on_interpolation</text>
<text text-anchor="middle" x="645.5" y="-428.5" font-family="Helvetica,sans-Serif" font-size="10.00">ComboBox_currentIndexChanged</text>
</a>
</g>
</g>
<!-- Node23&#45;&gt;Node24 -->
<g id="edge34" class="edge"><title>Node23&#45;&gt;Node24</title>
<path fill="none" stroke="midnightblue" d="M528.1,-428.777C539.89,-429.559 551.862,-430.353 563.421,-431.12"/>
<polygon fill="midnightblue" stroke="midnightblue" points="528.012,-425.263 517.802,-428.094 527.549,-432.248 528.012,-425.263"/>
</g>
<!-- Node26 -->
<g id="node26" class="node"><title>Node26</title>
<g id="a_node26"><a xlink:href="classMainWindow.html#aa8d01c48d2abb3c4bfaf0fbb387a79b4" target="_top" xlink:title="MainWindow::on_colorConversion\lComboBox_currentIndexChanged">
<polygon fill="white" stroke="black" points="563,-372.5 563,-402.5 728,-402.5 728,-372.5 563,-372.5"/>
<text text-anchor="start" x="571" y="-390.5" font-family="Helvetica,sans-Serif" font-size="10.00">MainWindow::on_colorConversion</text>
<text text-anchor="middle" x="645.5" y="-379.5" font-family="Helvetica,sans-Serif" font-size="10.00">ComboBox_currentIndexChanged</text>
</a>
</g>
</g>
<!-- Node25&#45;&gt;Node26 -->
<g id="edge36" class="edge"><title>Node25&#45;&gt;Node26</title>
<path fill="none" stroke="midnightblue" d="M537.34,-378.358C545.93,-379.091 554.535,-379.825 562.927,-380.541"/>
<polygon fill="midnightblue" stroke="midnightblue" points="537.538,-374.863 527.276,-377.5 536.943,-381.837 537.538,-374.863"/>
</g>
<!-- Node28 -->
<g id="node28" class="node"><title>Node28</title>
<g id="a_node28"><a xlink:href="classMainWindow.html#a3e50d275dfc7ac5871360412dd83f7eb" target="_top" xlink:title="MainWindow::on_LumaScale\lSpinBox_valueChanged">
<polygon fill="white" stroke="black" points="574,-323.5 574,-353.5 717,-353.5 717,-323.5 574,-323.5"/>
<text text-anchor="start" x="582" y="-341.5" font-family="Helvetica,sans-Serif" font-size="10.00">MainWindow::on_LumaScale</text>
<text text-anchor="middle" x="645.5" y="-330.5" font-family="Helvetica,sans-Serif" font-size="10.00">SpinBox_valueChanged</text>
</a>
</g>
</g>
<!-- Node27&#45;&gt;Node28 -->
<g id="edge38" class="edge"><title>Node27&#45;&gt;Node28</title>
<path fill="none" stroke="midnightblue" d="M513.153,-322.938C533.093,-325.3 554.346,-327.818 573.817,-330.125"/>
<polygon fill="midnightblue" stroke="midnightblue" points="513.516,-319.456 503.174,-321.755 512.693,-326.408 513.516,-319.456"/>
</g>
<!-- Node29 -->
<g id="node29" class="node"><title>Node29</title>
<g id="a_node29"><a xlink:href="classMainWindow.html#a1836ff843ea4ed48e29ab90b08050bf7" target="_top" xlink:title="MainWindow::on_ColorComponents\lComboBox_currentIndexChanged">
<polygon fill="white" stroke="black" points="764,-213.5 764,-243.5 937,-243.5 937,-213.5 764,-213.5"/>
<text text-anchor="start" x="772" y="-231.5" font-family="Helvetica,sans-Serif" font-size="10.00">MainWindow::on_ColorComponents</text>
<text text-anchor="middle" x="850.5" y="-220.5" font-family="Helvetica,sans-Serif" font-size="10.00">ComboBox_currentIndexChanged</text>
</a>
</g>
</g>
<!-- Node28&#45;&gt;Node29 -->
<g id="edge39" class="edge"><title>Node28&#45;&gt;Node29</title>
<path fill="none" stroke="midnightblue" d="M702.371,-319.878C711.093,-316.418 719.895,-312.592 728,-308.5 765.877,-289.379 806.366,-260.901 829.727,-243.582"/>
<polygon fill="midnightblue" stroke="midnightblue" points="701.057,-316.634 692.975,-323.484 703.565,-323.169 701.057,-316.634"/>
</g>
<!-- Node30&#45;&gt;Node29 -->
<g id="edge43" class="edge"><title>Node30&#45;&gt;Node29</title>
<path fill="none" stroke="midnightblue" d="M499.207,-273.401C559.276,-281.429 650.321,-288.712 728,-274.5 760.171,-268.614 794.877,-254.638 818.926,-243.625"/>
<polygon fill="midnightblue" stroke="midnightblue" points="499.487,-269.907 489.102,-272.005 498.528,-276.841 499.487,-269.907"/>
</g>
<!-- Node31 -->
<g id="node31" class="node"><title>Node31</title>
<g id="a_node31"><a xlink:href="classMainWindow.html#aa8b7f37af858513162a091d7f81561b4" target="_top" xlink:title="MainWindow::on_ChromaScale\lSpinBox_valueChanged">
<polygon fill="white" stroke="black" points="568.5,-235.5 568.5,-265.5 722.5,-265.5 722.5,-235.5 568.5,-235.5"/>
<text text-anchor="start" x="576.5" y="-253.5" font-family="Helvetica,sans-Serif" font-size="10.00">MainWindow::on_ChromaScale</text>
<text text-anchor="middle" x="645.5" y="-242.5" font-family="Helvetica,sans-Serif" font-size="10.00">SpinBox_valueChanged</text>
</a>
</g>
</g>
<!-- Node30&#45;&gt;Node31 -->
<g id="edge41" class="edge"><title>Node30&#45;&gt;Node31</title>
<path fill="none" stroke="midnightblue" d="M522.084,-257.462C537.454,-256.588 553.317,-255.686 568.319,-254.833"/>
<polygon fill="midnightblue" stroke="midnightblue" points="521.854,-253.969 512.069,-258.032 522.251,-260.958 521.854,-253.969"/>
</g>
<!-- Node31&#45;&gt;Node29 -->
<g id="edge42" class="edge"><title>Node31&#45;&gt;Node29</title>
<path fill="none" stroke="midnightblue" d="M732.81,-241.146C743.039,-240.038 753.479,-238.906 763.701,-237.798"/>
<polygon fill="midnightblue" stroke="midnightblue" points="732.232,-237.688 722.667,-242.245 732.986,-244.648 732.232,-237.688"/>
</g>
<!-- Node32&#45;&gt;Node29 -->
<g id="edge46" class="edge"><title>Node32&#45;&gt;Node29</title>
<path fill="none" stroke="midnightblue" d="M521.944,-224.31C580.429,-224.305 658.793,-224.528 728,-225.5 739.604,-225.663 751.83,-225.894 763.875,-226.157"/>
<polygon fill="midnightblue" stroke="midnightblue" points="521.63,-220.81 511.631,-224.313 521.632,-227.81 521.63,-220.81"/>
</g>
<!-- Node32&#45;&gt;Node31 -->
<g id="edge45" class="edge"><title>Node32&#45;&gt;Node31</title>
<path fill="none" stroke="midnightblue" d="M521.06,-235.289C536.707,-237.217 552.896,-239.212 568.196,-241.098"/>
<polygon fill="midnightblue" stroke="midnightblue" points="521.223,-231.783 510.87,-234.034 520.367,-238.731 521.223,-231.783"/>
</g>
<!-- Node34 -->
<g id="node34" class="node"><title>Node34</title>
<g id="a_node34"><a xlink:href="classMainWindow.html#ab0e3857ccb336133d522cde81e73988e" target="_top" xlink:title="MainWindow::on_LumaOffset\lSpinBox_valueChanged">
<polygon fill="white" stroke="black" points="572.5,-147.5 572.5,-177.5 718.5,-177.5 718.5,-147.5 572.5,-147.5"/>
<text text-anchor="start" x="580.5" y="-165.5" font-family="Helvetica,sans-Serif" font-size="10.00">MainWindow::on_LumaOffset</text>
<text text-anchor="middle" x="645.5" y="-154.5" font-family="Helvetica,sans-Serif" font-size="10.00">SpinBox_valueChanged</text>
</a>
</g>
</g>
<!-- Node33&#45;&gt;Node34 -->
<g id="edge48" class="edge"><title>Node33&#45;&gt;Node34</title>
<path fill="none" stroke="midnightblue" d="M514.216,-175.467C533.299,-173.567 553.529,-171.554 572.212,-169.695"/>
<polygon fill="midnightblue" stroke="midnightblue" points="513.657,-172.005 504.053,-176.478 514.351,-178.97 513.657,-172.005"/>
</g>
<!-- Node34&#45;&gt;Node29 -->
<g id="edge49" class="edge"><title>Node34&#45;&gt;Node29</title>
<path fill="none" stroke="midnightblue" d="M702.375,-180.666C734.003,-190.949 773.094,-203.658 803.03,-213.392"/>
<polygon fill="midnightblue" stroke="midnightblue" points="703.41,-177.322 692.818,-177.559 701.246,-183.979 703.41,-177.322"/>
</g>
<!-- Node36 -->
<g id="node36" class="node"><title>Node36</title>
<g id="a_node36"><a xlink:href="classMainWindow.html#adac0478ee9ee4dd30f05fc7f5d300825" target="_top" xlink:title="MainWindow::on_ChromaOffset\lSpinBox_valueChanged">
<polygon fill="white" stroke="black" points="567.5,-98.5 567.5,-128.5 723.5,-128.5 723.5,-98.5 567.5,-98.5"/>
<text text-anchor="start" x="575.5" y="-116.5" font-family="Helvetica,sans-Serif" font-size="10.00">MainWindow::on_ChromaOffset</text>
<text text-anchor="middle" x="645.5" y="-105.5" font-family="Helvetica,sans-Serif" font-size="10.00">SpinBox_valueChanged</text>
</a>
</g>
</g>
<!-- Node35&#45;&gt;Node36 -->
<g id="edge51" class="edge"><title>Node35&#45;&gt;Node36</title>
<path fill="none" stroke="midnightblue" d="M519.908,-128.853C535.631,-126.915 551.939,-124.906 567.372,-123.004"/>
<polygon fill="midnightblue" stroke="midnightblue" points="519.173,-125.417 509.676,-130.113 520.029,-132.364 519.173,-125.417"/>
</g>
<!-- Node36&#45;&gt;Node29 -->
<g id="edge52" class="edge"><title>Node36&#45;&gt;Node29</title>
<path fill="none" stroke="midnightblue" d="M716.211,-132.179C720.259,-133.832 724.217,-135.604 728,-137.5 769.466,-158.283 811.344,-193.501 833.468,-213.483"/>
<polygon fill="midnightblue" stroke="midnightblue" points="717.239,-128.825 706.648,-128.538 714.748,-135.367 717.239,-128.825"/>
</g>
<!-- Node38 -->
<g id="node38" class="node"><title>Node38</title>
<g id="a_node38"><a xlink:href="classMainWindow.html#a7f6cbe2be23224eb9eef6af3f55a6d4f" target="_top" xlink:title="MainWindow::on_LumaInvert\lCheckBox_toggled">
<polygon fill="white" stroke="black" points="574,-49.5 574,-79.5 717,-79.5 717,-49.5 574,-49.5"/>
<text text-anchor="start" x="582" y="-67.5" font-family="Helvetica,sans-Serif" font-size="10.00">MainWindow::on_LumaInvert</text>
<text text-anchor="middle" x="645.5" y="-56.5" font-family="Helvetica,sans-Serif" font-size="10.00">CheckBox_toggled</text>
</a>
</g>
</g>
<!-- Node37&#45;&gt;Node38 -->
<g id="edge54" class="edge"><title>Node37&#45;&gt;Node38</title>
<path fill="none" stroke="midnightblue" d="M513.153,-80.6849C533.093,-78.2278 554.346,-75.609 573.817,-73.2097"/>
<polygon fill="midnightblue" stroke="midnightblue" points="512.671,-77.2178 503.174,-81.9146 513.527,-84.1652 512.671,-77.2178"/>
</g>
<!-- Node40 -->
<g id="node40" class="node"><title>Node40</title>
<g id="a_node40"><a xlink:href="classMainWindow.html#aaa518172394694dea45234097327e979" target="_top" xlink:title="MainWindow::on_ChromaInvert\lCheckBox_toggled">
<polygon fill="white" stroke="black" points="568.5,-0.5 568.5,-30.5 722.5,-30.5 722.5,-0.5 568.5,-0.5"/>
<text text-anchor="start" x="576.5" y="-18.5" font-family="Helvetica,sans-Serif" font-size="10.00">MainWindow::on_ChromaInvert</text>
<text text-anchor="middle" x="645.5" y="-7.5" font-family="Helvetica,sans-Serif" font-size="10.00">CheckBox_toggled</text>
</a>
</g>
</g>
<!-- Node39&#45;&gt;Node40 -->
<g id="edge56" class="edge"><title>Node39&#45;&gt;Node40</title>
<path fill="none" stroke="midnightblue" d="M518.845,-24.4328C535.169,-23.2723 552.162,-22.0643 568.18,-20.9256"/>
<polygon fill="midnightblue" stroke="midnightblue" points="518.509,-20.9478 508.782,-25.1482 519.005,-27.9302 518.509,-20.9478"/>
</g>
</g>
</svg>
