<?xml version="1.0" encoding="UTF-8" standalone="no"?>
<!DOCTYPE svg PUBLIC "-//W3C//DTD SVG 1.1//EN"
 "http://www.w3.org/Graphics/SVG/1.1/DTD/svg11.dtd">
<!-- Generated by graphviz version 2.38.0 (20140413.2041)
 -->
<!-- Title: DisplaySplitWidget::clear Pages: 1 -->
<svg width="600pt" height="39pt"
 viewBox="0.00 0.00 600.00 39.00" xmlns="http://www.w3.org/2000/svg" xmlns:xlink="http://www.w3.org/1999/xlink">
<g id="graph0" class="graph" transform="scale(1 1) rotate(0) translate(4 35)">
<title>DisplaySplitWidget::clear</title>
<polygon fill="white" stroke="none" points="-4,4 -4,-35 596,-35 596,4 -4,4"/>
<!-- Node1 -->
<g id="node1" class="node"><title>Node1</title>
<polygon fill="#bfbfbf" stroke="black" points="0,-0.5 0,-30.5 100,-30.5 100,-0.5 0,-0.5"/>
<text text-anchor="start" x="8" y="-18.5" font-family="Helvetica,sans-Serif" font-size="10.00">DisplaySplitWidget</text>
<text text-anchor="middle" x="50" y="-7.5" font-family="Helvetica,sans-Serif" font-size="10.00">::clear</text>
</g>
<!-- Node2 -->
<g id="node2" class="node"><title>Node2</title>
<g id="a_node2"><a xlink:href="classDisplayWidget.html#ab656f1b9e79ea8ab4fe7f75e45ef3af1" target="_top" xlink:title="DisplayWidget::clear">
<polygon fill="white" stroke="black" points="136,-6 136,-25 243,-25 243,-6 136,-6"/>
<text text-anchor="middle" x="189.5" y="-13" font-family="Helvetica,sans-Serif" font-size="10.00">DisplayWidget::clear</text>
</a>
</g>
</g>
<!-- Node1&#45;&gt;Node2 -->
<g id="edge1" class="edge"><title>Node1&#45;&gt;Node2</title>
<path fill="none" stroke="midnightblue" d="M100.252,-15.5C108.47,-15.5 117.093,-15.5 125.595,-15.5"/>
<polygon fill="midnightblue" stroke="midnightblue" points="125.872,-19.0001 135.872,-15.5 125.872,-12.0001 125.872,-19.0001"/>
</g>
<!-- Node3 -->
<g id="node3" class="node"><title>Node3</title>
<g id="a_node3"><a xlink:href="classDisplayWidget.html#acffa55d9477c7ada0ac15834d4c6460e" target="_top" xlink:title="DisplayWidget::drawFrame">
<polygon fill="white" stroke="black" points="279,-6 279,-25 414,-25 414,-6 279,-6"/>
<text text-anchor="middle" x="346.5" y="-13" font-family="Helvetica,sans-Serif" font-size="10.00">DisplayWidget::drawFrame</text>
</a>
</g>
</g>
<!-- Node2&#45;&gt;Node3 -->
<g id="edge2" class="edge"><title>Node2&#45;&gt;Node3</title>
<path fill="none" stroke="midnightblue" d="M243.409,-15.5C251.603,-15.5 260.207,-15.5 268.797,-15.5"/>
<polygon fill="midnightblue" stroke="midnightblue" points="268.851,-19.0001 278.851,-15.5 268.851,-12.0001 268.851,-19.0001"/>
</g>
<!-- Node4 -->
<g id="node4" class="node"><title>Node4</title>
<g id="a_node4"><a xlink:href="classDisplayObject.html#a5ded2ebad23787f7821d0d9b750bdde3" target="_top" xlink:title="DisplayObject::displayImage">
<polygon fill="white" stroke="black" points="450,-6 450,-25 592,-25 592,-6 450,-6"/>
<text text-anchor="middle" x="521" y="-13" font-family="Helvetica,sans-Serif" font-size="10.00">DisplayObject::displayImage</text>
</a>
</g>
</g>
<!-- Node3&#45;&gt;Node4 -->
<g id="edge3" class="edge"><title>Node3&#45;&gt;Node4</title>
<path fill="none" stroke="midnightblue" d="M414.193,-15.5C422.483,-15.5 431.028,-15.5 439.499,-15.5"/>
<polygon fill="midnightblue" stroke="midnightblue" points="439.773,-19.0001 449.773,-15.5 439.773,-12.0001 439.773,-19.0001"/>
</g>
</g>
</svg>
