<?xml version="1.0" encoding="UTF-8" standalone="no"?>
<!DOCTYPE svg PUBLIC "-//W3C//DTD SVG 1.1//EN"
 "http://www.w3.org/Graphics/SVG/1.1/DTD/svg11.dtd">
<!-- Generated by graphviz version 2.38.0 (20140413.2041)
 -->
<!-- Title: MainWindow::updatePixelFormatComboBoxSelection Pages: 1 -->
<svg width="710pt" height="78pt"
 viewBox="0.00 0.00 710.00 77.50" xmlns="http://www.w3.org/2000/svg" xmlns:xlink="http://www.w3.org/1999/xlink">
<g id="graph0" class="graph" transform="scale(1 1) rotate(0) translate(4 73.5)">
<title>MainWindow::updatePixelFormatComboBoxSelection</title>
<polygon fill="white" stroke="none" points="-4,4 -4,-73.5 706,-73.5 706,4 -4,4"/>
<!-- Node1 -->
<g id="node1" class="node"><title>Node1</title>
<polygon fill="#bfbfbf" stroke="black" points="0,-17 0,-47 161,-47 161,-17 0,-17"/>
<text text-anchor="start" x="8" y="-35" font-family="Helvetica,sans-Serif" font-size="10.00">MainWindow::updatePixelFormat</text>
<text text-anchor="middle" x="80.5" y="-24" font-family="Helvetica,sans-Serif" font-size="10.00">ComboBoxSelection</text>
</g>
<!-- Node2 -->
<g id="node2" class="node"><title>Node2</title>
<g id="a_node2"><a xlink:href="classMainWindow.html#a288b768c3c21a9171bdc56fe845ece8b" target="_top" xlink:title="Shows the file open dialog and loads all selected Files. ">
<polygon fill="white" stroke="black" points="197,-22.5 197,-41.5 313,-41.5 313,-22.5 197,-22.5"/>
<text text-anchor="middle" x="255" y="-29.5" font-family="Helvetica,sans-Serif" font-size="10.00">MainWindow::openFile</text>
</a>
</g>
</g>
<!-- Node1&#45;&gt;Node2 -->
<g id="edge1" class="edge"><title>Node1&#45;&gt;Node2</title>
<path fill="none" stroke="midnightblue" d="M171.335,-32C179.98,-32 188.577,-32 196.777,-32"/>
<polygon fill="midnightblue" stroke="midnightblue" points="171.186,-28.5001 161.186,-32 171.186,-35.5001 171.186,-28.5001"/>
</g>
<!-- Node3 -->
<g id="node3" class="node"><title>Node3</title>
<g id="a_node3"><a xlink:href="classMainWindow.html#a9df7443ce5f907903438bb6a9abe9a33" target="_top" xlink:title="MainWindow::createMenusAnd\lActions">
<polygon fill="white" stroke="black" points="364,-39 364,-69 516,-69 516,-39 364,-39"/>
<text text-anchor="start" x="372" y="-57" font-family="Helvetica,sans-Serif" font-size="10.00">MainWindow::createMenusAnd</text>
<text text-anchor="middle" x="440" y="-46" font-family="Helvetica,sans-Serif" font-size="10.00">Actions</text>
</a>
</g>
</g>
<!-- Node2&#45;&gt;Node3 -->
<g id="edge2" class="edge"><title>Node2&#45;&gt;Node3</title>
<path fill="none" stroke="midnightblue" d="M323.111,-40.068C336.351,-41.6597 350.327,-43.3398 363.813,-44.9612"/>
<polygon fill="midnightblue" stroke="midnightblue" points="323.496,-36.5891 313.15,-38.8704 322.66,-43.5391 323.496,-36.5891"/>
</g>
<!-- Node5 -->
<g id="node5" class="node"><title>Node5</title>
<g id="a_node5"><a xlink:href="classMainWindow.html#aaba5c236313378986c42c4a634c4cfb9" target="_top" xlink:title="MainWindow::onCustomContextMenu">
<polygon fill="white" stroke="black" points="349,-0.5 349,-19.5 531,-19.5 531,-0.5 349,-0.5"/>
<text text-anchor="middle" x="440" y="-7.5" font-family="Helvetica,sans-Serif" font-size="10.00">MainWindow::onCustomContextMenu</text>
</a>
</g>
</g>
<!-- Node2&#45;&gt;Node5 -->
<g id="edge4" class="edge"><title>Node2&#45;&gt;Node5</title>
<path fill="none" stroke="midnightblue" d="M323.394,-23.898C335.246,-22.4732 347.679,-20.9784 359.818,-19.5191"/>
<polygon fill="midnightblue" stroke="midnightblue" points="322.66,-20.4609 313.15,-25.1296 323.496,-27.4109 322.66,-20.4609"/>
</g>
<!-- Node4 -->
<g id="node4" class="node"><title>Node4</title>
<g id="a_node4"><a xlink:href="classMainWindow.html#a8b244be8b7b7db1b08de2a2acb9409db" target="_top" xlink:title="MainWindow::MainWindow">
<polygon fill="white" stroke="black" points="567,-22.5 567,-41.5 702,-41.5 702,-22.5 567,-22.5"/>
<text text-anchor="middle" x="634.5" y="-29.5" font-family="Helvetica,sans-Serif" font-size="10.00">MainWindow::MainWindow</text>
</a>
</g>
</g>
<!-- Node3&#45;&gt;Node4 -->
<g id="edge3" class="edge"><title>Node3&#45;&gt;Node4</title>
<path fill="none" stroke="midnightblue" d="M526.497,-44.2289C539.989,-42.6869 553.767,-41.1123 566.752,-39.6283"/>
<polygon fill="midnightblue" stroke="midnightblue" points="525.79,-40.7868 516.253,-45.3997 526.585,-47.7415 525.79,-40.7868"/>
</g>
<!-- Node5&#45;&gt;Node4 -->
<g id="edge5" class="edge"><title>Node5&#45;&gt;Node4</title>
<path fill="none" stroke="midnightblue" d="M534.363,-20.6701C545.339,-21.9244 556.365,-23.1845 566.869,-24.385"/>
<polygon fill="midnightblue" stroke="midnightblue" points="534.646,-17.1798 524.314,-19.5216 533.852,-24.1345 534.646,-17.1798"/>
</g>
</g>
</svg>
