<?xml version="1.0" encoding="UTF-8" standalone="no"?>
<!DOCTYPE svg PUBLIC "-//W3C//DTD SVG 1.1//EN"
 "http://www.w3.org/Graphics/SVG/1.1/DTD/svg11.dtd">
<!-- Generated by graphviz version 2.38.0 (20140413.2041)
 -->
<!-- Title: FrameObjectDialog::loadItemStettings Pages: 1 -->
<svg width="256pt" height="104pt"
 viewBox="0.00 0.00 256.00 104.00" xmlns="http://www.w3.org/2000/svg" xmlns:xlink="http://www.w3.org/1999/xlink">
<g id="graph0" class="graph" transform="scale(1 1) rotate(0) translate(4 100)">
<title>FrameObjectDialog::loadItemStettings</title>
<polygon fill="white" stroke="none" points="-4,4 -4,-100 252,-100 252,4 -4,4"/>
<!-- Node1 -->
<g id="node1" class="node"><title>Node1</title>
<polygon fill="#bfbfbf" stroke="black" points="0,-33 0,-63 107,-63 107,-33 0,-33"/>
<text text-anchor="start" x="8" y="-51" font-family="Helvetica,sans-Serif" font-size="10.00">FrameObjectDialog::</text>
<text text-anchor="middle" x="53.5" y="-40" font-family="Helvetica,sans-Serif" font-size="10.00">loadItemStettings</text>
</g>
<!-- Node2 -->
<g id="node2" class="node"><title>Node2</title>
<g id="a_node2"><a xlink:href="classTextObject.html#a40a3c04abf6f17df174696a8902b84f1" target="_top" xlink:title="TextObject::font">
<polygon fill="white" stroke="black" points="152,-76.5 152,-95.5 239,-95.5 239,-76.5 152,-76.5"/>
<text text-anchor="middle" x="195.5" y="-83.5" font-family="Helvetica,sans-Serif" font-size="10.00">TextObject::font</text>
</a>
</g>
</g>
<!-- Node1&#45;&gt;Node2 -->
<g id="edge1" class="edge"><title>Node1&#45;&gt;Node2</title>
<path fill="none" stroke="midnightblue" d="M107.029,-62.2579C120.879,-66.0171 135.703,-70.0409 149.139,-73.6878"/>
<polygon fill="midnightblue" stroke="midnightblue" points="148.537,-77.1508 159.104,-76.3926 150.37,-70.3952 148.537,-77.1508"/>
</g>
<!-- Node3 -->
<g id="node3" class="node"><title>Node3</title>
<g id="a_node3"><a xlink:href="classTextObject.html#a20869fc1605e26ea2b69c3daf6eb1cc9" target="_top" xlink:title="TextObject::text">
<polygon fill="white" stroke="black" points="152,-38.5 152,-57.5 239,-57.5 239,-38.5 152,-38.5"/>
<text text-anchor="middle" x="195.5" y="-45.5" font-family="Helvetica,sans-Serif" font-size="10.00">TextObject::text</text>
</a>
</g>
</g>
<!-- Node1&#45;&gt;Node3 -->
<g id="edge2" class="edge"><title>Node1&#45;&gt;Node3</title>
<path fill="none" stroke="midnightblue" d="M107.029,-48C118.316,-48 130.25,-48 141.553,-48"/>
<polygon fill="midnightblue" stroke="midnightblue" points="141.718,-51.5001 151.718,-48 141.718,-44.5001 141.718,-51.5001"/>
</g>
<!-- Node4 -->
<g id="node4" class="node"><title>Node4</title>
<g id="a_node4"><a xlink:href="classTextObject.html#a2c8318c487b65fb1c973cd3a130efe06" target="_top" xlink:title="TextObject::duration">
<polygon fill="white" stroke="black" points="143,-0.5 143,-19.5 248,-19.5 248,-0.5 143,-0.5"/>
<text text-anchor="middle" x="195.5" y="-7.5" font-family="Helvetica,sans-Serif" font-size="10.00">TextObject::duration</text>
</a>
</g>
</g>
<!-- Node1&#45;&gt;Node4 -->
<g id="edge3" class="edge"><title>Node1&#45;&gt;Node4</title>
<path fill="none" stroke="midnightblue" d="M107.029,-33.7421C120.879,-29.9829 135.703,-25.9591 149.139,-22.3122"/>
<polygon fill="midnightblue" stroke="midnightblue" points="150.37,-25.6048 159.104,-19.6074 148.537,-18.8492 150.37,-25.6048"/>
</g>
</g>
</svg>
