<?xml version="1.0" encoding="UTF-8" standalone="no"?>
<!DOCTYPE svg PUBLIC "-//W3C//DTD SVG 1.1//EN"
 "http://www.w3.org/Graphics/SVG/1.1/DTD/svg11.dtd">
<!-- Generated by graphviz version 2.38.0 (20140413.2041)
 -->
<!-- Title: StatisticsObject::StatisticsObject Pages: 1 -->
<svg width="479pt" height="164pt"
 viewBox="0.00 0.00 479.00 164.00" xmlns="http://www.w3.org/2000/svg" xmlns:xlink="http://www.w3.org/1999/xlink">
<g id="graph0" class="graph" transform="scale(1 1) rotate(0) translate(4 160)">
<title>StatisticsObject::StatisticsObject</title>
<polygon fill="white" stroke="none" points="-4,4 -4,-160 475,-160 475,4 -4,4"/>
<!-- Node1 -->
<g id="node1" class="node"><title>Node1</title>
<polygon fill="#bfbfbf" stroke="black" points="0,-74 0,-104 134,-104 134,-74 0,-74"/>
<text text-anchor="start" x="8" y="-92" font-family="Helvetica,sans-Serif" font-size="10.00">StatisticsObject::Statistics</text>
<text text-anchor="middle" x="67" y="-81" font-family="Helvetica,sans-Serif" font-size="10.00">Object</text>
</g>
<!-- Node2 -->
<g id="node2" class="node"><title>Node2</title>
<g id="a_node2"><a xlink:href="classstatisticSource.html#ad608ee1640257889057639923e30dfb0" target="_top" xlink:title="statisticSource::getName">
<polygon fill="white" stroke="black" points="173.5,-136.5 173.5,-155.5 301.5,-155.5 301.5,-136.5 173.5,-136.5"/>
<text text-anchor="middle" x="237.5" y="-143.5" font-family="Helvetica,sans-Serif" font-size="10.00">statisticSource::getName</text>
</a>
</g>
</g>
<!-- Node1&#45;&gt;Node2 -->
<g id="edge1" class="edge"><title>Node1&#45;&gt;Node2</title>
<path fill="none" stroke="midnightblue" d="M106.496,-104.154C125.489,-111.422 148.815,-120.039 170,-127 176.901,-129.268 184.255,-131.525 191.461,-133.649"/>
<polygon fill="midnightblue" stroke="midnightblue" points="190.562,-137.033 201.141,-136.453 192.51,-130.309 190.562,-137.033"/>
</g>
<!-- Node3 -->
<g id="node3" class="node"><title>Node3</title>
<g id="a_node3"><a xlink:href="classDisplayObject.html#a4b72bf3422adf483b502da939d38c9d6" target="_top" xlink:title="DisplayObject::size">
<polygon fill="white" stroke="black" points="186.5,-98.5 186.5,-117.5 288.5,-117.5 288.5,-98.5 186.5,-98.5"/>
<text text-anchor="middle" x="237.5" y="-105.5" font-family="Helvetica,sans-Serif" font-size="10.00">DisplayObject::size</text>
</a>
</g>
</g>
<!-- Node1&#45;&gt;Node3 -->
<g id="edge2" class="edge"><title>Node1&#45;&gt;Node3</title>
<path fill="none" stroke="midnightblue" d="M134.112,-96.4548C147.998,-98.0206 162.574,-99.6642 176.233,-101.204"/>
<polygon fill="midnightblue" stroke="midnightblue" points="176.144,-104.716 186.473,-102.359 176.928,-97.7604 176.144,-104.716"/>
</g>
<!-- Node6 -->
<g id="node6" class="node"><title>Node6</title>
<g id="a_node6"><a xlink:href="classstatisticSource.html#ae76f453386438dc42055b554190ab1c0" target="_top" xlink:title="statisticSource::getSize">
<polygon fill="white" stroke="black" points="177,-60.5 177,-79.5 298,-79.5 298,-60.5 177,-60.5"/>
<text text-anchor="middle" x="237.5" y="-67.5" font-family="Helvetica,sans-Serif" font-size="10.00">statisticSource::getSize</text>
</a>
</g>
</g>
<!-- Node1&#45;&gt;Node6 -->
<g id="edge5" class="edge"><title>Node1&#45;&gt;Node6</title>
<path fill="none" stroke="midnightblue" d="M134.112,-81.5452C144.802,-80.3398 155.901,-79.0883 166.676,-77.8733"/>
<polygon fill="midnightblue" stroke="midnightblue" points="167.338,-81.3209 176.883,-76.7224 166.554,-74.365 167.338,-81.3209"/>
</g>
<!-- Node7 -->
<g id="node7" class="node"><title>Node7</title>
<g id="a_node7"><a xlink:href="classStatisticsObject.html#a78938588464aca9d9aa880e2f3f7de5b" target="_top" xlink:title="StatisticsObject::statistic\lSourceInformationChanced">
<polygon fill="white" stroke="black" points="170,-11 170,-41 305,-41 305,-11 170,-11"/>
<text text-anchor="start" x="178" y="-29" font-family="Helvetica,sans-Serif" font-size="10.00">StatisticsObject::statistic</text>
<text text-anchor="middle" x="237.5" y="-18" font-family="Helvetica,sans-Serif" font-size="10.00">SourceInformationChanced</text>
</a>
</g>
</g>
<!-- Node1&#45;&gt;Node7 -->
<g id="edge6" class="edge"><title>Node1&#45;&gt;Node7</title>
<path fill="none" stroke="midnightblue" d="M108.36,-73.9099C131.825,-65.1367 161.592,-54.0072 186.529,-44.6837"/>
<polygon fill="midnightblue" stroke="midnightblue" points="188.037,-47.8565 196.178,-41.076 185.585,-41.2998 188.037,-47.8565"/>
</g>
<!-- Node4 -->
<g id="node4" class="node"><title>Node4</title>
<g id="a_node4"><a xlink:href="classDisplayObject.html#afb3b221174f722f563e7bf55a1ddb29f" target="_top" xlink:title="DisplayObject::width">
<polygon fill="white" stroke="black" points="352.5,-125.5 352.5,-144.5 459.5,-144.5 459.5,-125.5 352.5,-125.5"/>
<text text-anchor="middle" x="406" y="-132.5" font-family="Helvetica,sans-Serif" font-size="10.00">DisplayObject::width</text>
</a>
</g>
</g>
<!-- Node3&#45;&gt;Node4 -->
<g id="edge3" class="edge"><title>Node3&#45;&gt;Node4</title>
<path fill="none" stroke="midnightblue" d="M288.907,-116.174C305.71,-118.899 324.637,-121.968 342.258,-124.826"/>
<polygon fill="midnightblue" stroke="midnightblue" points="342.025,-128.333 352.456,-126.479 343.145,-121.424 342.025,-128.333"/>
</g>
<!-- Node5 -->
<g id="node5" class="node"><title>Node5</title>
<g id="a_node5"><a xlink:href="classDisplayObject.html#a814782fb1bf9e7a2ed7adab74872c08a" target="_top" xlink:title="DisplayObject::height">
<polygon fill="white" stroke="black" points="351,-87.5 351,-106.5 461,-106.5 461,-87.5 351,-87.5"/>
<text text-anchor="middle" x="406" y="-94.5" font-family="Helvetica,sans-Serif" font-size="10.00">DisplayObject::height</text>
</a>
</g>
</g>
<!-- Node3&#45;&gt;Node5 -->
<g id="edge4" class="edge"><title>Node3&#45;&gt;Node5</title>
<path fill="none" stroke="midnightblue" d="M288.907,-104.67C305.077,-103.602 323.215,-102.403 340.262,-101.277"/>
<polygon fill="midnightblue" stroke="midnightblue" points="340.961,-104.739 350.708,-100.587 340.499,-97.7538 340.961,-104.739"/>
</g>
<!-- Node8 -->
<g id="node8" class="node"><title>Node8</title>
<g id="a_node8"><a xlink:href="classstatisticSource.html#ab420aa7b1787dbeb354489cb765d29a6" target="_top" xlink:title="statisticSource::getStatus">
<polygon fill="white" stroke="black" points="341,-38.5 341,-57.5 471,-57.5 471,-38.5 341,-38.5"/>
<text text-anchor="middle" x="406" y="-45.5" font-family="Helvetica,sans-Serif" font-size="10.00">statisticSource::getStatus</text>
</a>
</g>
</g>
<!-- Node7&#45;&gt;Node8 -->
<g id="edge7" class="edge"><title>Node7&#45;&gt;Node8</title>
<path fill="none" stroke="midnightblue" d="M305.263,-34.8215C313.716,-35.9385 322.406,-37.0866 330.964,-38.2175"/>
<polygon fill="midnightblue" stroke="midnightblue" points="330.556,-41.6939 340.928,-39.5341 331.473,-34.7542 330.556,-41.6939"/>
</g>
<!-- Node9 -->
<g id="node9" class="node"><title>Node9</title>
<g id="a_node9"><a xlink:href="classstatisticSource.html#a3ef9eb84901d880497da300e3825e7fd" target="_top" xlink:title="statisticSource::getInfo">
<polygon fill="white" stroke="black" points="347,-0.5 347,-19.5 465,-19.5 465,-0.5 347,-0.5"/>
<text text-anchor="middle" x="406" y="-7.5" font-family="Helvetica,sans-Serif" font-size="10.00">statisticSource::getInfo</text>
</a>
</g>
</g>
<!-- Node7&#45;&gt;Node9 -->
<g id="edge8" class="edge"><title>Node7&#45;&gt;Node9</title>
<path fill="none" stroke="midnightblue" d="M305.263,-19.5844C315.576,-18.5933 326.242,-17.5684 336.591,-16.5738"/>
<polygon fill="midnightblue" stroke="midnightblue" points="337.191,-20.0324 346.81,-15.5918 336.521,-13.0645 337.191,-20.0324"/>
</g>
</g>
</svg>
