<?xml version="1.0" encoding="UTF-8" standalone="no"?>
<!DOCTYPE svg PUBLIC "-//W3C//DTD SVG 1.1//EN"
 "http://www.w3.org/Graphics/SVG/1.1/DTD/svg11.dtd">
<!-- Generated by graphviz version 2.38.0 (20140413.2041)
 -->
<!-- Title: PListParser::parseElement Pages: 1 -->
<svg width="335pt" height="66pt"
 viewBox="0.00 0.00 335.00 66.00" xmlns="http://www.w3.org/2000/svg" xmlns:xlink="http://www.w3.org/1999/xlink">
<g id="graph0" class="graph" transform="scale(1 1) rotate(0) translate(4 62)">
<title>PListParser::parseElement</title>
<polygon fill="white" stroke="none" points="-4,4 -4,-62 331,-62 331,4 -4,4"/>
<!-- Node1 -->
<g id="node1" class="node"><title>Node1</title>
<polygon fill="#bfbfbf" stroke="black" points="0,-19.5 0,-38.5 134,-38.5 134,-19.5 0,-19.5"/>
<text text-anchor="middle" x="67" y="-26.5" font-family="Helvetica,sans-Serif" font-size="10.00">PListParser::parseElement</text>
</g>
<!-- Node2 -->
<g id="node2" class="node"><title>Node2</title>
<g id="a_node2"><a xlink:href="classPListParser.html#a601716c73380ba67d8e6b0973aa0ee63" target="_top" xlink:title="PListParser::parseDictElement">
<polygon fill="white" stroke="black" points="172.5,-38.5 172.5,-57.5 324.5,-57.5 324.5,-38.5 172.5,-38.5"/>
<text text-anchor="middle" x="248.5" y="-45.5" font-family="Helvetica,sans-Serif" font-size="10.00">PListParser::parseDictElement</text>
</a>
</g>
</g>
<!-- Node1&#45;&gt;Node2 -->
<g id="edge1" class="edge"><title>Node1&#45;&gt;Node2</title>
<path fill="none" stroke="midnightblue" d="M134.074,-29.4572C156.137,-31.3865 180.256,-34.1133 200.559,-37.0162"/>
<polygon fill="midnightblue" stroke="midnightblue" points="200.086,-40.4844 210.494,-38.4995 201.12,-33.5611 200.086,-40.4844"/>
</g>
<!-- Node3 -->
<g id="node3" class="node"><title>Node3</title>
<g id="a_node3"><a xlink:href="classPListParser.html#ad3c04e6d8bd25a3bfe3cc24bad88284c" target="_top" xlink:title="PListParser::parseArrayElement">
<polygon fill="white" stroke="black" points="170,-0.5 170,-19.5 327,-19.5 327,-0.5 170,-0.5"/>
<text text-anchor="middle" x="248.5" y="-7.5" font-family="Helvetica,sans-Serif" font-size="10.00">PListParser::parseArrayElement</text>
</a>
</g>
</g>
<!-- Node1&#45;&gt;Node3 -->
<g id="edge3" class="edge"><title>Node1&#45;&gt;Node3</title>
<path fill="none" stroke="midnightblue" d="M105.193,-19.4705C121.108,-16.9883 140.427,-14.558 159.632,-12.5521"/>
<polygon fill="midnightblue" stroke="midnightblue" points="160.047,-16.0282 169.646,-11.5438 159.345,-9.06338 160.047,-16.0282"/>
</g>
<!-- Node2&#45;&gt;Node1 -->
<g id="edge2" class="edge"><title>Node2&#45;&gt;Node1</title>
<path fill="none" stroke="midnightblue" d="M172.223,-46.7033C152.87,-44.8667 132.595,-42.5041 115.126,-40.0102"/>
<polygon fill="midnightblue" stroke="midnightblue" points="115.599,-36.5422 105.193,-38.5295 114.567,-43.4657 115.599,-36.5422"/>
</g>
<!-- Node3&#45;&gt;Node1 -->
<g id="edge4" class="edge"><title>Node3&#45;&gt;Node1</title>
<path fill="none" stroke="midnightblue" d="M210.494,-19.5005C191.304,-22.4988 167.129,-25.4235 144.168,-27.6185"/>
<polygon fill="midnightblue" stroke="midnightblue" points="143.714,-24.1454 134.074,-28.5428 144.352,-31.1162 143.714,-24.1454"/>
</g>
</g>
</svg>
