<?xml version="1.0" encoding="UTF-8" standalone="no"?>
<!DOCTYPE svg PUBLIC "-//W3C//DTD SVG 1.1//EN"
 "http://www.w3.org/Graphics/SVG/1.1/DTD/svg11.dtd">
<!-- Generated by graphviz version 2.38.0 (20140413.2041)
 -->
<!-- Title: DisplaySplitWidget::mousePressEvent Pages: 1 -->
<svg width="490pt" height="39pt"
 viewBox="0.00 0.00 490.00 39.00" xmlns="http://www.w3.org/2000/svg" xmlns:xlink="http://www.w3.org/1999/xlink">
<g id="graph0" class="graph" transform="scale(1 1) rotate(0) translate(4 35)">
<title>DisplaySplitWidget::mousePressEvent</title>
<polygon fill="white" stroke="none" points="-4,4 -4,-35 486,-35 486,4 -4,4"/>
<!-- Node1 -->
<g id="node1" class="node"><title>Node1</title>
<polygon fill="#bfbfbf" stroke="black" points="0,-0.5 0,-30.5 103,-30.5 103,-0.5 0,-0.5"/>
<text text-anchor="start" x="8" y="-18.5" font-family="Helvetica,sans-Serif" font-size="10.00">DisplaySplitWidget</text>
<text text-anchor="middle" x="51.5" y="-7.5" font-family="Helvetica,sans-Serif" font-size="10.00">::mousePressEvent</text>
</g>
<!-- Node2 -->
<g id="node2" class="node"><title>Node2</title>
<g id="a_node2"><a xlink:href="classDisplayWidget.html#a880cbbb9d4d5ff01cddc51af58840a73" target="_top" xlink:title="DisplayWidget::setSelectionRect">
<polygon fill="white" stroke="black" points="139,-6 139,-25 300,-25 300,-6 139,-6"/>
<text text-anchor="middle" x="219.5" y="-13" font-family="Helvetica,sans-Serif" font-size="10.00">DisplayWidget::setSelectionRect</text>
</a>
</g>
</g>
<!-- Node1&#45;&gt;Node2 -->
<g id="edge1" class="edge"><title>Node1&#45;&gt;Node2</title>
<path fill="none" stroke="midnightblue" d="M103.207,-15.5C111.294,-15.5 119.865,-15.5 128.538,-15.5"/>
<polygon fill="midnightblue" stroke="midnightblue" points="128.744,-19.0001 138.744,-15.5 128.744,-12.0001 128.744,-19.0001"/>
</g>
<!-- Node3 -->
<g id="node3" class="node"><title>Node3</title>
<g id="a_node3"><a xlink:href="classDisplayWidget.html#ad8be03e3b0a381a18ecea854d71b3048" target="_top" xlink:title="DisplayWidget::selectionRect">
<polygon fill="white" stroke="black" points="336,-6 336,-25 482,-25 482,-6 336,-6"/>
<text text-anchor="middle" x="409" y="-13" font-family="Helvetica,sans-Serif" font-size="10.00">DisplayWidget::selectionRect</text>
</a>
</g>
</g>
<!-- Node2&#45;&gt;Node3 -->
<g id="edge2" class="edge"><title>Node2&#45;&gt;Node3</title>
<path fill="none" stroke="midnightblue" d="M300.017,-15.5C308.461,-15.5 317.063,-15.5 325.54,-15.5"/>
<polygon fill="midnightblue" stroke="midnightblue" points="325.799,-19.0001 335.799,-15.5 325.799,-12.0001 325.799,-19.0001"/>
</g>
</g>
</svg>
