<?xml version="1.0" encoding="UTF-8" standalone="no"?>
<!DOCTYPE svg PUBLIC "-//W3C//DTD SVG 1.1//EN"
 "http://www.w3.org/Graphics/SVG/1.1/DTD/svg11.dtd">
<!-- Generated by graphviz version 2.38.0 (20140413.2041)
 -->
<!-- Title: DisplaySplitWidget::zoomToFit Pages: 1 -->
<!--zoomable 322 -->
<svg id="main" version="1.1" xmlns="http://www.w3.org/2000/svg" xmlns:xlink="http://www.w3.org/1999/xlink" xml:space="preserve" onload="init(evt)">
<style type="text/css"><![CDATA[
.edge:hover path { stroke: red; }
.edge:hover polygon { stroke: red; fill: red; }
]]></style>
<script type="text/javascript"><![CDATA[
var edges = document.getElementsByTagName('g');
if (edges && edges.length) {
  for (var i=0;i<edges.length;i++) {
    if (edges[i].id.substr(0,4)=='edge') {
      edges[i].setAttribute('class','edge');
    }
  }
}
]]></script>
        <defs>
                <circle id="rim" cx="0" cy="0" r="7"/>
                <circle id="rim2" cx="0" cy="0" r="3.5"/>
                <g id="zoomPlus">
                        <use xlink:href="#rim" fill="#404040">
                                <set attributeName="fill" to="#808080" begin="zoomplus.mouseover" end="zoomplus.mouseout"/>
                        </use>
                        <path d="M-4,0h8M0,-4v8" fill="none" stroke="white" stroke-width="1.5" pointer-events="none"/>
                </g>
                <g id="zoomMin">
                        <use xlink:href="#rim" fill="#404040">
                                <set attributeName="fill" to="#808080" begin="zoomminus.mouseover" end="zoomminus.mouseout"/>
                        </use>
                        <path d="M-4,0h8" fill="none" stroke="white" stroke-width="1.5" pointer-events="none"/>
                </g>
                <g id="dirArrow">
                        <path fill="none" stroke="white" stroke-width="1.5" d="M0,-3.0v7 M-2.5,-0.5L0,-3.0L2.5,-0.5"/>
                </g>
               <g id="resetDef">
                       <use xlink:href="#rim2" fill="#404040">
                               <set attributeName="fill" to="#808080" begin="reset.mouseover" end="reset.mouseout"/>
                       </use>
               </g>
        </defs>

<script type="text/javascript">
var viewWidth = 1331;
var viewHeight = 322;
var sectionId = 'dynsection-38';
</script>
<script xlink:href="svgpan.js"/>
<svg id="graph" class="graph">
<g id="viewport">
<title>DisplaySplitWidget::zoomToFit</title>
<polygon fill="white" stroke="none" points="-4,4 -4,-317.552 1327,-317.552 1327,4 -4,4"/>
<!-- Node1 -->
<g id="node1" class="node"><title>Node1</title>
<polygon fill="#bfbfbf" stroke="black" points="0,-197 0,-227 100,-227 100,-197 0,-197"/>
<text text-anchor="start" x="8" y="-215" font-family="Helvetica,sans-Serif" font-size="10.00">DisplaySplitWidget</text>
<text text-anchor="middle" x="50" y="-204" font-family="Helvetica,sans-Serif" font-size="10.00">::zoomToFit</text>
</g>
<!-- Node2 -->
<g id="node2" class="node"><title>Node2</title>
<g id="a_node2"><a xlink:href="classDisplayWidget.html#a7c8417b26f905d8bda1601c879f7e600" target="_top" xlink:title="DisplayWidget::displayObject">
<polygon fill="white" stroke="black" points="276,-278.5 276,-297.5 422,-297.5 422,-278.5 276,-278.5"/>
<text text-anchor="middle" x="349" y="-285.5" font-family="Helvetica,sans-Serif" font-size="10.00">DisplayWidget::displayObject</text>
</a>
</g>
</g>
<!-- Node1&#45;&gt;Node2 -->
<g id="edge1" class="edge"><title>Node1&#45;&gt;Node2</title>
<path fill="none" stroke="midnightblue" d="M100.362,-226.25C112.026,-229.53 124.435,-232.95 136,-236 190.957,-250.494 254.283,-265.853 297.31,-276.088"/>
<polygon fill="midnightblue" stroke="midnightblue" points="296.714,-279.544 307.252,-278.448 298.331,-272.733 296.714,-279.544"/>
</g>
<!-- Node3 -->
<g id="node3" class="node"><title>Node3</title>
<g id="a_node3"><a xlink:href="classDisplayObject.html#a4b72bf3422adf483b502da939d38c9d6" target="_top" xlink:title="DisplayObject::size">
<polygon fill="white" stroke="black" points="653.5,-240.5 653.5,-259.5 755.5,-259.5 755.5,-240.5 653.5,-240.5"/>
<text text-anchor="middle" x="704.5" y="-247.5" font-family="Helvetica,sans-Serif" font-size="10.00">DisplayObject::size</text>
</a>
</g>
</g>
<!-- Node1&#45;&gt;Node3 -->
<g id="edge2" class="edge"><title>Node1&#45;&gt;Node3</title>
<path fill="none" stroke="midnightblue" d="M72.9684,-227.085C89.6998,-238.096 113.597,-252.816 136,-263 193.834,-289.29 209.247,-297.101 272,-307 416.654,-329.818 589.582,-285.422 665.076,-262.501"/>
<polygon fill="midnightblue" stroke="midnightblue" points="666.119,-265.842 674.644,-259.552 664.057,-259.153 666.119,-265.842"/>
</g>
<!-- Node6 -->
<g id="node6" class="node"><title>Node6</title>
<g id="a_node6"><a xlink:href="classDisplaySplitWidget.html#a07d514c8000eade67022e9f73a4214c0" target="_top" xlink:title="DisplaySplitWidget\l::zoomToPoint">
<polygon fill="white" stroke="black" points="136,-197 136,-227 236,-227 236,-197 136,-197"/>
<text text-anchor="start" x="144" y="-215" font-family="Helvetica,sans-Serif" font-size="10.00">DisplaySplitWidget</text>
<text text-anchor="middle" x="186" y="-204" font-family="Helvetica,sans-Serif" font-size="10.00">::zoomToPoint</text>
</a>
</g>
</g>
<!-- Node1&#45;&gt;Node6 -->
<g id="edge5" class="edge"><title>Node1&#45;&gt;Node6</title>
<path fill="none" stroke="midnightblue" d="M100.136,-212C108.42,-212 117.097,-212 125.608,-212"/>
<polygon fill="midnightblue" stroke="midnightblue" points="125.87,-215.5 135.87,-212 125.87,-208.5 125.87,-215.5"/>
</g>
<!-- Node7 -->
<g id="node7" class="node"><title>Node7</title>
<g id="a_node7"><a xlink:href="classDisplayWidget.html#a477dcbaeee98a2c684374e4d5a36b0fd" target="_top" xlink:title="DisplayWidget::displayRect">
<polygon fill="white" stroke="black" points="462,-16.5 462,-35.5 600,-35.5 600,-16.5 462,-16.5"/>
<text text-anchor="middle" x="531" y="-23.5" font-family="Helvetica,sans-Serif" font-size="10.00">DisplayWidget::displayRect</text>
</a>
</g>
</g>
<!-- Node1&#45;&gt;Node7 -->
<g id="edge32" class="edge"><title>Node1&#45;&gt;Node7</title>
<path fill="none" stroke="midnightblue" d="M66.5776,-196.97C100.619,-165.139 185.539,-91.1377 272,-58 329.588,-35.9285 399.202,-28.3019 451.599,-25.9882"/>
<polygon fill="midnightblue" stroke="midnightblue" points="451.982,-29.4761 461.84,-25.5936 451.713,-22.4813 451.982,-29.4761"/>
</g>
<!-- Node9 -->
<g id="node9" class="node"><title>Node9</title>
<g id="a_node9"><a xlink:href="classDisplayWidget.html#a822a3c50c6c602fafff6ef2132ccdb42" target="_top" xlink:title="DisplayWidget::setDisplayRect">
<polygon fill="white" stroke="black" points="272,-158.5 272,-177.5 426,-177.5 426,-158.5 272,-158.5"/>
<text text-anchor="middle" x="349" y="-165.5" font-family="Helvetica,sans-Serif" font-size="10.00">DisplayWidget::setDisplayRect</text>
</a>
</g>
</g>
<!-- Node1&#45;&gt;Node9 -->
<g id="edge33" class="edge"><title>Node1&#45;&gt;Node9</title>
<path fill="none" stroke="midnightblue" d="M96.0326,-196.965C108.825,-193.185 122.853,-189.497 136,-187 176.991,-179.214 223.063,-174.6 261.761,-171.874"/>
<polygon fill="midnightblue" stroke="midnightblue" points="262.208,-175.352 271.95,-171.188 261.737,-168.368 262.208,-175.352"/>
</g>
<!-- Node4 -->
<g id="node4" class="node"><title>Node4</title>
<g id="a_node4"><a xlink:href="classDisplayObject.html#afb3b221174f722f563e7bf55a1ddb29f" target="_top" xlink:title="DisplayObject::width">
<polygon fill="white" stroke="black" points="830.5,-240.5 830.5,-259.5 937.5,-259.5 937.5,-240.5 830.5,-240.5"/>
<text text-anchor="middle" x="884" y="-247.5" font-family="Helvetica,sans-Serif" font-size="10.00">DisplayObject::width</text>
</a>
</g>
</g>
<!-- Node3&#45;&gt;Node4 -->
<g id="edge3" class="edge"><title>Node3&#45;&gt;Node4</title>
<path fill="none" stroke="midnightblue" d="M755.89,-250C775.884,-250 799.095,-250 820.168,-250"/>
<polygon fill="midnightblue" stroke="midnightblue" points="820.318,-253.5 830.318,-250 820.318,-246.5 820.318,-253.5"/>
</g>
<!-- Node5 -->
<g id="node5" class="node"><title>Node5</title>
<g id="a_node5"><a xlink:href="classDisplayObject.html#a814782fb1bf9e7a2ed7adab74872c08a" target="_top" xlink:title="DisplayObject::height">
<polygon fill="white" stroke="black" points="829,-202.5 829,-221.5 939,-221.5 939,-202.5 829,-202.5"/>
<text text-anchor="middle" x="884" y="-209.5" font-family="Helvetica,sans-Serif" font-size="10.00">DisplayObject::height</text>
</a>
</g>
</g>
<!-- Node3&#45;&gt;Node5 -->
<g id="edge4" class="edge"><title>Node3&#45;&gt;Node5</title>
<path fill="none" stroke="midnightblue" d="M750.291,-240.411C774.03,-235.329 803.384,-229.045 828.444,-223.68"/>
<polygon fill="midnightblue" stroke="midnightblue" points="829.486,-227.036 838.531,-221.52 828.02,-220.191 829.486,-227.036"/>
</g>
<!-- Node6&#45;&gt;Node2 -->
<g id="edge7" class="edge"><title>Node6&#45;&gt;Node2</title>
<path fill="none" stroke="midnightblue" d="M208.555,-227.22C225.269,-238.511 249.33,-253.673 272,-264 281.349,-268.259 291.669,-272.066 301.609,-275.326"/>
<polygon fill="midnightblue" stroke="midnightblue" points="300.783,-278.735 311.373,-278.399 302.885,-272.058 300.783,-278.735"/>
</g>
<!-- Node6&#45;&gt;Node3 -->
<g id="edge8" class="edge"><title>Node6&#45;&gt;Node3</title>
<path fill="none" stroke="midnightblue" d="M236.318,-221.046C247.984,-222.929 260.404,-224.726 272,-226 403.912,-240.489 559.525,-246.414 643.119,-248.692"/>
<polygon fill="midnightblue" stroke="midnightblue" points="643.107,-252.192 653.196,-248.958 643.292,-245.195 643.107,-252.192"/>
</g>
<!-- Node6&#45;&gt;Node7 -->
<g id="edge6" class="edge"><title>Node6&#45;&gt;Node7</title>
<path fill="none" stroke="midnightblue" d="M205.712,-196.968C222.591,-183.694 248.329,-164.15 272,-149 353.082,-97.1059 372.839,-81.3004 462,-45 467.811,-42.634 474.017,-40.4546 480.228,-38.4817"/>
<polygon fill="midnightblue" stroke="midnightblue" points="481.371,-41.7926 489.935,-35.5543 479.35,-35.0907 481.371,-41.7926"/>
</g>
<!-- Node8 -->
<g id="node8" class="node"><title>Node8</title>
<g id="a_node8"><a xlink:href="classDisplayWidget.html#a59b9a00276458fae6c0c2db850a87616" target="_top" xlink:title="DisplayWidget::zoomFactor">
<polygon fill="white" stroke="black" points="462,-202.5 462,-221.5 600,-221.5 600,-202.5 462,-202.5"/>
<text text-anchor="middle" x="531" y="-209.5" font-family="Helvetica,sans-Serif" font-size="10.00">DisplayWidget::zoomFactor</text>
</a>
</g>
</g>
<!-- Node6&#45;&gt;Node8 -->
<g id="edge9" class="edge"><title>Node6&#45;&gt;Node8</title>
<path fill="none" stroke="midnightblue" d="M236.144,-212C292.322,-212 385.05,-212 451.318,-212"/>
<polygon fill="midnightblue" stroke="midnightblue" points="451.717,-215.5 461.717,-212 451.717,-208.5 451.717,-215.5"/>
</g>
<!-- Node6&#45;&gt;Node9 -->
<g id="edge11" class="edge"><title>Node6&#45;&gt;Node9</title>
<path fill="none" stroke="midnightblue" d="M236.18,-198.559C257.558,-192.717 282.427,-185.921 303.276,-180.223"/>
<polygon fill="midnightblue" stroke="midnightblue" points="304.432,-183.535 313.155,-177.523 302.586,-176.783 304.432,-183.535"/>
</g>
<!-- Node8&#45;&gt;Node4 -->
<g id="edge10" class="edge"><title>Node8&#45;&gt;Node4</title>
<path fill="none" stroke="midnightblue" d="M600.212,-215.693C648.564,-218.722 714.907,-223.709 773,-231 789.481,-233.069 807.257,-235.882 823.613,-238.709"/>
<polygon fill="midnightblue" stroke="midnightblue" points="823.134,-242.179 833.589,-240.465 824.347,-235.285 823.134,-242.179"/>
</g>
<!-- Node9&#45;&gt;Node7 -->
<g id="edge12" class="edge"><title>Node9&#45;&gt;Node7</title>
<path fill="none" stroke="midnightblue" d="M378.266,-158.495C394.022,-151.993 413.022,-141.993 426,-128 453.343,-98.5186 431.691,-71.4228 462,-45 463.94,-43.3085 466.02,-41.7666 468.203,-40.3612"/>
<polygon fill="midnightblue" stroke="midnightblue" points="469.916,-43.4141 477.059,-35.5894 466.595,-37.2517 469.916,-43.4141"/>
</g>
<!-- Node9&#45;&gt;Node8 -->
<g id="edge14" class="edge"><title>Node9&#45;&gt;Node8</title>
<path fill="none" stroke="midnightblue" d="M389.057,-177.547C416.065,-184.149 452.199,-192.982 481.118,-200.051"/>
<polygon fill="midnightblue" stroke="midnightblue" points="480.474,-203.497 491.019,-202.471 482.136,-196.697 480.474,-203.497"/>
</g>
<!-- Node10 -->
<g id="node10" class="node"><title>Node10</title>
<g id="a_node10"><a xlink:href="classDisplayObject.html#a669d39709021238465e2d42ae2ffce2d" target="_top" xlink:title="DisplayObject::setInternal\lScaleFactor">
<polygon fill="white" stroke="black" points="466,-55 466,-85 596,-85 596,-55 466,-55"/>
<text text-anchor="start" x="474" y="-73" font-family="Helvetica,sans-Serif" font-size="10.00">DisplayObject::setInternal</text>
<text text-anchor="middle" x="531" y="-62" font-family="Helvetica,sans-Serif" font-size="10.00">ScaleFactor</text>
</a>
</g>
</g>
<!-- Node9&#45;&gt;Node10 -->
<g id="edge13" class="edge"><title>Node9&#45;&gt;Node10</title>
<path fill="none" stroke="midnightblue" d="M371.877,-158.438C387.579,-151.119 408.897,-140.227 426,-128 443.903,-115.201 443.216,-105.467 462,-94 464.64,-92.3886 467.403,-90.8647 470.242,-89.4265"/>
<polygon fill="midnightblue" stroke="midnightblue" points="471.911,-92.5103 479.505,-85.1222 468.961,-86.1622 471.911,-92.5103"/>
</g>
<!-- Node11 -->
<g id="node11" class="node"><title>Node11</title>
<g id="a_node11"><a xlink:href="classStatisticsObject.html#a685245dbc78feb8908c60b3becc9a0c0" target="_top" xlink:title="StatisticsObject::setInternal\lScaleFactor">
<polygon fill="white" stroke="black" points="462,-104 462,-134 600,-134 600,-104 462,-104"/>
<text text-anchor="start" x="470" y="-122" font-family="Helvetica,sans-Serif" font-size="10.00">StatisticsObject::setInternal</text>
<text text-anchor="middle" x="531" y="-111" font-family="Helvetica,sans-Serif" font-size="10.00">ScaleFactor</text>
</a>
</g>
</g>
<!-- Node9&#45;&gt;Node11 -->
<g id="edge15" class="edge"><title>Node9&#45;&gt;Node11</title>
<path fill="none" stroke="midnightblue" d="M385.133,-158.436C407.822,-152.26 438.034,-144.035 464.996,-136.696"/>
<polygon fill="midnightblue" stroke="midnightblue" points="466.033,-140.041 474.762,-134.037 464.194,-133.287 466.033,-140.041"/>
</g>
<!-- Node15 -->
<g id="node15" class="node"><title>Node15</title>
<g id="a_node15"><a xlink:href="classStatisticsObject.html#a09c2920b75ecda0e175a6c9384b446ab" target="_top" xlink:title="StatisticsObject::reload\lImage">
<polygon fill="white" stroke="black" points="471.5,-153 471.5,-183 590.5,-183 590.5,-153 471.5,-153"/>
<text text-anchor="start" x="479.5" y="-171" font-family="Helvetica,sans-Serif" font-size="10.00">StatisticsObject::reload</text>
<text text-anchor="middle" x="531" y="-160" font-family="Helvetica,sans-Serif" font-size="10.00">Image</text>
</a>
</g>
</g>
<!-- Node9&#45;&gt;Node15 -->
<g id="edge19" class="edge"><title>Node9&#45;&gt;Node15</title>
<path fill="none" stroke="midnightblue" d="M426.075,-168C437.801,-168 449.849,-168 461.398,-168"/>
<polygon fill="midnightblue" stroke="midnightblue" points="461.399,-171.5 471.399,-168 461.399,-164.5 461.399,-171.5"/>
</g>
<!-- Node12 -->
<g id="node12" class="node"><title>Node12</title>
<g id="a_node12"><a xlink:href="classstatisticSource.html#a8c153e3e3576668f5e68af94f441319e" target="_top" xlink:title="statisticSource::setInternal\lScaleFactor">
<polygon fill="white" stroke="black" points="637.5,-33 637.5,-63 771.5,-63 771.5,-33 637.5,-33"/>
<text text-anchor="start" x="645.5" y="-51" font-family="Helvetica,sans-Serif" font-size="10.00">statisticSource::setInternal</text>
<text text-anchor="middle" x="704.5" y="-40" font-family="Helvetica,sans-Serif" font-size="10.00">ScaleFactor</text>
</a>
</g>
</g>
<!-- Node11&#45;&gt;Node12 -->
<g id="edge16" class="edge"><title>Node11&#45;&gt;Node12</title>
<path fill="none" stroke="midnightblue" d="M574.244,-103.96C582.808,-100.774 591.724,-97.3561 600,-94 620.577,-85.6554 643.139,-75.7222 661.931,-67.2255"/>
<polygon fill="midnightblue" stroke="midnightblue" points="663.449,-70.3801 671.105,-63.0565 660.553,-64.0073 663.449,-70.3801"/>
</g>
<!-- Node13 -->
<g id="node13" class="node"><title>Node13</title>
<g id="a_node13"><a xlink:href="typedef_8h.html#a9aaa34d570ccff65aa586904187cfff5" target="_top" xlink:title="clip">
<polygon fill="white" stroke="black" points="868,-0.5 868,-19.5 900,-19.5 900,-0.5 868,-0.5"/>
<text text-anchor="middle" x="884" y="-7.5" font-family="Helvetica,sans-Serif" font-size="10.00">clip</text>
</a>
</g>
</g>
<!-- Node12&#45;&gt;Node13 -->
<g id="edge17" class="edge"><title>Node12&#45;&gt;Node13</title>
<path fill="none" stroke="midnightblue" d="M771.594,-33.8502C801.58,-27.4307 835.263,-20.2196 857.664,-15.424"/>
<polygon fill="midnightblue" stroke="midnightblue" points="858.643,-18.7938 867.689,-13.2779 857.178,-11.9489 858.643,-18.7938"/>
</g>
<!-- Node14 -->
<g id="node14" class="node"><title>Node14</title>
<g id="a_node14"><a xlink:href="classstatisticSource.html#ab919493c131a2f9b26c1c212c05ad223" target="_top" xlink:title="statisticSource::internal\lScaleFactor">
<polygon fill="white" stroke="black" points="1010.5,-47 1010.5,-77 1129.5,-77 1129.5,-47 1010.5,-47"/>
<text text-anchor="start" x="1018.5" y="-65" font-family="Helvetica,sans-Serif" font-size="10.00">statisticSource::internal</text>
<text text-anchor="middle" x="1070" y="-54" font-family="Helvetica,sans-Serif" font-size="10.00">ScaleFactor</text>
</a>
</g>
</g>
<!-- Node12&#45;&gt;Node14 -->
<g id="edge18" class="edge"><title>Node12&#45;&gt;Node14</title>
<path fill="none" stroke="midnightblue" d="M771.749,-50.5515C836.477,-53.0445 934.577,-56.8228 1000.17,-59.3492"/>
<polygon fill="midnightblue" stroke="midnightblue" points="1000.28,-62.856 1010.41,-59.7435 1000.55,-55.8612 1000.28,-62.856"/>
</g>
<!-- Node16 -->
<g id="node16" class="node"><title>Node16</title>
<g id="a_node16"><a xlink:href="classStatisticsObject.html#a7ef3844aa2a91ec4fc67233f7a6f5552" target="_top" xlink:title="StatisticsObject::loadImage">
<polygon fill="white" stroke="black" points="636,-161.5 636,-180.5 773,-180.5 773,-161.5 636,-161.5"/>
<text text-anchor="middle" x="704.5" y="-168.5" font-family="Helvetica,sans-Serif" font-size="10.00">StatisticsObject::loadImage</text>
</a>
</g>
</g>
<!-- Node15&#45;&gt;Node16 -->
<g id="edge20" class="edge"><title>Node15&#45;&gt;Node16</title>
<path fill="none" stroke="midnightblue" d="M590.541,-169.024C601.799,-169.221 613.754,-169.43 625.514,-169.636"/>
<polygon fill="midnightblue" stroke="midnightblue" points="625.715,-173.14 635.774,-169.815 625.837,-166.141 625.715,-173.14"/>
</g>
<!-- Node16&#45;&gt;Node4 -->
<g id="edge25" class="edge"><title>Node16&#45;&gt;Node4</title>
<path fill="none" stroke="midnightblue" d="M736.2,-180.612C748.154,-185.027 761.673,-190.879 773,-198 791.376,-209.552 789.917,-220.658 809,-231 813.224,-233.289 817.733,-235.311 822.364,-237.095"/>
<polygon fill="midnightblue" stroke="midnightblue" points="821.39,-240.461 831.985,-240.433 823.684,-233.848 821.39,-240.461"/>
</g>
<!-- Node16&#45;&gt;Node5 -->
<g id="edge26" class="edge"><title>Node16&#45;&gt;Node5</title>
<path fill="none" stroke="midnightblue" d="M746.668,-180.509C772.005,-186.362 804.686,-193.911 831.7,-200.15"/>
<polygon fill="midnightblue" stroke="midnightblue" points="831.217,-203.631 841.748,-202.471 832.792,-196.81 831.217,-203.631"/>
</g>
<!-- Node17 -->
<g id="node17" class="node"><title>Node17</title>
<g id="a_node17"><a xlink:href="classStatisticsObject.html#a977403d59c77839b97f38c4c5d09483b" target="_top" xlink:title="StatisticsObject::numFrames">
<polygon fill="white" stroke="black" points="812,-126.5 812,-145.5 956,-145.5 956,-126.5 812,-126.5"/>
<text text-anchor="middle" x="884" y="-133.5" font-family="Helvetica,sans-Serif" font-size="10.00">StatisticsObject::numFrames</text>
</a>
</g>
</g>
<!-- Node16&#45;&gt;Node17 -->
<g id="edge21" class="edge"><title>Node16&#45;&gt;Node17</title>
<path fill="none" stroke="midnightblue" d="M754.003,-161.436C775.82,-157.134 801.753,-152.02 824.626,-147.51"/>
<polygon fill="midnightblue" stroke="midnightblue" points="825.422,-150.921 834.556,-145.552 824.068,-144.053 825.422,-150.921"/>
</g>
<!-- Node19 -->
<g id="node19" class="node"><title>Node19</title>
<g id="a_node19"><a xlink:href="classStatisticsObject.html#a9d90fa9d1b1373e6f93a9839c757739a" target="_top" xlink:title="StatisticsObject::internal\lScaleFactor">
<polygon fill="white" stroke="black" points="822,-77 822,-107 946,-107 946,-77 822,-77"/>
<text text-anchor="start" x="830" y="-95" font-family="Helvetica,sans-Serif" font-size="10.00">StatisticsObject::internal</text>
<text text-anchor="middle" x="884" y="-84" font-family="Helvetica,sans-Serif" font-size="10.00">ScaleFactor</text>
</a>
</g>
</g>
<!-- Node16&#45;&gt;Node19 -->
<g id="edge23" class="edge"><title>Node16&#45;&gt;Node19</title>
<path fill="none" stroke="midnightblue" d="M721.964,-161.391C742.067,-149.899 777.31,-130.523 809,-117 814.273,-114.75 819.824,-112.561 825.415,-110.474"/>
<polygon fill="midnightblue" stroke="midnightblue" points="826.612,-113.763 834.823,-107.067 824.229,-107.181 826.612,-113.763"/>
</g>
<!-- Node20 -->
<g id="node20" class="node"><title>Node20</title>
<g id="a_node20"><a xlink:href="classstatisticSource.html#a97118da6546c479004129b4fcc6851bf" target="_top" xlink:title="statisticSource::drawStatistics">
<polygon fill="white" stroke="black" points="809,-164.5 809,-183.5 959,-183.5 959,-164.5 809,-164.5"/>
<text text-anchor="middle" x="884" y="-171.5" font-family="Helvetica,sans-Serif" font-size="10.00">statisticSource::drawStatistics</text>
</a>
</g>
</g>
<!-- Node16&#45;&gt;Node20 -->
<g id="edge27" class="edge"><title>Node16&#45;&gt;Node20</title>
<path fill="none" stroke="midnightblue" d="M773.111,-172.143C781.491,-172.284 790.138,-172.43 798.728,-172.576"/>
<polygon fill="midnightblue" stroke="midnightblue" points="798.71,-176.076 808.768,-172.745 798.828,-169.077 798.71,-176.076"/>
</g>
<!-- Node18 -->
<g id="node18" class="node"><title>Node18</title>
<g id="a_node18"><a xlink:href="classstatisticSource.html#a49d2c60f7ce52592509c07fdc9d8e268" target="_top" xlink:title="statisticSource::getNumber\lFrames">
<polygon fill="white" stroke="black" points="1002,-110 1002,-140 1138,-140 1138,-110 1002,-110"/>
<text text-anchor="start" x="1010" y="-128" font-family="Helvetica,sans-Serif" font-size="10.00">statisticSource::getNumber</text>
<text text-anchor="middle" x="1070" y="-117" font-family="Helvetica,sans-Serif" font-size="10.00">Frames</text>
</a>
</g>
</g>
<!-- Node17&#45;&gt;Node18 -->
<g id="edge22" class="edge"><title>Node17&#45;&gt;Node18</title>
<path fill="none" stroke="midnightblue" d="M956.139,-131.747C967.793,-131.05 979.919,-130.325 991.714,-129.62"/>
<polygon fill="midnightblue" stroke="midnightblue" points="992.2,-133.098 1001.97,-129.007 991.782,-126.11 992.2,-133.098"/>
</g>
<!-- Node19&#45;&gt;Node14 -->
<g id="edge24" class="edge"><title>Node19&#45;&gt;Node14</title>
<path fill="none" stroke="midnightblue" d="M946.014,-82.0521C963.328,-79.2291 982.301,-76.1357 1000.05,-73.2418"/>
<polygon fill="midnightblue" stroke="midnightblue" points="1001.03,-76.6282 1010.34,-71.5645 999.905,-69.7194 1001.03,-76.6282"/>
</g>
<!-- Node21 -->
<g id="node21" class="node"><title>Node21</title>
<g id="a_node21"><a xlink:href="classstatisticSource.html#a666dee63c406a9b88484286b2a8e08f4" target="_top" xlink:title="statisticSource::getStatistics">
<polygon fill="white" stroke="black" points="998.5,-208.5 998.5,-227.5 1141.5,-227.5 1141.5,-208.5 998.5,-208.5"/>
<text text-anchor="middle" x="1070" y="-215.5" font-family="Helvetica,sans-Serif" font-size="10.00">statisticSource::getStatistics</text>
</a>
</g>
</g>
<!-- Node20&#45;&gt;Node21 -->
<g id="edge28" class="edge"><title>Node20&#45;&gt;Node21</title>
<path fill="none" stroke="midnightblue" d="M924.925,-183.547C952.654,-190.178 989.792,-199.059 1019.42,-206.143"/>
<polygon fill="midnightblue" stroke="midnightblue" points="1018.61,-209.55 1029.15,-208.471 1020.24,-202.741 1018.61,-209.55"/>
</g>
<!-- Node23 -->
<g id="node23" class="node"><title>Node23</title>
<g id="a_node23"><a xlink:href="classstatisticSource.html#af005d063b46b611d6166d4d8439d6245" target="_top" xlink:title="statisticSource::drawStatistics\lImage">
<polygon fill="white" stroke="black" points="995,-159 995,-189 1145,-189 1145,-159 995,-159"/>
<text text-anchor="start" x="1003" y="-177" font-family="Helvetica,sans-Serif" font-size="10.00">statisticSource::drawStatistics</text>
<text text-anchor="middle" x="1070" y="-166" font-family="Helvetica,sans-Serif" font-size="10.00">Image</text>
</a>
</g>
</g>
<!-- Node20&#45;&gt;Node23 -->
<g id="edge30" class="edge"><title>Node20&#45;&gt;Node23</title>
<path fill="none" stroke="midnightblue" d="M959.044,-174C967.514,-174 976.195,-174 984.784,-174"/>
<polygon fill="midnightblue" stroke="midnightblue" points="984.808,-177.5 994.808,-174 984.807,-170.5 984.808,-177.5"/>
</g>
<!-- Node22 -->
<g id="node22" class="node"><title>Node22</title>
<g id="a_node22"><a xlink:href="classstatisticSource.html#a769e0ef8bb1427d4d586425956ebfca2" target="_top" xlink:title="statisticSource::loadStatistic\lToCache">
<polygon fill="white" stroke="black" points="1181,-203 1181,-233 1323,-233 1323,-203 1181,-203"/>
<text text-anchor="start" x="1189" y="-221" font-family="Helvetica,sans-Serif" font-size="10.00">statisticSource::loadStatistic</text>
<text text-anchor="middle" x="1252" y="-210" font-family="Helvetica,sans-Serif" font-size="10.00">ToCache</text>
</a>
</g>
</g>
<!-- Node21&#45;&gt;Node22 -->
<g id="edge29" class="edge"><title>Node21&#45;&gt;Node22</title>
<path fill="none" stroke="midnightblue" d="M1141.62,-218C1151.2,-218 1161.08,-218 1170.81,-218"/>
<polygon fill="midnightblue" stroke="midnightblue" points="1170.87,-221.5 1180.87,-218 1170.87,-214.5 1170.87,-221.5"/>
</g>
<!-- Node24 -->
<g id="node24" class="node"><title>Node24</title>
<g id="a_node24"><a xlink:href="statisticSource_8cpp.html#a00b2533858fa82f16ddb39544cfff2b4" target="_top" xlink:title="rotateVector">
<polygon fill="white" stroke="black" points="1217,-164.5 1217,-183.5 1287,-183.5 1287,-164.5 1217,-164.5"/>
<text text-anchor="middle" x="1252" y="-171.5" font-family="Helvetica,sans-Serif" font-size="10.00">rotateVector</text>
</a>
</g>
</g>
<!-- Node23&#45;&gt;Node24 -->
<g id="edge31" class="edge"><title>Node23&#45;&gt;Node24</title>
<path fill="none" stroke="midnightblue" d="M1145.25,-174C1166.07,-174 1188.05,-174 1206.55,-174"/>
<polygon fill="midnightblue" stroke="midnightblue" points="1206.72,-177.5 1216.72,-174 1206.72,-170.5 1206.72,-177.5"/>
</g>
</g>
</svg>
        <g id="navigator" transform="translate(0 0)" fill="#404254">
                <rect fill="#f2f5e9" fill-opacity="0.5" stroke="#606060" stroke-width=".5" x="0" y="0" width="60" height="60"/>
                <use id="zoomplus" xlink:href="#zoomPlus" x="17" y="9" onmousedown="handleZoom(evt,'in')"/>
                <use id="zoomminus" xlink:href="#zoomMin" x="42" y="9" onmousedown="handleZoom(evt,'out')"/>
                <use id="reset" xlink:href="#resetDef" x="30" y="36" onmousedown="handleReset()"/>
                <g id="arrowUp" xlink:href="#dirArrow" transform="translate(30 24)" onmousedown="handlePan(0,-1)">
                  <use xlink:href="#rim" fill="#404040">
                        <set attributeName="fill" to="#808080" begin="arrowUp.mouseover" end="arrowUp.mouseout"/>
                  </use>
                  <path fill="none" stroke="white" stroke-width="1.5" d="M0,-3.0v7 M-2.5,-0.5L0,-3.0L2.5,-0.5"/>
                </g>
                <g id="arrowRight" xlink:href="#dirArrow" transform="rotate(90) translate(36 -43)" onmousedown="handlePan(1,0)">
                  <use xlink:href="#rim" fill="#404040">
                        <set attributeName="fill" to="#808080" begin="arrowRight.mouseover" end="arrowRight.mouseout"/>
                  </use>
                  <path fill="none" stroke="white" stroke-width="1.5" d="M0,-3.0v7 M-2.5,-0.5L0,-3.0L2.5,-0.5"/>
                </g>
                <g id="arrowDown" xlink:href="#dirArrow" transform="rotate(180) translate(-30 -48)" onmousedown="handlePan(0,1)">
                  <use xlink:href="#rim" fill="#404040">
                        <set attributeName="fill" to="#808080" begin="arrowDown.mouseover" end="arrowDown.mouseout"/>
                  </use>
                  <path fill="none" stroke="white" stroke-width="1.5" d="M0,-3.0v7 M-2.5,-0.5L0,-3.0L2.5,-0.5"/>
                </g>
                <g id="arrowLeft" xlink:href="#dirArrow" transform="rotate(270) translate(-36 17)" onmousedown="handlePan(-1,0)">
                  <use xlink:href="#rim" fill="#404040">
                        <set attributeName="fill" to="#808080" begin="arrowLeft.mouseover" end="arrowLeft.mouseout"/>
                  </use>
                  <path fill="none" stroke="white" stroke-width="1.5" d="M0,-3.0v7 M-2.5,-0.5L0,-3.0L2.5,-0.5"/>
                </g>
        </g>
        <svg viewBox="0 0 15 15" width="100%" height="30px" preserveAspectRatio="xMaxYMin meet">
         <g id="arrow_out" transform="scale(0.3 0.3)">
          <a xlink:href="classDisplaySplitWidget_a43d312016afd6d843f1c624905f4afee_cgraph_org.svg" target="_base">
           <rect id="button" ry="5" rx="5" y="6" x="6" height="38" width="38"
                fill="#f2f5e9" fill-opacity="0.5" stroke="#606060" stroke-width="1.0"/>
           <path id="arrow"
             d="M 11.500037,31.436501 C 11.940474,20.09759 22.043105,11.32322 32.158766,21.979434 L 37.068811,17.246167 C 37.068811,17.246167 37.088388,32 37.088388,32 L 22.160133,31.978069 C 22.160133,31.978069 26.997745,27.140456 26.997745,27.140456 C 18.528582,18.264221 13.291696,25.230495 11.500037,31.436501 z"
             style="fill:#404040;"/>
          </a>
         </g>
        </svg>
</svg>
