<?xml version="1.0" encoding="UTF-8" standalone="no"?>
<!DOCTYPE svg PUBLIC "-//W3C//DTD SVG 1.1//EN"
 "http://www.w3.org/Graphics/SVG/1.1/DTD/svg11.dtd">
<!-- Generated by graphviz version 2.38.0 (20140413.2041)
 -->
<!-- Title: DifferenceObject::numFrames Pages: 1 -->
<svg width="495pt" height="39pt"
 viewBox="0.00 0.00 495.00 39.00" xmlns="http://www.w3.org/2000/svg" xmlns:xlink="http://www.w3.org/1999/xlink">
<g id="graph0" class="graph" transform="scale(1 1) rotate(0) translate(4 35)">
<title>DifferenceObject::numFrames</title>
<polygon fill="white" stroke="none" points="-4,4 -4,-35 491,-35 491,4 -4,4"/>
<!-- Node1 -->
<g id="node1" class="node"><title>Node1</title>
<polygon fill="#bfbfbf" stroke="black" points="0,-6 0,-25 148,-25 148,-6 0,-6"/>
<text text-anchor="middle" x="74" y="-13" font-family="Helvetica,sans-Serif" font-size="10.00">DifferenceObject::numFrames</text>
</g>
<!-- Node2 -->
<g id="node2" class="node"><title>Node2</title>
<g id="a_node2"><a xlink:href="classDifferenceObject.html#acb2a437aedc3f3a4400c394d0330afc0" target="_top" xlink:title="DifferenceObject::loadImage">
<polygon fill="white" stroke="black" points="184,-6 184,-25 325,-25 325,-6 184,-6"/>
<text text-anchor="middle" x="254.5" y="-13" font-family="Helvetica,sans-Serif" font-size="10.00">DifferenceObject::loadImage</text>
</a>
</g>
</g>
<!-- Node1&#45;&gt;Node2 -->
<g id="edge1" class="edge"><title>Node1&#45;&gt;Node2</title>
<path fill="none" stroke="midnightblue" d="M158.183,-15.5C166.804,-15.5 175.501,-15.5 183.949,-15.5"/>
<polygon fill="midnightblue" stroke="midnightblue" points="158.118,-12.0001 148.118,-15.5 158.118,-19.0001 158.118,-12.0001"/>
</g>
<!-- Node3 -->
<g id="node3" class="node"><title>Node3</title>
<g id="a_node3"><a xlink:href="classDifferenceObject.html#a72a52d53c72aae7579f252a61a914002" target="_top" xlink:title="DifferenceObject::refresh\lDisplayImage">
<polygon fill="white" stroke="black" points="361,-0.5 361,-30.5 487,-30.5 487,-0.5 361,-0.5"/>
<text text-anchor="start" x="369" y="-18.5" font-family="Helvetica,sans-Serif" font-size="10.00">DifferenceObject::refresh</text>
<text text-anchor="middle" x="424" y="-7.5" font-family="Helvetica,sans-Serif" font-size="10.00">DisplayImage</text>
</a>
</g>
</g>
<!-- Node2&#45;&gt;Node3 -->
<g id="edge2" class="edge"><title>Node2&#45;&gt;Node3</title>
<path fill="none" stroke="midnightblue" d="M335.161,-15.5C343.791,-15.5 352.478,-15.5 360.856,-15.5"/>
<polygon fill="midnightblue" stroke="midnightblue" points="335.08,-12.0001 325.08,-15.5 335.08,-19.0001 335.08,-12.0001"/>
</g>
</g>
</svg>
