<?xml version="1.0" encoding="UTF-8" standalone="no"?>
<!DOCTYPE svg PUBLIC "-//W3C//DTD SVG 1.1//EN"
 "http://www.w3.org/Graphics/SVG/1.1/DTD/svg11.dtd">
<!-- Generated by graphviz version 2.38.0 (20140413.2041)
 -->
<!-- Title: MainWindow::selectPreviousItem Pages: 1 -->
<svg width="712pt" height="78pt"
 viewBox="0.00 0.00 712.00 77.50" xmlns="http://www.w3.org/2000/svg" xmlns:xlink="http://www.w3.org/1999/xlink">
<g id="graph0" class="graph" transform="scale(1 1) rotate(0) translate(4 73.5)">
<title>MainWindow::selectPreviousItem</title>
<polygon fill="white" stroke="none" points="-4,4 -4,-73.5 708,-73.5 708,4 -4,4"/>
<!-- Node1 -->
<g id="node1" class="node"><title>Node1</title>
<polygon fill="#bfbfbf" stroke="black" points="0,-22.5 0,-41.5 163,-41.5 163,-22.5 0,-22.5"/>
<text text-anchor="middle" x="81.5" y="-29.5" font-family="Helvetica,sans-Serif" font-size="10.00">MainWindow::selectPreviousItem</text>
</g>
<!-- Node2 -->
<g id="node2" class="node"><title>Node2</title>
<g id="a_node2"><a xlink:href="classMainWindow.html#a9df7443ce5f907903438bb6a9abe9a33" target="_top" xlink:title="MainWindow::createMenusAnd\lActions">
<polygon fill="white" stroke="black" points="381,-39 381,-69 533,-69 533,-39 381,-39"/>
<text text-anchor="start" x="389" y="-57" font-family="Helvetica,sans-Serif" font-size="10.00">MainWindow::createMenusAnd</text>
<text text-anchor="middle" x="457" y="-46" font-family="Helvetica,sans-Serif" font-size="10.00">Actions</text>
</a>
</g>
</g>
<!-- Node1&#45;&gt;Node2 -->
<g id="edge1" class="edge"><title>Node1&#45;&gt;Node2</title>
<path fill="none" stroke="midnightblue" d="M173.124,-37.338C236.82,-41.0898 321.028,-46.0499 380.964,-49.5802"/>
<polygon fill="midnightblue" stroke="midnightblue" points="173.273,-33.8407 163.084,-36.7466 172.861,-40.8286 173.273,-33.8407"/>
</g>
<!-- Node4 -->
<g id="node4" class="node"><title>Node4</title>
<g id="a_node4"><a xlink:href="classMainWindow.html#a9c4f542263838b9ecd06eae839a42a34" target="_top" xlink:title="MainWindow::keyPressEvent">
<polygon fill="white" stroke="black" points="199,-3.5 199,-22.5 345,-22.5 345,-3.5 199,-3.5"/>
<text text-anchor="middle" x="272" y="-10.5" font-family="Helvetica,sans-Serif" font-size="10.00">MainWindow::keyPressEvent</text>
</a>
</g>
</g>
<!-- Node1&#45;&gt;Node4 -->
<g id="edge3" class="edge"><title>Node1&#45;&gt;Node4</title>
<path fill="none" stroke="midnightblue" d="M173.262,-22.8516C181.81,-21.99 190.396,-21.1245 198.739,-20.2836"/>
<polygon fill="midnightblue" stroke="midnightblue" points="172.86,-19.3743 163.261,-23.8596 173.562,-26.339 172.86,-19.3743"/>
</g>
<!-- Node3 -->
<g id="node3" class="node"><title>Node3</title>
<g id="a_node3"><a xlink:href="classMainWindow.html#a8b244be8b7b7db1b08de2a2acb9409db" target="_top" xlink:title="MainWindow::MainWindow">
<polygon fill="white" stroke="black" points="569,-22.5 569,-41.5 704,-41.5 704,-22.5 569,-22.5"/>
<text text-anchor="middle" x="636.5" y="-29.5" font-family="Helvetica,sans-Serif" font-size="10.00">MainWindow::MainWindow</text>
</a>
</g>
</g>
<!-- Node2&#45;&gt;Node3 -->
<g id="edge2" class="edge"><title>Node2&#45;&gt;Node3</title>
<path fill="none" stroke="midnightblue" d="M543.138,-43.4477C551.793,-42.3749 560.494,-41.2965 568.911,-40.2532"/>
<polygon fill="midnightblue" stroke="midnightblue" points="542.512,-39.9984 533.019,-44.7019 543.373,-46.9452 542.512,-39.9984"/>
</g>
<!-- Node5 -->
<g id="node5" class="node"><title>Node5</title>
<g id="a_node5"><a xlink:href="classMainWindow.html#ab98bca74e18eefa8e0582b5a9eb78d10" target="_top" xlink:title="MainWindow::handleKeyPress">
<polygon fill="white" stroke="black" points="382,-0.5 382,-19.5 532,-19.5 532,-0.5 382,-0.5"/>
<text text-anchor="middle" x="457" y="-7.5" font-family="Helvetica,sans-Serif" font-size="10.00">MainWindow::handleKeyPress</text>
</a>
</g>
</g>
<!-- Node4&#45;&gt;Node5 -->
<g id="edge4" class="edge"><title>Node4&#45;&gt;Node5</title>
<path fill="none" stroke="midnightblue" d="M355.08,-11.6544C364.013,-11.508 373.067,-11.3596 381.897,-11.2148"/>
<polygon fill="midnightblue" stroke="midnightblue" points="355.005,-8.15509 345.064,-11.8186 355.12,-15.1541 355.005,-8.15509"/>
</g>
<!-- Node5&#45;&gt;Node3 -->
<g id="edge5" class="edge"><title>Node5&#45;&gt;Node3</title>
<path fill="none" stroke="midnightblue" d="M542.287,-20.4468C551.219,-21.5539 560.211,-22.6684 568.901,-23.7454"/>
<polygon fill="midnightblue" stroke="midnightblue" points="542.602,-16.9592 532.248,-19.2025 541.741,-23.906 542.602,-16.9592"/>
</g>
</g>
</svg>
