<?xml version="1.0" encoding="UTF-8" standalone="no"?>
<!DOCTYPE svg PUBLIC "-//W3C//DTD SVG 1.1//EN"
 "http://www.w3.org/Graphics/SVG/1.1/DTD/svg11.dtd">
<!-- Generated by graphviz version 2.38.0 (20140413.2041)
 -->
<!-- Title: MainWindow::setCurrentFrame Pages: 1 -->
<svg width="369pt" height="192pt"
 viewBox="0.00 0.00 369.00 191.50" xmlns="http://www.w3.org/2000/svg" xmlns:xlink="http://www.w3.org/1999/xlink">
<g id="graph0" class="graph" transform="scale(1 1) rotate(0) translate(4 187.5)">
<title>MainWindow::setCurrentFrame</title>
<polygon fill="white" stroke="none" points="-4,4 -4,-187.5 365,-187.5 365,4 -4,4"/>
<!-- Node1 -->
<g id="node1" class="node"><title>Node1</title>
<polygon fill="#bfbfbf" stroke="black" points="0,-57.5 0,-76.5 152,-76.5 152,-57.5 0,-57.5"/>
<text text-anchor="middle" x="76" y="-64.5" font-family="Helvetica,sans-Serif" font-size="10.00">MainWindow::setCurrentFrame</text>
</g>
<!-- Node2 -->
<g id="node2" class="node"><title>Node2</title>
<g id="a_node2"><a xlink:href="classMainWindow.html#aea2b70d7ccb204793c3121600f612c84" target="_top" xlink:title="Return the primary and secondary playlist item that is currently selected. ">
<polygon fill="white" stroke="black" points="200,-153 200,-183 349,-183 349,-153 200,-153"/>
<text text-anchor="start" x="208" y="-171" font-family="Helvetica,sans-Serif" font-size="10.00">MainWindow::selectedPrimary</text>
<text text-anchor="middle" x="274.5" y="-160" font-family="Helvetica,sans-Serif" font-size="10.00">PlaylistItem</text>
</a>
</g>
</g>
<!-- Node1&#45;&gt;Node2 -->
<g id="edge1" class="edge"><title>Node1&#45;&gt;Node2</title>
<path fill="none" stroke="midnightblue" d="M88.2427,-76.5122C107.496,-92.3682 148.531,-124.302 188,-143 192.892,-145.317 198.044,-147.468 203.294,-149.455"/>
<polygon fill="midnightblue" stroke="midnightblue" points="202.22,-152.788 212.815,-152.855 204.574,-146.196 202.22,-152.788"/>
</g>
<!-- Node3 -->
<g id="node3" class="node"><title>Node3</title>
<g id="a_node3"><a xlink:href="classPlaylistItem.html#a3d4d575a397a3725e62ab425dcf214a5" target="_top" xlink:title="PlaylistItem::displayObject">
<polygon fill="white" stroke="black" points="207.5,-114.5 207.5,-133.5 341.5,-133.5 341.5,-114.5 207.5,-114.5"/>
<text text-anchor="middle" x="274.5" y="-121.5" font-family="Helvetica,sans-Serif" font-size="10.00">PlaylistItem::displayObject</text>
</a>
</g>
</g>
<!-- Node1&#45;&gt;Node3 -->
<g id="edge2" class="edge"><title>Node1&#45;&gt;Node3</title>
<path fill="none" stroke="midnightblue" d="M102.317,-76.5673C124.653,-84.7907 158.196,-96.615 188,-105 197.126,-107.567 206.877,-110.011 216.409,-112.239"/>
<polygon fill="midnightblue" stroke="midnightblue" points="215.698,-115.667 226.226,-114.479 217.256,-108.842 215.698,-115.667"/>
</g>
<!-- Node4 -->
<g id="node4" class="node"><title>Node4</title>
<g id="a_node4"><a xlink:href="classDisplayObject.html#aadedaec1d9a5ec4adbf8f33e0f802350" target="_top" xlink:title="DisplayObject::endFrame">
<polygon fill="white" stroke="black" points="210.5,-76.5 210.5,-95.5 338.5,-95.5 338.5,-76.5 210.5,-76.5"/>
<text text-anchor="middle" x="274.5" y="-83.5" font-family="Helvetica,sans-Serif" font-size="10.00">DisplayObject::endFrame</text>
</a>
</g>
</g>
<!-- Node1&#45;&gt;Node4 -->
<g id="edge3" class="edge"><title>Node1&#45;&gt;Node4</title>
<path fill="none" stroke="midnightblue" d="M152.129,-74.2644C167.861,-75.7855 184.43,-77.3876 200.098,-78.9026"/>
<polygon fill="midnightblue" stroke="midnightblue" points="199.955,-82.405 210.245,-79.8837 200.628,-75.4375 199.955,-82.405"/>
</g>
<!-- Node5 -->
<g id="node5" class="node"><title>Node5</title>
<g id="a_node5"><a xlink:href="classDisplayObject.html#aaaa354081106c97409a4bc2bbc2059fe" target="_top" xlink:title="DisplayObject::startFrame">
<polygon fill="white" stroke="black" points="209,-38.5 209,-57.5 340,-57.5 340,-38.5 209,-38.5"/>
<text text-anchor="middle" x="274.5" y="-45.5" font-family="Helvetica,sans-Serif" font-size="10.00">DisplayObject::startFrame</text>
</a>
</g>
</g>
<!-- Node1&#45;&gt;Node5 -->
<g id="edge4" class="edge"><title>Node1&#45;&gt;Node5</title>
<path fill="none" stroke="midnightblue" d="M152.129,-59.7356C167.359,-58.263 183.374,-56.7145 198.595,-55.2427"/>
<polygon fill="midnightblue" stroke="midnightblue" points="199.37,-58.6842 208.987,-54.2379 198.696,-51.7167 199.37,-58.6842"/>
</g>
<!-- Node6 -->
<g id="node6" class="node"><title>Node6</title>
<g id="a_node6"><a xlink:href="classMainWindow.html#a6ad58489b43d2fca734a3dfa7b69832e" target="_top" xlink:title="update the frames slider and frame selection box without toggeling any signals ">
<polygon fill="white" stroke="black" points="188,-0.5 188,-19.5 361,-19.5 361,-0.5 188,-0.5"/>
<text text-anchor="middle" x="274.5" y="-7.5" font-family="Helvetica,sans-Serif" font-size="10.00">MainWindow::updateFrameControls</text>
</a>
</g>
</g>
<!-- Node1&#45;&gt;Node6 -->
<g id="edge5" class="edge"><title>Node1&#45;&gt;Node6</title>
<path fill="none" stroke="midnightblue" d="M87.9008,-57.4945C106.027,-47.2517 143.832,-33.0509 180.095,-22.3013"/>
<polygon fill="midnightblue" stroke="midnightblue" points="181.129,-25.6458 189.764,-19.5074 179.185,-18.9208 181.129,-25.6458"/>
</g>
<!-- Node6&#45;&gt;Node1 -->
<g id="edge6" class="edge"><title>Node6&#45;&gt;Node1</title>
<path fill="none" stroke="midnightblue" d="M257.925,-19.51C240.689,-25.2762 212.152,-31.205 188,-38 170.708,-42.865 152.157,-48.8879 135.266,-54.3254"/>
<polygon fill="midnightblue" stroke="midnightblue" points="133.988,-51.0595 125.535,-57.4462 136.126,-57.7251 133.988,-51.0595"/>
</g>
</g>
</svg>
