<?xml version="1.0" encoding="UTF-8" standalone="no"?>
<!DOCTYPE svg PUBLIC "-//W3C//DTD SVG 1.1//EN"
 "http://www.w3.org/Graphics/SVG/1.1/DTD/svg11.dtd">
<!-- Generated by graphviz version 2.38.0 (20140413.2041)
 -->
<!-- Title: DisplayObject::frameRate Pages: 1 -->
<!--zoomable 688 -->
<svg id="main" version="1.1" xmlns="http://www.w3.org/2000/svg" xmlns:xlink="http://www.w3.org/1999/xlink" xml:space="preserve" onload="init(evt)">
<style type="text/css"><![CDATA[
.edge:hover path { stroke: red; }
.edge:hover polygon { stroke: red; fill: red; }
]]></style>
<script type="text/javascript"><![CDATA[
var edges = document.getElementsByTagName('g');
if (edges && edges.length) {
  for (var i=0;i<edges.length;i++) {
    if (edges[i].id.substr(0,4)=='edge') {
      edges[i].setAttribute('class','edge');
    }
  }
}
]]></script>
        <defs>
                <circle id="rim" cx="0" cy="0" r="7"/>
                <circle id="rim2" cx="0" cy="0" r="3.5"/>
                <g id="zoomPlus">
                        <use xlink:href="#rim" fill="#404040">
                                <set attributeName="fill" to="#808080" begin="zoomplus.mouseover" end="zoomplus.mouseout"/>
                        </use>
                        <path d="M-4,0h8M0,-4v8" fill="none" stroke="white" stroke-width="1.5" pointer-events="none"/>
                </g>
                <g id="zoomMin">
                        <use xlink:href="#rim" fill="#404040">
                                <set attributeName="fill" to="#808080" begin="zoomminus.mouseover" end="zoomminus.mouseout"/>
                        </use>
                        <path d="M-4,0h8" fill="none" stroke="white" stroke-width="1.5" pointer-events="none"/>
                </g>
                <g id="dirArrow">
                        <path fill="none" stroke="white" stroke-width="1.5" d="M0,-3.0v7 M-2.5,-0.5L0,-3.0L2.5,-0.5"/>
                </g>
               <g id="resetDef">
                       <use xlink:href="#rim2" fill="#404040">
                               <set attributeName="fill" to="#808080" begin="reset.mouseover" end="reset.mouseout"/>
                       </use>
               </g>
        </defs>

<script type="text/javascript">
var viewWidth = 1662;
var viewHeight = 688;
var sectionId = 'dynsection-6';
</script>
<script xlink:href="svgpan.js"/>
<svg id="graph" class="graph">
<g id="viewport">
<title>DisplayObject::frameRate</title>
<polygon fill="white" stroke="none" points="-4,4 -4,-683.5 1658,-683.5 1658,4 -4,4"/>
<!-- Node1 -->
<g id="node1" class="node"><title>Node1</title>
<polygon fill="#bfbfbf" stroke="black" points="0,-292 0,-311 130,-311 130,-292 0,-292"/>
<text text-anchor="middle" x="65" y="-299" font-family="Helvetica,sans-Serif" font-size="10.00">DisplayObject::frameRate</text>
</g>
<!-- Node2 -->
<g id="node2" class="node"><title>Node2</title>
<g id="a_node2"><a xlink:href="classDifferenceObject.html#ad4550c60b9d42cb7e5c61ad66852c855" target="_top" xlink:title="DifferenceObject::setFrame\lObjects">
<polygon fill="white" stroke="black" points="561,-38.5 561,-68.5 698,-68.5 698,-38.5 561,-38.5"/>
<text text-anchor="start" x="569" y="-56.5" font-family="Helvetica,sans-Serif" font-size="10.00">DifferenceObject::setFrame</text>
<text text-anchor="middle" x="629.5" y="-45.5" font-family="Helvetica,sans-Serif" font-size="10.00">Objects</text>
</a>
</g>
</g>
<!-- Node1&#45;&gt;Node2 -->
<g id="edge1" class="edge"><title>Node1&#45;&gt;Node2</title>
<path fill="none" stroke="midnightblue" d="M81.6732,-284.246C121.677,-241.504 232.783,-130.763 351,-83.5 418.83,-56.3816 503.001,-50.7985 560.747,-50.7916"/>
<polygon fill="midnightblue" stroke="midnightblue" points="78.8613,-282.131 74.6394,-291.848 83.9996,-286.885 78.8613,-282.131"/>
</g>
<!-- Node11 -->
<g id="node11" class="node"><title>Node11</title>
<g id="a_node11"><a xlink:href="classMainWindow.html#a88624964fbb9d67df9149b29fab6f225" target="_top" xlink:title="MainWindow::savePlaylist\lToFile">
<polygon fill="white" stroke="black" points="174.5,-540.5 174.5,-570.5 306.5,-570.5 306.5,-540.5 174.5,-540.5"/>
<text text-anchor="start" x="182.5" y="-558.5" font-family="Helvetica,sans-Serif" font-size="10.00">MainWindow::savePlaylist</text>
<text text-anchor="middle" x="240.5" y="-547.5" font-family="Helvetica,sans-Serif" font-size="10.00">ToFile</text>
</a>
</g>
</g>
<!-- Node1&#45;&gt;Node11 -->
<g id="edge15" class="edge"><title>Node1&#45;&gt;Node11</title>
<path fill="none" stroke="midnightblue" d="M78.34,-319.565C110.956,-367.314 199.008,-496.22 229.186,-540.401"/>
<polygon fill="midnightblue" stroke="midnightblue" points="81.1201,-317.43 72.5895,-311.147 75.3399,-321.379 81.1201,-317.43"/>
</g>
<!-- Node13 -->
<g id="node13" class="node"><title>Node13</title>
<g id="a_node13"><a xlink:href="classMainWindow.html#ab0bccbff44df197a71751db53003079a" target="_top" xlink:title="updates the Playback controls to fit the current YUV settings ">
<polygon fill="white" stroke="black" points="166,-286.5 166,-316.5 315,-316.5 315,-286.5 166,-286.5"/>
<text text-anchor="start" x="174" y="-304.5" font-family="Helvetica,sans-Serif" font-size="10.00">MainWindow::refreshPlayback</text>
<text text-anchor="middle" x="240.5" y="-293.5" font-family="Helvetica,sans-Serif" font-size="10.00">Widgets</text>
</a>
</g>
</g>
<!-- Node1&#45;&gt;Node13 -->
<g id="edge18" class="edge"><title>Node1&#45;&gt;Node13</title>
<path fill="none" stroke="midnightblue" d="M140.366,-301.5C148.857,-301.5 157.509,-301.5 165.988,-301.5"/>
<polygon fill="midnightblue" stroke="midnightblue" points="140.112,-298 130.112,-301.5 140.112,-305 140.112,-298"/>
</g>
<!-- Node24 -->
<g id="node24" class="node"><title>Node24</title>
<g id="a_node24"><a xlink:href="classMainWindow.html#a4f035b25b6181829a9275155e3ca9bbd" target="_top" xlink:title="Starts playback of selected video file. ">
<polygon fill="white" stroke="black" points="778,-622 778,-641 875,-641 875,-622 778,-622"/>
<text text-anchor="middle" x="826.5" y="-629" font-family="Helvetica,sans-Serif" font-size="10.00">MainWindow::play</text>
</a>
</g>
</g>
<!-- Node1&#45;&gt;Node24 -->
<g id="edge39" class="edge"><title>Node1&#45;&gt;Node24</title>
<path fill="none" stroke="midnightblue" d="M66.5511,-321.295C69.1476,-373.09 83.8107,-513.247 166,-580.5 354.64,-734.858 683.823,-668.317 790.827,-641.065"/>
<polygon fill="midnightblue" stroke="midnightblue" points="70.0414,-320.981 66.145,-311.129 63.047,-321.261 70.0414,-320.981"/>
</g>
<!-- Node28 -->
<g id="node28" class="node"><title>Node28</title>
<g id="a_node28"><a xlink:href="classStatisticsObject.html#a9d029a8acb66b9c375275762ec794774" target="_top" xlink:title="StatisticsObject::Statistics\lObject">
<polygon fill="white" stroke="black" points="173.5,-0.5 173.5,-30.5 307.5,-30.5 307.5,-0.5 173.5,-0.5"/>
<text text-anchor="start" x="181.5" y="-18.5" font-family="Helvetica,sans-Serif" font-size="10.00">StatisticsObject::Statistics</text>
<text text-anchor="middle" x="240.5" y="-7.5" font-family="Helvetica,sans-Serif" font-size="10.00">Object</text>
</a>
</g>
</g>
<!-- Node1&#45;&gt;Node28 -->
<g id="edge45" class="edge"><title>Node1&#45;&gt;Node28</title>
<path fill="none" stroke="midnightblue" d="M68.3653,-281.846C75.0256,-234.785 98.1022,-114.433 166,-45.5 171.996,-39.4122 179.399,-34.5135 187.176,-30.5851"/>
<polygon fill="midnightblue" stroke="midnightblue" points="64.874,-281.55 67.0367,-291.922 71.814,-282.466 64.874,-281.55"/>
</g>
<!-- Node3 -->
<g id="node3" class="node"><title>Node3</title>
<g id="a_node3"><a xlink:href="classMainWindow.html#a6f33e93f427ff2df80edffcb3ad944da" target="_top" xlink:title="MainWindow::updateSelected\lItems">
<polygon fill="white" stroke="black" points="937,-222.5 937,-252.5 1083,-252.5 1083,-222.5 937,-222.5"/>
<text text-anchor="start" x="945" y="-240.5" font-family="Helvetica,sans-Serif" font-size="10.00">MainWindow::updateSelected</text>
<text text-anchor="middle" x="1010" y="-229.5" font-family="Helvetica,sans-Serif" font-size="10.00">Items</text>
</a>
</g>
</g>
<!-- Node2&#45;&gt;Node3 -->
<g id="edge2" class="edge"><title>Node2&#45;&gt;Node3</title>
<path fill="none" stroke="midnightblue" d="M708.203,-45.742C765.365,-43.7426 842.901,-49.0811 901,-83.5 956.629,-116.456 990.813,-190.557 1003.45,-222.442"/>
<polygon fill="midnightblue" stroke="midnightblue" points="707.975,-42.2485 698.135,-46.1769 708.277,-49.242 707.975,-42.2485"/>
</g>
<!-- Node4 -->
<g id="node4" class="node"><title>Node4</title>
<g id="a_node4"><a xlink:href="classMainWindow.html#a8b244be8b7b7db1b08de2a2acb9409db" target="_top" xlink:title="MainWindow::MainWindow">
<polygon fill="white" stroke="black" points="1519,-320 1519,-339 1654,-339 1654,-320 1519,-320"/>
<text text-anchor="middle" x="1586.5" y="-327" font-family="Helvetica,sans-Serif" font-size="10.00">MainWindow::MainWindow</text>
</a>
</g>
</g>
<!-- Node3&#45;&gt;Node4 -->
<g id="edge3" class="edge"><title>Node3&#45;&gt;Node4</title>
<path fill="none" stroke="midnightblue" d="M1078.73,-220.19C1173.46,-199.548 1348.93,-174.484 1483,-231.5 1528.09,-250.674 1565.01,-299.256 1579.22,-319.94"/>
<polygon fill="midnightblue" stroke="midnightblue" points="1077.7,-216.833 1068.7,-222.424 1079.22,-223.665 1077.7,-216.833"/>
</g>
<!-- Node5 -->
<g id="node5" class="node"><title>Node5</title>
<g id="a_node5"><a xlink:href="classMainWindow.html#a6be7246a1a0ecf5d1442bb1775c3d9b3" target="_top" xlink:title="MainWindow::addDifference\lSequence">
<polygon fill="white" stroke="black" points="1122,-311.5 1122,-341.5 1262,-341.5 1262,-311.5 1122,-311.5"/>
<text text-anchor="start" x="1130" y="-329.5" font-family="Helvetica,sans-Serif" font-size="10.00">MainWindow::addDifference</text>
<text text-anchor="middle" x="1192" y="-318.5" font-family="Helvetica,sans-Serif" font-size="10.00">Sequence</text>
</a>
</g>
</g>
<!-- Node3&#45;&gt;Node5 -->
<g id="edge4" class="edge"><title>Node3&#45;&gt;Node5</title>
<path fill="none" stroke="midnightblue" d="M1041.99,-258.129C1063.1,-271.611 1092.02,-288.974 1119,-301.5 1126.68,-305.065 1135.02,-308.411 1143.21,-311.423"/>
<polygon fill="midnightblue" stroke="midnightblue" points="1043.75,-255.098 1033.45,-252.615 1039.95,-260.979 1043.75,-255.098"/>
</g>
<!-- Node8 -->
<g id="node8" class="node"><title>Node8</title>
<g id="a_node8"><a xlink:href="classMainWindow.html#af5ecc7c65080215b49b9d931c56c65c9" target="_top" xlink:title="MainWindow::editTextFrame">
<polygon fill="white" stroke="black" points="1121,-273 1121,-292 1263,-292 1263,-273 1121,-273"/>
<text text-anchor="middle" x="1192" y="-280" font-family="Helvetica,sans-Serif" font-size="10.00">MainWindow::editTextFrame</text>
</a>
</g>
</g>
<!-- Node3&#45;&gt;Node8 -->
<g id="edge9" class="edge"><title>Node3&#45;&gt;Node8</title>
<path fill="none" stroke="midnightblue" d="M1081.15,-255.037C1105.57,-261.143 1132.05,-267.763 1152.89,-272.973"/>
<polygon fill="midnightblue" stroke="midnightblue" points="1081.74,-251.577 1071.19,-252.547 1080.04,-258.368 1081.74,-251.577"/>
</g>
<!-- Node10 -->
<g id="node10" class="node"><title>Node10</title>
<g id="a_node10"><a xlink:href="classMainWindow.html#a156c29c6d7ab278e4246c88a0fcbe2f2" target="_top" xlink:title="MainWindow::updateSettings">
<polygon fill="white" stroke="black" points="1120,-232 1120,-251 1264,-251 1264,-232 1120,-232"/>
<text text-anchor="middle" x="1192" y="-239" font-family="Helvetica,sans-Serif" font-size="10.00">MainWindow::updateSettings</text>
</a>
</g>
</g>
<!-- Node3&#45;&gt;Node10 -->
<g id="edge13" class="edge"><title>Node3&#45;&gt;Node10</title>
<path fill="none" stroke="midnightblue" d="M1093.21,-239.327C1102.15,-239.525 1111.19,-239.726 1119.98,-239.922"/>
<polygon fill="midnightblue" stroke="midnightblue" points="1093.25,-235.827 1083.18,-239.104 1093.1,-242.825 1093.25,-235.827"/>
</g>
<!-- Node6 -->
<g id="node6" class="node"><title>Node6</title>
<g id="a_node6"><a xlink:href="classMainWindow.html#a9df7443ce5f907903438bb6a9abe9a33" target="_top" xlink:title="MainWindow::createMenusAnd\lActions">
<polygon fill="white" stroke="black" points="1316,-488.5 1316,-518.5 1468,-518.5 1468,-488.5 1316,-488.5"/>
<text text-anchor="start" x="1324" y="-506.5" font-family="Helvetica,sans-Serif" font-size="10.00">MainWindow::createMenusAnd</text>
<text text-anchor="middle" x="1392" y="-495.5" font-family="Helvetica,sans-Serif" font-size="10.00">Actions</text>
</a>
</g>
</g>
<!-- Node5&#45;&gt;Node6 -->
<g id="edge5" class="edge"><title>Node5&#45;&gt;Node6</title>
<path fill="none" stroke="midnightblue" d="M1217.48,-348.384C1258.27,-384.851 1339.13,-457.13 1374.16,-488.447"/>
<polygon fill="midnightblue" stroke="midnightblue" points="1219.67,-345.646 1209.88,-341.591 1215,-350.865 1219.67,-345.646"/>
</g>
<!-- Node7 -->
<g id="node7" class="node"><title>Node7</title>
<g id="a_node7"><a xlink:href="classMainWindow.html#aaba5c236313378986c42c4a634c4cfb9" target="_top" xlink:title="MainWindow::onCustomContextMenu">
<polygon fill="white" stroke="black" points="1301,-320 1301,-339 1483,-339 1483,-320 1301,-320"/>
<text text-anchor="middle" x="1392" y="-327" font-family="Helvetica,sans-Serif" font-size="10.00">MainWindow::onCustomContextMenu</text>
</a>
</g>
</g>
<!-- Node5&#45;&gt;Node7 -->
<g id="edge7" class="edge"><title>Node5&#45;&gt;Node7</title>
<path fill="none" stroke="midnightblue" d="M1272.33,-327.702C1281.73,-327.844 1291.38,-327.991 1300.91,-328.135"/>
<polygon fill="midnightblue" stroke="midnightblue" points="1272.3,-324.201 1262.25,-327.549 1272.2,-331.2 1272.3,-324.201"/>
</g>
<!-- Node6&#45;&gt;Node4 -->
<g id="edge6" class="edge"><title>Node6&#45;&gt;Node4</title>
<path fill="none" stroke="midnightblue" d="M1417.35,-481.495C1459.55,-443.349 1544.65,-366.425 1574.7,-339.266"/>
<polygon fill="midnightblue" stroke="midnightblue" points="1414.82,-479.061 1409.75,-488.363 1419.51,-484.254 1414.82,-479.061"/>
</g>
<!-- Node7&#45;&gt;Node4 -->
<g id="edge8" class="edge"><title>Node7&#45;&gt;Node4</title>
<path fill="none" stroke="midnightblue" d="M1493.22,-329.5C1501.88,-329.5 1510.5,-329.5 1518.79,-329.5"/>
<polygon fill="midnightblue" stroke="midnightblue" points="1493.05,-326 1483.05,-329.5 1493.05,-333 1493.05,-326"/>
</g>
<!-- Node8&#45;&gt;Node7 -->
<g id="edge10" class="edge"><title>Node8&#45;&gt;Node7</title>
<path fill="none" stroke="midnightblue" d="M1240.27,-294.604C1259.14,-299.359 1281.07,-304.795 1301,-309.5 1315.95,-313.03 1332.35,-316.725 1347,-319.965"/>
<polygon fill="midnightblue" stroke="midnightblue" points="1240.98,-291.173 1230.43,-292.114 1239.26,-297.959 1240.98,-291.173"/>
</g>
<!-- Node9 -->
<g id="node9" class="node"><title>Node9</title>
<g id="a_node9"><a xlink:href="classMainWindow.html#ab18c663524e2c130759c0ca960129ea4" target="_top" xlink:title="MainWindow::onItemDouble\lClicked">
<polygon fill="white" stroke="black" points="1322,-270.5 1322,-300.5 1462,-300.5 1462,-270.5 1322,-270.5"/>
<text text-anchor="start" x="1330" y="-288.5" font-family="Helvetica,sans-Serif" font-size="10.00">MainWindow::onItemDouble</text>
<text text-anchor="middle" x="1392" y="-277.5" font-family="Helvetica,sans-Serif" font-size="10.00">Clicked</text>
</a>
</g>
</g>
<!-- Node8&#45;&gt;Node9 -->
<g id="edge11" class="edge"><title>Node8&#45;&gt;Node9</title>
<path fill="none" stroke="midnightblue" d="M1273.47,-283.719C1289.46,-283.961 1306.1,-284.214 1321.67,-284.45"/>
<polygon fill="midnightblue" stroke="midnightblue" points="1273.14,-280.214 1263.09,-283.562 1273.03,-287.213 1273.14,-280.214"/>
</g>
<!-- Node9&#45;&gt;Node4 -->
<g id="edge12" class="edge"><title>Node9&#45;&gt;Node4</title>
<path fill="none" stroke="midnightblue" d="M1468.77,-302.819C1494.35,-308.665 1521.95,-314.973 1543.88,-319.988"/>
<polygon fill="midnightblue" stroke="midnightblue" points="1469.24,-299.336 1458.71,-300.519 1467.68,-306.16 1469.24,-299.336"/>
</g>
<!-- Node10&#45;&gt;Node4 -->
<g id="edge14" class="edge"><title>Node10&#45;&gt;Node4</title>
<path fill="none" stroke="midnightblue" d="M1274.22,-235.671C1333.62,-234.049 1415.29,-237.387 1483,-260.5 1520.96,-273.459 1558.16,-304.303 1575.45,-319.989"/>
<polygon fill="midnightblue" stroke="midnightblue" points="1274.03,-232.175 1264.15,-235.999 1274.25,-239.172 1274.03,-232.175"/>
</g>
<!-- Node11&#45;&gt;Node6 -->
<g id="edge16" class="edge"><title>Node11&#45;&gt;Node6</title>
<path fill="none" stroke="midnightblue" d="M316.742,-569.609C328.19,-571.451 339.888,-573.159 351,-574.5 473.732,-589.309 504.878,-593.5 628.5,-593.5 628.5,-593.5 628.5,-593.5 1011,-593.5 1139.48,-593.5 1285.97,-544.185 1353.4,-518.564"/>
<polygon fill="midnightblue" stroke="midnightblue" points="317.203,-566.138 306.766,-567.963 316.063,-573.045 317.203,-566.138"/>
</g>
<!-- Node12 -->
<g id="node12" class="node"><title>Node12</title>
<g id="a_node12"><a xlink:href="classMainWindow.html#a4e20a4a065fbb0e4d3532a45a0a91425" target="_top" xlink:title="MainWindow::closeEvent">
<polygon fill="white" stroke="black" points="365,-546 365,-565 493,-565 493,-546 365,-546"/>
<text text-anchor="middle" x="429" y="-553" font-family="Helvetica,sans-Serif" font-size="10.00">MainWindow::closeEvent</text>
</a>
</g>
</g>
<!-- Node11&#45;&gt;Node12 -->
<g id="edge17" class="edge"><title>Node11&#45;&gt;Node12</title>
<path fill="none" stroke="midnightblue" d="M317.006,-555.5C332.832,-555.5 349.366,-555.5 364.693,-555.5"/>
<polygon fill="midnightblue" stroke="midnightblue" points="316.729,-552 306.729,-555.5 316.729,-559 316.729,-552"/>
</g>
<!-- Node13&#45;&gt;Node3 -->
<g id="edge19" class="edge"><title>Node13&#45;&gt;Node3</title>
<path fill="none" stroke="midnightblue" d="M254.526,-277.377C280.049,-230.56 335.503,-131.186 351,-122.5 368.151,-112.886 683.758,-120.278 716,-126.5 816.679,-145.929 927.951,-196.928 979.63,-222.471"/>
<polygon fill="midnightblue" stroke="midnightblue" points="251.399,-275.801 249.7,-286.258 257.55,-279.143 251.399,-275.801"/>
</g>
<!-- Node14 -->
<g id="node14" class="node"><title>Node14</title>
<g id="a_node14"><a xlink:href="classMainWindow.html#a2cae0b3ed4283301ecc11dc881d31422" target="_top" xlink:title="A file option was changed by the user (width/height/start/end/rate/sampling/frameSize/pixelFormat). ">
<polygon fill="white" stroke="black" points="361,-262.5 361,-292.5 497,-292.5 497,-262.5 361,-262.5"/>
<text text-anchor="start" x="369" y="-280.5" font-family="Helvetica,sans-Serif" font-size="10.00">MainWindow::on_fileOption</text>
<text text-anchor="middle" x="429" y="-269.5" font-family="Helvetica,sans-Serif" font-size="10.00">ValueChanged</text>
</a>
</g>
</g>
<!-- Node13&#45;&gt;Node14 -->
<g id="edge20" class="edge"><title>Node13&#45;&gt;Node14</title>
<path fill="none" stroke="midnightblue" d="M325.183,-290.731C337.137,-289.193 349.303,-287.627 360.883,-286.137"/>
<polygon fill="midnightblue" stroke="midnightblue" points="324.681,-287.267 315.21,-292.015 325.575,-294.21 324.681,-287.267"/>
</g>
<!-- Node16 -->
<g id="node16" class="node"><title>Node16</title>
<g id="a_node16"><a xlink:href="classMainWindow.html#a23cc43af3c6873f9a936b5af05c99f49" target="_top" xlink:title="The display objects information changed. Update. ">
<polygon fill="white" stroke="black" points="752,-218.5 752,-248.5 901,-248.5 901,-218.5 752,-218.5"/>
<text text-anchor="start" x="760" y="-236.5" font-family="Helvetica,sans-Serif" font-size="10.00">MainWindow::currentSelection</text>
<text text-anchor="middle" x="826.5" y="-225.5" font-family="Helvetica,sans-Serif" font-size="10.00">InformationChanged</text>
</a>
</g>
</g>
<!-- Node13&#45;&gt;Node16 -->
<g id="edge27" class="edge"><title>Node13&#45;&gt;Node16</title>
<path fill="none" stroke="midnightblue" d="M251.366,-276.715C266.729,-241.952 300.007,-180.101 351,-154.5 506.8,-76.2812 724.019,-178.155 798.896,-218.426"/>
<polygon fill="midnightblue" stroke="midnightblue" points="248.042,-275.586 247.34,-286.157 254.482,-278.331 248.042,-275.586"/>
</g>
<!-- Node17 -->
<g id="node17" class="node"><title>Node17</title>
<g id="a_node17"><a xlink:href="classMainWindow.html#a3e50d275dfc7ac5871360412dd83f7eb" target="_top" xlink:title="MainWindow::on_LumaScale\lSpinBox_valueChanged">
<polygon fill="white" stroke="black" points="357.5,-409.5 357.5,-439.5 500.5,-439.5 500.5,-409.5 357.5,-409.5"/>
<text text-anchor="start" x="365.5" y="-427.5" font-family="Helvetica,sans-Serif" font-size="10.00">MainWindow::on_LumaScale</text>
<text text-anchor="middle" x="429" y="-416.5" font-family="Helvetica,sans-Serif" font-size="10.00">SpinBox_valueChanged</text>
</a>
</g>
</g>
<!-- Node13&#45;&gt;Node17 -->
<g id="edge28" class="edge"><title>Node13&#45;&gt;Node17</title>
<path fill="none" stroke="midnightblue" d="M261.441,-324.161C281.934,-346.194 315.744,-379.221 351,-399.5 357.579,-403.284 364.809,-406.584 372.121,-409.436"/>
<polygon fill="midnightblue" stroke="midnightblue" points="263.846,-321.604 254.516,-316.585 258.68,-326.327 263.846,-321.604"/>
</g>
<!-- Node18 -->
<g id="node18" class="node"><title>Node18</title>
<g id="a_node18"><a xlink:href="classMainWindow.html#a1836ff843ea4ed48e29ab90b08050bf7" target="_top" xlink:title="MainWindow::on_ColorComponents\lComboBox_currentIndexChanged">
<polygon fill="white" stroke="black" points="543,-409.5 543,-439.5 716,-439.5 716,-409.5 543,-409.5"/>
<text text-anchor="start" x="551" y="-427.5" font-family="Helvetica,sans-Serif" font-size="10.00">MainWindow::on_ColorComponents</text>
<text text-anchor="middle" x="629.5" y="-416.5" font-family="Helvetica,sans-Serif" font-size="10.00">ComboBox_currentIndexChanged</text>
</a>
</g>
</g>
<!-- Node13&#45;&gt;Node18 -->
<g id="edge38" class="edge"><title>Node13&#45;&gt;Node18</title>
<path fill="none" stroke="midnightblue" d="M246.872,-326.498C257.796,-370.354 287.178,-460.049 351,-497.5 410.798,-532.59 440.188,-516.028 507,-497.5 547.55,-486.255 588.139,-457.461 610.622,-439.58"/>
<polygon fill="midnightblue" stroke="midnightblue" points="250.247,-325.564 244.537,-316.64 243.436,-327.177 250.247,-325.564"/>
</g>
<!-- Node19 -->
<g id="node19" class="node"><title>Node19</title>
<g id="a_node19"><a xlink:href="classMainWindow.html#aa8b7f37af858513162a091d7f81561b4" target="_top" xlink:title="MainWindow::on_ChromaScale\lSpinBox_valueChanged">
<polygon fill="white" stroke="black" points="352,-458.5 352,-488.5 506,-488.5 506,-458.5 352,-458.5"/>
<text text-anchor="start" x="360" y="-476.5" font-family="Helvetica,sans-Serif" font-size="10.00">MainWindow::on_ChromaScale</text>
<text text-anchor="middle" x="429" y="-465.5" font-family="Helvetica,sans-Serif" font-size="10.00">SpinBox_valueChanged</text>
</a>
</g>
</g>
<!-- Node13&#45;&gt;Node19 -->
<g id="edge30" class="edge"><title>Node13&#45;&gt;Node19</title>
<path fill="none" stroke="midnightblue" d="M253.619,-326.134C270.874,-358.738 305.538,-415.889 351,-448.5 356.368,-452.35 362.36,-455.63 368.566,-458.418"/>
<polygon fill="midnightblue" stroke="midnightblue" points="256.527,-324.139 248.83,-316.858 250.307,-327.35 256.527,-324.139"/>
</g>
<!-- Node20 -->
<g id="node20" class="node"><title>Node20</title>
<g id="a_node20"><a xlink:href="classMainWindow.html#ab0e3857ccb336133d522cde81e73988e" target="_top" xlink:title="MainWindow::on_LumaOffset\lSpinBox_valueChanged">
<polygon fill="white" stroke="black" points="356,-360.5 356,-390.5 502,-390.5 502,-360.5 356,-360.5"/>
<text text-anchor="start" x="364" y="-378.5" font-family="Helvetica,sans-Serif" font-size="10.00">MainWindow::on_LumaOffset</text>
<text text-anchor="middle" x="429" y="-367.5" font-family="Helvetica,sans-Serif" font-size="10.00">SpinBox_valueChanged</text>
</a>
</g>
</g>
<!-- Node13&#45;&gt;Node20 -->
<g id="edge32" class="edge"><title>Node13&#45;&gt;Node20</title>
<path fill="none" stroke="midnightblue" d="M282.073,-320.9C302.526,-330.36 327.844,-341.589 351,-350.5 359.92,-353.932 369.534,-357.305 378.844,-360.408"/>
<polygon fill="midnightblue" stroke="midnightblue" points="283.292,-317.607 272.75,-316.555 280.335,-323.952 283.292,-317.607"/>
</g>
<!-- Node21 -->
<g id="node21" class="node"><title>Node21</title>
<g id="a_node21"><a xlink:href="classMainWindow.html#adac0478ee9ee4dd30f05fc7f5d300825" target="_top" xlink:title="MainWindow::on_ChromaOffset\lSpinBox_valueChanged">
<polygon fill="white" stroke="black" points="351,-311.5 351,-341.5 507,-341.5 507,-311.5 351,-311.5"/>
<text text-anchor="start" x="359" y="-329.5" font-family="Helvetica,sans-Serif" font-size="10.00">MainWindow::on_ChromaOffset</text>
<text text-anchor="middle" x="429" y="-318.5" font-family="Helvetica,sans-Serif" font-size="10.00">SpinBox_valueChanged</text>
</a>
</g>
</g>
<!-- Node13&#45;&gt;Node21 -->
<g id="edge34" class="edge"><title>Node13&#45;&gt;Node21</title>
<path fill="none" stroke="midnightblue" d="M325.174,-312.716C333.719,-313.862 342.373,-315.022 350.843,-316.157"/>
<polygon fill="midnightblue" stroke="midnightblue" points="325.586,-309.24 315.21,-311.381 324.656,-316.178 325.586,-309.24"/>
</g>
<!-- Node22 -->
<g id="node22" class="node"><title>Node22</title>
<g id="a_node22"><a xlink:href="classMainWindow.html#a7f6cbe2be23224eb9eef6af3f55a6d4f" target="_top" xlink:title="MainWindow::on_LumaInvert\lCheckBox_toggled">
<polygon fill="white" stroke="black" points="357.5,-213.5 357.5,-243.5 500.5,-243.5 500.5,-213.5 357.5,-213.5"/>
<text text-anchor="start" x="365.5" y="-231.5" font-family="Helvetica,sans-Serif" font-size="10.00">MainWindow::on_LumaInvert</text>
<text text-anchor="middle" x="429" y="-220.5" font-family="Helvetica,sans-Serif" font-size="10.00">CheckBox_toggled</text>
</a>
</g>
</g>
<!-- Node13&#45;&gt;Node22 -->
<g id="edge36" class="edge"><title>Node13&#45;&gt;Node22</title>
<path fill="none" stroke="midnightblue" d="M282.029,-281.982C302.47,-272.494 327.791,-261.274 351,-252.5 359.251,-249.38 368.105,-246.343 376.764,-243.536"/>
<polygon fill="midnightblue" stroke="midnightblue" points="280.284,-278.934 272.711,-286.344 283.252,-285.274 280.284,-278.934"/>
</g>
<!-- Node23 -->
<g id="node23" class="node"><title>Node23</title>
<g id="a_node23"><a xlink:href="classMainWindow.html#aaa518172394694dea45234097327e979" target="_top" xlink:title="MainWindow::on_ChromaInvert\lCheckBox_toggled">
<polygon fill="white" stroke="black" points="352,-164.5 352,-194.5 506,-194.5 506,-164.5 352,-164.5"/>
<text text-anchor="start" x="360" y="-182.5" font-family="Helvetica,sans-Serif" font-size="10.00">MainWindow::on_ChromaInvert</text>
<text text-anchor="middle" x="429" y="-171.5" font-family="Helvetica,sans-Serif" font-size="10.00">CheckBox_toggled</text>
</a>
</g>
</g>
<!-- Node13&#45;&gt;Node23 -->
<g id="edge37" class="edge"><title>Node13&#45;&gt;Node23</title>
<path fill="none" stroke="midnightblue" d="M261.391,-278.75C281.844,-256.649 315.625,-223.571 351,-203.5 356.968,-200.114 363.472,-197.145 370.088,-194.558"/>
<polygon fill="midnightblue" stroke="midnightblue" points="258.617,-276.598 254.48,-286.352 263.797,-281.307 258.617,-276.598"/>
</g>
<!-- Node14&#45;&gt;Node4 -->
<g id="edge21" class="edge"><title>Node14&#45;&gt;Node4</title>
<path fill="none" stroke="midnightblue" d="M490.505,-295.33C584.241,-322.336 760.526,-370.5 825.5,-370.5 825.5,-370.5 825.5,-370.5 1193,-370.5 1322.26,-370.5 1354.82,-365.192 1483,-348.5 1501.75,-346.058 1522.28,-342.443 1540,-339.021"/>
<polygon fill="midnightblue" stroke="midnightblue" points="491.451,-291.96 480.872,-292.545 489.507,-298.685 491.451,-291.96"/>
</g>
<!-- Node15 -->
<g id="node15" class="node"><title>Node15</title>
<g id="a_node15"><a xlink:href="classMainWindow.html#a29e6418f12a4331860a7db3616e91600" target="_top" xlink:title="updates the YUV information GUI elements from the current Renderobject ">
<polygon fill="white" stroke="black" points="555,-262.5 555,-292.5 704,-292.5 704,-262.5 555,-262.5"/>
<text text-anchor="start" x="563" y="-280.5" font-family="Helvetica,sans-Serif" font-size="10.00">MainWindow::updateSelection</text>
<text text-anchor="middle" x="629.5" y="-269.5" font-family="Helvetica,sans-Serif" font-size="10.00">MetaInfo</text>
</a>
</g>
</g>
<!-- Node14&#45;&gt;Node15 -->
<g id="edge22" class="edge"><title>Node14&#45;&gt;Node15</title>
<path fill="none" stroke="midnightblue" d="M507.352,-270.898C522.989,-270.683 539.39,-270.702 554.894,-270.954"/>
<polygon fill="midnightblue" stroke="midnightblue" points="507.141,-267.401 497.203,-271.073 507.262,-274.4 507.141,-267.401"/>
</g>
<!-- Node15&#45;&gt;Node3 -->
<g id="edge23" class="edge"><title>Node15&#45;&gt;Node3</title>
<path fill="none" stroke="midnightblue" d="M714.327,-273.67C767.874,-270.639 838.698,-265.547 901,-257.5 912.631,-255.998 924.906,-254.063 936.845,-251.99"/>
<polygon fill="midnightblue" stroke="midnightblue" points="713.988,-270.183 704.196,-274.23 714.375,-277.172 713.988,-270.183"/>
</g>
<!-- Node15&#45;&gt;Node14 -->
<g id="edge24" class="edge"><title>Node15&#45;&gt;Node14</title>
<path fill="none" stroke="midnightblue" d="M544.594,-284.178C528.777,-284.328 512.426,-284.244 497.203,-283.927"/>
<polygon fill="midnightblue" stroke="midnightblue" points="544.94,-287.674 554.894,-284.046 544.85,-280.674 544.94,-287.674"/>
</g>
<!-- Node15&#45;&gt;Node16 -->
<g id="edge25" class="edge"><title>Node15&#45;&gt;Node16</title>
<path fill="none" stroke="midnightblue" d="M707.031,-260.232C724.167,-256.365 742.211,-252.293 758.907,-248.526"/>
<polygon fill="midnightblue" stroke="midnightblue" points="706.047,-256.865 697.063,-262.481 707.588,-263.694 706.047,-256.865"/>
</g>
<!-- Node16&#45;&gt;Node3 -->
<g id="edge26" class="edge"><title>Node16&#45;&gt;Node3</title>
<path fill="none" stroke="midnightblue" d="M911.087,-235.342C919.678,-235.531 928.354,-235.723 936.806,-235.909"/>
<polygon fill="midnightblue" stroke="midnightblue" points="911.136,-231.842 901.061,-235.121 910.982,-238.841 911.136,-231.842"/>
</g>
<!-- Node17&#45;&gt;Node18 -->
<g id="edge29" class="edge"><title>Node17&#45;&gt;Node18</title>
<path fill="none" stroke="midnightblue" d="M510.625,-424.5C521.253,-424.5 532.177,-424.5 542.885,-424.5"/>
<polygon fill="midnightblue" stroke="midnightblue" points="510.543,-421 500.543,-424.5 510.543,-428 510.543,-421"/>
</g>
<!-- Node19&#45;&gt;Node18 -->
<g id="edge31" class="edge"><title>Node19&#45;&gt;Node18</title>
<path fill="none" stroke="midnightblue" d="M500.799,-456.023C522.677,-450.623 546.57,-444.724 567.71,-439.506"/>
<polygon fill="midnightblue" stroke="midnightblue" points="499.775,-452.671 490.906,-458.465 501.453,-459.467 499.775,-452.671"/>
</g>
<!-- Node20&#45;&gt;Node18 -->
<g id="edge33" class="edge"><title>Node20&#45;&gt;Node18</title>
<path fill="none" stroke="midnightblue" d="M500.799,-392.977C522.677,-398.377 546.57,-404.276 567.71,-409.494"/>
<polygon fill="midnightblue" stroke="midnightblue" points="501.453,-389.533 490.906,-390.535 499.775,-396.329 501.453,-389.533"/>
</g>
<!-- Node21&#45;&gt;Node18 -->
<g id="edge35" class="edge"><title>Node21&#45;&gt;Node18</title>
<path fill="none" stroke="midnightblue" d="M497.658,-345.585C500.877,-347.113 504.009,-348.75 507,-350.5 525.994,-361.616 524.802,-372.124 543,-384.5 557.364,-394.268 574.492,-402.805 589.632,-409.456"/>
<polygon fill="midnightblue" stroke="midnightblue" points="498.972,-342.34 488.406,-341.562 496.18,-348.759 498.972,-342.34"/>
</g>
<!-- Node25 -->
<g id="node25" class="node"><title>Node25</title>
<g id="a_node25"><a xlink:href="classMainWindow.html#a153ba12113986ad0acac82272d0ad6eb" target="_top" xlink:title="Toggles playback of selected video file. ">
<polygon fill="white" stroke="black" points="937,-622 937,-641 1083,-641 1083,-622 937,-622"/>
<text text-anchor="middle" x="1010" y="-629" font-family="Helvetica,sans-Serif" font-size="10.00">MainWindow::togglePlayback</text>
</a>
</g>
</g>
<!-- Node24&#45;&gt;Node25 -->
<g id="edge40" class="edge"><title>Node24&#45;&gt;Node25</title>
<path fill="none" stroke="midnightblue" d="M885.606,-631.5C901.854,-631.5 919.713,-631.5 936.676,-631.5"/>
<polygon fill="midnightblue" stroke="midnightblue" points="885.187,-628 875.187,-631.5 885.187,-635 885.187,-628"/>
</g>
<!-- Node25&#45;&gt;Node6 -->
<g id="edge41" class="edge"><title>Node25&#45;&gt;Node6</title>
<path fill="none" stroke="midnightblue" d="M1093.26,-635.792C1144.47,-635.582 1210.7,-629.955 1265,-607.5 1313.23,-587.556 1357.22,-542.555 1378.15,-518.819"/>
<polygon fill="midnightblue" stroke="midnightblue" points="1093.23,-632.292 1083.22,-635.766 1093.21,-639.292 1093.23,-632.292"/>
</g>
<!-- Node26 -->
<g id="node26" class="node"><title>Node26</title>
<g id="a_node26"><a xlink:href="classMainWindow.html#a9c4f542263838b9ecd06eae839a42a34" target="_top" xlink:title="MainWindow::keyPressEvent">
<polygon fill="white" stroke="black" points="1119,-660 1119,-679 1265,-679 1265,-660 1119,-660"/>
<text text-anchor="middle" x="1192" y="-667" font-family="Helvetica,sans-Serif" font-size="10.00">MainWindow::keyPressEvent</text>
</a>
</g>
</g>
<!-- Node25&#45;&gt;Node26 -->
<g id="edge42" class="edge"><title>Node25&#45;&gt;Node26</title>
<path fill="none" stroke="midnightblue" d="M1066.33,-643.181C1091.86,-648.57 1121.78,-654.886 1145.91,-659.98"/>
<polygon fill="midnightblue" stroke="midnightblue" points="1066.93,-639.73 1056.42,-641.089 1065.48,-646.579 1066.93,-639.73"/>
</g>
<!-- Node27 -->
<g id="node27" class="node"><title>Node27</title>
<g id="a_node27"><a xlink:href="classMainWindow.html#ab98bca74e18eefa8e0582b5a9eb78d10" target="_top" xlink:title="MainWindow::handleKeyPress">
<polygon fill="white" stroke="black" points="1317,-599 1317,-618 1467,-618 1467,-599 1317,-599"/>
<text text-anchor="middle" x="1392" y="-606" font-family="Helvetica,sans-Serif" font-size="10.00">MainWindow::handleKeyPress</text>
</a>
</g>
</g>
<!-- Node26&#45;&gt;Node27 -->
<g id="edge43" class="edge"><title>Node26&#45;&gt;Node27</title>
<path fill="none" stroke="midnightblue" d="M1233.54,-657.012C1271,-645.47 1325.86,-628.567 1359.95,-618.065"/>
<polygon fill="midnightblue" stroke="midnightblue" points="1232.46,-653.68 1223.94,-659.969 1234.52,-660.369 1232.46,-653.68"/>
</g>
<!-- Node27&#45;&gt;Node4 -->
<g id="edge44" class="edge"><title>Node27&#45;&gt;Node4</title>
<path fill="none" stroke="midnightblue" d="M1414.68,-592.939C1434.31,-578.045 1463.13,-554.11 1483,-528.5 1533.51,-463.409 1570.66,-369.653 1581.93,-339.347"/>
<polygon fill="midnightblue" stroke="midnightblue" points="1412.55,-590.155 1406.62,-598.933 1416.73,-595.771 1412.55,-590.155"/>
</g>
</g>
</svg>
        <g id="navigator" transform="translate(0 0)" fill="#404254">
                <rect fill="#f2f5e9" fill-opacity="0.5" stroke="#606060" stroke-width=".5" x="0" y="0" width="60" height="60"/>
                <use id="zoomplus" xlink:href="#zoomPlus" x="17" y="9" onmousedown="handleZoom(evt,'in')"/>
                <use id="zoomminus" xlink:href="#zoomMin" x="42" y="9" onmousedown="handleZoom(evt,'out')"/>
                <use id="reset" xlink:href="#resetDef" x="30" y="36" onmousedown="handleReset()"/>
                <g id="arrowUp" xlink:href="#dirArrow" transform="translate(30 24)" onmousedown="handlePan(0,-1)">
                  <use xlink:href="#rim" fill="#404040">
                        <set attributeName="fill" to="#808080" begin="arrowUp.mouseover" end="arrowUp.mouseout"/>
                  </use>
                  <path fill="none" stroke="white" stroke-width="1.5" d="M0,-3.0v7 M-2.5,-0.5L0,-3.0L2.5,-0.5"/>
                </g>
                <g id="arrowRight" xlink:href="#dirArrow" transform="rotate(90) translate(36 -43)" onmousedown="handlePan(1,0)">
                  <use xlink:href="#rim" fill="#404040">
                        <set attributeName="fill" to="#808080" begin="arrowRight.mouseover" end="arrowRight.mouseout"/>
                  </use>
                  <path fill="none" stroke="white" stroke-width="1.5" d="M0,-3.0v7 M-2.5,-0.5L0,-3.0L2.5,-0.5"/>
                </g>
                <g id="arrowDown" xlink:href="#dirArrow" transform="rotate(180) translate(-30 -48)" onmousedown="handlePan(0,1)">
                  <use xlink:href="#rim" fill="#404040">
                        <set attributeName="fill" to="#808080" begin="arrowDown.mouseover" end="arrowDown.mouseout"/>
                  </use>
                  <path fill="none" stroke="white" stroke-width="1.5" d="M0,-3.0v7 M-2.5,-0.5L0,-3.0L2.5,-0.5"/>
                </g>
                <g id="arrowLeft" xlink:href="#dirArrow" transform="rotate(270) translate(-36 17)" onmousedown="handlePan(-1,0)">
                  <use xlink:href="#rim" fill="#404040">
                        <set attributeName="fill" to="#808080" begin="arrowLeft.mouseover" end="arrowLeft.mouseout"/>
                  </use>
                  <path fill="none" stroke="white" stroke-width="1.5" d="M0,-3.0v7 M-2.5,-0.5L0,-3.0L2.5,-0.5"/>
                </g>
        </g>
        <svg viewBox="0 0 15 15" width="100%" height="30px" preserveAspectRatio="xMaxYMin meet">
         <g id="arrow_out" transform="scale(0.3 0.3)">
          <a xlink:href="classDisplayObject_a8f8f637b874a3e17128915cf414d6b60_icgraph_org.svg" target="_base">
           <rect id="button" ry="5" rx="5" y="6" x="6" height="38" width="38"
                fill="#f2f5e9" fill-opacity="0.5" stroke="#606060" stroke-width="1.0"/>
           <path id="arrow"
             d="M 11.500037,31.436501 C 11.940474,20.09759 22.043105,11.32322 32.158766,21.979434 L 37.068811,17.246167 C 37.068811,17.246167 37.088388,32 37.088388,32 L 22.160133,31.978069 C 22.160133,31.978069 26.997745,27.140456 26.997745,27.140456 C 18.528582,18.264221 13.291696,25.230495 11.500037,31.436501 z"
             style="fill:#404040;"/>
          </a>
         </g>
        </svg>
</svg>
