<?xml version="1.0" encoding="UTF-8" standalone="no"?>
<!DOCTYPE svg PUBLIC "-//W3C//DTD SVG 1.1//EN"
 "http://www.w3.org/Graphics/SVG/1.1/DTD/svg11.dtd">
<!-- Generated by graphviz version 2.38.0 (20140413.2041)
 -->
<!-- Title: de265File::addEmptyBuffer Pages: 1 -->
<svg width="646pt" height="72pt"
 viewBox="0.00 0.00 646.00 71.50" xmlns="http://www.w3.org/2000/svg" xmlns:xlink="http://www.w3.org/1999/xlink">
<g id="graph0" class="graph" transform="scale(1 1) rotate(0) translate(4 67.5)">
<title>de265File::addEmptyBuffer</title>
<polygon fill="white" stroke="none" points="-4,4 -4,-67.5 642,-67.5 642,4 -4,4"/>
<!-- Node1 -->
<g id="node1" class="node"><title>Node1</title>
<polygon fill="#bfbfbf" stroke="black" points="0,-19.5 0,-38.5 135,-38.5 135,-19.5 0,-19.5"/>
<text text-anchor="middle" x="67.5" y="-26.5" font-family="Helvetica,sans-Serif" font-size="10.00">de265File::addEmptyBuffer</text>
</g>
<!-- Node2 -->
<g id="node2" class="node"><title>Node2</title>
<g id="a_node2"><a xlink:href="classde265File.html#a4778a7853c318063a9efd5f0990e79bf" target="_top" xlink:title="de265File::getOneFrame">
<polygon fill="white" stroke="black" points="359,-38.5 359,-57.5 483,-57.5 483,-38.5 359,-38.5"/>
<text text-anchor="middle" x="421" y="-45.5" font-family="Helvetica,sans-Serif" font-size="10.00">de265File::getOneFrame</text>
</a>
</g>
</g>
<!-- Node1&#45;&gt;Node2 -->
<g id="edge1" class="edge"><title>Node1&#45;&gt;Node2</title>
<path fill="none" stroke="midnightblue" d="M145.078,-33.1394C209.156,-36.603 299.379,-41.4799 358.744,-44.6889"/>
<polygon fill="midnightblue" stroke="midnightblue" points="145.202,-29.641 135.028,-32.5961 144.824,-36.6308 145.202,-29.641"/>
</g>
<!-- Node4 -->
<g id="node4" class="node"><title>Node4</title>
<g id="a_node4"><a xlink:href="classde265File.html#a948bfcc1b2c4ad6f0a3aa54b99f9553f" target="_top" xlink:title="de265File::backgroundDecoder">
<polygon fill="white" stroke="black" points="171,-0.5 171,-19.5 323,-19.5 323,-0.5 171,-0.5"/>
<text text-anchor="middle" x="247" y="-7.5" font-family="Helvetica,sans-Serif" font-size="10.00">de265File::backgroundDecoder</text>
</a>
</g>
</g>
<!-- Node1&#45;&gt;Node4 -->
<g id="edge3" class="edge"><title>Node1&#45;&gt;Node4</title>
<path fill="none" stroke="midnightblue" d="M145.087,-20.8019C153.673,-19.8829 162.413,-18.9474 170.978,-18.0305"/>
<polygon fill="midnightblue" stroke="midnightblue" points="144.67,-17.3265 135.099,-21.871 145.415,-24.2867 144.67,-17.3265"/>
</g>
<!-- Node3 -->
<g id="node3" class="node"><title>Node3</title>
<g id="a_node3"><a xlink:href="classde265File.html#af878636f68cd2ee3a4dfc6b3b0169676" target="_top" xlink:title="de265File::loadStatistic\lToCache">
<polygon fill="white" stroke="black" points="519,-33 519,-63 638,-63 638,-33 519,-33"/>
<text text-anchor="start" x="527" y="-51" font-family="Helvetica,sans-Serif" font-size="10.00">de265File::loadStatistic</text>
<text text-anchor="middle" x="578.5" y="-40" font-family="Helvetica,sans-Serif" font-size="10.00">ToCache</text>
</a>
</g>
</g>
<!-- Node2&#45;&gt;Node3 -->
<g id="edge2" class="edge"><title>Node2&#45;&gt;Node3</title>
<path fill="none" stroke="midnightblue" d="M493.093,-48C501.747,-48 510.511,-48 518.954,-48"/>
<polygon fill="midnightblue" stroke="midnightblue" points="493.011,-44.5001 483.011,-48 493.011,-51.5001 493.011,-44.5001"/>
</g>
<!-- Node4&#45;&gt;Node2 -->
<g id="edge5" class="edge"><title>Node4&#45;&gt;Node2</title>
<path fill="none" stroke="midnightblue" d="M301.196,-21.7526C325.517,-27.1258 353.955,-33.4086 376.909,-38.4799"/>
<polygon fill="midnightblue" stroke="midnightblue" points="301.922,-18.3288 291.403,-19.589 300.412,-25.164 301.922,-18.3288"/>
</g>
<!-- Node5 -->
<g id="node5" class="node"><title>Node5</title>
<g id="a_node5"><a xlink:href="classde265File.html#afc2f00a9676e0b5c3fdd821619bda482" target="_top" xlink:title="de265File::de265File">
<polygon fill="white" stroke="black" points="367.5,-0.5 367.5,-19.5 474.5,-19.5 474.5,-0.5 367.5,-0.5"/>
<text text-anchor="middle" x="421" y="-7.5" font-family="Helvetica,sans-Serif" font-size="10.00">de265File::de265File</text>
</a>
</g>
</g>
<!-- Node4&#45;&gt;Node5 -->
<g id="edge4" class="edge"><title>Node4&#45;&gt;Node5</title>
<path fill="none" stroke="midnightblue" d="M333.376,-10C344.993,-10 356.626,-10 367.426,-10"/>
<polygon fill="midnightblue" stroke="midnightblue" points="333.192,-6.5001 323.191,-10 333.191,-13.5001 333.192,-6.5001"/>
</g>
</g>
</svg>
