<?xml version="1.0" encoding="UTF-8" standalone="no"?>
<!DOCTYPE svg PUBLIC "-//W3C//DTD SVG 1.1//EN"
 "http://www.w3.org/Graphics/SVG/1.1/DTD/svg11.dtd">
<!-- Generated by graphviz version 2.38.0 (20140413.2041)
 -->
<!-- Title: FrameObject::setChromaVScale Pages: 1 -->
<svg width="1075pt" height="333pt"
 viewBox="0.00 0.00 1075.00 332.93" xmlns="http://www.w3.org/2000/svg" xmlns:xlink="http://www.w3.org/1999/xlink">
<g id="graph0" class="graph" transform="scale(1 1) rotate(0) translate(4 328.934)">
<title>FrameObject::setChromaVScale</title>
<polygon fill="white" stroke="none" points="-4,4 -4,-328.934 1071,-328.934 1071,4 -4,4"/>
<!-- Node1 -->
<g id="node1" class="node"><title>Node1</title>
<polygon fill="#bfbfbf" stroke="black" points="0,-229.434 0,-248.434 158,-248.434 158,-229.434 0,-229.434"/>
<text text-anchor="middle" x="79" y="-236.434" font-family="Helvetica,sans-Serif" font-size="10.00">FrameObject::setChromaVScale</text>
</g>
<!-- Node2 -->
<g id="node2" class="node"><title>Node2</title>
<g id="a_node2"><a xlink:href="classFrameObject.html#ac42be5ded1448dde312e661e66c8730e" target="_top" xlink:title="FrameObject::refreshDisplay\lImage">
<polygon fill="white" stroke="black" points="194,-223.934 194,-253.934 336,-253.934 336,-223.934 194,-223.934"/>
<text text-anchor="start" x="202" y="-241.934" font-family="Helvetica,sans-Serif" font-size="10.00">FrameObject::refreshDisplay</text>
<text text-anchor="middle" x="265" y="-230.934" font-family="Helvetica,sans-Serif" font-size="10.00">Image</text>
</a>
</g>
</g>
<!-- Node1&#45;&gt;Node2 -->
<g id="edge1" class="edge"><title>Node1&#45;&gt;Node2</title>
<path fill="none" stroke="midnightblue" d="M158.033,-238.934C166.458,-238.934 175.044,-238.934 183.498,-238.934"/>
<polygon fill="midnightblue" stroke="midnightblue" points="183.726,-242.434 193.726,-238.934 183.726,-235.434 183.726,-242.434"/>
</g>
<!-- Node3 -->
<g id="node3" class="node"><title>Node3</title>
<g id="a_node3"><a xlink:href="classFrameObject.html#adfa8fc2528a422aba57c301f3c2a311c" target="_top" xlink:title="FrameObject::clearCurrent\lCache">
<polygon fill="white" stroke="black" points="372,-261.934 372,-291.934 504,-291.934 504,-261.934 372,-261.934"/>
<text text-anchor="start" x="380" y="-279.934" font-family="Helvetica,sans-Serif" font-size="10.00">FrameObject::clearCurrent</text>
<text text-anchor="middle" x="438" y="-268.934" font-family="Helvetica,sans-Serif" font-size="10.00">Cache</text>
</a>
</g>
</g>
<!-- Node2&#45;&gt;Node3 -->
<g id="edge2" class="edge"><title>Node2&#45;&gt;Node3</title>
<path fill="none" stroke="midnightblue" d="M333.584,-253.953C342.937,-256.032 352.591,-258.177 362.068,-260.283"/>
<polygon fill="midnightblue" stroke="midnightblue" points="361.339,-263.706 371.861,-262.459 362.858,-256.873 361.339,-263.706"/>
</g>
<!-- Node7 -->
<g id="node7" class="node"><title>Node7</title>
<g id="a_node7"><a xlink:href="classFrameObject.html#ad33aa12aedba2856ec54989d6eda2d49" target="_top" xlink:title="FrameObject::loadImage">
<polygon fill="white" stroke="black" points="376,-172.434 376,-191.434 500,-191.434 500,-172.434 376,-172.434"/>
<text text-anchor="middle" x="438" y="-179.434" font-family="Helvetica,sans-Serif" font-size="10.00">FrameObject::loadImage</text>
</a>
</g>
</g>
<!-- Node2&#45;&gt;Node7 -->
<g id="edge6" class="edge"><title>Node2&#45;&gt;Node7</title>
<path fill="none" stroke="midnightblue" d="M311.376,-223.809C338.542,-214.754 372.696,-203.369 398.533,-194.757"/>
<polygon fill="midnightblue" stroke="midnightblue" points="399.966,-197.968 408.346,-191.486 397.752,-191.328 399.966,-197.968"/>
</g>
<!-- Node4 -->
<g id="node4" class="node"><title>Node4</title>
<g id="a_node4"><a xlink:href="classYUVSource.html#a12174732ce70dfe8f1e5b842a532b8c9" target="_top" xlink:title="YUVSource::getName">
<polygon fill="white" stroke="black" points="562.5,-267.434 562.5,-286.434 676.5,-286.434 676.5,-267.434 562.5,-267.434"/>
<text text-anchor="middle" x="619.5" y="-274.434" font-family="Helvetica,sans-Serif" font-size="10.00">YUVSource::getName</text>
</a>
</g>
</g>
<!-- Node3&#45;&gt;Node4 -->
<g id="edge3" class="edge"><title>Node3&#45;&gt;Node4</title>
<path fill="none" stroke="midnightblue" d="M504.057,-276.934C519.695,-276.934 536.417,-276.934 552.114,-276.934"/>
<polygon fill="midnightblue" stroke="midnightblue" points="552.26,-280.434 562.26,-276.934 552.26,-273.434 552.26,-280.434"/>
</g>
<!-- Node5 -->
<g id="node5" class="node"><title>Node5</title>
<g id="a_node5"><a xlink:href="classFrameObject.html#a1069def130e7deac035f166084ae4ca8" target="_top" xlink:title="FrameObject::numFrames">
<polygon fill="white" stroke="black" points="554,-305.434 554,-324.434 685,-324.434 685,-305.434 554,-305.434"/>
<text text-anchor="middle" x="619.5" y="-312.434" font-family="Helvetica,sans-Serif" font-size="10.00">FrameObject::numFrames</text>
</a>
</g>
</g>
<!-- Node3&#45;&gt;Node5 -->
<g id="edge4" class="edge"><title>Node3&#45;&gt;Node5</title>
<path fill="none" stroke="midnightblue" d="M504.057,-290.707C523.618,-294.848 544.876,-299.348 563.702,-303.334"/>
<polygon fill="midnightblue" stroke="midnightblue" points="563.085,-306.78 573.593,-305.427 564.534,-299.932 563.085,-306.78"/>
</g>
<!-- Node6 -->
<g id="node6" class="node"><title>Node6</title>
<g id="a_node6"><a xlink:href="classYUVSource.html#afaf713d38c871df33f6e28e9d589c86c" target="_top" xlink:title="YUVSource::getNumberFrames">
<polygon fill="white" stroke="black" points="735,-305.434 735,-324.434 890,-324.434 890,-305.434 735,-305.434"/>
<text text-anchor="middle" x="812.5" y="-312.434" font-family="Helvetica,sans-Serif" font-size="10.00">YUVSource::getNumberFrames</text>
</a>
</g>
</g>
<!-- Node5&#45;&gt;Node6 -->
<g id="edge5" class="edge"><title>Node5&#45;&gt;Node6</title>
<path fill="none" stroke="midnightblue" d="M685.164,-314.934C697.841,-314.934 711.331,-314.934 724.597,-314.934"/>
<polygon fill="midnightblue" stroke="midnightblue" points="724.682,-318.434 734.682,-314.934 724.682,-311.434 724.682,-318.434"/>
</g>
<!-- Node7&#45;&gt;Node4 -->
<g id="edge8" class="edge"><title>Node7&#45;&gt;Node4</title>
<path fill="none" stroke="midnightblue" d="M450.066,-191.513C467.893,-206.512 504.569,-235.613 540,-252.934 549.026,-257.347 559.034,-261.149 568.799,-264.343"/>
<polygon fill="midnightblue" stroke="midnightblue" points="567.849,-267.713 578.437,-267.334 569.924,-261.027 567.849,-267.713"/>
</g>
<!-- Node7&#45;&gt;Node5 -->
<g id="edge7" class="edge"><title>Node7&#45;&gt;Node5</title>
<path fill="none" stroke="midnightblue" d="M447.968,-191.459C460.634,-204.971 484.404,-230.554 504,-252.934 520.419,-271.686 518.825,-282.787 540,-295.934 543.388,-298.038 546.991,-299.908 550.721,-301.572"/>
<polygon fill="midnightblue" stroke="midnightblue" points="549.614,-304.897 560.202,-305.294 552.173,-298.381 549.614,-304.897"/>
</g>
<!-- Node8 -->
<g id="node8" class="node"><title>Node8</title>
<g id="a_node8"><a xlink:href="classYUVSource.html#a592ce352c789f4f5789b11e052b58a33" target="_top" xlink:title="YUVSource::pixelFormat">
<polygon fill="white" stroke="black" points="934,-200.434 934,-219.434 1059,-219.434 1059,-200.434 934,-200.434"/>
<text text-anchor="middle" x="996.5" y="-207.434" font-family="Helvetica,sans-Serif" font-size="10.00">YUVSource::pixelFormat</text>
</a>
</g>
</g>
<!-- Node7&#45;&gt;Node8 -->
<g id="edge9" class="edge"><title>Node7&#45;&gt;Node8</title>
<path fill="none" stroke="midnightblue" d="M458.143,-191.519C478.027,-200.898 510.324,-214.536 540,-219.934 673.757,-244.264 833.231,-231.417 923.597,-220.346"/>
<polygon fill="midnightblue" stroke="midnightblue" points="924.244,-223.792 933.732,-219.076 923.374,-216.847 924.244,-223.792"/>
</g>
<!-- Node9 -->
<g id="node9" class="node"><title>Node9</title>
<g id="a_node9"><a xlink:href="classYUVSource.html#aff9d7390aa2cdb93376c69ede52b1e30" target="_top" xlink:title="YUVSource::getOneFrame">
<polygon fill="white" stroke="black" points="552.5,-115.434 552.5,-134.434 686.5,-134.434 686.5,-115.434 552.5,-115.434"/>
<text text-anchor="middle" x="619.5" y="-122.434" font-family="Helvetica,sans-Serif" font-size="10.00">YUVSource::getOneFrame</text>
</a>
</g>
</g>
<!-- Node7&#45;&gt;Node9 -->
<g id="edge10" class="edge"><title>Node7&#45;&gt;Node9</title>
<path fill="none" stroke="midnightblue" d="M461.988,-172.364C482.28,-164.139 512.784,-152.313 540,-143.934 548.091,-141.443 556.732,-139.071 565.213,-136.899"/>
<polygon fill="midnightblue" stroke="midnightblue" points="566.197,-140.261 575.054,-134.446 564.504,-133.468 566.197,-140.261"/>
</g>
<!-- Node10 -->
<g id="node10" class="node"><title>Node10</title>
<g id="a_node10"><a xlink:href="classFrameObject.html#a3157b2afa82e71a5ebd93ac6dd25de6b" target="_top" xlink:title="FrameObject::doApplyYUVMath">
<polygon fill="white" stroke="black" points="541,-77.4343 541,-96.4343 698,-96.4343 698,-77.4343 541,-77.4343"/>
<text text-anchor="middle" x="619.5" y="-84.4343" font-family="Helvetica,sans-Serif" font-size="10.00">FrameObject::doApplyYUVMath</text>
</a>
</g>
</g>
<!-- Node7&#45;&gt;Node10 -->
<g id="edge11" class="edge"><title>Node7&#45;&gt;Node10</title>
<path fill="none" stroke="midnightblue" d="M448.697,-172.426C465.712,-156.282 502.696,-123.554 540,-105.934 545.198,-103.479 550.745,-101.323 556.395,-99.4328"/>
<polygon fill="midnightblue" stroke="midnightblue" points="557.426,-102.778 565.959,-96.4978 555.372,-96.0858 557.426,-102.778"/>
</g>
<!-- Node11 -->
<g id="node11" class="node"><title>Node11</title>
<g id="a_node11"><a xlink:href="classFrameObject.html#a38084be9c862db6fea97d202231144ec" target="_top" xlink:title="FrameObject::applyYUVMath">
<polygon fill="white" stroke="black" points="547,-191.434 547,-210.434 692,-210.434 692,-191.434 547,-191.434"/>
<text text-anchor="middle" x="619.5" y="-198.434" font-family="Helvetica,sans-Serif" font-size="10.00">FrameObject::applyYUVMath</text>
</a>
</g>
</g>
<!-- Node7&#45;&gt;Node11 -->
<g id="edge12" class="edge"><title>Node7&#45;&gt;Node11</title>
<path fill="none" stroke="midnightblue" d="M500.021,-188.393C511.773,-189.637 524.259,-190.959 536.548,-192.26"/>
<polygon fill="midnightblue" stroke="midnightblue" points="536.492,-195.773 546.805,-193.345 537.229,-188.812 536.492,-195.773"/>
</g>
<!-- Node13 -->
<g id="node13" class="node"><title>Node13</title>
<g id="a_node13"><a xlink:href="classYUVSource.html#a7e554f2c626688704099e00cc4ece029" target="_top" xlink:title="YUVSource::pixelFormatList">
<polygon fill="white" stroke="black" points="926,-96.4343 926,-115.434 1067,-115.434 1067,-96.4343 926,-96.4343"/>
<text text-anchor="middle" x="996.5" y="-103.434" font-family="Helvetica,sans-Serif" font-size="10.00">YUVSource::pixelFormatList</text>
</a>
</g>
</g>
<!-- Node7&#45;&gt;Node13 -->
<g id="edge18" class="edge"><title>Node7&#45;&gt;Node13</title>
<path fill="none" stroke="midnightblue" d="M441.804,-172.424C450.674,-144.299 481.082,-61.5238 540,-29.9343 688.092,49.4667 899.01,-52.087 970.618,-91.5178"/>
<polygon fill="midnightblue" stroke="midnightblue" points="968.966,-94.6042 979.403,-96.4312 972.384,-88.4949 968.966,-94.6042"/>
</g>
<!-- Node14 -->
<g id="node14" class="node"><title>Node14</title>
<g id="a_node14"><a xlink:href="classFrameObject.html#acd2367ffa54180853cd3ee901aa85304" target="_top" xlink:title="FrameObject::convertYUV2RGB">
<polygon fill="white" stroke="black" points="540,-153.434 540,-172.434 699,-172.434 699,-153.434 540,-153.434"/>
<text text-anchor="middle" x="619.5" y="-160.434" font-family="Helvetica,sans-Serif" font-size="10.00">FrameObject::convertYUV2RGB</text>
</a>
</g>
</g>
<!-- Node7&#45;&gt;Node14 -->
<g id="edge16" class="edge"><title>Node7&#45;&gt;Node14</title>
<path fill="none" stroke="midnightblue" d="M500.021,-175.475C509.626,-174.459 519.721,-173.39 529.798,-172.323"/>
<polygon fill="midnightblue" stroke="midnightblue" points="530.275,-175.793 539.851,-171.259 529.538,-168.831 530.275,-175.793"/>
</g>
<!-- Node15 -->
<g id="node15" class="node"><title>Node15</title>
<g id="a_node15"><a xlink:href="classDisplayObject.html#a790f4bdf4ecb24617ea7db5837c3048c" target="_top" xlink:title="DisplayObject::setInfo">
<polygon fill="white" stroke="black" points="562.5,-39.4343 562.5,-58.4343 676.5,-58.4343 676.5,-39.4343 562.5,-39.4343"/>
<text text-anchor="middle" x="619.5" y="-46.4343" font-family="Helvetica,sans-Serif" font-size="10.00">DisplayObject::setInfo</text>
</a>
</g>
</g>
<!-- Node7&#45;&gt;Node15 -->
<g id="edge19" class="edge"><title>Node7&#45;&gt;Node15</title>
<path fill="none" stroke="midnightblue" d="M444.676,-172.204C458.168,-149.985 494.459,-95.3341 540,-67.9343 544.066,-65.4878 548.429,-63.3561 552.94,-61.4988"/>
<polygon fill="midnightblue" stroke="midnightblue" points="554.165,-64.7774 562.357,-58.0585 551.763,-58.2024 554.165,-64.7774"/>
</g>
<!-- Node12 -->
<g id="node12" class="node"><title>Node12</title>
<g id="a_node12"><a xlink:href="classYUVSource.html#a11ea64b650d6086177fa0f7a1f3f323d" target="_top" xlink:title="YUVSource::bitsPerSample">
<polygon fill="white" stroke="black" points="743.5,-172.434 743.5,-191.434 881.5,-191.434 881.5,-172.434 743.5,-172.434"/>
<text text-anchor="middle" x="812.5" y="-179.434" font-family="Helvetica,sans-Serif" font-size="10.00">YUVSource::bitsPerSample</text>
</a>
</g>
</g>
<!-- Node11&#45;&gt;Node12 -->
<g id="edge13" class="edge"><title>Node11&#45;&gt;Node12</title>
<path fill="none" stroke="midnightblue" d="M692.165,-193.805C705.492,-192.48 719.482,-191.088 733.001,-189.743"/>
<polygon fill="midnightblue" stroke="midnightblue" points="733.625,-193.198 743.229,-188.726 732.932,-186.233 733.625,-193.198"/>
</g>
<!-- Node12&#45;&gt;Node8 -->
<g id="edge15" class="edge"><title>Node12&#45;&gt;Node8</title>
<path fill="none" stroke="midnightblue" d="M875.371,-191.453C890.841,-193.833 907.566,-196.406 923.48,-198.854"/>
<polygon fill="midnightblue" stroke="midnightblue" points="923.384,-202.381 933.8,-200.442 924.449,-195.462 923.384,-202.381"/>
</g>
<!-- Node12&#45;&gt;Node13 -->
<g id="edge14" class="edge"><title>Node12&#45;&gt;Node13</title>
<path fill="none" stroke="midnightblue" d="M836.55,-172.309C868.55,-158.946 926.595,-134.708 962.986,-119.511"/>
<polygon fill="midnightblue" stroke="midnightblue" points="964.758,-122.565 972.637,-115.482 962.06,-116.105 964.758,-122.565"/>
</g>
<!-- Node14&#45;&gt;Node12 -->
<g id="edge17" class="edge"><title>Node14&#45;&gt;Node12</title>
<path fill="none" stroke="midnightblue" d="M699.014,-170.745C710.279,-171.865 721.87,-173.018 733.132,-174.139"/>
<polygon fill="midnightblue" stroke="midnightblue" points="733.066,-177.649 743.364,-175.156 733.759,-170.684 733.066,-177.649"/>
</g>
</g>
</svg>
