<?xml version="1.0" encoding="UTF-8" standalone="no"?>
<!DOCTYPE svg PUBLIC "-//W3C//DTD SVG 1.1//EN"
 "http://www.w3.org/Graphics/SVG/1.1/DTD/svg11.dtd">
<!-- Generated by graphviz version 2.38.0 (20140413.2041)
 -->
<!-- Title: /home/ient/YUViewOrig/YUView/source/de265File.h Pages: 1 -->
<svg width="620pt" height="207pt"
 viewBox="0.00 0.00 620.44 207.00" xmlns="http://www.w3.org/2000/svg" xmlns:xlink="http://www.w3.org/1999/xlink">
<g id="graph0" class="graph" transform="scale(1 1) rotate(0) translate(4 203)">
<title>/home/ient/YUViewOrig/YUView/source/de265File.h</title>
<polygon fill="white" stroke="none" points="-4,4 -4,-203 616.436,-203 616.436,4 -4,4"/>
<!-- Node1 -->
<g id="node1" class="node"><title>Node1</title>
<polygon fill="#bfbfbf" stroke="black" points="309.436,-168.5 309.436,-198.5 450.436,-198.5 450.436,-168.5 309.436,-168.5"/>
<text text-anchor="start" x="317.436" y="-186.5" font-family="Helvetica,sans-Serif" font-size="10.00">/home/ient/YUViewOrig</text>
<text text-anchor="middle" x="379.936" y="-175.5" font-family="Helvetica,sans-Serif" font-size="10.00">/YUView/source/de265File.h</text>
</g>
<!-- Node2 -->
<g id="node2" class="node"><title>Node2</title>
<g id="a_node2"><a xlink:href="yuvsource_8h.html" target="_top" xlink:title="yuvsource.h">
<polygon fill="white" stroke="black" points="4.93633,-112.5 4.93633,-131.5 74.9363,-131.5 74.9363,-112.5 4.93633,-112.5"/>
<text text-anchor="middle" x="39.9363" y="-119.5" font-family="Helvetica,sans-Serif" font-size="10.00">yuvsource.h</text>
</a>
</g>
</g>
<!-- Node1&#45;&gt;Node2 -->
<g id="edge1" class="edge"><title>Node1&#45;&gt;Node2</title>
<path fill="none" stroke="midnightblue" d="M309.075,-170.099C241.835,-158.332 142.789,-140.999 85.4803,-130.97"/>
<polygon fill="midnightblue" stroke="midnightblue" points="85.7359,-127.462 75.2823,-129.186 84.5292,-134.357 85.7359,-127.462"/>
</g>
<!-- Node5 -->
<g id="node5" class="node"><title>Node5</title>
<g id="a_node5"><a xlink:href="statisticSource_8h.html" target="_top" xlink:title="statisticSource.h">
<polygon fill="white" stroke="black" points="106.936,-112.5 106.936,-131.5 196.936,-131.5 196.936,-112.5 106.936,-112.5"/>
<text text-anchor="middle" x="151.936" y="-119.5" font-family="Helvetica,sans-Serif" font-size="10.00">statisticSource.h</text>
</a>
</g>
</g>
<!-- Node1&#45;&gt;Node5 -->
<g id="edge4" class="edge"><title>Node1&#45;&gt;Node5</title>
<path fill="none" stroke="midnightblue" d="M326.192,-168.475C285.999,-157.986 231.781,-143.837 194.555,-134.122"/>
<polygon fill="midnightblue" stroke="midnightblue" points="195.092,-130.645 184.532,-131.506 193.324,-137.418 195.092,-130.645"/>
</g>
<!-- Node11 -->
<g id="node11" class="node"><title>Node11</title>
<g id="a_node11"><a xlink:href="de265_8h.html" target="_top" xlink:title="de265.h">
<polygon fill="white" stroke="black" points="290.436,-112.5 290.436,-131.5 341.436,-131.5 341.436,-112.5 290.436,-112.5"/>
<text text-anchor="middle" x="315.936" y="-119.5" font-family="Helvetica,sans-Serif" font-size="10.00">de265.h</text>
</a>
</g>
</g>
<!-- Node1&#45;&gt;Node11 -->
<g id="edge13" class="edge"><title>Node1&#45;&gt;Node11</title>
<path fill="none" stroke="midnightblue" d="M364.769,-168.399C355.182,-159.486 342.776,-147.952 332.868,-138.741"/>
<polygon fill="midnightblue" stroke="midnightblue" points="334.956,-135.903 325.249,-131.658 330.19,-141.03 334.956,-135.903"/>
</g>
<!-- Node14 -->
<g id="node14" class="node"><title>Node14</title>
<polygon fill="white" stroke="#bfbfbf" points="359.936,-112.5 359.936,-131.5 399.936,-131.5 399.936,-112.5 359.936,-112.5"/>
<text text-anchor="middle" x="379.936" y="-119.5" font-family="Helvetica,sans-Serif" font-size="10.00">QFile</text>
</g>
<!-- Node1&#45;&gt;Node14 -->
<g id="edge16" class="edge"><title>Node1&#45;&gt;Node14</title>
<path fill="none" stroke="midnightblue" d="M379.936,-168.399C379.936,-160.466 379.936,-150.458 379.936,-141.858"/>
<polygon fill="midnightblue" stroke="midnightblue" points="383.436,-141.658 379.936,-131.658 376.436,-141.658 383.436,-141.658"/>
</g>
<!-- Node15 -->
<g id="node15" class="node"><title>Node15</title>
<polygon fill="white" stroke="#bfbfbf" points="417.936,-112.5 417.936,-131.5 469.936,-131.5 469.936,-112.5 417.936,-112.5"/>
<text text-anchor="middle" x="443.936" y="-119.5" font-family="Helvetica,sans-Serif" font-size="10.00">QFuture</text>
</g>
<!-- Node1&#45;&gt;Node15 -->
<g id="edge17" class="edge"><title>Node1&#45;&gt;Node15</title>
<path fill="none" stroke="midnightblue" d="M395.103,-168.399C404.691,-159.486 417.097,-147.952 427.005,-138.741"/>
<polygon fill="midnightblue" stroke="midnightblue" points="429.683,-141.03 434.624,-131.658 424.917,-135.903 429.683,-141.03"/>
</g>
<!-- Node16 -->
<g id="node16" class="node"><title>Node16</title>
<polygon fill="white" stroke="#bfbfbf" points="488.436,-112.5 488.436,-131.5 541.436,-131.5 541.436,-112.5 488.436,-112.5"/>
<text text-anchor="middle" x="514.936" y="-119.5" font-family="Helvetica,sans-Serif" font-size="10.00">QQueue</text>
</g>
<!-- Node1&#45;&gt;Node16 -->
<g id="edge18" class="edge"><title>Node1&#45;&gt;Node16</title>
<path fill="none" stroke="midnightblue" d="M411.929,-168.399C434.378,-158.505 464.151,-145.383 485.913,-135.792"/>
<polygon fill="midnightblue" stroke="midnightblue" points="487.554,-138.894 495.293,-131.658 484.73,-132.488 487.554,-138.894"/>
</g>
<!-- Node17 -->
<g id="node17" class="node"><title>Node17</title>
<polygon fill="white" stroke="#bfbfbf" points="559.436,-112.5 559.436,-131.5 612.436,-131.5 612.436,-112.5 559.436,-112.5"/>
<text text-anchor="middle" x="585.936" y="-119.5" font-family="Helvetica,sans-Serif" font-size="10.00">QLibrary</text>
</g>
<!-- Node1&#45;&gt;Node17 -->
<g id="edge19" class="edge"><title>Node1&#45;&gt;Node17</title>
<path fill="none" stroke="midnightblue" d="M428.495,-168.475C465.577,-157.764 515.872,-143.237 549.542,-133.512"/>
<polygon fill="midnightblue" stroke="midnightblue" points="550.788,-136.795 559.424,-130.658 548.845,-130.07 550.788,-136.795"/>
</g>
<!-- Node3 -->
<g id="node3" class="node"><title>Node3</title>
<polygon fill="white" stroke="#bfbfbf" points="13.4363,-56.5 13.4363,-75.5 66.4363,-75.5 66.4363,-56.5 13.4363,-56.5"/>
<text text-anchor="middle" x="39.9363" y="-63.5" font-family="Helvetica,sans-Serif" font-size="10.00">QObject</text>
</g>
<!-- Node2&#45;&gt;Node3 -->
<g id="edge2" class="edge"><title>Node2&#45;&gt;Node3</title>
<path fill="none" stroke="midnightblue" d="M39.9363,-112.083C39.9363,-105.006 39.9363,-94.8611 39.9363,-85.9865"/>
<polygon fill="midnightblue" stroke="midnightblue" points="43.4364,-85.751 39.9363,-75.7511 36.4364,-85.7511 43.4364,-85.751"/>
</g>
<!-- Node4 -->
<g id="node4" class="node"><title>Node4</title>
<g id="a_node4"><a xlink:href="typedef_8h.html" target="_top" xlink:title="typedef.h">
<polygon fill="white" stroke="black" points="66.4363,-0.5 66.4363,-19.5 123.436,-19.5 123.436,-0.5 66.4363,-0.5"/>
<text text-anchor="middle" x="94.9363" y="-7.5" font-family="Helvetica,sans-Serif" font-size="10.00">typedef.h</text>
</a>
</g>
</g>
<!-- Node2&#45;&gt;Node4 -->
<g id="edge3" class="edge"><title>Node2&#45;&gt;Node4</title>
<path fill="none" stroke="midnightblue" d="M29.0625,-112.431C14.4602,-99.8467 -8.31453,-75.725 3.93633,-56 15.4183,-37.513 36.9945,-26.3908 56.2563,-19.8297"/>
<polygon fill="midnightblue" stroke="midnightblue" points="57.5331,-23.0984 66.0522,-16.7996 55.4645,-16.411 57.5331,-23.0984"/>
</g>
<!-- Node5&#45;&gt;Node3 -->
<g id="edge5" class="edge"><title>Node5&#45;&gt;Node3</title>
<path fill="none" stroke="midnightblue" d="M133.942,-112.324C115.899,-103.625 87.8894,-90.1202 67.1336,-80.113"/>
<polygon fill="midnightblue" stroke="midnightblue" points="68.4142,-76.8449 57.8864,-75.6545 65.374,-83.1502 68.4142,-76.8449"/>
</g>
<!-- Node5&#45;&gt;Node4 -->
<g id="edge7" class="edge"><title>Node5&#45;&gt;Node4</title>
<path fill="none" stroke="midnightblue" d="M142.526,-112.198C133.943,-103.689 121.483,-90.0534 113.936,-76 106.114,-61.4342 101.153,-43.2572 98.269,-29.8316"/>
<polygon fill="midnightblue" stroke="midnightblue" points="101.672,-28.9978 96.3184,-19.8552 94.8024,-30.341 101.672,-28.9978"/>
</g>
<!-- Node6 -->
<g id="node6" class="node"><title>Node6</title>
<polygon fill="white" stroke="#bfbfbf" points="123.436,-56.5 123.436,-75.5 180.436,-75.5 180.436,-56.5 123.436,-56.5"/>
<text text-anchor="middle" x="151.936" y="-63.5" font-family="Helvetica,sans-Serif" font-size="10.00">QPixmap</text>
</g>
<!-- Node5&#45;&gt;Node6 -->
<g id="edge6" class="edge"><title>Node5&#45;&gt;Node6</title>
<path fill="none" stroke="midnightblue" d="M151.936,-112.083C151.936,-105.006 151.936,-94.8611 151.936,-85.9865"/>
<polygon fill="midnightblue" stroke="midnightblue" points="155.436,-85.751 151.936,-75.7511 148.436,-85.7511 155.436,-85.751"/>
</g>
<!-- Node7 -->
<g id="node7" class="node"><title>Node7</title>
<g id="a_node7"><a xlink:href="statisticsextensions_8h.html" target="_top" xlink:title="statisticsextensions.h">
<polygon fill="white" stroke="black" points="198.936,-56.5 198.936,-75.5 310.936,-75.5 310.936,-56.5 198.936,-56.5"/>
<text text-anchor="middle" x="254.936" y="-63.5" font-family="Helvetica,sans-Serif" font-size="10.00">statisticsextensions.h</text>
</a>
</g>
</g>
<!-- Node5&#45;&gt;Node7 -->
<g id="edge8" class="edge"><title>Node5&#45;&gt;Node7</title>
<path fill="none" stroke="midnightblue" d="M168.485,-112.324C184.928,-103.703 210.371,-90.3643 229.405,-80.3855"/>
<polygon fill="midnightblue" stroke="midnightblue" points="231.197,-83.3977 238.429,-75.6545 227.947,-77.198 231.197,-83.3977"/>
</g>
<!-- Node7&#45;&gt;Node4 -->
<g id="edge11" class="edge"><title>Node7&#45;&gt;Node4</title>
<path fill="none" stroke="midnightblue" d="M229.584,-56.4435C202.667,-47.3591 159.94,-32.9388 129.849,-22.7831"/>
<polygon fill="midnightblue" stroke="midnightblue" points="130.764,-19.3981 120.17,-19.5164 128.526,-26.0305 130.764,-19.3981"/>
</g>
<!-- Node8 -->
<g id="node8" class="node"><title>Node8</title>
<polygon fill="white" stroke="#bfbfbf" points="150.436,-0.5 150.436,-19.5 215.436,-19.5 215.436,-0.5 150.436,-0.5"/>
<text text-anchor="middle" x="182.936" y="-7.5" font-family="Helvetica,sans-Serif" font-size="10.00">QStringList</text>
</g>
<!-- Node7&#45;&gt;Node8 -->
<g id="edge9" class="edge"><title>Node7&#45;&gt;Node8</title>
<path fill="none" stroke="midnightblue" d="M243.368,-56.324C232.516,-48.1849 216.056,-35.8395 203.053,-26.0874"/>
<polygon fill="midnightblue" stroke="midnightblue" points="204.815,-23.0339 194.715,-19.8339 200.615,-28.6339 204.815,-23.0339"/>
</g>
<!-- Node9 -->
<g id="node9" class="node"><title>Node9</title>
<polygon fill="white" stroke="#bfbfbf" points="233.436,-0.5 233.436,-19.5 276.436,-19.5 276.436,-0.5 233.436,-0.5"/>
<text text-anchor="middle" x="254.936" y="-7.5" font-family="Helvetica,sans-Serif" font-size="10.00">QMap</text>
</g>
<!-- Node7&#45;&gt;Node9 -->
<g id="edge10" class="edge"><title>Node7&#45;&gt;Node9</title>
<path fill="none" stroke="midnightblue" d="M254.936,-56.083C254.936,-49.0059 254.936,-38.8611 254.936,-29.9865"/>
<polygon fill="midnightblue" stroke="midnightblue" points="258.436,-29.751 254.936,-19.7511 251.436,-29.7511 258.436,-29.751"/>
</g>
<!-- Node10 -->
<g id="node10" class="node"><title>Node10</title>
<polygon fill="white" stroke="#bfbfbf" points="294.936,-0.5 294.936,-19.5 338.936,-19.5 338.936,-0.5 294.936,-0.5"/>
<text text-anchor="middle" x="316.936" y="-7.5" font-family="Helvetica,sans-Serif" font-size="10.00">cmath</text>
</g>
<!-- Node7&#45;&gt;Node10 -->
<g id="edge12" class="edge"><title>Node7&#45;&gt;Node10</title>
<path fill="none" stroke="midnightblue" d="M264.898,-56.324C274.063,-48.3414 287.874,-36.3128 298.964,-26.6529"/>
<polygon fill="midnightblue" stroke="midnightblue" points="301.552,-29.041 306.794,-19.8339 296.954,-23.7624 301.552,-29.041"/>
</g>
<!-- Node12 -->
<g id="node12" class="node"><title>Node12</title>
<g id="a_node12"><a xlink:href="de265-version_8h.html" target="_top" xlink:title="libde265/de265&#45;version.h">
<polygon fill="white" stroke="black" points="329.436,-56.5 329.436,-75.5 454.436,-75.5 454.436,-56.5 329.436,-56.5"/>
<text text-anchor="middle" x="391.936" y="-63.5" font-family="Helvetica,sans-Serif" font-size="10.00">libde265/de265&#45;version.h</text>
</a>
</g>
</g>
<!-- Node11&#45;&gt;Node12 -->
<g id="edge14" class="edge"><title>Node11&#45;&gt;Node12</title>
<path fill="none" stroke="midnightblue" d="M328.147,-112.324C339.712,-104.107 357.312,-91.6017 371.097,-81.8069"/>
<polygon fill="midnightblue" stroke="midnightblue" points="373.379,-84.4791 379.503,-75.8339 369.324,-78.7729 373.379,-84.4791"/>
</g>
<!-- Node13 -->
<g id="node13" class="node"><title>Node13</title>
<polygon fill="white" stroke="#bfbfbf" points="472.436,-56.5 472.436,-75.5 521.436,-75.5 521.436,-56.5 472.436,-56.5"/>
<text text-anchor="middle" x="496.936" y="-63.5" font-family="Helvetica,sans-Serif" font-size="10.00">stdint.h</text>
</g>
<!-- Node11&#45;&gt;Node13 -->
<g id="edge15" class="edge"><title>Node11&#45;&gt;Node13</title>
<path fill="none" stroke="midnightblue" d="M341.485,-113.378C373.148,-103.931 427.23,-87.7963 462.524,-77.2667"/>
<polygon fill="midnightblue" stroke="midnightblue" points="463.805,-80.537 472.387,-74.3242 461.804,-73.8292 463.805,-80.537"/>
</g>
</g>
</svg>
