<?xml version="1.0" encoding="UTF-8" standalone="no"?>
<!DOCTYPE svg PUBLIC "-//W3C//DTD SVG 1.1//EN"
 "http://www.w3.org/Graphics/SVG/1.1/DTD/svg11.dtd">
<!-- Generated by graphviz version 2.38.0 (20140413.2041)
 -->
<!-- Title: /home/ient/YUViewOrig/YUView/libde265/de265.h Pages: 1 -->
<svg width="200pt" height="95pt"
 viewBox="0.00 0.00 200.00 95.00" xmlns="http://www.w3.org/2000/svg" xmlns:xlink="http://www.w3.org/1999/xlink">
<g id="graph0" class="graph" transform="scale(1 1) rotate(0) translate(4 91)">
<title>/home/ient/YUViewOrig/YUView/libde265/de265.h</title>
<polygon fill="white" stroke="none" points="-4,4 -4,-91 196,-91 196,4 -4,4"/>
<!-- Node1 -->
<g id="node1" class="node"><title>Node1</title>
<polygon fill="#bfbfbf" stroke="black" points="48.5,-56.5 48.5,-86.5 180.5,-86.5 180.5,-56.5 48.5,-56.5"/>
<text text-anchor="start" x="56.5" y="-74.5" font-family="Helvetica,sans-Serif" font-size="10.00">/home/ient/YUViewOrig</text>
<text text-anchor="middle" x="114.5" y="-63.5" font-family="Helvetica,sans-Serif" font-size="10.00">/YUView/libde265/de265.h</text>
</g>
<!-- Node2 -->
<g id="node2" class="node"><title>Node2</title>
<g id="a_node2"><a xlink:href="de265-version_8h.html" target="_top" xlink:title="libde265/de265&#45;version.h">
<polygon fill="white" stroke="black" points="0,-0.5 0,-19.5 125,-19.5 125,-0.5 0,-0.5"/>
<text text-anchor="middle" x="62.5" y="-7.5" font-family="Helvetica,sans-Serif" font-size="10.00">libde265/de265&#45;version.h</text>
</a>
</g>
</g>
<!-- Node1&#45;&gt;Node2 -->
<g id="edge1" class="edge"><title>Node1&#45;&gt;Node2</title>
<path fill="none" stroke="midnightblue" d="M102.177,-56.3993C94.5426,-47.6641 84.7093,-36.4126 76.7421,-27.2962"/>
<polygon fill="midnightblue" stroke="midnightblue" points="79.2825,-24.8843 70.0665,-19.6578 74.0117,-29.4907 79.2825,-24.8843"/>
</g>
<!-- Node3 -->
<g id="node3" class="node"><title>Node3</title>
<polygon fill="white" stroke="#bfbfbf" points="143,-0.5 143,-19.5 192,-19.5 192,-0.5 143,-0.5"/>
<text text-anchor="middle" x="167.5" y="-7.5" font-family="Helvetica,sans-Serif" font-size="10.00">stdint.h</text>
</g>
<!-- Node1&#45;&gt;Node3 -->
<g id="edge2" class="edge"><title>Node1&#45;&gt;Node3</title>
<path fill="none" stroke="midnightblue" d="M127.06,-56.3993C134.841,-47.6641 144.864,-36.4126 152.984,-27.2962"/>
<polygon fill="midnightblue" stroke="midnightblue" points="155.75,-29.453 159.788,-19.6578 150.523,-24.797 155.75,-29.453"/>
</g>
</g>
</svg>
