<?xml version="1.0" encoding="UTF-8" standalone="no"?>
<!DOCTYPE svg PUBLIC "-//W3C//DTD SVG 1.1//EN"
 "http://www.w3.org/Graphics/SVG/1.1/DTD/svg11.dtd">
<!-- Generated by graphviz version 2.38.0 (20140413.2041)
 -->
<!-- Title: /home/ient/YUViewOrig/YUView/source/differenceobject.h Pages: 1 -->
<svg width="928pt" height="307pt"
 viewBox="0.00 0.00 927.50 307.00" xmlns="http://www.w3.org/2000/svg" xmlns:xlink="http://www.w3.org/1999/xlink">
<g id="graph0" class="graph" transform="scale(1 1) rotate(0) translate(4 303)">
<title>/home/ient/YUViewOrig/YUView/source/differenceobject.h</title>
<polygon fill="white" stroke="none" points="-4,4 -4,-303 923.5,-303 923.5,4 -4,4"/>
<!-- Node1 -->
<g id="node1" class="node"><title>Node1</title>
<polygon fill="#bfbfbf" stroke="black" points="217,-268.5 217,-298.5 385,-298.5 385,-268.5 217,-268.5"/>
<text text-anchor="start" x="225" y="-286.5" font-family="Helvetica,sans-Serif" font-size="10.00">/home/ient/YUViewOrig</text>
<text text-anchor="middle" x="301" y="-275.5" font-family="Helvetica,sans-Serif" font-size="10.00">/YUView/source/differenceobject.h</text>
</g>
<!-- Node2 -->
<g id="node2" class="node"><title>Node2</title>
<g id="a_node2"><a xlink:href="differenceobject_8cpp.html" target="_top" xlink:title="/home/ient/YUViewOrig\l/YUView/source/differenceobject.cpp">
<polygon fill="white" stroke="black" points="22.5,-201.5 22.5,-231.5 201.5,-231.5 201.5,-201.5 22.5,-201.5"/>
<text text-anchor="start" x="30.5" y="-219.5" font-family="Helvetica,sans-Serif" font-size="10.00">/home/ient/YUViewOrig</text>
<text text-anchor="middle" x="112" y="-208.5" font-family="Helvetica,sans-Serif" font-size="10.00">/YUView/source/differenceobject.cpp</text>
</a>
</g>
</g>
<!-- Node1&#45;&gt;Node2 -->
<g id="edge1" class="edge"><title>Node1&#45;&gt;Node2</title>
<path fill="none" stroke="midnightblue" d="M250.382,-265.092C219.872,-254.599 181.518,-241.408 152.93,-231.577"/>
<polygon fill="midnightblue" stroke="midnightblue" points="249.395,-268.453 259.99,-268.396 251.672,-261.834 249.395,-268.453"/>
</g>
<!-- Node3 -->
<g id="node3" class="node"><title>Node3</title>
<g id="a_node3"><a xlink:href="playlistitem_8h.html" target="_top" xlink:title="/home/ient/YUViewOrig\l/YUView/source/playlistitem.h">
<polygon fill="white" stroke="black" points="298.5,-201.5 298.5,-231.5 447.5,-231.5 447.5,-201.5 298.5,-201.5"/>
<text text-anchor="start" x="306.5" y="-219.5" font-family="Helvetica,sans-Serif" font-size="10.00">/home/ient/YUViewOrig</text>
<text text-anchor="middle" x="373" y="-208.5" font-family="Helvetica,sans-Serif" font-size="10.00">/YUView/source/playlistitem.h</text>
</a>
</g>
</g>
<!-- Node1&#45;&gt;Node3 -->
<g id="edge2" class="edge"><title>Node1&#45;&gt;Node3</title>
<path fill="none" stroke="midnightblue" d="M324.153,-261.598C335.025,-251.783 347.696,-240.344 357.408,-231.577"/>
<polygon fill="midnightblue" stroke="midnightblue" points="321.7,-259.097 316.623,-268.396 326.391,-264.293 321.7,-259.097"/>
</g>
<!-- Node6 -->
<g id="node6" class="node"><title>Node6</title>
<g id="a_node6"><a xlink:href="mainwindow_8cpp.html" target="_top" xlink:title="/home/ient/YUViewOrig\l/YUView/source/mainwindow.cpp">
<polygon fill="white" stroke="black" points="0,-67.5 0,-97.5 164,-97.5 164,-67.5 0,-67.5"/>
<text text-anchor="start" x="8" y="-85.5" font-family="Helvetica,sans-Serif" font-size="10.00">/home/ient/YUViewOrig</text>
<text text-anchor="middle" x="82" y="-74.5" font-family="Helvetica,sans-Serif" font-size="10.00">/YUView/source/mainwindow.cpp</text>
</a>
</g>
</g>
<!-- Node1&#45;&gt;Node6 -->
<g id="edge13" class="edge"><title>Node1&#45;&gt;Node6</title>
<path fill="none" stroke="midnightblue" d="M277.767,-261.389C232.938,-220.653 135.577,-132.184 97.6072,-97.6819"/>
<polygon fill="midnightblue" stroke="midnightblue" points="275.495,-264.054 285.25,-268.188 280.203,-258.873 275.495,-264.054"/>
</g>
<!-- Node11 -->
<g id="node11" class="node"><title>Node11</title>
<g id="a_node11"><a xlink:href="playlistitem_8cpp.html" target="_top" xlink:title="/home/ient/YUViewOrig\l/YUView/source/playlistitem.cpp">
<polygon fill="white" stroke="black" points="505.5,-134.5 505.5,-164.5 664.5,-164.5 664.5,-134.5 505.5,-134.5"/>
<text text-anchor="start" x="513.5" y="-152.5" font-family="Helvetica,sans-Serif" font-size="10.00">/home/ient/YUViewOrig</text>
<text text-anchor="middle" x="585" y="-141.5" font-family="Helvetica,sans-Serif" font-size="10.00">/YUView/source/playlistitem.cpp</text>
</a>
</g>
</g>
<!-- Node1&#45;&gt;Node11 -->
<g id="edge14" class="edge"><title>Node1&#45;&gt;Node11</title>
<path fill="none" stroke="midnightblue" d="M365.625,-265.593C394.264,-257.089 427.971,-245.667 457,-232 498.234,-212.586 542.193,-182.192 566.363,-164.524"/>
<polygon fill="midnightblue" stroke="midnightblue" points="364.344,-262.321 355.723,-268.478 366.303,-269.041 364.344,-262.321"/>
</g>
<!-- Node4 -->
<g id="node4" class="node"><title>Node4</title>
<g id="a_node4"><a xlink:href="mainwindow_8h.html" target="_top" xlink:title="/home/ient/YUViewOrig\l/YUView/source/mainwindow.h">
<polygon fill="white" stroke="black" points="296.5,-134.5 296.5,-164.5 449.5,-164.5 449.5,-134.5 296.5,-134.5"/>
<text text-anchor="start" x="304.5" y="-152.5" font-family="Helvetica,sans-Serif" font-size="10.00">/home/ient/YUViewOrig</text>
<text text-anchor="middle" x="373" y="-141.5" font-family="Helvetica,sans-Serif" font-size="10.00">/YUView/source/mainwindow.h</text>
</a>
</g>
</g>
<!-- Node3&#45;&gt;Node4 -->
<g id="edge3" class="edge"><title>Node3&#45;&gt;Node4</title>
<path fill="none" stroke="midnightblue" d="M373,-191.108C373,-182.154 373,-172.323 373,-164.577"/>
<polygon fill="midnightblue" stroke="midnightblue" points="369.5,-191.396 373,-201.396 376.5,-191.396 369.5,-191.396"/>
</g>
<!-- Node3&#45;&gt;Node6 -->
<g id="edge10" class="edge"><title>Node3&#45;&gt;Node6</title>
<path fill="none" stroke="midnightblue" d="M338.453,-196.2C322.57,-187.077 303.61,-175.83 287,-165 267.265,-152.132 265.075,-144.531 244,-134 212.113,-118.066 174.178,-105.913 143.035,-97.526"/>
<polygon fill="midnightblue" stroke="midnightblue" points="336.988,-199.394 347.408,-201.307 340.455,-193.313 336.988,-199.394"/>
</g>
<!-- Node7 -->
<g id="node7" class="node"><title>Node7</title>
<g id="a_node7"><a xlink:href="playlisttreewidget_8cpp.html" target="_top" xlink:title="/home/ient/YUViewOrig\l/YUView/source/playlisttreewidget.cpp">
<polygon fill="white" stroke="black" points="734.5,-67.5 734.5,-97.5 919.5,-97.5 919.5,-67.5 734.5,-67.5"/>
<text text-anchor="start" x="742.5" y="-85.5" font-family="Helvetica,sans-Serif" font-size="10.00">/home/ient/YUViewOrig</text>
<text text-anchor="middle" x="827" y="-74.5" font-family="Helvetica,sans-Serif" font-size="10.00">/YUView/source/playlisttreewidget.cpp</text>
</a>
</g>
</g>
<!-- Node3&#45;&gt;Node7 -->
<g id="edge12" class="edge"><title>Node3&#45;&gt;Node7</title>
<path fill="none" stroke="midnightblue" d="M408.199,-196.452C424.071,-187.454 442.839,-176.238 459,-165 476.895,-152.556 477.081,-142.849 497,-134 502.479,-131.566 638.795,-111.173 734.489,-97.0587"/>
<polygon fill="midnightblue" stroke="midnightblue" points="406.244,-193.535 399.23,-201.476 409.665,-199.642 406.244,-193.535"/>
</g>
<!-- Node3&#45;&gt;Node11 -->
<g id="edge11" class="edge"><title>Node3&#45;&gt;Node11</title>
<path fill="none" stroke="midnightblue" d="M428.628,-198.444C462.993,-187.908 506.562,-174.549 538.977,-164.611"/>
<polygon fill="midnightblue" stroke="midnightblue" points="427.275,-195.198 418.74,-201.476 429.327,-201.891 427.275,-195.198"/>
</g>
<!-- Node5 -->
<g id="node5" class="node"><title>Node5</title>
<g id="a_node5"><a xlink:href="displaysplitwidget_8cpp.html" target="_top" xlink:title="/home/ient/YUViewOrig\l/YUView/source/displaysplitwidget.cpp">
<polygon fill="white" stroke="black" points="182.5,-67.5 182.5,-97.5 369.5,-97.5 369.5,-67.5 182.5,-67.5"/>
<text text-anchor="start" x="190.5" y="-85.5" font-family="Helvetica,sans-Serif" font-size="10.00">/home/ient/YUViewOrig</text>
<text text-anchor="middle" x="276" y="-74.5" font-family="Helvetica,sans-Serif" font-size="10.00">/YUView/source/displaysplitwidget.cpp</text>
</a>
</g>
</g>
<!-- Node4&#45;&gt;Node5 -->
<g id="edge4" class="edge"><title>Node4&#45;&gt;Node5</title>
<path fill="none" stroke="midnightblue" d="M343.503,-128.734C328.493,-118.676 310.599,-106.685 297.006,-97.5765"/>
<polygon fill="midnightblue" stroke="midnightblue" points="341.697,-131.737 351.952,-134.396 345.594,-125.922 341.697,-131.737"/>
</g>
<!-- Node4&#45;&gt;Node6 -->
<g id="edge5" class="edge"><title>Node4&#45;&gt;Node6</title>
<path fill="none" stroke="midnightblue" d="M300.244,-132.249C252.459,-121.575 190.581,-107.754 144.923,-97.5549"/>
<polygon fill="midnightblue" stroke="midnightblue" points="299.693,-135.712 310.216,-134.476 301.219,-128.88 299.693,-135.712"/>
</g>
<!-- Node4&#45;&gt;Node7 -->
<g id="edge6" class="edge"><title>Node4&#45;&gt;Node7</title>
<path fill="none" stroke="midnightblue" d="M460.1,-134.583C461.409,-134.386 462.709,-134.192 464,-134 579.826,-116.786 609.033,-114.24 725,-98 728.1,-97.5659 731.253,-97.1234 734.436,-96.6756"/>
<polygon fill="midnightblue" stroke="midnightblue" points="459.298,-131.164 449.937,-136.125 460.349,-138.085 459.298,-131.164"/>
</g>
<!-- Node8 -->
<g id="node8" class="node"><title>Node8</title>
<g id="a_node8"><a xlink:href="statslistview_8cpp.html" target="_top" xlink:title="/home/ient/YUViewOrig\l/YUView/source/statslistview.cpp">
<polygon fill="white" stroke="black" points="388,-67.5 388,-97.5 552,-97.5 552,-67.5 388,-67.5"/>
<text text-anchor="start" x="396" y="-85.5" font-family="Helvetica,sans-Serif" font-size="10.00">/home/ient/YUViewOrig</text>
<text text-anchor="middle" x="470" y="-74.5" font-family="Helvetica,sans-Serif" font-size="10.00">/YUView/source/statslistview.cpp</text>
</a>
</g>
</g>
<!-- Node4&#45;&gt;Node8 -->
<g id="edge7" class="edge"><title>Node4&#45;&gt;Node8</title>
<path fill="none" stroke="midnightblue" d="M402.497,-128.734C417.507,-118.676 435.401,-106.685 448.994,-97.5765"/>
<polygon fill="midnightblue" stroke="midnightblue" points="400.406,-125.922 394.048,-134.396 404.303,-131.737 400.406,-125.922"/>
</g>
<!-- Node9 -->
<g id="node9" class="node"><title>Node9</title>
<g id="a_node9"><a xlink:href="yuviewapp_8h.html" target="_top" xlink:title="/home/ient/YUViewOrig\l/YUView/source/yuviewapp.h">
<polygon fill="white" stroke="black" points="570,-67.5 570,-97.5 716,-97.5 716,-67.5 570,-67.5"/>
<text text-anchor="start" x="578" y="-85.5" font-family="Helvetica,sans-Serif" font-size="10.00">/home/ient/YUViewOrig</text>
<text text-anchor="middle" x="643" y="-74.5" font-family="Helvetica,sans-Serif" font-size="10.00">/YUView/source/yuviewapp.h</text>
</a>
</g>
</g>
<!-- Node4&#45;&gt;Node9 -->
<g id="edge8" class="edge"><title>Node4&#45;&gt;Node9</title>
<path fill="none" stroke="midnightblue" d="M441.046,-132.119C485.226,-121.483 542.216,-107.763 584.385,-97.6109"/>
<polygon fill="midnightblue" stroke="midnightblue" points="440.157,-128.733 431.254,-134.476 441.795,-135.538 440.157,-128.733"/>
</g>
<!-- Node10 -->
<g id="node10" class="node"><title>Node10</title>
<g id="a_node10"><a xlink:href="yuviewapp_8cpp.html" target="_top" xlink:title="/home/ient/YUViewOrig\l/YUView/source/yuviewapp.cpp">
<polygon fill="white" stroke="black" points="565,-0.5 565,-30.5 721,-30.5 721,-0.5 565,-0.5"/>
<text text-anchor="start" x="573" y="-18.5" font-family="Helvetica,sans-Serif" font-size="10.00">/home/ient/YUViewOrig</text>
<text text-anchor="middle" x="643" y="-7.5" font-family="Helvetica,sans-Serif" font-size="10.00">/YUView/source/yuviewapp.cpp</text>
</a>
</g>
</g>
<!-- Node9&#45;&gt;Node10 -->
<g id="edge9" class="edge"><title>Node9&#45;&gt;Node10</title>
<path fill="none" stroke="midnightblue" d="M643,-57.1081C643,-48.1539 643,-38.3227 643,-30.5765"/>
<polygon fill="midnightblue" stroke="midnightblue" points="639.5,-57.3959 643,-67.396 646.5,-57.396 639.5,-57.3959"/>
</g>
</g>
</svg>
