<?xml version="1.0" encoding="UTF-8" standalone="no"?>
<!DOCTYPE svg PUBLIC "-//W3C//DTD SVG 1.1//EN"
 "http://www.w3.org/Graphics/SVG/1.1/DTD/svg11.dtd">
<!-- Generated by graphviz version 2.38.0 (20140413.2041)
 -->
<!-- Title: /home/ient/YUViewOrig/YUView/source/differenceobject.cpp Pages: 1 -->
<!--zoomable 375 -->
<svg id="main" version="1.1" xmlns="http://www.w3.org/2000/svg" xmlns:xlink="http://www.w3.org/1999/xlink" xml:space="preserve" onload="init(evt)">
<style type="text/css"><![CDATA[
.edge:hover path { stroke: red; }
.edge:hover polygon { stroke: red; fill: red; }
]]></style>
<script type="text/javascript"><![CDATA[
var edges = document.getElementsByTagName('g');
if (edges && edges.length) {
  for (var i=0;i<edges.length;i++) {
    if (edges[i].id.substr(0,4)=='edge') {
      edges[i].setAttribute('class','edge');
    }
  }
}
]]></script>
        <defs>
                <circle id="rim" cx="0" cy="0" r="7"/>
                <circle id="rim2" cx="0" cy="0" r="3.5"/>
                <g id="zoomPlus">
                        <use xlink:href="#rim" fill="#404040">
                                <set attributeName="fill" to="#808080" begin="zoomplus.mouseover" end="zoomplus.mouseout"/>
                        </use>
                        <path d="M-4,0h8M0,-4v8" fill="none" stroke="white" stroke-width="1.5" pointer-events="none"/>
                </g>
                <g id="zoomMin">
                        <use xlink:href="#rim" fill="#404040">
                                <set attributeName="fill" to="#808080" begin="zoomminus.mouseover" end="zoomminus.mouseout"/>
                        </use>
                        <path d="M-4,0h8" fill="none" stroke="white" stroke-width="1.5" pointer-events="none"/>
                </g>
                <g id="dirArrow">
                        <path fill="none" stroke="white" stroke-width="1.5" d="M0,-3.0v7 M-2.5,-0.5L0,-3.0L2.5,-0.5"/>
                </g>
               <g id="resetDef">
                       <use xlink:href="#rim2" fill="#404040">
                               <set attributeName="fill" to="#808080" begin="reset.mouseover" end="reset.mouseout"/>
                       </use>
               </g>
        </defs>

<script type="text/javascript">
var viewWidth = 659;
var viewHeight = 375;
var sectionId = 'dynsection-0';
</script>
<script xlink:href="svgpan.js"/>
<svg id="graph" class="graph">
<g id="viewport">
<title>/home/ient/YUViewOrig/YUView/source/differenceobject.cpp</title>
<polygon fill="white" stroke="none" points="-4,4 -4,-371 654.5,-371 654.5,4 -4,4"/>
<!-- Node1 -->
<g id="node1" class="node"><title>Node1</title>
<polygon fill="#bfbfbf" stroke="black" points="2.5,-336.5 2.5,-366.5 181.5,-366.5 181.5,-336.5 2.5,-336.5"/>
<text text-anchor="start" x="10.5" y="-354.5" font-family="Helvetica,sans-Serif" font-size="10.00">/home/ient/YUViewOrig</text>
<text text-anchor="middle" x="92" y="-343.5" font-family="Helvetica,sans-Serif" font-size="10.00">/YUView/source/differenceobject.cpp</text>
</g>
<!-- Node2 -->
<g id="node2" class="node"><title>Node2</title>
<g id="a_node2"><a xlink:href="differenceobject_8h.html" target="_top" xlink:title="differenceobject.h">
<polygon fill="white" stroke="black" points="0,-280.5 0,-299.5 94,-299.5 94,-280.5 0,-280.5"/>
<text text-anchor="middle" x="47" y="-287.5" font-family="Helvetica,sans-Serif" font-size="10.00">differenceobject.h</text>
</a>
</g>
</g>
<!-- Node1&#45;&gt;Node2 -->
<g id="edge1" class="edge"><title>Node1&#45;&gt;Node2</title>
<path fill="none" stroke="midnightblue" d="M81.3356,-336.399C74.864,-327.842 66.5662,-316.871 59.749,-307.857"/>
<polygon fill="midnightblue" stroke="midnightblue" points="62.3716,-305.522 53.5479,-299.658 56.7885,-309.745 62.3716,-305.522"/>
</g>
<!-- Node18 -->
<g id="node18" class="node"><title>Node18</title>
<polygon fill="white" stroke="#bfbfbf" points="112,-280.5 112,-299.5 164,-299.5 164,-280.5 112,-280.5"/>
<text text-anchor="middle" x="138" y="-287.5" font-family="Helvetica,sans-Serif" font-size="10.00">assert.h</text>
</g>
<!-- Node1&#45;&gt;Node18 -->
<g id="edge24" class="edge"><title>Node1&#45;&gt;Node18</title>
<path fill="none" stroke="midnightblue" d="M102.901,-336.399C109.586,-327.753 118.176,-316.642 125.185,-307.576"/>
<polygon fill="midnightblue" stroke="midnightblue" points="127.959,-309.71 131.307,-299.658 122.421,-305.428 127.959,-309.71"/>
</g>
<!-- Node3 -->
<g id="node3" class="node"><title>Node3</title>
<polygon fill="white" stroke="#bfbfbf" points="99.5,-56.5 99.5,-75.5 152.5,-75.5 152.5,-56.5 99.5,-56.5"/>
<text text-anchor="middle" x="126" y="-63.5" font-family="Helvetica,sans-Serif" font-size="10.00">QObject</text>
</g>
<!-- Node2&#45;&gt;Node3 -->
<g id="edge2" class="edge"><title>Node2&#45;&gt;Node3</title>
<path fill="none" stroke="midnightblue" d="M42.3924,-280.381C28.5151,-253.127 -9.78842,-167.35 26,-112 39.8945,-90.511 66.7665,-79.1821 89.1577,-73.2682"/>
<polygon fill="midnightblue" stroke="midnightblue" points="90.1468,-76.6308 99.0676,-70.915 88.5295,-69.8202 90.1468,-76.6308"/>
</g>
<!-- Node4 -->
<g id="node4" class="node"><title>Node4</title>
<g id="a_node4"><a xlink:href="frameobject_8h.html" target="_top" xlink:title="frameobject.h">
<polygon fill="white" stroke="black" points="75,-224.5 75,-243.5 151,-243.5 151,-224.5 75,-224.5"/>
<text text-anchor="middle" x="113" y="-231.5" font-family="Helvetica,sans-Serif" font-size="10.00">frameobject.h</text>
</a>
</g>
</g>
<!-- Node2&#45;&gt;Node4 -->
<g id="edge3" class="edge"><title>Node2&#45;&gt;Node4</title>
<path fill="none" stroke="midnightblue" d="M57.604,-280.324C67.4562,-272.263 82.3509,-260.077 94.2151,-250.369"/>
<polygon fill="midnightblue" stroke="midnightblue" points="96.6798,-252.875 102.203,-243.834 92.2471,-247.457 96.6798,-252.875"/>
</g>
<!-- Node4&#45;&gt;Node3 -->
<g id="edge4" class="edge"><title>Node4&#45;&gt;Node3</title>
<path fill="none" stroke="midnightblue" d="M86.0708,-224.356C69.2808,-217.411 49.0224,-205.825 39,-188 22.4451,-158.557 21.4392,-140.854 39,-112 50.0161,-93.8995 70.9199,-82.7583 89.4761,-76.0899"/>
<polygon fill="midnightblue" stroke="midnightblue" points="90.7671,-79.3502 99.1825,-72.9135 88.5899,-72.6973 90.7671,-79.3502"/>
</g>
<!-- Node5 -->
<g id="node5" class="node"><title>Node5</title>
<polygon fill="white" stroke="#bfbfbf" points="48,-168.5 48,-187.5 116,-187.5 116,-168.5 48,-168.5"/>
<text text-anchor="middle" x="82" y="-175.5" font-family="Helvetica,sans-Serif" font-size="10.00">QByteArray</text>
</g>
<!-- Node4&#45;&gt;Node5 -->
<g id="edge5" class="edge"><title>Node4&#45;&gt;Node5</title>
<path fill="none" stroke="midnightblue" d="M107.881,-224.083C103.592,-216.613 97.3418,-205.724 92.0577,-196.52"/>
<polygon fill="midnightblue" stroke="midnightblue" points="95.0379,-194.681 87.0238,-187.751 88.9671,-198.166 95.0379,-194.681"/>
</g>
<!-- Node6 -->
<g id="node6" class="node"><title>Node6</title>
<polygon fill="white" stroke="#bfbfbf" points="48,-112.5 48,-131.5 98,-131.5 98,-112.5 48,-112.5"/>
<text text-anchor="middle" x="73" y="-119.5" font-family="Helvetica,sans-Serif" font-size="10.00">QString</text>
</g>
<!-- Node4&#45;&gt;Node6 -->
<g id="edge6" class="edge"><title>Node4&#45;&gt;Node6</title>
<path fill="none" stroke="midnightblue" d="M117.815,-224.182C124.166,-211.289 133.587,-186.786 125,-168 119.223,-155.36 107.948,-144.911 97.3694,-137.274"/>
<polygon fill="midnightblue" stroke="midnightblue" points="99.0418,-134.182 88.7833,-131.533 95.1512,-140.001 99.0418,-134.182"/>
</g>
<!-- Node7 -->
<g id="node7" class="node"><title>Node7</title>
<g id="a_node7"><a xlink:href="yuvfile_8h.html" target="_top" xlink:title="yuvfile.h">
<polygon fill="white" stroke="black" points="172.5,-168.5 172.5,-187.5 225.5,-187.5 225.5,-168.5 172.5,-168.5"/>
<text text-anchor="middle" x="199" y="-175.5" font-family="Helvetica,sans-Serif" font-size="10.00">yuvfile.h</text>
</a>
</g>
</g>
<!-- Node4&#45;&gt;Node7 -->
<g id="edge7" class="edge"><title>Node4&#45;&gt;Node7</title>
<path fill="none" stroke="midnightblue" d="M126.817,-224.324C140.233,-215.9 160.824,-202.971 176.586,-193.074"/>
<polygon fill="midnightblue" stroke="midnightblue" points="178.609,-195.936 185.217,-187.655 174.887,-190.008 178.609,-195.936"/>
</g>
<!-- Node12 -->
<g id="node12" class="node"><title>Node12</title>
<g id="a_node12"><a xlink:href="displayobject_8h.html" target="_top" xlink:title="displayobject.h">
<polygon fill="white" stroke="black" points="412,-112.5 412,-131.5 494,-131.5 494,-112.5 412,-112.5"/>
<text text-anchor="middle" x="453" y="-119.5" font-family="Helvetica,sans-Serif" font-size="10.00">displayobject.h</text>
</a>
</g>
</g>
<!-- Node4&#45;&gt;Node12 -->
<g id="edge16" class="edge"><title>Node4&#45;&gt;Node12</title>
<path fill="none" stroke="midnightblue" d="M139.396,-224.46C199.773,-204.926 348.025,-156.963 416.831,-134.702"/>
<polygon fill="midnightblue" stroke="midnightblue" points="417.949,-138.019 426.386,-131.61 415.794,-131.359 417.949,-138.019"/>
</g>
<!-- Node7&#45;&gt;Node3 -->
<g id="edge8" class="edge"><title>Node7&#45;&gt;Node3</title>
<path fill="none" stroke="midnightblue" d="M184.54,-168.435C172.299,-160.469 155.169,-147.514 145,-132 135.836,-118.019 130.99,-99.5167 128.493,-85.8286"/>
<polygon fill="midnightblue" stroke="midnightblue" points="131.907,-85.0071 126.904,-75.6678 124.991,-86.0884 131.907,-85.0071"/>
</g>
<!-- Node7&#45;&gt;Node6 -->
<g id="edge9" class="edge"><title>Node7&#45;&gt;Node6</title>
<path fill="none" stroke="midnightblue" d="M179.035,-168.444C158.391,-159.596 125.937,-145.687 102.368,-135.586"/>
<polygon fill="midnightblue" stroke="midnightblue" points="103.442,-132.239 92.8717,-131.516 100.684,-138.673 103.442,-132.239"/>
</g>
<!-- Node8 -->
<g id="node8" class="node"><title>Node8</title>
<polygon fill="white" stroke="#bfbfbf" points="154,-112.5 154,-131.5 194,-131.5 194,-112.5 154,-112.5"/>
<text text-anchor="middle" x="174" y="-119.5" font-family="Helvetica,sans-Serif" font-size="10.00">QFile</text>
</g>
<!-- Node7&#45;&gt;Node8 -->
<g id="edge10" class="edge"><title>Node7&#45;&gt;Node8</title>
<path fill="none" stroke="midnightblue" d="M194.872,-168.083C191.486,-160.77 186.584,-150.181 182.381,-141.103"/>
<polygon fill="midnightblue" stroke="midnightblue" points="185.429,-139.355 178.051,-131.751 179.077,-142.296 185.429,-139.355"/>
</g>
<!-- Node9 -->
<g id="node9" class="node"><title>Node9</title>
<polygon fill="white" stroke="#bfbfbf" points="212,-112.5 212,-131.5 268,-131.5 268,-112.5 212,-112.5"/>
<text text-anchor="middle" x="240" y="-119.5" font-family="Helvetica,sans-Serif" font-size="10.00">QFileInfo</text>
</g>
<!-- Node7&#45;&gt;Node9 -->
<g id="edge11" class="edge"><title>Node7&#45;&gt;Node9</title>
<path fill="none" stroke="midnightblue" d="M205.77,-168.083C211.562,-160.455 220.058,-149.264 227.138,-139.941"/>
<polygon fill="midnightblue" stroke="midnightblue" points="230.096,-141.832 233.356,-131.751 224.521,-137.599 230.096,-141.832"/>
</g>
<!-- Node10 -->
<g id="node10" class="node"><title>Node10</title>
<g id="a_node10"><a xlink:href="typedef_8h.html" target="_top" xlink:title="typedef.h">
<polygon fill="white" stroke="black" points="349.5,-56.5 349.5,-75.5 406.5,-75.5 406.5,-56.5 349.5,-56.5"/>
<text text-anchor="middle" x="378" y="-63.5" font-family="Helvetica,sans-Serif" font-size="10.00">typedef.h</text>
</a>
</g>
</g>
<!-- Node7&#45;&gt;Node10 -->
<g id="edge12" class="edge"><title>Node7&#45;&gt;Node10</title>
<path fill="none" stroke="midnightblue" d="M225.732,-177.826C262.628,-177.416 328.703,-170.826 365,-132 376.41,-119.794 379.06,-100.526 379.215,-86.1325"/>
<polygon fill="midnightblue" stroke="midnightblue" points="382.706,-85.7591 378.925,-75.8619 375.709,-85.9568 382.706,-85.7591"/>
</g>
<!-- Node11 -->
<g id="node11" class="node"><title>Node11</title>
<g id="a_node11"><a xlink:href="yuvsource_8h.html" target="_top" xlink:title="yuvsource.h">
<polygon fill="white" stroke="black" points="286,-112.5 286,-131.5 356,-131.5 356,-112.5 286,-112.5"/>
<text text-anchor="middle" x="321" y="-119.5" font-family="Helvetica,sans-Serif" font-size="10.00">yuvsource.h</text>
</a>
</g>
</g>
<!-- Node7&#45;&gt;Node11 -->
<g id="edge13" class="edge"><title>Node7&#45;&gt;Node11</title>
<path fill="none" stroke="midnightblue" d="M218.331,-168.444C238.32,-159.596 269.743,-145.687 292.564,-135.586"/>
<polygon fill="midnightblue" stroke="midnightblue" points="294.032,-138.764 301.759,-131.516 291.198,-132.363 294.032,-138.764"/>
</g>
<!-- Node11&#45;&gt;Node3 -->
<g id="edge14" class="edge"><title>Node11&#45;&gt;Node3</title>
<path fill="none" stroke="midnightblue" d="M290.102,-112.444C255.45,-102.848 199.3,-87.2984 162.51,-77.1104"/>
<polygon fill="midnightblue" stroke="midnightblue" points="163.252,-73.6842 152.68,-74.3884 161.384,-80.4303 163.252,-73.6842"/>
</g>
<!-- Node11&#45;&gt;Node10 -->
<g id="edge15" class="edge"><title>Node11&#45;&gt;Node10</title>
<path fill="none" stroke="midnightblue" d="M330.158,-112.324C338.501,-104.42 351.032,-92.5482 361.177,-82.9377"/>
<polygon fill="midnightblue" stroke="midnightblue" points="363.823,-85.2522 368.675,-75.8339 359.009,-80.1705 363.823,-85.2522"/>
</g>
<!-- Node12&#45;&gt;Node3 -->
<g id="edge17" class="edge"><title>Node12&#45;&gt;Node3</title>
<path fill="none" stroke="midnightblue" d="M411.916,-114.216C347.704,-103.612 224.547,-83.2738 162.965,-73.1042"/>
<polygon fill="midnightblue" stroke="midnightblue" points="163.355,-69.6214 152.918,-71.4452 162.214,-76.5278 163.355,-69.6214"/>
</g>
<!-- Node12&#45;&gt;Node10 -->
<g id="edge19" class="edge"><title>Node12&#45;&gt;Node10</title>
<path fill="none" stroke="midnightblue" d="M440.95,-112.324C429.537,-104.107 412.169,-91.6017 398.565,-81.8069"/>
<polygon fill="midnightblue" stroke="midnightblue" points="400.43,-78.8366 390.269,-75.8339 396.34,-84.5174 400.43,-78.8366"/>
</g>
<!-- Node13 -->
<g id="node13" class="node"><title>Node13</title>
<polygon fill="white" stroke="#bfbfbf" points="424.5,-56.5 424.5,-75.5 481.5,-75.5 481.5,-56.5 424.5,-56.5"/>
<text text-anchor="middle" x="453" y="-63.5" font-family="Helvetica,sans-Serif" font-size="10.00">QPixmap</text>
</g>
<!-- Node12&#45;&gt;Node13 -->
<g id="edge18" class="edge"><title>Node12&#45;&gt;Node13</title>
<path fill="none" stroke="midnightblue" d="M453,-112.083C453,-105.006 453,-94.8611 453,-85.9865"/>
<polygon fill="midnightblue" stroke="midnightblue" points="456.5,-85.751 453,-75.7511 449.5,-85.7511 456.5,-85.751"/>
</g>
<!-- Node14 -->
<g id="node14" class="node"><title>Node14</title>
<g id="a_node14"><a xlink:href="FileInfoGroupBox_8h.html" target="_top" xlink:title="FileInfoGroupBox.h">
<polygon fill="white" stroke="black" points="499.5,-56.5 499.5,-75.5 600.5,-75.5 600.5,-56.5 499.5,-56.5"/>
<text text-anchor="middle" x="550" y="-63.5" font-family="Helvetica,sans-Serif" font-size="10.00">FileInfoGroupBox.h</text>
</a>
</g>
</g>
<!-- Node12&#45;&gt;Node14 -->
<g id="edge20" class="edge"><title>Node12&#45;&gt;Node14</title>
<path fill="none" stroke="midnightblue" d="M468.585,-112.324C483.999,-103.743 507.812,-90.486 525.71,-80.5224"/>
<polygon fill="midnightblue" stroke="midnightblue" points="527.419,-83.5767 534.454,-75.6545 524.014,-77.4606 527.419,-83.5767"/>
</g>
<!-- Node15 -->
<g id="node15" class="node"><title>Node15</title>
<polygon fill="white" stroke="#bfbfbf" points="428,-0.5 428,-19.5 496,-19.5 496,-0.5 428,-0.5"/>
<text text-anchor="middle" x="462" y="-7.5" font-family="Helvetica,sans-Serif" font-size="10.00">QGroupBox</text>
</g>
<!-- Node14&#45;&gt;Node15 -->
<g id="edge21" class="edge"><title>Node14&#45;&gt;Node15</title>
<path fill="none" stroke="midnightblue" d="M535.861,-56.324C522.134,-47.9002 501.064,-34.9709 484.936,-25.0741"/>
<polygon fill="midnightblue" stroke="midnightblue" points="486.457,-21.9016 476.104,-19.6545 482.796,-27.8678 486.457,-21.9016"/>
</g>
<!-- Node16 -->
<g id="node16" class="node"><title>Node16</title>
<polygon fill="white" stroke="#bfbfbf" points="514.5,-0.5 514.5,-19.5 585.5,-19.5 585.5,-0.5 514.5,-0.5"/>
<text text-anchor="middle" x="550" y="-7.5" font-family="Helvetica,sans-Serif" font-size="10.00">QGridLayout</text>
</g>
<!-- Node14&#45;&gt;Node16 -->
<g id="edge22" class="edge"><title>Node14&#45;&gt;Node16</title>
<path fill="none" stroke="midnightblue" d="M550,-56.083C550,-49.0059 550,-38.8611 550,-29.9865"/>
<polygon fill="midnightblue" stroke="midnightblue" points="553.5,-29.751 550,-19.7511 546.5,-29.7511 553.5,-29.751"/>
</g>
<!-- Node17 -->
<g id="node17" class="node"><title>Node17</title>
<polygon fill="white" stroke="#bfbfbf" points="603.5,-0.5 603.5,-19.5 650.5,-19.5 650.5,-0.5 603.5,-0.5"/>
<text text-anchor="middle" x="627" y="-7.5" font-family="Helvetica,sans-Serif" font-size="10.00">QLabel</text>
</g>
<!-- Node14&#45;&gt;Node17 -->
<g id="edge23" class="edge"><title>Node14&#45;&gt;Node17</title>
<path fill="none" stroke="midnightblue" d="M562.371,-56.324C574.158,-48.0577 592.132,-35.4527 606.136,-25.6322"/>
<polygon fill="midnightblue" stroke="midnightblue" points="608.482,-28.2619 614.659,-19.6545 604.462,-22.5307 608.482,-28.2619"/>
</g>
</g>
</svg>
        <g id="navigator" transform="translate(0 0)" fill="#404254">
                <rect fill="#f2f5e9" fill-opacity="0.5" stroke="#606060" stroke-width=".5" x="0" y="0" width="60" height="60"/>
                <use id="zoomplus" xlink:href="#zoomPlus" x="17" y="9" onmousedown="handleZoom(evt,'in')"/>
                <use id="zoomminus" xlink:href="#zoomMin" x="42" y="9" onmousedown="handleZoom(evt,'out')"/>
                <use id="reset" xlink:href="#resetDef" x="30" y="36" onmousedown="handleReset()"/>
                <g id="arrowUp" xlink:href="#dirArrow" transform="translate(30 24)" onmousedown="handlePan(0,-1)">
                  <use xlink:href="#rim" fill="#404040">
                        <set attributeName="fill" to="#808080" begin="arrowUp.mouseover" end="arrowUp.mouseout"/>
                  </use>
                  <path fill="none" stroke="white" stroke-width="1.5" d="M0,-3.0v7 M-2.5,-0.5L0,-3.0L2.5,-0.5"/>
                </g>
                <g id="arrowRight" xlink:href="#dirArrow" transform="rotate(90) translate(36 -43)" onmousedown="handlePan(1,0)">
                  <use xlink:href="#rim" fill="#404040">
                        <set attributeName="fill" to="#808080" begin="arrowRight.mouseover" end="arrowRight.mouseout"/>
                  </use>
                  <path fill="none" stroke="white" stroke-width="1.5" d="M0,-3.0v7 M-2.5,-0.5L0,-3.0L2.5,-0.5"/>
                </g>
                <g id="arrowDown" xlink:href="#dirArrow" transform="rotate(180) translate(-30 -48)" onmousedown="handlePan(0,1)">
                  <use xlink:href="#rim" fill="#404040">
                        <set attributeName="fill" to="#808080" begin="arrowDown.mouseover" end="arrowDown.mouseout"/>
                  </use>
                  <path fill="none" stroke="white" stroke-width="1.5" d="M0,-3.0v7 M-2.5,-0.5L0,-3.0L2.5,-0.5"/>
                </g>
                <g id="arrowLeft" xlink:href="#dirArrow" transform="rotate(270) translate(-36 17)" onmousedown="handlePan(-1,0)">
                  <use xlink:href="#rim" fill="#404040">
                        <set attributeName="fill" to="#808080" begin="arrowLeft.mouseover" end="arrowLeft.mouseout"/>
                  </use>
                  <path fill="none" stroke="white" stroke-width="1.5" d="M0,-3.0v7 M-2.5,-0.5L0,-3.0L2.5,-0.5"/>
                </g>
        </g>
        <svg viewBox="0 0 15 15" width="100%" height="30px" preserveAspectRatio="xMaxYMin meet">
         <g id="arrow_out" transform="scale(0.3 0.3)">
          <a xlink:href="differenceobject_8cpp__incl_org.svg" target="_base">
           <rect id="button" ry="5" rx="5" y="6" x="6" height="38" width="38"
                fill="#f2f5e9" fill-opacity="0.5" stroke="#606060" stroke-width="1.0"/>
           <path id="arrow"
             d="M 11.500037,31.436501 C 11.940474,20.09759 22.043105,11.32322 32.158766,21.979434 L 37.068811,17.246167 C 37.068811,17.246167 37.088388,32 37.088388,32 L 22.160133,31.978069 C 22.160133,31.978069 26.997745,27.140456 26.997745,27.140456 C 18.528582,18.264221 13.291696,25.230495 11.500037,31.436501 z"
             style="fill:#404040;"/>
          </a>
         </g>
        </svg>
</svg>
