<?xml version="1.0" encoding="UTF-8" standalone="no"?>
<!DOCTYPE svg PUBLIC "-//W3C//DTD SVG 1.1//EN"
 "http://www.w3.org/Graphics/SVG/1.1/DTD/svg11.dtd">
<!-- Generated by graphviz version 2.38.0 (20140413.2041)
 -->
<!-- Title: /home/ient/YUViewOrig/YUView/source/displaywidget.cpp Pages: 1 -->
<!--zoomable 375 -->
<svg id="main" version="1.1" xmlns="http://www.w3.org/2000/svg" xmlns:xlink="http://www.w3.org/1999/xlink" xml:space="preserve" onload="init(evt)">
<style type="text/css"><![CDATA[
.edge:hover path { stroke: red; }
.edge:hover polygon { stroke: red; fill: red; }
]]></style>
<script type="text/javascript"><![CDATA[
var edges = document.getElementsByTagName('g');
if (edges && edges.length) {
  for (var i=0;i<edges.length;i++) {
    if (edges[i].id.substr(0,4)=='edge') {
      edges[i].setAttribute('class','edge');
    }
  }
}
]]></script>
        <defs>
                <circle id="rim" cx="0" cy="0" r="7"/>
                <circle id="rim2" cx="0" cy="0" r="3.5"/>
                <g id="zoomPlus">
                        <use xlink:href="#rim" fill="#404040">
                                <set attributeName="fill" to="#808080" begin="zoomplus.mouseover" end="zoomplus.mouseout"/>
                        </use>
                        <path d="M-4,0h8M0,-4v8" fill="none" stroke="white" stroke-width="1.5" pointer-events="none"/>
                </g>
                <g id="zoomMin">
                        <use xlink:href="#rim" fill="#404040">
                                <set attributeName="fill" to="#808080" begin="zoomminus.mouseover" end="zoomminus.mouseout"/>
                        </use>
                        <path d="M-4,0h8" fill="none" stroke="white" stroke-width="1.5" pointer-events="none"/>
                </g>
                <g id="dirArrow">
                        <path fill="none" stroke="white" stroke-width="1.5" d="M0,-3.0v7 M-2.5,-0.5L0,-3.0L2.5,-0.5"/>
                </g>
               <g id="resetDef">
                       <use xlink:href="#rim2" fill="#404040">
                               <set attributeName="fill" to="#808080" begin="reset.mouseover" end="reset.mouseout"/>
                       </use>
               </g>
        </defs>

<script type="text/javascript">
var viewWidth = 1203;
var viewHeight = 375;
var sectionId = 'dynsection-0';
</script>
<script xlink:href="svgpan.js"/>
<svg id="graph" class="graph">
<g id="viewport">
<title>/home/ient/YUViewOrig/YUView/source/displaywidget.cpp</title>
<polygon fill="white" stroke="none" points="-4,4 -4,-371 1199,-371 1199,4 -4,4"/>
<!-- Node1 -->
<g id="node1" class="node"><title>Node1</title>
<polygon fill="#bfbfbf" stroke="black" points="808,-336.5 808,-366.5 977,-366.5 977,-336.5 808,-336.5"/>
<text text-anchor="start" x="816" y="-354.5" font-family="Helvetica,sans-Serif" font-size="10.00">/home/ient/YUViewOrig</text>
<text text-anchor="middle" x="892.5" y="-343.5" font-family="Helvetica,sans-Serif" font-size="10.00">/YUView/source/displaywidget.cpp</text>
</g>
<!-- Node2 -->
<g id="node2" class="node"><title>Node2</title>
<g id="a_node2"><a xlink:href="displaywidget_8h.html" target="_top" xlink:title="displaywidget.h">
<polygon fill="white" stroke="black" points="496.5,-280.5 496.5,-299.5 580.5,-299.5 580.5,-280.5 496.5,-280.5"/>
<text text-anchor="middle" x="538.5" y="-287.5" font-family="Helvetica,sans-Serif" font-size="10.00">displaywidget.h</text>
</a>
</g>
</g>
<!-- Node1&#45;&gt;Node2 -->
<g id="edge1" class="edge"><title>Node1&#45;&gt;Node2</title>
<path fill="none" stroke="midnightblue" d="M809.055,-336.475C741.371,-325.098 648.074,-309.417 590.601,-299.757"/>
<polygon fill="midnightblue" stroke="midnightblue" points="591.092,-296.291 580.65,-298.084 589.931,-303.194 591.092,-296.291"/>
</g>
<!-- Node24 -->
<g id="node24" class="node"><title>Node24</title>
<g id="a_node24"><a xlink:href="frameobject_8h.html" target="_top" xlink:title="frameobject.h">
<polygon fill="white" stroke="black" points="767.5,-224.5 767.5,-243.5 843.5,-243.5 843.5,-224.5 767.5,-224.5"/>
<text text-anchor="middle" x="805.5" y="-231.5" font-family="Helvetica,sans-Serif" font-size="10.00">frameobject.h</text>
</a>
</g>
</g>
<!-- Node1&#45;&gt;Node24 -->
<g id="edge28" class="edge"><title>Node1&#45;&gt;Node24</title>
<path fill="none" stroke="midnightblue" d="M807.893,-345.228C777.239,-338.722 745.511,-325.655 726.5,-300 710.277,-278.108 741.869,-259.112 769.793,-247.402"/>
<polygon fill="midnightblue" stroke="midnightblue" points="771.432,-250.517 779.433,-243.571 768.847,-244.012 771.432,-250.517"/>
</g>
<!-- Node30 -->
<g id="node30" class="node"><title>Node30</title>
<polygon fill="white" stroke="#bfbfbf" points="735,-280.5 735,-299.5 790,-299.5 790,-280.5 735,-280.5"/>
<text text-anchor="middle" x="762.5" y="-287.5" font-family="Helvetica,sans-Serif" font-size="10.00">QPainter</text>
</g>
<!-- Node1&#45;&gt;Node30 -->
<g id="edge42" class="edge"><title>Node1&#45;&gt;Node30</title>
<path fill="none" stroke="midnightblue" d="M861.692,-336.399C840.172,-326.55 811.663,-313.501 790.732,-303.922"/>
<polygon fill="midnightblue" stroke="midnightblue" points="791.966,-300.637 781.416,-299.658 789.052,-307.002 791.966,-300.637"/>
</g>
<!-- Node31 -->
<g id="node31" class="node"><title>Node31</title>
<polygon fill="white" stroke="#bfbfbf" points="808,-280.5 808,-299.5 889,-299.5 889,-280.5 808,-280.5"/>
<text text-anchor="middle" x="848.5" y="-287.5" font-family="Helvetica,sans-Serif" font-size="10.00">QMessageBox</text>
</g>
<!-- Node1&#45;&gt;Node31 -->
<g id="edge43" class="edge"><title>Node1&#45;&gt;Node31</title>
<path fill="none" stroke="midnightblue" d="M882.073,-336.399C875.745,-327.842 867.631,-316.871 860.966,-307.857"/>
<polygon fill="midnightblue" stroke="midnightblue" points="863.662,-305.617 854.902,-299.658 858.034,-309.779 863.662,-305.617"/>
</g>
<!-- Node32 -->
<g id="node32" class="node"><title>Node32</title>
<polygon fill="white" stroke="#bfbfbf" points="907.5,-280.5 907.5,-299.5 967.5,-299.5 967.5,-280.5 907.5,-280.5"/>
<text text-anchor="middle" x="937.5" y="-287.5" font-family="Helvetica,sans-Serif" font-size="10.00">QSettings</text>
</g>
<!-- Node1&#45;&gt;Node32 -->
<g id="edge44" class="edge"><title>Node1&#45;&gt;Node32</title>
<path fill="none" stroke="midnightblue" d="M903.164,-336.399C909.636,-327.842 917.934,-316.871 924.751,-307.857"/>
<polygon fill="midnightblue" stroke="midnightblue" points="927.711,-309.745 930.952,-299.658 922.128,-305.522 927.711,-309.745"/>
</g>
<!-- Node33 -->
<g id="node33" class="node"><title>Node33</title>
<polygon fill="white" stroke="#bfbfbf" points="986,-280.5 986,-299.5 1023,-299.5 1023,-280.5 986,-280.5"/>
<text text-anchor="middle" x="1004.5" y="-287.5" font-family="Helvetica,sans-Serif" font-size="10.00">QUrl</text>
</g>
<!-- Node1&#45;&gt;Node33 -->
<g id="edge45" class="edge"><title>Node1&#45;&gt;Node33</title>
<path fill="none" stroke="midnightblue" d="M919.042,-336.399C937.163,-326.773 961.036,-314.09 978.943,-304.577"/>
<polygon fill="midnightblue" stroke="midnightblue" points="981.014,-307.44 988.203,-299.658 977.73,-301.258 981.014,-307.44"/>
</g>
<!-- Node34 -->
<g id="node34" class="node"><title>Node34</title>
<polygon fill="white" stroke="#bfbfbf" points="1041,-280.5 1041,-299.5 1130,-299.5 1130,-280.5 1041,-280.5"/>
<text text-anchor="middle" x="1085.5" y="-287.5" font-family="Helvetica,sans-Serif" font-size="10.00">QTextDocument</text>
</g>
<!-- Node1&#45;&gt;Node34 -->
<g id="edge46" class="edge"><title>Node1&#45;&gt;Node34</title>
<path fill="none" stroke="midnightblue" d="M938.238,-336.399C971.733,-326.073 1016.63,-312.231 1048.02,-302.556"/>
<polygon fill="midnightblue" stroke="midnightblue" points="1049.17,-305.862 1057.7,-299.571 1047.11,-299.172 1049.17,-305.862"/>
</g>
<!-- Node35 -->
<g id="node35" class="node"><title>Node35</title>
<polygon fill="white" stroke="#bfbfbf" points="1148,-280.5 1148,-299.5 1195,-299.5 1195,-280.5 1148,-280.5"/>
<text text-anchor="middle" x="1171.5" y="-287.5" font-family="Helvetica,sans-Serif" font-size="10.00">math.h</text>
</g>
<!-- Node1&#45;&gt;Node35 -->
<g id="edge47" class="edge"><title>Node1&#45;&gt;Node35</title>
<path fill="none" stroke="midnightblue" d="M968.214,-336.495C1014.77,-327.54 1075.82,-315.181 1137.83,-300.288"/>
<polygon fill="midnightblue" stroke="midnightblue" points="1138.89,-303.632 1147.78,-297.876 1137.24,-296.829 1138.89,-303.632"/>
</g>
<!-- Node3 -->
<g id="node3" class="node"><title>Node3</title>
<polygon fill="white" stroke="#bfbfbf" points="511,-224.5 511,-243.5 566,-243.5 566,-224.5 511,-224.5"/>
<text text-anchor="middle" x="538.5" y="-231.5" font-family="Helvetica,sans-Serif" font-size="10.00">QWidget</text>
</g>
<!-- Node2&#45;&gt;Node3 -->
<g id="edge2" class="edge"><title>Node2&#45;&gt;Node3</title>
<path fill="none" stroke="midnightblue" d="M538.5,-280.083C538.5,-273.006 538.5,-262.861 538.5,-253.986"/>
<polygon fill="midnightblue" stroke="midnightblue" points="542,-253.751 538.5,-243.751 535,-253.751 542,-253.751"/>
</g>
<!-- Node4 -->
<g id="node4" class="node"><title>Node4</title>
<polygon fill="white" stroke="#bfbfbf" points="584,-224.5 584,-243.5 663,-243.5 663,-224.5 584,-224.5"/>
<text text-anchor="middle" x="623.5" y="-231.5" font-family="Helvetica,sans-Serif" font-size="10.00">QMouseEvent</text>
</g>
<!-- Node2&#45;&gt;Node4 -->
<g id="edge3" class="edge"><title>Node2&#45;&gt;Node4</title>
<path fill="none" stroke="midnightblue" d="M552.157,-280.324C565.416,-271.9 585.768,-258.971 601.346,-249.074"/>
<polygon fill="midnightblue" stroke="midnightblue" points="603.313,-251.971 609.877,-243.655 599.56,-246.063 603.313,-251.971"/>
</g>
<!-- Node5 -->
<g id="node5" class="node"><title>Node5</title>
<polygon fill="white" stroke="#bfbfbf" points="681.5,-224.5 681.5,-243.5 749.5,-243.5 749.5,-224.5 681.5,-224.5"/>
<text text-anchor="middle" x="715.5" y="-231.5" font-family="Helvetica,sans-Serif" font-size="10.00">QTransform</text>
</g>
<!-- Node2&#45;&gt;Node5 -->
<g id="edge4" class="edge"><title>Node2&#45;&gt;Node5</title>
<path fill="none" stroke="midnightblue" d="M566.546,-280.444C596.582,-271.28 644.413,-256.688 677.743,-246.519"/>
<polygon fill="midnightblue" stroke="midnightblue" points="679.042,-249.782 687.585,-243.516 676.999,-243.087 679.042,-249.782"/>
</g>
<!-- Node6 -->
<g id="node6" class="node"><title>Node6</title>
<g id="a_node6"><a xlink:href="displayobject_8h.html" target="_top" xlink:title="displayobject.h">
<polygon fill="white" stroke="black" points="266.5,-168.5 266.5,-187.5 348.5,-187.5 348.5,-168.5 266.5,-168.5"/>
<text text-anchor="middle" x="307.5" y="-175.5" font-family="Helvetica,sans-Serif" font-size="10.00">displayobject.h</text>
</a>
</g>
</g>
<!-- Node2&#45;&gt;Node6 -->
<g id="edge5" class="edge"><title>Node2&#45;&gt;Node6</title>
<path fill="none" stroke="midnightblue" d="M496.379,-287.671C432.391,-284.667 315.377,-274.973 289.5,-244 278.168,-230.437 286.456,-210.272 295.168,-196.004"/>
<polygon fill="midnightblue" stroke="midnightblue" points="298.128,-197.874 300.751,-187.609 292.299,-193.997 298.128,-197.874"/>
</g>
<!-- Node14 -->
<g id="node14" class="node"><title>Node14</title>
<g id="a_node14"><a xlink:href="statisticsobject_8h.html" target="_top" xlink:title="statisticsobject.h">
<polygon fill="white" stroke="black" points="299,-224.5 299,-243.5 390,-243.5 390,-224.5 299,-224.5"/>
<text text-anchor="middle" x="344.5" y="-231.5" font-family="Helvetica,sans-Serif" font-size="10.00">statisticsobject.h</text>
</a>
</g>
</g>
<!-- Node2&#45;&gt;Node14 -->
<g id="edge13" class="edge"><title>Node2&#45;&gt;Node14</title>
<path fill="none" stroke="midnightblue" d="M507.76,-280.444C474.556,-271.201 421.509,-256.436 384.943,-246.257"/>
<polygon fill="midnightblue" stroke="midnightblue" points="385.668,-242.826 375.096,-243.516 383.791,-249.57 385.668,-242.826"/>
</g>
<!-- Node23 -->
<g id="node23" class="node"><title>Node23</title>
<polygon fill="white" stroke="#bfbfbf" points="408,-224.5 408,-243.5 493,-243.5 493,-224.5 408,-224.5"/>
<text text-anchor="middle" x="450.5" y="-231.5" font-family="Helvetica,sans-Serif" font-size="10.00">QGraphicsView</text>
</g>
<!-- Node2&#45;&gt;Node23 -->
<g id="edge27" class="edge"><title>Node2&#45;&gt;Node23</title>
<path fill="none" stroke="midnightblue" d="M524.361,-280.324C510.634,-271.9 489.564,-258.971 473.436,-249.074"/>
<polygon fill="midnightblue" stroke="midnightblue" points="474.957,-245.902 464.604,-243.655 471.296,-251.868 474.957,-245.902"/>
</g>
<!-- Node7 -->
<g id="node7" class="node"><title>Node7</title>
<polygon fill="white" stroke="#bfbfbf" points="535,-56.5 535,-75.5 588,-75.5 588,-56.5 535,-56.5"/>
<text text-anchor="middle" x="561.5" y="-63.5" font-family="Helvetica,sans-Serif" font-size="10.00">QObject</text>
</g>
<!-- Node6&#45;&gt;Node7 -->
<g id="edge6" class="edge"><title>Node6&#45;&gt;Node7</title>
<path fill="none" stroke="midnightblue" d="M335.193,-168.462C361.223,-160.139 401.07,-146.629 434.5,-132 451.984,-124.349 455.539,-120.751 472.5,-112 493.532,-101.149 517.477,-89.0566 535.229,-80.1419"/>
<polygon fill="midnightblue" stroke="midnightblue" points="537.026,-83.156 544.396,-75.5442 533.888,-76.8989 537.026,-83.156"/>
</g>
<!-- Node8 -->
<g id="node8" class="node"><title>Node8</title>
<polygon fill="white" stroke="#bfbfbf" points="241,-56.5 241,-75.5 298,-75.5 298,-56.5 241,-56.5"/>
<text text-anchor="middle" x="269.5" y="-63.5" font-family="Helvetica,sans-Serif" font-size="10.00">QPixmap</text>
</g>
<!-- Node6&#45;&gt;Node8 -->
<g id="edge7" class="edge"><title>Node6&#45;&gt;Node8</title>
<path fill="none" stroke="midnightblue" d="M304.518,-168.368C298.358,-150.537 284.111,-109.295 275.812,-85.2717"/>
<polygon fill="midnightblue" stroke="midnightblue" points="279.041,-83.9005 272.468,-75.5914 272.425,-86.1862 279.041,-83.9005"/>
</g>
<!-- Node9 -->
<g id="node9" class="node"><title>Node9</title>
<g id="a_node9"><a xlink:href="typedef_8h.html" target="_top" xlink:title="typedef.h">
<polygon fill="white" stroke="black" points="484,-0.5 484,-19.5 541,-19.5 541,-0.5 484,-0.5"/>
<text text-anchor="middle" x="512.5" y="-7.5" font-family="Helvetica,sans-Serif" font-size="10.00">typedef.h</text>
</a>
</g>
</g>
<!-- Node6&#45;&gt;Node9 -->
<g id="edge8" class="edge"><title>Node6&#45;&gt;Node9</title>
<path fill="none" stroke="midnightblue" d="M307.587,-168.15C308.207,-154.308 311.429,-127.519 326.5,-112 362.633,-74.7951 392.335,-101.493 437.5,-76 460.796,-62.8512 483.419,-41.7451 497.619,-27.1687"/>
<polygon fill="midnightblue" stroke="midnightblue" points="500.238,-29.4936 504.591,-19.8346 495.164,-24.6705 500.238,-29.4936"/>
</g>
<!-- Node10 -->
<g id="node10" class="node"><title>Node10</title>
<g id="a_node10"><a xlink:href="FileInfoGroupBox_8h.html" target="_top" xlink:title="FileInfoGroupBox.h">
<polygon fill="white" stroke="black" points="100,-112.5 100,-131.5 201,-131.5 201,-112.5 100,-112.5"/>
<text text-anchor="middle" x="150.5" y="-119.5" font-family="Helvetica,sans-Serif" font-size="10.00">FileInfoGroupBox.h</text>
</a>
</g>
</g>
<!-- Node6&#45;&gt;Node10 -->
<g id="edge9" class="edge"><title>Node6&#45;&gt;Node10</title>
<path fill="none" stroke="midnightblue" d="M282.623,-168.444C256.211,-159.359 214.285,-144.939 184.758,-134.783"/>
<polygon fill="midnightblue" stroke="midnightblue" points="185.855,-131.459 175.261,-131.516 183.579,-138.079 185.855,-131.459"/>
</g>
<!-- Node11 -->
<g id="node11" class="node"><title>Node11</title>
<polygon fill="white" stroke="#bfbfbf" points="154.5,-56.5 154.5,-75.5 222.5,-75.5 222.5,-56.5 154.5,-56.5"/>
<text text-anchor="middle" x="188.5" y="-63.5" font-family="Helvetica,sans-Serif" font-size="10.00">QGroupBox</text>
</g>
<!-- Node10&#45;&gt;Node11 -->
<g id="edge10" class="edge"><title>Node10&#45;&gt;Node11</title>
<path fill="none" stroke="midnightblue" d="M156.775,-112.083C162.142,-104.455 170.018,-93.2645 176.579,-83.9408"/>
<polygon fill="midnightblue" stroke="midnightblue" points="179.449,-85.9434 182.342,-75.7511 173.725,-81.9149 179.449,-85.9434"/>
</g>
<!-- Node12 -->
<g id="node12" class="node"><title>Node12</title>
<polygon fill="white" stroke="#bfbfbf" points="0,-56.5 0,-75.5 71,-75.5 71,-56.5 0,-56.5"/>
<text text-anchor="middle" x="35.5" y="-63.5" font-family="Helvetica,sans-Serif" font-size="10.00">QGridLayout</text>
</g>
<!-- Node10&#45;&gt;Node12 -->
<g id="edge11" class="edge"><title>Node10&#45;&gt;Node12</title>
<path fill="none" stroke="midnightblue" d="M132.278,-112.444C113.604,-103.675 84.344,-89.9355 62.8826,-79.8579"/>
<polygon fill="midnightblue" stroke="midnightblue" points="64.1763,-76.5988 53.6368,-75.5164 61.2009,-82.935 64.1763,-76.5988"/>
</g>
<!-- Node13 -->
<g id="node13" class="node"><title>Node13</title>
<polygon fill="white" stroke="#bfbfbf" points="89,-56.5 89,-75.5 136,-75.5 136,-56.5 89,-56.5"/>
<text text-anchor="middle" x="112.5" y="-63.5" font-family="Helvetica,sans-Serif" font-size="10.00">QLabel</text>
</g>
<!-- Node10&#45;&gt;Node13 -->
<g id="edge12" class="edge"><title>Node10&#45;&gt;Node13</title>
<path fill="none" stroke="midnightblue" d="M144.225,-112.083C138.858,-104.455 130.982,-93.2645 124.421,-83.9408"/>
<polygon fill="midnightblue" stroke="midnightblue" points="127.275,-81.9149 118.658,-75.7511 121.551,-85.9434 127.275,-81.9149"/>
</g>
<!-- Node14&#45;&gt;Node6 -->
<g id="edge14" class="edge"><title>Node14&#45;&gt;Node6</title>
<path fill="none" stroke="midnightblue" d="M338.39,-224.083C333.218,-216.534 325.654,-205.495 319.306,-196.23"/>
<polygon fill="midnightblue" stroke="midnightblue" points="322.036,-194.022 313.496,-187.751 316.261,-197.979 322.036,-194.022"/>
</g>
<!-- Node15 -->
<g id="node15" class="node"><title>Node15</title>
<g id="a_node15"><a xlink:href="statisticSourceFile_8h.html" target="_top" xlink:title="statisticSourceFile.h">
<polygon fill="white" stroke="black" points="396.5,-168.5 396.5,-187.5 502.5,-187.5 502.5,-168.5 396.5,-168.5"/>
<text text-anchor="middle" x="449.5" y="-175.5" font-family="Helvetica,sans-Serif" font-size="10.00">statisticSourceFile.h</text>
</a>
</g>
</g>
<!-- Node14&#45;&gt;Node15 -->
<g id="edge15" class="edge"><title>Node14&#45;&gt;Node15</title>
<path fill="none" stroke="midnightblue" d="M361.37,-224.324C378.209,-215.664 404.307,-202.242 423.738,-192.249"/>
<polygon fill="midnightblue" stroke="midnightblue" points="425.38,-195.341 432.672,-187.655 422.178,-189.116 425.38,-195.341"/>
</g>
<!-- Node16 -->
<g id="node16" class="node"><title>Node16</title>
<g id="a_node16"><a xlink:href="statisticSource_8h.html" target="_top" xlink:title="statisticSource.h">
<polygon fill="white" stroke="black" points="335.5,-112.5 335.5,-131.5 425.5,-131.5 425.5,-112.5 335.5,-112.5"/>
<text text-anchor="middle" x="380.5" y="-119.5" font-family="Helvetica,sans-Serif" font-size="10.00">statisticSource.h</text>
</a>
</g>
</g>
<!-- Node15&#45;&gt;Node16 -->
<g id="edge16" class="edge"><title>Node15&#45;&gt;Node16</title>
<path fill="none" stroke="midnightblue" d="M438.414,-168.324C428.014,-160.185 412.239,-147.839 399.778,-138.087"/>
<polygon fill="midnightblue" stroke="midnightblue" points="401.82,-135.241 391.788,-131.834 397.506,-140.753 401.82,-135.241"/>
</g>
<!-- Node21 -->
<g id="node21" class="node"><title>Node21</title>
<polygon fill="white" stroke="#bfbfbf" points="481.5,-112.5 481.5,-131.5 533.5,-131.5 533.5,-112.5 481.5,-112.5"/>
<text text-anchor="middle" x="507.5" y="-119.5" font-family="Helvetica,sans-Serif" font-size="10.00">QFuture</text>
</g>
<!-- Node15&#45;&gt;Node21 -->
<g id="edge25" class="edge"><title>Node15&#45;&gt;Node21</title>
<path fill="none" stroke="midnightblue" d="M458.819,-168.324C467.393,-160.341 480.312,-148.313 490.688,-138.653"/>
<polygon fill="midnightblue" stroke="midnightblue" points="493.078,-141.21 498.012,-131.834 488.308,-136.086 493.078,-141.21"/>
</g>
<!-- Node22 -->
<g id="node22" class="node"><title>Node22</title>
<polygon fill="white" stroke="#bfbfbf" points="589.5,-112.5 589.5,-131.5 629.5,-131.5 629.5,-112.5 589.5,-112.5"/>
<text text-anchor="middle" x="609.5" y="-119.5" font-family="Helvetica,sans-Serif" font-size="10.00">QFile</text>
</g>
<!-- Node15&#45;&gt;Node22 -->
<g id="edge26" class="edge"><title>Node15&#45;&gt;Node22</title>
<path fill="none" stroke="midnightblue" d="M474.852,-168.444C503.353,-158.825 549.578,-143.224 579.76,-133.037"/>
<polygon fill="midnightblue" stroke="midnightblue" points="580.976,-136.321 589.332,-129.807 578.738,-129.688 580.976,-136.321"/>
</g>
<!-- Node16&#45;&gt;Node7 -->
<g id="edge17" class="edge"><title>Node16&#45;&gt;Node7</title>
<path fill="none" stroke="midnightblue" d="M409.18,-112.444C440.571,-103.078 490.971,-88.0419 525.12,-77.8536"/>
<polygon fill="midnightblue" stroke="midnightblue" points="526.142,-81.2012 534.724,-74.9883 524.141,-74.4934 526.142,-81.2012"/>
</g>
<!-- Node16&#45;&gt;Node8 -->
<g id="edge18" class="edge"><title>Node16&#45;&gt;Node8</title>
<path fill="none" stroke="midnightblue" d="M362.666,-112.324C344.784,-103.625 317.025,-90.1202 296.454,-80.113"/>
<polygon fill="midnightblue" stroke="midnightblue" points="297.813,-76.8819 287.29,-75.6545 294.751,-83.1765 297.813,-76.8819"/>
</g>
<!-- Node16&#45;&gt;Node9 -->
<g id="edge19" class="edge"><title>Node16&#45;&gt;Node9</title>
<path fill="none" stroke="midnightblue" d="M405.946,-112.488C425.264,-105.092 451.631,-92.8994 470.5,-76 485.319,-62.7282 497.045,-43.0652 504.3,-28.8435"/>
<polygon fill="midnightblue" stroke="midnightblue" points="507.559,-30.1439 508.772,-19.6188 501.26,-27.0902 507.559,-30.1439"/>
</g>
<!-- Node17 -->
<g id="node17" class="node"><title>Node17</title>
<g id="a_node17"><a xlink:href="statisticsextensions_8h.html" target="_top" xlink:title="statisticsextensions.h">
<polygon fill="white" stroke="black" points="316.5,-56.5 316.5,-75.5 428.5,-75.5 428.5,-56.5 316.5,-56.5"/>
<text text-anchor="middle" x="372.5" y="-63.5" font-family="Helvetica,sans-Serif" font-size="10.00">statisticsextensions.h</text>
</a>
</g>
</g>
<!-- Node16&#45;&gt;Node17 -->
<g id="edge20" class="edge"><title>Node16&#45;&gt;Node17</title>
<path fill="none" stroke="midnightblue" d="M379.179,-112.083C378.119,-104.927 376.594,-94.6353 375.269,-85.6911"/>
<polygon fill="midnightblue" stroke="midnightblue" points="378.724,-85.1302 373.796,-75.7511 371.8,-86.1561 378.724,-85.1302"/>
</g>
<!-- Node17&#45;&gt;Node9 -->
<g id="edge23" class="edge"><title>Node17&#45;&gt;Node9</title>
<path fill="none" stroke="midnightblue" d="M394.683,-56.4435C417.928,-47.4776 454.649,-33.314 480.915,-23.1827"/>
<polygon fill="midnightblue" stroke="midnightblue" points="482.35,-26.3807 490.42,-19.5164 479.831,-19.8497 482.35,-26.3807"/>
</g>
<!-- Node18 -->
<g id="node18" class="node"><title>Node18</title>
<polygon fill="white" stroke="#bfbfbf" points="401,-0.5 401,-19.5 466,-19.5 466,-0.5 401,-0.5"/>
<text text-anchor="middle" x="433.5" y="-7.5" font-family="Helvetica,sans-Serif" font-size="10.00">QStringList</text>
</g>
<!-- Node17&#45;&gt;Node18 -->
<g id="edge21" class="edge"><title>Node17&#45;&gt;Node18</title>
<path fill="none" stroke="midnightblue" d="M382.301,-56.324C391.318,-48.3414 404.906,-36.3128 415.818,-26.6529"/>
<polygon fill="midnightblue" stroke="midnightblue" points="418.353,-29.083 423.521,-19.8339 413.713,-23.8416 418.353,-29.083"/>
</g>
<!-- Node19 -->
<g id="node19" class="node"><title>Node19</title>
<polygon fill="white" stroke="#bfbfbf" points="277,-0.5 277,-19.5 320,-19.5 320,-0.5 277,-0.5"/>
<text text-anchor="middle" x="298.5" y="-7.5" font-family="Helvetica,sans-Serif" font-size="10.00">QMap</text>
</g>
<!-- Node17&#45;&gt;Node19 -->
<g id="edge22" class="edge"><title>Node17&#45;&gt;Node19</title>
<path fill="none" stroke="midnightblue" d="M360.611,-56.324C349.35,-48.1066 332.213,-35.6017 318.791,-25.8069"/>
<polygon fill="midnightblue" stroke="midnightblue" points="320.747,-22.9014 310.606,-19.8339 316.62,-28.5559 320.747,-22.9014"/>
</g>
<!-- Node20 -->
<g id="node20" class="node"><title>Node20</title>
<polygon fill="white" stroke="#bfbfbf" points="338.5,-0.5 338.5,-19.5 382.5,-19.5 382.5,-0.5 338.5,-0.5"/>
<text text-anchor="middle" x="360.5" y="-7.5" font-family="Helvetica,sans-Serif" font-size="10.00">cmath</text>
</g>
<!-- Node17&#45;&gt;Node20 -->
<g id="edge24" class="edge"><title>Node17&#45;&gt;Node20</title>
<path fill="none" stroke="midnightblue" d="M370.518,-56.083C368.928,-48.9272 366.641,-38.6353 364.654,-29.6911"/>
<polygon fill="midnightblue" stroke="midnightblue" points="368.031,-28.7537 362.445,-19.7511 361.197,-30.2722 368.031,-28.7537"/>
</g>
<!-- Node24&#45;&gt;Node6 -->
<g id="edge41" class="edge"><title>Node24&#45;&gt;Node6</title>
<path fill="none" stroke="midnightblue" d="M767.33,-225.385C764.348,-224.884 761.378,-224.414 758.5,-224 594.527,-200.396 552.262,-205.261 387.5,-188 378.211,-187.027 368.319,-185.948 358.774,-184.886"/>
<polygon fill="midnightblue" stroke="midnightblue" points="358.924,-181.381 348.596,-183.745 358.144,-188.337 358.924,-181.381"/>
</g>
<!-- Node24&#45;&gt;Node7 -->
<g id="edge29" class="edge"><title>Node24&#45;&gt;Node7</title>
<path fill="none" stroke="midnightblue" d="M779.57,-224.446C726.509,-206.468 608.203,-163.801 580.5,-132 569.288,-119.129 564.682,-99.9503 562.796,-85.7585"/>
<polygon fill="midnightblue" stroke="midnightblue" points="566.264,-85.2663 561.791,-75.6618 559.298,-85.9592 566.264,-85.2663"/>
</g>
<!-- Node25 -->
<g id="node25" class="node"><title>Node25</title>
<polygon fill="white" stroke="#bfbfbf" points="840.5,-168.5 840.5,-187.5 908.5,-187.5 908.5,-168.5 840.5,-168.5"/>
<text text-anchor="middle" x="874.5" y="-175.5" font-family="Helvetica,sans-Serif" font-size="10.00">QByteArray</text>
</g>
<!-- Node24&#45;&gt;Node25 -->
<g id="edge30" class="edge"><title>Node24&#45;&gt;Node25</title>
<path fill="none" stroke="midnightblue" d="M816.586,-224.324C826.986,-216.185 842.761,-203.839 855.222,-194.087"/>
<polygon fill="midnightblue" stroke="midnightblue" points="857.494,-196.753 863.212,-187.834 853.18,-191.241 857.494,-196.753"/>
</g>
<!-- Node26 -->
<g id="node26" class="node"><title>Node26</title>
<polygon fill="white" stroke="#bfbfbf" points="885.5,-112.5 885.5,-131.5 935.5,-131.5 935.5,-112.5 885.5,-112.5"/>
<text text-anchor="middle" x="910.5" y="-119.5" font-family="Helvetica,sans-Serif" font-size="10.00">QString</text>
</g>
<!-- Node24&#45;&gt;Node26 -->
<g id="edge31" class="edge"><title>Node24&#45;&gt;Node26</title>
<path fill="none" stroke="midnightblue" d="M807.027,-224.468C809.804,-211.063 816.808,-184.861 831.5,-168 843.78,-153.907 861.603,-143.223 877.214,-135.81"/>
<polygon fill="midnightblue" stroke="midnightblue" points="878.883,-138.898 886.579,-131.616 876.022,-132.509 878.883,-138.898"/>
</g>
<!-- Node27 -->
<g id="node27" class="node"><title>Node27</title>
<g id="a_node27"><a xlink:href="yuvfile_8h.html" target="_top" xlink:title="yuvfile.h">
<polygon fill="white" stroke="black" points="731,-168.5 731,-187.5 784,-187.5 784,-168.5 731,-168.5"/>
<text text-anchor="middle" x="757.5" y="-175.5" font-family="Helvetica,sans-Serif" font-size="10.00">yuvfile.h</text>
</a>
</g>
</g>
<!-- Node24&#45;&gt;Node27 -->
<g id="edge32" class="edge"><title>Node24&#45;&gt;Node27</title>
<path fill="none" stroke="midnightblue" d="M797.574,-224.083C790.654,-216.298 780.435,-204.801 772.048,-195.367"/>
<polygon fill="midnightblue" stroke="midnightblue" points="774.538,-192.9 765.279,-187.751 769.306,-197.55 774.538,-192.9"/>
</g>
<!-- Node27&#45;&gt;Node7 -->
<g id="edge33" class="edge"><title>Node27&#45;&gt;Node7</title>
<path fill="none" stroke="midnightblue" d="M741.953,-168.407C725.632,-159.376 699.235,-144.74 676.5,-132 645.025,-114.362 608.804,-93.8543 585.557,-80.6654"/>
<polygon fill="midnightblue" stroke="midnightblue" points="587.158,-77.5497 576.734,-75.6574 583.703,-83.6375 587.158,-77.5497"/>
</g>
<!-- Node27&#45;&gt;Node9 -->
<g id="edge37" class="edge"><title>Node27&#45;&gt;Node9</title>
<path fill="none" stroke="midnightblue" d="M784.146,-168.565C814.259,-157.604 856.847,-136.891 838.5,-112 803.888,-65.0419 629.649,-30.567 551.057,-17.1537"/>
<polygon fill="midnightblue" stroke="midnightblue" points="551.512,-13.6813 541.07,-15.4752 550.352,-20.5845 551.512,-13.6813"/>
</g>
<!-- Node27&#45;&gt;Node22 -->
<g id="edge35" class="edge"><title>Node27&#45;&gt;Node22</title>
<path fill="none" stroke="midnightblue" d="M734.049,-168.444C708.351,-159.067 667.074,-144.007 639.149,-133.818"/>
<polygon fill="midnightblue" stroke="midnightblue" points="640.113,-130.444 629.519,-130.304 637.713,-137.02 640.113,-130.444"/>
</g>
<!-- Node27&#45;&gt;Node26 -->
<g id="edge34" class="edge"><title>Node27&#45;&gt;Node26</title>
<path fill="none" stroke="midnightblue" d="M781.743,-168.444C807.371,-159.399 847.985,-145.064 876.738,-134.916"/>
<polygon fill="midnightblue" stroke="midnightblue" points="878.105,-138.145 886.37,-131.516 875.775,-131.544 878.105,-138.145"/>
</g>
<!-- Node28 -->
<g id="node28" class="node"><title>Node28</title>
<polygon fill="white" stroke="#bfbfbf" points="773.5,-112.5 773.5,-131.5 829.5,-131.5 829.5,-112.5 773.5,-112.5"/>
<text text-anchor="middle" x="801.5" y="-119.5" font-family="Helvetica,sans-Serif" font-size="10.00">QFileInfo</text>
</g>
<!-- Node27&#45;&gt;Node28 -->
<g id="edge36" class="edge"><title>Node27&#45;&gt;Node28</title>
<path fill="none" stroke="midnightblue" d="M764.766,-168.083C771.045,-160.377 780.288,-149.033 787.931,-139.653"/>
<polygon fill="midnightblue" stroke="midnightblue" points="790.766,-141.714 794.369,-131.751 785.339,-137.293 790.766,-141.714"/>
</g>
<!-- Node29 -->
<g id="node29" class="node"><title>Node29</title>
<g id="a_node29"><a xlink:href="yuvsource_8h.html" target="_top" xlink:title="yuvsource.h">
<polygon fill="white" stroke="black" points="685.5,-112.5 685.5,-131.5 755.5,-131.5 755.5,-112.5 685.5,-112.5"/>
<text text-anchor="middle" x="720.5" y="-119.5" font-family="Helvetica,sans-Serif" font-size="10.00">yuvsource.h</text>
</a>
</g>
</g>
<!-- Node27&#45;&gt;Node29 -->
<g id="edge38" class="edge"><title>Node27&#45;&gt;Node29</title>
<path fill="none" stroke="midnightblue" d="M751.39,-168.083C746.218,-160.534 738.654,-149.495 732.306,-140.23"/>
<polygon fill="midnightblue" stroke="midnightblue" points="735.036,-138.022 726.496,-131.751 729.261,-141.979 735.036,-138.022"/>
</g>
<!-- Node29&#45;&gt;Node7 -->
<g id="edge39" class="edge"><title>Node29&#45;&gt;Node7</title>
<path fill="none" stroke="midnightblue" d="M695.306,-112.444C668.557,-103.359 626.097,-88.9388 596.195,-78.7831"/>
<polygon fill="midnightblue" stroke="midnightblue" points="597.171,-75.4182 586.576,-75.5164 594.919,-82.0464 597.171,-75.4182"/>
</g>
<!-- Node29&#45;&gt;Node9 -->
<g id="edge40" class="edge"><title>Node29&#45;&gt;Node9</title>
<path fill="none" stroke="midnightblue" d="M704.179,-112.368C668.03,-93.2515 581.006,-47.229 537.764,-24.361"/>
<polygon fill="midnightblue" stroke="midnightblue" points="539.222,-21.1725 528.746,-19.5914 535.949,-27.3604 539.222,-21.1725"/>
</g>
</g>
</svg>
        <g id="navigator" transform="translate(0 0)" fill="#404254">
                <rect fill="#f2f5e9" fill-opacity="0.5" stroke="#606060" stroke-width=".5" x="0" y="0" width="60" height="60"/>
                <use id="zoomplus" xlink:href="#zoomPlus" x="17" y="9" onmousedown="handleZoom(evt,'in')"/>
                <use id="zoomminus" xlink:href="#zoomMin" x="42" y="9" onmousedown="handleZoom(evt,'out')"/>
                <use id="reset" xlink:href="#resetDef" x="30" y="36" onmousedown="handleReset()"/>
                <g id="arrowUp" xlink:href="#dirArrow" transform="translate(30 24)" onmousedown="handlePan(0,-1)">
                  <use xlink:href="#rim" fill="#404040">
                        <set attributeName="fill" to="#808080" begin="arrowUp.mouseover" end="arrowUp.mouseout"/>
                  </use>
                  <path fill="none" stroke="white" stroke-width="1.5" d="M0,-3.0v7 M-2.5,-0.5L0,-3.0L2.5,-0.5"/>
                </g>
                <g id="arrowRight" xlink:href="#dirArrow" transform="rotate(90) translate(36 -43)" onmousedown="handlePan(1,0)">
                  <use xlink:href="#rim" fill="#404040">
                        <set attributeName="fill" to="#808080" begin="arrowRight.mouseover" end="arrowRight.mouseout"/>
                  </use>
                  <path fill="none" stroke="white" stroke-width="1.5" d="M0,-3.0v7 M-2.5,-0.5L0,-3.0L2.5,-0.5"/>
                </g>
                <g id="arrowDown" xlink:href="#dirArrow" transform="rotate(180) translate(-30 -48)" onmousedown="handlePan(0,1)">
                  <use xlink:href="#rim" fill="#404040">
                        <set attributeName="fill" to="#808080" begin="arrowDown.mouseover" end="arrowDown.mouseout"/>
                  </use>
                  <path fill="none" stroke="white" stroke-width="1.5" d="M0,-3.0v7 M-2.5,-0.5L0,-3.0L2.5,-0.5"/>
                </g>
                <g id="arrowLeft" xlink:href="#dirArrow" transform="rotate(270) translate(-36 17)" onmousedown="handlePan(-1,0)">
                  <use xlink:href="#rim" fill="#404040">
                        <set attributeName="fill" to="#808080" begin="arrowLeft.mouseover" end="arrowLeft.mouseout"/>
                  </use>
                  <path fill="none" stroke="white" stroke-width="1.5" d="M0,-3.0v7 M-2.5,-0.5L0,-3.0L2.5,-0.5"/>
                </g>
        </g>
        <svg viewBox="0 0 15 15" width="100%" height="30px" preserveAspectRatio="xMaxYMin meet">
         <g id="arrow_out" transform="scale(0.3 0.3)">
          <a xlink:href="displaywidget_8cpp__incl_org.svg" target="_base">
           <rect id="button" ry="5" rx="5" y="6" x="6" height="38" width="38"
                fill="#f2f5e9" fill-opacity="0.5" stroke="#606060" stroke-width="1.0"/>
           <path id="arrow"
             d="M 11.500037,31.436501 C 11.940474,20.09759 22.043105,11.32322 32.158766,21.979434 L 37.068811,17.246167 C 37.068811,17.246167 37.088388,32 37.088388,32 L 22.160133,31.978069 C 22.160133,31.978069 26.997745,27.140456 26.997745,27.140456 C 18.528582,18.264221 13.291696,25.230495 11.500037,31.436501 z"
             style="fill:#404040;"/>
          </a>
         </g>
        </svg>
</svg>
