<?xml version="1.0" encoding="UTF-8" standalone="no"?>
<!DOCTYPE svg PUBLIC "-//W3C//DTD SVG 1.1//EN"
 "http://www.w3.org/Graphics/SVG/1.1/DTD/svg11.dtd">
<!-- Generated by graphviz version 2.38.0 (20140413.2041)
 -->
<!-- Title: /home/ient/YUViewOrig/YUView/source/displayobject.h Pages: 1 -->
<!--zoomable 441 -->
<svg id="main" version="1.1" xmlns="http://www.w3.org/2000/svg" xmlns:xlink="http://www.w3.org/1999/xlink" xml:space="preserve" onload="init(evt)">
<style type="text/css"><![CDATA[
.edge:hover path { stroke: red; }
.edge:hover polygon { stroke: red; fill: red; }
]]></style>
<script type="text/javascript"><![CDATA[
var edges = document.getElementsByTagName('g');
if (edges && edges.length) {
  for (var i=0;i<edges.length;i++) {
    if (edges[i].id.substr(0,4)=='edge') {
      edges[i].setAttribute('class','edge');
    }
  }
}
]]></script>
        <defs>
                <circle id="rim" cx="0" cy="0" r="7"/>
                <circle id="rim2" cx="0" cy="0" r="3.5"/>
                <g id="zoomPlus">
                        <use xlink:href="#rim" fill="#404040">
                                <set attributeName="fill" to="#808080" begin="zoomplus.mouseover" end="zoomplus.mouseout"/>
                        </use>
                        <path d="M-4,0h8M0,-4v8" fill="none" stroke="white" stroke-width="1.5" pointer-events="none"/>
                </g>
                <g id="zoomMin">
                        <use xlink:href="#rim" fill="#404040">
                                <set attributeName="fill" to="#808080" begin="zoomminus.mouseover" end="zoomminus.mouseout"/>
                        </use>
                        <path d="M-4,0h8" fill="none" stroke="white" stroke-width="1.5" pointer-events="none"/>
                </g>
                <g id="dirArrow">
                        <path fill="none" stroke="white" stroke-width="1.5" d="M0,-3.0v7 M-2.5,-0.5L0,-3.0L2.5,-0.5"/>
                </g>
               <g id="resetDef">
                       <use xlink:href="#rim2" fill="#404040">
                               <set attributeName="fill" to="#808080" begin="reset.mouseover" end="reset.mouseout"/>
                       </use>
               </g>
        </defs>

<script type="text/javascript">
var viewWidth = 1721;
var viewHeight = 441;
var sectionId = 'dynsection-1';
</script>
<script xlink:href="svgpan.js"/>
<svg id="graph" class="graph">
<g id="viewport">
<title>/home/ient/YUViewOrig/YUView/source/displayobject.h</title>
<polygon fill="white" stroke="none" points="-4,4 -4,-437 1717,-437 1717,4 -4,4"/>
<!-- Node1 -->
<g id="node1" class="node"><title>Node1</title>
<polygon fill="#bfbfbf" stroke="black" points="853,-402.5 853,-432.5 1009,-432.5 1009,-402.5 853,-402.5"/>
<text text-anchor="start" x="861" y="-420.5" font-family="Helvetica,sans-Serif" font-size="10.00">/home/ient/YUViewOrig</text>
<text text-anchor="middle" x="931" y="-409.5" font-family="Helvetica,sans-Serif" font-size="10.00">/YUView/source/displayobject.h</text>
</g>
<!-- Node2 -->
<g id="node2" class="node"><title>Node2</title>
<g id="a_node2"><a xlink:href="frameobject_8h.html" target="_top" xlink:title="/home/ient/YUViewOrig\l/YUView/source/frameobject.h">
<polygon fill="white" stroke="black" points="737,-335.5 737,-365.5 887,-365.5 887,-335.5 737,-335.5"/>
<text text-anchor="start" x="745" y="-353.5" font-family="Helvetica,sans-Serif" font-size="10.00">/home/ient/YUViewOrig</text>
<text text-anchor="middle" x="812" y="-342.5" font-family="Helvetica,sans-Serif" font-size="10.00">/YUView/source/frameobject.h</text>
</a>
</g>
</g>
<!-- Node1&#45;&gt;Node2 -->
<g id="edge1" class="edge"><title>Node1&#45;&gt;Node2</title>
<path fill="none" stroke="midnightblue" d="M896.353,-397.575C877.633,-387.35 854.913,-374.94 837.771,-365.577"/>
<polygon fill="midnightblue" stroke="midnightblue" points="894.725,-400.674 905.179,-402.396 898.08,-394.531 894.725,-400.674"/>
</g>
<!-- Node5 -->
<g id="node5" class="node"><title>Node5</title>
<g id="a_node5"><a xlink:href="playlistitem_8h.html" target="_top" xlink:title="/home/ient/YUViewOrig\l/YUView/source/playlistitem.h">
<polygon fill="white" stroke="black" points="937.5,-201.5 937.5,-231.5 1086.5,-231.5 1086.5,-201.5 937.5,-201.5"/>
<text text-anchor="start" x="945.5" y="-219.5" font-family="Helvetica,sans-Serif" font-size="10.00">/home/ient/YUViewOrig</text>
<text text-anchor="middle" x="1012" y="-208.5" font-family="Helvetica,sans-Serif" font-size="10.00">/YUView/source/playlistitem.h</text>
</a>
</g>
</g>
<!-- Node1&#45;&gt;Node5 -->
<g id="edge45" class="edge"><title>Node1&#45;&gt;Node5</title>
<path fill="none" stroke="midnightblue" d="M952.979,-394.834C973.543,-372.885 1002.86,-336.854 1015,-299 1022.26,-276.349 1018.7,-248.329 1015.39,-231.741"/>
<polygon fill="midnightblue" stroke="midnightblue" points="950.249,-392.623 945.846,-402.26 955.297,-397.472 950.249,-392.623"/>
</g>
<!-- Node17 -->
<g id="node17" class="node"><title>Node17</title>
<g id="a_node17"><a xlink:href="displayobject_8cpp.html" target="_top" xlink:title="/home/ient/YUViewOrig\l/YUView/source/displayobject.cpp">
<polygon fill="white" stroke="black" points="1116.5,-335.5 1116.5,-365.5 1283.5,-365.5 1283.5,-335.5 1116.5,-335.5"/>
<text text-anchor="start" x="1124.5" y="-353.5" font-family="Helvetica,sans-Serif" font-size="10.00">/home/ient/YUViewOrig</text>
<text text-anchor="middle" x="1200" y="-342.5" font-family="Helvetica,sans-Serif" font-size="10.00">/YUView/source/displayobject.cpp</text>
</a>
</g>
</g>
<!-- Node1&#45;&gt;Node17 -->
<g id="edge23" class="edge"><title>Node1&#45;&gt;Node17</title>
<path fill="none" stroke="midnightblue" d="M998.794,-400.119C1042.81,-389.483 1099.59,-375.763 1141.6,-365.611"/>
<polygon fill="midnightblue" stroke="midnightblue" points="997.936,-396.725 989.038,-402.476 999.58,-403.529 997.936,-396.725"/>
</g>
<!-- Node18 -->
<g id="node18" class="node"><title>Node18</title>
<g id="a_node18"><a xlink:href="displaywidget_8h.html" target="_top" xlink:title="/home/ient/YUViewOrig\l/YUView/source/displaywidget.h">
<polygon fill="white" stroke="black" points="381,-201.5 381,-231.5 539,-231.5 539,-201.5 381,-201.5"/>
<text text-anchor="start" x="389" y="-219.5" font-family="Helvetica,sans-Serif" font-size="10.00">/home/ient/YUViewOrig</text>
<text text-anchor="middle" x="460" y="-208.5" font-family="Helvetica,sans-Serif" font-size="10.00">/YUView/source/displaywidget.h</text>
</a>
</g>
</g>
<!-- Node1&#45;&gt;Node18 -->
<g id="edge24" class="edge"><title>Node1&#45;&gt;Node18</title>
<path fill="none" stroke="midnightblue" d="M851.54,-400.247C813.66,-391.611 767.993,-379.898 728,-366 659.797,-342.298 642.986,-334.302 580,-299 542.434,-277.945 501.512,-248.654 478.478,-231.525"/>
<polygon fill="midnightblue" stroke="midnightblue" points="850.974,-403.707 861.498,-402.487 852.511,-396.878 850.974,-403.707"/>
</g>
<!-- Node19 -->
<g id="node19" class="node"><title>Node19</title>
<g id="a_node19"><a xlink:href="statisticsobject_8h.html" target="_top" xlink:title="/home/ient/YUViewOrig\l/YUView/source/statisticsobject.h">
<polygon fill="white" stroke="black" points="339.5,-268.5 339.5,-298.5 504.5,-298.5 504.5,-268.5 339.5,-268.5"/>
<text text-anchor="start" x="347.5" y="-286.5" font-family="Helvetica,sans-Serif" font-size="10.00">/home/ient/YUViewOrig</text>
<text text-anchor="middle" x="422" y="-275.5" font-family="Helvetica,sans-Serif" font-size="10.00">/YUView/source/statisticsobject.h</text>
</a>
</g>
</g>
<!-- Node1&#45;&gt;Node19 -->
<g id="edge29" class="edge"><title>Node1&#45;&gt;Node19</title>
<path fill="none" stroke="midnightblue" d="M842.806,-411.574C739.517,-404.784 575.356,-390.519 519,-366 483.301,-350.468 450.597,-317.453 433.812,-298.556"/>
<polygon fill="midnightblue" stroke="midnightblue" points="842.711,-415.075 852.916,-412.227 843.162,-408.089 842.711,-415.075"/>
</g>
<!-- Node23 -->
<g id="node23" class="node"><title>Node23</title>
<g id="a_node23"><a xlink:href="textobject_8h.html" target="_top" xlink:title="/home/ient/YUViewOrig\l/YUView/source/textobject.h">
<polygon fill="white" stroke="black" points="1133,-268.5 1133,-298.5 1275,-298.5 1275,-268.5 1133,-268.5"/>
<text text-anchor="start" x="1141" y="-286.5" font-family="Helvetica,sans-Serif" font-size="10.00">/home/ient/YUViewOrig</text>
<text text-anchor="middle" x="1204" y="-275.5" font-family="Helvetica,sans-Serif" font-size="10.00">/YUView/source/textobject.h</text>
</a>
</g>
</g>
<!-- Node1&#45;&gt;Node23 -->
<g id="edge36" class="edge"><title>Node1&#45;&gt;Node23</title>
<path fill="none" stroke="midnightblue" d="M986.841,-399.166C1011.46,-390.591 1040.34,-379.232 1065,-366 1085.76,-354.86 1087.97,-347.404 1108,-335 1129.61,-321.615 1155.13,-308.304 1174.42,-298.71"/>
<polygon fill="midnightblue" stroke="midnightblue" points="985.613,-395.887 977.281,-402.431 987.875,-402.511 985.613,-395.887"/>
</g>
<!-- Node3 -->
<g id="node3" class="node"><title>Node3</title>
<g id="a_node3"><a xlink:href="differenceobject_8h.html" target="_top" xlink:title="/home/ient/YUViewOrig\l/YUView/source/differenceobject.h">
<polygon fill="white" stroke="black" points="637,-268.5 637,-298.5 805,-298.5 805,-268.5 637,-268.5"/>
<text text-anchor="start" x="645" y="-286.5" font-family="Helvetica,sans-Serif" font-size="10.00">/home/ient/YUViewOrig</text>
<text text-anchor="middle" x="721" y="-275.5" font-family="Helvetica,sans-Serif" font-size="10.00">/YUView/source/differenceobject.h</text>
</a>
</g>
</g>
<!-- Node2&#45;&gt;Node3 -->
<g id="edge2" class="edge"><title>Node2&#45;&gt;Node3</title>
<path fill="none" stroke="midnightblue" d="M783.932,-329.451C769.932,-319.452 753.339,-307.6 740.707,-298.577"/>
<polygon fill="midnightblue" stroke="midnightblue" points="782.083,-332.432 792.254,-335.396 786.151,-326.735 782.083,-332.432"/>
</g>
<!-- Node2&#45;&gt;Node5 -->
<g id="edge20" class="edge"><title>Node2&#45;&gt;Node5</title>
<path fill="none" stroke="midnightblue" d="M897.123,-344.269C931.181,-337.914 968.148,-324.946 993,-299 1010.49,-280.744 1012.98,-249.654 1012.78,-231.61"/>
<polygon fill="midnightblue" stroke="midnightblue" points="896.41,-340.84 887.136,-345.964 897.581,-347.741 896.41,-340.84"/>
</g>
<!-- Node14 -->
<g id="node14" class="node"><title>Node14</title>
<g id="a_node14"><a xlink:href="displaysplitwidget_8h.html" target="_top" xlink:title="/home/ient/YUViewOrig\l/YUView/source/displaysplitwidget.h">
<polygon fill="white" stroke="black" points="523,-134.5 523,-164.5 699,-164.5 699,-134.5 523,-134.5"/>
<text text-anchor="start" x="531" y="-152.5" font-family="Helvetica,sans-Serif" font-size="10.00">/home/ient/YUViewOrig</text>
<text text-anchor="middle" x="611" y="-141.5" font-family="Helvetica,sans-Serif" font-size="10.00">/YUView/source/displaysplitwidget.h</text>
</a>
</g>
</g>
<!-- Node2&#45;&gt;Node14 -->
<g id="edge17" class="edge"><title>Node2&#45;&gt;Node14</title>
<path fill="none" stroke="midnightblue" d="M726.866,-335.613C685.315,-327.034 641.419,-314.661 628,-299 594.906,-260.378 602.522,-193.848 607.91,-164.784"/>
<polygon fill="midnightblue" stroke="midnightblue" points="726.304,-339.07 736.797,-337.603 727.679,-332.207 726.304,-339.07"/>
</g>
<!-- Node15 -->
<g id="node15" class="node"><title>Node15</title>
<g id="a_node15"><a xlink:href="displaywidget_8cpp.html" target="_top" xlink:title="/home/ient/YUViewOrig\l/YUView/source/displaywidget.cpp">
<polygon fill="white" stroke="black" points="336.5,-134.5 336.5,-164.5 505.5,-164.5 505.5,-134.5 336.5,-134.5"/>
<text text-anchor="start" x="344.5" y="-152.5" font-family="Helvetica,sans-Serif" font-size="10.00">/home/ient/YUViewOrig</text>
<text text-anchor="middle" x="421" y="-141.5" font-family="Helvetica,sans-Serif" font-size="10.00">/YUView/source/displaywidget.cpp</text>
</a>
</g>
</g>
<!-- Node2&#45;&gt;Node15 -->
<g id="edge21" class="edge"><title>Node2&#45;&gt;Node15</title>
<path fill="none" stroke="midnightblue" d="M726.46,-343.165C687.33,-336.744 642.184,-324.031 608,-299 566.795,-268.828 587.063,-233.898 548,-201 527.946,-184.11 501.542,-172.392 478.007,-164.528"/>
<polygon fill="midnightblue" stroke="midnightblue" points="726.381,-346.693 736.794,-344.739 727.436,-339.773 726.381,-346.693"/>
</g>
<!-- Node16 -->
<g id="node16" class="node"><title>Node16</title>
<g id="a_node16"><a xlink:href="frameobject_8cpp.html" target="_top" xlink:title="/home/ient/YUViewOrig\l/YUView/source/frameobject.cpp">
<polygon fill="white" stroke="black" points="823.5,-268.5 823.5,-298.5 984.5,-298.5 984.5,-268.5 823.5,-268.5"/>
<text text-anchor="start" x="831.5" y="-286.5" font-family="Helvetica,sans-Serif" font-size="10.00">/home/ient/YUViewOrig</text>
<text text-anchor="middle" x="904" y="-275.5" font-family="Helvetica,sans-Serif" font-size="10.00">/YUView/source/frameobject.cpp</text>
</a>
</g>
</g>
<!-- Node2&#45;&gt;Node16 -->
<g id="edge22" class="edge"><title>Node2&#45;&gt;Node16</title>
<path fill="none" stroke="midnightblue" d="M840.377,-329.451C854.53,-319.452 871.305,-307.6 884.076,-298.577"/>
<polygon fill="midnightblue" stroke="midnightblue" points="838.11,-326.767 831.963,-335.396 842.149,-332.484 838.11,-326.767"/>
</g>
<!-- Node4 -->
<g id="node4" class="node"><title>Node4</title>
<g id="a_node4"><a xlink:href="differenceobject_8cpp.html" target="_top" xlink:title="/home/ient/YUViewOrig\l/YUView/source/differenceobject.cpp">
<polygon fill="white" stroke="black" points="740.5,-201.5 740.5,-231.5 919.5,-231.5 919.5,-201.5 740.5,-201.5"/>
<text text-anchor="start" x="748.5" y="-219.5" font-family="Helvetica,sans-Serif" font-size="10.00">/home/ient/YUViewOrig</text>
<text text-anchor="middle" x="830" y="-208.5" font-family="Helvetica,sans-Serif" font-size="10.00">/YUView/source/differenceobject.cpp</text>
</a>
</g>
</g>
<!-- Node3&#45;&gt;Node4 -->
<g id="edge3" class="edge"><title>Node3&#45;&gt;Node4</title>
<path fill="none" stroke="midnightblue" d="M753.675,-263.015C770.637,-252.9 790.978,-240.77 806.395,-231.577"/>
<polygon fill="midnightblue" stroke="midnightblue" points="751.448,-260.268 744.651,-268.396 755.033,-266.28 751.448,-260.268"/>
</g>
<!-- Node3&#45;&gt;Node5 -->
<g id="edge4" class="edge"><title>Node3&#45;&gt;Node5</title>
<path fill="none" stroke="midnightblue" d="M793.756,-266.249C841.541,-255.575 903.419,-241.754 949.077,-231.555"/>
<polygon fill="midnightblue" stroke="midnightblue" points="792.781,-262.88 783.784,-268.476 794.307,-269.712 792.781,-262.88"/>
</g>
<!-- Node8 -->
<g id="node8" class="node"><title>Node8</title>
<g id="a_node8"><a xlink:href="mainwindow_8cpp.html" target="_top" xlink:title="/home/ient/YUViewOrig\l/YUView/source/mainwindow.cpp">
<polygon fill="white" stroke="black" points="377,-67.5 377,-97.5 541,-97.5 541,-67.5 377,-67.5"/>
<text text-anchor="start" x="385" y="-85.5" font-family="Helvetica,sans-Serif" font-size="10.00">/home/ient/YUViewOrig</text>
<text text-anchor="middle" x="459" y="-74.5" font-family="Helvetica,sans-Serif" font-size="10.00">/YUView/source/mainwindow.cpp</text>
</a>
</g>
</g>
<!-- Node3&#45;&gt;Node8 -->
<g id="edge15" class="edge"><title>Node3&#45;&gt;Node8</title>
<path fill="none" stroke="midnightblue" d="M722.261,-257.991C723.638,-220.593 723.847,-151.744 708,-134 702.252,-127.564 610.475,-110.124 540.001,-97.5396"/>
<polygon fill="midnightblue" stroke="midnightblue" points="718.76,-257.928 721.833,-268.067 725.754,-258.225 718.76,-257.928"/>
</g>
<!-- Node13 -->
<g id="node13" class="node"><title>Node13</title>
<g id="a_node13"><a xlink:href="playlistitem_8cpp.html" target="_top" xlink:title="/home/ient/YUViewOrig\l/YUView/source/playlistitem.cpp">
<polygon fill="white" stroke="black" points="1039.5,-134.5 1039.5,-164.5 1198.5,-164.5 1198.5,-134.5 1039.5,-134.5"/>
<text text-anchor="start" x="1047.5" y="-152.5" font-family="Helvetica,sans-Serif" font-size="10.00">/home/ient/YUViewOrig</text>
<text text-anchor="middle" x="1119" y="-141.5" font-family="Helvetica,sans-Serif" font-size="10.00">/YUView/source/playlistitem.cpp</text>
</a>
</g>
</g>
<!-- Node3&#45;&gt;Node13 -->
<g id="edge16" class="edge"><title>Node3&#45;&gt;Node13</title>
<path fill="none" stroke="midnightblue" d="M815.312,-268.049C891.424,-260.27 1049.24,-271.006 1095,-232 1114.64,-215.255 1118.65,-183.318 1119.21,-164.785"/>
<polygon fill="midnightblue" stroke="midnightblue" points="814.643,-264.605 805.134,-269.277 815.481,-271.554 814.643,-264.605"/>
</g>
<!-- Node6 -->
<g id="node6" class="node"><title>Node6</title>
<g id="a_node6"><a xlink:href="mainwindow_8h.html" target="_top" xlink:title="/home/ient/YUViewOrig\l/YUView/source/mainwindow.h">
<polygon fill="white" stroke="black" points="811.5,-134.5 811.5,-164.5 964.5,-164.5 964.5,-134.5 811.5,-134.5"/>
<text text-anchor="start" x="819.5" y="-152.5" font-family="Helvetica,sans-Serif" font-size="10.00">/home/ient/YUViewOrig</text>
<text text-anchor="middle" x="888" y="-141.5" font-family="Helvetica,sans-Serif" font-size="10.00">/YUView/source/mainwindow.h</text>
</a>
</g>
</g>
<!-- Node5&#45;&gt;Node6 -->
<g id="edge5" class="edge"><title>Node5&#45;&gt;Node6</title>
<path fill="none" stroke="midnightblue" d="M976.163,-196.714C956.606,-186.463 932.798,-173.983 914.854,-164.577"/>
<polygon fill="midnightblue" stroke="midnightblue" points="974.612,-199.853 985.094,-201.396 977.862,-193.653 974.612,-199.853"/>
</g>
<!-- Node5&#45;&gt;Node8 -->
<g id="edge12" class="edge"><title>Node5&#45;&gt;Node8</title>
<path fill="none" stroke="midnightblue" d="M927.158,-199.831C888.373,-191.472 842.211,-179.819 802,-165 773.465,-154.484 769.832,-143.673 741,-134 722.227,-127.702 617.684,-109.697 541.346,-96.9881"/>
<polygon fill="midnightblue" stroke="midnightblue" points="926.861,-203.346 937.369,-201.993 928.311,-196.498 926.861,-203.346"/>
</g>
<!-- Node9 -->
<g id="node9" class="node"><title>Node9</title>
<g id="a_node9"><a xlink:href="playlisttreewidget_8cpp.html" target="_top" xlink:title="/home/ient/YUViewOrig\l/YUView/source/playlisttreewidget.cpp">
<polygon fill="white" stroke="black" points="1111.5,-67.5 1111.5,-97.5 1296.5,-97.5 1296.5,-67.5 1111.5,-67.5"/>
<text text-anchor="start" x="1119.5" y="-85.5" font-family="Helvetica,sans-Serif" font-size="10.00">/home/ient/YUViewOrig</text>
<text text-anchor="middle" x="1204" y="-74.5" font-family="Helvetica,sans-Serif" font-size="10.00">/YUView/source/playlisttreewidget.cpp</text>
</a>
</g>
</g>
<!-- Node5&#45;&gt;Node9 -->
<g id="edge14" class="edge"><title>Node5&#45;&gt;Node9</title>
<path fill="none" stroke="midnightblue" d="M1011.46,-191.365C1012.36,-173.339 1016.54,-149.276 1031,-134 1044.93,-119.286 1089.03,-106.536 1129.22,-97.528"/>
<polygon fill="midnightblue" stroke="midnightblue" points="1007.95,-191.353 1011.25,-201.422 1014.95,-191.496 1007.95,-191.353"/>
</g>
<!-- Node5&#45;&gt;Node13 -->
<g id="edge13" class="edge"><title>Node5&#45;&gt;Node13</title>
<path fill="none" stroke="midnightblue" d="M1044.08,-196.015C1060.73,-185.9 1080.69,-173.77 1095.83,-164.577"/>
<polygon fill="midnightblue" stroke="midnightblue" points="1041.95,-193.213 1035.22,-201.396 1045.58,-199.195 1041.95,-193.213"/>
</g>
<!-- Node7 -->
<g id="node7" class="node"><title>Node7</title>
<g id="a_node7"><a xlink:href="displaysplitwidget_8cpp.html" target="_top" xlink:title="/home/ient/YUViewOrig\l/YUView/source/displaysplitwidget.cpp">
<polygon fill="white" stroke="black" points="559.5,-67.5 559.5,-97.5 746.5,-97.5 746.5,-67.5 559.5,-67.5"/>
<text text-anchor="start" x="567.5" y="-85.5" font-family="Helvetica,sans-Serif" font-size="10.00">/home/ient/YUViewOrig</text>
<text text-anchor="middle" x="653" y="-74.5" font-family="Helvetica,sans-Serif" font-size="10.00">/YUView/source/displaysplitwidget.cpp</text>
</a>
</g>
</g>
<!-- Node6&#45;&gt;Node7 -->
<g id="edge6" class="edge"><title>Node6&#45;&gt;Node7</title>
<path fill="none" stroke="midnightblue" d="M827.316,-131.715C789.073,-121.137 740.257,-107.635 704.016,-97.6109"/>
<polygon fill="midnightblue" stroke="midnightblue" points="826.727,-135.183 837.298,-134.476 828.593,-128.437 826.727,-135.183"/>
</g>
<!-- Node6&#45;&gt;Node8 -->
<g id="edge7" class="edge"><title>Node6&#45;&gt;Node8</title>
<path fill="none" stroke="midnightblue" d="M801.171,-135.764C732.877,-125.689 635.335,-111.173 550,-98 547.154,-97.5607 544.258,-97.1114 541.334,-96.6559"/>
<polygon fill="midnightblue" stroke="midnightblue" points="801.048,-139.283 811.452,-137.279 802.069,-132.358 801.048,-139.283"/>
</g>
<!-- Node6&#45;&gt;Node9 -->
<g id="edge8" class="edge"><title>Node6&#45;&gt;Node9</title>
<path fill="none" stroke="midnightblue" d="M966.032,-132.449C1018.05,-121.749 1085.78,-107.818 1135.67,-97.5549"/>
<polygon fill="midnightblue" stroke="midnightblue" points="965.268,-129.033 956.178,-134.476 966.678,-135.889 965.268,-129.033"/>
</g>
<!-- Node10 -->
<g id="node10" class="node"><title>Node10</title>
<g id="a_node10"><a xlink:href="statslistview_8cpp.html" target="_top" xlink:title="/home/ient/YUViewOrig\l/YUView/source/statslistview.cpp">
<polygon fill="white" stroke="black" points="765,-67.5 765,-97.5 929,-97.5 929,-67.5 765,-67.5"/>
<text text-anchor="start" x="773" y="-85.5" font-family="Helvetica,sans-Serif" font-size="10.00">/home/ient/YUViewOrig</text>
<text text-anchor="middle" x="847" y="-74.5" font-family="Helvetica,sans-Serif" font-size="10.00">/YUView/source/statslistview.cpp</text>
</a>
</g>
</g>
<!-- Node6&#45;&gt;Node10 -->
<g id="edge9" class="edge"><title>Node6&#45;&gt;Node10</title>
<path fill="none" stroke="midnightblue" d="M873.724,-125.867C867.79,-116.459 861.087,-105.833 855.879,-97.5765"/>
<polygon fill="midnightblue" stroke="midnightblue" points="870.808,-127.805 879.104,-134.396 876.729,-124.071 870.808,-127.805"/>
</g>
<!-- Node11 -->
<g id="node11" class="node"><title>Node11</title>
<g id="a_node11"><a xlink:href="yuviewapp_8h.html" target="_top" xlink:title="/home/ient/YUViewOrig\l/YUView/source/yuviewapp.h">
<polygon fill="white" stroke="black" points="947,-67.5 947,-97.5 1093,-97.5 1093,-67.5 947,-67.5"/>
<text text-anchor="start" x="955" y="-85.5" font-family="Helvetica,sans-Serif" font-size="10.00">/home/ient/YUViewOrig</text>
<text text-anchor="middle" x="1020" y="-74.5" font-family="Helvetica,sans-Serif" font-size="10.00">/YUView/source/yuviewapp.h</text>
</a>
</g>
</g>
<!-- Node6&#45;&gt;Node11 -->
<g id="edge10" class="edge"><title>Node6&#45;&gt;Node11</title>
<path fill="none" stroke="midnightblue" d="M925.867,-129.853C946.738,-119.576 972.226,-107.025 991.414,-97.5765"/>
<polygon fill="midnightblue" stroke="midnightblue" points="924.067,-126.838 916.642,-134.396 927.16,-133.118 924.067,-126.838"/>
</g>
<!-- Node12 -->
<g id="node12" class="node"><title>Node12</title>
<g id="a_node12"><a xlink:href="yuviewapp_8cpp.html" target="_top" xlink:title="/home/ient/YUViewOrig\l/YUView/source/yuviewapp.cpp">
<polygon fill="white" stroke="black" points="942,-0.5 942,-30.5 1098,-30.5 1098,-0.5 942,-0.5"/>
<text text-anchor="start" x="950" y="-18.5" font-family="Helvetica,sans-Serif" font-size="10.00">/home/ient/YUViewOrig</text>
<text text-anchor="middle" x="1020" y="-7.5" font-family="Helvetica,sans-Serif" font-size="10.00">/YUView/source/yuviewapp.cpp</text>
</a>
</g>
</g>
<!-- Node11&#45;&gt;Node12 -->
<g id="edge11" class="edge"><title>Node11&#45;&gt;Node12</title>
<path fill="none" stroke="midnightblue" d="M1020,-57.1081C1020,-48.1539 1020,-38.3227 1020,-30.5765"/>
<polygon fill="midnightblue" stroke="midnightblue" points="1016.5,-57.3959 1020,-67.396 1023.5,-57.396 1016.5,-57.3959"/>
</g>
<!-- Node14&#45;&gt;Node7 -->
<g id="edge18" class="edge"><title>Node14&#45;&gt;Node7</title>
<path fill="none" stroke="midnightblue" d="M625.624,-125.867C631.703,-116.459 638.569,-105.833 643.904,-97.5765"/>
<polygon fill="midnightblue" stroke="midnightblue" points="622.601,-124.097 620.113,-134.396 628.48,-127.896 622.601,-124.097"/>
</g>
<!-- Node14&#45;&gt;Node8 -->
<g id="edge19" class="edge"><title>Node14&#45;&gt;Node8</title>
<path fill="none" stroke="midnightblue" d="M568.689,-130.407C544.423,-120.029 514.411,-107.195 491.917,-97.5765"/>
<polygon fill="midnightblue" stroke="midnightblue" points="567.447,-133.682 578.018,-134.396 570.2,-127.246 567.447,-133.682"/>
</g>
<!-- Node18&#45;&gt;Node6 -->
<g id="edge26" class="edge"><title>Node18&#45;&gt;Node6</title>
<path fill="none" stroke="midnightblue" d="M549.226,-201.949C626.698,-190.184 737.699,-173.326 811.261,-162.154"/>
<polygon fill="midnightblue" stroke="midnightblue" points="548.362,-198.54 539.001,-203.502 549.413,-205.461 548.362,-198.54"/>
</g>
<!-- Node18&#45;&gt;Node8 -->
<g id="edge28" class="edge"><title>Node18&#45;&gt;Node8</title>
<path fill="none" stroke="midnightblue" d="M370.974,-198.607C353.686,-191.16 337.651,-180.438 327,-165 304.516,-132.413 351.377,-110.377 395.359,-97.5201"/>
<polygon fill="midnightblue" stroke="midnightblue" points="370.093,-202.021 380.681,-202.416 372.65,-195.505 370.093,-202.021"/>
</g>
<!-- Node18&#45;&gt;Node14 -->
<g id="edge25" class="edge"><title>Node18&#45;&gt;Node14</title>
<path fill="none" stroke="midnightblue" d="M502.032,-197.407C526.139,-187.029 555.954,-174.195 578.299,-164.577"/>
<polygon fill="midnightblue" stroke="midnightblue" points="500.566,-194.227 492.765,-201.396 503.334,-200.657 500.566,-194.227"/>
</g>
<!-- Node18&#45;&gt;Node15 -->
<g id="edge27" class="edge"><title>Node18&#45;&gt;Node15</title>
<path fill="none" stroke="midnightblue" d="M446.245,-192.576C440.644,-183.241 434.349,-172.748 429.446,-164.577"/>
<polygon fill="midnightblue" stroke="midnightblue" points="443.391,-194.622 451.538,-201.396 449.394,-191.02 443.391,-194.622"/>
</g>
<!-- Node19&#45;&gt;Node5 -->
<g id="edge31" class="edge"><title>Node19&#45;&gt;Node5</title>
<path fill="none" stroke="midnightblue" d="M514.834,-275.238C616.497,-266.818 784.225,-251.558 928,-232 931.079,-231.581 934.219,-231.133 937.388,-230.664"/>
<polygon fill="midnightblue" stroke="midnightblue" points="514.276,-271.772 504.597,-276.081 514.851,-278.748 514.276,-271.772"/>
</g>
<!-- Node19&#45;&gt;Node18 -->
<g id="edge30" class="edge"><title>Node19&#45;&gt;Node18</title>
<path fill="none" stroke="midnightblue" d="M435.402,-259.576C440.859,-250.241 446.993,-239.748 451.771,-231.577"/>
<polygon fill="midnightblue" stroke="midnightblue" points="432.271,-257.997 430.245,-268.396 438.314,-261.529 432.271,-257.997"/>
</g>
<!-- Node20 -->
<g id="node20" class="node"><title>Node20</title>
<g id="a_node20"><a xlink:href="statslistmodel_8h.html" target="_top" xlink:title="/home/ient/YUViewOrig\l/YUView/source/statslistmodel.h">
<polygon fill="white" stroke="black" points="194,-201.5 194,-231.5 354,-231.5 354,-201.5 194,-201.5"/>
<text text-anchor="start" x="202" y="-219.5" font-family="Helvetica,sans-Serif" font-size="10.00">/home/ient/YUViewOrig</text>
<text text-anchor="middle" x="274" y="-208.5" font-family="Helvetica,sans-Serif" font-size="10.00">/YUView/source/statslistmodel.h</text>
</a>
</g>
</g>
<!-- Node19&#45;&gt;Node20 -->
<g id="edge32" class="edge"><title>Node19&#45;&gt;Node20</title>
<path fill="none" stroke="midnightblue" d="M380.489,-264.269C356.916,-253.916 327.856,-241.153 306.051,-231.577"/>
<polygon fill="midnightblue" stroke="midnightblue" points="379.323,-267.579 389.886,-268.396 382.138,-261.17 379.323,-267.579"/>
</g>
<!-- Node22 -->
<g id="node22" class="node"><title>Node22</title>
<g id="a_node22"><a xlink:href="statisticsobject_8cpp.html" target="_top" xlink:title="/home/ient/YUViewOrig\l/YUView/source/statisticsobject.cpp">
<polygon fill="white" stroke="black" points="0,-201.5 0,-231.5 176,-231.5 176,-201.5 0,-201.5"/>
<text text-anchor="start" x="8" y="-219.5" font-family="Helvetica,sans-Serif" font-size="10.00">/home/ient/YUViewOrig</text>
<text text-anchor="middle" x="88" y="-208.5" font-family="Helvetica,sans-Serif" font-size="10.00">/YUView/source/statisticsobject.cpp</text>
</a>
</g>
</g>
<!-- Node19&#45;&gt;Node22 -->
<g id="edge35" class="edge"><title>Node19&#45;&gt;Node22</title>
<path fill="none" stroke="midnightblue" d="M339.866,-266.516C284.837,-255.807 213.065,-241.839 160.22,-231.555"/>
<polygon fill="midnightblue" stroke="midnightblue" points="339.454,-270.001 349.938,-268.476 340.791,-263.13 339.454,-270.001"/>
</g>
<!-- Node20&#45;&gt;Node8 -->
<g id="edge33" class="edge"><title>Node20&#45;&gt;Node8</title>
<path fill="none" stroke="midnightblue" d="M281.509,-191.813C288.365,-173.701 300.178,-149.314 318,-134 338.116,-116.715 364.586,-105.187 389.153,-97.5728"/>
<polygon fill="midnightblue" stroke="midnightblue" points="278.158,-190.789 278.119,-201.384 284.757,-193.126 278.158,-190.789"/>
</g>
<!-- Node21 -->
<g id="node21" class="node"><title>Node21</title>
<g id="a_node21"><a xlink:href="statslistmodel_8cpp.html" target="_top" xlink:title="/home/ient/YUViewOrig\l/YUView/source/statslistmodel.cpp">
<polygon fill="white" stroke="black" points="73,-134.5 73,-164.5 243,-164.5 243,-134.5 73,-134.5"/>
<text text-anchor="start" x="81" y="-152.5" font-family="Helvetica,sans-Serif" font-size="10.00">/home/ient/YUViewOrig</text>
<text text-anchor="middle" x="158" y="-141.5" font-family="Helvetica,sans-Serif" font-size="10.00">/YUView/source/statslistmodel.cpp</text>
</a>
</g>
</g>
<!-- Node20&#45;&gt;Node21 -->
<g id="edge34" class="edge"><title>Node20&#45;&gt;Node21</title>
<path fill="none" stroke="midnightblue" d="M239.728,-196.296C221.577,-186.125 199.68,-173.855 183.121,-164.577"/>
<polygon fill="midnightblue" stroke="midnightblue" points="238.395,-199.561 248.83,-201.396 241.817,-193.454 238.395,-199.561"/>
</g>
<!-- Node23&#45;&gt;Node5 -->
<g id="edge40" class="edge"><title>Node23&#45;&gt;Node5</title>
<path fill="none" stroke="midnightblue" d="M1152.58,-265.092C1121.58,-254.599 1082.62,-241.408 1053.58,-231.577"/>
<polygon fill="midnightblue" stroke="midnightblue" points="1151.74,-268.504 1162.34,-268.396 1153.99,-261.874 1151.74,-268.504"/>
</g>
<!-- Node23&#45;&gt;Node13 -->
<g id="edge43" class="edge"><title>Node23&#45;&gt;Node13</title>
<path fill="none" stroke="midnightblue" d="M1189.15,-259.886C1183.45,-251.182 1176.9,-241.142 1171,-232 1155.8,-208.453 1138.3,-180.945 1127.97,-164.664"/>
<polygon fill="midnightblue" stroke="midnightblue" points="1186.3,-261.932 1194.71,-268.378 1192.16,-258.095 1186.3,-261.932"/>
</g>
<!-- Node24 -->
<g id="node24" class="node"><title>Node24</title>
<g id="a_node24"><a xlink:href="edittextdialog_8h.html" target="_top" xlink:title="/home/ient/YUViewOrig\l/YUView/source/edittextdialog.h">
<polygon fill="white" stroke="black" points="1350.5,-201.5 1350.5,-231.5 1507.5,-231.5 1507.5,-201.5 1350.5,-201.5"/>
<text text-anchor="start" x="1358.5" y="-219.5" font-family="Helvetica,sans-Serif" font-size="10.00">/home/ient/YUViewOrig</text>
<text text-anchor="middle" x="1429" y="-208.5" font-family="Helvetica,sans-Serif" font-size="10.00">/YUView/source/edittextdialog.h</text>
</a>
</g>
</g>
<!-- Node23&#45;&gt;Node24 -->
<g id="edge37" class="edge"><title>Node23&#45;&gt;Node24</title>
<path fill="none" stroke="midnightblue" d="M1262.57,-265.58C1299.11,-255.022 1345.6,-241.592 1380.15,-231.611"/>
<polygon fill="midnightblue" stroke="midnightblue" points="1261.18,-262.338 1252.54,-268.476 1263.12,-269.063 1261.18,-262.338"/>
</g>
<!-- Node26 -->
<g id="node26" class="node"><title>Node26</title>
<g id="a_node26"><a xlink:href="frameobjectdialog_8h.html" target="_top" xlink:title="/home/ient/YUViewOrig\l/YUView/source/frameobjectdialog.h">
<polygon fill="white" stroke="black" points="1530,-201.5 1530,-231.5 1706,-231.5 1706,-201.5 1530,-201.5"/>
<text text-anchor="start" x="1538" y="-219.5" font-family="Helvetica,sans-Serif" font-size="10.00">/home/ient/YUViewOrig</text>
<text text-anchor="middle" x="1618" y="-208.5" font-family="Helvetica,sans-Serif" font-size="10.00">/YUView/source/frameobjectdialog.h</text>
</a>
</g>
</g>
<!-- Node23&#45;&gt;Node26 -->
<g id="edge41" class="edge"><title>Node23&#45;&gt;Node26</title>
<path fill="none" stroke="midnightblue" d="M1285.33,-269.731C1355.75,-258.674 1457.4,-242.715 1529.78,-231.352"/>
<polygon fill="midnightblue" stroke="midnightblue" points="1284.51,-266.317 1275.17,-271.326 1285.59,-273.233 1284.51,-266.317"/>
</g>
<!-- Node28 -->
<g id="node28" class="node"><title>Node28</title>
<g id="a_node28"><a xlink:href="textobject_8cpp.html" target="_top" xlink:title="/home/ient/YUViewOrig\l/YUView/source/textobject.cpp">
<polygon fill="white" stroke="black" points="1180,-201.5 1180,-231.5 1332,-231.5 1332,-201.5 1180,-201.5"/>
<text text-anchor="start" x="1188" y="-219.5" font-family="Helvetica,sans-Serif" font-size="10.00">/home/ient/YUViewOrig</text>
<text text-anchor="middle" x="1256" y="-208.5" font-family="Helvetica,sans-Serif" font-size="10.00">/YUView/source/textobject.cpp</text>
</a>
</g>
</g>
<!-- Node23&#45;&gt;Node28 -->
<g id="edge44" class="edge"><title>Node23&#45;&gt;Node28</title>
<path fill="none" stroke="midnightblue" d="M1221.64,-260.447C1229.28,-250.899 1238,-240.004 1244.74,-231.577"/>
<polygon fill="midnightblue" stroke="midnightblue" points="1218.8,-258.401 1215.28,-268.396 1224.26,-262.774 1218.8,-258.401"/>
</g>
<!-- Node24&#45;&gt;Node6 -->
<g id="edge38" class="edge"><title>Node24&#45;&gt;Node6</title>
<path fill="none" stroke="midnightblue" d="M1340.18,-200.952C1254.68,-189.56 1069.68,-169.67 964.503,-158.538"/>
<polygon fill="midnightblue" stroke="midnightblue" points="1339.97,-204.455 1350.35,-202.331 1340.91,-197.518 1339.97,-204.455"/>
</g>
<!-- Node25 -->
<g id="node25" class="node"><title>Node25</title>
<g id="a_node25"><a xlink:href="edittextdialog_8cpp.html" target="_top" xlink:title="/home/ient/YUViewOrig\l/YUView/source/edittextdialog.cpp">
<polygon fill="white" stroke="black" points="1342.5,-134.5 1342.5,-164.5 1509.5,-164.5 1509.5,-134.5 1342.5,-134.5"/>
<text text-anchor="start" x="1350.5" y="-152.5" font-family="Helvetica,sans-Serif" font-size="10.00">/home/ient/YUViewOrig</text>
<text text-anchor="middle" x="1426" y="-141.5" font-family="Helvetica,sans-Serif" font-size="10.00">/YUView/source/edittextdialog.cpp</text>
</a>
</g>
</g>
<!-- Node24&#45;&gt;Node25 -->
<g id="edge39" class="edge"><title>Node24&#45;&gt;Node25</title>
<path fill="none" stroke="midnightblue" d="M1427.89,-191.403C1427.47,-182.37 1427.01,-172.408 1426.65,-164.577"/>
<polygon fill="midnightblue" stroke="midnightblue" points="1424.39,-191.568 1428.35,-201.396 1431.38,-191.245 1424.39,-191.568"/>
</g>
<!-- Node27 -->
<g id="node27" class="node"><title>Node27</title>
<g id="a_node27"><a xlink:href="frameobjectdialog_8cpp.html" target="_top" xlink:title="/home/ient/YUViewOrig\l/YUView/source/frameobjectdialog.cpp">
<polygon fill="white" stroke="black" points="1527,-134.5 1527,-164.5 1713,-164.5 1713,-134.5 1527,-134.5"/>
<text text-anchor="start" x="1535" y="-152.5" font-family="Helvetica,sans-Serif" font-size="10.00">/home/ient/YUViewOrig</text>
<text text-anchor="middle" x="1620" y="-141.5" font-family="Helvetica,sans-Serif" font-size="10.00">/YUView/source/frameobjectdialog.cpp</text>
</a>
</g>
</g>
<!-- Node26&#45;&gt;Node27 -->
<g id="edge42" class="edge"><title>Node26&#45;&gt;Node27</title>
<path fill="none" stroke="midnightblue" d="M1618.75,-191.108C1619.03,-182.154 1619.33,-172.323 1619.57,-164.577"/>
<polygon fill="midnightblue" stroke="midnightblue" points="1615.24,-191.293 1618.43,-201.396 1622.24,-191.508 1615.24,-191.293"/>
</g>
</g>
</svg>
        <g id="navigator" transform="translate(0 0)" fill="#404254">
                <rect fill="#f2f5e9" fill-opacity="0.5" stroke="#606060" stroke-width=".5" x="0" y="0" width="60" height="60"/>
                <use id="zoomplus" xlink:href="#zoomPlus" x="17" y="9" onmousedown="handleZoom(evt,'in')"/>
                <use id="zoomminus" xlink:href="#zoomMin" x="42" y="9" onmousedown="handleZoom(evt,'out')"/>
                <use id="reset" xlink:href="#resetDef" x="30" y="36" onmousedown="handleReset()"/>
                <g id="arrowUp" xlink:href="#dirArrow" transform="translate(30 24)" onmousedown="handlePan(0,-1)">
                  <use xlink:href="#rim" fill="#404040">
                        <set attributeName="fill" to="#808080" begin="arrowUp.mouseover" end="arrowUp.mouseout"/>
                  </use>
                  <path fill="none" stroke="white" stroke-width="1.5" d="M0,-3.0v7 M-2.5,-0.5L0,-3.0L2.5,-0.5"/>
                </g>
                <g id="arrowRight" xlink:href="#dirArrow" transform="rotate(90) translate(36 -43)" onmousedown="handlePan(1,0)">
                  <use xlink:href="#rim" fill="#404040">
                        <set attributeName="fill" to="#808080" begin="arrowRight.mouseover" end="arrowRight.mouseout"/>
                  </use>
                  <path fill="none" stroke="white" stroke-width="1.5" d="M0,-3.0v7 M-2.5,-0.5L0,-3.0L2.5,-0.5"/>
                </g>
                <g id="arrowDown" xlink:href="#dirArrow" transform="rotate(180) translate(-30 -48)" onmousedown="handlePan(0,1)">
                  <use xlink:href="#rim" fill="#404040">
                        <set attributeName="fill" to="#808080" begin="arrowDown.mouseover" end="arrowDown.mouseout"/>
                  </use>
                  <path fill="none" stroke="white" stroke-width="1.5" d="M0,-3.0v7 M-2.5,-0.5L0,-3.0L2.5,-0.5"/>
                </g>
                <g id="arrowLeft" xlink:href="#dirArrow" transform="rotate(270) translate(-36 17)" onmousedown="handlePan(-1,0)">
                  <use xlink:href="#rim" fill="#404040">
                        <set attributeName="fill" to="#808080" begin="arrowLeft.mouseover" end="arrowLeft.mouseout"/>
                  </use>
                  <path fill="none" stroke="white" stroke-width="1.5" d="M0,-3.0v7 M-2.5,-0.5L0,-3.0L2.5,-0.5"/>
                </g>
        </g>
        <svg viewBox="0 0 15 15" width="100%" height="30px" preserveAspectRatio="xMaxYMin meet">
         <g id="arrow_out" transform="scale(0.3 0.3)">
          <a xlink:href="displayobject_8h__dep__incl_org.svg" target="_base">
           <rect id="button" ry="5" rx="5" y="6" x="6" height="38" width="38"
                fill="#f2f5e9" fill-opacity="0.5" stroke="#606060" stroke-width="1.0"/>
           <path id="arrow"
             d="M 11.500037,31.436501 C 11.940474,20.09759 22.043105,11.32322 32.158766,21.979434 L 37.068811,17.246167 C 37.068811,17.246167 37.088388,32 37.088388,32 L 22.160133,31.978069 C 22.160133,31.978069 26.997745,27.140456 26.997745,27.140456 C 18.528582,18.264221 13.291696,25.230495 11.500037,31.436501 z"
             style="fill:#404040;"/>
          </a>
         </g>
        </svg>
</svg>
