<?xml version="1.0" encoding="UTF-8" standalone="no"?>
<!DOCTYPE svg PUBLIC "-//W3C//DTD SVG 1.1//EN"
 "http://www.w3.org/Graphics/SVG/1.1/DTD/svg11.dtd">
<!-- Generated by graphviz version 2.38.0 (20140413.2041)
 -->
<!-- Title: /home/ient/YUViewOrig/YUView/source/FileInfoGroupBox.h Pages: 1 -->
<!--zoomable 530 -->
<svg id="main" version="1.1" xmlns="http://www.w3.org/2000/svg" xmlns:xlink="http://www.w3.org/1999/xlink" xml:space="preserve" onload="init(evt)">
<style type="text/css"><![CDATA[
.edge:hover path { stroke: red; }
.edge:hover polygon { stroke: red; fill: red; }
]]></style>
<script type="text/javascript"><![CDATA[
var edges = document.getElementsByTagName('g');
if (edges && edges.length) {
  for (var i=0;i<edges.length;i++) {
    if (edges[i].id.substr(0,4)=='edge') {
      edges[i].setAttribute('class','edge');
    }
  }
}
]]></script>
        <defs>
                <circle id="rim" cx="0" cy="0" r="7"/>
                <circle id="rim2" cx="0" cy="0" r="3.5"/>
                <g id="zoomPlus">
                        <use xlink:href="#rim" fill="#404040">
                                <set attributeName="fill" to="#808080" begin="zoomplus.mouseover" end="zoomplus.mouseout"/>
                        </use>
                        <path d="M-4,0h8M0,-4v8" fill="none" stroke="white" stroke-width="1.5" pointer-events="none"/>
                </g>
                <g id="zoomMin">
                        <use xlink:href="#rim" fill="#404040">
                                <set attributeName="fill" to="#808080" begin="zoomminus.mouseover" end="zoomminus.mouseout"/>
                        </use>
                        <path d="M-4,0h8" fill="none" stroke="white" stroke-width="1.5" pointer-events="none"/>
                </g>
                <g id="dirArrow">
                        <path fill="none" stroke="white" stroke-width="1.5" d="M0,-3.0v7 M-2.5,-0.5L0,-3.0L2.5,-0.5"/>
                </g>
               <g id="resetDef">
                       <use xlink:href="#rim2" fill="#404040">
                               <set attributeName="fill" to="#808080" begin="reset.mouseover" end="reset.mouseout"/>
                       </use>
               </g>
        </defs>

<script type="text/javascript">
var viewWidth = 1773;
var viewHeight = 530;
var sectionId = 'dynsection-1';
</script>
<script xlink:href="svgpan.js"/>
<svg id="graph" class="graph">
<g id="viewport">
<title>/home/ient/YUViewOrig/YUView/source/FileInfoGroupBox.h</title>
<polygon fill="white" stroke="none" points="-4,4 -4,-526 1769,-526 1769,4 -4,4"/>
<!-- Node1 -->
<g id="node1" class="node"><title>Node1</title>
<polygon fill="#bfbfbf" stroke="black" points="1143.5,-480.5 1143.5,-521.5 1292.5,-521.5 1292.5,-480.5 1143.5,-480.5"/>
<text text-anchor="start" x="1151.5" y="-509.5" font-family="Helvetica,sans-Serif" font-size="10.00">/home/ient/YUViewOrig</text>
<text text-anchor="start" x="1151.5" y="-498.5" font-family="Helvetica,sans-Serif" font-size="10.00">/YUView/source/FileInfoGroup</text>
<text text-anchor="middle" x="1218" y="-487.5" font-family="Helvetica,sans-Serif" font-size="10.00">Box.h</text>
</g>
<!-- Node2 -->
<g id="node2" class="node"><title>Node2</title>
<g id="a_node2"><a xlink:href="displayobject_8h.html" target="_top" xlink:title="/home/ient/YUViewOrig\l/YUView/source/displayobject.h">
<polygon fill="white" stroke="black" points="918,-408 918,-438 1074,-438 1074,-408 918,-408"/>
<text text-anchor="start" x="926" y="-426" font-family="Helvetica,sans-Serif" font-size="10.00">/home/ient/YUViewOrig</text>
<text text-anchor="middle" x="996" y="-415" font-family="Helvetica,sans-Serif" font-size="10.00">/YUView/source/displayobject.h</text>
</a>
</g>
</g>
<!-- Node1&#45;&gt;Node2 -->
<g id="edge1" class="edge"><title>Node1&#45;&gt;Node2</title>
<path fill="none" stroke="midnightblue" d="M1151.1,-477.096C1114.03,-464.407 1069.14,-449.038 1037.21,-438.106"/>
<polygon fill="midnightblue" stroke="midnightblue" points="1150.23,-480.5 1160.83,-480.428 1152.5,-473.878 1150.23,-480.5"/>
</g>
<!-- Node6 -->
<g id="node6" class="node"><title>Node6</title>
<g id="a_node6"><a xlink:href="playlistitem_8h.html" target="_top" xlink:title="/home/ient/YUViewOrig\l/YUView/source/playlistitem.h">
<polygon fill="white" stroke="black" points="1033.5,-201.5 1033.5,-231.5 1182.5,-231.5 1182.5,-201.5 1033.5,-201.5"/>
<text text-anchor="start" x="1041.5" y="-219.5" font-family="Helvetica,sans-Serif" font-size="10.00">/home/ient/YUViewOrig</text>
<text text-anchor="middle" x="1108" y="-208.5" font-family="Helvetica,sans-Serif" font-size="10.00">/YUView/source/playlistitem.h</text>
</a>
</g>
</g>
<!-- Node1&#45;&gt;Node6 -->
<g id="edge47" class="edge"><title>Node1&#45;&gt;Node6</title>
<path fill="none" stroke="midnightblue" d="M1219.29,-470.168C1219.71,-436.18 1217.16,-379.579 1199,-335 1181.67,-292.466 1144.45,-252.274 1123.37,-231.731"/>
<polygon fill="midnightblue" stroke="midnightblue" points="1215.79,-470.29 1219.07,-480.365 1222.79,-470.445 1215.79,-470.29"/>
</g>
<!-- Node30 -->
<g id="node30" class="node"><title>Node30</title>
<g id="a_node30"><a xlink:href="FileInfoGroupBox_8cpp.html" target="_top" xlink:title="/home/ient/YUViewOrig\l/YUView/source/FileInfoGroup\lBox.cpp">
<polygon fill="white" stroke="black" points="1245.5,-402.5 1245.5,-443.5 1394.5,-443.5 1394.5,-402.5 1245.5,-402.5"/>
<text text-anchor="start" x="1253.5" y="-431.5" font-family="Helvetica,sans-Serif" font-size="10.00">/home/ient/YUViewOrig</text>
<text text-anchor="start" x="1253.5" y="-420.5" font-family="Helvetica,sans-Serif" font-size="10.00">/YUView/source/FileInfoGroup</text>
<text text-anchor="middle" x="1320" y="-409.5" font-family="Helvetica,sans-Serif" font-size="10.00">Box.cpp</text>
</a>
</g>
</g>
<!-- Node1&#45;&gt;Node30 -->
<g id="edge48" class="edge"><title>Node1&#45;&gt;Node30</title>
<path fill="none" stroke="midnightblue" d="M1252.42,-474.35C1265.95,-464.272 1281.22,-452.893 1293.82,-443.506"/>
<polygon fill="midnightblue" stroke="midnightblue" points="1250.2,-471.647 1244.27,-480.428 1254.38,-477.26 1250.2,-471.647"/>
</g>
<!-- Node3 -->
<g id="node3" class="node"><title>Node3</title>
<g id="a_node3"><a xlink:href="frameobject_8h.html" target="_top" xlink:title="/home/ient/YUViewOrig\l/YUView/source/frameobject.h">
<polygon fill="white" stroke="black" points="757,-335.5 757,-365.5 907,-365.5 907,-335.5 757,-335.5"/>
<text text-anchor="start" x="765" y="-353.5" font-family="Helvetica,sans-Serif" font-size="10.00">/home/ient/YUViewOrig</text>
<text text-anchor="middle" x="832" y="-342.5" font-family="Helvetica,sans-Serif" font-size="10.00">/YUView/source/frameobject.h</text>
</a>
</g>
</g>
<!-- Node2&#45;&gt;Node3 -->
<g id="edge2" class="edge"><title>Node2&#45;&gt;Node3</title>
<path fill="none" stroke="midnightblue" d="M953.763,-403.843C926.037,-391.924 890.308,-376.566 864.737,-365.573"/>
<polygon fill="midnightblue" stroke="midnightblue" points="952.637,-407.169 963.206,-407.903 955.401,-400.738 952.637,-407.169"/>
</g>
<!-- Node2&#45;&gt;Node6 -->
<g id="edge46" class="edge"><title>Node2&#45;&gt;Node6</title>
<path fill="none" stroke="midnightblue" d="M997.936,-397.821C1000.09,-379.806 1004.61,-354.977 1014,-335 1033.89,-292.68 1071.92,-252.095 1093,-231.51"/>
<polygon fill="midnightblue" stroke="midnightblue" points="994.451,-397.493 996.897,-407.801 1001.41,-398.217 994.451,-397.493"/>
</g>
<!-- Node18 -->
<g id="node18" class="node"><title>Node18</title>
<g id="a_node18"><a xlink:href="displayobject_8cpp.html" target="_top" xlink:title="/home/ient/YUViewOrig\l/YUView/source/displayobject.cpp">
<polygon fill="white" stroke="black" points="1023.5,-335.5 1023.5,-365.5 1190.5,-365.5 1190.5,-335.5 1023.5,-335.5"/>
<text text-anchor="start" x="1031.5" y="-353.5" font-family="Helvetica,sans-Serif" font-size="10.00">/home/ient/YUViewOrig</text>
<text text-anchor="middle" x="1107" y="-342.5" font-family="Helvetica,sans-Serif" font-size="10.00">/YUView/source/displayobject.cpp</text>
</a>
</g>
</g>
<!-- Node2&#45;&gt;Node18 -->
<g id="edge24" class="edge"><title>Node2&#45;&gt;Node18</title>
<path fill="none" stroke="midnightblue" d="M1026.82,-402.422C1045.24,-390.724 1068.22,-376.134 1084.84,-365.573"/>
<polygon fill="midnightblue" stroke="midnightblue" points="1024.76,-399.587 1018.2,-407.903 1028.51,-405.496 1024.76,-399.587"/>
</g>
<!-- Node19 -->
<g id="node19" class="node"><title>Node19</title>
<g id="a_node19"><a xlink:href="displaywidget_8h.html" target="_top" xlink:title="/home/ient/YUViewOrig\l/YUView/source/displaywidget.h">
<polygon fill="white" stroke="black" points="372,-201.5 372,-231.5 530,-231.5 530,-201.5 372,-201.5"/>
<text text-anchor="start" x="380" y="-219.5" font-family="Helvetica,sans-Serif" font-size="10.00">/home/ient/YUViewOrig</text>
<text text-anchor="middle" x="451" y="-208.5" font-family="Helvetica,sans-Serif" font-size="10.00">/YUView/source/displaywidget.h</text>
</a>
</g>
</g>
<!-- Node2&#45;&gt;Node19 -->
<g id="edge25" class="edge"><title>Node2&#45;&gt;Node19</title>
<path fill="none" stroke="midnightblue" d="M907.749,-409.661C815.162,-393.999 667.583,-361.193 554,-299 519.399,-280.054 484.525,-249.495 465.549,-231.671"/>
<polygon fill="midnightblue" stroke="midnightblue" points="907.208,-413.119 917.647,-411.306 908.356,-406.214 907.208,-413.119"/>
</g>
<!-- Node20 -->
<g id="node20" class="node"><title>Node20</title>
<g id="a_node20"><a xlink:href="statisticsobject_8h.html" target="_top" xlink:title="/home/ient/YUViewOrig\l/YUView/source/statisticsobject.h">
<polygon fill="white" stroke="black" points="326.5,-268.5 326.5,-298.5 491.5,-298.5 491.5,-268.5 326.5,-268.5"/>
<text text-anchor="start" x="334.5" y="-286.5" font-family="Helvetica,sans-Serif" font-size="10.00">/home/ient/YUViewOrig</text>
<text text-anchor="middle" x="409" y="-275.5" font-family="Helvetica,sans-Serif" font-size="10.00">/YUView/source/statisticsobject.h</text>
</a>
</g>
</g>
<!-- Node2&#45;&gt;Node20 -->
<g id="edge30" class="edge"><title>Node2&#45;&gt;Node20</title>
<path fill="none" stroke="midnightblue" d="M907.732,-418.012C786.689,-411.509 576.191,-396.198 506,-366 470.237,-350.614 437.558,-317.544 420.794,-298.598"/>
<polygon fill="midnightblue" stroke="midnightblue" points="907.553,-421.507 917.723,-418.54 907.922,-414.517 907.553,-421.507"/>
</g>
<!-- Node24 -->
<g id="node24" class="node"><title>Node24</title>
<g id="a_node24"><a xlink:href="textobject_8h.html" target="_top" xlink:title="/home/ient/YUViewOrig\l/YUView/source/textobject.h">
<polygon fill="white" stroke="black" points="1246,-268.5 1246,-298.5 1388,-298.5 1388,-268.5 1246,-268.5"/>
<text text-anchor="start" x="1254" y="-286.5" font-family="Helvetica,sans-Serif" font-size="10.00">/home/ient/YUViewOrig</text>
<text text-anchor="middle" x="1317" y="-275.5" font-family="Helvetica,sans-Serif" font-size="10.00">/YUView/source/textobject.h</text>
</a>
</g>
</g>
<!-- Node2&#45;&gt;Node24 -->
<g id="edge37" class="edge"><title>Node2&#45;&gt;Node24</title>
<path fill="none" stroke="midnightblue" d="M1079.4,-405.658C1116.98,-396.626 1161.29,-383.605 1199,-366 1238.25,-347.673 1278.66,-316.608 1300.52,-298.588"/>
<polygon fill="midnightblue" stroke="midnightblue" points="1078.43,-402.291 1069.49,-407.985 1080.03,-409.106 1078.43,-402.291"/>
</g>
<!-- Node4 -->
<g id="node4" class="node"><title>Node4</title>
<g id="a_node4"><a xlink:href="differenceobject_8h.html" target="_top" xlink:title="/home/ient/YUViewOrig\l/YUView/source/differenceobject.h">
<polygon fill="white" stroke="black" points="804,-268.5 804,-298.5 972,-298.5 972,-268.5 804,-268.5"/>
<text text-anchor="start" x="812" y="-286.5" font-family="Helvetica,sans-Serif" font-size="10.00">/home/ient/YUViewOrig</text>
<text text-anchor="middle" x="888" y="-275.5" font-family="Helvetica,sans-Serif" font-size="10.00">/YUView/source/differenceobject.h</text>
</a>
</g>
</g>
<!-- Node3&#45;&gt;Node4 -->
<g id="edge3" class="edge"><title>Node3&#45;&gt;Node4</title>
<path fill="none" stroke="midnightblue" d="M850.75,-327.736C859.036,-318.119 868.539,-307.089 875.873,-298.577"/>
<polygon fill="midnightblue" stroke="midnightblue" points="848.027,-325.535 844.151,-335.396 853.33,-330.104 848.027,-325.535"/>
</g>
<!-- Node3&#45;&gt;Node6 -->
<g id="edge21" class="edge"><title>Node3&#45;&gt;Node6</title>
<path fill="none" stroke="midnightblue" d="M895.728,-332.485C922.776,-324.108 954.185,-312.814 981,-299 1001.94,-288.21 1004.33,-280.97 1024,-268 1043.6,-255.073 1066.48,-241.408 1083.41,-231.558"/>
<polygon fill="midnightblue" stroke="midnightblue" points="894.533,-329.19 885.977,-335.438 896.562,-335.889 894.533,-329.19"/>
</g>
<!-- Node15 -->
<g id="node15" class="node"><title>Node15</title>
<g id="a_node15"><a xlink:href="displaysplitwidget_8h.html" target="_top" xlink:title="/home/ient/YUViewOrig\l/YUView/source/displaysplitwidget.h">
<polygon fill="white" stroke="black" points="566,-134.5 566,-164.5 742,-164.5 742,-134.5 566,-134.5"/>
<text text-anchor="start" x="574" y="-152.5" font-family="Helvetica,sans-Serif" font-size="10.00">/home/ient/YUViewOrig</text>
<text text-anchor="middle" x="654" y="-141.5" font-family="Helvetica,sans-Serif" font-size="10.00">/YUView/source/displaysplitwidget.h</text>
</a>
</g>
</g>
<!-- Node3&#45;&gt;Node15 -->
<g id="edge18" class="edge"><title>Node3&#45;&gt;Node15</title>
<path fill="none" stroke="midnightblue" d="M812.433,-327.625C775.699,-286.556 697.355,-198.97 666.685,-164.682"/>
<polygon fill="midnightblue" stroke="midnightblue" points="809.923,-330.068 819.199,-335.188 815.14,-325.402 809.923,-330.068"/>
</g>
<!-- Node16 -->
<g id="node16" class="node"><title>Node16</title>
<g id="a_node16"><a xlink:href="displaywidget_8cpp.html" target="_top" xlink:title="/home/ient/YUViewOrig\l/YUView/source/displaywidget.cpp">
<polygon fill="white" stroke="black" points="379.5,-134.5 379.5,-164.5 548.5,-164.5 548.5,-134.5 379.5,-134.5"/>
<text text-anchor="start" x="387.5" y="-152.5" font-family="Helvetica,sans-Serif" font-size="10.00">/home/ient/YUViewOrig</text>
<text text-anchor="middle" x="464" y="-141.5" font-family="Helvetica,sans-Serif" font-size="10.00">/YUView/source/displaywidget.cpp</text>
</a>
</g>
</g>
<!-- Node3&#45;&gt;Node16 -->
<g id="edge22" class="edge"><title>Node3&#45;&gt;Node16</title>
<path fill="none" stroke="midnightblue" d="M746.667,-341.448C682.859,-333.833 602.431,-320.342 577,-299 541.216,-268.97 568.158,-237.499 539,-201 526.753,-185.67 508.585,-173.27 493.197,-164.594"/>
<polygon fill="midnightblue" stroke="midnightblue" points="746.417,-344.942 756.754,-342.62 747.225,-337.989 746.417,-344.942"/>
</g>
<!-- Node17 -->
<g id="node17" class="node"><title>Node17</title>
<g id="a_node17"><a xlink:href="frameobject_8cpp.html" target="_top" xlink:title="/home/ient/YUViewOrig\l/YUView/source/frameobject.cpp">
<polygon fill="white" stroke="black" points="586.5,-268.5 586.5,-298.5 747.5,-298.5 747.5,-268.5 586.5,-268.5"/>
<text text-anchor="start" x="594.5" y="-286.5" font-family="Helvetica,sans-Serif" font-size="10.00">/home/ient/YUViewOrig</text>
<text text-anchor="middle" x="667" y="-275.5" font-family="Helvetica,sans-Serif" font-size="10.00">/YUView/source/frameobject.cpp</text>
</a>
</g>
</g>
<!-- Node3&#45;&gt;Node17 -->
<g id="edge23" class="edge"><title>Node3&#45;&gt;Node17</title>
<path fill="none" stroke="midnightblue" d="M786.768,-331.682C760.306,-321.257 727.366,-308.281 702.733,-298.577"/>
<polygon fill="midnightblue" stroke="midnightblue" points="785.611,-334.987 796.197,-335.396 788.176,-328.474 785.611,-334.987"/>
</g>
<!-- Node5 -->
<g id="node5" class="node"><title>Node5</title>
<g id="a_node5"><a xlink:href="differenceobject_8cpp.html" target="_top" xlink:title="/home/ient/YUViewOrig\l/YUView/source/differenceobject.cpp">
<polygon fill="white" stroke="black" points="798.5,-201.5 798.5,-231.5 977.5,-231.5 977.5,-201.5 798.5,-201.5"/>
<text text-anchor="start" x="806.5" y="-219.5" font-family="Helvetica,sans-Serif" font-size="10.00">/home/ient/YUViewOrig</text>
<text text-anchor="middle" x="888" y="-208.5" font-family="Helvetica,sans-Serif" font-size="10.00">/YUView/source/differenceobject.cpp</text>
</a>
</g>
</g>
<!-- Node4&#45;&gt;Node5 -->
<g id="edge4" class="edge"><title>Node4&#45;&gt;Node5</title>
<path fill="none" stroke="midnightblue" d="M888,-258.108C888,-249.154 888,-239.323 888,-231.577"/>
<polygon fill="midnightblue" stroke="midnightblue" points="884.5,-258.396 888,-268.396 891.5,-258.396 884.5,-258.396"/>
</g>
<!-- Node4&#45;&gt;Node6 -->
<g id="edge5" class="edge"><title>Node4&#45;&gt;Node6</title>
<path fill="none" stroke="midnightblue" d="M945.269,-265.58C981.001,-255.022 1026.46,-241.592 1060.24,-231.611"/>
<polygon fill="midnightblue" stroke="midnightblue" points="944.064,-262.286 935.466,-268.476 946.048,-268.999 944.064,-262.286"/>
</g>
<!-- Node9 -->
<g id="node9" class="node"><title>Node9</title>
<g id="a_node9"><a xlink:href="mainwindow_8cpp.html" target="_top" xlink:title="/home/ient/YUViewOrig\l/YUView/source/mainwindow.cpp">
<polygon fill="white" stroke="black" points="545,-67.5 545,-97.5 709,-97.5 709,-67.5 545,-67.5"/>
<text text-anchor="start" x="553" y="-85.5" font-family="Helvetica,sans-Serif" font-size="10.00">/home/ient/YUViewOrig</text>
<text text-anchor="middle" x="627" y="-74.5" font-family="Helvetica,sans-Serif" font-size="10.00">/YUView/source/mainwindow.cpp</text>
</a>
</g>
</g>
<!-- Node4&#45;&gt;Node9 -->
<g id="edge16" class="edge"><title>Node4&#45;&gt;Node9</title>
<path fill="none" stroke="midnightblue" d="M834.94,-264.121C818.487,-256.314 801.431,-245.766 789,-232 757.691,-197.33 783.753,-167.31 751,-134 734.051,-116.763 710.408,-105.196 688.307,-97.538"/>
<polygon fill="midnightblue" stroke="midnightblue" points="833.961,-267.517 844.519,-268.403 836.819,-261.126 833.961,-267.517"/>
</g>
<!-- Node14 -->
<g id="node14" class="node"><title>Node14</title>
<g id="a_node14"><a xlink:href="playlistitem_8cpp.html" target="_top" xlink:title="/home/ient/YUViewOrig\l/YUView/source/playlistitem.cpp">
<polygon fill="white" stroke="black" points="843.5,-134.5 843.5,-164.5 1002.5,-164.5 1002.5,-134.5 843.5,-134.5"/>
<text text-anchor="start" x="851.5" y="-152.5" font-family="Helvetica,sans-Serif" font-size="10.00">/home/ient/YUViewOrig</text>
<text text-anchor="middle" x="923" y="-141.5" font-family="Helvetica,sans-Serif" font-size="10.00">/YUView/source/playlistitem.cpp</text>
</a>
</g>
</g>
<!-- Node4&#45;&gt;Node14 -->
<g id="edge17" class="edge"><title>Node4&#45;&gt;Node14</title>
<path fill="none" stroke="midnightblue" d="M948.429,-264.11C963.252,-256.593 977.337,-246.21 986,-232 993.172,-220.236 991.962,-213.421 986,-201 978.539,-185.456 963.704,-173.191 950.303,-164.642"/>
<polygon fill="midnightblue" stroke="midnightblue" points="946.737,-261.037 939.146,-268.428 949.689,-267.384 946.737,-261.037"/>
</g>
<!-- Node7 -->
<g id="node7" class="node"><title>Node7</title>
<g id="a_node7"><a xlink:href="mainwindow_8h.html" target="_top" xlink:title="/home/ient/YUViewOrig\l/YUView/source/mainwindow.h">
<polygon fill="white" stroke="black" points="1058.5,-134.5 1058.5,-164.5 1211.5,-164.5 1211.5,-134.5 1058.5,-134.5"/>
<text text-anchor="start" x="1066.5" y="-152.5" font-family="Helvetica,sans-Serif" font-size="10.00">/home/ient/YUViewOrig</text>
<text text-anchor="middle" x="1135" y="-141.5" font-family="Helvetica,sans-Serif" font-size="10.00">/YUView/source/mainwindow.h</text>
</a>
</g>
</g>
<!-- Node6&#45;&gt;Node7 -->
<g id="edge6" class="edge"><title>Node6&#45;&gt;Node7</title>
<path fill="none" stroke="midnightblue" d="M1117.77,-191.991C1121.58,-182.804 1125.83,-172.578 1129.15,-164.577"/>
<polygon fill="midnightblue" stroke="midnightblue" points="1114.46,-190.818 1113.86,-201.396 1120.93,-193.504 1114.46,-190.818"/>
</g>
<!-- Node6&#45;&gt;Node9 -->
<g id="edge13" class="edge"><title>Node6&#45;&gt;Node9</title>
<path fill="none" stroke="midnightblue" d="M1083.34,-194.486C1055.31,-170.65 1013.15,-134.934 1011,-134 890.699,-81.6396 847.915,-116.326 718,-98 715.149,-97.5978 712.248,-97.1805 709.32,-96.7521"/>
<polygon fill="midnightblue" stroke="midnightblue" points="1081.29,-197.337 1091.17,-201.153 1085.82,-192.007 1081.29,-197.337"/>
</g>
<!-- Node10 -->
<g id="node10" class="node"><title>Node10</title>
<g id="a_node10"><a xlink:href="playlisttreewidget_8cpp.html" target="_top" xlink:title="/home/ient/YUViewOrig\l/YUView/source/playlisttreewidget.cpp">
<polygon fill="white" stroke="black" points="1279.5,-67.5 1279.5,-97.5 1464.5,-97.5 1464.5,-67.5 1279.5,-67.5"/>
<text text-anchor="start" x="1287.5" y="-85.5" font-family="Helvetica,sans-Serif" font-size="10.00">/home/ient/YUViewOrig</text>
<text text-anchor="middle" x="1372" y="-74.5" font-family="Helvetica,sans-Serif" font-size="10.00">/YUView/source/playlisttreewidget.cpp</text>
</a>
</g>
</g>
<!-- Node6&#45;&gt;Node10 -->
<g id="edge15" class="edge"><title>Node6&#45;&gt;Node10</title>
<path fill="none" stroke="midnightblue" d="M1155.18,-197.695C1176,-189.018 1200.38,-177.709 1221,-165 1239.56,-153.565 1240.44,-145.435 1259,-134 1282.78,-119.345 1311.55,-106.551 1334.11,-97.5075"/>
<polygon fill="midnightblue" stroke="midnightblue" points="1153.83,-194.469 1145.89,-201.492 1156.47,-200.949 1153.83,-194.469"/>
</g>
<!-- Node6&#45;&gt;Node14 -->
<g id="edge14" class="edge"><title>Node6&#45;&gt;Node14</title>
<path fill="none" stroke="midnightblue" d="M1058.06,-197.955C1028.26,-187.485 990.925,-174.366 963.064,-164.577"/>
<polygon fill="midnightblue" stroke="midnightblue" points="1057.26,-201.383 1067.86,-201.396 1059.58,-194.779 1057.26,-201.383"/>
</g>
<!-- Node8 -->
<g id="node8" class="node"><title>Node8</title>
<g id="a_node8"><a xlink:href="displaysplitwidget_8cpp.html" target="_top" xlink:title="/home/ient/YUViewOrig\l/YUView/source/displaysplitwidget.cpp">
<polygon fill="white" stroke="black" points="727.5,-67.5 727.5,-97.5 914.5,-97.5 914.5,-67.5 727.5,-67.5"/>
<text text-anchor="start" x="735.5" y="-85.5" font-family="Helvetica,sans-Serif" font-size="10.00">/home/ient/YUViewOrig</text>
<text text-anchor="middle" x="821" y="-74.5" font-family="Helvetica,sans-Serif" font-size="10.00">/YUView/source/displaysplitwidget.cpp</text>
</a>
</g>
</g>
<!-- Node7&#45;&gt;Node8 -->
<g id="edge7" class="edge"><title>Node7&#45;&gt;Node8</title>
<path fill="none" stroke="midnightblue" d="M1057.14,-132.382C1005.49,-121.691 938.37,-107.796 888.896,-97.5549"/>
<polygon fill="midnightblue" stroke="midnightblue" points="1056.75,-135.876 1067.25,-134.476 1058.17,-129.021 1056.75,-135.876"/>
</g>
<!-- Node7&#45;&gt;Node9 -->
<g id="edge8" class="edge"><title>Node7&#45;&gt;Node9</title>
<path fill="none" stroke="midnightblue" d="M1047.91,-134.533C1046.6,-134.352 1045.29,-134.174 1044,-134 899.537,-114.526 862.463,-117.474 718,-98 715.146,-97.6153 712.244,-97.213 709.314,-96.7975"/>
<polygon fill="midnightblue" stroke="midnightblue" points="1047.69,-138.038 1058.08,-135.978 1048.68,-131.107 1047.69,-138.038"/>
</g>
<!-- Node7&#45;&gt;Node10 -->
<g id="edge9" class="edge"><title>Node7&#45;&gt;Node10</title>
<path fill="none" stroke="midnightblue" d="M1196.2,-131.715C1234.77,-121.137 1284,-107.635 1320.55,-97.6109"/>
<polygon fill="midnightblue" stroke="midnightblue" points="1194.85,-128.456 1186.13,-134.476 1196.7,-135.206 1194.85,-128.456"/>
</g>
<!-- Node11 -->
<g id="node11" class="node"><title>Node11</title>
<g id="a_node11"><a xlink:href="statslistview_8cpp.html" target="_top" xlink:title="/home/ient/YUViewOrig\l/YUView/source/statslistview.cpp">
<polygon fill="white" stroke="black" points="933,-67.5 933,-97.5 1097,-97.5 1097,-67.5 933,-67.5"/>
<text text-anchor="start" x="941" y="-85.5" font-family="Helvetica,sans-Serif" font-size="10.00">/home/ient/YUViewOrig</text>
<text text-anchor="middle" x="1015" y="-74.5" font-family="Helvetica,sans-Serif" font-size="10.00">/YUView/source/statslistview.cpp</text>
</a>
</g>
</g>
<!-- Node7&#45;&gt;Node11 -->
<g id="edge10" class="edge"><title>Node7&#45;&gt;Node11</title>
<path fill="none" stroke="midnightblue" d="M1100.06,-129.575C1081.18,-119.35 1058.27,-106.94 1040.99,-97.5765"/>
<polygon fill="midnightblue" stroke="midnightblue" points="1098.5,-132.711 1108.96,-134.396 1101.84,-126.556 1098.5,-132.711"/>
</g>
<!-- Node12 -->
<g id="node12" class="node"><title>Node12</title>
<g id="a_node12"><a xlink:href="yuviewapp_8h.html" target="_top" xlink:title="/home/ient/YUViewOrig\l/YUView/source/yuviewapp.h">
<polygon fill="white" stroke="black" points="1115,-67.5 1115,-97.5 1261,-97.5 1261,-67.5 1115,-67.5"/>
<text text-anchor="start" x="1123" y="-85.5" font-family="Helvetica,sans-Serif" font-size="10.00">/home/ient/YUViewOrig</text>
<text text-anchor="middle" x="1188" y="-74.5" font-family="Helvetica,sans-Serif" font-size="10.00">/YUView/source/yuviewapp.h</text>
</a>
</g>
</g>
<!-- Node7&#45;&gt;Node12 -->
<g id="edge11" class="edge"><title>Node7&#45;&gt;Node12</title>
<path fill="none" stroke="midnightblue" d="M1152.98,-126.447C1160.77,-116.899 1169.65,-106.004 1176.52,-97.5765"/>
<polygon fill="midnightblue" stroke="midnightblue" points="1150.11,-124.434 1146.5,-134.396 1155.53,-128.858 1150.11,-124.434"/>
</g>
<!-- Node13 -->
<g id="node13" class="node"><title>Node13</title>
<g id="a_node13"><a xlink:href="yuviewapp_8cpp.html" target="_top" xlink:title="/home/ient/YUViewOrig\l/YUView/source/yuviewapp.cpp">
<polygon fill="white" stroke="black" points="1110,-0.5 1110,-30.5 1266,-30.5 1266,-0.5 1110,-0.5"/>
<text text-anchor="start" x="1118" y="-18.5" font-family="Helvetica,sans-Serif" font-size="10.00">/home/ient/YUViewOrig</text>
<text text-anchor="middle" x="1188" y="-7.5" font-family="Helvetica,sans-Serif" font-size="10.00">/YUView/source/yuviewapp.cpp</text>
</a>
</g>
</g>
<!-- Node12&#45;&gt;Node13 -->
<g id="edge12" class="edge"><title>Node12&#45;&gt;Node13</title>
<path fill="none" stroke="midnightblue" d="M1188,-57.1081C1188,-48.1539 1188,-38.3227 1188,-30.5765"/>
<polygon fill="midnightblue" stroke="midnightblue" points="1184.5,-57.3959 1188,-67.396 1191.5,-57.396 1184.5,-57.3959"/>
</g>
<!-- Node15&#45;&gt;Node8 -->
<g id="edge19" class="edge"><title>Node15&#45;&gt;Node8</title>
<path fill="none" stroke="midnightblue" d="M699.78,-130.682C726.563,-120.257 759.902,-107.281 784.834,-97.5765"/>
<polygon fill="midnightblue" stroke="midnightblue" points="698.286,-127.507 690.237,-134.396 700.825,-134.03 698.286,-127.507"/>
</g>
<!-- Node15&#45;&gt;Node9 -->
<g id="edge20" class="edge"><title>Node15&#45;&gt;Node9</title>
<path fill="none" stroke="midnightblue" d="M644.235,-124.991C640.419,-115.804 636.171,-105.578 632.847,-97.5765"/>
<polygon fill="midnightblue" stroke="midnightblue" points="641.073,-126.504 648.141,-134.396 647.538,-123.818 641.073,-126.504"/>
</g>
<!-- Node19&#45;&gt;Node7 -->
<g id="edge27" class="edge"><title>Node19&#45;&gt;Node7</title>
<path fill="none" stroke="midnightblue" d="M540.466,-208.167C651.074,-198.931 845.046,-182.183 1011,-165 1026.31,-163.415 1042.66,-161.594 1058.3,-159.79"/>
<polygon fill="midnightblue" stroke="midnightblue" points="540.029,-204.691 530.354,-209.01 540.61,-211.667 540.029,-204.691"/>
</g>
<!-- Node19&#45;&gt;Node9 -->
<g id="edge29" class="edge"><title>Node19&#45;&gt;Node9</title>
<path fill="none" stroke="midnightblue" d="M403.239,-196.448C390.111,-188.741 377.448,-178.421 370,-165 363.314,-152.953 361.247,-144.64 370,-134 391.918,-107.356 478.156,-94.5546 544.758,-88.5474"/>
<polygon fill="midnightblue" stroke="midnightblue" points="401.883,-199.693 412.344,-201.371 405.212,-193.536 401.883,-199.693"/>
</g>
<!-- Node19&#45;&gt;Node15 -->
<g id="edge26" class="edge"><title>Node19&#45;&gt;Node15</title>
<path fill="none" stroke="midnightblue" d="M504.942,-198.228C537.781,-187.713 579.2,-174.451 610.038,-164.577"/>
<polygon fill="midnightblue" stroke="midnightblue" points="503.504,-195.013 495.048,-201.396 505.639,-201.68 503.504,-195.013"/>
</g>
<!-- Node19&#45;&gt;Node16 -->
<g id="edge28" class="edge"><title>Node19&#45;&gt;Node16</title>
<path fill="none" stroke="midnightblue" d="M455.819,-191.403C457.626,-182.37 459.618,-172.408 461.185,-164.577"/>
<polygon fill="midnightblue" stroke="midnightblue" points="452.35,-190.904 453.821,-201.396 459.214,-192.277 452.35,-190.904"/>
</g>
<!-- Node20&#45;&gt;Node6 -->
<g id="edge32" class="edge"><title>Node20&#45;&gt;Node6</title>
<path fill="none" stroke="midnightblue" d="M501.78,-274.456C658.816,-260.829 962.357,-234.439 986,-232 1001.28,-230.424 1017.61,-228.588 1033.2,-226.762"/>
<polygon fill="midnightblue" stroke="midnightblue" points="501.312,-270.983 491.652,-275.334 501.917,-277.957 501.312,-270.983"/>
</g>
<!-- Node20&#45;&gt;Node19 -->
<g id="edge31" class="edge"><title>Node20&#45;&gt;Node19</title>
<path fill="none" stroke="midnightblue" d="M423.624,-259.867C429.703,-250.459 436.569,-239.833 441.904,-231.577"/>
<polygon fill="midnightblue" stroke="midnightblue" points="420.601,-258.097 418.113,-268.396 426.48,-261.896 420.601,-258.097"/>
</g>
<!-- Node21 -->
<g id="node21" class="node"><title>Node21</title>
<g id="a_node21"><a xlink:href="statslistmodel_8h.html" target="_top" xlink:title="/home/ient/YUViewOrig\l/YUView/source/statslistmodel.h">
<polygon fill="white" stroke="black" points="194,-201.5 194,-231.5 354,-231.5 354,-201.5 194,-201.5"/>
<text text-anchor="start" x="202" y="-219.5" font-family="Helvetica,sans-Serif" font-size="10.00">/home/ient/YUViewOrig</text>
<text text-anchor="middle" x="274" y="-208.5" font-family="Helvetica,sans-Serif" font-size="10.00">/YUView/source/statslistmodel.h</text>
</a>
</g>
</g>
<!-- Node20&#45;&gt;Node21 -->
<g id="edge33" class="edge"><title>Node20&#45;&gt;Node21</title>
<path fill="none" stroke="midnightblue" d="M370.56,-263.992C349.162,-253.689 322.948,-241.068 303.236,-231.577"/>
<polygon fill="midnightblue" stroke="midnightblue" points="369.179,-267.211 379.707,-268.396 372.215,-260.904 369.179,-267.211"/>
</g>
<!-- Node23 -->
<g id="node23" class="node"><title>Node23</title>
<g id="a_node23"><a xlink:href="statisticsobject_8cpp.html" target="_top" xlink:title="/home/ient/YUViewOrig\l/YUView/source/statisticsobject.cpp">
<polygon fill="white" stroke="black" points="0,-201.5 0,-231.5 176,-231.5 176,-201.5 0,-201.5"/>
<text text-anchor="start" x="8" y="-219.5" font-family="Helvetica,sans-Serif" font-size="10.00">/home/ient/YUViewOrig</text>
<text text-anchor="middle" x="88" y="-208.5" font-family="Helvetica,sans-Serif" font-size="10.00">/YUView/source/statisticsobject.cpp</text>
</a>
</g>
</g>
<!-- Node20&#45;&gt;Node23 -->
<g id="edge36" class="edge"><title>Node20&#45;&gt;Node23</title>
<path fill="none" stroke="midnightblue" d="M329.734,-266.449C276.89,-255.749 208.091,-241.818 157.409,-231.555"/>
<polygon fill="midnightblue" stroke="midnightblue" points="329.247,-269.922 339.743,-268.476 330.637,-263.061 329.247,-269.922"/>
</g>
<!-- Node21&#45;&gt;Node9 -->
<g id="edge34" class="edge"><title>Node21&#45;&gt;Node9</title>
<path fill="none" stroke="midnightblue" d="M291.111,-193.619C307.104,-174.763 332.713,-148.376 361,-134 418.304,-104.877 490.29,-92.4582 544.92,-87.2071"/>
<polygon fill="midnightblue" stroke="midnightblue" points="288.329,-191.491 284.665,-201.432 293.729,-195.946 288.329,-191.491"/>
</g>
<!-- Node22 -->
<g id="node22" class="node"><title>Node22</title>
<g id="a_node22"><a xlink:href="statslistmodel_8cpp.html" target="_top" xlink:title="/home/ient/YUViewOrig\l/YUView/source/statslistmodel.cpp">
<polygon fill="white" stroke="black" points="116,-134.5 116,-164.5 286,-164.5 286,-134.5 116,-134.5"/>
<text text-anchor="start" x="124" y="-152.5" font-family="Helvetica,sans-Serif" font-size="10.00">/home/ient/YUViewOrig</text>
<text text-anchor="middle" x="201" y="-141.5" font-family="Helvetica,sans-Serif" font-size="10.00">/YUView/source/statslistmodel.cpp</text>
</a>
</g>
</g>
<!-- Node21&#45;&gt;Node22 -->
<g id="edge35" class="edge"><title>Node21&#45;&gt;Node22</title>
<path fill="none" stroke="midnightblue" d="M250.525,-194.598C239.503,-184.783 226.656,-173.344 216.809,-164.577"/>
<polygon fill="midnightblue" stroke="midnightblue" points="248.364,-197.36 258.16,-201.396 253.019,-192.132 248.364,-197.36"/>
</g>
<!-- Node24&#45;&gt;Node6 -->
<g id="edge41" class="edge"><title>Node24&#45;&gt;Node6</title>
<path fill="none" stroke="midnightblue" d="M1262.16,-265.444C1228.28,-254.908 1185.33,-241.549 1153.37,-231.611"/>
<polygon fill="midnightblue" stroke="midnightblue" points="1261.32,-268.848 1271.91,-268.476 1263.4,-262.164 1261.32,-268.848"/>
</g>
<!-- Node24&#45;&gt;Node14 -->
<g id="edge44" class="edge"><title>Node24&#45;&gt;Node14</title>
<path fill="none" stroke="midnightblue" d="M1281.44,-263.407C1265.39,-254.401 1246.4,-243.191 1230,-232 1211.71,-219.52 1211.14,-210.209 1191,-201 1158.11,-185.961 1069.06,-170.889 1002.57,-161.179"/>
<polygon fill="midnightblue" stroke="midnightblue" points="1280.06,-266.647 1290.51,-268.438 1283.46,-260.526 1280.06,-266.647"/>
</g>
<!-- Node25 -->
<g id="node25" class="node"><title>Node25</title>
<g id="a_node25"><a xlink:href="edittextdialog_8h.html" target="_top" xlink:title="/home/ient/YUViewOrig\l/YUView/source/edittextdialog.h">
<polygon fill="white" stroke="black" points="1238.5,-201.5 1238.5,-231.5 1395.5,-231.5 1395.5,-201.5 1238.5,-201.5"/>
<text text-anchor="start" x="1246.5" y="-219.5" font-family="Helvetica,sans-Serif" font-size="10.00">/home/ient/YUViewOrig</text>
<text text-anchor="middle" x="1317" y="-208.5" font-family="Helvetica,sans-Serif" font-size="10.00">/YUView/source/edittextdialog.h</text>
</a>
</g>
</g>
<!-- Node24&#45;&gt;Node25 -->
<g id="edge38" class="edge"><title>Node24&#45;&gt;Node25</title>
<path fill="none" stroke="midnightblue" d="M1317,-258.108C1317,-249.154 1317,-239.323 1317,-231.577"/>
<polygon fill="midnightblue" stroke="midnightblue" points="1313.5,-258.396 1317,-268.396 1320.5,-258.396 1313.5,-258.396"/>
</g>
<!-- Node27 -->
<g id="node27" class="node"><title>Node27</title>
<g id="a_node27"><a xlink:href="frameobjectdialog_8h.html" target="_top" xlink:title="/home/ient/YUViewOrig\l/YUView/source/frameobjectdialog.h">
<polygon fill="white" stroke="black" points="1584,-201.5 1584,-231.5 1760,-231.5 1760,-201.5 1584,-201.5"/>
<text text-anchor="start" x="1592" y="-219.5" font-family="Helvetica,sans-Serif" font-size="10.00">/home/ient/YUViewOrig</text>
<text text-anchor="middle" x="1672" y="-208.5" font-family="Helvetica,sans-Serif" font-size="10.00">/YUView/source/frameobjectdialog.h</text>
</a>
</g>
</g>
<!-- Node24&#45;&gt;Node27 -->
<g id="edge42" class="edge"><title>Node24&#45;&gt;Node27</title>
<path fill="none" stroke="midnightblue" d="M1398.48,-267.581C1457.74,-256.731 1537.41,-242.143 1595.48,-231.511"/>
<polygon fill="midnightblue" stroke="midnightblue" points="1397.62,-264.181 1388.41,-269.424 1398.88,-271.066 1397.62,-264.181"/>
</g>
<!-- Node29 -->
<g id="node29" class="node"><title>Node29</title>
<g id="a_node29"><a xlink:href="textobject_8cpp.html" target="_top" xlink:title="/home/ient/YUViewOrig\l/YUView/source/textobject.cpp">
<polygon fill="white" stroke="black" points="1414,-201.5 1414,-231.5 1566,-231.5 1566,-201.5 1414,-201.5"/>
<text text-anchor="start" x="1422" y="-219.5" font-family="Helvetica,sans-Serif" font-size="10.00">/home/ient/YUViewOrig</text>
<text text-anchor="middle" x="1490" y="-208.5" font-family="Helvetica,sans-Serif" font-size="10.00">/YUView/source/textobject.cpp</text>
</a>
</g>
</g>
<!-- Node24&#45;&gt;Node29 -->
<g id="edge45" class="edge"><title>Node24&#45;&gt;Node29</title>
<path fill="none" stroke="midnightblue" d="M1364.06,-264.819C1391.87,-254.371 1426.59,-241.323 1452.53,-231.577"/>
<polygon fill="midnightblue" stroke="midnightblue" points="1362.67,-261.602 1354.54,-268.396 1365.13,-268.155 1362.67,-261.602"/>
</g>
<!-- Node25&#45;&gt;Node7 -->
<g id="edge39" class="edge"><title>Node25&#45;&gt;Node7</title>
<path fill="none" stroke="midnightblue" d="M1267.87,-197.955C1238.56,-187.485 1201.82,-174.366 1174.41,-164.577"/>
<polygon fill="midnightblue" stroke="midnightblue" points="1266.91,-201.329 1277.51,-201.396 1269.27,-194.736 1266.91,-201.329"/>
</g>
<!-- Node26 -->
<g id="node26" class="node"><title>Node26</title>
<g id="a_node26"><a xlink:href="edittextdialog_8cpp.html" target="_top" xlink:title="/home/ient/YUViewOrig\l/YUView/source/edittextdialog.cpp">
<polygon fill="white" stroke="black" points="1267.5,-134.5 1267.5,-164.5 1434.5,-164.5 1434.5,-134.5 1267.5,-134.5"/>
<text text-anchor="start" x="1275.5" y="-152.5" font-family="Helvetica,sans-Serif" font-size="10.00">/home/ient/YUViewOrig</text>
<text text-anchor="middle" x="1351" y="-141.5" font-family="Helvetica,sans-Serif" font-size="10.00">/YUView/source/edittextdialog.cpp</text>
</a>
</g>
</g>
<!-- Node25&#45;&gt;Node26 -->
<g id="edge40" class="edge"><title>Node25&#45;&gt;Node26</title>
<path fill="none" stroke="midnightblue" d="M1329.14,-192.283C1333.99,-183.022 1339.41,-172.663 1343.64,-164.577"/>
<polygon fill="midnightblue" stroke="midnightblue" points="1325.91,-190.913 1324.38,-201.396 1332.11,-194.157 1325.91,-190.913"/>
</g>
<!-- Node28 -->
<g id="node28" class="node"><title>Node28</title>
<g id="a_node28"><a xlink:href="frameobjectdialog_8cpp.html" target="_top" xlink:title="/home/ient/YUViewOrig\l/YUView/source/frameobjectdialog.cpp">
<polygon fill="white" stroke="black" points="1579,-134.5 1579,-164.5 1765,-164.5 1765,-134.5 1579,-134.5"/>
<text text-anchor="start" x="1587" y="-152.5" font-family="Helvetica,sans-Serif" font-size="10.00">/home/ient/YUViewOrig</text>
<text text-anchor="middle" x="1672" y="-141.5" font-family="Helvetica,sans-Serif" font-size="10.00">/YUView/source/frameobjectdialog.cpp</text>
</a>
</g>
</g>
<!-- Node27&#45;&gt;Node28 -->
<g id="edge43" class="edge"><title>Node27&#45;&gt;Node28</title>
<path fill="none" stroke="midnightblue" d="M1672,-191.108C1672,-182.154 1672,-172.323 1672,-164.577"/>
<polygon fill="midnightblue" stroke="midnightblue" points="1668.5,-191.396 1672,-201.396 1675.5,-191.396 1668.5,-191.396"/>
</g>
</g>
</svg>
        <g id="navigator" transform="translate(0 0)" fill="#404254">
                <rect fill="#f2f5e9" fill-opacity="0.5" stroke="#606060" stroke-width=".5" x="0" y="0" width="60" height="60"/>
                <use id="zoomplus" xlink:href="#zoomPlus" x="17" y="9" onmousedown="handleZoom(evt,'in')"/>
                <use id="zoomminus" xlink:href="#zoomMin" x="42" y="9" onmousedown="handleZoom(evt,'out')"/>
                <use id="reset" xlink:href="#resetDef" x="30" y="36" onmousedown="handleReset()"/>
                <g id="arrowUp" xlink:href="#dirArrow" transform="translate(30 24)" onmousedown="handlePan(0,-1)">
                  <use xlink:href="#rim" fill="#404040">
                        <set attributeName="fill" to="#808080" begin="arrowUp.mouseover" end="arrowUp.mouseout"/>
                  </use>
                  <path fill="none" stroke="white" stroke-width="1.5" d="M0,-3.0v7 M-2.5,-0.5L0,-3.0L2.5,-0.5"/>
                </g>
                <g id="arrowRight" xlink:href="#dirArrow" transform="rotate(90) translate(36 -43)" onmousedown="handlePan(1,0)">
                  <use xlink:href="#rim" fill="#404040">
                        <set attributeName="fill" to="#808080" begin="arrowRight.mouseover" end="arrowRight.mouseout"/>
                  </use>
                  <path fill="none" stroke="white" stroke-width="1.5" d="M0,-3.0v7 M-2.5,-0.5L0,-3.0L2.5,-0.5"/>
                </g>
                <g id="arrowDown" xlink:href="#dirArrow" transform="rotate(180) translate(-30 -48)" onmousedown="handlePan(0,1)">
                  <use xlink:href="#rim" fill="#404040">
                        <set attributeName="fill" to="#808080" begin="arrowDown.mouseover" end="arrowDown.mouseout"/>
                  </use>
                  <path fill="none" stroke="white" stroke-width="1.5" d="M0,-3.0v7 M-2.5,-0.5L0,-3.0L2.5,-0.5"/>
                </g>
                <g id="arrowLeft" xlink:href="#dirArrow" transform="rotate(270) translate(-36 17)" onmousedown="handlePan(-1,0)">
                  <use xlink:href="#rim" fill="#404040">
                        <set attributeName="fill" to="#808080" begin="arrowLeft.mouseover" end="arrowLeft.mouseout"/>
                  </use>
                  <path fill="none" stroke="white" stroke-width="1.5" d="M0,-3.0v7 M-2.5,-0.5L0,-3.0L2.5,-0.5"/>
                </g>
        </g>
        <svg viewBox="0 0 15 15" width="100%" height="30px" preserveAspectRatio="xMaxYMin meet">
         <g id="arrow_out" transform="scale(0.3 0.3)">
          <a xlink:href="FileInfoGroupBox_8h__dep__incl_org.svg" target="_base">
           <rect id="button" ry="5" rx="5" y="6" x="6" height="38" width="38"
                fill="#f2f5e9" fill-opacity="0.5" stroke="#606060" stroke-width="1.0"/>
           <path id="arrow"
             d="M 11.500037,31.436501 C 11.940474,20.09759 22.043105,11.32322 32.158766,21.979434 L 37.068811,17.246167 C 37.068811,17.246167 37.088388,32 37.088388,32 L 22.160133,31.978069 C 22.160133,31.978069 26.997745,27.140456 26.997745,27.140456 C 18.528582,18.264221 13.291696,25.230495 11.500037,31.436501 z"
             style="fill:#404040;"/>
          </a>
         </g>
        </svg>
</svg>
