<?xml version="1.0" encoding="UTF-8" standalone="no"?>
<!DOCTYPE svg PUBLIC "-//W3C//DTD SVG 1.1//EN"
 "http://www.w3.org/Graphics/SVG/1.1/DTD/svg11.dtd">
<!-- Generated by graphviz version 2.38.0 (20140413.2041)
 -->
<!-- Title: /home/ient/YUViewOrig/YUView/source/FileInfoGroupBox.cpp Pages: 1 -->
<svg width="252pt" height="162pt"
 viewBox="0.00 0.00 251.50 162.00" xmlns="http://www.w3.org/2000/svg" xmlns:xlink="http://www.w3.org/1999/xlink">
<g id="graph0" class="graph" transform="scale(1 1) rotate(0) translate(4 158)">
<title>/home/ient/YUViewOrig/YUView/source/FileInfoGroupBox.cpp</title>
<polygon fill="white" stroke="none" points="-4,4 -4,-158 247.5,-158 247.5,4 -4,4"/>
<!-- Node1 -->
<g id="node1" class="node"><title>Node1</title>
<polygon fill="#bfbfbf" stroke="black" points="94.5,-112.5 94.5,-153.5 243.5,-153.5 243.5,-112.5 94.5,-112.5"/>
<text text-anchor="start" x="102.5" y="-141.5" font-family="Helvetica,sans-Serif" font-size="10.00">/home/ient/YUViewOrig</text>
<text text-anchor="start" x="102.5" y="-130.5" font-family="Helvetica,sans-Serif" font-size="10.00">/YUView/source/FileInfoGroup</text>
<text text-anchor="middle" x="169" y="-119.5" font-family="Helvetica,sans-Serif" font-size="10.00">Box.cpp</text>
</g>
<!-- Node2 -->
<g id="node2" class="node"><title>Node2</title>
<g id="a_node2"><a xlink:href="FileInfoGroupBox_8h.html" target="_top" xlink:title="FileInfoGroupBox.h">
<polygon fill="white" stroke="black" points="71.5,-56.5 71.5,-75.5 172.5,-75.5 172.5,-56.5 71.5,-56.5"/>
<text text-anchor="middle" x="122" y="-63.5" font-family="Helvetica,sans-Serif" font-size="10.00">FileInfoGroupBox.h</text>
</a>
</g>
</g>
<!-- Node1&#45;&gt;Node2 -->
<g id="edge1" class="edge"><title>Node1&#45;&gt;Node2</title>
<path fill="none" stroke="midnightblue" d="M154.898,-112.498C148.316,-103.395 140.556,-92.6623 134.226,-83.9081"/>
<polygon fill="midnightblue" stroke="midnightblue" points="136.952,-81.7052 128.256,-75.6525 131.28,-85.8068 136.952,-81.7052"/>
</g>
<!-- Node6 -->
<g id="node6" class="node"><title>Node6</title>
<polygon fill="white" stroke="#bfbfbf" points="191,-56.5 191,-75.5 243,-75.5 243,-56.5 191,-56.5"/>
<text text-anchor="middle" x="217" y="-63.5" font-family="Helvetica,sans-Serif" font-size="10.00">assert.h</text>
</g>
<!-- Node1&#45;&gt;Node6 -->
<g id="edge5" class="edge"><title>Node1&#45;&gt;Node6</title>
<path fill="none" stroke="midnightblue" d="M183.402,-112.498C190.124,-103.395 198.049,-92.6623 204.514,-83.9081"/>
<polygon fill="midnightblue" stroke="midnightblue" points="207.486,-85.776 210.61,-75.6525 201.854,-81.6177 207.486,-85.776"/>
</g>
<!-- Node3 -->
<g id="node3" class="node"><title>Node3</title>
<polygon fill="white" stroke="#bfbfbf" points="0,-0.5 0,-19.5 68,-19.5 68,-0.5 0,-0.5"/>
<text text-anchor="middle" x="34" y="-7.5" font-family="Helvetica,sans-Serif" font-size="10.00">QGroupBox</text>
</g>
<!-- Node2&#45;&gt;Node3 -->
<g id="edge2" class="edge"><title>Node2&#45;&gt;Node3</title>
<path fill="none" stroke="midnightblue" d="M107.861,-56.324C94.1337,-47.9002 73.0637,-34.9709 56.9357,-25.0741"/>
<polygon fill="midnightblue" stroke="midnightblue" points="58.4574,-21.9016 48.1036,-19.6545 54.7963,-27.8678 58.4574,-21.9016"/>
</g>
<!-- Node4 -->
<g id="node4" class="node"><title>Node4</title>
<polygon fill="white" stroke="#bfbfbf" points="86.5,-0.5 86.5,-19.5 157.5,-19.5 157.5,-0.5 86.5,-0.5"/>
<text text-anchor="middle" x="122" y="-7.5" font-family="Helvetica,sans-Serif" font-size="10.00">QGridLayout</text>
</g>
<!-- Node2&#45;&gt;Node4 -->
<g id="edge3" class="edge"><title>Node2&#45;&gt;Node4</title>
<path fill="none" stroke="midnightblue" d="M122,-56.083C122,-49.0059 122,-38.8611 122,-29.9865"/>
<polygon fill="midnightblue" stroke="midnightblue" points="125.5,-29.751 122,-19.7511 118.5,-29.7511 125.5,-29.751"/>
</g>
<!-- Node5 -->
<g id="node5" class="node"><title>Node5</title>
<polygon fill="white" stroke="#bfbfbf" points="175.5,-0.5 175.5,-19.5 222.5,-19.5 222.5,-0.5 175.5,-0.5"/>
<text text-anchor="middle" x="199" y="-7.5" font-family="Helvetica,sans-Serif" font-size="10.00">QLabel</text>
</g>
<!-- Node2&#45;&gt;Node5 -->
<g id="edge4" class="edge"><title>Node2&#45;&gt;Node5</title>
<path fill="none" stroke="midnightblue" d="M134.371,-56.324C146.158,-48.0577 164.132,-35.4527 178.136,-25.6322"/>
<polygon fill="midnightblue" stroke="midnightblue" points="180.482,-28.2619 186.659,-19.6545 176.462,-22.5307 180.482,-28.2619"/>
</g>
</g>
</svg>
