<?xml version="1.0" encoding="UTF-8" standalone="no"?>
<!DOCTYPE svg PUBLIC "-//W3C//DTD SVG 1.1//EN"
 "http://www.w3.org/Graphics/SVG/1.1/DTD/svg11.dtd">
<!-- Generated by graphviz version 2.38.0 (20140413.2041)
 -->
<!-- Title: /home/ient/YUViewOrig/YUView/source/frameobjectdialog.cpp Pages: 1 -->
<svg width="520pt" height="319pt"
 viewBox="0.00 0.00 519.50 319.00" xmlns="http://www.w3.org/2000/svg" xmlns:xlink="http://www.w3.org/1999/xlink">
<g id="graph0" class="graph" transform="scale(1 1) rotate(0) translate(4 315)">
<title>/home/ient/YUViewOrig/YUView/source/frameobjectdialog.cpp</title>
<polygon fill="white" stroke="none" points="-4,4 -4,-315 515.5,-315 515.5,4 -4,4"/>
<!-- Node1 -->
<g id="node1" class="node"><title>Node1</title>
<polygon fill="#bfbfbf" stroke="black" points="76,-280.5 76,-310.5 262,-310.5 262,-280.5 76,-280.5"/>
<text text-anchor="start" x="84" y="-298.5" font-family="Helvetica,sans-Serif" font-size="10.00">/home/ient/YUViewOrig</text>
<text text-anchor="middle" x="169" y="-287.5" font-family="Helvetica,sans-Serif" font-size="10.00">/YUView/source/frameobjectdialog.cpp</text>
</g>
<!-- Node2 -->
<g id="node2" class="node"><title>Node2</title>
<g id="a_node2"><a xlink:href="frameobjectdialog_8h.html" target="_top" xlink:title="frameobjectdialog.h">
<polygon fill="white" stroke="black" points="55.5,-224.5 55.5,-243.5 156.5,-243.5 156.5,-224.5 55.5,-224.5"/>
<text text-anchor="middle" x="106" y="-231.5" font-family="Helvetica,sans-Serif" font-size="10.00">frameobjectdialog.h</text>
</a>
</g>
</g>
<!-- Node1&#45;&gt;Node2 -->
<g id="edge1" class="edge"><title>Node1&#45;&gt;Node2</title>
<path fill="none" stroke="midnightblue" d="M154.07,-280.399C144.632,-271.486 132.42,-259.952 122.667,-250.741"/>
<polygon fill="midnightblue" stroke="midnightblue" points="124.84,-247.979 115.167,-243.658 120.034,-253.069 124.84,-247.979"/>
</g>
<!-- Node16 -->
<g id="node16" class="node"><title>Node16</title>
<polygon fill="white" stroke="#bfbfbf" points="175,-224.5 175,-243.5 289,-243.5 289,-224.5 175,-224.5"/>
<text text-anchor="middle" x="232" y="-231.5" font-family="Helvetica,sans-Serif" font-size="10.00">ui_frameobjectdialog.h</text>
</g>
<!-- Node1&#45;&gt;Node16 -->
<g id="edge15" class="edge"><title>Node1&#45;&gt;Node16</title>
<path fill="none" stroke="midnightblue" d="M183.93,-280.399C193.368,-271.486 205.58,-259.952 215.333,-250.741"/>
<polygon fill="midnightblue" stroke="midnightblue" points="217.966,-253.069 222.833,-243.658 213.16,-247.979 217.966,-253.069"/>
</g>
<!-- Node3 -->
<g id="node3" class="node"><title>Node3</title>
<polygon fill="white" stroke="#bfbfbf" points="0,-168.5 0,-187.5 52,-187.5 52,-168.5 0,-168.5"/>
<text text-anchor="middle" x="26" y="-175.5" font-family="Helvetica,sans-Serif" font-size="10.00">QDialog</text>
</g>
<!-- Node2&#45;&gt;Node3 -->
<g id="edge2" class="edge"><title>Node2&#45;&gt;Node3</title>
<path fill="none" stroke="midnightblue" d="M93.1466,-224.324C80.7836,-215.979 61.8699,-203.212 47.2628,-193.352"/>
<polygon fill="midnightblue" stroke="midnightblue" points="49.0682,-190.348 38.8215,-187.655 45.1518,-196.15 49.0682,-190.348"/>
</g>
<!-- Node4 -->
<g id="node4" class="node"><title>Node4</title>
<polygon fill="white" stroke="#bfbfbf" points="70.5,-168.5 70.5,-187.5 141.5,-187.5 141.5,-168.5 70.5,-168.5"/>
<text text-anchor="middle" x="106" y="-175.5" font-family="Helvetica,sans-Serif" font-size="10.00">QFontDialog</text>
</g>
<!-- Node2&#45;&gt;Node4 -->
<g id="edge3" class="edge"><title>Node2&#45;&gt;Node4</title>
<path fill="none" stroke="midnightblue" d="M106,-224.083C106,-217.006 106,-206.861 106,-197.986"/>
<polygon fill="midnightblue" stroke="midnightblue" points="109.5,-197.751 106,-187.751 102.5,-197.751 109.5,-197.751"/>
</g>
<!-- Node5 -->
<g id="node5" class="node"><title>Node5</title>
<g id="a_node5"><a xlink:href="textobject_8h.html" target="_top" xlink:title="textobject.h">
<polygon fill="white" stroke="black" points="160,-168.5 160,-187.5 228,-187.5 228,-168.5 160,-168.5"/>
<text text-anchor="middle" x="194" y="-175.5" font-family="Helvetica,sans-Serif" font-size="10.00">textobject.h</text>
</a>
</g>
</g>
<!-- Node2&#45;&gt;Node5 -->
<g id="edge4" class="edge"><title>Node2&#45;&gt;Node5</title>
<path fill="none" stroke="midnightblue" d="M120.139,-224.324C133.866,-215.9 154.936,-202.971 171.064,-193.074"/>
<polygon fill="midnightblue" stroke="midnightblue" points="173.204,-195.868 179.896,-187.655 169.543,-189.902 173.204,-195.868"/>
</g>
<!-- Node6 -->
<g id="node6" class="node"><title>Node6</title>
<polygon fill="white" stroke="#bfbfbf" points="102,-112.5 102,-131.5 152,-131.5 152,-112.5 102,-112.5"/>
<text text-anchor="middle" x="127" y="-119.5" font-family="Helvetica,sans-Serif" font-size="10.00">QString</text>
</g>
<!-- Node5&#45;&gt;Node6 -->
<g id="edge5" class="edge"><title>Node5&#45;&gt;Node6</title>
<path fill="none" stroke="midnightblue" d="M183.235,-168.324C173.234,-160.263 158.113,-148.077 146.07,-138.369"/>
<polygon fill="midnightblue" stroke="midnightblue" points="147.943,-135.384 137.961,-131.834 143.55,-140.834 147.943,-135.384"/>
</g>
<!-- Node7 -->
<g id="node7" class="node"><title>Node7</title>
<polygon fill="white" stroke="#bfbfbf" points="170.5,-112.5 170.5,-131.5 217.5,-131.5 217.5,-112.5 170.5,-112.5"/>
<text text-anchor="middle" x="194" y="-119.5" font-family="Helvetica,sans-Serif" font-size="10.00">QColor</text>
</g>
<!-- Node5&#45;&gt;Node7 -->
<g id="edge6" class="edge"><title>Node5&#45;&gt;Node7</title>
<path fill="none" stroke="midnightblue" d="M194,-168.083C194,-161.006 194,-150.861 194,-141.986"/>
<polygon fill="midnightblue" stroke="midnightblue" points="197.5,-141.751 194,-131.751 190.5,-141.751 197.5,-141.751"/>
</g>
<!-- Node8 -->
<g id="node8" class="node"><title>Node8</title>
<g id="a_node8"><a xlink:href="displayobject_8h.html" target="_top" xlink:title="displayobject.h">
<polygon fill="white" stroke="black" points="236,-112.5 236,-131.5 318,-131.5 318,-112.5 236,-112.5"/>
<text text-anchor="middle" x="277" y="-119.5" font-family="Helvetica,sans-Serif" font-size="10.00">displayobject.h</text>
</a>
</g>
</g>
<!-- Node5&#45;&gt;Node8 -->
<g id="edge7" class="edge"><title>Node5&#45;&gt;Node8</title>
<path fill="none" stroke="midnightblue" d="M207.335,-168.324C220.162,-159.979 239.785,-147.212 254.94,-137.352"/>
<polygon fill="midnightblue" stroke="midnightblue" points="257.224,-140.042 263.698,-131.655 253.407,-134.174 257.224,-140.042"/>
</g>
<!-- Node9 -->
<g id="node9" class="node"><title>Node9</title>
<polygon fill="white" stroke="#bfbfbf" points="139.5,-56.5 139.5,-75.5 192.5,-75.5 192.5,-56.5 139.5,-56.5"/>
<text text-anchor="middle" x="166" y="-63.5" font-family="Helvetica,sans-Serif" font-size="10.00">QObject</text>
</g>
<!-- Node8&#45;&gt;Node9 -->
<g id="edge8" class="edge"><title>Node8&#45;&gt;Node9</title>
<path fill="none" stroke="midnightblue" d="M259.166,-112.324C241.284,-103.625 213.525,-90.1202 192.954,-80.113"/>
<polygon fill="midnightblue" stroke="midnightblue" points="194.313,-76.8819 183.79,-75.6545 191.251,-83.1765 194.313,-76.8819"/>
</g>
<!-- Node10 -->
<g id="node10" class="node"><title>Node10</title>
<polygon fill="white" stroke="#bfbfbf" points="210.5,-56.5 210.5,-75.5 267.5,-75.5 267.5,-56.5 210.5,-56.5"/>
<text text-anchor="middle" x="239" y="-63.5" font-family="Helvetica,sans-Serif" font-size="10.00">QPixmap</text>
</g>
<!-- Node8&#45;&gt;Node10 -->
<g id="edge9" class="edge"><title>Node8&#45;&gt;Node10</title>
<path fill="none" stroke="midnightblue" d="M270.725,-112.083C265.358,-104.455 257.482,-93.2645 250.921,-83.9408"/>
<polygon fill="midnightblue" stroke="midnightblue" points="253.775,-81.9149 245.158,-75.7511 248.051,-85.9434 253.775,-81.9149"/>
</g>
<!-- Node11 -->
<g id="node11" class="node"><title>Node11</title>
<g id="a_node11"><a xlink:href="typedef_8h.html" target="_top" xlink:title="typedef.h">
<polygon fill="white" stroke="black" points="285.5,-56.5 285.5,-75.5 342.5,-75.5 342.5,-56.5 285.5,-56.5"/>
<text text-anchor="middle" x="314" y="-63.5" font-family="Helvetica,sans-Serif" font-size="10.00">typedef.h</text>
</a>
</g>
</g>
<!-- Node8&#45;&gt;Node11 -->
<g id="edge10" class="edge"><title>Node8&#45;&gt;Node11</title>
<path fill="none" stroke="midnightblue" d="M283.11,-112.083C288.282,-104.534 295.846,-93.4948 302.194,-84.2298"/>
<polygon fill="midnightblue" stroke="midnightblue" points="305.239,-85.9787 308.004,-75.7511 299.464,-82.0221 305.239,-85.9787"/>
</g>
<!-- Node12 -->
<g id="node12" class="node"><title>Node12</title>
<g id="a_node12"><a xlink:href="FileInfoGroupBox_8h.html" target="_top" xlink:title="FileInfoGroupBox.h">
<polygon fill="white" stroke="black" points="360.5,-56.5 360.5,-75.5 461.5,-75.5 461.5,-56.5 360.5,-56.5"/>
<text text-anchor="middle" x="411" y="-63.5" font-family="Helvetica,sans-Serif" font-size="10.00">FileInfoGroupBox.h</text>
</a>
</g>
</g>
<!-- Node8&#45;&gt;Node12 -->
<g id="edge11" class="edge"><title>Node8&#45;&gt;Node12</title>
<path fill="none" stroke="midnightblue" d="M298.233,-112.444C320.384,-103.517 355.319,-89.4387 380.436,-79.3168"/>
<polygon fill="midnightblue" stroke="midnightblue" points="381.9,-82.5006 389.867,-75.5164 379.283,-76.0079 381.9,-82.5006"/>
</g>
<!-- Node13 -->
<g id="node13" class="node"><title>Node13</title>
<polygon fill="white" stroke="#bfbfbf" points="289,-0.5 289,-19.5 357,-19.5 357,-0.5 289,-0.5"/>
<text text-anchor="middle" x="323" y="-7.5" font-family="Helvetica,sans-Serif" font-size="10.00">QGroupBox</text>
</g>
<!-- Node12&#45;&gt;Node13 -->
<g id="edge12" class="edge"><title>Node12&#45;&gt;Node13</title>
<path fill="none" stroke="midnightblue" d="M396.861,-56.324C383.134,-47.9002 362.064,-34.9709 345.936,-25.0741"/>
<polygon fill="midnightblue" stroke="midnightblue" points="347.457,-21.9016 337.104,-19.6545 343.796,-27.8678 347.457,-21.9016"/>
</g>
<!-- Node14 -->
<g id="node14" class="node"><title>Node14</title>
<polygon fill="white" stroke="#bfbfbf" points="375.5,-0.5 375.5,-19.5 446.5,-19.5 446.5,-0.5 375.5,-0.5"/>
<text text-anchor="middle" x="411" y="-7.5" font-family="Helvetica,sans-Serif" font-size="10.00">QGridLayout</text>
</g>
<!-- Node12&#45;&gt;Node14 -->
<g id="edge13" class="edge"><title>Node12&#45;&gt;Node14</title>
<path fill="none" stroke="midnightblue" d="M411,-56.083C411,-49.0059 411,-38.8611 411,-29.9865"/>
<polygon fill="midnightblue" stroke="midnightblue" points="414.5,-29.751 411,-19.7511 407.5,-29.7511 414.5,-29.751"/>
</g>
<!-- Node15 -->
<g id="node15" class="node"><title>Node15</title>
<polygon fill="white" stroke="#bfbfbf" points="464.5,-0.5 464.5,-19.5 511.5,-19.5 511.5,-0.5 464.5,-0.5"/>
<text text-anchor="middle" x="488" y="-7.5" font-family="Helvetica,sans-Serif" font-size="10.00">QLabel</text>
</g>
<!-- Node12&#45;&gt;Node15 -->
<g id="edge14" class="edge"><title>Node12&#45;&gt;Node15</title>
<path fill="none" stroke="midnightblue" d="M423.371,-56.324C435.158,-48.0577 453.132,-35.4527 467.136,-25.6322"/>
<polygon fill="midnightblue" stroke="midnightblue" points="469.482,-28.2619 475.659,-19.6545 465.462,-22.5307 469.482,-28.2619"/>
</g>
</g>
</svg>
