<?xml version="1.0" encoding="UTF-8" standalone="no"?>
<!DOCTYPE svg PUBLIC "-//W3C//DTD SVG 1.1//EN"
 "http://www.w3.org/Graphics/SVG/1.1/DTD/svg11.dtd">
<!-- Generated by graphviz version 2.38.0 (20140413.2041)
 -->
<!-- Title: /home/ient/YUViewOrig/YUView/source/frameobject.h Pages: 1 -->
<svg width="1254pt" height="374pt"
 viewBox="0.00 0.00 1254.00 374.00" xmlns="http://www.w3.org/2000/svg" xmlns:xlink="http://www.w3.org/1999/xlink">
<g id="graph0" class="graph" transform="scale(1 1) rotate(0) translate(4 370)">
<title>/home/ient/YUViewOrig/YUView/source/frameobject.h</title>
<polygon fill="white" stroke="none" points="-4,4 -4,-370 1250,-370 1250,4 -4,4"/>
<!-- Node1 -->
<g id="node1" class="node"><title>Node1</title>
<polygon fill="#bfbfbf" stroke="black" points="721.5,-335.5 721.5,-365.5 871.5,-365.5 871.5,-335.5 721.5,-335.5"/>
<text text-anchor="start" x="729.5" y="-353.5" font-family="Helvetica,sans-Serif" font-size="10.00">/home/ient/YUViewOrig</text>
<text text-anchor="middle" x="796.5" y="-342.5" font-family="Helvetica,sans-Serif" font-size="10.00">/YUView/source/frameobject.h</text>
</g>
<!-- Node2 -->
<g id="node2" class="node"><title>Node2</title>
<g id="a_node2"><a xlink:href="differenceobject_8h.html" target="_top" xlink:title="/home/ient/YUViewOrig\l/YUView/source/differenceobject.h">
<polygon fill="white" stroke="black" points="712.5,-268.5 712.5,-298.5 880.5,-298.5 880.5,-268.5 712.5,-268.5"/>
<text text-anchor="start" x="720.5" y="-286.5" font-family="Helvetica,sans-Serif" font-size="10.00">/home/ient/YUViewOrig</text>
<text text-anchor="middle" x="796.5" y="-275.5" font-family="Helvetica,sans-Serif" font-size="10.00">/YUView/source/differenceobject.h</text>
</a>
</g>
</g>
<!-- Node1&#45;&gt;Node2 -->
<g id="edge1" class="edge"><title>Node1&#45;&gt;Node2</title>
<path fill="none" stroke="midnightblue" d="M796.5,-325.108C796.5,-316.154 796.5,-306.323 796.5,-298.577"/>
<polygon fill="midnightblue" stroke="midnightblue" points="793,-325.396 796.5,-335.396 800,-325.396 793,-325.396"/>
</g>
<!-- Node4 -->
<g id="node4" class="node"><title>Node4</title>
<g id="a_node4"><a xlink:href="playlistitem_8h.html" target="_top" xlink:title="/home/ient/YUViewOrig\l/YUView/source/playlistitem.h">
<polygon fill="white" stroke="black" points="558,-201.5 558,-231.5 707,-231.5 707,-201.5 558,-201.5"/>
<text text-anchor="start" x="566" y="-219.5" font-family="Helvetica,sans-Serif" font-size="10.00">/home/ient/YUViewOrig</text>
<text text-anchor="middle" x="632.5" y="-208.5" font-family="Helvetica,sans-Serif" font-size="10.00">/YUView/source/playlistitem.h</text>
</a>
</g>
</g>
<!-- Node1&#45;&gt;Node4 -->
<g id="edge19" class="edge"><title>Node1&#45;&gt;Node4</title>
<path fill="none" stroke="midnightblue" d="M755.105,-331.024C738.249,-322.51 719.102,-311.509 703.5,-299 678.318,-278.81 654.924,-248.96 642.282,-231.545"/>
<polygon fill="midnightblue" stroke="midnightblue" points="753.679,-334.223 764.198,-335.492 756.766,-327.94 753.679,-334.223"/>
</g>
<!-- Node13 -->
<g id="node13" class="node"><title>Node13</title>
<g id="a_node13"><a xlink:href="displaysplitwidget_8h.html" target="_top" xlink:title="/home/ient/YUViewOrig\l/YUView/source/displaysplitwidget.h">
<polygon fill="white" stroke="black" points="552.5,-134.5 552.5,-164.5 728.5,-164.5 728.5,-134.5 552.5,-134.5"/>
<text text-anchor="start" x="560.5" y="-152.5" font-family="Helvetica,sans-Serif" font-size="10.00">/home/ient/YUViewOrig</text>
<text text-anchor="middle" x="640.5" y="-141.5" font-family="Helvetica,sans-Serif" font-size="10.00">/YUView/source/displaysplitwidget.h</text>
</a>
</g>
</g>
<!-- Node1&#45;&gt;Node13 -->
<g id="edge16" class="edge"><title>Node1&#45;&gt;Node13</title>
<path fill="none" stroke="midnightblue" d="M711.441,-334.619C653.894,-319.533 582.413,-289.776 548.5,-232 541.525,-220.118 541.483,-212.857 548.5,-201 558.522,-184.066 576.462,-172.432 593.856,-164.64"/>
<polygon fill="midnightblue" stroke="midnightblue" points="710.727,-338.048 721.278,-337.093 712.434,-331.26 710.727,-338.048"/>
</g>
<!-- Node14 -->
<g id="node14" class="node"><title>Node14</title>
<g id="a_node14"><a xlink:href="displaywidget_8cpp.html" target="_top" xlink:title="/home/ient/YUViewOrig\l/YUView/source/displaywidget.cpp">
<polygon fill="white" stroke="black" points="898,-268.5 898,-298.5 1067,-298.5 1067,-268.5 898,-268.5"/>
<text text-anchor="start" x="906" y="-286.5" font-family="Helvetica,sans-Serif" font-size="10.00">/home/ient/YUViewOrig</text>
<text text-anchor="middle" x="982.5" y="-275.5" font-family="Helvetica,sans-Serif" font-size="10.00">/YUView/source/displaywidget.cpp</text>
</a>
</g>
</g>
<!-- Node1&#45;&gt;Node14 -->
<g id="edge20" class="edge"><title>Node1&#45;&gt;Node14</title>
<path fill="none" stroke="midnightblue" d="M846.315,-332.092C876.34,-321.599 914.086,-308.408 942.22,-298.577"/>
<polygon fill="midnightblue" stroke="midnightblue" points="845.145,-328.793 836.859,-335.396 847.454,-335.401 845.145,-328.793"/>
</g>
<!-- Node15 -->
<g id="node15" class="node"><title>Node15</title>
<g id="a_node15"><a xlink:href="frameobject_8cpp.html" target="_top" xlink:title="/home/ient/YUViewOrig\l/YUView/source/frameobject.cpp">
<polygon fill="white" stroke="black" points="1085,-268.5 1085,-298.5 1246,-298.5 1246,-268.5 1085,-268.5"/>
<text text-anchor="start" x="1093" y="-286.5" font-family="Helvetica,sans-Serif" font-size="10.00">/home/ient/YUViewOrig</text>
<text text-anchor="middle" x="1165.5" y="-275.5" font-family="Helvetica,sans-Serif" font-size="10.00">/YUView/source/frameobject.cpp</text>
</a>
</g>
</g>
<!-- Node1&#45;&gt;Node15 -->
<g id="edge21" class="edge"><title>Node1&#45;&gt;Node15</title>
<path fill="none" stroke="midnightblue" d="M881.695,-334.493C943.254,-323.649 1025.82,-309.105 1086.02,-298.5"/>
<polygon fill="midnightblue" stroke="midnightblue" points="880.859,-331.086 871.617,-336.268 882.073,-337.98 880.859,-331.086"/>
</g>
<!-- Node3 -->
<g id="node3" class="node"><title>Node3</title>
<g id="a_node3"><a xlink:href="differenceobject_8cpp.html" target="_top" xlink:title="/home/ient/YUViewOrig\l/YUView/source/differenceobject.cpp">
<polygon fill="white" stroke="black" points="725,-201.5 725,-231.5 904,-231.5 904,-201.5 725,-201.5"/>
<text text-anchor="start" x="733" y="-219.5" font-family="Helvetica,sans-Serif" font-size="10.00">/home/ient/YUViewOrig</text>
<text text-anchor="middle" x="814.5" y="-208.5" font-family="Helvetica,sans-Serif" font-size="10.00">/YUView/source/differenceobject.cpp</text>
</a>
</g>
</g>
<!-- Node2&#45;&gt;Node3 -->
<g id="edge2" class="edge"><title>Node2&#45;&gt;Node3</title>
<path fill="none" stroke="midnightblue" d="M803.092,-258.697C805.614,-249.587 808.41,-239.493 810.602,-231.577"/>
<polygon fill="midnightblue" stroke="midnightblue" points="799.702,-257.825 800.406,-268.396 806.448,-259.693 799.702,-257.825"/>
</g>
<!-- Node2&#45;&gt;Node4 -->
<g id="edge3" class="edge"><title>Node2&#45;&gt;Node4</title>
<path fill="none" stroke="midnightblue" d="M751.543,-264.682C725.24,-254.257 692.5,-241.281 668.016,-231.577"/>
<polygon fill="midnightblue" stroke="midnightblue" points="750.328,-267.965 760.914,-268.396 752.908,-261.458 750.328,-267.965"/>
</g>
<!-- Node7 -->
<g id="node7" class="node"><title>Node7</title>
<g id="a_node7"><a xlink:href="mainwindow_8cpp.html" target="_top" xlink:title="/home/ient/YUViewOrig\l/YUView/source/mainwindow.cpp">
<polygon fill="white" stroke="black" points="755.5,-67.5 755.5,-97.5 919.5,-97.5 919.5,-67.5 755.5,-67.5"/>
<text text-anchor="start" x="763.5" y="-85.5" font-family="Helvetica,sans-Serif" font-size="10.00">/home/ient/YUViewOrig</text>
<text text-anchor="middle" x="837.5" y="-74.5" font-family="Helvetica,sans-Serif" font-size="10.00">/YUView/source/mainwindow.cpp</text>
</a>
</g>
</g>
<!-- Node2&#45;&gt;Node7 -->
<g id="edge14" class="edge"><title>Node2&#45;&gt;Node7</title>
<path fill="none" stroke="midnightblue" d="M876.676,-265.002C896.019,-257.542 915.204,-246.963 929.5,-232 951.151,-209.338 946.549,-195.948 951.5,-165 953.676,-151.395 959.015,-145.548 951.5,-134 940.166,-116.582 921.301,-105.126 902.147,-97.6102"/>
<polygon fill="midnightblue" stroke="midnightblue" points="875.41,-261.738 867.188,-268.42 877.782,-268.324 875.41,-261.738"/>
</g>
<!-- Node12 -->
<g id="node12" class="node"><title>Node12</title>
<g id="a_node12"><a xlink:href="playlistitem_8cpp.html" target="_top" xlink:title="/home/ient/YUViewOrig\l/YUView/source/playlistitem.cpp">
<polygon fill="white" stroke="black" points="784,-134.5 784,-164.5 943,-164.5 943,-134.5 784,-134.5"/>
<text text-anchor="start" x="792" y="-152.5" font-family="Helvetica,sans-Serif" font-size="10.00">/home/ient/YUViewOrig</text>
<text text-anchor="middle" x="863.5" y="-141.5" font-family="Helvetica,sans-Serif" font-size="10.00">/YUView/source/playlistitem.cpp</text>
</a>
</g>
</g>
<!-- Node2&#45;&gt;Node12 -->
<g id="edge15" class="edge"><title>Node2&#45;&gt;Node12</title>
<path fill="none" stroke="midnightblue" d="M872.29,-264.389C888.148,-256.987 902.939,-246.589 912.5,-232 927.702,-208.801 901.849,-180.952 882.279,-164.546"/>
<polygon fill="midnightblue" stroke="midnightblue" points="870.687,-261.268 862.862,-268.411 873.433,-267.707 870.687,-261.268"/>
</g>
<!-- Node5 -->
<g id="node5" class="node"><title>Node5</title>
<g id="a_node5"><a xlink:href="mainwindow_8h.html" target="_top" xlink:title="/home/ient/YUViewOrig\l/YUView/source/mainwindow.h">
<polygon fill="white" stroke="black" points="376,-134.5 376,-164.5 529,-164.5 529,-134.5 376,-134.5"/>
<text text-anchor="start" x="384" y="-152.5" font-family="Helvetica,sans-Serif" font-size="10.00">/home/ient/YUViewOrig</text>
<text text-anchor="middle" x="452.5" y="-141.5" font-family="Helvetica,sans-Serif" font-size="10.00">/YUView/source/mainwindow.h</text>
</a>
</g>
</g>
<!-- Node4&#45;&gt;Node5 -->
<g id="edge4" class="edge"><title>Node4&#45;&gt;Node5</title>
<path fill="none" stroke="midnightblue" d="M583.915,-197.955C554.919,-187.485 518.589,-174.366 491.481,-164.577"/>
<polygon fill="midnightblue" stroke="midnightblue" points="582.848,-201.291 593.443,-201.396 585.226,-194.708 582.848,-201.291"/>
</g>
<!-- Node4&#45;&gt;Node7 -->
<g id="edge11" class="edge"><title>Node4&#45;&gt;Node7</title>
<path fill="none" stroke="midnightblue" d="M676.423,-197.331C695.752,-188.596 718.363,-177.343 737.5,-165 755.529,-153.372 757.907,-147.599 774.5,-134 789.679,-121.56 807.097,-107.623 819.766,-97.5472"/>
<polygon fill="midnightblue" stroke="midnightblue" points="674.949,-194.156 667.227,-201.411 677.787,-200.555 674.949,-194.156"/>
</g>
<!-- Node8 -->
<g id="node8" class="node"><title>Node8</title>
<g id="a_node8"><a xlink:href="playlisttreewidget_8cpp.html" target="_top" xlink:title="/home/ient/YUViewOrig\l/YUView/source/playlisttreewidget.cpp">
<polygon fill="white" stroke="black" points="0,-67.5 0,-97.5 185,-97.5 185,-67.5 0,-67.5"/>
<text text-anchor="start" x="8" y="-85.5" font-family="Helvetica,sans-Serif" font-size="10.00">/home/ient/YUViewOrig</text>
<text text-anchor="middle" x="92.5" y="-74.5" font-family="Helvetica,sans-Serif" font-size="10.00">/YUView/source/playlisttreewidget.cpp</text>
</a>
</g>
</g>
<!-- Node4&#45;&gt;Node8 -->
<g id="edge13" class="edge"><title>Node4&#45;&gt;Node8</title>
<path fill="none" stroke="midnightblue" d="M547.881,-201.695C495.378,-192.571 426.682,-179.623 366.5,-165 283.551,-144.845 188.377,-114.983 134.85,-97.5558"/>
<polygon fill="midnightblue" stroke="midnightblue" points="547.375,-205.159 557.824,-203.41 548.565,-198.261 547.375,-205.159"/>
</g>
<!-- Node4&#45;&gt;Node12 -->
<g id="edge12" class="edge"><title>Node4&#45;&gt;Node12</title>
<path fill="none" stroke="midnightblue" d="M692.152,-198.715C729.743,-188.137 777.729,-174.635 813.352,-164.611"/>
<polygon fill="midnightblue" stroke="midnightblue" points="691.017,-195.398 682.339,-201.476 692.913,-202.136 691.017,-195.398"/>
</g>
<!-- Node6 -->
<g id="node6" class="node"><title>Node6</title>
<g id="a_node6"><a xlink:href="displaysplitwidget_8cpp.html" target="_top" xlink:title="/home/ient/YUViewOrig\l/YUView/source/displaysplitwidget.cpp">
<polygon fill="white" stroke="black" points="550,-67.5 550,-97.5 737,-97.5 737,-67.5 550,-67.5"/>
<text text-anchor="start" x="558" y="-85.5" font-family="Helvetica,sans-Serif" font-size="10.00">/home/ient/YUViewOrig</text>
<text text-anchor="middle" x="643.5" y="-74.5" font-family="Helvetica,sans-Serif" font-size="10.00">/YUView/source/displaysplitwidget.cpp</text>
</a>
</g>
</g>
<!-- Node5&#45;&gt;Node6 -->
<g id="edge5" class="edge"><title>Node5&#45;&gt;Node6</title>
<path fill="none" stroke="midnightblue" d="M503.654,-131.092C534.487,-120.599 573.247,-107.408 602.137,-97.5765"/>
<polygon fill="midnightblue" stroke="midnightblue" points="502.283,-127.861 493.944,-134.396 504.539,-134.488 502.283,-127.861"/>
</g>
<!-- Node5&#45;&gt;Node7 -->
<g id="edge6" class="edge"><title>Node5&#45;&gt;Node7</title>
<path fill="none" stroke="midnightblue" d="M539.21,-133.861C603.958,-122.929 691.868,-108.087 755.464,-97.3502"/>
<polygon fill="midnightblue" stroke="midnightblue" points="538.302,-130.464 529.024,-135.58 539.467,-137.367 538.302,-130.464"/>
</g>
<!-- Node5&#45;&gt;Node8 -->
<g id="edge7" class="edge"><title>Node5&#45;&gt;Node8</title>
<path fill="none" stroke="midnightblue" d="M365.565,-132.803C305.967,-122.043 227.591,-107.892 170.1,-97.5111"/>
<polygon fill="midnightblue" stroke="midnightblue" points="365.25,-136.303 375.713,-134.636 366.494,-129.414 365.25,-136.303"/>
</g>
<!-- Node9 -->
<g id="node9" class="node"><title>Node9</title>
<g id="a_node9"><a xlink:href="statslistview_8cpp.html" target="_top" xlink:title="/home/ient/YUViewOrig\l/YUView/source/statslistview.cpp">
<polygon fill="white" stroke="black" points="367.5,-67.5 367.5,-97.5 531.5,-97.5 531.5,-67.5 367.5,-67.5"/>
<text text-anchor="start" x="375.5" y="-85.5" font-family="Helvetica,sans-Serif" font-size="10.00">/home/ient/YUViewOrig</text>
<text text-anchor="middle" x="449.5" y="-74.5" font-family="Helvetica,sans-Serif" font-size="10.00">/YUView/source/statslistview.cpp</text>
</a>
</g>
</g>
<!-- Node5&#45;&gt;Node9 -->
<g id="edge8" class="edge"><title>Node5&#45;&gt;Node9</title>
<path fill="none" stroke="midnightblue" d="M451.388,-124.403C450.971,-115.37 450.511,-105.408 450.15,-97.5765"/>
<polygon fill="midnightblue" stroke="midnightblue" points="447.892,-124.568 451.849,-134.396 454.884,-124.245 447.892,-124.568"/>
</g>
<!-- Node10 -->
<g id="node10" class="node"><title>Node10</title>
<g id="a_node10"><a xlink:href="yuviewapp_8h.html" target="_top" xlink:title="/home/ient/YUViewOrig\l/YUView/source/yuviewapp.h">
<polygon fill="white" stroke="black" points="203.5,-67.5 203.5,-97.5 349.5,-97.5 349.5,-67.5 203.5,-67.5"/>
<text text-anchor="start" x="211.5" y="-85.5" font-family="Helvetica,sans-Serif" font-size="10.00">/home/ient/YUViewOrig</text>
<text text-anchor="middle" x="276.5" y="-74.5" font-family="Helvetica,sans-Serif" font-size="10.00">/YUView/source/yuviewapp.h</text>
</a>
</g>
</g>
<!-- Node5&#45;&gt;Node10 -->
<g id="edge9" class="edge"><title>Node5&#45;&gt;Node10</title>
<path fill="none" stroke="midnightblue" d="M404.624,-130.819C376.334,-120.371 341.006,-107.323 314.615,-97.5765"/>
<polygon fill="midnightblue" stroke="midnightblue" points="403.717,-134.215 414.311,-134.396 406.143,-127.648 403.717,-134.215"/>
</g>
<!-- Node11 -->
<g id="node11" class="node"><title>Node11</title>
<g id="a_node11"><a xlink:href="yuviewapp_8cpp.html" target="_top" xlink:title="/home/ient/YUViewOrig\l/YUView/source/yuviewapp.cpp">
<polygon fill="white" stroke="black" points="198.5,-0.5 198.5,-30.5 354.5,-30.5 354.5,-0.5 198.5,-0.5"/>
<text text-anchor="start" x="206.5" y="-18.5" font-family="Helvetica,sans-Serif" font-size="10.00">/home/ient/YUViewOrig</text>
<text text-anchor="middle" x="276.5" y="-7.5" font-family="Helvetica,sans-Serif" font-size="10.00">/YUView/source/yuviewapp.cpp</text>
</a>
</g>
</g>
<!-- Node10&#45;&gt;Node11 -->
<g id="edge10" class="edge"><title>Node10&#45;&gt;Node11</title>
<path fill="none" stroke="midnightblue" d="M276.5,-57.1081C276.5,-48.1539 276.5,-38.3227 276.5,-30.5765"/>
<polygon fill="midnightblue" stroke="midnightblue" points="273,-57.3959 276.5,-67.396 280,-57.396 273,-57.3959"/>
</g>
<!-- Node13&#45;&gt;Node6 -->
<g id="edge17" class="edge"><title>Node13&#45;&gt;Node6</title>
<path fill="none" stroke="midnightblue" d="M641.612,-124.403C642.029,-115.37 642.489,-105.408 642.85,-97.5765"/>
<polygon fill="midnightblue" stroke="midnightblue" points="638.116,-124.245 641.151,-134.396 645.108,-124.568 638.116,-124.245"/>
</g>
<!-- Node13&#45;&gt;Node7 -->
<g id="edge18" class="edge"><title>Node13&#45;&gt;Node7</title>
<path fill="none" stroke="midnightblue" d="M692.848,-131.228C724.716,-120.713 764.911,-107.451 794.837,-97.5765"/>
<polygon fill="midnightblue" stroke="midnightblue" points="691.646,-127.939 683.246,-134.396 693.839,-134.586 691.646,-127.939"/>
</g>
</g>
</svg>
