<?xml version="1.0" encoding="UTF-8" standalone="no"?>
<!DOCTYPE svg PUBLIC "-//W3C//DTD SVG 1.1//EN"
 "http://www.w3.org/Graphics/SVG/1.1/DTD/svg11.dtd">
<!-- Generated by graphviz version 2.38.0 (20140413.2041)
 -->
<!-- Title: /home/ient/YUViewOrig/YUView/source/frameobject.cpp Pages: 1 -->
<!--zoomable 263 -->
<svg id="main" version="1.1" xmlns="http://www.w3.org/2000/svg" xmlns:xlink="http://www.w3.org/1999/xlink" xml:space="preserve" onload="init(evt)">
<style type="text/css"><![CDATA[
.edge:hover path { stroke: red; }
.edge:hover polygon { stroke: red; fill: red; }
]]></style>
<script type="text/javascript"><![CDATA[
var edges = document.getElementsByTagName('g');
if (edges && edges.length) {
  for (var i=0;i<edges.length;i++) {
    if (edges[i].id.substr(0,4)=='edge') {
      edges[i].setAttribute('class','edge');
    }
  }
}
]]></script>
        <defs>
                <circle id="rim" cx="0" cy="0" r="7"/>
                <circle id="rim2" cx="0" cy="0" r="3.5"/>
                <g id="zoomPlus">
                        <use xlink:href="#rim" fill="#404040">
                                <set attributeName="fill" to="#808080" begin="zoomplus.mouseover" end="zoomplus.mouseout"/>
                        </use>
                        <path d="M-4,0h8M0,-4v8" fill="none" stroke="white" stroke-width="1.5" pointer-events="none"/>
                </g>
                <g id="zoomMin">
                        <use xlink:href="#rim" fill="#404040">
                                <set attributeName="fill" to="#808080" begin="zoomminus.mouseover" end="zoomminus.mouseout"/>
                        </use>
                        <path d="M-4,0h8" fill="none" stroke="white" stroke-width="1.5" pointer-events="none"/>
                </g>
                <g id="dirArrow">
                        <path fill="none" stroke="white" stroke-width="1.5" d="M0,-3.0v7 M-2.5,-0.5L0,-3.0L2.5,-0.5"/>
                </g>
               <g id="resetDef">
                       <use xlink:href="#rim2" fill="#404040">
                               <set attributeName="fill" to="#808080" begin="reset.mouseover" end="reset.mouseout"/>
                       </use>
               </g>
        </defs>

<script type="text/javascript">
var viewWidth = 1129;
var viewHeight = 263;
var sectionId = 'dynsection-0';
</script>
<script xlink:href="svgpan.js"/>
<svg id="graph" class="graph">
<g id="viewport">
<title>/home/ient/YUViewOrig/YUView/source/frameobject.cpp</title>
<polygon fill="white" stroke="none" points="-4,4 -4,-259 1125,-259 1125,4 -4,4"/>
<!-- Node1 -->
<g id="node1" class="node"><title>Node1</title>
<polygon fill="#bfbfbf" stroke="black" points="560,-224.5 560,-254.5 721,-254.5 721,-224.5 560,-224.5"/>
<text text-anchor="start" x="568" y="-242.5" font-family="Helvetica,sans-Serif" font-size="10.00">/home/ient/YUViewOrig</text>
<text text-anchor="middle" x="640.5" y="-231.5" font-family="Helvetica,sans-Serif" font-size="10.00">/YUView/source/frameobject.cpp</text>
</g>
<!-- Node2 -->
<g id="node2" class="node"><title>Node2</title>
<g id="a_node2"><a xlink:href="frameobject_8h.html" target="_top" xlink:title="frameobject.h">
<polygon fill="white" stroke="black" points="333.5,-168.5 333.5,-187.5 409.5,-187.5 409.5,-168.5 333.5,-168.5"/>
<text text-anchor="middle" x="371.5" y="-175.5" font-family="Helvetica,sans-Serif" font-size="10.00">frameobject.h</text>
</a>
</g>
</g>
<!-- Node1&#45;&gt;Node2 -->
<g id="edge1" class="edge"><title>Node1&#45;&gt;Node2</title>
<path fill="none" stroke="midnightblue" d="M577.091,-224.475C528.817,-213.797 463.395,-199.326 419.432,-189.602"/>
<polygon fill="midnightblue" stroke="midnightblue" points="420.087,-186.162 409.567,-187.42 418.575,-192.997 420.087,-186.162"/>
</g>
<!-- Node6 -->
<g id="node6" class="node"><title>Node6</title>
<g id="a_node6"><a xlink:href="yuvfile_8h.html" target="_top" xlink:title="yuvfile.h">
<polygon fill="white" stroke="black" points="431,-112.5 431,-131.5 484,-131.5 484,-112.5 431,-112.5"/>
<text text-anchor="middle" x="457.5" y="-119.5" font-family="Helvetica,sans-Serif" font-size="10.00">yuvfile.h</text>
</a>
</g>
</g>
<!-- Node1&#45;&gt;Node6 -->
<g id="edge22" class="edge"><title>Node1&#45;&gt;Node6</title>
<path fill="none" stroke="midnightblue" d="M572.959,-224.434C547.694,-216.745 519.951,-205.165 498.5,-188 483.076,-175.657 471.778,-155.849 464.994,-141.339"/>
<polygon fill="midnightblue" stroke="midnightblue" points="468.074,-139.649 460.857,-131.893 461.662,-142.457 468.074,-139.649"/>
</g>
<!-- Node8 -->
<g id="node8" class="node"><title>Node8</title>
<polygon fill="white" stroke="#bfbfbf" points="502.5,-56.5 502.5,-75.5 558.5,-75.5 558.5,-56.5 502.5,-56.5"/>
<text text-anchor="middle" x="530.5" y="-63.5" font-family="Helvetica,sans-Serif" font-size="10.00">QFileInfo</text>
</g>
<!-- Node1&#45;&gt;Node8 -->
<g id="edge42" class="edge"><title>Node1&#45;&gt;Node8</title>
<path fill="none" stroke="midnightblue" d="M627.445,-224.414C618.573,-214.55 606.804,-200.882 597.5,-188 572.65,-153.594 550.176,-109.018 538.643,-84.7163"/>
<polygon fill="midnightblue" stroke="midnightblue" points="541.801,-83.2076 534.395,-75.6315 535.46,-86.1726 541.801,-83.2076"/>
</g>
<!-- Node17 -->
<g id="node17" class="node"><title>Node17</title>
<g id="a_node17"><a xlink:href="de265File_8h.html" target="_top" xlink:title="de265File.h">
<polygon fill="white" stroke="black" points="607,-168.5 607,-187.5 674,-187.5 674,-168.5 607,-168.5"/>
<text text-anchor="middle" x="640.5" y="-175.5" font-family="Helvetica,sans-Serif" font-size="10.00">de265File.h</text>
</a>
</g>
</g>
<!-- Node1&#45;&gt;Node17 -->
<g id="edge23" class="edge"><title>Node1&#45;&gt;Node17</title>
<path fill="none" stroke="midnightblue" d="M640.5,-224.399C640.5,-216.466 640.5,-206.458 640.5,-197.858"/>
<polygon fill="midnightblue" stroke="midnightblue" points="644,-197.658 640.5,-187.658 637,-197.658 644,-197.658"/>
</g>
<!-- Node29 -->
<g id="node29" class="node"><title>Node29</title>
<polygon fill="white" stroke="#bfbfbf" points="692,-168.5 692,-187.5 747,-187.5 747,-168.5 692,-168.5"/>
<text text-anchor="middle" x="719.5" y="-175.5" font-family="Helvetica,sans-Serif" font-size="10.00">QPainter</text>
</g>
<!-- Node1&#45;&gt;Node29 -->
<g id="edge41" class="edge"><title>Node1&#45;&gt;Node29</title>
<path fill="none" stroke="midnightblue" d="M659.222,-224.399C671.412,-215.218 687.292,-203.258 699.693,-193.918"/>
<polygon fill="midnightblue" stroke="midnightblue" points="702.123,-196.47 708.005,-187.658 697.911,-190.878 702.123,-196.47"/>
</g>
<!-- Node30 -->
<g id="node30" class="node"><title>Node30</title>
<polygon fill="white" stroke="#bfbfbf" points="765,-168.5 765,-187.5 818,-187.5 818,-168.5 765,-168.5"/>
<text text-anchor="middle" x="791.5" y="-175.5" font-family="Helvetica,sans-Serif" font-size="10.00">QCache</text>
</g>
<!-- Node1&#45;&gt;Node30 -->
<g id="edge43" class="edge"><title>Node1&#45;&gt;Node30</title>
<path fill="none" stroke="midnightblue" d="M676.285,-224.399C701.733,-214.372 735.597,-201.028 760.018,-191.405"/>
<polygon fill="midnightblue" stroke="midnightblue" points="761.508,-194.58 769.528,-187.658 758.941,-188.068 761.508,-194.58"/>
</g>
<!-- Node31 -->
<g id="node31" class="node"><title>Node31</title>
<polygon fill="white" stroke="#bfbfbf" points="836.5,-168.5 836.5,-187.5 888.5,-187.5 888.5,-168.5 836.5,-168.5"/>
<text text-anchor="middle" x="862.5" y="-175.5" font-family="Helvetica,sans-Serif" font-size="10.00">assert.h</text>
</g>
<!-- Node1&#45;&gt;Node31 -->
<g id="edge44" class="edge"><title>Node1&#45;&gt;Node31</title>
<path fill="none" stroke="midnightblue" d="M692.83,-224.475C733.898,-213.468 790.004,-198.43 826.248,-188.716"/>
<polygon fill="midnightblue" stroke="midnightblue" points="827.614,-191.974 836.367,-186.004 825.802,-185.212 827.614,-191.974"/>
</g>
<!-- Node3 -->
<g id="node3" class="node"><title>Node3</title>
<polygon fill="white" stroke="#bfbfbf" points="334,-0.5 334,-19.5 387,-19.5 387,-0.5 334,-0.5"/>
<text text-anchor="middle" x="360.5" y="-7.5" font-family="Helvetica,sans-Serif" font-size="10.00">QObject</text>
</g>
<!-- Node2&#45;&gt;Node3 -->
<g id="edge2" class="edge"><title>Node2&#45;&gt;Node3</title>
<path fill="none" stroke="midnightblue" d="M333.3,-172.552C287.252,-166.313 213.976,-153.279 197.5,-132 177.027,-105.559 214.384,-69.8519 231.5,-56 258.231,-34.3666 296.058,-22.8038 323.84,-16.8433"/>
<polygon fill="midnightblue" stroke="midnightblue" points="324.831,-20.2146 333.952,-14.8239 323.46,-13.3502 324.831,-20.2146"/>
</g>
<!-- Node4 -->
<g id="node4" class="node"><title>Node4</title>
<polygon fill="white" stroke="#bfbfbf" points="306.5,-112.5 306.5,-131.5 374.5,-131.5 374.5,-112.5 306.5,-112.5"/>
<text text-anchor="middle" x="340.5" y="-119.5" font-family="Helvetica,sans-Serif" font-size="10.00">QByteArray</text>
</g>
<!-- Node2&#45;&gt;Node4 -->
<g id="edge3" class="edge"><title>Node2&#45;&gt;Node4</title>
<path fill="none" stroke="midnightblue" d="M366.381,-168.083C362.092,-160.613 355.842,-149.724 350.558,-140.52"/>
<polygon fill="midnightblue" stroke="midnightblue" points="353.538,-138.681 345.524,-131.751 347.467,-142.166 353.538,-138.681"/>
</g>
<!-- Node5 -->
<g id="node5" class="node"><title>Node5</title>
<polygon fill="white" stroke="#bfbfbf" points="282.5,-56.5 282.5,-75.5 332.5,-75.5 332.5,-56.5 282.5,-56.5"/>
<text text-anchor="middle" x="307.5" y="-63.5" font-family="Helvetica,sans-Serif" font-size="10.00">QString</text>
</g>
<!-- Node2&#45;&gt;Node5 -->
<g id="edge4" class="edge"><title>Node2&#45;&gt;Node5</title>
<path fill="none" stroke="midnightblue" d="M376.521,-168.395C383.414,-155.343 393.843,-130.144 383.5,-112 374.507,-96.2244 357.571,-85.4146 341.966,-78.3521"/>
<polygon fill="midnightblue" stroke="midnightblue" points="343.081,-75.0259 332.504,-74.4281 340.4,-81.4919 343.081,-75.0259"/>
</g>
<!-- Node2&#45;&gt;Node6 -->
<g id="edge5" class="edge"><title>Node2&#45;&gt;Node6</title>
<path fill="none" stroke="midnightblue" d="M385.317,-168.324C398.733,-159.9 419.324,-146.971 435.086,-137.074"/>
<polygon fill="midnightblue" stroke="midnightblue" points="437.109,-139.936 443.717,-131.655 433.387,-134.008 437.109,-139.936"/>
</g>
<!-- Node11 -->
<g id="node11" class="node"><title>Node11</title>
<g id="a_node11"><a xlink:href="displayobject_8h.html" target="_top" xlink:title="displayobject.h">
<polygon fill="white" stroke="black" points="206.5,-112.5 206.5,-131.5 288.5,-131.5 288.5,-112.5 206.5,-112.5"/>
<text text-anchor="middle" x="247.5" y="-119.5" font-family="Helvetica,sans-Serif" font-size="10.00">displayobject.h</text>
</a>
</g>
</g>
<!-- Node2&#45;&gt;Node11 -->
<g id="edge14" class="edge"><title>Node2&#45;&gt;Node11</title>
<path fill="none" stroke="midnightblue" d="M351.852,-168.444C331.535,-159.596 299.597,-145.687 276.402,-135.586"/>
<polygon fill="midnightblue" stroke="midnightblue" points="277.622,-132.3 267.056,-131.516 274.827,-138.718 277.622,-132.3"/>
</g>
<!-- Node6&#45;&gt;Node3 -->
<g id="edge6" class="edge"><title>Node6&#45;&gt;Node3</title>
<path fill="none" stroke="midnightblue" d="M435.942,-112.377C419.779,-104.922 398.175,-92.7037 384.5,-76 373.556,-62.633 367.338,-43.8081 363.988,-29.8553"/>
<polygon fill="midnightblue" stroke="midnightblue" points="367.377,-28.9646 361.88,-19.9073 360.529,-30.4156 367.377,-28.9646"/>
</g>
<!-- Node6&#45;&gt;Node5 -->
<g id="edge7" class="edge"><title>Node6&#45;&gt;Node5</title>
<path fill="none" stroke="midnightblue" d="M433.732,-112.444C408.607,-103.399 368.789,-89.064 340.6,-78.9158"/>
<polygon fill="midnightblue" stroke="midnightblue" points="341.751,-75.6106 331.157,-75.5164 339.38,-82.1968 341.751,-75.6106"/>
</g>
<!-- Node7 -->
<g id="node7" class="node"><title>Node7</title>
<polygon fill="white" stroke="#bfbfbf" points="664.5,-56.5 664.5,-75.5 704.5,-75.5 704.5,-56.5 664.5,-56.5"/>
<text text-anchor="middle" x="684.5" y="-63.5" font-family="Helvetica,sans-Serif" font-size="10.00">QFile</text>
</g>
<!-- Node6&#45;&gt;Node7 -->
<g id="edge8" class="edge"><title>Node6&#45;&gt;Node7</title>
<path fill="none" stroke="midnightblue" d="M484.243,-115.609C520.65,-108.122 588.025,-93.7413 654.482,-76.1185"/>
<polygon fill="midnightblue" stroke="midnightblue" points="655.523,-79.4632 664.277,-73.4953 653.712,-72.7015 655.523,-79.4632"/>
</g>
<!-- Node6&#45;&gt;Node8 -->
<g id="edge9" class="edge"><title>Node6&#45;&gt;Node8</title>
<path fill="none" stroke="midnightblue" d="M469.229,-112.324C480.337,-104.107 497.242,-91.6017 510.483,-81.8069"/>
<polygon fill="midnightblue" stroke="midnightblue" points="512.6,-84.5948 518.558,-75.8339 508.437,-78.9671 512.6,-84.5948"/>
</g>
<!-- Node9 -->
<g id="node9" class="node"><title>Node9</title>
<g id="a_node9"><a xlink:href="typedef_8h.html" target="_top" xlink:title="typedef.h">
<polygon fill="white" stroke="black" points="583,-0.5 583,-19.5 640,-19.5 640,-0.5 583,-0.5"/>
<text text-anchor="middle" x="611.5" y="-7.5" font-family="Helvetica,sans-Serif" font-size="10.00">typedef.h</text>
</a>
</g>
</g>
<!-- Node6&#45;&gt;Node9 -->
<g id="edge10" class="edge"><title>Node6&#45;&gt;Node9</title>
<path fill="none" stroke="midnightblue" d="M445.37,-112.367C428.753,-99.4952 402.58,-74.777 417.5,-56 436.516,-32.068 521.814,-19.7277 572.76,-14.3835"/>
<polygon fill="midnightblue" stroke="midnightblue" points="573.168,-17.8602 582.767,-13.377 572.467,-10.8953 573.168,-17.8602"/>
</g>
<!-- Node10 -->
<g id="node10" class="node"><title>Node10</title>
<g id="a_node10"><a xlink:href="yuvsource_8h.html" target="_top" xlink:title="yuvsource.h">
<polygon fill="white" stroke="black" points="576.5,-56.5 576.5,-75.5 646.5,-75.5 646.5,-56.5 576.5,-56.5"/>
<text text-anchor="middle" x="611.5" y="-63.5" font-family="Helvetica,sans-Serif" font-size="10.00">yuvsource.h</text>
</a>
</g>
</g>
<!-- Node6&#45;&gt;Node10 -->
<g id="edge11" class="edge"><title>Node6&#45;&gt;Node10</title>
<path fill="none" stroke="midnightblue" d="M481.902,-112.444C507.697,-103.399 548.577,-89.064 577.518,-78.9158"/>
<polygon fill="midnightblue" stroke="midnightblue" points="578.934,-82.1283 587.212,-75.5164 576.618,-75.5226 578.934,-82.1283"/>
</g>
<!-- Node10&#45;&gt;Node3 -->
<g id="edge12" class="edge"><title>Node10&#45;&gt;Node3</title>
<path fill="none" stroke="midnightblue" d="M576.335,-57.4347C529.073,-47.2668 445.451,-29.2763 397.345,-18.9268"/>
<polygon fill="midnightblue" stroke="midnightblue" points="397.87,-15.4598 387.358,-16.7781 396.398,-22.3032 397.87,-15.4598"/>
</g>
<!-- Node10&#45;&gt;Node9 -->
<g id="edge13" class="edge"><title>Node10&#45;&gt;Node9</title>
<path fill="none" stroke="midnightblue" d="M611.5,-56.083C611.5,-49.0059 611.5,-38.8611 611.5,-29.9865"/>
<polygon fill="midnightblue" stroke="midnightblue" points="615,-29.751 611.5,-19.7511 608,-29.7511 615,-29.751"/>
</g>
<!-- Node11&#45;&gt;Node3 -->
<g id="edge15" class="edge"><title>Node11&#45;&gt;Node3</title>
<path fill="none" stroke="midnightblue" d="M243.134,-112.102C237.236,-98.6688 228.734,-72.9785 240.5,-56 259.099,-29.1622 295.808,-18.3063 323.752,-13.9283"/>
<polygon fill="midnightblue" stroke="midnightblue" points="324.535,-17.3544 333.977,-12.5477 323.598,-10.4173 324.535,-17.3544"/>
</g>
<!-- Node11&#45;&gt;Node9 -->
<g id="edge17" class="edge"><title>Node11&#45;&gt;Node9</title>
<path fill="none" stroke="midnightblue" d="M248.267,-112.192C250.018,-97.9059 255.659,-69.884 273.5,-56 319.347,-20.321 493.567,-12.8998 572.372,-11.3791"/>
<polygon fill="midnightblue" stroke="midnightblue" points="572.896,-14.8708 582.835,-11.2014 572.777,-7.87181 572.896,-14.8708"/>
</g>
<!-- Node12 -->
<g id="node12" class="node"><title>Node12</title>
<polygon fill="white" stroke="#bfbfbf" points="427,-56.5 427,-75.5 484,-75.5 484,-56.5 427,-56.5"/>
<text text-anchor="middle" x="455.5" y="-63.5" font-family="Helvetica,sans-Serif" font-size="10.00">QPixmap</text>
</g>
<!-- Node11&#45;&gt;Node12 -->
<g id="edge16" class="edge"><title>Node11&#45;&gt;Node12</title>
<path fill="none" stroke="midnightblue" d="M280.458,-112.444C317.551,-102.814 377.74,-87.1876 416.975,-77.0018"/>
<polygon fill="midnightblue" stroke="midnightblue" points="417.915,-80.3736 426.715,-74.473 416.156,-73.5982 417.915,-80.3736"/>
</g>
<!-- Node13 -->
<g id="node13" class="node"><title>Node13</title>
<g id="a_node13"><a xlink:href="FileInfoGroupBox_8h.html" target="_top" xlink:title="FileInfoGroupBox.h">
<polygon fill="white" stroke="black" points="49,-56.5 49,-75.5 150,-75.5 150,-56.5 49,-56.5"/>
<text text-anchor="middle" x="99.5" y="-63.5" font-family="Helvetica,sans-Serif" font-size="10.00">FileInfoGroupBox.h</text>
</a>
</g>
</g>
<!-- Node11&#45;&gt;Node13 -->
<g id="edge18" class="edge"><title>Node11&#45;&gt;Node13</title>
<path fill="none" stroke="midnightblue" d="M224.049,-112.444C199.367,-103.438 160.315,-89.1891 132.523,-79.049"/>
<polygon fill="midnightblue" stroke="midnightblue" points="133.435,-75.6561 122.841,-75.5164 131.036,-82.2321 133.435,-75.6561"/>
</g>
<!-- Node14 -->
<g id="node14" class="node"><title>Node14</title>
<polygon fill="white" stroke="#bfbfbf" points="65.5,-0.5 65.5,-19.5 133.5,-19.5 133.5,-0.5 65.5,-0.5"/>
<text text-anchor="middle" x="99.5" y="-7.5" font-family="Helvetica,sans-Serif" font-size="10.00">QGroupBox</text>
</g>
<!-- Node13&#45;&gt;Node14 -->
<g id="edge19" class="edge"><title>Node13&#45;&gt;Node14</title>
<path fill="none" stroke="midnightblue" d="M99.5,-56.083C99.5,-49.0059 99.5,-38.8611 99.5,-29.9865"/>
<polygon fill="midnightblue" stroke="midnightblue" points="103,-29.751 99.5,-19.7511 96.0001,-29.7511 103,-29.751"/>
</g>
<!-- Node15 -->
<g id="node15" class="node"><title>Node15</title>
<polygon fill="white" stroke="#bfbfbf" points="152,-0.5 152,-19.5 223,-19.5 223,-0.5 152,-0.5"/>
<text text-anchor="middle" x="187.5" y="-7.5" font-family="Helvetica,sans-Serif" font-size="10.00">QGridLayout</text>
</g>
<!-- Node13&#45;&gt;Node15 -->
<g id="edge20" class="edge"><title>Node13&#45;&gt;Node15</title>
<path fill="none" stroke="midnightblue" d="M113.639,-56.324C127.366,-47.9002 148.436,-34.9709 164.564,-25.0741"/>
<polygon fill="midnightblue" stroke="midnightblue" points="166.704,-27.8678 173.396,-19.6545 163.043,-21.9016 166.704,-27.8678"/>
</g>
<!-- Node16 -->
<g id="node16" class="node"><title>Node16</title>
<polygon fill="white" stroke="#bfbfbf" points="0,-0.5 0,-19.5 47,-19.5 47,-0.5 0,-0.5"/>
<text text-anchor="middle" x="23.5" y="-7.5" font-family="Helvetica,sans-Serif" font-size="10.00">QLabel</text>
</g>
<!-- Node13&#45;&gt;Node16 -->
<g id="edge21" class="edge"><title>Node13&#45;&gt;Node16</title>
<path fill="none" stroke="midnightblue" d="M87.2893,-56.324C75.7241,-48.1066 58.1246,-35.6017 44.3393,-25.8069"/>
<polygon fill="midnightblue" stroke="midnightblue" points="46.112,-22.7729 35.9329,-19.8339 42.0575,-28.4791 46.112,-22.7729"/>
</g>
<!-- Node17&#45;&gt;Node7 -->
<g id="edge37" class="edge"><title>Node17&#45;&gt;Node7</title>
<path fill="none" stroke="midnightblue" d="M665.661,-168.378C681.919,-161.343 701.793,-149.645 711.5,-132 720.197,-116.191 709.879,-96.995 699.588,-83.578"/>
<polygon fill="midnightblue" stroke="midnightblue" points="702.114,-81.1412 693.029,-75.6894 696.731,-85.6165 702.114,-81.1412"/>
</g>
<!-- Node17&#45;&gt;Node10 -->
<g id="edge24" class="edge"><title>Node17&#45;&gt;Node10</title>
<path fill="none" stroke="midnightblue" d="M615.339,-168.378C599.081,-161.343 579.207,-149.645 569.5,-132 559.774,-114.32 575.915,-95.0131 590.921,-82.073"/>
<polygon fill="midnightblue" stroke="midnightblue" points="593.377,-84.5889 598.968,-75.5899 588.985,-79.1377 593.377,-84.5889"/>
</g>
<!-- Node18 -->
<g id="node18" class="node"><title>Node18</title>
<g id="a_node18"><a xlink:href="statisticSource_8h.html" target="_top" xlink:title="statisticSource.h">
<polygon fill="white" stroke="black" points="759.5,-112.5 759.5,-131.5 849.5,-131.5 849.5,-112.5 759.5,-112.5"/>
<text text-anchor="middle" x="804.5" y="-119.5" font-family="Helvetica,sans-Serif" font-size="10.00">statisticSource.h</text>
</a>
</g>
</g>
<!-- Node17&#45;&gt;Node18 -->
<g id="edge25" class="edge"><title>Node17&#45;&gt;Node18</title>
<path fill="none" stroke="midnightblue" d="M666.486,-168.444C694.196,-159.32 738.252,-144.813 769.116,-134.651"/>
<polygon fill="midnightblue" stroke="midnightblue" points="770.232,-137.968 778.635,-131.516 768.042,-131.32 770.232,-137.968"/>
</g>
<!-- Node23 -->
<g id="node23" class="node"><title>Node23</title>
<g id="a_node23"><a xlink:href="de265_8h.html" target="_top" xlink:title="de265.h">
<polygon fill="white" stroke="black" points="917,-112.5 917,-131.5 968,-131.5 968,-112.5 917,-112.5"/>
<text text-anchor="middle" x="942.5" y="-119.5" font-family="Helvetica,sans-Serif" font-size="10.00">de265.h</text>
</a>
</g>
</g>
<!-- Node17&#45;&gt;Node23 -->
<g id="edge34" class="edge"><title>Node17&#45;&gt;Node23</title>
<path fill="none" stroke="midnightblue" d="M674.402,-169.614C677.139,-169.055 679.864,-168.51 682.5,-168 762.488,-152.514 856.824,-136.826 906.966,-128.691"/>
<polygon fill="midnightblue" stroke="midnightblue" points="907.661,-132.124 916.974,-127.073 906.544,-125.214 907.661,-132.124"/>
</g>
<!-- Node26 -->
<g id="node26" class="node"><title>Node26</title>
<polygon fill="white" stroke="#bfbfbf" points="986.5,-112.5 986.5,-131.5 1038.5,-131.5 1038.5,-112.5 986.5,-112.5"/>
<text text-anchor="middle" x="1012.5" y="-119.5" font-family="Helvetica,sans-Serif" font-size="10.00">QFuture</text>
</g>
<!-- Node17&#45;&gt;Node26 -->
<g id="edge38" class="edge"><title>Node17&#45;&gt;Node26</title>
<path fill="none" stroke="midnightblue" d="M674.376,-169.469C677.119,-168.943 679.853,-168.445 682.5,-168 809.153,-146.719 845.312,-155.549 976.227,-131.807"/>
<polygon fill="midnightblue" stroke="midnightblue" points="977.036,-135.217 986.236,-129.963 975.767,-128.333 977.036,-135.217"/>
</g>
<!-- Node27 -->
<g id="node27" class="node"><title>Node27</title>
<polygon fill="white" stroke="#bfbfbf" points="579,-112.5 579,-131.5 632,-131.5 632,-112.5 579,-112.5"/>
<text text-anchor="middle" x="605.5" y="-119.5" font-family="Helvetica,sans-Serif" font-size="10.00">QQueue</text>
</g>
<!-- Node17&#45;&gt;Node27 -->
<g id="edge39" class="edge"><title>Node17&#45;&gt;Node27</title>
<path fill="none" stroke="midnightblue" d="M634.72,-168.083C629.828,-160.534 622.673,-149.495 616.667,-140.23"/>
<polygon fill="midnightblue" stroke="midnightblue" points="619.548,-138.239 611.172,-131.751 613.674,-142.046 619.548,-138.239"/>
</g>
<!-- Node28 -->
<g id="node28" class="node"><title>Node28</title>
<polygon fill="white" stroke="#bfbfbf" points="650,-112.5 650,-131.5 703,-131.5 703,-112.5 650,-112.5"/>
<text text-anchor="middle" x="676.5" y="-119.5" font-family="Helvetica,sans-Serif" font-size="10.00">QLibrary</text>
</g>
<!-- Node17&#45;&gt;Node28 -->
<g id="edge40" class="edge"><title>Node17&#45;&gt;Node28</title>
<path fill="none" stroke="midnightblue" d="M646.445,-168.083C651.477,-160.534 658.837,-149.495 665.013,-140.23"/>
<polygon fill="midnightblue" stroke="midnightblue" points="668.031,-142.013 670.666,-131.751 662.207,-138.13 668.031,-142.013"/>
</g>
<!-- Node18&#45;&gt;Node3 -->
<g id="edge26" class="edge"><title>Node18&#45;&gt;Node3</title>
<path fill="none" stroke="midnightblue" d="M793.848,-112.37C773.808,-96.3092 730.944,-62.8365 713.5,-56 656.434,-33.6348 475.77,-18.9058 397.383,-13.4113"/>
<polygon fill="midnightblue" stroke="midnightblue" points="397.242,-9.89339 387.025,-12.6975 396.761,-16.8768 397.242,-9.89339"/>
</g>
<!-- Node18&#45;&gt;Node9 -->
<g id="edge28" class="edge"><title>Node18&#45;&gt;Node9</title>
<path fill="none" stroke="midnightblue" d="M798.834,-112.097C789.539,-98.1837 769.747,-71.2971 746.5,-56 716.999,-36.5875 678.352,-24.8236 649.971,-18.2193"/>
<polygon fill="midnightblue" stroke="midnightblue" points="650.536,-14.7596 640.015,-16.015 649.022,-21.5941 650.536,-14.7596"/>
</g>
<!-- Node18&#45;&gt;Node12 -->
<g id="edge27" class="edge"><title>Node18&#45;&gt;Node12</title>
<path fill="none" stroke="midnightblue" d="M759.485,-115.761C700.769,-108.647 594.674,-94.8335 494.102,-75.9577"/>
<polygon fill="midnightblue" stroke="midnightblue" points="494.553,-72.4808 484.075,-74.0552 493.248,-79.3581 494.553,-72.4808"/>
</g>
<!-- Node19 -->
<g id="node19" class="node"><title>Node19</title>
<g id="a_node19"><a xlink:href="statisticsextensions_8h.html" target="_top" xlink:title="statisticsextensions.h">
<polygon fill="white" stroke="black" points="798.5,-56.5 798.5,-75.5 910.5,-75.5 910.5,-56.5 798.5,-56.5"/>
<text text-anchor="middle" x="854.5" y="-63.5" font-family="Helvetica,sans-Serif" font-size="10.00">statisticsextensions.h</text>
</a>
</g>
</g>
<!-- Node18&#45;&gt;Node19 -->
<g id="edge29" class="edge"><title>Node18&#45;&gt;Node19</title>
<path fill="none" stroke="midnightblue" d="M812.756,-112.083C819.965,-104.298 830.61,-92.8015 839.346,-83.3665"/>
<polygon fill="midnightblue" stroke="midnightblue" points="842.171,-85.4666 846.397,-75.7511 837.035,-80.7108 842.171,-85.4666"/>
</g>
<!-- Node19&#45;&gt;Node9 -->
<g id="edge32" class="edge"><title>Node19&#45;&gt;Node9</title>
<path fill="none" stroke="midnightblue" d="M815.996,-56.4435C770.584,-46.3519 695.54,-29.6756 650.09,-19.5756"/>
<polygon fill="midnightblue" stroke="midnightblue" points="650.833,-16.1553 640.312,-17.4026 649.314,-22.9886 650.833,-16.1553"/>
</g>
<!-- Node20 -->
<g id="node20" class="node"><title>Node20</title>
<polygon fill="white" stroke="#bfbfbf" points="895,-0.5 895,-19.5 960,-19.5 960,-0.5 895,-0.5"/>
<text text-anchor="middle" x="927.5" y="-7.5" font-family="Helvetica,sans-Serif" font-size="10.00">QStringList</text>
</g>
<!-- Node19&#45;&gt;Node20 -->
<g id="edge30" class="edge"><title>Node19&#45;&gt;Node20</title>
<path fill="none" stroke="midnightblue" d="M866.229,-56.324C877.337,-48.1066 894.242,-35.6017 907.483,-25.8069"/>
<polygon fill="midnightblue" stroke="midnightblue" points="909.6,-28.5948 915.558,-19.8339 905.437,-22.9671 909.6,-28.5948"/>
</g>
<!-- Node21 -->
<g id="node21" class="node"><title>Node21</title>
<polygon fill="white" stroke="#bfbfbf" points="771,-0.5 771,-19.5 814,-19.5 814,-0.5 771,-0.5"/>
<text text-anchor="middle" x="792.5" y="-7.5" font-family="Helvetica,sans-Serif" font-size="10.00">QMap</text>
</g>
<!-- Node19&#45;&gt;Node21 -->
<g id="edge31" class="edge"><title>Node19&#45;&gt;Node21</title>
<path fill="none" stroke="midnightblue" d="M844.539,-56.324C835.373,-48.3414 821.563,-36.3128 810.472,-26.6529"/>
<polygon fill="midnightblue" stroke="midnightblue" points="812.482,-23.7624 802.643,-19.8339 807.885,-29.041 812.482,-23.7624"/>
</g>
<!-- Node22 -->
<g id="node22" class="node"><title>Node22</title>
<polygon fill="white" stroke="#bfbfbf" points="832.5,-0.5 832.5,-19.5 876.5,-19.5 876.5,-0.5 832.5,-0.5"/>
<text text-anchor="middle" x="854.5" y="-7.5" font-family="Helvetica,sans-Serif" font-size="10.00">cmath</text>
</g>
<!-- Node19&#45;&gt;Node22 -->
<g id="edge33" class="edge"><title>Node19&#45;&gt;Node22</title>
<path fill="none" stroke="midnightblue" d="M854.5,-56.083C854.5,-49.0059 854.5,-38.8611 854.5,-29.9865"/>
<polygon fill="midnightblue" stroke="midnightblue" points="858,-29.751 854.5,-19.7511 851,-29.7511 858,-29.751"/>
</g>
<!-- Node24 -->
<g id="node24" class="node"><title>Node24</title>
<g id="a_node24"><a xlink:href="de265-version_8h.html" target="_top" xlink:title="libde265/de265&#45;version.h">
<polygon fill="white" stroke="black" points="929,-56.5 929,-75.5 1054,-75.5 1054,-56.5 929,-56.5"/>
<text text-anchor="middle" x="991.5" y="-63.5" font-family="Helvetica,sans-Serif" font-size="10.00">libde265/de265&#45;version.h</text>
</a>
</g>
</g>
<!-- Node23&#45;&gt;Node24 -->
<g id="edge35" class="edge"><title>Node23&#45;&gt;Node24</title>
<path fill="none" stroke="midnightblue" d="M950.591,-112.083C957.655,-104.298 968.088,-92.8015 976.649,-83.3665"/>
<polygon fill="midnightblue" stroke="midnightblue" points="979.431,-85.5087 983.559,-75.7511 974.247,-80.8047 979.431,-85.5087"/>
</g>
<!-- Node25 -->
<g id="node25" class="node"><title>Node25</title>
<polygon fill="white" stroke="#bfbfbf" points="1072,-56.5 1072,-75.5 1121,-75.5 1121,-56.5 1072,-56.5"/>
<text text-anchor="middle" x="1096.5" y="-63.5" font-family="Helvetica,sans-Serif" font-size="10.00">stdint.h</text>
</g>
<!-- Node23&#45;&gt;Node25 -->
<g id="edge36" class="edge"><title>Node23&#45;&gt;Node25</title>
<path fill="none" stroke="midnightblue" d="M966.902,-112.444C992.697,-103.399 1033.58,-89.064 1062.52,-78.9158"/>
<polygon fill="midnightblue" stroke="midnightblue" points="1063.93,-82.1283 1072.21,-75.5164 1061.62,-75.5226 1063.93,-82.1283"/>
</g>
</g>
</svg>
        <g id="navigator" transform="translate(0 0)" fill="#404254">
                <rect fill="#f2f5e9" fill-opacity="0.5" stroke="#606060" stroke-width=".5" x="0" y="0" width="60" height="60"/>
                <use id="zoomplus" xlink:href="#zoomPlus" x="17" y="9" onmousedown="handleZoom(evt,'in')"/>
                <use id="zoomminus" xlink:href="#zoomMin" x="42" y="9" onmousedown="handleZoom(evt,'out')"/>
                <use id="reset" xlink:href="#resetDef" x="30" y="36" onmousedown="handleReset()"/>
                <g id="arrowUp" xlink:href="#dirArrow" transform="translate(30 24)" onmousedown="handlePan(0,-1)">
                  <use xlink:href="#rim" fill="#404040">
                        <set attributeName="fill" to="#808080" begin="arrowUp.mouseover" end="arrowUp.mouseout"/>
                  </use>
                  <path fill="none" stroke="white" stroke-width="1.5" d="M0,-3.0v7 M-2.5,-0.5L0,-3.0L2.5,-0.5"/>
                </g>
                <g id="arrowRight" xlink:href="#dirArrow" transform="rotate(90) translate(36 -43)" onmousedown="handlePan(1,0)">
                  <use xlink:href="#rim" fill="#404040">
                        <set attributeName="fill" to="#808080" begin="arrowRight.mouseover" end="arrowRight.mouseout"/>
                  </use>
                  <path fill="none" stroke="white" stroke-width="1.5" d="M0,-3.0v7 M-2.5,-0.5L0,-3.0L2.5,-0.5"/>
                </g>
                <g id="arrowDown" xlink:href="#dirArrow" transform="rotate(180) translate(-30 -48)" onmousedown="handlePan(0,1)">
                  <use xlink:href="#rim" fill="#404040">
                        <set attributeName="fill" to="#808080" begin="arrowDown.mouseover" end="arrowDown.mouseout"/>
                  </use>
                  <path fill="none" stroke="white" stroke-width="1.5" d="M0,-3.0v7 M-2.5,-0.5L0,-3.0L2.5,-0.5"/>
                </g>
                <g id="arrowLeft" xlink:href="#dirArrow" transform="rotate(270) translate(-36 17)" onmousedown="handlePan(-1,0)">
                  <use xlink:href="#rim" fill="#404040">
                        <set attributeName="fill" to="#808080" begin="arrowLeft.mouseover" end="arrowLeft.mouseout"/>
                  </use>
                  <path fill="none" stroke="white" stroke-width="1.5" d="M0,-3.0v7 M-2.5,-0.5L0,-3.0L2.5,-0.5"/>
                </g>
        </g>
        <svg viewBox="0 0 15 15" width="100%" height="30px" preserveAspectRatio="xMaxYMin meet">
         <g id="arrow_out" transform="scale(0.3 0.3)">
          <a xlink:href="frameobject_8cpp__incl_org.svg" target="_base">
           <rect id="button" ry="5" rx="5" y="6" x="6" height="38" width="38"
                fill="#f2f5e9" fill-opacity="0.5" stroke="#606060" stroke-width="1.0"/>
           <path id="arrow"
             d="M 11.500037,31.436501 C 11.940474,20.09759 22.043105,11.32322 32.158766,21.979434 L 37.068811,17.246167 C 37.068811,17.246167 37.088388,32 37.088388,32 L 22.160133,31.978069 C 22.160133,31.978069 26.997745,27.140456 26.997745,27.140456 C 18.528582,18.264221 13.291696,25.230495 11.500037,31.436501 z"
             style="fill:#404040;"/>
          </a>
         </g>
        </svg>
</svg>
