<?xml version="1.0" encoding="UTF-8" standalone="no"?>
<!DOCTYPE svg PUBLIC "-//W3C//DTD SVG 1.1//EN"
 "http://www.w3.org/Graphics/SVG/1.1/DTD/svg11.dtd">
<!-- Generated by graphviz version 2.38.0 (20140413.2041)
 -->
<!-- Title: Graphical Class Hierarchy Pages: 1 -->
<svg width="197pt" height="66pt"
 viewBox="0.00 0.00 197.00 66.00" xmlns="http://www.w3.org/2000/svg" xmlns:xlink="http://www.w3.org/1999/xlink">
<g id="graph0" class="graph" transform="scale(1 1) rotate(0) translate(4 62)">
<title>Graphical Class Hierarchy</title>
<polygon fill="white" stroke="none" points="-4,4 -4,-62 193,-62 193,4 -4,4"/>
<!-- Node1 -->
<g id="node1" class="node"><title>Node1</title>
<g id="a_node1"><a xlink:href="classQDialog.html" target="_top" xlink:title="QDialog">
<polygon fill="white" stroke="black" points="0,-19.5 0,-38.5 52,-38.5 52,-19.5 0,-19.5"/>
<text text-anchor="middle" x="26" y="-26.5" font-family="Helvetica,sans-Serif" font-size="10.00">QDialog</text>
</a>
</g>
</g>
<!-- Node2 -->
<g id="node2" class="node"><title>Node2</title>
<g id="a_node2"><a xlink:href="classEditTextDialog.html" target="_top" xlink:title="EditTextDialog">
<polygon fill="white" stroke="black" points="98,-38.5 98,-57.5 179,-57.5 179,-38.5 98,-38.5"/>
<text text-anchor="middle" x="138.5" y="-45.5" font-family="Helvetica,sans-Serif" font-size="10.00">EditTextDialog</text>
</a>
</g>
</g>
<!-- Node1&#45;&gt;Node2 -->
<g id="edge1" class="edge"><title>Node1&#45;&gt;Node2</title>
<path fill="none" stroke="midnightblue" d="M62.0704,-35.0302C73.432,-36.9838 86.1134,-39.1643 97.7875,-41.1716"/>
<polygon fill="midnightblue" stroke="midnightblue" points="62.5227,-31.5567 52.0742,-33.3114 61.3364,-38.4554 62.5227,-31.5567"/>
</g>
<!-- Node3 -->
<g id="node3" class="node"><title>Node3</title>
<g id="a_node3"><a xlink:href="classFrameObjectDialog.html" target="_top" xlink:title="FrameObjectDialog">
<polygon fill="white" stroke="black" points="88,-0.5 88,-19.5 189,-19.5 189,-0.5 88,-0.5"/>
<text text-anchor="middle" x="138.5" y="-7.5" font-family="Helvetica,sans-Serif" font-size="10.00">FrameObjectDialog</text>
</a>
</g>
</g>
<!-- Node1&#45;&gt;Node3 -->
<g id="edge2" class="edge"><title>Node1&#45;&gt;Node3</title>
<path fill="none" stroke="midnightblue" d="M61.9852,-22.9845C70.1505,-21.5805 79.0013,-20.0586 87.6723,-18.5677"/>
<polygon fill="midnightblue" stroke="midnightblue" points="61.3364,-19.5446 52.0742,-24.6886 62.5227,-26.4433 61.3364,-19.5446"/>
</g>
</g>
</svg>
