<?xml version="1.0" encoding="UTF-8" standalone="no"?>
<!DOCTYPE svg PUBLIC "-//W3C//DTD SVG 1.1//EN"
 "http://www.w3.org/Graphics/SVG/1.1/DTD/svg11.dtd">
<!-- Generated by graphviz version 2.38.0 (20140413.2041)
 -->
<!-- Title: Graphical Class Hierarchy Pages: 1 -->
<svg width="187pt" height="66pt"
 viewBox="0.00 0.00 187.00 66.00" xmlns="http://www.w3.org/2000/svg" xmlns:xlink="http://www.w3.org/1999/xlink">
<g id="graph0" class="graph" transform="scale(1 1) rotate(0) translate(4 62)">
<title>Graphical Class Hierarchy</title>
<polygon fill="white" stroke="none" points="-4,4 -4,-62 183,-62 183,4 -4,4"/>
<!-- Node1 -->
<g id="node1" class="node"><title>Node1</title>
<g id="a_node1"><a xlink:href="classQWidget.html" target="_top" xlink:title="QWidget">
<polygon fill="white" stroke="black" points="0,-19.5 0,-38.5 55,-38.5 55,-19.5 0,-19.5"/>
<text text-anchor="middle" x="27.5" y="-26.5" font-family="Helvetica,sans-Serif" font-size="10.00">QWidget</text>
</a>
</g>
</g>
<!-- Node2 -->
<g id="node2" class="node"><title>Node2</title>
<g id="a_node2"><a xlink:href="classDisplayWidget.html" target="_top" xlink:title="DisplayWidget">
<polygon fill="white" stroke="black" points="95,-38.5 95,-57.5 175,-57.5 175,-38.5 95,-38.5"/>
<text text-anchor="middle" x="135" y="-45.5" font-family="Helvetica,sans-Serif" font-size="10.00">DisplayWidget</text>
</a>
</g>
</g>
<!-- Node1&#45;&gt;Node2 -->
<g id="edge1" class="edge"><title>Node1&#45;&gt;Node2</title>
<path fill="none" stroke="midnightblue" d="M65.0966,-35.5909C74.6328,-37.3083 84.9485,-39.1661 94.6219,-40.9082"/>
<polygon fill="midnightblue" stroke="midnightblue" points="65.5842,-32.1224 55.1221,-33.7945 64.3434,-39.0116 65.5842,-32.1224"/>
</g>
<!-- Node3 -->
<g id="node3" class="node"><title>Node3</title>
<g id="a_node3"><a xlink:href="classSettingsWindow.html" target="_top" xlink:title="SettingsWindow">
<polygon fill="white" stroke="black" points="91,-0.5 91,-19.5 179,-19.5 179,-0.5 91,-0.5"/>
<text text-anchor="middle" x="135" y="-7.5" font-family="Helvetica,sans-Serif" font-size="10.00">SettingsWindow</text>
</a>
</g>
</g>
<!-- Node1&#45;&gt;Node3 -->
<g id="edge2" class="edge"><title>Node1&#45;&gt;Node3</title>
<path fill="none" stroke="midnightblue" d="M64.9756,-22.4309C73.3537,-20.9221 82.3391,-19.3039 90.9655,-17.7503"/>
<polygon fill="midnightblue" stroke="midnightblue" points="64.3434,-18.9884 55.1221,-24.2055 65.5842,-25.8776 64.3434,-18.9884"/>
</g>
</g>
</svg>
