<?xml version="1.0" encoding="UTF-8" standalone="no"?>
<!DOCTYPE svg PUBLIC "-//W3C//DTD SVG 1.1//EN"
 "http://www.w3.org/Graphics/SVG/1.1/DTD/svg11.dtd">
<!-- Generated by graphviz version 2.38.0 (20140413.2041)
 -->
<!-- Title: Graphical Class Hierarchy Pages: 1 -->
<svg width="439pt" height="218pt"
 viewBox="0.00 0.00 439.00 218.00" xmlns="http://www.w3.org/2000/svg" xmlns:xlink="http://www.w3.org/1999/xlink">
<g id="graph0" class="graph" transform="scale(1 1) rotate(0) translate(4 214)">
<title>Graphical Class Hierarchy</title>
<polygon fill="white" stroke="none" points="-4,4 -4,-214 435,-214 435,4 -4,4"/>
<!-- Node1 -->
<g id="node1" class="node"><title>Node1</title>
<g id="a_node1"><a xlink:href="classQObject.html" target="_top" xlink:title="QObject">
<polygon fill="white" stroke="black" points="0,-76.5 0,-95.5 53,-95.5 53,-76.5 0,-76.5"/>
<text text-anchor="middle" x="26.5" y="-83.5" font-family="Helvetica,sans-Serif" font-size="10.00">QObject</text>
</a>
</g>
</g>
<!-- Node2 -->
<g id="node2" class="node"><title>Node2</title>
<g id="a_node2"><a xlink:href="classDisplayObject.html" target="_top" xlink:title="DisplayObject">
<polygon fill="white" stroke="black" points="91,-133.5 91,-152.5 169,-152.5 169,-133.5 91,-133.5"/>
<text text-anchor="middle" x="130" y="-140.5" font-family="Helvetica,sans-Serif" font-size="10.00">DisplayObject</text>
</a>
</g>
</g>
<!-- Node1&#45;&gt;Node2 -->
<g id="edge1" class="edge"><title>Node1&#45;&gt;Node2</title>
<path fill="none" stroke="midnightblue" d="M53.4875,-100.594C71.8945,-110.931 96.0587,-124.501 112.036,-133.474"/>
<polygon fill="midnightblue" stroke="midnightblue" points="55.1511,-97.5141 44.7181,-95.6693 51.7235,-103.618 55.1511,-97.5141"/>
</g>
<!-- Node7 -->
<g id="node7" class="node"><title>Node7</title>
<g id="a_node7"><a xlink:href="classstatisticSource.html" target="_top" xlink:title="statisticSource">
<polygon fill="white" stroke="black" points="89,-76.5 89,-95.5 171,-95.5 171,-76.5 89,-76.5"/>
<text text-anchor="middle" x="130" y="-83.5" font-family="Helvetica,sans-Serif" font-size="10.00">statisticSource</text>
</a>
</g>
</g>
<!-- Node1&#45;&gt;Node7 -->
<g id="edge6" class="edge"><title>Node1&#45;&gt;Node7</title>
<path fill="none" stroke="midnightblue" d="M63.1998,-86C71.4698,-86 80.3261,-86 88.7752,-86"/>
<polygon fill="midnightblue" stroke="midnightblue" points="63.1128,-82.5001 53.1127,-86 63.1127,-89.5001 63.1128,-82.5001"/>
</g>
<!-- Node10 -->
<g id="node10" class="node"><title>Node10</title>
<g id="a_node10"><a xlink:href="classYUVSource.html" target="_top" xlink:title="YUVSource">
<polygon fill="white" stroke="black" points="96,-38.5 96,-57.5 164,-57.5 164,-38.5 96,-38.5"/>
<text text-anchor="middle" x="130" y="-45.5" font-family="Helvetica,sans-Serif" font-size="10.00">YUVSource</text>
</a>
</g>
</g>
<!-- Node1&#45;&gt;Node10 -->
<g id="edge9" class="edge"><title>Node1&#45;&gt;Node10</title>
<path fill="none" stroke="midnightblue" d="M62.5389,-72.882C75.9634,-67.8561 91.0152,-62.2209 103.395,-57.5859"/>
<polygon fill="midnightblue" stroke="midnightblue" points="61.2507,-69.6269 53.1127,-76.411 63.7051,-76.1826 61.2507,-69.6269"/>
</g>
<!-- Node3 -->
<g id="node3" class="node"><title>Node3</title>
<g id="a_node3"><a xlink:href="classFrameObject.html" target="_top" xlink:title="FrameObject">
<polygon fill="white" stroke="black" points="219.5,-190.5 219.5,-209.5 292.5,-209.5 292.5,-190.5 219.5,-190.5"/>
<text text-anchor="middle" x="256" y="-197.5" font-family="Helvetica,sans-Serif" font-size="10.00">FrameObject</text>
</a>
</g>
</g>
<!-- Node2&#45;&gt;Node3 -->
<g id="edge2" class="edge"><title>Node2&#45;&gt;Node3</title>
<path fill="none" stroke="midnightblue" d="M157.795,-157.109C172.229,-164.528 190.428,-173.594 207,-181 214.201,-184.218 222.123,-187.469 229.419,-190.349"/>
<polygon fill="midnightblue" stroke="midnightblue" points="159.398,-153.998 148.909,-152.506 156.178,-160.214 159.398,-153.998"/>
</g>
<!-- Node5 -->
<g id="node5" class="node"><title>Node5</title>
<g id="a_node5"><a xlink:href="classStatisticsObject.html" target="_top" xlink:title="StatisticsObject">
<polygon fill="white" stroke="black" points="213,-152.5 213,-171.5 299,-171.5 299,-152.5 213,-152.5"/>
<text text-anchor="middle" x="256" y="-159.5" font-family="Helvetica,sans-Serif" font-size="10.00">StatisticsObject</text>
</a>
</g>
</g>
<!-- Node2&#45;&gt;Node5 -->
<g id="edge4" class="edge"><title>Node2&#45;&gt;Node5</title>
<path fill="none" stroke="midnightblue" d="M179.185,-150.383C190.277,-152.083 201.991,-153.878 212.807,-155.535"/>
<polygon fill="midnightblue" stroke="midnightblue" points="179.631,-146.911 169.216,-148.856 178.57,-153.83 179.631,-146.911"/>
</g>
<!-- Node6 -->
<g id="node6" class="node"><title>Node6</title>
<g id="a_node6"><a xlink:href="classTextObject.html" target="_top" xlink:title="TextObject">
<polygon fill="white" stroke="black" points="223.5,-114.5 223.5,-133.5 288.5,-133.5 288.5,-114.5 223.5,-114.5"/>
<text text-anchor="middle" x="256" y="-121.5" font-family="Helvetica,sans-Serif" font-size="10.00">TextObject</text>
</a>
</g>
</g>
<!-- Node2&#45;&gt;Node6 -->
<g id="edge5" class="edge"><title>Node2&#45;&gt;Node6</title>
<path fill="none" stroke="midnightblue" d="M179.248,-135.607C194.056,-133.338 209.968,-130.9 223.366,-128.847"/>
<polygon fill="midnightblue" stroke="midnightblue" points="178.57,-132.17 169.216,-137.144 179.631,-139.089 178.57,-132.17"/>
</g>
<!-- Node4 -->
<g id="node4" class="node"><title>Node4</title>
<g id="a_node4"><a xlink:href="classDifferenceObject.html" target="_top" xlink:title="DifferenceObject">
<polygon fill="white" stroke="black" points="341,-190.5 341,-209.5 431,-209.5 431,-190.5 341,-190.5"/>
<text text-anchor="middle" x="386" y="-197.5" font-family="Helvetica,sans-Serif" font-size="10.00">DifferenceObject</text>
</a>
</g>
</g>
<!-- Node3&#45;&gt;Node4 -->
<g id="edge3" class="edge"><title>Node3&#45;&gt;Node4</title>
<path fill="none" stroke="midnightblue" d="M302.786,-200C315.18,-200 328.568,-200 340.868,-200"/>
<polygon fill="midnightblue" stroke="midnightblue" points="302.655,-196.5 292.655,-200 302.655,-203.5 302.655,-196.5"/>
</g>
<!-- Node8 -->
<g id="node8" class="node"><title>Node8</title>
<g id="a_node8"><a xlink:href="classde265File.html" target="_top" xlink:title="de265File">
<polygon fill="white" stroke="black" points="226.5,-38.5 226.5,-57.5 285.5,-57.5 285.5,-38.5 226.5,-38.5"/>
<text text-anchor="middle" x="256" y="-45.5" font-family="Helvetica,sans-Serif" font-size="10.00">de265File</text>
</a>
</g>
</g>
<!-- Node7&#45;&gt;Node8 -->
<g id="edge7" class="edge"><title>Node7&#45;&gt;Node8</title>
<path fill="none" stroke="midnightblue" d="M171.865,-73.4769C189.667,-68.0213 210.11,-61.7565 226.269,-56.8045"/>
<polygon fill="midnightblue" stroke="midnightblue" points="170.826,-70.1345 162.29,-76.411 172.877,-76.8273 170.826,-70.1345"/>
</g>
<!-- Node9 -->
<g id="node9" class="node"><title>Node9</title>
<g id="a_node9"><a xlink:href="classstatisticSourceFile.html" target="_top" xlink:title="statisticSourceFile">
<polygon fill="white" stroke="black" points="207,-76.5 207,-95.5 305,-95.5 305,-76.5 207,-76.5"/>
<text text-anchor="middle" x="256" y="-83.5" font-family="Helvetica,sans-Serif" font-size="10.00">statisticSourceFile</text>
</a>
</g>
</g>
<!-- Node7&#45;&gt;Node9 -->
<g id="edge8" class="edge"><title>Node7&#45;&gt;Node9</title>
<path fill="none" stroke="midnightblue" d="M181.305,-86C189.697,-86 198.386,-86 206.726,-86"/>
<polygon fill="midnightblue" stroke="midnightblue" points="181.259,-82.5001 171.259,-86 181.259,-89.5001 181.259,-82.5001"/>
</g>
<!-- Node10&#45;&gt;Node8 -->
<g id="edge10" class="edge"><title>Node10&#45;&gt;Node8</title>
<path fill="none" stroke="midnightblue" d="M174.591,-48C191.745,-48 210.968,-48 226.316,-48"/>
<polygon fill="midnightblue" stroke="midnightblue" points="174.23,-44.5001 164.23,-48 174.23,-51.5001 174.23,-44.5001"/>
</g>
<!-- Node11 -->
<g id="node11" class="node"><title>Node11</title>
<g id="a_node11"><a xlink:href="classYUVFile.html" target="_top" xlink:title="YUVFile">
<polygon fill="white" stroke="black" points="229.5,-0.5 229.5,-19.5 282.5,-19.5 282.5,-0.5 229.5,-0.5"/>
<text text-anchor="middle" x="256" y="-7.5" font-family="Helvetica,sans-Serif" font-size="10.00">YUVFile</text>
</a>
</g>
</g>
<!-- Node10&#45;&gt;Node11 -->
<g id="edge11" class="edge"><title>Node10&#45;&gt;Node11</title>
<path fill="none" stroke="midnightblue" d="M172.111,-35.4016C190.935,-29.6329 212.668,-22.9728 229.156,-17.9198"/>
<polygon fill="midnightblue" stroke="midnightblue" points="170.826,-32.1345 162.29,-38.411 172.877,-38.8273 170.826,-32.1345"/>
</g>
</g>
</svg>
