<?xml version="1.0" encoding="UTF-8" standalone="no"?>
<!DOCTYPE svg PUBLIC "-//W3C//DTD SVG 1.1//EN"
 "http://www.w3.org/Graphics/SVG/1.1/DTD/svg11.dtd">
<!-- Generated by graphviz version 2.38.0 (20140413.2041)
 -->
<!-- Title: /home/ient/YUViewOrig/YUView/source/mainwindow.cpp Pages: 1 -->
<!--zoomable 207 -->
<svg id="main" version="1.1" xmlns="http://www.w3.org/2000/svg" xmlns:xlink="http://www.w3.org/1999/xlink" xml:space="preserve" onload="init(evt)">
<style type="text/css"><![CDATA[
.edge:hover path { stroke: red; }
.edge:hover polygon { stroke: red; fill: red; }
]]></style>
<script type="text/javascript"><![CDATA[
var edges = document.getElementsByTagName('g');
if (edges && edges.length) {
  for (var i=0;i<edges.length;i++) {
    if (edges[i].id.substr(0,4)=='edge') {
      edges[i].setAttribute('class','edge');
    }
  }
}
]]></script>
        <defs>
                <circle id="rim" cx="0" cy="0" r="7"/>
                <circle id="rim2" cx="0" cy="0" r="3.5"/>
                <g id="zoomPlus">
                        <use xlink:href="#rim" fill="#404040">
                                <set attributeName="fill" to="#808080" begin="zoomplus.mouseover" end="zoomplus.mouseout"/>
                        </use>
                        <path d="M-4,0h8M0,-4v8" fill="none" stroke="white" stroke-width="1.5" pointer-events="none"/>
                </g>
                <g id="zoomMin">
                        <use xlink:href="#rim" fill="#404040">
                                <set attributeName="fill" to="#808080" begin="zoomminus.mouseover" end="zoomminus.mouseout"/>
                        </use>
                        <path d="M-4,0h8" fill="none" stroke="white" stroke-width="1.5" pointer-events="none"/>
                </g>
                <g id="dirArrow">
                        <path fill="none" stroke="white" stroke-width="1.5" d="M0,-3.0v7 M-2.5,-0.5L0,-3.0L2.5,-0.5"/>
                </g>
               <g id="resetDef">
                       <use xlink:href="#rim2" fill="#404040">
                               <set attributeName="fill" to="#808080" begin="reset.mouseover" end="reset.mouseout"/>
                       </use>
               </g>
        </defs>

<script type="text/javascript">
var viewWidth = 3748;
var viewHeight = 207;
var sectionId = 'dynsection-0';
</script>
<script xlink:href="svgpan.js"/>
<svg id="graph" class="graph">
<g id="viewport">
<title>/home/ient/YUViewOrig/YUView/source/mainwindow.cpp</title>
<polygon fill="white" stroke="none" points="-4,4 -4,-203 3743.5,-203 3743.5,4 -4,4"/>
<!-- Node1 -->
<g id="node1" class="node"><title>Node1</title>
<polygon fill="#bfbfbf" stroke="black" points="2280,-168.5 2280,-198.5 2444,-198.5 2444,-168.5 2280,-168.5"/>
<text text-anchor="start" x="2288" y="-186.5" font-family="Helvetica,sans-Serif" font-size="10.00">/home/ient/YUViewOrig</text>
<text text-anchor="middle" x="2362" y="-175.5" font-family="Helvetica,sans-Serif" font-size="10.00">/YUView/source/mainwindow.cpp</text>
</g>
<!-- Node2 -->
<g id="node2" class="node"><title>Node2</title>
<g id="a_node2"><a xlink:href="mainwindow_8h.html" target="_top" xlink:title="mainwindow.h">
<polygon fill="white" stroke="black" points="861.5,-112.5 861.5,-131.5 940.5,-131.5 940.5,-112.5 861.5,-112.5"/>
<text text-anchor="middle" x="901" y="-119.5" font-family="Helvetica,sans-Serif" font-size="10.00">mainwindow.h</text>
</a>
</g>
</g>
<!-- Node1&#45;&gt;Node2 -->
<g id="edge1" class="edge"><title>Node1&#45;&gt;Node2</title>
<path fill="none" stroke="midnightblue" d="M2279.79,-179.152C2011.2,-168.214 1164.51,-133.731 950.513,-125.016"/>
<polygon fill="midnightblue" stroke="midnightblue" points="950.647,-121.519 940.513,-124.609 950.362,-128.513 950.647,-121.519"/>
</g>
<!-- Node23 -->
<g id="node23" class="node"><title>Node23</title>
<g id="a_node23"><a xlink:href="playlistitem_8h.html" target="_top" xlink:title="playlistitem.h">
<polygon fill="white" stroke="red" points="1543,-56.5 1543,-75.5 1617,-75.5 1617,-56.5 1543,-56.5"/>
<text text-anchor="middle" x="1580" y="-63.5" font-family="Helvetica,sans-Serif" font-size="10.00">playlistitem.h</text>
</a>
</g>
</g>
<!-- Node1&#45;&gt;Node23 -->
<g id="edge52" class="edge"><title>Node1&#45;&gt;Node23</title>
<path fill="none" stroke="midnightblue" d="M2279.77,-182.006C2094.64,-180.19 1657.12,-171.699 1604,-132 1589.72,-121.326 1583.93,-101.223 1581.59,-86.1875"/>
<polygon fill="midnightblue" stroke="midnightblue" points="1585.02,-85.4421 1580.38,-75.9176 1578.07,-86.257 1585.02,-85.4421"/>
</g>
<!-- Node24 -->
<g id="node24" class="node"><title>Node24</title>
<g id="a_node24"><a xlink:href="differenceobject_8h.html" target="_top" xlink:title="differenceobject.h">
<polygon fill="white" stroke="red" points="1565,-0.5 1565,-19.5 1659,-19.5 1659,-0.5 1565,-0.5"/>
<text text-anchor="middle" x="1612" y="-7.5" font-family="Helvetica,sans-Serif" font-size="10.00">differenceobject.h</text>
</a>
</g>
</g>
<!-- Node1&#45;&gt;Node24 -->
<g id="edge60" class="edge"><title>Node1&#45;&gt;Node24</title>
<path fill="none" stroke="midnightblue" d="M2279.74,-182.47C2099.73,-181.602 1683.23,-174.924 1637,-132 1611.99,-108.778 1633.54,-89.2871 1626,-56 1623.96,-47.0115 1621.01,-37.2208 1618.34,-29.0741"/>
<polygon fill="midnightblue" stroke="midnightblue" points="1621.62,-27.8599 1615.09,-19.5171 1615,-30.1115 1621.62,-27.8599"/>
</g>
<!-- Node25 -->
<g id="node25" class="node"><title>Node25</title>
<g id="a_node25"><a xlink:href="displaywidget_8h.html" target="_top" xlink:title="displaywidget.h">
<polygon fill="white" stroke="red" points="68,-56.5 68,-75.5 152,-75.5 152,-56.5 68,-56.5"/>
<text text-anchor="middle" x="110" y="-63.5" font-family="Helvetica,sans-Serif" font-size="10.00">displaywidget.h</text>
</a>
</g>
</g>
<!-- Node1&#45;&gt;Node25 -->
<g id="edge31" class="edge"><title>Node1&#45;&gt;Node25</title>
<path fill="none" stroke="midnightblue" d="M2279.68,-181.192C2052.29,-177.265 1396.32,-163.83 852,-132 553.693,-114.556 479.206,-106.983 182,-76 175.669,-75.34 169.032,-74.5899 162.456,-73.8109"/>
<polygon fill="midnightblue" stroke="midnightblue" points="162.575,-70.2998 152.227,-72.572 161.733,-77.2491 162.575,-70.2998"/>
</g>
<!-- Node26 -->
<g id="node26" class="node"><title>Node26</title>
<polygon fill="white" stroke="#bfbfbf" points="1646,-112.5 1646,-131.5 1738,-131.5 1738,-112.5 1646,-112.5"/>
<text text-anchor="middle" x="1692" y="-119.5" font-family="Helvetica,sans-Serif" font-size="10.00">ui_mainwindow.h</text>
</g>
<!-- Node1&#45;&gt;Node26 -->
<g id="edge32" class="edge"><title>Node1&#45;&gt;Node26</title>
<path fill="none" stroke="midnightblue" d="M2279.72,-177.849C2163.51,-170.812 1944.49,-155.825 1748.1,-132.044"/>
<polygon fill="midnightblue" stroke="midnightblue" points="1748.53,-128.57 1738.17,-130.832 1747.68,-135.518 1748.53,-128.57"/>
</g>
<!-- Node27 -->
<g id="node27" class="node"><title>Node27</title>
<polygon fill="white" stroke="#bfbfbf" points="1756,-112.5 1756,-131.5 1824,-131.5 1824,-112.5 1756,-112.5"/>
<text text-anchor="middle" x="1790" y="-119.5" font-family="Helvetica,sans-Serif" font-size="10.00">QFileDialog</text>
</g>
<!-- Node1&#45;&gt;Node27 -->
<g id="edge33" class="edge"><title>Node1&#45;&gt;Node27</title>
<path fill="none" stroke="midnightblue" d="M2279.64,-177.485C2177.43,-170.622 1997.67,-156.462 1834.44,-132.063"/>
<polygon fill="midnightblue" stroke="midnightblue" points="1834.62,-128.551 1824.21,-130.517 1833.57,-135.472 1834.62,-128.551"/>
</g>
<!-- Node28 -->
<g id="node28" class="node"><title>Node28</title>
<polygon fill="white" stroke="#bfbfbf" points="1842.5,-112.5 1842.5,-131.5 1889.5,-131.5 1889.5,-112.5 1842.5,-112.5"/>
<text text-anchor="middle" x="1866" y="-119.5" font-family="Helvetica,sans-Serif" font-size="10.00">math.h</text>
</g>
<!-- Node1&#45;&gt;Node28 -->
<g id="edge34" class="edge"><title>Node1&#45;&gt;Node28</title>
<path fill="none" stroke="midnightblue" d="M2279.88,-177.468C2189.05,-171.017 2038.34,-157.694 1899.65,-131.825"/>
<polygon fill="midnightblue" stroke="midnightblue" points="1900.17,-128.36 1889.69,-129.941 1898.86,-135.238 1900.17,-128.36"/>
</g>
<!-- Node29 -->
<g id="node29" class="node"><title>Node29</title>
<polygon fill="white" stroke="#bfbfbf" points="1908,-112.5 1908,-131.5 1962,-131.5 1962,-112.5 1908,-112.5"/>
<text text-anchor="middle" x="1935" y="-119.5" font-family="Helvetica,sans-Serif" font-size="10.00">QThread</text>
</g>
<!-- Node1&#45;&gt;Node29 -->
<g id="edge35" class="edge"><title>Node1&#45;&gt;Node29</title>
<path fill="none" stroke="midnightblue" d="M2279.99,-173.841C2201.63,-165.081 2080.36,-150.245 1976,-132 1974.75,-131.781 1973.48,-131.55 1972.19,-131.31"/>
<polygon fill="midnightblue" stroke="midnightblue" points="1972.77,-127.857 1962.28,-129.331 1971.4,-134.722 1972.77,-127.857"/>
</g>
<!-- Node30 -->
<g id="node30" class="node"><title>Node30</title>
<polygon fill="white" stroke="#bfbfbf" points="1992.5,-56.5 1992.5,-75.5 2057.5,-75.5 2057.5,-56.5 1992.5,-56.5"/>
<text text-anchor="middle" x="2025" y="-63.5" font-family="Helvetica,sans-Serif" font-size="10.00">QStringList</text>
</g>
<!-- Node1&#45;&gt;Node30 -->
<g id="edge36" class="edge"><title>Node1&#45;&gt;Node30</title>
<path fill="none" stroke="midnightblue" d="M2279.69,-182.669C2186.56,-180.899 2043.32,-171.582 2009,-132 1997.62,-118.873 2004.99,-98.9108 2013.09,-84.5731"/>
<polygon fill="midnightblue" stroke="midnightblue" points="2016.29,-86.0418 2018.59,-75.6988 2010.35,-82.3524 2016.29,-86.0418"/>
</g>
<!-- Node31 -->
<g id="node31" class="node"><title>Node31</title>
<polygon fill="white" stroke="#bfbfbf" points="2122,-112.5 2122,-131.5 2196,-131.5 2196,-112.5 2122,-112.5"/>
<text text-anchor="middle" x="2159" y="-119.5" font-family="Helvetica,sans-Serif" font-size="10.00">QInputDialog</text>
</g>
<!-- Node1&#45;&gt;Node31 -->
<g id="edge37" class="edge"><title>Node1&#45;&gt;Node31</title>
<path fill="none" stroke="midnightblue" d="M2314.15,-168.475C2278.67,-158.075 2230.91,-144.078 2197.8,-134.372"/>
<polygon fill="midnightblue" stroke="midnightblue" points="2198.6,-130.96 2188.02,-131.506 2196.63,-137.678 2198.6,-130.96"/>
</g>
<!-- Node32 -->
<g id="node32" class="node"><title>Node32</title>
<polygon fill="white" stroke="#bfbfbf" points="2214,-112.5 2214,-131.5 2294,-131.5 2294,-112.5 2214,-112.5"/>
<text text-anchor="middle" x="2254" y="-119.5" font-family="Helvetica,sans-Serif" font-size="10.00">QTextBrowser</text>
</g>
<!-- Node1&#45;&gt;Node32 -->
<g id="edge38" class="edge"><title>Node1&#45;&gt;Node32</title>
<path fill="none" stroke="midnightblue" d="M2336.41,-168.399C2318.93,-158.773 2295.91,-146.09 2278.64,-136.577"/>
<polygon fill="midnightblue" stroke="midnightblue" points="2280.16,-133.418 2269.71,-131.658 2276.78,-139.549 2280.16,-133.418"/>
</g>
<!-- Node33 -->
<g id="node33" class="node"><title>Node33</title>
<polygon fill="white" stroke="#bfbfbf" points="2312.5,-112.5 2312.5,-131.5 2411.5,-131.5 2411.5,-112.5 2312.5,-112.5"/>
<text text-anchor="middle" x="2362" y="-119.5" font-family="Helvetica,sans-Serif" font-size="10.00">QDesktopServices</text>
</g>
<!-- Node1&#45;&gt;Node33 -->
<g id="edge39" class="edge"><title>Node1&#45;&gt;Node33</title>
<path fill="none" stroke="midnightblue" d="M2362,-168.399C2362,-160.466 2362,-150.458 2362,-141.858"/>
<polygon fill="midnightblue" stroke="midnightblue" points="2365.5,-141.658 2362,-131.658 2358.5,-141.658 2365.5,-141.658"/>
</g>
<!-- Node34 -->
<g id="node34" class="node"><title>Node34</title>
<polygon fill="white" stroke="#bfbfbf" points="2430,-112.5 2430,-131.5 2534,-131.5 2534,-112.5 2430,-112.5"/>
<text text-anchor="middle" x="2482" y="-119.5" font-family="Helvetica,sans-Serif" font-size="10.00">QXmlStreamReader</text>
</g>
<!-- Node1&#45;&gt;Node34 -->
<g id="edge40" class="edge"><title>Node1&#45;&gt;Node34</title>
<path fill="none" stroke="midnightblue" d="M2390.44,-168.399C2410.12,-158.639 2436.14,-145.737 2455.41,-136.183"/>
<polygon fill="midnightblue" stroke="midnightblue" points="2457.13,-139.236 2464.54,-131.658 2454.02,-132.964 2457.13,-139.236"/>
</g>
<!-- Node35 -->
<g id="node35" class="node"><title>Node35</title>
<polygon fill="white" stroke="#bfbfbf" points="2552,-112.5 2552,-131.5 2602,-131.5 2602,-112.5 2552,-112.5"/>
<text text-anchor="middle" x="2577" y="-119.5" font-family="Helvetica,sans-Serif" font-size="10.00">QBuffer</text>
</g>
<!-- Node1&#45;&gt;Node35 -->
<g id="edge41" class="edge"><title>Node1&#45;&gt;Node35</title>
<path fill="none" stroke="midnightblue" d="M2412.68,-168.475C2452.57,-157.436 2507.1,-142.345 2542.19,-132.633"/>
<polygon fill="midnightblue" stroke="midnightblue" points="2543.28,-135.964 2551.98,-129.924 2541.41,-129.218 2543.28,-135.964"/>
</g>
<!-- Node36 -->
<g id="node36" class="node"><title>Node36</title>
<polygon fill="white" stroke="#bfbfbf" points="2620,-112.5 2620,-131.5 2688,-131.5 2688,-112.5 2620,-112.5"/>
<text text-anchor="middle" x="2654" y="-119.5" font-family="Helvetica,sans-Serif" font-size="10.00">QByteArray</text>
</g>
<!-- Node1&#45;&gt;Node36 -->
<g id="edge42" class="edge"><title>Node1&#45;&gt;Node36</title>
<path fill="none" stroke="midnightblue" d="M2431.79,-168.467C2479.28,-158.889 2543.84,-145.814 2609.6,-132.279"/>
<polygon fill="midnightblue" stroke="midnightblue" points="2610.65,-135.637 2619.74,-130.191 2609.24,-128.781 2610.65,-135.637"/>
</g>
<!-- Node37 -->
<g id="node37" class="node"><title>Node37</title>
<polygon fill="white" stroke="#bfbfbf" points="2706.5,-112.5 2706.5,-131.5 2759.5,-131.5 2759.5,-112.5 2706.5,-112.5"/>
<text text-anchor="middle" x="2733" y="-119.5" font-family="Helvetica,sans-Serif" font-size="10.00">QDebug</text>
</g>
<!-- Node1&#45;&gt;Node37 -->
<g id="edge43" class="edge"><title>Node1&#45;&gt;Node37</title>
<path fill="none" stroke="midnightblue" d="M2444.3,-172.321C2509.95,-163.686 2604.43,-150.117 2696.3,-131.971"/>
<polygon fill="midnightblue" stroke="midnightblue" points="2697.21,-135.358 2706.33,-129.969 2695.84,-128.494 2697.21,-135.358"/>
</g>
<!-- Node38 -->
<g id="node38" class="node"><title>Node38</title>
<polygon fill="white" stroke="#bfbfbf" points="2777.5,-112.5 2777.5,-131.5 2838.5,-131.5 2838.5,-112.5 2777.5,-112.5"/>
<text text-anchor="middle" x="2808" y="-119.5" font-family="Helvetica,sans-Serif" font-size="10.00">QTextEdit</text>
</g>
<!-- Node1&#45;&gt;Node38 -->
<g id="edge44" class="edge"><title>Node1&#45;&gt;Node38</title>
<path fill="none" stroke="midnightblue" d="M2444.23,-174.817C2524.44,-166.748 2650.07,-152.588 2767.52,-132.117"/>
<polygon fill="midnightblue" stroke="midnightblue" points="2768.16,-135.557 2777.4,-130.375 2766.95,-128.663 2768.16,-135.557"/>
</g>
<!-- Node39 -->
<g id="node39" class="node"><title>Node39</title>
<polygon fill="white" stroke="#bfbfbf" points="2856.5,-112.5 2856.5,-131.5 2987.5,-131.5 2987.5,-112.5 2856.5,-112.5"/>
<text text-anchor="middle" x="2922" y="-119.5" font-family="Helvetica,sans-Serif" font-size="10.00">QNetworkAccessManager</text>
</g>
<!-- Node1&#45;&gt;Node39 -->
<g id="edge45" class="edge"><title>Node1&#45;&gt;Node39</title>
<path fill="none" stroke="midnightblue" d="M2444.17,-174.404C2538.67,-164.993 2698.78,-148.742 2846.11,-132.199"/>
<polygon fill="midnightblue" stroke="midnightblue" points="2846.69,-135.655 2856.24,-131.058 2845.91,-128.699 2846.69,-135.655"/>
</g>
<!-- Node40 -->
<g id="node40" class="node"><title>Node40</title>
<polygon fill="white" stroke="#bfbfbf" points="3006,-112.5 3006,-131.5 3104,-131.5 3104,-112.5 3006,-112.5"/>
<text text-anchor="middle" x="3055" y="-119.5" font-family="Helvetica,sans-Serif" font-size="10.00">QNetworkRequest</text>
</g>
<!-- Node1&#45;&gt;Node40 -->
<g id="edge46" class="edge"><title>Node1&#45;&gt;Node40</title>
<path fill="none" stroke="midnightblue" d="M2444.14,-177.931C2563.4,-170.86 2791.65,-155.684 2995.97,-132.037"/>
<polygon fill="midnightblue" stroke="midnightblue" points="2996.46,-135.504 3005.99,-130.868 2995.65,-128.551 2996.46,-135.504"/>
</g>
<!-- Node41 -->
<g id="node41" class="node"><title>Node41</title>
<polygon fill="white" stroke="#bfbfbf" points="3122,-112.5 3122,-131.5 3208,-131.5 3208,-112.5 3122,-112.5"/>
<text text-anchor="middle" x="3165" y="-119.5" font-family="Helvetica,sans-Serif" font-size="10.00">QNetworkReply</text>
</g>
<!-- Node1&#45;&gt;Node41 -->
<g id="edge47" class="edge"><title>Node1&#45;&gt;Node41</title>
<path fill="none" stroke="midnightblue" d="M2444.22,-179.777C2580.82,-174.633 2863.28,-161.372 3111.97,-131.998"/>
<polygon fill="midnightblue" stroke="midnightblue" points="3112.41,-135.471 3121.92,-130.812 3111.58,-128.52 3112.41,-135.471"/>
</g>
<!-- Node42 -->
<g id="node42" class="node"><title>Node42</title>
<polygon fill="white" stroke="#bfbfbf" points="3226,-112.5 3226,-131.5 3316,-131.5 3316,-112.5 3226,-112.5"/>
<text text-anchor="middle" x="3271" y="-119.5" font-family="Helvetica,sans-Serif" font-size="10.00">QJsonDocument</text>
</g>
<!-- Node1&#45;&gt;Node42 -->
<g id="edge48" class="edge"><title>Node1&#45;&gt;Node42</title>
<path fill="none" stroke="midnightblue" d="M2444.19,-180.546C2595.07,-176.323 2926.52,-164.096 3215.7,-132.022"/>
<polygon fill="midnightblue" stroke="midnightblue" points="3216.42,-135.463 3225.97,-130.872 3215.64,-128.507 3216.42,-135.463"/>
</g>
<!-- Node43 -->
<g id="node43" class="node"><title>Node43</title>
<polygon fill="white" stroke="#bfbfbf" points="3334,-112.5 3334,-131.5 3408,-131.5 3408,-112.5 3334,-112.5"/>
<text text-anchor="middle" x="3371" y="-119.5" font-family="Helvetica,sans-Serif" font-size="10.00">QJsonObject</text>
</g>
<!-- Node1&#45;&gt;Node43 -->
<g id="edge49" class="edge"><title>Node1&#45;&gt;Node43</title>
<path fill="none" stroke="midnightblue" d="M2444.14,-182.083C2609.14,-180.397 2992.61,-172.211 3323.64,-131.982"/>
<polygon fill="midnightblue" stroke="midnightblue" points="3324.42,-135.413 3333.91,-130.721 3323.56,-128.465 3324.42,-135.413"/>
</g>
<!-- Node44 -->
<g id="node44" class="node"><title>Node44</title>
<polygon fill="white" stroke="#bfbfbf" points="3426,-112.5 3426,-131.5 3494,-131.5 3494,-112.5 3426,-112.5"/>
<text text-anchor="middle" x="3460" y="-119.5" font-family="Helvetica,sans-Serif" font-size="10.00">QJsonArray</text>
</g>
<!-- Node1&#45;&gt;Node44 -->
<g id="edge50" class="edge"><title>Node1&#45;&gt;Node44</title>
<path fill="none" stroke="midnightblue" d="M2444.13,-182.984C2620.55,-183.065 3048.8,-178.133 3415.79,-131.938"/>
<polygon fill="midnightblue" stroke="midnightblue" points="3416.34,-135.398 3425.82,-130.665 3415.45,-128.454 3416.34,-135.398"/>
</g>
<!-- Node45 -->
<g id="node45" class="node"><title>Node45</title>
<polygon fill="white" stroke="#bfbfbf" points="3512.5,-112.5 3512.5,-131.5 3565.5,-131.5 3565.5,-112.5 3512.5,-112.5"/>
<text text-anchor="middle" x="3539" y="-119.5" font-family="Helvetica,sans-Serif" font-size="10.00">QCache</text>
</g>
<!-- Node1&#45;&gt;Node45 -->
<g id="edge51" class="edge"><title>Node1&#45;&gt;Node45</title>
<path fill="none" stroke="midnightblue" d="M2444.14,-181.006C2666.81,-176.62 3279.52,-162.232 3502.39,-131.706"/>
<polygon fill="midnightblue" stroke="midnightblue" points="3502.97,-135.158 3512.38,-130.287 3501.99,-128.227 3502.97,-135.158"/>
</g>
<!-- Node46 -->
<g id="node46" class="node"><title>Node46</title>
<g id="a_node46"><a xlink:href="statslistmodel_8h.html" target="_top" xlink:title="statslistmodel.h">
<polygon fill="white" stroke="red" points="2018,-112.5 2018,-131.5 2104,-131.5 2104,-112.5 2018,-112.5"/>
<text text-anchor="middle" x="2061" y="-119.5" font-family="Helvetica,sans-Serif" font-size="10.00">statslistmodel.h</text>
</a>
</g>
</g>
<!-- Node1&#45;&gt;Node46 -->
<g id="edge53" class="edge"><title>Node1&#45;&gt;Node46</title>
<path fill="none" stroke="midnightblue" d="M2291.05,-168.475C2236.85,-157.761 2163.34,-143.23 2114.15,-133.506"/>
<polygon fill="midnightblue" stroke="midnightblue" points="2114.52,-130.012 2104.03,-131.506 2113.16,-136.879 2114.52,-130.012"/>
</g>
<!-- Node47 -->
<g id="node47" class="node"><title>Node47</title>
<g id="a_node47"><a xlink:href="displaysplitwidget_8h.html" target="_top" xlink:title="displaysplitwidget.h">
<polygon fill="white" stroke="red" points="299,-112.5 299,-131.5 401,-131.5 401,-112.5 299,-112.5"/>
<text text-anchor="middle" x="350" y="-119.5" font-family="Helvetica,sans-Serif" font-size="10.00">displaysplitwidget.h</text>
</a>
</g>
</g>
<!-- Node1&#45;&gt;Node47 -->
<g id="edge55" class="edge"><title>Node1&#45;&gt;Node47</title>
<path fill="none" stroke="midnightblue" d="M2279.69,-180.066C1946.73,-170.219 703.467,-133.453 411.606,-124.822"/>
<polygon fill="midnightblue" stroke="midnightblue" points="411.324,-121.312 401.225,-124.515 411.117,-128.309 411.324,-121.312"/>
</g>
<!-- Node48 -->
<g id="node48" class="node"><title>Node48</title>
<g id="a_node48"><a xlink:href="plistparser_8h.html" target="_top" xlink:title="plistparser.h">
<polygon fill="white" stroke="red" points="3584,-112.5 3584,-131.5 3654,-131.5 3654,-112.5 3584,-112.5"/>
<text text-anchor="middle" x="3619" y="-119.5" font-family="Helvetica,sans-Serif" font-size="10.00">plistparser.h</text>
</a>
</g>
</g>
<!-- Node1&#45;&gt;Node48 -->
<g id="edge57" class="edge"><title>Node1&#45;&gt;Node48</title>
<path fill="none" stroke="midnightblue" d="M2444.14,-180.797C2676.47,-175.709 3336.28,-159.337 3573.58,-131.948"/>
<polygon fill="midnightblue" stroke="midnightblue" points="3574.02,-135.42 3583.54,-130.761 3573.19,-128.469 3574.02,-135.42"/>
</g>
<!-- Node49 -->
<g id="node49" class="node"><title>Node49</title>
<g id="a_node49"><a xlink:href="plistserializer_8h.html" target="_top" xlink:title="plistserializer.h">
<polygon fill="white" stroke="red" points="56,-112.5 56,-131.5 138,-131.5 138,-112.5 56,-112.5"/>
<text text-anchor="middle" x="97" y="-119.5" font-family="Helvetica,sans-Serif" font-size="10.00">plistserializer.h</text>
</a>
</g>
</g>
<!-- Node1&#45;&gt;Node49 -->
<g id="edge58" class="edge"><title>Node1&#45;&gt;Node49</title>
<path fill="none" stroke="midnightblue" d="M2279.56,-181.149C2000.2,-176.43 1063.59,-159.461 290,-132 241.841,-130.29 186.954,-127.665 148.056,-125.691"/>
<polygon fill="midnightblue" stroke="midnightblue" points="148.193,-122.193 138.027,-125.178 147.836,-129.184 148.193,-122.193"/>
</g>
<!-- Node50 -->
<g id="node50" class="node"><title>Node50</title>
<g id="a_node50"><a xlink:href="de265File_8h.html" target="_top" xlink:title="de265File.h">
<polygon fill="white" stroke="red" points="3672.5,-112.5 3672.5,-131.5 3739.5,-131.5 3739.5,-112.5 3672.5,-112.5"/>
<text text-anchor="middle" x="3706" y="-119.5" font-family="Helvetica,sans-Serif" font-size="10.00">de265File.h</text>
</a>
</g>
</g>
<!-- Node1&#45;&gt;Node50 -->
<g id="edge61" class="edge"><title>Node1&#45;&gt;Node50</title>
<path fill="none" stroke="midnightblue" d="M2444.32,-181.11C2688.38,-176.706 3406.35,-161.645 3662.28,-131.816"/>
<polygon fill="midnightblue" stroke="midnightblue" points="3662.78,-135.282 3672.29,-130.613 3661.94,-128.332 3662.78,-135.282"/>
</g>
<!-- Node3 -->
<g id="node3" class="node"><title>Node3</title>
<polygon fill="white" stroke="#bfbfbf" points="1313,-56.5 1313,-75.5 1393,-75.5 1393,-56.5 1313,-56.5"/>
<text text-anchor="middle" x="1353" y="-63.5" font-family="Helvetica,sans-Serif" font-size="10.00">QMainWindow</text>
</g>
<!-- Node2&#45;&gt;Node3 -->
<g id="edge2" class="edge"><title>Node2&#45;&gt;Node3</title>
<path fill="none" stroke="midnightblue" d="M940.63,-117.216C1012.3,-110.218 1168.15,-94.2885 1299,-76 1300.27,-75.8224 1301.56,-75.6385 1302.86,-75.4494"/>
<polygon fill="midnightblue" stroke="midnightblue" points="1303.57,-78.881 1312.93,-73.9188 1302.52,-71.9604 1303.57,-78.881"/>
</g>
<!-- Node4 -->
<g id="node4" class="node"><title>Node4</title>
<polygon fill="white" stroke="#bfbfbf" points="662.5,-56.5 662.5,-75.5 733.5,-75.5 733.5,-56.5 662.5,-56.5"/>
<text text-anchor="middle" x="698" y="-63.5" font-family="Helvetica,sans-Serif" font-size="10.00">QListWidget</text>
</g>
<!-- Node2&#45;&gt;Node4 -->
<g id="edge3" class="edge"><title>Node2&#45;&gt;Node4</title>
<path fill="none" stroke="midnightblue" d="M868.834,-112.444C833.941,-103.162 778.107,-88.3093 739.829,-78.127"/>
<polygon fill="midnightblue" stroke="midnightblue" points="740.579,-74.7048 730.015,-75.5164 738.78,-81.4696 740.579,-74.7048"/>
</g>
<!-- Node5 -->
<g id="node5" class="node"><title>Node5</title>
<polygon fill="white" stroke="#bfbfbf" points="752,-56.5 752,-75.5 792,-75.5 792,-56.5 752,-56.5"/>
<text text-anchor="middle" x="772" y="-63.5" font-family="Helvetica,sans-Serif" font-size="10.00">QList</text>
</g>
<!-- Node2&#45;&gt;Node5 -->
<g id="edge4" class="edge"><title>Node2&#45;&gt;Node5</title>
<path fill="none" stroke="midnightblue" d="M880.56,-112.444C859.33,-103.557 825.901,-89.5632 801.745,-79.4514"/>
<polygon fill="midnightblue" stroke="midnightblue" points="802.921,-76.1493 792.345,-75.5164 800.218,-82.6064 802.921,-76.1493"/>
</g>
<!-- Node6 -->
<g id="node6" class="node"><title>Node6</title>
<polygon fill="white" stroke="#bfbfbf" points="920,-56.5 920,-75.5 972,-75.5 972,-56.5 920,-56.5"/>
<text text-anchor="middle" x="946" y="-63.5" font-family="Helvetica,sans-Serif" font-size="10.00">QAction</text>
</g>
<!-- Node2&#45;&gt;Node6 -->
<g id="edge5" class="edge"><title>Node2&#45;&gt;Node6</title>
<path fill="none" stroke="midnightblue" d="M908.431,-112.083C914.853,-104.377 924.306,-93.0333 932.122,-83.6531"/>
<polygon fill="midnightblue" stroke="midnightblue" points="934.994,-85.674 938.707,-75.7511 929.617,-81.1927 934.994,-85.674"/>
</g>
<!-- Node7 -->
<g id="node7" class="node"><title>Node7</title>
<polygon fill="white" stroke="#bfbfbf" points="990,-56.5 990,-75.5 1038,-75.5 1038,-56.5 990,-56.5"/>
<text text-anchor="middle" x="1014" y="-63.5" font-family="Helvetica,sans-Serif" font-size="10.00">QMenu</text>
</g>
<!-- Node2&#45;&gt;Node7 -->
<g id="edge6" class="edge"><title>Node2&#45;&gt;Node7</title>
<path fill="none" stroke="midnightblue" d="M918.905,-112.444C937.254,-103.675 966.005,-89.9355 987.094,-79.8579"/>
<polygon fill="midnightblue" stroke="midnightblue" points="988.665,-82.9862 996.179,-75.5164 985.647,-76.6703 988.665,-82.9862"/>
</g>
<!-- Node8 -->
<g id="node8" class="node"><title>Node8</title>
<polygon fill="white" stroke="#bfbfbf" points="1094.5,-56.5 1094.5,-75.5 1157.5,-75.5 1157.5,-56.5 1094.5,-56.5"/>
<text text-anchor="middle" x="1126" y="-63.5" font-family="Helvetica,sans-Serif" font-size="10.00">QMenuBar</text>
</g>
<!-- Node2&#45;&gt;Node8 -->
<g id="edge7" class="edge"><title>Node2&#45;&gt;Node8</title>
<path fill="none" stroke="midnightblue" d="M936.652,-112.444C976.803,-102.807 1041.97,-87.1672 1084.41,-76.9819"/>
<polygon fill="midnightblue" stroke="midnightblue" points="1085.25,-80.3805 1094.15,-74.6433 1083.61,-73.5738 1085.25,-80.3805"/>
</g>
<!-- Node9 -->
<g id="node9" class="node"><title>Node9</title>
<polygon fill="white" stroke="#bfbfbf" points="0,-56.5 0,-75.5 50,-75.5 50,-56.5 0,-56.5"/>
<text text-anchor="middle" x="25" y="-63.5" font-family="Helvetica,sans-Serif" font-size="10.00">QString</text>
</g>
<!-- Node2&#45;&gt;Node9 -->
<g id="edge8" class="edge"><title>Node2&#45;&gt;Node9</title>
<path fill="none" stroke="midnightblue" d="M861.27,-119.959C719.208,-116.073 236.011,-101.393 60.2602,-75.809"/>
<polygon fill="midnightblue" stroke="midnightblue" points="60.5411,-72.3116 50.1283,-74.2671 59.4878,-79.2319 60.5411,-72.3116"/>
</g>
<!-- Node10 -->
<g id="node10" class="node"><title>Node10</title>
<polygon fill="white" stroke="#bfbfbf" points="1175.5,-56.5 1175.5,-75.5 1256.5,-75.5 1256.5,-56.5 1175.5,-56.5"/>
<text text-anchor="middle" x="1216" y="-63.5" font-family="Helvetica,sans-Serif" font-size="10.00">QMessageBox</text>
</g>
<!-- Node2&#45;&gt;Node10 -->
<g id="edge9" class="edge"><title>Node2&#45;&gt;Node10</title>
<path fill="none" stroke="midnightblue" d="M940.53,-114.413C990.414,-106.072 1079.12,-91.1493 1165.39,-76.0932"/>
<polygon fill="midnightblue" stroke="midnightblue" points="1166.1,-79.5218 1175.35,-74.3522 1164.89,-72.6263 1166.1,-79.5218"/>
</g>
<!-- Node11 -->
<g id="node11" class="node"><title>Node11</title>
<polygon fill="white" stroke="#bfbfbf" points="931,-0.5 931,-19.5 991,-19.5 991,-0.5 931,-0.5"/>
<text text-anchor="middle" x="961" y="-7.5" font-family="Helvetica,sans-Serif" font-size="10.00">QSettings</text>
</g>
<!-- Node2&#45;&gt;Node11 -->
<g id="edge10" class="edge"><title>Node2&#45;&gt;Node11</title>
<path fill="none" stroke="midnightblue" d="M940.51,-120.912C974.834,-118.472 1022.74,-108.863 1047,-76 1064,-52.9705 1029.99,-34.2574 999.853,-22.9234"/>
<polygon fill="midnightblue" stroke="midnightblue" points="1000.87,-19.5697 990.274,-19.5066 998.517,-26.1628 1000.87,-19.5697"/>
</g>
<!-- Node12 -->
<g id="node12" class="node"><title>Node12</title>
<polygon fill="white" stroke="#bfbfbf" points="1411,-56.5 1411,-75.5 1457,-75.5 1457,-56.5 1411,-56.5"/>
<text text-anchor="middle" x="1434" y="-63.5" font-family="Helvetica,sans-Serif" font-size="10.00">QTime</text>
</g>
<!-- Node2&#45;&gt;Node12 -->
<g id="edge11" class="edge"><title>Node2&#45;&gt;Node12</title>
<path fill="none" stroke="midnightblue" d="M940.631,-119.922C1024.18,-117.119 1224.54,-107.598 1400.73,-75.9113"/>
<polygon fill="midnightblue" stroke="midnightblue" points="1401.49,-79.3308 1410.7,-74.0903 1400.23,-72.4448 1401.49,-79.3308"/>
</g>
<!-- Node13 -->
<g id="node13" class="node"><title>Node13</title>
<polygon fill="white" stroke="#bfbfbf" points="361,-0.5 361,-19.5 435,-19.5 435,-0.5 361,-0.5"/>
<text text-anchor="middle" x="398" y="-7.5" font-family="Helvetica,sans-Serif" font-size="10.00">QTreeWidget</text>
</g>
<!-- Node2&#45;&gt;Node13 -->
<g id="edge12" class="edge"><title>Node2&#45;&gt;Node13</title>
<path fill="none" stroke="midnightblue" d="M861.494,-118.354C761.251,-111.437 502.427,-92.2232 467,-76 443.485,-65.2314 422.837,-43.1882 410.399,-27.7715"/>
<polygon fill="midnightblue" stroke="midnightblue" points="412.956,-25.3568 404.064,-19.5954 407.422,-29.644 412.956,-25.3568"/>
</g>
<!-- Node14 -->
<g id="node14" class="node"><title>Node14</title>
<polygon fill="white" stroke="#bfbfbf" points="140.5,-0.5 140.5,-19.5 219.5,-19.5 219.5,-0.5 140.5,-0.5"/>
<text text-anchor="middle" x="180" y="-7.5" font-family="Helvetica,sans-Serif" font-size="10.00">QMouseEvent</text>
</g>
<!-- Node2&#45;&gt;Node14 -->
<g id="edge13" class="edge"><title>Node2&#45;&gt;Node14</title>
<path fill="none" stroke="midnightblue" d="M861.403,-118.765C714.047,-110.409 205.52,-81.2213 199,-76 185.398,-65.1076 181.177,-45.0391 180.034,-30.0713"/>
<polygon fill="midnightblue" stroke="midnightblue" points="183.524,-29.7196 179.656,-19.856 176.529,-29.9787 183.524,-29.7196"/>
</g>
<!-- Node15 -->
<g id="node15" class="node"><title>Node15</title>
<polygon fill="white" stroke="#bfbfbf" points="1345,-0.5 1345,-19.5 1439,-19.5 1439,-0.5 1345,-0.5"/>
<text text-anchor="middle" x="1392" y="-7.5" font-family="Helvetica,sans-Serif" font-size="10.00">QTreeWidgetItem</text>
</g>
<!-- Node2&#45;&gt;Node15 -->
<g id="edge14" class="edge"><title>Node2&#45;&gt;Node15</title>
<path fill="none" stroke="midnightblue" d="M940.727,-120.598C1008.67,-118.926 1150.89,-111.103 1265,-76 1283.62,-70.2727 1286.66,-64.8789 1304,-56 1324.88,-45.3092 1348.55,-33.2059 1366.08,-24.2463"/>
<polygon fill="midnightblue" stroke="midnightblue" points="1367.82,-27.2885 1375.13,-19.621 1364.63,-21.0554 1367.82,-27.2885"/>
</g>
<!-- Node16 -->
<g id="node16" class="node"><title>Node16</title>
<polygon fill="white" stroke="#bfbfbf" points="1475.5,-56.5 1475.5,-75.5 1524.5,-75.5 1524.5,-56.5 1475.5,-56.5"/>
<text text-anchor="middle" x="1500" y="-63.5" font-family="Helvetica,sans-Serif" font-size="10.00">QTimer</text>
</g>
<!-- Node2&#45;&gt;Node16 -->
<g id="edge15" class="edge"><title>Node2&#45;&gt;Node16</title>
<path fill="none" stroke="midnightblue" d="M940.688,-120.279C1031.84,-118.103 1263.18,-109.612 1465.32,-75.7882"/>
<polygon fill="midnightblue" stroke="midnightblue" points="1465.96,-79.2306 1475.23,-74.1059 1464.79,-72.3294 1465.96,-79.2306"/>
</g>
<!-- Node17 -->
<g id="node17" class="node"><title>Node17</title>
<polygon fill="white" stroke="#bfbfbf" points="328,-56.5 328,-75.5 420,-75.5 420,-56.5 328,-56.5"/>
<text text-anchor="middle" x="374" y="-63.5" font-family="Helvetica,sans-Serif" font-size="10.00">QDesktopWidget</text>
</g>
<!-- Node2&#45;&gt;Node17 -->
<g id="edge16" class="edge"><title>Node2&#45;&gt;Node17</title>
<path fill="none" stroke="midnightblue" d="M861.252,-117.883C780.57,-111.398 591.844,-95.4294 434,-76 432.736,-75.8444 431.457,-75.6834 430.168,-75.5178"/>
<polygon fill="midnightblue" stroke="midnightblue" points="430.531,-72.0352 420.154,-74.1743 429.6,-78.9731 430.531,-72.0352"/>
</g>
<!-- Node18 -->
<g id="node18" class="node"><title>Node18</title>
<polygon fill="white" stroke="#bfbfbf" points="476.5,-56.5 476.5,-75.5 543.5,-75.5 543.5,-56.5 476.5,-56.5"/>
<text text-anchor="middle" x="510" y="-63.5" font-family="Helvetica,sans-Serif" font-size="10.00">QKeyEvent</text>
</g>
<!-- Node2&#45;&gt;Node18 -->
<g id="edge17" class="edge"><title>Node2&#45;&gt;Node18</title>
<path fill="none" stroke="midnightblue" d="M861.325,-116.967C798.247,-110.32 671.019,-95.9532 554.076,-76.2483"/>
<polygon fill="midnightblue" stroke="midnightblue" points="554.325,-72.7403 543.879,-74.5118 553.15,-79.641 554.325,-72.7403"/>
</g>
<!-- Node19 -->
<g id="node19" class="node"><title>Node19</title>
<g id="a_node19"><a xlink:href="settingswindow_8h.html" target="_top" xlink:title="settingswindow.h">
<polygon fill="white" stroke="black" points="810,-56.5 810,-75.5 902,-75.5 902,-56.5 810,-56.5"/>
<text text-anchor="middle" x="856" y="-63.5" font-family="Helvetica,sans-Serif" font-size="10.00">settingswindow.h</text>
</a>
</g>
</g>
<!-- Node2&#45;&gt;Node19 -->
<g id="edge18" class="edge"><title>Node2&#45;&gt;Node19</title>
<path fill="none" stroke="midnightblue" d="M893.569,-112.083C887.147,-104.377 877.694,-93.0333 869.878,-83.6531"/>
<polygon fill="midnightblue" stroke="midnightblue" points="872.383,-81.1927 863.293,-75.7511 867.006,-85.674 872.383,-81.1927"/>
</g>
<!-- Node21 -->
<g id="node21" class="node"><title>Node21</title>
<g id="a_node21"><a xlink:href="edittextdialog_8h.html" target="_top" xlink:title="edittextdialog.h">
<polygon fill="white" stroke="red" points="561.5,-56.5 561.5,-75.5 644.5,-75.5 644.5,-56.5 561.5,-56.5"/>
<text text-anchor="middle" x="603" y="-63.5" font-family="Helvetica,sans-Serif" font-size="10.00">edittextdialog.h</text>
</a>
</g>
</g>
<!-- Node2&#45;&gt;Node21 -->
<g id="edge21" class="edge"><title>Node2&#45;&gt;Node21</title>
<path fill="none" stroke="midnightblue" d="M861.428,-113.829C808.257,-104.194 713.652,-87.051 654.845,-76.3947"/>
<polygon fill="midnightblue" stroke="midnightblue" points="655.12,-72.8876 644.656,-74.5484 653.872,-79.7755 655.12,-72.8876"/>
</g>
<!-- Node22 -->
<g id="node22" class="node"><title>Node22</title>
<g id="a_node22"><a xlink:href="playlisttreewidget_8h.html" target="_top" xlink:title="playlisttreewidget.h">
<polygon fill="white" stroke="black" points="208.5,-56.5 208.5,-75.5 309.5,-75.5 309.5,-56.5 208.5,-56.5"/>
<text text-anchor="middle" x="259" y="-63.5" font-family="Helvetica,sans-Serif" font-size="10.00">playlisttreewidget.h</text>
</a>
</g>
</g>
<!-- Node2&#45;&gt;Node22 -->
<g id="edge22" class="edge"><title>Node2&#45;&gt;Node22</title>
<path fill="none" stroke="midnightblue" d="M861.389,-118.92C768.649,-113.839 530.019,-99.5452 319.698,-75.9954"/>
<polygon fill="midnightblue" stroke="midnightblue" points="320.035,-72.5113 309.705,-74.867 319.249,-79.4671 320.035,-72.5113"/>
</g>
<!-- Node2&#45;&gt;Node23 -->
<g id="edge25" class="edge"><title>Node2&#45;&gt;Node23</title>
<path fill="none" stroke="midnightblue" d="M940.726,-119.801C1039.16,-116.483 1302.36,-105.486 1532.62,-75.8641"/>
<polygon fill="midnightblue" stroke="midnightblue" points="1533.4,-79.2919 1542.87,-74.5306 1532.5,-72.3505 1533.4,-79.2919"/>
</g>
<!-- Node2&#45;&gt;Node25 -->
<g id="edge28" class="edge"><title>Node2&#45;&gt;Node25</title>
<path fill="none" stroke="midnightblue" d="M861.31,-118.799C718.44,-110.846 235.172,-83.6573 166,-76 164.734,-75.8598 163.453,-75.7108 162.161,-75.5543"/>
<polygon fill="midnightblue" stroke="midnightblue" points="162.51,-72.07 152.137,-74.2266 161.591,-79.0094 162.51,-72.07"/>
</g>
<!-- Node19&#45;&gt;Node11 -->
<g id="edge20" class="edge"><title>Node19&#45;&gt;Node11</title>
<path fill="none" stroke="midnightblue" d="M872.87,-56.324C889.709,-47.6641 915.807,-34.2424 935.238,-24.249"/>
<polygon fill="midnightblue" stroke="midnightblue" points="936.88,-27.3405 944.172,-19.6545 933.678,-21.1155 936.88,-27.3405"/>
</g>
<!-- Node20 -->
<g id="node20" class="node"><title>Node20</title>
<polygon fill="white" stroke="#bfbfbf" points="262.5,-0.5 262.5,-19.5 317.5,-19.5 317.5,-0.5 262.5,-0.5"/>
<text text-anchor="middle" x="290" y="-7.5" font-family="Helvetica,sans-Serif" font-size="10.00">QWidget</text>
</g>
<!-- Node19&#45;&gt;Node20 -->
<g id="edge19" class="edge"><title>Node19&#45;&gt;Node20</title>
<path fill="none" stroke="midnightblue" d="M809.826,-57.1617C806.843,-56.7427 803.881,-56.3507 801,-56 602.27,-31.8149 550.94,-42.3912 352,-20 344.184,-19.1203 335.837,-18.0195 327.882,-16.8926"/>
<polygon fill="midnightblue" stroke="midnightblue" points="328.128,-13.3917 317.728,-15.4127 327.119,-20.3185 328.128,-13.3917"/>
</g>
<!-- Node22&#45;&gt;Node13 -->
<g id="edge23" class="edge"><title>Node22&#45;&gt;Node13</title>
<path fill="none" stroke="midnightblue" d="M281.025,-56.4435C304.104,-47.4776 340.562,-33.314 366.641,-23.1827"/>
<polygon fill="midnightblue" stroke="midnightblue" points="368.024,-26.4002 376.078,-19.5164 365.489,-19.8753 368.024,-26.4002"/>
</g>
<!-- Node22&#45;&gt;Node14 -->
<g id="edge24" class="edge"><title>Node22&#45;&gt;Node14</title>
<path fill="none" stroke="midnightblue" d="M246.307,-56.324C234.099,-47.979 215.422,-35.2122 200.997,-25.3524"/>
<polygon fill="midnightblue" stroke="midnightblue" points="202.892,-22.4082 192.661,-19.6545 198.942,-28.1871 202.892,-22.4082"/>
</g>
<!-- Node23&#45;&gt;Node15 -->
<g id="edge26" class="edge"><title>Node23&#45;&gt;Node15</title>
<path fill="none" stroke="midnightblue" d="M1550.21,-56.4435C1518.17,-47.2406 1467.07,-32.5617 1431.65,-22.3879"/>
<polygon fill="midnightblue" stroke="midnightblue" points="1432.23,-18.9132 1421.65,-19.5164 1430.29,-25.6412 1432.23,-18.9132"/>
</g>
<!-- Node23&#45;&gt;Node24 -->
<g id="edge27" class="edge"><title>Node23&#45;&gt;Node24</title>
<path fill="none" stroke="midnightblue" d="M1585.28,-56.083C1589.71,-48.6127 1596.16,-37.7244 1601.62,-28.5199"/>
<polygon fill="midnightblue" stroke="midnightblue" points="1604.73,-30.1383 1606.81,-19.7511 1598.71,-26.5697 1604.73,-30.1383"/>
</g>
<!-- Node25&#45;&gt;Node14 -->
<g id="edge30" class="edge"><title>Node25&#45;&gt;Node14</title>
<path fill="none" stroke="midnightblue" d="M121.247,-56.324C131.797,-48.1849 147.801,-35.8395 160.442,-26.0874"/>
<polygon fill="midnightblue" stroke="midnightblue" points="162.769,-28.7132 168.549,-19.8339 158.493,-23.1707 162.769,-28.7132"/>
</g>
<!-- Node25&#45;&gt;Node20 -->
<g id="edge29" class="edge"><title>Node25&#45;&gt;Node20</title>
<path fill="none" stroke="midnightblue" d="M138.522,-56.4435C169.336,-47.1993 218.568,-32.4296 252.496,-22.2511"/>
<polygon fill="midnightblue" stroke="midnightblue" points="253.925,-25.4767 262.497,-19.2508 251.913,-18.7719 253.925,-25.4767"/>
</g>
<!-- Node46&#45;&gt;Node30 -->
<g id="edge54" class="edge"><title>Node46&#45;&gt;Node30</title>
<path fill="none" stroke="midnightblue" d="M2055.06,-112.083C2050.02,-104.534 2042.66,-93.4948 2036.49,-84.2298"/>
<polygon fill="midnightblue" stroke="midnightblue" points="2039.29,-82.1301 2030.83,-75.7511 2033.47,-86.0131 2039.29,-82.1301"/>
</g>
<!-- Node47&#45;&gt;Node25 -->
<g id="edge56" class="edge"><title>Node47&#45;&gt;Node25</title>
<path fill="none" stroke="midnightblue" d="M311.971,-112.444C270.192,-103.043 203.018,-87.9291 157.73,-77.7393"/>
<polygon fill="midnightblue" stroke="midnightblue" points="158.375,-74.297 147.851,-75.5164 156.839,-81.1263 158.375,-74.297"/>
</g>
<!-- Node49&#45;&gt;Node9 -->
<g id="edge59" class="edge"><title>Node49&#45;&gt;Node9</title>
<path fill="none" stroke="midnightblue" d="M85.432,-112.324C74.5798,-104.185 58.1193,-91.8395 45.1166,-82.0874"/>
<polygon fill="midnightblue" stroke="midnightblue" points="46.8786,-79.0339 36.7785,-75.8339 42.6785,-84.6339 46.8786,-79.0339"/>
</g>
</g>
</svg>
        <g id="navigator" transform="translate(0 0)" fill="#404254">
                <rect fill="#f2f5e9" fill-opacity="0.5" stroke="#606060" stroke-width=".5" x="0" y="0" width="60" height="60"/>
                <use id="zoomplus" xlink:href="#zoomPlus" x="17" y="9" onmousedown="handleZoom(evt,'in')"/>
                <use id="zoomminus" xlink:href="#zoomMin" x="42" y="9" onmousedown="handleZoom(evt,'out')"/>
                <use id="reset" xlink:href="#resetDef" x="30" y="36" onmousedown="handleReset()"/>
                <g id="arrowUp" xlink:href="#dirArrow" transform="translate(30 24)" onmousedown="handlePan(0,-1)">
                  <use xlink:href="#rim" fill="#404040">
                        <set attributeName="fill" to="#808080" begin="arrowUp.mouseover" end="arrowUp.mouseout"/>
                  </use>
                  <path fill="none" stroke="white" stroke-width="1.5" d="M0,-3.0v7 M-2.5,-0.5L0,-3.0L2.5,-0.5"/>
                </g>
                <g id="arrowRight" xlink:href="#dirArrow" transform="rotate(90) translate(36 -43)" onmousedown="handlePan(1,0)">
                  <use xlink:href="#rim" fill="#404040">
                        <set attributeName="fill" to="#808080" begin="arrowRight.mouseover" end="arrowRight.mouseout"/>
                  </use>
                  <path fill="none" stroke="white" stroke-width="1.5" d="M0,-3.0v7 M-2.5,-0.5L0,-3.0L2.5,-0.5"/>
                </g>
                <g id="arrowDown" xlink:href="#dirArrow" transform="rotate(180) translate(-30 -48)" onmousedown="handlePan(0,1)">
                  <use xlink:href="#rim" fill="#404040">
                        <set attributeName="fill" to="#808080" begin="arrowDown.mouseover" end="arrowDown.mouseout"/>
                  </use>
                  <path fill="none" stroke="white" stroke-width="1.5" d="M0,-3.0v7 M-2.5,-0.5L0,-3.0L2.5,-0.5"/>
                </g>
                <g id="arrowLeft" xlink:href="#dirArrow" transform="rotate(270) translate(-36 17)" onmousedown="handlePan(-1,0)">
                  <use xlink:href="#rim" fill="#404040">
                        <set attributeName="fill" to="#808080" begin="arrowLeft.mouseover" end="arrowLeft.mouseout"/>
                  </use>
                  <path fill="none" stroke="white" stroke-width="1.5" d="M0,-3.0v7 M-2.5,-0.5L0,-3.0L2.5,-0.5"/>
                </g>
        </g>
        <svg viewBox="0 0 15 15" width="100%" height="30px" preserveAspectRatio="xMaxYMin meet">
         <g id="arrow_out" transform="scale(0.3 0.3)">
          <a xlink:href="mainwindow_8cpp__incl_org.svg" target="_base">
           <rect id="button" ry="5" rx="5" y="6" x="6" height="38" width="38"
                fill="#f2f5e9" fill-opacity="0.5" stroke="#606060" stroke-width="1.0"/>
           <path id="arrow"
             d="M 11.500037,31.436501 C 11.940474,20.09759 22.043105,11.32322 32.158766,21.979434 L 37.068811,17.246167 C 37.068811,17.246167 37.088388,32 37.088388,32 L 22.160133,31.978069 C 22.160133,31.978069 26.997745,27.140456 26.997745,27.140456 C 18.528582,18.264221 13.291696,25.230495 11.500037,31.436501 z"
             style="fill:#404040;"/>
          </a>
         </g>
        </svg>
</svg>
