<?xml version="1.0" encoding="UTF-8" standalone="no"?>
<!DOCTYPE svg PUBLIC "-//W3C//DTD SVG 1.1//EN"
 "http://www.w3.org/Graphics/SVG/1.1/DTD/svg11.dtd">
<!-- Generated by graphviz version 2.38.0 (20140413.2041)
 -->
<!-- Title: /home/ient/YUViewOrig/YUView/source/playlisttreewidget.h Pages: 1 -->
<!--zoomable 240 -->
<svg id="main" version="1.1" xmlns="http://www.w3.org/2000/svg" xmlns:xlink="http://www.w3.org/1999/xlink" xml:space="preserve" onload="init(evt)">
<style type="text/css"><![CDATA[
.edge:hover path { stroke: red; }
.edge:hover polygon { stroke: red; fill: red; }
]]></style>
<script type="text/javascript"><![CDATA[
var edges = document.getElementsByTagName('g');
if (edges && edges.length) {
  for (var i=0;i<edges.length;i++) {
    if (edges[i].id.substr(0,4)=='edge') {
      edges[i].setAttribute('class','edge');
    }
  }
}
]]></script>
        <defs>
                <circle id="rim" cx="0" cy="0" r="7"/>
                <circle id="rim2" cx="0" cy="0" r="3.5"/>
                <g id="zoomPlus">
                        <use xlink:href="#rim" fill="#404040">
                                <set attributeName="fill" to="#808080" begin="zoomplus.mouseover" end="zoomplus.mouseout"/>
                        </use>
                        <path d="M-4,0h8M0,-4v8" fill="none" stroke="white" stroke-width="1.5" pointer-events="none"/>
                </g>
                <g id="zoomMin">
                        <use xlink:href="#rim" fill="#404040">
                                <set attributeName="fill" to="#808080" begin="zoomminus.mouseover" end="zoomminus.mouseout"/>
                        </use>
                        <path d="M-4,0h8" fill="none" stroke="white" stroke-width="1.5" pointer-events="none"/>
                </g>
                <g id="dirArrow">
                        <path fill="none" stroke="white" stroke-width="1.5" d="M0,-3.0v7 M-2.5,-0.5L0,-3.0L2.5,-0.5"/>
                </g>
               <g id="resetDef">
                       <use xlink:href="#rim2" fill="#404040">
                               <set attributeName="fill" to="#808080" begin="reset.mouseover" end="reset.mouseout"/>
                       </use>
               </g>
        </defs>

<script type="text/javascript">
var viewWidth = 927;
var viewHeight = 240;
var sectionId = 'dynsection-1';
</script>
<script xlink:href="svgpan.js"/>
<svg id="graph" class="graph">
<g id="viewport">
<title>/home/ient/YUViewOrig/YUView/source/playlisttreewidget.h</title>
<polygon fill="white" stroke="none" points="-4,4 -4,-236 923,-236 923,4 -4,4"/>
<!-- Node1 -->
<g id="node1" class="node"><title>Node1</title>
<polygon fill="#bfbfbf" stroke="black" points="560,-201.5 560,-231.5 735,-231.5 735,-201.5 560,-201.5"/>
<text text-anchor="start" x="568" y="-219.5" font-family="Helvetica,sans-Serif" font-size="10.00">/home/ient/YUViewOrig</text>
<text text-anchor="middle" x="647.5" y="-208.5" font-family="Helvetica,sans-Serif" font-size="10.00">/YUView/source/playlisttreewidget.h</text>
</g>
<!-- Node2 -->
<g id="node2" class="node"><title>Node2</title>
<g id="a_node2"><a xlink:href="mainwindow_8h.html" target="_top" xlink:title="/home/ient/YUViewOrig\l/YUView/source/mainwindow.h">
<polygon fill="white" stroke="black" points="456,-134.5 456,-164.5 609,-164.5 609,-134.5 456,-134.5"/>
<text text-anchor="start" x="464" y="-152.5" font-family="Helvetica,sans-Serif" font-size="10.00">/home/ient/YUViewOrig</text>
<text text-anchor="middle" x="532.5" y="-141.5" font-family="Helvetica,sans-Serif" font-size="10.00">/YUView/source/mainwindow.h</text>
</a>
</g>
</g>
<!-- Node1&#45;&gt;Node2 -->
<g id="edge1" class="edge"><title>Node1&#45;&gt;Node2</title>
<path fill="none" stroke="midnightblue" d="M613.523,-196.296C595.529,-186.125 573.82,-173.855 557.405,-164.577"/>
<polygon fill="midnightblue" stroke="midnightblue" points="612.119,-199.522 622.547,-201.396 615.563,-193.428 612.119,-199.522"/>
</g>
<!-- Node5 -->
<g id="node5" class="node"><title>Node5</title>
<g id="a_node5"><a xlink:href="playlisttreewidget_8cpp.html" target="_top" xlink:title="/home/ient/YUViewOrig\l/YUView/source/playlisttreewidget.cpp">
<polygon fill="white" stroke="black" points="734,-67.5 734,-97.5 919,-97.5 919,-67.5 734,-67.5"/>
<text text-anchor="start" x="742" y="-85.5" font-family="Helvetica,sans-Serif" font-size="10.00">/home/ient/YUViewOrig</text>
<text text-anchor="middle" x="826.5" y="-74.5" font-family="Helvetica,sans-Serif" font-size="10.00">/YUView/source/playlisttreewidget.cpp</text>
</a>
</g>
</g>
<!-- Node1&#45;&gt;Node5 -->
<g id="edge8" class="edge"><title>Node1&#45;&gt;Node5</title>
<path fill="none" stroke="midnightblue" d="M674.917,-195.282C711.592,-168.237 775.679,-120.977 807.482,-97.5247"/>
<polygon fill="midnightblue" stroke="midnightblue" points="672.627,-192.622 666.656,-201.374 676.782,-198.256 672.627,-192.622"/>
</g>
<!-- Node3 -->
<g id="node3" class="node"><title>Node3</title>
<g id="a_node3"><a xlink:href="displaysplitwidget_8cpp.html" target="_top" xlink:title="/home/ient/YUViewOrig\l/YUView/source/displaysplitwidget.cpp">
<polygon fill="white" stroke="black" points="0,-67.5 0,-97.5 187,-97.5 187,-67.5 0,-67.5"/>
<text text-anchor="start" x="8" y="-85.5" font-family="Helvetica,sans-Serif" font-size="10.00">/home/ient/YUViewOrig</text>
<text text-anchor="middle" x="93.5" y="-74.5" font-family="Helvetica,sans-Serif" font-size="10.00">/YUView/source/displaysplitwidget.cpp</text>
</a>
</g>
</g>
<!-- Node2&#45;&gt;Node3 -->
<g id="edge2" class="edge"><title>Node2&#45;&gt;Node3</title>
<path fill="none" stroke="midnightblue" d="M445.482,-135.616C370.915,-124.575 263.758,-108.709 187.298,-97.3881"/>
<polygon fill="midnightblue" stroke="midnightblue" points="445.376,-139.138 455.781,-137.141 446.402,-132.214 445.376,-139.138"/>
</g>
<!-- Node4 -->
<g id="node4" class="node"><title>Node4</title>
<g id="a_node4"><a xlink:href="mainwindow_8cpp.html" target="_top" xlink:title="/home/ient/YUViewOrig\l/YUView/source/mainwindow.cpp">
<polygon fill="white" stroke="black" points="205.5,-67.5 205.5,-97.5 369.5,-97.5 369.5,-67.5 205.5,-67.5"/>
<text text-anchor="start" x="213.5" y="-85.5" font-family="Helvetica,sans-Serif" font-size="10.00">/home/ient/YUViewOrig</text>
<text text-anchor="middle" x="287.5" y="-74.5" font-family="Helvetica,sans-Serif" font-size="10.00">/YUView/source/mainwindow.cpp</text>
</a>
</g>
</g>
<!-- Node2&#45;&gt;Node4 -->
<g id="edge3" class="edge"><title>Node2&#45;&gt;Node4</title>
<path fill="none" stroke="midnightblue" d="M469.742,-131.85C429.797,-121.252 378.63,-107.677 340.687,-97.6109"/>
<polygon fill="midnightblue" stroke="midnightblue" points="469.077,-135.295 479.64,-134.476 470.872,-128.529 469.077,-135.295"/>
</g>
<!-- Node2&#45;&gt;Node5 -->
<g id="edge4" class="edge"><title>Node2&#45;&gt;Node5</title>
<path fill="none" stroke="midnightblue" d="M605.704,-132.316C654.022,-121.633 716.703,-107.775 762.929,-97.5549"/>
<polygon fill="midnightblue" stroke="midnightblue" points="604.94,-128.9 595.932,-134.476 606.451,-135.735 604.94,-128.9"/>
</g>
<!-- Node6 -->
<g id="node6" class="node"><title>Node6</title>
<g id="a_node6"><a xlink:href="statslistview_8cpp.html" target="_top" xlink:title="/home/ient/YUViewOrig\l/YUView/source/statslistview.cpp">
<polygon fill="white" stroke="black" points="387.5,-67.5 387.5,-97.5 551.5,-97.5 551.5,-67.5 387.5,-67.5"/>
<text text-anchor="start" x="395.5" y="-85.5" font-family="Helvetica,sans-Serif" font-size="10.00">/home/ient/YUViewOrig</text>
<text text-anchor="middle" x="469.5" y="-74.5" font-family="Helvetica,sans-Serif" font-size="10.00">/YUView/source/statslistview.cpp</text>
</a>
</g>
</g>
<!-- Node2&#45;&gt;Node6 -->
<g id="edge5" class="edge"><title>Node2&#45;&gt;Node6</title>
<path fill="none" stroke="midnightblue" d="M511.685,-127.024C502.299,-117.34 491.476,-106.174 483.143,-97.5765"/>
<polygon fill="midnightblue" stroke="midnightblue" points="509.357,-129.651 518.83,-134.396 514.383,-124.779 509.357,-129.651"/>
</g>
<!-- Node7 -->
<g id="node7" class="node"><title>Node7</title>
<g id="a_node7"><a xlink:href="yuviewapp_8h.html" target="_top" xlink:title="/home/ient/YUViewOrig\l/YUView/source/yuviewapp.h">
<polygon fill="white" stroke="black" points="569.5,-67.5 569.5,-97.5 715.5,-97.5 715.5,-67.5 569.5,-67.5"/>
<text text-anchor="start" x="577.5" y="-85.5" font-family="Helvetica,sans-Serif" font-size="10.00">/home/ient/YUViewOrig</text>
<text text-anchor="middle" x="642.5" y="-74.5" font-family="Helvetica,sans-Serif" font-size="10.00">/YUView/source/yuviewapp.h</text>
</a>
</g>
</g>
<!-- Node2&#45;&gt;Node7 -->
<g id="edge6" class="edge"><title>Node2&#45;&gt;Node7</title>
<path fill="none" stroke="midnightblue" d="M565,-129.296C582.212,-119.125 602.976,-106.855 618.678,-97.5765"/>
<polygon fill="midnightblue" stroke="midnightblue" points="563.197,-126.295 556.368,-134.396 566.758,-132.322 563.197,-126.295"/>
</g>
<!-- Node8 -->
<g id="node8" class="node"><title>Node8</title>
<g id="a_node8"><a xlink:href="yuviewapp_8cpp.html" target="_top" xlink:title="/home/ient/YUViewOrig\l/YUView/source/yuviewapp.cpp">
<polygon fill="white" stroke="black" points="564.5,-0.5 564.5,-30.5 720.5,-30.5 720.5,-0.5 564.5,-0.5"/>
<text text-anchor="start" x="572.5" y="-18.5" font-family="Helvetica,sans-Serif" font-size="10.00">/home/ient/YUViewOrig</text>
<text text-anchor="middle" x="642.5" y="-7.5" font-family="Helvetica,sans-Serif" font-size="10.00">/YUView/source/yuviewapp.cpp</text>
</a>
</g>
</g>
<!-- Node7&#45;&gt;Node8 -->
<g id="edge7" class="edge"><title>Node7&#45;&gt;Node8</title>
<path fill="none" stroke="midnightblue" d="M642.5,-57.1081C642.5,-48.1539 642.5,-38.3227 642.5,-30.5765"/>
<polygon fill="midnightblue" stroke="midnightblue" points="639,-57.3959 642.5,-67.396 646,-57.396 639,-57.3959"/>
</g>
</g>
</svg>
        <g id="navigator" transform="translate(0 0)" fill="#404254">
                <rect fill="#f2f5e9" fill-opacity="0.5" stroke="#606060" stroke-width=".5" x="0" y="0" width="60" height="60"/>
                <use id="zoomplus" xlink:href="#zoomPlus" x="17" y="9" onmousedown="handleZoom(evt,'in')"/>
                <use id="zoomminus" xlink:href="#zoomMin" x="42" y="9" onmousedown="handleZoom(evt,'out')"/>
                <use id="reset" xlink:href="#resetDef" x="30" y="36" onmousedown="handleReset()"/>
                <g id="arrowUp" xlink:href="#dirArrow" transform="translate(30 24)" onmousedown="handlePan(0,-1)">
                  <use xlink:href="#rim" fill="#404040">
                        <set attributeName="fill" to="#808080" begin="arrowUp.mouseover" end="arrowUp.mouseout"/>
                  </use>
                  <path fill="none" stroke="white" stroke-width="1.5" d="M0,-3.0v7 M-2.5,-0.5L0,-3.0L2.5,-0.5"/>
                </g>
                <g id="arrowRight" xlink:href="#dirArrow" transform="rotate(90) translate(36 -43)" onmousedown="handlePan(1,0)">
                  <use xlink:href="#rim" fill="#404040">
                        <set attributeName="fill" to="#808080" begin="arrowRight.mouseover" end="arrowRight.mouseout"/>
                  </use>
                  <path fill="none" stroke="white" stroke-width="1.5" d="M0,-3.0v7 M-2.5,-0.5L0,-3.0L2.5,-0.5"/>
                </g>
                <g id="arrowDown" xlink:href="#dirArrow" transform="rotate(180) translate(-30 -48)" onmousedown="handlePan(0,1)">
                  <use xlink:href="#rim" fill="#404040">
                        <set attributeName="fill" to="#808080" begin="arrowDown.mouseover" end="arrowDown.mouseout"/>
                  </use>
                  <path fill="none" stroke="white" stroke-width="1.5" d="M0,-3.0v7 M-2.5,-0.5L0,-3.0L2.5,-0.5"/>
                </g>
                <g id="arrowLeft" xlink:href="#dirArrow" transform="rotate(270) translate(-36 17)" onmousedown="handlePan(-1,0)">
                  <use xlink:href="#rim" fill="#404040">
                        <set attributeName="fill" to="#808080" begin="arrowLeft.mouseover" end="arrowLeft.mouseout"/>
                  </use>
                  <path fill="none" stroke="white" stroke-width="1.5" d="M0,-3.0v7 M-2.5,-0.5L0,-3.0L2.5,-0.5"/>
                </g>
        </g>
        <svg viewBox="0 0 15 15" width="100%" height="30px" preserveAspectRatio="xMaxYMin meet">
         <g id="arrow_out" transform="scale(0.3 0.3)">
          <a xlink:href="playlisttreewidget_8h__dep__incl_org.svg" target="_base">
           <rect id="button" ry="5" rx="5" y="6" x="6" height="38" width="38"
                fill="#f2f5e9" fill-opacity="0.5" stroke="#606060" stroke-width="1.0"/>
           <path id="arrow"
             d="M 11.500037,31.436501 C 11.940474,20.09759 22.043105,11.32322 32.158766,21.979434 L 37.068811,17.246167 C 37.068811,17.246167 37.088388,32 37.088388,32 L 22.160133,31.978069 C 22.160133,31.978069 26.997745,27.140456 26.997745,27.140456 C 18.528582,18.264221 13.291696,25.230495 11.500037,31.436501 z"
             style="fill:#404040;"/>
          </a>
         </g>
        </svg>
</svg>
