<?xml version="1.0" encoding="UTF-8" standalone="no"?>
<!DOCTYPE svg PUBLIC "-//W3C//DTD SVG 1.1//EN"
 "http://www.w3.org/Graphics/SVG/1.1/DTD/svg11.dtd">
<!-- Generated by graphviz version 2.38.0 (20140413.2041)
 -->
<!-- Title: /home/ient/YUViewOrig/YUView/source/playlisttreewidget.cpp Pages: 1 -->
<svg width="1768pt" height="431pt"
 viewBox="0.00 0.00 1767.50 431.00" xmlns="http://www.w3.org/2000/svg" xmlns:xlink="http://www.w3.org/1999/xlink">
<g id="graph0" class="graph" transform="scale(1 1) rotate(0) translate(4 427)">
<title>/home/ient/YUViewOrig/YUView/source/playlisttreewidget.cpp</title>
<polygon fill="white" stroke="none" points="-4,4 -4,-427 1763.5,-427 1763.5,4 -4,4"/>
<!-- Node1 -->
<g id="node1" class="node"><title>Node1</title>
<polygon fill="#bfbfbf" stroke="black" points="957.5,-392.5 957.5,-422.5 1142.5,-422.5 1142.5,-392.5 957.5,-392.5"/>
<text text-anchor="start" x="965.5" y="-410.5" font-family="Helvetica,sans-Serif" font-size="10.00">/home/ient/YUViewOrig</text>
<text text-anchor="middle" x="1050" y="-399.5" font-family="Helvetica,sans-Serif" font-size="10.00">/YUView/source/playlisttreewidget.cpp</text>
</g>
<!-- Node2 -->
<g id="node2" class="node"><title>Node2</title>
<g id="a_node2"><a xlink:href="playlisttreewidget_8h.html" target="_top" xlink:title="playlisttreewidget.h">
<polygon fill="white" stroke="black" points="1658.5,-280.5 1658.5,-299.5 1759.5,-299.5 1759.5,-280.5 1658.5,-280.5"/>
<text text-anchor="middle" x="1709" y="-287.5" font-family="Helvetica,sans-Serif" font-size="10.00">playlisttreewidget.h</text>
</a>
</g>
</g>
<!-- Node1&#45;&gt;Node2 -->
<g id="edge1" class="edge"><title>Node1&#45;&gt;Node2</title>
<path fill="none" stroke="midnightblue" d="M1039.74,-392.427C1029.6,-376.674 1017.53,-351.349 1032,-336 1078.73,-286.44 1576.21,-306.676 1644,-300 1645.31,-299.871 1646.63,-299.736 1647.96,-299.595"/>
<polygon fill="midnightblue" stroke="midnightblue" points="1648.77,-303.025 1658.3,-298.413 1647.97,-296.071 1648.77,-303.025"/>
</g>
<!-- Node5 -->
<g id="node5" class="node"><title>Node5</title>
<polygon fill="white" stroke="#bfbfbf" points="1041,-336.5 1041,-355.5 1135,-355.5 1135,-336.5 1041,-336.5"/>
<text text-anchor="middle" x="1088" y="-343.5" font-family="Helvetica,sans-Serif" font-size="10.00">QDragEnterEvent</text>
</g>
<!-- Node1&#45;&gt;Node5 -->
<g id="edge4" class="edge"><title>Node1&#45;&gt;Node5</title>
<path fill="none" stroke="midnightblue" d="M1059.01,-392.399C1064.41,-383.932 1071.33,-373.099 1077.05,-364.139"/>
<polygon fill="midnightblue" stroke="midnightblue" points="1080.04,-365.97 1082.47,-355.658 1074.14,-362.202 1080.04,-365.97"/>
</g>
<!-- Node6 -->
<g id="node6" class="node"><title>Node6</title>
<polygon fill="white" stroke="#bfbfbf" points="1153.5,-336.5 1153.5,-355.5 1190.5,-355.5 1190.5,-336.5 1153.5,-336.5"/>
<text text-anchor="middle" x="1172" y="-343.5" font-family="Helvetica,sans-Serif" font-size="10.00">QUrl</text>
</g>
<!-- Node1&#45;&gt;Node6 -->
<g id="edge5" class="edge"><title>Node1&#45;&gt;Node6</title>
<path fill="none" stroke="midnightblue" d="M1078.91,-392.399C1099.02,-382.595 1125.62,-369.619 1145.24,-360.052"/>
<polygon fill="midnightblue" stroke="midnightblue" points="1146.79,-363.187 1154.25,-355.658 1143.73,-356.896 1146.79,-363.187"/>
</g>
<!-- Node7 -->
<g id="node7" class="node"><title>Node7</title>
<polygon fill="white" stroke="#bfbfbf" points="1208.5,-336.5 1208.5,-355.5 1277.5,-355.5 1277.5,-336.5 1208.5,-336.5"/>
<text text-anchor="middle" x="1243" y="-343.5" font-family="Helvetica,sans-Serif" font-size="10.00">QMimeData</text>
</g>
<!-- Node1&#45;&gt;Node7 -->
<g id="edge6" class="edge"><title>Node1&#45;&gt;Node7</title>
<path fill="none" stroke="midnightblue" d="M1095.74,-392.399C1129.23,-382.073 1174.13,-368.231 1205.52,-358.556"/>
<polygon fill="midnightblue" stroke="midnightblue" points="1206.67,-361.862 1215.2,-355.571 1204.61,-355.172 1206.67,-361.862"/>
</g>
<!-- Node8 -->
<g id="node8" class="node"><title>Node8</title>
<g id="a_node8"><a xlink:href="playlistitem_8h.html" target="_top" xlink:title="playlistitem.h">
<polygon fill="white" stroke="black" points="209,-280.5 209,-299.5 283,-299.5 283,-280.5 209,-280.5"/>
<text text-anchor="middle" x="246" y="-287.5" font-family="Helvetica,sans-Serif" font-size="10.00">playlistitem.h</text>
</a>
</g>
</g>
<!-- Node1&#45;&gt;Node8 -->
<g id="edge7" class="edge"><title>Node1&#45;&gt;Node8</title>
<path fill="none" stroke="midnightblue" d="M957.282,-395.101C816.132,-377.386 538.727,-341.15 293.312,-300.149"/>
<polygon fill="midnightblue" stroke="midnightblue" points="293.567,-296.643 283.126,-298.441 292.41,-303.546 293.567,-296.643"/>
</g>
<!-- Node29 -->
<g id="node29" class="node"><title>Node29</title>
<g id="a_node29"><a xlink:href="mainwindow_8h.html" target="_top" xlink:title="mainwindow.h">
<polygon fill="white" stroke="black" points="905.5,-336.5 905.5,-355.5 984.5,-355.5 984.5,-336.5 905.5,-336.5"/>
<text text-anchor="middle" x="945" y="-343.5" font-family="Helvetica,sans-Serif" font-size="10.00">mainwindow.h</text>
</a>
</g>
</g>
<!-- Node1&#45;&gt;Node29 -->
<g id="edge42" class="edge"><title>Node1&#45;&gt;Node29</title>
<path fill="none" stroke="midnightblue" d="M1025.12,-392.399C1008.29,-382.862 986.161,-370.325 969.427,-360.842"/>
<polygon fill="midnightblue" stroke="midnightblue" points="970.704,-357.543 960.278,-355.658 967.253,-363.633 970.704,-357.543"/>
</g>
<!-- Node3 -->
<g id="node3" class="node"><title>Node3</title>
<polygon fill="white" stroke="#bfbfbf" points="1661,-224.5 1661,-243.5 1735,-243.5 1735,-224.5 1661,-224.5"/>
<text text-anchor="middle" x="1698" y="-231.5" font-family="Helvetica,sans-Serif" font-size="10.00">QTreeWidget</text>
</g>
<!-- Node2&#45;&gt;Node3 -->
<g id="edge2" class="edge"><title>Node2&#45;&gt;Node3</title>
<path fill="none" stroke="midnightblue" d="M1707.18,-280.083C1705.73,-272.927 1703.63,-262.635 1701.81,-253.691"/>
<polygon fill="midnightblue" stroke="midnightblue" points="1705.21,-252.851 1699.78,-243.751 1698.35,-254.248 1705.21,-252.851"/>
</g>
<!-- Node4 -->
<g id="node4" class="node"><title>Node4</title>
<polygon fill="white" stroke="#bfbfbf" points="1552.5,-224.5 1552.5,-243.5 1631.5,-243.5 1631.5,-224.5 1552.5,-224.5"/>
<text text-anchor="middle" x="1592" y="-231.5" font-family="Helvetica,sans-Serif" font-size="10.00">QMouseEvent</text>
</g>
<!-- Node2&#45;&gt;Node4 -->
<g id="edge3" class="edge"><title>Node2&#45;&gt;Node4</title>
<path fill="none" stroke="midnightblue" d="M1690.46,-280.444C1671.38,-271.636 1641.43,-257.812 1619.56,-247.722"/>
<polygon fill="midnightblue" stroke="midnightblue" points="1621,-244.529 1610.45,-243.516 1618.07,-250.885 1621,-244.529"/>
</g>
<!-- Node9 -->
<g id="node9" class="node"><title>Node9</title>
<polygon fill="white" stroke="#bfbfbf" points="576,-224.5 576,-243.5 670,-243.5 670,-224.5 576,-224.5"/>
<text text-anchor="middle" x="623" y="-231.5" font-family="Helvetica,sans-Serif" font-size="10.00">QTreeWidgetItem</text>
</g>
<!-- Node8&#45;&gt;Node9 -->
<g id="edge8" class="edge"><title>Node8&#45;&gt;Node9</title>
<path fill="none" stroke="midnightblue" d="M283.124,-281.545C286.123,-281.001 289.11,-280.479 292,-280 387.583,-264.166 499.377,-249.834 565.517,-241.787"/>
<polygon fill="midnightblue" stroke="midnightblue" points="566.224,-245.227 575.731,-240.55 565.383,-238.278 566.224,-245.227"/>
</g>
<!-- Node10 -->
<g id="node10" class="node"><title>Node10</title>
<g id="a_node10"><a xlink:href="displayobject_8h.html" target="_top" xlink:title="displayobject.h">
<polygon fill="white" stroke="black" points="376,-112.5 376,-131.5 458,-131.5 458,-112.5 376,-112.5"/>
<text text-anchor="middle" x="417" y="-119.5" font-family="Helvetica,sans-Serif" font-size="10.00">displayobject.h</text>
</a>
</g>
</g>
<!-- Node8&#45;&gt;Node10 -->
<g id="edge9" class="edge"><title>Node8&#45;&gt;Node10</title>
<path fill="none" stroke="midnightblue" d="M249.576,-280.295C255.278,-267.114 267.396,-241.748 283,-224 315.805,-186.688 364.371,-154.265 393.14,-136.777"/>
<polygon fill="midnightblue" stroke="midnightblue" points="394.952,-139.771 401.739,-131.636 391.36,-133.763 394.952,-139.771"/>
</g>
<!-- Node14 -->
<g id="node14" class="node"><title>Node14</title>
<g id="a_node14"><a xlink:href="FileInfoGroupBox_8h.html" target="_top" xlink:title="FileInfoGroupBox.h">
<polygon fill="white" stroke="black" points="171.5,-56.5 171.5,-75.5 272.5,-75.5 272.5,-56.5 171.5,-56.5"/>
<text text-anchor="middle" x="222" y="-63.5" font-family="Helvetica,sans-Serif" font-size="10.00">FileInfoGroupBox.h</text>
</a>
</g>
</g>
<!-- Node8&#45;&gt;Node14 -->
<g id="edge25" class="edge"><title>Node8&#45;&gt;Node14</title>
<path fill="none" stroke="midnightblue" d="M208.923,-289.55C173.275,-287.841 121.076,-278.981 95,-244 50.1931,-183.893 150.92,-110.747 198.667,-80.7921"/>
<polygon fill="midnightblue" stroke="midnightblue" points="200.501,-83.7734 207.186,-75.5538 196.834,-77.8106 200.501,-83.7734"/>
</g>
<!-- Node18 -->
<g id="node18" class="node"><title>Node18</title>
<g id="a_node18"><a xlink:href="statisticsobject_8h.html" target="_top" xlink:title="statisticsobject.h">
<polygon fill="white" stroke="black" points="688.5,-224.5 688.5,-243.5 779.5,-243.5 779.5,-224.5 688.5,-224.5"/>
<text text-anchor="middle" x="734" y="-231.5" font-family="Helvetica,sans-Serif" font-size="10.00">statisticsobject.h</text>
</a>
</g>
</g>
<!-- Node8&#45;&gt;Node18 -->
<g id="edge17" class="edge"><title>Node8&#45;&gt;Node18</title>
<path fill="none" stroke="midnightblue" d="M283.103,-281.409C286.107,-280.895 289.1,-280.417 292,-280 459.807,-255.841 505.958,-265.581 678.494,-243.969"/>
<polygon fill="midnightblue" stroke="midnightblue" points="678.938,-247.441 688.417,-242.709 678.056,-240.497 678.938,-247.441"/>
</g>
<!-- Node22 -->
<g id="node22" class="node"><title>Node22</title>
<g id="a_node22"><a xlink:href="frameobject_8h.html" target="_top" xlink:title="frameobject.h">
<polygon fill="white" stroke="black" points="180,-168.5 180,-187.5 256,-187.5 256,-168.5 180,-168.5"/>
<text text-anchor="middle" x="218" y="-175.5" font-family="Helvetica,sans-Serif" font-size="10.00">frameobject.h</text>
</a>
</g>
</g>
<!-- Node8&#45;&gt;Node22 -->
<g id="edge26" class="edge"><title>Node8&#45;&gt;Node22</title>
<path fill="none" stroke="midnightblue" d="M243.803,-280.368C239.284,-262.617 228.861,-221.666 222.734,-197.597"/>
<polygon fill="midnightblue" stroke="midnightblue" points="226.046,-196.419 220.187,-187.591 219.262,-198.146 226.046,-196.419"/>
</g>
<!-- Node26 -->
<g id="node26" class="node"><title>Node26</title>
<g id="a_node26"><a xlink:href="textobject_8h.html" target="_top" xlink:title="textobject.h">
<polygon fill="white" stroke="black" points="292,-224.5 292,-243.5 360,-243.5 360,-224.5 292,-224.5"/>
<text text-anchor="middle" x="326" y="-231.5" font-family="Helvetica,sans-Serif" font-size="10.00">textobject.h</text>
</a>
</g>
</g>
<!-- Node8&#45;&gt;Node26 -->
<g id="edge35" class="edge"><title>Node8&#45;&gt;Node26</title>
<path fill="none" stroke="midnightblue" d="M258.853,-280.324C271.216,-271.979 290.13,-259.212 304.737,-249.352"/>
<polygon fill="midnightblue" stroke="midnightblue" points="306.848,-252.15 313.179,-243.655 302.932,-246.348 306.848,-252.15"/>
</g>
<!-- Node28 -->
<g id="node28" class="node"><title>Node28</title>
<g id="a_node28"><a xlink:href="differenceobject_8h.html" target="_top" xlink:title="differenceobject.h">
<polygon fill="white" stroke="black" points="104,-224.5 104,-243.5 198,-243.5 198,-224.5 104,-224.5"/>
<text text-anchor="middle" x="151" y="-231.5" font-family="Helvetica,sans-Serif" font-size="10.00">differenceobject.h</text>
</a>
</g>
</g>
<!-- Node8&#45;&gt;Node28 -->
<g id="edge39" class="edge"><title>Node8&#45;&gt;Node28</title>
<path fill="none" stroke="midnightblue" d="M230.737,-280.324C215.779,-271.822 192.745,-258.729 175.273,-248.797"/>
<polygon fill="midnightblue" stroke="midnightblue" points="176.649,-245.553 166.226,-243.655 173.19,-251.639 176.649,-245.553"/>
</g>
<!-- Node11 -->
<g id="node11" class="node"><title>Node11</title>
<polygon fill="white" stroke="#bfbfbf" points="304.5,-56.5 304.5,-75.5 357.5,-75.5 357.5,-56.5 304.5,-56.5"/>
<text text-anchor="middle" x="331" y="-63.5" font-family="Helvetica,sans-Serif" font-size="10.00">QObject</text>
</g>
<!-- Node10&#45;&gt;Node11 -->
<g id="edge10" class="edge"><title>Node10&#45;&gt;Node11</title>
<path fill="none" stroke="midnightblue" d="M403.183,-112.324C389.767,-103.9 369.176,-90.9709 353.414,-81.0741"/>
<polygon fill="midnightblue" stroke="midnightblue" points="355.113,-78.0081 344.783,-75.6545 351.391,-83.9364 355.113,-78.0081"/>
</g>
<!-- Node12 -->
<g id="node12" class="node"><title>Node12</title>
<polygon fill="white" stroke="#bfbfbf" points="512.5,-56.5 512.5,-75.5 569.5,-75.5 569.5,-56.5 512.5,-56.5"/>
<text text-anchor="middle" x="541" y="-63.5" font-family="Helvetica,sans-Serif" font-size="10.00">QPixmap</text>
</g>
<!-- Node10&#45;&gt;Node12 -->
<g id="edge11" class="edge"><title>Node10&#45;&gt;Node12</title>
<path fill="none" stroke="midnightblue" d="M436.648,-112.444C456.965,-103.596 488.903,-89.6875 512.098,-79.5865"/>
<polygon fill="midnightblue" stroke="midnightblue" points="513.673,-82.7181 521.444,-75.5164 510.878,-76.3002 513.673,-82.7181"/>
</g>
<!-- Node13 -->
<g id="node13" class="node"><title>Node13</title>
<g id="a_node13"><a xlink:href="typedef_8h.html" target="_top" xlink:title="typedef.h">
<polygon fill="white" stroke="black" points="388.5,-56.5 388.5,-75.5 445.5,-75.5 445.5,-56.5 388.5,-56.5"/>
<text text-anchor="middle" x="417" y="-63.5" font-family="Helvetica,sans-Serif" font-size="10.00">typedef.h</text>
</a>
</g>
</g>
<!-- Node10&#45;&gt;Node13 -->
<g id="edge12" class="edge"><title>Node10&#45;&gt;Node13</title>
<path fill="none" stroke="midnightblue" d="M417,-112.083C417,-105.006 417,-94.8611 417,-85.9865"/>
<polygon fill="midnightblue" stroke="midnightblue" points="420.5,-85.751 417,-75.7511 413.5,-85.7511 420.5,-85.751"/>
</g>
<!-- Node10&#45;&gt;Node14 -->
<g id="edge13" class="edge"><title>Node10&#45;&gt;Node14</title>
<path fill="none" stroke="midnightblue" d="M386.102,-112.444C352.726,-103.201 299.406,-88.4356 262.651,-78.2572"/>
<polygon fill="midnightblue" stroke="midnightblue" points="263.325,-74.8122 252.754,-75.5164 261.457,-81.5583 263.325,-74.8122"/>
</g>
<!-- Node15 -->
<g id="node15" class="node"><title>Node15</title>
<polygon fill="white" stroke="#bfbfbf" points="100,-0.5 100,-19.5 168,-19.5 168,-0.5 100,-0.5"/>
<text text-anchor="middle" x="134" y="-7.5" font-family="Helvetica,sans-Serif" font-size="10.00">QGroupBox</text>
</g>
<!-- Node14&#45;&gt;Node15 -->
<g id="edge14" class="edge"><title>Node14&#45;&gt;Node15</title>
<path fill="none" stroke="midnightblue" d="M207.861,-56.324C194.134,-47.9002 173.064,-34.9709 156.936,-25.0741"/>
<polygon fill="midnightblue" stroke="midnightblue" points="158.457,-21.9016 148.104,-19.6545 154.796,-27.8678 158.457,-21.9016"/>
</g>
<!-- Node16 -->
<g id="node16" class="node"><title>Node16</title>
<polygon fill="white" stroke="#bfbfbf" points="186.5,-0.5 186.5,-19.5 257.5,-19.5 257.5,-0.5 186.5,-0.5"/>
<text text-anchor="middle" x="222" y="-7.5" font-family="Helvetica,sans-Serif" font-size="10.00">QGridLayout</text>
</g>
<!-- Node14&#45;&gt;Node16 -->
<g id="edge15" class="edge"><title>Node14&#45;&gt;Node16</title>
<path fill="none" stroke="midnightblue" d="M222,-56.083C222,-49.0059 222,-38.8611 222,-29.9865"/>
<polygon fill="midnightblue" stroke="midnightblue" points="225.5,-29.751 222,-19.7511 218.5,-29.7511 225.5,-29.751"/>
</g>
<!-- Node17 -->
<g id="node17" class="node"><title>Node17</title>
<polygon fill="white" stroke="#bfbfbf" points="275.5,-0.5 275.5,-19.5 322.5,-19.5 322.5,-0.5 275.5,-0.5"/>
<text text-anchor="middle" x="299" y="-7.5" font-family="Helvetica,sans-Serif" font-size="10.00">QLabel</text>
</g>
<!-- Node14&#45;&gt;Node17 -->
<g id="edge16" class="edge"><title>Node14&#45;&gt;Node17</title>
<path fill="none" stroke="midnightblue" d="M234.371,-56.324C246.158,-48.0577 264.132,-35.4527 278.136,-25.6322"/>
<polygon fill="midnightblue" stroke="midnightblue" points="280.482,-28.2619 286.659,-19.6545 276.462,-22.5307 280.482,-28.2619"/>
</g>
<!-- Node18&#45;&gt;Node10 -->
<g id="edge18" class="edge"><title>Node18&#45;&gt;Node10</title>
<path fill="none" stroke="midnightblue" d="M709.389,-224.46C653.328,-205.006 516.006,-157.355 451.515,-134.977"/>
<polygon fill="midnightblue" stroke="midnightblue" points="452.408,-131.582 441.814,-131.61 450.114,-138.195 452.408,-131.582"/>
</g>
<!-- Node19 -->
<g id="node19" class="node"><title>Node19</title>
<g id="a_node19"><a xlink:href="statisticSourceFile_8h.html" target="_top" xlink:title="statisticSourceFile.h">
<polygon fill="white" stroke="red" points="744,-168.5 744,-187.5 850,-187.5 850,-168.5 744,-168.5"/>
<text text-anchor="middle" x="797" y="-175.5" font-family="Helvetica,sans-Serif" font-size="10.00">statisticSourceFile.h</text>
</a>
</g>
</g>
<!-- Node18&#45;&gt;Node19 -->
<g id="edge19" class="edge"><title>Node18&#45;&gt;Node19</title>
<path fill="none" stroke="midnightblue" d="M744.122,-224.324C753.526,-216.263 767.744,-204.077 779.069,-194.369"/>
<polygon fill="midnightblue" stroke="midnightblue" points="781.379,-196.999 786.694,-187.834 776.823,-191.684 781.379,-196.999"/>
</g>
<!-- Node20 -->
<g id="node20" class="node"><title>Node20</title>
<g id="a_node20"><a xlink:href="statisticSource_8h.html" target="_top" xlink:title="statisticSource.h">
<polygon fill="white" stroke="red" points="546,-112.5 546,-131.5 636,-131.5 636,-112.5 546,-112.5"/>
<text text-anchor="middle" x="591" y="-119.5" font-family="Helvetica,sans-Serif" font-size="10.00">statisticSource.h</text>
</a>
</g>
</g>
<!-- Node19&#45;&gt;Node20 -->
<g id="edge20" class="edge"><title>Node19&#45;&gt;Node20</title>
<path fill="none" stroke="midnightblue" d="M764.359,-168.444C728.95,-159.162 672.291,-144.309 633.447,-134.127"/>
<polygon fill="midnightblue" stroke="midnightblue" points="634.049,-130.667 623.489,-131.516 632.274,-137.438 634.049,-130.667"/>
</g>
<!-- Node21 -->
<g id="node21" class="node"><title>Node21</title>
<polygon fill="white" stroke="#bfbfbf" points="476,-112.5 476,-131.5 528,-131.5 528,-112.5 476,-112.5"/>
<text text-anchor="middle" x="502" y="-119.5" font-family="Helvetica,sans-Serif" font-size="10.00">QFuture</text>
</g>
<!-- Node19&#45;&gt;Node21 -->
<g id="edge24" class="edge"><title>Node19&#45;&gt;Node21</title>
<path fill="none" stroke="midnightblue" d="M743.976,-169.101C693.426,-161.283 614.976,-148.404 538.164,-132.118"/>
<polygon fill="midnightblue" stroke="midnightblue" points="538.831,-128.681 528.32,-130.009 537.365,-135.526 538.831,-128.681"/>
</g>
<!-- Node20&#45;&gt;Node11 -->
<g id="edge21" class="edge"><title>Node20&#45;&gt;Node11</title>
<path fill="none" stroke="midnightblue" d="M549.802,-112.444C499.643,-102.026 415.699,-84.5914 367.679,-74.618"/>
<polygon fill="midnightblue" stroke="midnightblue" points="368.219,-71.1555 357.716,-72.5488 366.796,-78.0092 368.219,-71.1555"/>
</g>
<!-- Node20&#45;&gt;Node12 -->
<g id="edge22" class="edge"><title>Node20&#45;&gt;Node12</title>
<path fill="none" stroke="midnightblue" d="M582.744,-112.083C575.535,-104.298 564.89,-92.8015 556.154,-83.3665"/>
<polygon fill="midnightblue" stroke="midnightblue" points="558.465,-80.7108 549.103,-75.7511 553.329,-85.4666 558.465,-80.7108"/>
</g>
<!-- Node20&#45;&gt;Node13 -->
<g id="edge23" class="edge"><title>Node20&#45;&gt;Node13</title>
<path fill="none" stroke="midnightblue" d="M563.429,-112.444C533.903,-103.28 486.882,-88.6876 454.117,-78.5192"/>
<polygon fill="midnightblue" stroke="midnightblue" points="455.03,-75.1378 444.442,-75.5164 452.955,-81.8232 455.03,-75.1378"/>
</g>
<!-- Node22&#45;&gt;Node10 -->
<g id="edge34" class="edge"><title>Node22&#45;&gt;Node10</title>
<path fill="none" stroke="midnightblue" d="M249.532,-168.444C283.592,-159.201 338.006,-144.436 375.515,-134.257"/>
<polygon fill="midnightblue" stroke="midnightblue" points="376.881,-137.513 385.615,-131.516 375.048,-130.758 376.881,-137.513"/>
</g>
<!-- Node22&#45;&gt;Node11 -->
<g id="edge27" class="edge"><title>Node22&#45;&gt;Node11</title>
<path fill="none" stroke="midnightblue" d="M226.867,-168.368C245.845,-149.894 290.636,-106.293 314.827,-82.7436"/>
<polygon fill="midnightblue" stroke="midnightblue" points="317.45,-85.0747 322.174,-75.5914 312.567,-80.0588 317.45,-85.0747"/>
</g>
<!-- Node23 -->
<g id="node23" class="node"><title>Node23</title>
<polygon fill="white" stroke="#bfbfbf" points="180,-112.5 180,-131.5 248,-131.5 248,-112.5 180,-112.5"/>
<text text-anchor="middle" x="214" y="-119.5" font-family="Helvetica,sans-Serif" font-size="10.00">QByteArray</text>
</g>
<!-- Node22&#45;&gt;Node23 -->
<g id="edge28" class="edge"><title>Node22&#45;&gt;Node23</title>
<path fill="none" stroke="midnightblue" d="M217.339,-168.083C216.815,-161.006 216.064,-150.861 215.406,-141.986"/>
<polygon fill="midnightblue" stroke="midnightblue" points="218.877,-141.465 214.648,-131.751 211.897,-141.982 218.877,-141.465"/>
</g>
<!-- Node24 -->
<g id="node24" class="node"><title>Node24</title>
<polygon fill="white" stroke="#bfbfbf" points="51,-56.5 51,-75.5 101,-75.5 101,-56.5 51,-56.5"/>
<text text-anchor="middle" x="76" y="-63.5" font-family="Helvetica,sans-Serif" font-size="10.00">QString</text>
</g>
<!-- Node22&#45;&gt;Node24 -->
<g id="edge29" class="edge"><title>Node22&#45;&gt;Node24</title>
<path fill="none" stroke="midnightblue" d="M206.857,-168.368C182.698,-149.653 125.249,-105.151 95.1473,-81.8324"/>
<polygon fill="midnightblue" stroke="midnightblue" points="97.1397,-78.9485 87.0907,-75.5914 92.8529,-84.4824 97.1397,-78.9485"/>
</g>
<!-- Node25 -->
<g id="node25" class="node"><title>Node25</title>
<g id="a_node25"><a xlink:href="yuvfile_8h.html" target="_top" xlink:title="yuvfile.h">
<polygon fill="white" stroke="red" points="304.5,-112.5 304.5,-131.5 357.5,-131.5 357.5,-112.5 304.5,-112.5"/>
<text text-anchor="middle" x="331" y="-119.5" font-family="Helvetica,sans-Serif" font-size="10.00">yuvfile.h</text>
</a>
</g>
</g>
<!-- Node22&#45;&gt;Node25 -->
<g id="edge30" class="edge"><title>Node22&#45;&gt;Node25</title>
<path fill="none" stroke="midnightblue" d="M235.905,-168.444C254.254,-159.675 283.005,-145.935 304.094,-135.858"/>
<polygon fill="midnightblue" stroke="midnightblue" points="305.665,-138.986 313.179,-131.516 302.647,-132.67 305.665,-138.986"/>
</g>
<!-- Node25&#45;&gt;Node11 -->
<g id="edge31" class="edge"><title>Node25&#45;&gt;Node11</title>
<path fill="none" stroke="midnightblue" d="M331,-112.083C331,-105.006 331,-94.8611 331,-85.9865"/>
<polygon fill="midnightblue" stroke="midnightblue" points="334.5,-85.751 331,-75.7511 327.5,-85.7511 334.5,-85.751"/>
</g>
<!-- Node25&#45;&gt;Node13 -->
<g id="edge33" class="edge"><title>Node25&#45;&gt;Node13</title>
<path fill="none" stroke="midnightblue" d="M344.817,-112.324C358.233,-103.9 378.824,-90.9709 394.586,-81.0741"/>
<polygon fill="midnightblue" stroke="midnightblue" points="396.609,-83.9364 403.217,-75.6545 392.887,-78.0081 396.609,-83.9364"/>
</g>
<!-- Node25&#45;&gt;Node24 -->
<g id="edge32" class="edge"><title>Node25&#45;&gt;Node24</title>
<path fill="none" stroke="midnightblue" d="M304.192,-115.323C257.896,-105.519 162.968,-85.4168 111.338,-74.4834"/>
<polygon fill="midnightblue" stroke="midnightblue" points="111.822,-71.0083 101.314,-72.3606 110.372,-77.8564 111.822,-71.0083"/>
</g>
<!-- Node26&#45;&gt;Node10 -->
<g id="edge38" class="edge"><title>Node26&#45;&gt;Node10</title>
<path fill="none" stroke="midnightblue" d="M333.141,-224.368C348.291,-206.055 383.869,-163.049 403.464,-139.362"/>
<polygon fill="midnightblue" stroke="midnightblue" points="406.215,-141.528 409.893,-131.591 400.821,-137.066 406.215,-141.528"/>
</g>
<!-- Node26&#45;&gt;Node24 -->
<g id="edge36" class="edge"><title>Node26&#45;&gt;Node24</title>
<path fill="none" stroke="midnightblue" d="M291.694,-229.205C258.455,-224.181 207.809,-212.852 171,-188 130.567,-160.701 99.4676,-110.755 84.9674,-84.3793"/>
<polygon fill="midnightblue" stroke="midnightblue" points="88.0353,-82.6941 80.238,-75.521 81.8603,-85.9909 88.0353,-82.6941"/>
</g>
<!-- Node27 -->
<g id="node27" class="node"><title>Node27</title>
<polygon fill="white" stroke="#bfbfbf" points="439.5,-168.5 439.5,-187.5 486.5,-187.5 486.5,-168.5 439.5,-168.5"/>
<text text-anchor="middle" x="463" y="-175.5" font-family="Helvetica,sans-Serif" font-size="10.00">QColor</text>
</g>
<!-- Node26&#45;&gt;Node27 -->
<g id="edge37" class="edge"><title>Node26&#45;&gt;Node27</title>
<path fill="none" stroke="midnightblue" d="M347.708,-224.444C370.355,-215.517 406.072,-201.439 431.752,-191.317"/>
<polygon fill="midnightblue" stroke="midnightblue" points="433.374,-194.44 441.394,-187.516 430.807,-187.927 433.374,-194.44"/>
</g>
<!-- Node28&#45;&gt;Node11 -->
<g id="edge40" class="edge"><title>Node28&#45;&gt;Node11</title>
<path fill="none" stroke="midnightblue" d="M149.598,-224.379C146.574,-202.548 141.885,-144.519 171,-112 179.348,-102.676 249.862,-85.323 294.45,-75.1054"/>
<polygon fill="midnightblue" stroke="midnightblue" points="295.38,-78.4833 304.356,-72.8547 293.829,-71.6573 295.38,-78.4833"/>
</g>
<!-- Node28&#45;&gt;Node22 -->
<g id="edge41" class="edge"><title>Node28&#45;&gt;Node22</title>
<path fill="none" stroke="midnightblue" d="M161.765,-224.324C171.766,-216.263 186.887,-204.077 198.93,-194.369"/>
<polygon fill="midnightblue" stroke="midnightblue" points="201.45,-196.834 207.039,-187.834 197.057,-191.384 201.45,-196.834"/>
</g>
<!-- Node29&#45;&gt;Node2 -->
<g id="edge68" class="edge"><title>Node29&#45;&gt;Node2</title>
<path fill="none" stroke="midnightblue" d="M984.743,-337.87C989.536,-337.16 994.371,-336.513 999,-336 1284.36,-304.352 1358.23,-327.712 1644,-300 1645.31,-299.873 1646.63,-299.74 1647.96,-299.6"/>
<polygon fill="midnightblue" stroke="midnightblue" points="1648.76,-303.032 1658.31,-298.427 1647.97,-296.076 1648.76,-303.032"/>
</g>
<!-- Node29&#45;&gt;Node3 -->
<g id="edge53" class="edge"><title>Node29&#45;&gt;Node3</title>
<path fill="none" stroke="midnightblue" d="M984.527,-339.985C996.547,-338.566 1009.8,-337.108 1022,-336 1267.73,-313.67 1338.68,-367.527 1576,-300 1614.31,-289.099 1654.22,-265.012 1677.56,-249.419"/>
<polygon fill="midnightblue" stroke="midnightblue" points="1679.64,-252.234 1685.93,-243.708 1675.7,-246.451 1679.64,-252.234"/>
</g>
<!-- Node29&#45;&gt;Node4 -->
<g id="edge54" class="edge"><title>Node29&#45;&gt;Node4</title>
<path fill="none" stroke="midnightblue" d="M984.748,-337.912C989.54,-337.195 994.374,-336.535 999,-336 1060.17,-328.93 1499.25,-331.767 1552,-300 1569.34,-289.558 1580.23,-268.435 1586.19,-253.095"/>
<polygon fill="midnightblue" stroke="midnightblue" points="1589.51,-254.197 1589.55,-243.602 1582.91,-251.861 1589.51,-254.197"/>
</g>
<!-- Node29&#45;&gt;Node8 -->
<g id="edge69" class="edge"><title>Node29&#45;&gt;Node8</title>
<path fill="none" stroke="midnightblue" d="M905.45,-343.988C804.887,-341.049 531.141,-330.766 293.317,-300.006"/>
<polygon fill="midnightblue" stroke="midnightblue" points="293.462,-296.496 283.092,-298.668 292.553,-303.436 293.462,-296.496"/>
</g>
<!-- Node29&#45;&gt;Node9 -->
<g id="edge55" class="edge"><title>Node29&#45;&gt;Node9</title>
<path fill="none" stroke="midnightblue" d="M905.156,-344.528C790.147,-342.757 463.782,-334.692 432,-300 425.996,-293.446 426.482,-286.969 432,-280 440.444,-269.336 512.688,-254.464 565.843,-244.784"/>
<polygon fill="midnightblue" stroke="midnightblue" points="566.639,-248.197 575.86,-242.98 565.398,-241.308 566.639,-248.197"/>
</g>
<!-- Node29&#45;&gt;Node24 -->
<g id="edge49" class="edge"><title>Node29&#45;&gt;Node24</title>
<path fill="none" stroke="midnightblue" d="M905.298,-344.62C725.94,-342.392 0,-327.65 0,-235 0,-235 0,-235 0,-177 0,-137.276 33.9641,-101.504 56.4821,-82.1536"/>
<polygon fill="midnightblue" stroke="midnightblue" points="58.9755,-84.6337 64.4572,-75.5672 54.518,-79.2364 58.9755,-84.6337"/>
</g>
<!-- Node30 -->
<g id="node30" class="node"><title>Node30</title>
<polygon fill="white" stroke="#bfbfbf" points="441,-280.5 441,-299.5 521,-299.5 521,-280.5 441,-280.5"/>
<text text-anchor="middle" x="481" y="-287.5" font-family="Helvetica,sans-Serif" font-size="10.00">QMainWindow</text>
</g>
<!-- Node29&#45;&gt;Node30 -->
<g id="edge43" class="edge"><title>Node29&#45;&gt;Node30</title>
<path fill="none" stroke="midnightblue" d="M905.395,-341.684C833.158,-335.424 674.971,-320.739 531.383,-300.104"/>
<polygon fill="midnightblue" stroke="midnightblue" points="531.471,-296.58 521.072,-298.608 530.466,-303.508 531.471,-296.58"/>
</g>
<!-- Node31 -->
<g id="node31" class="node"><title>Node31</title>
<polygon fill="white" stroke="#bfbfbf" points="539.5,-280.5 539.5,-299.5 610.5,-299.5 610.5,-280.5 539.5,-280.5"/>
<text text-anchor="middle" x="575" y="-287.5" font-family="Helvetica,sans-Serif" font-size="10.00">QListWidget</text>
</g>
<!-- Node29&#45;&gt;Node31 -->
<g id="edge44" class="edge"><title>Node29&#45;&gt;Node31</title>
<path fill="none" stroke="midnightblue" d="M905.36,-340.287C845.884,-333.047 729.804,-318.261 620.993,-300.079"/>
<polygon fill="midnightblue" stroke="midnightblue" points="621.268,-296.576 610.826,-298.366 620.105,-303.478 621.268,-296.576"/>
</g>
<!-- Node32 -->
<g id="node32" class="node"><title>Node32</title>
<polygon fill="white" stroke="#bfbfbf" points="629,-280.5 629,-299.5 669,-299.5 669,-280.5 629,-280.5"/>
<text text-anchor="middle" x="649" y="-287.5" font-family="Helvetica,sans-Serif" font-size="10.00">QList</text>
</g>
<!-- Node29&#45;&gt;Node32 -->
<g id="edge45" class="edge"><title>Node29&#45;&gt;Node32</title>
<path fill="none" stroke="midnightblue" d="M905.309,-340.003C854.81,-333.275 764.792,-320.045 679.075,-299.992"/>
<polygon fill="midnightblue" stroke="midnightblue" points="679.724,-296.549 669.186,-297.643 678.106,-303.36 679.724,-296.549"/>
</g>
<!-- Node33 -->
<g id="node33" class="node"><title>Node33</title>
<polygon fill="white" stroke="#bfbfbf" points="687,-280.5 687,-299.5 739,-299.5 739,-280.5 687,-280.5"/>
<text text-anchor="middle" x="713" y="-287.5" font-family="Helvetica,sans-Serif" font-size="10.00">QAction</text>
</g>
<!-- Node29&#45;&gt;Node33 -->
<g id="edge46" class="edge"><title>Node29&#45;&gt;Node33</title>
<path fill="none" stroke="midnightblue" d="M906.053,-336.43C868.358,-328.064 809.354,-314.777 749.376,-300.289"/>
<polygon fill="midnightblue" stroke="midnightblue" points="749.897,-296.813 739.354,-297.858 748.248,-303.616 749.897,-296.813"/>
</g>
<!-- Node34 -->
<g id="node34" class="node"><title>Node34</title>
<polygon fill="white" stroke="#bfbfbf" points="757,-280.5 757,-299.5 805,-299.5 805,-280.5 757,-280.5"/>
<text text-anchor="middle" x="781" y="-287.5" font-family="Helvetica,sans-Serif" font-size="10.00">QMenu</text>
</g>
<!-- Node29&#45;&gt;Node34 -->
<g id="edge47" class="edge"><title>Node29&#45;&gt;Node34</title>
<path fill="none" stroke="midnightblue" d="M919.014,-336.444C890.815,-327.159 845.688,-312.3 814.763,-302.117"/>
<polygon fill="midnightblue" stroke="midnightblue" points="815.854,-298.791 805.261,-298.988 813.665,-305.44 815.854,-298.791"/>
</g>
<!-- Node35 -->
<g id="node35" class="node"><title>Node35</title>
<polygon fill="white" stroke="#bfbfbf" points="823.5,-280.5 823.5,-299.5 886.5,-299.5 886.5,-280.5 823.5,-280.5"/>
<text text-anchor="middle" x="855" y="-287.5" font-family="Helvetica,sans-Serif" font-size="10.00">QMenuBar</text>
</g>
<!-- Node29&#45;&gt;Node35 -->
<g id="edge48" class="edge"><title>Node29&#45;&gt;Node35</title>
<path fill="none" stroke="midnightblue" d="M930.54,-336.324C916.5,-327.9 894.952,-314.971 878.457,-305.074"/>
<polygon fill="midnightblue" stroke="midnightblue" points="879.8,-301.798 869.424,-299.655 876.198,-307.801 879.8,-301.798"/>
</g>
<!-- Node36 -->
<g id="node36" class="node"><title>Node36</title>
<polygon fill="white" stroke="#bfbfbf" points="904.5,-280.5 904.5,-299.5 985.5,-299.5 985.5,-280.5 904.5,-280.5"/>
<text text-anchor="middle" x="945" y="-287.5" font-family="Helvetica,sans-Serif" font-size="10.00">QMessageBox</text>
</g>
<!-- Node29&#45;&gt;Node36 -->
<g id="edge50" class="edge"><title>Node29&#45;&gt;Node36</title>
<path fill="none" stroke="midnightblue" d="M945,-336.083C945,-329.006 945,-318.861 945,-309.986"/>
<polygon fill="midnightblue" stroke="midnightblue" points="948.5,-309.751 945,-299.751 941.5,-309.751 948.5,-309.751"/>
</g>
<!-- Node37 -->
<g id="node37" class="node"><title>Node37</title>
<polygon fill="white" stroke="#bfbfbf" points="1463,-224.5 1463,-243.5 1523,-243.5 1523,-224.5 1463,-224.5"/>
<text text-anchor="middle" x="1493" y="-231.5" font-family="Helvetica,sans-Serif" font-size="10.00">QSettings</text>
</g>
<!-- Node29&#45;&gt;Node37 -->
<g id="edge51" class="edge"><title>Node29&#45;&gt;Node37</title>
<path fill="none" stroke="midnightblue" d="M984.749,-337.921C989.541,-337.202 994.374,-336.54 999,-336 1058.29,-329.085 1494.23,-343.598 1535,-300 1549.35,-284.651 1530.49,-263.795 1513.64,-249.89"/>
<polygon fill="midnightblue" stroke="midnightblue" points="1515.72,-247.073 1505.69,-243.677 1511.41,-252.59 1515.72,-247.073"/>
</g>
<!-- Node38 -->
<g id="node38" class="node"><title>Node38</title>
<polygon fill="white" stroke="#bfbfbf" points="1004,-280.5 1004,-299.5 1050,-299.5 1050,-280.5 1004,-280.5"/>
<text text-anchor="middle" x="1027" y="-287.5" font-family="Helvetica,sans-Serif" font-size="10.00">QTime</text>
</g>
<!-- Node29&#45;&gt;Node38 -->
<g id="edge52" class="edge"><title>Node29&#45;&gt;Node38</title>
<path fill="none" stroke="midnightblue" d="M958.175,-336.324C970.847,-327.979 990.233,-315.212 1005.21,-305.352"/>
<polygon fill="midnightblue" stroke="midnightblue" points="1007.43,-308.078 1013.86,-299.655 1003.58,-302.231 1007.43,-308.078"/>
</g>
<!-- Node39 -->
<g id="node39" class="node"><title>Node39</title>
<polygon fill="white" stroke="#bfbfbf" points="1068.5,-280.5 1068.5,-299.5 1117.5,-299.5 1117.5,-280.5 1068.5,-280.5"/>
<text text-anchor="middle" x="1093" y="-287.5" font-family="Helvetica,sans-Serif" font-size="10.00">QTimer</text>
</g>
<!-- Node29&#45;&gt;Node39 -->
<g id="edge56" class="edge"><title>Node29&#45;&gt;Node39</title>
<path fill="none" stroke="midnightblue" d="M968.451,-336.444C993.133,-327.438 1032.19,-313.189 1059.98,-303.049"/>
<polygon fill="midnightblue" stroke="midnightblue" points="1061.46,-306.232 1069.66,-299.516 1059.06,-299.656 1061.46,-306.232"/>
</g>
<!-- Node40 -->
<g id="node40" class="node"><title>Node40</title>
<polygon fill="white" stroke="#bfbfbf" points="1136,-280.5 1136,-299.5 1228,-299.5 1228,-280.5 1136,-280.5"/>
<text text-anchor="middle" x="1182" y="-287.5" font-family="Helvetica,sans-Serif" font-size="10.00">QDesktopWidget</text>
</g>
<!-- Node29&#45;&gt;Node40 -->
<g id="edge57" class="edge"><title>Node29&#45;&gt;Node40</title>
<path fill="none" stroke="midnightblue" d="M982.553,-336.444C1023.81,-327.043 1090.14,-311.929 1134.87,-301.739"/>
<polygon fill="midnightblue" stroke="midnightblue" points="1135.65,-305.151 1144.62,-299.516 1134.09,-298.326 1135.65,-305.151"/>
</g>
<!-- Node41 -->
<g id="node41" class="node"><title>Node41</title>
<polygon fill="white" stroke="#bfbfbf" points="1246.5,-280.5 1246.5,-299.5 1313.5,-299.5 1313.5,-280.5 1246.5,-280.5"/>
<text text-anchor="middle" x="1280" y="-287.5" font-family="Helvetica,sans-Serif" font-size="10.00">QKeyEvent</text>
</g>
<!-- Node29&#45;&gt;Node41 -->
<g id="edge58" class="edge"><title>Node29&#45;&gt;Node41</title>
<path fill="none" stroke="midnightblue" d="M984.508,-338.345C989.387,-337.544 994.307,-336.746 999,-336 1101.56,-319.698 1130.06,-318.994 1236.39,-300.023"/>
<polygon fill="midnightblue" stroke="midnightblue" points="1237.01,-303.468 1246.23,-298.254 1235.77,-296.578 1237.01,-303.468"/>
</g>
<!-- Node42 -->
<g id="node42" class="node"><title>Node42</title>
<g id="a_node42"><a xlink:href="settingswindow_8h.html" target="_top" xlink:title="settingswindow.h">
<polygon fill="white" stroke="black" points="1434,-280.5 1434,-299.5 1526,-299.5 1526,-280.5 1434,-280.5"/>
<text text-anchor="middle" x="1480" y="-287.5" font-family="Helvetica,sans-Serif" font-size="10.00">settingswindow.h</text>
</a>
</g>
</g>
<!-- Node29&#45;&gt;Node42 -->
<g id="edge59" class="edge"><title>Node29&#45;&gt;Node42</title>
<path fill="none" stroke="midnightblue" d="M984.758,-337.999C989.549,-337.267 994.379,-336.579 999,-336 1184.31,-312.766 1234.72,-322.994 1423.83,-300.051"/>
<polygon fill="midnightblue" stroke="midnightblue" points="1424.33,-303.517 1433.82,-298.824 1423.47,-296.569 1424.33,-303.517"/>
</g>
<!-- Node44 -->
<g id="node44" class="node"><title>Node44</title>
<g id="a_node44"><a xlink:href="edittextdialog_8h.html" target="_top" xlink:title="edittextdialog.h">
<polygon fill="white" stroke="black" points="301.5,-280.5 301.5,-299.5 384.5,-299.5 384.5,-280.5 301.5,-280.5"/>
<text text-anchor="middle" x="343" y="-287.5" font-family="Helvetica,sans-Serif" font-size="10.00">edittextdialog.h</text>
</a>
</g>
</g>
<!-- Node29&#45;&gt;Node44 -->
<g id="edge62" class="edge"><title>Node29&#45;&gt;Node44</title>
<path fill="none" stroke="midnightblue" d="M905.497,-342.792C815.437,-337.531 588.076,-322.951 399,-300 397.534,-299.822 396.047,-299.634 394.547,-299.438"/>
<polygon fill="midnightblue" stroke="midnightblue" points="394.927,-295.957 384.539,-298.041 393.96,-302.89 394.927,-295.957"/>
</g>
<!-- Node48 -->
<g id="node48" class="node"><title>Node48</title>
<g id="a_node48"><a xlink:href="displaywidget_8h.html" target="_top" xlink:title="displaywidget.h">
<polygon fill="white" stroke="black" points="1332,-280.5 1332,-299.5 1416,-299.5 1416,-280.5 1332,-280.5"/>
<text text-anchor="middle" x="1374" y="-287.5" font-family="Helvetica,sans-Serif" font-size="10.00">displaywidget.h</text>
</a>
</g>
</g>
<!-- Node29&#45;&gt;Node48 -->
<g id="edge70" class="edge"><title>Node29&#45;&gt;Node48</title>
<path fill="none" stroke="midnightblue" d="M984.774,-338.12C989.562,-337.366 994.387,-336.641 999,-336 1138.86,-316.566 1177.28,-320.149 1321.63,-299.962"/>
<polygon fill="midnightblue" stroke="midnightblue" points="1322.34,-303.397 1331.75,-298.532 1321.36,-296.466 1322.34,-303.397"/>
</g>
<!-- Node42&#45;&gt;Node37 -->
<g id="edge61" class="edge"><title>Node42&#45;&gt;Node37</title>
<path fill="none" stroke="midnightblue" d="M1482.15,-280.083C1483.87,-272.927 1486.35,-262.635 1488.5,-253.691"/>
<polygon fill="midnightblue" stroke="midnightblue" points="1491.96,-254.293 1490.89,-243.751 1485.15,-252.654 1491.96,-254.293"/>
</g>
<!-- Node43 -->
<g id="node43" class="node"><title>Node43</title>
<polygon fill="white" stroke="#bfbfbf" points="1368.5,-224.5 1368.5,-243.5 1423.5,-243.5 1423.5,-224.5 1368.5,-224.5"/>
<text text-anchor="middle" x="1396" y="-231.5" font-family="Helvetica,sans-Serif" font-size="10.00">QWidget</text>
</g>
<!-- Node42&#45;&gt;Node43 -->
<g id="edge60" class="edge"><title>Node42&#45;&gt;Node43</title>
<path fill="none" stroke="midnightblue" d="M1466.5,-280.324C1453.4,-271.9 1433.29,-258.971 1417.89,-249.074"/>
<polygon fill="midnightblue" stroke="midnightblue" points="1419.77,-246.118 1409.46,-243.655 1415.98,-252.006 1419.77,-246.118"/>
</g>
<!-- Node44&#45;&gt;Node26 -->
<g id="edge67" class="edge"><title>Node44&#45;&gt;Node26</title>
<path fill="none" stroke="midnightblue" d="M340.193,-280.083C337.915,-272.849 334.629,-262.409 331.792,-253.397"/>
<polygon fill="midnightblue" stroke="midnightblue" points="335.096,-252.239 328.755,-243.751 328.419,-254.341 335.096,-252.239"/>
</g>
<!-- Node44&#45;&gt;Node27 -->
<g id="edge65" class="edge"><title>Node44&#45;&gt;Node27</title>
<path fill="none" stroke="midnightblue" d="M384.603,-281.669C436.369,-272.127 519.09,-255.338 528,-244 543.322,-224.504 516.101,-204.73 492.335,-192.197"/>
<polygon fill="midnightblue" stroke="midnightblue" points="493.67,-188.951 483.16,-187.606 490.537,-195.211 493.67,-188.951"/>
</g>
<!-- Node45 -->
<g id="node45" class="node"><title>Node45</title>
<polygon fill="white" stroke="#bfbfbf" points="378,-224.5 378,-243.5 430,-243.5 430,-224.5 378,-224.5"/>
<text text-anchor="middle" x="404" y="-231.5" font-family="Helvetica,sans-Serif" font-size="10.00">QDialog</text>
</g>
<!-- Node44&#45;&gt;Node45 -->
<g id="edge63" class="edge"><title>Node44&#45;&gt;Node45</title>
<path fill="none" stroke="midnightblue" d="M352.801,-280.324C361.818,-272.341 375.406,-260.313 386.318,-250.653"/>
<polygon fill="midnightblue" stroke="midnightblue" points="388.853,-253.083 394.021,-243.834 384.213,-247.842 388.853,-253.083"/>
</g>
<!-- Node46 -->
<g id="node46" class="node"><title>Node46</title>
<polygon fill="white" stroke="#bfbfbf" points="448.5,-224.5 448.5,-243.5 519.5,-243.5 519.5,-224.5 448.5,-224.5"/>
<text text-anchor="middle" x="484" y="-231.5" font-family="Helvetica,sans-Serif" font-size="10.00">QFontDialog</text>
</g>
<!-- Node44&#45;&gt;Node46 -->
<g id="edge64" class="edge"><title>Node44&#45;&gt;Node46</title>
<path fill="none" stroke="midnightblue" d="M365.342,-280.444C388.753,-271.478 425.736,-257.314 452.19,-247.183"/>
<polygon fill="midnightblue" stroke="midnightblue" points="453.676,-250.361 461.763,-243.516 451.172,-243.824 453.676,-250.361"/>
</g>
<!-- Node47 -->
<g id="node47" class="node"><title>Node47</title>
<polygon fill="white" stroke="#bfbfbf" points="797.5,-224.5 797.5,-243.5 872.5,-243.5 872.5,-224.5 797.5,-224.5"/>
<text text-anchor="middle" x="835" y="-231.5" font-family="Helvetica,sans-Serif" font-size="10.00">QColorDialog</text>
</g>
<!-- Node44&#45;&gt;Node47 -->
<g id="edge66" class="edge"><title>Node44&#45;&gt;Node47</title>
<path fill="none" stroke="midnightblue" d="M384.831,-284.771C484.93,-274.653 733.428,-249.531 787.213,-243.683"/>
<polygon fill="midnightblue" stroke="midnightblue" points="787.807,-247.138 797.34,-242.515 787.004,-240.184 787.807,-247.138"/>
</g>
<!-- Node48&#45;&gt;Node4 -->
<g id="edge72" class="edge"><title>Node48&#45;&gt;Node4</title>
<path fill="none" stroke="midnightblue" d="M1408.54,-280.444C1446.25,-271.102 1506.74,-256.119 1547.86,-245.933"/>
<polygon fill="midnightblue" stroke="midnightblue" points="1548.75,-249.318 1557.62,-243.516 1547.07,-242.524 1548.75,-249.318"/>
</g>
<!-- Node48&#45;&gt;Node10 -->
<g id="edge74" class="edge"><title>Node48&#45;&gt;Node10</title>
<path fill="none" stroke="midnightblue" d="M1339.69,-280.411C1283.75,-266.688 1169.28,-239.762 1071,-224 922.707,-200.217 883.406,-211.064 735,-188 637.422,-172.835 524.421,-147.973 462.838,-133.796"/>
<polygon fill="midnightblue" stroke="midnightblue" points="463.574,-130.374 453.043,-131.532 461.997,-137.194 463.574,-130.374"/>
</g>
<!-- Node48&#45;&gt;Node18 -->
<g id="edge75" class="edge"><title>Node48&#45;&gt;Node18</title>
<path fill="none" stroke="midnightblue" d="M1331.77,-281.312C1328.47,-280.827 1325.18,-280.382 1322,-280 1089.16,-252.079 1026.05,-271.032 789.904,-244.114"/>
<polygon fill="midnightblue" stroke="midnightblue" points="789.956,-240.597 779.621,-242.926 789.152,-247.551 789.956,-240.597"/>
</g>
<!-- Node48&#45;&gt;Node43 -->
<g id="edge71" class="edge"><title>Node48&#45;&gt;Node43</title>
<path fill="none" stroke="midnightblue" d="M1377.63,-280.083C1380.61,-272.77 1384.93,-262.181 1388.62,-253.103"/>
<polygon fill="midnightblue" stroke="midnightblue" points="1391.9,-254.333 1392.43,-243.751 1385.42,-251.691 1391.9,-254.333"/>
</g>
<!-- Node49 -->
<g id="node49" class="node"><title>Node49</title>
<polygon fill="white" stroke="#bfbfbf" points="891,-224.5 891,-243.5 959,-243.5 959,-224.5 891,-224.5"/>
<text text-anchor="middle" x="925" y="-231.5" font-family="Helvetica,sans-Serif" font-size="10.00">QTransform</text>
</g>
<!-- Node48&#45;&gt;Node49 -->
<g id="edge73" class="edge"><title>Node48&#45;&gt;Node49</title>
<path fill="none" stroke="midnightblue" d="M1331.75,-281.433C1328.46,-280.921 1325.18,-280.436 1322,-280 1168.54,-258.943 1126.01,-267.846 969.209,-244.037"/>
<polygon fill="midnightblue" stroke="midnightblue" points="969.624,-240.56 959.208,-242.498 968.56,-247.478 969.624,-240.56"/>
</g>
<!-- Node50 -->
<g id="node50" class="node"><title>Node50</title>
<polygon fill="white" stroke="#bfbfbf" points="977.5,-224.5 977.5,-243.5 1062.5,-243.5 1062.5,-224.5 977.5,-224.5"/>
<text text-anchor="middle" x="1020" y="-231.5" font-family="Helvetica,sans-Serif" font-size="10.00">QGraphicsView</text>
</g>
<!-- Node48&#45;&gt;Node50 -->
<g id="edge76" class="edge"><title>Node48&#45;&gt;Node50</title>
<path fill="none" stroke="midnightblue" d="M1331.73,-281.591C1328.44,-281.043 1325.17,-280.507 1322,-280 1213.32,-262.614 1185.8,-260.583 1077,-244 1075.55,-243.778 1074.07,-243.552 1072.58,-243.324"/>
<polygon fill="midnightblue" stroke="midnightblue" points="1073.05,-239.855 1062.63,-241.783 1071.98,-246.772 1073.05,-239.855"/>
</g>
</g>
</svg>
