<?xml version="1.0" encoding="UTF-8" standalone="no"?>
<!DOCTYPE svg PUBLIC "-//W3C//DTD SVG 1.1//EN"
 "http://www.w3.org/Graphics/SVG/1.1/DTD/svg11.dtd">
<!-- Generated by graphviz version 2.38.0 (20140413.2041)
 -->
<!-- Title: /home/ient/YUViewOrig/YUView/source/playlisttreewidget.h Pages: 1 -->
<svg width="183pt" height="95pt"
 viewBox="0.00 0.00 183.00 95.00" xmlns="http://www.w3.org/2000/svg" xmlns:xlink="http://www.w3.org/1999/xlink">
<g id="graph0" class="graph" transform="scale(1 1) rotate(0) translate(4 91)">
<title>/home/ient/YUViewOrig/YUView/source/playlisttreewidget.h</title>
<polygon fill="white" stroke="none" points="-4,4 -4,-91 179,-91 179,4 -4,4"/>
<!-- Node1 -->
<g id="node1" class="node"><title>Node1</title>
<polygon fill="#bfbfbf" stroke="black" points="0,-56.5 0,-86.5 175,-86.5 175,-56.5 0,-56.5"/>
<text text-anchor="start" x="8" y="-74.5" font-family="Helvetica,sans-Serif" font-size="10.00">/home/ient/YUViewOrig</text>
<text text-anchor="middle" x="87.5" y="-63.5" font-family="Helvetica,sans-Serif" font-size="10.00">/YUView/source/playlisttreewidget.h</text>
</g>
<!-- Node2 -->
<g id="node2" class="node"><title>Node2</title>
<polygon fill="white" stroke="#bfbfbf" points="3.5,-0.5 3.5,-19.5 77.5,-19.5 77.5,-0.5 3.5,-0.5"/>
<text text-anchor="middle" x="40.5" y="-7.5" font-family="Helvetica,sans-Serif" font-size="10.00">QTreeWidget</text>
</g>
<!-- Node1&#45;&gt;Node2 -->
<g id="edge1" class="edge"><title>Node1&#45;&gt;Node2</title>
<path fill="none" stroke="midnightblue" d="M76.3617,-56.3993C69.532,-47.7533 60.755,-36.642 53.5936,-27.576"/>
<polygon fill="midnightblue" stroke="midnightblue" points="56.284,-25.3354 47.3389,-19.6578 50.791,-29.6745 56.284,-25.3354"/>
</g>
<!-- Node3 -->
<g id="node3" class="node"><title>Node3</title>
<polygon fill="white" stroke="#bfbfbf" points="96,-0.5 96,-19.5 175,-19.5 175,-0.5 96,-0.5"/>
<text text-anchor="middle" x="135.5" y="-7.5" font-family="Helvetica,sans-Serif" font-size="10.00">QMouseEvent</text>
</g>
<!-- Node1&#45;&gt;Node3 -->
<g id="edge2" class="edge"><title>Node1&#45;&gt;Node3</title>
<path fill="none" stroke="midnightblue" d="M98.8753,-56.3993C105.85,-47.7533 114.814,-36.642 122.128,-27.576"/>
<polygon fill="midnightblue" stroke="midnightblue" points="124.961,-29.6385 128.516,-19.6578 119.513,-25.2433 124.961,-29.6385"/>
</g>
</g>
</svg>
