<?xml version="1.0" encoding="UTF-8" standalone="no"?>
<!DOCTYPE svg PUBLIC "-//W3C//DTD SVG 1.1//EN"
 "http://www.w3.org/Graphics/SVG/1.1/DTD/svg11.dtd">
<!-- Generated by graphviz version 2.38.0 (20140413.2041)
 -->
<!-- Title: /home/ient/YUViewOrig/YUView/source/plistserializer.h Pages: 1 -->
<svg width="358pt" height="106pt"
 viewBox="0.00 0.00 357.50 106.00" xmlns="http://www.w3.org/2000/svg" xmlns:xlink="http://www.w3.org/1999/xlink">
<g id="graph0" class="graph" transform="scale(1 1) rotate(0) translate(4 102)">
<title>/home/ient/YUViewOrig/YUView/source/plistserializer.h</title>
<polygon fill="white" stroke="none" points="-4,4 -4,-102 353.5,-102 353.5,4 -4,4"/>
<!-- Node1 -->
<g id="node1" class="node"><title>Node1</title>
<polygon fill="#bfbfbf" stroke="black" points="96,-67.5 96,-97.5 252,-97.5 252,-67.5 96,-67.5"/>
<text text-anchor="start" x="104" y="-85.5" font-family="Helvetica,sans-Serif" font-size="10.00">/home/ient/YUViewOrig</text>
<text text-anchor="middle" x="174" y="-74.5" font-family="Helvetica,sans-Serif" font-size="10.00">/YUView/source/plistserializer.h</text>
</g>
<!-- Node2 -->
<g id="node2" class="node"><title>Node2</title>
<g id="a_node2"><a xlink:href="mainwindow_8cpp.html" target="_top" xlink:title="/home/ient/YUViewOrig\l/YUView/source/mainwindow.cpp">
<polygon fill="white" stroke="black" points="0,-0.5 0,-30.5 164,-30.5 164,-0.5 0,-0.5"/>
<text text-anchor="start" x="8" y="-18.5" font-family="Helvetica,sans-Serif" font-size="10.00">/home/ient/YUViewOrig</text>
<text text-anchor="middle" x="82" y="-7.5" font-family="Helvetica,sans-Serif" font-size="10.00">/YUView/source/mainwindow.cpp</text>
</a>
</g>
</g>
<!-- Node1&#45;&gt;Node2 -->
<g id="edge1" class="edge"><title>Node1&#45;&gt;Node2</title>
<path fill="none" stroke="midnightblue" d="M145.623,-61.4511C131.47,-51.4517 114.695,-39.5995 101.924,-30.5765"/>
<polygon fill="midnightblue" stroke="midnightblue" points="143.851,-64.4841 154.037,-67.396 147.89,-58.7671 143.851,-64.4841"/>
</g>
<!-- Node3 -->
<g id="node3" class="node"><title>Node3</title>
<g id="a_node3"><a xlink:href="plistserializer_8cpp.html" target="_top" xlink:title="/home/ient/YUViewOrig\l/YUView/source/plistserializer.cpp">
<polygon fill="white" stroke="black" points="182.5,-0.5 182.5,-30.5 349.5,-30.5 349.5,-0.5 182.5,-0.5"/>
<text text-anchor="start" x="190.5" y="-18.5" font-family="Helvetica,sans-Serif" font-size="10.00">/home/ient/YUViewOrig</text>
<text text-anchor="middle" x="266" y="-7.5" font-family="Helvetica,sans-Serif" font-size="10.00">/YUView/source/plistserializer.cpp</text>
</a>
</g>
</g>
<!-- Node1&#45;&gt;Node3 -->
<g id="edge2" class="edge"><title>Node1&#45;&gt;Node3</title>
<path fill="none" stroke="midnightblue" d="M202.377,-61.4511C216.53,-51.4517 233.305,-39.5995 246.076,-30.5765"/>
<polygon fill="midnightblue" stroke="midnightblue" points="200.11,-58.7671 193.963,-67.396 204.149,-64.4841 200.11,-58.7671"/>
</g>
</g>
</svg>
