<?xml version="1.0" encoding="UTF-8" standalone="no"?>
<!DOCTYPE svg PUBLIC "-//W3C//DTD SVG 1.1//EN"
 "http://www.w3.org/Graphics/SVG/1.1/DTD/svg11.dtd">
<!-- Generated by graphviz version 2.38.0 (20140413.2041)
 -->
<!-- Title: /home/ient/YUViewOrig/YUView/source/plistserializer.h Pages: 1 -->
<svg width="604pt" height="95pt"
 viewBox="0.00 0.00 603.50 95.00" xmlns="http://www.w3.org/2000/svg" xmlns:xlink="http://www.w3.org/1999/xlink">
<g id="graph0" class="graph" transform="scale(1 1) rotate(0) translate(4 91)">
<title>/home/ient/YUViewOrig/YUView/source/plistserializer.h</title>
<polygon fill="white" stroke="none" points="-4,4 -4,-91 599.5,-91 599.5,4 -4,4"/>
<!-- Node1 -->
<g id="node1" class="node"><title>Node1</title>
<polygon fill="#bfbfbf" stroke="black" points="204.5,-56.5 204.5,-86.5 360.5,-86.5 360.5,-56.5 204.5,-56.5"/>
<text text-anchor="start" x="212.5" y="-74.5" font-family="Helvetica,sans-Serif" font-size="10.00">/home/ient/YUViewOrig</text>
<text text-anchor="middle" x="282.5" y="-63.5" font-family="Helvetica,sans-Serif" font-size="10.00">/YUView/source/plistserializer.h</text>
</g>
<!-- Node2 -->
<g id="node2" class="node"><title>Node2</title>
<polygon fill="white" stroke="#bfbfbf" points="0,-0.5 0,-19.5 65,-19.5 65,-0.5 0,-0.5"/>
<text text-anchor="middle" x="32.5" y="-7.5" font-family="Helvetica,sans-Serif" font-size="10.00">QIODevice</text>
</g>
<!-- Node1&#45;&gt;Node2 -->
<g id="edge1" class="edge"><title>Node1&#45;&gt;Node2</title>
<path fill="none" stroke="midnightblue" d="M223.57,-56.4747C177.924,-45.6109 115.782,-30.8212 74.9299,-21.0983"/>
<polygon fill="midnightblue" stroke="midnightblue" points="75.564,-17.6515 65.0254,-18.741 73.9432,-24.4613 75.564,-17.6515"/>
</g>
<!-- Node3 -->
<g id="node3" class="node"><title>Node3</title>
<polygon fill="white" stroke="#bfbfbf" points="83,-0.5 83,-19.5 138,-19.5 138,-0.5 83,-0.5"/>
<text text-anchor="middle" x="110.5" y="-7.5" font-family="Helvetica,sans-Serif" font-size="10.00">QVariant</text>
</g>
<!-- Node1&#45;&gt;Node3 -->
<g id="edge2" class="edge"><title>Node1&#45;&gt;Node3</title>
<path fill="none" stroke="midnightblue" d="M241.738,-56.3993C212.276,-46.2074 172.911,-32.5898 145.001,-22.935"/>
<polygon fill="midnightblue" stroke="midnightblue" points="145.871,-19.5325 135.276,-19.5709 143.583,-26.1479 145.871,-19.5325"/>
</g>
<!-- Node4 -->
<g id="node4" class="node"><title>Node4</title>
<polygon fill="white" stroke="#bfbfbf" points="156,-0.5 156,-19.5 227,-19.5 227,-0.5 156,-0.5"/>
<text text-anchor="middle" x="191.5" y="-7.5" font-family="Helvetica,sans-Serif" font-size="10.00">QVariantList</text>
</g>
<!-- Node1&#45;&gt;Node4 -->
<g id="edge3" class="edge"><title>Node1&#45;&gt;Node4</title>
<path fill="none" stroke="midnightblue" d="M260.934,-56.3993C246.62,-47.0402 227.888,-34.7924 213.489,-25.3771"/>
<polygon fill="midnightblue" stroke="midnightblue" points="215.026,-22.2009 204.741,-19.6578 211.196,-28.0597 215.026,-22.2009"/>
</g>
<!-- Node5 -->
<g id="node5" class="node"><title>Node5</title>
<polygon fill="white" stroke="#bfbfbf" points="245.5,-0.5 245.5,-19.5 319.5,-19.5 319.5,-0.5 245.5,-0.5"/>
<text text-anchor="middle" x="282.5" y="-7.5" font-family="Helvetica,sans-Serif" font-size="10.00">QVariantMap</text>
</g>
<!-- Node1&#45;&gt;Node5 -->
<g id="edge4" class="edge"><title>Node1&#45;&gt;Node5</title>
<path fill="none" stroke="midnightblue" d="M282.5,-56.3993C282.5,-48.4664 282.5,-38.458 282.5,-29.8583"/>
<polygon fill="midnightblue" stroke="midnightblue" points="286,-29.6577 282.5,-19.6578 279,-29.6578 286,-29.6577"/>
</g>
<!-- Node6 -->
<g id="node6" class="node"><title>Node6</title>
<polygon fill="white" stroke="#bfbfbf" points="338,-0.5 338,-19.5 419,-19.5 419,-0.5 338,-0.5"/>
<text text-anchor="middle" x="378.5" y="-7.5" font-family="Helvetica,sans-Serif" font-size="10.00">QDomElement</text>
</g>
<!-- Node1&#45;&gt;Node6 -->
<g id="edge5" class="edge"><title>Node1&#45;&gt;Node6</title>
<path fill="none" stroke="midnightblue" d="M305.251,-56.3993C320.495,-46.9511 340.489,-34.5589 355.736,-25.1089"/>
<polygon fill="midnightblue" stroke="midnightblue" points="357.875,-27.9009 364.531,-19.6578 354.187,-21.951 357.875,-27.9009"/>
</g>
<!-- Node7 -->
<g id="node7" class="node"><title>Node7</title>
<polygon fill="white" stroke="#bfbfbf" points="437.5,-0.5 437.5,-19.5 527.5,-19.5 527.5,-0.5 437.5,-0.5"/>
<text text-anchor="middle" x="482.5" y="-7.5" font-family="Helvetica,sans-Serif" font-size="10.00">QDomDocument</text>
</g>
<!-- Node1&#45;&gt;Node7 -->
<g id="edge6" class="edge"><title>Node1&#45;&gt;Node7</title>
<path fill="none" stroke="midnightblue" d="M329.644,-56.4747C364.6,-46.0752 411.648,-32.0783 444.274,-22.3722"/>
<polygon fill="midnightblue" stroke="midnightblue" points="445.32,-25.7126 453.907,-19.5064 443.324,-19.0032 445.32,-25.7126"/>
</g>
<!-- Node8 -->
<g id="node8" class="node"><title>Node8</title>
<polygon fill="white" stroke="#bfbfbf" points="545.5,-0.5 545.5,-19.5 595.5,-19.5 595.5,-0.5 545.5,-0.5"/>
<text text-anchor="middle" x="570.5" y="-7.5" font-family="Helvetica,sans-Serif" font-size="10.00">QString</text>
</g>
<!-- Node1&#45;&gt;Node8 -->
<g id="edge7" class="edge"><title>Node1&#45;&gt;Node8</title>
<path fill="none" stroke="midnightblue" d="M359.461,-56.4948C407.5,-47.4498 470.826,-34.9798 535.348,-20.1608"/>
<polygon fill="midnightblue" stroke="midnightblue" points="536.339,-23.5242 545.293,-17.8602 534.761,-16.7043 536.339,-23.5242"/>
</g>
</g>
</svg>
