<?xml version="1.0" encoding="UTF-8" standalone="no"?>
<!DOCTYPE svg PUBLIC "-//W3C//DTD SVG 1.1//EN"
 "http://www.w3.org/Graphics/SVG/1.1/DTD/svg11.dtd">
<!-- Generated by graphviz version 2.38.0 (20140413.2041)
 -->
<!-- Title: /home/ient/YUViewOrig/YUView/source/plistparser.cpp Pages: 1 -->
<svg width="585pt" height="151pt"
 viewBox="0.00 0.00 585.00 151.00" xmlns="http://www.w3.org/2000/svg" xmlns:xlink="http://www.w3.org/1999/xlink">
<g id="graph0" class="graph" transform="scale(1 1) rotate(0) translate(4 147)">
<title>/home/ient/YUViewOrig/YUView/source/plistparser.cpp</title>
<polygon fill="white" stroke="none" points="-4,4 -4,-147 581,-147 581,4 -4,4"/>
<!-- Node1 -->
<g id="node1" class="node"><title>Node1</title>
<polygon fill="#bfbfbf" stroke="black" points="298,-112.5 298,-142.5 453,-142.5 453,-112.5 298,-112.5"/>
<text text-anchor="start" x="306" y="-130.5" font-family="Helvetica,sans-Serif" font-size="10.00">/home/ient/YUViewOrig</text>
<text text-anchor="middle" x="375.5" y="-119.5" font-family="Helvetica,sans-Serif" font-size="10.00">/YUView/source/plistparser.cpp</text>
</g>
<!-- Node2 -->
<g id="node2" class="node"><title>Node2</title>
<g id="a_node2"><a xlink:href="plistparser_8h.html" target="_top" xlink:title="plistparser.h">
<polygon fill="white" stroke="black" points="156.5,-56.5 156.5,-75.5 226.5,-75.5 226.5,-56.5 156.5,-56.5"/>
<text text-anchor="middle" x="191.5" y="-63.5" font-family="Helvetica,sans-Serif" font-size="10.00">plistparser.h</text>
</a>
</g>
</g>
<!-- Node1&#45;&gt;Node2 -->
<g id="edge1" class="edge"><title>Node1&#45;&gt;Node2</title>
<path fill="none" stroke="midnightblue" d="M331.895,-112.399C300.1,-102.118 257.526,-88.3506 227.625,-78.6818"/>
<polygon fill="midnightblue" stroke="midnightblue" points="228.597,-75.3176 218.005,-75.5709 226.443,-81.978 228.597,-75.3176"/>
</g>
<!-- Node8 -->
<g id="node8" class="node"><title>Node8</title>
<polygon fill="white" stroke="#bfbfbf" points="244.5,-56.5 244.5,-75.5 312.5,-75.5 312.5,-56.5 244.5,-56.5"/>
<text text-anchor="middle" x="278.5" y="-63.5" font-family="Helvetica,sans-Serif" font-size="10.00">QDomNode</text>
</g>
<!-- Node1&#45;&gt;Node8 -->
<g id="edge7" class="edge"><title>Node1&#45;&gt;Node8</title>
<path fill="none" stroke="midnightblue" d="M352.512,-112.399C337.109,-102.951 316.907,-90.5589 301.501,-81.1089"/>
<polygon fill="midnightblue" stroke="midnightblue" points="302.969,-77.9031 292.614,-75.6578 299.308,-83.87 302.969,-77.9031"/>
</g>
<!-- Node9 -->
<g id="node9" class="node"><title>Node9</title>
<polygon fill="white" stroke="#bfbfbf" points="330.5,-56.5 330.5,-75.5 420.5,-75.5 420.5,-56.5 330.5,-56.5"/>
<text text-anchor="middle" x="375.5" y="-63.5" font-family="Helvetica,sans-Serif" font-size="10.00">QDomDocument</text>
</g>
<!-- Node1&#45;&gt;Node9 -->
<g id="edge8" class="edge"><title>Node1&#45;&gt;Node9</title>
<path fill="none" stroke="midnightblue" d="M375.5,-112.399C375.5,-104.466 375.5,-94.458 375.5,-85.8583"/>
<polygon fill="midnightblue" stroke="midnightblue" points="379,-85.6577 375.5,-75.6578 372,-85.6578 379,-85.6577"/>
</g>
<!-- Node10 -->
<g id="node10" class="node"><title>Node10</title>
<polygon fill="white" stroke="#bfbfbf" points="439,-56.5 439,-75.5 506,-75.5 506,-56.5 439,-56.5"/>
<text text-anchor="middle" x="472.5" y="-63.5" font-family="Helvetica,sans-Serif" font-size="10.00">QDateTime</text>
</g>
<!-- Node1&#45;&gt;Node10 -->
<g id="edge9" class="edge"><title>Node1&#45;&gt;Node10</title>
<path fill="none" stroke="midnightblue" d="M398.488,-112.399C413.891,-102.951 434.093,-90.5589 449.499,-81.1089"/>
<polygon fill="midnightblue" stroke="midnightblue" points="451.692,-83.87 458.386,-75.6578 448.031,-77.9031 451.692,-83.87"/>
</g>
<!-- Node11 -->
<g id="node11" class="node"><title>Node11</title>
<polygon fill="white" stroke="#bfbfbf" points="524,-56.5 524,-75.5 577,-75.5 577,-56.5 524,-56.5"/>
<text text-anchor="middle" x="550.5" y="-63.5" font-family="Helvetica,sans-Serif" font-size="10.00">QDebug</text>
</g>
<!-- Node1&#45;&gt;Node11 -->
<g id="edge10" class="edge"><title>Node1&#45;&gt;Node11</title>
<path fill="none" stroke="midnightblue" d="M416.973,-112.399C447.08,-102.163 487.352,-88.4703 515.77,-78.8082"/>
<polygon fill="midnightblue" stroke="midnightblue" points="516.95,-82.1037 525.291,-75.5709 514.697,-75.4763 516.95,-82.1037"/>
</g>
<!-- Node3 -->
<g id="node3" class="node"><title>Node3</title>
<polygon fill="white" stroke="#bfbfbf" points="0,-0.5 0,-19.5 65,-19.5 65,-0.5 0,-0.5"/>
<text text-anchor="middle" x="32.5" y="-7.5" font-family="Helvetica,sans-Serif" font-size="10.00">QIODevice</text>
</g>
<!-- Node2&#45;&gt;Node3 -->
<g id="edge2" class="edge"><title>Node2&#45;&gt;Node3</title>
<path fill="none" stroke="midnightblue" d="M166.306,-56.4435C139.557,-47.3591 97.0974,-32.9388 67.1948,-22.7831"/>
<polygon fill="midnightblue" stroke="midnightblue" points="68.1705,-19.4182 57.5762,-19.5164 65.9194,-26.0464 68.1705,-19.4182"/>
</g>
<!-- Node4 -->
<g id="node4" class="node"><title>Node4</title>
<polygon fill="white" stroke="#bfbfbf" points="83,-0.5 83,-19.5 138,-19.5 138,-0.5 83,-0.5"/>
<text text-anchor="middle" x="110.5" y="-7.5" font-family="Helvetica,sans-Serif" font-size="10.00">QVariant</text>
</g>
<!-- Node2&#45;&gt;Node4 -->
<g id="edge3" class="edge"><title>Node2&#45;&gt;Node4</title>
<path fill="none" stroke="midnightblue" d="M178.486,-56.324C165.968,-47.979 146.818,-35.2122 132.029,-25.3524"/>
<polygon fill="midnightblue" stroke="midnightblue" points="133.744,-22.2894 123.482,-19.6545 129.861,-28.1137 133.744,-22.2894"/>
</g>
<!-- Node5 -->
<g id="node5" class="node"><title>Node5</title>
<polygon fill="white" stroke="#bfbfbf" points="156,-0.5 156,-19.5 227,-19.5 227,-0.5 156,-0.5"/>
<text text-anchor="middle" x="191.5" y="-7.5" font-family="Helvetica,sans-Serif" font-size="10.00">QVariantList</text>
</g>
<!-- Node2&#45;&gt;Node5 -->
<g id="edge4" class="edge"><title>Node2&#45;&gt;Node5</title>
<path fill="none" stroke="midnightblue" d="M191.5,-56.083C191.5,-49.0059 191.5,-38.8611 191.5,-29.9865"/>
<polygon fill="midnightblue" stroke="midnightblue" points="195,-29.751 191.5,-19.7511 188,-29.7511 195,-29.751"/>
</g>
<!-- Node6 -->
<g id="node6" class="node"><title>Node6</title>
<polygon fill="white" stroke="#bfbfbf" points="245.5,-0.5 245.5,-19.5 319.5,-19.5 319.5,-0.5 245.5,-0.5"/>
<text text-anchor="middle" x="282.5" y="-7.5" font-family="Helvetica,sans-Serif" font-size="10.00">QVariantMap</text>
</g>
<!-- Node2&#45;&gt;Node6 -->
<g id="edge5" class="edge"><title>Node2&#45;&gt;Node6</title>
<path fill="none" stroke="midnightblue" d="M206.121,-56.324C220.449,-47.8215 242.513,-34.7288 259.249,-24.7975"/>
<polygon fill="midnightblue" stroke="midnightblue" points="261.102,-27.7677 267.916,-19.6545 257.53,-21.7478 261.102,-27.7677"/>
</g>
<!-- Node7 -->
<g id="node7" class="node"><title>Node7</title>
<polygon fill="white" stroke="#bfbfbf" points="338,-0.5 338,-19.5 419,-19.5 419,-0.5 338,-0.5"/>
<text text-anchor="middle" x="378.5" y="-7.5" font-family="Helvetica,sans-Serif" font-size="10.00">QDomElement</text>
</g>
<!-- Node2&#45;&gt;Node7 -->
<g id="edge6" class="edge"><title>Node2&#45;&gt;Node7</title>
<path fill="none" stroke="midnightblue" d="M221.131,-56.4435C253,-47.2406 303.833,-32.5617 339.064,-22.3879"/>
<polygon fill="midnightblue" stroke="midnightblue" points="340.372,-25.6534 349.008,-19.5164 338.429,-18.9282 340.372,-25.6534"/>
</g>
</g>
</svg>
