<?xml version="1.0" encoding="UTF-8" standalone="no"?>
<!DOCTYPE svg PUBLIC "-//W3C//DTD SVG 1.1//EN"
 "http://www.w3.org/Graphics/SVG/1.1/DTD/svg11.dtd">
<!-- Generated by graphviz version 2.38.0 (20140413.2041)
 -->
<!-- Title: /home/ient/YUViewOrig/YUView/source/plistserializer.cpp Pages: 1 -->
<svg width="651pt" height="151pt"
 viewBox="0.00 0.00 651.00 151.00" xmlns="http://www.w3.org/2000/svg" xmlns:xlink="http://www.w3.org/1999/xlink">
<g id="graph0" class="graph" transform="scale(1 1) rotate(0) translate(4 147)">
<title>/home/ient/YUViewOrig/YUView/source/plistserializer.cpp</title>
<polygon fill="white" stroke="none" points="-4,4 -4,-147 647,-147 647,4 -4,4"/>
<!-- Node1 -->
<g id="node1" class="node"><title>Node1</title>
<polygon fill="#bfbfbf" stroke="black" points="401,-112.5 401,-142.5 568,-142.5 568,-112.5 401,-112.5"/>
<text text-anchor="start" x="409" y="-130.5" font-family="Helvetica,sans-Serif" font-size="10.00">/home/ient/YUViewOrig</text>
<text text-anchor="middle" x="484.5" y="-119.5" font-family="Helvetica,sans-Serif" font-size="10.00">/YUView/source/plistserializer.cpp</text>
</g>
<!-- Node2 -->
<g id="node2" class="node"><title>Node2</title>
<g id="a_node2"><a xlink:href="plistserializer_8h.html" target="_top" xlink:title="plistserializer.h">
<polygon fill="white" stroke="black" points="276.5,-56.5 276.5,-75.5 358.5,-75.5 358.5,-56.5 276.5,-56.5"/>
<text text-anchor="middle" x="317.5" y="-63.5" font-family="Helvetica,sans-Serif" font-size="10.00">plistserializer.h</text>
</a>
</g>
</g>
<!-- Node1&#45;&gt;Node2 -->
<g id="edge1" class="edge"><title>Node1&#45;&gt;Node2</title>
<path fill="none" stroke="midnightblue" d="M444.923,-112.399C416.403,-102.238 378.326,-88.6716 351.243,-79.0221"/>
<polygon fill="midnightblue" stroke="midnightblue" points="352.395,-75.7171 341.8,-75.6578 350.045,-82.3111 352.395,-75.7171"/>
</g>
<!-- Node7 -->
<g id="node7" class="node"><title>Node7</title>
<polygon fill="white" stroke="#bfbfbf" points="406,-0.5 406,-19.5 487,-19.5 487,-0.5 406,-0.5"/>
<text text-anchor="middle" x="446.5" y="-7.5" font-family="Helvetica,sans-Serif" font-size="10.00">QDomElement</text>
</g>
<!-- Node1&#45;&gt;Node7 -->
<g id="edge9" class="edge"><title>Node1&#45;&gt;Node7</title>
<path fill="none" stroke="midnightblue" d="M479.84,-112.337C472.963,-91.4325 460.091,-52.3096 452.511,-29.2696"/>
<polygon fill="midnightblue" stroke="midnightblue" points="455.802,-28.0747 449.352,-19.6695 449.153,-30.2624 455.802,-28.0747"/>
</g>
<!-- Node8 -->
<g id="node8" class="node"><title>Node8</title>
<polygon fill="white" stroke="#bfbfbf" points="505.5,-0.5 505.5,-19.5 595.5,-19.5 595.5,-0.5 505.5,-0.5"/>
<text text-anchor="middle" x="550.5" y="-7.5" font-family="Helvetica,sans-Serif" font-size="10.00">QDomDocument</text>
</g>
<!-- Node1&#45;&gt;Node8 -->
<g id="edge10" class="edge"><title>Node1&#45;&gt;Node8</title>
<path fill="none" stroke="midnightblue" d="M486.305,-112.405C488.692,-97.5326 493.902,-73.8252 504.5,-56 511.232,-44.6776 521.52,-34.2391 530.662,-26.272"/>
<polygon fill="midnightblue" stroke="midnightblue" points="533.132,-28.7709 538.599,-19.6957 528.666,-23.3806 533.132,-28.7709"/>
</g>
<!-- Node10 -->
<g id="node10" class="node"><title>Node10</title>
<polygon fill="white" stroke="#bfbfbf" points="513,-56.5 513,-75.5 558,-75.5 558,-56.5 513,-56.5"/>
<text text-anchor="middle" x="535.5" y="-63.5" font-family="Helvetica,sans-Serif" font-size="10.00">QDate</text>
</g>
<!-- Node1&#45;&gt;Node10 -->
<g id="edge11" class="edge"><title>Node1&#45;&gt;Node10</title>
<path fill="none" stroke="midnightblue" d="M496.586,-112.399C504.074,-103.664 513.718,-92.4126 521.532,-83.2962"/>
<polygon fill="midnightblue" stroke="midnightblue" points="524.229,-85.5281 528.079,-75.6578 518.914,-80.9726 524.229,-85.5281"/>
</g>
<!-- Node11 -->
<g id="node11" class="node"><title>Node11</title>
<polygon fill="white" stroke="#bfbfbf" points="576,-56.5 576,-75.5 643,-75.5 643,-56.5 576,-56.5"/>
<text text-anchor="middle" x="609.5" y="-63.5" font-family="Helvetica,sans-Serif" font-size="10.00">QDateTime</text>
</g>
<!-- Node1&#45;&gt;Node11 -->
<g id="edge12" class="edge"><title>Node1&#45;&gt;Node11</title>
<path fill="none" stroke="midnightblue" d="M514.123,-112.399C534.722,-102.595 561.98,-89.6194 582.08,-80.052"/>
<polygon fill="midnightblue" stroke="midnightblue" points="583.786,-83.116 591.311,-75.6578 580.778,-76.7955 583.786,-83.116"/>
</g>
<!-- Node3 -->
<g id="node3" class="node"><title>Node3</title>
<polygon fill="white" stroke="#bfbfbf" points="323,-0.5 323,-19.5 388,-19.5 388,-0.5 323,-0.5"/>
<text text-anchor="middle" x="355.5" y="-7.5" font-family="Helvetica,sans-Serif" font-size="10.00">QIODevice</text>
</g>
<!-- Node2&#45;&gt;Node3 -->
<g id="edge2" class="edge"><title>Node2&#45;&gt;Node3</title>
<path fill="none" stroke="midnightblue" d="M323.775,-56.083C329.142,-48.4554 337.018,-37.2645 343.579,-27.9408"/>
<polygon fill="midnightblue" stroke="midnightblue" points="346.449,-29.9434 349.342,-19.7511 340.725,-25.9149 346.449,-29.9434"/>
</g>
<!-- Node4 -->
<g id="node4" class="node"><title>Node4</title>
<polygon fill="white" stroke="#bfbfbf" points="0,-0.5 0,-19.5 55,-19.5 55,-0.5 0,-0.5"/>
<text text-anchor="middle" x="27.5" y="-7.5" font-family="Helvetica,sans-Serif" font-size="10.00">QVariant</text>
</g>
<!-- Node2&#45;&gt;Node4 -->
<g id="edge3" class="edge"><title>Node2&#45;&gt;Node4</title>
<path fill="none" stroke="midnightblue" d="M276.417,-58.6248C228.116,-50.9304 145.322,-37.1218 65.5759,-20.3389"/>
<polygon fill="midnightblue" stroke="midnightblue" points="65.8725,-16.8238 55.3634,-18.1694 64.4178,-23.671 65.8725,-16.8238"/>
</g>
<!-- Node5 -->
<g id="node5" class="node"><title>Node5</title>
<polygon fill="white" stroke="#bfbfbf" points="73,-0.5 73,-19.5 144,-19.5 144,-0.5 73,-0.5"/>
<text text-anchor="middle" x="108.5" y="-7.5" font-family="Helvetica,sans-Serif" font-size="10.00">QVariantList</text>
</g>
<!-- Node2&#45;&gt;Node5 -->
<g id="edge4" class="edge"><title>Node2&#45;&gt;Node5</title>
<path fill="none" stroke="midnightblue" d="M284.383,-56.4435C248.382,-47.1419 190.73,-32.246 151.314,-22.062"/>
<polygon fill="midnightblue" stroke="midnightblue" points="152.019,-18.6294 141.462,-19.5164 150.268,-25.4068 152.019,-18.6294"/>
</g>
<!-- Node6 -->
<g id="node6" class="node"><title>Node6</title>
<polygon fill="white" stroke="#bfbfbf" points="162.5,-0.5 162.5,-19.5 236.5,-19.5 236.5,-0.5 162.5,-0.5"/>
<text text-anchor="middle" x="199.5" y="-7.5" font-family="Helvetica,sans-Serif" font-size="10.00">QVariantMap</text>
</g>
<!-- Node2&#45;&gt;Node6 -->
<g id="edge5" class="edge"><title>Node2&#45;&gt;Node6</title>
<path fill="none" stroke="midnightblue" d="M298.803,-56.4435C279.556,-47.6356 249.348,-33.8116 227.3,-23.722"/>
<polygon fill="midnightblue" stroke="midnightblue" points="228.66,-20.4951 218.11,-19.5164 225.747,-26.8603 228.66,-20.4951"/>
</g>
<!-- Node2&#45;&gt;Node7 -->
<g id="edge6" class="edge"><title>Node2&#45;&gt;Node7</title>
<path fill="none" stroke="midnightblue" d="M337.94,-56.4435C359.17,-47.5566 392.599,-33.5632 416.755,-23.4514"/>
<polygon fill="midnightblue" stroke="midnightblue" points="418.282,-26.6064 426.155,-19.5164 415.579,-20.1493 418.282,-26.6064"/>
</g>
<!-- Node2&#45;&gt;Node8 -->
<g id="edge7" class="edge"><title>Node2&#45;&gt;Node8</title>
<path fill="none" stroke="midnightblue" d="M354.42,-56.4435C394.895,-47.0629 459.921,-31.9926 503.884,-21.8036"/>
<polygon fill="midnightblue" stroke="midnightblue" points="504.802,-25.1839 513.753,-19.5164 503.221,-18.3646 504.802,-25.1839"/>
</g>
<!-- Node9 -->
<g id="node9" class="node"><title>Node9</title>
<polygon fill="white" stroke="#bfbfbf" points="254.5,-0.5 254.5,-19.5 304.5,-19.5 304.5,-0.5 254.5,-0.5"/>
<text text-anchor="middle" x="279.5" y="-7.5" font-family="Helvetica,sans-Serif" font-size="10.00">QString</text>
</g>
<!-- Node2&#45;&gt;Node9 -->
<g id="edge8" class="edge"><title>Node2&#45;&gt;Node9</title>
<path fill="none" stroke="midnightblue" d="M311.225,-56.083C305.858,-48.4554 297.982,-37.2645 291.421,-27.9408"/>
<polygon fill="midnightblue" stroke="midnightblue" points="294.275,-25.9149 285.658,-19.7511 288.551,-29.9434 294.275,-25.9149"/>
</g>
</g>
</svg>
