<?xml version="1.0" encoding="UTF-8" standalone="no"?>
<!DOCTYPE svg PUBLIC "-//W3C//DTD SVG 1.1//EN"
 "http://www.w3.org/Graphics/SVG/1.1/DTD/svg11.dtd">
<!-- Generated by graphviz version 2.38.0 (20140413.2041)
 -->
<!-- Title: /home/ient/YUViewOrig/YUView/source/settingswindow.cpp Pages: 1 -->
<svg width="435pt" height="151pt"
 viewBox="0.00 0.00 435.00 151.00" xmlns="http://www.w3.org/2000/svg" xmlns:xlink="http://www.w3.org/1999/xlink">
<g id="graph0" class="graph" transform="scale(1 1) rotate(0) translate(4 147)">
<title>/home/ient/YUViewOrig/YUView/source/settingswindow.cpp</title>
<polygon fill="white" stroke="none" points="-4,4 -4,-147 431,-147 431,4 -4,4"/>
<!-- Node1 -->
<g id="node1" class="node"><title>Node1</title>
<polygon fill="#bfbfbf" stroke="black" points="149,-112.5 149,-142.5 326,-142.5 326,-112.5 149,-112.5"/>
<text text-anchor="start" x="157" y="-130.5" font-family="Helvetica,sans-Serif" font-size="10.00">/home/ient/YUViewOrig</text>
<text text-anchor="middle" x="237.5" y="-119.5" font-family="Helvetica,sans-Serif" font-size="10.00">/YUView/source/settingswindow.cpp</text>
</g>
<!-- Node2 -->
<g id="node2" class="node"><title>Node2</title>
<g id="a_node2"><a xlink:href="settingswindow_8h.html" target="_top" xlink:title="settingswindow.h">
<polygon fill="white" stroke="black" points="19.5,-56.5 19.5,-75.5 111.5,-75.5 111.5,-56.5 19.5,-56.5"/>
<text text-anchor="middle" x="65.5" y="-63.5" font-family="Helvetica,sans-Serif" font-size="10.00">settingswindow.h</text>
</a>
</g>
</g>
<!-- Node1&#45;&gt;Node2 -->
<g id="edge1" class="edge"><title>Node1&#45;&gt;Node2</title>
<path fill="none" stroke="midnightblue" d="M196.738,-112.399C167.276,-102.207 127.911,-88.5898 100.001,-78.935"/>
<polygon fill="midnightblue" stroke="midnightblue" points="100.871,-75.5325 90.2764,-75.5709 98.5827,-82.1479 100.871,-75.5325"/>
</g>
<!-- Node5 -->
<g id="node5" class="node"><title>Node5</title>
<polygon fill="white" stroke="#bfbfbf" points="130,-56.5 130,-75.5 235,-75.5 235,-56.5 130,-56.5"/>
<text text-anchor="middle" x="182.5" y="-63.5" font-family="Helvetica,sans-Serif" font-size="10.00">ui_settingswindow.h</text>
</g>
<!-- Node1&#45;&gt;Node5 -->
<g id="edge4" class="edge"><title>Node1&#45;&gt;Node5</title>
<path fill="none" stroke="midnightblue" d="M224.466,-112.399C216.309,-103.575 205.778,-92.1827 197.306,-83.0178"/>
<polygon fill="midnightblue" stroke="midnightblue" points="199.861,-80.6253 190.503,-75.6578 194.721,-85.3769 199.861,-80.6253"/>
</g>
<!-- Node6 -->
<g id="node6" class="node"><title>Node6</title>
<polygon fill="white" stroke="#bfbfbf" points="253,-56.5 253,-75.5 334,-75.5 334,-56.5 253,-56.5"/>
<text text-anchor="middle" x="293.5" y="-63.5" font-family="Helvetica,sans-Serif" font-size="10.00">QMessageBox</text>
</g>
<!-- Node1&#45;&gt;Node6 -->
<g id="edge5" class="edge"><title>Node1&#45;&gt;Node6</title>
<path fill="none" stroke="midnightblue" d="M250.771,-112.399C259.076,-103.575 269.799,-92.1827 278.424,-83.0178"/>
<polygon fill="midnightblue" stroke="midnightblue" points="281.047,-85.3386 285.352,-75.6578 275.949,-80.541 281.047,-85.3386"/>
</g>
<!-- Node7 -->
<g id="node7" class="node"><title>Node7</title>
<polygon fill="white" stroke="#bfbfbf" points="352,-56.5 352,-75.5 427,-75.5 427,-56.5 352,-56.5"/>
<text text-anchor="middle" x="389.5" y="-63.5" font-family="Helvetica,sans-Serif" font-size="10.00">QColorDialog</text>
</g>
<!-- Node1&#45;&gt;Node7 -->
<g id="edge6" class="edge"><title>Node1&#45;&gt;Node7</title>
<path fill="none" stroke="midnightblue" d="M273.522,-112.399C299.139,-102.372 333.227,-89.028 357.81,-79.405"/>
<polygon fill="midnightblue" stroke="midnightblue" points="359.346,-82.5622 367.383,-75.6578 356.795,-76.0438 359.346,-82.5622"/>
</g>
<!-- Node3 -->
<g id="node3" class="node"><title>Node3</title>
<polygon fill="white" stroke="#bfbfbf" points="0,-0.5 0,-19.5 55,-19.5 55,-0.5 0,-0.5"/>
<text text-anchor="middle" x="27.5" y="-7.5" font-family="Helvetica,sans-Serif" font-size="10.00">QWidget</text>
</g>
<!-- Node2&#45;&gt;Node3 -->
<g id="edge2" class="edge"><title>Node2&#45;&gt;Node3</title>
<path fill="none" stroke="midnightblue" d="M59.2251,-56.083C53.8575,-48.4554 45.9824,-37.2645 39.4213,-27.9408"/>
<polygon fill="midnightblue" stroke="midnightblue" points="42.2755,-25.9149 33.6582,-19.7511 36.5508,-29.9434 42.2755,-25.9149"/>
</g>
<!-- Node4 -->
<g id="node4" class="node"><title>Node4</title>
<polygon fill="white" stroke="#bfbfbf" points="73.5,-0.5 73.5,-19.5 133.5,-19.5 133.5,-0.5 73.5,-0.5"/>
<text text-anchor="middle" x="103.5" y="-7.5" font-family="Helvetica,sans-Serif" font-size="10.00">QSettings</text>
</g>
<!-- Node2&#45;&gt;Node4 -->
<g id="edge3" class="edge"><title>Node2&#45;&gt;Node4</title>
<path fill="none" stroke="midnightblue" d="M71.7749,-56.083C77.1425,-48.4554 85.0176,-37.2645 91.5787,-27.9408"/>
<polygon fill="midnightblue" stroke="midnightblue" points="94.4492,-29.9434 97.3418,-19.7511 88.7245,-25.9149 94.4492,-29.9434"/>
</g>
</g>
</svg>
