<?xml version="1.0" encoding="UTF-8" standalone="no"?>
<!DOCTYPE svg PUBLIC "-//W3C//DTD SVG 1.1//EN"
 "http://www.w3.org/Graphics/SVG/1.1/DTD/svg11.dtd">
<!-- Generated by graphviz version 2.38.0 (20140413.2041)
 -->
<!-- Title: /home/ient/YUViewOrig/YUView/source/settingswindow.h Pages: 1 -->
<svg width="175pt" height="95pt"
 viewBox="0.00 0.00 175.00 95.00" xmlns="http://www.w3.org/2000/svg" xmlns:xlink="http://www.w3.org/1999/xlink">
<g id="graph0" class="graph" transform="scale(1 1) rotate(0) translate(4 91)">
<title>/home/ient/YUViewOrig/YUView/source/settingswindow.h</title>
<polygon fill="white" stroke="none" points="-4,4 -4,-91 171,-91 171,4 -4,4"/>
<!-- Node1 -->
<g id="node1" class="node"><title>Node1</title>
<polygon fill="#bfbfbf" stroke="black" points="-1.42109e-14,-56.5 -1.42109e-14,-86.5 167,-86.5 167,-56.5 -1.42109e-14,-56.5"/>
<text text-anchor="start" x="8" y="-74.5" font-family="Helvetica,sans-Serif" font-size="10.00">/home/ient/YUViewOrig</text>
<text text-anchor="middle" x="83.5" y="-63.5" font-family="Helvetica,sans-Serif" font-size="10.00">/YUView/source/settingswindow.h</text>
</g>
<!-- Node2 -->
<g id="node2" class="node"><title>Node2</title>
<polygon fill="white" stroke="#bfbfbf" points="18,-0.5 18,-19.5 73,-19.5 73,-0.5 18,-0.5"/>
<text text-anchor="middle" x="45.5" y="-7.5" font-family="Helvetica,sans-Serif" font-size="10.00">QWidget</text>
</g>
<!-- Node1&#45;&gt;Node2 -->
<g id="edge1" class="edge"><title>Node1&#45;&gt;Node2</title>
<path fill="none" stroke="midnightblue" d="M74.4945,-56.3993C69.0865,-47.9315 62.1683,-37.0991 56.4461,-28.1393"/>
<polygon fill="midnightblue" stroke="midnightblue" points="59.3616,-26.2018 51.0293,-19.6578 53.4621,-29.9695 59.3616,-26.2018"/>
</g>
<!-- Node3 -->
<g id="node3" class="node"><title>Node3</title>
<polygon fill="white" stroke="#bfbfbf" points="91.5,-0.5 91.5,-19.5 151.5,-19.5 151.5,-0.5 91.5,-0.5"/>
<text text-anchor="middle" x="121.5" y="-7.5" font-family="Helvetica,sans-Serif" font-size="10.00">QSettings</text>
</g>
<!-- Node1&#45;&gt;Node3 -->
<g id="edge2" class="edge"><title>Node1&#45;&gt;Node3</title>
<path fill="none" stroke="midnightblue" d="M92.5055,-56.3993C97.9135,-47.9315 104.832,-37.0991 110.554,-28.1393"/>
<polygon fill="midnightblue" stroke="midnightblue" points="113.538,-29.9695 115.971,-19.6578 107.638,-26.2018 113.538,-29.9695"/>
</g>
</g>
</svg>
