<?xml version="1.0" encoding="UTF-8" standalone="no"?>
<!DOCTYPE svg PUBLIC "-//W3C//DTD SVG 1.1//EN"
 "http://www.w3.org/Graphics/SVG/1.1/DTD/svg11.dtd">
<!-- Generated by graphviz version 2.38.0 (20140413.2041)
 -->
<!-- Title: /home/ient/YUViewOrig/YUView/source/statisticSource.h Pages: 1 -->
<!--zoomable 463 -->
<svg id="main" version="1.1" xmlns="http://www.w3.org/2000/svg" xmlns:xlink="http://www.w3.org/1999/xlink" xml:space="preserve" onload="init(evt)">
<style type="text/css"><![CDATA[
.edge:hover path { stroke: red; }
.edge:hover polygon { stroke: red; fill: red; }
]]></style>
<script type="text/javascript"><![CDATA[
var edges = document.getElementsByTagName('g');
if (edges && edges.length) {
  for (var i=0;i<edges.length;i++) {
    if (edges[i].id.substr(0,4)=='edge') {
      edges[i].setAttribute('class','edge');
    }
  }
}
]]></script>
        <defs>
                <circle id="rim" cx="0" cy="0" r="7"/>
                <circle id="rim2" cx="0" cy="0" r="3.5"/>
                <g id="zoomPlus">
                        <use xlink:href="#rim" fill="#404040">
                                <set attributeName="fill" to="#808080" begin="zoomplus.mouseover" end="zoomplus.mouseout"/>
                        </use>
                        <path d="M-4,0h8M0,-4v8" fill="none" stroke="white" stroke-width="1.5" pointer-events="none"/>
                </g>
                <g id="zoomMin">
                        <use xlink:href="#rim" fill="#404040">
                                <set attributeName="fill" to="#808080" begin="zoomminus.mouseover" end="zoomminus.mouseout"/>
                        </use>
                        <path d="M-4,0h8" fill="none" stroke="white" stroke-width="1.5" pointer-events="none"/>
                </g>
                <g id="dirArrow">
                        <path fill="none" stroke="white" stroke-width="1.5" d="M0,-3.0v7 M-2.5,-0.5L0,-3.0L2.5,-0.5"/>
                </g>
               <g id="resetDef">
                       <use xlink:href="#rim2" fill="#404040">
                               <set attributeName="fill" to="#808080" begin="reset.mouseover" end="reset.mouseout"/>
                       </use>
               </g>
        </defs>

<script type="text/javascript">
var viewWidth = 1232;
var viewHeight = 463;
var sectionId = 'dynsection-1';
</script>
<script xlink:href="svgpan.js"/>
<svg id="graph" class="graph">
<g id="viewport">
<title>/home/ient/YUViewOrig/YUView/source/statisticSource.h</title>
<polygon fill="white" stroke="none" points="-4,4 -4,-459 1227.99,-459 1227.99,4 -4,4"/>
<!-- Node1 -->
<g id="node1" class="node"><title>Node1</title>
<polygon fill="#bfbfbf" stroke="black" points="442.491,-424.5 442.491,-454.5 606.491,-454.5 606.491,-424.5 442.491,-424.5"/>
<text text-anchor="start" x="450.491" y="-442.5" font-family="Helvetica,sans-Serif" font-size="10.00">/home/ient/YUViewOrig</text>
<text text-anchor="middle" x="524.491" y="-431.5" font-family="Helvetica,sans-Serif" font-size="10.00">/YUView/source/statisticSource.h</text>
</g>
<!-- Node2 -->
<g id="node2" class="node"><title>Node2</title>
<g id="a_node2"><a xlink:href="de265File_8h.html" target="_top" xlink:title="/home/ient/YUViewOrig\l/YUView/source/de265File.h">
<polygon fill="white" stroke="black" points="165.991,-352 165.991,-382 306.991,-382 306.991,-352 165.991,-352"/>
<text text-anchor="start" x="173.991" y="-370" font-family="Helvetica,sans-Serif" font-size="10.00">/home/ient/YUViewOrig</text>
<text text-anchor="middle" x="236.491" y="-359" font-family="Helvetica,sans-Serif" font-size="10.00">/YUView/source/de265File.h</text>
</a>
</g>
</g>
<!-- Node1&#45;&gt;Node2 -->
<g id="edge1" class="edge"><title>Node1&#45;&gt;Node2</title>
<path fill="none" stroke="midnightblue" d="M457.274,-422.046C407.782,-409.931 341.187,-393.629 294.119,-382.107"/>
<polygon fill="midnightblue" stroke="midnightblue" points="456.702,-425.509 467.247,-424.487 458.366,-418.71 456.702,-425.509"/>
</g>
<!-- Node6 -->
<g id="node6" class="node"><title>Node6</title>
<g id="a_node6"><a xlink:href="statisticSourceFile_8h.html" target="_top" xlink:title="/home/ient/YUViewOrig\l/YUView/source/statisticSource\lFile.h">
<polygon fill="white" stroke="black" points="446.491,-346.5 446.491,-387.5 602.491,-387.5 602.491,-346.5 446.491,-346.5"/>
<text text-anchor="start" x="454.491" y="-375.5" font-family="Helvetica,sans-Serif" font-size="10.00">/home/ient/YUViewOrig</text>
<text text-anchor="start" x="454.491" y="-364.5" font-family="Helvetica,sans-Serif" font-size="10.00">/YUView/source/statisticSource</text>
<text text-anchor="middle" x="524.491" y="-353.5" font-family="Helvetica,sans-Serif" font-size="10.00">File.h</text>
</a>
</g>
</g>
<!-- Node1&#45;&gt;Node6 -->
<g id="edge5" class="edge"><title>Node1&#45;&gt;Node6</title>
<path fill="none" stroke="midnightblue" d="M524.491,-413.982C524.491,-405.347 524.491,-395.762 524.491,-387.588"/>
<polygon fill="midnightblue" stroke="midnightblue" points="520.991,-414.233 524.491,-424.233 527.991,-414.233 520.991,-414.233"/>
</g>
<!-- Node23 -->
<g id="node23" class="node"><title>Node23</title>
<g id="a_node23"><a xlink:href="statisticSource_8cpp.html" target="_top" xlink:title="/home/ient/YUViewOrig\l/YUView/source/statisticSource.cpp">
<polygon fill="white" stroke="black" points="620.991,-352 620.991,-382 795.991,-382 795.991,-352 620.991,-352"/>
<text text-anchor="start" x="628.991" y="-370" font-family="Helvetica,sans-Serif" font-size="10.00">/home/ient/YUViewOrig</text>
<text text-anchor="middle" x="708.491" y="-359" font-family="Helvetica,sans-Serif" font-size="10.00">/YUView/source/statisticSource.cpp</text>
</a>
</g>
</g>
<!-- Node1&#45;&gt;Node23 -->
<g id="edge30" class="edge"><title>Node1&#45;&gt;Node23</title>
<path fill="none" stroke="midnightblue" d="M570.661,-420.81C601.934,-408.827 642.696,-393.21 671.762,-382.073"/>
<polygon fill="midnightblue" stroke="midnightblue" points="569.37,-417.556 561.284,-424.403 571.874,-424.093 569.37,-417.556"/>
</g>
<!-- Node3 -->
<g id="node3" class="node"><title>Node3</title>
<g id="a_node3"><a xlink:href="de265File_8cpp.html" target="_top" xlink:title="/home/ient/YUViewOrig\l/YUView/source/de265File.cpp">
<polygon fill="white" stroke="black" points="73.4911,-274 73.4911,-304 225.491,-304 225.491,-274 73.4911,-274"/>
<text text-anchor="start" x="81.4911" y="-292" font-family="Helvetica,sans-Serif" font-size="10.00">/home/ient/YUViewOrig</text>
<text text-anchor="middle" x="149.491" y="-281" font-family="Helvetica,sans-Serif" font-size="10.00">/YUView/source/de265File.cpp</text>
</a>
</g>
</g>
<!-- Node2&#45;&gt;Node3 -->
<g id="edge2" class="edge"><title>Node2&#45;&gt;Node3</title>
<path fill="none" stroke="midnightblue" d="M212.33,-344.894C197.492,-331.932 178.885,-315.678 165.782,-304.231"/>
<polygon fill="midnightblue" stroke="midnightblue" points="210.293,-347.762 220.127,-351.705 214.899,-342.49 210.293,-347.762"/>
</g>
<!-- Node4 -->
<g id="node4" class="node"><title>Node4</title>
<g id="a_node4"><a xlink:href="frameobject_8cpp.html" target="_top" xlink:title="/home/ient/YUViewOrig\l/YUView/source/frameobject.cpp">
<polygon fill="white" stroke="black" points="243.991,-274 243.991,-304 404.991,-304 404.991,-274 243.991,-274"/>
<text text-anchor="start" x="251.991" y="-292" font-family="Helvetica,sans-Serif" font-size="10.00">/home/ient/YUViewOrig</text>
<text text-anchor="middle" x="324.491" y="-281" font-family="Helvetica,sans-Serif" font-size="10.00">/YUView/source/frameobject.cpp</text>
</a>
</g>
</g>
<!-- Node2&#45;&gt;Node4 -->
<g id="edge3" class="edge"><title>Node2&#45;&gt;Node4</title>
<path fill="none" stroke="midnightblue" d="M260.929,-344.894C275.938,-331.932 294.759,-315.678 308.013,-304.231"/>
<polygon fill="midnightblue" stroke="midnightblue" points="258.324,-342.52 253.043,-351.705 262.899,-347.818 258.324,-342.52"/>
</g>
<!-- Node5 -->
<g id="node5" class="node"><title>Node5</title>
<g id="a_node5"><a xlink:href="mainwindow_8cpp.html" target="_top" xlink:title="/home/ient/YUViewOrig\l/YUView/source/mainwindow.cpp">
<polygon fill="white" stroke="black" points="246.491,-67.5 246.491,-97.5 410.491,-97.5 410.491,-67.5 246.491,-67.5"/>
<text text-anchor="start" x="254.491" y="-85.5" font-family="Helvetica,sans-Serif" font-size="10.00">/home/ient/YUViewOrig</text>
<text text-anchor="middle" x="328.491" y="-74.5" font-family="Helvetica,sans-Serif" font-size="10.00">/YUView/source/mainwindow.cpp</text>
</a>
</g>
</g>
<!-- Node2&#45;&gt;Node5 -->
<g id="edge4" class="edge"><title>Node2&#45;&gt;Node5</title>
<path fill="none" stroke="midnightblue" d="M155.773,-356.602C123.445,-348.943 88.2979,-335.078 64.4911,-310 9.33018,-251.893 -26.2963,-195.133 25.4911,-134 53.3264,-101.141 166.63,-89.643 246.488,-85.6313"/>
<polygon fill="midnightblue" stroke="midnightblue" points="155.182,-360.055 165.7,-358.785 156.685,-353.219 155.182,-360.055"/>
</g>
<!-- Node7 -->
<g id="node7" class="node"><title>Node7</title>
<g id="a_node7"><a xlink:href="statisticsobject_8h.html" target="_top" xlink:title="/home/ient/YUViewOrig\l/YUView/source/statisticsobject.h">
<polygon fill="white" stroke="black" points="441.991,-274 441.991,-304 606.991,-304 606.991,-274 441.991,-274"/>
<text text-anchor="start" x="449.991" y="-292" font-family="Helvetica,sans-Serif" font-size="10.00">/home/ient/YUViewOrig</text>
<text text-anchor="middle" x="524.491" y="-281" font-family="Helvetica,sans-Serif" font-size="10.00">/YUView/source/statisticsobject.h</text>
</a>
</g>
</g>
<!-- Node6&#45;&gt;Node7 -->
<g id="edge6" class="edge"><title>Node6&#45;&gt;Node7</title>
<path fill="none" stroke="midnightblue" d="M524.491,-336.283C524.491,-325.254 524.491,-313.246 524.491,-304.225"/>
<polygon fill="midnightblue" stroke="midnightblue" points="520.991,-336.428 524.491,-346.428 527.991,-336.428 520.991,-336.428"/>
</g>
<!-- Node22 -->
<g id="node22" class="node"><title>Node22</title>
<g id="a_node22"><a xlink:href="statisticSourceFile_8cpp.html" target="_top" xlink:title="/home/ient/YUViewOrig\l/YUView/source/statisticSource\lFile.cpp">
<polygon fill="white" stroke="black" points="625.491,-268.5 625.491,-309.5 781.491,-309.5 781.491,-268.5 625.491,-268.5"/>
<text text-anchor="start" x="633.491" y="-297.5" font-family="Helvetica,sans-Serif" font-size="10.00">/home/ient/YUViewOrig</text>
<text text-anchor="start" x="633.491" y="-286.5" font-family="Helvetica,sans-Serif" font-size="10.00">/YUView/source/statisticSource</text>
<text text-anchor="middle" x="703.491" y="-275.5" font-family="Helvetica,sans-Serif" font-size="10.00">File.cpp</text>
</a>
</g>
</g>
<!-- Node6&#45;&gt;Node22 -->
<g id="edge29" class="edge"><title>Node6&#45;&gt;Node22</title>
<path fill="none" stroke="midnightblue" d="M579.913,-342.469C604.824,-331.892 633.876,-319.557 657.55,-309.506"/>
<polygon fill="midnightblue" stroke="midnightblue" points="578.425,-339.298 570.588,-346.428 581.161,-345.742 578.425,-339.298"/>
</g>
<!-- Node8 -->
<g id="node8" class="node"><title>Node8</title>
<g id="a_node8"><a xlink:href="displaywidget_8h.html" target="_top" xlink:title="/home/ient/YUViewOrig\l/YUView/source/displaywidget.h">
<polygon fill="white" stroke="black" points="445.491,-201.5 445.491,-231.5 603.491,-231.5 603.491,-201.5 445.491,-201.5"/>
<text text-anchor="start" x="453.491" y="-219.5" font-family="Helvetica,sans-Serif" font-size="10.00">/home/ient/YUViewOrig</text>
<text text-anchor="middle" x="524.491" y="-208.5" font-family="Helvetica,sans-Serif" font-size="10.00">/YUView/source/displaywidget.h</text>
</a>
</g>
</g>
<!-- Node7&#45;&gt;Node8 -->
<g id="edge7" class="edge"><title>Node7&#45;&gt;Node8</title>
<path fill="none" stroke="midnightblue" d="M524.491,-263.732C524.491,-253.068 524.491,-240.914 524.491,-231.746"/>
<polygon fill="midnightblue" stroke="midnightblue" points="520.991,-263.733 524.491,-273.733 527.991,-263.733 520.991,-263.733"/>
</g>
<!-- Node17 -->
<g id="node17" class="node"><title>Node17</title>
<g id="a_node17"><a xlink:href="playlistitem_8h.html" target="_top" xlink:title="/home/ient/YUViewOrig\l/YUView/source/playlistitem.h">
<polygon fill="white" stroke="black" points="698.991,-201.5 698.991,-231.5 847.991,-231.5 847.991,-201.5 698.991,-201.5"/>
<text text-anchor="start" x="706.991" y="-219.5" font-family="Helvetica,sans-Serif" font-size="10.00">/home/ient/YUViewOrig</text>
<text text-anchor="middle" x="773.491" y="-208.5" font-family="Helvetica,sans-Serif" font-size="10.00">/YUView/source/playlistitem.h</text>
</a>
</g>
</g>
<!-- Node7&#45;&gt;Node17 -->
<g id="edge20" class="edge"><title>Node7&#45;&gt;Node17</title>
<path fill="none" stroke="midnightblue" d="M583.681,-271.241C626.356,-259.159 683.312,-243.033 723.667,-231.607"/>
<polygon fill="midnightblue" stroke="midnightblue" points="582.651,-267.895 573.983,-273.987 584.558,-274.63 582.651,-267.895"/>
</g>
<!-- Node19 -->
<g id="node19" class="node"><title>Node19</title>
<g id="a_node19"><a xlink:href="statslistmodel_8h.html" target="_top" xlink:title="/home/ient/YUViewOrig\l/YUView/source/statslistmodel.h">
<polygon fill="white" stroke="black" points="152.491,-201.5 152.491,-231.5 312.491,-231.5 312.491,-201.5 152.491,-201.5"/>
<text text-anchor="start" x="160.491" y="-219.5" font-family="Helvetica,sans-Serif" font-size="10.00">/home/ient/YUViewOrig</text>
<text text-anchor="middle" x="232.491" y="-208.5" font-family="Helvetica,sans-Serif" font-size="10.00">/YUView/source/statslistmodel.h</text>
</a>
</g>
</g>
<!-- Node7&#45;&gt;Node19 -->
<g id="edge25" class="edge"><title>Node7&#45;&gt;Node19</title>
<path fill="none" stroke="midnightblue" d="M456.654,-271.622C406.443,-259.499 338.741,-243.153 290.92,-231.607"/>
<polygon fill="midnightblue" stroke="midnightblue" points="455.91,-275.042 466.452,-273.987 457.553,-268.238 455.91,-275.042"/>
</g>
<!-- Node21 -->
<g id="node21" class="node"><title>Node21</title>
<g id="a_node21"><a xlink:href="statisticsobject_8cpp.html" target="_top" xlink:title="/home/ient/YUViewOrig\l/YUView/source/statisticsobject.cpp">
<polygon fill="white" stroke="black" points="865.491,-201.5 865.491,-231.5 1041.49,-231.5 1041.49,-201.5 865.491,-201.5"/>
<text text-anchor="start" x="873.491" y="-219.5" font-family="Helvetica,sans-Serif" font-size="10.00">/home/ient/YUViewOrig</text>
<text text-anchor="middle" x="953.491" y="-208.5" font-family="Helvetica,sans-Serif" font-size="10.00">/YUView/source/statisticsobject.cpp</text>
</a>
</g>
</g>
<!-- Node7&#45;&gt;Node21 -->
<g id="edge28" class="edge"><title>Node7&#45;&gt;Node21</title>
<path fill="none" stroke="midnightblue" d="M596.227,-271.931C603.065,-270.543 609.902,-269.209 616.491,-268 619.573,-267.435 766.311,-245.479 865.122,-230.707"/>
<polygon fill="midnightblue" stroke="midnightblue" points="595.323,-268.544 586.239,-273.997 596.741,-275.399 595.323,-268.544"/>
</g>
<!-- Node8&#45;&gt;Node5 -->
<g id="edge19" class="edge"><title>Node8&#45;&gt;Node5</title>
<path fill="none" stroke="midnightblue" d="M435.168,-207.931C376.392,-200.885 307.014,-187.906 288.491,-165 271.544,-144.043 295.084,-114.719 312.585,-97.5569"/>
<polygon fill="midnightblue" stroke="midnightblue" points="434.915,-211.425 445.251,-209.095 435.718,-204.471 434.915,-211.425"/>
</g>
<!-- Node9 -->
<g id="node9" class="node"><title>Node9</title>
<g id="a_node9"><a xlink:href="displaysplitwidget_8h.html" target="_top" xlink:title="/home/ient/YUViewOrig\l/YUView/source/displaysplitwidget.h">
<polygon fill="white" stroke="black" points="522.491,-134.5 522.491,-164.5 698.491,-164.5 698.491,-134.5 522.491,-134.5"/>
<text text-anchor="start" x="530.491" y="-152.5" font-family="Helvetica,sans-Serif" font-size="10.00">/home/ient/YUViewOrig</text>
<text text-anchor="middle" x="610.491" y="-141.5" font-family="Helvetica,sans-Serif" font-size="10.00">/YUView/source/displaysplitwidget.h</text>
</a>
</g>
</g>
<!-- Node8&#45;&gt;Node9 -->
<g id="edge8" class="edge"><title>Node8&#45;&gt;Node9</title>
<path fill="none" stroke="midnightblue" d="M551.392,-195.168C564.543,-185.228 580.041,-173.514 591.867,-164.577"/>
<polygon fill="midnightblue" stroke="midnightblue" points="549.019,-192.574 543.152,-201.396 553.24,-198.158 549.019,-192.574"/>
</g>
<!-- Node11 -->
<g id="node11" class="node"><title>Node11</title>
<g id="a_node11"><a xlink:href="mainwindow_8h.html" target="_top" xlink:title="/home/ient/YUViewOrig\l/YUView/source/mainwindow.h">
<polygon fill="white" stroke="black" points="716.991,-134.5 716.991,-164.5 869.991,-164.5 869.991,-134.5 716.991,-134.5"/>
<text text-anchor="start" x="724.991" y="-152.5" font-family="Helvetica,sans-Serif" font-size="10.00">/home/ient/YUViewOrig</text>
<text text-anchor="middle" x="793.491" y="-141.5" font-family="Helvetica,sans-Serif" font-size="10.00">/YUView/source/mainwindow.h</text>
</a>
</g>
</g>
<!-- Node8&#45;&gt;Node11 -->
<g id="edge11" class="edge"><title>Node8&#45;&gt;Node11</title>
<path fill="none" stroke="midnightblue" d="M592.285,-199.119C636.301,-188.483 693.081,-174.763 735.094,-164.611"/>
<polygon fill="midnightblue" stroke="midnightblue" points="591.427,-195.725 582.529,-201.476 593.071,-202.529 591.427,-195.725"/>
</g>
<!-- Node16 -->
<g id="node16" class="node"><title>Node16</title>
<g id="a_node16"><a xlink:href="displaywidget_8cpp.html" target="_top" xlink:title="/home/ient/YUViewOrig\l/YUView/source/displaywidget.cpp">
<polygon fill="white" stroke="black" points="297.991,-134.5 297.991,-164.5 466.991,-164.5 466.991,-134.5 297.991,-134.5"/>
<text text-anchor="start" x="305.991" y="-152.5" font-family="Helvetica,sans-Serif" font-size="10.00">/home/ient/YUViewOrig</text>
<text text-anchor="middle" x="382.491" y="-141.5" font-family="Helvetica,sans-Serif" font-size="10.00">/YUView/source/displaywidget.cpp</text>
</a>
</g>
</g>
<!-- Node8&#45;&gt;Node16 -->
<g id="edge18" class="edge"><title>Node8&#45;&gt;Node16</title>
<path fill="none" stroke="midnightblue" d="M484.361,-197.131C461.798,-186.802 434.07,-174.11 413.243,-164.577"/>
<polygon fill="midnightblue" stroke="midnightblue" points="483.13,-200.416 493.679,-201.396 486.043,-194.051 483.13,-200.416"/>
</g>
<!-- Node9&#45;&gt;Node5 -->
<g id="edge10" class="edge"><title>Node9&#45;&gt;Node5</title>
<path fill="none" stroke="midnightblue" d="M539.712,-132.186C493.528,-121.54 433.847,-107.784 389.711,-97.6109"/>
<polygon fill="midnightblue" stroke="midnightblue" points="539.118,-135.64 549.648,-134.476 540.69,-128.819 539.118,-135.64"/>
</g>
<!-- Node10 -->
<g id="node10" class="node"><title>Node10</title>
<g id="a_node10"><a xlink:href="displaysplitwidget_8cpp.html" target="_top" xlink:title="/home/ient/YUViewOrig\l/YUView/source/displaysplitwidget.cpp">
<polygon fill="white" stroke="black" points="486.991,-67.5 486.991,-97.5 673.991,-97.5 673.991,-67.5 486.991,-67.5"/>
<text text-anchor="start" x="494.991" y="-85.5" font-family="Helvetica,sans-Serif" font-size="10.00">/home/ient/YUViewOrig</text>
<text text-anchor="middle" x="580.491" y="-74.5" font-family="Helvetica,sans-Serif" font-size="10.00">/YUView/source/displaysplitwidget.cpp</text>
</a>
</g>
</g>
<!-- Node9&#45;&gt;Node10 -->
<g id="edge9" class="edge"><title>Node9&#45;&gt;Node10</title>
<path fill="none" stroke="midnightblue" d="M599.776,-125.283C595.501,-116.022 590.72,-105.663 586.988,-97.5765"/>
<polygon fill="midnightblue" stroke="midnightblue" points="596.613,-126.783 603.982,-134.396 602.969,-123.85 596.613,-126.783"/>
</g>
<!-- Node11&#45;&gt;Node5 -->
<g id="edge13" class="edge"><title>Node11&#45;&gt;Node5</title>
<path fill="none" stroke="midnightblue" d="M706.502,-133.882C598.324,-117.678 485.191,-102.984 410.671,-93.6179"/>
<polygon fill="midnightblue" stroke="midnightblue" points="706.209,-137.377 716.618,-135.404 707.25,-130.455 706.209,-137.377"/>
</g>
<!-- Node11&#45;&gt;Node10 -->
<g id="edge12" class="edge"><title>Node11&#45;&gt;Node10</title>
<path fill="none" stroke="midnightblue" d="M737.601,-131.444C703.073,-120.908 659.299,-107.549 626.731,-97.6109"/>
<polygon fill="midnightblue" stroke="midnightblue" points="736.949,-134.905 747.535,-134.476 738.993,-128.21 736.949,-134.905"/>
</g>
<!-- Node12 -->
<g id="node12" class="node"><title>Node12</title>
<g id="a_node12"><a xlink:href="playlisttreewidget_8cpp.html" target="_top" xlink:title="/home/ient/YUViewOrig\l/YUView/source/playlisttreewidget.cpp">
<polygon fill="white" stroke="black" points="1038.99,-67.5 1038.99,-97.5 1223.99,-97.5 1223.99,-67.5 1038.99,-67.5"/>
<text text-anchor="start" x="1046.99" y="-85.5" font-family="Helvetica,sans-Serif" font-size="10.00">/home/ient/YUViewOrig</text>
<text text-anchor="middle" x="1131.49" y="-74.5" font-family="Helvetica,sans-Serif" font-size="10.00">/YUView/source/playlisttreewidget.cpp</text>
</a>
</g>
</g>
<!-- Node11&#45;&gt;Node12 -->
<g id="edge14" class="edge"><title>Node11&#45;&gt;Node12</title>
<path fill="none" stroke="midnightblue" d="M876.262,-132.583C931.995,-121.865 1004.82,-107.86 1058.41,-97.5549"/>
<polygon fill="midnightblue" stroke="midnightblue" points="875.575,-129.15 866.416,-134.476 876.897,-136.024 875.575,-129.15"/>
</g>
<!-- Node13 -->
<g id="node13" class="node"><title>Node13</title>
<g id="a_node13"><a xlink:href="statslistview_8cpp.html" target="_top" xlink:title="/home/ient/YUViewOrig\l/YUView/source/statslistview.cpp">
<polygon fill="white" stroke="black" points="692.491,-67.5 692.491,-97.5 856.491,-97.5 856.491,-67.5 692.491,-67.5"/>
<text text-anchor="start" x="700.491" y="-85.5" font-family="Helvetica,sans-Serif" font-size="10.00">/home/ient/YUViewOrig</text>
<text text-anchor="middle" x="774.491" y="-74.5" font-family="Helvetica,sans-Serif" font-size="10.00">/YUView/source/statslistview.cpp</text>
</a>
</g>
</g>
<!-- Node11&#45;&gt;Node13 -->
<g id="edge15" class="edge"><title>Node11&#45;&gt;Node13</title>
<path fill="none" stroke="midnightblue" d="M786.533,-124.697C783.87,-115.587 780.92,-105.493 778.606,-97.5765"/>
<polygon fill="midnightblue" stroke="midnightblue" points="783.203,-125.78 789.368,-134.396 789.922,-123.816 783.203,-125.78"/>
</g>
<!-- Node14 -->
<g id="node14" class="node"><title>Node14</title>
<g id="a_node14"><a xlink:href="yuviewapp_8h.html" target="_top" xlink:title="/home/ient/YUViewOrig\l/YUView/source/yuviewapp.h">
<polygon fill="white" stroke="black" points="874.491,-67.5 874.491,-97.5 1020.49,-97.5 1020.49,-67.5 874.491,-67.5"/>
<text text-anchor="start" x="882.491" y="-85.5" font-family="Helvetica,sans-Serif" font-size="10.00">/home/ient/YUViewOrig</text>
<text text-anchor="middle" x="947.491" y="-74.5" font-family="Helvetica,sans-Serif" font-size="10.00">/YUView/source/yuviewapp.h</text>
</a>
</g>
</g>
<!-- Node11&#45;&gt;Node14 -->
<g id="edge16" class="edge"><title>Node11&#45;&gt;Node14</title>
<path fill="none" stroke="midnightblue" d="M836.359,-130.407C860.945,-120.029 891.351,-107.195 914.141,-97.5765"/>
<polygon fill="midnightblue" stroke="midnightblue" points="834.759,-127.283 826.907,-134.396 837.481,-133.732 834.759,-127.283"/>
</g>
<!-- Node15 -->
<g id="node15" class="node"><title>Node15</title>
<g id="a_node15"><a xlink:href="yuviewapp_8cpp.html" target="_top" xlink:title="/home/ient/YUViewOrig\l/YUView/source/yuviewapp.cpp">
<polygon fill="white" stroke="black" points="869.491,-0.5 869.491,-30.5 1025.49,-30.5 1025.49,-0.5 869.491,-0.5"/>
<text text-anchor="start" x="877.491" y="-18.5" font-family="Helvetica,sans-Serif" font-size="10.00">/home/ient/YUViewOrig</text>
<text text-anchor="middle" x="947.491" y="-7.5" font-family="Helvetica,sans-Serif" font-size="10.00">/YUView/source/yuviewapp.cpp</text>
</a>
</g>
</g>
<!-- Node14&#45;&gt;Node15 -->
<g id="edge17" class="edge"><title>Node14&#45;&gt;Node15</title>
<path fill="none" stroke="midnightblue" d="M947.491,-57.1081C947.491,-48.1539 947.491,-38.3227 947.491,-30.5765"/>
<polygon fill="midnightblue" stroke="midnightblue" points="943.991,-57.3959 947.491,-67.396 950.991,-57.396 943.991,-57.3959"/>
</g>
<!-- Node17&#45;&gt;Node5 -->
<g id="edge22" class="edge"><title>Node17&#45;&gt;Node5</title>
<path fill="none" stroke="midnightblue" d="M688.821,-209.62C636.338,-203.457 568.649,-190.837 513.491,-165 493.753,-155.754 494.539,-144.595 475.491,-134 446.956,-118.129 412.556,-105.979 384.209,-97.5782"/>
<polygon fill="midnightblue" stroke="midnightblue" points="688.445,-213.1 698.772,-210.733 689.223,-206.143 688.445,-213.1"/>
</g>
<!-- Node17&#45;&gt;Node11 -->
<g id="edge21" class="edge"><title>Node17&#45;&gt;Node11</title>
<path fill="none" stroke="midnightblue" d="M780.815,-191.697C783.618,-182.587 786.724,-172.493 789.16,-164.577"/>
<polygon fill="midnightblue" stroke="midnightblue" points="777.426,-190.809 777.831,-201.396 784.117,-192.867 777.426,-190.809"/>
</g>
<!-- Node17&#45;&gt;Node12 -->
<g id="edge24" class="edge"><title>Node17&#45;&gt;Node12</title>
<path fill="none" stroke="midnightblue" d="M858.132,-200.668C940.387,-186.205 1053.27,-166.207 1055.49,-165 1085.39,-148.713 1110.1,-116.299 1122.62,-97.6309"/>
<polygon fill="midnightblue" stroke="midnightblue" points="857.506,-197.224 848.263,-202.402 858.718,-204.118 857.506,-197.224"/>
</g>
<!-- Node18 -->
<g id="node18" class="node"><title>Node18</title>
<g id="a_node18"><a xlink:href="playlistitem_8cpp.html" target="_top" xlink:title="/home/ient/YUViewOrig\l/YUView/source/playlistitem.cpp">
<polygon fill="white" stroke="black" points="887.991,-134.5 887.991,-164.5 1046.99,-164.5 1046.99,-134.5 887.991,-134.5"/>
<text text-anchor="start" x="895.991" y="-152.5" font-family="Helvetica,sans-Serif" font-size="10.00">/home/ient/YUViewOrig</text>
<text text-anchor="middle" x="967.491" y="-141.5" font-family="Helvetica,sans-Serif" font-size="10.00">/YUView/source/playlistitem.cpp</text>
</a>
</g>
</g>
<!-- Node17&#45;&gt;Node18 -->
<g id="edge23" class="edge"><title>Node17&#45;&gt;Node18</title>
<path fill="none" stroke="midnightblue" d="M825.448,-198.092C856.765,-187.599 896.134,-174.408 925.478,-164.577"/>
<polygon fill="midnightblue" stroke="midnightblue" points="823.956,-194.9 815.586,-201.396 826.18,-201.538 823.956,-194.9"/>
</g>
<!-- Node19&#45;&gt;Node5 -->
<g id="edge26" class="edge"><title>Node19&#45;&gt;Node5</title>
<path fill="none" stroke="midnightblue" d="M235.287,-191.387C238.259,-174.1 244.308,-150.966 256.491,-134 267.534,-118.622 284.772,-106.293 299.612,-97.6673"/>
<polygon fill="midnightblue" stroke="midnightblue" points="231.824,-190.88 233.806,-201.288 238.747,-191.915 231.824,-190.88"/>
</g>
<!-- Node20 -->
<g id="node20" class="node"><title>Node20</title>
<g id="a_node20"><a xlink:href="statslistmodel_8cpp.html" target="_top" xlink:title="/home/ient/YUViewOrig\l/YUView/source/statslistmodel.cpp">
<polygon fill="white" stroke="black" points="34.4911,-134.5 34.4911,-164.5 204.491,-164.5 204.491,-134.5 34.4911,-134.5"/>
<text text-anchor="start" x="42.4911" y="-152.5" font-family="Helvetica,sans-Serif" font-size="10.00">/home/ient/YUViewOrig</text>
<text text-anchor="middle" x="119.491" y="-141.5" font-family="Helvetica,sans-Serif" font-size="10.00">/YUView/source/statslistmodel.cpp</text>
</a>
</g>
</g>
<!-- Node19&#45;&gt;Node20 -->
<g id="edge27" class="edge"><title>Node19&#45;&gt;Node20</title>
<path fill="none" stroke="midnightblue" d="M199.105,-196.296C181.423,-186.125 160.093,-173.855 143.963,-164.577"/>
<polygon fill="midnightblue" stroke="midnightblue" points="197.558,-199.444 207.972,-201.396 201.049,-193.376 197.558,-199.444"/>
</g>
</g>
</svg>
        <g id="navigator" transform="translate(0 0)" fill="#404254">
                <rect fill="#f2f5e9" fill-opacity="0.5" stroke="#606060" stroke-width=".5" x="0" y="0" width="60" height="60"/>
                <use id="zoomplus" xlink:href="#zoomPlus" x="17" y="9" onmousedown="handleZoom(evt,'in')"/>
                <use id="zoomminus" xlink:href="#zoomMin" x="42" y="9" onmousedown="handleZoom(evt,'out')"/>
                <use id="reset" xlink:href="#resetDef" x="30" y="36" onmousedown="handleReset()"/>
                <g id="arrowUp" xlink:href="#dirArrow" transform="translate(30 24)" onmousedown="handlePan(0,-1)">
                  <use xlink:href="#rim" fill="#404040">
                        <set attributeName="fill" to="#808080" begin="arrowUp.mouseover" end="arrowUp.mouseout"/>
                  </use>
                  <path fill="none" stroke="white" stroke-width="1.5" d="M0,-3.0v7 M-2.5,-0.5L0,-3.0L2.5,-0.5"/>
                </g>
                <g id="arrowRight" xlink:href="#dirArrow" transform="rotate(90) translate(36 -43)" onmousedown="handlePan(1,0)">
                  <use xlink:href="#rim" fill="#404040">
                        <set attributeName="fill" to="#808080" begin="arrowRight.mouseover" end="arrowRight.mouseout"/>
                  </use>
                  <path fill="none" stroke="white" stroke-width="1.5" d="M0,-3.0v7 M-2.5,-0.5L0,-3.0L2.5,-0.5"/>
                </g>
                <g id="arrowDown" xlink:href="#dirArrow" transform="rotate(180) translate(-30 -48)" onmousedown="handlePan(0,1)">
                  <use xlink:href="#rim" fill="#404040">
                        <set attributeName="fill" to="#808080" begin="arrowDown.mouseover" end="arrowDown.mouseout"/>
                  </use>
                  <path fill="none" stroke="white" stroke-width="1.5" d="M0,-3.0v7 M-2.5,-0.5L0,-3.0L2.5,-0.5"/>
                </g>
                <g id="arrowLeft" xlink:href="#dirArrow" transform="rotate(270) translate(-36 17)" onmousedown="handlePan(-1,0)">
                  <use xlink:href="#rim" fill="#404040">
                        <set attributeName="fill" to="#808080" begin="arrowLeft.mouseover" end="arrowLeft.mouseout"/>
                  </use>
                  <path fill="none" stroke="white" stroke-width="1.5" d="M0,-3.0v7 M-2.5,-0.5L0,-3.0L2.5,-0.5"/>
                </g>
        </g>
        <svg viewBox="0 0 15 15" width="100%" height="30px" preserveAspectRatio="xMaxYMin meet">
         <g id="arrow_out" transform="scale(0.3 0.3)">
          <a xlink:href="statisticSource_8h__dep__incl_org.svg" target="_base">
           <rect id="button" ry="5" rx="5" y="6" x="6" height="38" width="38"
                fill="#f2f5e9" fill-opacity="0.5" stroke="#606060" stroke-width="1.0"/>
           <path id="arrow"
             d="M 11.500037,31.436501 C 11.940474,20.09759 22.043105,11.32322 32.158766,21.979434 L 37.068811,17.246167 C 37.068811,17.246167 37.088388,32 37.088388,32 L 22.160133,31.978069 C 22.160133,31.978069 26.997745,27.140456 26.997745,27.140456 C 18.528582,18.264221 13.291696,25.230495 11.500037,31.436501 z"
             style="fill:#404040;"/>
          </a>
         </g>
        </svg>
</svg>
