<?xml version="1.0" encoding="UTF-8" standalone="no"?>
<!DOCTYPE svg PUBLIC "-//W3C//DTD SVG 1.1//EN"
 "http://www.w3.org/Graphics/SVG/1.1/DTD/svg11.dtd">
<!-- Generated by graphviz version 2.38.0 (20140413.2041)
 -->
<!-- Title: rotateVector Pages: 1 -->
<svg width="1572pt" height="524pt"
 viewBox="0.00 0.00 1572.00 524.00" xmlns="http://www.w3.org/2000/svg" xmlns:xlink="http://www.w3.org/1999/xlink">
<g id="graph0" class="graph" transform="scale(1 1) rotate(0) translate(4 520)">
<title>rotateVector</title>
<polygon fill="white" stroke="none" points="-4,4 -4,-520 1568,-520 1568,4 -4,4"/>
<!-- Node1 -->
<g id="node1" class="node"><title>Node1</title>
<polygon fill="#bfbfbf" stroke="black" points="0,-369 0,-388 70,-388 70,-369 0,-369"/>
<text text-anchor="middle" x="35" y="-376" font-family="Helvetica,sans-Serif" font-size="10.00">rotateVector</text>
</g>
<!-- Node2 -->
<g id="node2" class="node"><title>Node2</title>
<g id="a_node2"><a xlink:href="classstatisticSource.html#af005d063b46b611d6166d4d8439d6245" target="_top" xlink:title="statisticSource::drawStatistics\lImage">
<polygon fill="white" stroke="black" points="106,-363.5 106,-393.5 256,-393.5 256,-363.5 106,-363.5"/>
<text text-anchor="start" x="114" y="-381.5" font-family="Helvetica,sans-Serif" font-size="10.00">statisticSource::drawStatistics</text>
<text text-anchor="middle" x="181" y="-370.5" font-family="Helvetica,sans-Serif" font-size="10.00">Image</text>
</a>
</g>
</g>
<!-- Node1&#45;&gt;Node2 -->
<g id="edge1" class="edge"><title>Node1&#45;&gt;Node2</title>
<path fill="none" stroke="midnightblue" d="M80.1372,-378.5C88.3111,-378.5 97.0515,-378.5 105.835,-378.5"/>
<polygon fill="midnightblue" stroke="midnightblue" points="80.126,-375 70.126,-378.5 80.126,-382 80.126,-375"/>
</g>
<!-- Node3 -->
<g id="node3" class="node"><title>Node3</title>
<g id="a_node3"><a xlink:href="classstatisticSource.html#a97118da6546c479004129b4fcc6851bf" target="_top" xlink:title="statisticSource::drawStatistics">
<polygon fill="white" stroke="black" points="292,-369 292,-388 442,-388 442,-369 292,-369"/>
<text text-anchor="middle" x="367" y="-376" font-family="Helvetica,sans-Serif" font-size="10.00">statisticSource::drawStatistics</text>
</a>
</g>
</g>
<!-- Node2&#45;&gt;Node3 -->
<g id="edge2" class="edge"><title>Node2&#45;&gt;Node3</title>
<path fill="none" stroke="midnightblue" d="M266.066,-378.5C274.654,-378.5 283.336,-378.5 291.808,-378.5"/>
<polygon fill="midnightblue" stroke="midnightblue" points="266.045,-375 256.044,-378.5 266.044,-382 266.045,-375"/>
</g>
<!-- Node4 -->
<g id="node4" class="node"><title>Node4</title>
<g id="a_node4"><a xlink:href="classStatisticsObject.html#a7ef3844aa2a91ec4fc67233f7a6f5552" target="_top" xlink:title="StatisticsObject::loadImage">
<polygon fill="white" stroke="black" points="478,-369 478,-388 615,-388 615,-369 478,-369"/>
<text text-anchor="middle" x="546.5" y="-376" font-family="Helvetica,sans-Serif" font-size="10.00">StatisticsObject::loadImage</text>
</a>
</g>
</g>
<!-- Node3&#45;&gt;Node4 -->
<g id="edge3" class="edge"><title>Node3&#45;&gt;Node4</title>
<path fill="none" stroke="midnightblue" d="M452.251,-378.5C460.81,-378.5 469.426,-378.5 477.778,-378.5"/>
<polygon fill="midnightblue" stroke="midnightblue" points="452.248,-375 442.248,-378.5 452.247,-382 452.248,-375"/>
</g>
<!-- Node5 -->
<g id="node5" class="node"><title>Node5</title>
<g id="a_node5"><a xlink:href="classDisplayWidget.html#a4a0937fa643aabd3dc4894a5c71179bf" target="_top" xlink:title="DisplayWidget::drawFrame">
<polygon fill="white" stroke="black" points="651,-391 651,-410 786,-410 786,-391 651,-391"/>
<text text-anchor="middle" x="718.5" y="-398" font-family="Helvetica,sans-Serif" font-size="10.00">DisplayWidget::drawFrame</text>
</a>
</g>
</g>
<!-- Node4&#45;&gt;Node5 -->
<g id="edge4" class="edge"><title>Node4&#45;&gt;Node5</title>
<path fill="none" stroke="midnightblue" d="M625.187,-388.554C633.772,-389.665 642.457,-390.789 650.888,-391.88"/>
<polygon fill="midnightblue" stroke="midnightblue" points="625.543,-385.071 615.177,-387.258 624.645,-392.013 625.543,-385.071"/>
</g>
<!-- Node7 -->
<g id="node7" class="node"><title>Node7</title>
<g id="a_node7"><a xlink:href="classStatisticsObject.html#a09c2920b75ecda0e175a6c9384b446ab" target="_top" xlink:title="StatisticsObject::reload\lImage">
<polygon fill="white" stroke="black" points="659,-341.5 659,-371.5 778,-371.5 778,-341.5 659,-341.5"/>
<text text-anchor="start" x="667" y="-359.5" font-family="Helvetica,sans-Serif" font-size="10.00">StatisticsObject::reload</text>
<text text-anchor="middle" x="718.5" y="-348.5" font-family="Helvetica,sans-Serif" font-size="10.00">Image</text>
</a>
</g>
</g>
<!-- Node4&#45;&gt;Node7 -->
<g id="edge6" class="edge"><title>Node4&#45;&gt;Node7</title>
<path fill="none" stroke="midnightblue" d="M625.425,-368.416C636.66,-366.962 648.061,-365.486 658.836,-364.092"/>
<polygon fill="midnightblue" stroke="midnightblue" points="624.645,-364.987 615.177,-369.742 625.543,-371.929 624.645,-364.987"/>
</g>
<!-- Node6 -->
<g id="node6" class="node"><title>Node6</title>
<g id="a_node6"><a xlink:href="classDisplaySplitWidget.html#a95e926ec447ef50cee841ff4d7d4f59a" target="_top" xlink:title="DisplaySplitWidget\l::drawFrame">
<polygon fill="white" stroke="black" points="849,-385.5 849,-415.5 949,-415.5 949,-385.5 849,-385.5"/>
<text text-anchor="start" x="857" y="-403.5" font-family="Helvetica,sans-Serif" font-size="10.00">DisplaySplitWidget</text>
<text text-anchor="middle" x="899" y="-392.5" font-family="Helvetica,sans-Serif" font-size="10.00">::drawFrame</text>
</a>
</g>
</g>
<!-- Node5&#45;&gt;Node6 -->
<g id="edge5" class="edge"><title>Node5&#45;&gt;Node6</title>
<path fill="none" stroke="midnightblue" d="M796.575,-400.5C814.326,-400.5 832.732,-400.5 848.913,-400.5"/>
<polygon fill="midnightblue" stroke="midnightblue" points="796.221,-397 786.221,-400.5 796.221,-404 796.221,-397"/>
</g>
<!-- Node8 -->
<g id="node8" class="node"><title>Node8</title>
<g id="a_node8"><a xlink:href="classDisplayWidget.html#a822a3c50c6c602fafff6ef2132ccdb42" target="_top" xlink:title="DisplayWidget::setDisplayRect">
<polygon fill="white" stroke="black" points="822,-347 822,-366 976,-366 976,-347 822,-347"/>
<text text-anchor="middle" x="899" y="-354" font-family="Helvetica,sans-Serif" font-size="10.00">DisplayWidget::setDisplayRect</text>
</a>
</g>
</g>
<!-- Node7&#45;&gt;Node8 -->
<g id="edge7" class="edge"><title>Node7&#45;&gt;Node8</title>
<path fill="none" stroke="midnightblue" d="M788.724,-356.5C799.605,-356.5 810.905,-356.5 821.931,-356.5"/>
<polygon fill="midnightblue" stroke="midnightblue" points="788.442,-353 778.442,-356.5 788.442,-360 788.442,-353"/>
</g>
<!-- Node9 -->
<g id="node9" class="node"><title>Node9</title>
<g id="a_node9"><a xlink:href="classDisplaySplitWidget.html#a07d514c8000eade67022e9f73a4214c0" target="_top" xlink:title="DisplaySplitWidget\l::zoomToPoint">
<polygon fill="white" stroke="black" points="1012,-404.5 1012,-434.5 1112,-434.5 1112,-404.5 1012,-404.5"/>
<text text-anchor="start" x="1020" y="-422.5" font-family="Helvetica,sans-Serif" font-size="10.00">DisplaySplitWidget</text>
<text text-anchor="middle" x="1062" y="-411.5" font-family="Helvetica,sans-Serif" font-size="10.00">::zoomToPoint</text>
</a>
</g>
</g>
<!-- Node8&#45;&gt;Node9 -->
<g id="edge8" class="edge"><title>Node8&#45;&gt;Node9</title>
<path fill="none" stroke="midnightblue" d="M952.377,-368.726C960.379,-371.04 968.473,-373.643 976,-376.5 996.409,-384.248 1018.37,-395.438 1034.86,-404.461"/>
<polygon fill="midnightblue" stroke="midnightblue" points="953.28,-365.344 942.709,-366.05 951.413,-372.091 953.28,-365.344"/>
</g>
<!-- Node10 -->
<g id="node10" class="node"><title>Node10</title>
<g id="a_node10"><a xlink:href="classDisplaySplitWidget.html#ad714b0427a31a3ac29bf0f0a2c1f3611" target="_top" xlink:title="DisplaySplitWidget\l::zoomIn">
<polygon fill="white" stroke="black" points="1154.5,-338.5 1154.5,-368.5 1254.5,-368.5 1254.5,-338.5 1154.5,-338.5"/>
<text text-anchor="start" x="1162.5" y="-356.5" font-family="Helvetica,sans-Serif" font-size="10.00">DisplaySplitWidget</text>
<text text-anchor="middle" x="1204.5" y="-345.5" font-family="Helvetica,sans-Serif" font-size="10.00">::zoomIn</text>
</a>
</g>
</g>
<!-- Node8&#45;&gt;Node10 -->
<g id="edge19" class="edge"><title>Node8&#45;&gt;Node10</title>
<path fill="none" stroke="midnightblue" d="M986.528,-355.645C1040.92,-355.107 1109.11,-354.433 1154.38,-353.986"/>
<polygon fill="midnightblue" stroke="midnightblue" points="986.159,-352.148 976.194,-355.747 986.228,-359.148 986.159,-352.148"/>
</g>
<!-- Node14 -->
<g id="node14" class="node"><title>Node14</title>
<g id="a_node14"><a xlink:href="classDisplaySplitWidget.html#aeea14bc10ca6579ab6f68f8150f9ac5f" target="_top" xlink:title="DisplaySplitWidget\l::zoomOut">
<polygon fill="white" stroke="black" points="1154.5,-436.5 1154.5,-466.5 1254.5,-466.5 1254.5,-436.5 1154.5,-436.5"/>
<text text-anchor="start" x="1162.5" y="-454.5" font-family="Helvetica,sans-Serif" font-size="10.00">DisplaySplitWidget</text>
<text text-anchor="middle" x="1204.5" y="-443.5" font-family="Helvetica,sans-Serif" font-size="10.00">::zoomOut</text>
</a>
</g>
</g>
<!-- Node8&#45;&gt;Node14 -->
<g id="edge20" class="edge"><title>Node8&#45;&gt;Node14</title>
<path fill="none" stroke="midnightblue" d="M966.97,-370.525C970.154,-372.288 973.189,-374.27 976,-376.5 1002.79,-397.752 983.031,-426.329 1012,-444.5 1054.42,-471.105 1113.15,-468.848 1154.35,-462.469"/>
<polygon fill="midnightblue" stroke="midnightblue" points="968.201,-367.235 957.666,-366.116 965.204,-373.561 968.201,-367.235"/>
</g>
<!-- Node15 -->
<g id="node15" class="node"><title>Node15</title>
<g id="a_node15"><a xlink:href="classDisplaySplitWidget.html#a43d312016afd6d843f1c624905f4afee" target="_top" xlink:title="DisplaySplitWidget\l::zoomToFit">
<polygon fill="white" stroke="black" points="1154.5,-387.5 1154.5,-417.5 1254.5,-417.5 1254.5,-387.5 1154.5,-387.5"/>
<text text-anchor="start" x="1162.5" y="-405.5" font-family="Helvetica,sans-Serif" font-size="10.00">DisplaySplitWidget</text>
<text text-anchor="middle" x="1204.5" y="-394.5" font-family="Helvetica,sans-Serif" font-size="10.00">::zoomToFit</text>
</a>
</g>
</g>
<!-- Node8&#45;&gt;Node15 -->
<g id="edge21" class="edge"><title>Node8&#45;&gt;Node15</title>
<path fill="none" stroke="midnightblue" d="M973.118,-367.582C1029.21,-376.084 1105.12,-387.589 1154.2,-395.027"/>
<polygon fill="midnightblue" stroke="midnightblue" points="973.297,-364.069 962.885,-366.031 972.248,-370.99 973.297,-364.069"/>
</g>
<!-- Node16 -->
<g id="node16" class="node"><title>Node16</title>
<g id="a_node16"><a xlink:href="classDisplaySplitWidget.html#a0a3afd6247d51bc2ca6fabfc30ff9548" target="_top" xlink:title="DisplaySplitWidget\l::mouseReleaseEvent">
<polygon fill="white" stroke="black" points="1148,-485.5 1148,-515.5 1261,-515.5 1261,-485.5 1148,-485.5"/>
<text text-anchor="start" x="1156" y="-503.5" font-family="Helvetica,sans-Serif" font-size="10.00">DisplaySplitWidget</text>
<text text-anchor="middle" x="1204.5" y="-492.5" font-family="Helvetica,sans-Serif" font-size="10.00">::mouseReleaseEvent</text>
</a>
</g>
</g>
<!-- Node8&#45;&gt;Node16 -->
<g id="edge26" class="edge"><title>Node8&#45;&gt;Node16</title>
<path fill="none" stroke="midnightblue" d="M968.368,-370.793C971.073,-372.491 973.635,-374.386 976,-376.5 1009.05,-406.037 977.564,-441.597 1012,-469.5 1049.81,-500.138 1105.95,-506.066 1147.68,-505.417"/>
<polygon fill="midnightblue" stroke="midnightblue" points="969.793,-367.587 959.316,-366.011 966.523,-373.777 969.793,-367.587"/>
</g>
<!-- Node17 -->
<g id="node17" class="node"><title>Node17</title>
<g id="a_node17"><a xlink:href="classDisplaySplitWidget.html#a9421eba026630943587a9ae226c7f8d6" target="_top" xlink:title="DisplaySplitWidget\l::panDisplay">
<polygon fill="white" stroke="black" points="1154.5,-289.5 1154.5,-319.5 1254.5,-319.5 1254.5,-289.5 1154.5,-289.5"/>
<text text-anchor="start" x="1162.5" y="-307.5" font-family="Helvetica,sans-Serif" font-size="10.00">DisplaySplitWidget</text>
<text text-anchor="middle" x="1204.5" y="-296.5" font-family="Helvetica,sans-Serif" font-size="10.00">::panDisplay</text>
</a>
</g>
</g>
<!-- Node8&#45;&gt;Node17 -->
<g id="edge22" class="edge"><title>Node8&#45;&gt;Node17</title>
<path fill="none" stroke="midnightblue" d="M965.603,-345.26C1022.27,-335.551 1102.9,-321.736 1154.21,-312.945"/>
<polygon fill="midnightblue" stroke="midnightblue" points="964.932,-341.824 955.667,-346.962 966.114,-348.723 964.932,-341.824"/>
</g>
<!-- Node19 -->
<g id="node19" class="node"><title>Node19</title>
<g id="a_node19"><a xlink:href="classDisplaySplitWidget.html#a337e94b12c4e1837457997cf9d074046" target="_top" xlink:title="DisplaySplitWidget\l::splitterMovedTo">
<polygon fill="white" stroke="black" points="1012,-240.5 1012,-270.5 1112,-270.5 1112,-240.5 1012,-240.5"/>
<text text-anchor="start" x="1020" y="-258.5" font-family="Helvetica,sans-Serif" font-size="10.00">DisplaySplitWidget</text>
<text text-anchor="middle" x="1062" y="-247.5" font-family="Helvetica,sans-Serif" font-size="10.00">::splitterMovedTo</text>
</a>
</g>
</g>
<!-- Node8&#45;&gt;Node19 -->
<g id="edge27" class="edge"><title>Node8&#45;&gt;Node19</title>
<path fill="none" stroke="midnightblue" d="M923.771,-341.28C946.396,-326.829 981.43,-304.546 1012,-285.5 1019.87,-280.595 1028.49,-275.294 1036.28,-270.533"/>
<polygon fill="midnightblue" stroke="midnightblue" points="921.71,-338.443 915.17,-346.778 925.48,-344.341 921.71,-338.443"/>
</g>
<!-- Node21 -->
<g id="node21" class="node"><title>Node21</title>
<g id="a_node21"><a xlink:href="classDisplaySplitWidget.html#ac88b455e49d13fb34439e45838e468d9" target="_top" xlink:title="DisplaySplitWidget\l::updateView">
<polygon fill="white" stroke="black" points="1012,-118.5 1012,-148.5 1112,-148.5 1112,-118.5 1012,-118.5"/>
<text text-anchor="start" x="1020" y="-136.5" font-family="Helvetica,sans-Serif" font-size="10.00">DisplaySplitWidget</text>
<text text-anchor="middle" x="1062" y="-125.5" font-family="Helvetica,sans-Serif" font-size="10.00">::updateView</text>
</a>
</g>
</g>
<!-- Node8&#45;&gt;Node21 -->
<g id="edge29" class="edge"><title>Node8&#45;&gt;Node21</title>
<path fill="none" stroke="midnightblue" d="M912.92,-338.605C943.786,-295.852 1021.38,-188.381 1050.09,-148.609"/>
<polygon fill="midnightblue" stroke="midnightblue" points="909.934,-336.761 906.918,-346.918 915.609,-340.859 909.934,-336.761"/>
</g>
<!-- Node9&#45;&gt;Node10 -->
<g id="edge9" class="edge"><title>Node9&#45;&gt;Node10</title>
<path fill="none" stroke="midnightblue" d="M1103,-399.941C1117.17,-393.08 1133.26,-385.373 1148,-378.5 1154.99,-375.24 1162.51,-371.806 1169.68,-368.563"/>
<polygon fill="midnightblue" stroke="midnightblue" points="1101.46,-396.796 1093.99,-404.31 1104.52,-403.093 1101.46,-396.796"/>
</g>
<!-- Node9&#45;&gt;Node14 -->
<g id="edge13" class="edge"><title>Node9&#45;&gt;Node14</title>
<path fill="none" stroke="midnightblue" d="M1122.2,-432.984C1132.84,-435.407 1143.83,-437.909 1154.15,-440.26"/>
<polygon fill="midnightblue" stroke="midnightblue" points="1122.67,-429.5 1112.14,-430.692 1121.11,-436.325 1122.67,-429.5"/>
</g>
<!-- Node9&#45;&gt;Node15 -->
<g id="edge16" class="edge"><title>Node9&#45;&gt;Node15</title>
<path fill="none" stroke="midnightblue" d="M1122.2,-412.337C1132.84,-411.05 1143.83,-409.72 1154.15,-408.471"/>
<polygon fill="midnightblue" stroke="midnightblue" points="1121.65,-408.878 1112.14,-413.554 1122.49,-415.828 1121.65,-408.878"/>
</g>
<!-- Node9&#45;&gt;Node16 -->
<g id="edge17" class="edge"><title>Node9&#45;&gt;Node16</title>
<path fill="none" stroke="midnightblue" d="M1091.73,-440.68C1107.82,-452.052 1128.52,-465.874 1148,-476.5 1153.71,-479.617 1159.92,-482.632 1166.03,-485.412"/>
<polygon fill="midnightblue" stroke="midnightblue" points="1093.46,-437.62 1083.29,-434.65 1089.39,-443.314 1093.46,-437.62"/>
</g>
<!-- Node11 -->
<g id="node11" class="node"><title>Node11</title>
<g id="a_node11"><a xlink:href="classDisplaySplitWidget.html#a95fb887b76609440c606ddccadee2318" target="_top" xlink:title="DisplaySplitWidget\l::gestureEvent">
<polygon fill="white" stroke="black" points="1312.5,-377.5 1312.5,-407.5 1412.5,-407.5 1412.5,-377.5 1312.5,-377.5"/>
<text text-anchor="start" x="1320.5" y="-395.5" font-family="Helvetica,sans-Serif" font-size="10.00">DisplaySplitWidget</text>
<text text-anchor="middle" x="1362.5" y="-384.5" font-family="Helvetica,sans-Serif" font-size="10.00">::gestureEvent</text>
</a>
</g>
</g>
<!-- Node10&#45;&gt;Node11 -->
<g id="edge10" class="edge"><title>Node10&#45;&gt;Node11</title>
<path fill="none" stroke="midnightblue" d="M1264.98,-368.37C1280.66,-372.29 1297.4,-376.475 1312.46,-380.24"/>
<polygon fill="midnightblue" stroke="midnightblue" points="1265.41,-364.87 1254.86,-365.84 1263.71,-371.661 1265.41,-364.87"/>
</g>
<!-- Node13 -->
<g id="node13" class="node"><title>Node13</title>
<g id="a_node13"><a xlink:href="classDisplaySplitWidget.html#a3560f335caf77049205e63785c8073ba" target="_top" xlink:title="DisplaySplitWidget\l::wheelEvent">
<polygon fill="white" stroke="black" points="1312.5,-431.5 1312.5,-461.5 1412.5,-461.5 1412.5,-431.5 1312.5,-431.5"/>
<text text-anchor="start" x="1320.5" y="-449.5" font-family="Helvetica,sans-Serif" font-size="10.00">DisplaySplitWidget</text>
<text text-anchor="middle" x="1362.5" y="-438.5" font-family="Helvetica,sans-Serif" font-size="10.00">::wheelEvent</text>
</a>
</g>
</g>
<!-- Node10&#45;&gt;Node13 -->
<g id="edge12" class="edge"><title>Node10&#45;&gt;Node13</title>
<path fill="none" stroke="midnightblue" d="M1253.14,-373.374C1255.87,-374.995 1258.51,-376.705 1261,-378.5 1280.14,-392.289 1277.86,-403.718 1297,-417.5 1304.37,-422.808 1312.87,-427.471 1321.23,-431.417"/>
<polygon fill="midnightblue" stroke="midnightblue" points="1254.69,-370.231 1244.24,-368.506 1251.33,-376.374 1254.69,-370.231"/>
</g>
<!-- Node12 -->
<g id="node12" class="node"><title>Node12</title>
<g id="a_node12"><a xlink:href="classDisplaySplitWidget.html#a152c9ea9cbd3aa079800b6c1d0fbb284" target="_top" xlink:title="DisplaySplitWidget\l::event">
<polygon fill="white" stroke="black" points="1464,-355.5 1464,-385.5 1564,-385.5 1564,-355.5 1464,-355.5"/>
<text text-anchor="start" x="1472" y="-373.5" font-family="Helvetica,sans-Serif" font-size="10.00">DisplaySplitWidget</text>
<text text-anchor="middle" x="1514" y="-362.5" font-family="Helvetica,sans-Serif" font-size="10.00">::event</text>
</a>
</g>
</g>
<!-- Node11&#45;&gt;Node12 -->
<g id="edge11" class="edge"><title>Node11&#45;&gt;Node12</title>
<path fill="none" stroke="midnightblue" d="M1423.07,-383.734C1436.62,-381.739 1450.88,-379.642 1463.94,-377.719"/>
<polygon fill="midnightblue" stroke="midnightblue" points="1422.25,-380.317 1412.87,-385.235 1423.27,-387.242 1422.25,-380.317"/>
</g>
<!-- Node14&#45;&gt;Node11 -->
<g id="edge14" class="edge"><title>Node14&#45;&gt;Node11</title>
<path fill="none" stroke="midnightblue" d="M1254.63,-432.921C1276.27,-424.734 1301.37,-415.242 1321.8,-407.513"/>
<polygon fill="midnightblue" stroke="midnightblue" points="1253.38,-429.648 1245.27,-436.459 1255.86,-436.195 1253.38,-429.648"/>
</g>
<!-- Node14&#45;&gt;Node13 -->
<g id="edge15" class="edge"><title>Node14&#45;&gt;Node13</title>
<path fill="none" stroke="midnightblue" d="M1264.98,-449.594C1280.66,-449.091 1297.4,-448.554 1312.46,-448.072"/>
<polygon fill="midnightblue" stroke="midnightblue" points="1264.74,-446.099 1254.86,-449.918 1264.97,-453.096 1264.74,-446.099"/>
</g>
<!-- Node16&#45;&gt;Node12 -->
<g id="edge18" class="edge"><title>Node16&#45;&gt;Node12</title>
<path fill="none" stroke="midnightblue" d="M1271.3,-504.153C1317.75,-503.92 1380.02,-497.738 1428,-471.5 1464.8,-451.378 1492.42,-408.413 1505.18,-385.546"/>
<polygon fill="midnightblue" stroke="midnightblue" points="1271.06,-500.652 1261.04,-504.109 1271.03,-507.652 1271.06,-500.652"/>
</g>
<!-- Node17&#45;&gt;Node12 -->
<g id="edge23" class="edge"><title>Node17&#45;&gt;Node12</title>
<path fill="none" stroke="midnightblue" d="M1264.47,-321.347C1275.25,-324.219 1286.44,-327.058 1297,-329.5 1353.9,-342.652 1419.94,-354.728 1463.87,-362.316"/>
<polygon fill="midnightblue" stroke="midnightblue" points="1265.27,-317.939 1254.71,-318.712 1263.45,-324.697 1265.27,-317.939"/>
</g>
<!-- Node18 -->
<g id="node18" class="node"><title>Node18</title>
<g id="a_node18"><a xlink:href="classDisplaySplitWidget.html#a66c16edce3aae0df82f888348cd7590d" target="_top" xlink:title="DisplaySplitWidget\l::mouseMoveEvent">
<polygon fill="white" stroke="black" points="1312,-289.5 1312,-319.5 1413,-319.5 1413,-289.5 1312,-289.5"/>
<text text-anchor="start" x="1320" y="-307.5" font-family="Helvetica,sans-Serif" font-size="10.00">DisplaySplitWidget</text>
<text text-anchor="middle" x="1362.5" y="-296.5" font-family="Helvetica,sans-Serif" font-size="10.00">::mouseMoveEvent</text>
</a>
</g>
</g>
<!-- Node17&#45;&gt;Node18 -->
<g id="edge24" class="edge"><title>Node17&#45;&gt;Node18</title>
<path fill="none" stroke="midnightblue" d="M1264.88,-304.5C1280.41,-304.5 1296.97,-304.5 1311.93,-304.5"/>
<polygon fill="midnightblue" stroke="midnightblue" points="1264.86,-301 1254.86,-304.5 1264.86,-308 1264.86,-301"/>
</g>
<!-- Node18&#45;&gt;Node12 -->
<g id="edge25" class="edge"><title>Node18&#45;&gt;Node12</title>
<path fill="none" stroke="midnightblue" d="M1406.96,-323.686C1429.85,-333.793 1457.53,-346.01 1478.86,-355.429"/>
<polygon fill="midnightblue" stroke="midnightblue" points="1408.36,-320.479 1397.8,-319.642 1405.53,-326.882 1408.36,-320.479"/>
</g>
<!-- Node20 -->
<g id="node20" class="node"><title>Node20</title>
<g id="a_node20"><a xlink:href="classDisplaySplitWidget.html#ae32ceae7f4472266eabd00877651441b" target="_top" xlink:title="DisplaySplitWidget\l::DisplaySplitWidget">
<polygon fill="white" stroke="black" points="1151.5,-240.5 1151.5,-270.5 1257.5,-270.5 1257.5,-240.5 1151.5,-240.5"/>
<text text-anchor="start" x="1159.5" y="-258.5" font-family="Helvetica,sans-Serif" font-size="10.00">DisplaySplitWidget</text>
<text text-anchor="middle" x="1204.5" y="-247.5" font-family="Helvetica,sans-Serif" font-size="10.00">::DisplaySplitWidget</text>
</a>
</g>
</g>
<!-- Node19&#45;&gt;Node20 -->
<g id="edge28" class="edge"><title>Node19&#45;&gt;Node20</title>
<path fill="none" stroke="midnightblue" d="M1122.41,-255.5C1132,-255.5 1141.87,-255.5 1151.28,-255.5"/>
<polygon fill="midnightblue" stroke="midnightblue" points="1122.14,-252 1112.14,-255.5 1122.14,-259 1122.14,-252"/>
</g>
<!-- Node22 -->
<g id="node22" class="node"><title>Node22</title>
<g id="a_node22"><a xlink:href="classDisplaySplitWidget.html#af09b165924f8be5a31873f3b11c8b3f9" target="_top" xlink:title="DisplaySplitWidget\l::resetViews">
<polygon fill="white" stroke="black" points="1154.5,-44.5 1154.5,-74.5 1254.5,-74.5 1254.5,-44.5 1154.5,-44.5"/>
<text text-anchor="start" x="1162.5" y="-62.5" font-family="Helvetica,sans-Serif" font-size="10.00">DisplaySplitWidget</text>
<text text-anchor="middle" x="1204.5" y="-51.5" font-family="Helvetica,sans-Serif" font-size="10.00">::resetViews</text>
</a>
</g>
</g>
<!-- Node21&#45;&gt;Node22 -->
<g id="edge30" class="edge"><title>Node21&#45;&gt;Node22</title>
<path fill="none" stroke="midnightblue" d="M1095.49,-113.111C1111.12,-103.64 1130.26,-92.5084 1148,-83.5 1153.99,-80.4576 1160.45,-77.4365 1166.78,-74.616"/>
<polygon fill="midnightblue" stroke="midnightblue" points="1093.44,-110.263 1086.74,-118.468 1097.1,-116.234 1093.44,-110.263"/>
</g>
<!-- Node24 -->
<g id="node24" class="node"><title>Node24</title>
<g id="a_node24"><a xlink:href="classDisplaySplitWidget.html#a0c0ae7b4fb7ddc344fec1a59034b771b" target="_top" xlink:title="DisplaySplitWidget\l::zoomToStandard">
<polygon fill="white" stroke="black" points="1312.5,-0.5 1312.5,-30.5 1412.5,-30.5 1412.5,-0.5 1312.5,-0.5"/>
<text text-anchor="start" x="1320.5" y="-18.5" font-family="Helvetica,sans-Serif" font-size="10.00">DisplaySplitWidget</text>
<text text-anchor="middle" x="1362.5" y="-7.5" font-family="Helvetica,sans-Serif" font-size="10.00">::zoomToStandard</text>
</a>
</g>
</g>
<!-- Node21&#45;&gt;Node24 -->
<g id="edge33" class="edge"><title>Node21&#45;&gt;Node24</title>
<path fill="none" stroke="midnightblue" d="M1076.12,-109.466C1090.41,-85.8957 1115.63,-51.1476 1148,-34.5 1199.46,-8.03342 1267.18,-6.70933 1312.41,-9.74868"/>
<polygon fill="midnightblue" stroke="midnightblue" points="1073.04,-107.794 1071.01,-118.193 1079.08,-111.329 1073.04,-107.794"/>
</g>
<!-- Node25 -->
<g id="node25" class="node"><title>Node25</title>
<g id="a_node25"><a xlink:href="classDisplaySplitWidget.html#a85aefaa2dbd64ebf686448a2c006f96d" target="_top" xlink:title="DisplaySplitWidget\l::setSplitEnabled">
<polygon fill="white" stroke="black" points="1154.5,-191.5 1154.5,-221.5 1254.5,-221.5 1254.5,-191.5 1154.5,-191.5"/>
<text text-anchor="start" x="1162.5" y="-209.5" font-family="Helvetica,sans-Serif" font-size="10.00">DisplaySplitWidget</text>
<text text-anchor="middle" x="1204.5" y="-198.5" font-family="Helvetica,sans-Serif" font-size="10.00">::setSplitEnabled</text>
</a>
</g>
</g>
<!-- Node21&#45;&gt;Node25 -->
<g id="edge34" class="edge"><title>Node21&#45;&gt;Node25</title>
<path fill="none" stroke="midnightblue" d="M1097,-153.637C1112.4,-162.511 1130.94,-172.861 1148,-181.5 1154.6,-184.841 1161.74,-188.225 1168.63,-191.377"/>
<polygon fill="midnightblue" stroke="midnightblue" points="1098.74,-150.6 1088.34,-148.607 1095.23,-156.654 1098.74,-150.6"/>
</g>
<!-- Node26 -->
<g id="node26" class="node"><title>Node26</title>
<g id="a_node26"><a xlink:href="classDisplaySplitWidget.html#a2c0dcc84e9609d30e1eadd8340493e0b" target="_top" xlink:title="DisplaySplitWidget\l::resizeEvent">
<polygon fill="white" stroke="black" points="1154.5,-142.5 1154.5,-172.5 1254.5,-172.5 1254.5,-142.5 1154.5,-142.5"/>
<text text-anchor="start" x="1162.5" y="-160.5" font-family="Helvetica,sans-Serif" font-size="10.00">DisplaySplitWidget</text>
<text text-anchor="middle" x="1204.5" y="-149.5" font-family="Helvetica,sans-Serif" font-size="10.00">::resizeEvent</text>
</a>
</g>
</g>
<!-- Node21&#45;&gt;Node26 -->
<g id="edge35" class="edge"><title>Node21&#45;&gt;Node26</title>
<path fill="none" stroke="midnightblue" d="M1122.2,-143.613C1132.84,-145.43 1143.83,-147.307 1154.15,-149.07"/>
<polygon fill="midnightblue" stroke="midnightblue" points="1122.59,-140.128 1112.14,-141.894 1121.41,-147.028 1122.59,-140.128"/>
</g>
<!-- Node27 -->
<g id="node27" class="node"><title>Node27</title>
<g id="a_node27"><a xlink:href="classDisplaySplitWidget.html#abe7686903d7727bd0f882dc68459f22d" target="_top" xlink:title="DisplaySplitWidget\l::setViewMode">
<polygon fill="white" stroke="black" points="1154.5,-93.5 1154.5,-123.5 1254.5,-123.5 1254.5,-93.5 1154.5,-93.5"/>
<text text-anchor="start" x="1162.5" y="-111.5" font-family="Helvetica,sans-Serif" font-size="10.00">DisplaySplitWidget</text>
<text text-anchor="middle" x="1204.5" y="-100.5" font-family="Helvetica,sans-Serif" font-size="10.00">::setViewMode</text>
</a>
</g>
</g>
<!-- Node21&#45;&gt;Node27 -->
<g id="edge36" class="edge"><title>Node21&#45;&gt;Node27</title>
<path fill="none" stroke="midnightblue" d="M1122.2,-122.966C1132.84,-121.073 1143.83,-119.118 1154.15,-117.281"/>
<polygon fill="midnightblue" stroke="midnightblue" points="1121.37,-119.558 1112.14,-124.756 1122.6,-126.45 1121.37,-119.558"/>
</g>
<!-- Node23 -->
<g id="node23" class="node"><title>Node23</title>
<g id="a_node23"><a xlink:href="classDisplaySplitWidget.html#a6ac792979681575417245e357cdadb69" target="_top" xlink:title="DisplaySplitWidget\l::setActiveDisplayObjects">
<polygon fill="white" stroke="black" points="1297,-49.5 1297,-79.5 1428,-79.5 1428,-49.5 1297,-49.5"/>
<text text-anchor="start" x="1305" y="-67.5" font-family="Helvetica,sans-Serif" font-size="10.00">DisplaySplitWidget</text>
<text text-anchor="middle" x="1362.5" y="-56.5" font-family="Helvetica,sans-Serif" font-size="10.00">::setActiveDisplayObjects</text>
</a>
</g>
</g>
<!-- Node22&#45;&gt;Node23 -->
<g id="edge31" class="edge"><title>Node22&#45;&gt;Node23</title>
<path fill="none" stroke="midnightblue" d="M1265.05,-61.4086C1275.42,-61.741 1286.25,-62.0882 1296.75,-62.4248"/>
<polygon fill="midnightblue" stroke="midnightblue" points="1264.97,-57.9043 1254.86,-61.082 1264.74,-64.9007 1264.97,-57.9043"/>
</g>
<!-- Node22&#45;&gt;Node24 -->
<g id="edge32" class="edge"><title>Node22&#45;&gt;Node24</title>
<path fill="none" stroke="midnightblue" d="M1264.53,-42.8493C1280.34,-38.3905 1297.26,-33.6196 1312.46,-29.3313"/>
<polygon fill="midnightblue" stroke="midnightblue" points="1263.53,-39.4949 1254.86,-45.5781 1265.43,-46.232 1263.53,-39.4949"/>
</g>
</g>
</svg>
