<?xml version="1.0" encoding="UTF-8" standalone="no"?>
<!DOCTYPE svg PUBLIC "-//W3C//DTD SVG 1.1//EN"
 "http://www.w3.org/Graphics/SVG/1.1/DTD/svg11.dtd">
<!-- Generated by graphviz version 2.38.0 (20140413.2041)
 -->
<!-- Title: /home/ient/YUViewOrig/YUView/source/statslistmodel.cpp Pages: 1 -->
<svg width="770pt" height="375pt"
 viewBox="0.00 0.00 770.00 375.00" xmlns="http://www.w3.org/2000/svg" xmlns:xlink="http://www.w3.org/1999/xlink">
<g id="graph0" class="graph" transform="scale(1 1) rotate(0) translate(4 371)">
<title>/home/ient/YUViewOrig/YUView/source/statslistmodel.cpp</title>
<polygon fill="white" stroke="none" points="-4,4 -4,-371 766,-371 766,4 -4,4"/>
<!-- Node1 -->
<g id="node1" class="node"><title>Node1</title>
<polygon fill="#bfbfbf" stroke="black" points="117.5,-336.5 117.5,-366.5 287.5,-366.5 287.5,-336.5 117.5,-336.5"/>
<text text-anchor="start" x="125.5" y="-354.5" font-family="Helvetica,sans-Serif" font-size="10.00">/home/ient/YUViewOrig</text>
<text text-anchor="middle" x="202.5" y="-343.5" font-family="Helvetica,sans-Serif" font-size="10.00">/YUView/source/statslistmodel.cpp</text>
</g>
<!-- Node2 -->
<g id="node2" class="node"><title>Node2</title>
<g id="a_node2"><a xlink:href="statslistmodel_8h.html" target="_top" xlink:title="statslistmodel.h">
<polygon fill="white" stroke="black" points="159.5,-280.5 159.5,-299.5 245.5,-299.5 245.5,-280.5 159.5,-280.5"/>
<text text-anchor="middle" x="202.5" y="-287.5" font-family="Helvetica,sans-Serif" font-size="10.00">statslistmodel.h</text>
</a>
</g>
</g>
<!-- Node1&#45;&gt;Node2 -->
<g id="edge1" class="edge"><title>Node1&#45;&gt;Node2</title>
<path fill="none" stroke="midnightblue" d="M202.5,-336.399C202.5,-328.466 202.5,-318.458 202.5,-309.858"/>
<polygon fill="midnightblue" stroke="midnightblue" points="206,-309.658 202.5,-299.658 199,-309.658 206,-309.658"/>
</g>
<!-- Node3 -->
<g id="node3" class="node"><title>Node3</title>
<polygon fill="white" stroke="#bfbfbf" points="0,-224.5 0,-243.5 103,-243.5 103,-224.5 0,-224.5"/>
<text text-anchor="middle" x="51.5" y="-231.5" font-family="Helvetica,sans-Serif" font-size="10.00">QAbstractListModel</text>
</g>
<!-- Node2&#45;&gt;Node3 -->
<g id="edge2" class="edge"><title>Node2&#45;&gt;Node3</title>
<path fill="none" stroke="midnightblue" d="M178.574,-280.444C153.281,-271.399 113.198,-257.064 84.8202,-246.916"/>
<polygon fill="midnightblue" stroke="midnightblue" points="85.9091,-243.588 75.3145,-243.516 83.5519,-250.179 85.9091,-243.588"/>
</g>
<!-- Node4 -->
<g id="node4" class="node"><title>Node4</title>
<polygon fill="white" stroke="#bfbfbf" points="121,-224.5 121,-243.5 174,-243.5 174,-224.5 121,-224.5"/>
<text text-anchor="middle" x="147.5" y="-231.5" font-family="Helvetica,sans-Serif" font-size="10.00">QVector</text>
</g>
<!-- Node2&#45;&gt;Node4 -->
<g id="edge3" class="edge"><title>Node2&#45;&gt;Node4</title>
<path fill="none" stroke="midnightblue" d="M193.418,-280.083C185.329,-272.141 173.305,-260.335 163.59,-250.797"/>
<polygon fill="midnightblue" stroke="midnightblue" points="166.001,-248.26 156.413,-243.751 161.097,-253.254 166.001,-248.26"/>
</g>
<!-- Node5 -->
<g id="node5" class="node"><title>Node5</title>
<polygon fill="white" stroke="#bfbfbf" points="170,-0.5 170,-19.5 235,-19.5 235,-0.5 170,-0.5"/>
<text text-anchor="middle" x="202.5" y="-7.5" font-family="Helvetica,sans-Serif" font-size="10.00">QStringList</text>
</g>
<!-- Node2&#45;&gt;Node5 -->
<g id="edge4" class="edge"><title>Node2&#45;&gt;Node5</title>
<path fill="none" stroke="midnightblue" d="M202.5,-280.442C202.5,-261.936 202.5,-216.812 202.5,-179 202.5,-179 202.5,-179 202.5,-121 202.5,-88.948 202.5,-51.6426 202.5,-29.7489"/>
<polygon fill="midnightblue" stroke="midnightblue" points="206,-29.5577 202.5,-19.5578 199,-29.5578 206,-29.5577"/>
</g>
<!-- Node6 -->
<g id="node6" class="node"><title>Node6</title>
<polygon fill="white" stroke="#bfbfbf" points="353,-224.5 353,-243.5 422,-243.5 422,-224.5 353,-224.5"/>
<text text-anchor="middle" x="387.5" y="-231.5" font-family="Helvetica,sans-Serif" font-size="10.00">QMimeData</text>
</g>
<!-- Node2&#45;&gt;Node6 -->
<g id="edge5" class="edge"><title>Node2&#45;&gt;Node6</title>
<path fill="none" stroke="midnightblue" d="M231.814,-280.444C263.342,-271.241 313.631,-256.562 348.486,-246.388"/>
<polygon fill="midnightblue" stroke="midnightblue" points="349.705,-249.678 358.323,-243.516 347.743,-242.959 349.705,-249.678"/>
</g>
<!-- Node7 -->
<g id="node7" class="node"><title>Node7</title>
<g id="a_node7"><a xlink:href="statisticsobject_8h.html" target="_top" xlink:title="statisticsobject.h">
<polygon fill="white" stroke="black" points="244,-224.5 244,-243.5 335,-243.5 335,-224.5 244,-224.5"/>
<text text-anchor="middle" x="289.5" y="-231.5" font-family="Helvetica,sans-Serif" font-size="10.00">statisticsobject.h</text>
</a>
</g>
</g>
<!-- Node2&#45;&gt;Node7 -->
<g id="edge6" class="edge"><title>Node2&#45;&gt;Node7</title>
<path fill="none" stroke="midnightblue" d="M216.478,-280.324C230.05,-271.9 250.88,-258.971 266.825,-249.074"/>
<polygon fill="midnightblue" stroke="midnightblue" points="268.906,-251.902 275.557,-243.655 265.214,-245.954 268.906,-251.902"/>
</g>
<!-- Node8 -->
<g id="node8" class="node"><title>Node8</title>
<g id="a_node8"><a xlink:href="displayobject_8h.html" target="_top" xlink:title="displayobject.h">
<polygon fill="white" stroke="black" points="466.5,-112.5 466.5,-131.5 548.5,-131.5 548.5,-112.5 466.5,-112.5"/>
<text text-anchor="middle" x="507.5" y="-119.5" font-family="Helvetica,sans-Serif" font-size="10.00">displayobject.h</text>
</a>
</g>
</g>
<!-- Node7&#45;&gt;Node8 -->
<g id="edge7" class="edge"><title>Node7&#45;&gt;Node8</title>
<path fill="none" stroke="midnightblue" d="M306.606,-224.368C344.572,-205.211 436.084,-159.036 481.306,-136.217"/>
<polygon fill="midnightblue" stroke="midnightblue" points="483.122,-139.221 490.473,-131.591 479.969,-132.972 483.122,-139.221"/>
</g>
<!-- Node16 -->
<g id="node16" class="node"><title>Node16</title>
<g id="a_node16"><a xlink:href="statisticSourceFile_8h.html" target="_top" xlink:title="statisticSourceFile.h">
<polygon fill="white" stroke="black" points="248.5,-168.5 248.5,-187.5 354.5,-187.5 354.5,-168.5 248.5,-168.5"/>
<text text-anchor="middle" x="301.5" y="-175.5" font-family="Helvetica,sans-Serif" font-size="10.00">statisticSourceFile.h</text>
</a>
</g>
</g>
<!-- Node7&#45;&gt;Node16 -->
<g id="edge15" class="edge"><title>Node7&#45;&gt;Node16</title>
<path fill="none" stroke="midnightblue" d="M291.482,-224.083C293.072,-216.927 295.359,-206.635 297.346,-197.691"/>
<polygon fill="midnightblue" stroke="midnightblue" points="300.803,-198.272 299.555,-187.751 293.969,-196.754 300.803,-198.272"/>
</g>
<!-- Node9 -->
<g id="node9" class="node"><title>Node9</title>
<polygon fill="white" stroke="#bfbfbf" points="403,-56.5 403,-75.5 456,-75.5 456,-56.5 403,-56.5"/>
<text text-anchor="middle" x="429.5" y="-63.5" font-family="Helvetica,sans-Serif" font-size="10.00">QObject</text>
</g>
<!-- Node8&#45;&gt;Node9 -->
<g id="edge8" class="edge"><title>Node8&#45;&gt;Node9</title>
<path fill="none" stroke="midnightblue" d="M494.968,-112.324C482.914,-103.979 464.473,-91.2122 450.231,-81.3524"/>
<polygon fill="midnightblue" stroke="midnightblue" points="452.215,-78.469 442.001,-75.6545 448.231,-84.2243 452.215,-78.469"/>
</g>
<!-- Node10 -->
<g id="node10" class="node"><title>Node10</title>
<polygon fill="white" stroke="#bfbfbf" points="474,-56.5 474,-75.5 531,-75.5 531,-56.5 474,-56.5"/>
<text text-anchor="middle" x="502.5" y="-63.5" font-family="Helvetica,sans-Serif" font-size="10.00">QPixmap</text>
</g>
<!-- Node8&#45;&gt;Node10 -->
<g id="edge9" class="edge"><title>Node8&#45;&gt;Node10</title>
<path fill="none" stroke="midnightblue" d="M506.674,-112.083C506.019,-105.006 505.08,-94.8611 504.258,-85.9865"/>
<polygon fill="midnightblue" stroke="midnightblue" points="507.717,-85.3858 503.31,-75.7511 500.747,-86.0312 507.717,-85.3858"/>
</g>
<!-- Node11 -->
<g id="node11" class="node"><title>Node11</title>
<g id="a_node11"><a xlink:href="typedef_8h.html" target="_top" xlink:title="typedef.h">
<polygon fill="white" stroke="black" points="377,-0.5 377,-19.5 434,-19.5 434,-0.5 377,-0.5"/>
<text text-anchor="middle" x="405.5" y="-7.5" font-family="Helvetica,sans-Serif" font-size="10.00">typedef.h</text>
</a>
</g>
</g>
<!-- Node8&#45;&gt;Node11 -->
<g id="edge10" class="edge"><title>Node8&#45;&gt;Node11</title>
<path fill="none" stroke="midnightblue" d="M518.02,-112.101C532.094,-99.1077 553.82,-74.4804 540.5,-56 518.761,-25.8392 475.93,-15.5878 444.316,-12.2611"/>
<polygon fill="midnightblue" stroke="midnightblue" points="444.335,-8.74983 434.072,-11.3795 443.735,-15.7241 444.335,-8.74983"/>
</g>
<!-- Node12 -->
<g id="node12" class="node"><title>Node12</title>
<g id="a_node12"><a xlink:href="FileInfoGroupBox_8h.html" target="_top" xlink:title="FileInfoGroupBox.h">
<polygon fill="white" stroke="black" points="588,-56.5 588,-75.5 689,-75.5 689,-56.5 588,-56.5"/>
<text text-anchor="middle" x="638.5" y="-63.5" font-family="Helvetica,sans-Serif" font-size="10.00">FileInfoGroupBox.h</text>
</a>
</g>
</g>
<!-- Node8&#45;&gt;Node12 -->
<g id="edge11" class="edge"><title>Node8&#45;&gt;Node12</title>
<path fill="none" stroke="midnightblue" d="M528.257,-112.444C549.816,-103.557 583.763,-89.5632 608.294,-79.4514"/>
<polygon fill="midnightblue" stroke="midnightblue" points="609.928,-82.5634 617.84,-75.5164 607.261,-76.0917 609.928,-82.5634"/>
</g>
<!-- Node13 -->
<g id="node13" class="node"><title>Node13</title>
<polygon fill="white" stroke="#bfbfbf" points="604.5,-0.5 604.5,-19.5 672.5,-19.5 672.5,-0.5 604.5,-0.5"/>
<text text-anchor="middle" x="638.5" y="-7.5" font-family="Helvetica,sans-Serif" font-size="10.00">QGroupBox</text>
</g>
<!-- Node12&#45;&gt;Node13 -->
<g id="edge12" class="edge"><title>Node12&#45;&gt;Node13</title>
<path fill="none" stroke="midnightblue" d="M638.5,-56.083C638.5,-49.0059 638.5,-38.8611 638.5,-29.9865"/>
<polygon fill="midnightblue" stroke="midnightblue" points="642,-29.751 638.5,-19.7511 635,-29.7511 642,-29.751"/>
</g>
<!-- Node14 -->
<g id="node14" class="node"><title>Node14</title>
<polygon fill="white" stroke="#bfbfbf" points="691,-0.5 691,-19.5 762,-19.5 762,-0.5 691,-0.5"/>
<text text-anchor="middle" x="726.5" y="-7.5" font-family="Helvetica,sans-Serif" font-size="10.00">QGridLayout</text>
</g>
<!-- Node12&#45;&gt;Node14 -->
<g id="edge13" class="edge"><title>Node12&#45;&gt;Node14</title>
<path fill="none" stroke="midnightblue" d="M652.639,-56.324C666.366,-47.9002 687.436,-34.9709 703.564,-25.0741"/>
<polygon fill="midnightblue" stroke="midnightblue" points="705.704,-27.8678 712.396,-19.6545 702.043,-21.9016 705.704,-27.8678"/>
</g>
<!-- Node15 -->
<g id="node15" class="node"><title>Node15</title>
<polygon fill="white" stroke="#bfbfbf" points="539,-0.5 539,-19.5 586,-19.5 586,-0.5 539,-0.5"/>
<text text-anchor="middle" x="562.5" y="-7.5" font-family="Helvetica,sans-Serif" font-size="10.00">QLabel</text>
</g>
<!-- Node12&#45;&gt;Node15 -->
<g id="edge14" class="edge"><title>Node12&#45;&gt;Node15</title>
<path fill="none" stroke="midnightblue" d="M626.289,-56.324C614.724,-48.1066 597.125,-35.6017 583.339,-25.8069"/>
<polygon fill="midnightblue" stroke="midnightblue" points="585.112,-22.7729 574.933,-19.8339 581.057,-28.4791 585.112,-22.7729"/>
</g>
<!-- Node17 -->
<g id="node17" class="node"><title>Node17</title>
<g id="a_node17"><a xlink:href="statisticSource_8h.html" target="_top" xlink:title="statisticSource.h">
<polygon fill="white" stroke="black" points="358.5,-112.5 358.5,-131.5 448.5,-131.5 448.5,-112.5 358.5,-112.5"/>
<text text-anchor="middle" x="403.5" y="-119.5" font-family="Helvetica,sans-Serif" font-size="10.00">statisticSource.h</text>
</a>
</g>
</g>
<!-- Node16&#45;&gt;Node17 -->
<g id="edge16" class="edge"><title>Node16&#45;&gt;Node17</title>
<path fill="none" stroke="midnightblue" d="M317.888,-168.324C334.171,-159.703 359.367,-146.364 378.216,-136.386"/>
<polygon fill="midnightblue" stroke="midnightblue" points="379.952,-139.427 387.153,-131.655 376.677,-133.24 379.952,-139.427"/>
</g>
<!-- Node21 -->
<g id="node21" class="node"><title>Node21</title>
<polygon fill="white" stroke="#bfbfbf" points="230.5,-112.5 230.5,-131.5 282.5,-131.5 282.5,-112.5 230.5,-112.5"/>
<text text-anchor="middle" x="256.5" y="-119.5" font-family="Helvetica,sans-Serif" font-size="10.00">QFuture</text>
</g>
<!-- Node16&#45;&gt;Node21 -->
<g id="edge25" class="edge"><title>Node16&#45;&gt;Node21</title>
<path fill="none" stroke="midnightblue" d="M294.069,-168.083C287.647,-160.377 278.194,-149.033 270.378,-139.653"/>
<polygon fill="midnightblue" stroke="midnightblue" points="272.883,-137.193 263.793,-131.751 267.506,-141.674 272.883,-137.193"/>
</g>
<!-- Node22 -->
<g id="node22" class="node"><title>Node22</title>
<polygon fill="white" stroke="#bfbfbf" points="300.5,-112.5 300.5,-131.5 340.5,-131.5 340.5,-112.5 300.5,-112.5"/>
<text text-anchor="middle" x="320.5" y="-119.5" font-family="Helvetica,sans-Serif" font-size="10.00">QFile</text>
</g>
<!-- Node16&#45;&gt;Node22 -->
<g id="edge26" class="edge"><title>Node16&#45;&gt;Node22</title>
<path fill="none" stroke="midnightblue" d="M304.637,-168.083C307.183,-160.849 310.856,-150.409 314.027,-141.397"/>
<polygon fill="midnightblue" stroke="midnightblue" points="317.403,-142.346 317.421,-131.751 310.8,-140.023 317.403,-142.346"/>
</g>
<!-- Node17&#45;&gt;Node9 -->
<g id="edge17" class="edge"><title>Node17&#45;&gt;Node9</title>
<path fill="none" stroke="midnightblue" d="M407.793,-112.083C411.352,-104.691 416.522,-93.9533 420.924,-84.8111"/>
<polygon fill="midnightblue" stroke="midnightblue" points="424.102,-86.2795 425.287,-75.7511 417.795,-83.2427 424.102,-86.2795"/>
</g>
<!-- Node17&#45;&gt;Node10 -->
<g id="edge18" class="edge"><title>Node17&#45;&gt;Node10</title>
<path fill="none" stroke="midnightblue" d="M419.406,-112.324C435.138,-103.743 459.442,-90.486 477.709,-80.5224"/>
<polygon fill="midnightblue" stroke="midnightblue" points="479.53,-83.5157 486.633,-75.6545 476.178,-77.3704 479.53,-83.5157"/>
</g>
<!-- Node17&#45;&gt;Node11 -->
<g id="edge19" class="edge"><title>Node17&#45;&gt;Node11</title>
<path fill="none" stroke="midnightblue" d="M400.827,-112.181C397.373,-99.6934 392.075,-76.1329 394.5,-56 395.571,-47.1069 397.792,-37.4344 399.96,-29.344"/>
<polygon fill="midnightblue" stroke="midnightblue" points="403.387,-30.0908 402.77,-19.5139 396.656,-28.1668 403.387,-30.0908"/>
</g>
<!-- Node18 -->
<g id="node18" class="node"><title>Node18</title>
<g id="a_node18"><a xlink:href="statisticsextensions_8h.html" target="_top" xlink:title="statisticsextensions.h">
<polygon fill="white" stroke="black" points="234.5,-56.5 234.5,-75.5 346.5,-75.5 346.5,-56.5 234.5,-56.5"/>
<text text-anchor="middle" x="290.5" y="-63.5" font-family="Helvetica,sans-Serif" font-size="10.00">statisticsextensions.h</text>
</a>
</g>
</g>
<!-- Node17&#45;&gt;Node18 -->
<g id="edge20" class="edge"><title>Node17&#45;&gt;Node18</title>
<path fill="none" stroke="midnightblue" d="M385.595,-112.444C367.246,-103.675 338.495,-89.9355 317.406,-79.8579"/>
<polygon fill="midnightblue" stroke="midnightblue" points="318.853,-76.6703 308.321,-75.5164 315.835,-82.9862 318.853,-76.6703"/>
</g>
<!-- Node18&#45;&gt;Node5 -->
<g id="edge21" class="edge"><title>Node18&#45;&gt;Node5</title>
<path fill="none" stroke="midnightblue" d="M276.361,-56.324C262.634,-47.9002 241.564,-34.9709 225.436,-25.0741"/>
<polygon fill="midnightblue" stroke="midnightblue" points="226.957,-21.9016 216.604,-19.6545 223.296,-27.8678 226.957,-21.9016"/>
</g>
<!-- Node18&#45;&gt;Node11 -->
<g id="edge23" class="edge"><title>Node18&#45;&gt;Node11</title>
<path fill="none" stroke="midnightblue" d="M308.722,-56.4435C327.396,-47.6751 356.656,-33.9355 378.117,-23.8579"/>
<polygon fill="midnightblue" stroke="midnightblue" points="379.799,-26.935 387.363,-19.5164 376.824,-20.5988 379.799,-26.935"/>
</g>
<!-- Node19 -->
<g id="node19" class="node"><title>Node19</title>
<polygon fill="white" stroke="#bfbfbf" points="253,-0.5 253,-19.5 296,-19.5 296,-0.5 253,-0.5"/>
<text text-anchor="middle" x="274.5" y="-7.5" font-family="Helvetica,sans-Serif" font-size="10.00">QMap</text>
</g>
<!-- Node18&#45;&gt;Node19 -->
<g id="edge22" class="edge"><title>Node18&#45;&gt;Node19</title>
<path fill="none" stroke="midnightblue" d="M287.858,-56.083C285.714,-48.8486 282.621,-38.4087 279.951,-29.3968"/>
<polygon fill="midnightblue" stroke="midnightblue" points="283.29,-28.3447 277.093,-19.7511 276.578,-30.3334 283.29,-28.3447"/>
</g>
<!-- Node20 -->
<g id="node20" class="node"><title>Node20</title>
<polygon fill="white" stroke="#bfbfbf" points="314.5,-0.5 314.5,-19.5 358.5,-19.5 358.5,-0.5 314.5,-0.5"/>
<text text-anchor="middle" x="336.5" y="-7.5" font-family="Helvetica,sans-Serif" font-size="10.00">cmath</text>
</g>
<!-- Node18&#45;&gt;Node20 -->
<g id="edge24" class="edge"><title>Node18&#45;&gt;Node20</title>
<path fill="none" stroke="midnightblue" d="M298.096,-56.083C304.727,-48.2982 314.521,-36.8015 322.558,-27.3665"/>
<polygon fill="midnightblue" stroke="midnightblue" points="325.225,-29.6332 329.045,-19.7511 319.896,-25.0939 325.225,-29.6332"/>
</g>
</g>
</svg>
