<?xml version="1.0" encoding="UTF-8" standalone="no"?>
<!DOCTYPE svg PUBLIC "-//W3C//DTD SVG 1.1//EN"
 "http://www.w3.org/Graphics/SVG/1.1/DTD/svg11.dtd">
<!-- Generated by graphviz version 2.38.0 (20140413.2041)
 -->
<!-- Title: /home/ient/YUViewOrig/YUView/source/statisticSource.cpp Pages: 1 -->
<svg width="400pt" height="207pt"
 viewBox="0.00 0.00 399.50 207.00" xmlns="http://www.w3.org/2000/svg" xmlns:xlink="http://www.w3.org/1999/xlink">
<g id="graph0" class="graph" transform="scale(1 1) rotate(0) translate(4 203)">
<title>/home/ient/YUViewOrig/YUView/source/statisticSource.cpp</title>
<polygon fill="white" stroke="none" points="-4,4 -4,-203 395.5,-203 395.5,4 -4,4"/>
<!-- Node1 -->
<g id="node1" class="node"><title>Node1</title>
<polygon fill="#bfbfbf" stroke="black" points="85,-168.5 85,-198.5 260,-198.5 260,-168.5 85,-168.5"/>
<text text-anchor="start" x="93" y="-186.5" font-family="Helvetica,sans-Serif" font-size="10.00">/home/ient/YUViewOrig</text>
<text text-anchor="middle" x="172.5" y="-175.5" font-family="Helvetica,sans-Serif" font-size="10.00">/YUView/source/statisticSource.cpp</text>
</g>
<!-- Node2 -->
<g id="node2" class="node"><title>Node2</title>
<g id="a_node2"><a xlink:href="statisticSource_8h.html" target="_top" xlink:title="statisticSource.h">
<polygon fill="white" stroke="black" points="82.5,-112.5 82.5,-131.5 172.5,-131.5 172.5,-112.5 82.5,-112.5"/>
<text text-anchor="middle" x="127.5" y="-119.5" font-family="Helvetica,sans-Serif" font-size="10.00">statisticSource.h</text>
</a>
</g>
</g>
<!-- Node1&#45;&gt;Node2 -->
<g id="edge1" class="edge"><title>Node1&#45;&gt;Node2</title>
<path fill="none" stroke="midnightblue" d="M161.836,-168.399C155.364,-159.842 147.066,-148.871 140.249,-139.857"/>
<polygon fill="midnightblue" stroke="midnightblue" points="142.872,-137.522 134.048,-131.658 137.289,-141.745 142.872,-137.522"/>
</g>
<!-- Node10 -->
<g id="node10" class="node"><title>Node10</title>
<polygon fill="white" stroke="#bfbfbf" points="191,-112.5 191,-131.5 246,-131.5 246,-112.5 191,-112.5"/>
<text text-anchor="middle" x="218.5" y="-119.5" font-family="Helvetica,sans-Serif" font-size="10.00">QPainter</text>
</g>
<!-- Node1&#45;&gt;Node10 -->
<g id="edge10" class="edge"><title>Node1&#45;&gt;Node10</title>
<path fill="none" stroke="midnightblue" d="M183.401,-168.399C190.086,-159.753 198.676,-148.642 205.685,-139.576"/>
<polygon fill="midnightblue" stroke="midnightblue" points="208.459,-141.71 211.807,-131.658 202.921,-137.428 208.459,-141.71"/>
</g>
<!-- Node3 -->
<g id="node3" class="node"><title>Node3</title>
<polygon fill="white" stroke="#bfbfbf" points="-3.55271e-15,-56.5 -3.55271e-15,-75.5 53,-75.5 53,-56.5 -3.55271e-15,-56.5"/>
<text text-anchor="middle" x="26.5" y="-63.5" font-family="Helvetica,sans-Serif" font-size="10.00">QObject</text>
</g>
<!-- Node2&#45;&gt;Node3 -->
<g id="edge2" class="edge"><title>Node2&#45;&gt;Node3</title>
<path fill="none" stroke="midnightblue" d="M111.273,-112.324C95.149,-103.703 70.1998,-90.3643 51.5359,-80.3855"/>
<polygon fill="midnightblue" stroke="midnightblue" points="53.1561,-77.283 42.6871,-75.6545 49.8556,-83.456 53.1561,-77.283"/>
</g>
<!-- Node4 -->
<g id="node4" class="node"><title>Node4</title>
<polygon fill="white" stroke="#bfbfbf" points="71,-56.5 71,-75.5 128,-75.5 128,-56.5 71,-56.5"/>
<text text-anchor="middle" x="99.5" y="-63.5" font-family="Helvetica,sans-Serif" font-size="10.00">QPixmap</text>
</g>
<!-- Node2&#45;&gt;Node4 -->
<g id="edge3" class="edge"><title>Node2&#45;&gt;Node4</title>
<path fill="none" stroke="midnightblue" d="M122.876,-112.083C119.044,-104.691 113.476,-93.9533 108.735,-84.8111"/>
<polygon fill="midnightblue" stroke="midnightblue" points="111.748,-83.0175 104.038,-75.7511 105.534,-86.2398 111.748,-83.0175"/>
</g>
<!-- Node5 -->
<g id="node5" class="node"><title>Node5</title>
<g id="a_node5"><a xlink:href="typedef_8h.html" target="_top" xlink:title="typedef.h">
<polygon fill="white" stroke="black" points="128,-0.5 128,-19.5 185,-19.5 185,-0.5 128,-0.5"/>
<text text-anchor="middle" x="156.5" y="-7.5" font-family="Helvetica,sans-Serif" font-size="10.00">typedef.h</text>
</a>
</g>
</g>
<!-- Node2&#45;&gt;Node5 -->
<g id="edge4" class="edge"><title>Node2&#45;&gt;Node5</title>
<path fill="none" stroke="midnightblue" d="M129.776,-112.368C134.477,-94.5366 145.349,-53.2953 151.683,-29.2717"/>
<polygon fill="midnightblue" stroke="midnightblue" points="155.07,-30.1533 154.235,-19.5914 148.301,-28.3688 155.07,-30.1533"/>
</g>
<!-- Node6 -->
<g id="node6" class="node"><title>Node6</title>
<g id="a_node6"><a xlink:href="statisticsextensions_8h.html" target="_top" xlink:title="statisticsextensions.h">
<polygon fill="white" stroke="black" points="184.5,-56.5 184.5,-75.5 296.5,-75.5 296.5,-56.5 184.5,-56.5"/>
<text text-anchor="middle" x="240.5" y="-63.5" font-family="Helvetica,sans-Serif" font-size="10.00">statisticsextensions.h</text>
</a>
</g>
</g>
<!-- Node2&#45;&gt;Node6 -->
<g id="edge5" class="edge"><title>Node2&#45;&gt;Node6</title>
<path fill="none" stroke="midnightblue" d="M145.405,-112.444C163.754,-103.675 192.505,-89.9355 213.594,-79.8579"/>
<polygon fill="midnightblue" stroke="midnightblue" points="215.165,-82.9862 222.679,-75.5164 212.147,-76.6703 215.165,-82.9862"/>
</g>
<!-- Node6&#45;&gt;Node5 -->
<g id="edge8" class="edge"><title>Node6&#45;&gt;Node5</title>
<path fill="none" stroke="midnightblue" d="M227.004,-56.324C213.9,-47.9002 193.788,-34.9709 178.393,-25.0741"/>
<polygon fill="midnightblue" stroke="midnightblue" points="180.267,-22.118 169.963,-19.6545 176.482,-28.0063 180.267,-22.118"/>
</g>
<!-- Node7 -->
<g id="node7" class="node"><title>Node7</title>
<polygon fill="white" stroke="#bfbfbf" points="203,-0.5 203,-19.5 268,-19.5 268,-0.5 203,-0.5"/>
<text text-anchor="middle" x="235.5" y="-7.5" font-family="Helvetica,sans-Serif" font-size="10.00">QStringList</text>
</g>
<!-- Node6&#45;&gt;Node7 -->
<g id="edge6" class="edge"><title>Node6&#45;&gt;Node7</title>
<path fill="none" stroke="midnightblue" d="M239.674,-56.083C239.019,-49.0059 238.08,-38.8611 237.258,-29.9865"/>
<polygon fill="midnightblue" stroke="midnightblue" points="240.717,-29.3858 236.31,-19.7511 233.747,-30.0312 240.717,-29.3858"/>
</g>
<!-- Node8 -->
<g id="node8" class="node"><title>Node8</title>
<polygon fill="white" stroke="#bfbfbf" points="286,-0.5 286,-19.5 329,-19.5 329,-0.5 286,-0.5"/>
<text text-anchor="middle" x="307.5" y="-7.5" font-family="Helvetica,sans-Serif" font-size="10.00">QMap</text>
</g>
<!-- Node6&#45;&gt;Node8 -->
<g id="edge7" class="edge"><title>Node6&#45;&gt;Node8</title>
<path fill="none" stroke="midnightblue" d="M251.265,-56.324C261.266,-48.2631 276.387,-36.0765 288.43,-26.3695"/>
<polygon fill="midnightblue" stroke="midnightblue" points="290.95,-28.8343 296.539,-19.8339 286.557,-23.3841 290.95,-28.8343"/>
</g>
<!-- Node9 -->
<g id="node9" class="node"><title>Node9</title>
<polygon fill="white" stroke="#bfbfbf" points="347.5,-0.5 347.5,-19.5 391.5,-19.5 391.5,-0.5 347.5,-0.5"/>
<text text-anchor="middle" x="369.5" y="-7.5" font-family="Helvetica,sans-Serif" font-size="10.00">cmath</text>
</g>
<!-- Node6&#45;&gt;Node9 -->
<g id="edge9" class="edge"><title>Node6&#45;&gt;Node9</title>
<path fill="none" stroke="midnightblue" d="M260.94,-56.4435C282.17,-47.5566 315.599,-33.5632 339.755,-23.4514"/>
<polygon fill="midnightblue" stroke="midnightblue" points="341.282,-26.6064 349.155,-19.5164 338.579,-20.1493 341.282,-26.6064"/>
</g>
</g>
</svg>
