<?xml version="1.0" encoding="UTF-8" standalone="no"?>
<!DOCTYPE svg PUBLIC "-//W3C//DTD SVG 1.1//EN"
 "http://www.w3.org/Graphics/SVG/1.1/DTD/svg11.dtd">
<!-- Generated by graphviz version 2.38.0 (20140413.2041)
 -->
<!-- Title: /home/ient/YUViewOrig/YUView/source/statslistmodel.h Pages: 1 -->
<svg width="360pt" height="106pt"
 viewBox="0.00 0.00 360.00 106.00" xmlns="http://www.w3.org/2000/svg" xmlns:xlink="http://www.w3.org/1999/xlink">
<g id="graph0" class="graph" transform="scale(1 1) rotate(0) translate(4 102)">
<title>/home/ient/YUViewOrig/YUView/source/statslistmodel.h</title>
<polygon fill="white" stroke="none" points="-4,4 -4,-102 356,-102 356,4 -4,4"/>
<!-- Node1 -->
<g id="node1" class="node"><title>Node1</title>
<polygon fill="#bfbfbf" stroke="black" points="94,-67.5 94,-97.5 254,-97.5 254,-67.5 94,-67.5"/>
<text text-anchor="start" x="102" y="-85.5" font-family="Helvetica,sans-Serif" font-size="10.00">/home/ient/YUViewOrig</text>
<text text-anchor="middle" x="174" y="-74.5" font-family="Helvetica,sans-Serif" font-size="10.00">/YUView/source/statslistmodel.h</text>
</g>
<!-- Node2 -->
<g id="node2" class="node"><title>Node2</title>
<g id="a_node2"><a xlink:href="mainwindow_8cpp.html" target="_top" xlink:title="/home/ient/YUViewOrig\l/YUView/source/mainwindow.cpp">
<polygon fill="white" stroke="black" points="0,-0.5 0,-30.5 164,-30.5 164,-0.5 0,-0.5"/>
<text text-anchor="start" x="8" y="-18.5" font-family="Helvetica,sans-Serif" font-size="10.00">/home/ient/YUViewOrig</text>
<text text-anchor="middle" x="82" y="-7.5" font-family="Helvetica,sans-Serif" font-size="10.00">/YUView/source/mainwindow.cpp</text>
</a>
</g>
</g>
<!-- Node1&#45;&gt;Node2 -->
<g id="edge1" class="edge"><title>Node1&#45;&gt;Node2</title>
<path fill="none" stroke="midnightblue" d="M145.623,-61.4511C131.47,-51.4517 114.695,-39.5995 101.924,-30.5765"/>
<polygon fill="midnightblue" stroke="midnightblue" points="143.851,-64.4841 154.037,-67.396 147.89,-58.7671 143.851,-64.4841"/>
</g>
<!-- Node3 -->
<g id="node3" class="node"><title>Node3</title>
<g id="a_node3"><a xlink:href="statslistmodel_8cpp.html" target="_top" xlink:title="/home/ient/YUViewOrig\l/YUView/source/statslistmodel.cpp">
<polygon fill="white" stroke="black" points="182,-0.5 182,-30.5 352,-30.5 352,-0.5 182,-0.5"/>
<text text-anchor="start" x="190" y="-18.5" font-family="Helvetica,sans-Serif" font-size="10.00">/home/ient/YUViewOrig</text>
<text text-anchor="middle" x="267" y="-7.5" font-family="Helvetica,sans-Serif" font-size="10.00">/YUView/source/statslistmodel.cpp</text>
</a>
</g>
</g>
<!-- Node1&#45;&gt;Node3 -->
<g id="edge2" class="edge"><title>Node1&#45;&gt;Node3</title>
<path fill="none" stroke="midnightblue" d="M202.685,-61.4511C216.992,-51.4517 233.95,-39.5995 246.86,-30.5765"/>
<polygon fill="midnightblue" stroke="midnightblue" points="200.371,-58.7985 194.18,-67.396 204.381,-64.536 200.371,-58.7985"/>
</g>
</g>
</svg>
