<?xml version="1.0" encoding="UTF-8" standalone="no"?>
<!DOCTYPE svg PUBLIC "-//W3C//DTD SVG 1.1//EN"
 "http://www.w3.org/Graphics/SVG/1.1/DTD/svg11.dtd">
<!-- Generated by graphviz version 2.38.0 (20140413.2041)
 -->
<!-- Title: /home/ient/YUViewOrig/YUView/source/statisticSource.h Pages: 1 -->
<svg width="400pt" height="151pt"
 viewBox="0.00 0.00 399.50 151.00" xmlns="http://www.w3.org/2000/svg" xmlns:xlink="http://www.w3.org/1999/xlink">
<g id="graph0" class="graph" transform="scale(1 1) rotate(0) translate(4 147)">
<title>/home/ient/YUViewOrig/YUView/source/statisticSource.h</title>
<polygon fill="white" stroke="none" points="-4,4 -4,-147 395.5,-147 395.5,4 -4,4"/>
<!-- Node1 -->
<g id="node1" class="node"><title>Node1</title>
<polygon fill="#bfbfbf" stroke="black" points="45.5,-112.5 45.5,-142.5 209.5,-142.5 209.5,-112.5 45.5,-112.5"/>
<text text-anchor="start" x="53.5" y="-130.5" font-family="Helvetica,sans-Serif" font-size="10.00">/home/ient/YUViewOrig</text>
<text text-anchor="middle" x="127.5" y="-119.5" font-family="Helvetica,sans-Serif" font-size="10.00">/YUView/source/statisticSource.h</text>
</g>
<!-- Node2 -->
<g id="node2" class="node"><title>Node2</title>
<polygon fill="white" stroke="#bfbfbf" points="-3.55271e-15,-56.5 -3.55271e-15,-75.5 53,-75.5 53,-56.5 -3.55271e-15,-56.5"/>
<text text-anchor="middle" x="26.5" y="-63.5" font-family="Helvetica,sans-Serif" font-size="10.00">QObject</text>
</g>
<!-- Node1&#45;&gt;Node2 -->
<g id="edge1" class="edge"><title>Node1&#45;&gt;Node2</title>
<path fill="none" stroke="midnightblue" d="M103.564,-112.399C87.3749,-102.862 66.0933,-90.3248 49.9969,-80.8422"/>
<polygon fill="midnightblue" stroke="midnightblue" points="51.589,-77.718 41.1964,-75.6578 48.0359,-83.7492 51.589,-77.718"/>
</g>
<!-- Node3 -->
<g id="node3" class="node"><title>Node3</title>
<polygon fill="white" stroke="#bfbfbf" points="71,-56.5 71,-75.5 128,-75.5 128,-56.5 71,-56.5"/>
<text text-anchor="middle" x="99.5" y="-63.5" font-family="Helvetica,sans-Serif" font-size="10.00">QPixmap</text>
</g>
<!-- Node1&#45;&gt;Node3 -->
<g id="edge2" class="edge"><title>Node1&#45;&gt;Node3</title>
<path fill="none" stroke="midnightblue" d="M120.864,-112.399C116.963,-104.11 111.996,-93.5542 107.833,-84.7077"/>
<polygon fill="midnightblue" stroke="midnightblue" points="110.999,-83.2157 103.574,-75.6578 104.665,-86.1963 110.999,-83.2157"/>
</g>
<!-- Node4 -->
<g id="node4" class="node"><title>Node4</title>
<g id="a_node4"><a xlink:href="typedef_8h.html" target="_top" xlink:title="typedef.h">
<polygon fill="white" stroke="black" points="128,-0.5 128,-19.5 185,-19.5 185,-0.5 128,-0.5"/>
<text text-anchor="middle" x="156.5" y="-7.5" font-family="Helvetica,sans-Serif" font-size="10.00">typedef.h</text>
</a>
</g>
</g>
<!-- Node1&#45;&gt;Node4 -->
<g id="edge3" class="edge"><title>Node1&#45;&gt;Node4</title>
<path fill="none" stroke="midnightblue" d="M131.056,-112.337C136.281,-91.5271 146.039,-52.6632 151.834,-29.5834"/>
<polygon fill="midnightblue" stroke="midnightblue" points="155.283,-30.2208 154.323,-19.6695 148.493,-28.516 155.283,-30.2208"/>
</g>
<!-- Node5 -->
<g id="node5" class="node"><title>Node5</title>
<g id="a_node5"><a xlink:href="statisticsextensions_8h.html" target="_top" xlink:title="statisticsextensions.h">
<polygon fill="white" stroke="black" points="184.5,-56.5 184.5,-75.5 296.5,-75.5 296.5,-56.5 184.5,-56.5"/>
<text text-anchor="middle" x="240.5" y="-63.5" font-family="Helvetica,sans-Serif" font-size="10.00">statisticsextensions.h</text>
</a>
</g>
</g>
<!-- Node1&#45;&gt;Node5 -->
<g id="edge4" class="edge"><title>Node1&#45;&gt;Node5</title>
<path fill="none" stroke="midnightblue" d="M154.279,-112.399C172.562,-102.773 196.648,-90.0902 214.715,-80.5772"/>
<polygon fill="midnightblue" stroke="midnightblue" points="216.84,-83.4138 224.057,-75.6578 213.578,-77.22 216.84,-83.4138"/>
</g>
<!-- Node5&#45;&gt;Node4 -->
<g id="edge7" class="edge"><title>Node5&#45;&gt;Node4</title>
<path fill="none" stroke="midnightblue" d="M227.004,-56.324C213.9,-47.9002 193.788,-34.9709 178.393,-25.0741"/>
<polygon fill="midnightblue" stroke="midnightblue" points="180.267,-22.118 169.963,-19.6545 176.482,-28.0063 180.267,-22.118"/>
</g>
<!-- Node6 -->
<g id="node6" class="node"><title>Node6</title>
<polygon fill="white" stroke="#bfbfbf" points="203,-0.5 203,-19.5 268,-19.5 268,-0.5 203,-0.5"/>
<text text-anchor="middle" x="235.5" y="-7.5" font-family="Helvetica,sans-Serif" font-size="10.00">QStringList</text>
</g>
<!-- Node5&#45;&gt;Node6 -->
<g id="edge5" class="edge"><title>Node5&#45;&gt;Node6</title>
<path fill="none" stroke="midnightblue" d="M239.674,-56.083C239.019,-49.0059 238.08,-38.8611 237.258,-29.9865"/>
<polygon fill="midnightblue" stroke="midnightblue" points="240.717,-29.3858 236.31,-19.7511 233.747,-30.0312 240.717,-29.3858"/>
</g>
<!-- Node7 -->
<g id="node7" class="node"><title>Node7</title>
<polygon fill="white" stroke="#bfbfbf" points="286,-0.5 286,-19.5 329,-19.5 329,-0.5 286,-0.5"/>
<text text-anchor="middle" x="307.5" y="-7.5" font-family="Helvetica,sans-Serif" font-size="10.00">QMap</text>
</g>
<!-- Node5&#45;&gt;Node7 -->
<g id="edge6" class="edge"><title>Node5&#45;&gt;Node7</title>
<path fill="none" stroke="midnightblue" d="M251.265,-56.324C261.266,-48.2631 276.387,-36.0765 288.43,-26.3695"/>
<polygon fill="midnightblue" stroke="midnightblue" points="290.95,-28.8343 296.539,-19.8339 286.557,-23.3841 290.95,-28.8343"/>
</g>
<!-- Node8 -->
<g id="node8" class="node"><title>Node8</title>
<polygon fill="white" stroke="#bfbfbf" points="347.5,-0.5 347.5,-19.5 391.5,-19.5 391.5,-0.5 347.5,-0.5"/>
<text text-anchor="middle" x="369.5" y="-7.5" font-family="Helvetica,sans-Serif" font-size="10.00">cmath</text>
</g>
<!-- Node5&#45;&gt;Node8 -->
<g id="edge8" class="edge"><title>Node5&#45;&gt;Node8</title>
<path fill="none" stroke="midnightblue" d="M260.94,-56.4435C282.17,-47.5566 315.599,-33.5632 339.755,-23.4514"/>
<polygon fill="midnightblue" stroke="midnightblue" points="341.282,-26.6064 349.155,-19.5164 338.579,-20.1493 341.282,-26.6064"/>
</g>
</g>
</svg>
