<?xml version="1.0" encoding="UTF-8" standalone="no"?>
<!DOCTYPE svg PUBLIC "-//W3C//DTD SVG 1.1//EN"
 "http://www.w3.org/Graphics/SVG/1.1/DTD/svg11.dtd">
<!-- Generated by graphviz version 2.38.0 (20140413.2041)
 -->
<!-- Title: /home/ient/YUViewOrig/YUView/source/statslistmodel.h Pages: 1 -->
<!--zoomable 319 -->
<svg id="main" version="1.1" xmlns="http://www.w3.org/2000/svg" xmlns:xlink="http://www.w3.org/1999/xlink" xml:space="preserve" onload="init(evt)">
<style type="text/css"><![CDATA[
.edge:hover path { stroke: red; }
.edge:hover polygon { stroke: red; fill: red; }
]]></style>
<script type="text/javascript"><![CDATA[
var edges = document.getElementsByTagName('g');
if (edges && edges.length) {
  for (var i=0;i<edges.length;i++) {
    if (edges[i].id.substr(0,4)=='edge') {
      edges[i].setAttribute('class','edge');
    }
  }
}
]]></script>
        <defs>
                <circle id="rim" cx="0" cy="0" r="7"/>
                <circle id="rim2" cx="0" cy="0" r="3.5"/>
                <g id="zoomPlus">
                        <use xlink:href="#rim" fill="#404040">
                                <set attributeName="fill" to="#808080" begin="zoomplus.mouseover" end="zoomplus.mouseout"/>
                        </use>
                        <path d="M-4,0h8M0,-4v8" fill="none" stroke="white" stroke-width="1.5" pointer-events="none"/>
                </g>
                <g id="zoomMin">
                        <use xlink:href="#rim" fill="#404040">
                                <set attributeName="fill" to="#808080" begin="zoomminus.mouseover" end="zoomminus.mouseout"/>
                        </use>
                        <path d="M-4,0h8" fill="none" stroke="white" stroke-width="1.5" pointer-events="none"/>
                </g>
                <g id="dirArrow">
                        <path fill="none" stroke="white" stroke-width="1.5" d="M0,-3.0v7 M-2.5,-0.5L0,-3.0L2.5,-0.5"/>
                </g>
               <g id="resetDef">
                       <use xlink:href="#rim2" fill="#404040">
                               <set attributeName="fill" to="#808080" begin="reset.mouseover" end="reset.mouseout"/>
                       </use>
               </g>
        </defs>

<script type="text/javascript">
var viewWidth = 770;
var viewHeight = 319;
var sectionId = 'dynsection-0';
</script>
<script xlink:href="svgpan.js"/>
<svg id="graph" class="graph">
<g id="viewport">
<title>/home/ient/YUViewOrig/YUView/source/statslistmodel.h</title>
<polygon fill="white" stroke="none" points="-4,4 -4,-315 766,-315 766,4 -4,4"/>
<!-- Node1 -->
<g id="node1" class="node"><title>Node1</title>
<polygon fill="#bfbfbf" stroke="black" points="122.5,-280.5 122.5,-310.5 282.5,-310.5 282.5,-280.5 122.5,-280.5"/>
<text text-anchor="start" x="130.5" y="-298.5" font-family="Helvetica,sans-Serif" font-size="10.00">/home/ient/YUViewOrig</text>
<text text-anchor="middle" x="202.5" y="-287.5" font-family="Helvetica,sans-Serif" font-size="10.00">/YUView/source/statslistmodel.h</text>
</g>
<!-- Node2 -->
<g id="node2" class="node"><title>Node2</title>
<polygon fill="white" stroke="#bfbfbf" points="0,-224.5 0,-243.5 103,-243.5 103,-224.5 0,-224.5"/>
<text text-anchor="middle" x="51.5" y="-231.5" font-family="Helvetica,sans-Serif" font-size="10.00">QAbstractListModel</text>
</g>
<!-- Node1&#45;&gt;Node2 -->
<g id="edge1" class="edge"><title>Node1&#45;&gt;Node2</title>
<path fill="none" stroke="midnightblue" d="M166.715,-280.399C141.267,-270.372 107.403,-257.028 82.9816,-247.405"/>
<polygon fill="midnightblue" stroke="midnightblue" points="84.0588,-244.068 73.4718,-243.658 81.4925,-250.58 84.0588,-244.068"/>
</g>
<!-- Node3 -->
<g id="node3" class="node"><title>Node3</title>
<polygon fill="white" stroke="#bfbfbf" points="121,-224.5 121,-243.5 174,-243.5 174,-224.5 121,-224.5"/>
<text text-anchor="middle" x="147.5" y="-231.5" font-family="Helvetica,sans-Serif" font-size="10.00">QVector</text>
</g>
<!-- Node1&#45;&gt;Node3 -->
<g id="edge2" class="edge"><title>Node1&#45;&gt;Node3</title>
<path fill="none" stroke="midnightblue" d="M189.466,-280.399C181.309,-271.575 170.778,-260.183 162.306,-251.018"/>
<polygon fill="midnightblue" stroke="midnightblue" points="164.861,-248.625 155.503,-243.658 159.721,-253.377 164.861,-248.625"/>
</g>
<!-- Node4 -->
<g id="node4" class="node"><title>Node4</title>
<polygon fill="white" stroke="#bfbfbf" points="170,-0.5 170,-19.5 235,-19.5 235,-0.5 170,-0.5"/>
<text text-anchor="middle" x="202.5" y="-7.5" font-family="Helvetica,sans-Serif" font-size="10.00">QStringList</text>
</g>
<!-- Node1&#45;&gt;Node4 -->
<g id="edge3" class="edge"><title>Node1&#45;&gt;Node4</title>
<path fill="none" stroke="midnightblue" d="M202.5,-280.275C202.5,-258.476 202.5,-215.495 202.5,-179 202.5,-179 202.5,-179 202.5,-121 202.5,-88.948 202.5,-51.6426 202.5,-29.7489"/>
<polygon fill="midnightblue" stroke="midnightblue" points="206,-29.5577 202.5,-19.5578 199,-29.5578 206,-29.5577"/>
</g>
<!-- Node5 -->
<g id="node5" class="node"><title>Node5</title>
<polygon fill="white" stroke="#bfbfbf" points="353,-224.5 353,-243.5 422,-243.5 422,-224.5 353,-224.5"/>
<text text-anchor="middle" x="387.5" y="-231.5" font-family="Helvetica,sans-Serif" font-size="10.00">QMimeData</text>
</g>
<!-- Node1&#45;&gt;Node5 -->
<g id="edge4" class="edge"><title>Node1&#45;&gt;Node5</title>
<path fill="none" stroke="midnightblue" d="M246.342,-280.399C278.31,-270.118 321.116,-256.351 351.178,-246.682"/>
<polygon fill="midnightblue" stroke="midnightblue" points="352.403,-249.965 360.851,-243.571 350.26,-243.301 352.403,-249.965"/>
</g>
<!-- Node6 -->
<g id="node6" class="node"><title>Node6</title>
<g id="a_node6"><a xlink:href="statisticsobject_8h.html" target="_top" xlink:title="statisticsobject.h">
<polygon fill="white" stroke="black" points="244,-224.5 244,-243.5 335,-243.5 335,-224.5 244,-224.5"/>
<text text-anchor="middle" x="289.5" y="-231.5" font-family="Helvetica,sans-Serif" font-size="10.00">statisticsobject.h</text>
</a>
</g>
</g>
<!-- Node1&#45;&gt;Node6 -->
<g id="edge5" class="edge"><title>Node1&#45;&gt;Node6</title>
<path fill="none" stroke="midnightblue" d="M223.118,-280.399C236.803,-271.04 254.711,-258.792 268.478,-249.377"/>
<polygon fill="midnightblue" stroke="midnightblue" points="270.562,-252.192 276.841,-243.658 266.611,-246.414 270.562,-252.192"/>
</g>
<!-- Node7 -->
<g id="node7" class="node"><title>Node7</title>
<g id="a_node7"><a xlink:href="displayobject_8h.html" target="_top" xlink:title="displayobject.h">
<polygon fill="white" stroke="black" points="466.5,-112.5 466.5,-131.5 548.5,-131.5 548.5,-112.5 466.5,-112.5"/>
<text text-anchor="middle" x="507.5" y="-119.5" font-family="Helvetica,sans-Serif" font-size="10.00">displayobject.h</text>
</a>
</g>
</g>
<!-- Node6&#45;&gt;Node7 -->
<g id="edge6" class="edge"><title>Node6&#45;&gt;Node7</title>
<path fill="none" stroke="midnightblue" d="M306.606,-224.368C344.572,-205.211 436.084,-159.036 481.306,-136.217"/>
<polygon fill="midnightblue" stroke="midnightblue" points="483.122,-139.221 490.473,-131.591 479.969,-132.972 483.122,-139.221"/>
</g>
<!-- Node15 -->
<g id="node15" class="node"><title>Node15</title>
<g id="a_node15"><a xlink:href="statisticSourceFile_8h.html" target="_top" xlink:title="statisticSourceFile.h">
<polygon fill="white" stroke="black" points="248.5,-168.5 248.5,-187.5 354.5,-187.5 354.5,-168.5 248.5,-168.5"/>
<text text-anchor="middle" x="301.5" y="-175.5" font-family="Helvetica,sans-Serif" font-size="10.00">statisticSourceFile.h</text>
</a>
</g>
</g>
<!-- Node6&#45;&gt;Node15 -->
<g id="edge14" class="edge"><title>Node6&#45;&gt;Node15</title>
<path fill="none" stroke="midnightblue" d="M291.482,-224.083C293.072,-216.927 295.359,-206.635 297.346,-197.691"/>
<polygon fill="midnightblue" stroke="midnightblue" points="300.803,-198.272 299.555,-187.751 293.969,-196.754 300.803,-198.272"/>
</g>
<!-- Node8 -->
<g id="node8" class="node"><title>Node8</title>
<polygon fill="white" stroke="#bfbfbf" points="403,-56.5 403,-75.5 456,-75.5 456,-56.5 403,-56.5"/>
<text text-anchor="middle" x="429.5" y="-63.5" font-family="Helvetica,sans-Serif" font-size="10.00">QObject</text>
</g>
<!-- Node7&#45;&gt;Node8 -->
<g id="edge7" class="edge"><title>Node7&#45;&gt;Node8</title>
<path fill="none" stroke="midnightblue" d="M494.968,-112.324C482.914,-103.979 464.473,-91.2122 450.231,-81.3524"/>
<polygon fill="midnightblue" stroke="midnightblue" points="452.215,-78.469 442.001,-75.6545 448.231,-84.2243 452.215,-78.469"/>
</g>
<!-- Node9 -->
<g id="node9" class="node"><title>Node9</title>
<polygon fill="white" stroke="#bfbfbf" points="474,-56.5 474,-75.5 531,-75.5 531,-56.5 474,-56.5"/>
<text text-anchor="middle" x="502.5" y="-63.5" font-family="Helvetica,sans-Serif" font-size="10.00">QPixmap</text>
</g>
<!-- Node7&#45;&gt;Node9 -->
<g id="edge8" class="edge"><title>Node7&#45;&gt;Node9</title>
<path fill="none" stroke="midnightblue" d="M506.674,-112.083C506.019,-105.006 505.08,-94.8611 504.258,-85.9865"/>
<polygon fill="midnightblue" stroke="midnightblue" points="507.717,-85.3858 503.31,-75.7511 500.747,-86.0312 507.717,-85.3858"/>
</g>
<!-- Node10 -->
<g id="node10" class="node"><title>Node10</title>
<g id="a_node10"><a xlink:href="typedef_8h.html" target="_top" xlink:title="typedef.h">
<polygon fill="white" stroke="black" points="377,-0.5 377,-19.5 434,-19.5 434,-0.5 377,-0.5"/>
<text text-anchor="middle" x="405.5" y="-7.5" font-family="Helvetica,sans-Serif" font-size="10.00">typedef.h</text>
</a>
</g>
</g>
<!-- Node7&#45;&gt;Node10 -->
<g id="edge9" class="edge"><title>Node7&#45;&gt;Node10</title>
<path fill="none" stroke="midnightblue" d="M518.02,-112.101C532.094,-99.1077 553.82,-74.4804 540.5,-56 518.761,-25.8392 475.93,-15.5878 444.316,-12.2611"/>
<polygon fill="midnightblue" stroke="midnightblue" points="444.335,-8.74983 434.072,-11.3795 443.735,-15.7241 444.335,-8.74983"/>
</g>
<!-- Node11 -->
<g id="node11" class="node"><title>Node11</title>
<g id="a_node11"><a xlink:href="FileInfoGroupBox_8h.html" target="_top" xlink:title="FileInfoGroupBox.h">
<polygon fill="white" stroke="black" points="588,-56.5 588,-75.5 689,-75.5 689,-56.5 588,-56.5"/>
<text text-anchor="middle" x="638.5" y="-63.5" font-family="Helvetica,sans-Serif" font-size="10.00">FileInfoGroupBox.h</text>
</a>
</g>
</g>
<!-- Node7&#45;&gt;Node11 -->
<g id="edge10" class="edge"><title>Node7&#45;&gt;Node11</title>
<path fill="none" stroke="midnightblue" d="M528.257,-112.444C549.816,-103.557 583.763,-89.5632 608.294,-79.4514"/>
<polygon fill="midnightblue" stroke="midnightblue" points="609.928,-82.5634 617.84,-75.5164 607.261,-76.0917 609.928,-82.5634"/>
</g>
<!-- Node12 -->
<g id="node12" class="node"><title>Node12</title>
<polygon fill="white" stroke="#bfbfbf" points="604.5,-0.5 604.5,-19.5 672.5,-19.5 672.5,-0.5 604.5,-0.5"/>
<text text-anchor="middle" x="638.5" y="-7.5" font-family="Helvetica,sans-Serif" font-size="10.00">QGroupBox</text>
</g>
<!-- Node11&#45;&gt;Node12 -->
<g id="edge11" class="edge"><title>Node11&#45;&gt;Node12</title>
<path fill="none" stroke="midnightblue" d="M638.5,-56.083C638.5,-49.0059 638.5,-38.8611 638.5,-29.9865"/>
<polygon fill="midnightblue" stroke="midnightblue" points="642,-29.751 638.5,-19.7511 635,-29.7511 642,-29.751"/>
</g>
<!-- Node13 -->
<g id="node13" class="node"><title>Node13</title>
<polygon fill="white" stroke="#bfbfbf" points="691,-0.5 691,-19.5 762,-19.5 762,-0.5 691,-0.5"/>
<text text-anchor="middle" x="726.5" y="-7.5" font-family="Helvetica,sans-Serif" font-size="10.00">QGridLayout</text>
</g>
<!-- Node11&#45;&gt;Node13 -->
<g id="edge12" class="edge"><title>Node11&#45;&gt;Node13</title>
<path fill="none" stroke="midnightblue" d="M652.639,-56.324C666.366,-47.9002 687.436,-34.9709 703.564,-25.0741"/>
<polygon fill="midnightblue" stroke="midnightblue" points="705.704,-27.8678 712.396,-19.6545 702.043,-21.9016 705.704,-27.8678"/>
</g>
<!-- Node14 -->
<g id="node14" class="node"><title>Node14</title>
<polygon fill="white" stroke="#bfbfbf" points="539,-0.5 539,-19.5 586,-19.5 586,-0.5 539,-0.5"/>
<text text-anchor="middle" x="562.5" y="-7.5" font-family="Helvetica,sans-Serif" font-size="10.00">QLabel</text>
</g>
<!-- Node11&#45;&gt;Node14 -->
<g id="edge13" class="edge"><title>Node11&#45;&gt;Node14</title>
<path fill="none" stroke="midnightblue" d="M626.289,-56.324C614.724,-48.1066 597.125,-35.6017 583.339,-25.8069"/>
<polygon fill="midnightblue" stroke="midnightblue" points="585.112,-22.7729 574.933,-19.8339 581.057,-28.4791 585.112,-22.7729"/>
</g>
<!-- Node16 -->
<g id="node16" class="node"><title>Node16</title>
<g id="a_node16"><a xlink:href="statisticSource_8h.html" target="_top" xlink:title="statisticSource.h">
<polygon fill="white" stroke="black" points="358.5,-112.5 358.5,-131.5 448.5,-131.5 448.5,-112.5 358.5,-112.5"/>
<text text-anchor="middle" x="403.5" y="-119.5" font-family="Helvetica,sans-Serif" font-size="10.00">statisticSource.h</text>
</a>
</g>
</g>
<!-- Node15&#45;&gt;Node16 -->
<g id="edge15" class="edge"><title>Node15&#45;&gt;Node16</title>
<path fill="none" stroke="midnightblue" d="M317.888,-168.324C334.171,-159.703 359.367,-146.364 378.216,-136.386"/>
<polygon fill="midnightblue" stroke="midnightblue" points="379.952,-139.427 387.153,-131.655 376.677,-133.24 379.952,-139.427"/>
</g>
<!-- Node20 -->
<g id="node20" class="node"><title>Node20</title>
<polygon fill="white" stroke="#bfbfbf" points="230.5,-112.5 230.5,-131.5 282.5,-131.5 282.5,-112.5 230.5,-112.5"/>
<text text-anchor="middle" x="256.5" y="-119.5" font-family="Helvetica,sans-Serif" font-size="10.00">QFuture</text>
</g>
<!-- Node15&#45;&gt;Node20 -->
<g id="edge24" class="edge"><title>Node15&#45;&gt;Node20</title>
<path fill="none" stroke="midnightblue" d="M294.069,-168.083C287.647,-160.377 278.194,-149.033 270.378,-139.653"/>
<polygon fill="midnightblue" stroke="midnightblue" points="272.883,-137.193 263.793,-131.751 267.506,-141.674 272.883,-137.193"/>
</g>
<!-- Node21 -->
<g id="node21" class="node"><title>Node21</title>
<polygon fill="white" stroke="#bfbfbf" points="300.5,-112.5 300.5,-131.5 340.5,-131.5 340.5,-112.5 300.5,-112.5"/>
<text text-anchor="middle" x="320.5" y="-119.5" font-family="Helvetica,sans-Serif" font-size="10.00">QFile</text>
</g>
<!-- Node15&#45;&gt;Node21 -->
<g id="edge25" class="edge"><title>Node15&#45;&gt;Node21</title>
<path fill="none" stroke="midnightblue" d="M304.637,-168.083C307.183,-160.849 310.856,-150.409 314.027,-141.397"/>
<polygon fill="midnightblue" stroke="midnightblue" points="317.403,-142.346 317.421,-131.751 310.8,-140.023 317.403,-142.346"/>
</g>
<!-- Node16&#45;&gt;Node8 -->
<g id="edge16" class="edge"><title>Node16&#45;&gt;Node8</title>
<path fill="none" stroke="midnightblue" d="M407.793,-112.083C411.352,-104.691 416.522,-93.9533 420.924,-84.8111"/>
<polygon fill="midnightblue" stroke="midnightblue" points="424.102,-86.2795 425.287,-75.7511 417.795,-83.2427 424.102,-86.2795"/>
</g>
<!-- Node16&#45;&gt;Node9 -->
<g id="edge17" class="edge"><title>Node16&#45;&gt;Node9</title>
<path fill="none" stroke="midnightblue" d="M419.406,-112.324C435.138,-103.743 459.442,-90.486 477.709,-80.5224"/>
<polygon fill="midnightblue" stroke="midnightblue" points="479.53,-83.5157 486.633,-75.6545 476.178,-77.3704 479.53,-83.5157"/>
</g>
<!-- Node16&#45;&gt;Node10 -->
<g id="edge18" class="edge"><title>Node16&#45;&gt;Node10</title>
<path fill="none" stroke="midnightblue" d="M400.827,-112.181C397.373,-99.6934 392.075,-76.1329 394.5,-56 395.571,-47.1069 397.792,-37.4344 399.96,-29.344"/>
<polygon fill="midnightblue" stroke="midnightblue" points="403.387,-30.0908 402.77,-19.5139 396.656,-28.1668 403.387,-30.0908"/>
</g>
<!-- Node17 -->
<g id="node17" class="node"><title>Node17</title>
<g id="a_node17"><a xlink:href="statisticsextensions_8h.html" target="_top" xlink:title="statisticsextensions.h">
<polygon fill="white" stroke="black" points="234.5,-56.5 234.5,-75.5 346.5,-75.5 346.5,-56.5 234.5,-56.5"/>
<text text-anchor="middle" x="290.5" y="-63.5" font-family="Helvetica,sans-Serif" font-size="10.00">statisticsextensions.h</text>
</a>
</g>
</g>
<!-- Node16&#45;&gt;Node17 -->
<g id="edge19" class="edge"><title>Node16&#45;&gt;Node17</title>
<path fill="none" stroke="midnightblue" d="M385.595,-112.444C367.246,-103.675 338.495,-89.9355 317.406,-79.8579"/>
<polygon fill="midnightblue" stroke="midnightblue" points="318.853,-76.6703 308.321,-75.5164 315.835,-82.9862 318.853,-76.6703"/>
</g>
<!-- Node17&#45;&gt;Node4 -->
<g id="edge20" class="edge"><title>Node17&#45;&gt;Node4</title>
<path fill="none" stroke="midnightblue" d="M276.361,-56.324C262.634,-47.9002 241.564,-34.9709 225.436,-25.0741"/>
<polygon fill="midnightblue" stroke="midnightblue" points="226.957,-21.9016 216.604,-19.6545 223.296,-27.8678 226.957,-21.9016"/>
</g>
<!-- Node17&#45;&gt;Node10 -->
<g id="edge22" class="edge"><title>Node17&#45;&gt;Node10</title>
<path fill="none" stroke="midnightblue" d="M308.722,-56.4435C327.396,-47.6751 356.656,-33.9355 378.117,-23.8579"/>
<polygon fill="midnightblue" stroke="midnightblue" points="379.799,-26.935 387.363,-19.5164 376.824,-20.5988 379.799,-26.935"/>
</g>
<!-- Node18 -->
<g id="node18" class="node"><title>Node18</title>
<polygon fill="white" stroke="#bfbfbf" points="253,-0.5 253,-19.5 296,-19.5 296,-0.5 253,-0.5"/>
<text text-anchor="middle" x="274.5" y="-7.5" font-family="Helvetica,sans-Serif" font-size="10.00">QMap</text>
</g>
<!-- Node17&#45;&gt;Node18 -->
<g id="edge21" class="edge"><title>Node17&#45;&gt;Node18</title>
<path fill="none" stroke="midnightblue" d="M287.858,-56.083C285.714,-48.8486 282.621,-38.4087 279.951,-29.3968"/>
<polygon fill="midnightblue" stroke="midnightblue" points="283.29,-28.3447 277.093,-19.7511 276.578,-30.3334 283.29,-28.3447"/>
</g>
<!-- Node19 -->
<g id="node19" class="node"><title>Node19</title>
<polygon fill="white" stroke="#bfbfbf" points="314.5,-0.5 314.5,-19.5 358.5,-19.5 358.5,-0.5 314.5,-0.5"/>
<text text-anchor="middle" x="336.5" y="-7.5" font-family="Helvetica,sans-Serif" font-size="10.00">cmath</text>
</g>
<!-- Node17&#45;&gt;Node19 -->
<g id="edge23" class="edge"><title>Node17&#45;&gt;Node19</title>
<path fill="none" stroke="midnightblue" d="M298.096,-56.083C304.727,-48.2982 314.521,-36.8015 322.558,-27.3665"/>
<polygon fill="midnightblue" stroke="midnightblue" points="325.225,-29.6332 329.045,-19.7511 319.896,-25.0939 325.225,-29.6332"/>
</g>
</g>
</svg>
        <g id="navigator" transform="translate(0 0)" fill="#404254">
                <rect fill="#f2f5e9" fill-opacity="0.5" stroke="#606060" stroke-width=".5" x="0" y="0" width="60" height="60"/>
                <use id="zoomplus" xlink:href="#zoomPlus" x="17" y="9" onmousedown="handleZoom(evt,'in')"/>
                <use id="zoomminus" xlink:href="#zoomMin" x="42" y="9" onmousedown="handleZoom(evt,'out')"/>
                <use id="reset" xlink:href="#resetDef" x="30" y="36" onmousedown="handleReset()"/>
                <g id="arrowUp" xlink:href="#dirArrow" transform="translate(30 24)" onmousedown="handlePan(0,-1)">
                  <use xlink:href="#rim" fill="#404040">
                        <set attributeName="fill" to="#808080" begin="arrowUp.mouseover" end="arrowUp.mouseout"/>
                  </use>
                  <path fill="none" stroke="white" stroke-width="1.5" d="M0,-3.0v7 M-2.5,-0.5L0,-3.0L2.5,-0.5"/>
                </g>
                <g id="arrowRight" xlink:href="#dirArrow" transform="rotate(90) translate(36 -43)" onmousedown="handlePan(1,0)">
                  <use xlink:href="#rim" fill="#404040">
                        <set attributeName="fill" to="#808080" begin="arrowRight.mouseover" end="arrowRight.mouseout"/>
                  </use>
                  <path fill="none" stroke="white" stroke-width="1.5" d="M0,-3.0v7 M-2.5,-0.5L0,-3.0L2.5,-0.5"/>
                </g>
                <g id="arrowDown" xlink:href="#dirArrow" transform="rotate(180) translate(-30 -48)" onmousedown="handlePan(0,1)">
                  <use xlink:href="#rim" fill="#404040">
                        <set attributeName="fill" to="#808080" begin="arrowDown.mouseover" end="arrowDown.mouseout"/>
                  </use>
                  <path fill="none" stroke="white" stroke-width="1.5" d="M0,-3.0v7 M-2.5,-0.5L0,-3.0L2.5,-0.5"/>
                </g>
                <g id="arrowLeft" xlink:href="#dirArrow" transform="rotate(270) translate(-36 17)" onmousedown="handlePan(-1,0)">
                  <use xlink:href="#rim" fill="#404040">
                        <set attributeName="fill" to="#808080" begin="arrowLeft.mouseover" end="arrowLeft.mouseout"/>
                  </use>
                  <path fill="none" stroke="white" stroke-width="1.5" d="M0,-3.0v7 M-2.5,-0.5L0,-3.0L2.5,-0.5"/>
                </g>
        </g>
        <svg viewBox="0 0 15 15" width="100%" height="30px" preserveAspectRatio="xMaxYMin meet">
         <g id="arrow_out" transform="scale(0.3 0.3)">
          <a xlink:href="statslistmodel_8h__incl_org.svg" target="_base">
           <rect id="button" ry="5" rx="5" y="6" x="6" height="38" width="38"
                fill="#f2f5e9" fill-opacity="0.5" stroke="#606060" stroke-width="1.0"/>
           <path id="arrow"
             d="M 11.500037,31.436501 C 11.940474,20.09759 22.043105,11.32322 32.158766,21.979434 L 37.068811,17.246167 C 37.068811,17.246167 37.088388,32 37.088388,32 L 22.160133,31.978069 C 22.160133,31.978069 26.997745,27.140456 26.997745,27.140456 C 18.528582,18.264221 13.291696,25.230495 11.500037,31.436501 z"
             style="fill:#404040;"/>
          </a>
         </g>
        </svg>
</svg>
