<?xml version="1.0" encoding="UTF-8" standalone="no"?>
<!DOCTYPE svg PUBLIC "-//W3C//DTD SVG 1.1//EN"
 "http://www.w3.org/Graphics/SVG/1.1/DTD/svg11.dtd">
<!-- Generated by graphviz version 2.38.0 (20140413.2041)
 -->
<!-- Title: /home/ient/YUViewOrig/YUView/source/statslistview.h Pages: 1 -->
<svg width="169pt" height="95pt"
 viewBox="0.00 0.00 168.50 95.00" xmlns="http://www.w3.org/2000/svg" xmlns:xlink="http://www.w3.org/1999/xlink">
<g id="graph0" class="graph" transform="scale(1 1) rotate(0) translate(4 91)">
<title>/home/ient/YUViewOrig/YUView/source/statslistview.h</title>
<polygon fill="white" stroke="none" points="-4,4 -4,-91 164.5,-91 164.5,4 -4,4"/>
<!-- Node1 -->
<g id="node1" class="node"><title>Node1</title>
<polygon fill="#bfbfbf" stroke="black" points="0,-56.5 0,-86.5 154,-86.5 154,-56.5 0,-56.5"/>
<text text-anchor="start" x="8" y="-74.5" font-family="Helvetica,sans-Serif" font-size="10.00">/home/ient/YUViewOrig</text>
<text text-anchor="middle" x="77" y="-63.5" font-family="Helvetica,sans-Serif" font-size="10.00">/YUView/source/statslistview.h</text>
</g>
<!-- Node2 -->
<g id="node2" class="node"><title>Node2</title>
<polygon fill="white" stroke="#bfbfbf" points="2,-0.5 2,-19.5 64,-19.5 64,-0.5 2,-0.5"/>
<text text-anchor="middle" x="33" y="-7.5" font-family="Helvetica,sans-Serif" font-size="10.00">QListView</text>
</g>
<!-- Node1&#45;&gt;Node2 -->
<g id="edge1" class="edge"><title>Node1&#45;&gt;Node2</title>
<path fill="none" stroke="midnightblue" d="M66.5726,-56.3993C60.2448,-47.8424 52.1314,-36.8708 45.4657,-27.857"/>
<polygon fill="midnightblue" stroke="midnightblue" points="48.1624,-25.6171 39.4024,-19.6578 42.5341,-29.7792 48.1624,-25.6171"/>
</g>
<!-- Node3 -->
<g id="node3" class="node"><title>Node3</title>
<polygon fill="white" stroke="#bfbfbf" points="81.5,-0.5 81.5,-19.5 160.5,-19.5 160.5,-0.5 81.5,-0.5"/>
<text text-anchor="middle" x="121" y="-7.5" font-family="Helvetica,sans-Serif" font-size="10.00">QMouseEvent</text>
</g>
<!-- Node1&#45;&gt;Node3 -->
<g id="edge2" class="edge"><title>Node1&#45;&gt;Node3</title>
<path fill="none" stroke="midnightblue" d="M87.4274,-56.3993C93.7552,-47.8424 101.869,-36.8708 108.534,-27.857"/>
<polygon fill="midnightblue" stroke="midnightblue" points="111.466,-29.7792 114.598,-19.6578 105.838,-25.6171 111.466,-29.7792"/>
</g>
</g>
</svg>
