<?xml version="1.0" encoding="UTF-8" standalone="no"?>
<!DOCTYPE svg PUBLIC "-//W3C//DTD SVG 1.1//EN"
 "http://www.w3.org/Graphics/SVG/1.1/DTD/svg11.dtd">
<!-- Generated by graphviz version 2.38.0 (20140413.2041)
 -->
<!-- Title: /home/ient/YUViewOrig/YUView/source/statisticsextensions.h Pages: 1 -->
<svg width="272pt" height="95pt"
 viewBox="0.00 0.00 271.50 95.00" xmlns="http://www.w3.org/2000/svg" xmlns:xlink="http://www.w3.org/1999/xlink">
<g id="graph0" class="graph" transform="scale(1 1) rotate(0) translate(4 91)">
<title>/home/ient/YUViewOrig/YUView/source/statisticsextensions.h</title>
<polygon fill="white" stroke="none" points="-4,4 -4,-91 267.5,-91 267.5,4 -4,4"/>
<!-- Node1 -->
<g id="node1" class="node"><title>Node1</title>
<polygon fill="#bfbfbf" stroke="black" points="45.5,-56.5 45.5,-86.5 231.5,-86.5 231.5,-56.5 45.5,-56.5"/>
<text text-anchor="start" x="53.5" y="-74.5" font-family="Helvetica,sans-Serif" font-size="10.00">/home/ient/YUViewOrig</text>
<text text-anchor="middle" x="138.5" y="-63.5" font-family="Helvetica,sans-Serif" font-size="10.00">/YUView/source/statisticsextensions.h</text>
</g>
<!-- Node2 -->
<g id="node2" class="node"><title>Node2</title>
<polygon fill="white" stroke="#bfbfbf" points="0,-0.5 0,-19.5 65,-19.5 65,-0.5 0,-0.5"/>
<text text-anchor="middle" x="32.5" y="-7.5" font-family="Helvetica,sans-Serif" font-size="10.00">QStringList</text>
</g>
<!-- Node1&#45;&gt;Node2 -->
<g id="edge1" class="edge"><title>Node1&#45;&gt;Node2</title>
<path fill="none" stroke="midnightblue" d="M113.379,-56.3993C96.2297,-46.7728 73.6354,-34.0902 56.6879,-24.5772"/>
<polygon fill="midnightblue" stroke="midnightblue" points="58.3573,-21.5006 47.9239,-19.6578 54.9309,-27.6047 58.3573,-21.5006"/>
</g>
<!-- Node3 -->
<g id="node3" class="node"><title>Node3</title>
<polygon fill="white" stroke="#bfbfbf" points="83,-0.5 83,-19.5 126,-19.5 126,-0.5 83,-0.5"/>
<text text-anchor="middle" x="104.5" y="-7.5" font-family="Helvetica,sans-Serif" font-size="10.00">QMap</text>
</g>
<!-- Node1&#45;&gt;Node3 -->
<g id="edge2" class="edge"><title>Node1&#45;&gt;Node3</title>
<path fill="none" stroke="midnightblue" d="M130.442,-56.3993C125.655,-48.0207 119.544,-37.3269 114.456,-28.4229"/>
<polygon fill="midnightblue" stroke="midnightblue" points="117.448,-26.6037 109.447,-19.6578 111.37,-30.0767 117.448,-26.6037"/>
</g>
<!-- Node4 -->
<g id="node4" class="node"><title>Node4</title>
<g id="a_node4"><a xlink:href="typedef_8h.html" target="_top" xlink:title="typedef.h">
<polygon fill="white" stroke="black" points="144,-0.5 144,-19.5 201,-19.5 201,-0.5 144,-0.5"/>
<text text-anchor="middle" x="172.5" y="-7.5" font-family="Helvetica,sans-Serif" font-size="10.00">typedef.h</text>
</a>
</g>
</g>
<!-- Node1&#45;&gt;Node4 -->
<g id="edge3" class="edge"><title>Node1&#45;&gt;Node4</title>
<path fill="none" stroke="midnightblue" d="M146.558,-56.3993C151.345,-48.0207 157.456,-37.3269 162.544,-28.4229"/>
<polygon fill="midnightblue" stroke="midnightblue" points="165.63,-30.0767 167.553,-19.6578 159.552,-26.6037 165.63,-30.0767"/>
</g>
<!-- Node5 -->
<g id="node5" class="node"><title>Node5</title>
<polygon fill="white" stroke="#bfbfbf" points="219.5,-0.5 219.5,-19.5 263.5,-19.5 263.5,-0.5 219.5,-0.5"/>
<text text-anchor="middle" x="241.5" y="-7.5" font-family="Helvetica,sans-Serif" font-size="10.00">cmath</text>
</g>
<!-- Node1&#45;&gt;Node5 -->
<g id="edge4" class="edge"><title>Node1&#45;&gt;Node5</title>
<path fill="none" stroke="midnightblue" d="M162.91,-56.3993C179.42,-46.8619 201.123,-34.3248 217.538,-24.8422"/>
<polygon fill="midnightblue" stroke="midnightblue" points="219.604,-27.6906 226.513,-19.6578 216.103,-21.6292 219.604,-27.6906"/>
</g>
</g>
</svg>
