<?xml version="1.0" encoding="UTF-8" standalone="no"?>
<!DOCTYPE svg PUBLIC "-//W3C//DTD SVG 1.1//EN"
 "http://www.w3.org/Graphics/SVG/1.1/DTD/svg11.dtd">
<!-- Generated by graphviz version 2.38.0 (20140413.2041)
 -->
<!-- Title: /home/ient/YUViewOrig/YUView/source/statisticsobject.cpp Pages: 1 -->
<!--zoomable 319 -->
<svg id="main" version="1.1" xmlns="http://www.w3.org/2000/svg" xmlns:xlink="http://www.w3.org/1999/xlink" xml:space="preserve" onload="init(evt)">
<style type="text/css"><![CDATA[
.edge:hover path { stroke: red; }
.edge:hover polygon { stroke: red; fill: red; }
]]></style>
<script type="text/javascript"><![CDATA[
var edges = document.getElementsByTagName('g');
if (edges && edges.length) {
  for (var i=0;i<edges.length;i++) {
    if (edges[i].id.substr(0,4)=='edge') {
      edges[i].setAttribute('class','edge');
    }
  }
}
]]></script>
        <defs>
                <circle id="rim" cx="0" cy="0" r="7"/>
                <circle id="rim2" cx="0" cy="0" r="3.5"/>
                <g id="zoomPlus">
                        <use xlink:href="#rim" fill="#404040">
                                <set attributeName="fill" to="#808080" begin="zoomplus.mouseover" end="zoomplus.mouseout"/>
                        </use>
                        <path d="M-4,0h8M0,-4v8" fill="none" stroke="white" stroke-width="1.5" pointer-events="none"/>
                </g>
                <g id="zoomMin">
                        <use xlink:href="#rim" fill="#404040">
                                <set attributeName="fill" to="#808080" begin="zoomminus.mouseover" end="zoomminus.mouseout"/>
                        </use>
                        <path d="M-4,0h8" fill="none" stroke="white" stroke-width="1.5" pointer-events="none"/>
                </g>
                <g id="dirArrow">
                        <path fill="none" stroke="white" stroke-width="1.5" d="M0,-3.0v7 M-2.5,-0.5L0,-3.0L2.5,-0.5"/>
                </g>
               <g id="resetDef">
                       <use xlink:href="#rim2" fill="#404040">
                               <set attributeName="fill" to="#808080" begin="reset.mouseover" end="reset.mouseout"/>
                       </use>
               </g>
        </defs>

<script type="text/javascript">
var viewWidth = 797;
var viewHeight = 319;
var sectionId = 'dynsection-0';
</script>
<script xlink:href="svgpan.js"/>
<svg id="graph" class="graph">
<g id="viewport">
<title>/home/ient/YUViewOrig/YUView/source/statisticsobject.cpp</title>
<polygon fill="white" stroke="none" points="-4,4 -4,-315 792.5,-315 792.5,4 -4,4"/>
<!-- Node1 -->
<g id="node1" class="node"><title>Node1</title>
<polygon fill="#bfbfbf" stroke="black" points="527.5,-280.5 527.5,-310.5 703.5,-310.5 703.5,-280.5 527.5,-280.5"/>
<text text-anchor="start" x="535.5" y="-298.5" font-family="Helvetica,sans-Serif" font-size="10.00">/home/ient/YUViewOrig</text>
<text text-anchor="middle" x="615.5" y="-287.5" font-family="Helvetica,sans-Serif" font-size="10.00">/YUView/source/statisticsobject.cpp</text>
</g>
<!-- Node2 -->
<g id="node2" class="node"><title>Node2</title>
<g id="a_node2"><a xlink:href="statisticsobject_8h.html" target="_top" xlink:title="statisticsobject.h">
<polygon fill="white" stroke="black" points="353,-224.5 353,-243.5 444,-243.5 444,-224.5 353,-224.5"/>
<text text-anchor="middle" x="398.5" y="-231.5" font-family="Helvetica,sans-Serif" font-size="10.00">statisticsobject.h</text>
</a>
</g>
</g>
<!-- Node1&#45;&gt;Node2 -->
<g id="edge1" class="edge"><title>Node1&#45;&gt;Node2</title>
<path fill="none" stroke="midnightblue" d="M564.349,-280.475C526.258,-270.03 474.934,-255.958 439.518,-246.247"/>
<polygon fill="midnightblue" stroke="midnightblue" points="440.093,-242.775 429.523,-243.506 438.242,-249.526 440.093,-242.775"/>
</g>
<!-- Node19 -->
<g id="node19" class="node"><title>Node19</title>
<g id="a_node19"><a xlink:href="yuvfile_8h.html" target="_top" xlink:title="yuvfile.h">
<polygon fill="white" stroke="black" points="589,-168.5 589,-187.5 642,-187.5 642,-168.5 589,-168.5"/>
<text text-anchor="middle" x="615.5" y="-175.5" font-family="Helvetica,sans-Serif" font-size="10.00">yuvfile.h</text>
</a>
</g>
</g>
<!-- Node1&#45;&gt;Node19 -->
<g id="edge22" class="edge"><title>Node1&#45;&gt;Node19</title>
<path fill="none" stroke="midnightblue" d="M615.5,-280.337C615.5,-259.622 615.5,-221.016 615.5,-197.899"/>
<polygon fill="midnightblue" stroke="midnightblue" points="619,-197.669 615.5,-187.669 612,-197.669 619,-197.669"/>
</g>
<!-- Node23 -->
<g id="node23" class="node"><title>Node23</title>
<g id="a_node23"><a xlink:href="common_8h.html" target="_top" xlink:title="common.h">
<polygon fill="white" stroke="black" points="665.5,-224.5 665.5,-243.5 727.5,-243.5 727.5,-224.5 665.5,-224.5"/>
<text text-anchor="middle" x="696.5" y="-231.5" font-family="Helvetica,sans-Serif" font-size="10.00">common.h</text>
</a>
</g>
</g>
<!-- Node1&#45;&gt;Node23 -->
<g id="edge31" class="edge"><title>Node1&#45;&gt;Node23</title>
<path fill="none" stroke="midnightblue" d="M634.696,-280.399C647.316,-271.129 663.793,-259.025 676.561,-249.647"/>
<polygon fill="midnightblue" stroke="midnightblue" points="678.727,-252.399 684.714,-243.658 674.582,-246.757 678.727,-252.399"/>
</g>
<!-- Node3 -->
<g id="node3" class="node"><title>Node3</title>
<g id="a_node3"><a xlink:href="displayobject_8h.html" target="_top" xlink:title="displayobject.h">
<polygon fill="white" stroke="black" points="164.5,-112.5 164.5,-131.5 246.5,-131.5 246.5,-112.5 164.5,-112.5"/>
<text text-anchor="middle" x="205.5" y="-119.5" font-family="Helvetica,sans-Serif" font-size="10.00">displayobject.h</text>
</a>
</g>
</g>
<!-- Node2&#45;&gt;Node3 -->
<g id="edge2" class="edge"><title>Node2&#45;&gt;Node3</title>
<path fill="none" stroke="midnightblue" d="M383.356,-224.368C349.955,-205.332 269.743,-159.615 229.45,-136.65"/>
<polygon fill="midnightblue" stroke="midnightblue" points="230.995,-133.502 220.574,-131.591 227.529,-139.584 230.995,-133.502"/>
</g>
<!-- Node11 -->
<g id="node11" class="node"><title>Node11</title>
<g id="a_node11"><a xlink:href="statisticSourceFile_8h.html" target="_top" xlink:title="statisticSourceFile.h">
<polygon fill="white" stroke="black" points="345.5,-168.5 345.5,-187.5 451.5,-187.5 451.5,-168.5 345.5,-168.5"/>
<text text-anchor="middle" x="398.5" y="-175.5" font-family="Helvetica,sans-Serif" font-size="10.00">statisticSourceFile.h</text>
</a>
</g>
</g>
<!-- Node2&#45;&gt;Node11 -->
<g id="edge10" class="edge"><title>Node2&#45;&gt;Node11</title>
<path fill="none" stroke="midnightblue" d="M398.5,-224.083C398.5,-217.006 398.5,-206.861 398.5,-197.986"/>
<polygon fill="midnightblue" stroke="midnightblue" points="402,-197.751 398.5,-187.751 395,-197.751 402,-197.751"/>
</g>
<!-- Node4 -->
<g id="node4" class="node"><title>Node4</title>
<polygon fill="white" stroke="#bfbfbf" points="509,-56.5 509,-75.5 562,-75.5 562,-56.5 509,-56.5"/>
<text text-anchor="middle" x="535.5" y="-63.5" font-family="Helvetica,sans-Serif" font-size="10.00">QObject</text>
</g>
<!-- Node3&#45;&gt;Node4 -->
<g id="edge3" class="edge"><title>Node3&#45;&gt;Node4</title>
<path fill="none" stroke="midnightblue" d="M246.69,-113.523C249.67,-113.001 252.631,-112.489 255.5,-112 342.637,-97.157 445.264,-81.001 498.8,-72.6736"/>
<polygon fill="midnightblue" stroke="midnightblue" points="499.49,-76.1086 508.834,-71.1152 498.415,-69.1915 499.49,-76.1086"/>
</g>
<!-- Node5 -->
<g id="node5" class="node"><title>Node5</title>
<polygon fill="white" stroke="#bfbfbf" points="187,-56.5 187,-75.5 244,-75.5 244,-56.5 187,-56.5"/>
<text text-anchor="middle" x="215.5" y="-63.5" font-family="Helvetica,sans-Serif" font-size="10.00">QPixmap</text>
</g>
<!-- Node3&#45;&gt;Node5 -->
<g id="edge4" class="edge"><title>Node3&#45;&gt;Node5</title>
<path fill="none" stroke="midnightblue" d="M207.151,-112.083C208.476,-104.927 210.382,-94.6353 212.039,-85.6911"/>
<polygon fill="midnightblue" stroke="midnightblue" points="215.5,-86.2212 213.879,-75.7511 208.617,-84.9466 215.5,-86.2212"/>
</g>
<!-- Node6 -->
<g id="node6" class="node"><title>Node6</title>
<g id="a_node6"><a xlink:href="typedef_8h.html" target="_top" xlink:title="typedef.h">
<polygon fill="white" stroke="black" points="448,-0.5 448,-19.5 505,-19.5 505,-0.5 448,-0.5"/>
<text text-anchor="middle" x="476.5" y="-7.5" font-family="Helvetica,sans-Serif" font-size="10.00">typedef.h</text>
</a>
</g>
</g>
<!-- Node3&#45;&gt;Node6 -->
<g id="edge5" class="edge"><title>Node3&#45;&gt;Node6</title>
<path fill="none" stroke="midnightblue" d="M246.946,-112.601C300.299,-101.617 387.803,-82.9556 401.5,-76 425.61,-63.7563 448.346,-42.0963 462.331,-27.1665"/>
<polygon fill="midnightblue" stroke="midnightblue" points="465.013,-29.4194 469.153,-19.6671 459.835,-24.7089 465.013,-29.4194"/>
</g>
<!-- Node7 -->
<g id="node7" class="node"><title>Node7</title>
<g id="a_node7"><a xlink:href="FileInfoGroupBox_8h.html" target="_top" xlink:title="FileInfoGroupBox.h">
<polygon fill="white" stroke="black" points="58,-56.5 58,-75.5 159,-75.5 159,-56.5 58,-56.5"/>
<text text-anchor="middle" x="108.5" y="-63.5" font-family="Helvetica,sans-Serif" font-size="10.00">FileInfoGroupBox.h</text>
</a>
</g>
</g>
<!-- Node3&#45;&gt;Node7 -->
<g id="edge6" class="edge"><title>Node3&#45;&gt;Node7</title>
<path fill="none" stroke="midnightblue" d="M189.915,-112.324C174.501,-103.743 150.688,-90.486 132.79,-80.5224"/>
<polygon fill="midnightblue" stroke="midnightblue" points="134.486,-77.4606 124.046,-75.6545 131.081,-83.5767 134.486,-77.4606"/>
</g>
<!-- Node8 -->
<g id="node8" class="node"><title>Node8</title>
<polygon fill="white" stroke="#bfbfbf" points="65.5,-0.5 65.5,-19.5 133.5,-19.5 133.5,-0.5 65.5,-0.5"/>
<text text-anchor="middle" x="99.5" y="-7.5" font-family="Helvetica,sans-Serif" font-size="10.00">QGroupBox</text>
</g>
<!-- Node7&#45;&gt;Node8 -->
<g id="edge7" class="edge"><title>Node7&#45;&gt;Node8</title>
<path fill="none" stroke="midnightblue" d="M107.014,-56.083C105.821,-48.9272 104.106,-38.6353 102.615,-29.6911"/>
<polygon fill="midnightblue" stroke="midnightblue" points="106.055,-29.0396 100.959,-19.7511 99.1502,-30.1904 106.055,-29.0396"/>
</g>
<!-- Node9 -->
<g id="node9" class="node"><title>Node9</title>
<polygon fill="white" stroke="#bfbfbf" points="152,-0.5 152,-19.5 223,-19.5 223,-0.5 152,-0.5"/>
<text text-anchor="middle" x="187.5" y="-7.5" font-family="Helvetica,sans-Serif" font-size="10.00">QGridLayout</text>
</g>
<!-- Node7&#45;&gt;Node9 -->
<g id="edge8" class="edge"><title>Node7&#45;&gt;Node9</title>
<path fill="none" stroke="midnightblue" d="M121.193,-56.324C133.401,-47.979 152.078,-35.2122 166.503,-25.3524"/>
<polygon fill="midnightblue" stroke="midnightblue" points="168.558,-28.1871 174.839,-19.6545 164.608,-22.4082 168.558,-28.1871"/>
</g>
<!-- Node10 -->
<g id="node10" class="node"><title>Node10</title>
<polygon fill="white" stroke="#bfbfbf" points="0,-0.5 0,-19.5 47,-19.5 47,-0.5 0,-0.5"/>
<text text-anchor="middle" x="23.5" y="-7.5" font-family="Helvetica,sans-Serif" font-size="10.00">QLabel</text>
</g>
<!-- Node7&#45;&gt;Node10 -->
<g id="edge9" class="edge"><title>Node7&#45;&gt;Node10</title>
<path fill="none" stroke="midnightblue" d="M94.8433,-56.324C81.5837,-47.9002 61.232,-34.9709 45.6538,-25.0741"/>
<polygon fill="midnightblue" stroke="midnightblue" points="47.4404,-22.0626 37.1228,-19.6545 43.6867,-27.9711 47.4404,-22.0626"/>
</g>
<!-- Node12 -->
<g id="node12" class="node"><title>Node12</title>
<g id="a_node12"><a xlink:href="statisticSource_8h.html" target="_top" xlink:title="statisticSource.h">
<polygon fill="white" stroke="black" points="264.5,-112.5 264.5,-131.5 354.5,-131.5 354.5,-112.5 264.5,-112.5"/>
<text text-anchor="middle" x="309.5" y="-119.5" font-family="Helvetica,sans-Serif" font-size="10.00">statisticSource.h</text>
</a>
</g>
</g>
<!-- Node11&#45;&gt;Node12 -->
<g id="edge11" class="edge"><title>Node11&#45;&gt;Node12</title>
<path fill="none" stroke="midnightblue" d="M384.201,-168.324C370.317,-159.9 349.008,-146.971 332.696,-137.074"/>
<polygon fill="midnightblue" stroke="midnightblue" points="334.129,-133.85 323.764,-131.655 330.498,-139.834 334.129,-133.85"/>
</g>
<!-- Node17 -->
<g id="node17" class="node"><title>Node17</title>
<polygon fill="white" stroke="#bfbfbf" points="372.5,-112.5 372.5,-131.5 424.5,-131.5 424.5,-112.5 372.5,-112.5"/>
<text text-anchor="middle" x="398.5" y="-119.5" font-family="Helvetica,sans-Serif" font-size="10.00">QFuture</text>
</g>
<!-- Node11&#45;&gt;Node17 -->
<g id="edge20" class="edge"><title>Node11&#45;&gt;Node17</title>
<path fill="none" stroke="midnightblue" d="M398.5,-168.083C398.5,-161.006 398.5,-150.861 398.5,-141.986"/>
<polygon fill="midnightblue" stroke="midnightblue" points="402,-141.751 398.5,-131.751 395,-141.751 402,-141.751"/>
</g>
<!-- Node18 -->
<g id="node18" class="node"><title>Node18</title>
<polygon fill="white" stroke="#bfbfbf" points="442.5,-112.5 442.5,-131.5 482.5,-131.5 482.5,-112.5 442.5,-112.5"/>
<text text-anchor="middle" x="462.5" y="-119.5" font-family="Helvetica,sans-Serif" font-size="10.00">QFile</text>
</g>
<!-- Node11&#45;&gt;Node18 -->
<g id="edge21" class="edge"><title>Node11&#45;&gt;Node18</title>
<path fill="none" stroke="midnightblue" d="M408.783,-168.324C418.336,-160.263 432.78,-148.077 444.284,-138.369"/>
<polygon fill="midnightblue" stroke="midnightblue" points="446.644,-140.958 452.03,-131.834 442.13,-135.608 446.644,-140.958"/>
</g>
<!-- Node12&#45;&gt;Node4 -->
<g id="edge12" class="edge"><title>Node12&#45;&gt;Node4</title>
<path fill="none" stroke="midnightblue" d="M345.31,-112.444C387.279,-102.416 456.46,-85.8856 498.807,-75.7674"/>
<polygon fill="midnightblue" stroke="midnightblue" points="499.791,-79.1308 508.704,-73.4026 498.164,-72.3225 499.791,-79.1308"/>
</g>
<!-- Node12&#45;&gt;Node5 -->
<g id="edge13" class="edge"><title>Node12&#45;&gt;Node5</title>
<path fill="none" stroke="midnightblue" d="M294.397,-112.324C279.597,-103.822 256.806,-90.7288 239.518,-80.7975"/>
<polygon fill="midnightblue" stroke="midnightblue" points="240.98,-77.6009 230.565,-75.6545 237.493,-83.6707 240.98,-77.6009"/>
</g>
<!-- Node12&#45;&gt;Node6 -->
<g id="edge14" class="edge"><title>Node12&#45;&gt;Node6</title>
<path fill="none" stroke="midnightblue" d="M344.668,-112.427C379.099,-103.473 428.504,-88.9547 443.5,-76 457.542,-63.8691 466.325,-44.3112 471.266,-29.8135"/>
<polygon fill="midnightblue" stroke="midnightblue" points="474.714,-30.5076 474.319,-19.9201 468.026,-28.4433 474.714,-30.5076"/>
</g>
<!-- Node13 -->
<g id="node13" class="node"><title>Node13</title>
<g id="a_node13"><a xlink:href="statisticsextensions_8h.html" target="_top" xlink:title="statisticsextensions.h">
<polygon fill="white" stroke="black" points="280.5,-56.5 280.5,-75.5 392.5,-75.5 392.5,-56.5 280.5,-56.5"/>
<text text-anchor="middle" x="336.5" y="-63.5" font-family="Helvetica,sans-Serif" font-size="10.00">statisticsextensions.h</text>
</a>
</g>
</g>
<!-- Node12&#45;&gt;Node13 -->
<g id="edge15" class="edge"><title>Node12&#45;&gt;Node13</title>
<path fill="none" stroke="midnightblue" d="M313.959,-112.083C317.654,-104.691 323.023,-93.9533 327.594,-84.8111"/>
<polygon fill="midnightblue" stroke="midnightblue" points="330.783,-86.2606 332.124,-75.7511 324.522,-83.1301 330.783,-86.2606"/>
</g>
<!-- Node13&#45;&gt;Node6 -->
<g id="edge18" class="edge"><title>Node13&#45;&gt;Node6</title>
<path fill="none" stroke="midnightblue" d="M358.683,-56.4435C381.928,-47.4776 418.649,-33.314 444.915,-23.1827"/>
<polygon fill="midnightblue" stroke="midnightblue" points="446.35,-26.3807 454.42,-19.5164 443.831,-19.8497 446.35,-26.3807"/>
</g>
<!-- Node14 -->
<g id="node14" class="node"><title>Node14</title>
<polygon fill="white" stroke="#bfbfbf" points="304,-0.5 304,-19.5 369,-19.5 369,-0.5 304,-0.5"/>
<text text-anchor="middle" x="336.5" y="-7.5" font-family="Helvetica,sans-Serif" font-size="10.00">QStringList</text>
</g>
<!-- Node13&#45;&gt;Node14 -->
<g id="edge16" class="edge"><title>Node13&#45;&gt;Node14</title>
<path fill="none" stroke="midnightblue" d="M336.5,-56.083C336.5,-49.0059 336.5,-38.8611 336.5,-29.9865"/>
<polygon fill="midnightblue" stroke="midnightblue" points="340,-29.751 336.5,-19.7511 333,-29.7511 340,-29.751"/>
</g>
<!-- Node15 -->
<g id="node15" class="node"><title>Node15</title>
<polygon fill="white" stroke="#bfbfbf" points="387,-0.5 387,-19.5 430,-19.5 430,-0.5 387,-0.5"/>
<text text-anchor="middle" x="408.5" y="-7.5" font-family="Helvetica,sans-Serif" font-size="10.00">QMap</text>
</g>
<!-- Node13&#45;&gt;Node15 -->
<g id="edge17" class="edge"><title>Node13&#45;&gt;Node15</title>
<path fill="none" stroke="midnightblue" d="M348.068,-56.324C358.92,-48.1849 375.381,-35.8395 388.383,-26.0874"/>
<polygon fill="midnightblue" stroke="midnightblue" points="390.821,-28.6339 396.721,-19.8339 386.621,-23.0339 390.821,-28.6339"/>
</g>
<!-- Node16 -->
<g id="node16" class="node"><title>Node16</title>
<polygon fill="white" stroke="#bfbfbf" points="241.5,-0.5 241.5,-19.5 285.5,-19.5 285.5,-0.5 241.5,-0.5"/>
<text text-anchor="middle" x="263.5" y="-7.5" font-family="Helvetica,sans-Serif" font-size="10.00">cmath</text>
</g>
<!-- Node13&#45;&gt;Node16 -->
<g id="edge19" class="edge"><title>Node13&#45;&gt;Node16</title>
<path fill="none" stroke="midnightblue" d="M324.771,-56.324C313.663,-48.1066 296.758,-35.6017 283.517,-25.8069"/>
<polygon fill="midnightblue" stroke="midnightblue" points="285.563,-22.9671 275.442,-19.8339 281.4,-28.5948 285.563,-22.9671"/>
</g>
<!-- Node19&#45;&gt;Node4 -->
<g id="edge23" class="edge"><title>Node19&#45;&gt;Node4</title>
<path fill="none" stroke="midnightblue" d="M609.223,-168.368C596.02,-150.215 565.174,-107.802 547.856,-83.9902"/>
<polygon fill="midnightblue" stroke="midnightblue" points="550.461,-81.6202 541.748,-75.5914 544.799,-85.7374 550.461,-81.6202"/>
</g>
<!-- Node19&#45;&gt;Node6 -->
<g id="edge27" class="edge"><title>Node19&#45;&gt;Node6</title>
<path fill="none" stroke="midnightblue" d="M640.869,-168.432C668.191,-157.69 705.936,-137.545 691.5,-112 655.623,-48.517 566.738,-24.5457 515.185,-15.7903"/>
<polygon fill="midnightblue" stroke="midnightblue" points="515.516,-12.2991 505.091,-14.1894 514.42,-19.2127 515.516,-12.2991"/>
</g>
<!-- Node19&#45;&gt;Node18 -->
<g id="edge25" class="edge"><title>Node19&#45;&gt;Node18</title>
<path fill="none" stroke="midnightblue" d="M591.257,-168.444C564.423,-158.973 521.159,-143.703 492.284,-133.512"/>
<polygon fill="midnightblue" stroke="midnightblue" points="493.316,-130.165 482.721,-130.137 490.986,-136.766 493.316,-130.165"/>
</g>
<!-- Node20 -->
<g id="node20" class="node"><title>Node20</title>
<polygon fill="white" stroke="#bfbfbf" points="738.5,-112.5 738.5,-131.5 788.5,-131.5 788.5,-112.5 738.5,-112.5"/>
<text text-anchor="middle" x="763.5" y="-119.5" font-family="Helvetica,sans-Serif" font-size="10.00">QString</text>
</g>
<!-- Node19&#45;&gt;Node20 -->
<g id="edge24" class="edge"><title>Node19&#45;&gt;Node20</title>
<path fill="none" stroke="midnightblue" d="M638.951,-168.444C663.633,-159.438 702.685,-145.189 730.477,-135.049"/>
<polygon fill="midnightblue" stroke="midnightblue" points="731.964,-138.232 740.159,-131.516 729.565,-131.656 731.964,-138.232"/>
</g>
<!-- Node21 -->
<g id="node21" class="node"><title>Node21</title>
<polygon fill="white" stroke="#bfbfbf" points="500.5,-112.5 500.5,-131.5 556.5,-131.5 556.5,-112.5 500.5,-112.5"/>
<text text-anchor="middle" x="528.5" y="-119.5" font-family="Helvetica,sans-Serif" font-size="10.00">QFileInfo</text>
</g>
<!-- Node19&#45;&gt;Node21 -->
<g id="edge26" class="edge"><title>Node19&#45;&gt;Node21</title>
<path fill="none" stroke="midnightblue" d="M601.522,-168.324C587.95,-159.9 567.12,-146.971 551.175,-137.074"/>
<polygon fill="midnightblue" stroke="midnightblue" points="552.786,-133.954 542.443,-131.655 549.094,-139.902 552.786,-133.954"/>
</g>
<!-- Node22 -->
<g id="node22" class="node"><title>Node22</title>
<g id="a_node22"><a xlink:href="yuvsource_8h.html" target="_top" xlink:title="yuvsource.h">
<polygon fill="white" stroke="black" points="612.5,-112.5 612.5,-131.5 682.5,-131.5 682.5,-112.5 612.5,-112.5"/>
<text text-anchor="middle" x="647.5" y="-119.5" font-family="Helvetica,sans-Serif" font-size="10.00">yuvsource.h</text>
</a>
</g>
</g>
<!-- Node19&#45;&gt;Node22 -->
<g id="edge28" class="edge"><title>Node19&#45;&gt;Node22</title>
<path fill="none" stroke="midnightblue" d="M620.784,-168.083C625.211,-160.613 631.663,-149.724 637.118,-140.52"/>
<polygon fill="midnightblue" stroke="midnightblue" points="640.227,-142.138 642.314,-131.751 634.205,-138.57 640.227,-142.138"/>
</g>
<!-- Node22&#45;&gt;Node4 -->
<g id="edge29" class="edge"><title>Node22&#45;&gt;Node4</title>
<path fill="none" stroke="midnightblue" d="M629.505,-112.324C611.462,-103.625 583.453,-90.1202 562.697,-80.113"/>
<polygon fill="midnightblue" stroke="midnightblue" points="563.978,-76.8449 553.45,-75.6545 560.938,-83.1502 563.978,-76.8449"/>
</g>
<!-- Node22&#45;&gt;Node6 -->
<g id="edge30" class="edge"><title>Node22&#45;&gt;Node6</title>
<path fill="none" stroke="midnightblue" d="M638.768,-112.154C625.244,-98.7872 598.018,-73.1834 571.5,-56 551.546,-43.0698 527.295,-31.6451 508.291,-23.5426"/>
<polygon fill="midnightblue" stroke="midnightblue" points="509.458,-20.2372 498.881,-19.618 506.763,-26.6978 509.458,-20.2372"/>
</g>
<!-- Node23&#45;&gt;Node20 -->
<g id="edge32" class="edge"><title>Node23&#45;&gt;Node20</title>
<path fill="none" stroke="midnightblue" d="M701.757,-224.368C712.765,-206.296 738.42,-164.176 752.958,-140.307"/>
<polygon fill="midnightblue" stroke="midnightblue" points="756.054,-141.953 758.267,-131.591 750.076,-138.311 756.054,-141.953"/>
</g>
</g>
</svg>
        <g id="navigator" transform="translate(0 0)" fill="#404254">
                <rect fill="#f2f5e9" fill-opacity="0.5" stroke="#606060" stroke-width=".5" x="0" y="0" width="60" height="60"/>
                <use id="zoomplus" xlink:href="#zoomPlus" x="17" y="9" onmousedown="handleZoom(evt,'in')"/>
                <use id="zoomminus" xlink:href="#zoomMin" x="42" y="9" onmousedown="handleZoom(evt,'out')"/>
                <use id="reset" xlink:href="#resetDef" x="30" y="36" onmousedown="handleReset()"/>
                <g id="arrowUp" xlink:href="#dirArrow" transform="translate(30 24)" onmousedown="handlePan(0,-1)">
                  <use xlink:href="#rim" fill="#404040">
                        <set attributeName="fill" to="#808080" begin="arrowUp.mouseover" end="arrowUp.mouseout"/>
                  </use>
                  <path fill="none" stroke="white" stroke-width="1.5" d="M0,-3.0v7 M-2.5,-0.5L0,-3.0L2.5,-0.5"/>
                </g>
                <g id="arrowRight" xlink:href="#dirArrow" transform="rotate(90) translate(36 -43)" onmousedown="handlePan(1,0)">
                  <use xlink:href="#rim" fill="#404040">
                        <set attributeName="fill" to="#808080" begin="arrowRight.mouseover" end="arrowRight.mouseout"/>
                  </use>
                  <path fill="none" stroke="white" stroke-width="1.5" d="M0,-3.0v7 M-2.5,-0.5L0,-3.0L2.5,-0.5"/>
                </g>
                <g id="arrowDown" xlink:href="#dirArrow" transform="rotate(180) translate(-30 -48)" onmousedown="handlePan(0,1)">
                  <use xlink:href="#rim" fill="#404040">
                        <set attributeName="fill" to="#808080" begin="arrowDown.mouseover" end="arrowDown.mouseout"/>
                  </use>
                  <path fill="none" stroke="white" stroke-width="1.5" d="M0,-3.0v7 M-2.5,-0.5L0,-3.0L2.5,-0.5"/>
                </g>
                <g id="arrowLeft" xlink:href="#dirArrow" transform="rotate(270) translate(-36 17)" onmousedown="handlePan(-1,0)">
                  <use xlink:href="#rim" fill="#404040">
                        <set attributeName="fill" to="#808080" begin="arrowLeft.mouseover" end="arrowLeft.mouseout"/>
                  </use>
                  <path fill="none" stroke="white" stroke-width="1.5" d="M0,-3.0v7 M-2.5,-0.5L0,-3.0L2.5,-0.5"/>
                </g>
        </g>
        <svg viewBox="0 0 15 15" width="100%" height="30px" preserveAspectRatio="xMaxYMin meet">
         <g id="arrow_out" transform="scale(0.3 0.3)">
          <a xlink:href="statisticsobject_8cpp__incl_org.svg" target="_base">
           <rect id="button" ry="5" rx="5" y="6" x="6" height="38" width="38"
                fill="#f2f5e9" fill-opacity="0.5" stroke="#606060" stroke-width="1.0"/>
           <path id="arrow"
             d="M 11.500037,31.436501 C 11.940474,20.09759 22.043105,11.32322 32.158766,21.979434 L 37.068811,17.246167 C 37.068811,17.246167 37.088388,32 37.088388,32 L 22.160133,31.978069 C 22.160133,31.978069 26.997745,27.140456 26.997745,27.140456 C 18.528582,18.264221 13.291696,25.230495 11.500037,31.436501 z"
             style="fill:#404040;"/>
          </a>
         </g>
        </svg>
</svg>
