<?xml version="1.0" encoding="UTF-8" standalone="no"?>
<!DOCTYPE svg PUBLIC "-//W3C//DTD SVG 1.1//EN"
 "http://www.w3.org/Graphics/SVG/1.1/DTD/svg11.dtd">
<!-- Generated by graphviz version 2.38.0 (20140413.2041)
 -->
<!-- Title: StatisticsItem Pages: 1 -->
<svg width="353pt" height="106pt"
 viewBox="0.00 0.00 352.50 106.00" xmlns="http://www.w3.org/2000/svg" xmlns:xlink="http://www.w3.org/1999/xlink">
<g id="graph0" class="graph" transform="scale(1 1) rotate(0) translate(4 102)">
<title>StatisticsItem</title>
<polygon fill="white" stroke="none" points="-4,4 -4,-102 348.5,-102 348.5,4 -4,4"/>
<!-- Node1 -->
<g id="node1" class="node"><title>Node1</title>
<polygon fill="#bfbfbf" stroke="black" points="134,-0.5 134,-19.5 211,-19.5 211,-0.5 134,-0.5"/>
<text text-anchor="middle" x="172.5" y="-7.5" font-family="Helvetica,sans-Serif" font-size="10.00">StatisticsItem</text>
</g>
<!-- Node2 -->
<g id="node2" class="node"><title>Node2</title>
<polygon fill="white" stroke="#bfbfbf" points="0,-78.5 0,-97.5 65,-97.5 65,-78.5 0,-78.5"/>
<text text-anchor="middle" x="32.5" y="-85.5" font-family="Helvetica,sans-Serif" font-size="10.00">statistics_t</text>
</g>
<!-- Node2&#45;&gt;Node1 -->
<g id="edge1" class="edge"><title>Node2&#45;&gt;Node1</title>
<path fill="none" stroke="#9a32cd" stroke-dasharray="5,2" d="M47.221,-70.7144C57.5809,-60.1058 72.2685,-46.6739 87.5,-38 101.762,-29.8782 118.786,-23.8531 133.84,-19.581"/>
<polygon fill="#9a32cd" stroke="#9a32cd" points="44.5216,-68.4754 40.205,-78.151 49.6133,-73.2791 44.5216,-68.4754"/>
<text text-anchor="middle" x="98.5" y="-46.5" font-family="Helvetica,sans-Serif" font-size="10.00"> type</text>
</g>
<!-- Node3 -->
<g id="node3" class="node"><title>Node3</title>
<polygon fill="white" stroke="#bfbfbf" points="83,-78.5 83,-97.5 130,-97.5 130,-78.5 83,-78.5"/>
<text text-anchor="middle" x="106.5" y="-85.5" font-family="Helvetica,sans-Serif" font-size="10.00">QColor</text>
</g>
<!-- Node3&#45;&gt;Node1 -->
<g id="edge2" class="edge"><title>Node3&#45;&gt;Node1</title>
<path fill="none" stroke="#9a32cd" stroke-dasharray="5,2" d="M110.407,-68.7466C113.266,-58.7872 117.991,-46.7428 125.5,-38 132.244,-30.1475 141.871,-24.0582 150.657,-19.6666"/>
<polygon fill="#9a32cd" stroke="#9a32cd" points="107.003,-67.932 107.992,-78.4805 113.797,-69.6175 107.003,-67.932"/>
<text text-anchor="middle" x="147" y="-52" font-family="Helvetica,sans-Serif" font-size="10.00"> gridColor</text>
<text text-anchor="middle" x="147" y="-41" font-family="Helvetica,sans-Serif" font-size="10.00">color</text>
</g>
<!-- Node4 -->
<g id="node4" class="node"><title>Node4</title>
<polygon fill="white" stroke="#bfbfbf" points="155,-78.5 155,-97.5 190,-97.5 190,-78.5 155,-78.5"/>
<text text-anchor="middle" x="172.5" y="-85.5" font-family="Helvetica,sans-Serif" font-size="10.00">float</text>
</g>
<!-- Node4&#45;&gt;Node1 -->
<g id="edge3" class="edge"><title>Node4&#45;&gt;Node1</title>
<path fill="none" stroke="#9a32cd" stroke-dasharray="5,2" d="M172.5,-68.2239C172.5,-52.6974 172.5,-31.3582 172.5,-19.6165"/>
<polygon fill="#9a32cd" stroke="#9a32cd" points="169,-68.2818 172.5,-78.2818 176,-68.2819 169,-68.2818"/>
<text text-anchor="middle" x="188" y="-46.5" font-family="Helvetica,sans-Serif" font-size="10.00"> vector</text>
</g>
<!-- Node5 -->
<g id="node5" class="node"><title>Node5</title>
<polygon fill="white" stroke="#bfbfbf" points="212,-78.5 212,-97.5 241,-97.5 241,-78.5 212,-78.5"/>
<text text-anchor="middle" x="226.5" y="-85.5" font-family="Helvetica,sans-Serif" font-size="10.00">int</text>
</g>
<!-- Node5&#45;&gt;Node1 -->
<g id="edge4" class="edge"><title>Node5&#45;&gt;Node1</title>
<path fill="none" stroke="#9a32cd" stroke-dasharray="5,2" d="M220.612,-68.9141C216.913,-59.1786 211.508,-47.2961 204.5,-38 199.162,-30.9187 191.644,-24.4548 185.236,-19.628"/>
<polygon fill="#9a32cd" stroke="#9a32cd" points="217.332,-70.1384 223.951,-78.4115 223.936,-67.8167 217.332,-70.1384"/>
<text text-anchor="middle" x="241" y="-46.5" font-family="Helvetica,sans-Serif" font-size="10.00"> rawValues</text>
</g>
<!-- Node6 -->
<g id="node6" class="node"><title>Node6</title>
<polygon fill="white" stroke="#bfbfbf" points="276,-78.5 276,-97.5 321,-97.5 321,-78.5 276,-78.5"/>
<text text-anchor="middle" x="298.5" y="-85.5" font-family="Helvetica,sans-Serif" font-size="10.00">QRect</text>
</g>
<!-- Node6&#45;&gt;Node1 -->
<g id="edge5" class="edge"><title>Node6&#45;&gt;Node1</title>
<path fill="none" stroke="#9a32cd" stroke-dasharray="5,2" d="M291.807,-68.8756C287.075,-58.4273 279.739,-45.8474 269.5,-38 252.851,-25.2396 230.497,-18.5094 211.445,-14.96"/>
<polygon fill="#9a32cd" stroke="#9a32cd" points="288.659,-70.4259 295.682,-78.359 295.139,-67.7781 288.659,-70.4259"/>
<text text-anchor="middle" x="315.5" y="-46.5" font-family="Helvetica,sans-Serif" font-size="10.00"> positionRect</text>
</g>
</g>
</svg>
