<?xml version="1.0" encoding="UTF-8" standalone="no"?>
<!DOCTYPE svg PUBLIC "-//W3C//DTD SVG 1.1//EN"
 "http://www.w3.org/Graphics/SVG/1.1/DTD/svg11.dtd">
<!-- Generated by graphviz version 2.38.0 (20140413.2041)
 -->
<!-- Title: /home/ient/YUViewOrig/YUView/source/textobject.h Pages: 1 -->
<svg width="1164pt" height="307pt"
 viewBox="0.00 0.00 1164.00 307.00" xmlns="http://www.w3.org/2000/svg" xmlns:xlink="http://www.w3.org/1999/xlink">
<g id="graph0" class="graph" transform="scale(1 1) rotate(0) translate(4 303)">
<title>/home/ient/YUViewOrig/YUView/source/textobject.h</title>
<polygon fill="white" stroke="none" points="-4,4 -4,-303 1160,-303 1160,4 -4,4"/>
<!-- Node1 -->
<g id="node1" class="node"><title>Node1</title>
<polygon fill="#bfbfbf" stroke="black" points="711,-268.5 711,-298.5 853,-298.5 853,-268.5 711,-268.5"/>
<text text-anchor="start" x="719" y="-286.5" font-family="Helvetica,sans-Serif" font-size="10.00">/home/ient/YUViewOrig</text>
<text text-anchor="middle" x="782" y="-275.5" font-family="Helvetica,sans-Serif" font-size="10.00">/YUView/source/textobject.h</text>
</g>
<!-- Node2 -->
<g id="node2" class="node"><title>Node2</title>
<g id="a_node2"><a xlink:href="edittextdialog_8h.html" target="_top" xlink:title="/home/ient/YUViewOrig\l/YUView/source/edittextdialog.h">
<polygon fill="white" stroke="black" points="428.5,-201.5 428.5,-231.5 585.5,-231.5 585.5,-201.5 428.5,-201.5"/>
<text text-anchor="start" x="436.5" y="-219.5" font-family="Helvetica,sans-Serif" font-size="10.00">/home/ient/YUViewOrig</text>
<text text-anchor="middle" x="507" y="-208.5" font-family="Helvetica,sans-Serif" font-size="10.00">/YUView/source/edittextdialog.h</text>
</a>
</g>
</g>
<!-- Node1&#45;&gt;Node2 -->
<g id="edge1" class="edge"><title>Node1&#45;&gt;Node2</title>
<path fill="none" stroke="midnightblue" d="M712.694,-266.119C667.696,-255.483 609.65,-241.763 566.7,-231.611"/>
<polygon fill="midnightblue" stroke="midnightblue" points="712.131,-269.582 722.668,-268.476 713.741,-262.77 712.131,-269.582"/>
</g>
<!-- Node11 -->
<g id="node11" class="node"><title>Node11</title>
<g id="a_node11"><a xlink:href="playlistitem_8h.html" target="_top" xlink:title="/home/ient/YUViewOrig\l/YUView/source/playlistitem.h">
<polygon fill="white" stroke="black" points="603.5,-201.5 603.5,-231.5 752.5,-231.5 752.5,-201.5 603.5,-201.5"/>
<text text-anchor="start" x="611.5" y="-219.5" font-family="Helvetica,sans-Serif" font-size="10.00">/home/ient/YUViewOrig</text>
<text text-anchor="middle" x="678" y="-208.5" font-family="Helvetica,sans-Serif" font-size="10.00">/YUView/source/playlistitem.h</text>
</a>
</g>
</g>
<!-- Node1&#45;&gt;Node11 -->
<g id="edge10" class="edge"><title>Node1&#45;&gt;Node11</title>
<path fill="none" stroke="midnightblue" d="M750.824,-263.015C734.64,-252.9 715.232,-240.77 700.522,-231.577"/>
<polygon fill="midnightblue" stroke="midnightblue" points="749.099,-266.064 759.434,-268.396 752.809,-260.128 749.099,-266.064"/>
</g>
<!-- Node12 -->
<g id="node12" class="node"><title>Node12</title>
<g id="a_node12"><a xlink:href="playlistitem_8cpp.html" target="_top" xlink:title="/home/ient/YUViewOrig\l/YUView/source/playlistitem.cpp">
<polygon fill="white" stroke="black" points="704.5,-134.5 704.5,-164.5 863.5,-164.5 863.5,-134.5 704.5,-134.5"/>
<text text-anchor="start" x="712.5" y="-152.5" font-family="Helvetica,sans-Serif" font-size="10.00">/home/ient/YUViewOrig</text>
<text text-anchor="middle" x="784" y="-141.5" font-family="Helvetica,sans-Serif" font-size="10.00">/YUView/source/playlistitem.cpp</text>
</a>
</g>
</g>
<!-- Node1&#45;&gt;Node12 -->
<g id="edge17" class="edge"><title>Node1&#45;&gt;Node12</title>
<path fill="none" stroke="midnightblue" d="M782.371,-258.024C782.788,-230.512 783.45,-186.789 783.788,-164.525"/>
<polygon fill="midnightblue" stroke="midnightblue" points="778.866,-258.322 782.214,-268.374 785.865,-258.428 778.866,-258.322"/>
</g>
<!-- Node13 -->
<g id="node13" class="node"><title>Node13</title>
<g id="a_node13"><a xlink:href="frameobjectdialog_8h.html" target="_top" xlink:title="/home/ient/YUViewOrig\l/YUView/source/frameobjectdialog.h">
<polygon fill="white" stroke="black" points="810,-201.5 810,-231.5 986,-231.5 986,-201.5 810,-201.5"/>
<text text-anchor="start" x="818" y="-219.5" font-family="Helvetica,sans-Serif" font-size="10.00">/home/ient/YUViewOrig</text>
<text text-anchor="middle" x="898" y="-208.5" font-family="Helvetica,sans-Serif" font-size="10.00">/YUView/source/frameobjectdialog.h</text>
</a>
</g>
</g>
<!-- Node1&#45;&gt;Node13 -->
<g id="edge15" class="edge"><title>Node1&#45;&gt;Node13</title>
<path fill="none" stroke="midnightblue" d="M816.272,-263.296C834.423,-253.125 856.32,-240.855 872.879,-231.577"/>
<polygon fill="midnightblue" stroke="midnightblue" points="814.183,-260.454 807.17,-268.396 817.605,-266.561 814.183,-260.454"/>
</g>
<!-- Node15 -->
<g id="node15" class="node"><title>Node15</title>
<g id="a_node15"><a xlink:href="textobject_8cpp.html" target="_top" xlink:title="/home/ient/YUViewOrig\l/YUView/source/textobject.cpp">
<polygon fill="white" stroke="black" points="1004,-201.5 1004,-231.5 1156,-231.5 1156,-201.5 1004,-201.5"/>
<text text-anchor="start" x="1012" y="-219.5" font-family="Helvetica,sans-Serif" font-size="10.00">/home/ient/YUViewOrig</text>
<text text-anchor="middle" x="1080" y="-208.5" font-family="Helvetica,sans-Serif" font-size="10.00">/YUView/source/textobject.cpp</text>
</a>
</g>
</g>
<!-- Node1&#45;&gt;Node15 -->
<g id="edge18" class="edge"><title>Node1&#45;&gt;Node15</title>
<path fill="none" stroke="midnightblue" d="M856.199,-266.316C905.175,-255.633 968.709,-241.775 1015.56,-231.555"/>
<polygon fill="midnightblue" stroke="midnightblue" points="855.319,-262.925 846.295,-268.476 856.811,-269.764 855.319,-262.925"/>
</g>
<!-- Node3 -->
<g id="node3" class="node"><title>Node3</title>
<g id="a_node3"><a xlink:href="mainwindow_8h.html" target="_top" xlink:title="/home/ient/YUViewOrig\l/YUView/source/mainwindow.h">
<polygon fill="white" stroke="black" points="444.5,-134.5 444.5,-164.5 597.5,-164.5 597.5,-134.5 444.5,-134.5"/>
<text text-anchor="start" x="452.5" y="-152.5" font-family="Helvetica,sans-Serif" font-size="10.00">/home/ient/YUViewOrig</text>
<text text-anchor="middle" x="521" y="-141.5" font-family="Helvetica,sans-Serif" font-size="10.00">/YUView/source/mainwindow.h</text>
</a>
</g>
</g>
<!-- Node2&#45;&gt;Node3 -->
<g id="edge2" class="edge"><title>Node2&#45;&gt;Node3</title>
<path fill="none" stroke="midnightblue" d="M512.19,-191.403C514.136,-182.37 516.281,-172.408 517.968,-164.577"/>
<polygon fill="midnightblue" stroke="midnightblue" points="508.722,-190.883 510.038,-201.396 515.565,-192.357 508.722,-190.883"/>
</g>
<!-- Node10 -->
<g id="node10" class="node"><title>Node10</title>
<g id="a_node10"><a xlink:href="edittextdialog_8cpp.html" target="_top" xlink:title="/home/ient/YUViewOrig\l/YUView/source/edittextdialog.cpp">
<polygon fill="white" stroke="black" points="259.5,-134.5 259.5,-164.5 426.5,-164.5 426.5,-134.5 259.5,-134.5"/>
<text text-anchor="start" x="267.5" y="-152.5" font-family="Helvetica,sans-Serif" font-size="10.00">/home/ient/YUViewOrig</text>
<text text-anchor="middle" x="343" y="-141.5" font-family="Helvetica,sans-Serif" font-size="10.00">/YUView/source/edittextdialog.cpp</text>
</a>
</g>
</g>
<!-- Node2&#45;&gt;Node10 -->
<g id="edge9" class="edge"><title>Node2&#45;&gt;Node10</title>
<path fill="none" stroke="midnightblue" d="M462.043,-197.682C435.74,-187.257 403,-174.281 378.516,-164.577"/>
<polygon fill="midnightblue" stroke="midnightblue" points="460.828,-200.965 471.414,-201.396 463.408,-194.458 460.828,-200.965"/>
</g>
<!-- Node4 -->
<g id="node4" class="node"><title>Node4</title>
<g id="a_node4"><a xlink:href="displaysplitwidget_8cpp.html" target="_top" xlink:title="/home/ient/YUViewOrig\l/YUView/source/displaysplitwidget.cpp">
<polygon fill="white" stroke="black" points="169.5,-67.5 169.5,-97.5 356.5,-97.5 356.5,-67.5 169.5,-67.5"/>
<text text-anchor="start" x="177.5" y="-85.5" font-family="Helvetica,sans-Serif" font-size="10.00">/home/ient/YUViewOrig</text>
<text text-anchor="middle" x="263" y="-74.5" font-family="Helvetica,sans-Serif" font-size="10.00">/YUView/source/displaysplitwidget.cpp</text>
</a>
</g>
</g>
<!-- Node3&#45;&gt;Node4 -->
<g id="edge3" class="edge"><title>Node3&#45;&gt;Node4</title>
<path fill="none" stroke="midnightblue" d="M455.446,-131.984C413.305,-121.367 359.135,-107.72 319.009,-97.6109"/>
<polygon fill="midnightblue" stroke="midnightblue" points="454.783,-135.427 465.335,-134.476 456.494,-128.639 454.783,-135.427"/>
</g>
<!-- Node5 -->
<g id="node5" class="node"><title>Node5</title>
<g id="a_node5"><a xlink:href="mainwindow_8cpp.html" target="_top" xlink:title="/home/ient/YUViewOrig\l/YUView/source/mainwindow.cpp">
<polygon fill="white" stroke="black" points="557,-67.5 557,-97.5 721,-97.5 721,-67.5 557,-67.5"/>
<text text-anchor="start" x="565" y="-85.5" font-family="Helvetica,sans-Serif" font-size="10.00">/home/ient/YUViewOrig</text>
<text text-anchor="middle" x="639" y="-74.5" font-family="Helvetica,sans-Serif" font-size="10.00">/YUView/source/mainwindow.cpp</text>
</a>
</g>
</g>
<!-- Node3&#45;&gt;Node5 -->
<g id="edge4" class="edge"><title>Node3&#45;&gt;Node5</title>
<path fill="none" stroke="midnightblue" d="M555.61,-129.435C574.123,-119.237 596.525,-106.897 613.446,-97.5765"/>
<polygon fill="midnightblue" stroke="midnightblue" points="553.675,-126.505 546.604,-134.396 557.052,-132.637 553.675,-126.505"/>
</g>
<!-- Node6 -->
<g id="node6" class="node"><title>Node6</title>
<g id="a_node6"><a xlink:href="playlisttreewidget_8cpp.html" target="_top" xlink:title="/home/ient/YUViewOrig\l/YUView/source/playlisttreewidget.cpp">
<polygon fill="white" stroke="black" points="739.5,-67.5 739.5,-97.5 924.5,-97.5 924.5,-67.5 739.5,-67.5"/>
<text text-anchor="start" x="747.5" y="-85.5" font-family="Helvetica,sans-Serif" font-size="10.00">/home/ient/YUViewOrig</text>
<text text-anchor="middle" x="832" y="-74.5" font-family="Helvetica,sans-Serif" font-size="10.00">/YUView/source/playlisttreewidget.cpp</text>
</a>
</g>
</g>
<!-- Node3&#45;&gt;Node6 -->
<g id="edge5" class="edge"><title>Node3&#45;&gt;Node6</title>
<path fill="none" stroke="midnightblue" d="M598.116,-132.382C649.272,-121.691 715.752,-107.796 764.753,-97.5549"/>
<polygon fill="midnightblue" stroke="midnightblue" points="597.172,-129.004 588.099,-134.476 598.604,-135.856 597.172,-129.004"/>
</g>
<!-- Node7 -->
<g id="node7" class="node"><title>Node7</title>
<g id="a_node7"><a xlink:href="statslistview_8cpp.html" target="_top" xlink:title="/home/ient/YUViewOrig\l/YUView/source/statslistview.cpp">
<polygon fill="white" stroke="black" points="375,-67.5 375,-97.5 539,-97.5 539,-67.5 375,-67.5"/>
<text text-anchor="start" x="383" y="-85.5" font-family="Helvetica,sans-Serif" font-size="10.00">/home/ient/YUViewOrig</text>
<text text-anchor="middle" x="457" y="-74.5" font-family="Helvetica,sans-Serif" font-size="10.00">/YUView/source/statslistview.cpp</text>
</a>
</g>
</g>
<!-- Node3&#45;&gt;Node7 -->
<g id="edge6" class="edge"><title>Node3&#45;&gt;Node7</title>
<path fill="none" stroke="midnightblue" d="M499.855,-127.024C490.319,-117.34 479.325,-106.174 470.86,-97.5765"/>
<polygon fill="midnightblue" stroke="midnightblue" points="497.603,-129.726 507.113,-134.396 502.591,-124.815 497.603,-129.726"/>
</g>
<!-- Node8 -->
<g id="node8" class="node"><title>Node8</title>
<g id="a_node8"><a xlink:href="yuviewapp_8h.html" target="_top" xlink:title="/home/ient/YUViewOrig\l/YUView/source/yuviewapp.h">
<polygon fill="white" stroke="black" points="5,-67.5 5,-97.5 151,-97.5 151,-67.5 5,-67.5"/>
<text text-anchor="start" x="13" y="-85.5" font-family="Helvetica,sans-Serif" font-size="10.00">/home/ient/YUViewOrig</text>
<text text-anchor="middle" x="78" y="-74.5" font-family="Helvetica,sans-Serif" font-size="10.00">/YUView/source/yuviewapp.h</text>
</a>
</g>
</g>
<!-- Node3&#45;&gt;Node8 -->
<g id="edge7" class="edge"><title>Node3&#45;&gt;Node8</title>
<path fill="none" stroke="midnightblue" d="M433.968,-133.883C311.382,-115.788 278.62,-116.243 160,-98 157.142,-97.5605 154.23,-97.1012 151.291,-96.6278"/>
<polygon fill="midnightblue" stroke="midnightblue" points="433.722,-137.385 444.128,-135.395 434.752,-130.461 433.722,-137.385"/>
</g>
<!-- Node9 -->
<g id="node9" class="node"><title>Node9</title>
<g id="a_node9"><a xlink:href="yuviewapp_8cpp.html" target="_top" xlink:title="/home/ient/YUViewOrig\l/YUView/source/yuviewapp.cpp">
<polygon fill="white" stroke="black" points="0,-0.5 0,-30.5 156,-30.5 156,-0.5 0,-0.5"/>
<text text-anchor="start" x="8" y="-18.5" font-family="Helvetica,sans-Serif" font-size="10.00">/home/ient/YUViewOrig</text>
<text text-anchor="middle" x="78" y="-7.5" font-family="Helvetica,sans-Serif" font-size="10.00">/YUView/source/yuviewapp.cpp</text>
</a>
</g>
</g>
<!-- Node8&#45;&gt;Node9 -->
<g id="edge8" class="edge"><title>Node8&#45;&gt;Node9</title>
<path fill="none" stroke="midnightblue" d="M78,-57.1081C78,-48.1539 78,-38.3227 78,-30.5765"/>
<polygon fill="midnightblue" stroke="midnightblue" points="74.5001,-57.3959 78,-67.396 81.5001,-57.396 74.5001,-57.3959"/>
</g>
<!-- Node11&#45;&gt;Node3 -->
<g id="edge11" class="edge"><title>Node11&#45;&gt;Node3</title>
<path fill="none" stroke="midnightblue" d="M634.63,-197.544C609.507,-187.143 578.336,-174.238 555,-164.577"/>
<polygon fill="midnightblue" stroke="midnightblue" points="633.355,-200.804 643.933,-201.396 636.033,-194.337 633.355,-200.804"/>
</g>
<!-- Node11&#45;&gt;Node5 -->
<g id="edge12" class="edge"><title>Node11&#45;&gt;Node5</title>
<path fill="none" stroke="midnightblue" d="M670.933,-191.748C668.423,-183.304 665.582,-173.729 663,-165 656.014,-141.379 647.929,-113.893 643.152,-97.6374"/>
<polygon fill="midnightblue" stroke="midnightblue" points="667.584,-192.766 673.788,-201.354 674.293,-190.771 667.584,-192.766"/>
</g>
<!-- Node11&#45;&gt;Node6 -->
<g id="edge14" class="edge"><title>Node11&#45;&gt;Node6</title>
<path fill="none" stroke="midnightblue" d="M677.119,-191.128C677.765,-173.336 681.477,-149.682 695,-134 710.065,-116.531 731.731,-105.1 753.401,-97.6223"/>
<polygon fill="midnightblue" stroke="midnightblue" points="673.618,-191.303 677.052,-201.326 680.618,-191.349 673.618,-191.303"/>
</g>
<!-- Node11&#45;&gt;Node12 -->
<g id="edge13" class="edge"><title>Node11&#45;&gt;Node12</title>
<path fill="none" stroke="midnightblue" d="M709.775,-196.015C726.271,-185.9 746.052,-173.77 761.044,-164.577"/>
<polygon fill="midnightblue" stroke="midnightblue" points="707.696,-193.185 701,-201.396 711.355,-199.152 707.696,-193.185"/>
</g>
<!-- Node14 -->
<g id="node14" class="node"><title>Node14</title>
<g id="a_node14"><a xlink:href="frameobjectdialog_8cpp.html" target="_top" xlink:title="/home/ient/YUViewOrig\l/YUView/source/frameobjectdialog.cpp">
<polygon fill="white" stroke="black" points="881,-134.5 881,-164.5 1067,-164.5 1067,-134.5 881,-134.5"/>
<text text-anchor="start" x="889" y="-152.5" font-family="Helvetica,sans-Serif" font-size="10.00">/home/ient/YUViewOrig</text>
<text text-anchor="middle" x="974" y="-141.5" font-family="Helvetica,sans-Serif" font-size="10.00">/YUView/source/frameobjectdialog.cpp</text>
</a>
</g>
</g>
<!-- Node13&#45;&gt;Node14 -->
<g id="edge16" class="edge"><title>Node13&#45;&gt;Node14</title>
<path fill="none" stroke="midnightblue" d="M922.106,-194.883C933.655,-185.005 947.19,-173.429 957.541,-164.577"/>
<polygon fill="midnightblue" stroke="midnightblue" points="919.816,-192.236 914.491,-201.396 924.365,-197.556 919.816,-192.236"/>
</g>
</g>
</svg>
