<?xml version="1.0" encoding="UTF-8" standalone="no"?>
<!DOCTYPE svg PUBLIC "-//W3C//DTD SVG 1.1//EN"
 "http://www.w3.org/Graphics/SVG/1.1/DTD/svg11.dtd">
<!-- Generated by graphviz version 2.38.0 (20140413.2041)
 -->
<!-- Title: /home/ient/YUViewOrig/YUView/source/textobject.h Pages: 1 -->
<svg width="418pt" height="207pt"
 viewBox="0.00 0.00 417.50 207.00" xmlns="http://www.w3.org/2000/svg" xmlns:xlink="http://www.w3.org/1999/xlink">
<g id="graph0" class="graph" transform="scale(1 1) rotate(0) translate(4 203)">
<title>/home/ient/YUViewOrig/YUView/source/textobject.h</title>
<polygon fill="white" stroke="none" points="-4,4 -4,-203 413.5,-203 413.5,4 -4,4"/>
<!-- Node1 -->
<g id="node1" class="node"><title>Node1</title>
<polygon fill="#bfbfbf" stroke="black" points="21,-168.5 21,-198.5 163,-198.5 163,-168.5 21,-168.5"/>
<text text-anchor="start" x="29" y="-186.5" font-family="Helvetica,sans-Serif" font-size="10.00">/home/ient/YUViewOrig</text>
<text text-anchor="middle" x="92" y="-175.5" font-family="Helvetica,sans-Serif" font-size="10.00">/YUView/source/textobject.h</text>
</g>
<!-- Node2 -->
<g id="node2" class="node"><title>Node2</title>
<polygon fill="white" stroke="#bfbfbf" points="0,-112.5 0,-131.5 50,-131.5 50,-112.5 0,-112.5"/>
<text text-anchor="middle" x="25" y="-119.5" font-family="Helvetica,sans-Serif" font-size="10.00">QString</text>
</g>
<!-- Node1&#45;&gt;Node2 -->
<g id="edge1" class="edge"><title>Node1&#45;&gt;Node2</title>
<path fill="none" stroke="midnightblue" d="M76.1219,-168.399C65.9846,-159.397 52.8375,-147.721 42.4146,-138.465"/>
<polygon fill="midnightblue" stroke="midnightblue" points="44.5504,-135.681 34.7491,-131.658 39.9022,-140.915 44.5504,-135.681"/>
</g>
<!-- Node3 -->
<g id="node3" class="node"><title>Node3</title>
<polygon fill="white" stroke="#bfbfbf" points="68.5,-112.5 68.5,-131.5 115.5,-131.5 115.5,-112.5 68.5,-112.5"/>
<text text-anchor="middle" x="92" y="-119.5" font-family="Helvetica,sans-Serif" font-size="10.00">QColor</text>
</g>
<!-- Node1&#45;&gt;Node3 -->
<g id="edge2" class="edge"><title>Node1&#45;&gt;Node3</title>
<path fill="none" stroke="midnightblue" d="M92,-168.399C92,-160.466 92,-150.458 92,-141.858"/>
<polygon fill="midnightblue" stroke="midnightblue" points="95.5001,-141.658 92,-131.658 88.5001,-141.658 95.5001,-141.658"/>
</g>
<!-- Node4 -->
<g id="node4" class="node"><title>Node4</title>
<g id="a_node4"><a xlink:href="displayobject_8h.html" target="_top" xlink:title="displayobject.h">
<polygon fill="white" stroke="black" points="134,-112.5 134,-131.5 216,-131.5 216,-112.5 134,-112.5"/>
<text text-anchor="middle" x="175" y="-119.5" font-family="Helvetica,sans-Serif" font-size="10.00">displayobject.h</text>
</a>
</g>
</g>
<!-- Node1&#45;&gt;Node4 -->
<g id="edge3" class="edge"><title>Node1&#45;&gt;Node4</title>
<path fill="none" stroke="midnightblue" d="M111.67,-168.399C124.601,-159.129 141.486,-147.025 154.568,-137.647"/>
<polygon fill="midnightblue" stroke="midnightblue" points="156.835,-140.329 162.923,-131.658 152.756,-134.639 156.835,-140.329"/>
</g>
<!-- Node5 -->
<g id="node5" class="node"><title>Node5</title>
<polygon fill="white" stroke="#bfbfbf" points="37.5,-56.5 37.5,-75.5 90.5,-75.5 90.5,-56.5 37.5,-56.5"/>
<text text-anchor="middle" x="64" y="-63.5" font-family="Helvetica,sans-Serif" font-size="10.00">QObject</text>
</g>
<!-- Node4&#45;&gt;Node5 -->
<g id="edge4" class="edge"><title>Node4&#45;&gt;Node5</title>
<path fill="none" stroke="midnightblue" d="M157.166,-112.324C139.284,-103.625 111.525,-90.1202 90.9544,-80.113"/>
<polygon fill="midnightblue" stroke="midnightblue" points="92.3133,-76.8819 81.7898,-75.6545 89.251,-83.1765 92.3133,-76.8819"/>
</g>
<!-- Node6 -->
<g id="node6" class="node"><title>Node6</title>
<polygon fill="white" stroke="#bfbfbf" points="108.5,-56.5 108.5,-75.5 165.5,-75.5 165.5,-56.5 108.5,-56.5"/>
<text text-anchor="middle" x="137" y="-63.5" font-family="Helvetica,sans-Serif" font-size="10.00">QPixmap</text>
</g>
<!-- Node4&#45;&gt;Node6 -->
<g id="edge5" class="edge"><title>Node4&#45;&gt;Node6</title>
<path fill="none" stroke="midnightblue" d="M168.725,-112.083C163.358,-104.455 155.482,-93.2645 148.921,-83.9408"/>
<polygon fill="midnightblue" stroke="midnightblue" points="151.775,-81.9149 143.158,-75.7511 146.051,-85.9434 151.775,-81.9149"/>
</g>
<!-- Node7 -->
<g id="node7" class="node"><title>Node7</title>
<g id="a_node7"><a xlink:href="typedef_8h.html" target="_top" xlink:title="typedef.h">
<polygon fill="white" stroke="black" points="183.5,-56.5 183.5,-75.5 240.5,-75.5 240.5,-56.5 183.5,-56.5"/>
<text text-anchor="middle" x="212" y="-63.5" font-family="Helvetica,sans-Serif" font-size="10.00">typedef.h</text>
</a>
</g>
</g>
<!-- Node4&#45;&gt;Node7 -->
<g id="edge6" class="edge"><title>Node4&#45;&gt;Node7</title>
<path fill="none" stroke="midnightblue" d="M181.11,-112.083C186.282,-104.534 193.846,-93.4948 200.194,-84.2298"/>
<polygon fill="midnightblue" stroke="midnightblue" points="203.239,-85.9787 206.004,-75.7511 197.464,-82.0221 203.239,-85.9787"/>
</g>
<!-- Node8 -->
<g id="node8" class="node"><title>Node8</title>
<g id="a_node8"><a xlink:href="FileInfoGroupBox_8h.html" target="_top" xlink:title="FileInfoGroupBox.h">
<polygon fill="white" stroke="black" points="258.5,-56.5 258.5,-75.5 359.5,-75.5 359.5,-56.5 258.5,-56.5"/>
<text text-anchor="middle" x="309" y="-63.5" font-family="Helvetica,sans-Serif" font-size="10.00">FileInfoGroupBox.h</text>
</a>
</g>
</g>
<!-- Node4&#45;&gt;Node8 -->
<g id="edge7" class="edge"><title>Node4&#45;&gt;Node8</title>
<path fill="none" stroke="midnightblue" d="M196.233,-112.444C218.384,-103.517 253.319,-89.4387 278.436,-79.3168"/>
<polygon fill="midnightblue" stroke="midnightblue" points="279.9,-82.5006 287.867,-75.5164 277.283,-76.0079 279.9,-82.5006"/>
</g>
<!-- Node9 -->
<g id="node9" class="node"><title>Node9</title>
<polygon fill="white" stroke="#bfbfbf" points="187,-0.5 187,-19.5 255,-19.5 255,-0.5 187,-0.5"/>
<text text-anchor="middle" x="221" y="-7.5" font-family="Helvetica,sans-Serif" font-size="10.00">QGroupBox</text>
</g>
<!-- Node8&#45;&gt;Node9 -->
<g id="edge8" class="edge"><title>Node8&#45;&gt;Node9</title>
<path fill="none" stroke="midnightblue" d="M294.861,-56.324C281.134,-47.9002 260.064,-34.9709 243.936,-25.0741"/>
<polygon fill="midnightblue" stroke="midnightblue" points="245.457,-21.9016 235.104,-19.6545 241.796,-27.8678 245.457,-21.9016"/>
</g>
<!-- Node10 -->
<g id="node10" class="node"><title>Node10</title>
<polygon fill="white" stroke="#bfbfbf" points="273.5,-0.5 273.5,-19.5 344.5,-19.5 344.5,-0.5 273.5,-0.5"/>
<text text-anchor="middle" x="309" y="-7.5" font-family="Helvetica,sans-Serif" font-size="10.00">QGridLayout</text>
</g>
<!-- Node8&#45;&gt;Node10 -->
<g id="edge9" class="edge"><title>Node8&#45;&gt;Node10</title>
<path fill="none" stroke="midnightblue" d="M309,-56.083C309,-49.0059 309,-38.8611 309,-29.9865"/>
<polygon fill="midnightblue" stroke="midnightblue" points="312.5,-29.751 309,-19.7511 305.5,-29.7511 312.5,-29.751"/>
</g>
<!-- Node11 -->
<g id="node11" class="node"><title>Node11</title>
<polygon fill="white" stroke="#bfbfbf" points="362.5,-0.5 362.5,-19.5 409.5,-19.5 409.5,-0.5 362.5,-0.5"/>
<text text-anchor="middle" x="386" y="-7.5" font-family="Helvetica,sans-Serif" font-size="10.00">QLabel</text>
</g>
<!-- Node8&#45;&gt;Node11 -->
<g id="edge10" class="edge"><title>Node8&#45;&gt;Node11</title>
<path fill="none" stroke="midnightblue" d="M321.371,-56.324C333.158,-48.0577 351.132,-35.4527 365.136,-25.6322"/>
<polygon fill="midnightblue" stroke="midnightblue" points="367.482,-28.2619 373.659,-19.6545 363.462,-22.5307 367.482,-28.2619"/>
</g>
</g>
</svg>
