<?xml version="1.0" encoding="UTF-8" standalone="no"?>
<!DOCTYPE svg PUBLIC "-//W3C//DTD SVG 1.1//EN"
 "http://www.w3.org/Graphics/SVG/1.1/DTD/svg11.dtd">
<!-- Generated by graphviz version 2.38.0 (20140413.2041)
 -->
<!-- Title: clip Pages: 1 -->
<svg width="1165pt" height="524pt"
 viewBox="0.00 0.00 1165.00 524.00" xmlns="http://www.w3.org/2000/svg" xmlns:xlink="http://www.w3.org/1999/xlink">
<g id="graph0" class="graph" transform="scale(1 1) rotate(0) translate(4 520)">
<title>clip</title>
<polygon fill="white" stroke="none" points="-4,4 -4,-520 1161,-520 1161,4 -4,4"/>
<!-- Node1 -->
<g id="node1" class="node"><title>Node1</title>
<polygon fill="#bfbfbf" stroke="black" points="0,-371 0,-390 32,-390 32,-371 0,-371"/>
<text text-anchor="middle" x="16" y="-378" font-family="Helvetica,sans-Serif" font-size="10.00">clip</text>
</g>
<!-- Node2 -->
<g id="node2" class="node"><title>Node2</title>
<g id="a_node2"><a xlink:href="classDifferenceObject.html#aefdd72d579780077e6add94fac69d171" target="_top" xlink:title="DifferenceObject::subtract\lYUV444">
<polygon fill="white" stroke="black" points="69.5,-390.5 69.5,-420.5 200.5,-420.5 200.5,-390.5 69.5,-390.5"/>
<text text-anchor="start" x="77.5" y="-408.5" font-family="Helvetica,sans-Serif" font-size="10.00">DifferenceObject::subtract</text>
<text text-anchor="middle" x="135" y="-397.5" font-family="Helvetica,sans-Serif" font-size="10.00">YUV444</text>
</a>
</g>
</g>
<!-- Node1&#45;&gt;Node2 -->
<g id="edge1" class="edge"><title>Node1&#45;&gt;Node2</title>
<path fill="none" stroke="midnightblue" d="M42.1666,-385.877C50.3106,-387.618 59.748,-389.634 69.4095,-391.699"/>
<polygon fill="midnightblue" stroke="midnightblue" points="42.8063,-382.435 32.2957,-383.768 41.3436,-389.281 42.8063,-382.435"/>
</g>
<!-- Node5 -->
<g id="node5" class="node"><title>Node5</title>
<g id="a_node5"><a xlink:href="classstatisticSource.html#a8c153e3e3576668f5e68af94f441319e" target="_top" xlink:title="statisticSource::setInternal\lScaleFactor">
<polygon fill="white" stroke="black" points="68,-341.5 68,-371.5 202,-371.5 202,-341.5 68,-341.5"/>
<text text-anchor="start" x="76" y="-359.5" font-family="Helvetica,sans-Serif" font-size="10.00">statisticSource::setInternal</text>
<text text-anchor="middle" x="135" y="-348.5" font-family="Helvetica,sans-Serif" font-size="10.00">ScaleFactor</text>
</a>
</g>
</g>
<!-- Node1&#45;&gt;Node5 -->
<g id="edge4" class="edge"><title>Node1&#45;&gt;Node5</title>
<path fill="none" stroke="midnightblue" d="M42.2883,-375.313C49.959,-373.739 58.769,-371.932 67.8287,-370.074"/>
<polygon fill="midnightblue" stroke="midnightblue" points="41.3884,-371.924 32.2957,-377.362 42.7951,-378.782 41.3884,-371.924"/>
</g>
<!-- Node3 -->
<g id="node3" class="node"><title>Node3</title>
<g id="a_node3"><a xlink:href="classDifferenceObject.html#acb2a437aedc3f3a4400c394d0330afc0" target="_top" xlink:title="DifferenceObject::loadImage">
<polygon fill="white" stroke="black" points="238,-396 238,-415 379,-415 379,-396 238,-396"/>
<text text-anchor="middle" x="308.5" y="-403" font-family="Helvetica,sans-Serif" font-size="10.00">DifferenceObject::loadImage</text>
</a>
</g>
</g>
<!-- Node2&#45;&gt;Node3 -->
<g id="edge2" class="edge"><title>Node2&#45;&gt;Node3</title>
<path fill="none" stroke="midnightblue" d="M210.909,-405.5C219.909,-405.5 229.072,-405.5 237.992,-405.5"/>
<polygon fill="midnightblue" stroke="midnightblue" points="210.837,-402 200.837,-405.5 210.837,-409 210.837,-402"/>
</g>
<!-- Node4 -->
<g id="node4" class="node"><title>Node4</title>
<g id="a_node4"><a xlink:href="classDifferenceObject.html#a72a52d53c72aae7579f252a61a914002" target="_top" xlink:title="DifferenceObject::refresh\lDisplayImage">
<polygon fill="white" stroke="black" points="429,-390.5 429,-420.5 555,-420.5 555,-390.5 429,-390.5"/>
<text text-anchor="start" x="437" y="-408.5" font-family="Helvetica,sans-Serif" font-size="10.00">DifferenceObject::refresh</text>
<text text-anchor="middle" x="492" y="-397.5" font-family="Helvetica,sans-Serif" font-size="10.00">DisplayImage</text>
</a>
</g>
</g>
<!-- Node3&#45;&gt;Node4 -->
<g id="edge3" class="edge"><title>Node3&#45;&gt;Node4</title>
<path fill="none" stroke="midnightblue" d="M389.245,-405.5C402.549,-405.5 416.173,-405.5 428.951,-405.5"/>
<polygon fill="midnightblue" stroke="midnightblue" points="389.154,-402 379.154,-405.5 389.154,-409 389.154,-402"/>
</g>
<!-- Node6 -->
<g id="node6" class="node"><title>Node6</title>
<g id="a_node6"><a xlink:href="classStatisticsObject.html#a685245dbc78feb8908c60b3becc9a0c0" target="_top" xlink:title="StatisticsObject::setInternal\lScaleFactor">
<polygon fill="white" stroke="black" points="239.5,-341.5 239.5,-371.5 377.5,-371.5 377.5,-341.5 239.5,-341.5"/>
<text text-anchor="start" x="247.5" y="-359.5" font-family="Helvetica,sans-Serif" font-size="10.00">StatisticsObject::setInternal</text>
<text text-anchor="middle" x="308.5" y="-348.5" font-family="Helvetica,sans-Serif" font-size="10.00">ScaleFactor</text>
</a>
</g>
</g>
<!-- Node5&#45;&gt;Node6 -->
<g id="edge5" class="edge"><title>Node5&#45;&gt;Node6</title>
<path fill="none" stroke="midnightblue" d="M212.383,-356.5C221.379,-356.5 230.515,-356.5 239.387,-356.5"/>
<polygon fill="midnightblue" stroke="midnightblue" points="212.306,-353 202.306,-356.5 212.306,-360 212.306,-353"/>
</g>
<!-- Node7 -->
<g id="node7" class="node"><title>Node7</title>
<g id="a_node7"><a xlink:href="classDisplayWidget.html#a822a3c50c6c602fafff6ef2132ccdb42" target="_top" xlink:title="DisplayWidget::setDisplayRect">
<polygon fill="white" stroke="black" points="415,-347 415,-366 569,-366 569,-347 415,-347"/>
<text text-anchor="middle" x="492" y="-354" font-family="Helvetica,sans-Serif" font-size="10.00">DisplayWidget::setDisplayRect</text>
</a>
</g>
</g>
<!-- Node6&#45;&gt;Node7 -->
<g id="edge6" class="edge"><title>Node6&#45;&gt;Node7</title>
<path fill="none" stroke="midnightblue" d="M387.695,-356.5C396.717,-356.5 405.908,-356.5 414.902,-356.5"/>
<polygon fill="midnightblue" stroke="midnightblue" points="387.6,-353 377.6,-356.5 387.6,-360 387.6,-353"/>
</g>
<!-- Node8 -->
<g id="node8" class="node"><title>Node8</title>
<g id="a_node8"><a xlink:href="classDisplaySplitWidget.html#a07d514c8000eade67022e9f73a4214c0" target="_top" xlink:title="DisplaySplitWidget\l::zoomToPoint">
<polygon fill="white" stroke="black" points="605,-404.5 605,-434.5 705,-434.5 705,-404.5 605,-404.5"/>
<text text-anchor="start" x="613" y="-422.5" font-family="Helvetica,sans-Serif" font-size="10.00">DisplaySplitWidget</text>
<text text-anchor="middle" x="655" y="-411.5" font-family="Helvetica,sans-Serif" font-size="10.00">::zoomToPoint</text>
</a>
</g>
</g>
<!-- Node7&#45;&gt;Node8 -->
<g id="edge7" class="edge"><title>Node7&#45;&gt;Node8</title>
<path fill="none" stroke="midnightblue" d="M534.046,-369.149C545.449,-372.893 557.778,-377.159 569,-381.5 586.94,-388.44 606.568,-397.139 622.439,-404.462"/>
<polygon fill="midnightblue" stroke="midnightblue" points="534.907,-365.749 524.316,-366.004 532.755,-372.41 534.907,-365.749"/>
</g>
<!-- Node9 -->
<g id="node9" class="node"><title>Node9</title>
<g id="a_node9"><a xlink:href="classDisplaySplitWidget.html#ad714b0427a31a3ac29bf0f0a2c1f3611" target="_top" xlink:title="DisplaySplitWidget\l::zoomIn">
<polygon fill="white" stroke="black" points="747.5,-338.5 747.5,-368.5 847.5,-368.5 847.5,-338.5 747.5,-338.5"/>
<text text-anchor="start" x="755.5" y="-356.5" font-family="Helvetica,sans-Serif" font-size="10.00">DisplaySplitWidget</text>
<text text-anchor="middle" x="797.5" y="-345.5" font-family="Helvetica,sans-Serif" font-size="10.00">::zoomIn</text>
</a>
</g>
</g>
<!-- Node7&#45;&gt;Node9 -->
<g id="edge18" class="edge"><title>Node7&#45;&gt;Node9</title>
<path fill="none" stroke="midnightblue" d="M579.528,-355.645C633.917,-355.107 702.111,-354.433 747.378,-353.986"/>
<polygon fill="midnightblue" stroke="midnightblue" points="579.159,-352.148 569.194,-355.747 579.228,-359.148 579.159,-352.148"/>
</g>
<!-- Node13 -->
<g id="node13" class="node"><title>Node13</title>
<g id="a_node13"><a xlink:href="classDisplaySplitWidget.html#aeea14bc10ca6579ab6f68f8150f9ac5f" target="_top" xlink:title="DisplaySplitWidget\l::zoomOut">
<polygon fill="white" stroke="black" points="747.5,-436.5 747.5,-466.5 847.5,-466.5 847.5,-436.5 747.5,-436.5"/>
<text text-anchor="start" x="755.5" y="-454.5" font-family="Helvetica,sans-Serif" font-size="10.00">DisplaySplitWidget</text>
<text text-anchor="middle" x="797.5" y="-443.5" font-family="Helvetica,sans-Serif" font-size="10.00">::zoomOut</text>
</a>
</g>
</g>
<!-- Node7&#45;&gt;Node13 -->
<g id="edge19" class="edge"><title>Node7&#45;&gt;Node13</title>
<path fill="none" stroke="midnightblue" d="M549.576,-369.837C556.543,-372.955 563.23,-376.789 569,-381.5 593.98,-401.896 577.408,-427.807 605,-444.5 647.697,-470.332 706.105,-468.295 747.153,-462.18"/>
<polygon fill="midnightblue" stroke="midnightblue" points="550.547,-366.456 539.961,-366.013 547.96,-372.961 550.547,-366.456"/>
</g>
<!-- Node14 -->
<g id="node14" class="node"><title>Node14</title>
<g id="a_node14"><a xlink:href="classDisplaySplitWidget.html#a43d312016afd6d843f1c624905f4afee" target="_top" xlink:title="DisplaySplitWidget\l::zoomToFit">
<polygon fill="white" stroke="black" points="747.5,-387.5 747.5,-417.5 847.5,-417.5 847.5,-387.5 747.5,-387.5"/>
<text text-anchor="start" x="755.5" y="-405.5" font-family="Helvetica,sans-Serif" font-size="10.00">DisplaySplitWidget</text>
<text text-anchor="middle" x="797.5" y="-394.5" font-family="Helvetica,sans-Serif" font-size="10.00">::zoomToFit</text>
</a>
</g>
</g>
<!-- Node7&#45;&gt;Node14 -->
<g id="edge20" class="edge"><title>Node7&#45;&gt;Node14</title>
<path fill="none" stroke="midnightblue" d="M566.118,-367.582C622.214,-376.084 698.117,-387.589 747.197,-395.027"/>
<polygon fill="midnightblue" stroke="midnightblue" points="566.297,-364.069 555.885,-366.031 565.248,-370.99 566.297,-364.069"/>
</g>
<!-- Node15 -->
<g id="node15" class="node"><title>Node15</title>
<g id="a_node15"><a xlink:href="classDisplaySplitWidget.html#a0a3afd6247d51bc2ca6fabfc30ff9548" target="_top" xlink:title="DisplaySplitWidget\l::mouseReleaseEvent">
<polygon fill="white" stroke="black" points="741,-485.5 741,-515.5 854,-515.5 854,-485.5 741,-485.5"/>
<text text-anchor="start" x="749" y="-503.5" font-family="Helvetica,sans-Serif" font-size="10.00">DisplaySplitWidget</text>
<text text-anchor="middle" x="797.5" y="-492.5" font-family="Helvetica,sans-Serif" font-size="10.00">::mouseReleaseEvent</text>
</a>
</g>
</g>
<!-- Node7&#45;&gt;Node15 -->
<g id="edge25" class="edge"><title>Node7&#45;&gt;Node15</title>
<path fill="none" stroke="midnightblue" d="M552.166,-370.139C558.298,-373.193 564.075,-376.929 569,-381.5 599.672,-409.967 572.252,-442.448 605,-468.5 643.117,-498.823 699.217,-505.11 740.854,-504.834"/>
<polygon fill="midnightblue" stroke="midnightblue" points="553.551,-366.925 542.986,-366.136 550.753,-373.342 553.551,-366.925"/>
</g>
<!-- Node16 -->
<g id="node16" class="node"><title>Node16</title>
<g id="a_node16"><a xlink:href="classDisplaySplitWidget.html#a9421eba026630943587a9ae226c7f8d6" target="_top" xlink:title="DisplaySplitWidget\l::panDisplay">
<polygon fill="white" stroke="black" points="747.5,-289.5 747.5,-319.5 847.5,-319.5 847.5,-289.5 747.5,-289.5"/>
<text text-anchor="start" x="755.5" y="-307.5" font-family="Helvetica,sans-Serif" font-size="10.00">DisplaySplitWidget</text>
<text text-anchor="middle" x="797.5" y="-296.5" font-family="Helvetica,sans-Serif" font-size="10.00">::panDisplay</text>
</a>
</g>
</g>
<!-- Node7&#45;&gt;Node16 -->
<g id="edge21" class="edge"><title>Node7&#45;&gt;Node16</title>
<path fill="none" stroke="midnightblue" d="M558.603,-345.26C615.27,-335.551 695.902,-321.736 747.21,-312.945"/>
<polygon fill="midnightblue" stroke="midnightblue" points="557.932,-341.824 548.667,-346.962 559.114,-348.723 557.932,-341.824"/>
</g>
<!-- Node18 -->
<g id="node18" class="node"><title>Node18</title>
<g id="a_node18"><a xlink:href="classDisplaySplitWidget.html#a337e94b12c4e1837457997cf9d074046" target="_top" xlink:title="DisplaySplitWidget\l::splitterMovedTo">
<polygon fill="white" stroke="black" points="605,-240.5 605,-270.5 705,-270.5 705,-240.5 605,-240.5"/>
<text text-anchor="start" x="613" y="-258.5" font-family="Helvetica,sans-Serif" font-size="10.00">DisplaySplitWidget</text>
<text text-anchor="middle" x="655" y="-247.5" font-family="Helvetica,sans-Serif" font-size="10.00">::splitterMovedTo</text>
</a>
</g>
</g>
<!-- Node7&#45;&gt;Node18 -->
<g id="edge26" class="edge"><title>Node7&#45;&gt;Node18</title>
<path fill="none" stroke="midnightblue" d="M516.771,-341.28C539.396,-326.829 574.43,-304.546 605,-285.5 612.873,-280.595 621.493,-275.294 629.277,-270.533"/>
<polygon fill="midnightblue" stroke="midnightblue" points="514.71,-338.443 508.17,-346.778 518.48,-344.341 514.71,-338.443"/>
</g>
<!-- Node20 -->
<g id="node20" class="node"><title>Node20</title>
<g id="a_node20"><a xlink:href="classDisplaySplitWidget.html#ac88b455e49d13fb34439e45838e468d9" target="_top" xlink:title="DisplaySplitWidget\l::updateView">
<polygon fill="white" stroke="black" points="605,-118.5 605,-148.5 705,-148.5 705,-118.5 605,-118.5"/>
<text text-anchor="start" x="613" y="-136.5" font-family="Helvetica,sans-Serif" font-size="10.00">DisplaySplitWidget</text>
<text text-anchor="middle" x="655" y="-125.5" font-family="Helvetica,sans-Serif" font-size="10.00">::updateView</text>
</a>
</g>
</g>
<!-- Node7&#45;&gt;Node20 -->
<g id="edge28" class="edge"><title>Node7&#45;&gt;Node20</title>
<path fill="none" stroke="midnightblue" d="M505.92,-338.605C536.786,-295.852 614.377,-188.381 643.092,-148.609"/>
<polygon fill="midnightblue" stroke="midnightblue" points="502.934,-336.761 499.918,-346.918 508.609,-340.859 502.934,-336.761"/>
</g>
<!-- Node8&#45;&gt;Node9 -->
<g id="edge8" class="edge"><title>Node8&#45;&gt;Node9</title>
<path fill="none" stroke="midnightblue" d="M695.999,-399.941C710.174,-393.08 726.261,-385.373 741,-378.5 747.992,-375.24 755.509,-371.806 762.683,-368.563"/>
<polygon fill="midnightblue" stroke="midnightblue" points="694.462,-396.796 686.993,-404.31 697.518,-403.093 694.462,-396.796"/>
</g>
<!-- Node8&#45;&gt;Node13 -->
<g id="edge12" class="edge"><title>Node8&#45;&gt;Node13</title>
<path fill="none" stroke="midnightblue" d="M715.201,-432.984C725.841,-435.407 736.827,-437.909 747.15,-440.26"/>
<polygon fill="midnightblue" stroke="midnightblue" points="715.668,-429.5 705.14,-430.692 714.113,-436.325 715.668,-429.5"/>
</g>
<!-- Node8&#45;&gt;Node14 -->
<g id="edge15" class="edge"><title>Node8&#45;&gt;Node14</title>
<path fill="none" stroke="midnightblue" d="M715.201,-412.337C725.841,-411.05 736.827,-409.72 747.15,-408.471"/>
<polygon fill="midnightblue" stroke="midnightblue" points="714.647,-408.878 705.14,-413.554 715.488,-415.828 714.647,-408.878"/>
</g>
<!-- Node8&#45;&gt;Node15 -->
<g id="edge16" class="edge"><title>Node8&#45;&gt;Node15</title>
<path fill="none" stroke="midnightblue" d="M684.726,-440.68C700.822,-452.052 721.523,-465.874 741,-476.5 746.714,-479.617 752.915,-482.632 759.033,-485.412"/>
<polygon fill="midnightblue" stroke="midnightblue" points="686.465,-437.62 676.295,-434.65 682.393,-443.314 686.465,-437.62"/>
</g>
<!-- Node10 -->
<g id="node10" class="node"><title>Node10</title>
<g id="a_node10"><a xlink:href="classDisplaySplitWidget.html#a95fb887b76609440c606ddccadee2318" target="_top" xlink:title="DisplaySplitWidget\l::gestureEvent">
<polygon fill="white" stroke="black" points="905.5,-377.5 905.5,-407.5 1005.5,-407.5 1005.5,-377.5 905.5,-377.5"/>
<text text-anchor="start" x="913.5" y="-395.5" font-family="Helvetica,sans-Serif" font-size="10.00">DisplaySplitWidget</text>
<text text-anchor="middle" x="955.5" y="-384.5" font-family="Helvetica,sans-Serif" font-size="10.00">::gestureEvent</text>
</a>
</g>
</g>
<!-- Node9&#45;&gt;Node10 -->
<g id="edge9" class="edge"><title>Node9&#45;&gt;Node10</title>
<path fill="none" stroke="midnightblue" d="M857.982,-368.37C873.662,-372.29 890.401,-376.475 905.462,-380.24"/>
<polygon fill="midnightblue" stroke="midnightblue" points="858.41,-364.87 847.859,-365.84 856.712,-371.661 858.41,-364.87"/>
</g>
<!-- Node12 -->
<g id="node12" class="node"><title>Node12</title>
<g id="a_node12"><a xlink:href="classDisplaySplitWidget.html#a3560f335caf77049205e63785c8073ba" target="_top" xlink:title="DisplaySplitWidget\l::wheelEvent">
<polygon fill="white" stroke="black" points="905.5,-431.5 905.5,-461.5 1005.5,-461.5 1005.5,-431.5 905.5,-431.5"/>
<text text-anchor="start" x="913.5" y="-449.5" font-family="Helvetica,sans-Serif" font-size="10.00">DisplaySplitWidget</text>
<text text-anchor="middle" x="955.5" y="-438.5" font-family="Helvetica,sans-Serif" font-size="10.00">::wheelEvent</text>
</a>
</g>
</g>
<!-- Node9&#45;&gt;Node12 -->
<g id="edge11" class="edge"><title>Node9&#45;&gt;Node12</title>
<path fill="none" stroke="midnightblue" d="M846.142,-373.374C848.867,-374.995 851.508,-376.705 854,-378.5 873.139,-392.289 870.856,-403.718 890,-417.5 897.374,-422.808 905.874,-427.471 914.233,-431.417"/>
<polygon fill="midnightblue" stroke="midnightblue" points="847.689,-370.231 837.236,-368.506 844.332,-376.374 847.689,-370.231"/>
</g>
<!-- Node11 -->
<g id="node11" class="node"><title>Node11</title>
<g id="a_node11"><a xlink:href="classDisplaySplitWidget.html#a152c9ea9cbd3aa079800b6c1d0fbb284" target="_top" xlink:title="DisplaySplitWidget\l::event">
<polygon fill="white" stroke="black" points="1057,-355.5 1057,-385.5 1157,-385.5 1157,-355.5 1057,-355.5"/>
<text text-anchor="start" x="1065" y="-373.5" font-family="Helvetica,sans-Serif" font-size="10.00">DisplaySplitWidget</text>
<text text-anchor="middle" x="1107" y="-362.5" font-family="Helvetica,sans-Serif" font-size="10.00">::event</text>
</a>
</g>
</g>
<!-- Node10&#45;&gt;Node11 -->
<g id="edge10" class="edge"><title>Node10&#45;&gt;Node11</title>
<path fill="none" stroke="midnightblue" d="M1016.07,-383.734C1029.62,-381.739 1043.88,-379.642 1056.94,-377.719"/>
<polygon fill="midnightblue" stroke="midnightblue" points="1015.25,-380.317 1005.87,-385.235 1016.27,-387.242 1015.25,-380.317"/>
</g>
<!-- Node13&#45;&gt;Node10 -->
<g id="edge13" class="edge"><title>Node13&#45;&gt;Node10</title>
<path fill="none" stroke="midnightblue" d="M847.625,-432.921C869.27,-424.734 894.37,-415.242 914.804,-407.513"/>
<polygon fill="midnightblue" stroke="midnightblue" points="846.384,-429.648 838.269,-436.459 848.861,-436.195 846.384,-429.648"/>
</g>
<!-- Node13&#45;&gt;Node12 -->
<g id="edge14" class="edge"><title>Node13&#45;&gt;Node12</title>
<path fill="none" stroke="midnightblue" d="M857.982,-449.594C873.662,-449.091 890.401,-448.554 905.462,-448.072"/>
<polygon fill="midnightblue" stroke="midnightblue" points="857.742,-446.099 847.859,-449.918 857.966,-453.096 857.742,-446.099"/>
</g>
<!-- Node15&#45;&gt;Node11 -->
<g id="edge17" class="edge"><title>Node15&#45;&gt;Node11</title>
<path fill="none" stroke="midnightblue" d="M864.297,-504.153C910.753,-503.92 973.019,-497.738 1021,-471.5 1057.8,-451.378 1085.42,-408.413 1098.18,-385.546"/>
<polygon fill="midnightblue" stroke="midnightblue" points="864.055,-500.652 854.041,-504.109 864.026,-507.652 864.055,-500.652"/>
</g>
<!-- Node16&#45;&gt;Node11 -->
<g id="edge22" class="edge"><title>Node16&#45;&gt;Node11</title>
<path fill="none" stroke="midnightblue" d="M857.468,-321.347C868.253,-324.219 879.436,-327.058 890,-329.5 946.899,-342.652 1012.94,-354.728 1056.87,-362.316"/>
<polygon fill="midnightblue" stroke="midnightblue" points="858.272,-317.939 847.705,-318.712 856.447,-324.697 858.272,-317.939"/>
</g>
<!-- Node17 -->
<g id="node17" class="node"><title>Node17</title>
<g id="a_node17"><a xlink:href="classDisplaySplitWidget.html#a66c16edce3aae0df82f888348cd7590d" target="_top" xlink:title="DisplaySplitWidget\l::mouseMoveEvent">
<polygon fill="white" stroke="black" points="905,-289.5 905,-319.5 1006,-319.5 1006,-289.5 905,-289.5"/>
<text text-anchor="start" x="913" y="-307.5" font-family="Helvetica,sans-Serif" font-size="10.00">DisplaySplitWidget</text>
<text text-anchor="middle" x="955.5" y="-296.5" font-family="Helvetica,sans-Serif" font-size="10.00">::mouseMoveEvent</text>
</a>
</g>
</g>
<!-- Node16&#45;&gt;Node17 -->
<g id="edge23" class="edge"><title>Node16&#45;&gt;Node17</title>
<path fill="none" stroke="midnightblue" d="M857.882,-304.5C873.405,-304.5 889.973,-304.5 904.926,-304.5"/>
<polygon fill="midnightblue" stroke="midnightblue" points="857.859,-301 847.859,-304.5 857.859,-308 857.859,-301"/>
</g>
<!-- Node17&#45;&gt;Node11 -->
<g id="edge24" class="edge"><title>Node17&#45;&gt;Node11</title>
<path fill="none" stroke="midnightblue" d="M999.96,-323.686C1022.85,-333.793 1050.53,-346.01 1071.86,-355.429"/>
<polygon fill="midnightblue" stroke="midnightblue" points="1001.36,-320.479 990.798,-319.642 998.533,-326.882 1001.36,-320.479"/>
</g>
<!-- Node19 -->
<g id="node19" class="node"><title>Node19</title>
<g id="a_node19"><a xlink:href="classDisplaySplitWidget.html#ae32ceae7f4472266eabd00877651441b" target="_top" xlink:title="DisplaySplitWidget\l::DisplaySplitWidget">
<polygon fill="white" stroke="black" points="744.5,-240.5 744.5,-270.5 850.5,-270.5 850.5,-240.5 744.5,-240.5"/>
<text text-anchor="start" x="752.5" y="-258.5" font-family="Helvetica,sans-Serif" font-size="10.00">DisplaySplitWidget</text>
<text text-anchor="middle" x="797.5" y="-247.5" font-family="Helvetica,sans-Serif" font-size="10.00">::DisplaySplitWidget</text>
</a>
</g>
</g>
<!-- Node18&#45;&gt;Node19 -->
<g id="edge27" class="edge"><title>Node18&#45;&gt;Node19</title>
<path fill="none" stroke="midnightblue" d="M715.408,-255.5C725.003,-255.5 734.874,-255.5 744.283,-255.5"/>
<polygon fill="midnightblue" stroke="midnightblue" points="715.14,-252 705.14,-255.5 715.14,-259 715.14,-252"/>
</g>
<!-- Node21 -->
<g id="node21" class="node"><title>Node21</title>
<g id="a_node21"><a xlink:href="classDisplaySplitWidget.html#af09b165924f8be5a31873f3b11c8b3f9" target="_top" xlink:title="DisplaySplitWidget\l::resetViews">
<polygon fill="white" stroke="black" points="747.5,-44.5 747.5,-74.5 847.5,-74.5 847.5,-44.5 747.5,-44.5"/>
<text text-anchor="start" x="755.5" y="-62.5" font-family="Helvetica,sans-Serif" font-size="10.00">DisplaySplitWidget</text>
<text text-anchor="middle" x="797.5" y="-51.5" font-family="Helvetica,sans-Serif" font-size="10.00">::resetViews</text>
</a>
</g>
</g>
<!-- Node20&#45;&gt;Node21 -->
<g id="edge29" class="edge"><title>Node20&#45;&gt;Node21</title>
<path fill="none" stroke="midnightblue" d="M688.493,-113.111C704.116,-103.64 723.263,-92.5084 741,-83.5 746.99,-80.4576 753.454,-77.4365 759.78,-74.616"/>
<polygon fill="midnightblue" stroke="midnightblue" points="686.442,-110.263 679.739,-118.468 690.096,-116.234 686.442,-110.263"/>
</g>
<!-- Node23 -->
<g id="node23" class="node"><title>Node23</title>
<g id="a_node23"><a xlink:href="classDisplaySplitWidget.html#a0c0ae7b4fb7ddc344fec1a59034b771b" target="_top" xlink:title="DisplaySplitWidget\l::zoomToStandard">
<polygon fill="white" stroke="black" points="905.5,-0.5 905.5,-30.5 1005.5,-30.5 1005.5,-0.5 905.5,-0.5"/>
<text text-anchor="start" x="913.5" y="-18.5" font-family="Helvetica,sans-Serif" font-size="10.00">DisplaySplitWidget</text>
<text text-anchor="middle" x="955.5" y="-7.5" font-family="Helvetica,sans-Serif" font-size="10.00">::zoomToStandard</text>
</a>
</g>
</g>
<!-- Node20&#45;&gt;Node23 -->
<g id="edge32" class="edge"><title>Node20&#45;&gt;Node23</title>
<path fill="none" stroke="midnightblue" d="M669.117,-109.466C683.412,-85.8957 708.633,-51.1476 741,-34.5 792.458,-8.03342 860.176,-6.70933 905.414,-9.74868"/>
<polygon fill="midnightblue" stroke="midnightblue" points="666.04,-107.794 664.01,-118.193 672.082,-111.329 666.04,-107.794"/>
</g>
<!-- Node24 -->
<g id="node24" class="node"><title>Node24</title>
<g id="a_node24"><a xlink:href="classDisplaySplitWidget.html#a85aefaa2dbd64ebf686448a2c006f96d" target="_top" xlink:title="DisplaySplitWidget\l::setSplitEnabled">
<polygon fill="white" stroke="black" points="747.5,-191.5 747.5,-221.5 847.5,-221.5 847.5,-191.5 747.5,-191.5"/>
<text text-anchor="start" x="755.5" y="-209.5" font-family="Helvetica,sans-Serif" font-size="10.00">DisplaySplitWidget</text>
<text text-anchor="middle" x="797.5" y="-198.5" font-family="Helvetica,sans-Serif" font-size="10.00">::setSplitEnabled</text>
</a>
</g>
</g>
<!-- Node20&#45;&gt;Node24 -->
<g id="edge33" class="edge"><title>Node20&#45;&gt;Node24</title>
<path fill="none" stroke="midnightblue" d="M690.004,-153.637C705.399,-162.511 723.937,-172.861 741,-181.5 747.6,-184.841 754.74,-188.225 761.632,-191.377"/>
<polygon fill="midnightblue" stroke="midnightblue" points="691.742,-150.6 681.337,-148.607 688.229,-156.654 691.742,-150.6"/>
</g>
<!-- Node25 -->
<g id="node25" class="node"><title>Node25</title>
<g id="a_node25"><a xlink:href="classDisplaySplitWidget.html#a2c0dcc84e9609d30e1eadd8340493e0b" target="_top" xlink:title="DisplaySplitWidget\l::resizeEvent">
<polygon fill="white" stroke="black" points="747.5,-142.5 747.5,-172.5 847.5,-172.5 847.5,-142.5 747.5,-142.5"/>
<text text-anchor="start" x="755.5" y="-160.5" font-family="Helvetica,sans-Serif" font-size="10.00">DisplaySplitWidget</text>
<text text-anchor="middle" x="797.5" y="-149.5" font-family="Helvetica,sans-Serif" font-size="10.00">::resizeEvent</text>
</a>
</g>
</g>
<!-- Node20&#45;&gt;Node25 -->
<g id="edge34" class="edge"><title>Node20&#45;&gt;Node25</title>
<path fill="none" stroke="midnightblue" d="M715.201,-143.613C725.841,-145.43 736.827,-147.307 747.15,-149.07"/>
<polygon fill="midnightblue" stroke="midnightblue" points="715.587,-140.128 705.14,-141.894 714.408,-147.028 715.587,-140.128"/>
</g>
<!-- Node26 -->
<g id="node26" class="node"><title>Node26</title>
<g id="a_node26"><a xlink:href="classDisplaySplitWidget.html#abe7686903d7727bd0f882dc68459f22d" target="_top" xlink:title="DisplaySplitWidget\l::setViewMode">
<polygon fill="white" stroke="black" points="747.5,-93.5 747.5,-123.5 847.5,-123.5 847.5,-93.5 747.5,-93.5"/>
<text text-anchor="start" x="755.5" y="-111.5" font-family="Helvetica,sans-Serif" font-size="10.00">DisplaySplitWidget</text>
<text text-anchor="middle" x="797.5" y="-100.5" font-family="Helvetica,sans-Serif" font-size="10.00">::setViewMode</text>
</a>
</g>
</g>
<!-- Node20&#45;&gt;Node26 -->
<g id="edge35" class="edge"><title>Node20&#45;&gt;Node26</title>
<path fill="none" stroke="midnightblue" d="M715.201,-122.966C725.841,-121.073 736.827,-119.118 747.15,-117.281"/>
<polygon fill="midnightblue" stroke="midnightblue" points="714.372,-119.558 705.14,-124.756 715.599,-126.45 714.372,-119.558"/>
</g>
<!-- Node22 -->
<g id="node22" class="node"><title>Node22</title>
<g id="a_node22"><a xlink:href="classDisplaySplitWidget.html#a6ac792979681575417245e357cdadb69" target="_top" xlink:title="DisplaySplitWidget\l::setActiveDisplayObjects">
<polygon fill="white" stroke="black" points="890,-49.5 890,-79.5 1021,-79.5 1021,-49.5 890,-49.5"/>
<text text-anchor="start" x="898" y="-67.5" font-family="Helvetica,sans-Serif" font-size="10.00">DisplaySplitWidget</text>
<text text-anchor="middle" x="955.5" y="-56.5" font-family="Helvetica,sans-Serif" font-size="10.00">::setActiveDisplayObjects</text>
</a>
</g>
</g>
<!-- Node21&#45;&gt;Node22 -->
<g id="edge30" class="edge"><title>Node21&#45;&gt;Node22</title>
<path fill="none" stroke="midnightblue" d="M858.047,-61.4086C868.418,-61.741 879.251,-62.0882 889.754,-62.4248"/>
<polygon fill="midnightblue" stroke="midnightblue" points="857.966,-57.9043 847.859,-61.082 857.742,-64.9007 857.966,-57.9043"/>
</g>
<!-- Node21&#45;&gt;Node23 -->
<g id="edge31" class="edge"><title>Node21&#45;&gt;Node23</title>
<path fill="none" stroke="midnightblue" d="M857.534,-42.8493C873.343,-38.3905 890.258,-33.6196 905.462,-29.3313"/>
<polygon fill="midnightblue" stroke="midnightblue" points="856.534,-39.4949 847.859,-45.5781 858.434,-46.232 856.534,-39.4949"/>
</g>
</g>
</svg>
