<?xml version="1.0" encoding="UTF-8" standalone="no"?>
<!DOCTYPE svg PUBLIC "-//W3C//DTD SVG 1.1//EN"
 "http://www.w3.org/Graphics/SVG/1.1/DTD/svg11.dtd">
<!-- Generated by graphviz version 2.38.0 (20140413.2041)
 -->
<!-- Title: /home/ient/YUViewOrig/YUView/source/yuvfile.h Pages: 1 -->
<!--zoomable 441 -->
<svg id="main" version="1.1" xmlns="http://www.w3.org/2000/svg" xmlns:xlink="http://www.w3.org/1999/xlink" xml:space="preserve" onload="init(evt)">
<style type="text/css"><![CDATA[
.edge:hover path { stroke: red; }
.edge:hover polygon { stroke: red; fill: red; }
]]></style>
<script type="text/javascript"><![CDATA[
var edges = document.getElementsByTagName('g');
if (edges && edges.length) {
  for (var i=0;i<edges.length;i++) {
    if (edges[i].id.substr(0,4)=='edge') {
      edges[i].setAttribute('class','edge');
    }
  }
}
]]></script>
        <defs>
                <circle id="rim" cx="0" cy="0" r="7"/>
                <circle id="rim2" cx="0" cy="0" r="3.5"/>
                <g id="zoomPlus">
                        <use xlink:href="#rim" fill="#404040">
                                <set attributeName="fill" to="#808080" begin="zoomplus.mouseover" end="zoomplus.mouseout"/>
                        </use>
                        <path d="M-4,0h8M0,-4v8" fill="none" stroke="white" stroke-width="1.5" pointer-events="none"/>
                </g>
                <g id="zoomMin">
                        <use xlink:href="#rim" fill="#404040">
                                <set attributeName="fill" to="#808080" begin="zoomminus.mouseover" end="zoomminus.mouseout"/>
                        </use>
                        <path d="M-4,0h8" fill="none" stroke="white" stroke-width="1.5" pointer-events="none"/>
                </g>
                <g id="dirArrow">
                        <path fill="none" stroke="white" stroke-width="1.5" d="M0,-3.0v7 M-2.5,-0.5L0,-3.0L2.5,-0.5"/>
                </g>
               <g id="resetDef">
                       <use xlink:href="#rim2" fill="#404040">
                               <set attributeName="fill" to="#808080" begin="reset.mouseover" end="reset.mouseout"/>
                       </use>
               </g>
        </defs>

<script type="text/javascript">
var viewWidth = 1344;
var viewHeight = 441;
var sectionId = 'dynsection-1';
</script>
<script xlink:href="svgpan.js"/>
<svg id="graph" class="graph">
<g id="viewport">
<title>/home/ient/YUViewOrig/YUView/source/yuvfile.h</title>
<polygon fill="white" stroke="none" points="-4,4 -4,-437 1339.5,-437 1339.5,4 -4,4"/>
<!-- Node1 -->
<g id="node1" class="node"><title>Node1</title>
<polygon fill="#bfbfbf" stroke="black" points="969.5,-402.5 969.5,-432.5 1097.5,-432.5 1097.5,-402.5 969.5,-402.5"/>
<text text-anchor="start" x="977.5" y="-420.5" font-family="Helvetica,sans-Serif" font-size="10.00">/home/ient/YUViewOrig</text>
<text text-anchor="middle" x="1033.5" y="-409.5" font-family="Helvetica,sans-Serif" font-size="10.00">/YUView/source/yuvfile.h</text>
</g>
<!-- Node2 -->
<g id="node2" class="node"><title>Node2</title>
<g id="a_node2"><a xlink:href="frameobject_8h.html" target="_top" xlink:title="/home/ient/YUViewOrig\l/YUView/source/frameobject.h">
<polygon fill="white" stroke="black" points="701.5,-335.5 701.5,-365.5 851.5,-365.5 851.5,-335.5 701.5,-335.5"/>
<text text-anchor="start" x="709.5" y="-353.5" font-family="Helvetica,sans-Serif" font-size="10.00">/home/ient/YUViewOrig</text>
<text text-anchor="middle" x="776.5" y="-342.5" font-family="Helvetica,sans-Serif" font-size="10.00">/YUView/source/frameobject.h</text>
</a>
</g>
</g>
<!-- Node1&#45;&gt;Node2 -->
<g id="edge1" class="edge"><title>Node1&#45;&gt;Node2</title>
<path fill="none" stroke="midnightblue" d="M968.2,-399.984C926.222,-389.367 872.263,-375.72 832.292,-365.611"/>
<polygon fill="midnightblue" stroke="midnightblue" points="967.498,-403.417 978.051,-402.476 969.215,-396.631 967.498,-403.417"/>
</g>
<!-- Node16 -->
<g id="node16" class="node"><title>Node16</title>
<g id="a_node16"><a xlink:href="frameobject_8cpp.html" target="_top" xlink:title="/home/ient/YUViewOrig\l/YUView/source/frameobject.cpp">
<polygon fill="white" stroke="black" points="943,-268.5 943,-298.5 1104,-298.5 1104,-268.5 943,-268.5"/>
<text text-anchor="start" x="951" y="-286.5" font-family="Helvetica,sans-Serif" font-size="10.00">/home/ient/YUViewOrig</text>
<text text-anchor="middle" x="1023.5" y="-275.5" font-family="Helvetica,sans-Serif" font-size="10.00">/YUView/source/frameobject.cpp</text>
</a>
</g>
</g>
<!-- Node1&#45;&gt;Node16 -->
<g id="edge23" class="edge"><title>Node1&#45;&gt;Node16</title>
<path fill="none" stroke="midnightblue" d="M1011.48,-394.527C1004.68,-386.283 998.041,-376.379 994.5,-366 990.051,-352.96 990.95,-348.312 994.5,-335 998.043,-321.715 1006.01,-308.292 1012.69,-298.628"/>
<polygon fill="midnightblue" stroke="midnightblue" points="1008.99,-396.996 1018.24,-402.174 1014.24,-392.362 1008.99,-396.996"/>
</g>
<!-- Node17 -->
<g id="node17" class="node"><title>Node17</title>
<g id="a_node17"><a xlink:href="statisticsobject_8cpp.html" target="_top" xlink:title="/home/ient/YUViewOrig\l/YUView/source/statisticsobject.cpp">
<polygon fill="white" stroke="black" points="1003.5,-335.5 1003.5,-365.5 1179.5,-365.5 1179.5,-335.5 1003.5,-335.5"/>
<text text-anchor="start" x="1011.5" y="-353.5" font-family="Helvetica,sans-Serif" font-size="10.00">/home/ient/YUViewOrig</text>
<text text-anchor="middle" x="1091.5" y="-342.5" font-family="Helvetica,sans-Serif" font-size="10.00">/YUView/source/statisticsobject.cpp</text>
</a>
</g>
</g>
<!-- Node1&#45;&gt;Node17 -->
<g id="edge24" class="edge"><title>Node1&#45;&gt;Node17</title>
<path fill="none" stroke="midnightblue" d="M1052.92,-394.736C1061.5,-385.119 1071.34,-374.089 1078.94,-365.577"/>
<polygon fill="midnightblue" stroke="midnightblue" points="1050.13,-392.604 1046.09,-402.396 1055.35,-397.265 1050.13,-392.604"/>
</g>
<!-- Node18 -->
<g id="node18" class="node"><title>Node18</title>
<g id="a_node18"><a xlink:href="yuvfile_8cpp.html" target="_top" xlink:title="/home/ient/YUViewOrig\l/YUView/source/yuvfile.cpp">
<polygon fill="white" stroke="black" points="1197.5,-335.5 1197.5,-365.5 1335.5,-365.5 1335.5,-335.5 1197.5,-335.5"/>
<text text-anchor="start" x="1205.5" y="-353.5" font-family="Helvetica,sans-Serif" font-size="10.00">/home/ient/YUViewOrig</text>
<text text-anchor="middle" x="1266.5" y="-342.5" font-family="Helvetica,sans-Serif" font-size="10.00">/YUView/source/yuvfile.cpp</text>
</a>
</g>
</g>
<!-- Node1&#45;&gt;Node18 -->
<g id="edge25" class="edge"><title>Node1&#45;&gt;Node18</title>
<path fill="none" stroke="midnightblue" d="M1093.67,-399.715C1131.58,-389.137 1179.99,-375.635 1215.92,-365.611"/>
<polygon fill="midnightblue" stroke="midnightblue" points="1092.46,-396.418 1083.77,-402.476 1094.34,-403.16 1092.46,-396.418"/>
</g>
<!-- Node3 -->
<g id="node3" class="node"><title>Node3</title>
<g id="a_node3"><a xlink:href="differenceobject_8h.html" target="_top" xlink:title="/home/ient/YUViewOrig\l/YUView/source/differenceobject.h">
<polygon fill="white" stroke="black" points="756.5,-268.5 756.5,-298.5 924.5,-298.5 924.5,-268.5 756.5,-268.5"/>
<text text-anchor="start" x="764.5" y="-286.5" font-family="Helvetica,sans-Serif" font-size="10.00">/home/ient/YUViewOrig</text>
<text text-anchor="middle" x="840.5" y="-275.5" font-family="Helvetica,sans-Serif" font-size="10.00">/YUView/source/differenceobject.h</text>
</a>
</g>
</g>
<!-- Node2&#45;&gt;Node3 -->
<g id="edge2" class="edge"><title>Node2&#45;&gt;Node3</title>
<path fill="none" stroke="midnightblue" d="M797.645,-328.024C807.181,-318.34 818.175,-307.174 826.64,-298.577"/>
<polygon fill="midnightblue" stroke="midnightblue" points="794.909,-325.815 790.387,-335.396 799.897,-330.726 794.909,-325.815"/>
</g>
<!-- Node5 -->
<g id="node5" class="node"><title>Node5</title>
<g id="a_node5"><a xlink:href="playlistitem_8h.html" target="_top" xlink:title="/home/ient/YUViewOrig\l/YUView/source/playlistitem.h">
<polygon fill="white" stroke="black" points="558,-201.5 558,-231.5 707,-231.5 707,-201.5 558,-201.5"/>
<text text-anchor="start" x="566" y="-219.5" font-family="Helvetica,sans-Serif" font-size="10.00">/home/ient/YUViewOrig</text>
<text text-anchor="middle" x="632.5" y="-208.5" font-family="Helvetica,sans-Serif" font-size="10.00">/YUView/source/playlistitem.h</text>
</a>
</g>
</g>
<!-- Node2&#45;&gt;Node5 -->
<g id="edge20" class="edge"><title>Node2&#45;&gt;Node5</title>
<path fill="none" stroke="midnightblue" d="M760.942,-327.048C748.293,-309.736 729.347,-285.819 709.5,-268 693.798,-253.902 673.816,-240.916 658.144,-231.644"/>
<polygon fill="midnightblue" stroke="midnightblue" points="758.282,-329.345 766.954,-335.432 763.971,-325.266 758.282,-329.345"/>
</g>
<!-- Node14 -->
<g id="node14" class="node"><title>Node14</title>
<g id="a_node14"><a xlink:href="displaysplitwidget_8h.html" target="_top" xlink:title="/home/ient/YUViewOrig\l/YUView/source/displaysplitwidget.h">
<polygon fill="white" stroke="black" points="552.5,-134.5 552.5,-164.5 728.5,-164.5 728.5,-134.5 552.5,-134.5"/>
<text text-anchor="start" x="560.5" y="-152.5" font-family="Helvetica,sans-Serif" font-size="10.00">/home/ient/YUViewOrig</text>
<text text-anchor="middle" x="640.5" y="-141.5" font-family="Helvetica,sans-Serif" font-size="10.00">/YUView/source/displaysplitwidget.h</text>
</a>
</g>
</g>
<!-- Node2&#45;&gt;Node14 -->
<g id="edge17" class="edge"><title>Node2&#45;&gt;Node14</title>
<path fill="none" stroke="midnightblue" d="M691.022,-343.921C625.814,-337.674 543.687,-324.814 522.5,-299 501.853,-273.844 540.285,-210.376 548.5,-201 562.668,-184.829 583.322,-172.836 601.472,-164.606"/>
<polygon fill="midnightblue" stroke="midnightblue" points="691.052,-347.439 701.33,-344.868 691.693,-340.468 691.052,-347.439"/>
</g>
<!-- Node15 -->
<g id="node15" class="node"><title>Node15</title>
<g id="a_node15"><a xlink:href="displaywidget_8cpp.html" target="_top" xlink:title="/home/ient/YUViewOrig\l/YUView/source/displaywidget.cpp">
<polygon fill="white" stroke="black" points="532,-268.5 532,-298.5 701,-298.5 701,-268.5 532,-268.5"/>
<text text-anchor="start" x="540" y="-286.5" font-family="Helvetica,sans-Serif" font-size="10.00">/home/ient/YUViewOrig</text>
<text text-anchor="middle" x="616.5" y="-275.5" font-family="Helvetica,sans-Serif" font-size="10.00">/YUView/source/displaywidget.cpp</text>
</a>
</g>
</g>
<!-- Node2&#45;&gt;Node15 -->
<g id="edge21" class="edge"><title>Node2&#45;&gt;Node15</title>
<path fill="none" stroke="midnightblue" d="M732.301,-331.544C706.698,-321.143 674.932,-308.238 651.15,-298.577"/>
<polygon fill="midnightblue" stroke="midnightblue" points="731.2,-334.875 741.782,-335.396 733.835,-328.39 731.2,-334.875"/>
</g>
<!-- Node2&#45;&gt;Node16 -->
<g id="edge22" class="edge"><title>Node2&#45;&gt;Node16</title>
<path fill="none" stroke="midnightblue" d="M839.515,-332.917C879.823,-322.31 931.545,-308.699 969.879,-298.611"/>
<polygon fill="midnightblue" stroke="midnightblue" points="838.571,-329.546 829.791,-335.476 840.353,-336.316 838.571,-329.546"/>
</g>
<!-- Node4 -->
<g id="node4" class="node"><title>Node4</title>
<g id="a_node4"><a xlink:href="differenceobject_8cpp.html" target="_top" xlink:title="/home/ient/YUViewOrig\l/YUView/source/differenceobject.cpp">
<polygon fill="white" stroke="black" points="725,-201.5 725,-231.5 904,-231.5 904,-201.5 725,-201.5"/>
<text text-anchor="start" x="733" y="-219.5" font-family="Helvetica,sans-Serif" font-size="10.00">/home/ient/YUViewOrig</text>
<text text-anchor="middle" x="814.5" y="-208.5" font-family="Helvetica,sans-Serif" font-size="10.00">/YUView/source/differenceobject.cpp</text>
</a>
</g>
</g>
<!-- Node3&#45;&gt;Node4 -->
<g id="edge3" class="edge"><title>Node3&#45;&gt;Node4</title>
<path fill="none" stroke="midnightblue" d="M831.096,-258.991C827.422,-249.804 823.331,-239.578 820.131,-231.577"/>
<polygon fill="midnightblue" stroke="midnightblue" points="827.895,-260.411 834.858,-268.396 834.394,-257.811 827.895,-260.411"/>
</g>
<!-- Node3&#45;&gt;Node5 -->
<g id="edge4" class="edge"><title>Node3&#45;&gt;Node5</title>
<path fill="none" stroke="midnightblue" d="M785.922,-265.444C752.205,-254.908 709.458,-241.549 677.655,-231.611"/>
<polygon fill="midnightblue" stroke="midnightblue" points="785.034,-268.834 795.623,-268.476 787.122,-262.152 785.034,-268.834"/>
</g>
<!-- Node8 -->
<g id="node8" class="node"><title>Node8</title>
<g id="a_node8"><a xlink:href="mainwindow_8cpp.html" target="_top" xlink:title="/home/ient/YUViewOrig\l/YUView/source/mainwindow.cpp">
<polygon fill="white" stroke="black" points="755.5,-67.5 755.5,-97.5 919.5,-97.5 919.5,-67.5 755.5,-67.5"/>
<text text-anchor="start" x="763.5" y="-85.5" font-family="Helvetica,sans-Serif" font-size="10.00">/home/ient/YUViewOrig</text>
<text text-anchor="middle" x="837.5" y="-74.5" font-family="Helvetica,sans-Serif" font-size="10.00">/YUView/source/mainwindow.cpp</text>
</a>
</g>
</g>
<!-- Node3&#45;&gt;Node8 -->
<g id="edge15" class="edge"><title>Node3&#45;&gt;Node8</title>
<path fill="none" stroke="midnightblue" d="M887.886,-263.863C902.934,-255.969 918.504,-245.433 929.5,-232 957.776,-197.458 975.848,-171.415 951.5,-134 940.166,-116.582 921.301,-105.126 902.147,-97.6102"/>
<polygon fill="midnightblue" stroke="midnightblue" points="886.042,-260.87 878.628,-268.438 889.144,-267.145 886.042,-260.87"/>
</g>
<!-- Node13 -->
<g id="node13" class="node"><title>Node13</title>
<g id="a_node13"><a xlink:href="playlistitem_8cpp.html" target="_top" xlink:title="/home/ient/YUViewOrig\l/YUView/source/playlistitem.cpp">
<polygon fill="white" stroke="black" points="784,-134.5 784,-164.5 943,-164.5 943,-134.5 784,-134.5"/>
<text text-anchor="start" x="792" y="-152.5" font-family="Helvetica,sans-Serif" font-size="10.00">/home/ient/YUViewOrig</text>
<text text-anchor="middle" x="863.5" y="-141.5" font-family="Helvetica,sans-Serif" font-size="10.00">/YUView/source/playlistitem.cpp</text>
</a>
</g>
</g>
<!-- Node3&#45;&gt;Node13 -->
<g id="edge16" class="edge"><title>Node3&#45;&gt;Node13</title>
<path fill="none" stroke="midnightblue" d="M881.885,-263.158C893.981,-255.304 905.754,-244.971 912.5,-232 918.857,-219.776 917.676,-213.768 912.5,-201 906.579,-186.396 894.183,-173.687 883.341,-164.671"/>
<polygon fill="midnightblue" stroke="midnightblue" points="879.859,-260.292 873.088,-268.441 883.463,-266.293 879.859,-260.292"/>
</g>
<!-- Node6 -->
<g id="node6" class="node"><title>Node6</title>
<g id="a_node6"><a xlink:href="mainwindow_8h.html" target="_top" xlink:title="/home/ient/YUViewOrig\l/YUView/source/mainwindow.h">
<polygon fill="white" stroke="black" points="376,-134.5 376,-164.5 529,-164.5 529,-134.5 376,-134.5"/>
<text text-anchor="start" x="384" y="-152.5" font-family="Helvetica,sans-Serif" font-size="10.00">/home/ient/YUViewOrig</text>
<text text-anchor="middle" x="452.5" y="-141.5" font-family="Helvetica,sans-Serif" font-size="10.00">/YUView/source/mainwindow.h</text>
</a>
</g>
</g>
<!-- Node5&#45;&gt;Node6 -->
<g id="edge5" class="edge"><title>Node5&#45;&gt;Node6</title>
<path fill="none" stroke="midnightblue" d="M583.915,-197.955C554.919,-187.485 518.589,-174.366 491.481,-164.577"/>
<polygon fill="midnightblue" stroke="midnightblue" points="582.848,-201.291 593.443,-201.396 585.226,-194.708 582.848,-201.291"/>
</g>
<!-- Node5&#45;&gt;Node8 -->
<g id="edge12" class="edge"><title>Node5&#45;&gt;Node8</title>
<path fill="none" stroke="midnightblue" d="M676.423,-197.331C695.752,-188.596 718.363,-177.343 737.5,-165 755.529,-153.372 757.907,-147.599 774.5,-134 789.679,-121.56 807.097,-107.623 819.766,-97.5472"/>
<polygon fill="midnightblue" stroke="midnightblue" points="674.949,-194.156 667.227,-201.411 677.787,-200.555 674.949,-194.156"/>
</g>
<!-- Node9 -->
<g id="node9" class="node"><title>Node9</title>
<g id="a_node9"><a xlink:href="playlisttreewidget_8cpp.html" target="_top" xlink:title="/home/ient/YUViewOrig\l/YUView/source/playlisttreewidget.cpp">
<polygon fill="white" stroke="black" points="0,-67.5 0,-97.5 185,-97.5 185,-67.5 0,-67.5"/>
<text text-anchor="start" x="8" y="-85.5" font-family="Helvetica,sans-Serif" font-size="10.00">/home/ient/YUViewOrig</text>
<text text-anchor="middle" x="92.5" y="-74.5" font-family="Helvetica,sans-Serif" font-size="10.00">/YUView/source/playlisttreewidget.cpp</text>
</a>
</g>
</g>
<!-- Node5&#45;&gt;Node9 -->
<g id="edge14" class="edge"><title>Node5&#45;&gt;Node9</title>
<path fill="none" stroke="midnightblue" d="M547.881,-201.695C495.378,-192.571 426.682,-179.623 366.5,-165 283.551,-144.845 188.377,-114.983 134.85,-97.5558"/>
<polygon fill="midnightblue" stroke="midnightblue" points="547.375,-205.159 557.824,-203.41 548.565,-198.261 547.375,-205.159"/>
</g>
<!-- Node5&#45;&gt;Node13 -->
<g id="edge13" class="edge"><title>Node5&#45;&gt;Node13</title>
<path fill="none" stroke="midnightblue" d="M692.152,-198.715C729.743,-188.137 777.729,-174.635 813.352,-164.611"/>
<polygon fill="midnightblue" stroke="midnightblue" points="691.017,-195.398 682.339,-201.476 692.913,-202.136 691.017,-195.398"/>
</g>
<!-- Node7 -->
<g id="node7" class="node"><title>Node7</title>
<g id="a_node7"><a xlink:href="displaysplitwidget_8cpp.html" target="_top" xlink:title="/home/ient/YUViewOrig\l/YUView/source/displaysplitwidget.cpp">
<polygon fill="white" stroke="black" points="550,-67.5 550,-97.5 737,-97.5 737,-67.5 550,-67.5"/>
<text text-anchor="start" x="558" y="-85.5" font-family="Helvetica,sans-Serif" font-size="10.00">/home/ient/YUViewOrig</text>
<text text-anchor="middle" x="643.5" y="-74.5" font-family="Helvetica,sans-Serif" font-size="10.00">/YUView/source/displaysplitwidget.cpp</text>
</a>
</g>
</g>
<!-- Node6&#45;&gt;Node7 -->
<g id="edge6" class="edge"><title>Node6&#45;&gt;Node7</title>
<path fill="none" stroke="midnightblue" d="M503.654,-131.092C534.487,-120.599 573.247,-107.408 602.137,-97.5765"/>
<polygon fill="midnightblue" stroke="midnightblue" points="502.283,-127.861 493.944,-134.396 504.539,-134.488 502.283,-127.861"/>
</g>
<!-- Node6&#45;&gt;Node8 -->
<g id="edge7" class="edge"><title>Node6&#45;&gt;Node8</title>
<path fill="none" stroke="midnightblue" d="M539.21,-133.861C603.958,-122.929 691.868,-108.087 755.464,-97.3502"/>
<polygon fill="midnightblue" stroke="midnightblue" points="538.302,-130.464 529.024,-135.58 539.467,-137.367 538.302,-130.464"/>
</g>
<!-- Node6&#45;&gt;Node9 -->
<g id="edge8" class="edge"><title>Node6&#45;&gt;Node9</title>
<path fill="none" stroke="midnightblue" d="M365.565,-132.803C305.967,-122.043 227.591,-107.892 170.1,-97.5111"/>
<polygon fill="midnightblue" stroke="midnightblue" points="365.25,-136.303 375.713,-134.636 366.494,-129.414 365.25,-136.303"/>
</g>
<!-- Node10 -->
<g id="node10" class="node"><title>Node10</title>
<g id="a_node10"><a xlink:href="statslistview_8cpp.html" target="_top" xlink:title="/home/ient/YUViewOrig\l/YUView/source/statslistview.cpp">
<polygon fill="white" stroke="black" points="367.5,-67.5 367.5,-97.5 531.5,-97.5 531.5,-67.5 367.5,-67.5"/>
<text text-anchor="start" x="375.5" y="-85.5" font-family="Helvetica,sans-Serif" font-size="10.00">/home/ient/YUViewOrig</text>
<text text-anchor="middle" x="449.5" y="-74.5" font-family="Helvetica,sans-Serif" font-size="10.00">/YUView/source/statslistview.cpp</text>
</a>
</g>
</g>
<!-- Node6&#45;&gt;Node10 -->
<g id="edge9" class="edge"><title>Node6&#45;&gt;Node10</title>
<path fill="none" stroke="midnightblue" d="M451.388,-124.403C450.971,-115.37 450.511,-105.408 450.15,-97.5765"/>
<polygon fill="midnightblue" stroke="midnightblue" points="447.892,-124.568 451.849,-134.396 454.884,-124.245 447.892,-124.568"/>
</g>
<!-- Node11 -->
<g id="node11" class="node"><title>Node11</title>
<g id="a_node11"><a xlink:href="yuviewapp_8h.html" target="_top" xlink:title="/home/ient/YUViewOrig\l/YUView/source/yuviewapp.h">
<polygon fill="white" stroke="black" points="203.5,-67.5 203.5,-97.5 349.5,-97.5 349.5,-67.5 203.5,-67.5"/>
<text text-anchor="start" x="211.5" y="-85.5" font-family="Helvetica,sans-Serif" font-size="10.00">/home/ient/YUViewOrig</text>
<text text-anchor="middle" x="276.5" y="-74.5" font-family="Helvetica,sans-Serif" font-size="10.00">/YUView/source/yuviewapp.h</text>
</a>
</g>
</g>
<!-- Node6&#45;&gt;Node11 -->
<g id="edge10" class="edge"><title>Node6&#45;&gt;Node11</title>
<path fill="none" stroke="midnightblue" d="M404.624,-130.819C376.334,-120.371 341.006,-107.323 314.615,-97.5765"/>
<polygon fill="midnightblue" stroke="midnightblue" points="403.717,-134.215 414.311,-134.396 406.143,-127.648 403.717,-134.215"/>
</g>
<!-- Node12 -->
<g id="node12" class="node"><title>Node12</title>
<g id="a_node12"><a xlink:href="yuviewapp_8cpp.html" target="_top" xlink:title="/home/ient/YUViewOrig\l/YUView/source/yuviewapp.cpp">
<polygon fill="white" stroke="black" points="198.5,-0.5 198.5,-30.5 354.5,-30.5 354.5,-0.5 198.5,-0.5"/>
<text text-anchor="start" x="206.5" y="-18.5" font-family="Helvetica,sans-Serif" font-size="10.00">/home/ient/YUViewOrig</text>
<text text-anchor="middle" x="276.5" y="-7.5" font-family="Helvetica,sans-Serif" font-size="10.00">/YUView/source/yuviewapp.cpp</text>
</a>
</g>
</g>
<!-- Node11&#45;&gt;Node12 -->
<g id="edge11" class="edge"><title>Node11&#45;&gt;Node12</title>
<path fill="none" stroke="midnightblue" d="M276.5,-57.1081C276.5,-48.1539 276.5,-38.3227 276.5,-30.5765"/>
<polygon fill="midnightblue" stroke="midnightblue" points="273,-57.3959 276.5,-67.396 280,-57.396 273,-57.3959"/>
</g>
<!-- Node14&#45;&gt;Node7 -->
<g id="edge18" class="edge"><title>Node14&#45;&gt;Node7</title>
<path fill="none" stroke="midnightblue" d="M641.612,-124.403C642.029,-115.37 642.489,-105.408 642.85,-97.5765"/>
<polygon fill="midnightblue" stroke="midnightblue" points="638.116,-124.245 641.151,-134.396 645.108,-124.568 638.116,-124.245"/>
</g>
<!-- Node14&#45;&gt;Node8 -->
<g id="edge19" class="edge"><title>Node14&#45;&gt;Node8</title>
<path fill="none" stroke="midnightblue" d="M692.848,-131.228C724.716,-120.713 764.911,-107.451 794.837,-97.5765"/>
<polygon fill="midnightblue" stroke="midnightblue" points="691.646,-127.939 683.246,-134.396 693.839,-134.586 691.646,-127.939"/>
</g>
</g>
</svg>
        <g id="navigator" transform="translate(0 0)" fill="#404254">
                <rect fill="#f2f5e9" fill-opacity="0.5" stroke="#606060" stroke-width=".5" x="0" y="0" width="60" height="60"/>
                <use id="zoomplus" xlink:href="#zoomPlus" x="17" y="9" onmousedown="handleZoom(evt,'in')"/>
                <use id="zoomminus" xlink:href="#zoomMin" x="42" y="9" onmousedown="handleZoom(evt,'out')"/>
                <use id="reset" xlink:href="#resetDef" x="30" y="36" onmousedown="handleReset()"/>
                <g id="arrowUp" xlink:href="#dirArrow" transform="translate(30 24)" onmousedown="handlePan(0,-1)">
                  <use xlink:href="#rim" fill="#404040">
                        <set attributeName="fill" to="#808080" begin="arrowUp.mouseover" end="arrowUp.mouseout"/>
                  </use>
                  <path fill="none" stroke="white" stroke-width="1.5" d="M0,-3.0v7 M-2.5,-0.5L0,-3.0L2.5,-0.5"/>
                </g>
                <g id="arrowRight" xlink:href="#dirArrow" transform="rotate(90) translate(36 -43)" onmousedown="handlePan(1,0)">
                  <use xlink:href="#rim" fill="#404040">
                        <set attributeName="fill" to="#808080" begin="arrowRight.mouseover" end="arrowRight.mouseout"/>
                  </use>
                  <path fill="none" stroke="white" stroke-width="1.5" d="M0,-3.0v7 M-2.5,-0.5L0,-3.0L2.5,-0.5"/>
                </g>
                <g id="arrowDown" xlink:href="#dirArrow" transform="rotate(180) translate(-30 -48)" onmousedown="handlePan(0,1)">
                  <use xlink:href="#rim" fill="#404040">
                        <set attributeName="fill" to="#808080" begin="arrowDown.mouseover" end="arrowDown.mouseout"/>
                  </use>
                  <path fill="none" stroke="white" stroke-width="1.5" d="M0,-3.0v7 M-2.5,-0.5L0,-3.0L2.5,-0.5"/>
                </g>
                <g id="arrowLeft" xlink:href="#dirArrow" transform="rotate(270) translate(-36 17)" onmousedown="handlePan(-1,0)">
                  <use xlink:href="#rim" fill="#404040">
                        <set attributeName="fill" to="#808080" begin="arrowLeft.mouseover" end="arrowLeft.mouseout"/>
                  </use>
                  <path fill="none" stroke="white" stroke-width="1.5" d="M0,-3.0v7 M-2.5,-0.5L0,-3.0L2.5,-0.5"/>
                </g>
        </g>
        <svg viewBox="0 0 15 15" width="100%" height="30px" preserveAspectRatio="xMaxYMin meet">
         <g id="arrow_out" transform="scale(0.3 0.3)">
          <a xlink:href="yuvfile_8h__dep__incl_org.svg" target="_base">
           <rect id="button" ry="5" rx="5" y="6" x="6" height="38" width="38"
                fill="#f2f5e9" fill-opacity="0.5" stroke="#606060" stroke-width="1.0"/>
           <path id="arrow"
             d="M 11.500037,31.436501 C 11.940474,20.09759 22.043105,11.32322 32.158766,21.979434 L 37.068811,17.246167 C 37.068811,17.246167 37.088388,32 37.088388,32 L 22.160133,31.978069 C 22.160133,31.978069 26.997745,27.140456 26.997745,27.140456 C 18.528582,18.264221 13.291696,25.230495 11.500037,31.436501 z"
             style="fill:#404040;"/>
          </a>
         </g>
        </svg>
</svg>
