<?xml version="1.0" encoding="UTF-8" standalone="no"?>
<!DOCTYPE svg PUBLIC "-//W3C//DTD SVG 1.1//EN"
 "http://www.w3.org/Graphics/SVG/1.1/DTD/svg11.dtd">
<!-- Generated by graphviz version 2.38.0 (20140413.2041)
 -->
<!-- Title: /home/ient/YUViewOrig/YUView/source/yuvfile.cpp Pages: 1 -->
<svg width="640pt" height="207pt"
 viewBox="0.00 0.00 639.50 207.00" xmlns="http://www.w3.org/2000/svg" xmlns:xlink="http://www.w3.org/1999/xlink">
<g id="graph0" class="graph" transform="scale(1 1) rotate(0) translate(4 203)">
<title>/home/ient/YUViewOrig/YUView/source/yuvfile.cpp</title>
<polygon fill="white" stroke="none" points="-4,4 -4,-203 635.5,-203 635.5,4 -4,4"/>
<!-- Node1 -->
<g id="node1" class="node"><title>Node1</title>
<polygon fill="#bfbfbf" stroke="black" points="265,-168.5 265,-198.5 403,-198.5 403,-168.5 265,-168.5"/>
<text text-anchor="start" x="273" y="-186.5" font-family="Helvetica,sans-Serif" font-size="10.00">/home/ient/YUViewOrig</text>
<text text-anchor="middle" x="334" y="-175.5" font-family="Helvetica,sans-Serif" font-size="10.00">/YUView/source/yuvfile.cpp</text>
</g>
<!-- Node2 -->
<g id="node2" class="node"><title>Node2</title>
<g id="a_node2"><a xlink:href="yuvfile_8h.html" target="_top" xlink:title="yuvfile.h">
<polygon fill="white" stroke="black" points="135.5,-112.5 135.5,-131.5 188.5,-131.5 188.5,-112.5 135.5,-112.5"/>
<text text-anchor="middle" x="162" y="-119.5" font-family="Helvetica,sans-Serif" font-size="10.00">yuvfile.h</text>
</a>
</g>
</g>
<!-- Node1&#45;&gt;Node2 -->
<g id="edge1" class="edge"><title>Node1&#45;&gt;Node2</title>
<path fill="none" stroke="midnightblue" d="M293.238,-168.399C263.776,-158.207 224.411,-144.59 196.501,-134.935"/>
<polygon fill="midnightblue" stroke="midnightblue" points="197.371,-131.533 186.776,-131.571 195.083,-138.148 197.371,-131.533"/>
</g>
<!-- Node6 -->
<g id="node6" class="node"><title>Node6</title>
<polygon fill="white" stroke="#bfbfbf" points="290,-56.5 290,-75.5 346,-75.5 346,-56.5 290,-56.5"/>
<text text-anchor="middle" x="318" y="-63.5" font-family="Helvetica,sans-Serif" font-size="10.00">QFileInfo</text>
</g>
<!-- Node1&#45;&gt;Node6 -->
<g id="edge12" class="edge"><title>Node1&#45;&gt;Node6</title>
<path fill="none" stroke="midnightblue" d="M283.617,-168.416C265.691,-160.711 247.391,-149.124 237,-132 222.944,-108.835 253.304,-90.4673 280.777,-79.2479"/>
<polygon fill="midnightblue" stroke="midnightblue" points="282.222,-82.4418 290.296,-75.5814 279.706,-75.9095 282.222,-82.4418"/>
</g>
<!-- Node9 -->
<g id="node9" class="node"><title>Node9</title>
<g id="a_node9"><a xlink:href="common_8h.html" target="_top" xlink:title="common.h">
<polygon fill="white" stroke="black" points="6,-112.5 6,-131.5 68,-131.5 68,-112.5 6,-112.5"/>
<text text-anchor="middle" x="37" y="-119.5" font-family="Helvetica,sans-Serif" font-size="10.00">common.h</text>
</a>
</g>
</g>
<!-- Node1&#45;&gt;Node9 -->
<g id="edge10" class="edge"><title>Node1&#45;&gt;Node9</title>
<path fill="none" stroke="midnightblue" d="M264.742,-168.625C206.933,-157.044 126.468,-140.924 78.2761,-131.269"/>
<polygon fill="midnightblue" stroke="midnightblue" points="78.7036,-127.785 68.2108,-129.253 77.3285,-134.649 78.7036,-127.785"/>
</g>
<!-- Node10 -->
<g id="node10" class="node"><title>Node10</title>
<polygon fill="white" stroke="#bfbfbf" points="245.5,-112.5 245.5,-131.5 282.5,-131.5 282.5,-112.5 245.5,-112.5"/>
<text text-anchor="middle" x="264" y="-119.5" font-family="Helvetica,sans-Serif" font-size="10.00">QDir</text>
</g>
<!-- Node1&#45;&gt;Node10 -->
<g id="edge13" class="edge"><title>Node1&#45;&gt;Node10</title>
<path fill="none" stroke="midnightblue" d="M317.411,-168.399C306.715,-159.308 292.812,-147.49 281.872,-138.191"/>
<polygon fill="midnightblue" stroke="midnightblue" points="284.072,-135.468 274.186,-131.658 279.538,-140.801 284.072,-135.468"/>
</g>
<!-- Node11 -->
<g id="node11" class="node"><title>Node11</title>
<polygon fill="white" stroke="#bfbfbf" points="300.5,-112.5 300.5,-131.5 367.5,-131.5 367.5,-112.5 300.5,-112.5"/>
<text text-anchor="middle" x="334" y="-119.5" font-family="Helvetica,sans-Serif" font-size="10.00">QDateTime</text>
</g>
<!-- Node1&#45;&gt;Node11 -->
<g id="edge14" class="edge"><title>Node1&#45;&gt;Node11</title>
<path fill="none" stroke="midnightblue" d="M334,-168.399C334,-160.466 334,-150.458 334,-141.858"/>
<polygon fill="midnightblue" stroke="midnightblue" points="337.5,-141.658 334,-131.658 330.5,-141.658 337.5,-141.658"/>
</g>
<!-- Node12 -->
<g id="node12" class="node"><title>Node12</title>
<polygon fill="white" stroke="#bfbfbf" points="385.5,-112.5 385.5,-131.5 432.5,-131.5 432.5,-112.5 385.5,-112.5"/>
<text text-anchor="middle" x="409" y="-119.5" font-family="Helvetica,sans-Serif" font-size="10.00">math.h</text>
</g>
<!-- Node1&#45;&gt;Node12 -->
<g id="edge15" class="edge"><title>Node1&#45;&gt;Node12</title>
<path fill="none" stroke="midnightblue" d="M351.774,-168.399C363.346,-159.218 378.423,-147.258 390.196,-137.918"/>
<polygon fill="midnightblue" stroke="midnightblue" points="392.428,-140.615 398.087,-131.658 388.077,-135.131 392.428,-140.615"/>
</g>
<!-- Node13 -->
<g id="node13" class="node"><title>Node13</title>
<polygon fill="white" stroke="#bfbfbf" points="450.5,-112.5 450.5,-131.5 491.5,-131.5 491.5,-112.5 450.5,-112.5"/>
<text text-anchor="middle" x="471" y="-119.5" font-family="Helvetica,sans-Serif" font-size="10.00">cfloat</text>
</g>
<!-- Node1&#45;&gt;Node13 -->
<g id="edge16" class="edge"><title>Node1&#45;&gt;Node13</title>
<path fill="none" stroke="midnightblue" d="M366.467,-168.399C389.351,-158.461 419.734,-145.265 441.844,-135.662"/>
<polygon fill="midnightblue" stroke="midnightblue" points="443.287,-138.852 451.065,-131.658 440.499,-132.431 443.287,-138.852"/>
</g>
<!-- Node14 -->
<g id="node14" class="node"><title>Node14</title>
<polygon fill="white" stroke="#bfbfbf" points="510,-112.5 510,-131.5 562,-131.5 562,-112.5 510,-112.5"/>
<text text-anchor="middle" x="536" y="-119.5" font-family="Helvetica,sans-Serif" font-size="10.00">assert.h</text>
</g>
<!-- Node1&#45;&gt;Node14 -->
<g id="edge17" class="edge"><title>Node1&#45;&gt;Node14</title>
<path fill="none" stroke="midnightblue" d="M381.615,-168.475C417.872,-157.795 467.01,-143.321 500.024,-133.597"/>
<polygon fill="midnightblue" stroke="midnightblue" points="501.116,-136.924 509.72,-130.741 499.138,-130.209 501.116,-136.924"/>
</g>
<!-- Node15 -->
<g id="node15" class="node"><title>Node15</title>
<polygon fill="white" stroke="#bfbfbf" points="580.5,-112.5 580.5,-131.5 631.5,-131.5 631.5,-112.5 580.5,-112.5"/>
<text text-anchor="middle" x="606" y="-119.5" font-family="Helvetica,sans-Serif" font-size="10.00">unistd.h</text>
</g>
<!-- Node1&#45;&gt;Node15 -->
<g id="edge18" class="edge"><title>Node1&#45;&gt;Node15</title>
<path fill="none" stroke="midnightblue" d="M403.135,-168.562C448.091,-159.315 508.212,-146.603 570.417,-132.06"/>
<polygon fill="midnightblue" stroke="midnightblue" points="571.482,-135.405 580.416,-129.71 569.881,-128.59 571.482,-135.405"/>
</g>
<!-- Node3 -->
<g id="node3" class="node"><title>Node3</title>
<polygon fill="white" stroke="#bfbfbf" points="106.5,-0.5 106.5,-19.5 159.5,-19.5 159.5,-0.5 106.5,-0.5"/>
<text text-anchor="middle" x="133" y="-7.5" font-family="Helvetica,sans-Serif" font-size="10.00">QObject</text>
</g>
<!-- Node2&#45;&gt;Node3 -->
<g id="edge2" class="edge"><title>Node2&#45;&gt;Node3</title>
<path fill="none" stroke="midnightblue" d="M140.192,-112.447C125.055,-105.221 106.045,-93.2636 97,-76 88.0916,-58.9978 101.701,-39.8008 114.662,-26.7044"/>
<polygon fill="midnightblue" stroke="midnightblue" points="117.157,-29.1623 122.042,-19.7611 112.361,-24.0637 117.157,-29.1623"/>
</g>
<!-- Node4 -->
<g id="node4" class="node"><title>Node4</title>
<polygon fill="white" stroke="#bfbfbf" points="0,-56.5 0,-75.5 50,-75.5 50,-56.5 0,-56.5"/>
<text text-anchor="middle" x="25" y="-63.5" font-family="Helvetica,sans-Serif" font-size="10.00">QString</text>
</g>
<!-- Node2&#45;&gt;Node4 -->
<g id="edge3" class="edge"><title>Node2&#45;&gt;Node4</title>
<path fill="none" stroke="midnightblue" d="M140.292,-112.444C117.645,-103.517 81.9279,-89.4387 56.2482,-79.3168"/>
<polygon fill="midnightblue" stroke="midnightblue" points="57.1934,-75.9273 46.6065,-75.5164 54.6264,-82.4397 57.1934,-75.9273"/>
</g>
<!-- Node5 -->
<g id="node5" class="node"><title>Node5</title>
<polygon fill="white" stroke="#bfbfbf" points="106,-56.5 106,-75.5 146,-75.5 146,-56.5 106,-56.5"/>
<text text-anchor="middle" x="126" y="-63.5" font-family="Helvetica,sans-Serif" font-size="10.00">QFile</text>
</g>
<!-- Node2&#45;&gt;Node5 -->
<g id="edge4" class="edge"><title>Node2&#45;&gt;Node5</title>
<path fill="none" stroke="midnightblue" d="M156.055,-112.083C151.023,-104.534 143.663,-93.4948 137.487,-84.2298"/>
<polygon fill="midnightblue" stroke="midnightblue" points="140.293,-82.1301 131.834,-75.7511 134.469,-86.0131 140.293,-82.1301"/>
</g>
<!-- Node2&#45;&gt;Node6 -->
<g id="edge5" class="edge"><title>Node2&#45;&gt;Node6</title>
<path fill="none" stroke="midnightblue" d="M186.719,-112.444C212.848,-103.399 254.259,-89.064 283.576,-78.9158"/>
<polygon fill="midnightblue" stroke="midnightblue" points="285.092,-82.0951 293.397,-75.5164 282.802,-75.4801 285.092,-82.0951"/>
</g>
<!-- Node7 -->
<g id="node7" class="node"><title>Node7</title>
<g id="a_node7"><a xlink:href="typedef_8h.html" target="_top" xlink:title="typedef.h">
<polygon fill="white" stroke="black" points="201.5,-0.5 201.5,-19.5 258.5,-19.5 258.5,-0.5 201.5,-0.5"/>
<text text-anchor="middle" x="230" y="-7.5" font-family="Helvetica,sans-Serif" font-size="10.00">typedef.h</text>
</a>
</g>
</g>
<!-- Node2&#45;&gt;Node7 -->
<g id="edge6" class="edge"><title>Node2&#45;&gt;Node7</title>
<path fill="none" stroke="midnightblue" d="M188.594,-114.026C207.427,-107.545 231.334,-95.8267 243,-76 251.464,-61.615 246.166,-42.6669 239.982,-28.943"/>
<polygon fill="midnightblue" stroke="midnightblue" points="242.916,-26.9874 235.293,-19.6286 236.663,-30.1346 242.916,-26.9874"/>
</g>
<!-- Node8 -->
<g id="node8" class="node"><title>Node8</title>
<g id="a_node8"><a xlink:href="yuvsource_8h.html" target="_top" xlink:title="yuvsource.h">
<polygon fill="white" stroke="black" points="164,-56.5 164,-75.5 234,-75.5 234,-56.5 164,-56.5"/>
<text text-anchor="middle" x="199" y="-63.5" font-family="Helvetica,sans-Serif" font-size="10.00">yuvsource.h</text>
</a>
</g>
</g>
<!-- Node2&#45;&gt;Node8 -->
<g id="edge7" class="edge"><title>Node2&#45;&gt;Node8</title>
<path fill="none" stroke="midnightblue" d="M168.11,-112.083C173.282,-104.534 180.846,-93.4948 187.194,-84.2298"/>
<polygon fill="midnightblue" stroke="midnightblue" points="190.239,-85.9787 193.004,-75.7511 184.464,-82.0221 190.239,-85.9787"/>
</g>
<!-- Node8&#45;&gt;Node3 -->
<g id="edge8" class="edge"><title>Node8&#45;&gt;Node3</title>
<path fill="none" stroke="midnightblue" d="M188.396,-56.324C178.544,-48.2631 163.649,-36.0765 151.785,-26.3695"/>
<polygon fill="midnightblue" stroke="midnightblue" points="153.753,-23.4575 143.797,-19.8339 149.32,-28.8752 153.753,-23.4575"/>
</g>
<!-- Node8&#45;&gt;Node7 -->
<g id="edge9" class="edge"><title>Node8&#45;&gt;Node7</title>
<path fill="none" stroke="midnightblue" d="M204.119,-56.083C208.408,-48.6127 214.658,-37.7244 219.942,-28.5199"/>
<polygon fill="midnightblue" stroke="midnightblue" points="223.033,-30.1662 224.976,-19.7511 216.962,-26.6811 223.033,-30.1662"/>
</g>
<!-- Node9&#45;&gt;Node4 -->
<g id="edge11" class="edge"><title>Node9&#45;&gt;Node4</title>
<path fill="none" stroke="midnightblue" d="M35.0184,-112.083C33.4283,-104.927 31.1412,-94.6353 29.1536,-85.6911"/>
<polygon fill="midnightblue" stroke="midnightblue" points="32.5307,-84.7537 26.9447,-75.7511 25.6974,-86.2722 32.5307,-84.7537"/>
</g>
</g>
</svg>
