<?xml version="1.0" encoding="UTF-8" standalone="no"?>
<!DOCTYPE svg PUBLIC "-//W3C//DTD SVG 1.1//EN"
 "http://www.w3.org/Graphics/SVG/1.1/DTD/svg11.dtd">
<!-- Generated by graphviz version 2.38.0 (20140413.2041)
 -->
<!-- Title: /home/ient/YUViewOrig/YUView/source/yuvfile.h Pages: 1 -->
<svg width="316pt" height="151pt"
 viewBox="0.00 0.00 315.66 151.00" xmlns="http://www.w3.org/2000/svg" xmlns:xlink="http://www.w3.org/1999/xlink">
<g id="graph0" class="graph" transform="scale(1 1) rotate(0) translate(4 147)">
<title>/home/ient/YUViewOrig/YUView/source/yuvfile.h</title>
<polygon fill="white" stroke="none" points="-4,4 -4,-147 311.664,-147 311.664,4 -4,4"/>
<!-- Node1 -->
<g id="node1" class="node"><title>Node1</title>
<polygon fill="#bfbfbf" stroke="black" points="70.164,-112.5 70.164,-142.5 198.164,-142.5 198.164,-112.5 70.164,-112.5"/>
<text text-anchor="start" x="78.164" y="-130.5" font-family="Helvetica,sans-Serif" font-size="10.00">/home/ient/YUViewOrig</text>
<text text-anchor="middle" x="134.164" y="-119.5" font-family="Helvetica,sans-Serif" font-size="10.00">/YUView/source/yuvfile.h</text>
</g>
<!-- Node2 -->
<g id="node2" class="node"><title>Node2</title>
<polygon fill="white" stroke="#bfbfbf" points="53.664,-0.5 53.664,-19.5 106.664,-19.5 106.664,-0.5 53.664,-0.5"/>
<text text-anchor="middle" x="80.164" y="-7.5" font-family="Helvetica,sans-Serif" font-size="10.00">QObject</text>
</g>
<!-- Node1&#45;&gt;Node2 -->
<g id="edge1" class="edge"><title>Node1&#45;&gt;Node2</title>
<path fill="none" stroke="midnightblue" d="M69.881,-117.31C45.0857,-110.281 19.1373,-97.8798 4.16403,-76 -10.7691,-54.1787 18.9632,-35.3162 45.5023,-23.615"/>
<polygon fill="midnightblue" stroke="midnightblue" points="47.1636,-26.7144 55.0467,-19.6358 44.4699,-20.2534 47.1636,-26.7144"/>
</g>
<!-- Node3 -->
<g id="node3" class="node"><title>Node3</title>
<polygon fill="white" stroke="#bfbfbf" points="13.164,-56.5 13.164,-75.5 63.164,-75.5 63.164,-56.5 13.164,-56.5"/>
<text text-anchor="middle" x="38.164" y="-63.5" font-family="Helvetica,sans-Serif" font-size="10.00">QString</text>
</g>
<!-- Node1&#45;&gt;Node3 -->
<g id="edge2" class="edge"><title>Node1&#45;&gt;Node3</title>
<path fill="none" stroke="midnightblue" d="M111.413,-112.399C96.1691,-102.951 76.175,-90.5589 60.9279,-81.1089"/>
<polygon fill="midnightblue" stroke="midnightblue" points="62.4766,-77.951 52.1329,-75.6578 58.7889,-83.9009 62.4766,-77.951"/>
</g>
<!-- Node4 -->
<g id="node4" class="node"><title>Node4</title>
<polygon fill="white" stroke="#bfbfbf" points="81.164,-56.5 81.164,-75.5 121.164,-75.5 121.164,-56.5 81.164,-56.5"/>
<text text-anchor="middle" x="101.164" y="-63.5" font-family="Helvetica,sans-Serif" font-size="10.00">QFile</text>
</g>
<!-- Node1&#45;&gt;Node4 -->
<g id="edge3" class="edge"><title>Node1&#45;&gt;Node4</title>
<path fill="none" stroke="midnightblue" d="M126.343,-112.399C121.697,-104.021 115.766,-93.3269 110.827,-84.4229"/>
<polygon fill="midnightblue" stroke="midnightblue" points="113.877,-82.7052 105.966,-75.6578 107.755,-86.1004 113.877,-82.7052"/>
</g>
<!-- Node5 -->
<g id="node5" class="node"><title>Node5</title>
<polygon fill="white" stroke="#bfbfbf" points="139.164,-56.5 139.164,-75.5 195.164,-75.5 195.164,-56.5 139.164,-56.5"/>
<text text-anchor="middle" x="167.164" y="-63.5" font-family="Helvetica,sans-Serif" font-size="10.00">QFileInfo</text>
</g>
<!-- Node1&#45;&gt;Node5 -->
<g id="edge4" class="edge"><title>Node1&#45;&gt;Node5</title>
<path fill="none" stroke="midnightblue" d="M141.985,-112.399C146.632,-104.021 152.563,-93.3269 157.501,-84.4229"/>
<polygon fill="midnightblue" stroke="midnightblue" points="160.573,-86.1004 162.362,-75.6578 154.451,-82.7052 160.573,-86.1004"/>
</g>
<!-- Node6 -->
<g id="node6" class="node"><title>Node6</title>
<g id="a_node6"><a xlink:href="typedef_8h.html" target="_top" xlink:title="typedef.h">
<polygon fill="white" stroke="black" points="250.664,-0.5 250.664,-19.5 307.664,-19.5 307.664,-0.5 250.664,-0.5"/>
<text text-anchor="middle" x="279.164" y="-7.5" font-family="Helvetica,sans-Serif" font-size="10.00">typedef.h</text>
</a>
</g>
</g>
<!-- Node1&#45;&gt;Node6 -->
<g id="edge5" class="edge"><title>Node1&#45;&gt;Node6</title>
<path fill="none" stroke="midnightblue" d="M198.461,-123.328C232.156,-117.995 270.766,-105.304 292.164,-76 302.103,-62.3885 296.416,-43.0777 289.728,-29.0433"/>
<polygon fill="midnightblue" stroke="midnightblue" points="292.666,-27.1113 284.891,-19.9136 286.48,-30.3886 292.666,-27.1113"/>
</g>
<!-- Node7 -->
<g id="node7" class="node"><title>Node7</title>
<g id="a_node7"><a xlink:href="yuvsource_8h.html" target="_top" xlink:title="yuvsource.h">
<polygon fill="white" stroke="black" points="213.164,-56.5 213.164,-75.5 283.164,-75.5 283.164,-56.5 213.164,-56.5"/>
<text text-anchor="middle" x="248.164" y="-63.5" font-family="Helvetica,sans-Serif" font-size="10.00">yuvsource.h</text>
</a>
</g>
</g>
<!-- Node1&#45;&gt;Node7 -->
<g id="edge6" class="edge"><title>Node1&#45;&gt;Node7</title>
<path fill="none" stroke="midnightblue" d="M161.18,-112.399C179.795,-102.684 204.375,-89.8551 222.655,-80.3137"/>
<polygon fill="midnightblue" stroke="midnightblue" points="224.33,-83.3876 231.576,-75.6578 221.091,-77.182 224.33,-83.3876"/>
</g>
<!-- Node7&#45;&gt;Node2 -->
<g id="edge7" class="edge"><title>Node7&#45;&gt;Node2</title>
<path fill="none" stroke="midnightblue" d="M221.544,-56.4435C193.158,-47.3196 148.028,-32.8133 116.411,-22.6509"/>
<polygon fill="midnightblue" stroke="midnightblue" points="117.251,-19.2445 106.66,-19.5164 115.109,-25.9087 117.251,-19.2445"/>
</g>
<!-- Node7&#45;&gt;Node6 -->
<g id="edge8" class="edge"><title>Node7&#45;&gt;Node6</title>
<path fill="none" stroke="midnightblue" d="M253.283,-56.083C257.572,-48.6127 263.822,-37.7244 269.106,-28.5199"/>
<polygon fill="midnightblue" stroke="midnightblue" points="272.197,-30.1662 274.14,-19.7511 266.126,-26.6811 272.197,-30.1662"/>
</g>
</g>
</svg>
