<?xml version="1.0" encoding="UTF-8" standalone="no"?>
<!DOCTYPE svg PUBLIC "-//W3C//DTD SVG 1.1//EN"
 "http://www.w3.org/Graphics/SVG/1.1/DTD/svg11.dtd">
<!-- Generated by graphviz version 2.38.0 (20140413.2041)
 -->
<!-- Title: /home/ient/YUViewOrig/YUView/source/yuviewapp.h Pages: 1 -->
<svg width="164pt" height="106pt"
 viewBox="0.00 0.00 164.00 106.00" xmlns="http://www.w3.org/2000/svg" xmlns:xlink="http://www.w3.org/1999/xlink">
<g id="graph0" class="graph" transform="scale(1 1) rotate(0) translate(4 102)">
<title>/home/ient/YUViewOrig/YUView/source/yuviewapp.h</title>
<polygon fill="white" stroke="none" points="-4,4 -4,-102 160,-102 160,4 -4,4"/>
<!-- Node1 -->
<g id="node1" class="node"><title>Node1</title>
<polygon fill="#bfbfbf" stroke="black" points="5,-67.5 5,-97.5 151,-97.5 151,-67.5 5,-67.5"/>
<text text-anchor="start" x="13" y="-85.5" font-family="Helvetica,sans-Serif" font-size="10.00">/home/ient/YUViewOrig</text>
<text text-anchor="middle" x="78" y="-74.5" font-family="Helvetica,sans-Serif" font-size="10.00">/YUView/source/yuviewapp.h</text>
</g>
<!-- Node2 -->
<g id="node2" class="node"><title>Node2</title>
<g id="a_node2"><a xlink:href="yuviewapp_8cpp.html" target="_top" xlink:title="/home/ient/YUViewOrig\l/YUView/source/yuviewapp.cpp">
<polygon fill="white" stroke="black" points="0,-0.5 0,-30.5 156,-30.5 156,-0.5 0,-0.5"/>
<text text-anchor="start" x="8" y="-18.5" font-family="Helvetica,sans-Serif" font-size="10.00">/home/ient/YUViewOrig</text>
<text text-anchor="middle" x="78" y="-7.5" font-family="Helvetica,sans-Serif" font-size="10.00">/YUView/source/yuviewapp.cpp</text>
</a>
</g>
</g>
<!-- Node1&#45;&gt;Node2 -->
<g id="edge1" class="edge"><title>Node1&#45;&gt;Node2</title>
<path fill="none" stroke="midnightblue" d="M78,-57.1081C78,-48.1539 78,-38.3227 78,-30.5765"/>
<polygon fill="midnightblue" stroke="midnightblue" points="74.5001,-57.3959 78,-67.396 81.5001,-57.396 74.5001,-57.3959"/>
</g>
</g>
</svg>
