<?xml version="1.0" encoding="UTF-8" standalone="no"?>
<!DOCTYPE svg PUBLIC "-//W3C//DTD SVG 1.1//EN"
 "http://www.w3.org/Graphics/SVG/1.1/DTD/svg11.dtd">
<!-- Generated by graphviz version 2.38.0 (20140413.2041)
 -->
<!-- Title: SwapInt32BigToHost Pages: 1 -->
<!--zoomable 85 -->
<svg id="main" version="1.1" xmlns="http://www.w3.org/2000/svg" xmlns:xlink="http://www.w3.org/1999/xlink" xml:space="preserve" onload="init(evt)">
<style type="text/css"><![CDATA[
.edge:hover path { stroke: red; }
.edge:hover polygon { stroke: red; fill: red; }
]]></style>
<script type="text/javascript"><![CDATA[
var edges = document.getElementsByTagName('g');
if (edges && edges.length) {
  for (var i=0;i<edges.length;i++) {
    if (edges[i].id.substr(0,4)=='edge') {
      edges[i].setAttribute('class','edge');
    }
  }
}
]]></script>
        <defs>
                <circle id="rim" cx="0" cy="0" r="7"/>
                <circle id="rim2" cx="0" cy="0" r="3.5"/>
                <g id="zoomPlus">
                        <use xlink:href="#rim" fill="#404040">
                                <set attributeName="fill" to="#808080" begin="zoomplus.mouseover" end="zoomplus.mouseout"/>
                        </use>
                        <path d="M-4,0h8M0,-4v8" fill="none" stroke="white" stroke-width="1.5" pointer-events="none"/>
                </g>
                <g id="zoomMin">
                        <use xlink:href="#rim" fill="#404040">
                                <set attributeName="fill" to="#808080" begin="zoomminus.mouseover" end="zoomminus.mouseout"/>
                        </use>
                        <path d="M-4,0h8" fill="none" stroke="white" stroke-width="1.5" pointer-events="none"/>
                </g>
                <g id="dirArrow">
                        <path fill="none" stroke="white" stroke-width="1.5" d="M0,-3.0v7 M-2.5,-0.5L0,-3.0L2.5,-0.5"/>
                </g>
               <g id="resetDef">
                       <use xlink:href="#rim2" fill="#404040">
                               <set attributeName="fill" to="#808080" begin="reset.mouseover" end="reset.mouseout"/>
                       </use>
               </g>
        </defs>

<script type="text/javascript">
var viewWidth = 1178;
var viewHeight = 85;
var sectionId = 'dynsection-5';
</script>
<script xlink:href="svgpan.js"/>
<svg id="graph" class="graph">
<g id="viewport">
<title>SwapInt32BigToHost</title>
<polygon fill="white" stroke="none" points="-4,4 -4,-81 1174,-81 1174,4 -4,4"/>
<!-- Node1 -->
<g id="node1" class="node"><title>Node1</title>
<polygon fill="#bfbfbf" stroke="black" points="0,-19.5 0,-38.5 110,-38.5 110,-19.5 0,-19.5"/>
<text text-anchor="middle" x="55" y="-26.5" font-family="Helvetica,sans-Serif" font-size="10.00">SwapInt32BigToHost</text>
</g>
<!-- Node2 -->
<g id="node2" class="node"><title>Node2</title>
<g id="a_node2"><a xlink:href="classYUVSource.html#aaec9232f1fe9e0b8beaad1cd4cb5279c" target="_top" xlink:title="YUVSource::convert2YUV444">
<polygon fill="white" stroke="black" points="146,-19.5 146,-38.5 295,-38.5 295,-19.5 146,-19.5"/>
<text text-anchor="middle" x="220.5" y="-26.5" font-family="Helvetica,sans-Serif" font-size="10.00">YUVSource::convert2YUV444</text>
</a>
</g>
</g>
<!-- Node1&#45;&gt;Node2 -->
<g id="edge1" class="edge"><title>Node1&#45;&gt;Node2</title>
<path fill="none" stroke="midnightblue" d="M120.445,-29C128.766,-29 137.339,-29 145.795,-29"/>
<polygon fill="midnightblue" stroke="midnightblue" points="120.443,-25.5001 110.443,-29 120.443,-32.5001 120.443,-25.5001"/>
</g>
<!-- Node3 -->
<g id="node3" class="node"><title>Node3</title>
<g id="a_node3"><a xlink:href="classde265File.html#a3c517644cd5710d54289b2cdba99babc" target="_top" xlink:title="de265File::copyImgTo444Buffer">
<polygon fill="white" stroke="black" points="331,-38.5 331,-57.5 486,-57.5 486,-38.5 331,-38.5"/>
<text text-anchor="middle" x="408.5" y="-45.5" font-family="Helvetica,sans-Serif" font-size="10.00">de265File::copyImgTo444Buffer</text>
</a>
</g>
</g>
<!-- Node2&#45;&gt;Node3 -->
<g id="edge2" class="edge"><title>Node2&#45;&gt;Node3</title>
<path fill="none" stroke="midnightblue" d="M305.036,-37.5333C313.634,-38.4115 322.34,-39.3008 330.857,-40.1709"/>
<polygon fill="midnightblue" stroke="midnightblue" points="305.316,-34.0437 295.012,-36.5093 304.605,-41.0075 305.316,-34.0437"/>
</g>
<!-- Node9 -->
<g id="node9" class="node"><title>Node9</title>
<g id="a_node9"><a xlink:href="classYUVFile.html#abf82a0b4c126ed5d1d9eaa7ff096e7b0" target="_top" xlink:title="YUVFile::getOneFrame">
<polygon fill="white" stroke="black" points="349,-0.5 349,-19.5 468,-19.5 468,-0.5 349,-0.5"/>
<text text-anchor="middle" x="408.5" y="-7.5" font-family="Helvetica,sans-Serif" font-size="10.00">YUVFile::getOneFrame</text>
</a>
</g>
</g>
<!-- Node2&#45;&gt;Node9 -->
<g id="edge9" class="edge"><title>Node2&#45;&gt;Node9</title>
<path fill="none" stroke="midnightblue" d="M305.152,-20.4549C319.899,-18.9484 334.963,-17.4097 348.84,-15.9922"/>
<polygon fill="midnightblue" stroke="midnightblue" points="304.605,-16.9925 295.012,-21.4907 305.316,-23.9563 304.605,-16.9925"/>
</g>
<!-- Node4 -->
<g id="node4" class="node"><title>Node4</title>
<g id="a_node4"><a xlink:href="classde265File.html#af2a66d6d47d74d992f61da5048d90538" target="_top" xlink:title="de265File::decodeOnePicture">
<polygon fill="white" stroke="black" points="522,-38.5 522,-57.5 667,-57.5 667,-38.5 522,-38.5"/>
<text text-anchor="middle" x="594.5" y="-45.5" font-family="Helvetica,sans-Serif" font-size="10.00">de265File::decodeOnePicture</text>
</a>
</g>
</g>
<!-- Node3&#45;&gt;Node4 -->
<g id="edge3" class="edge"><title>Node3&#45;&gt;Node4</title>
<path fill="none" stroke="midnightblue" d="M496.249,-48C504.848,-48 513.508,-48 521.929,-48"/>
<polygon fill="midnightblue" stroke="midnightblue" points="496.2,-44.5001 486.2,-48 496.2,-51.5001 496.2,-44.5001"/>
</g>
<!-- Node5 -->
<g id="node5" class="node"><title>Node5</title>
<g id="a_node5"><a xlink:href="classde265File.html#afc2f00a9676e0b5c3fdd821619bda482" target="_top" xlink:title="de265File::de265File">
<polygon fill="white" stroke="black" points="899.5,-57.5 899.5,-76.5 1006.5,-76.5 1006.5,-57.5 899.5,-57.5"/>
<text text-anchor="middle" x="953" y="-64.5" font-family="Helvetica,sans-Serif" font-size="10.00">de265File::de265File</text>
</a>
</g>
</g>
<!-- Node4&#45;&gt;Node5 -->
<g id="edge4" class="edge"><title>Node4&#45;&gt;Node5</title>
<path fill="none" stroke="midnightblue" d="M677.511,-52.3709C745.813,-56.0111 841.038,-61.0862 899.495,-64.2017"/>
<polygon fill="midnightblue" stroke="midnightblue" points="677.386,-48.8593 667.214,-51.8221 677.014,-55.8494 677.386,-48.8593"/>
</g>
<!-- Node6 -->
<g id="node6" class="node"><title>Node6</title>
<g id="a_node6"><a xlink:href="classde265File.html#a948bfcc1b2c4ad6f0a3aa54b99f9553f" target="_top" xlink:title="de265File::backgroundDecoder">
<polygon fill="white" stroke="black" points="703,-19.5 703,-38.5 855,-38.5 855,-19.5 703,-19.5"/>
<text text-anchor="middle" x="779" y="-26.5" font-family="Helvetica,sans-Serif" font-size="10.00">de265File::backgroundDecoder</text>
</a>
</g>
</g>
<!-- Node4&#45;&gt;Node6 -->
<g id="edge5" class="edge"><title>Node4&#45;&gt;Node6</title>
<path fill="none" stroke="midnightblue" d="M677.138,-39.5007C685.745,-38.6046 694.468,-37.6965 702.995,-36.8088"/>
<polygon fill="midnightblue" stroke="midnightblue" points="676.689,-36.0285 667.105,-40.5452 677.414,-42.9908 676.689,-36.0285"/>
</g>
<!-- Node6&#45;&gt;Node5 -->
<g id="edge6" class="edge"><title>Node6&#45;&gt;Node5</title>
<path fill="none" stroke="midnightblue" d="M833.196,-40.7526C857.517,-46.1258 885.955,-52.4086 908.909,-57.4799"/>
<polygon fill="midnightblue" stroke="midnightblue" points="833.922,-37.3288 823.403,-38.589 832.412,-44.164 833.922,-37.3288"/>
</g>
<!-- Node7 -->
<g id="node7" class="node"><title>Node7</title>
<g id="a_node7"><a xlink:href="classde265File.html#a4778a7853c318063a9efd5f0990e79bf" target="_top" xlink:title="de265File::getOneFrame">
<polygon fill="white" stroke="black" points="891,-19.5 891,-38.5 1015,-38.5 1015,-19.5 891,-19.5"/>
<text text-anchor="middle" x="953" y="-26.5" font-family="Helvetica,sans-Serif" font-size="10.00">de265File::getOneFrame</text>
</a>
</g>
</g>
<!-- Node6&#45;&gt;Node7 -->
<g id="edge7" class="edge"><title>Node6&#45;&gt;Node7</title>
<path fill="none" stroke="midnightblue" d="M865.305,-29C873.942,-29 882.589,-29 890.896,-29"/>
<polygon fill="midnightblue" stroke="midnightblue" points="865.192,-25.5001 855.191,-29 865.191,-32.5001 865.192,-25.5001"/>
</g>
<!-- Node8 -->
<g id="node8" class="node"><title>Node8</title>
<g id="a_node8"><a xlink:href="classde265File.html#af878636f68cd2ee3a4dfc6b3b0169676" target="_top" xlink:title="de265File::loadStatistic\lToCache">
<polygon fill="white" stroke="black" points="1051,-14 1051,-44 1170,-44 1170,-14 1051,-14"/>
<text text-anchor="start" x="1059" y="-32" font-family="Helvetica,sans-Serif" font-size="10.00">de265File::loadStatistic</text>
<text text-anchor="middle" x="1110.5" y="-21" font-family="Helvetica,sans-Serif" font-size="10.00">ToCache</text>
</a>
</g>
</g>
<!-- Node7&#45;&gt;Node8 -->
<g id="edge8" class="edge"><title>Node7&#45;&gt;Node8</title>
<path fill="none" stroke="midnightblue" d="M1025.09,-29C1033.75,-29 1042.51,-29 1050.95,-29"/>
<polygon fill="midnightblue" stroke="midnightblue" points="1025.01,-25.5001 1015.01,-29 1025.01,-32.5001 1025.01,-25.5001"/>
</g>
</g>
</svg>
        <g id="navigator" transform="translate(0 0)" fill="#404254">
                <rect fill="#f2f5e9" fill-opacity="0.5" stroke="#606060" stroke-width=".5" x="0" y="0" width="60" height="60"/>
                <use id="zoomplus" xlink:href="#zoomPlus" x="17" y="9" onmousedown="handleZoom(evt,'in')"/>
                <use id="zoomminus" xlink:href="#zoomMin" x="42" y="9" onmousedown="handleZoom(evt,'out')"/>
                <use id="reset" xlink:href="#resetDef" x="30" y="36" onmousedown="handleReset()"/>
                <g id="arrowUp" xlink:href="#dirArrow" transform="translate(30 24)" onmousedown="handlePan(0,-1)">
                  <use xlink:href="#rim" fill="#404040">
                        <set attributeName="fill" to="#808080" begin="arrowUp.mouseover" end="arrowUp.mouseout"/>
                  </use>
                  <path fill="none" stroke="white" stroke-width="1.5" d="M0,-3.0v7 M-2.5,-0.5L0,-3.0L2.5,-0.5"/>
                </g>
                <g id="arrowRight" xlink:href="#dirArrow" transform="rotate(90) translate(36 -43)" onmousedown="handlePan(1,0)">
                  <use xlink:href="#rim" fill="#404040">
                        <set attributeName="fill" to="#808080" begin="arrowRight.mouseover" end="arrowRight.mouseout"/>
                  </use>
                  <path fill="none" stroke="white" stroke-width="1.5" d="M0,-3.0v7 M-2.5,-0.5L0,-3.0L2.5,-0.5"/>
                </g>
                <g id="arrowDown" xlink:href="#dirArrow" transform="rotate(180) translate(-30 -48)" onmousedown="handlePan(0,1)">
                  <use xlink:href="#rim" fill="#404040">
                        <set attributeName="fill" to="#808080" begin="arrowDown.mouseover" end="arrowDown.mouseout"/>
                  </use>
                  <path fill="none" stroke="white" stroke-width="1.5" d="M0,-3.0v7 M-2.5,-0.5L0,-3.0L2.5,-0.5"/>
                </g>
                <g id="arrowLeft" xlink:href="#dirArrow" transform="rotate(270) translate(-36 17)" onmousedown="handlePan(-1,0)">
                  <use xlink:href="#rim" fill="#404040">
                        <set attributeName="fill" to="#808080" begin="arrowLeft.mouseover" end="arrowLeft.mouseout"/>
                  </use>
                  <path fill="none" stroke="white" stroke-width="1.5" d="M0,-3.0v7 M-2.5,-0.5L0,-3.0L2.5,-0.5"/>
                </g>
        </g>
        <svg viewBox="0 0 15 15" width="100%" height="30px" preserveAspectRatio="xMaxYMin meet">
         <g id="arrow_out" transform="scale(0.3 0.3)">
          <a xlink:href="yuvsource_8cpp_a27981d91849b459bede94a48e2ba017c_icgraph_org.svg" target="_base">
           <rect id="button" ry="5" rx="5" y="6" x="6" height="38" width="38"
                fill="#f2f5e9" fill-opacity="0.5" stroke="#606060" stroke-width="1.0"/>
           <path id="arrow"
             d="M 11.500037,31.436501 C 11.940474,20.09759 22.043105,11.32322 32.158766,21.979434 L 37.068811,17.246167 C 37.068811,17.246167 37.088388,32 37.088388,32 L 22.160133,31.978069 C 22.160133,31.978069 26.997745,27.140456 26.997745,27.140456 C 18.528582,18.264221 13.291696,25.230495 11.500037,31.436501 z"
             style="fill:#404040;"/>
          </a>
         </g>
        </svg>
</svg>
